<?xml version="1.0" encoding="utf-8" standalone="no"?>
<!DOCTYPE svg PUBLIC "-//W3C//DTD SVG 1.1//EN"
  "http://www.w3.org/Graphics/SVG/1.1/DTD/svg11.dtd">
<!-- Created with matplotlib (http://matplotlib.org/) -->
<svg height="576pt" version="1.1" viewBox="0 0 648 576" width="648pt" xmlns="http://www.w3.org/2000/svg" xmlns:xlink="http://www.w3.org/1999/xlink">
 <defs>
  <style type="text/css">
*{stroke-linecap:butt;stroke-linejoin:round;}
  </style>
 </defs>
 <g id="figure_1">
  <g id="patch_1">
   <path d="M 0 576 
L 648 576 
L 648 0 
L 0 0 
z
" style="fill:#ffffff;"/>
  </g>
  <g id="axes_1">
   <g id="patch_2">
    <path d="M 81 512.64 
L 583.2 512.64 
L 583.2 69.12 
L 81 69.12 
z
" style="fill:#ffffff;"/>
   </g>
   <g id="matplotlib.axis_1">
    <g id="xtick_1">
     <g id="line2d_1"/>
     <g id="text_1">
      <!-- 2012 -->
      <defs>
       <path d="M 19.1875 8.296875 
L 53.609375 8.296875 
L 53.609375 0 
L 7.328125 0 
L 7.328125 8.296875 
Q 12.9375 14.109375 22.625 23.890625 
Q 32.328125 33.6875 34.8125 36.53125 
Q 39.546875 41.84375 41.421875 45.53125 
Q 43.3125 49.21875 43.3125 52.78125 
Q 43.3125 58.59375 39.234375 62.25 
Q 35.15625 65.921875 28.609375 65.921875 
Q 23.96875 65.921875 18.8125 64.3125 
Q 13.671875 62.703125 7.8125 59.421875 
L 7.8125 69.390625 
Q 13.765625 71.78125 18.9375 73 
Q 24.125 74.21875 28.421875 74.21875 
Q 39.75 74.21875 46.484375 68.546875 
Q 53.21875 62.890625 53.21875 53.421875 
Q 53.21875 48.921875 51.53125 44.890625 
Q 49.859375 40.875 45.40625 35.40625 
Q 44.1875 33.984375 37.640625 27.21875 
Q 31.109375 20.453125 19.1875 8.296875 
z
" id="DejaVuSans-32"/>
       <path d="M 31.78125 66.40625 
Q 24.171875 66.40625 20.328125 58.90625 
Q 16.5 51.421875 16.5 36.375 
Q 16.5 21.390625 20.328125 13.890625 
Q 24.171875 6.390625 31.78125 6.390625 
Q 39.453125 6.390625 43.28125 13.890625 
Q 47.125 21.390625 47.125 36.375 
Q 47.125 51.421875 43.28125 58.90625 
Q 39.453125 66.40625 31.78125 66.40625 
z
M 31.78125 74.21875 
Q 44.046875 74.21875 50.515625 64.515625 
Q 56.984375 54.828125 56.984375 36.375 
Q 56.984375 17.96875 50.515625 8.265625 
Q 44.046875 -1.421875 31.78125 -1.421875 
Q 19.53125 -1.421875 13.0625 8.265625 
Q 6.59375 17.96875 6.59375 36.375 
Q 6.59375 54.828125 13.0625 64.515625 
Q 19.53125 74.21875 31.78125 74.21875 
z
" id="DejaVuSans-30"/>
       <path d="M 12.40625 8.296875 
L 28.515625 8.296875 
L 28.515625 63.921875 
L 10.984375 60.40625 
L 10.984375 69.390625 
L 28.421875 72.90625 
L 38.28125 72.90625 
L 38.28125 8.296875 
L 54.390625 8.296875 
L 54.390625 0 
L 12.40625 0 
z
" id="DejaVuSans-31"/>
      </defs>
      <g style="fill:#262626;" transform="translate(106.691429 524.31875)scale(0.08 -0.08)">
       <use xlink:href="#DejaVuSans-32"/>
       <use x="63.623047" xlink:href="#DejaVuSans-30"/>
       <use x="127.246094" xlink:href="#DejaVuSans-31"/>
       <use x="190.869141" xlink:href="#DejaVuSans-32"/>
      </g>
     </g>
    </g>
    <g id="xtick_2">
     <g id="line2d_2"/>
     <g id="text_2">
      <!-- 2013 -->
      <defs>
       <path d="M 40.578125 39.3125 
Q 47.65625 37.796875 51.625 33 
Q 55.609375 28.21875 55.609375 21.1875 
Q 55.609375 10.40625 48.1875 4.484375 
Q 40.765625 -1.421875 27.09375 -1.421875 
Q 22.515625 -1.421875 17.65625 -0.515625 
Q 12.796875 0.390625 7.625 2.203125 
L 7.625 11.71875 
Q 11.71875 9.328125 16.59375 8.109375 
Q 21.484375 6.890625 26.8125 6.890625 
Q 36.078125 6.890625 40.9375 10.546875 
Q 45.796875 14.203125 45.796875 21.1875 
Q 45.796875 27.640625 41.28125 31.265625 
Q 36.765625 34.90625 28.71875 34.90625 
L 20.21875 34.90625 
L 20.21875 43.015625 
L 29.109375 43.015625 
Q 36.375 43.015625 40.234375 45.921875 
Q 44.09375 48.828125 44.09375 54.296875 
Q 44.09375 59.90625 40.109375 62.90625 
Q 36.140625 65.921875 28.71875 65.921875 
Q 24.65625 65.921875 20.015625 65.03125 
Q 15.375 64.15625 9.8125 62.3125 
L 9.8125 71.09375 
Q 15.4375 72.65625 20.34375 73.4375 
Q 25.25 74.21875 29.59375 74.21875 
Q 40.828125 74.21875 47.359375 69.109375 
Q 53.90625 64.015625 53.90625 55.328125 
Q 53.90625 49.265625 50.4375 45.09375 
Q 46.96875 40.921875 40.578125 39.3125 
z
" id="DejaVuSans-33"/>
      </defs>
      <g style="fill:#262626;" transform="translate(178.434286 524.31875)scale(0.08 -0.08)">
       <use xlink:href="#DejaVuSans-32"/>
       <use x="63.623047" xlink:href="#DejaVuSans-30"/>
       <use x="127.246094" xlink:href="#DejaVuSans-31"/>
       <use x="190.869141" xlink:href="#DejaVuSans-33"/>
      </g>
     </g>
    </g>
    <g id="xtick_3">
     <g id="line2d_3"/>
     <g id="text_3">
      <!-- 2014 -->
      <defs>
       <path d="M 37.796875 64.3125 
L 12.890625 25.390625 
L 37.796875 25.390625 
z
M 35.203125 72.90625 
L 47.609375 72.90625 
L 47.609375 25.390625 
L 58.015625 25.390625 
L 58.015625 17.1875 
L 47.609375 17.1875 
L 47.609375 0 
L 37.796875 0 
L 37.796875 17.1875 
L 4.890625 17.1875 
L 4.890625 26.703125 
z
" id="DejaVuSans-34"/>
      </defs>
      <g style="fill:#262626;" transform="translate(250.177143 524.31875)scale(0.08 -0.08)">
       <use xlink:href="#DejaVuSans-32"/>
       <use x="63.623047" xlink:href="#DejaVuSans-30"/>
       <use x="127.246094" xlink:href="#DejaVuSans-31"/>
       <use x="190.869141" xlink:href="#DejaVuSans-34"/>
      </g>
     </g>
    </g>
    <g id="xtick_4">
     <g id="line2d_4"/>
     <g id="text_4">
      <!-- 2015 -->
      <defs>
       <path d="M 10.796875 72.90625 
L 49.515625 72.90625 
L 49.515625 64.59375 
L 19.828125 64.59375 
L 19.828125 46.734375 
Q 21.96875 47.46875 24.109375 47.828125 
Q 26.265625 48.1875 28.421875 48.1875 
Q 40.625 48.1875 47.75 41.5 
Q 54.890625 34.8125 54.890625 23.390625 
Q 54.890625 11.625 47.5625 5.09375 
Q 40.234375 -1.421875 26.90625 -1.421875 
Q 22.3125 -1.421875 17.546875 -0.640625 
Q 12.796875 0.140625 7.71875 1.703125 
L 7.71875 11.625 
Q 12.109375 9.234375 16.796875 8.0625 
Q 21.484375 6.890625 26.703125 6.890625 
Q 35.15625 6.890625 40.078125 11.328125 
Q 45.015625 15.765625 45.015625 23.390625 
Q 45.015625 31 40.078125 35.4375 
Q 35.15625 39.890625 26.703125 39.890625 
Q 22.75 39.890625 18.8125 39.015625 
Q 14.890625 38.140625 10.796875 36.28125 
z
" id="DejaVuSans-35"/>
      </defs>
      <g style="fill:#262626;" transform="translate(321.92 524.31875)scale(0.08 -0.08)">
       <use xlink:href="#DejaVuSans-32"/>
       <use x="63.623047" xlink:href="#DejaVuSans-30"/>
       <use x="127.246094" xlink:href="#DejaVuSans-31"/>
       <use x="190.869141" xlink:href="#DejaVuSans-35"/>
      </g>
     </g>
    </g>
    <g id="xtick_5">
     <g id="line2d_5"/>
     <g id="text_5">
      <!-- 2016 -->
      <defs>
       <path d="M 33.015625 40.375 
Q 26.375 40.375 22.484375 35.828125 
Q 18.609375 31.296875 18.609375 23.390625 
Q 18.609375 15.53125 22.484375 10.953125 
Q 26.375 6.390625 33.015625 6.390625 
Q 39.65625 6.390625 43.53125 10.953125 
Q 47.40625 15.53125 47.40625 23.390625 
Q 47.40625 31.296875 43.53125 35.828125 
Q 39.65625 40.375 33.015625 40.375 
z
M 52.59375 71.296875 
L 52.59375 62.3125 
Q 48.875 64.0625 45.09375 64.984375 
Q 41.3125 65.921875 37.59375 65.921875 
Q 27.828125 65.921875 22.671875 59.328125 
Q 17.53125 52.734375 16.796875 39.40625 
Q 19.671875 43.65625 24.015625 45.921875 
Q 28.375 48.1875 33.59375 48.1875 
Q 44.578125 48.1875 50.953125 41.515625 
Q 57.328125 34.859375 57.328125 23.390625 
Q 57.328125 12.15625 50.6875 5.359375 
Q 44.046875 -1.421875 33.015625 -1.421875 
Q 20.359375 -1.421875 13.671875 8.265625 
Q 6.984375 17.96875 6.984375 36.375 
Q 6.984375 53.65625 15.1875 63.9375 
Q 23.390625 74.21875 37.203125 74.21875 
Q 40.921875 74.21875 44.703125 73.484375 
Q 48.484375 72.75 52.59375 71.296875 
z
" id="DejaVuSans-36"/>
      </defs>
      <g style="fill:#262626;" transform="translate(393.662857 524.31875)scale(0.08 -0.08)">
       <use xlink:href="#DejaVuSans-32"/>
       <use x="63.623047" xlink:href="#DejaVuSans-30"/>
       <use x="127.246094" xlink:href="#DejaVuSans-31"/>
       <use x="190.869141" xlink:href="#DejaVuSans-36"/>
      </g>
     </g>
    </g>
    <g id="xtick_6">
     <g id="line2d_6"/>
     <g id="text_6">
      <!-- 2017 -->
      <defs>
       <path d="M 8.203125 72.90625 
L 55.078125 72.90625 
L 55.078125 68.703125 
L 28.609375 0 
L 18.3125 0 
L 43.21875 64.59375 
L 8.203125 64.59375 
z
" id="DejaVuSans-37"/>
      </defs>
      <g style="fill:#262626;" transform="translate(465.405714 524.31875)scale(0.08 -0.08)">
       <use xlink:href="#DejaVuSans-32"/>
       <use x="63.623047" xlink:href="#DejaVuSans-30"/>
       <use x="127.246094" xlink:href="#DejaVuSans-31"/>
       <use x="190.869141" xlink:href="#DejaVuSans-37"/>
      </g>
     </g>
    </g>
    <g id="xtick_7">
     <g id="line2d_7"/>
     <g id="text_7">
      <!-- 2018 -->
      <defs>
       <path d="M 31.78125 34.625 
Q 24.75 34.625 20.71875 30.859375 
Q 16.703125 27.09375 16.703125 20.515625 
Q 16.703125 13.921875 20.71875 10.15625 
Q 24.75 6.390625 31.78125 6.390625 
Q 38.8125 6.390625 42.859375 10.171875 
Q 46.921875 13.96875 46.921875 20.515625 
Q 46.921875 27.09375 42.890625 30.859375 
Q 38.875 34.625 31.78125 34.625 
z
M 21.921875 38.8125 
Q 15.578125 40.375 12.03125 44.71875 
Q 8.5 49.078125 8.5 55.328125 
Q 8.5 64.0625 14.71875 69.140625 
Q 20.953125 74.21875 31.78125 74.21875 
Q 42.671875 74.21875 48.875 69.140625 
Q 55.078125 64.0625 55.078125 55.328125 
Q 55.078125 49.078125 51.53125 44.71875 
Q 48 40.375 41.703125 38.8125 
Q 48.828125 37.15625 52.796875 32.3125 
Q 56.78125 27.484375 56.78125 20.515625 
Q 56.78125 9.90625 50.3125 4.234375 
Q 43.84375 -1.421875 31.78125 -1.421875 
Q 19.734375 -1.421875 13.25 4.234375 
Q 6.78125 9.90625 6.78125 20.515625 
Q 6.78125 27.484375 10.78125 32.3125 
Q 14.796875 37.15625 21.921875 38.8125 
z
M 18.3125 54.390625 
Q 18.3125 48.734375 21.84375 45.5625 
Q 25.390625 42.390625 31.78125 42.390625 
Q 38.140625 42.390625 41.71875 45.5625 
Q 45.3125 48.734375 45.3125 54.390625 
Q 45.3125 60.0625 41.71875 63.234375 
Q 38.140625 66.40625 31.78125 66.40625 
Q 25.390625 66.40625 21.84375 63.234375 
Q 18.3125 60.0625 18.3125 54.390625 
z
" id="DejaVuSans-38"/>
      </defs>
      <g style="fill:#262626;" transform="translate(537.148571 524.31875)scale(0.08 -0.08)">
       <use xlink:href="#DejaVuSans-32"/>
       <use x="63.623047" xlink:href="#DejaVuSans-30"/>
       <use x="127.246094" xlink:href="#DejaVuSans-31"/>
       <use x="190.869141" xlink:href="#DejaVuSans-38"/>
      </g>
     </g>
    </g>
    <g id="text_8">
     <!-- Year -->
     <defs>
      <path d="M -0.203125 72.90625 
L 10.40625 72.90625 
L 30.609375 42.921875 
L 50.6875 72.90625 
L 61.28125 72.90625 
L 35.5 34.71875 
L 35.5 0 
L 25.59375 0 
L 25.59375 34.71875 
z
" id="DejaVuSans-59"/>
      <path d="M 56.203125 29.59375 
L 56.203125 25.203125 
L 14.890625 25.203125 
Q 15.484375 15.921875 20.484375 11.0625 
Q 25.484375 6.203125 34.421875 6.203125 
Q 39.59375 6.203125 44.453125 7.46875 
Q 49.3125 8.734375 54.109375 11.28125 
L 54.109375 2.78125 
Q 49.265625 0.734375 44.1875 -0.34375 
Q 39.109375 -1.421875 33.890625 -1.421875 
Q 20.796875 -1.421875 13.15625 6.1875 
Q 5.515625 13.8125 5.515625 26.8125 
Q 5.515625 40.234375 12.765625 48.109375 
Q 20.015625 56 32.328125 56 
Q 43.359375 56 49.78125 48.890625 
Q 56.203125 41.796875 56.203125 29.59375 
z
M 47.21875 32.234375 
Q 47.125 39.59375 43.09375 43.984375 
Q 39.0625 48.390625 32.421875 48.390625 
Q 24.90625 48.390625 20.390625 44.140625 
Q 15.875 39.890625 15.1875 32.171875 
z
" id="DejaVuSans-65"/>
      <path d="M 34.28125 27.484375 
Q 23.390625 27.484375 19.1875 25 
Q 14.984375 22.515625 14.984375 16.5 
Q 14.984375 11.71875 18.140625 8.90625 
Q 21.296875 6.109375 26.703125 6.109375 
Q 34.1875 6.109375 38.703125 11.40625 
Q 43.21875 16.703125 43.21875 25.484375 
L 43.21875 27.484375 
z
M 52.203125 31.203125 
L 52.203125 0 
L 43.21875 0 
L 43.21875 8.296875 
Q 40.140625 3.328125 35.546875 0.953125 
Q 30.953125 -1.421875 24.3125 -1.421875 
Q 15.921875 -1.421875 10.953125 3.296875 
Q 6 8.015625 6 15.921875 
Q 6 25.140625 12.171875 29.828125 
Q 18.359375 34.515625 30.609375 34.515625 
L 43.21875 34.515625 
L 43.21875 35.40625 
Q 43.21875 41.609375 39.140625 45 
Q 35.0625 48.390625 27.6875 48.390625 
Q 23 48.390625 18.546875 47.265625 
Q 14.109375 46.140625 10.015625 43.890625 
L 10.015625 52.203125 
Q 14.9375 54.109375 19.578125 55.046875 
Q 24.21875 56 28.609375 56 
Q 40.484375 56 46.34375 49.84375 
Q 52.203125 43.703125 52.203125 31.203125 
z
" id="DejaVuSans-61"/>
      <path d="M 41.109375 46.296875 
Q 39.59375 47.171875 37.8125 47.578125 
Q 36.03125 48 33.890625 48 
Q 26.265625 48 22.1875 43.046875 
Q 18.109375 38.09375 18.109375 28.8125 
L 18.109375 0 
L 9.078125 0 
L 9.078125 54.6875 
L 18.109375 54.6875 
L 18.109375 46.1875 
Q 20.953125 51.171875 25.484375 53.578125 
Q 30.03125 56 36.53125 56 
Q 37.453125 56 38.578125 55.875 
Q 39.703125 55.765625 41.0625 55.515625 
z
" id="DejaVuSans-72"/>
     </defs>
     <g style="fill:#262626;" transform="translate(322.208938 536.669125)scale(0.088 -0.088)">
      <use xlink:href="#DejaVuSans-59"/>
      <use x="60.880859" xlink:href="#DejaVuSans-65"/>
      <use x="122.404297" xlink:href="#DejaVuSans-61"/>
      <use x="183.683594" xlink:href="#DejaVuSans-72"/>
     </g>
    </g>
   </g>
   <g id="matplotlib.axis_2">
    <g id="ytick_1">
     <g id="line2d_8"/>
     <g id="text_9">
      <!-- 0 -->
      <g style="fill:#262626;" transform="translate(70.31 495.530742)scale(0.08 -0.08)">
       <use xlink:href="#DejaVuSans-30"/>
      </g>
     </g>
    </g>
    <g id="ytick_2">
     <g id="line2d_9"/>
     <g id="text_10">
      <!-- 50 -->
      <g style="fill:#262626;" transform="translate(65.22 438.693979)scale(0.08 -0.08)">
       <use xlink:href="#DejaVuSans-35"/>
       <use x="63.623047" xlink:href="#DejaVuSans-30"/>
      </g>
     </g>
    </g>
    <g id="ytick_3">
     <g id="line2d_10"/>
     <g id="text_11">
      <!-- 100 -->
      <g style="fill:#262626;" transform="translate(60.13 381.857215)scale(0.08 -0.08)">
       <use xlink:href="#DejaVuSans-31"/>
       <use x="63.623047" xlink:href="#DejaVuSans-30"/>
       <use x="127.246094" xlink:href="#DejaVuSans-30"/>
      </g>
     </g>
    </g>
    <g id="ytick_4">
     <g id="line2d_11"/>
     <g id="text_12">
      <!-- 150 -->
      <g style="fill:#262626;" transform="translate(60.13 325.020452)scale(0.08 -0.08)">
       <use xlink:href="#DejaVuSans-31"/>
       <use x="63.623047" xlink:href="#DejaVuSans-35"/>
       <use x="127.246094" xlink:href="#DejaVuSans-30"/>
      </g>
     </g>
    </g>
    <g id="ytick_5">
     <g id="line2d_12"/>
     <g id="text_13">
      <!-- 200 -->
      <g style="fill:#262626;" transform="translate(60.13 268.183689)scale(0.08 -0.08)">
       <use xlink:href="#DejaVuSans-32"/>
       <use x="63.623047" xlink:href="#DejaVuSans-30"/>
       <use x="127.246094" xlink:href="#DejaVuSans-30"/>
      </g>
     </g>
    </g>
    <g id="ytick_6">
     <g id="line2d_13"/>
     <g id="text_14">
      <!-- 250 -->
      <g style="fill:#262626;" transform="translate(60.13 211.346925)scale(0.08 -0.08)">
       <use xlink:href="#DejaVuSans-32"/>
       <use x="63.623047" xlink:href="#DejaVuSans-35"/>
       <use x="127.246094" xlink:href="#DejaVuSans-30"/>
      </g>
     </g>
    </g>
    <g id="ytick_7">
     <g id="line2d_14"/>
     <g id="text_15">
      <!-- 300 -->
      <g style="fill:#262626;" transform="translate(60.13 154.510162)scale(0.08 -0.08)">
       <use xlink:href="#DejaVuSans-33"/>
       <use x="63.623047" xlink:href="#DejaVuSans-30"/>
       <use x="127.246094" xlink:href="#DejaVuSans-30"/>
      </g>
     </g>
    </g>
    <g id="ytick_8">
     <g id="line2d_15"/>
     <g id="text_16">
      <!-- 350 -->
      <g style="fill:#262626;" transform="translate(60.13 97.673398)scale(0.08 -0.08)">
       <use xlink:href="#DejaVuSans-33"/>
       <use x="63.623047" xlink:href="#DejaVuSans-35"/>
       <use x="127.246094" xlink:href="#DejaVuSans-30"/>
      </g>
     </g>
    </g>
    <g id="text_17">
     <!-- Amount -->
     <defs>
      <path d="M 34.1875 63.1875 
L 20.796875 26.90625 
L 47.609375 26.90625 
z
M 28.609375 72.90625 
L 39.796875 72.90625 
L 67.578125 0 
L 57.328125 0 
L 50.6875 18.703125 
L 17.828125 18.703125 
L 11.1875 0 
L 0.78125 0 
z
" id="DejaVuSans-41"/>
      <path d="M 52 44.1875 
Q 55.375 50.25 60.0625 53.125 
Q 64.75 56 71.09375 56 
Q 79.640625 56 84.28125 50.015625 
Q 88.921875 44.046875 88.921875 33.015625 
L 88.921875 0 
L 79.890625 0 
L 79.890625 32.71875 
Q 79.890625 40.578125 77.09375 44.375 
Q 74.3125 48.1875 68.609375 48.1875 
Q 61.625 48.1875 57.5625 43.546875 
Q 53.515625 38.921875 53.515625 30.90625 
L 53.515625 0 
L 44.484375 0 
L 44.484375 32.71875 
Q 44.484375 40.625 41.703125 44.40625 
Q 38.921875 48.1875 33.109375 48.1875 
Q 26.21875 48.1875 22.15625 43.53125 
Q 18.109375 38.875 18.109375 30.90625 
L 18.109375 0 
L 9.078125 0 
L 9.078125 54.6875 
L 18.109375 54.6875 
L 18.109375 46.1875 
Q 21.1875 51.21875 25.484375 53.609375 
Q 29.78125 56 35.6875 56 
Q 41.65625 56 45.828125 52.96875 
Q 50 49.953125 52 44.1875 
z
" id="DejaVuSans-6d"/>
      <path d="M 30.609375 48.390625 
Q 23.390625 48.390625 19.1875 42.75 
Q 14.984375 37.109375 14.984375 27.296875 
Q 14.984375 17.484375 19.15625 11.84375 
Q 23.34375 6.203125 30.609375 6.203125 
Q 37.796875 6.203125 41.984375 11.859375 
Q 46.1875 17.53125 46.1875 27.296875 
Q 46.1875 37.015625 41.984375 42.703125 
Q 37.796875 48.390625 30.609375 48.390625 
z
M 30.609375 56 
Q 42.328125 56 49.015625 48.375 
Q 55.71875 40.765625 55.71875 27.296875 
Q 55.71875 13.875 49.015625 6.21875 
Q 42.328125 -1.421875 30.609375 -1.421875 
Q 18.84375 -1.421875 12.171875 6.21875 
Q 5.515625 13.875 5.515625 27.296875 
Q 5.515625 40.765625 12.171875 48.375 
Q 18.84375 56 30.609375 56 
z
" id="DejaVuSans-6f"/>
      <path d="M 8.5 21.578125 
L 8.5 54.6875 
L 17.484375 54.6875 
L 17.484375 21.921875 
Q 17.484375 14.15625 20.5 10.265625 
Q 23.53125 6.390625 29.59375 6.390625 
Q 36.859375 6.390625 41.078125 11.03125 
Q 45.3125 15.671875 45.3125 23.6875 
L 45.3125 54.6875 
L 54.296875 54.6875 
L 54.296875 0 
L 45.3125 0 
L 45.3125 8.40625 
Q 42.046875 3.421875 37.71875 1 
Q 33.40625 -1.421875 27.6875 -1.421875 
Q 18.265625 -1.421875 13.375 4.4375 
Q 8.5 10.296875 8.5 21.578125 
z
M 31.109375 56 
z
" id="DejaVuSans-75"/>
      <path d="M 54.890625 33.015625 
L 54.890625 0 
L 45.90625 0 
L 45.90625 32.71875 
Q 45.90625 40.484375 42.875 44.328125 
Q 39.84375 48.1875 33.796875 48.1875 
Q 26.515625 48.1875 22.3125 43.546875 
Q 18.109375 38.921875 18.109375 30.90625 
L 18.109375 0 
L 9.078125 0 
L 9.078125 54.6875 
L 18.109375 54.6875 
L 18.109375 46.1875 
Q 21.34375 51.125 25.703125 53.5625 
Q 30.078125 56 35.796875 56 
Q 45.21875 56 50.046875 50.171875 
Q 54.890625 44.34375 54.890625 33.015625 
z
" id="DejaVuSans-6e"/>
      <path d="M 18.3125 70.21875 
L 18.3125 54.6875 
L 36.8125 54.6875 
L 36.8125 47.703125 
L 18.3125 47.703125 
L 18.3125 18.015625 
Q 18.3125 11.328125 20.140625 9.421875 
Q 21.96875 7.515625 27.59375 7.515625 
L 36.8125 7.515625 
L 36.8125 0 
L 27.59375 0 
Q 17.1875 0 13.234375 3.875 
Q 9.28125 7.765625 9.28125 18.015625 
L 9.28125 47.703125 
L 2.6875 47.703125 
L 2.6875 54.6875 
L 9.28125 54.6875 
L 9.28125 70.21875 
z
" id="DejaVuSans-74"/>
     </defs>
     <g style="fill:#262626;" transform="translate(54.299875 308.169938)rotate(-90)scale(0.088 -0.088)">
      <use xlink:href="#DejaVuSans-41"/>
      <use x="68.408203" xlink:href="#DejaVuSans-6d"/>
      <use x="165.820312" xlink:href="#DejaVuSans-6f"/>
      <use x="227.001953" xlink:href="#DejaVuSans-75"/>
      <use x="290.380859" xlink:href="#DejaVuSans-6e"/>
      <use x="353.759766" xlink:href="#DejaVuSans-74"/>
     </g>
    </g>
   </g>
   <g id="patch_3">
    <path clip-path="url(#pa508f366e3)" d="M 88.461257 467.744641 
L 116.584457 467.744641 
L 116.584457 323.561139 
L 88.461257 323.561139 
L 88.461257 467.744641 
z
" style="fill:#3274a1;stroke:#3f3f3f;stroke-linejoin:miter;stroke-width:1.4;"/>
   </g>
   <g id="patch_4">
    <path clip-path="url(#pa508f366e3)" d="M 160.204114 483.693036 
L 188.327314 483.693036 
L 188.327314 452.76247 
L 160.204114 452.76247 
L 160.204114 483.693036 
z
" style="fill:#3274a1;stroke:#3f3f3f;stroke-linejoin:miter;stroke-width:1.4;"/>
   </g>
   <g id="patch_5">
    <path clip-path="url(#pa508f366e3)" d="M 188.901257 471.461765 
L 217.024457 471.461765 
L 217.024457 445.447578 
L 188.901257 445.447578 
L 188.901257 471.461765 
z
" style="fill:#e1812c;stroke:#3f3f3f;stroke-linejoin:miter;stroke-width:1.4;"/>
   </g>
   <g id="patch_6">
    <path clip-path="url(#pa508f366e3)" d="M 231.946971 477.580242 
L 260.070171 477.580242 
L 260.070171 437.879763 
L 231.946971 437.879763 
L 231.946971 477.580242 
z
" style="fill:#3274a1;stroke:#3f3f3f;stroke-linejoin:miter;stroke-width:1.4;"/>
   </g>
   <g id="patch_7">
    <path clip-path="url(#pa508f366e3)" d="M 260.644114 469.762346 
L 288.767314 469.762346 
L 288.767314 393.67497 
L 260.644114 393.67497 
L 260.644114 469.762346 
z
" style="fill:#e1812c;stroke:#3f3f3f;stroke-linejoin:miter;stroke-width:1.4;"/>
   </g>
   <g id="patch_8">
    <path clip-path="url(#pa508f366e3)" d="M 303.689829 485.034384 
L 331.813029 485.034384 
L 331.813029 440.877902 
L 303.689829 440.877902 
L 303.689829 485.034384 
z
" style="fill:#3274a1;stroke:#3f3f3f;stroke-linejoin:miter;stroke-width:1.4;"/>
   </g>
   <g id="patch_9">
    <path clip-path="url(#pa508f366e3)" d="M 332.386971 488.853814 
L 360.510171 488.853814 
L 360.510171 432.812766 
L 332.386971 432.812766 
L 332.386971 488.853814 
z
" style="fill:#e1812c;stroke:#3f3f3f;stroke-linejoin:miter;stroke-width:1.4;"/>
   </g>
   <g id="patch_10">
    <path clip-path="url(#pa508f366e3)" d="M 375.432686 486.807691 
L 403.555886 486.807691 
L 403.555886 444.333578 
L 375.432686 444.333578 
L 375.432686 486.807691 
z
" style="fill:#3274a1;stroke:#3f3f3f;stroke-linejoin:miter;stroke-width:1.4;"/>
   </g>
   <g id="patch_11">
    <path clip-path="url(#pa508f366e3)" d="M 404.129829 488.64636 
L 432.253029 488.64636 
L 432.253029 346.136701 
L 404.129829 346.136701 
L 404.129829 488.64636 
z
" style="fill:#e1812c;stroke:#3f3f3f;stroke-linejoin:miter;stroke-width:1.4;"/>
   </g>
   <g id="patch_12">
    <path clip-path="url(#pa508f366e3)" d="M 447.175543 489.081162 
L 475.298743 489.081162 
L 475.298743 473.996685 
L 447.175543 473.996685 
L 447.175543 489.081162 
z
" style="fill:#3274a1;stroke:#3f3f3f;stroke-linejoin:miter;stroke-width:1.4;"/>
   </g>
   <g id="patch_13">
    <path clip-path="url(#pa508f366e3)" d="M 475.872686 489.081162 
L 503.995886 489.081162 
L 503.995886 380.23876 
L 475.872686 380.23876 
L 475.872686 489.081162 
z
" style="fill:#e1812c;stroke:#3f3f3f;stroke-linejoin:miter;stroke-width:1.4;"/>
   </g>
   <g id="patch_14">
    <path clip-path="url(#pa508f366e3)" d="M 518.9184 489.081162 
L 547.0416 489.081162 
L 547.0416 474.965751 
L 518.9184 474.965751 
L 518.9184 489.081162 
z
" style="fill:#3274a1;stroke:#3f3f3f;stroke-linejoin:miter;stroke-width:1.4;"/>
   </g>
   <g id="patch_15">
    <path clip-path="url(#pa508f366e3)" d="M 547.615543 470.029478 
L 575.738743 470.029478 
L 575.738743 297.427595 
L 547.615543 297.427595 
L 547.615543 470.029478 
z
" style="fill:#e1812c;stroke:#3f3f3f;stroke-linejoin:miter;stroke-width:1.4;"/>
   </g>
   <g id="patch_16">
    <path clip-path="url(#pa508f366e3)" d="M 116.871429 492.491367 
L 116.871429 492.491367 
L 116.871429 492.491367 
L 116.871429 492.491367 
z
" style="fill:#3274a1;stroke:#3f3f3f;stroke-linejoin:miter;stroke-width:0.7;"/>
   </g>
   <g id="patch_17">
    <path clip-path="url(#pa508f366e3)" d="M 116.871429 492.491367 
L 116.871429 492.491367 
L 116.871429 492.491367 
L 116.871429 492.491367 
z
" style="fill:#e1812c;stroke:#3f3f3f;stroke-linejoin:miter;stroke-width:0.7;"/>
   </g>
   <g id="line2d_16">
    <path clip-path="url(#pa508f366e3)" d="M 102.522857 467.744641 
L 102.522857 481.192219 
" style="fill:none;stroke:#3f3f3f;stroke-linecap:round;stroke-width:1.4;"/>
   </g>
   <g id="line2d_17">
    <path clip-path="url(#pa508f366e3)" d="M 102.522857 323.561139 
L 102.522857 256.925718 
" style="fill:none;stroke:#3f3f3f;stroke-linecap:round;stroke-width:1.4;"/>
   </g>
   <g id="line2d_18">
    <path clip-path="url(#pa508f366e3)" d="M 95.492057 481.192219 
L 109.553657 481.192219 
" style="fill:none;stroke:#3f3f3f;stroke-linecap:round;stroke-width:1.4;"/>
   </g>
   <g id="line2d_19">
    <path clip-path="url(#pa508f366e3)" d="M 95.492057 256.925718 
L 109.553657 256.925718 
" style="fill:none;stroke:#3f3f3f;stroke-linecap:round;stroke-width:1.4;"/>
   </g>
   <g id="line2d_20"/>
   <g id="line2d_21">
    <path clip-path="url(#pa508f366e3)" d="M 174.265714 483.693036 
L 174.265714 490.786264 
" style="fill:none;stroke:#3f3f3f;stroke-linecap:round;stroke-width:1.4;"/>
   </g>
   <g id="line2d_22">
    <path clip-path="url(#pa508f366e3)" d="M 174.265714 452.76247 
L 174.265714 425.901415 
" style="fill:none;stroke:#3f3f3f;stroke-linecap:round;stroke-width:1.4;"/>
   </g>
   <g id="line2d_23">
    <path clip-path="url(#pa508f366e3)" d="M 167.234914 490.786264 
L 181.296514 490.786264 
" style="fill:none;stroke:#3f3f3f;stroke-linecap:round;stroke-width:1.4;"/>
   </g>
   <g id="line2d_24">
    <path clip-path="url(#pa508f366e3)" d="M 167.234914 425.901415 
L 181.296514 425.901415 
" style="fill:none;stroke:#3f3f3f;stroke-linecap:round;stroke-width:1.4;"/>
   </g>
   <g id="line2d_25">
    <defs>
     <path d="M -0 3.535534 
L 2.12132 0 
L -0 -3.535534 
L -2.12132 -0 
z
" id="mff77ef1d64"/>
    </defs>
    <g clip-path="url(#pa508f366e3)">
     <use style="fill:#3f3f3f;" x="174.265714" xlink:href="#mff77ef1d64" y="401.552546"/>
     <use style="fill:#3f3f3f;" x="174.265714" xlink:href="#mff77ef1d64" y="296.972901"/>
     <use style="fill:#3f3f3f;" x="174.265714" xlink:href="#mff77ef1d64" y="397.619442"/>
     <use style="fill:#3f3f3f;" x="174.265714" xlink:href="#mff77ef1d64" y="327.187324"/>
    </g>
   </g>
   <g id="line2d_26">
    <path clip-path="url(#pa508f366e3)" d="M 202.962857 471.461765 
L 202.962857 491.923 
" style="fill:none;stroke:#3f3f3f;stroke-linecap:round;stroke-width:1.4;"/>
   </g>
   <g id="line2d_27">
    <path clip-path="url(#pa508f366e3)" d="M 202.962857 445.447578 
L 202.962857 420.547392 
" style="fill:none;stroke:#3f3f3f;stroke-linecap:round;stroke-width:1.4;"/>
   </g>
   <g id="line2d_28">
    <path clip-path="url(#pa508f366e3)" d="M 195.932057 491.923 
L 209.993657 491.923 
" style="fill:none;stroke:#3f3f3f;stroke-linecap:round;stroke-width:1.4;"/>
   </g>
   <g id="line2d_29">
    <path clip-path="url(#pa508f366e3)" d="M 195.932057 420.547392 
L 209.993657 420.547392 
" style="fill:none;stroke:#3f3f3f;stroke-linecap:round;stroke-width:1.4;"/>
   </g>
   <g id="line2d_30">
    <g clip-path="url(#pa508f366e3)">
     <use style="fill:#3f3f3f;" x="202.962857" xlink:href="#mff77ef1d64" y="350.467663"/>
     <use style="fill:#3f3f3f;" x="202.962857" xlink:href="#mff77ef1d64" y="376.862656"/>
     <use style="fill:#3f3f3f;" x="202.962857" xlink:href="#mff77ef1d64" y="337.895371"/>
    </g>
   </g>
   <g id="line2d_31">
    <path clip-path="url(#pa508f366e3)" d="M 246.008571 477.580242 
L 246.008571 492.377694 
" style="fill:none;stroke:#3f3f3f;stroke-linecap:round;stroke-width:1.4;"/>
   </g>
   <g id="line2d_32">
    <path clip-path="url(#pa508f366e3)" d="M 246.008571 437.879763 
L 246.008571 379.954576 
" style="fill:none;stroke:#3f3f3f;stroke-linecap:round;stroke-width:1.4;"/>
   </g>
   <g id="line2d_33">
    <path clip-path="url(#pa508f366e3)" d="M 238.977771 492.377694 
L 253.039371 492.377694 
" style="fill:none;stroke:#3f3f3f;stroke-linecap:round;stroke-width:1.4;"/>
   </g>
   <g id="line2d_34">
    <path clip-path="url(#pa508f366e3)" d="M 238.977771 379.954576 
L 253.039371 379.954576 
" style="fill:none;stroke:#3f3f3f;stroke-linecap:round;stroke-width:1.4;"/>
   </g>
   <g id="line2d_35">
    <g clip-path="url(#pa508f366e3)">
     <use style="fill:#3f3f3f;" x="246.008571" xlink:href="#mff77ef1d64" y="356.083135"/>
     <use style="fill:#3f3f3f;" x="246.008571" xlink:href="#mff77ef1d64" y="160.235016"/>
     <use style="fill:#3f3f3f;" x="246.008571" xlink:href="#mff77ef1d64" y="287.879019"/>
     <use style="fill:#3f3f3f;" x="246.008571" xlink:href="#mff77ef1d64" y="299.053127"/>
     <use style="fill:#3f3f3f;" x="246.008571" xlink:href="#mff77ef1d64" y="376.964962"/>
     <use style="fill:#3f3f3f;" x="246.008571" xlink:href="#mff77ef1d64" y="344.715782"/>
    </g>
   </g>
   <g id="line2d_36">
    <path clip-path="url(#pa508f366e3)" d="M 274.705714 469.762346 
L 274.705714 492.48 
" style="fill:none;stroke:#3f3f3f;stroke-linecap:round;stroke-width:1.4;"/>
   </g>
   <g id="line2d_37">
    <path clip-path="url(#pa508f366e3)" d="M 274.705714 393.67497 
L 274.705714 285.616916 
" style="fill:none;stroke:#3f3f3f;stroke-linecap:round;stroke-width:1.4;"/>
   </g>
   <g id="line2d_38">
    <path clip-path="url(#pa508f366e3)" d="M 267.674914 492.48 
L 281.736514 492.48 
" style="fill:none;stroke:#3f3f3f;stroke-linecap:round;stroke-width:1.4;"/>
   </g>
   <g id="line2d_39">
    <path clip-path="url(#pa508f366e3)" d="M 267.674914 285.616916 
L 281.736514 285.616916 
" style="fill:none;stroke:#3f3f3f;stroke-linecap:round;stroke-width:1.4;"/>
   </g>
   <g id="line2d_40">
    <g clip-path="url(#pa508f366e3)">
     <use style="fill:#3f3f3f;" x="274.705714" xlink:href="#mff77ef1d64" y="251.730837"/>
     <use style="fill:#3f3f3f;" x="274.705714" xlink:href="#mff77ef1d64" y="151.470787"/>
     <use style="fill:#3f3f3f;" x="274.705714" xlink:href="#mff77ef1d64" y="208.30755"/>
    </g>
   </g>
   <g id="line2d_41">
    <path clip-path="url(#pa508f366e3)" d="M 317.751429 485.034384 
L 317.751429 490.558917 
" style="fill:none;stroke:#3f3f3f;stroke-linecap:round;stroke-width:1.4;"/>
   </g>
   <g id="line2d_42">
    <path clip-path="url(#pa508f366e3)" d="M 317.751429 440.877902 
L 317.751429 378.81784 
" style="fill:none;stroke:#3f3f3f;stroke-linecap:round;stroke-width:1.4;"/>
   </g>
   <g id="line2d_43">
    <path clip-path="url(#pa508f366e3)" d="M 310.720629 490.558917 
L 324.782229 490.558917 
" style="fill:none;stroke:#3f3f3f;stroke-linecap:round;stroke-width:1.4;"/>
   </g>
   <g id="line2d_44">
    <path clip-path="url(#pa508f366e3)" d="M 310.720629 378.81784 
L 324.782229 378.81784 
" style="fill:none;stroke:#3f3f3f;stroke-linecap:round;stroke-width:1.4;"/>
   </g>
   <g id="line2d_45">
    <g clip-path="url(#pa508f366e3)">
     <use style="fill:#3f3f3f;" x="317.751429" xlink:href="#mff77ef1d64" y="293.562695"/>
     <use style="fill:#3f3f3f;" x="317.751429" xlink:href="#mff77ef1d64" y="258.323902"/>
     <use style="fill:#3f3f3f;" x="317.751429" xlink:href="#mff77ef1d64" y="161.758241"/>
     <use style="fill:#3f3f3f;" x="317.751429" xlink:href="#mff77ef1d64" y="161.758241"/>
     <use style="fill:#3f3f3f;" x="317.751429" xlink:href="#mff77ef1d64" y="301.451638"/>
     <use style="fill:#3f3f3f;" x="317.751429" xlink:href="#mff77ef1d64" y="364.710956"/>
     <use style="fill:#3f3f3f;" x="317.751429" xlink:href="#mff77ef1d64" y="208.30755"/>
     <use style="fill:#3f3f3f;" x="317.751429" xlink:href="#mff77ef1d64" y="327.073651"/>
     <use style="fill:#3f3f3f;" x="317.751429" xlink:href="#mff77ef1d64" y="151.470787"/>
    </g>
   </g>
   <g id="line2d_46">
    <path clip-path="url(#pa508f366e3)" d="M 346.448571 488.853814 
L 346.448571 492.445898 
" style="fill:none;stroke:#3f3f3f;stroke-linecap:round;stroke-width:1.4;"/>
   </g>
   <g id="line2d_47">
    <path clip-path="url(#pa508f366e3)" d="M 346.448571 432.812766 
L 346.448571 352.047725 
" style="fill:none;stroke:#3f3f3f;stroke-linecap:round;stroke-width:1.4;"/>
   </g>
   <g id="line2d_48">
    <path clip-path="url(#pa508f366e3)" d="M 339.417771 492.445898 
L 353.479371 492.445898 
" style="fill:none;stroke:#3f3f3f;stroke-linecap:round;stroke-width:1.4;"/>
   </g>
   <g id="line2d_49">
    <path clip-path="url(#pa508f366e3)" d="M 339.417771 352.047725 
L 353.479371 352.047725 
" style="fill:none;stroke:#3f3f3f;stroke-linecap:round;stroke-width:1.4;"/>
   </g>
   <g id="line2d_50">
    <g clip-path="url(#pa508f366e3)">
     <use style="fill:#3f3f3f;" x="346.448571" xlink:href="#mff77ef1d64" y="276.352523"/>
     <use style="fill:#3f3f3f;" x="346.448571" xlink:href="#mff77ef1d64" y="236.725932"/>
     <use style="fill:#3f3f3f;" x="346.448571" xlink:href="#mff77ef1d64" y="312.034643"/>
     <use style="fill:#3f3f3f;" x="346.448571" xlink:href="#mff77ef1d64" y="310.033989"/>
     <use style="fill:#3f3f3f;" x="346.448571" xlink:href="#mff77ef1d64" y="314.035297"/>
     <use style="fill:#3f3f3f;" x="346.448571" xlink:href="#mff77ef1d64" y="151.470787"/>
     <use style="fill:#3f3f3f;" x="346.448571" xlink:href="#mff77ef1d64" y="161.758241"/>
     <use style="fill:#3f3f3f;" x="346.448571" xlink:href="#mff77ef1d64" y="265.144314"/>
     <use style="fill:#3f3f3f;" x="346.448571" xlink:href="#mff77ef1d64" y="325.345813"/>
     <use style="fill:#3f3f3f;" x="346.448571" xlink:href="#mff77ef1d64" y="327.073651"/>
     <use style="fill:#3f3f3f;" x="346.448571" xlink:href="#mff77ef1d64" y="151.470787"/>
    </g>
   </g>
   <g id="line2d_51">
    <path clip-path="url(#pa508f366e3)" d="M 389.494286 486.807691 
L 389.494286 491.752489 
" style="fill:none;stroke:#3f3f3f;stroke-linecap:round;stroke-width:1.4;"/>
   </g>
   <g id="line2d_52">
    <path clip-path="url(#pa508f366e3)" d="M 389.494286 444.333578 
L 389.494286 395.186828 
" style="fill:none;stroke:#3f3f3f;stroke-linecap:round;stroke-width:1.4;"/>
   </g>
   <g id="line2d_53">
    <path clip-path="url(#pa508f366e3)" d="M 382.463486 491.752489 
L 396.525086 491.752489 
" style="fill:none;stroke:#3f3f3f;stroke-linecap:round;stroke-width:1.4;"/>
   </g>
   <g id="line2d_54">
    <path clip-path="url(#pa508f366e3)" d="M 382.463486 395.186828 
L 396.525086 395.186828 
" style="fill:none;stroke:#3f3f3f;stroke-linecap:round;stroke-width:1.4;"/>
   </g>
   <g id="line2d_55">
    <g clip-path="url(#pa508f366e3)">
     <use style="fill:#3f3f3f;" x="389.494286" xlink:href="#mff77ef1d64" y="310.613724"/>
     <use style="fill:#3f3f3f;" x="389.494286" xlink:href="#mff77ef1d64" y="123.052405"/>
     <use style="fill:#3f3f3f;" x="389.494286" xlink:href="#mff77ef1d64" y="123.052405"/>
     <use style="fill:#3f3f3f;" x="389.494286" xlink:href="#mff77ef1d64" y="249.104979"/>
     <use style="fill:#3f3f3f;" x="389.494286" xlink:href="#mff77ef1d64" y="123.052405"/>
     <use style="fill:#3f3f3f;" x="389.494286" xlink:href="#mff77ef1d64" y="162.929078"/>
     <use style="fill:#3f3f3f;" x="389.494286" xlink:href="#mff77ef1d64" y="291.289225"/>
     <use style="fill:#3f3f3f;" x="389.494286" xlink:href="#mff77ef1d64" y="283.809507"/>
     <use style="fill:#3f3f3f;" x="389.494286" xlink:href="#mff77ef1d64" y="293.562695"/>
     <use style="fill:#3f3f3f;" x="389.494286" xlink:href="#mff77ef1d64" y="293.562695"/>
     <use style="fill:#3f3f3f;" x="389.494286" xlink:href="#mff77ef1d64" y="275.374931"/>
     <use style="fill:#3f3f3f;" x="389.494286" xlink:href="#mff77ef1d64" y="342.19223"/>
     <use style="fill:#3f3f3f;" x="389.494286" xlink:href="#mff77ef1d64" y="160.666975"/>
     <use style="fill:#3f3f3f;" x="389.494286" xlink:href="#mff77ef1d64" y="328.812856"/>
     <use style="fill:#3f3f3f;" x="389.494286" xlink:href="#mff77ef1d64" y="231.042255"/>
     <use style="fill:#3f3f3f;" x="389.494286" xlink:href="#mff77ef1d64" y="208.30755"/>
     <use style="fill:#3f3f3f;" x="389.494286" xlink:href="#mff77ef1d64" y="231.042255"/>
    </g>
   </g>
   <g id="line2d_56">
    <path clip-path="url(#pa508f366e3)" d="M 418.191429 488.64636 
L 418.191429 492.423163 
" style="fill:none;stroke:#3f3f3f;stroke-linecap:round;stroke-width:1.4;"/>
   </g>
   <g id="line2d_57">
    <path clip-path="url(#pa508f366e3)" d="M 418.191429 346.136701 
L 418.191429 150.584133 
" style="fill:none;stroke:#3f3f3f;stroke-linecap:round;stroke-width:1.4;"/>
   </g>
   <g id="line2d_58">
    <path clip-path="url(#pa508f366e3)" d="M 411.160629 492.423163 
L 425.222229 492.423163 
" style="fill:none;stroke:#3f3f3f;stroke-linecap:round;stroke-width:1.4;"/>
   </g>
   <g id="line2d_59">
    <path clip-path="url(#pa508f366e3)" d="M 411.160629 150.584133 
L 425.222229 150.584133 
" style="fill:none;stroke:#3f3f3f;stroke-linecap:round;stroke-width:1.4;"/>
   </g>
   <g id="line2d_60">
    <g clip-path="url(#pa508f366e3)">
     <use style="fill:#3f3f3f;" x="418.191429" xlink:href="#mff77ef1d64" y="123.052405"/>
     <use style="fill:#3f3f3f;" x="418.191429" xlink:href="#mff77ef1d64" y="90.087082"/>
     <use style="fill:#3f3f3f;" x="418.191429" xlink:href="#mff77ef1d64" y="89.28"/>
    </g>
   </g>
   <g id="line2d_61">
    <path clip-path="url(#pa508f366e3)" d="M 461.237143 489.081162 
L 461.237143 492.366326 
" style="fill:none;stroke:#3f3f3f;stroke-linecap:round;stroke-width:1.4;"/>
   </g>
   <g id="line2d_62">
    <path clip-path="url(#pa508f366e3)" d="M 461.237143 473.996685 
L 461.237143 452.819306 
" style="fill:none;stroke:#3f3f3f;stroke-linecap:round;stroke-width:1.4;"/>
   </g>
   <g id="line2d_63">
    <path clip-path="url(#pa508f366e3)" d="M 454.206343 492.366326 
L 468.267943 492.366326 
" style="fill:none;stroke:#3f3f3f;stroke-linecap:round;stroke-width:1.4;"/>
   </g>
   <g id="line2d_64">
    <path clip-path="url(#pa508f366e3)" d="M 454.206343 452.819306 
L 468.267943 452.819306 
" style="fill:none;stroke:#3f3f3f;stroke-linecap:round;stroke-width:1.4;"/>
   </g>
   <g id="line2d_65">
    <g clip-path="url(#pa508f366e3)">
     <use style="fill:#3f3f3f;" x="461.237143" xlink:href="#mff77ef1d64" y="424.287251"/>
     <use style="fill:#3f3f3f;" x="461.237143" xlink:href="#mff77ef1d64" y="435.654604"/>
     <use style="fill:#3f3f3f;" x="461.237143" xlink:href="#mff77ef1d64" y="424.287251"/>
     <use style="fill:#3f3f3f;" x="461.237143" xlink:href="#mff77ef1d64" y="447.021957"/>
     <use style="fill:#3f3f3f;" x="461.237143" xlink:href="#mff77ef1d64" y="444.714384"/>
     <use style="fill:#3f3f3f;" x="461.237143" xlink:href="#mff77ef1d64" y="208.30755"/>
     <use style="fill:#3f3f3f;" x="461.237143" xlink:href="#mff77ef1d64" y="435.654604"/>
     <use style="fill:#3f3f3f;" x="461.237143" xlink:href="#mff77ef1d64" y="435.654604"/>
     <use style="fill:#3f3f3f;" x="461.237143" xlink:href="#mff77ef1d64" y="424.287251"/>
     <use style="fill:#3f3f3f;" x="461.237143" xlink:href="#mff77ef1d64" y="401.609383"/>
     <use style="fill:#3f3f3f;" x="461.237143" xlink:href="#mff77ef1d64" y="435.654604"/>
     <use style="fill:#3f3f3f;" x="461.237143" xlink:href="#mff77ef1d64" y="449.931999"/>
     <use style="fill:#3f3f3f;" x="461.237143" xlink:href="#mff77ef1d64" y="435.654604"/>
     <use style="fill:#3f3f3f;" x="461.237143" xlink:href="#mff77ef1d64" y="429.970928"/>
     <use style="fill:#3f3f3f;" x="461.237143" xlink:href="#mff77ef1d64" y="424.287251"/>
     <use style="fill:#3f3f3f;" x="461.237143" xlink:href="#mff77ef1d64" y="435.654604"/>
     <use style="fill:#3f3f3f;" x="461.237143" xlink:href="#mff77ef1d64" y="367.450488"/>
     <use style="fill:#3f3f3f;" x="461.237143" xlink:href="#mff77ef1d64" y="424.287251"/>
     <use style="fill:#3f3f3f;" x="461.237143" xlink:href="#mff77ef1d64" y="401.552546"/>
     <use style="fill:#3f3f3f;" x="461.237143" xlink:href="#mff77ef1d64" y="356.890217"/>
     <use style="fill:#3f3f3f;" x="461.237143" xlink:href="#mff77ef1d64" y="435.654604"/>
     <use style="fill:#3f3f3f;" x="461.237143" xlink:href="#mff77ef1d64" y="424.287251"/>
     <use style="fill:#3f3f3f;" x="461.237143" xlink:href="#mff77ef1d64" y="321.981077"/>
     <use style="fill:#3f3f3f;" x="461.237143" xlink:href="#mff77ef1d64" y="435.654604"/>
     <use style="fill:#3f3f3f;" x="461.237143" xlink:href="#mff77ef1d64" y="435.654604"/>
     <use style="fill:#3f3f3f;" x="461.237143" xlink:href="#mff77ef1d64" y="405.519752"/>
     <use style="fill:#3f3f3f;" x="461.237143" xlink:href="#mff77ef1d64" y="451.125571"/>
     <use style="fill:#3f3f3f;" x="461.237143" xlink:href="#mff77ef1d64" y="435.654604"/>
     <use style="fill:#3f3f3f;" x="461.237143" xlink:href="#mff77ef1d64" y="412.931266"/>
     <use style="fill:#3f3f3f;" x="461.237143" xlink:href="#mff77ef1d64" y="429.243417"/>
     <use style="fill:#3f3f3f;" x="461.237143" xlink:href="#mff77ef1d64" y="333.939532"/>
     <use style="fill:#3f3f3f;" x="461.237143" xlink:href="#mff77ef1d64" y="435.654604"/>
     <use style="fill:#3f3f3f;" x="461.237143" xlink:href="#mff77ef1d64" y="435.654604"/>
     <use style="fill:#3f3f3f;" x="461.237143" xlink:href="#mff77ef1d64" y="450.102509"/>
     <use style="fill:#3f3f3f;" x="461.237143" xlink:href="#mff77ef1d64" y="419.638004"/>
     <use style="fill:#3f3f3f;" x="461.237143" xlink:href="#mff77ef1d64" y="208.30755"/>
     <use style="fill:#3f3f3f;" x="461.237143" xlink:href="#mff77ef1d64" y="208.30755"/>
     <use style="fill:#3f3f3f;" x="461.237143" xlink:href="#mff77ef1d64" y="208.30755"/>
     <use style="fill:#3f3f3f;" x="461.237143" xlink:href="#mff77ef1d64" y="350.399459"/>
     <use style="fill:#3f3f3f;" x="461.237143" xlink:href="#mff77ef1d64" y="408.418427"/>
     <use style="fill:#3f3f3f;" x="461.237143" xlink:href="#mff77ef1d64" y="447.033324"/>
     <use style="fill:#3f3f3f;" x="461.237143" xlink:href="#mff77ef1d64" y="444.975833"/>
     <use style="fill:#3f3f3f;" x="461.237143" xlink:href="#mff77ef1d64" y="208.30755"/>
     <use style="fill:#3f3f3f;" x="461.237143" xlink:href="#mff77ef1d64" y="350.399459"/>
     <use style="fill:#3f3f3f;" x="461.237143" xlink:href="#mff77ef1d64" y="435.654604"/>
     <use style="fill:#3f3f3f;" x="461.237143" xlink:href="#mff77ef1d64" y="423.252822"/>
     <use style="fill:#3f3f3f;" x="461.237143" xlink:href="#mff77ef1d64" y="435.654604"/>
     <use style="fill:#3f3f3f;" x="461.237143" xlink:href="#mff77ef1d64" y="142.149557"/>
     <use style="fill:#3f3f3f;" x="461.237143" xlink:href="#mff77ef1d64" y="350.399459"/>
     <use style="fill:#3f3f3f;" x="461.237143" xlink:href="#mff77ef1d64" y="407.236222"/>
     <use style="fill:#3f3f3f;" x="461.237143" xlink:href="#mff77ef1d64" y="350.399459"/>
     <use style="fill:#3f3f3f;" x="461.237143" xlink:href="#mff77ef1d64" y="412.692551"/>
     <use style="fill:#3f3f3f;" x="461.237143" xlink:href="#mff77ef1d64" y="447.021957"/>
     <use style="fill:#3f3f3f;" x="461.237143" xlink:href="#mff77ef1d64" y="435.654604"/>
    </g>
   </g>
   <g id="line2d_66">
    <path clip-path="url(#pa508f366e3)" d="M 489.934286 489.081162 
L 489.934286 492.434531 
" style="fill:none;stroke:#3f3f3f;stroke-linecap:round;stroke-width:1.4;"/>
   </g>
   <g id="line2d_67">
    <path clip-path="url(#pa508f366e3)" d="M 489.934286 380.23876 
L 489.934286 218.35629 
" style="fill:none;stroke:#3f3f3f;stroke-linecap:round;stroke-width:1.4;"/>
   </g>
   <g id="line2d_68">
    <path clip-path="url(#pa508f366e3)" d="M 482.903486 492.434531 
L 496.965086 492.434531 
" style="fill:none;stroke:#3f3f3f;stroke-linecap:round;stroke-width:1.4;"/>
   </g>
   <g id="line2d_69">
    <path clip-path="url(#pa508f366e3)" d="M 482.903486 218.35629 
L 496.965086 218.35629 
" style="fill:none;stroke:#3f3f3f;stroke-linecap:round;stroke-width:1.4;"/>
   </g>
   <g id="line2d_70">
    <g clip-path="url(#pa508f366e3)">
     <use style="fill:#3f3f3f;" x="489.934286" xlink:href="#mff77ef1d64" y="167.476019"/>
     <use style="fill:#3f3f3f;" x="489.934286" xlink:href="#mff77ef1d64" y="157.290871"/>
     <use style="fill:#3f3f3f;" x="489.934286" xlink:href="#mff77ef1d64" y="172.568593"/>
     <use style="fill:#3f3f3f;" x="489.934286" xlink:href="#mff77ef1d64" y="198.008729"/>
     <use style="fill:#3f3f3f;" x="489.934286" xlink:href="#mff77ef1d64" y="198.008729"/>
     <use style="fill:#3f3f3f;" x="489.934286" xlink:href="#mff77ef1d64" y="172.568593"/>
     <use style="fill:#3f3f3f;" x="489.934286" xlink:href="#mff77ef1d64" y="192.927522"/>
     <use style="fill:#3f3f3f;" x="489.934286" xlink:href="#mff77ef1d64" y="208.30755"/>
     <use style="fill:#3f3f3f;" x="489.934286" xlink:href="#mff77ef1d64" y="167.476019"/>
     <use style="fill:#3f3f3f;" x="489.934286" xlink:href="#mff77ef1d64" y="126.758162"/>
     <use style="fill:#3f3f3f;" x="489.934286" xlink:href="#mff77ef1d64" y="186.70958"/>
     <use style="fill:#3f3f3f;" x="489.934286" xlink:href="#mff77ef1d64" y="142.149557"/>
     <use style="fill:#3f3f3f;" x="489.934286" xlink:href="#mff77ef1d64" y="116.584381"/>
    </g>
   </g>
   <g id="line2d_71">
    <path clip-path="url(#pa508f366e3)" d="M 532.98 489.081162 
L 532.98 491.354632 
" style="fill:none;stroke:#3f3f3f;stroke-linecap:round;stroke-width:1.4;"/>
   </g>
   <g id="line2d_72">
    <path clip-path="url(#pa508f366e3)" d="M 532.98 474.965751 
L 532.98 473.280541 
" style="fill:none;stroke:#3f3f3f;stroke-linecap:round;stroke-width:1.4;"/>
   </g>
   <g id="line2d_73">
    <path clip-path="url(#pa508f366e3)" d="M 525.9492 491.354632 
L 540.0108 491.354632 
" style="fill:none;stroke:#3f3f3f;stroke-linecap:round;stroke-width:1.4;"/>
   </g>
   <g id="line2d_74">
    <path clip-path="url(#pa508f366e3)" d="M 525.9492 473.280541 
L 540.0108 473.280541 
" style="fill:none;stroke:#3f3f3f;stroke-linecap:round;stroke-width:1.4;"/>
   </g>
   <g id="line2d_75">
    <g clip-path="url(#pa508f366e3)">
     <use style="fill:#3f3f3f;" x="532.98" xlink:href="#mff77ef1d64" y="378.81784"/>
     <use style="fill:#3f3f3f;" x="532.98" xlink:href="#mff77ef1d64" y="424.287251"/>
     <use style="fill:#3f3f3f;" x="532.98" xlink:href="#mff77ef1d64" y="431.687398"/>
     <use style="fill:#3f3f3f;" x="532.98" xlink:href="#mff77ef1d64" y="297.427595"/>
     <use style="fill:#3f3f3f;" x="532.98" xlink:href="#mff77ef1d64" y="297.427595"/>
     <use style="fill:#3f3f3f;" x="532.98" xlink:href="#mff77ef1d64" y="435.654604"/>
     <use style="fill:#3f3f3f;" x="532.98" xlink:href="#mff77ef1d64" y="297.427595"/>
     <use style="fill:#3f3f3f;" x="532.98" xlink:href="#mff77ef1d64" y="297.427595"/>
    </g>
   </g>
   <g id="line2d_76">
    <path clip-path="url(#pa508f366e3)" d="M 561.677143 470.029478 
L 561.677143 492.400429 
" style="fill:none;stroke:#3f3f3f;stroke-linecap:round;stroke-width:1.4;"/>
   </g>
   <g id="line2d_77">
    <path clip-path="url(#pa508f366e3)" d="M 561.677143 297.427595 
L 561.677143 297.427595 
" style="fill:none;stroke:#3f3f3f;stroke-linecap:round;stroke-width:1.4;"/>
   </g>
   <g id="line2d_78">
    <path clip-path="url(#pa508f366e3)" d="M 554.646343 492.400429 
L 568.707943 492.400429 
" style="fill:none;stroke:#3f3f3f;stroke-linecap:round;stroke-width:1.4;"/>
   </g>
   <g id="line2d_79">
    <path clip-path="url(#pa508f366e3)" d="M 554.646343 297.427595 
L 568.707943 297.427595 
" style="fill:none;stroke:#3f3f3f;stroke-linecap:round;stroke-width:1.4;"/>
   </g>
   <g id="line2d_80"/>
   <g id="line2d_81">
    <path clip-path="url(#pa508f366e3)" d="M 88.461257 455.320124 
L 116.584457 455.320124 
" style="fill:none;stroke:#3f3f3f;stroke-linecap:round;stroke-width:1.4;"/>
   </g>
   <g id="line2d_82">
    <path clip-path="url(#pa508f366e3)" d="M 160.204114 471.882357 
L 188.327314 471.882357 
" style="fill:none;stroke:#3f3f3f;stroke-linecap:round;stroke-width:1.4;"/>
   </g>
   <g id="line2d_83">
    <path clip-path="url(#pa508f366e3)" d="M 188.901257 460.66278 
L 217.024457 460.66278 
" style="fill:none;stroke:#3f3f3f;stroke-linecap:round;stroke-width:1.4;"/>
   </g>
   <g id="line2d_84">
    <path clip-path="url(#pa508f366e3)" d="M 231.946971 463.084026 
L 260.070171 463.084026 
" style="fill:none;stroke:#3f3f3f;stroke-linecap:round;stroke-width:1.4;"/>
   </g>
   <g id="line2d_85">
    <path clip-path="url(#pa508f366e3)" d="M 260.644114 444.918996 
L 288.767314 444.918996 
" style="fill:none;stroke:#3f3f3f;stroke-linecap:round;stroke-width:1.4;"/>
   </g>
   <g id="line2d_86">
    <path clip-path="url(#pa508f366e3)" d="M 303.689829 475.440338 
L 331.813029 475.440338 
" style="fill:none;stroke:#3f3f3f;stroke-linecap:round;stroke-width:1.4;"/>
   </g>
   <g id="line2d_87">
    <path clip-path="url(#pa508f366e3)" d="M 332.386971 474.377491 
L 360.510171 474.377491 
" style="fill:none;stroke:#3f3f3f;stroke-linecap:round;stroke-width:1.4;"/>
   </g>
   <g id="line2d_88">
    <path clip-path="url(#pa508f366e3)" d="M 375.432686 481.124015 
L 403.555886 481.124015 
" style="fill:none;stroke:#3f3f3f;stroke-linecap:round;stroke-width:1.4;"/>
   </g>
   <g id="line2d_89">
    <path clip-path="url(#pa508f366e3)" d="M 404.129829 450.307122 
L 432.253029 450.307122 
" style="fill:none;stroke:#3f3f3f;stroke-linecap:round;stroke-width:1.4;"/>
   </g>
   <g id="line2d_90">
    <path clip-path="url(#pa508f366e3)" d="M 447.175543 481.544607 
L 475.298743 481.544607 
" style="fill:none;stroke:#3f3f3f;stroke-linecap:round;stroke-width:1.4;"/>
   </g>
   <g id="line2d_91">
    <path clip-path="url(#pa508f366e3)" d="M 475.872686 464.072986 
L 503.995886 464.072986 
" style="fill:none;stroke:#3f3f3f;stroke-linecap:round;stroke-width:1.4;"/>
   </g>
   <g id="line2d_92">
    <path clip-path="url(#pa508f366e3)" d="M 518.9184 486.875895 
L 547.0416 486.875895 
" style="fill:none;stroke:#3f3f3f;stroke-linecap:round;stroke-width:1.4;"/>
   </g>
   <g id="line2d_93">
    <path clip-path="url(#pa508f366e3)" d="M 547.615543 415.193369 
L 575.738743 415.193369 
" style="fill:none;stroke:#3f3f3f;stroke-linecap:round;stroke-width:1.4;"/>
   </g>
   <g id="patch_18">
    <path d="M 81 512.64 
L 81 69.12 
" style="fill:none;stroke:#262626;stroke-linecap:square;stroke-linejoin:miter;stroke-width:1.25;"/>
   </g>
   <g id="patch_19">
    <path d="M 583.2 512.64 
L 583.2 69.12 
" style="fill:none;stroke:#262626;stroke-linecap:square;stroke-linejoin:miter;stroke-width:1.25;"/>
   </g>
   <g id="patch_20">
    <path d="M 81 512.64 
L 583.2 512.64 
" style="fill:none;stroke:#262626;stroke-linecap:square;stroke-linejoin:miter;stroke-width:1.25;"/>
   </g>
   <g id="patch_21">
    <path d="M 81 69.12 
L 583.2 69.12 
" style="fill:none;stroke:#262626;stroke-linecap:square;stroke-linejoin:miter;stroke-width:1.25;"/>
   </g>
   <g id="legend_1">
    <g id="text_18">
     <!-- Entry -->
     <defs>
      <path d="M 9.8125 72.90625 
L 55.90625 72.90625 
L 55.90625 64.59375 
L 19.671875 64.59375 
L 19.671875 43.015625 
L 54.390625 43.015625 
L 54.390625 34.71875 
L 19.671875 34.71875 
L 19.671875 8.296875 
L 56.78125 8.296875 
L 56.78125 0 
L 9.8125 0 
z
" id="DejaVuSans-45"/>
      <path d="M 32.171875 -5.078125 
Q 28.375 -14.84375 24.75 -17.8125 
Q 21.140625 -20.796875 15.09375 -20.796875 
L 7.90625 -20.796875 
L 7.90625 -13.28125 
L 13.1875 -13.28125 
Q 16.890625 -13.28125 18.9375 -11.515625 
Q 21 -9.765625 23.484375 -3.21875 
L 25.09375 0.875 
L 2.984375 54.6875 
L 12.5 54.6875 
L 29.59375 11.921875 
L 46.6875 54.6875 
L 56.203125 54.6875 
z
" id="DejaVuSans-79"/>
     </defs>
     <g style="fill:#262626;" transform="translate(542.733013 82.003631)scale(0.0748 -0.0748)">
      <use xlink:href="#DejaVuSans-45"/>
      <use x="63.183594" xlink:href="#DejaVuSans-6e"/>
      <use x="126.5625" xlink:href="#DejaVuSans-74"/>
      <use x="165.771484" xlink:href="#DejaVuSans-72"/>
      <use x="206.884766" xlink:href="#DejaVuSans-79"/>
     </g>
    </g>
    <g id="patch_22">
     <path d="M 529.3675 93.637988 
L 545.3675 93.637988 
L 545.3675 88.037988 
L 529.3675 88.037988 
z
" style="fill:#3274a1;stroke:#3f3f3f;stroke-linejoin:miter;stroke-width:0.7;"/>
    </g>
    <g id="text_19">
     <!-- Debit -->
     <defs>
      <path d="M 19.671875 64.796875 
L 19.671875 8.109375 
L 31.59375 8.109375 
Q 46.6875 8.109375 53.6875 14.9375 
Q 60.6875 21.78125 60.6875 36.53125 
Q 60.6875 51.171875 53.6875 57.984375 
Q 46.6875 64.796875 31.59375 64.796875 
z
M 9.8125 72.90625 
L 30.078125 72.90625 
Q 51.265625 72.90625 61.171875 64.09375 
Q 71.09375 55.28125 71.09375 36.53125 
Q 71.09375 17.671875 61.125 8.828125 
Q 51.171875 0 30.078125 0 
L 9.8125 0 
z
" id="DejaVuSans-44"/>
      <path d="M 48.6875 27.296875 
Q 48.6875 37.203125 44.609375 42.84375 
Q 40.53125 48.484375 33.40625 48.484375 
Q 26.265625 48.484375 22.1875 42.84375 
Q 18.109375 37.203125 18.109375 27.296875 
Q 18.109375 17.390625 22.1875 11.75 
Q 26.265625 6.109375 33.40625 6.109375 
Q 40.53125 6.109375 44.609375 11.75 
Q 48.6875 17.390625 48.6875 27.296875 
z
M 18.109375 46.390625 
Q 20.953125 51.265625 25.265625 53.625 
Q 29.59375 56 35.59375 56 
Q 45.5625 56 51.78125 48.09375 
Q 58.015625 40.1875 58.015625 27.296875 
Q 58.015625 14.40625 51.78125 6.484375 
Q 45.5625 -1.421875 35.59375 -1.421875 
Q 29.59375 -1.421875 25.265625 0.953125 
Q 20.953125 3.328125 18.109375 8.203125 
L 18.109375 0 
L 9.078125 0 
L 9.078125 75.984375 
L 18.109375 75.984375 
z
" id="DejaVuSans-62"/>
      <path d="M 9.421875 54.6875 
L 18.40625 54.6875 
L 18.40625 0 
L 9.421875 0 
z
M 9.421875 75.984375 
L 18.40625 75.984375 
L 18.40625 64.59375 
L 9.421875 64.59375 
z
" id="DejaVuSans-69"/>
     </defs>
     <g style="fill:#262626;" transform="translate(551.7675 93.637988)scale(0.08 -0.08)">
      <use xlink:href="#DejaVuSans-44"/>
      <use x="77.001953" xlink:href="#DejaVuSans-65"/>
      <use x="138.525391" xlink:href="#DejaVuSans-62"/>
      <use x="202.001953" xlink:href="#DejaVuSans-69"/>
      <use x="229.785156" xlink:href="#DejaVuSans-74"/>
     </g>
    </g>
    <g id="patch_23">
     <path d="M 529.3675 105.380488 
L 545.3675 105.380488 
L 545.3675 99.780488 
L 529.3675 99.780488 
z
" style="fill:#e1812c;stroke:#3f3f3f;stroke-linejoin:miter;stroke-width:0.7;"/>
    </g>
    <g id="text_20">
     <!-- Credit -->
     <defs>
      <path d="M 64.40625 67.28125 
L 64.40625 56.890625 
Q 59.421875 61.53125 53.78125 63.8125 
Q 48.140625 66.109375 41.796875 66.109375 
Q 29.296875 66.109375 22.65625 58.46875 
Q 16.015625 50.828125 16.015625 36.375 
Q 16.015625 21.96875 22.65625 14.328125 
Q 29.296875 6.6875 41.796875 6.6875 
Q 48.140625 6.6875 53.78125 8.984375 
Q 59.421875 11.28125 64.40625 15.921875 
L 64.40625 5.609375 
Q 59.234375 2.09375 53.4375 0.328125 
Q 47.65625 -1.421875 41.21875 -1.421875 
Q 24.65625 -1.421875 15.125 8.703125 
Q 5.609375 18.84375 5.609375 36.375 
Q 5.609375 53.953125 15.125 64.078125 
Q 24.65625 74.21875 41.21875 74.21875 
Q 47.75 74.21875 53.53125 72.484375 
Q 59.328125 70.75 64.40625 67.28125 
z
" id="DejaVuSans-43"/>
      <path d="M 45.40625 46.390625 
L 45.40625 75.984375 
L 54.390625 75.984375 
L 54.390625 0 
L 45.40625 0 
L 45.40625 8.203125 
Q 42.578125 3.328125 38.25 0.953125 
Q 33.9375 -1.421875 27.875 -1.421875 
Q 17.96875 -1.421875 11.734375 6.484375 
Q 5.515625 14.40625 5.515625 27.296875 
Q 5.515625 40.1875 11.734375 48.09375 
Q 17.96875 56 27.875 56 
Q 33.9375 56 38.25 53.625 
Q 42.578125 51.265625 45.40625 46.390625 
z
M 14.796875 27.296875 
Q 14.796875 17.390625 18.875 11.75 
Q 22.953125 6.109375 30.078125 6.109375 
Q 37.203125 6.109375 41.296875 11.75 
Q 45.40625 17.390625 45.40625 27.296875 
Q 45.40625 37.203125 41.296875 42.84375 
Q 37.203125 48.484375 30.078125 48.484375 
Q 22.953125 48.484375 18.875 42.84375 
Q 14.796875 37.203125 14.796875 27.296875 
z
" id="DejaVuSans-64"/>
     </defs>
     <g style="fill:#262626;" transform="translate(551.7675 105.380488)scale(0.08 -0.08)">
      <use xlink:href="#DejaVuSans-43"/>
      <use x="69.824219" xlink:href="#DejaVuSans-72"/>
      <use x="110.90625" xlink:href="#DejaVuSans-65"/>
      <use x="172.429688" xlink:href="#DejaVuSans-64"/>
      <use x="235.90625" xlink:href="#DejaVuSans-69"/>
      <use x="263.689453" xlink:href="#DejaVuSans-74"/>
     </g>
    </g>
   </g>
  </g>
 </g>
 <defs>
  <clipPath id="pa508f366e3">
   <rect height="443.52" width="502.2" x="81" y="69.12"/>
  </clipPath>
 </defs>
</svg>
