<?xml version="1.0" encoding="utf-8" standalone="no"?>
<!DOCTYPE svg PUBLIC "-//W3C//DTD SVG 1.1//EN"
  "http://www.w3.org/Graphics/SVG/1.1/DTD/svg11.dtd">
<!-- Created with matplotlib (http://matplotlib.org/) -->
<svg height="432pt" version="1.1" viewBox="0 0 864 432" width="864pt" xmlns="http://www.w3.org/2000/svg" xmlns:xlink="http://www.w3.org/1999/xlink">
 <defs>
  <style type="text/css">
*{stroke-linecap:butt;stroke-linejoin:round;}
  </style>
 </defs>
 <g id="figure_1">
  <g id="patch_1">
   <path d="M 0 432 
L 864 432 
L 864 0 
L 0 0 
z
" style="fill:#ffffff;"/>
  </g>
  <g id="axes_1">
   <g id="patch_2">
    <path d="M 108 384.48 
L 777.6 384.48 
L 777.6 51.84 
L 108 51.84 
z
" style="fill:#ffffff;"/>
   </g>
   <g id="matplotlib.axis_1">
    <g id="xtick_1">
     <g id="line2d_1"/>
     <g id="text_1">
      <!-- 0 -->
      <defs>
       <path d="M 31.78125 66.40625 
Q 24.171875 66.40625 20.328125 58.90625 
Q 16.5 51.421875 16.5 36.375 
Q 16.5 21.390625 20.328125 13.890625 
Q 24.171875 6.390625 31.78125 6.390625 
Q 39.453125 6.390625 43.28125 13.890625 
Q 47.125 21.390625 47.125 36.375 
Q 47.125 51.421875 43.28125 58.90625 
Q 39.453125 66.40625 31.78125 66.40625 
z
M 31.78125 74.21875 
Q 44.046875 74.21875 50.515625 64.515625 
Q 56.984375 54.828125 56.984375 36.375 
Q 56.984375 17.96875 50.515625 8.265625 
Q 44.046875 -1.421875 31.78125 -1.421875 
Q 19.53125 -1.421875 13.0625 8.265625 
Q 6.59375 17.96875 6.59375 36.375 
Q 6.59375 54.828125 13.0625 64.515625 
Q 19.53125 74.21875 31.78125 74.21875 
z
" id="DejaVuSans-30"/>
      </defs>
      <g style="fill:#262626;" transform="translate(153.283571 396.15875)scale(0.08 -0.08)">
       <use xlink:href="#DejaVuSans-30"/>
      </g>
     </g>
    </g>
    <g id="xtick_2">
     <g id="line2d_2"/>
     <g id="text_2">
      <!-- 1 -->
      <defs>
       <path d="M 12.40625 8.296875 
L 28.515625 8.296875 
L 28.515625 63.921875 
L 10.984375 60.40625 
L 10.984375 69.390625 
L 28.421875 72.90625 
L 38.28125 72.90625 
L 38.28125 8.296875 
L 54.390625 8.296875 
L 54.390625 0 
L 12.40625 0 
z
" id="DejaVuSans-31"/>
      </defs>
      <g style="fill:#262626;" transform="translate(248.940714 396.15875)scale(0.08 -0.08)">
       <use xlink:href="#DejaVuSans-31"/>
      </g>
     </g>
    </g>
    <g id="xtick_3">
     <g id="line2d_3"/>
     <g id="text_3">
      <!-- 2 -->
      <defs>
       <path d="M 19.1875 8.296875 
L 53.609375 8.296875 
L 53.609375 0 
L 7.328125 0 
L 7.328125 8.296875 
Q 12.9375 14.109375 22.625 23.890625 
Q 32.328125 33.6875 34.8125 36.53125 
Q 39.546875 41.84375 41.421875 45.53125 
Q 43.3125 49.21875 43.3125 52.78125 
Q 43.3125 58.59375 39.234375 62.25 
Q 35.15625 65.921875 28.609375 65.921875 
Q 23.96875 65.921875 18.8125 64.3125 
Q 13.671875 62.703125 7.8125 59.421875 
L 7.8125 69.390625 
Q 13.765625 71.78125 18.9375 73 
Q 24.125 74.21875 28.421875 74.21875 
Q 39.75 74.21875 46.484375 68.546875 
Q 53.21875 62.890625 53.21875 53.421875 
Q 53.21875 48.921875 51.53125 44.890625 
Q 49.859375 40.875 45.40625 35.40625 
Q 44.1875 33.984375 37.640625 27.21875 
Q 31.109375 20.453125 19.1875 8.296875 
z
" id="DejaVuSans-32"/>
      </defs>
      <g style="fill:#262626;" transform="translate(344.597857 396.15875)scale(0.08 -0.08)">
       <use xlink:href="#DejaVuSans-32"/>
      </g>
     </g>
    </g>
    <g id="xtick_4">
     <g id="line2d_4"/>
     <g id="text_4">
      <!-- 3 -->
      <defs>
       <path d="M 40.578125 39.3125 
Q 47.65625 37.796875 51.625 33 
Q 55.609375 28.21875 55.609375 21.1875 
Q 55.609375 10.40625 48.1875 4.484375 
Q 40.765625 -1.421875 27.09375 -1.421875 
Q 22.515625 -1.421875 17.65625 -0.515625 
Q 12.796875 0.390625 7.625 2.203125 
L 7.625 11.71875 
Q 11.71875 9.328125 16.59375 8.109375 
Q 21.484375 6.890625 26.8125 6.890625 
Q 36.078125 6.890625 40.9375 10.546875 
Q 45.796875 14.203125 45.796875 21.1875 
Q 45.796875 27.640625 41.28125 31.265625 
Q 36.765625 34.90625 28.71875 34.90625 
L 20.21875 34.90625 
L 20.21875 43.015625 
L 29.109375 43.015625 
Q 36.375 43.015625 40.234375 45.921875 
Q 44.09375 48.828125 44.09375 54.296875 
Q 44.09375 59.90625 40.109375 62.90625 
Q 36.140625 65.921875 28.71875 65.921875 
Q 24.65625 65.921875 20.015625 65.03125 
Q 15.375 64.15625 9.8125 62.3125 
L 9.8125 71.09375 
Q 15.4375 72.65625 20.34375 73.4375 
Q 25.25 74.21875 29.59375 74.21875 
Q 40.828125 74.21875 47.359375 69.109375 
Q 53.90625 64.015625 53.90625 55.328125 
Q 53.90625 49.265625 50.4375 45.09375 
Q 46.96875 40.921875 40.578125 39.3125 
z
" id="DejaVuSans-33"/>
      </defs>
      <g style="fill:#262626;" transform="translate(440.255 396.15875)scale(0.08 -0.08)">
       <use xlink:href="#DejaVuSans-33"/>
      </g>
     </g>
    </g>
    <g id="xtick_5">
     <g id="line2d_5"/>
     <g id="text_5">
      <!-- 4 -->
      <defs>
       <path d="M 37.796875 64.3125 
L 12.890625 25.390625 
L 37.796875 25.390625 
z
M 35.203125 72.90625 
L 47.609375 72.90625 
L 47.609375 25.390625 
L 58.015625 25.390625 
L 58.015625 17.1875 
L 47.609375 17.1875 
L 47.609375 0 
L 37.796875 0 
L 37.796875 17.1875 
L 4.890625 17.1875 
L 4.890625 26.703125 
z
" id="DejaVuSans-34"/>
      </defs>
      <g style="fill:#262626;" transform="translate(535.912143 396.15875)scale(0.08 -0.08)">
       <use xlink:href="#DejaVuSans-34"/>
      </g>
     </g>
    </g>
    <g id="xtick_6">
     <g id="line2d_6"/>
     <g id="text_6">
      <!-- 5 -->
      <defs>
       <path d="M 10.796875 72.90625 
L 49.515625 72.90625 
L 49.515625 64.59375 
L 19.828125 64.59375 
L 19.828125 46.734375 
Q 21.96875 47.46875 24.109375 47.828125 
Q 26.265625 48.1875 28.421875 48.1875 
Q 40.625 48.1875 47.75 41.5 
Q 54.890625 34.8125 54.890625 23.390625 
Q 54.890625 11.625 47.5625 5.09375 
Q 40.234375 -1.421875 26.90625 -1.421875 
Q 22.3125 -1.421875 17.546875 -0.640625 
Q 12.796875 0.140625 7.71875 1.703125 
L 7.71875 11.625 
Q 12.109375 9.234375 16.796875 8.0625 
Q 21.484375 6.890625 26.703125 6.890625 
Q 35.15625 6.890625 40.078125 11.328125 
Q 45.015625 15.765625 45.015625 23.390625 
Q 45.015625 31 40.078125 35.4375 
Q 35.15625 39.890625 26.703125 39.890625 
Q 22.75 39.890625 18.8125 39.015625 
Q 14.890625 38.140625 10.796875 36.28125 
z
" id="DejaVuSans-35"/>
      </defs>
      <g style="fill:#262626;" transform="translate(631.569286 396.15875)scale(0.08 -0.08)">
       <use xlink:href="#DejaVuSans-35"/>
      </g>
     </g>
    </g>
    <g id="xtick_7">
     <g id="line2d_7"/>
     <g id="text_7">
      <!-- 6 -->
      <defs>
       <path d="M 33.015625 40.375 
Q 26.375 40.375 22.484375 35.828125 
Q 18.609375 31.296875 18.609375 23.390625 
Q 18.609375 15.53125 22.484375 10.953125 
Q 26.375 6.390625 33.015625 6.390625 
Q 39.65625 6.390625 43.53125 10.953125 
Q 47.40625 15.53125 47.40625 23.390625 
Q 47.40625 31.296875 43.53125 35.828125 
Q 39.65625 40.375 33.015625 40.375 
z
M 52.59375 71.296875 
L 52.59375 62.3125 
Q 48.875 64.0625 45.09375 64.984375 
Q 41.3125 65.921875 37.59375 65.921875 
Q 27.828125 65.921875 22.671875 59.328125 
Q 17.53125 52.734375 16.796875 39.40625 
Q 19.671875 43.65625 24.015625 45.921875 
Q 28.375 48.1875 33.59375 48.1875 
Q 44.578125 48.1875 50.953125 41.515625 
Q 57.328125 34.859375 57.328125 23.390625 
Q 57.328125 12.15625 50.6875 5.359375 
Q 44.046875 -1.421875 33.015625 -1.421875 
Q 20.359375 -1.421875 13.671875 8.265625 
Q 6.984375 17.96875 6.984375 36.375 
Q 6.984375 53.65625 15.1875 63.9375 
Q 23.390625 74.21875 37.203125 74.21875 
Q 40.921875 74.21875 44.703125 73.484375 
Q 48.484375 72.75 52.59375 71.296875 
z
" id="DejaVuSans-36"/>
      </defs>
      <g style="fill:#262626;" transform="translate(727.226429 396.15875)scale(0.08 -0.08)">
       <use xlink:href="#DejaVuSans-36"/>
      </g>
     </g>
    </g>
    <g id="text_8">
     <!-- Day -->
     <defs>
      <path d="M 19.671875 64.796875 
L 19.671875 8.109375 
L 31.59375 8.109375 
Q 46.6875 8.109375 53.6875 14.9375 
Q 60.6875 21.78125 60.6875 36.53125 
Q 60.6875 51.171875 53.6875 57.984375 
Q 46.6875 64.796875 31.59375 64.796875 
z
M 9.8125 72.90625 
L 30.078125 72.90625 
Q 51.265625 72.90625 61.171875 64.09375 
Q 71.09375 55.28125 71.09375 36.53125 
Q 71.09375 17.671875 61.125 8.828125 
Q 51.171875 0 30.078125 0 
L 9.8125 0 
z
" id="DejaVuSans-44"/>
      <path d="M 34.28125 27.484375 
Q 23.390625 27.484375 19.1875 25 
Q 14.984375 22.515625 14.984375 16.5 
Q 14.984375 11.71875 18.140625 8.90625 
Q 21.296875 6.109375 26.703125 6.109375 
Q 34.1875 6.109375 38.703125 11.40625 
Q 43.21875 16.703125 43.21875 25.484375 
L 43.21875 27.484375 
z
M 52.203125 31.203125 
L 52.203125 0 
L 43.21875 0 
L 43.21875 8.296875 
Q 40.140625 3.328125 35.546875 0.953125 
Q 30.953125 -1.421875 24.3125 -1.421875 
Q 15.921875 -1.421875 10.953125 3.296875 
Q 6 8.015625 6 15.921875 
Q 6 25.140625 12.171875 29.828125 
Q 18.359375 34.515625 30.609375 34.515625 
L 43.21875 34.515625 
L 43.21875 35.40625 
Q 43.21875 41.609375 39.140625 45 
Q 35.0625 48.390625 27.6875 48.390625 
Q 23 48.390625 18.546875 47.265625 
Q 14.109375 46.140625 10.015625 43.890625 
L 10.015625 52.203125 
Q 14.9375 54.109375 19.578125 55.046875 
Q 24.21875 56 28.609375 56 
Q 40.484375 56 46.34375 49.84375 
Q 52.203125 43.703125 52.203125 31.203125 
z
" id="DejaVuSans-61"/>
      <path d="M 32.171875 -5.078125 
Q 28.375 -14.84375 24.75 -17.8125 
Q 21.140625 -20.796875 15.09375 -20.796875 
L 7.90625 -20.796875 
L 7.90625 -13.28125 
L 13.1875 -13.28125 
Q 16.890625 -13.28125 18.9375 -11.515625 
Q 21 -9.765625 23.484375 -3.21875 
L 25.09375 0.875 
L 2.984375 54.6875 
L 12.5 54.6875 
L 29.59375 11.921875 
L 46.6875 54.6875 
L 56.203125 54.6875 
z
" id="DejaVuSans-79"/>
     </defs>
     <g style="fill:#262626;" transform="translate(434.111375 408.509125)scale(0.088 -0.088)">
      <use xlink:href="#DejaVuSans-44"/>
      <use x="77.001953" xlink:href="#DejaVuSans-61"/>
      <use x="138.28125" xlink:href="#DejaVuSans-79"/>
     </g>
    </g>
   </g>
   <g id="matplotlib.axis_2">
    <g id="ytick_1">
     <g id="line2d_8"/>
     <g id="text_9">
      <!-- 0 -->
      <g style="fill:#262626;" transform="translate(97.31 372.407901)scale(0.08 -0.08)">
       <use xlink:href="#DejaVuSans-30"/>
      </g>
     </g>
    </g>
    <g id="ytick_2">
     <g id="line2d_9"/>
     <g id="text_10">
      <!-- 50 -->
      <g style="fill:#262626;" transform="translate(92.22 329.780328)scale(0.08 -0.08)">
       <use xlink:href="#DejaVuSans-35"/>
       <use x="63.623047" xlink:href="#DejaVuSans-30"/>
      </g>
     </g>
    </g>
    <g id="ytick_3">
     <g id="line2d_10"/>
     <g id="text_11">
      <!-- 100 -->
      <g style="fill:#262626;" transform="translate(87.13 287.152755)scale(0.08 -0.08)">
       <use xlink:href="#DejaVuSans-31"/>
       <use x="63.623047" xlink:href="#DejaVuSans-30"/>
       <use x="127.246094" xlink:href="#DejaVuSans-30"/>
      </g>
     </g>
    </g>
    <g id="ytick_4">
     <g id="line2d_11"/>
     <g id="text_12">
      <!-- 150 -->
      <g style="fill:#262626;" transform="translate(87.13 244.525183)scale(0.08 -0.08)">
       <use xlink:href="#DejaVuSans-31"/>
       <use x="63.623047" xlink:href="#DejaVuSans-35"/>
       <use x="127.246094" xlink:href="#DejaVuSans-30"/>
      </g>
     </g>
    </g>
    <g id="ytick_5">
     <g id="line2d_12"/>
     <g id="text_13">
      <!-- 200 -->
      <g style="fill:#262626;" transform="translate(87.13 201.89761)scale(0.08 -0.08)">
       <use xlink:href="#DejaVuSans-32"/>
       <use x="63.623047" xlink:href="#DejaVuSans-30"/>
       <use x="127.246094" xlink:href="#DejaVuSans-30"/>
      </g>
     </g>
    </g>
    <g id="ytick_6">
     <g id="line2d_13"/>
     <g id="text_14">
      <!-- 250 -->
      <g style="fill:#262626;" transform="translate(87.13 159.270038)scale(0.08 -0.08)">
       <use xlink:href="#DejaVuSans-32"/>
       <use x="63.623047" xlink:href="#DejaVuSans-35"/>
       <use x="127.246094" xlink:href="#DejaVuSans-30"/>
      </g>
     </g>
    </g>
    <g id="ytick_7">
     <g id="line2d_14"/>
     <g id="text_15">
      <!-- 300 -->
      <g style="fill:#262626;" transform="translate(87.13 116.642465)scale(0.08 -0.08)">
       <use xlink:href="#DejaVuSans-33"/>
       <use x="63.623047" xlink:href="#DejaVuSans-30"/>
       <use x="127.246094" xlink:href="#DejaVuSans-30"/>
      </g>
     </g>
    </g>
    <g id="ytick_8">
     <g id="line2d_15"/>
     <g id="text_16">
      <!-- 350 -->
      <g style="fill:#262626;" transform="translate(87.13 74.014892)scale(0.08 -0.08)">
       <use xlink:href="#DejaVuSans-33"/>
       <use x="63.623047" xlink:href="#DejaVuSans-35"/>
       <use x="127.246094" xlink:href="#DejaVuSans-30"/>
      </g>
     </g>
    </g>
    <g id="text_17">
     <!-- Amount -->
     <defs>
      <path d="M 34.1875 63.1875 
L 20.796875 26.90625 
L 47.609375 26.90625 
z
M 28.609375 72.90625 
L 39.796875 72.90625 
L 67.578125 0 
L 57.328125 0 
L 50.6875 18.703125 
L 17.828125 18.703125 
L 11.1875 0 
L 0.78125 0 
z
" id="DejaVuSans-41"/>
      <path d="M 52 44.1875 
Q 55.375 50.25 60.0625 53.125 
Q 64.75 56 71.09375 56 
Q 79.640625 56 84.28125 50.015625 
Q 88.921875 44.046875 88.921875 33.015625 
L 88.921875 0 
L 79.890625 0 
L 79.890625 32.71875 
Q 79.890625 40.578125 77.09375 44.375 
Q 74.3125 48.1875 68.609375 48.1875 
Q 61.625 48.1875 57.5625 43.546875 
Q 53.515625 38.921875 53.515625 30.90625 
L 53.515625 0 
L 44.484375 0 
L 44.484375 32.71875 
Q 44.484375 40.625 41.703125 44.40625 
Q 38.921875 48.1875 33.109375 48.1875 
Q 26.21875 48.1875 22.15625 43.53125 
Q 18.109375 38.875 18.109375 30.90625 
L 18.109375 0 
L 9.078125 0 
L 9.078125 54.6875 
L 18.109375 54.6875 
L 18.109375 46.1875 
Q 21.1875 51.21875 25.484375 53.609375 
Q 29.78125 56 35.6875 56 
Q 41.65625 56 45.828125 52.96875 
Q 50 49.953125 52 44.1875 
z
" id="DejaVuSans-6d"/>
      <path d="M 30.609375 48.390625 
Q 23.390625 48.390625 19.1875 42.75 
Q 14.984375 37.109375 14.984375 27.296875 
Q 14.984375 17.484375 19.15625 11.84375 
Q 23.34375 6.203125 30.609375 6.203125 
Q 37.796875 6.203125 41.984375 11.859375 
Q 46.1875 17.53125 46.1875 27.296875 
Q 46.1875 37.015625 41.984375 42.703125 
Q 37.796875 48.390625 30.609375 48.390625 
z
M 30.609375 56 
Q 42.328125 56 49.015625 48.375 
Q 55.71875 40.765625 55.71875 27.296875 
Q 55.71875 13.875 49.015625 6.21875 
Q 42.328125 -1.421875 30.609375 -1.421875 
Q 18.84375 -1.421875 12.171875 6.21875 
Q 5.515625 13.875 5.515625 27.296875 
Q 5.515625 40.765625 12.171875 48.375 
Q 18.84375 56 30.609375 56 
z
" id="DejaVuSans-6f"/>
      <path d="M 8.5 21.578125 
L 8.5 54.6875 
L 17.484375 54.6875 
L 17.484375 21.921875 
Q 17.484375 14.15625 20.5 10.265625 
Q 23.53125 6.390625 29.59375 6.390625 
Q 36.859375 6.390625 41.078125 11.03125 
Q 45.3125 15.671875 45.3125 23.6875 
L 45.3125 54.6875 
L 54.296875 54.6875 
L 54.296875 0 
L 45.3125 0 
L 45.3125 8.40625 
Q 42.046875 3.421875 37.71875 1 
Q 33.40625 -1.421875 27.6875 -1.421875 
Q 18.265625 -1.421875 13.375 4.4375 
Q 8.5 10.296875 8.5 21.578125 
z
M 31.109375 56 
z
" id="DejaVuSans-75"/>
      <path d="M 54.890625 33.015625 
L 54.890625 0 
L 45.90625 0 
L 45.90625 32.71875 
Q 45.90625 40.484375 42.875 44.328125 
Q 39.84375 48.1875 33.796875 48.1875 
Q 26.515625 48.1875 22.3125 43.546875 
Q 18.109375 38.921875 18.109375 30.90625 
L 18.109375 0 
L 9.078125 0 
L 9.078125 54.6875 
L 18.109375 54.6875 
L 18.109375 46.1875 
Q 21.34375 51.125 25.703125 53.5625 
Q 30.078125 56 35.796875 56 
Q 45.21875 56 50.046875 50.171875 
Q 54.890625 44.34375 54.890625 33.015625 
z
" id="DejaVuSans-6e"/>
      <path d="M 18.3125 70.21875 
L 18.3125 54.6875 
L 36.8125 54.6875 
L 36.8125 47.703125 
L 18.3125 47.703125 
L 18.3125 18.015625 
Q 18.3125 11.328125 20.140625 9.421875 
Q 21.96875 7.515625 27.59375 7.515625 
L 36.8125 7.515625 
L 36.8125 0 
L 27.59375 0 
Q 17.1875 0 13.234375 3.875 
Q 9.28125 7.765625 9.28125 18.015625 
L 9.28125 47.703125 
L 2.6875 47.703125 
L 2.6875 54.6875 
L 9.28125 54.6875 
L 9.28125 70.21875 
z
" id="DejaVuSans-74"/>
     </defs>
     <g style="fill:#262626;" transform="translate(81.299875 235.449937)rotate(-90)scale(0.088 -0.088)">
      <use xlink:href="#DejaVuSans-41"/>
      <use x="68.408203" xlink:href="#DejaVuSans-6d"/>
      <use x="165.820312" xlink:href="#DejaVuSans-6f"/>
      <use x="227.001953" xlink:href="#DejaVuSans-75"/>
      <use x="290.380859" xlink:href="#DejaVuSans-6e"/>
      <use x="353.759766" xlink:href="#DejaVuSans-74"/>
     </g>
    </g>
   </g>
   <g id="patch_3">
    <path clip-path="url(#p462627d841)" d="M 117.948343 364.238297 
L 155.445943 364.238297 
L 155.445943 335.7034 
L 117.948343 335.7034 
L 117.948343 364.238297 
z
" style="fill:#3274a1;stroke:#3f3f3f;stroke-linejoin:miter;stroke-width:1.4;"/>
   </g>
   <g id="patch_4">
    <path clip-path="url(#p462627d841)" d="M 156.2112 365.318906 
L 193.7088 365.318906 
L 193.7088 305.94296 
L 156.2112 305.94296 
L 156.2112 365.318906 
z
" style="fill:#e1812c;stroke:#3f3f3f;stroke-linejoin:miter;stroke-width:1.4;"/>
   </g>
   <g id="patch_5">
    <path clip-path="url(#p462627d841)" d="M 213.605486 366.810871 
L 251.103086 366.810871 
L 251.103086 354.873019 
L 213.605486 354.873019 
L 213.605486 366.810871 
z
" style="fill:#3274a1;stroke:#3f3f3f;stroke-linejoin:miter;stroke-width:1.4;"/>
   </g>
   <g id="patch_6">
    <path clip-path="url(#p462627d841)" d="M 251.868343 368.15364 
L 289.365943 368.15364 
L 289.365943 335.070381 
L 251.868343 335.070381 
L 251.868343 368.15364 
z
" style="fill:#e1812c;stroke:#3f3f3f;stroke-linejoin:miter;stroke-width:1.4;"/>
   </g>
   <g id="patch_7">
    <path clip-path="url(#p462627d841)" d="M 309.262629 366.810871 
L 346.760229 366.810871 
L 346.760229 355.316346 
L 309.262629 355.316346 
L 309.262629 366.810871 
z
" style="fill:#3274a1;stroke:#3f3f3f;stroke-linejoin:miter;stroke-width:1.4;"/>
   </g>
   <g id="patch_8">
    <path clip-path="url(#p462627d841)" d="M 347.525486 368.541551 
L 385.023086 368.541551 
L 385.023086 331.856262 
L 347.525486 331.856262 
L 347.525486 368.541551 
z
" style="fill:#e1812c;stroke:#3f3f3f;stroke-linejoin:miter;stroke-width:1.4;"/>
   </g>
   <g id="patch_9">
    <path clip-path="url(#p462627d841)" d="M 404.919771 366.810871 
L 442.417371 366.810871 
L 442.417371 352.317496 
L 404.919771 352.317496 
L 404.919771 366.810871 
z
" style="fill:#3274a1;stroke:#3f3f3f;stroke-linejoin:miter;stroke-width:1.4;"/>
   </g>
   <g id="patch_10">
    <path clip-path="url(#p462627d841)" d="M 443.182629 366.810871 
L 480.680229 366.810871 
L 480.680229 289.868103 
L 443.182629 289.868103 
L 443.182629 366.810871 
z
" style="fill:#e1812c;stroke:#3f3f3f;stroke-linejoin:miter;stroke-width:1.4;"/>
   </g>
   <g id="patch_11">
    <path clip-path="url(#p462627d841)" d="M 500.576914 366.768244 
L 538.074514 366.768244 
L 538.074514 339.529225 
L 500.576914 339.529225 
L 500.576914 366.768244 
z
" style="fill:#3274a1;stroke:#3f3f3f;stroke-linejoin:miter;stroke-width:1.4;"/>
   </g>
   <g id="patch_12">
    <path clip-path="url(#p462627d841)" d="M 538.839771 343.791982 
L 576.337371 343.791982 
L 576.337371 209.169845 
L 538.839771 209.169845 
L 538.839771 343.791982 
z
" style="fill:#e1812c;stroke:#3f3f3f;stroke-linejoin:miter;stroke-width:1.4;"/>
   </g>
   <g id="patch_13">
    <path clip-path="url(#p462627d841)" d="M 596.234057 363.023411 
L 633.731657 363.023411 
L 633.731657 345.062284 
L 596.234057 345.062284 
L 596.234057 363.023411 
z
" style="fill:#3274a1;stroke:#3f3f3f;stroke-linejoin:miter;stroke-width:1.4;"/>
   </g>
   <g id="patch_14">
    <path clip-path="url(#p462627d841)" d="M 634.496914 366.640361 
L 671.994514 366.640361 
L 671.994514 329.209089 
L 634.496914 329.209089 
L 634.496914 366.640361 
z
" style="fill:#e1812c;stroke:#3f3f3f;stroke-linejoin:miter;stroke-width:1.4;"/>
   </g>
   <g id="patch_15">
    <path clip-path="url(#p462627d841)" d="M 691.8912 361.441928 
L 729.3888 361.441928 
L 729.3888 332.190888 
L 691.8912 332.190888 
L 691.8912 361.441928 
z
" style="fill:#3274a1;stroke:#3f3f3f;stroke-linejoin:miter;stroke-width:1.4;"/>
   </g>
   <g id="patch_16">
    <path clip-path="url(#p462627d841)" d="M 730.154057 366.435749 
L 767.651657 366.435749 
L 767.651657 338.582893 
L 730.154057 338.582893 
L 730.154057 366.435749 
z
" style="fill:#e1812c;stroke:#3f3f3f;stroke-linejoin:miter;stroke-width:1.4;"/>
   </g>
   <g id="patch_17">
    <path clip-path="url(#p462627d841)" d="M 155.828571 369.368526 
L 155.828571 369.368526 
L 155.828571 369.368526 
L 155.828571 369.368526 
z
" style="fill:#3274a1;stroke:#3f3f3f;stroke-linejoin:miter;stroke-width:0.7;"/>
   </g>
   <g id="patch_18">
    <path clip-path="url(#p462627d841)" d="M 155.828571 369.368526 
L 155.828571 369.368526 
L 155.828571 369.368526 
L 155.828571 369.368526 
z
" style="fill:#e1812c;stroke:#3f3f3f;stroke-linejoin:miter;stroke-width:0.7;"/>
   </g>
   <g id="line2d_16">
    <path clip-path="url(#p462627d841)" d="M 136.697143 364.238297 
L 136.697143 369.274745 
" style="fill:none;stroke:#3f3f3f;stroke-linecap:round;stroke-width:1.4;"/>
   </g>
   <g id="line2d_17">
    <path clip-path="url(#p462627d841)" d="M 136.697143 335.7034 
L 136.697143 298.214581 
" style="fill:none;stroke:#3f3f3f;stroke-linecap:round;stroke-width:1.4;"/>
   </g>
   <g id="line2d_18">
    <path clip-path="url(#p462627d841)" d="M 127.322743 369.274745 
L 146.071543 369.274745 
" style="fill:none;stroke:#3f3f3f;stroke-linecap:round;stroke-width:1.4;"/>
   </g>
   <g id="line2d_19">
    <path clip-path="url(#p462627d841)" d="M 127.322743 298.214581 
L 146.071543 298.214581 
" style="fill:none;stroke:#3f3f3f;stroke-linecap:round;stroke-width:1.4;"/>
   </g>
   <g id="line2d_20">
    <defs>
     <path d="M -0 3.535534 
L 2.12132 0 
L -0 -3.535534 
L -2.12132 -0 
z
" id="m8586b824c4"/>
    </defs>
    <g clip-path="url(#p462627d841)">
     <use style="fill:#3f3f3f;" x="136.697143" xlink:href="#m8586b824c4" y="156.230663"/>
     <use style="fill:#3f3f3f;" x="136.697143" xlink:href="#m8586b824c4" y="262.799594"/>
     <use style="fill:#3f3f3f;" x="136.697143" xlink:href="#m8586b824c4" y="262.799594"/>
     <use style="fill:#3f3f3f;" x="136.697143" xlink:href="#m8586b824c4" y="186.828734"/>
     <use style="fill:#3f3f3f;" x="136.697143" xlink:href="#m8586b824c4" y="92.289304"/>
     <use style="fill:#3f3f3f;" x="136.697143" xlink:href="#m8586b824c4" y="206.531198"/>
     <use style="fill:#3f3f3f;" x="136.697143" xlink:href="#m8586b824c4" y="284.965932"/>
     <use style="fill:#3f3f3f;" x="136.697143" xlink:href="#m8586b824c4" y="156.230663"/>
     <use style="fill:#3f3f3f;" x="136.697143" xlink:href="#m8586b824c4" y="113.60309"/>
     <use style="fill:#3f3f3f;" x="136.697143" xlink:href="#m8586b824c4" y="222.729676"/>
    </g>
   </g>
   <g id="line2d_21">
    <path clip-path="url(#p462627d841)" d="M 174.96 365.318906 
L 174.96 369.36 
" style="fill:none;stroke:#3f3f3f;stroke-linecap:round;stroke-width:1.4;"/>
   </g>
   <g id="line2d_22">
    <path clip-path="url(#p462627d841)" d="M 174.96 305.94296 
L 174.96 219.31947 
" style="fill:none;stroke:#3f3f3f;stroke-linecap:round;stroke-width:1.4;"/>
   </g>
   <g id="line2d_23">
    <path clip-path="url(#p462627d841)" d="M 165.5856 369.36 
L 184.3344 369.36 
" style="fill:none;stroke:#3f3f3f;stroke-linecap:round;stroke-width:1.4;"/>
   </g>
   <g id="line2d_24">
    <path clip-path="url(#p462627d841)" d="M 165.5856 219.31947 
L 184.3344 219.31947 
" style="fill:none;stroke:#3f3f3f;stroke-linecap:round;stroke-width:1.4;"/>
   </g>
   <g id="line2d_25">
    <g clip-path="url(#p462627d841)">
     <use style="fill:#3f3f3f;" x="174.96" xlink:href="#m8586b824c4" y="186.828734"/>
     <use style="fill:#3f3f3f;" x="174.96" xlink:href="#m8586b824c4" y="206.531198"/>
     <use style="fill:#3f3f3f;" x="174.96" xlink:href="#m8586b824c4" y="177.544449"/>
     <use style="fill:#3f3f3f;" x="174.96" xlink:href="#m8586b824c4" y="113.60309"/>
     <use style="fill:#3f3f3f;" x="174.96" xlink:href="#m8586b824c4" y="113.60309"/>
    </g>
   </g>
   <g id="line2d_26">
    <path clip-path="url(#p462627d841)" d="M 232.354286 366.810871 
L 232.354286 369.28327 
" style="fill:none;stroke:#3f3f3f;stroke-linecap:round;stroke-width:1.4;"/>
   </g>
   <g id="line2d_27">
    <path clip-path="url(#p462627d841)" d="M 232.354286 354.873019 
L 232.354286 338.352704 
" style="fill:none;stroke:#3f3f3f;stroke-linecap:round;stroke-width:1.4;"/>
   </g>
   <g id="line2d_28">
    <path clip-path="url(#p462627d841)" d="M 222.979886 369.28327 
L 241.728686 369.28327 
" style="fill:none;stroke:#3f3f3f;stroke-linecap:round;stroke-width:1.4;"/>
   </g>
   <g id="line2d_29">
    <path clip-path="url(#p462627d841)" d="M 222.979886 338.352704 
L 241.728686 338.352704 
" style="fill:none;stroke:#3f3f3f;stroke-linecap:round;stroke-width:1.4;"/>
   </g>
   <g id="line2d_30">
    <g clip-path="url(#p462627d841)">
     <use style="fill:#3f3f3f;" x="232.354286" xlink:href="#m8586b824c4" y="223.070696"/>
     <use style="fill:#3f3f3f;" x="232.354286" xlink:href="#m8586b824c4" y="309.698449"/>
     <use style="fill:#3f3f3f;" x="232.354286" xlink:href="#m8586b824c4" y="318.215438"/>
     <use style="fill:#3f3f3f;" x="232.354286" xlink:href="#m8586b824c4" y="220.172021"/>
     <use style="fill:#3f3f3f;" x="232.354286" xlink:href="#m8586b824c4" y="220.172021"/>
     <use style="fill:#3f3f3f;" x="232.354286" xlink:href="#m8586b824c4" y="120.500231"/>
     <use style="fill:#3f3f3f;" x="232.354286" xlink:href="#m8586b824c4" y="312.716482"/>
     <use style="fill:#3f3f3f;" x="232.354286" xlink:href="#m8586b824c4" y="336.87779"/>
     <use style="fill:#3f3f3f;" x="232.354286" xlink:href="#m8586b824c4" y="173.281692"/>
     <use style="fill:#3f3f3f;" x="232.354286" xlink:href="#m8586b824c4" y="121.318681"/>
     <use style="fill:#3f3f3f;" x="232.354286" xlink:href="#m8586b824c4" y="329.341235"/>
     <use style="fill:#3f3f3f;" x="232.354286" xlink:href="#m8586b824c4" y="329.332709"/>
     <use style="fill:#3f3f3f;" x="232.354286" xlink:href="#m8586b824c4" y="305.682932"/>
     <use style="fill:#3f3f3f;" x="232.354286" xlink:href="#m8586b824c4" y="267.062351"/>
     <use style="fill:#3f3f3f;" x="232.354286" xlink:href="#m8586b824c4" y="319.56247"/>
     <use style="fill:#3f3f3f;" x="232.354286" xlink:href="#m8586b824c4" y="317.789163"/>
     <use style="fill:#3f3f3f;" x="232.354286" xlink:href="#m8586b824c4" y="258.536837"/>
     <use style="fill:#3f3f3f;" x="232.354286" xlink:href="#m8586b824c4" y="335.266467"/>
    </g>
   </g>
   <g id="line2d_31">
    <path clip-path="url(#p462627d841)" d="M 270.617143 368.15364 
L 270.617143 369.36 
" style="fill:none;stroke:#3f3f3f;stroke-linecap:round;stroke-width:1.4;"/>
   </g>
   <g id="line2d_32">
    <path clip-path="url(#p462627d841)" d="M 270.617143 335.070381 
L 270.617143 293.610803 
" style="fill:none;stroke:#3f3f3f;stroke-linecap:round;stroke-width:1.4;"/>
   </g>
   <g id="line2d_33">
    <path clip-path="url(#p462627d841)" d="M 261.242743 369.36 
L 279.991543 369.36 
" style="fill:none;stroke:#3f3f3f;stroke-linecap:round;stroke-width:1.4;"/>
   </g>
   <g id="line2d_34">
    <path clip-path="url(#p462627d841)" d="M 261.242743 293.610803 
L 279.991543 293.610803 
" style="fill:none;stroke:#3f3f3f;stroke-linecap:round;stroke-width:1.4;"/>
   </g>
   <g id="line2d_35">
    <g clip-path="url(#p462627d841)">
     <use style="fill:#3f3f3f;" x="270.617143" xlink:href="#m8586b824c4" y="220.172021"/>
     <use style="fill:#3f3f3f;" x="270.617143" xlink:href="#m8586b824c4" y="120.500231"/>
     <use style="fill:#3f3f3f;" x="270.617143" xlink:href="#m8586b824c4" y="285.238748"/>
     <use style="fill:#3f3f3f;" x="270.617143" xlink:href="#m8586b824c4" y="214.212687"/>
     <use style="fill:#3f3f3f;" x="270.617143" xlink:href="#m8586b824c4" y="215.909264"/>
     <use style="fill:#3f3f3f;" x="270.617143" xlink:href="#m8586b824c4" y="282.646992"/>
    </g>
   </g>
   <g id="line2d_36">
    <path clip-path="url(#p462627d841)" d="M 328.011429 366.810871 
L 328.011429 368.515974 
" style="fill:none;stroke:#3f3f3f;stroke-linecap:round;stroke-width:1.4;"/>
   </g>
   <g id="line2d_37">
    <path clip-path="url(#p462627d841)" d="M 328.011429 355.316346 
L 328.011429 340.381776 
" style="fill:none;stroke:#3f3f3f;stroke-linecap:round;stroke-width:1.4;"/>
   </g>
   <g id="line2d_38">
    <path clip-path="url(#p462627d841)" d="M 318.637029 368.515974 
L 337.385829 368.515974 
" style="fill:none;stroke:#3f3f3f;stroke-linecap:round;stroke-width:1.4;"/>
   </g>
   <g id="line2d_39">
    <path clip-path="url(#p462627d841)" d="M 318.637029 340.381776 
L 337.385829 340.381776 
" style="fill:none;stroke:#3f3f3f;stroke-linecap:round;stroke-width:1.4;"/>
   </g>
   <g id="line2d_40">
    <g clip-path="url(#p462627d841)">
     <use style="fill:#3f3f3f;" x="328.011429" xlink:href="#m8586b824c4" y="323.765548"/>
     <use style="fill:#3f3f3f;" x="328.011429" xlink:href="#m8586b824c4" y="223.070696"/>
     <use style="fill:#3f3f3f;" x="328.011429" xlink:href="#m8586b824c4" y="333.535788"/>
     <use style="fill:#3f3f3f;" x="328.011429" xlink:href="#m8586b824c4" y="326.740953"/>
     <use style="fill:#3f3f3f;" x="328.011429" xlink:href="#m8586b824c4" y="322.478196"/>
     <use style="fill:#3f3f3f;" x="328.011429" xlink:href="#m8586b824c4" y="301.164409"/>
     <use style="fill:#3f3f3f;" x="328.011429" xlink:href="#m8586b824c4" y="267.667663"/>
     <use style="fill:#3f3f3f;" x="328.011429" xlink:href="#m8586b824c4" y="262.799594"/>
     <use style="fill:#3f3f3f;" x="328.011429" xlink:href="#m8586b824c4" y="326.740953"/>
     <use style="fill:#3f3f3f;" x="328.011429" xlink:href="#m8586b824c4" y="122.196809"/>
     <use style="fill:#3f3f3f;" x="328.011429" xlink:href="#m8586b824c4" y="302.016961"/>
     <use style="fill:#3f3f3f;" x="328.011429" xlink:href="#m8586b824c4" y="312.716482"/>
     <use style="fill:#3f3f3f;" x="328.011429" xlink:href="#m8586b824c4" y="323.330747"/>
     <use style="fill:#3f3f3f;" x="328.011429" xlink:href="#m8586b824c4" y="318.215438"/>
     <use style="fill:#3f3f3f;" x="328.011429" xlink:href="#m8586b824c4" y="325.03585"/>
     <use style="fill:#3f3f3f;" x="328.011429" xlink:href="#m8586b824c4" y="329.332709"/>
     <use style="fill:#3f3f3f;" x="328.011429" xlink:href="#m8586b824c4" y="226.088729"/>
     <use style="fill:#3f3f3f;" x="328.011429" xlink:href="#m8586b824c4" y="319.596572"/>
     <use style="fill:#3f3f3f;" x="328.011429" xlink:href="#m8586b824c4" y="327.593504"/>
     <use style="fill:#3f3f3f;" x="328.011429" xlink:href="#m8586b824c4" y="330.151159"/>
     <use style="fill:#3f3f3f;" x="328.011429" xlink:href="#m8586b824c4" y="331.856262"/>
     <use style="fill:#3f3f3f;" x="328.011429" xlink:href="#m8586b824c4" y="334.703783"/>
     <use style="fill:#3f3f3f;" x="328.011429" xlink:href="#m8586b824c4" y="245.390493"/>
    </g>
   </g>
   <g id="line2d_41">
    <path clip-path="url(#p462627d841)" d="M 366.274286 368.541551 
L 366.274286 369.308847 
" style="fill:none;stroke:#3f3f3f;stroke-linecap:round;stroke-width:1.4;"/>
   </g>
   <g id="line2d_42">
    <path clip-path="url(#p462627d841)" d="M 366.274286 331.856262 
L 366.274286 301.164409 
" style="fill:none;stroke:#3f3f3f;stroke-linecap:round;stroke-width:1.4;"/>
   </g>
   <g id="line2d_43">
    <path clip-path="url(#p462627d841)" d="M 356.899886 369.308847 
L 375.648686 369.308847 
" style="fill:none;stroke:#3f3f3f;stroke-linecap:round;stroke-width:1.4;"/>
   </g>
   <g id="line2d_44">
    <path clip-path="url(#p462627d841)" d="M 356.899886 301.164409 
L 375.648686 301.164409 
" style="fill:none;stroke:#3f3f3f;stroke-linecap:round;stroke-width:1.4;"/>
   </g>
   <g id="line2d_45">
    <g clip-path="url(#p462627d841)">
     <use style="fill:#3f3f3f;" x="366.274286" xlink:href="#m8586b824c4" y="223.070696"/>
     <use style="fill:#3f3f3f;" x="366.274286" xlink:href="#m8586b824c4" y="223.070696"/>
     <use style="fill:#3f3f3f;" x="366.274286" xlink:href="#m8586b824c4" y="209.063276"/>
     <use style="fill:#3f3f3f;" x="366.274286" xlink:href="#m8586b824c4" y="258.536837"/>
     <use style="fill:#3f3f3f;" x="366.274286" xlink:href="#m8586b824c4" y="231.383073"/>
     <use style="fill:#3f3f3f;" x="366.274286" xlink:href="#m8586b824c4" y="224.289845"/>
    </g>
   </g>
   <g id="line2d_46">
    <path clip-path="url(#p462627d841)" d="M 423.668571 366.810871 
L 423.668571 369.138337 
" style="fill:none;stroke:#3f3f3f;stroke-linecap:round;stroke-width:1.4;"/>
   </g>
   <g id="line2d_47">
    <path clip-path="url(#p462627d841)" d="M 423.668571 352.317496 
L 423.668571 331.975619 
" style="fill:none;stroke:#3f3f3f;stroke-linecap:round;stroke-width:1.4;"/>
   </g>
   <g id="line2d_48">
    <path clip-path="url(#p462627d841)" d="M 414.294171 369.138337 
L 433.042971 369.138337 
" style="fill:none;stroke:#3f3f3f;stroke-linecap:round;stroke-width:1.4;"/>
   </g>
   <g id="line2d_49">
    <path clip-path="url(#p462627d841)" d="M 414.294171 331.975619 
L 433.042971 331.975619 
" style="fill:none;stroke:#3f3f3f;stroke-linecap:round;stroke-width:1.4;"/>
   </g>
   <g id="line2d_50">
    <g clip-path="url(#p462627d841)">
     <use style="fill:#3f3f3f;" x="423.668571" xlink:href="#m8586b824c4" y="223.070696"/>
     <use style="fill:#3f3f3f;" x="423.668571" xlink:href="#m8586b824c4" y="223.070696"/>
     <use style="fill:#3f3f3f;" x="423.668571" xlink:href="#m8586b824c4" y="156.230663"/>
     <use style="fill:#3f3f3f;" x="423.668571" xlink:href="#m8586b824c4" y="301.207037"/>
     <use style="fill:#3f3f3f;" x="423.668571" xlink:href="#m8586b824c4" y="156.230663"/>
     <use style="fill:#3f3f3f;" x="423.668571" xlink:href="#m8586b824c4" y="92.289304"/>
     <use style="fill:#3f3f3f;" x="423.668571" xlink:href="#m8586b824c4" y="212.85713"/>
     <use style="fill:#3f3f3f;" x="423.668571" xlink:href="#m8586b824c4" y="328.326699"/>
     <use style="fill:#3f3f3f;" x="423.668571" xlink:href="#m8586b824c4" y="312.716482"/>
     <use style="fill:#3f3f3f;" x="423.668571" xlink:href="#m8586b824c4" y="312.716482"/>
     <use style="fill:#3f3f3f;" x="423.668571" xlink:href="#m8586b824c4" y="156.230663"/>
     <use style="fill:#3f3f3f;" x="423.668571" xlink:href="#m8586b824c4" y="329.332709"/>
     <use style="fill:#3f3f3f;" x="423.668571" xlink:href="#m8586b824c4" y="121.318681"/>
     <use style="fill:#3f3f3f;" x="423.668571" xlink:href="#m8586b824c4" y="329.332709"/>
     <use style="fill:#3f3f3f;" x="423.668571" xlink:href="#m8586b824c4" y="305.427167"/>
     <use style="fill:#3f3f3f;" x="423.668571" xlink:href="#m8586b824c4" y="245.305238"/>
     <use style="fill:#3f3f3f;" x="423.668571" xlink:href="#m8586b824c4" y="287.694096"/>
     <use style="fill:#3f3f3f;" x="423.668571" xlink:href="#m8586b824c4" y="296.910178"/>
    </g>
   </g>
   <g id="line2d_51">
    <path clip-path="url(#p462627d841)" d="M 461.931429 366.810871 
L 461.931429 369.317372 
" style="fill:none;stroke:#3f3f3f;stroke-linecap:round;stroke-width:1.4;"/>
   </g>
   <g id="line2d_52">
    <path clip-path="url(#p462627d841)" d="M 461.931429 289.868103 
L 461.931429 214.894728 
" style="fill:none;stroke:#3f3f3f;stroke-linecap:round;stroke-width:1.4;"/>
   </g>
   <g id="line2d_53">
    <path clip-path="url(#p462627d841)" d="M 452.557029 369.317372 
L 471.305829 369.317372 
" style="fill:none;stroke:#3f3f3f;stroke-linecap:round;stroke-width:1.4;"/>
   </g>
   <g id="line2d_54">
    <path clip-path="url(#p462627d841)" d="M 452.557029 214.894728 
L 471.305829 214.894728 
" style="fill:none;stroke:#3f3f3f;stroke-linecap:round;stroke-width:1.4;"/>
   </g>
   <g id="line2d_55">
    <g clip-path="url(#p462627d841)">
     <use style="fill:#3f3f3f;" x="461.931429" xlink:href="#m8586b824c4" y="169.070087"/>
     <use style="fill:#3f3f3f;" x="461.931429" xlink:href="#m8586b824c4" y="121.318681"/>
    </g>
   </g>
   <g id="line2d_56">
    <path clip-path="url(#p462627d841)" d="M 519.325714 366.768244 
L 519.325714 368.94225 
" style="fill:none;stroke:#3f3f3f;stroke-linecap:round;stroke-width:1.4;"/>
   </g>
   <g id="line2d_57">
    <path clip-path="url(#p462627d841)" d="M 519.325714 339.529225 
L 519.325714 304.063084 
" style="fill:none;stroke:#3f3f3f;stroke-linecap:round;stroke-width:1.4;"/>
   </g>
   <g id="line2d_58">
    <path clip-path="url(#p462627d841)" d="M 509.951314 368.94225 
L 528.700114 368.94225 
" style="fill:none;stroke:#3f3f3f;stroke-linecap:round;stroke-width:1.4;"/>
   </g>
   <g id="line2d_59">
    <path clip-path="url(#p462627d841)" d="M 509.951314 304.063084 
L 528.700114 304.063084 
" style="fill:none;stroke:#3f3f3f;stroke-linecap:round;stroke-width:1.4;"/>
   </g>
   <g id="line2d_60">
    <g clip-path="url(#p462627d841)">
     <use style="fill:#3f3f3f;" x="519.325714" xlink:href="#m8586b824c4" y="275.587866"/>
     <use style="fill:#3f3f3f;" x="519.325714" xlink:href="#m8586b824c4" y="241.485808"/>
     <use style="fill:#3f3f3f;" x="519.325714" xlink:href="#m8586b824c4" y="106.612168"/>
     <use style="fill:#3f3f3f;" x="519.325714" xlink:href="#m8586b824c4" y="92.289304"/>
     <use style="fill:#3f3f3f;" x="519.325714" xlink:href="#m8586b824c4" y="173.281692"/>
     <use style="fill:#3f3f3f;" x="519.325714" xlink:href="#m8586b824c4" y="193.742926"/>
     <use style="fill:#3f3f3f;" x="519.325714" xlink:href="#m8586b824c4" y="120.176262"/>
     <use style="fill:#3f3f3f;" x="519.325714" xlink:href="#m8586b824c4" y="224.289845"/>
     <use style="fill:#3f3f3f;" x="519.325714" xlink:href="#m8586b824c4" y="282.723721"/>
     <use style="fill:#3f3f3f;" x="519.325714" xlink:href="#m8586b824c4" y="242.670854"/>
    </g>
   </g>
   <g id="line2d_61">
    <path clip-path="url(#p462627d841)" d="M 557.588571 343.791982 
L 557.588571 369.36 
" style="fill:none;stroke:#3f3f3f;stroke-linecap:round;stroke-width:1.4;"/>
   </g>
   <g id="line2d_62">
    <path clip-path="url(#p462627d841)" d="M 557.588571 209.169845 
L 557.588571 66.96 
" style="fill:none;stroke:#3f3f3f;stroke-linecap:round;stroke-width:1.4;"/>
   </g>
   <g id="line2d_63">
    <path clip-path="url(#p462627d841)" d="M 548.214171 369.36 
L 566.962971 369.36 
" style="fill:none;stroke:#3f3f3f;stroke-linecap:round;stroke-width:1.4;"/>
   </g>
   <g id="line2d_64">
    <path clip-path="url(#p462627d841)" d="M 548.214171 66.96 
L 566.962971 66.96 
" style="fill:none;stroke:#3f3f3f;stroke-linecap:round;stroke-width:1.4;"/>
   </g>
   <g id="line2d_65"/>
   <g id="line2d_66">
    <path clip-path="url(#p462627d841)" d="M 614.982857 363.023411 
L 614.982857 367.791305 
" style="fill:none;stroke:#3f3f3f;stroke-linecap:round;stroke-width:1.4;"/>
   </g>
   <g id="line2d_67">
    <path clip-path="url(#p462627d841)" d="M 614.982857 345.062284 
L 614.982857 318.215438 
" style="fill:none;stroke:#3f3f3f;stroke-linecap:round;stroke-width:1.4;"/>
   </g>
   <g id="line2d_68">
    <path clip-path="url(#p462627d841)" d="M 605.608457 367.791305 
L 624.357257 367.791305 
" style="fill:none;stroke:#3f3f3f;stroke-linecap:round;stroke-width:1.4;"/>
   </g>
   <g id="line2d_69">
    <path clip-path="url(#p462627d841)" d="M 605.608457 318.215438 
L 624.357257 318.215438 
" style="fill:none;stroke:#3f3f3f;stroke-linecap:round;stroke-width:1.4;"/>
   </g>
   <g id="line2d_70">
    <g clip-path="url(#p462627d841)">
     <use style="fill:#3f3f3f;" x="614.982857" xlink:href="#m8586b824c4" y="284.11338"/>
     <use style="fill:#3f3f3f;" x="614.982857" xlink:href="#m8586b824c4" y="304.139814"/>
     <use style="fill:#3f3f3f;" x="614.982857" xlink:href="#m8586b824c4" y="250.454649"/>
     <use style="fill:#3f3f3f;" x="614.982857" xlink:href="#m8586b824c4" y="314.728503"/>
     <use style="fill:#3f3f3f;" x="614.982857" xlink:href="#m8586b824c4" y="156.230663"/>
     <use style="fill:#3f3f3f;" x="614.982857" xlink:href="#m8586b824c4" y="156.230663"/>
     <use style="fill:#3f3f3f;" x="614.982857" xlink:href="#m8586b824c4" y="262.799594"/>
     <use style="fill:#3f3f3f;" x="614.982857" xlink:href="#m8586b824c4" y="232.960293"/>
     <use style="fill:#3f3f3f;" x="614.982857" xlink:href="#m8586b824c4" y="218.466919"/>
     <use style="fill:#3f3f3f;" x="614.982857" xlink:href="#m8586b824c4" y="308.283214"/>
     <use style="fill:#3f3f3f;" x="614.982857" xlink:href="#m8586b824c4" y="305.520947"/>
     <use style="fill:#3f3f3f;" x="614.982857" xlink:href="#m8586b824c4" y="256.644173"/>
     <use style="fill:#3f3f3f;" x="614.982857" xlink:href="#m8586b824c4" y="296.398647"/>
     <use style="fill:#3f3f3f;" x="614.982857" xlink:href="#m8586b824c4" y="312.716482"/>
     <use style="fill:#3f3f3f;" x="614.982857" xlink:href="#m8586b824c4" y="273.533217"/>
     <use style="fill:#3f3f3f;" x="614.982857" xlink:href="#m8586b824c4" y="284.965932"/>
     <use style="fill:#3f3f3f;" x="614.982857" xlink:href="#m8586b824c4" y="215.909264"/>
     <use style="fill:#3f3f3f;" x="614.982857" xlink:href="#m8586b824c4" y="192.694288"/>
    </g>
   </g>
   <g id="line2d_71">
    <path clip-path="url(#p462627d841)" d="M 653.245714 366.640361 
L 653.245714 369.36 
" style="fill:none;stroke:#3f3f3f;stroke-linecap:round;stroke-width:1.4;"/>
   </g>
   <g id="line2d_72">
    <path clip-path="url(#p462627d841)" d="M 653.245714 329.209089 
L 653.245714 273.371232 
" style="fill:none;stroke:#3f3f3f;stroke-linecap:round;stroke-width:1.4;"/>
   </g>
   <g id="line2d_73">
    <path clip-path="url(#p462627d841)" d="M 643.871314 369.36 
L 662.620114 369.36 
" style="fill:none;stroke:#3f3f3f;stroke-linecap:round;stroke-width:1.4;"/>
   </g>
   <g id="line2d_74">
    <path clip-path="url(#p462627d841)" d="M 643.871314 273.371232 
L 662.620114 273.371232 
" style="fill:none;stroke:#3f3f3f;stroke-linecap:round;stroke-width:1.4;"/>
   </g>
   <g id="line2d_75">
    <g clip-path="url(#p462627d841)">
     <use style="fill:#3f3f3f;" x="653.245714" xlink:href="#m8586b824c4" y="273.030211"/>
     <use style="fill:#3f3f3f;" x="653.245714" xlink:href="#m8586b824c4" y="156.230663"/>
     <use style="fill:#3f3f3f;" x="653.245714" xlink:href="#m8586b824c4" y="218.466919"/>
     <use style="fill:#3f3f3f;" x="653.245714" xlink:href="#m8586b824c4" y="257.931525"/>
     <use style="fill:#3f3f3f;" x="653.245714" xlink:href="#m8586b824c4" y="156.230663"/>
    </g>
   </g>
   <g id="line2d_76">
    <path clip-path="url(#p462627d841)" d="M 710.64 361.441928 
L 710.64 367.671948 
" style="fill:none;stroke:#3f3f3f;stroke-linecap:round;stroke-width:1.4;"/>
   </g>
   <g id="line2d_77">
    <path clip-path="url(#p462627d841)" d="M 710.64 332.190888 
L 710.64 295.70808 
" style="fill:none;stroke:#3f3f3f;stroke-linecap:round;stroke-width:1.4;"/>
   </g>
   <g id="line2d_78">
    <path clip-path="url(#p462627d841)" d="M 701.2656 367.671948 
L 720.0144 367.671948 
" style="fill:none;stroke:#3f3f3f;stroke-linecap:round;stroke-width:1.4;"/>
   </g>
   <g id="line2d_79">
    <path clip-path="url(#p462627d841)" d="M 701.2656 295.70808 
L 720.0144 295.70808 
" style="fill:none;stroke:#3f3f3f;stroke-linecap:round;stroke-width:1.4;"/>
   </g>
   <g id="line2d_80">
    <g clip-path="url(#p462627d841)">
     <use style="fill:#3f3f3f;" x="710.64" xlink:href="#m8586b824c4" y="246.609642"/>
     <use style="fill:#3f3f3f;" x="710.64" xlink:href="#m8586b824c4" y="220.172021"/>
     <use style="fill:#3f3f3f;" x="710.64" xlink:href="#m8586b824c4" y="284.11338"/>
    </g>
   </g>
   <g id="line2d_81">
    <path clip-path="url(#p462627d841)" d="M 748.902857 366.435749 
L 748.902857 369.317372 
" style="fill:none;stroke:#3f3f3f;stroke-linecap:round;stroke-width:1.4;"/>
   </g>
   <g id="line2d_82">
    <path clip-path="url(#p462627d841)" d="M 748.902857 338.582893 
L 748.902857 296.901652 
" style="fill:none;stroke:#3f3f3f;stroke-linecap:round;stroke-width:1.4;"/>
   </g>
   <g id="line2d_83">
    <path clip-path="url(#p462627d841)" d="M 739.528457 369.317372 
L 758.277257 369.317372 
" style="fill:none;stroke:#3f3f3f;stroke-linecap:round;stroke-width:1.4;"/>
   </g>
   <g id="line2d_84">
    <path clip-path="url(#p462627d841)" d="M 739.528457 296.901652 
L 758.277257 296.901652 
" style="fill:none;stroke:#3f3f3f;stroke-linecap:round;stroke-width:1.4;"/>
   </g>
   <g id="line2d_85">
    <g clip-path="url(#p462627d841)">
     <use style="fill:#3f3f3f;" x="748.902857" xlink:href="#m8586b824c4" y="284.11338"/>
     <use style="fill:#3f3f3f;" x="748.902857" xlink:href="#m8586b824c4" y="244.00936"/>
     <use style="fill:#3f3f3f;" x="748.902857" xlink:href="#m8586b824c4" y="289.117857"/>
    </g>
   </g>
   <g id="line2d_86">
    <path clip-path="url(#p462627d841)" d="M 117.948343 357.645943 
L 155.445943 357.645943 
" style="fill:none;stroke:#3f3f3f;stroke-linecap:round;stroke-width:1.4;"/>
   </g>
   <g id="line2d_87">
    <path clip-path="url(#p462627d841)" d="M 156.2112 348.425599 
L 193.7088 348.425599 
" style="fill:none;stroke:#3f3f3f;stroke-linecap:round;stroke-width:1.4;"/>
   </g>
   <g id="line2d_88">
    <path clip-path="url(#p462627d841)" d="M 213.605486 362.667471 
L 251.103086 362.667471 
" style="fill:none;stroke:#3f3f3f;stroke-linecap:round;stroke-width:1.4;"/>
   </g>
   <g id="line2d_89">
    <path clip-path="url(#p462627d841)" d="M 251.868343 361.695562 
L 289.365943 361.695562 
" style="fill:none;stroke:#3f3f3f;stroke-linecap:round;stroke-width:1.4;"/>
   </g>
   <g id="line2d_90">
    <path clip-path="url(#p462627d841)" d="M 309.262629 362.684522 
L 346.760229 362.684522 
" style="fill:none;stroke:#3f3f3f;stroke-linecap:round;stroke-width:1.4;"/>
   </g>
   <g id="line2d_91">
    <path clip-path="url(#p462627d841)" d="M 347.525486 366.316391 
L 385.023086 366.316391 
" style="fill:none;stroke:#3f3f3f;stroke-linecap:round;stroke-width:1.4;"/>
   </g>
   <g id="line2d_92">
    <path clip-path="url(#p462627d841)" d="M 404.919771 361.993955 
L 442.417371 361.993955 
" style="fill:none;stroke:#3f3f3f;stroke-linecap:round;stroke-width:1.4;"/>
   </g>
   <g id="line2d_93">
    <path clip-path="url(#p462627d841)" d="M 443.182629 350.612394 
L 480.680229 350.612394 
" style="fill:none;stroke:#3f3f3f;stroke-linecap:round;stroke-width:1.4;"/>
   </g>
   <g id="line2d_94">
    <path clip-path="url(#p462627d841)" d="M 500.576914 360.40821 
L 538.074514 360.40821 
" style="fill:none;stroke:#3f3f3f;stroke-linecap:round;stroke-width:1.4;"/>
   </g>
   <g id="line2d_95">
    <path clip-path="url(#p462627d841)" d="M 538.839771 311.701945 
L 576.337371 311.701945 
" style="fill:none;stroke:#3f3f3f;stroke-linecap:round;stroke-width:1.4;"/>
   </g>
   <g id="line2d_96">
    <path clip-path="url(#p462627d841)" d="M 596.234057 356.716662 
L 633.731657 356.716662 
" style="fill:none;stroke:#3f3f3f;stroke-linecap:round;stroke-width:1.4;"/>
   </g>
   <g id="line2d_97">
    <path clip-path="url(#p462627d841)" d="M 634.496914 354.743005 
L 671.994514 354.743005 
" style="fill:none;stroke:#3f3f3f;stroke-linecap:round;stroke-width:1.4;"/>
   </g>
   <g id="line2d_98">
    <path clip-path="url(#p462627d841)" d="M 691.8912 352.321759 
L 729.3888 352.321759 
" style="fill:none;stroke:#3f3f3f;stroke-linecap:round;stroke-width:1.4;"/>
   </g>
   <g id="line2d_99">
    <path clip-path="url(#p462627d841)" d="M 730.154057 352.326022 
L 767.651657 352.326022 
" style="fill:none;stroke:#3f3f3f;stroke-linecap:round;stroke-width:1.4;"/>
   </g>
   <g id="patch_19">
    <path d="M 108 384.48 
L 108 51.84 
" style="fill:none;stroke:#262626;stroke-linecap:square;stroke-linejoin:miter;stroke-width:1.25;"/>
   </g>
   <g id="patch_20">
    <path d="M 777.6 384.48 
L 777.6 51.84 
" style="fill:none;stroke:#262626;stroke-linecap:square;stroke-linejoin:miter;stroke-width:1.25;"/>
   </g>
   <g id="patch_21">
    <path d="M 108 384.48 
L 777.6 384.48 
" style="fill:none;stroke:#262626;stroke-linecap:square;stroke-linejoin:miter;stroke-width:1.25;"/>
   </g>
   <g id="patch_22">
    <path d="M 108 51.84 
L 777.6 51.84 
" style="fill:none;stroke:#262626;stroke-linecap:square;stroke-linejoin:miter;stroke-width:1.25;"/>
   </g>
   <g id="legend_1">
    <g id="text_18">
     <!-- Entry -->
     <defs>
      <path d="M 9.8125 72.90625 
L 55.90625 72.90625 
L 55.90625 64.59375 
L 19.671875 64.59375 
L 19.671875 43.015625 
L 54.390625 43.015625 
L 54.390625 34.71875 
L 19.671875 34.71875 
L 19.671875 8.296875 
L 56.78125 8.296875 
L 56.78125 0 
L 9.8125 0 
z
" id="DejaVuSans-45"/>
      <path d="M 41.109375 46.296875 
Q 39.59375 47.171875 37.8125 47.578125 
Q 36.03125 48 33.890625 48 
Q 26.265625 48 22.1875 43.046875 
Q 18.109375 38.09375 18.109375 28.8125 
L 18.109375 0 
L 9.078125 0 
L 9.078125 54.6875 
L 18.109375 54.6875 
L 18.109375 46.1875 
Q 20.953125 51.171875 25.484375 53.578125 
Q 30.03125 56 36.53125 56 
Q 37.453125 56 38.578125 55.875 
Q 39.703125 55.765625 41.0625 55.515625 
z
" id="DejaVuSans-72"/>
     </defs>
     <g style="fill:#262626;" transform="translate(737.133013 64.723631)scale(0.0748 -0.0748)">
      <use xlink:href="#DejaVuSans-45"/>
      <use x="63.183594" xlink:href="#DejaVuSans-6e"/>
      <use x="126.5625" xlink:href="#DejaVuSans-74"/>
      <use x="165.771484" xlink:href="#DejaVuSans-72"/>
      <use x="206.884766" xlink:href="#DejaVuSans-79"/>
     </g>
    </g>
    <g id="patch_23">
     <path d="M 723.7675 76.357987 
L 739.7675 76.357987 
L 739.7675 70.757987 
L 723.7675 70.757987 
z
" style="fill:#3274a1;stroke:#3f3f3f;stroke-linejoin:miter;stroke-width:0.7;"/>
    </g>
    <g id="text_19">
     <!-- Debit -->
     <defs>
      <path d="M 56.203125 29.59375 
L 56.203125 25.203125 
L 14.890625 25.203125 
Q 15.484375 15.921875 20.484375 11.0625 
Q 25.484375 6.203125 34.421875 6.203125 
Q 39.59375 6.203125 44.453125 7.46875 
Q 49.3125 8.734375 54.109375 11.28125 
L 54.109375 2.78125 
Q 49.265625 0.734375 44.1875 -0.34375 
Q 39.109375 -1.421875 33.890625 -1.421875 
Q 20.796875 -1.421875 13.15625 6.1875 
Q 5.515625 13.8125 5.515625 26.8125 
Q 5.515625 40.234375 12.765625 48.109375 
Q 20.015625 56 32.328125 56 
Q 43.359375 56 49.78125 48.890625 
Q 56.203125 41.796875 56.203125 29.59375 
z
M 47.21875 32.234375 
Q 47.125 39.59375 43.09375 43.984375 
Q 39.0625 48.390625 32.421875 48.390625 
Q 24.90625 48.390625 20.390625 44.140625 
Q 15.875 39.890625 15.1875 32.171875 
z
" id="DejaVuSans-65"/>
      <path d="M 48.6875 27.296875 
Q 48.6875 37.203125 44.609375 42.84375 
Q 40.53125 48.484375 33.40625 48.484375 
Q 26.265625 48.484375 22.1875 42.84375 
Q 18.109375 37.203125 18.109375 27.296875 
Q 18.109375 17.390625 22.1875 11.75 
Q 26.265625 6.109375 33.40625 6.109375 
Q 40.53125 6.109375 44.609375 11.75 
Q 48.6875 17.390625 48.6875 27.296875 
z
M 18.109375 46.390625 
Q 20.953125 51.265625 25.265625 53.625 
Q 29.59375 56 35.59375 56 
Q 45.5625 56 51.78125 48.09375 
Q 58.015625 40.1875 58.015625 27.296875 
Q 58.015625 14.40625 51.78125 6.484375 
Q 45.5625 -1.421875 35.59375 -1.421875 
Q 29.59375 -1.421875 25.265625 0.953125 
Q 20.953125 3.328125 18.109375 8.203125 
L 18.109375 0 
L 9.078125 0 
L 9.078125 75.984375 
L 18.109375 75.984375 
z
" id="DejaVuSans-62"/>
      <path d="M 9.421875 54.6875 
L 18.40625 54.6875 
L 18.40625 0 
L 9.421875 0 
z
M 9.421875 75.984375 
L 18.40625 75.984375 
L 18.40625 64.59375 
L 9.421875 64.59375 
z
" id="DejaVuSans-69"/>
     </defs>
     <g style="fill:#262626;" transform="translate(746.1675 76.357987)scale(0.08 -0.08)">
      <use xlink:href="#DejaVuSans-44"/>
      <use x="77.001953" xlink:href="#DejaVuSans-65"/>
      <use x="138.525391" xlink:href="#DejaVuSans-62"/>
      <use x="202.001953" xlink:href="#DejaVuSans-69"/>
      <use x="229.785156" xlink:href="#DejaVuSans-74"/>
     </g>
    </g>
    <g id="patch_24">
     <path d="M 723.7675 88.100487 
L 739.7675 88.100487 
L 739.7675 82.500487 
L 723.7675 82.500487 
z
" style="fill:#e1812c;stroke:#3f3f3f;stroke-linejoin:miter;stroke-width:0.7;"/>
    </g>
    <g id="text_20">
     <!-- Credit -->
     <defs>
      <path d="M 64.40625 67.28125 
L 64.40625 56.890625 
Q 59.421875 61.53125 53.78125 63.8125 
Q 48.140625 66.109375 41.796875 66.109375 
Q 29.296875 66.109375 22.65625 58.46875 
Q 16.015625 50.828125 16.015625 36.375 
Q 16.015625 21.96875 22.65625 14.328125 
Q 29.296875 6.6875 41.796875 6.6875 
Q 48.140625 6.6875 53.78125 8.984375 
Q 59.421875 11.28125 64.40625 15.921875 
L 64.40625 5.609375 
Q 59.234375 2.09375 53.4375 0.328125 
Q 47.65625 -1.421875 41.21875 -1.421875 
Q 24.65625 -1.421875 15.125 8.703125 
Q 5.609375 18.84375 5.609375 36.375 
Q 5.609375 53.953125 15.125 64.078125 
Q 24.65625 74.21875 41.21875 74.21875 
Q 47.75 74.21875 53.53125 72.484375 
Q 59.328125 70.75 64.40625 67.28125 
z
" id="DejaVuSans-43"/>
      <path d="M 45.40625 46.390625 
L 45.40625 75.984375 
L 54.390625 75.984375 
L 54.390625 0 
L 45.40625 0 
L 45.40625 8.203125 
Q 42.578125 3.328125 38.25 0.953125 
Q 33.9375 -1.421875 27.875 -1.421875 
Q 17.96875 -1.421875 11.734375 6.484375 
Q 5.515625 14.40625 5.515625 27.296875 
Q 5.515625 40.1875 11.734375 48.09375 
Q 17.96875 56 27.875 56 
Q 33.9375 56 38.25 53.625 
Q 42.578125 51.265625 45.40625 46.390625 
z
M 14.796875 27.296875 
Q 14.796875 17.390625 18.875 11.75 
Q 22.953125 6.109375 30.078125 6.109375 
Q 37.203125 6.109375 41.296875 11.75 
Q 45.40625 17.390625 45.40625 27.296875 
Q 45.40625 37.203125 41.296875 42.84375 
Q 37.203125 48.484375 30.078125 48.484375 
Q 22.953125 48.484375 18.875 42.84375 
Q 14.796875 37.203125 14.796875 27.296875 
z
" id="DejaVuSans-64"/>
     </defs>
     <g style="fill:#262626;" transform="translate(746.1675 88.100487)scale(0.08 -0.08)">
      <use xlink:href="#DejaVuSans-43"/>
      <use x="69.824219" xlink:href="#DejaVuSans-72"/>
      <use x="110.90625" xlink:href="#DejaVuSans-65"/>
      <use x="172.429688" xlink:href="#DejaVuSans-64"/>
      <use x="235.90625" xlink:href="#DejaVuSans-69"/>
      <use x="263.689453" xlink:href="#DejaVuSans-74"/>
     </g>
    </g>
   </g>
  </g>
 </g>
 <defs>
  <clipPath id="p462627d841">
   <rect height="332.64" width="669.6" x="108" y="51.84"/>
  </clipPath>
 </defs>
</svg>
