<?xml version="1.0" encoding="utf-8" standalone="no"?>
<!DOCTYPE svg PUBLIC "-//W3C//DTD SVG 1.1//EN"
  "http://www.w3.org/Graphics/SVG/1.1/DTD/svg11.dtd">
<!-- Created with matplotlib (http://matplotlib.org/) -->
<svg height="432pt" version="1.1" viewBox="0 0 1080 432" width="1080pt" xmlns="http://www.w3.org/2000/svg" xmlns:xlink="http://www.w3.org/1999/xlink">
 <defs>
  <style type="text/css">
*{stroke-linecap:butt;stroke-linejoin:round;}
  </style>
 </defs>
 <g id="figure_1">
  <g id="patch_1">
   <path d="M 0 432 
L 1080 432 
L 1080 0 
L 0 0 
z
" style="fill:#ffffff;"/>
  </g>
  <g id="axes_1">
   <g id="patch_2">
    <path d="M 135 384.48 
L 972 384.48 
L 972 51.84 
L 135 51.84 
z
" style="fill:#ffffff;"/>
   </g>
   <g id="matplotlib.axis_1">
    <g id="xtick_1">
     <g id="line2d_1"/>
     <g id="text_1">
      <!-- 1 -->
      <defs>
       <path d="M 12.40625 8.296875 
L 28.515625 8.296875 
L 28.515625 63.921875 
L 10.984375 60.40625 
L 10.984375 69.390625 
L 28.421875 72.90625 
L 38.28125 72.90625 
L 38.28125 8.296875 
L 54.390625 8.296875 
L 54.390625 0 
L 12.40625 0 
z
" id="DejaVuSans-31"/>
      </defs>
      <g style="fill:#262626;" transform="translate(167.33 396.15875)scale(0.08 -0.08)">
       <use xlink:href="#DejaVuSans-31"/>
      </g>
     </g>
    </g>
    <g id="xtick_2">
     <g id="line2d_2"/>
     <g id="text_2">
      <!-- 2 -->
      <defs>
       <path d="M 19.1875 8.296875 
L 53.609375 8.296875 
L 53.609375 0 
L 7.328125 0 
L 7.328125 8.296875 
Q 12.9375 14.109375 22.625 23.890625 
Q 32.328125 33.6875 34.8125 36.53125 
Q 39.546875 41.84375 41.421875 45.53125 
Q 43.3125 49.21875 43.3125 52.78125 
Q 43.3125 58.59375 39.234375 62.25 
Q 35.15625 65.921875 28.609375 65.921875 
Q 23.96875 65.921875 18.8125 64.3125 
Q 13.671875 62.703125 7.8125 59.421875 
L 7.8125 69.390625 
Q 13.765625 71.78125 18.9375 73 
Q 24.125 74.21875 28.421875 74.21875 
Q 39.75 74.21875 46.484375 68.546875 
Q 53.21875 62.890625 53.21875 53.421875 
Q 53.21875 48.921875 51.53125 44.890625 
Q 49.859375 40.875 45.40625 35.40625 
Q 44.1875 33.984375 37.640625 27.21875 
Q 31.109375 20.453125 19.1875 8.296875 
z
" id="DejaVuSans-32"/>
      </defs>
      <g style="fill:#262626;" transform="translate(237.08 396.15875)scale(0.08 -0.08)">
       <use xlink:href="#DejaVuSans-32"/>
      </g>
     </g>
    </g>
    <g id="xtick_3">
     <g id="line2d_3"/>
     <g id="text_3">
      <!-- 3 -->
      <defs>
       <path d="M 40.578125 39.3125 
Q 47.65625 37.796875 51.625 33 
Q 55.609375 28.21875 55.609375 21.1875 
Q 55.609375 10.40625 48.1875 4.484375 
Q 40.765625 -1.421875 27.09375 -1.421875 
Q 22.515625 -1.421875 17.65625 -0.515625 
Q 12.796875 0.390625 7.625 2.203125 
L 7.625 11.71875 
Q 11.71875 9.328125 16.59375 8.109375 
Q 21.484375 6.890625 26.8125 6.890625 
Q 36.078125 6.890625 40.9375 10.546875 
Q 45.796875 14.203125 45.796875 21.1875 
Q 45.796875 27.640625 41.28125 31.265625 
Q 36.765625 34.90625 28.71875 34.90625 
L 20.21875 34.90625 
L 20.21875 43.015625 
L 29.109375 43.015625 
Q 36.375 43.015625 40.234375 45.921875 
Q 44.09375 48.828125 44.09375 54.296875 
Q 44.09375 59.90625 40.109375 62.90625 
Q 36.140625 65.921875 28.71875 65.921875 
Q 24.65625 65.921875 20.015625 65.03125 
Q 15.375 64.15625 9.8125 62.3125 
L 9.8125 71.09375 
Q 15.4375 72.65625 20.34375 73.4375 
Q 25.25 74.21875 29.59375 74.21875 
Q 40.828125 74.21875 47.359375 69.109375 
Q 53.90625 64.015625 53.90625 55.328125 
Q 53.90625 49.265625 50.4375 45.09375 
Q 46.96875 40.921875 40.578125 39.3125 
z
" id="DejaVuSans-33"/>
      </defs>
      <g style="fill:#262626;" transform="translate(306.83 396.15875)scale(0.08 -0.08)">
       <use xlink:href="#DejaVuSans-33"/>
      </g>
     </g>
    </g>
    <g id="xtick_4">
     <g id="line2d_4"/>
     <g id="text_4">
      <!-- 4 -->
      <defs>
       <path d="M 37.796875 64.3125 
L 12.890625 25.390625 
L 37.796875 25.390625 
z
M 35.203125 72.90625 
L 47.609375 72.90625 
L 47.609375 25.390625 
L 58.015625 25.390625 
L 58.015625 17.1875 
L 47.609375 17.1875 
L 47.609375 0 
L 37.796875 0 
L 37.796875 17.1875 
L 4.890625 17.1875 
L 4.890625 26.703125 
z
" id="DejaVuSans-34"/>
      </defs>
      <g style="fill:#262626;" transform="translate(376.58 396.15875)scale(0.08 -0.08)">
       <use xlink:href="#DejaVuSans-34"/>
      </g>
     </g>
    </g>
    <g id="xtick_5">
     <g id="line2d_5"/>
     <g id="text_5">
      <!-- 5 -->
      <defs>
       <path d="M 10.796875 72.90625 
L 49.515625 72.90625 
L 49.515625 64.59375 
L 19.828125 64.59375 
L 19.828125 46.734375 
Q 21.96875 47.46875 24.109375 47.828125 
Q 26.265625 48.1875 28.421875 48.1875 
Q 40.625 48.1875 47.75 41.5 
Q 54.890625 34.8125 54.890625 23.390625 
Q 54.890625 11.625 47.5625 5.09375 
Q 40.234375 -1.421875 26.90625 -1.421875 
Q 22.3125 -1.421875 17.546875 -0.640625 
Q 12.796875 0.140625 7.71875 1.703125 
L 7.71875 11.625 
Q 12.109375 9.234375 16.796875 8.0625 
Q 21.484375 6.890625 26.703125 6.890625 
Q 35.15625 6.890625 40.078125 11.328125 
Q 45.015625 15.765625 45.015625 23.390625 
Q 45.015625 31 40.078125 35.4375 
Q 35.15625 39.890625 26.703125 39.890625 
Q 22.75 39.890625 18.8125 39.015625 
Q 14.890625 38.140625 10.796875 36.28125 
z
" id="DejaVuSans-35"/>
      </defs>
      <g style="fill:#262626;" transform="translate(446.33 396.15875)scale(0.08 -0.08)">
       <use xlink:href="#DejaVuSans-35"/>
      </g>
     </g>
    </g>
    <g id="xtick_6">
     <g id="line2d_6"/>
     <g id="text_6">
      <!-- 6 -->
      <defs>
       <path d="M 33.015625 40.375 
Q 26.375 40.375 22.484375 35.828125 
Q 18.609375 31.296875 18.609375 23.390625 
Q 18.609375 15.53125 22.484375 10.953125 
Q 26.375 6.390625 33.015625 6.390625 
Q 39.65625 6.390625 43.53125 10.953125 
Q 47.40625 15.53125 47.40625 23.390625 
Q 47.40625 31.296875 43.53125 35.828125 
Q 39.65625 40.375 33.015625 40.375 
z
M 52.59375 71.296875 
L 52.59375 62.3125 
Q 48.875 64.0625 45.09375 64.984375 
Q 41.3125 65.921875 37.59375 65.921875 
Q 27.828125 65.921875 22.671875 59.328125 
Q 17.53125 52.734375 16.796875 39.40625 
Q 19.671875 43.65625 24.015625 45.921875 
Q 28.375 48.1875 33.59375 48.1875 
Q 44.578125 48.1875 50.953125 41.515625 
Q 57.328125 34.859375 57.328125 23.390625 
Q 57.328125 12.15625 50.6875 5.359375 
Q 44.046875 -1.421875 33.015625 -1.421875 
Q 20.359375 -1.421875 13.671875 8.265625 
Q 6.984375 17.96875 6.984375 36.375 
Q 6.984375 53.65625 15.1875 63.9375 
Q 23.390625 74.21875 37.203125 74.21875 
Q 40.921875 74.21875 44.703125 73.484375 
Q 48.484375 72.75 52.59375 71.296875 
z
" id="DejaVuSans-36"/>
      </defs>
      <g style="fill:#262626;" transform="translate(516.08 396.15875)scale(0.08 -0.08)">
       <use xlink:href="#DejaVuSans-36"/>
      </g>
     </g>
    </g>
    <g id="xtick_7">
     <g id="line2d_7"/>
     <g id="text_7">
      <!-- 7 -->
      <defs>
       <path d="M 8.203125 72.90625 
L 55.078125 72.90625 
L 55.078125 68.703125 
L 28.609375 0 
L 18.3125 0 
L 43.21875 64.59375 
L 8.203125 64.59375 
z
" id="DejaVuSans-37"/>
      </defs>
      <g style="fill:#262626;" transform="translate(585.83 396.15875)scale(0.08 -0.08)">
       <use xlink:href="#DejaVuSans-37"/>
      </g>
     </g>
    </g>
    <g id="xtick_8">
     <g id="line2d_8"/>
     <g id="text_8">
      <!-- 8 -->
      <defs>
       <path d="M 31.78125 34.625 
Q 24.75 34.625 20.71875 30.859375 
Q 16.703125 27.09375 16.703125 20.515625 
Q 16.703125 13.921875 20.71875 10.15625 
Q 24.75 6.390625 31.78125 6.390625 
Q 38.8125 6.390625 42.859375 10.171875 
Q 46.921875 13.96875 46.921875 20.515625 
Q 46.921875 27.09375 42.890625 30.859375 
Q 38.875 34.625 31.78125 34.625 
z
M 21.921875 38.8125 
Q 15.578125 40.375 12.03125 44.71875 
Q 8.5 49.078125 8.5 55.328125 
Q 8.5 64.0625 14.71875 69.140625 
Q 20.953125 74.21875 31.78125 74.21875 
Q 42.671875 74.21875 48.875 69.140625 
Q 55.078125 64.0625 55.078125 55.328125 
Q 55.078125 49.078125 51.53125 44.71875 
Q 48 40.375 41.703125 38.8125 
Q 48.828125 37.15625 52.796875 32.3125 
Q 56.78125 27.484375 56.78125 20.515625 
Q 56.78125 9.90625 50.3125 4.234375 
Q 43.84375 -1.421875 31.78125 -1.421875 
Q 19.734375 -1.421875 13.25 4.234375 
Q 6.78125 9.90625 6.78125 20.515625 
Q 6.78125 27.484375 10.78125 32.3125 
Q 14.796875 37.15625 21.921875 38.8125 
z
M 18.3125 54.390625 
Q 18.3125 48.734375 21.84375 45.5625 
Q 25.390625 42.390625 31.78125 42.390625 
Q 38.140625 42.390625 41.71875 45.5625 
Q 45.3125 48.734375 45.3125 54.390625 
Q 45.3125 60.0625 41.71875 63.234375 
Q 38.140625 66.40625 31.78125 66.40625 
Q 25.390625 66.40625 21.84375 63.234375 
Q 18.3125 60.0625 18.3125 54.390625 
z
" id="DejaVuSans-38"/>
      </defs>
      <g style="fill:#262626;" transform="translate(655.58 396.15875)scale(0.08 -0.08)">
       <use xlink:href="#DejaVuSans-38"/>
      </g>
     </g>
    </g>
    <g id="xtick_9">
     <g id="line2d_9"/>
     <g id="text_9">
      <!-- 9 -->
      <defs>
       <path d="M 10.984375 1.515625 
L 10.984375 10.5 
Q 14.703125 8.734375 18.5 7.8125 
Q 22.3125 6.890625 25.984375 6.890625 
Q 35.75 6.890625 40.890625 13.453125 
Q 46.046875 20.015625 46.78125 33.40625 
Q 43.953125 29.203125 39.59375 26.953125 
Q 35.25 24.703125 29.984375 24.703125 
Q 19.046875 24.703125 12.671875 31.3125 
Q 6.296875 37.9375 6.296875 49.421875 
Q 6.296875 60.640625 12.9375 67.421875 
Q 19.578125 74.21875 30.609375 74.21875 
Q 43.265625 74.21875 49.921875 64.515625 
Q 56.59375 54.828125 56.59375 36.375 
Q 56.59375 19.140625 48.40625 8.859375 
Q 40.234375 -1.421875 26.421875 -1.421875 
Q 22.703125 -1.421875 18.890625 -0.6875 
Q 15.09375 0.046875 10.984375 1.515625 
z
M 30.609375 32.421875 
Q 37.25 32.421875 41.125 36.953125 
Q 45.015625 41.5 45.015625 49.421875 
Q 45.015625 57.28125 41.125 61.84375 
Q 37.25 66.40625 30.609375 66.40625 
Q 23.96875 66.40625 20.09375 61.84375 
Q 16.21875 57.28125 16.21875 49.421875 
Q 16.21875 41.5 20.09375 36.953125 
Q 23.96875 32.421875 30.609375 32.421875 
z
" id="DejaVuSans-39"/>
      </defs>
      <g style="fill:#262626;" transform="translate(725.33 396.15875)scale(0.08 -0.08)">
       <use xlink:href="#DejaVuSans-39"/>
      </g>
     </g>
    </g>
    <g id="xtick_10">
     <g id="line2d_10"/>
     <g id="text_10">
      <!-- 10 -->
      <defs>
       <path d="M 31.78125 66.40625 
Q 24.171875 66.40625 20.328125 58.90625 
Q 16.5 51.421875 16.5 36.375 
Q 16.5 21.390625 20.328125 13.890625 
Q 24.171875 6.390625 31.78125 6.390625 
Q 39.453125 6.390625 43.28125 13.890625 
Q 47.125 21.390625 47.125 36.375 
Q 47.125 51.421875 43.28125 58.90625 
Q 39.453125 66.40625 31.78125 66.40625 
z
M 31.78125 74.21875 
Q 44.046875 74.21875 50.515625 64.515625 
Q 56.984375 54.828125 56.984375 36.375 
Q 56.984375 17.96875 50.515625 8.265625 
Q 44.046875 -1.421875 31.78125 -1.421875 
Q 19.53125 -1.421875 13.0625 8.265625 
Q 6.59375 17.96875 6.59375 36.375 
Q 6.59375 54.828125 13.0625 64.515625 
Q 19.53125 74.21875 31.78125 74.21875 
z
" id="DejaVuSans-30"/>
      </defs>
      <g style="fill:#262626;" transform="translate(792.535 396.15875)scale(0.08 -0.08)">
       <use xlink:href="#DejaVuSans-31"/>
       <use x="63.623047" xlink:href="#DejaVuSans-30"/>
      </g>
     </g>
    </g>
    <g id="xtick_11">
     <g id="line2d_11"/>
     <g id="text_11">
      <!-- 11 -->
      <g style="fill:#262626;" transform="translate(862.285 396.15875)scale(0.08 -0.08)">
       <use xlink:href="#DejaVuSans-31"/>
       <use x="63.623047" xlink:href="#DejaVuSans-31"/>
      </g>
     </g>
    </g>
    <g id="xtick_12">
     <g id="line2d_12"/>
     <g id="text_12">
      <!-- 12 -->
      <g style="fill:#262626;" transform="translate(932.035 396.15875)scale(0.08 -0.08)">
       <use xlink:href="#DejaVuSans-31"/>
       <use x="63.623047" xlink:href="#DejaVuSans-32"/>
      </g>
     </g>
    </g>
    <g id="text_13">
     <!-- Month -->
     <defs>
      <path d="M 9.8125 72.90625 
L 24.515625 72.90625 
L 43.109375 23.296875 
L 61.8125 72.90625 
L 76.515625 72.90625 
L 76.515625 0 
L 66.890625 0 
L 66.890625 64.015625 
L 48.09375 14.015625 
L 38.1875 14.015625 
L 19.390625 64.015625 
L 19.390625 0 
L 9.8125 0 
z
" id="DejaVuSans-4d"/>
      <path d="M 30.609375 48.390625 
Q 23.390625 48.390625 19.1875 42.75 
Q 14.984375 37.109375 14.984375 27.296875 
Q 14.984375 17.484375 19.15625 11.84375 
Q 23.34375 6.203125 30.609375 6.203125 
Q 37.796875 6.203125 41.984375 11.859375 
Q 46.1875 17.53125 46.1875 27.296875 
Q 46.1875 37.015625 41.984375 42.703125 
Q 37.796875 48.390625 30.609375 48.390625 
z
M 30.609375 56 
Q 42.328125 56 49.015625 48.375 
Q 55.71875 40.765625 55.71875 27.296875 
Q 55.71875 13.875 49.015625 6.21875 
Q 42.328125 -1.421875 30.609375 -1.421875 
Q 18.84375 -1.421875 12.171875 6.21875 
Q 5.515625 13.875 5.515625 27.296875 
Q 5.515625 40.765625 12.171875 48.375 
Q 18.84375 56 30.609375 56 
z
" id="DejaVuSans-6f"/>
      <path d="M 54.890625 33.015625 
L 54.890625 0 
L 45.90625 0 
L 45.90625 32.71875 
Q 45.90625 40.484375 42.875 44.328125 
Q 39.84375 48.1875 33.796875 48.1875 
Q 26.515625 48.1875 22.3125 43.546875 
Q 18.109375 38.921875 18.109375 30.90625 
L 18.109375 0 
L 9.078125 0 
L 9.078125 54.6875 
L 18.109375 54.6875 
L 18.109375 46.1875 
Q 21.34375 51.125 25.703125 53.5625 
Q 30.078125 56 35.796875 56 
Q 45.21875 56 50.046875 50.171875 
Q 54.890625 44.34375 54.890625 33.015625 
z
" id="DejaVuSans-6e"/>
      <path d="M 18.3125 70.21875 
L 18.3125 54.6875 
L 36.8125 54.6875 
L 36.8125 47.703125 
L 18.3125 47.703125 
L 18.3125 18.015625 
Q 18.3125 11.328125 20.140625 9.421875 
Q 21.96875 7.515625 27.59375 7.515625 
L 36.8125 7.515625 
L 36.8125 0 
L 27.59375 0 
Q 17.1875 0 13.234375 3.875 
Q 9.28125 7.765625 9.28125 18.015625 
L 9.28125 47.703125 
L 2.6875 47.703125 
L 2.6875 54.6875 
L 9.28125 54.6875 
L 9.28125 70.21875 
z
" id="DejaVuSans-74"/>
      <path d="M 54.890625 33.015625 
L 54.890625 0 
L 45.90625 0 
L 45.90625 32.71875 
Q 45.90625 40.484375 42.875 44.328125 
Q 39.84375 48.1875 33.796875 48.1875 
Q 26.515625 48.1875 22.3125 43.546875 
Q 18.109375 38.921875 18.109375 30.90625 
L 18.109375 0 
L 9.078125 0 
L 9.078125 75.984375 
L 18.109375 75.984375 
L 18.109375 46.1875 
Q 21.34375 51.125 25.703125 53.5625 
Q 30.078125 56 35.796875 56 
Q 45.21875 56 50.046875 50.171875 
Q 54.890625 44.34375 54.890625 33.015625 
z
" id="DejaVuSans-68"/>
     </defs>
     <g style="fill:#262626;" transform="translate(539.709438 408.509125)scale(0.088 -0.088)">
      <use xlink:href="#DejaVuSans-4d"/>
      <use x="86.279297" xlink:href="#DejaVuSans-6f"/>
      <use x="147.460938" xlink:href="#DejaVuSans-6e"/>
      <use x="210.839844" xlink:href="#DejaVuSans-74"/>
      <use x="250.048828" xlink:href="#DejaVuSans-68"/>
     </g>
    </g>
   </g>
   <g id="matplotlib.axis_2">
    <g id="ytick_1">
     <g id="line2d_13"/>
     <g id="text_14">
      <!-- 0 -->
      <g style="fill:#262626;" transform="translate(124.31 372.407901)scale(0.08 -0.08)">
       <use xlink:href="#DejaVuSans-30"/>
      </g>
     </g>
    </g>
    <g id="ytick_2">
     <g id="line2d_14"/>
     <g id="text_15">
      <!-- 50 -->
      <g style="fill:#262626;" transform="translate(119.22 329.780328)scale(0.08 -0.08)">
       <use xlink:href="#DejaVuSans-35"/>
       <use x="63.623047" xlink:href="#DejaVuSans-30"/>
      </g>
     </g>
    </g>
    <g id="ytick_3">
     <g id="line2d_15"/>
     <g id="text_16">
      <!-- 100 -->
      <g style="fill:#262626;" transform="translate(114.13 287.152755)scale(0.08 -0.08)">
       <use xlink:href="#DejaVuSans-31"/>
       <use x="63.623047" xlink:href="#DejaVuSans-30"/>
       <use x="127.246094" xlink:href="#DejaVuSans-30"/>
      </g>
     </g>
    </g>
    <g id="ytick_4">
     <g id="line2d_16"/>
     <g id="text_17">
      <!-- 150 -->
      <g style="fill:#262626;" transform="translate(114.13 244.525183)scale(0.08 -0.08)">
       <use xlink:href="#DejaVuSans-31"/>
       <use x="63.623047" xlink:href="#DejaVuSans-35"/>
       <use x="127.246094" xlink:href="#DejaVuSans-30"/>
      </g>
     </g>
    </g>
    <g id="ytick_5">
     <g id="line2d_17"/>
     <g id="text_18">
      <!-- 200 -->
      <g style="fill:#262626;" transform="translate(114.13 201.89761)scale(0.08 -0.08)">
       <use xlink:href="#DejaVuSans-32"/>
       <use x="63.623047" xlink:href="#DejaVuSans-30"/>
       <use x="127.246094" xlink:href="#DejaVuSans-30"/>
      </g>
     </g>
    </g>
    <g id="ytick_6">
     <g id="line2d_18"/>
     <g id="text_19">
      <!-- 250 -->
      <g style="fill:#262626;" transform="translate(114.13 159.270038)scale(0.08 -0.08)">
       <use xlink:href="#DejaVuSans-32"/>
       <use x="63.623047" xlink:href="#DejaVuSans-35"/>
       <use x="127.246094" xlink:href="#DejaVuSans-30"/>
      </g>
     </g>
    </g>
    <g id="ytick_7">
     <g id="line2d_19"/>
     <g id="text_20">
      <!-- 300 -->
      <g style="fill:#262626;" transform="translate(114.13 116.642465)scale(0.08 -0.08)">
       <use xlink:href="#DejaVuSans-33"/>
       <use x="63.623047" xlink:href="#DejaVuSans-30"/>
       <use x="127.246094" xlink:href="#DejaVuSans-30"/>
      </g>
     </g>
    </g>
    <g id="ytick_8">
     <g id="line2d_20"/>
     <g id="text_21">
      <!-- 350 -->
      <g style="fill:#262626;" transform="translate(114.13 74.014892)scale(0.08 -0.08)">
       <use xlink:href="#DejaVuSans-33"/>
       <use x="63.623047" xlink:href="#DejaVuSans-35"/>
       <use x="127.246094" xlink:href="#DejaVuSans-30"/>
      </g>
     </g>
    </g>
    <g id="text_22">
     <!-- Amount -->
     <defs>
      <path d="M 34.1875 63.1875 
L 20.796875 26.90625 
L 47.609375 26.90625 
z
M 28.609375 72.90625 
L 39.796875 72.90625 
L 67.578125 0 
L 57.328125 0 
L 50.6875 18.703125 
L 17.828125 18.703125 
L 11.1875 0 
L 0.78125 0 
z
" id="DejaVuSans-41"/>
      <path d="M 52 44.1875 
Q 55.375 50.25 60.0625 53.125 
Q 64.75 56 71.09375 56 
Q 79.640625 56 84.28125 50.015625 
Q 88.921875 44.046875 88.921875 33.015625 
L 88.921875 0 
L 79.890625 0 
L 79.890625 32.71875 
Q 79.890625 40.578125 77.09375 44.375 
Q 74.3125 48.1875 68.609375 48.1875 
Q 61.625 48.1875 57.5625 43.546875 
Q 53.515625 38.921875 53.515625 30.90625 
L 53.515625 0 
L 44.484375 0 
L 44.484375 32.71875 
Q 44.484375 40.625 41.703125 44.40625 
Q 38.921875 48.1875 33.109375 48.1875 
Q 26.21875 48.1875 22.15625 43.53125 
Q 18.109375 38.875 18.109375 30.90625 
L 18.109375 0 
L 9.078125 0 
L 9.078125 54.6875 
L 18.109375 54.6875 
L 18.109375 46.1875 
Q 21.1875 51.21875 25.484375 53.609375 
Q 29.78125 56 35.6875 56 
Q 41.65625 56 45.828125 52.96875 
Q 50 49.953125 52 44.1875 
z
" id="DejaVuSans-6d"/>
      <path d="M 8.5 21.578125 
L 8.5 54.6875 
L 17.484375 54.6875 
L 17.484375 21.921875 
Q 17.484375 14.15625 20.5 10.265625 
Q 23.53125 6.390625 29.59375 6.390625 
Q 36.859375 6.390625 41.078125 11.03125 
Q 45.3125 15.671875 45.3125 23.6875 
L 45.3125 54.6875 
L 54.296875 54.6875 
L 54.296875 0 
L 45.3125 0 
L 45.3125 8.40625 
Q 42.046875 3.421875 37.71875 1 
Q 33.40625 -1.421875 27.6875 -1.421875 
Q 18.265625 -1.421875 13.375 4.4375 
Q 8.5 10.296875 8.5 21.578125 
z
M 31.109375 56 
z
" id="DejaVuSans-75"/>
     </defs>
     <g style="fill:#262626;" transform="translate(108.299875 235.449937)rotate(-90)scale(0.088 -0.088)">
      <use xlink:href="#DejaVuSans-41"/>
      <use x="68.408203" xlink:href="#DejaVuSans-6d"/>
      <use x="165.820312" xlink:href="#DejaVuSans-6f"/>
      <use x="227.001953" xlink:href="#DejaVuSans-75"/>
      <use x="290.380859" xlink:href="#DejaVuSans-6e"/>
      <use x="353.759766" xlink:href="#DejaVuSans-74"/>
     </g>
    </g>
   </g>
   <g id="patch_3">
    <path clip-path="url(#p428e0f8448)" d="M 142.254 366.810871 
L 169.596 366.810871 
L 169.596 333.69351 
L 142.254 333.69351 
L 142.254 366.810871 
z
" style="fill:#3274a1;stroke:#3f3f3f;stroke-linejoin:miter;stroke-width:1.4;"/>
   </g>
   <g id="patch_4">
    <path clip-path="url(#p428e0f8448)" d="M 170.154 366.68512 
L 197.496 366.68512 
L 197.496 273.63126 
L 170.154 273.63126 
L 170.154 366.68512 
z
" style="fill:#e1812c;stroke:#3f3f3f;stroke-linejoin:miter;stroke-width:1.4;"/>
   </g>
   <g id="patch_5">
    <path clip-path="url(#p428e0f8448)" d="M 212.004 366.810871 
L 239.346 366.810871 
L 239.346 352.317496 
L 212.004 352.317496 
L 212.004 366.810871 
z
" style="fill:#3274a1;stroke:#3f3f3f;stroke-linejoin:miter;stroke-width:1.4;"/>
   </g>
   <g id="patch_6">
    <path clip-path="url(#p428e0f8448)" d="M 239.904 365.003462 
L 267.246 365.003462 
L 267.246 338.953752 
L 239.904 338.953752 
L 239.904 365.003462 
z
" style="fill:#e1812c;stroke:#3f3f3f;stroke-linejoin:miter;stroke-width:1.4;"/>
   </g>
   <g id="patch_7">
    <path clip-path="url(#p428e0f8448)" d="M 281.754 366.167195 
L 309.096 366.167195 
L 309.096 341.195963 
L 281.754 341.195963 
L 281.754 366.167195 
z
" style="fill:#3274a1;stroke:#3f3f3f;stroke-linejoin:miter;stroke-width:1.4;"/>
   </g>
   <g id="patch_8">
    <path clip-path="url(#p428e0f8448)" d="M 309.654 369.178833 
L 336.996 369.178833 
L 336.996 337.397846 
L 309.654 337.397846 
L 309.654 369.178833 
z
" style="fill:#e1812c;stroke:#3f3f3f;stroke-linejoin:miter;stroke-width:1.4;"/>
   </g>
   <g id="patch_9">
    <path clip-path="url(#p428e0f8448)" d="M 351.504 365.105768 
L 378.846 365.105768 
L 378.846 339.993865 
L 351.504 339.993865 
L 351.504 365.105768 
z
" style="fill:#3274a1;stroke:#3f3f3f;stroke-linejoin:miter;stroke-width:1.4;"/>
   </g>
   <g id="patch_10">
    <path clip-path="url(#p428e0f8448)" d="M 379.404 362.77404 
L 406.746 362.77404 
L 406.746 241.051006 
L 379.404 241.051006 
L 379.404 362.77404 
z
" style="fill:#e1812c;stroke:#3f3f3f;stroke-linejoin:miter;stroke-width:1.4;"/>
   </g>
   <g id="patch_11">
    <path clip-path="url(#p428e0f8448)" d="M 421.254 364.014502 
L 448.596 364.014502 
L 448.596 348.07179 
L 421.254 348.07179 
L 421.254 364.014502 
z
" style="fill:#3274a1;stroke:#3f3f3f;stroke-linejoin:miter;stroke-width:1.4;"/>
   </g>
   <g id="patch_12">
    <path clip-path="url(#p428e0f8448)" d="M 449.154 360.930398 
L 476.496 360.930398 
L 476.496 306.769935 
L 449.154 306.769935 
L 449.154 360.930398 
z
" style="fill:#e1812c;stroke:#3f3f3f;stroke-linejoin:miter;stroke-width:1.4;"/>
   </g>
   <g id="patch_13">
    <path clip-path="url(#p428e0f8448)" d="M 491.004 361.036966 
L 518.346 361.036966 
L 518.346 331.144381 
L 491.004 331.144381 
L 491.004 361.036966 
z
" style="fill:#3274a1;stroke:#3f3f3f;stroke-linejoin:miter;stroke-width:1.4;"/>
   </g>
   <g id="patch_14">
    <path clip-path="url(#p428e0f8448)" d="M 518.904 363.80989 
L 546.246 363.80989 
L 546.246 300.853228 
L 518.904 300.853228 
L 518.904 363.80989 
z
" style="fill:#e1812c;stroke:#3f3f3f;stroke-linejoin:miter;stroke-width:1.4;"/>
   </g>
   <g id="patch_15">
    <path clip-path="url(#p428e0f8448)" d="M 560.754 362.916842 
L 588.096 362.916842 
L 588.096 348.093104 
L 560.754 348.093104 
L 560.754 362.916842 
z
" style="fill:#3274a1;stroke:#3f3f3f;stroke-linejoin:miter;stroke-width:1.4;"/>
   </g>
   <g id="patch_16">
    <path clip-path="url(#p428e0f8448)" d="M 588.654 350.891604 
L 615.996 350.891604 
L 615.996 270.741111 
L 588.654 270.741111 
L 588.654 350.891604 
z
" style="fill:#e1812c;stroke:#3f3f3f;stroke-linejoin:miter;stroke-width:1.4;"/>
   </g>
   <g id="patch_17">
    <path clip-path="url(#p428e0f8448)" d="M 630.504 362.982915 
L 657.846 362.982915 
L 657.846 328.68477 
L 630.504 328.68477 
L 630.504 362.982915 
z
" style="fill:#3274a1;stroke:#3f3f3f;stroke-linejoin:miter;stroke-width:1.4;"/>
   </g>
   <g id="patch_18">
    <path clip-path="url(#p428e0f8448)" d="M 658.404 360.889901 
L 685.746 360.889901 
L 685.746 337.824122 
L 658.404 337.824122 
L 658.404 360.889901 
z
" style="fill:#e1812c;stroke:#3f3f3f;stroke-linejoin:miter;stroke-width:1.4;"/>
   </g>
   <g id="patch_19">
    <path clip-path="url(#p428e0f8448)" d="M 700.254 361.527184 
L 727.596 361.527184 
L 727.596 340.594914 
L 700.254 340.594914 
L 700.254 361.527184 
z
" style="fill:#3274a1;stroke:#3f3f3f;stroke-linejoin:miter;stroke-width:1.4;"/>
   </g>
   <g id="patch_20">
    <path clip-path="url(#p428e0f8448)" d="M 728.154 367.718838 
L 755.496 367.718838 
L 755.496 323.441579 
L 728.154 323.441579 
L 728.154 367.718838 
z
" style="fill:#e1812c;stroke:#3f3f3f;stroke-linejoin:miter;stroke-width:1.4;"/>
   </g>
   <g id="patch_21">
    <path clip-path="url(#p428e0f8448)" d="M 770.004 366.810871 
L 797.346 366.810871 
L 797.346 356.980953 
L 770.004 356.980953 
L 770.004 366.810871 
z
" style="fill:#3274a1;stroke:#3f3f3f;stroke-linejoin:miter;stroke-width:1.4;"/>
   </g>
   <g id="patch_22">
    <path clip-path="url(#p428e0f8448)" d="M 797.904 366.810871 
L 825.246 366.810871 
L 825.246 335.266467 
L 797.904 335.266467 
L 797.904 366.810871 
z
" style="fill:#e1812c;stroke:#3f3f3f;stroke-linejoin:miter;stroke-width:1.4;"/>
   </g>
   <g id="patch_23">
    <path clip-path="url(#p428e0f8448)" d="M 839.754 365.966845 
L 867.096 365.966845 
L 867.096 356.980953 
L 839.754 356.980953 
L 839.754 365.966845 
z
" style="fill:#3274a1;stroke:#3f3f3f;stroke-linejoin:miter;stroke-width:1.4;"/>
   </g>
   <g id="patch_24">
    <path clip-path="url(#p428e0f8448)" d="M 867.654 366.810871 
L 894.996 366.810871 
L 894.996 251.599199 
L 867.654 251.599199 
L 867.654 366.810871 
z
" style="fill:#e1812c;stroke:#3f3f3f;stroke-linejoin:miter;stroke-width:1.4;"/>
   </g>
   <g id="patch_25">
    <path clip-path="url(#p428e0f8448)" d="M 909.504 366.810871 
L 936.846 366.810871 
L 936.846 358.178788 
L 909.504 358.178788 
L 909.504 366.810871 
z
" style="fill:#3274a1;stroke:#3f3f3f;stroke-linejoin:miter;stroke-width:1.4;"/>
   </g>
   <g id="patch_26">
    <path clip-path="url(#p428e0f8448)" d="M 937.404 365.934875 
L 964.746 365.934875 
L 964.746 280.276899 
L 937.404 280.276899 
L 937.404 365.934875 
z
" style="fill:#e1812c;stroke:#3f3f3f;stroke-linejoin:miter;stroke-width:1.4;"/>
   </g>
   <g id="patch_27">
    <path clip-path="url(#p428e0f8448)" d="M 169.875 369.368526 
L 169.875 369.368526 
L 169.875 369.368526 
L 169.875 369.368526 
z
" style="fill:#3274a1;stroke:#3f3f3f;stroke-linejoin:miter;stroke-width:0.7;"/>
   </g>
   <g id="patch_28">
    <path clip-path="url(#p428e0f8448)" d="M 169.875 369.368526 
L 169.875 369.368526 
L 169.875 369.368526 
L 169.875 369.368526 
z
" style="fill:#e1812c;stroke:#3f3f3f;stroke-linejoin:miter;stroke-width:0.7;"/>
   </g>
   <g id="line2d_21">
    <path clip-path="url(#p428e0f8448)" d="M 155.925 366.810871 
L 155.925 368.515974 
" style="fill:none;stroke:#3f3f3f;stroke-linecap:round;stroke-width:1.4;"/>
   </g>
   <g id="line2d_22">
    <path clip-path="url(#p428e0f8448)" d="M 155.925 333.69351 
L 155.925 284.11338 
" style="fill:none;stroke:#3f3f3f;stroke-linecap:round;stroke-width:1.4;"/>
   </g>
   <g id="line2d_23">
    <path clip-path="url(#p428e0f8448)" d="M 149.0895 368.515974 
L 162.7605 368.515974 
" style="fill:none;stroke:#3f3f3f;stroke-linecap:round;stroke-width:1.4;"/>
   </g>
   <g id="line2d_24">
    <path clip-path="url(#p428e0f8448)" d="M 149.0895 284.11338 
L 162.7605 284.11338 
" style="fill:none;stroke:#3f3f3f;stroke-linecap:round;stroke-width:1.4;"/>
   </g>
   <g id="line2d_25">
    <defs>
     <path d="M -0 3.535534 
L 2.12132 0 
L -0 -3.535534 
L -2.12132 -0 
z
" id="m092b43cd01"/>
    </defs>
    <g clip-path="url(#p428e0f8448)">
     <use style="fill:#3f3f3f;" x="155.925" xlink:href="#m092b43cd01" y="223.070696"/>
     <use style="fill:#3f3f3f;" x="155.925" xlink:href="#m092b43cd01" y="223.070696"/>
     <use style="fill:#3f3f3f;" x="155.925" xlink:href="#m092b43cd01" y="223.070696"/>
     <use style="fill:#3f3f3f;" x="155.925" xlink:href="#m092b43cd01" y="223.070696"/>
     <use style="fill:#3f3f3f;" x="155.925" xlink:href="#m092b43cd01" y="262.799594"/>
     <use style="fill:#3f3f3f;" x="155.925" xlink:href="#m092b43cd01" y="173.281692"/>
     <use style="fill:#3f3f3f;" x="155.925" xlink:href="#m092b43cd01" y="156.230663"/>
     <use style="fill:#3f3f3f;" x="155.925" xlink:href="#m092b43cd01" y="173.281692"/>
     <use style="fill:#3f3f3f;" x="155.925" xlink:href="#m092b43cd01" y="245.305238"/>
     <use style="fill:#3f3f3f;" x="155.925" xlink:href="#m092b43cd01" y="113.60309"/>
     <use style="fill:#3f3f3f;" x="155.925" xlink:href="#m092b43cd01" y="258.536837"/>
     <use style="fill:#3f3f3f;" x="155.925" xlink:href="#m092b43cd01" y="245.390493"/>
    </g>
   </g>
   <g id="line2d_26">
    <path clip-path="url(#p428e0f8448)" d="M 183.825 366.68512 
L 183.825 369.325898 
" style="fill:none;stroke:#3f3f3f;stroke-linecap:round;stroke-width:1.4;"/>
   </g>
   <g id="line2d_27">
    <path clip-path="url(#p428e0f8448)" d="M 183.825 273.63126 
L 183.825 168.550031 
" style="fill:none;stroke:#3f3f3f;stroke-linecap:round;stroke-width:1.4;"/>
   </g>
   <g id="line2d_28">
    <path clip-path="url(#p428e0f8448)" d="M 176.9895 369.325898 
L 190.6605 369.325898 
" style="fill:none;stroke:#3f3f3f;stroke-linecap:round;stroke-width:1.4;"/>
   </g>
   <g id="line2d_29">
    <path clip-path="url(#p428e0f8448)" d="M 176.9895 168.550031 
L 190.6605 168.550031 
" style="fill:none;stroke:#3f3f3f;stroke-linecap:round;stroke-width:1.4;"/>
   </g>
   <g id="line2d_30">
    <g clip-path="url(#p428e0f8448)">
     <use style="fill:#3f3f3f;" x="183.825" xlink:href="#m092b43cd01" y="113.60309"/>
    </g>
   </g>
   <g id="line2d_31">
    <path clip-path="url(#p428e0f8448)" d="M 225.675 366.810871 
L 225.675 369.053081 
" style="fill:none;stroke:#3f3f3f;stroke-linecap:round;stroke-width:1.4;"/>
   </g>
   <g id="line2d_32">
    <path clip-path="url(#p428e0f8448)" d="M 225.675 352.317496 
L 225.675 334.703783 
" style="fill:none;stroke:#3f3f3f;stroke-linecap:round;stroke-width:1.4;"/>
   </g>
   <g id="line2d_33">
    <path clip-path="url(#p428e0f8448)" d="M 218.8395 369.053081 
L 232.5105 369.053081 
" style="fill:none;stroke:#3f3f3f;stroke-linecap:round;stroke-width:1.4;"/>
   </g>
   <g id="line2d_34">
    <path clip-path="url(#p428e0f8448)" d="M 218.8395 334.703783 
L 232.5105 334.703783 
" style="fill:none;stroke:#3f3f3f;stroke-linecap:round;stroke-width:1.4;"/>
   </g>
   <g id="line2d_35">
    <g clip-path="url(#p428e0f8448)">
     <use style="fill:#3f3f3f;" x="225.675" xlink:href="#m092b43cd01" y="262.799594"/>
     <use style="fill:#3f3f3f;" x="225.675" xlink:href="#m092b43cd01" y="326.740953"/>
     <use style="fill:#3f3f3f;" x="225.675" xlink:href="#m092b43cd01" y="317.439617"/>
     <use style="fill:#3f3f3f;" x="225.675" xlink:href="#m092b43cd01" y="326.740953"/>
     <use style="fill:#3f3f3f;" x="225.675" xlink:href="#m092b43cd01" y="106.612168"/>
     <use style="fill:#3f3f3f;" x="225.675" xlink:href="#m092b43cd01" y="262.799594"/>
     <use style="fill:#3f3f3f;" x="225.675" xlink:href="#m092b43cd01" y="305.427167"/>
     <use style="fill:#3f3f3f;" x="225.675" xlink:href="#m092b43cd01" y="312.716482"/>
     <use style="fill:#3f3f3f;" x="225.675" xlink:href="#m092b43cd01" y="326.740953"/>
     <use style="fill:#3f3f3f;" x="225.675" xlink:href="#m092b43cd01" y="329.332709"/>
     <use style="fill:#3f3f3f;" x="225.675" xlink:href="#m092b43cd01" y="319.56247"/>
     <use style="fill:#3f3f3f;" x="225.675" xlink:href="#m092b43cd01" y="306.279718"/>
     <use style="fill:#3f3f3f;" x="225.675" xlink:href="#m092b43cd01" y="319.204398"/>
    </g>
   </g>
   <g id="line2d_36">
    <path clip-path="url(#p428e0f8448)" d="M 253.575 365.003462 
L 253.575 369.317372 
" style="fill:none;stroke:#3f3f3f;stroke-linecap:round;stroke-width:1.4;"/>
   </g>
   <g id="line2d_37">
    <path clip-path="url(#p428e0f8448)" d="M 253.575 338.953752 
L 253.575 301.164409 
" style="fill:none;stroke:#3f3f3f;stroke-linecap:round;stroke-width:1.4;"/>
   </g>
   <g id="line2d_38">
    <path clip-path="url(#p428e0f8448)" d="M 246.7395 369.317372 
L 260.4105 369.317372 
" style="fill:none;stroke:#3f3f3f;stroke-linecap:round;stroke-width:1.4;"/>
   </g>
   <g id="line2d_39">
    <path clip-path="url(#p428e0f8448)" d="M 246.7395 301.164409 
L 260.4105 301.164409 
" style="fill:none;stroke:#3f3f3f;stroke-linecap:round;stroke-width:1.4;"/>
   </g>
   <g id="line2d_40">
    <g clip-path="url(#p428e0f8448)">
     <use style="fill:#3f3f3f;" x="253.575" xlink:href="#m092b43cd01" y="182.855844"/>
     <use style="fill:#3f3f3f;" x="253.575" xlink:href="#m092b43cd01" y="140.032185"/>
     <use style="fill:#3f3f3f;" x="253.575" xlink:href="#m092b43cd01" y="106.612168"/>
     <use style="fill:#3f3f3f;" x="253.575" xlink:href="#m092b43cd01" y="220.172021"/>
     <use style="fill:#3f3f3f;" x="253.575" xlink:href="#m092b43cd01" y="87.438286"/>
     <use style="fill:#3f3f3f;" x="253.575" xlink:href="#m092b43cd01" y="285.366631"/>
    </g>
   </g>
   <g id="line2d_41">
    <path clip-path="url(#p428e0f8448)" d="M 295.425 366.167195 
L 295.425 369.274745 
" style="fill:none;stroke:#3f3f3f;stroke-linecap:round;stroke-width:1.4;"/>
   </g>
   <g id="line2d_42">
    <path clip-path="url(#p428e0f8448)" d="M 295.425 341.195963 
L 295.425 305.427167 
" style="fill:none;stroke:#3f3f3f;stroke-linecap:round;stroke-width:1.4;"/>
   </g>
   <g id="line2d_43">
    <path clip-path="url(#p428e0f8448)" d="M 288.5895 369.274745 
L 302.2605 369.274745 
" style="fill:none;stroke:#3f3f3f;stroke-linecap:round;stroke-width:1.4;"/>
   </g>
   <g id="line2d_44">
    <path clip-path="url(#p428e0f8448)" d="M 288.5895 305.427167 
L 302.2605 305.427167 
" style="fill:none;stroke:#3f3f3f;stroke-linecap:round;stroke-width:1.4;"/>
   </g>
   <g id="line2d_45">
    <g clip-path="url(#p428e0f8448)">
     <use style="fill:#3f3f3f;" x="295.425" xlink:href="#m092b43cd01" y="156.230663"/>
     <use style="fill:#3f3f3f;" x="295.425" xlink:href="#m092b43cd01" y="156.230663"/>
     <use style="fill:#3f3f3f;" x="295.425" xlink:href="#m092b43cd01" y="156.230663"/>
     <use style="fill:#3f3f3f;" x="295.425" xlink:href="#m092b43cd01" y="262.799594"/>
     <use style="fill:#3f3f3f;" x="295.425" xlink:href="#m092b43cd01" y="156.230663"/>
     <use style="fill:#3f3f3f;" x="295.425" xlink:href="#m092b43cd01" y="284.11338"/>
     <use style="fill:#3f3f3f;" x="295.425" xlink:href="#m092b43cd01" y="282.723721"/>
    </g>
   </g>
   <g id="line2d_46">
    <path clip-path="url(#p428e0f8448)" d="M 323.325 369.178833 
L 323.325 369.36 
" style="fill:none;stroke:#3f3f3f;stroke-linecap:round;stroke-width:1.4;"/>
   </g>
   <g id="line2d_47">
    <path clip-path="url(#p428e0f8448)" d="M 323.325 337.397846 
L 323.325 294.343998 
" style="fill:none;stroke:#3f3f3f;stroke-linecap:round;stroke-width:1.4;"/>
   </g>
   <g id="line2d_48">
    <path clip-path="url(#p428e0f8448)" d="M 316.4895 369.36 
L 330.1605 369.36 
" style="fill:none;stroke:#3f3f3f;stroke-linecap:round;stroke-width:1.4;"/>
   </g>
   <g id="line2d_49">
    <path clip-path="url(#p428e0f8448)" d="M 316.4895 294.343998 
L 330.1605 294.343998 
" style="fill:none;stroke:#3f3f3f;stroke-linecap:round;stroke-width:1.4;"/>
   </g>
   <g id="line2d_50">
    <g clip-path="url(#p428e0f8448)">
     <use style="fill:#3f3f3f;" x="323.325" xlink:href="#m092b43cd01" y="156.230663"/>
     <use style="fill:#3f3f3f;" x="323.325" xlink:href="#m092b43cd01" y="125.607014"/>
     <use style="fill:#3f3f3f;" x="323.325" xlink:href="#m092b43cd01" y="95.068621"/>
     <use style="fill:#3f3f3f;" x="323.325" xlink:href="#m092b43cd01" y="284.11338"/>
     <use style="fill:#3f3f3f;" x="323.325" xlink:href="#m092b43cd01" y="156.230663"/>
    </g>
   </g>
   <g id="line2d_51">
    <path clip-path="url(#p428e0f8448)" d="M 365.175 365.105768 
L 365.175 367.791305 
" style="fill:none;stroke:#3f3f3f;stroke-linecap:round;stroke-width:1.4;"/>
   </g>
   <g id="line2d_52">
    <path clip-path="url(#p428e0f8448)" d="M 365.175 339.993865 
L 365.175 309.698449 
" style="fill:none;stroke:#3f3f3f;stroke-linecap:round;stroke-width:1.4;"/>
   </g>
   <g id="line2d_53">
    <path clip-path="url(#p428e0f8448)" d="M 358.3395 367.791305 
L 372.0105 367.791305 
" style="fill:none;stroke:#3f3f3f;stroke-linecap:round;stroke-width:1.4;"/>
   </g>
   <g id="line2d_54">
    <path clip-path="url(#p428e0f8448)" d="M 358.3395 309.698449 
L 372.0105 309.698449 
" style="fill:none;stroke:#3f3f3f;stroke-linecap:round;stroke-width:1.4;"/>
   </g>
   <g id="line2d_55">
    <g clip-path="url(#p428e0f8448)">
     <use style="fill:#3f3f3f;" x="365.175" xlink:href="#m092b43cd01" y="250.454649"/>
     <use style="fill:#3f3f3f;" x="365.175" xlink:href="#m092b43cd01" y="284.965932"/>
     <use style="fill:#3f3f3f;" x="365.175" xlink:href="#m092b43cd01" y="156.230663"/>
    </g>
   </g>
   <g id="line2d_56">
    <path clip-path="url(#p428e0f8448)" d="M 393.075 362.77404 
L 393.075 369.308847 
" style="fill:none;stroke:#3f3f3f;stroke-linecap:round;stroke-width:1.4;"/>
   </g>
   <g id="line2d_57">
    <path clip-path="url(#p428e0f8448)" d="M 393.075 241.051006 
L 393.075 113.60309 
" style="fill:none;stroke:#3f3f3f;stroke-linecap:round;stroke-width:1.4;"/>
   </g>
   <g id="line2d_58">
    <path clip-path="url(#p428e0f8448)" d="M 386.2395 369.308847 
L 399.9105 369.308847 
" style="fill:none;stroke:#3f3f3f;stroke-linecap:round;stroke-width:1.4;"/>
   </g>
   <g id="line2d_59">
    <path clip-path="url(#p428e0f8448)" d="M 386.2395 113.60309 
L 399.9105 113.60309 
" style="fill:none;stroke:#3f3f3f;stroke-linecap:round;stroke-width:1.4;"/>
   </g>
   <g id="line2d_60"/>
   <g id="line2d_61">
    <path clip-path="url(#p428e0f8448)" d="M 434.925 364.014502 
L 434.925 369.28327 
" style="fill:none;stroke:#3f3f3f;stroke-linecap:round;stroke-width:1.4;"/>
   </g>
   <g id="line2d_62">
    <path clip-path="url(#p428e0f8448)" d="M 434.925 348.07179 
L 434.925 326.740953 
" style="fill:none;stroke:#3f3f3f;stroke-linecap:round;stroke-width:1.4;"/>
   </g>
   <g id="line2d_63">
    <path clip-path="url(#p428e0f8448)" d="M 428.0895 369.28327 
L 441.7605 369.28327 
" style="fill:none;stroke:#3f3f3f;stroke-linecap:round;stroke-width:1.4;"/>
   </g>
   <g id="line2d_64">
    <path clip-path="url(#p428e0f8448)" d="M 428.0895 326.740953 
L 441.7605 326.740953 
" style="fill:none;stroke:#3f3f3f;stroke-linecap:round;stroke-width:1.4;"/>
   </g>
   <g id="line2d_65">
    <g clip-path="url(#p428e0f8448)">
     <use style="fill:#3f3f3f;" x="434.925" xlink:href="#m092b43cd01" y="318.215438"/>
     <use style="fill:#3f3f3f;" x="434.925" xlink:href="#m092b43cd01" y="241.485808"/>
     <use style="fill:#3f3f3f;" x="434.925" xlink:href="#m092b43cd01" y="304.139814"/>
     <use style="fill:#3f3f3f;" x="434.925" xlink:href="#m092b43cd01" y="312.716482"/>
     <use style="fill:#3f3f3f;" x="434.925" xlink:href="#m092b43cd01" y="323.330747"/>
     <use style="fill:#3f3f3f;" x="434.925" xlink:href="#m092b43cd01" y="323.765548"/>
     <use style="fill:#3f3f3f;" x="434.925" xlink:href="#m092b43cd01" y="273.533217"/>
     <use style="fill:#3f3f3f;" x="434.925" xlink:href="#m092b43cd01" y="319.596572"/>
     <use style="fill:#3f3f3f;" x="434.925" xlink:href="#m092b43cd01" y="296.910178"/>
    </g>
   </g>
   <g id="line2d_66">
    <path clip-path="url(#p428e0f8448)" d="M 462.825 360.930398 
L 462.825 369.317372 
" style="fill:none;stroke:#3f3f3f;stroke-linecap:round;stroke-width:1.4;"/>
   </g>
   <g id="line2d_67">
    <path clip-path="url(#p428e0f8448)" d="M 462.825 306.769935 
L 462.825 285.238748 
" style="fill:none;stroke:#3f3f3f;stroke-linecap:round;stroke-width:1.4;"/>
   </g>
   <g id="line2d_68">
    <path clip-path="url(#p428e0f8448)" d="M 455.9895 369.317372 
L 469.6605 369.317372 
" style="fill:none;stroke:#3f3f3f;stroke-linecap:round;stroke-width:1.4;"/>
   </g>
   <g id="line2d_69">
    <path clip-path="url(#p428e0f8448)" d="M 455.9895 285.238748 
L 469.6605 285.238748 
" style="fill:none;stroke:#3f3f3f;stroke-linecap:round;stroke-width:1.4;"/>
   </g>
   <g id="line2d_70">
    <g clip-path="url(#p428e0f8448)">
     <use style="fill:#3f3f3f;" x="462.825" xlink:href="#m092b43cd01" y="148.506546"/>
     <use style="fill:#3f3f3f;" x="462.825" xlink:href="#m092b43cd01" y="163.767217"/>
     <use style="fill:#3f3f3f;" x="462.825" xlink:href="#m092b43cd01" y="198.858235"/>
    </g>
   </g>
   <g id="line2d_71">
    <path clip-path="url(#p428e0f8448)" d="M 504.675 361.036966 
L 504.675 367.799831 
" style="fill:none;stroke:#3f3f3f;stroke-linecap:round;stroke-width:1.4;"/>
   </g>
   <g id="line2d_72">
    <path clip-path="url(#p428e0f8448)" d="M 504.675 331.144381 
L 504.675 301.164409 
" style="fill:none;stroke:#3f3f3f;stroke-linecap:round;stroke-width:1.4;"/>
   </g>
   <g id="line2d_73">
    <path clip-path="url(#p428e0f8448)" d="M 497.8395 367.799831 
L 511.5105 367.799831 
" style="fill:none;stroke:#3f3f3f;stroke-linecap:round;stroke-width:1.4;"/>
   </g>
   <g id="line2d_74">
    <path clip-path="url(#p428e0f8448)" d="M 497.8395 301.164409 
L 511.5105 301.164409 
" style="fill:none;stroke:#3f3f3f;stroke-linecap:round;stroke-width:1.4;"/>
   </g>
   <g id="line2d_75">
    <g clip-path="url(#p428e0f8448)">
     <use style="fill:#3f3f3f;" x="504.675" xlink:href="#m092b43cd01" y="275.587866"/>
     <use style="fill:#3f3f3f;" x="504.675" xlink:href="#m092b43cd01" y="267.667663"/>
     <use style="fill:#3f3f3f;" x="504.675" xlink:href="#m092b43cd01" y="246.609642"/>
     <use style="fill:#3f3f3f;" x="504.675" xlink:href="#m092b43cd01" y="226.088729"/>
    </g>
   </g>
   <g id="line2d_76">
    <path clip-path="url(#p428e0f8448)" d="M 532.575 363.80989 
L 532.575 369.325898 
" style="fill:none;stroke:#3f3f3f;stroke-linecap:round;stroke-width:1.4;"/>
   </g>
   <g id="line2d_77">
    <path clip-path="url(#p428e0f8448)" d="M 532.575 300.853228 
L 532.575 224.289845 
" style="fill:none;stroke:#3f3f3f;stroke-linecap:round;stroke-width:1.4;"/>
   </g>
   <g id="line2d_78">
    <path clip-path="url(#p428e0f8448)" d="M 525.7395 369.325898 
L 539.4105 369.325898 
" style="fill:none;stroke:#3f3f3f;stroke-linecap:round;stroke-width:1.4;"/>
   </g>
   <g id="line2d_79">
    <path clip-path="url(#p428e0f8448)" d="M 525.7395 224.289845 
L 539.4105 224.289845 
" style="fill:none;stroke:#3f3f3f;stroke-linecap:round;stroke-width:1.4;"/>
   </g>
   <g id="line2d_80">
    <g clip-path="url(#p428e0f8448)">
     <use style="fill:#3f3f3f;" x="532.575" xlink:href="#m092b43cd01" y="148.506546"/>
    </g>
   </g>
   <g id="line2d_81">
    <path clip-path="url(#p428e0f8448)" d="M 574.425 362.916842 
L 574.425 368.089698 
" style="fill:none;stroke:#3f3f3f;stroke-linecap:round;stroke-width:1.4;"/>
   </g>
   <g id="line2d_82">
    <path clip-path="url(#p428e0f8448)" d="M 574.425 348.093104 
L 574.425 326.740953 
" style="fill:none;stroke:#3f3f3f;stroke-linecap:round;stroke-width:1.4;"/>
   </g>
   <g id="line2d_83">
    <path clip-path="url(#p428e0f8448)" d="M 567.5895 368.089698 
L 581.2605 368.089698 
" style="fill:none;stroke:#3f3f3f;stroke-linecap:round;stroke-width:1.4;"/>
   </g>
   <g id="line2d_84">
    <path clip-path="url(#p428e0f8448)" d="M 567.5895 326.740953 
L 581.2605 326.740953 
" style="fill:none;stroke:#3f3f3f;stroke-linecap:round;stroke-width:1.4;"/>
   </g>
   <g id="line2d_85">
    <g clip-path="url(#p428e0f8448)">
     <use style="fill:#3f3f3f;" x="574.425" xlink:href="#m092b43cd01" y="322.478196"/>
     <use style="fill:#3f3f3f;" x="574.425" xlink:href="#m092b43cd01" y="318.215438"/>
     <use style="fill:#3f3f3f;" x="574.425" xlink:href="#m092b43cd01" y="312.716482"/>
     <use style="fill:#3f3f3f;" x="574.425" xlink:href="#m092b43cd01" y="256.644173"/>
     <use style="fill:#3f3f3f;" x="574.425" xlink:href="#m092b43cd01" y="120.500231"/>
     <use style="fill:#3f3f3f;" x="574.425" xlink:href="#m092b43cd01" y="296.398647"/>
     <use style="fill:#3f3f3f;" x="574.425" xlink:href="#m092b43cd01" y="287.694096"/>
     <use style="fill:#3f3f3f;" x="574.425" xlink:href="#m092b43cd01" y="318.428576"/>
     <use style="fill:#3f3f3f;" x="574.425" xlink:href="#m092b43cd01" y="319.195873"/>
     <use style="fill:#3f3f3f;" x="574.425" xlink:href="#m092b43cd01" y="224.289845"/>
    </g>
   </g>
   <g id="line2d_86">
    <path clip-path="url(#p428e0f8448)" d="M 602.325 350.891604 
L 602.325 369.334423 
" style="fill:none;stroke:#3f3f3f;stroke-linecap:round;stroke-width:1.4;"/>
   </g>
   <g id="line2d_87">
    <path clip-path="url(#p428e0f8448)" d="M 602.325 270.741111 
L 602.325 231.383073 
" style="fill:none;stroke:#3f3f3f;stroke-linecap:round;stroke-width:1.4;"/>
   </g>
   <g id="line2d_88">
    <path clip-path="url(#p428e0f8448)" d="M 595.4895 369.334423 
L 609.1605 369.334423 
" style="fill:none;stroke:#3f3f3f;stroke-linecap:round;stroke-width:1.4;"/>
   </g>
   <g id="line2d_89">
    <path clip-path="url(#p428e0f8448)" d="M 595.4895 231.383073 
L 609.1605 231.383073 
" style="fill:none;stroke:#3f3f3f;stroke-linecap:round;stroke-width:1.4;"/>
   </g>
   <g id="line2d_90">
    <g clip-path="url(#p428e0f8448)">
     <use style="fill:#3f3f3f;" x="602.325" xlink:href="#m092b43cd01" y="136.621979"/>
     <use style="fill:#3f3f3f;" x="602.325" xlink:href="#m092b43cd01" y="120.500231"/>
     <use style="fill:#3f3f3f;" x="602.325" xlink:href="#m092b43cd01" y="124.481646"/>
    </g>
   </g>
   <g id="line2d_91">
    <path clip-path="url(#p428e0f8448)" d="M 644.175 362.982915 
L 644.175 368.515974 
" style="fill:none;stroke:#3f3f3f;stroke-linecap:round;stroke-width:1.4;"/>
   </g>
   <g id="line2d_92">
    <path clip-path="url(#p428e0f8448)" d="M 644.175 328.68477 
L 644.175 284.965932 
" style="fill:none;stroke:#3f3f3f;stroke-linecap:round;stroke-width:1.4;"/>
   </g>
   <g id="line2d_93">
    <path clip-path="url(#p428e0f8448)" d="M 637.3395 368.515974 
L 651.0105 368.515974 
" style="fill:none;stroke:#3f3f3f;stroke-linecap:round;stroke-width:1.4;"/>
   </g>
   <g id="line2d_94">
    <path clip-path="url(#p428e0f8448)" d="M 637.3395 284.965932 
L 651.0105 284.965932 
" style="fill:none;stroke:#3f3f3f;stroke-linecap:round;stroke-width:1.4;"/>
   </g>
   <g id="line2d_95">
    <g clip-path="url(#p428e0f8448)">
     <use style="fill:#3f3f3f;" x="644.175" xlink:href="#m092b43cd01" y="218.466919"/>
     <use style="fill:#3f3f3f;" x="644.175" xlink:href="#m092b43cd01" y="212.85713"/>
     <use style="fill:#3f3f3f;" x="644.175" xlink:href="#m092b43cd01" y="220.172021"/>
     <use style="fill:#3f3f3f;" x="644.175" xlink:href="#m092b43cd01" y="220.172021"/>
     <use style="fill:#3f3f3f;" x="644.175" xlink:href="#m092b43cd01" y="206.531198"/>
     <use style="fill:#3f3f3f;" x="644.175" xlink:href="#m092b43cd01" y="193.742926"/>
     <use style="fill:#3f3f3f;" x="644.175" xlink:href="#m092b43cd01" y="121.318681"/>
     <use style="fill:#3f3f3f;" x="644.175" xlink:href="#m092b43cd01" y="121.318681"/>
     <use style="fill:#3f3f3f;" x="644.175" xlink:href="#m092b43cd01" y="120.176262"/>
     <use style="fill:#3f3f3f;" x="644.175" xlink:href="#m092b43cd01" y="215.909264"/>
     <use style="fill:#3f3f3f;" x="644.175" xlink:href="#m092b43cd01" y="222.729676"/>
     <use style="fill:#3f3f3f;" x="644.175" xlink:href="#m092b43cd01" y="192.694288"/>
    </g>
   </g>
   <g id="line2d_96">
    <path clip-path="url(#p428e0f8448)" d="M 672.075 360.889901 
L 672.075 369.317372 
" style="fill:none;stroke:#3f3f3f;stroke-linecap:round;stroke-width:1.4;"/>
   </g>
   <g id="line2d_97">
    <path clip-path="url(#p428e0f8448)" d="M 672.075 337.824122 
L 672.075 318.215438 
" style="fill:none;stroke:#3f3f3f;stroke-linecap:round;stroke-width:1.4;"/>
   </g>
   <g id="line2d_98">
    <path clip-path="url(#p428e0f8448)" d="M 665.2395 369.317372 
L 678.9105 369.317372 
" style="fill:none;stroke:#3f3f3f;stroke-linecap:round;stroke-width:1.4;"/>
   </g>
   <g id="line2d_99">
    <path clip-path="url(#p428e0f8448)" d="M 665.2395 318.215438 
L 678.9105 318.215438 
" style="fill:none;stroke:#3f3f3f;stroke-linecap:round;stroke-width:1.4;"/>
   </g>
   <g id="line2d_100">
    <g clip-path="url(#p428e0f8448)">
     <use style="fill:#3f3f3f;" x="672.075" xlink:href="#m092b43cd01" y="218.466919"/>
     <use style="fill:#3f3f3f;" x="672.075" xlink:href="#m092b43cd01" y="67.565312"/>
     <use style="fill:#3f3f3f;" x="672.075" xlink:href="#m092b43cd01" y="66.96"/>
     <use style="fill:#3f3f3f;" x="672.075" xlink:href="#m092b43cd01" y="220.172021"/>
     <use style="fill:#3f3f3f;" x="672.075" xlink:href="#m092b43cd01" y="206.531198"/>
     <use style="fill:#3f3f3f;" x="672.075" xlink:href="#m092b43cd01" y="141.984528"/>
     <use style="fill:#3f3f3f;" x="672.075" xlink:href="#m092b43cd01" y="121.318681"/>
    </g>
   </g>
   <g id="line2d_101">
    <path clip-path="url(#p428e0f8448)" d="M 713.925 361.527184 
L 713.925 368.720586 
" style="fill:none;stroke:#3f3f3f;stroke-linecap:round;stroke-width:1.4;"/>
   </g>
   <g id="line2d_102">
    <path clip-path="url(#p428e0f8448)" d="M 713.925 340.594914 
L 713.925 312.716482 
" style="fill:none;stroke:#3f3f3f;stroke-linecap:round;stroke-width:1.4;"/>
   </g>
   <g id="line2d_103">
    <path clip-path="url(#p428e0f8448)" d="M 707.0895 368.720586 
L 720.7605 368.720586 
" style="fill:none;stroke:#3f3f3f;stroke-linecap:round;stroke-width:1.4;"/>
   </g>
   <g id="line2d_104">
    <path clip-path="url(#p428e0f8448)" d="M 707.0895 312.716482 
L 720.7605 312.716482 
" style="fill:none;stroke:#3f3f3f;stroke-linecap:round;stroke-width:1.4;"/>
   </g>
   <g id="line2d_105">
    <g clip-path="url(#p428e0f8448)">
     <use style="fill:#3f3f3f;" x="713.925" xlink:href="#m092b43cd01" y="156.230663"/>
     <use style="fill:#3f3f3f;" x="713.925" xlink:href="#m092b43cd01" y="220.172021"/>
     <use style="fill:#3f3f3f;" x="713.925" xlink:href="#m092b43cd01" y="305.682932"/>
     <use style="fill:#3f3f3f;" x="713.925" xlink:href="#m092b43cd01" y="267.062351"/>
     <use style="fill:#3f3f3f;" x="713.925" xlink:href="#m092b43cd01" y="242.670854"/>
    </g>
   </g>
   <g id="line2d_106">
    <path clip-path="url(#p428e0f8448)" d="M 741.825 367.718838 
L 741.825 369.325898 
" style="fill:none;stroke:#3f3f3f;stroke-linecap:round;stroke-width:1.4;"/>
   </g>
   <g id="line2d_107">
    <path clip-path="url(#p428e0f8448)" d="M 741.825 323.441579 
L 741.825 288.376138 
" style="fill:none;stroke:#3f3f3f;stroke-linecap:round;stroke-width:1.4;"/>
   </g>
   <g id="line2d_108">
    <path clip-path="url(#p428e0f8448)" d="M 734.9895 369.325898 
L 748.6605 369.325898 
" style="fill:none;stroke:#3f3f3f;stroke-linecap:round;stroke-width:1.4;"/>
   </g>
   <g id="line2d_109">
    <path clip-path="url(#p428e0f8448)" d="M 734.9895 288.376138 
L 748.6605 288.376138 
" style="fill:none;stroke:#3f3f3f;stroke-linecap:round;stroke-width:1.4;"/>
   </g>
   <g id="line2d_110">
    <g clip-path="url(#p428e0f8448)">
     <use style="fill:#3f3f3f;" x="741.825" xlink:href="#m092b43cd01" y="129.426445"/>
     <use style="fill:#3f3f3f;" x="741.825" xlink:href="#m092b43cd01" y="113.60309"/>
    </g>
   </g>
   <g id="line2d_111">
    <path clip-path="url(#p428e0f8448)" d="M 783.675 366.810871 
L 783.675 368.908148 
" style="fill:none;stroke:#3f3f3f;stroke-linecap:round;stroke-width:1.4;"/>
   </g>
   <g id="line2d_112">
    <path clip-path="url(#p428e0f8448)" d="M 783.675 356.980953 
L 783.675 351.362639 
" style="fill:none;stroke:#3f3f3f;stroke-linecap:round;stroke-width:1.4;"/>
   </g>
   <g id="line2d_113">
    <path clip-path="url(#p428e0f8448)" d="M 776.8395 368.908148 
L 790.5105 368.908148 
" style="fill:none;stroke:#3f3f3f;stroke-linecap:round;stroke-width:1.4;"/>
   </g>
   <g id="line2d_114">
    <path clip-path="url(#p428e0f8448)" d="M 776.8395 351.362639 
L 790.5105 351.362639 
" style="fill:none;stroke:#3f3f3f;stroke-linecap:round;stroke-width:1.4;"/>
   </g>
   <g id="line2d_115">
    <g clip-path="url(#p428e0f8448)">
     <use style="fill:#3f3f3f;" x="783.675" xlink:href="#m092b43cd01" y="333.535788"/>
     <use style="fill:#3f3f3f;" x="783.675" xlink:href="#m092b43cd01" y="312.716482"/>
     <use style="fill:#3f3f3f;" x="783.675" xlink:href="#m092b43cd01" y="92.289304"/>
     <use style="fill:#3f3f3f;" x="783.675" xlink:href="#m092b43cd01" y="122.196809"/>
     <use style="fill:#3f3f3f;" x="783.675" xlink:href="#m092b43cd01" y="302.016961"/>
     <use style="fill:#3f3f3f;" x="783.675" xlink:href="#m092b43cd01" y="329.332709"/>
     <use style="fill:#3f3f3f;" x="783.675" xlink:href="#m092b43cd01" y="334.328661"/>
     <use style="fill:#3f3f3f;" x="783.675" xlink:href="#m092b43cd01" y="318.471204"/>
     <use style="fill:#3f3f3f;" x="783.675" xlink:href="#m092b43cd01" y="301.164409"/>
    </g>
   </g>
   <g id="line2d_116">
    <path clip-path="url(#p428e0f8448)" d="M 811.575 366.810871 
L 811.575 369.317372 
" style="fill:none;stroke:#3f3f3f;stroke-linecap:round;stroke-width:1.4;"/>
   </g>
   <g id="line2d_117">
    <path clip-path="url(#p428e0f8448)" d="M 811.575 335.266467 
L 811.575 335.266467 
" style="fill:none;stroke:#3f3f3f;stroke-linecap:round;stroke-width:1.4;"/>
   </g>
   <g id="line2d_118">
    <path clip-path="url(#p428e0f8448)" d="M 804.7395 369.317372 
L 818.4105 369.317372 
" style="fill:none;stroke:#3f3f3f;stroke-linecap:round;stroke-width:1.4;"/>
   </g>
   <g id="line2d_119">
    <path clip-path="url(#p428e0f8448)" d="M 804.7395 335.266467 
L 818.4105 335.266467 
" style="fill:none;stroke:#3f3f3f;stroke-linecap:round;stroke-width:1.4;"/>
   </g>
   <g id="line2d_120">
    <g clip-path="url(#p428e0f8448)">
     <use style="fill:#3f3f3f;" x="811.575" xlink:href="#m092b43cd01" y="125.607014"/>
     <use style="fill:#3f3f3f;" x="811.575" xlink:href="#m092b43cd01" y="117.968153"/>
     <use style="fill:#3f3f3f;" x="811.575" xlink:href="#m092b43cd01" y="209.063276"/>
     <use style="fill:#3f3f3f;" x="811.575" xlink:href="#m092b43cd01" y="232.525492"/>
     <use style="fill:#3f3f3f;" x="811.575" xlink:href="#m092b43cd01" y="235.526473"/>
    </g>
   </g>
   <g id="line2d_121">
    <path clip-path="url(#p428e0f8448)" d="M 853.425 365.966845 
L 853.425 368.814367 
" style="fill:none;stroke:#3f3f3f;stroke-linecap:round;stroke-width:1.4;"/>
   </g>
   <g id="line2d_122">
    <path clip-path="url(#p428e0f8448)" d="M 853.425 356.980953 
L 853.425 343.791982 
" style="fill:none;stroke:#3f3f3f;stroke-linecap:round;stroke-width:1.4;"/>
   </g>
   <g id="line2d_123">
    <path clip-path="url(#p428e0f8448)" d="M 846.5895 368.814367 
L 860.2605 368.814367 
" style="fill:none;stroke:#3f3f3f;stroke-linecap:round;stroke-width:1.4;"/>
   </g>
   <g id="line2d_124">
    <path clip-path="url(#p428e0f8448)" d="M 846.5895 343.791982 
L 860.2605 343.791982 
" style="fill:none;stroke:#3f3f3f;stroke-linecap:round;stroke-width:1.4;"/>
   </g>
   <g id="line2d_125">
    <g clip-path="url(#p428e0f8448)">
     <use style="fill:#3f3f3f;" x="853.425" xlink:href="#m092b43cd01" y="318.215438"/>
     <use style="fill:#3f3f3f;" x="853.425" xlink:href="#m092b43cd01" y="335.266467"/>
     <use style="fill:#3f3f3f;" x="853.425" xlink:href="#m092b43cd01" y="186.828734"/>
     <use style="fill:#3f3f3f;" x="853.425" xlink:href="#m092b43cd01" y="329.332709"/>
     <use style="fill:#3f3f3f;" x="853.425" xlink:href="#m092b43cd01" y="332.282537"/>
     <use style="fill:#3f3f3f;" x="853.425" xlink:href="#m092b43cd01" y="311.480282"/>
     <use style="fill:#3f3f3f;" x="853.425" xlink:href="#m092b43cd01" y="295.70808"/>
    </g>
   </g>
   <g id="line2d_126">
    <path clip-path="url(#p428e0f8448)" d="M 881.325 366.810871 
L 881.325 369.317372 
" style="fill:none;stroke:#3f3f3f;stroke-linecap:round;stroke-width:1.4;"/>
   </g>
   <g id="line2d_127">
    <path clip-path="url(#p428e0f8448)" d="M 881.325 251.599199 
L 881.325 175.225509 
" style="fill:none;stroke:#3f3f3f;stroke-linecap:round;stroke-width:1.4;"/>
   </g>
   <g id="line2d_128">
    <path clip-path="url(#p428e0f8448)" d="M 874.4895 369.317372 
L 888.1605 369.317372 
" style="fill:none;stroke:#3f3f3f;stroke-linecap:round;stroke-width:1.4;"/>
   </g>
   <g id="line2d_129">
    <path clip-path="url(#p428e0f8448)" d="M 874.4895 175.225509 
L 888.1605 175.225509 
" style="fill:none;stroke:#3f3f3f;stroke-linecap:round;stroke-width:1.4;"/>
   </g>
   <g id="line2d_130"/>
   <g id="line2d_131">
    <path clip-path="url(#p428e0f8448)" d="M 923.175 366.810871 
L 923.175 369.138337 
" style="fill:none;stroke:#3f3f3f;stroke-linecap:round;stroke-width:1.4;"/>
   </g>
   <g id="line2d_132">
    <path clip-path="url(#p428e0f8448)" d="M 923.175 358.178788 
L 923.175 348.054739 
" style="fill:none;stroke:#3f3f3f;stroke-linecap:round;stroke-width:1.4;"/>
   </g>
   <g id="line2d_133">
    <path clip-path="url(#p428e0f8448)" d="M 916.3395 369.138337 
L 930.0105 369.138337 
" style="fill:none;stroke:#3f3f3f;stroke-linecap:round;stroke-width:1.4;"/>
   </g>
   <g id="line2d_134">
    <path clip-path="url(#p428e0f8448)" d="M 916.3395 348.054739 
L 930.0105 348.054739 
" style="fill:none;stroke:#3f3f3f;stroke-linecap:round;stroke-width:1.4;"/>
   </g>
   <g id="line2d_135">
    <g clip-path="url(#p428e0f8448)">
     <use style="fill:#3f3f3f;" x="923.175" xlink:href="#m092b43cd01" y="318.215438"/>
     <use style="fill:#3f3f3f;" x="923.175" xlink:href="#m092b43cd01" y="326.740953"/>
     <use style="fill:#3f3f3f;" x="923.175" xlink:href="#m092b43cd01" y="232.960293"/>
     <use style="fill:#3f3f3f;" x="923.175" xlink:href="#m092b43cd01" y="326.740953"/>
     <use style="fill:#3f3f3f;" x="923.175" xlink:href="#m092b43cd01" y="92.289304"/>
     <use style="fill:#3f3f3f;" x="923.175" xlink:href="#m092b43cd01" y="318.215438"/>
     <use style="fill:#3f3f3f;" x="923.175" xlink:href="#m092b43cd01" y="318.215438"/>
     <use style="fill:#3f3f3f;" x="923.175" xlink:href="#m092b43cd01" y="92.289304"/>
     <use style="fill:#3f3f3f;" x="923.175" xlink:href="#m092b43cd01" y="329.332709"/>
     <use style="fill:#3f3f3f;" x="923.175" xlink:href="#m092b43cd01" y="343.791982"/>
     <use style="fill:#3f3f3f;" x="923.175" xlink:href="#m092b43cd01" y="326.740953"/>
     <use style="fill:#3f3f3f;" x="923.175" xlink:href="#m092b43cd01" y="343.791982"/>
     <use style="fill:#3f3f3f;" x="923.175" xlink:href="#m092b43cd01" y="327.593504"/>
    </g>
   </g>
   <g id="line2d_136">
    <path clip-path="url(#p428e0f8448)" d="M 951.075 365.934875 
L 951.075 369.308847 
" style="fill:none;stroke:#3f3f3f;stroke-linecap:round;stroke-width:1.4;"/>
   </g>
   <g id="line2d_137">
    <path clip-path="url(#p428e0f8448)" d="M 951.075 280.276899 
L 951.075 161.985385 
" style="fill:none;stroke:#3f3f3f;stroke-linecap:round;stroke-width:1.4;"/>
   </g>
   <g id="line2d_138">
    <path clip-path="url(#p428e0f8448)" d="M 944.2395 369.308847 
L 957.9105 369.308847 
" style="fill:none;stroke:#3f3f3f;stroke-linecap:round;stroke-width:1.4;"/>
   </g>
   <g id="line2d_139">
    <path clip-path="url(#p428e0f8448)" d="M 944.2395 161.985385 
L 957.9105 161.985385 
" style="fill:none;stroke:#3f3f3f;stroke-linecap:round;stroke-width:1.4;"/>
   </g>
   <g id="line2d_140">
    <g clip-path="url(#p428e0f8448)">
     <use style="fill:#3f3f3f;" x="951.075" xlink:href="#m092b43cd01" y="112.9381"/>
     <use style="fill:#3f3f3f;" x="951.075" xlink:href="#m092b43cd01" y="92.289304"/>
    </g>
   </g>
   <g id="line2d_141">
    <path clip-path="url(#p428e0f8448)" d="M 142.254 360.40821 
L 169.596 360.40821 
" style="fill:none;stroke:#3f3f3f;stroke-linecap:round;stroke-width:1.4;"/>
   </g>
   <g id="line2d_142">
    <path clip-path="url(#p428e0f8448)" d="M 170.154 347.628463 
L 197.496 347.628463 
" style="fill:none;stroke:#3f3f3f;stroke-linecap:round;stroke-width:1.4;"/>
   </g>
   <g id="line2d_143">
    <path clip-path="url(#p428e0f8448)" d="M 212.004 362.556639 
L 239.346 362.556639 
" style="fill:none;stroke:#3f3f3f;stroke-linecap:round;stroke-width:1.4;"/>
   </g>
   <g id="line2d_144">
    <path clip-path="url(#p428e0f8448)" d="M 239.904 352.317496 
L 267.246 352.317496 
" style="fill:none;stroke:#3f3f3f;stroke-linecap:round;stroke-width:1.4;"/>
   </g>
   <g id="line2d_145">
    <path clip-path="url(#p428e0f8448)" d="M 281.754 360.092766 
L 309.096 360.092766 
" style="fill:none;stroke:#3f3f3f;stroke-linecap:round;stroke-width:1.4;"/>
   </g>
   <g id="line2d_146">
    <path clip-path="url(#p428e0f8448)" d="M 309.654 366.043575 
L 336.996 366.043575 
" style="fill:none;stroke:#3f3f3f;stroke-linecap:round;stroke-width:1.4;"/>
   </g>
   <g id="line2d_147">
    <path clip-path="url(#p428e0f8448)" d="M 351.504 359.819949 
L 378.846 359.819949 
" style="fill:none;stroke:#3f3f3f;stroke-linecap:round;stroke-width:1.4;"/>
   </g>
   <g id="line2d_148">
    <path clip-path="url(#p428e0f8448)" d="M 379.404 305.427167 
L 406.746 305.427167 
" style="fill:none;stroke:#3f3f3f;stroke-linecap:round;stroke-width:1.4;"/>
   </g>
   <g id="line2d_149">
    <path clip-path="url(#p428e0f8448)" d="M 421.254 359.137908 
L 448.596 359.137908 
" style="fill:none;stroke:#3f3f3f;stroke-linecap:round;stroke-width:1.4;"/>
   </g>
   <g id="line2d_150">
    <path clip-path="url(#p428e0f8448)" d="M 449.154 332.478624 
L 476.496 332.478624 
" style="fill:none;stroke:#3f3f3f;stroke-linecap:round;stroke-width:1.4;"/>
   </g>
   <g id="line2d_151">
    <path clip-path="url(#p428e0f8448)" d="M 491.004 352.743772 
L 518.346 352.743772 
" style="fill:none;stroke:#3f3f3f;stroke-linecap:round;stroke-width:1.4;"/>
   </g>
   <g id="line2d_152">
    <path clip-path="url(#p428e0f8448)" d="M 518.904 332.380581 
L 546.246 332.380581 
" style="fill:none;stroke:#3f3f3f;stroke-linecap:round;stroke-width:1.4;"/>
   </g>
   <g id="line2d_153">
    <path clip-path="url(#p428e0f8448)" d="M 560.754 358.651954 
L 588.096 358.651954 
" style="fill:none;stroke:#3f3f3f;stroke-linecap:round;stroke-width:1.4;"/>
   </g>
   <g id="line2d_154">
    <path clip-path="url(#p428e0f8448)" d="M 588.654 303.866997 
L 615.996 303.866997 
" style="fill:none;stroke:#3f3f3f;stroke-linecap:round;stroke-width:1.4;"/>
   </g>
   <g id="line2d_155">
    <path clip-path="url(#p428e0f8448)" d="M 630.504 355.565718 
L 657.846 355.565718 
" style="fill:none;stroke:#3f3f3f;stroke-linecap:round;stroke-width:1.4;"/>
   </g>
   <g id="line2d_156">
    <path clip-path="url(#p428e0f8448)" d="M 658.404 347.696668 
L 685.746 347.696668 
" style="fill:none;stroke:#3f3f3f;stroke-linecap:round;stroke-width:1.4;"/>
   </g>
   <g id="line2d_157">
    <path clip-path="url(#p428e0f8448)" d="M 700.254 357.509535 
L 727.596 357.509535 
" style="fill:none;stroke:#3f3f3f;stroke-linecap:round;stroke-width:1.4;"/>
   </g>
   <g id="line2d_158">
    <path clip-path="url(#p428e0f8448)" d="M 728.154 359.137908 
L 755.496 359.137908 
" style="fill:none;stroke:#3f3f3f;stroke-linecap:round;stroke-width:1.4;"/>
   </g>
   <g id="line2d_159">
    <path clip-path="url(#p428e0f8448)" d="M 770.004 362.300874 
L 797.346 362.300874 
" style="fill:none;stroke:#3f3f3f;stroke-linecap:round;stroke-width:1.4;"/>
   </g>
   <g id="line2d_160">
    <path clip-path="url(#p428e0f8448)" d="M 797.904 366.265238 
L 825.246 366.265238 
" style="fill:none;stroke:#3f3f3f;stroke-linecap:round;stroke-width:1.4;"/>
   </g>
   <g id="line2d_161">
    <path clip-path="url(#p428e0f8448)" d="M 839.754 363.085221 
L 867.096 363.085221 
" style="fill:none;stroke:#3f3f3f;stroke-linecap:round;stroke-width:1.4;"/>
   </g>
   <g id="line2d_162">
    <path clip-path="url(#p428e0f8448)" d="M 867.654 348.054739 
L 894.996 348.054739 
" style="fill:none;stroke:#3f3f3f;stroke-linecap:round;stroke-width:1.4;"/>
   </g>
   <g id="line2d_163">
    <path clip-path="url(#p428e0f8448)" d="M 909.504 365.736656 
L 936.846 365.736656 
" style="fill:none;stroke:#3f3f3f;stroke-linecap:round;stroke-width:1.4;"/>
   </g>
   <g id="line2d_164">
    <path clip-path="url(#p428e0f8448)" d="M 937.404 329.298607 
L 964.746 329.298607 
" style="fill:none;stroke:#3f3f3f;stroke-linecap:round;stroke-width:1.4;"/>
   </g>
   <g id="patch_29">
    <path d="M 135 384.48 
L 135 51.84 
" style="fill:none;stroke:#262626;stroke-linecap:square;stroke-linejoin:miter;stroke-width:1.25;"/>
   </g>
   <g id="patch_30">
    <path d="M 972 384.48 
L 972 51.84 
" style="fill:none;stroke:#262626;stroke-linecap:square;stroke-linejoin:miter;stroke-width:1.25;"/>
   </g>
   <g id="patch_31">
    <path d="M 135 384.48 
L 972 384.48 
" style="fill:none;stroke:#262626;stroke-linecap:square;stroke-linejoin:miter;stroke-width:1.25;"/>
   </g>
   <g id="patch_32">
    <path d="M 135 51.84 
L 972 51.84 
" style="fill:none;stroke:#262626;stroke-linecap:square;stroke-linejoin:miter;stroke-width:1.25;"/>
   </g>
   <g id="legend_1">
    <g id="text_23">
     <!-- Entry -->
     <defs>
      <path d="M 9.8125 72.90625 
L 55.90625 72.90625 
L 55.90625 64.59375 
L 19.671875 64.59375 
L 19.671875 43.015625 
L 54.390625 43.015625 
L 54.390625 34.71875 
L 19.671875 34.71875 
L 19.671875 8.296875 
L 56.78125 8.296875 
L 56.78125 0 
L 9.8125 0 
z
" id="DejaVuSans-45"/>
      <path d="M 41.109375 46.296875 
Q 39.59375 47.171875 37.8125 47.578125 
Q 36.03125 48 33.890625 48 
Q 26.265625 48 22.1875 43.046875 
Q 18.109375 38.09375 18.109375 28.8125 
L 18.109375 0 
L 9.078125 0 
L 9.078125 54.6875 
L 18.109375 54.6875 
L 18.109375 46.1875 
Q 20.953125 51.171875 25.484375 53.578125 
Q 30.03125 56 36.53125 56 
Q 37.453125 56 38.578125 55.875 
Q 39.703125 55.765625 41.0625 55.515625 
z
" id="DejaVuSans-72"/>
      <path d="M 32.171875 -5.078125 
Q 28.375 -14.84375 24.75 -17.8125 
Q 21.140625 -20.796875 15.09375 -20.796875 
L 7.90625 -20.796875 
L 7.90625 -13.28125 
L 13.1875 -13.28125 
Q 16.890625 -13.28125 18.9375 -11.515625 
Q 21 -9.765625 23.484375 -3.21875 
L 25.09375 0.875 
L 2.984375 54.6875 
L 12.5 54.6875 
L 29.59375 11.921875 
L 46.6875 54.6875 
L 56.203125 54.6875 
z
" id="DejaVuSans-79"/>
     </defs>
     <g style="fill:#262626;" transform="translate(155.565512 64.723631)scale(0.0748 -0.0748)">
      <use xlink:href="#DejaVuSans-45"/>
      <use x="63.183594" xlink:href="#DejaVuSans-6e"/>
      <use x="126.5625" xlink:href="#DejaVuSans-74"/>
      <use x="165.771484" xlink:href="#DejaVuSans-72"/>
      <use x="206.884766" xlink:href="#DejaVuSans-79"/>
     </g>
    </g>
    <g id="patch_33">
     <path d="M 142.2 76.357987 
L 158.2 76.357987 
L 158.2 70.757987 
L 142.2 70.757987 
z
" style="fill:#3274a1;stroke:#3f3f3f;stroke-linejoin:miter;stroke-width:0.7;"/>
    </g>
    <g id="text_24">
     <!-- Debit -->
     <defs>
      <path d="M 19.671875 64.796875 
L 19.671875 8.109375 
L 31.59375 8.109375 
Q 46.6875 8.109375 53.6875 14.9375 
Q 60.6875 21.78125 60.6875 36.53125 
Q 60.6875 51.171875 53.6875 57.984375 
Q 46.6875 64.796875 31.59375 64.796875 
z
M 9.8125 72.90625 
L 30.078125 72.90625 
Q 51.265625 72.90625 61.171875 64.09375 
Q 71.09375 55.28125 71.09375 36.53125 
Q 71.09375 17.671875 61.125 8.828125 
Q 51.171875 0 30.078125 0 
L 9.8125 0 
z
" id="DejaVuSans-44"/>
      <path d="M 56.203125 29.59375 
L 56.203125 25.203125 
L 14.890625 25.203125 
Q 15.484375 15.921875 20.484375 11.0625 
Q 25.484375 6.203125 34.421875 6.203125 
Q 39.59375 6.203125 44.453125 7.46875 
Q 49.3125 8.734375 54.109375 11.28125 
L 54.109375 2.78125 
Q 49.265625 0.734375 44.1875 -0.34375 
Q 39.109375 -1.421875 33.890625 -1.421875 
Q 20.796875 -1.421875 13.15625 6.1875 
Q 5.515625 13.8125 5.515625 26.8125 
Q 5.515625 40.234375 12.765625 48.109375 
Q 20.015625 56 32.328125 56 
Q 43.359375 56 49.78125 48.890625 
Q 56.203125 41.796875 56.203125 29.59375 
z
M 47.21875 32.234375 
Q 47.125 39.59375 43.09375 43.984375 
Q 39.0625 48.390625 32.421875 48.390625 
Q 24.90625 48.390625 20.390625 44.140625 
Q 15.875 39.890625 15.1875 32.171875 
z
" id="DejaVuSans-65"/>
      <path d="M 48.6875 27.296875 
Q 48.6875 37.203125 44.609375 42.84375 
Q 40.53125 48.484375 33.40625 48.484375 
Q 26.265625 48.484375 22.1875 42.84375 
Q 18.109375 37.203125 18.109375 27.296875 
Q 18.109375 17.390625 22.1875 11.75 
Q 26.265625 6.109375 33.40625 6.109375 
Q 40.53125 6.109375 44.609375 11.75 
Q 48.6875 17.390625 48.6875 27.296875 
z
M 18.109375 46.390625 
Q 20.953125 51.265625 25.265625 53.625 
Q 29.59375 56 35.59375 56 
Q 45.5625 56 51.78125 48.09375 
Q 58.015625 40.1875 58.015625 27.296875 
Q 58.015625 14.40625 51.78125 6.484375 
Q 45.5625 -1.421875 35.59375 -1.421875 
Q 29.59375 -1.421875 25.265625 0.953125 
Q 20.953125 3.328125 18.109375 8.203125 
L 18.109375 0 
L 9.078125 0 
L 9.078125 75.984375 
L 18.109375 75.984375 
z
" id="DejaVuSans-62"/>
      <path d="M 9.421875 54.6875 
L 18.40625 54.6875 
L 18.40625 0 
L 9.421875 0 
z
M 9.421875 75.984375 
L 18.40625 75.984375 
L 18.40625 64.59375 
L 9.421875 64.59375 
z
" id="DejaVuSans-69"/>
     </defs>
     <g style="fill:#262626;" transform="translate(164.6 76.357987)scale(0.08 -0.08)">
      <use xlink:href="#DejaVuSans-44"/>
      <use x="77.001953" xlink:href="#DejaVuSans-65"/>
      <use x="138.525391" xlink:href="#DejaVuSans-62"/>
      <use x="202.001953" xlink:href="#DejaVuSans-69"/>
      <use x="229.785156" xlink:href="#DejaVuSans-74"/>
     </g>
    </g>
    <g id="patch_34">
     <path d="M 142.2 88.100487 
L 158.2 88.100487 
L 158.2 82.500487 
L 142.2 82.500487 
z
" style="fill:#e1812c;stroke:#3f3f3f;stroke-linejoin:miter;stroke-width:0.7;"/>
    </g>
    <g id="text_25">
     <!-- Credit -->
     <defs>
      <path d="M 64.40625 67.28125 
L 64.40625 56.890625 
Q 59.421875 61.53125 53.78125 63.8125 
Q 48.140625 66.109375 41.796875 66.109375 
Q 29.296875 66.109375 22.65625 58.46875 
Q 16.015625 50.828125 16.015625 36.375 
Q 16.015625 21.96875 22.65625 14.328125 
Q 29.296875 6.6875 41.796875 6.6875 
Q 48.140625 6.6875 53.78125 8.984375 
Q 59.421875 11.28125 64.40625 15.921875 
L 64.40625 5.609375 
Q 59.234375 2.09375 53.4375 0.328125 
Q 47.65625 -1.421875 41.21875 -1.421875 
Q 24.65625 -1.421875 15.125 8.703125 
Q 5.609375 18.84375 5.609375 36.375 
Q 5.609375 53.953125 15.125 64.078125 
Q 24.65625 74.21875 41.21875 74.21875 
Q 47.75 74.21875 53.53125 72.484375 
Q 59.328125 70.75 64.40625 67.28125 
z
" id="DejaVuSans-43"/>
      <path d="M 45.40625 46.390625 
L 45.40625 75.984375 
L 54.390625 75.984375 
L 54.390625 0 
L 45.40625 0 
L 45.40625 8.203125 
Q 42.578125 3.328125 38.25 0.953125 
Q 33.9375 -1.421875 27.875 -1.421875 
Q 17.96875 -1.421875 11.734375 6.484375 
Q 5.515625 14.40625 5.515625 27.296875 
Q 5.515625 40.1875 11.734375 48.09375 
Q 17.96875 56 27.875 56 
Q 33.9375 56 38.25 53.625 
Q 42.578125 51.265625 45.40625 46.390625 
z
M 14.796875 27.296875 
Q 14.796875 17.390625 18.875 11.75 
Q 22.953125 6.109375 30.078125 6.109375 
Q 37.203125 6.109375 41.296875 11.75 
Q 45.40625 17.390625 45.40625 27.296875 
Q 45.40625 37.203125 41.296875 42.84375 
Q 37.203125 48.484375 30.078125 48.484375 
Q 22.953125 48.484375 18.875 42.84375 
Q 14.796875 37.203125 14.796875 27.296875 
z
" id="DejaVuSans-64"/>
     </defs>
     <g style="fill:#262626;" transform="translate(164.6 88.100487)scale(0.08 -0.08)">
      <use xlink:href="#DejaVuSans-43"/>
      <use x="69.824219" xlink:href="#DejaVuSans-72"/>
      <use x="110.90625" xlink:href="#DejaVuSans-65"/>
      <use x="172.429688" xlink:href="#DejaVuSans-64"/>
      <use x="235.90625" xlink:href="#DejaVuSans-69"/>
      <use x="263.689453" xlink:href="#DejaVuSans-74"/>
     </g>
    </g>
   </g>
  </g>
 </g>
 <defs>
  <clipPath id="p428e0f8448">
   <rect height="332.64" width="837" x="135" y="51.84"/>
  </clipPath>
 </defs>
</svg>
