<?xml version="1.0" encoding="utf-8" standalone="no"?>
<!DOCTYPE svg PUBLIC "-//W3C//DTD SVG 1.1//EN"
  "http://www.w3.org/Graphics/SVG/1.1/DTD/svg11.dtd">
<!-- Created with matplotlib (http://matplotlib.org/) -->
<svg height="864pt" version="1.1" viewBox="0 0 864 864" width="864pt" xmlns="http://www.w3.org/2000/svg" xmlns:xlink="http://www.w3.org/1999/xlink">
 <defs>
  <style type="text/css">
*{stroke-linecap:butt;stroke-linejoin:round;}
  </style>
 </defs>
 <g id="figure_1">
  <g id="patch_1">
   <path d="M 0 864 
L 864 864 
L 864 0 
L 0 0 
z
" style="fill:#ffffff;"/>
  </g>
  <g id="axes_1">
   <g id="patch_2">
    <path d="M 108 768.96 
L 777.6 768.96 
L 777.6 103.68 
L 108 103.68 
z
" style="fill:#eaeaf2;"/>
   </g>
   <g id="matplotlib.axis_1">
    <g id="xtick_1">
     <g id="line2d_1"/>
     <g id="text_1">
      <!-- Cash -->
      <defs>
       <path d="M 64.40625 67.28125 
L 64.40625 56.890625 
Q 59.421875 61.53125 53.78125 63.8125 
Q 48.140625 66.109375 41.796875 66.109375 
Q 29.296875 66.109375 22.65625 58.46875 
Q 16.015625 50.828125 16.015625 36.375 
Q 16.015625 21.96875 22.65625 14.328125 
Q 29.296875 6.6875 41.796875 6.6875 
Q 48.140625 6.6875 53.78125 8.984375 
Q 59.421875 11.28125 64.40625 15.921875 
L 64.40625 5.609375 
Q 59.234375 2.09375 53.4375 0.328125 
Q 47.65625 -1.421875 41.21875 -1.421875 
Q 24.65625 -1.421875 15.125 8.703125 
Q 5.609375 18.84375 5.609375 36.375 
Q 5.609375 53.953125 15.125 64.078125 
Q 24.65625 74.21875 41.21875 74.21875 
Q 47.75 74.21875 53.53125 72.484375 
Q 59.328125 70.75 64.40625 67.28125 
z
" id="DejaVuSans-43"/>
       <path d="M 34.28125 27.484375 
Q 23.390625 27.484375 19.1875 25 
Q 14.984375 22.515625 14.984375 16.5 
Q 14.984375 11.71875 18.140625 8.90625 
Q 21.296875 6.109375 26.703125 6.109375 
Q 34.1875 6.109375 38.703125 11.40625 
Q 43.21875 16.703125 43.21875 25.484375 
L 43.21875 27.484375 
z
M 52.203125 31.203125 
L 52.203125 0 
L 43.21875 0 
L 43.21875 8.296875 
Q 40.140625 3.328125 35.546875 0.953125 
Q 30.953125 -1.421875 24.3125 -1.421875 
Q 15.921875 -1.421875 10.953125 3.296875 
Q 6 8.015625 6 15.921875 
Q 6 25.140625 12.171875 29.828125 
Q 18.359375 34.515625 30.609375 34.515625 
L 43.21875 34.515625 
L 43.21875 35.40625 
Q 43.21875 41.609375 39.140625 45 
Q 35.0625 48.390625 27.6875 48.390625 
Q 23 48.390625 18.546875 47.265625 
Q 14.109375 46.140625 10.015625 43.890625 
L 10.015625 52.203125 
Q 14.9375 54.109375 19.578125 55.046875 
Q 24.21875 56 28.609375 56 
Q 40.484375 56 46.34375 49.84375 
Q 52.203125 43.703125 52.203125 31.203125 
z
" id="DejaVuSans-61"/>
       <path d="M 44.28125 53.078125 
L 44.28125 44.578125 
Q 40.484375 46.53125 36.375 47.5 
Q 32.28125 48.484375 27.875 48.484375 
Q 21.1875 48.484375 17.84375 46.4375 
Q 14.5 44.390625 14.5 40.28125 
Q 14.5 37.15625 16.890625 35.375 
Q 19.28125 33.59375 26.515625 31.984375 
L 29.59375 31.296875 
Q 39.15625 29.25 43.1875 25.515625 
Q 47.21875 21.78125 47.21875 15.09375 
Q 47.21875 7.46875 41.1875 3.015625 
Q 35.15625 -1.421875 24.609375 -1.421875 
Q 20.21875 -1.421875 15.453125 -0.5625 
Q 10.6875 0.296875 5.421875 2 
L 5.421875 11.28125 
Q 10.40625 8.6875 15.234375 7.390625 
Q 20.0625 6.109375 24.8125 6.109375 
Q 31.15625 6.109375 34.5625 8.28125 
Q 37.984375 10.453125 37.984375 14.40625 
Q 37.984375 18.0625 35.515625 20.015625 
Q 33.0625 21.96875 24.703125 23.78125 
L 21.578125 24.515625 
Q 13.234375 26.265625 9.515625 29.90625 
Q 5.8125 33.546875 5.8125 39.890625 
Q 5.8125 47.609375 11.28125 51.796875 
Q 16.75 56 26.8125 56 
Q 31.78125 56 36.171875 55.265625 
Q 40.578125 54.546875 44.28125 53.078125 
z
" id="DejaVuSans-73"/>
       <path d="M 54.890625 33.015625 
L 54.890625 0 
L 45.90625 0 
L 45.90625 32.71875 
Q 45.90625 40.484375 42.875 44.328125 
Q 39.84375 48.1875 33.796875 48.1875 
Q 26.515625 48.1875 22.3125 43.546875 
Q 18.109375 38.921875 18.109375 30.90625 
L 18.109375 0 
L 9.078125 0 
L 9.078125 75.984375 
L 18.109375 75.984375 
L 18.109375 46.1875 
Q 21.34375 51.125 25.703125 53.5625 
Q 30.078125 56 35.796875 56 
Q 45.21875 56 50.046875 50.171875 
Q 54.890625 44.34375 54.890625 33.015625 
z
" id="DejaVuSans-68"/>
      </defs>
      <g style="fill:#262626;" transform="translate(263.071094 780.058437)scale(0.1 -0.1)">
       <use xlink:href="#DejaVuSans-43"/>
       <use x="69.824219" xlink:href="#DejaVuSans-61"/>
       <use x="131.103516" xlink:href="#DejaVuSans-73"/>
       <use x="183.203125" xlink:href="#DejaVuSans-68"/>
      </g>
     </g>
    </g>
    <g id="xtick_2">
     <g id="line2d_2"/>
     <g id="text_2">
      <!-- Electronic -->
      <defs>
       <path d="M 9.8125 72.90625 
L 55.90625 72.90625 
L 55.90625 64.59375 
L 19.671875 64.59375 
L 19.671875 43.015625 
L 54.390625 43.015625 
L 54.390625 34.71875 
L 19.671875 34.71875 
L 19.671875 8.296875 
L 56.78125 8.296875 
L 56.78125 0 
L 9.8125 0 
z
" id="DejaVuSans-45"/>
       <path d="M 9.421875 75.984375 
L 18.40625 75.984375 
L 18.40625 0 
L 9.421875 0 
z
" id="DejaVuSans-6c"/>
       <path d="M 56.203125 29.59375 
L 56.203125 25.203125 
L 14.890625 25.203125 
Q 15.484375 15.921875 20.484375 11.0625 
Q 25.484375 6.203125 34.421875 6.203125 
Q 39.59375 6.203125 44.453125 7.46875 
Q 49.3125 8.734375 54.109375 11.28125 
L 54.109375 2.78125 
Q 49.265625 0.734375 44.1875 -0.34375 
Q 39.109375 -1.421875 33.890625 -1.421875 
Q 20.796875 -1.421875 13.15625 6.1875 
Q 5.515625 13.8125 5.515625 26.8125 
Q 5.515625 40.234375 12.765625 48.109375 
Q 20.015625 56 32.328125 56 
Q 43.359375 56 49.78125 48.890625 
Q 56.203125 41.796875 56.203125 29.59375 
z
M 47.21875 32.234375 
Q 47.125 39.59375 43.09375 43.984375 
Q 39.0625 48.390625 32.421875 48.390625 
Q 24.90625 48.390625 20.390625 44.140625 
Q 15.875 39.890625 15.1875 32.171875 
z
" id="DejaVuSans-65"/>
       <path d="M 48.78125 52.59375 
L 48.78125 44.1875 
Q 44.96875 46.296875 41.140625 47.34375 
Q 37.3125 48.390625 33.40625 48.390625 
Q 24.65625 48.390625 19.8125 42.84375 
Q 14.984375 37.3125 14.984375 27.296875 
Q 14.984375 17.28125 19.8125 11.734375 
Q 24.65625 6.203125 33.40625 6.203125 
Q 37.3125 6.203125 41.140625 7.25 
Q 44.96875 8.296875 48.78125 10.40625 
L 48.78125 2.09375 
Q 45.015625 0.34375 40.984375 -0.53125 
Q 36.96875 -1.421875 32.421875 -1.421875 
Q 20.0625 -1.421875 12.78125 6.34375 
Q 5.515625 14.109375 5.515625 27.296875 
Q 5.515625 40.671875 12.859375 48.328125 
Q 20.21875 56 33.015625 56 
Q 37.15625 56 41.109375 55.140625 
Q 45.0625 54.296875 48.78125 52.59375 
z
" id="DejaVuSans-63"/>
       <path d="M 18.3125 70.21875 
L 18.3125 54.6875 
L 36.8125 54.6875 
L 36.8125 47.703125 
L 18.3125 47.703125 
L 18.3125 18.015625 
Q 18.3125 11.328125 20.140625 9.421875 
Q 21.96875 7.515625 27.59375 7.515625 
L 36.8125 7.515625 
L 36.8125 0 
L 27.59375 0 
Q 17.1875 0 13.234375 3.875 
Q 9.28125 7.765625 9.28125 18.015625 
L 9.28125 47.703125 
L 2.6875 47.703125 
L 2.6875 54.6875 
L 9.28125 54.6875 
L 9.28125 70.21875 
z
" id="DejaVuSans-74"/>
       <path d="M 41.109375 46.296875 
Q 39.59375 47.171875 37.8125 47.578125 
Q 36.03125 48 33.890625 48 
Q 26.265625 48 22.1875 43.046875 
Q 18.109375 38.09375 18.109375 28.8125 
L 18.109375 0 
L 9.078125 0 
L 9.078125 54.6875 
L 18.109375 54.6875 
L 18.109375 46.1875 
Q 20.953125 51.171875 25.484375 53.578125 
Q 30.03125 56 36.53125 56 
Q 37.453125 56 38.578125 55.875 
Q 39.703125 55.765625 41.0625 55.515625 
z
" id="DejaVuSans-72"/>
       <path d="M 30.609375 48.390625 
Q 23.390625 48.390625 19.1875 42.75 
Q 14.984375 37.109375 14.984375 27.296875 
Q 14.984375 17.484375 19.15625 11.84375 
Q 23.34375 6.203125 30.609375 6.203125 
Q 37.796875 6.203125 41.984375 11.859375 
Q 46.1875 17.53125 46.1875 27.296875 
Q 46.1875 37.015625 41.984375 42.703125 
Q 37.796875 48.390625 30.609375 48.390625 
z
M 30.609375 56 
Q 42.328125 56 49.015625 48.375 
Q 55.71875 40.765625 55.71875 27.296875 
Q 55.71875 13.875 49.015625 6.21875 
Q 42.328125 -1.421875 30.609375 -1.421875 
Q 18.84375 -1.421875 12.171875 6.21875 
Q 5.515625 13.875 5.515625 27.296875 
Q 5.515625 40.765625 12.171875 48.375 
Q 18.84375 56 30.609375 56 
z
" id="DejaVuSans-6f"/>
       <path d="M 54.890625 33.015625 
L 54.890625 0 
L 45.90625 0 
L 45.90625 32.71875 
Q 45.90625 40.484375 42.875 44.328125 
Q 39.84375 48.1875 33.796875 48.1875 
Q 26.515625 48.1875 22.3125 43.546875 
Q 18.109375 38.921875 18.109375 30.90625 
L 18.109375 0 
L 9.078125 0 
L 9.078125 54.6875 
L 18.109375 54.6875 
L 18.109375 46.1875 
Q 21.34375 51.125 25.703125 53.5625 
Q 30.078125 56 35.796875 56 
Q 45.21875 56 50.046875 50.171875 
Q 54.890625 44.34375 54.890625 33.015625 
z
" id="DejaVuSans-6e"/>
       <path d="M 9.421875 54.6875 
L 18.40625 54.6875 
L 18.40625 0 
L 9.421875 0 
z
M 9.421875 75.984375 
L 18.40625 75.984375 
L 18.40625 64.59375 
L 9.421875 64.59375 
z
" id="DejaVuSans-69"/>
      </defs>
      <g style="fill:#262626;" transform="translate(585.445312 780.058437)scale(0.1 -0.1)">
       <use xlink:href="#DejaVuSans-45"/>
       <use x="63.183594" xlink:href="#DejaVuSans-6c"/>
       <use x="90.966797" xlink:href="#DejaVuSans-65"/>
       <use x="152.490234" xlink:href="#DejaVuSans-63"/>
       <use x="207.470703" xlink:href="#DejaVuSans-74"/>
       <use x="246.679688" xlink:href="#DejaVuSans-72"/>
       <use x="287.761719" xlink:href="#DejaVuSans-6f"/>
       <use x="348.943359" xlink:href="#DejaVuSans-6e"/>
       <use x="412.322266" xlink:href="#DejaVuSans-69"/>
       <use x="440.105469" xlink:href="#DejaVuSans-63"/>
      </g>
     </g>
    </g>
    <g id="text_3">
     <!-- Form -->
     <defs>
      <path d="M 9.8125 72.90625 
L 51.703125 72.90625 
L 51.703125 64.59375 
L 19.671875 64.59375 
L 19.671875 43.109375 
L 48.578125 43.109375 
L 48.578125 34.8125 
L 19.671875 34.8125 
L 19.671875 0 
L 9.8125 0 
z
" id="DejaVuSans-46"/>
      <path d="M 52 44.1875 
Q 55.375 50.25 60.0625 53.125 
Q 64.75 56 71.09375 56 
Q 79.640625 56 84.28125 50.015625 
Q 88.921875 44.046875 88.921875 33.015625 
L 88.921875 0 
L 79.890625 0 
L 79.890625 32.71875 
Q 79.890625 40.578125 77.09375 44.375 
Q 74.3125 48.1875 68.609375 48.1875 
Q 61.625 48.1875 57.5625 43.546875 
Q 53.515625 38.921875 53.515625 30.90625 
L 53.515625 0 
L 44.484375 0 
L 44.484375 32.71875 
Q 44.484375 40.625 41.703125 44.40625 
Q 38.921875 48.1875 33.109375 48.1875 
Q 26.21875 48.1875 22.15625 43.53125 
Q 18.109375 38.875 18.109375 30.90625 
L 18.109375 0 
L 9.078125 0 
L 9.078125 54.6875 
L 18.109375 54.6875 
L 18.109375 46.1875 
Q 21.1875 51.21875 25.484375 53.609375 
Q 29.78125 56 35.6875 56 
Q 41.65625 56 45.828125 52.96875 
Q 50 49.953125 52 44.1875 
z
" id="DejaVuSans-6d"/>
     </defs>
     <g style="fill:#262626;" transform="translate(429.942187 793.736562)scale(0.1 -0.1)">
      <use xlink:href="#DejaVuSans-46"/>
      <use x="57.472656" xlink:href="#DejaVuSans-6f"/>
      <use x="118.654297" xlink:href="#DejaVuSans-72"/>
      <use x="159.751953" xlink:href="#DejaVuSans-6d"/>
     </g>
    </g>
   </g>
   <g id="matplotlib.axis_2">
    <g id="ytick_1">
     <g id="line2d_3">
      <path clip-path="url(#p5e5593190c)" d="M 108 768.96 
L 777.6 768.96 
" style="fill:none;stroke:#ffffff;stroke-linecap:round;stroke-width:0.8;"/>
     </g>
     <g id="line2d_4"/>
     <g id="text_4">
      <!-- 0 -->
      <defs>
       <path d="M 31.78125 66.40625 
Q 24.171875 66.40625 20.328125 58.90625 
Q 16.5 51.421875 16.5 36.375 
Q 16.5 21.390625 20.328125 13.890625 
Q 24.171875 6.390625 31.78125 6.390625 
Q 39.453125 6.390625 43.28125 13.890625 
Q 47.125 21.390625 47.125 36.375 
Q 47.125 51.421875 43.28125 58.90625 
Q 39.453125 66.40625 31.78125 66.40625 
z
M 31.78125 74.21875 
Q 44.046875 74.21875 50.515625 64.515625 
Q 56.984375 54.828125 56.984375 36.375 
Q 56.984375 17.96875 50.515625 8.265625 
Q 44.046875 -1.421875 31.78125 -1.421875 
Q 19.53125 -1.421875 13.0625 8.265625 
Q 6.59375 17.96875 6.59375 36.375 
Q 6.59375 54.828125 13.0625 64.515625 
Q 19.53125 74.21875 31.78125 74.21875 
z
" id="DejaVuSans-30"/>
      </defs>
      <g style="fill:#262626;" transform="translate(98.1375 772.759219)scale(0.1 -0.1)">
       <use xlink:href="#DejaVuSans-30"/>
      </g>
     </g>
    </g>
    <g id="ytick_2">
     <g id="line2d_5">
      <path clip-path="url(#p5e5593190c)" d="M 108 624.96 
L 777.6 624.96 
" style="fill:none;stroke:#ffffff;stroke-linecap:round;stroke-width:0.8;"/>
     </g>
     <g id="line2d_6"/>
     <g id="text_5">
      <!-- 50 -->
      <defs>
       <path d="M 10.796875 72.90625 
L 49.515625 72.90625 
L 49.515625 64.59375 
L 19.828125 64.59375 
L 19.828125 46.734375 
Q 21.96875 47.46875 24.109375 47.828125 
Q 26.265625 48.1875 28.421875 48.1875 
Q 40.625 48.1875 47.75 41.5 
Q 54.890625 34.8125 54.890625 23.390625 
Q 54.890625 11.625 47.5625 5.09375 
Q 40.234375 -1.421875 26.90625 -1.421875 
Q 22.3125 -1.421875 17.546875 -0.640625 
Q 12.796875 0.140625 7.71875 1.703125 
L 7.71875 11.625 
Q 12.109375 9.234375 16.796875 8.0625 
Q 21.484375 6.890625 26.703125 6.890625 
Q 35.15625 6.890625 40.078125 11.328125 
Q 45.015625 15.765625 45.015625 23.390625 
Q 45.015625 31 40.078125 35.4375 
Q 35.15625 39.890625 26.703125 39.890625 
Q 22.75 39.890625 18.8125 39.015625 
Q 14.890625 38.140625 10.796875 36.28125 
z
" id="DejaVuSans-35"/>
      </defs>
      <g style="fill:#262626;" transform="translate(91.775 628.759219)scale(0.1 -0.1)">
       <use xlink:href="#DejaVuSans-35"/>
       <use x="63.623047" xlink:href="#DejaVuSans-30"/>
      </g>
     </g>
    </g>
    <g id="ytick_3">
     <g id="line2d_7">
      <path clip-path="url(#p5e5593190c)" d="M 108 480.96 
L 777.6 480.96 
" style="fill:none;stroke:#ffffff;stroke-linecap:round;stroke-width:0.8;"/>
     </g>
     <g id="line2d_8"/>
     <g id="text_6">
      <!-- 100 -->
      <defs>
       <path d="M 12.40625 8.296875 
L 28.515625 8.296875 
L 28.515625 63.921875 
L 10.984375 60.40625 
L 10.984375 69.390625 
L 28.421875 72.90625 
L 38.28125 72.90625 
L 38.28125 8.296875 
L 54.390625 8.296875 
L 54.390625 0 
L 12.40625 0 
z
" id="DejaVuSans-31"/>
      </defs>
      <g style="fill:#262626;" transform="translate(85.4125 484.759219)scale(0.1 -0.1)">
       <use xlink:href="#DejaVuSans-31"/>
       <use x="63.623047" xlink:href="#DejaVuSans-30"/>
       <use x="127.246094" xlink:href="#DejaVuSans-30"/>
      </g>
     </g>
    </g>
    <g id="ytick_4">
     <g id="line2d_9">
      <path clip-path="url(#p5e5593190c)" d="M 108 336.96 
L 777.6 336.96 
" style="fill:none;stroke:#ffffff;stroke-linecap:round;stroke-width:0.8;"/>
     </g>
     <g id="line2d_10"/>
     <g id="text_7">
      <!-- 150 -->
      <g style="fill:#262626;" transform="translate(85.4125 340.759219)scale(0.1 -0.1)">
       <use xlink:href="#DejaVuSans-31"/>
       <use x="63.623047" xlink:href="#DejaVuSans-35"/>
       <use x="127.246094" xlink:href="#DejaVuSans-30"/>
      </g>
     </g>
    </g>
    <g id="ytick_5">
     <g id="line2d_11">
      <path clip-path="url(#p5e5593190c)" d="M 108 192.96 
L 777.6 192.96 
" style="fill:none;stroke:#ffffff;stroke-linecap:round;stroke-width:0.8;"/>
     </g>
     <g id="line2d_12"/>
     <g id="text_8">
      <!-- 200 -->
      <defs>
       <path d="M 19.1875 8.296875 
L 53.609375 8.296875 
L 53.609375 0 
L 7.328125 0 
L 7.328125 8.296875 
Q 12.9375 14.109375 22.625 23.890625 
Q 32.328125 33.6875 34.8125 36.53125 
Q 39.546875 41.84375 41.421875 45.53125 
Q 43.3125 49.21875 43.3125 52.78125 
Q 43.3125 58.59375 39.234375 62.25 
Q 35.15625 65.921875 28.609375 65.921875 
Q 23.96875 65.921875 18.8125 64.3125 
Q 13.671875 62.703125 7.8125 59.421875 
L 7.8125 69.390625 
Q 13.765625 71.78125 18.9375 73 
Q 24.125 74.21875 28.421875 74.21875 
Q 39.75 74.21875 46.484375 68.546875 
Q 53.21875 62.890625 53.21875 53.421875 
Q 53.21875 48.921875 51.53125 44.890625 
Q 49.859375 40.875 45.40625 35.40625 
Q 44.1875 33.984375 37.640625 27.21875 
Q 31.109375 20.453125 19.1875 8.296875 
z
" id="DejaVuSans-32"/>
      </defs>
      <g style="fill:#262626;" transform="translate(85.4125 196.759219)scale(0.1 -0.1)">
       <use xlink:href="#DejaVuSans-32"/>
       <use x="63.623047" xlink:href="#DejaVuSans-30"/>
       <use x="127.246094" xlink:href="#DejaVuSans-30"/>
      </g>
     </g>
    </g>
    <g id="text_9">
     <!-- count -->
     <defs>
      <path d="M 8.5 21.578125 
L 8.5 54.6875 
L 17.484375 54.6875 
L 17.484375 21.921875 
Q 17.484375 14.15625 20.5 10.265625 
Q 23.53125 6.390625 29.59375 6.390625 
Q 36.859375 6.390625 41.078125 11.03125 
Q 45.3125 15.671875 45.3125 23.6875 
L 45.3125 54.6875 
L 54.296875 54.6875 
L 54.296875 0 
L 45.3125 0 
L 45.3125 8.40625 
Q 42.046875 3.421875 37.71875 1 
Q 33.40625 -1.421875 27.6875 -1.421875 
Q 18.265625 -1.421875 13.375 4.4375 
Q 8.5 10.296875 8.5 21.578125 
z
M 31.109375 56 
z
" id="DejaVuSans-75"/>
     </defs>
     <g style="fill:#262626;" transform="translate(79.332812 450.42625)rotate(-90)scale(0.1 -0.1)">
      <use xlink:href="#DejaVuSans-63"/>
      <use x="54.980469" xlink:href="#DejaVuSans-6f"/>
      <use x="116.162109" xlink:href="#DejaVuSans-75"/>
      <use x="179.541016" xlink:href="#DejaVuSans-6e"/>
      <use x="242.919922" xlink:href="#DejaVuSans-74"/>
     </g>
    </g>
   </g>
   <g id="patch_3">
    <path clip-path="url(#p5e5593190c)" d="M 141.48 768.96 
L 151.045714 768.96 
L 151.045714 339.84 
L 141.48 339.84 
z
" style="fill:#34383b;"/>
   </g>
   <g id="patch_4">
    <path clip-path="url(#p5e5593190c)" d="M 476.28 768.96 
L 485.845714 768.96 
L 485.845714 763.2 
L 476.28 763.2 
z
" style="fill:#34383b;"/>
   </g>
   <g id="patch_5">
    <path clip-path="url(#p5e5593190c)" d="z
" style="fill:#363e44;"/>
   </g>
   <g id="patch_6">
    <path clip-path="url(#p5e5593190c)" d="M 485.845714 768.96 
L 495.411429 768.96 
L 495.411429 708.48 
L 485.845714 708.48 
z
" style="fill:#363e44;"/>
   </g>
   <g id="patch_7">
    <path clip-path="url(#p5e5593190c)" d="M 160.611429 768.96 
L 170.177143 768.96 
L 170.177143 671.04 
L 160.611429 671.04 
z
" style="fill:#37444c;"/>
   </g>
   <g id="patch_8">
    <path clip-path="url(#p5e5593190c)" d="M 495.411429 768.96 
L 504.977143 768.96 
L 504.977143 443.52 
L 495.411429 443.52 
z
" style="fill:#37444c;"/>
   </g>
   <g id="patch_9">
    <path clip-path="url(#p5e5593190c)" d="M 170.177143 768.96 
L 179.742857 768.96 
L 179.742857 708.48 
L 170.177143 708.48 
z
" style="fill:#394955;"/>
   </g>
   <g id="patch_10">
    <path clip-path="url(#p5e5593190c)" d="M 504.977143 768.96 
L 514.542857 768.96 
L 514.542857 656.64 
L 504.977143 656.64 
z
" style="fill:#394955;"/>
   </g>
   <g id="patch_11">
    <path clip-path="url(#p5e5593190c)" d="M 179.742857 768.96 
L 189.308571 768.96 
L 189.308571 754.56 
L 179.742857 754.56 
z
" style="fill:#3a4f5e;"/>
   </g>
   <g id="patch_12">
    <path clip-path="url(#p5e5593190c)" d="M 514.542857 768.96 
L 524.108571 768.96 
L 524.108571 607.68 
L 514.542857 607.68 
z
" style="fill:#3a4f5e;"/>
   </g>
   <g id="patch_13">
    <path clip-path="url(#p5e5593190c)" d="M 189.308571 768.96 
L 198.874286 768.96 
L 198.874286 763.2 
L 189.308571 763.2 
z
" style="fill:#3c5466;"/>
   </g>
   <g id="patch_14">
    <path clip-path="url(#p5e5593190c)" d="M 524.108571 768.96 
L 533.674286 768.96 
L 533.674286 135.36 
L 524.108571 135.36 
z
" style="fill:#3c5466;"/>
   </g>
   <g id="patch_15">
    <path clip-path="url(#p5e5593190c)" d="M 198.874286 768.96 
L 208.44 768.96 
L 208.44 705.6 
L 198.874286 705.6 
z
" style="fill:#3d5a6e;"/>
   </g>
   <g id="patch_16">
    <path clip-path="url(#p5e5593190c)" d="M 533.674286 768.96 
L 543.24 768.96 
L 543.24 694.08 
L 533.674286 694.08 
z
" style="fill:#3d5a6e;"/>
   </g>
   <g id="patch_17">
    <path clip-path="url(#p5e5593190c)" d="z
" style="fill:#3f6077;"/>
   </g>
   <g id="patch_18">
    <path clip-path="url(#p5e5593190c)" d="M 543.24 768.96 
L 552.805714 768.96 
L 552.805714 763.2 
L 543.24 763.2 
z
" style="fill:#3f6077;"/>
   </g>
   <g id="patch_19">
    <path clip-path="url(#p5e5593190c)" d="z
" style="fill:#406580;"/>
   </g>
   <g id="patch_20">
    <path clip-path="url(#p5e5593190c)" d="M 552.805714 768.96 
L 562.371429 768.96 
L 562.371429 699.84 
L 552.805714 699.84 
z
" style="fill:#406580;"/>
   </g>
   <g id="patch_21">
    <path clip-path="url(#p5e5593190c)" d="M 227.571429 768.96 
L 237.137143 768.96 
L 237.137143 694.08 
L 227.571429 694.08 
z
" style="fill:#426b89;"/>
   </g>
   <g id="patch_22">
    <path clip-path="url(#p5e5593190c)" d="M 562.371429 768.96 
L 571.937143 768.96 
L 571.937143 717.12 
L 562.371429 717.12 
z
" style="fill:#426b89;"/>
   </g>
   <g id="patch_23">
    <path clip-path="url(#p5e5593190c)" d="M 237.137143 768.96 
L 246.702857 768.96 
L 246.702857 711.36 
L 237.137143 711.36 
z
" style="fill:#437191;"/>
   </g>
   <g id="patch_24">
    <path clip-path="url(#p5e5593190c)" d="M 571.937143 768.96 
L 581.502857 768.96 
L 581.502857 656.64 
L 571.937143 656.64 
z
" style="fill:#437191;"/>
   </g>
   <g id="patch_25">
    <path clip-path="url(#p5e5593190c)" d="M 246.702857 768.96 
L 256.268571 768.96 
L 256.268571 766.08 
L 246.702857 766.08 
z
" style="fill:#447699;"/>
   </g>
   <g id="patch_26">
    <path clip-path="url(#p5e5593190c)" d="M 581.502857 768.96 
L 591.068571 768.96 
L 591.068571 688.32 
L 581.502857 688.32 
z
" style="fill:#447699;"/>
   </g>
   <g id="patch_27">
    <path clip-path="url(#p5e5593190c)" d="z
" style="fill:#467ca2;"/>
   </g>
   <g id="patch_28">
    <path clip-path="url(#p5e5593190c)" d="M 591.068571 768.96 
L 600.634286 768.96 
L 600.634286 552.96 
L 591.068571 552.96 
z
" style="fill:#467ca2;"/>
   </g>
   <g id="patch_29">
    <path clip-path="url(#p5e5593190c)" d="M 265.834286 768.96 
L 275.4 768.96 
L 275.4 743.04 
L 265.834286 743.04 
z
" style="fill:#4781ab;"/>
   </g>
   <g id="patch_30">
    <path clip-path="url(#p5e5593190c)" d="M 600.634286 768.96 
L 610.2 768.96 
L 610.2 751.68 
L 600.634286 751.68 
z
" style="fill:#4781ab;"/>
   </g>
   <g id="patch_31">
    <path clip-path="url(#p5e5593190c)" d="M 275.4 768.96 
L 284.965714 768.96 
L 284.965714 717.12 
L 275.4 717.12 
z
" style="fill:#4c87b1;"/>
   </g>
   <g id="patch_32">
    <path clip-path="url(#p5e5593190c)" d="M 610.2 768.96 
L 619.765714 768.96 
L 619.765714 694.08 
L 610.2 694.08 
z
" style="fill:#4c87b1;"/>
   </g>
   <g id="patch_33">
    <path clip-path="url(#p5e5593190c)" d="z
" style="fill:#538cb4;"/>
   </g>
   <g id="patch_34">
    <path clip-path="url(#p5e5593190c)" d="M 619.765714 768.96 
L 629.331429 768.96 
L 629.331429 734.4 
L 619.765714 734.4 
z
" style="fill:#538cb4;"/>
   </g>
   <g id="patch_35">
    <path clip-path="url(#p5e5593190c)" d="z
" style="fill:#5b91b7;"/>
   </g>
   <g id="patch_36">
    <path clip-path="url(#p5e5593190c)" d="M 629.331429 768.96 
L 638.897143 768.96 
L 638.897143 731.52 
L 629.331429 731.52 
z
" style="fill:#5b91b7;"/>
   </g>
   <g id="patch_37">
    <path clip-path="url(#p5e5593190c)" d="z
" style="fill:#6296ba;"/>
   </g>
   <g id="patch_38">
    <path clip-path="url(#p5e5593190c)" d="M 638.897143 768.96 
L 648.462857 768.96 
L 648.462857 671.04 
L 638.897143 671.04 
z
" style="fill:#6296ba;"/>
   </g>
   <g id="patch_39">
    <path clip-path="url(#p5e5593190c)" d="z
" style="fill:#699bbe;"/>
   </g>
   <g id="patch_40">
    <path clip-path="url(#p5e5593190c)" d="M 648.462857 768.96 
L 658.028571 768.96 
L 658.028571 754.56 
L 648.462857 754.56 
z
" style="fill:#699bbe;"/>
   </g>
   <g id="patch_41">
    <path clip-path="url(#p5e5593190c)" d="M 323.228571 768.96 
L 332.794286 768.96 
L 332.794286 763.2 
L 323.228571 763.2 
z
" style="fill:#71a0c1;"/>
   </g>
   <g id="patch_42">
    <path clip-path="url(#p5e5593190c)" d="M 658.028571 768.96 
L 667.594286 768.96 
L 667.594286 711.36 
L 658.028571 711.36 
z
" style="fill:#71a0c1;"/>
   </g>
   <g id="patch_43">
    <path clip-path="url(#p5e5593190c)" d="z
" style="fill:#78a5c4;"/>
   </g>
   <g id="patch_44">
    <path clip-path="url(#p5e5593190c)" d="M 667.594286 768.96 
L 677.16 768.96 
L 677.16 725.76 
L 667.594286 725.76 
z
" style="fill:#78a5c4;"/>
   </g>
   <g id="patch_45">
    <path clip-path="url(#p5e5593190c)" d="z
" style="fill:#80abc8;"/>
   </g>
   <g id="patch_46">
    <path clip-path="url(#p5e5593190c)" d="M 677.16 768.96 
L 686.725714 768.96 
L 686.725714 751.68 
L 677.16 751.68 
z
" style="fill:#80abc8;"/>
   </g>
   <g id="patch_47">
    <path clip-path="url(#p5e5593190c)" d="z
" style="fill:#87b0cb;"/>
   </g>
   <g id="patch_48">
    <path clip-path="url(#p5e5593190c)" d="M 686.725714 768.96 
L 696.291429 768.96 
L 696.291429 754.56 
L 686.725714 754.56 
z
" style="fill:#87b0cb;"/>
   </g>
   <g id="patch_49">
    <path clip-path="url(#p5e5593190c)" d="z
" style="fill:#8eb4ce;"/>
   </g>
   <g id="patch_50">
    <path clip-path="url(#p5e5593190c)" d="M 696.291429 768.96 
L 705.857143 768.96 
L 705.857143 763.2 
L 696.291429 763.2 
z
" style="fill:#8eb4ce;"/>
   </g>
   <g id="patch_51">
    <path clip-path="url(#p5e5593190c)" d="z
" style="fill:#95bad1;"/>
   </g>
   <g id="patch_52">
    <path clip-path="url(#p5e5593190c)" d="M 705.857143 768.96 
L 715.422857 768.96 
L 715.422857 766.08 
L 705.857143 766.08 
z
" style="fill:#95bad1;"/>
   </g>
   <g id="patch_53">
    <path clip-path="url(#p5e5593190c)" d="z
" style="fill:#9dbfd5;"/>
   </g>
   <g id="patch_54">
    <path clip-path="url(#p5e5593190c)" d="M 715.422857 768.96 
L 724.988571 768.96 
L 724.988571 757.44 
L 715.422857 757.44 
z
" style="fill:#9dbfd5;"/>
   </g>
   <g id="patch_55">
    <path clip-path="url(#p5e5593190c)" d="M 390.188571 768.96 
L 399.754286 768.96 
L 399.754286 763.2 
L 390.188571 763.2 
z
" style="fill:#a4c4d8;"/>
   </g>
   <g id="patch_56">
    <path clip-path="url(#p5e5593190c)" d="z
" style="fill:#a4c4d8;"/>
   </g>
   <g id="patch_57">
    <path clip-path="url(#p5e5593190c)" d="z
" style="fill:#acc9db;"/>
   </g>
   <g id="patch_58">
    <path clip-path="url(#p5e5593190c)" d="M 734.554286 768.96 
L 744.12 768.96 
L 744.12 766.08 
L 734.554286 766.08 
z
" style="fill:#acc9db;"/>
   </g>
   <g id="patch_59">
    <path d="M 108 768.96 
L 108 103.68 
" style="fill:none;"/>
   </g>
   <g id="patch_60">
    <path d="M 777.6 768.96 
L 777.6 103.68 
" style="fill:none;"/>
   </g>
   <g id="patch_61">
    <path d="M 108 768.96 
L 777.6 768.96 
" style="fill:none;"/>
   </g>
   <g id="patch_62">
    <path d="M 108 103.68 
L 777.6 103.68 
" style="fill:none;"/>
   </g>
   <g id="legend_1">
    <g id="text_10">
     <!-- Category -->
     <defs>
      <path d="M 45.40625 27.984375 
Q 45.40625 37.75 41.375 43.109375 
Q 37.359375 48.484375 30.078125 48.484375 
Q 22.859375 48.484375 18.828125 43.109375 
Q 14.796875 37.75 14.796875 27.984375 
Q 14.796875 18.265625 18.828125 12.890625 
Q 22.859375 7.515625 30.078125 7.515625 
Q 37.359375 7.515625 41.375 12.890625 
Q 45.40625 18.265625 45.40625 27.984375 
z
M 54.390625 6.78125 
Q 54.390625 -7.171875 48.1875 -13.984375 
Q 42 -20.796875 29.203125 -20.796875 
Q 24.46875 -20.796875 20.265625 -20.09375 
Q 16.0625 -19.390625 12.109375 -17.921875 
L 12.109375 -9.1875 
Q 16.0625 -11.328125 19.921875 -12.34375 
Q 23.78125 -13.375 27.78125 -13.375 
Q 36.625 -13.375 41.015625 -8.765625 
Q 45.40625 -4.15625 45.40625 5.171875 
L 45.40625 9.625 
Q 42.625 4.78125 38.28125 2.390625 
Q 33.9375 0 27.875 0 
Q 17.828125 0 11.671875 7.65625 
Q 5.515625 15.328125 5.515625 27.984375 
Q 5.515625 40.671875 11.671875 48.328125 
Q 17.828125 56 27.875 56 
Q 33.9375 56 38.28125 53.609375 
Q 42.625 51.21875 45.40625 46.390625 
L 45.40625 54.6875 
L 54.390625 54.6875 
z
" id="DejaVuSans-67"/>
      <path d="M 32.171875 -5.078125 
Q 28.375 -14.84375 24.75 -17.8125 
Q 21.140625 -20.796875 15.09375 -20.796875 
L 7.90625 -20.796875 
L 7.90625 -13.28125 
L 13.1875 -13.28125 
Q 16.890625 -13.28125 18.9375 -11.515625 
Q 21 -9.765625 23.484375 -3.21875 
L 25.09375 0.875 
L 2.984375 54.6875 
L 12.5 54.6875 
L 29.59375 11.921875 
L 46.6875 54.6875 
L 56.203125 54.6875 
z
" id="DejaVuSans-79"/>
     </defs>
     <g style="fill:#262626;" transform="translate(678.79375 120.278437)scale(0.1 -0.1)">
      <use xlink:href="#DejaVuSans-43"/>
      <use x="69.824219" xlink:href="#DejaVuSans-61"/>
      <use x="131.103516" xlink:href="#DejaVuSans-74"/>
      <use x="170.3125" xlink:href="#DejaVuSans-65"/>
      <use x="231.835938" xlink:href="#DejaVuSans-67"/>
      <use x="295.3125" xlink:href="#DejaVuSans-6f"/>
      <use x="356.494141" xlink:href="#DejaVuSans-72"/>
      <use x="397.607422" xlink:href="#DejaVuSans-79"/>
     </g>
    </g>
    <g id="patch_63">
     <path d="M 634.66875 134.956562 
L 654.66875 134.956562 
L 654.66875 127.956562 
L 634.66875 127.956562 
z
" style="fill:#34383b;"/>
    </g>
    <g id="text_11">
     <!-- Transportation -->
     <defs>
      <path d="M -0.296875 72.90625 
L 61.375 72.90625 
L 61.375 64.59375 
L 35.5 64.59375 
L 35.5 0 
L 25.59375 0 
L 25.59375 64.59375 
L -0.296875 64.59375 
z
" id="DejaVuSans-54"/>
      <path d="M 18.109375 8.203125 
L 18.109375 -20.796875 
L 9.078125 -20.796875 
L 9.078125 54.6875 
L 18.109375 54.6875 
L 18.109375 46.390625 
Q 20.953125 51.265625 25.265625 53.625 
Q 29.59375 56 35.59375 56 
Q 45.5625 56 51.78125 48.09375 
Q 58.015625 40.1875 58.015625 27.296875 
Q 58.015625 14.40625 51.78125 6.484375 
Q 45.5625 -1.421875 35.59375 -1.421875 
Q 29.59375 -1.421875 25.265625 0.953125 
Q 20.953125 3.328125 18.109375 8.203125 
z
M 48.6875 27.296875 
Q 48.6875 37.203125 44.609375 42.84375 
Q 40.53125 48.484375 33.40625 48.484375 
Q 26.265625 48.484375 22.1875 42.84375 
Q 18.109375 37.203125 18.109375 27.296875 
Q 18.109375 17.390625 22.1875 11.75 
Q 26.265625 6.109375 33.40625 6.109375 
Q 40.53125 6.109375 44.609375 11.75 
Q 48.6875 17.390625 48.6875 27.296875 
z
" id="DejaVuSans-70"/>
     </defs>
     <g style="fill:#262626;" transform="translate(662.66875 134.956562)scale(0.1 -0.1)">
      <use xlink:href="#DejaVuSans-54"/>
      <use x="60.865234" xlink:href="#DejaVuSans-72"/>
      <use x="101.978516" xlink:href="#DejaVuSans-61"/>
      <use x="163.257812" xlink:href="#DejaVuSans-6e"/>
      <use x="226.636719" xlink:href="#DejaVuSans-73"/>
      <use x="278.736328" xlink:href="#DejaVuSans-70"/>
      <use x="342.212891" xlink:href="#DejaVuSans-6f"/>
      <use x="403.394531" xlink:href="#DejaVuSans-72"/>
      <use x="444.507812" xlink:href="#DejaVuSans-74"/>
      <use x="483.716797" xlink:href="#DejaVuSans-61"/>
      <use x="544.996094" xlink:href="#DejaVuSans-74"/>
      <use x="584.205078" xlink:href="#DejaVuSans-69"/>
      <use x="611.988281" xlink:href="#DejaVuSans-6f"/>
      <use x="673.169922" xlink:href="#DejaVuSans-6e"/>
     </g>
    </g>
    <g id="patch_64">
     <path d="M 634.66875 149.634687 
L 654.66875 149.634687 
L 654.66875 142.634687 
L 634.66875 142.634687 
z
" style="fill:#363e44;"/>
    </g>
    <g id="text_12">
     <!-- Business_Services -->
     <defs>
      <path d="M 19.671875 34.8125 
L 19.671875 8.109375 
L 35.5 8.109375 
Q 43.453125 8.109375 47.28125 11.40625 
Q 51.125 14.703125 51.125 21.484375 
Q 51.125 28.328125 47.28125 31.5625 
Q 43.453125 34.8125 35.5 34.8125 
z
M 19.671875 64.796875 
L 19.671875 42.828125 
L 34.28125 42.828125 
Q 41.5 42.828125 45.03125 45.53125 
Q 48.578125 48.25 48.578125 53.8125 
Q 48.578125 59.328125 45.03125 62.0625 
Q 41.5 64.796875 34.28125 64.796875 
z
M 9.8125 72.90625 
L 35.015625 72.90625 
Q 46.296875 72.90625 52.390625 68.21875 
Q 58.5 63.53125 58.5 54.890625 
Q 58.5 48.1875 55.375 44.234375 
Q 52.25 40.28125 46.1875 39.3125 
Q 53.46875 37.75 57.5 32.78125 
Q 61.53125 27.828125 61.53125 20.40625 
Q 61.53125 10.640625 54.890625 5.3125 
Q 48.25 0 35.984375 0 
L 9.8125 0 
z
" id="DejaVuSans-42"/>
      <path d="M 50.984375 -16.609375 
L 50.984375 -23.578125 
L -0.984375 -23.578125 
L -0.984375 -16.609375 
z
" id="DejaVuSans-5f"/>
      <path d="M 53.515625 70.515625 
L 53.515625 60.890625 
Q 47.90625 63.578125 42.921875 64.890625 
Q 37.9375 66.21875 33.296875 66.21875 
Q 25.25 66.21875 20.875 63.09375 
Q 16.5 59.96875 16.5 54.203125 
Q 16.5 49.359375 19.40625 46.890625 
Q 22.3125 44.4375 30.421875 42.921875 
L 36.375 41.703125 
Q 47.40625 39.59375 52.65625 34.296875 
Q 57.90625 29 57.90625 20.125 
Q 57.90625 9.515625 50.796875 4.046875 
Q 43.703125 -1.421875 29.984375 -1.421875 
Q 24.8125 -1.421875 18.96875 -0.25 
Q 13.140625 0.921875 6.890625 3.21875 
L 6.890625 13.375 
Q 12.890625 10.015625 18.65625 8.296875 
Q 24.421875 6.59375 29.984375 6.59375 
Q 38.421875 6.59375 43.015625 9.90625 
Q 47.609375 13.234375 47.609375 19.390625 
Q 47.609375 24.75 44.3125 27.78125 
Q 41.015625 30.8125 33.5 32.328125 
L 27.484375 33.5 
Q 16.453125 35.6875 11.515625 40.375 
Q 6.59375 45.0625 6.59375 53.421875 
Q 6.59375 63.09375 13.40625 68.65625 
Q 20.21875 74.21875 32.171875 74.21875 
Q 37.3125 74.21875 42.625 73.28125 
Q 47.953125 72.359375 53.515625 70.515625 
z
" id="DejaVuSans-53"/>
      <path d="M 2.984375 54.6875 
L 12.5 54.6875 
L 29.59375 8.796875 
L 46.6875 54.6875 
L 56.203125 54.6875 
L 35.6875 0 
L 23.484375 0 
z
" id="DejaVuSans-76"/>
     </defs>
     <g style="fill:#262626;" transform="translate(662.66875 149.634687)scale(0.1 -0.1)">
      <use xlink:href="#DejaVuSans-42"/>
      <use x="68.603516" xlink:href="#DejaVuSans-75"/>
      <use x="131.982422" xlink:href="#DejaVuSans-73"/>
      <use x="184.082031" xlink:href="#DejaVuSans-69"/>
      <use x="211.865234" xlink:href="#DejaVuSans-6e"/>
      <use x="275.244141" xlink:href="#DejaVuSans-65"/>
      <use x="336.767578" xlink:href="#DejaVuSans-73"/>
      <use x="388.867188" xlink:href="#DejaVuSans-73"/>
      <use x="440.966797" xlink:href="#DejaVuSans-5f"/>
      <use x="490.966797" xlink:href="#DejaVuSans-53"/>
      <use x="554.443359" xlink:href="#DejaVuSans-65"/>
      <use x="615.966797" xlink:href="#DejaVuSans-72"/>
      <use x="657.080078" xlink:href="#DejaVuSans-76"/>
      <use x="716.259766" xlink:href="#DejaVuSans-69"/>
      <use x="744.042969" xlink:href="#DejaVuSans-63"/>
      <use x="799.023438" xlink:href="#DejaVuSans-65"/>
      <use x="860.546875" xlink:href="#DejaVuSans-73"/>
     </g>
    </g>
    <g id="patch_65">
     <path d="M 634.66875 164.590937 
L 654.66875 164.590937 
L 654.66875 157.590937 
L 634.66875 157.590937 
z
" style="fill:#37444c;"/>
    </g>
    <g id="text_13">
     <!-- Earned Income -->
     <defs>
      <path d="M 45.40625 46.390625 
L 45.40625 75.984375 
L 54.390625 75.984375 
L 54.390625 0 
L 45.40625 0 
L 45.40625 8.203125 
Q 42.578125 3.328125 38.25 0.953125 
Q 33.9375 -1.421875 27.875 -1.421875 
Q 17.96875 -1.421875 11.734375 6.484375 
Q 5.515625 14.40625 5.515625 27.296875 
Q 5.515625 40.1875 11.734375 48.09375 
Q 17.96875 56 27.875 56 
Q 33.9375 56 38.25 53.625 
Q 42.578125 51.265625 45.40625 46.390625 
z
M 14.796875 27.296875 
Q 14.796875 17.390625 18.875 11.75 
Q 22.953125 6.109375 30.078125 6.109375 
Q 37.203125 6.109375 41.296875 11.75 
Q 45.40625 17.390625 45.40625 27.296875 
Q 45.40625 37.203125 41.296875 42.84375 
Q 37.203125 48.484375 30.078125 48.484375 
Q 22.953125 48.484375 18.875 42.84375 
Q 14.796875 37.203125 14.796875 27.296875 
z
" id="DejaVuSans-64"/>
      <path id="DejaVuSans-20"/>
      <path d="M 9.8125 72.90625 
L 19.671875 72.90625 
L 19.671875 0 
L 9.8125 0 
z
" id="DejaVuSans-49"/>
     </defs>
     <g style="fill:#262626;" transform="translate(662.66875 164.590937)scale(0.1 -0.1)">
      <use xlink:href="#DejaVuSans-45"/>
      <use x="63.183594" xlink:href="#DejaVuSans-61"/>
      <use x="124.462891" xlink:href="#DejaVuSans-72"/>
      <use x="165.560547" xlink:href="#DejaVuSans-6e"/>
      <use x="228.939453" xlink:href="#DejaVuSans-65"/>
      <use x="290.462891" xlink:href="#DejaVuSans-64"/>
      <use x="353.939453" xlink:href="#DejaVuSans-20"/>
      <use x="385.726562" xlink:href="#DejaVuSans-49"/>
      <use x="415.21875" xlink:href="#DejaVuSans-6e"/>
      <use x="478.597656" xlink:href="#DejaVuSans-63"/>
      <use x="533.578125" xlink:href="#DejaVuSans-6f"/>
      <use x="594.759766" xlink:href="#DejaVuSans-6d"/>
      <use x="692.171875" xlink:href="#DejaVuSans-65"/>
     </g>
    </g>
    <g id="patch_66">
     <path d="M 634.66875 179.269062 
L 654.66875 179.269062 
L 654.66875 172.269062 
L 634.66875 172.269062 
z
" style="fill:#394955;"/>
    </g>
    <g id="text_14">
     <!-- Credit Transfer -->
     <defs>
      <path d="M 37.109375 75.984375 
L 37.109375 68.5 
L 28.515625 68.5 
Q 23.6875 68.5 21.796875 66.546875 
Q 19.921875 64.59375 19.921875 59.515625 
L 19.921875 54.6875 
L 34.71875 54.6875 
L 34.71875 47.703125 
L 19.921875 47.703125 
L 19.921875 0 
L 10.890625 0 
L 10.890625 47.703125 
L 2.296875 47.703125 
L 2.296875 54.6875 
L 10.890625 54.6875 
L 10.890625 58.5 
Q 10.890625 67.625 15.140625 71.796875 
Q 19.390625 75.984375 28.609375 75.984375 
z
" id="DejaVuSans-66"/>
     </defs>
     <g style="fill:#262626;" transform="translate(662.66875 179.269062)scale(0.1 -0.1)">
      <use xlink:href="#DejaVuSans-43"/>
      <use x="69.824219" xlink:href="#DejaVuSans-72"/>
      <use x="110.90625" xlink:href="#DejaVuSans-65"/>
      <use x="172.429688" xlink:href="#DejaVuSans-64"/>
      <use x="235.90625" xlink:href="#DejaVuSans-69"/>
      <use x="263.689453" xlink:href="#DejaVuSans-74"/>
      <use x="302.898438" xlink:href="#DejaVuSans-20"/>
      <use x="334.685547" xlink:href="#DejaVuSans-54"/>
      <use x="395.550781" xlink:href="#DejaVuSans-72"/>
      <use x="436.664062" xlink:href="#DejaVuSans-61"/>
      <use x="497.943359" xlink:href="#DejaVuSans-6e"/>
      <use x="561.322266" xlink:href="#DejaVuSans-73"/>
      <use x="613.421875" xlink:href="#DejaVuSans-66"/>
      <use x="648.626953" xlink:href="#DejaVuSans-65"/>
      <use x="710.150391" xlink:href="#DejaVuSans-72"/>
     </g>
    </g>
    <g id="patch_67">
     <path d="M 634.66875 193.947187 
L 654.66875 193.947187 
L 654.66875 186.947187 
L 634.66875 186.947187 
z
" style="fill:#3a4f5e;"/>
    </g>
    <g id="text_15">
     <!-- Debit Transfer -->
     <defs>
      <path d="M 19.671875 64.796875 
L 19.671875 8.109375 
L 31.59375 8.109375 
Q 46.6875 8.109375 53.6875 14.9375 
Q 60.6875 21.78125 60.6875 36.53125 
Q 60.6875 51.171875 53.6875 57.984375 
Q 46.6875 64.796875 31.59375 64.796875 
z
M 9.8125 72.90625 
L 30.078125 72.90625 
Q 51.265625 72.90625 61.171875 64.09375 
Q 71.09375 55.28125 71.09375 36.53125 
Q 71.09375 17.671875 61.125 8.828125 
Q 51.171875 0 30.078125 0 
L 9.8125 0 
z
" id="DejaVuSans-44"/>
      <path d="M 48.6875 27.296875 
Q 48.6875 37.203125 44.609375 42.84375 
Q 40.53125 48.484375 33.40625 48.484375 
Q 26.265625 48.484375 22.1875 42.84375 
Q 18.109375 37.203125 18.109375 27.296875 
Q 18.109375 17.390625 22.1875 11.75 
Q 26.265625 6.109375 33.40625 6.109375 
Q 40.53125 6.109375 44.609375 11.75 
Q 48.6875 17.390625 48.6875 27.296875 
z
M 18.109375 46.390625 
Q 20.953125 51.265625 25.265625 53.625 
Q 29.59375 56 35.59375 56 
Q 45.5625 56 51.78125 48.09375 
Q 58.015625 40.1875 58.015625 27.296875 
Q 58.015625 14.40625 51.78125 6.484375 
Q 45.5625 -1.421875 35.59375 -1.421875 
Q 29.59375 -1.421875 25.265625 0.953125 
Q 20.953125 3.328125 18.109375 8.203125 
L 18.109375 0 
L 9.078125 0 
L 9.078125 75.984375 
L 18.109375 75.984375 
z
" id="DejaVuSans-62"/>
     </defs>
     <g style="fill:#262626;" transform="translate(662.66875 193.947187)scale(0.1 -0.1)">
      <use xlink:href="#DejaVuSans-44"/>
      <use x="77.001953" xlink:href="#DejaVuSans-65"/>
      <use x="138.525391" xlink:href="#DejaVuSans-62"/>
      <use x="202.001953" xlink:href="#DejaVuSans-69"/>
      <use x="229.785156" xlink:href="#DejaVuSans-74"/>
      <use x="268.994141" xlink:href="#DejaVuSans-20"/>
      <use x="300.78125" xlink:href="#DejaVuSans-54"/>
      <use x="361.646484" xlink:href="#DejaVuSans-72"/>
      <use x="402.759766" xlink:href="#DejaVuSans-61"/>
      <use x="464.039062" xlink:href="#DejaVuSans-6e"/>
      <use x="527.417969" xlink:href="#DejaVuSans-73"/>
      <use x="579.517578" xlink:href="#DejaVuSans-66"/>
      <use x="614.722656" xlink:href="#DejaVuSans-65"/>
      <use x="676.246094" xlink:href="#DejaVuSans-72"/>
     </g>
    </g>
    <g id="patch_68">
     <path d="M 634.66875 208.625312 
L 654.66875 208.625312 
L 654.66875 201.625312 
L 634.66875 201.625312 
z
" style="fill:#3c5466;"/>
    </g>
    <g id="text_16">
     <!-- Food_Dining -->
     <g style="fill:#262626;" transform="translate(662.66875 208.625312)scale(0.1 -0.1)">
      <use xlink:href="#DejaVuSans-46"/>
      <use x="57.472656" xlink:href="#DejaVuSans-6f"/>
      <use x="118.654297" xlink:href="#DejaVuSans-6f"/>
      <use x="179.835938" xlink:href="#DejaVuSans-64"/>
      <use x="243.3125" xlink:href="#DejaVuSans-5f"/>
      <use x="293.3125" xlink:href="#DejaVuSans-44"/>
      <use x="370.314453" xlink:href="#DejaVuSans-69"/>
      <use x="398.097656" xlink:href="#DejaVuSans-6e"/>
      <use x="461.476562" xlink:href="#DejaVuSans-69"/>
      <use x="489.259766" xlink:href="#DejaVuSans-6e"/>
      <use x="552.638672" xlink:href="#DejaVuSans-67"/>
     </g>
    </g>
    <g id="patch_69">
     <path d="M 634.66875 223.581562 
L 654.66875 223.581562 
L 654.66875 216.581562 
L 634.66875 216.581562 
z
" style="fill:#3d5a6e;"/>
    </g>
    <g id="text_17">
     <!-- Uncategorized Debit -->
     <defs>
      <path d="M 8.6875 72.90625 
L 18.609375 72.90625 
L 18.609375 28.609375 
Q 18.609375 16.890625 22.84375 11.734375 
Q 27.09375 6.59375 36.625 6.59375 
Q 46.09375 6.59375 50.34375 11.734375 
Q 54.59375 16.890625 54.59375 28.609375 
L 54.59375 72.90625 
L 64.5 72.90625 
L 64.5 27.390625 
Q 64.5 13.140625 57.4375 5.859375 
Q 50.390625 -1.421875 36.625 -1.421875 
Q 22.796875 -1.421875 15.734375 5.859375 
Q 8.6875 13.140625 8.6875 27.390625 
z
" id="DejaVuSans-55"/>
      <path d="M 5.515625 54.6875 
L 48.1875 54.6875 
L 48.1875 46.484375 
L 14.40625 7.171875 
L 48.1875 7.171875 
L 48.1875 0 
L 4.296875 0 
L 4.296875 8.203125 
L 38.09375 47.515625 
L 5.515625 47.515625 
z
" id="DejaVuSans-7a"/>
     </defs>
     <g style="fill:#262626;" transform="translate(662.66875 223.581562)scale(0.1 -0.1)">
      <use xlink:href="#DejaVuSans-55"/>
      <use x="73.193359" xlink:href="#DejaVuSans-6e"/>
      <use x="136.572266" xlink:href="#DejaVuSans-63"/>
      <use x="191.552734" xlink:href="#DejaVuSans-61"/>
      <use x="252.832031" xlink:href="#DejaVuSans-74"/>
      <use x="292.041016" xlink:href="#DejaVuSans-65"/>
      <use x="353.564453" xlink:href="#DejaVuSans-67"/>
      <use x="417.041016" xlink:href="#DejaVuSans-6f"/>
      <use x="478.222656" xlink:href="#DejaVuSans-72"/>
      <use x="519.335938" xlink:href="#DejaVuSans-69"/>
      <use x="547.119141" xlink:href="#DejaVuSans-7a"/>
      <use x="599.609375" xlink:href="#DejaVuSans-65"/>
      <use x="661.132812" xlink:href="#DejaVuSans-64"/>
      <use x="724.609375" xlink:href="#DejaVuSans-20"/>
      <use x="756.396484" xlink:href="#DejaVuSans-44"/>
      <use x="833.398438" xlink:href="#DejaVuSans-65"/>
      <use x="894.921875" xlink:href="#DejaVuSans-62"/>
      <use x="958.398438" xlink:href="#DejaVuSans-69"/>
      <use x="986.181641" xlink:href="#DejaVuSans-74"/>
     </g>
    </g>
    <g id="patch_70">
     <path d="M 634.66875 238.259687 
L 654.66875 238.259687 
L 654.66875 231.259687 
L 634.66875 231.259687 
z
" style="fill:#3f6077;"/>
    </g>
    <g id="text_18">
     <!-- Gifts Received -->
     <defs>
      <path d="M 59.515625 10.40625 
L 59.515625 29.984375 
L 43.40625 29.984375 
L 43.40625 38.09375 
L 69.28125 38.09375 
L 69.28125 6.78125 
Q 63.578125 2.734375 56.6875 0.65625 
Q 49.8125 -1.421875 42 -1.421875 
Q 24.90625 -1.421875 15.25 8.5625 
Q 5.609375 18.5625 5.609375 36.375 
Q 5.609375 54.25 15.25 64.234375 
Q 24.90625 74.21875 42 74.21875 
Q 49.125 74.21875 55.546875 72.453125 
Q 61.96875 70.703125 67.390625 67.28125 
L 67.390625 56.78125 
Q 61.921875 61.421875 55.765625 63.765625 
Q 49.609375 66.109375 42.828125 66.109375 
Q 29.4375 66.109375 22.71875 58.640625 
Q 16.015625 51.171875 16.015625 36.375 
Q 16.015625 21.625 22.71875 14.15625 
Q 29.4375 6.6875 42.828125 6.6875 
Q 48.046875 6.6875 52.140625 7.59375 
Q 56.25 8.5 59.515625 10.40625 
z
" id="DejaVuSans-47"/>
      <path d="M 44.390625 34.1875 
Q 47.5625 33.109375 50.5625 29.59375 
Q 53.5625 26.078125 56.59375 19.921875 
L 66.609375 0 
L 56 0 
L 46.6875 18.703125 
Q 43.0625 26.03125 39.671875 28.421875 
Q 36.28125 30.8125 30.421875 30.8125 
L 19.671875 30.8125 
L 19.671875 0 
L 9.8125 0 
L 9.8125 72.90625 
L 32.078125 72.90625 
Q 44.578125 72.90625 50.734375 67.671875 
Q 56.890625 62.453125 56.890625 51.90625 
Q 56.890625 45.015625 53.6875 40.46875 
Q 50.484375 35.9375 44.390625 34.1875 
z
M 19.671875 64.796875 
L 19.671875 38.921875 
L 32.078125 38.921875 
Q 39.203125 38.921875 42.84375 42.21875 
Q 46.484375 45.515625 46.484375 51.90625 
Q 46.484375 58.296875 42.84375 61.546875 
Q 39.203125 64.796875 32.078125 64.796875 
z
" id="DejaVuSans-52"/>
     </defs>
     <g style="fill:#262626;" transform="translate(662.66875 238.259687)scale(0.1 -0.1)">
      <use xlink:href="#DejaVuSans-47"/>
      <use x="77.490234" xlink:href="#DejaVuSans-69"/>
      <use x="105.273438" xlink:href="#DejaVuSans-66"/>
      <use x="140.462891" xlink:href="#DejaVuSans-74"/>
      <use x="179.671875" xlink:href="#DejaVuSans-73"/>
      <use x="231.771484" xlink:href="#DejaVuSans-20"/>
      <use x="263.558594" xlink:href="#DejaVuSans-52"/>
      <use x="332.978516" xlink:href="#DejaVuSans-65"/>
      <use x="394.501953" xlink:href="#DejaVuSans-63"/>
      <use x="449.482422" xlink:href="#DejaVuSans-65"/>
      <use x="511.005859" xlink:href="#DejaVuSans-69"/>
      <use x="538.789062" xlink:href="#DejaVuSans-76"/>
      <use x="597.96875" xlink:href="#DejaVuSans-65"/>
      <use x="659.492188" xlink:href="#DejaVuSans-64"/>
     </g>
    </g>
    <g id="patch_71">
     <path d="M 634.66875 252.937812 
L 654.66875 252.937812 
L 654.66875 245.937812 
L 634.66875 245.937812 
z
" style="fill:#406580;"/>
    </g>
    <g id="text_19">
     <!-- Entertainment -->
     <g style="fill:#262626;" transform="translate(662.66875 252.937812)scale(0.1 -0.1)">
      <use xlink:href="#DejaVuSans-45"/>
      <use x="63.183594" xlink:href="#DejaVuSans-6e"/>
      <use x="126.5625" xlink:href="#DejaVuSans-74"/>
      <use x="165.771484" xlink:href="#DejaVuSans-65"/>
      <use x="227.294922" xlink:href="#DejaVuSans-72"/>
      <use x="268.408203" xlink:href="#DejaVuSans-74"/>
      <use x="307.617188" xlink:href="#DejaVuSans-61"/>
      <use x="368.896484" xlink:href="#DejaVuSans-69"/>
      <use x="396.679688" xlink:href="#DejaVuSans-6e"/>
      <use x="460.058594" xlink:href="#DejaVuSans-6d"/>
      <use x="557.470703" xlink:href="#DejaVuSans-65"/>
      <use x="618.994141" xlink:href="#DejaVuSans-6e"/>
      <use x="682.373047" xlink:href="#DejaVuSans-74"/>
     </g>
    </g>
    <g id="patch_72">
     <path d="M 634.66875 267.615937 
L 654.66875 267.615937 
L 654.66875 260.615937 
L 634.66875 260.615937 
z
" style="fill:#426b89;"/>
    </g>
    <g id="text_20">
     <!-- Personal Care -->
     <defs>
      <path d="M 19.671875 64.796875 
L 19.671875 37.40625 
L 32.078125 37.40625 
Q 38.96875 37.40625 42.71875 40.96875 
Q 46.484375 44.53125 46.484375 51.125 
Q 46.484375 57.671875 42.71875 61.234375 
Q 38.96875 64.796875 32.078125 64.796875 
z
M 9.8125 72.90625 
L 32.078125 72.90625 
Q 44.34375 72.90625 50.609375 67.359375 
Q 56.890625 61.8125 56.890625 51.125 
Q 56.890625 40.328125 50.609375 34.8125 
Q 44.34375 29.296875 32.078125 29.296875 
L 19.671875 29.296875 
L 19.671875 0 
L 9.8125 0 
z
" id="DejaVuSans-50"/>
     </defs>
     <g style="fill:#262626;" transform="translate(662.66875 267.615937)scale(0.1 -0.1)">
      <use xlink:href="#DejaVuSans-50"/>
      <use x="60.255859" xlink:href="#DejaVuSans-65"/>
      <use x="121.779297" xlink:href="#DejaVuSans-72"/>
      <use x="162.892578" xlink:href="#DejaVuSans-73"/>
      <use x="214.992188" xlink:href="#DejaVuSans-6f"/>
      <use x="276.173828" xlink:href="#DejaVuSans-6e"/>
      <use x="339.552734" xlink:href="#DejaVuSans-61"/>
      <use x="400.832031" xlink:href="#DejaVuSans-6c"/>
      <use x="428.615234" xlink:href="#DejaVuSans-20"/>
      <use x="460.402344" xlink:href="#DejaVuSans-43"/>
      <use x="530.226562" xlink:href="#DejaVuSans-61"/>
      <use x="591.505859" xlink:href="#DejaVuSans-72"/>
      <use x="632.587891" xlink:href="#DejaVuSans-65"/>
     </g>
    </g>
    <g id="patch_73">
     <path d="M 634.66875 282.294062 
L 654.66875 282.294062 
L 654.66875 275.294062 
L 634.66875 275.294062 
z
" style="fill:#437191;"/>
    </g>
    <g id="text_21">
     <!-- Gifts_Donations -->
     <g style="fill:#262626;" transform="translate(662.66875 282.294062)scale(0.1 -0.1)">
      <use xlink:href="#DejaVuSans-47"/>
      <use x="77.490234" xlink:href="#DejaVuSans-69"/>
      <use x="105.273438" xlink:href="#DejaVuSans-66"/>
      <use x="140.462891" xlink:href="#DejaVuSans-74"/>
      <use x="179.671875" xlink:href="#DejaVuSans-73"/>
      <use x="231.771484" xlink:href="#DejaVuSans-5f"/>
      <use x="281.771484" xlink:href="#DejaVuSans-44"/>
      <use x="358.773438" xlink:href="#DejaVuSans-6f"/>
      <use x="419.955078" xlink:href="#DejaVuSans-6e"/>
      <use x="483.333984" xlink:href="#DejaVuSans-61"/>
      <use x="544.613281" xlink:href="#DejaVuSans-74"/>
      <use x="583.822266" xlink:href="#DejaVuSans-69"/>
      <use x="611.605469" xlink:href="#DejaVuSans-6f"/>
      <use x="672.787109" xlink:href="#DejaVuSans-6e"/>
      <use x="736.166016" xlink:href="#DejaVuSans-73"/>
     </g>
    </g>
    <g id="patch_74">
     <path d="M 634.66875 297.250312 
L 654.66875 297.250312 
L 654.66875 290.250312 
L 634.66875 290.250312 
z
" style="fill:#447699;"/>
    </g>
    <g id="text_22">
     <!-- Education -->
     <g style="fill:#262626;" transform="translate(662.66875 297.250312)scale(0.1 -0.1)">
      <use xlink:href="#DejaVuSans-45"/>
      <use x="63.183594" xlink:href="#DejaVuSans-64"/>
      <use x="126.660156" xlink:href="#DejaVuSans-75"/>
      <use x="190.039062" xlink:href="#DejaVuSans-63"/>
      <use x="245.019531" xlink:href="#DejaVuSans-61"/>
      <use x="306.298828" xlink:href="#DejaVuSans-74"/>
      <use x="345.507812" xlink:href="#DejaVuSans-69"/>
      <use x="373.291016" xlink:href="#DejaVuSans-6f"/>
      <use x="434.472656" xlink:href="#DejaVuSans-6e"/>
     </g>
    </g>
    <g id="patch_75">
     <path d="M 634.66875 311.928437 
L 654.66875 311.928437 
L 654.66875 304.928437 
L 634.66875 304.928437 
z
" style="fill:#467ca2;"/>
    </g>
    <g id="text_23">
     <!-- Unearned Income -->
     <g style="fill:#262626;" transform="translate(662.66875 311.928437)scale(0.1 -0.1)">
      <use xlink:href="#DejaVuSans-55"/>
      <use x="73.193359" xlink:href="#DejaVuSans-6e"/>
      <use x="136.572266" xlink:href="#DejaVuSans-65"/>
      <use x="198.095703" xlink:href="#DejaVuSans-61"/>
      <use x="259.375" xlink:href="#DejaVuSans-72"/>
      <use x="300.472656" xlink:href="#DejaVuSans-6e"/>
      <use x="363.851562" xlink:href="#DejaVuSans-65"/>
      <use x="425.375" xlink:href="#DejaVuSans-64"/>
      <use x="488.851562" xlink:href="#DejaVuSans-20"/>
      <use x="520.638672" xlink:href="#DejaVuSans-49"/>
      <use x="550.130859" xlink:href="#DejaVuSans-6e"/>
      <use x="613.509766" xlink:href="#DejaVuSans-63"/>
      <use x="668.490234" xlink:href="#DejaVuSans-6f"/>
      <use x="729.671875" xlink:href="#DejaVuSans-6d"/>
      <use x="827.083984" xlink:href="#DejaVuSans-65"/>
     </g>
    </g>
    <g id="patch_76">
     <path d="M 634.66875 326.606562 
L 654.66875 326.606562 
L 654.66875 319.606562 
L 634.66875 319.606562 
z
" style="fill:#4781ab;"/>
    </g>
    <g id="text_24">
     <!-- Uncategorized Credit -->
     <g style="fill:#262626;" transform="translate(662.66875 326.606562)scale(0.1 -0.1)">
      <use xlink:href="#DejaVuSans-55"/>
      <use x="73.193359" xlink:href="#DejaVuSans-6e"/>
      <use x="136.572266" xlink:href="#DejaVuSans-63"/>
      <use x="191.552734" xlink:href="#DejaVuSans-61"/>
      <use x="252.832031" xlink:href="#DejaVuSans-74"/>
      <use x="292.041016" xlink:href="#DejaVuSans-65"/>
      <use x="353.564453" xlink:href="#DejaVuSans-67"/>
      <use x="417.041016" xlink:href="#DejaVuSans-6f"/>
      <use x="478.222656" xlink:href="#DejaVuSans-72"/>
      <use x="519.335938" xlink:href="#DejaVuSans-69"/>
      <use x="547.119141" xlink:href="#DejaVuSans-7a"/>
      <use x="599.609375" xlink:href="#DejaVuSans-65"/>
      <use x="661.132812" xlink:href="#DejaVuSans-64"/>
      <use x="724.609375" xlink:href="#DejaVuSans-20"/>
      <use x="756.396484" xlink:href="#DejaVuSans-43"/>
      <use x="826.220703" xlink:href="#DejaVuSans-72"/>
      <use x="867.302734" xlink:href="#DejaVuSans-65"/>
      <use x="928.826172" xlink:href="#DejaVuSans-64"/>
      <use x="992.302734" xlink:href="#DejaVuSans-69"/>
      <use x="1020.085938" xlink:href="#DejaVuSans-74"/>
     </g>
    </g>
    <g id="patch_77">
     <path d="M 634.66875 341.284687 
L 654.66875 341.284687 
L 654.66875 334.284687 
L 634.66875 334.284687 
z
" style="fill:#4c87b1;"/>
    </g>
    <g id="text_25">
     <!-- Automotive -->
     <defs>
      <path d="M 34.1875 63.1875 
L 20.796875 26.90625 
L 47.609375 26.90625 
z
M 28.609375 72.90625 
L 39.796875 72.90625 
L 67.578125 0 
L 57.328125 0 
L 50.6875 18.703125 
L 17.828125 18.703125 
L 11.1875 0 
L 0.78125 0 
z
" id="DejaVuSans-41"/>
     </defs>
     <g style="fill:#262626;" transform="translate(662.66875 341.284687)scale(0.1 -0.1)">
      <use xlink:href="#DejaVuSans-41"/>
      <use x="68.408203" xlink:href="#DejaVuSans-75"/>
      <use x="131.787109" xlink:href="#DejaVuSans-74"/>
      <use x="170.996094" xlink:href="#DejaVuSans-6f"/>
      <use x="232.177734" xlink:href="#DejaVuSans-6d"/>
      <use x="329.589844" xlink:href="#DejaVuSans-6f"/>
      <use x="390.771484" xlink:href="#DejaVuSans-74"/>
      <use x="429.980469" xlink:href="#DejaVuSans-69"/>
      <use x="457.763672" xlink:href="#DejaVuSans-76"/>
      <use x="516.943359" xlink:href="#DejaVuSans-65"/>
     </g>
    </g>
    <g id="patch_78">
     <path d="M 634.66875 355.962812 
L 654.66875 355.962812 
L 654.66875 348.962812 
L 634.66875 348.962812 
z
" style="fill:#538cb4;"/>
    </g>
    <g id="text_26">
     <!-- Home -->
     <defs>
      <path d="M 9.8125 72.90625 
L 19.671875 72.90625 
L 19.671875 43.015625 
L 55.515625 43.015625 
L 55.515625 72.90625 
L 65.375 72.90625 
L 65.375 0 
L 55.515625 0 
L 55.515625 34.71875 
L 19.671875 34.71875 
L 19.671875 0 
L 9.8125 0 
z
" id="DejaVuSans-48"/>
     </defs>
     <g style="fill:#262626;" transform="translate(662.66875 355.962812)scale(0.1 -0.1)">
      <use xlink:href="#DejaVuSans-48"/>
      <use x="75.195312" xlink:href="#DejaVuSans-6f"/>
      <use x="136.376953" xlink:href="#DejaVuSans-6d"/>
      <use x="233.789062" xlink:href="#DejaVuSans-65"/>
     </g>
    </g>
    <g id="patch_79">
     <path d="M 634.66875 370.640937 
L 654.66875 370.640937 
L 654.66875 363.640937 
L 634.66875 363.640937 
z
" style="fill:#5b91b7;"/>
    </g>
    <g id="text_27">
     <!-- Electronics -->
     <g style="fill:#262626;" transform="translate(662.66875 370.640937)scale(0.1 -0.1)">
      <use xlink:href="#DejaVuSans-45"/>
      <use x="63.183594" xlink:href="#DejaVuSans-6c"/>
      <use x="90.966797" xlink:href="#DejaVuSans-65"/>
      <use x="152.490234" xlink:href="#DejaVuSans-63"/>
      <use x="207.470703" xlink:href="#DejaVuSans-74"/>
      <use x="246.679688" xlink:href="#DejaVuSans-72"/>
      <use x="287.761719" xlink:href="#DejaVuSans-6f"/>
      <use x="348.943359" xlink:href="#DejaVuSans-6e"/>
      <use x="412.322266" xlink:href="#DejaVuSans-69"/>
      <use x="440.105469" xlink:href="#DejaVuSans-63"/>
      <use x="495.085938" xlink:href="#DejaVuSans-73"/>
     </g>
    </g>
    <g id="patch_80">
     <path d="M 634.66875 385.319062 
L 654.66875 385.319062 
L 654.66875 378.319062 
L 634.66875 378.319062 
z
" style="fill:#6296ba;"/>
    </g>
    <g id="text_28">
     <!-- Clothing -->
     <g style="fill:#262626;" transform="translate(662.66875 385.319062)scale(0.1 -0.1)">
      <use xlink:href="#DejaVuSans-43"/>
      <use x="69.824219" xlink:href="#DejaVuSans-6c"/>
      <use x="97.607422" xlink:href="#DejaVuSans-6f"/>
      <use x="158.789062" xlink:href="#DejaVuSans-74"/>
      <use x="197.998047" xlink:href="#DejaVuSans-68"/>
      <use x="261.376953" xlink:href="#DejaVuSans-69"/>
      <use x="289.160156" xlink:href="#DejaVuSans-6e"/>
      <use x="352.539062" xlink:href="#DejaVuSans-67"/>
     </g>
    </g>
    <g id="patch_81">
     <path d="M 634.66875 399.997187 
L 654.66875 399.997187 
L 654.66875 392.997187 
L 634.66875 392.997187 
z
" style="fill:#699bbe;"/>
    </g>
    <g id="text_29">
     <!-- Miscellaneous -->
     <defs>
      <path d="M 9.8125 72.90625 
L 24.515625 72.90625 
L 43.109375 23.296875 
L 61.8125 72.90625 
L 76.515625 72.90625 
L 76.515625 0 
L 66.890625 0 
L 66.890625 64.015625 
L 48.09375 14.015625 
L 38.1875 14.015625 
L 19.390625 64.015625 
L 19.390625 0 
L 9.8125 0 
z
" id="DejaVuSans-4d"/>
     </defs>
     <g style="fill:#262626;" transform="translate(662.66875 399.997187)scale(0.1 -0.1)">
      <use xlink:href="#DejaVuSans-4d"/>
      <use x="86.279297" xlink:href="#DejaVuSans-69"/>
      <use x="114.0625" xlink:href="#DejaVuSans-73"/>
      <use x="166.162109" xlink:href="#DejaVuSans-63"/>
      <use x="221.142578" xlink:href="#DejaVuSans-65"/>
      <use x="282.666016" xlink:href="#DejaVuSans-6c"/>
      <use x="310.449219" xlink:href="#DejaVuSans-6c"/>
      <use x="338.232422" xlink:href="#DejaVuSans-61"/>
      <use x="399.511719" xlink:href="#DejaVuSans-6e"/>
      <use x="462.890625" xlink:href="#DejaVuSans-65"/>
      <use x="524.414062" xlink:href="#DejaVuSans-6f"/>
      <use x="585.595703" xlink:href="#DejaVuSans-75"/>
      <use x="648.974609" xlink:href="#DejaVuSans-73"/>
     </g>
    </g>
    <g id="patch_82">
     <path d="M 634.66875 414.675312 
L 654.66875 414.675312 
L 654.66875 407.675312 
L 634.66875 407.675312 
z
" style="fill:#71a0c1;"/>
    </g>
    <g id="text_30">
     <!-- Refund -->
     <g style="fill:#262626;" transform="translate(662.66875 414.675312)scale(0.1 -0.1)">
      <use xlink:href="#DejaVuSans-52"/>
      <use x="69.419922" xlink:href="#DejaVuSans-65"/>
      <use x="130.943359" xlink:href="#DejaVuSans-66"/>
      <use x="166.148438" xlink:href="#DejaVuSans-75"/>
      <use x="229.527344" xlink:href="#DejaVuSans-6e"/>
      <use x="292.90625" xlink:href="#DejaVuSans-64"/>
     </g>
    </g>
    <g id="patch_83">
     <path d="M 634.66875 429.353437 
L 654.66875 429.353437 
L 654.66875 422.353437 
L 634.66875 422.353437 
z
" style="fill:#78a5c4;"/>
    </g>
    <g id="text_31">
     <!-- Debt -->
     <g style="fill:#262626;" transform="translate(662.66875 429.353437)scale(0.1 -0.1)">
      <use xlink:href="#DejaVuSans-44"/>
      <use x="77.001953" xlink:href="#DejaVuSans-65"/>
      <use x="138.525391" xlink:href="#DejaVuSans-62"/>
      <use x="202.001953" xlink:href="#DejaVuSans-74"/>
     </g>
    </g>
    <g id="patch_84">
     <path d="M 634.66875 444.031562 
L 654.66875 444.031562 
L 654.66875 437.031562 
L 634.66875 437.031562 
z
" style="fill:#80abc8;"/>
    </g>
    <g id="text_32">
     <!-- Fees_Charges -->
     <g style="fill:#262626;" transform="translate(662.66875 444.031562)scale(0.1 -0.1)">
      <use xlink:href="#DejaVuSans-46"/>
      <use x="57.441406" xlink:href="#DejaVuSans-65"/>
      <use x="118.964844" xlink:href="#DejaVuSans-65"/>
      <use x="180.488281" xlink:href="#DejaVuSans-73"/>
      <use x="232.587891" xlink:href="#DejaVuSans-5f"/>
      <use x="282.587891" xlink:href="#DejaVuSans-43"/>
      <use x="352.412109" xlink:href="#DejaVuSans-68"/>
      <use x="415.791016" xlink:href="#DejaVuSans-61"/>
      <use x="477.070312" xlink:href="#DejaVuSans-72"/>
      <use x="518.167969" xlink:href="#DejaVuSans-67"/>
      <use x="581.644531" xlink:href="#DejaVuSans-65"/>
      <use x="643.167969" xlink:href="#DejaVuSans-73"/>
     </g>
    </g>
    <g id="patch_85">
     <path d="M 634.66875 458.987812 
L 654.66875 458.987812 
L 654.66875 451.987812 
L 634.66875 451.987812 
z
" style="fill:#87b0cb;"/>
    </g>
    <g id="text_33">
     <!-- Loan -->
     <defs>
      <path d="M 9.8125 72.90625 
L 19.671875 72.90625 
L 19.671875 8.296875 
L 55.171875 8.296875 
L 55.171875 0 
L 9.8125 0 
z
" id="DejaVuSans-4c"/>
     </defs>
     <g style="fill:#262626;" transform="translate(662.66875 458.987812)scale(0.1 -0.1)">
      <use xlink:href="#DejaVuSans-4c"/>
      <use x="55.697266" xlink:href="#DejaVuSans-6f"/>
      <use x="116.878906" xlink:href="#DejaVuSans-61"/>
      <use x="178.158203" xlink:href="#DejaVuSans-6e"/>
     </g>
    </g>
    <g id="patch_86">
     <path d="M 634.66875 473.665937 
L 654.66875 473.665937 
L 654.66875 466.665937 
L 634.66875 466.665937 
z
" style="fill:#8eb4ce;"/>
    </g>
    <g id="text_34">
     <!-- Accessory -->
     <g style="fill:#262626;" transform="translate(662.66875 473.665937)scale(0.1 -0.1)">
      <use xlink:href="#DejaVuSans-41"/>
      <use x="68.392578" xlink:href="#DejaVuSans-63"/>
      <use x="123.373047" xlink:href="#DejaVuSans-63"/>
      <use x="178.353516" xlink:href="#DejaVuSans-65"/>
      <use x="239.876953" xlink:href="#DejaVuSans-73"/>
      <use x="291.976562" xlink:href="#DejaVuSans-73"/>
      <use x="344.076172" xlink:href="#DejaVuSans-6f"/>
      <use x="405.257812" xlink:href="#DejaVuSans-72"/>
      <use x="446.371094" xlink:href="#DejaVuSans-79"/>
     </g>
    </g>
    <g id="patch_87">
     <path d="M 634.66875 488.344063 
L 654.66875 488.344063 
L 654.66875 481.344063 
L 634.66875 481.344063 
z
" style="fill:#95bad1;"/>
    </g>
    <g id="text_35">
     <!-- Health_Fitness -->
     <g style="fill:#262626;" transform="translate(662.66875 488.344063)scale(0.1 -0.1)">
      <use xlink:href="#DejaVuSans-48"/>
      <use x="75.195312" xlink:href="#DejaVuSans-65"/>
      <use x="136.71875" xlink:href="#DejaVuSans-61"/>
      <use x="197.998047" xlink:href="#DejaVuSans-6c"/>
      <use x="225.78125" xlink:href="#DejaVuSans-74"/>
      <use x="264.990234" xlink:href="#DejaVuSans-68"/>
      <use x="328.369141" xlink:href="#DejaVuSans-5f"/>
      <use x="378.369141" xlink:href="#DejaVuSans-46"/>
      <use x="435.779297" xlink:href="#DejaVuSans-69"/>
      <use x="463.5625" xlink:href="#DejaVuSans-74"/>
      <use x="502.771484" xlink:href="#DejaVuSans-6e"/>
      <use x="566.150391" xlink:href="#DejaVuSans-65"/>
      <use x="627.673828" xlink:href="#DejaVuSans-73"/>
      <use x="679.773438" xlink:href="#DejaVuSans-73"/>
     </g>
    </g>
    <g id="patch_88">
     <path d="M 634.66875 503.300313 
L 654.66875 503.300313 
L 654.66875 496.300313 
L 634.66875 496.300313 
z
" style="fill:#9dbfd5;"/>
    </g>
    <g id="text_36">
     <!-- Grant -->
     <g style="fill:#262626;" transform="translate(662.66875 503.300313)scale(0.1 -0.1)">
      <use xlink:href="#DejaVuSans-47"/>
      <use x="77.490234" xlink:href="#DejaVuSans-72"/>
      <use x="118.603516" xlink:href="#DejaVuSans-61"/>
      <use x="179.882812" xlink:href="#DejaVuSans-6e"/>
      <use x="243.261719" xlink:href="#DejaVuSans-74"/>
     </g>
    </g>
    <g id="patch_89">
     <path d="M 634.66875 517.978438 
L 654.66875 517.978438 
L 654.66875 510.978438 
L 634.66875 510.978438 
z
" style="fill:#a4c4d8;"/>
    </g>
    <g id="text_37">
     <!-- Bills_Utilities -->
     <g style="fill:#262626;" transform="translate(662.66875 517.978438)scale(0.1 -0.1)">
      <use xlink:href="#DejaVuSans-42"/>
      <use x="68.603516" xlink:href="#DejaVuSans-69"/>
      <use x="96.386719" xlink:href="#DejaVuSans-6c"/>
      <use x="124.169922" xlink:href="#DejaVuSans-6c"/>
      <use x="151.953125" xlink:href="#DejaVuSans-73"/>
      <use x="204.052734" xlink:href="#DejaVuSans-5f"/>
      <use x="254.052734" xlink:href="#DejaVuSans-55"/>
      <use x="327.246094" xlink:href="#DejaVuSans-74"/>
      <use x="366.455078" xlink:href="#DejaVuSans-69"/>
      <use x="394.238281" xlink:href="#DejaVuSans-6c"/>
      <use x="422.021484" xlink:href="#DejaVuSans-69"/>
      <use x="449.804688" xlink:href="#DejaVuSans-74"/>
      <use x="489.013672" xlink:href="#DejaVuSans-69"/>
      <use x="516.796875" xlink:href="#DejaVuSans-65"/>
      <use x="578.320312" xlink:href="#DejaVuSans-73"/>
     </g>
    </g>
    <g id="patch_90">
     <path d="M 634.66875 532.934688 
L 654.66875 532.934688 
L 654.66875 525.934688 
L 634.66875 525.934688 
z
" style="fill:#acc9db;"/>
    </g>
    <g id="text_38">
     <!-- Scholarship -->
     <g style="fill:#262626;" transform="translate(662.66875 532.934688)scale(0.1 -0.1)">
      <use xlink:href="#DejaVuSans-53"/>
      <use x="63.476562" xlink:href="#DejaVuSans-63"/>
      <use x="118.457031" xlink:href="#DejaVuSans-68"/>
      <use x="181.835938" xlink:href="#DejaVuSans-6f"/>
      <use x="243.017578" xlink:href="#DejaVuSans-6c"/>
      <use x="270.800781" xlink:href="#DejaVuSans-61"/>
      <use x="332.080078" xlink:href="#DejaVuSans-72"/>
      <use x="373.193359" xlink:href="#DejaVuSans-73"/>
      <use x="425.292969" xlink:href="#DejaVuSans-68"/>
      <use x="488.671875" xlink:href="#DejaVuSans-69"/>
      <use x="516.455078" xlink:href="#DejaVuSans-70"/>
     </g>
    </g>
   </g>
  </g>
 </g>
 <defs>
  <clipPath id="p5e5593190c">
   <rect height="665.28" width="669.6" x="108" y="103.68"/>
  </clipPath>
 </defs>
</svg>
