<?xml version="1.0" encoding="utf-8" standalone="no"?>
<!DOCTYPE svg PUBLIC "-//W3C//DTD SVG 1.1//EN"
  "http://www.w3.org/Graphics/SVG/1.1/DTD/svg11.dtd">
<!-- Created with matplotlib (http://matplotlib.org/) -->
<svg height="351pt" version="1.1" viewBox="0 0 490 351" width="490pt" xmlns="http://www.w3.org/2000/svg" xmlns:xlink="http://www.w3.org/1999/xlink">
 <defs>
  <style type="text/css">
*{stroke-linecap:butt;stroke-linejoin:round;}
  </style>
 </defs>
 <g id="figure_1">
  <g id="patch_1">
   <path d="M 0 351.99625 
L 490.29932 351.99625 
L 490.29932 0 
L 0 0 
z
" style="fill:#ffffff;"/>
  </g>
  <g id="axes_1">
   <g id="patch_2">
    <path d="M 49.828125 317.94 
L 435.15972 317.94 
L 435.15972 7.2 
L 49.828125 7.2 
z
" style="fill:#eaeaf2;"/>
   </g>
   <g id="matplotlib.axis_1">
    <g id="xtick_1">
     <g id="line2d_1">
      <path clip-path="url(#p66d2073c34)" d="M 87.410753 317.94 
L 87.410753 7.2 
" style="fill:none;stroke:#ffffff;stroke-linecap:round;stroke-width:0.8;"/>
     </g>
     <g id="line2d_2"/>
     <g id="text_1">
      <!-- 0 -->
      <defs>
       <path d="M 31.78125 66.40625 
Q 24.171875 66.40625 20.328125 58.90625 
Q 16.5 51.421875 16.5 36.375 
Q 16.5 21.390625 20.328125 13.890625 
Q 24.171875 6.390625 31.78125 6.390625 
Q 39.453125 6.390625 43.28125 13.890625 
Q 47.125 21.390625 47.125 36.375 
Q 47.125 51.421875 43.28125 58.90625 
Q 39.453125 66.40625 31.78125 66.40625 
z
M 31.78125 74.21875 
Q 44.046875 74.21875 50.515625 64.515625 
Q 56.984375 54.828125 56.984375 36.375 
Q 56.984375 17.96875 50.515625 8.265625 
Q 44.046875 -1.421875 31.78125 -1.421875 
Q 19.53125 -1.421875 13.0625 8.265625 
Q 6.59375 17.96875 6.59375 36.375 
Q 6.59375 54.828125 13.0625 64.515625 
Q 19.53125 74.21875 31.78125 74.21875 
z
" id="DejaVuSans-30"/>
      </defs>
      <g style="fill:#262626;" transform="translate(84.229503 329.038437)scale(0.1 -0.1)">
       <use xlink:href="#DejaVuSans-30"/>
      </g>
     </g>
    </g>
    <g id="xtick_2">
     <g id="line2d_3">
      <path clip-path="url(#p66d2073c34)" d="M 167.859911 317.94 
L 167.859911 7.2 
" style="fill:none;stroke:#ffffff;stroke-linecap:round;stroke-width:0.8;"/>
     </g>
     <g id="line2d_4"/>
     <g id="text_2">
      <!-- 200 -->
      <defs>
       <path d="M 19.1875 8.296875 
L 53.609375 8.296875 
L 53.609375 0 
L 7.328125 0 
L 7.328125 8.296875 
Q 12.9375 14.109375 22.625 23.890625 
Q 32.328125 33.6875 34.8125 36.53125 
Q 39.546875 41.84375 41.421875 45.53125 
Q 43.3125 49.21875 43.3125 52.78125 
Q 43.3125 58.59375 39.234375 62.25 
Q 35.15625 65.921875 28.609375 65.921875 
Q 23.96875 65.921875 18.8125 64.3125 
Q 13.671875 62.703125 7.8125 59.421875 
L 7.8125 69.390625 
Q 13.765625 71.78125 18.9375 73 
Q 24.125 74.21875 28.421875 74.21875 
Q 39.75 74.21875 46.484375 68.546875 
Q 53.21875 62.890625 53.21875 53.421875 
Q 53.21875 48.921875 51.53125 44.890625 
Q 49.859375 40.875 45.40625 35.40625 
Q 44.1875 33.984375 37.640625 27.21875 
Q 31.109375 20.453125 19.1875 8.296875 
z
" id="DejaVuSans-32"/>
      </defs>
      <g style="fill:#262626;" transform="translate(158.316161 329.038437)scale(0.1 -0.1)">
       <use xlink:href="#DejaVuSans-32"/>
       <use x="63.623047" xlink:href="#DejaVuSans-30"/>
       <use x="127.246094" xlink:href="#DejaVuSans-30"/>
      </g>
     </g>
    </g>
    <g id="xtick_3">
     <g id="line2d_5">
      <path clip-path="url(#p66d2073c34)" d="M 248.30907 317.94 
L 248.30907 7.2 
" style="fill:none;stroke:#ffffff;stroke-linecap:round;stroke-width:0.8;"/>
     </g>
     <g id="line2d_6"/>
     <g id="text_3">
      <!-- 400 -->
      <defs>
       <path d="M 37.796875 64.3125 
L 12.890625 25.390625 
L 37.796875 25.390625 
z
M 35.203125 72.90625 
L 47.609375 72.90625 
L 47.609375 25.390625 
L 58.015625 25.390625 
L 58.015625 17.1875 
L 47.609375 17.1875 
L 47.609375 0 
L 37.796875 0 
L 37.796875 17.1875 
L 4.890625 17.1875 
L 4.890625 26.703125 
z
" id="DejaVuSans-34"/>
      </defs>
      <g style="fill:#262626;" transform="translate(238.76532 329.038437)scale(0.1 -0.1)">
       <use xlink:href="#DejaVuSans-34"/>
       <use x="63.623047" xlink:href="#DejaVuSans-30"/>
       <use x="127.246094" xlink:href="#DejaVuSans-30"/>
      </g>
     </g>
    </g>
    <g id="xtick_4">
     <g id="line2d_7">
      <path clip-path="url(#p66d2073c34)" d="M 328.758228 317.94 
L 328.758228 7.2 
" style="fill:none;stroke:#ffffff;stroke-linecap:round;stroke-width:0.8;"/>
     </g>
     <g id="line2d_8"/>
     <g id="text_4">
      <!-- 600 -->
      <defs>
       <path d="M 33.015625 40.375 
Q 26.375 40.375 22.484375 35.828125 
Q 18.609375 31.296875 18.609375 23.390625 
Q 18.609375 15.53125 22.484375 10.953125 
Q 26.375 6.390625 33.015625 6.390625 
Q 39.65625 6.390625 43.53125 10.953125 
Q 47.40625 15.53125 47.40625 23.390625 
Q 47.40625 31.296875 43.53125 35.828125 
Q 39.65625 40.375 33.015625 40.375 
z
M 52.59375 71.296875 
L 52.59375 62.3125 
Q 48.875 64.0625 45.09375 64.984375 
Q 41.3125 65.921875 37.59375 65.921875 
Q 27.828125 65.921875 22.671875 59.328125 
Q 17.53125 52.734375 16.796875 39.40625 
Q 19.671875 43.65625 24.015625 45.921875 
Q 28.375 48.1875 33.59375 48.1875 
Q 44.578125 48.1875 50.953125 41.515625 
Q 57.328125 34.859375 57.328125 23.390625 
Q 57.328125 12.15625 50.6875 5.359375 
Q 44.046875 -1.421875 33.015625 -1.421875 
Q 20.359375 -1.421875 13.671875 8.265625 
Q 6.984375 17.96875 6.984375 36.375 
Q 6.984375 53.65625 15.1875 63.9375 
Q 23.390625 74.21875 37.203125 74.21875 
Q 40.921875 74.21875 44.703125 73.484375 
Q 48.484375 72.75 52.59375 71.296875 
z
" id="DejaVuSans-36"/>
      </defs>
      <g style="fill:#262626;" transform="translate(319.214478 329.038437)scale(0.1 -0.1)">
       <use xlink:href="#DejaVuSans-36"/>
       <use x="63.623047" xlink:href="#DejaVuSans-30"/>
       <use x="127.246094" xlink:href="#DejaVuSans-30"/>
      </g>
     </g>
    </g>
    <g id="xtick_5">
     <g id="line2d_9">
      <path clip-path="url(#p66d2073c34)" d="M 409.207386 317.94 
L 409.207386 7.2 
" style="fill:none;stroke:#ffffff;stroke-linecap:round;stroke-width:0.8;"/>
     </g>
     <g id="line2d_10"/>
     <g id="text_5">
      <!-- 800 -->
      <defs>
       <path d="M 31.78125 34.625 
Q 24.75 34.625 20.71875 30.859375 
Q 16.703125 27.09375 16.703125 20.515625 
Q 16.703125 13.921875 20.71875 10.15625 
Q 24.75 6.390625 31.78125 6.390625 
Q 38.8125 6.390625 42.859375 10.171875 
Q 46.921875 13.96875 46.921875 20.515625 
Q 46.921875 27.09375 42.890625 30.859375 
Q 38.875 34.625 31.78125 34.625 
z
M 21.921875 38.8125 
Q 15.578125 40.375 12.03125 44.71875 
Q 8.5 49.078125 8.5 55.328125 
Q 8.5 64.0625 14.71875 69.140625 
Q 20.953125 74.21875 31.78125 74.21875 
Q 42.671875 74.21875 48.875 69.140625 
Q 55.078125 64.0625 55.078125 55.328125 
Q 55.078125 49.078125 51.53125 44.71875 
Q 48 40.375 41.703125 38.8125 
Q 48.828125 37.15625 52.796875 32.3125 
Q 56.78125 27.484375 56.78125 20.515625 
Q 56.78125 9.90625 50.3125 4.234375 
Q 43.84375 -1.421875 31.78125 -1.421875 
Q 19.734375 -1.421875 13.25 4.234375 
Q 6.78125 9.90625 6.78125 20.515625 
Q 6.78125 27.484375 10.78125 32.3125 
Q 14.796875 37.15625 21.921875 38.8125 
z
M 18.3125 54.390625 
Q 18.3125 48.734375 21.84375 45.5625 
Q 25.390625 42.390625 31.78125 42.390625 
Q 38.140625 42.390625 41.71875 45.5625 
Q 45.3125 48.734375 45.3125 54.390625 
Q 45.3125 60.0625 41.71875 63.234375 
Q 38.140625 66.40625 31.78125 66.40625 
Q 25.390625 66.40625 21.84375 63.234375 
Q 18.3125 60.0625 18.3125 54.390625 
z
" id="DejaVuSans-38"/>
      </defs>
      <g style="fill:#262626;" transform="translate(399.663636 329.038437)scale(0.1 -0.1)">
       <use xlink:href="#DejaVuSans-38"/>
       <use x="63.623047" xlink:href="#DejaVuSans-30"/>
       <use x="127.246094" xlink:href="#DejaVuSans-30"/>
      </g>
     </g>
    </g>
    <g id="text_6">
     <!-- Credits -->
     <defs>
      <path d="M 64.40625 67.28125 
L 64.40625 56.890625 
Q 59.421875 61.53125 53.78125 63.8125 
Q 48.140625 66.109375 41.796875 66.109375 
Q 29.296875 66.109375 22.65625 58.46875 
Q 16.015625 50.828125 16.015625 36.375 
Q 16.015625 21.96875 22.65625 14.328125 
Q 29.296875 6.6875 41.796875 6.6875 
Q 48.140625 6.6875 53.78125 8.984375 
Q 59.421875 11.28125 64.40625 15.921875 
L 64.40625 5.609375 
Q 59.234375 2.09375 53.4375 0.328125 
Q 47.65625 -1.421875 41.21875 -1.421875 
Q 24.65625 -1.421875 15.125 8.703125 
Q 5.609375 18.84375 5.609375 36.375 
Q 5.609375 53.953125 15.125 64.078125 
Q 24.65625 74.21875 41.21875 74.21875 
Q 47.75 74.21875 53.53125 72.484375 
Q 59.328125 70.75 64.40625 67.28125 
z
" id="DejaVuSans-43"/>
      <path d="M 41.109375 46.296875 
Q 39.59375 47.171875 37.8125 47.578125 
Q 36.03125 48 33.890625 48 
Q 26.265625 48 22.1875 43.046875 
Q 18.109375 38.09375 18.109375 28.8125 
L 18.109375 0 
L 9.078125 0 
L 9.078125 54.6875 
L 18.109375 54.6875 
L 18.109375 46.1875 
Q 20.953125 51.171875 25.484375 53.578125 
Q 30.03125 56 36.53125 56 
Q 37.453125 56 38.578125 55.875 
Q 39.703125 55.765625 41.0625 55.515625 
z
" id="DejaVuSans-72"/>
      <path d="M 56.203125 29.59375 
L 56.203125 25.203125 
L 14.890625 25.203125 
Q 15.484375 15.921875 20.484375 11.0625 
Q 25.484375 6.203125 34.421875 6.203125 
Q 39.59375 6.203125 44.453125 7.46875 
Q 49.3125 8.734375 54.109375 11.28125 
L 54.109375 2.78125 
Q 49.265625 0.734375 44.1875 -0.34375 
Q 39.109375 -1.421875 33.890625 -1.421875 
Q 20.796875 -1.421875 13.15625 6.1875 
Q 5.515625 13.8125 5.515625 26.8125 
Q 5.515625 40.234375 12.765625 48.109375 
Q 20.015625 56 32.328125 56 
Q 43.359375 56 49.78125 48.890625 
Q 56.203125 41.796875 56.203125 29.59375 
z
M 47.21875 32.234375 
Q 47.125 39.59375 43.09375 43.984375 
Q 39.0625 48.390625 32.421875 48.390625 
Q 24.90625 48.390625 20.390625 44.140625 
Q 15.875 39.890625 15.1875 32.171875 
z
" id="DejaVuSans-65"/>
      <path d="M 45.40625 46.390625 
L 45.40625 75.984375 
L 54.390625 75.984375 
L 54.390625 0 
L 45.40625 0 
L 45.40625 8.203125 
Q 42.578125 3.328125 38.25 0.953125 
Q 33.9375 -1.421875 27.875 -1.421875 
Q 17.96875 -1.421875 11.734375 6.484375 
Q 5.515625 14.40625 5.515625 27.296875 
Q 5.515625 40.1875 11.734375 48.09375 
Q 17.96875 56 27.875 56 
Q 33.9375 56 38.25 53.625 
Q 42.578125 51.265625 45.40625 46.390625 
z
M 14.796875 27.296875 
Q 14.796875 17.390625 18.875 11.75 
Q 22.953125 6.109375 30.078125 6.109375 
Q 37.203125 6.109375 41.296875 11.75 
Q 45.40625 17.390625 45.40625 27.296875 
Q 45.40625 37.203125 41.296875 42.84375 
Q 37.203125 48.484375 30.078125 48.484375 
Q 22.953125 48.484375 18.875 42.84375 
Q 14.796875 37.203125 14.796875 27.296875 
z
" id="DejaVuSans-64"/>
      <path d="M 9.421875 54.6875 
L 18.40625 54.6875 
L 18.40625 0 
L 9.421875 0 
z
M 9.421875 75.984375 
L 18.40625 75.984375 
L 18.40625 64.59375 
L 9.421875 64.59375 
z
" id="DejaVuSans-69"/>
      <path d="M 18.3125 70.21875 
L 18.3125 54.6875 
L 36.8125 54.6875 
L 36.8125 47.703125 
L 18.3125 47.703125 
L 18.3125 18.015625 
Q 18.3125 11.328125 20.140625 9.421875 
Q 21.96875 7.515625 27.59375 7.515625 
L 36.8125 7.515625 
L 36.8125 0 
L 27.59375 0 
Q 17.1875 0 13.234375 3.875 
Q 9.28125 7.765625 9.28125 18.015625 
L 9.28125 47.703125 
L 2.6875 47.703125 
L 2.6875 54.6875 
L 9.28125 54.6875 
L 9.28125 70.21875 
z
" id="DejaVuSans-74"/>
      <path d="M 44.28125 53.078125 
L 44.28125 44.578125 
Q 40.484375 46.53125 36.375 47.5 
Q 32.28125 48.484375 27.875 48.484375 
Q 21.1875 48.484375 17.84375 46.4375 
Q 14.5 44.390625 14.5 40.28125 
Q 14.5 37.15625 16.890625 35.375 
Q 19.28125 33.59375 26.515625 31.984375 
L 29.59375 31.296875 
Q 39.15625 29.25 43.1875 25.515625 
Q 47.21875 21.78125 47.21875 15.09375 
Q 47.21875 7.46875 41.1875 3.015625 
Q 35.15625 -1.421875 24.609375 -1.421875 
Q 20.21875 -1.421875 15.453125 -0.5625 
Q 10.6875 0.296875 5.421875 2 
L 5.421875 11.28125 
Q 10.40625 8.6875 15.234375 7.390625 
Q 20.0625 6.109375 24.8125 6.109375 
Q 31.15625 6.109375 34.5625 8.28125 
Q 37.984375 10.453125 37.984375 14.40625 
Q 37.984375 18.0625 35.515625 20.015625 
Q 33.0625 21.96875 24.703125 23.78125 
L 21.578125 24.515625 
Q 13.234375 26.265625 9.515625 29.90625 
Q 5.8125 33.546875 5.8125 39.890625 
Q 5.8125 47.609375 11.28125 51.796875 
Q 16.75 56 26.8125 56 
Q 31.78125 56 36.171875 55.265625 
Q 40.578125 54.546875 44.28125 53.078125 
z
" id="DejaVuSans-73"/>
     </defs>
     <g style="fill:#262626;" transform="translate(224.743922 342.716562)scale(0.1 -0.1)">
      <use xlink:href="#DejaVuSans-43"/>
      <use x="69.824219" xlink:href="#DejaVuSans-72"/>
      <use x="110.90625" xlink:href="#DejaVuSans-65"/>
      <use x="172.429688" xlink:href="#DejaVuSans-64"/>
      <use x="235.90625" xlink:href="#DejaVuSans-69"/>
      <use x="263.689453" xlink:href="#DejaVuSans-74"/>
      <use x="302.898438" xlink:href="#DejaVuSans-73"/>
     </g>
    </g>
   </g>
   <g id="matplotlib.axis_2">
    <g id="ytick_1">
     <g id="line2d_11">
      <path clip-path="url(#p66d2073c34)" d="M 49.828125 281.375457 
L 435.15972 281.375457 
" style="fill:none;stroke:#ffffff;stroke-linecap:round;stroke-width:0.8;"/>
     </g>
     <g id="line2d_12"/>
     <g id="text_7">
      <!-- 0 -->
      <g style="fill:#262626;" transform="translate(39.965625 285.174676)scale(0.1 -0.1)">
       <use xlink:href="#DejaVuSans-30"/>
      </g>
     </g>
    </g>
    <g id="ytick_2">
     <g id="line2d_13">
      <path clip-path="url(#p66d2073c34)" d="M 49.828125 243.999419 
L 435.15972 243.999419 
" style="fill:none;stroke:#ffffff;stroke-linecap:round;stroke-width:0.8;"/>
     </g>
     <g id="line2d_14"/>
     <g id="text_8">
      <!-- 200 -->
      <g style="fill:#262626;" transform="translate(27.240625 247.798638)scale(0.1 -0.1)">
       <use xlink:href="#DejaVuSans-32"/>
       <use x="63.623047" xlink:href="#DejaVuSans-30"/>
       <use x="127.246094" xlink:href="#DejaVuSans-30"/>
      </g>
     </g>
    </g>
    <g id="ytick_3">
     <g id="line2d_15">
      <path clip-path="url(#p66d2073c34)" d="M 49.828125 206.623382 
L 435.15972 206.623382 
" style="fill:none;stroke:#ffffff;stroke-linecap:round;stroke-width:0.8;"/>
     </g>
     <g id="line2d_16"/>
     <g id="text_9">
      <!-- 400 -->
      <g style="fill:#262626;" transform="translate(27.240625 210.422601)scale(0.1 -0.1)">
       <use xlink:href="#DejaVuSans-34"/>
       <use x="63.623047" xlink:href="#DejaVuSans-30"/>
       <use x="127.246094" xlink:href="#DejaVuSans-30"/>
      </g>
     </g>
    </g>
    <g id="ytick_4">
     <g id="line2d_17">
      <path clip-path="url(#p66d2073c34)" d="M 49.828125 169.247344 
L 435.15972 169.247344 
" style="fill:none;stroke:#ffffff;stroke-linecap:round;stroke-width:0.8;"/>
     </g>
     <g id="line2d_18"/>
     <g id="text_10">
      <!-- 600 -->
      <g style="fill:#262626;" transform="translate(27.240625 173.046563)scale(0.1 -0.1)">
       <use xlink:href="#DejaVuSans-36"/>
       <use x="63.623047" xlink:href="#DejaVuSans-30"/>
       <use x="127.246094" xlink:href="#DejaVuSans-30"/>
      </g>
     </g>
    </g>
    <g id="ytick_5">
     <g id="line2d_19">
      <path clip-path="url(#p66d2073c34)" d="M 49.828125 131.871307 
L 435.15972 131.871307 
" style="fill:none;stroke:#ffffff;stroke-linecap:round;stroke-width:0.8;"/>
     </g>
     <g id="line2d_20"/>
     <g id="text_11">
      <!-- 800 -->
      <g style="fill:#262626;" transform="translate(27.240625 135.670525)scale(0.1 -0.1)">
       <use xlink:href="#DejaVuSans-38"/>
       <use x="63.623047" xlink:href="#DejaVuSans-30"/>
       <use x="127.246094" xlink:href="#DejaVuSans-30"/>
      </g>
     </g>
    </g>
    <g id="ytick_6">
     <g id="line2d_21">
      <path clip-path="url(#p66d2073c34)" d="M 49.828125 94.495269 
L 435.15972 94.495269 
" style="fill:none;stroke:#ffffff;stroke-linecap:round;stroke-width:0.8;"/>
     </g>
     <g id="line2d_22"/>
     <g id="text_12">
      <!-- 1000 -->
      <defs>
       <path d="M 12.40625 8.296875 
L 28.515625 8.296875 
L 28.515625 63.921875 
L 10.984375 60.40625 
L 10.984375 69.390625 
L 28.421875 72.90625 
L 38.28125 72.90625 
L 38.28125 8.296875 
L 54.390625 8.296875 
L 54.390625 0 
L 12.40625 0 
z
" id="DejaVuSans-31"/>
      </defs>
      <g style="fill:#262626;" transform="translate(20.878125 98.294488)scale(0.1 -0.1)">
       <use xlink:href="#DejaVuSans-31"/>
       <use x="63.623047" xlink:href="#DejaVuSans-30"/>
       <use x="127.246094" xlink:href="#DejaVuSans-30"/>
       <use x="190.869141" xlink:href="#DejaVuSans-30"/>
      </g>
     </g>
    </g>
    <g id="ytick_7">
     <g id="line2d_23">
      <path clip-path="url(#p66d2073c34)" d="M 49.828125 57.119232 
L 435.15972 57.119232 
" style="fill:none;stroke:#ffffff;stroke-linecap:round;stroke-width:0.8;"/>
     </g>
     <g id="line2d_24"/>
     <g id="text_13">
      <!-- 1200 -->
      <g style="fill:#262626;" transform="translate(20.878125 60.91845)scale(0.1 -0.1)">
       <use xlink:href="#DejaVuSans-31"/>
       <use x="63.623047" xlink:href="#DejaVuSans-32"/>
       <use x="127.246094" xlink:href="#DejaVuSans-30"/>
       <use x="190.869141" xlink:href="#DejaVuSans-30"/>
      </g>
     </g>
    </g>
    <g id="ytick_8">
     <g id="line2d_25">
      <path clip-path="url(#p66d2073c34)" d="M 49.828125 19.743194 
L 435.15972 19.743194 
" style="fill:none;stroke:#ffffff;stroke-linecap:round;stroke-width:0.8;"/>
     </g>
     <g id="line2d_26"/>
     <g id="text_14">
      <!-- 1400 -->
      <g style="fill:#262626;" transform="translate(20.878125 23.542413)scale(0.1 -0.1)">
       <use xlink:href="#DejaVuSans-31"/>
       <use x="63.623047" xlink:href="#DejaVuSans-34"/>
       <use x="127.246094" xlink:href="#DejaVuSans-30"/>
       <use x="190.869141" xlink:href="#DejaVuSans-30"/>
      </g>
     </g>
    </g>
    <g id="text_15">
     <!-- Debits -->
     <defs>
      <path d="M 19.671875 64.796875 
L 19.671875 8.109375 
L 31.59375 8.109375 
Q 46.6875 8.109375 53.6875 14.9375 
Q 60.6875 21.78125 60.6875 36.53125 
Q 60.6875 51.171875 53.6875 57.984375 
Q 46.6875 64.796875 31.59375 64.796875 
z
M 9.8125 72.90625 
L 30.078125 72.90625 
Q 51.265625 72.90625 61.171875 64.09375 
Q 71.09375 55.28125 71.09375 36.53125 
Q 71.09375 17.671875 61.125 8.828125 
Q 51.171875 0 30.078125 0 
L 9.8125 0 
z
" id="DejaVuSans-44"/>
      <path d="M 48.6875 27.296875 
Q 48.6875 37.203125 44.609375 42.84375 
Q 40.53125 48.484375 33.40625 48.484375 
Q 26.265625 48.484375 22.1875 42.84375 
Q 18.109375 37.203125 18.109375 27.296875 
Q 18.109375 17.390625 22.1875 11.75 
Q 26.265625 6.109375 33.40625 6.109375 
Q 40.53125 6.109375 44.609375 11.75 
Q 48.6875 17.390625 48.6875 27.296875 
z
M 18.109375 46.390625 
Q 20.953125 51.265625 25.265625 53.625 
Q 29.59375 56 35.59375 56 
Q 45.5625 56 51.78125 48.09375 
Q 58.015625 40.1875 58.015625 27.296875 
Q 58.015625 14.40625 51.78125 6.484375 
Q 45.5625 -1.421875 35.59375 -1.421875 
Q 29.59375 -1.421875 25.265625 0.953125 
Q 20.953125 3.328125 18.109375 8.203125 
L 18.109375 0 
L 9.078125 0 
L 9.078125 75.984375 
L 18.109375 75.984375 
z
" id="DejaVuSans-62"/>
     </defs>
     <g style="fill:#262626;" transform="translate(14.798438 178.624687)rotate(-90)scale(0.1 -0.1)">
      <use xlink:href="#DejaVuSans-44"/>
      <use x="77.001953" xlink:href="#DejaVuSans-65"/>
      <use x="138.525391" xlink:href="#DejaVuSans-62"/>
      <use x="202.001953" xlink:href="#DejaVuSans-69"/>
      <use x="229.785156" xlink:href="#DejaVuSans-74"/>
      <use x="268.994141" xlink:href="#DejaVuSans-73"/>
     </g>
    </g>
   </g>
   <g id="PathCollection_1">
    <defs>
     <path d="M 0 3 
C 0.795609 3 1.55874 2.683901 2.12132 2.12132 
C 2.683901 1.55874 3 0.795609 3 0 
C 3 -0.795609 2.683901 -1.55874 2.12132 -2.12132 
C 1.55874 -2.683901 0.795609 -3 0 -3 
C -0.795609 -3 -1.55874 -2.683901 -2.12132 -2.12132 
C -2.683901 -1.55874 -3 -0.795609 -3 0 
C -3 0.795609 -2.683901 1.55874 -2.12132 2.12132 
C -1.55874 2.683901 -0.795609 3 0 3 
z
" id="m1b405e80e9" style="stroke:#1f77b4;stroke-opacity:0.8;"/>
    </defs>
    <g clip-path="url(#p66d2073c34)">
     <use style="fill:#1f77b4;fill-opacity:0.8;stroke:#1f77b4;stroke-opacity:0.8;" x="79.584035" xlink:href="#m1b405e80e9" y="272.470769"/>
     <use style="fill:#1f77b4;fill-opacity:0.8;stroke:#1f77b4;stroke-opacity:0.8;" x="74.038679" xlink:href="#m1b405e80e9" y="284.91912"/>
     <use style="fill:#1f77b4;fill-opacity:0.8;stroke:#1f77b4;stroke-opacity:0.8;" x="86.99584" xlink:href="#m1b405e80e9" y="268.753061"/>
     <use style="fill:#1f77b4;fill-opacity:0.8;stroke:#1f77b4;stroke-opacity:0.8;" x="196.078422" xlink:href="#m1b405e80e9" y="221.616944"/>
     <use style="fill:#1f77b4;fill-opacity:0.8;stroke:#1f77b4;stroke-opacity:0.8;" x="80.69514" xlink:href="#m1b405e80e9" y="287.733572"/>
     <use style="fill:#1f77b4;fill-opacity:0.8;stroke:#1f77b4;stroke-opacity:0.8;" x="71.968401" xlink:href="#m1b405e80e9" y="275.704128"/>
     <use style="fill:#1f77b4;fill-opacity:0.8;stroke:#1f77b4;stroke-opacity:0.8;" x="84.74607" xlink:href="#m1b405e80e9" y="257.706129"/>
     <use style="fill:#1f77b4;fill-opacity:0.8;stroke:#1f77b4;stroke-opacity:0.8;" x="93.330224" xlink:href="#m1b405e80e9" y="273.442645"/>
     <use style="fill:#1f77b4;fill-opacity:0.8;stroke:#1f77b4;stroke-opacity:0.8;" x="107.399182" xlink:href="#m1b405e80e9" y="258.986209"/>
     <use style="fill:#1f77b4;fill-opacity:0.8;stroke:#1f77b4;stroke-opacity:0.8;" x="69.299741" xlink:href="#m1b405e80e9" y="270.775959"/>
     <use style="fill:#1f77b4;fill-opacity:0.8;stroke:#1f77b4;stroke-opacity:0.8;" x="70.491078" xlink:href="#m1b405e80e9" y="282.078832"/>
     <use style="fill:#1f77b4;fill-opacity:0.8;stroke:#1f77b4;stroke-opacity:0.8;" x="101.328599" xlink:href="#m1b405e80e9" y="256.749516"/>
     <use style="fill:#1f77b4;fill-opacity:0.8;stroke:#1f77b4;stroke-opacity:0.8;" x="198.499723" xlink:href="#m1b405e80e9" y="226.109625"/>
     <use style="fill:#1f77b4;fill-opacity:0.8;stroke:#1f77b4;stroke-opacity:0.8;" x="72.844822" xlink:href="#m1b405e80e9" y="280.587164"/>
     <use style="fill:#1f77b4;fill-opacity:0.8;stroke:#1f77b4;stroke-opacity:0.8;" x="82.144104" xlink:href="#m1b405e80e9" y="253.054248"/>
     <use style="fill:#1f77b4;fill-opacity:0.8;stroke:#1f77b4;stroke-opacity:0.8;" x="98.241914" xlink:href="#m1b405e80e9" y="262.616965"/>
     <use style="fill:#1f77b4;fill-opacity:0.8;stroke:#1f77b4;stroke-opacity:0.8;" x="162.162292" xlink:href="#m1b405e80e9" y="210.582637"/>
     <use style="fill:#1f77b4;fill-opacity:0.8;stroke:#1f77b4;stroke-opacity:0.8;" x="176.91435" xlink:href="#m1b405e80e9" y="243.65569"/>
     <use style="fill:#1f77b4;fill-opacity:0.8;stroke:#1f77b4;stroke-opacity:0.8;" x="184.031924" xlink:href="#m1b405e80e9" y="203.899806"/>
     <use style="fill:#1f77b4;fill-opacity:0.8;stroke:#1f77b4;stroke-opacity:0.8;" x="106.412541" xlink:href="#m1b405e80e9" y="222.636928"/>
     <use style="fill:#1f77b4;fill-opacity:0.8;stroke:#1f77b4;stroke-opacity:0.8;" x="84.227556" xlink:href="#m1b405e80e9" y="285.792561"/>
     <use style="fill:#1f77b4;fill-opacity:0.8;stroke:#1f77b4;stroke-opacity:0.8;" x="107.32765" xlink:href="#m1b405e80e9" y="283.992512"/>
     <use style="fill:#1f77b4;fill-opacity:0.8;stroke:#1f77b4;stroke-opacity:0.8;" x="85.25576" xlink:href="#m1b405e80e9" y="278.695157"/>
     <use style="fill:#1f77b4;fill-opacity:0.8;stroke:#1f77b4;stroke-opacity:0.8;" x="106.504839" xlink:href="#m1b405e80e9" y="249.449549"/>
     <use style="fill:#1f77b4;fill-opacity:0.8;stroke:#1f77b4;stroke-opacity:0.8;" x="81.809588" xlink:href="#m1b405e80e9" y="272.204086"/>
     <use style="fill:#1f77b4;fill-opacity:0.8;stroke:#1f77b4;stroke-opacity:0.8;" x="94.241777" xlink:href="#m1b405e80e9" y="266.232527"/>
     <use style="fill:#1f77b4;fill-opacity:0.8;stroke:#1f77b4;stroke-opacity:0.8;" x="77.479194" xlink:href="#m1b405e80e9" y="277.710149"/>
     <use style="fill:#1f77b4;fill-opacity:0.8;stroke:#1f77b4;stroke-opacity:0.8;" x="162.929925" xlink:href="#m1b405e80e9" y="246.146633"/>
     <use style="fill:#1f77b4;fill-opacity:0.8;stroke:#1f77b4;stroke-opacity:0.8;" x="83.68602" xlink:href="#m1b405e80e9" y="280.386199"/>
     <use style="fill:#1f77b4;fill-opacity:0.8;stroke:#1f77b4;stroke-opacity:0.8;" x="102.665102" xlink:href="#m1b405e80e9" y="277.406761"/>
     <use style="fill:#1f77b4;fill-opacity:0.8;stroke:#1f77b4;stroke-opacity:0.8;" x="83.969781" xlink:href="#m1b405e80e9" y="242.160575"/>
     <use style="fill:#1f77b4;fill-opacity:0.8;stroke:#1f77b4;stroke-opacity:0.8;" x="80.195808" xlink:href="#m1b405e80e9" y="223.407958"/>
     <use style="fill:#1f77b4;fill-opacity:0.8;stroke:#1f77b4;stroke-opacity:0.8;" x="203.496041" xlink:href="#m1b405e80e9" y="192.151263"/>
     <use style="fill:#1f77b4;fill-opacity:0.8;stroke:#1f77b4;stroke-opacity:0.8;" x="106.816635" xlink:href="#m1b405e80e9" y="287.663662"/>
     <use style="fill:#1f77b4;fill-opacity:0.8;stroke:#1f77b4;stroke-opacity:0.8;" x="105.902374" xlink:href="#m1b405e80e9" y="271.068969"/>
     <use style="fill:#1f77b4;fill-opacity:0.8;stroke:#1f77b4;stroke-opacity:0.8;" x="141.896274" xlink:href="#m1b405e80e9" y="261.665488"/>
     <use style="fill:#1f77b4;fill-opacity:0.8;stroke:#1f77b4;stroke-opacity:0.8;" x="107.426145" xlink:href="#m1b405e80e9" y="283.892151"/>
     <use style="fill:#1f77b4;fill-opacity:0.8;stroke:#1f77b4;stroke-opacity:0.8;" x="112.84356" xlink:href="#m1b405e80e9" y="244.32725"/>
     <use style="fill:#1f77b4;fill-opacity:0.8;stroke:#1f77b4;stroke-opacity:0.8;" x="118.976431" xlink:href="#m1b405e80e9" y="256.453436"/>
     <use style="fill:#1f77b4;fill-opacity:0.8;stroke:#1f77b4;stroke-opacity:0.8;" x="94.794803" xlink:href="#m1b405e80e9" y="274.193975"/>
     <use style="fill:#1f77b4;fill-opacity:0.8;stroke:#1f77b4;stroke-opacity:0.8;" x="92.079164" xlink:href="#m1b405e80e9" y="268.539202"/>
     <use style="fill:#1f77b4;fill-opacity:0.8;stroke:#1f77b4;stroke-opacity:0.8;" x="84.898182" xlink:href="#m1b405e80e9" y="276.621437"/>
     <use style="fill:#1f77b4;fill-opacity:0.8;stroke:#1f77b4;stroke-opacity:0.8;" x="81.627626" xlink:href="#m1b405e80e9" y="272.48358"/>
     <use style="fill:#1f77b4;fill-opacity:0.8;stroke:#1f77b4;stroke-opacity:0.8;" x="85.992998" xlink:href="#m1b405e80e9" y="287.524285"/>
     <use style="fill:#1f77b4;fill-opacity:0.8;stroke:#1f77b4;stroke-opacity:0.8;" x="105.949769" xlink:href="#m1b405e80e9" y="286.789902"/>
     <use style="fill:#1f77b4;fill-opacity:0.8;stroke:#1f77b4;stroke-opacity:0.8;" x="74.648814" xlink:href="#m1b405e80e9" y="269.595088"/>
     <use style="fill:#1f77b4;fill-opacity:0.8;stroke:#1f77b4;stroke-opacity:0.8;" x="93.101802" xlink:href="#m1b405e80e9" y="277.792131"/>
     <use style="fill:#1f77b4;fill-opacity:0.8;stroke:#1f77b4;stroke-opacity:0.8;" x="92.364583" xlink:href="#m1b405e80e9" y="280.581096"/>
     <use style="fill:#1f77b4;fill-opacity:0.8;stroke:#1f77b4;stroke-opacity:0.8;" x="150.156876" xlink:href="#m1b405e80e9" y="254.108319"/>
     <use style="fill:#1f77b4;fill-opacity:0.8;stroke:#1f77b4;stroke-opacity:0.8;" x="86.719073" xlink:href="#m1b405e80e9" y="287.341702"/>
     <use style="fill:#1f77b4;fill-opacity:0.8;stroke:#1f77b4;stroke-opacity:0.8;" x="101.436807" xlink:href="#m1b405e80e9" y="270.813874"/>
    </g>
   </g>
   <g id="PolyCollection_1">
    <path clip-path="url(#p66d2073c34)" d="M 49.828125 286.353054 
L 49.828125 303.815455 
L 53.720363 301.036552 
L 57.612602 298.204839 
L 61.50484 295.499193 
L 65.397078 292.708544 
L 69.289317 290.005899 
L 73.181555 287.342255 
L 77.073793 284.80305 
L 80.966032 282.186614 
L 84.85827 279.546545 
L 88.750508 277.023078 
L 92.642747 274.580767 
L 96.534985 272.188715 
L 100.427223 269.893978 
L 104.319462 267.832658 
L 108.2117 265.861902 
L 112.103938 264.012233 
L 115.996177 262.114498 
L 119.888415 260.324441 
L 123.780653 258.427787 
L 127.672892 256.757616 
L 131.56513 255.032283 
L 135.457368 253.282365 
L 139.349607 251.568046 
L 143.241845 249.892687 
L 147.134083 248.153892 
L 151.026322 246.406414 
L 154.91856 244.662011 
L 158.810798 242.983543 
L 162.703037 241.418194 
L 166.595275 239.867285 
L 170.487513 238.283221 
L 174.379752 236.536566 
L 178.27199 234.796983 
L 182.164228 233.092437 
L 186.056467 231.450677 
L 189.948705 229.8896 
L 193.840943 228.339082 
L 197.733182 226.750272 
L 201.62542 225.137973 
L 205.517658 223.525223 
L 209.409897 221.864497 
L 213.302135 220.2179 
L 217.194373 218.559341 
L 221.086612 216.955797 
L 224.97885 215.351591 
L 228.871088 213.748019 
L 232.763327 212.147125 
L 236.655565 210.546231 
L 240.547803 208.943678 
L 244.440041 207.340034 
L 248.33228 205.73639 
L 252.224518 204.156679 
L 256.116756 202.562351 
L 260.008995 200.953322 
L 263.901233 199.33299 
L 267.793471 197.769473 
L 271.68571 196.204978 
L 275.577948 194.640482 
L 279.470186 193.059604 
L 283.362425 191.440614 
L 287.254663 189.821623 
L 291.146901 188.202633 
L 295.03914 186.583642 
L 298.931378 184.964652 
L 302.823616 183.345661 
L 306.715855 181.72667 
L 310.608093 180.10768 
L 314.500331 178.503253 
L 318.39257 176.901626 
L 322.284808 175.3 
L 326.177046 173.698373 
L 330.069285 172.096746 
L 333.961523 170.49512 
L 337.853761 168.893493 
L 341.746 167.291867 
L 345.638238 165.689445 
L 349.530476 164.086597 
L 353.422715 162.483749 
L 357.314953 160.8809 
L 361.207191 159.278052 
L 365.09943 157.675204 
L 368.991668 156.072356 
L 372.883906 154.469508 
L 376.776145 152.86666 
L 380.668383 151.263811 
L 384.560621 149.660963 
L 388.45286 148.07671 
L 392.345098 146.50463 
L 396.237336 144.932549 
L 400.129575 143.360469 
L 404.021813 141.788389 
L 407.914051 140.216309 
L 411.80629 138.644229 
L 415.698528 137.072148 
L 419.590766 135.500068 
L 423.483005 133.927988 
L 427.375243 132.355908 
L 431.267481 130.783828 
L 435.15972 129.211747 
L 435.15972 21.324545 
L 435.15972 21.324545 
L 431.267481 24.177754 
L 427.375243 27.030963 
L 423.483005 29.884172 
L 419.590766 32.737381 
L 415.698528 35.59059 
L 411.80629 38.443799 
L 407.914051 41.297008 
L 404.021813 44.150217 
L 400.129575 47.003426 
L 396.237336 49.856635 
L 392.345098 52.709844 
L 388.45286 55.563053 
L 384.560621 58.416262 
L 380.668383 61.269471 
L 376.776145 64.12268 
L 372.883906 66.975889 
L 368.991668 69.829098 
L 365.09943 72.682307 
L 361.207191 75.535516 
L 357.314953 78.388725 
L 353.422715 81.241934 
L 349.530476 84.095143 
L 345.638238 86.948352 
L 341.746 89.801561 
L 337.853761 92.65477 
L 333.961523 95.507979 
L 330.069285 98.361188 
L 326.177046 101.214397 
L 322.284808 104.067606 
L 318.39257 106.920815 
L 314.500331 109.774024 
L 310.608093 112.627233 
L 306.715855 115.480442 
L 302.823616 118.333651 
L 298.931378 121.18686 
L 295.03914 124.038541 
L 291.146901 126.838933 
L 287.254663 129.639326 
L 283.362425 132.460156 
L 279.470186 135.310769 
L 275.577948 138.161383 
L 271.68571 141.011996 
L 267.793471 143.862609 
L 263.901233 146.713431 
L 260.008995 149.497008 
L 256.116756 152.262266 
L 252.224518 155.054343 
L 248.33228 157.922363 
L 244.440041 160.793772 
L 240.547803 163.599931 
L 236.655565 166.509105 
L 232.763327 169.399914 
L 228.871088 172.267536 
L 224.97885 175.135158 
L 221.086612 178.00278 
L 217.194373 180.873043 
L 213.302135 183.743588 
L 209.409897 186.614132 
L 205.517658 189.480441 
L 201.62542 192.294282 
L 197.733182 195.067616 
L 193.840943 197.837797 
L 189.948705 200.607977 
L 186.056467 203.378157 
L 182.164228 206.148341 
L 178.27199 208.921765 
L 174.379752 211.689252 
L 170.487513 214.562487 
L 166.595275 217.42932 
L 162.703037 220.239929 
L 158.810798 223.101665 
L 154.91856 225.969553 
L 151.026322 228.939408 
L 147.134083 231.738185 
L 143.241845 234.535782 
L 139.349607 237.331033 
L 135.457368 240.099349 
L 131.56513 242.926273 
L 127.672892 245.597377 
L 123.780653 248.396167 
L 119.888415 250.922157 
L 115.996177 253.24823 
L 112.103938 255.769081 
L 108.2117 258.286867 
L 104.319462 260.458006 
L 100.427223 262.528776 
L 96.534985 264.614418 
L 92.642747 266.74459 
L 88.750508 268.536315 
L 84.85827 270.2994 
L 80.966032 272.043573 
L 77.073793 274.121453 
L 73.181555 275.922632 
L 69.289317 277.815649 
L 65.397078 279.538421 
L 61.50484 281.228621 
L 57.612602 282.926145 
L 53.720363 284.651613 
L 49.828125 286.353054 
z
" style="fill:#1f77b4;fill-opacity:0.15;"/>
   </g>
   <g id="PathCollection_2">
    <defs>
     <path d="M 0 3 
C 0.795609 3 1.55874 2.683901 2.12132 2.12132 
C 2.683901 1.55874 3 0.795609 3 0 
C 3 -0.795609 2.683901 -1.55874 2.12132 -2.12132 
C 1.55874 -2.683901 0.795609 -3 0 -3 
C -0.795609 -3 -1.55874 -2.683901 -2.12132 -2.12132 
C -2.683901 -1.55874 -3 -0.795609 -3 0 
C -3 0.795609 -2.683901 1.55874 -2.12132 2.12132 
C -1.55874 2.683901 -0.795609 3 0 3 
z
" id="m4e9f707ce5" style="stroke:#ff7f0e;stroke-opacity:0.8;"/>
    </defs>
    <g clip-path="url(#p66d2073c34)">
     <use style="fill:#ff7f0e;fill-opacity:0.8;stroke:#ff7f0e;stroke-opacity:0.8;" x="208.732846" xlink:href="#m4e9f707ce5" y="218.474562"/>
     <use style="fill:#ff7f0e;fill-opacity:0.8;stroke:#ff7f0e;stroke-opacity:0.8;" x="131.53081" xlink:href="#m4e9f707ce5" y="257.670062"/>
     <use style="fill:#ff7f0e;fill-opacity:0.8;stroke:#ff7f0e;stroke-opacity:0.8;" x="108.617916" xlink:href="#m4e9f707ce5" y="284.633047"/>
     <use style="fill:#ff7f0e;fill-opacity:0.8;stroke:#ff7f0e;stroke-opacity:0.8;" x="120.58563" xlink:href="#m4e9f707ce5" y="264.822994"/>
     <use style="fill:#ff7f0e;fill-opacity:0.8;stroke:#ff7f0e;stroke-opacity:0.8;" x="165.349512" xlink:href="#m4e9f707ce5" y="237.096744"/>
     <use style="fill:#ff7f0e;fill-opacity:0.8;stroke:#ff7f0e;stroke-opacity:0.8;" x="104.864364" xlink:href="#m4e9f707ce5" y="263.780361"/>
     <use style="fill:#ff7f0e;fill-opacity:0.8;stroke:#ff7f0e;stroke-opacity:0.8;" x="80.050113" xlink:href="#m4e9f707ce5" y="289.600764"/>
     <use style="fill:#ff7f0e;fill-opacity:0.8;stroke:#ff7f0e;stroke-opacity:0.8;" x="74.57902" xlink:href="#m4e9f707ce5" y="282.07301"/>
     <use style="fill:#ff7f0e;fill-opacity:0.8;stroke:#ff7f0e;stroke-opacity:0.8;" x="93.537281" xlink:href="#m4e9f707ce5" y="288.265993"/>
    </g>
   </g>
   <g id="PolyCollection_2">
    <path clip-path="url(#p66d2073c34)" d="M 49.828125 298.836046 
L 49.828125 298.836046 
L 53.720363 297.027743 
L 57.612602 295.219441 
L 61.50484 293.411138 
L 65.397078 291.602835 
L 69.289317 289.794532 
L 73.181555 287.986229 
L 77.073793 286.177926 
L 80.966032 284.369623 
L 84.85827 282.56132 
L 88.750508 280.753017 
L 92.642747 278.944714 
L 96.534985 277.136412 
L 100.427223 275.328109 
L 104.319462 273.519806 
L 108.2117 271.711503 
L 112.103938 269.9032 
L 115.996177 268.094897 
L 119.888415 266.286594 
L 123.780653 264.478291 
L 127.672892 262.669988 
L 131.56513 260.861685 
L 135.457368 259.053383 
L 139.349607 257.24508 
L 143.241845 255.436777 
L 147.134083 253.628474 
L 151.026322 251.820171 
L 154.91856 250.011868 
L 158.810798 248.203565 
L 162.703037 246.395262 
L 166.595275 244.586959 
L 170.487513 242.778657 
L 174.379752 240.970354 
L 178.27199 239.162051 
L 182.164228 237.353748 
L 186.056467 235.545445 
L 189.948705 233.737142 
L 193.840943 231.928839 
L 197.733182 230.120536 
L 201.62542 228.312233 
L 205.517658 226.50393 
L 209.409897 224.695628 
L 213.302135 222.887325 
L 217.194373 221.079022 
L 221.086612 219.270719 
L 224.97885 217.462416 
L 228.871088 215.654113 
L 232.763327 213.84581 
L 236.655565 212.037507 
L 240.547803 210.229204 
L 244.440041 208.420901 
L 248.33228 206.612599 
L 252.224518 204.804296 
L 256.116756 202.995993 
L 260.008995 201.18769 
L 263.901233 199.379387 
L 267.793471 197.571084 
L 271.68571 195.762781 
L 275.577948 193.954478 
L 279.470186 192.146175 
L 283.362425 190.337872 
L 287.254663 188.52957 
L 291.146901 186.721267 
L 295.03914 184.912964 
L 298.931378 183.104661 
L 302.823616 181.296358 
L 306.715855 179.488055 
L 310.608093 177.679752 
L 314.500331 175.871449 
L 318.39257 174.063146 
L 322.284808 172.254844 
L 326.177046 170.446541 
L 330.069285 168.638238 
L 333.961523 166.829935 
L 337.853761 165.021632 
L 341.746 163.213329 
L 345.638238 161.405026 
L 349.530476 159.596723 
L 353.422715 157.78842 
L 357.314953 155.980117 
L 361.207191 154.171815 
L 365.09943 152.363512 
L 368.991668 150.555209 
L 372.883906 148.746906 
L 376.776145 146.938603 
L 380.668383 145.1303 
L 384.560621 143.321997 
L 388.45286 141.513694 
L 392.345098 139.705391 
L 396.237336 137.897088 
L 400.129575 136.088786 
L 404.021813 134.280483 
L 407.914051 132.47218 
L 411.80629 130.663877 
L 415.698528 128.855574 
L 419.590766 127.047271 
L 423.483005 125.238968 
L 427.375243 123.430665 
L 431.267481 121.622362 
L 435.15972 119.81406 
L 435.15972 119.81406 
L 435.15972 119.81406 
L 431.267481 121.622362 
L 427.375243 123.430665 
L 423.483005 125.238968 
L 419.590766 127.047271 
L 415.698528 128.855574 
L 411.80629 130.663877 
L 407.914051 132.47218 
L 404.021813 134.280483 
L 400.129575 136.088786 
L 396.237336 137.897088 
L 392.345098 139.705391 
L 388.45286 141.513694 
L 384.560621 143.321997 
L 380.668383 145.1303 
L 376.776145 146.938603 
L 372.883906 148.746906 
L 368.991668 150.555209 
L 365.09943 152.363512 
L 361.207191 154.171815 
L 357.314953 155.980117 
L 353.422715 157.78842 
L 349.530476 159.596723 
L 345.638238 161.405026 
L 341.746 163.213329 
L 337.853761 165.021632 
L 333.961523 166.829935 
L 330.069285 168.638238 
L 326.177046 170.446541 
L 322.284808 172.254844 
L 318.39257 174.063146 
L 314.500331 175.871449 
L 310.608093 177.679752 
L 306.715855 179.488055 
L 302.823616 181.296358 
L 298.931378 183.104661 
L 295.03914 184.912964 
L 291.146901 186.721267 
L 287.254663 188.52957 
L 283.362425 190.337872 
L 279.470186 192.146175 
L 275.577948 193.954478 
L 271.68571 195.762781 
L 267.793471 197.571084 
L 263.901233 199.379387 
L 260.008995 201.18769 
L 256.116756 202.995993 
L 252.224518 204.804296 
L 248.33228 206.612599 
L 244.440041 208.420901 
L 240.547803 210.229204 
L 236.655565 212.037507 
L 232.763327 213.84581 
L 228.871088 215.654113 
L 224.97885 217.462416 
L 221.086612 219.270719 
L 217.194373 221.079022 
L 213.302135 222.887325 
L 209.409897 224.695628 
L 205.517658 226.50393 
L 201.62542 228.312233 
L 197.733182 230.120536 
L 193.840943 231.928839 
L 189.948705 233.737142 
L 186.056467 235.545445 
L 182.164228 237.353748 
L 178.27199 239.162051 
L 174.379752 240.970354 
L 170.487513 242.778657 
L 166.595275 244.586959 
L 162.703037 246.395262 
L 158.810798 248.203565 
L 154.91856 250.011868 
L 151.026322 251.820171 
L 147.134083 253.628474 
L 143.241845 255.436777 
L 139.349607 257.24508 
L 135.457368 259.053383 
L 131.56513 260.861685 
L 127.672892 262.669988 
L 123.780653 264.478291 
L 119.888415 266.286594 
L 115.996177 268.094897 
L 112.103938 269.9032 
L 108.2117 271.711503 
L 104.319462 273.519806 
L 100.427223 275.328109 
L 96.534985 277.136412 
L 92.642747 278.944714 
L 88.750508 280.753017 
L 84.85827 282.56132 
L 80.966032 284.369623 
L 77.073793 286.177926 
L 73.181555 287.986229 
L 69.289317 289.794532 
L 65.397078 291.602835 
L 61.50484 293.411138 
L 57.612602 295.219441 
L 53.720363 297.027743 
L 49.828125 298.836046 
z
" style="fill:#ff7f0e;fill-opacity:0.15;"/>
   </g>
   <g id="PathCollection_3">
    <defs>
     <path d="M 0 3 
C 0.795609 3 1.55874 2.683901 2.12132 2.12132 
C 2.683901 1.55874 3 0.795609 3 0 
C 3 -0.795609 2.683901 -1.55874 2.12132 -2.12132 
C 1.55874 -2.683901 0.795609 -3 0 -3 
C -0.795609 -3 -1.55874 -2.683901 -2.12132 -2.12132 
C -2.683901 -1.55874 -3 -0.795609 -3 0 
C -3 0.795609 -2.683901 1.55874 -2.12132 2.12132 
C -1.55874 2.683901 -0.795609 3 0 3 
z
" id="mcfeab57315" style="stroke:#2ca02c;stroke-opacity:0.8;"/>
    </defs>
    <g clip-path="url(#p66d2073c34)">
     <use style="fill:#2ca02c;fill-opacity:0.8;stroke:#2ca02c;stroke-opacity:0.8;" x="148.807636" xlink:href="#mcfeab57315" y="284.301505"/>
     <use style="fill:#2ca02c;fill-opacity:0.8;stroke:#2ca02c;stroke-opacity:0.8;" x="253.787704" xlink:href="#mcfeab57315" y="254.985127"/>
     <use style="fill:#2ca02c;fill-opacity:0.8;stroke:#2ca02c;stroke-opacity:0.8;" x="114.180235" xlink:href="#mcfeab57315" y="278.516592"/>
     <use style="fill:#2ca02c;fill-opacity:0.8;stroke:#2ca02c;stroke-opacity:0.8;" x="132.083577" xlink:href="#mcfeab57315" y="275.196963"/>
     <use style="fill:#2ca02c;fill-opacity:0.8;stroke:#2ca02c;stroke-opacity:0.8;" x="192.107013" xlink:href="#mcfeab57315" y="274.282292"/>
     <use style="fill:#2ca02c;fill-opacity:0.8;stroke:#2ca02c;stroke-opacity:0.8;" x="160.96298" xlink:href="#mcfeab57315" y="282.834722"/>
     <use style="fill:#2ca02c;fill-opacity:0.8;stroke:#2ca02c;stroke-opacity:0.8;" x="144.765539" xlink:href="#mcfeab57315" y="272.886809"/>
     <use style="fill:#2ca02c;fill-opacity:0.8;stroke:#2ca02c;stroke-opacity:0.8;" x="114.398295" xlink:href="#mcfeab57315" y="278.920096"/>
     <use style="fill:#2ca02c;fill-opacity:0.8;stroke:#2ca02c;stroke-opacity:0.8;" x="142.376983" xlink:href="#mcfeab57315" y="276.804154"/>
     <use style="fill:#2ca02c;fill-opacity:0.8;stroke:#2ca02c;stroke-opacity:0.8;" x="270.65523" xlink:href="#mcfeab57315" y="282.098612"/>
     <use style="fill:#2ca02c;fill-opacity:0.8;stroke:#2ca02c;stroke-opacity:0.8;" x="167.022397" xlink:href="#mcfeab57315" y="238.057415"/>
     <use style="fill:#2ca02c;fill-opacity:0.8;stroke:#2ca02c;stroke-opacity:0.8;" x="390.958335" xlink:href="#mcfeab57315" y="286.977382"/>
     <use style="fill:#2ca02c;fill-opacity:0.8;stroke:#2ca02c;stroke-opacity:0.8;" x="370.487998" xlink:href="#mcfeab57315" y="242.285436"/>
     <use style="fill:#2ca02c;fill-opacity:0.8;stroke:#2ca02c;stroke-opacity:0.8;" x="365.200614" xlink:href="#mcfeab57315" y="200.118593"/>
     <use style="fill:#2ca02c;fill-opacity:0.8;stroke:#2ca02c;stroke-opacity:0.8;" x="220.086579" xlink:href="#mcfeab57315" y="287.224232"/>
     <use style="fill:#2ca02c;fill-opacity:0.8;stroke:#2ca02c;stroke-opacity:0.8;" x="122.842416" xlink:href="#mcfeab57315" y="271.606456"/>
     <use style="fill:#2ca02c;fill-opacity:0.8;stroke:#2ca02c;stroke-opacity:0.8;" x="186.097854" xlink:href="#mcfeab57315" y="284.264907"/>
     <use style="fill:#2ca02c;fill-opacity:0.8;stroke:#2ca02c;stroke-opacity:0.8;" x="103.50158" xlink:href="#mcfeab57315" y="273.546912"/>
     <use style="fill:#2ca02c;fill-opacity:0.8;stroke:#2ca02c;stroke-opacity:0.8;" x="234.874529" xlink:href="#mcfeab57315" y="268.004002"/>
     <use style="fill:#2ca02c;fill-opacity:0.8;stroke:#2ca02c;stroke-opacity:0.8;" x="232.933507" xlink:href="#mcfeab57315" y="277.608566"/>
     <use style="fill:#2ca02c;fill-opacity:0.8;stroke:#2ca02c;stroke-opacity:0.8;" x="98.17875" xlink:href="#mcfeab57315" y="288.961257"/>
     <use style="fill:#2ca02c;fill-opacity:0.8;stroke:#2ca02c;stroke-opacity:0.8;" x="431.19223" xlink:href="#mcfeab57315" y="208.141796"/>
     <use style="fill:#2ca02c;fill-opacity:0.8;stroke:#2ca02c;stroke-opacity:0.8;" x="99.628884" xlink:href="#mcfeab57315" y="280.248448"/>
     <use style="fill:#2ca02c;fill-opacity:0.8;stroke:#2ca02c;stroke-opacity:0.8;" x="142.874216" xlink:href="#mcfeab57315" y="285.206061"/>
     <use style="fill:#2ca02c;fill-opacity:0.8;stroke:#2ca02c;stroke-opacity:0.8;" x="104.228832" xlink:href="#mcfeab57315" y="270.069009"/>
     <use style="fill:#2ca02c;fill-opacity:0.8;stroke:#2ca02c;stroke-opacity:0.8;" x="203.646773" xlink:href="#mcfeab57315" y="276.800149"/>
     <use style="fill:#2ca02c;fill-opacity:0.8;stroke:#2ca02c;stroke-opacity:0.8;" x="218.365405" xlink:href="#mcfeab57315" y="277.492909"/>
     <use style="fill:#2ca02c;fill-opacity:0.8;stroke:#2ca02c;stroke-opacity:0.8;" x="198.875683" xlink:href="#mcfeab57315" y="262.699875"/>
     <use style="fill:#2ca02c;fill-opacity:0.8;stroke:#2ca02c;stroke-opacity:0.8;" x="204.907298" xlink:href="#mcfeab57315" y="270.97492"/>
     <use style="fill:#2ca02c;fill-opacity:0.8;stroke:#2ca02c;stroke-opacity:0.8;" x="203.881645" xlink:href="#mcfeab57315" y="281.202365"/>
     <use style="fill:#2ca02c;fill-opacity:0.8;stroke:#2ca02c;stroke-opacity:0.8;" x="106.890119" xlink:href="#mcfeab57315" y="273.761938"/>
     <use style="fill:#2ca02c;fill-opacity:0.8;stroke:#2ca02c;stroke-opacity:0.8;" x="215.925117" xlink:href="#mcfeab57315" y="236.934874"/>
     <use style="fill:#2ca02c;fill-opacity:0.8;stroke:#2ca02c;stroke-opacity:0.8;" x="114.852845" xlink:href="#mcfeab57315" y="266.856146"/>
     <use style="fill:#2ca02c;fill-opacity:0.8;stroke:#2ca02c;stroke-opacity:0.8;" x="185.860322" xlink:href="#mcfeab57315" y="282.47926"/>
     <use style="fill:#2ca02c;fill-opacity:0.8;stroke:#2ca02c;stroke-opacity:0.8;" x="151.454293" xlink:href="#mcfeab57315" y="286.38607"/>
     <use style="fill:#2ca02c;fill-opacity:0.8;stroke:#2ca02c;stroke-opacity:0.8;" x="197.169275" xlink:href="#mcfeab57315" y="277.270217"/>
     <use style="fill:#2ca02c;fill-opacity:0.8;stroke:#2ca02c;stroke-opacity:0.8;" x="185.356309" xlink:href="#mcfeab57315" y="280.257197"/>
     <use style="fill:#2ca02c;fill-opacity:0.8;stroke:#2ca02c;stroke-opacity:0.8;" x="83.770431" xlink:href="#mcfeab57315" y="280.821746"/>
     <use style="fill:#2ca02c;fill-opacity:0.8;stroke:#2ca02c;stroke-opacity:0.8;" x="176.175364" xlink:href="#mcfeab57315" y="268.503159"/>
     <use style="fill:#2ca02c;fill-opacity:0.8;stroke:#2ca02c;stroke-opacity:0.8;" x="141.638194" xlink:href="#mcfeab57315" y="269.201663"/>
     <use style="fill:#2ca02c;fill-opacity:0.8;stroke:#2ca02c;stroke-opacity:0.8;" x="114.570084" xlink:href="#mcfeab57315" y="279.715846"/>
     <use style="fill:#2ca02c;fill-opacity:0.8;stroke:#2ca02c;stroke-opacity:0.8;" x="173.932033" xlink:href="#mcfeab57315" y="263.403154"/>
    </g>
   </g>
   <g id="PolyCollection_3">
    <path clip-path="url(#p66d2073c34)" d="M 49.828125 279.223368 
L 49.828125 299.630627 
L 53.720363 298.784784 
L 57.612602 297.938941 
L 61.50484 297.062231 
L 65.397078 296.17377 
L 69.289317 295.358188 
L 73.181555 294.560624 
L 77.073793 293.758322 
L 80.966032 292.994517 
L 84.85827 292.100688 
L 88.750508 291.205058 
L 92.642747 290.336672 
L 96.534985 289.412992 
L 100.427223 288.518168 
L 104.319462 287.672667 
L 108.2117 286.838824 
L 112.103938 286.012523 
L 115.996177 285.145493 
L 119.888415 284.248616 
L 123.780653 283.504098 
L 127.672892 282.717718 
L 131.56513 281.890527 
L 135.457368 281.146518 
L 139.349607 280.408803 
L 143.241845 279.583336 
L 147.134083 278.896906 
L 151.026322 278.130459 
L 154.91856 277.544128 
L 158.810798 277.019327 
L 162.703037 276.415944 
L 166.595275 276.036949 
L 170.487513 275.540434 
L 174.379752 275.234759 
L 178.27199 274.869697 
L 182.164228 274.603479 
L 186.056467 274.36403 
L 189.948705 274.165127 
L 193.840943 273.967915 
L 197.733182 273.777466 
L 201.62542 273.683725 
L 205.517658 273.589984 
L 209.409897 273.495688 
L 213.302135 273.381345 
L 217.194373 273.172584 
L 221.086612 272.924199 
L 224.97885 272.727104 
L 228.871088 272.53001 
L 232.763327 272.332916 
L 236.655565 272.135822 
L 240.547803 271.938727 
L 244.440041 271.741633 
L 248.33228 271.545248 
L 252.224518 271.349011 
L 256.116756 271.153389 
L 260.008995 270.957767 
L 263.901233 270.762145 
L 267.793471 270.566523 
L 271.68571 270.370901 
L 275.577948 270.175279 
L 279.470186 269.996362 
L 283.362425 269.861304 
L 287.254663 269.726246 
L 291.146901 269.591188 
L 295.03914 269.45613 
L 298.931378 269.321072 
L 302.823616 269.186014 
L 306.715855 269.050956 
L 310.608093 268.915898 
L 314.500331 268.78084 
L 318.39257 268.645782 
L 322.284808 268.508542 
L 326.177046 268.349515 
L 330.069285 268.190487 
L 333.961523 268.03146 
L 337.853761 267.872433 
L 341.746 267.713406 
L 345.638238 267.554379 
L 349.530476 267.395352 
L 353.422715 267.236324 
L 357.314953 267.077297 
L 361.207191 266.91827 
L 365.09943 266.759243 
L 368.991668 266.600216 
L 372.883906 266.441189 
L 376.776145 266.282161 
L 380.668383 266.123134 
L 384.560621 265.964107 
L 388.45286 265.80508 
L 392.345098 265.646053 
L 396.237336 265.487026 
L 400.129575 265.327846 
L 404.021813 265.1678 
L 407.914051 265.007754 
L 411.80629 264.847708 
L 415.698528 264.687662 
L 419.590766 264.527616 
L 423.483005 264.36757 
L 427.375243 264.213384 
L 431.267481 264.07121 
L 435.15972 263.929037 
L 435.15972 210.574516 
L 435.15972 210.574516 
L 431.267481 211.470697 
L 427.375243 212.353513 
L 423.483005 213.236329 
L 419.590766 214.119144 
L 415.698528 215.00196 
L 411.80629 215.884776 
L 407.914051 216.767591 
L 404.021813 217.650407 
L 400.129575 218.514993 
L 396.237336 219.364254 
L 392.345098 220.213516 
L 388.45286 221.062777 
L 384.560621 221.912038 
L 380.668383 222.7613 
L 376.776145 223.610561 
L 372.883906 224.459822 
L 368.991668 225.309084 
L 365.09943 226.176443 
L 361.207191 227.046922 
L 357.314953 227.9174 
L 353.422715 228.787879 
L 349.530476 229.658358 
L 345.638238 230.528837 
L 341.746 231.399316 
L 337.853761 232.269795 
L 333.961523 233.140649 
L 330.069285 234.013932 
L 326.177046 234.887216 
L 322.284808 235.843023 
L 318.39257 236.695879 
L 314.500331 237.534184 
L 310.608093 238.406553 
L 306.715855 239.313515 
L 302.823616 240.221318 
L 298.931378 241.130343 
L 295.03914 242.050709 
L 291.146901 243.002066 
L 287.254663 243.910282 
L 283.362425 244.784543 
L 279.470186 245.670409 
L 275.577948 246.570004 
L 271.68571 247.4857 
L 267.793471 248.39259 
L 263.901233 249.27165 
L 260.008995 250.136503 
L 256.116756 250.973615 
L 252.224518 251.811089 
L 248.33228 252.661402 
L 244.440041 253.536733 
L 240.547803 254.44165 
L 236.655565 255.31192 
L 232.763327 256.148969 
L 228.871088 257.011999 
L 224.97885 257.864486 
L 221.086612 258.689385 
L 217.194373 259.496522 
L 213.302135 260.333347 
L 209.409897 261.170172 
L 205.517658 261.975017 
L 201.62542 262.771504 
L 197.733182 263.607026 
L 193.840943 264.40805 
L 189.948705 265.175099 
L 186.056467 265.94419 
L 182.164228 266.761773 
L 178.27199 267.629485 
L 174.379752 268.412786 
L 170.487513 269.279926 
L 166.595275 270.049137 
L 162.703037 270.76092 
L 158.810798 271.437667 
L 154.91856 272.082754 
L 151.026322 272.836393 
L 147.134083 273.451459 
L 143.241845 274.007734 
L 139.349607 274.508663 
L 135.457368 274.910456 
L 131.56513 275.267063 
L 127.672892 275.566245 
L 123.780653 275.779395 
L 119.888415 276.173675 
L 115.996177 276.28381 
L 112.103938 276.426989 
L 108.2117 276.74908 
L 104.319462 276.950489 
L 100.427223 277.250911 
L 96.534985 277.372185 
L 92.642747 277.507783 
L 88.750508 277.699042 
L 84.85827 277.921077 
L 80.966032 278.140925 
L 77.073793 278.344245 
L 73.181555 278.445648 
L 69.289317 278.547052 
L 65.397078 278.667082 
L 61.50484 278.805231 
L 57.612602 278.945561 
L 53.720363 279.083324 
L 49.828125 279.223368 
z
" style="fill:#2ca02c;fill-opacity:0.15;"/>
   </g>
   <g id="line2d_27">
    <path clip-path="url(#p66d2073c34)" d="M 49.828125 294.814147 
L 53.720363 292.659118 
L 57.612602 290.504089 
L 61.50484 288.349061 
L 65.397078 286.194032 
L 69.289317 284.039003 
L 73.181555 281.883974 
L 77.073793 279.728945 
L 80.966032 277.573917 
L 84.85827 275.418888 
L 88.750508 273.263859 
L 92.642747 271.10883 
L 96.534985 268.953801 
L 100.427223 266.798773 
L 104.319462 264.643744 
L 108.2117 262.488715 
L 112.103938 260.333686 
L 115.996177 258.178657 
L 119.888415 256.023629 
L 123.780653 253.8686 
L 127.672892 251.713571 
L 131.56513 249.558542 
L 135.457368 247.403513 
L 139.349607 245.248485 
L 143.241845 243.093456 
L 147.134083 240.938427 
L 151.026322 238.783398 
L 154.91856 236.628369 
L 158.810798 234.473341 
L 162.703037 232.318312 
L 166.595275 230.163283 
L 170.487513 228.008254 
L 174.379752 225.853225 
L 178.27199 223.698197 
L 182.164228 221.543168 
L 186.056467 219.388139 
L 189.948705 217.23311 
L 193.840943 215.078081 
L 197.733182 212.923053 
L 201.62542 210.768024 
L 205.517658 208.612995 
L 209.409897 206.457966 
L 213.302135 204.302937 
L 217.194373 202.147908 
L 221.086612 199.99288 
L 224.97885 197.837851 
L 228.871088 195.682822 
L 232.763327 193.527793 
L 236.655565 191.372764 
L 240.547803 189.217736 
L 244.440041 187.062707 
L 248.33228 184.907678 
L 252.224518 182.752649 
L 256.116756 180.59762 
L 260.008995 178.442592 
L 263.901233 176.287563 
L 267.793471 174.132534 
L 271.68571 171.977505 
L 275.577948 169.822476 
L 279.470186 167.667448 
L 283.362425 165.512419 
L 287.254663 163.35739 
L 291.146901 161.202361 
L 295.03914 159.047332 
L 298.931378 156.892304 
L 302.823616 154.737275 
L 306.715855 152.582246 
L 310.608093 150.427217 
L 314.500331 148.272188 
L 318.39257 146.11716 
L 322.284808 143.962131 
L 326.177046 141.807102 
L 330.069285 139.652073 
L 333.961523 137.497044 
L 337.853761 135.342016 
L 341.746 133.186987 
L 345.638238 131.031958 
L 349.530476 128.876929 
L 353.422715 126.7219 
L 357.314953 124.566872 
L 361.207191 122.411843 
L 365.09943 120.256814 
L 368.991668 118.101785 
L 372.883906 115.946756 
L 376.776145 113.791728 
L 380.668383 111.636699 
L 384.560621 109.48167 
L 388.45286 107.326641 
L 392.345098 105.171612 
L 396.237336 103.016583 
L 400.129575 100.861555 
L 404.021813 98.706526 
L 407.914051 96.551497 
L 411.80629 94.396468 
L 415.698528 92.241439 
L 419.590766 90.086411 
L 423.483005 87.931382 
L 427.375243 85.776353 
L 431.267481 83.621324 
L 435.15972 81.466295 
" style="fill:none;stroke:#1f77b4;stroke-linecap:round;stroke-width:2.25;"/>
   </g>
   <g id="line2d_28">
    <path clip-path="url(#p66d2073c34)" d="M 49.828125 298.836046 
L 53.720363 297.027743 
L 57.612602 295.219441 
L 61.50484 293.411138 
L 65.397078 291.602835 
L 69.289317 289.794532 
L 73.181555 287.986229 
L 77.073793 286.177926 
L 80.966032 284.369623 
L 84.85827 282.56132 
L 88.750508 280.753017 
L 92.642747 278.944714 
L 96.534985 277.136412 
L 100.427223 275.328109 
L 104.319462 273.519806 
L 108.2117 271.711503 
L 112.103938 269.9032 
L 115.996177 268.094897 
L 119.888415 266.286594 
L 123.780653 264.478291 
L 127.672892 262.669988 
L 131.56513 260.861685 
L 135.457368 259.053383 
L 139.349607 257.24508 
L 143.241845 255.436777 
L 147.134083 253.628474 
L 151.026322 251.820171 
L 154.91856 250.011868 
L 158.810798 248.203565 
L 162.703037 246.395262 
L 166.595275 244.586959 
L 170.487513 242.778657 
L 174.379752 240.970354 
L 178.27199 239.162051 
L 182.164228 237.353748 
L 186.056467 235.545445 
L 189.948705 233.737142 
L 193.840943 231.928839 
L 197.733182 230.120536 
L 201.62542 228.312233 
L 205.517658 226.50393 
L 209.409897 224.695628 
L 213.302135 222.887325 
L 217.194373 221.079022 
L 221.086612 219.270719 
L 224.97885 217.462416 
L 228.871088 215.654113 
L 232.763327 213.84581 
L 236.655565 212.037507 
L 240.547803 210.229204 
L 244.440041 208.420901 
L 248.33228 206.612599 
L 252.224518 204.804296 
L 256.116756 202.995993 
L 260.008995 201.18769 
L 263.901233 199.379387 
L 267.793471 197.571084 
L 271.68571 195.762781 
L 275.577948 193.954478 
L 279.470186 192.146175 
L 283.362425 190.337872 
L 287.254663 188.52957 
L 291.146901 186.721267 
L 295.03914 184.912964 
L 298.931378 183.104661 
L 302.823616 181.296358 
L 306.715855 179.488055 
L 310.608093 177.679752 
L 314.500331 175.871449 
L 318.39257 174.063146 
L 322.284808 172.254844 
L 326.177046 170.446541 
L 330.069285 168.638238 
L 333.961523 166.829935 
L 337.853761 165.021632 
L 341.746 163.213329 
L 345.638238 161.405026 
L 349.530476 159.596723 
L 353.422715 157.78842 
L 357.314953 155.980117 
L 361.207191 154.171815 
L 365.09943 152.363512 
L 368.991668 150.555209 
L 372.883906 148.746906 
L 376.776145 146.938603 
L 380.668383 145.1303 
L 384.560621 143.321997 
L 388.45286 141.513694 
L 392.345098 139.705391 
L 396.237336 137.897088 
L 400.129575 136.088786 
L 404.021813 134.280483 
L 407.914051 132.47218 
L 411.80629 130.663877 
L 415.698528 128.855574 
L 419.590766 127.047271 
L 423.483005 125.238968 
L 427.375243 123.430665 
L 431.267481 121.622362 
L 435.15972 119.81406 
" style="fill:none;stroke:#ff7f0e;stroke-linecap:round;stroke-width:2.25;"/>
   </g>
   <g id="line2d_29">
    <path clip-path="url(#p66d2073c34)" d="M 49.828125 291.232796 
L 53.720363 290.629671 
L 57.612602 290.026545 
L 61.50484 289.42342 
L 65.397078 288.820295 
L 69.289317 288.21717 
L 73.181555 287.614044 
L 77.073793 287.010919 
L 80.966032 286.407794 
L 84.85827 285.804669 
L 88.750508 285.201543 
L 92.642747 284.598418 
L 96.534985 283.995293 
L 100.427223 283.392167 
L 104.319462 282.789042 
L 108.2117 282.185917 
L 112.103938 281.582792 
L 115.996177 280.979666 
L 119.888415 280.376541 
L 123.780653 279.773416 
L 127.672892 279.170291 
L 131.56513 278.567165 
L 135.457368 277.96404 
L 139.349607 277.360915 
L 143.241845 276.75779 
L 147.134083 276.154664 
L 151.026322 275.551539 
L 154.91856 274.948414 
L 158.810798 274.345289 
L 162.703037 273.742163 
L 166.595275 273.139038 
L 170.487513 272.535913 
L 174.379752 271.932788 
L 178.27199 271.329662 
L 182.164228 270.726537 
L 186.056467 270.123412 
L 189.948705 269.520287 
L 193.840943 268.917161 
L 197.733182 268.314036 
L 201.62542 267.710911 
L 205.517658 267.107785 
L 209.409897 266.50466 
L 213.302135 265.901535 
L 217.194373 265.29841 
L 221.086612 264.695284 
L 224.97885 264.092159 
L 228.871088 263.489034 
L 232.763327 262.885909 
L 236.655565 262.282783 
L 240.547803 261.679658 
L 244.440041 261.076533 
L 248.33228 260.473408 
L 252.224518 259.870282 
L 256.116756 259.267157 
L 260.008995 258.664032 
L 263.901233 258.060907 
L 267.793471 257.457781 
L 271.68571 256.854656 
L 275.577948 256.251531 
L 279.470186 255.648406 
L 283.362425 255.04528 
L 287.254663 254.442155 
L 291.146901 253.83903 
L 295.03914 253.235905 
L 298.931378 252.632779 
L 302.823616 252.029654 
L 306.715855 251.426529 
L 310.608093 250.823404 
L 314.500331 250.220278 
L 318.39257 249.617153 
L 322.284808 249.014028 
L 326.177046 248.410902 
L 330.069285 247.807777 
L 333.961523 247.204652 
L 337.853761 246.601527 
L 341.746 245.998401 
L 345.638238 245.395276 
L 349.530476 244.792151 
L 353.422715 244.189026 
L 357.314953 243.5859 
L 361.207191 242.982775 
L 365.09943 242.37965 
L 368.991668 241.776525 
L 372.883906 241.173399 
L 376.776145 240.570274 
L 380.668383 239.967149 
L 384.560621 239.364024 
L 388.45286 238.760898 
L 392.345098 238.157773 
L 396.237336 237.554648 
L 400.129575 236.951523 
L 404.021813 236.348397 
L 407.914051 235.745272 
L 411.80629 235.142147 
L 415.698528 234.539022 
L 419.590766 233.935896 
L 423.483005 233.332771 
L 427.375243 232.729646 
L 431.267481 232.12652 
L 435.15972 231.523395 
" style="fill:none;stroke:#2ca02c;stroke-linecap:round;stroke-width:2.25;"/>
   </g>
   <g id="patch_3">
    <path d="M 49.828125 317.94 
L 49.828125 7.2 
" style="fill:none;"/>
   </g>
   <g id="patch_4">
    <path d="M 49.828125 317.94 
L 435.15972 317.94 
" style="fill:none;"/>
   </g>
  </g>
  <g id="legend_1">
   <g id="text_16">
    <!-- Pos_Net -->
    <defs>
     <path d="M 19.671875 64.796875 
L 19.671875 37.40625 
L 32.078125 37.40625 
Q 38.96875 37.40625 42.71875 40.96875 
Q 46.484375 44.53125 46.484375 51.125 
Q 46.484375 57.671875 42.71875 61.234375 
Q 38.96875 64.796875 32.078125 64.796875 
z
M 9.8125 72.90625 
L 32.078125 72.90625 
Q 44.34375 72.90625 50.609375 67.359375 
Q 56.890625 61.8125 56.890625 51.125 
Q 56.890625 40.328125 50.609375 34.8125 
Q 44.34375 29.296875 32.078125 29.296875 
L 19.671875 29.296875 
L 19.671875 0 
L 9.8125 0 
z
" id="DejaVuSans-50"/>
     <path d="M 30.609375 48.390625 
Q 23.390625 48.390625 19.1875 42.75 
Q 14.984375 37.109375 14.984375 27.296875 
Q 14.984375 17.484375 19.15625 11.84375 
Q 23.34375 6.203125 30.609375 6.203125 
Q 37.796875 6.203125 41.984375 11.859375 
Q 46.1875 17.53125 46.1875 27.296875 
Q 46.1875 37.015625 41.984375 42.703125 
Q 37.796875 48.390625 30.609375 48.390625 
z
M 30.609375 56 
Q 42.328125 56 49.015625 48.375 
Q 55.71875 40.765625 55.71875 27.296875 
Q 55.71875 13.875 49.015625 6.21875 
Q 42.328125 -1.421875 30.609375 -1.421875 
Q 18.84375 -1.421875 12.171875 6.21875 
Q 5.515625 13.875 5.515625 27.296875 
Q 5.515625 40.765625 12.171875 48.375 
Q 18.84375 56 30.609375 56 
z
" id="DejaVuSans-6f"/>
     <path d="M 50.984375 -16.609375 
L 50.984375 -23.578125 
L -0.984375 -23.578125 
L -0.984375 -16.609375 
z
" id="DejaVuSans-5f"/>
     <path d="M 9.8125 72.90625 
L 23.09375 72.90625 
L 55.421875 11.921875 
L 55.421875 72.90625 
L 64.984375 72.90625 
L 64.984375 0 
L 51.703125 0 
L 19.390625 60.984375 
L 19.390625 0 
L 9.8125 0 
z
" id="DejaVuSans-4e"/>
    </defs>
    <g style="fill:#262626;" transform="translate(441.391507 156.60125)scale(0.1 -0.1)">
     <use xlink:href="#DejaVuSans-50"/>
     <use x="60.255859" xlink:href="#DejaVuSans-6f"/>
     <use x="121.4375" xlink:href="#DejaVuSans-73"/>
     <use x="173.537109" xlink:href="#DejaVuSans-5f"/>
     <use x="223.537109" xlink:href="#DejaVuSans-4e"/>
     <use x="298.341797" xlink:href="#DejaVuSans-65"/>
     <use x="359.865234" xlink:href="#DejaVuSans-74"/>
    </g>
   </g>
   <g id="PathCollection_4">
    <g>
     <use style="fill:#1f77b4;fill-opacity:0.8;stroke:#1f77b4;stroke-opacity:0.8;" x="452.360257" xlink:href="#m1b405e80e9" y="168.9325"/>
    </g>
   </g>
   <g id="text_17">
    <!-- -1 -->
    <defs>
     <path d="M 4.890625 31.390625 
L 31.203125 31.390625 
L 31.203125 23.390625 
L 4.890625 23.390625 
z
" id="DejaVuSans-2d"/>
    </defs>
    <g style="fill:#262626;" transform="translate(470.360257 171.5575)scale(0.1 -0.1)">
     <use xlink:href="#DejaVuSans-2d"/>
     <use x="36.083984" xlink:href="#DejaVuSans-31"/>
    </g>
   </g>
   <g id="PathCollection_5">
    <g>
     <use style="fill:#ff7f0e;fill-opacity:0.8;stroke:#ff7f0e;stroke-opacity:0.8;" x="452.360257" xlink:href="#m4e9f707ce5" y="183.610625"/>
    </g>
   </g>
   <g id="text_18">
    <!-- 0 -->
    <g style="fill:#262626;" transform="translate(470.360257 186.235625)scale(0.1 -0.1)">
     <use xlink:href="#DejaVuSans-30"/>
    </g>
   </g>
   <g id="PathCollection_6">
    <g>
     <use style="fill:#2ca02c;fill-opacity:0.8;stroke:#2ca02c;stroke-opacity:0.8;" x="452.360257" xlink:href="#mcfeab57315" y="198.28875"/>
    </g>
   </g>
   <g id="text_19">
    <!-- 1 -->
    <g style="fill:#262626;" transform="translate(470.360257 200.91375)scale(0.1 -0.1)">
     <use xlink:href="#DejaVuSans-31"/>
    </g>
   </g>
  </g>
 </g>
 <defs>
  <clipPath id="p66d2073c34">
   <rect height="310.74" width="385.331595" x="49.828125" y="7.2"/>
  </clipPath>
 </defs>
</svg>
