<?xml version="1.0" encoding="utf-8" standalone="no"?>
<!DOCTYPE svg PUBLIC "-//W3C//DTD SVG 1.1//EN"
  "http://www.w3.org/Graphics/SVG/1.1/DTD/svg11.dtd">
<!-- Created with matplotlib (http://matplotlib.org/) -->
<svg height="504pt" version="1.1" viewBox="0 0 720 504" width="720pt" xmlns="http://www.w3.org/2000/svg" xmlns:xlink="http://www.w3.org/1999/xlink">
 <defs>
  <style type="text/css">
*{stroke-linecap:butt;stroke-linejoin:round;}
  </style>
 </defs>
 <g id="figure_1">
  <g id="patch_1">
   <path d="M 0 504 
L 720 504 
L 720 0 
L 0 0 
z
" style="fill:#ffffff;"/>
  </g>
  <g id="axes_1">
   <g id="patch_2">
    <path d="M 90 448.56 
L 648 448.56 
L 648 60.48 
L 90 60.48 
z
" style="fill:#eaeaf2;"/>
   </g>
   <g id="matplotlib.axis_1">
    <g id="xtick_1">
     <g id="line2d_1">
      <path clip-path="url(#pd667657a6e)" d="M 103.207618 448.56 
L 103.207618 60.48 
" style="fill:none;stroke:#ffffff;stroke-linecap:round;stroke-width:0.8;"/>
     </g>
     <g id="line2d_2"/>
     <g id="text_1">
      <!-- −600 -->
      <defs>
       <path d="M 10.59375 35.5 
L 73.1875 35.5 
L 73.1875 27.203125 
L 10.59375 27.203125 
z
" id="DejaVuSans-2212"/>
       <path d="M 33.015625 40.375 
Q 26.375 40.375 22.484375 35.828125 
Q 18.609375 31.296875 18.609375 23.390625 
Q 18.609375 15.53125 22.484375 10.953125 
Q 26.375 6.390625 33.015625 6.390625 
Q 39.65625 6.390625 43.53125 10.953125 
Q 47.40625 15.53125 47.40625 23.390625 
Q 47.40625 31.296875 43.53125 35.828125 
Q 39.65625 40.375 33.015625 40.375 
z
M 52.59375 71.296875 
L 52.59375 62.3125 
Q 48.875 64.0625 45.09375 64.984375 
Q 41.3125 65.921875 37.59375 65.921875 
Q 27.828125 65.921875 22.671875 59.328125 
Q 17.53125 52.734375 16.796875 39.40625 
Q 19.671875 43.65625 24.015625 45.921875 
Q 28.375 48.1875 33.59375 48.1875 
Q 44.578125 48.1875 50.953125 41.515625 
Q 57.328125 34.859375 57.328125 23.390625 
Q 57.328125 12.15625 50.6875 5.359375 
Q 44.046875 -1.421875 33.015625 -1.421875 
Q 20.359375 -1.421875 13.671875 8.265625 
Q 6.984375 17.96875 6.984375 36.375 
Q 6.984375 53.65625 15.1875 63.9375 
Q 23.390625 74.21875 37.203125 74.21875 
Q 40.921875 74.21875 44.703125 73.484375 
Q 48.484375 72.75 52.59375 71.296875 
z
" id="DejaVuSans-36"/>
       <path d="M 31.78125 66.40625 
Q 24.171875 66.40625 20.328125 58.90625 
Q 16.5 51.421875 16.5 36.375 
Q 16.5 21.390625 20.328125 13.890625 
Q 24.171875 6.390625 31.78125 6.390625 
Q 39.453125 6.390625 43.28125 13.890625 
Q 47.125 21.390625 47.125 36.375 
Q 47.125 51.421875 43.28125 58.90625 
Q 39.453125 66.40625 31.78125 66.40625 
z
M 31.78125 74.21875 
Q 44.046875 74.21875 50.515625 64.515625 
Q 56.984375 54.828125 56.984375 36.375 
Q 56.984375 17.96875 50.515625 8.265625 
Q 44.046875 -1.421875 31.78125 -1.421875 
Q 19.53125 -1.421875 13.0625 8.265625 
Q 6.59375 17.96875 6.59375 36.375 
Q 6.59375 54.828125 13.0625 64.515625 
Q 19.53125 74.21875 31.78125 74.21875 
z
" id="DejaVuSans-30"/>
      </defs>
      <g style="fill:#262626;" transform="translate(89.474024 459.658437)scale(0.1 -0.1)">
       <use xlink:href="#DejaVuSans-2212"/>
       <use x="83.789062" xlink:href="#DejaVuSans-36"/>
       <use x="147.412109" xlink:href="#DejaVuSans-30"/>
       <use x="211.035156" xlink:href="#DejaVuSans-30"/>
      </g>
     </g>
    </g>
    <g id="xtick_2">
     <g id="line2d_3">
      <path clip-path="url(#pd667657a6e)" d="M 187.854873 448.56 
L 187.854873 60.48 
" style="fill:none;stroke:#ffffff;stroke-linecap:round;stroke-width:0.8;"/>
     </g>
     <g id="line2d_4"/>
     <g id="text_2">
      <!-- −400 -->
      <defs>
       <path d="M 37.796875 64.3125 
L 12.890625 25.390625 
L 37.796875 25.390625 
z
M 35.203125 72.90625 
L 47.609375 72.90625 
L 47.609375 25.390625 
L 58.015625 25.390625 
L 58.015625 17.1875 
L 47.609375 17.1875 
L 47.609375 0 
L 37.796875 0 
L 37.796875 17.1875 
L 4.890625 17.1875 
L 4.890625 26.703125 
z
" id="DejaVuSans-34"/>
      </defs>
      <g style="fill:#262626;" transform="translate(174.12128 459.658437)scale(0.1 -0.1)">
       <use xlink:href="#DejaVuSans-2212"/>
       <use x="83.789062" xlink:href="#DejaVuSans-34"/>
       <use x="147.412109" xlink:href="#DejaVuSans-30"/>
       <use x="211.035156" xlink:href="#DejaVuSans-30"/>
      </g>
     </g>
    </g>
    <g id="xtick_3">
     <g id="line2d_5">
      <path clip-path="url(#pd667657a6e)" d="M 272.502129 448.56 
L 272.502129 60.48 
" style="fill:none;stroke:#ffffff;stroke-linecap:round;stroke-width:0.8;"/>
     </g>
     <g id="line2d_6"/>
     <g id="text_3">
      <!-- −200 -->
      <defs>
       <path d="M 19.1875 8.296875 
L 53.609375 8.296875 
L 53.609375 0 
L 7.328125 0 
L 7.328125 8.296875 
Q 12.9375 14.109375 22.625 23.890625 
Q 32.328125 33.6875 34.8125 36.53125 
Q 39.546875 41.84375 41.421875 45.53125 
Q 43.3125 49.21875 43.3125 52.78125 
Q 43.3125 58.59375 39.234375 62.25 
Q 35.15625 65.921875 28.609375 65.921875 
Q 23.96875 65.921875 18.8125 64.3125 
Q 13.671875 62.703125 7.8125 59.421875 
L 7.8125 69.390625 
Q 13.765625 71.78125 18.9375 73 
Q 24.125 74.21875 28.421875 74.21875 
Q 39.75 74.21875 46.484375 68.546875 
Q 53.21875 62.890625 53.21875 53.421875 
Q 53.21875 48.921875 51.53125 44.890625 
Q 49.859375 40.875 45.40625 35.40625 
Q 44.1875 33.984375 37.640625 27.21875 
Q 31.109375 20.453125 19.1875 8.296875 
z
" id="DejaVuSans-32"/>
      </defs>
      <g style="fill:#262626;" transform="translate(258.768535 459.658437)scale(0.1 -0.1)">
       <use xlink:href="#DejaVuSans-2212"/>
       <use x="83.789062" xlink:href="#DejaVuSans-32"/>
       <use x="147.412109" xlink:href="#DejaVuSans-30"/>
       <use x="211.035156" xlink:href="#DejaVuSans-30"/>
      </g>
     </g>
    </g>
    <g id="xtick_4">
     <g id="line2d_7">
      <path clip-path="url(#pd667657a6e)" d="M 357.149384 448.56 
L 357.149384 60.48 
" style="fill:none;stroke:#ffffff;stroke-linecap:round;stroke-width:0.8;"/>
     </g>
     <g id="line2d_8"/>
     <g id="text_4">
      <!-- 0 -->
      <g style="fill:#262626;" transform="translate(353.968134 459.658437)scale(0.1 -0.1)">
       <use xlink:href="#DejaVuSans-30"/>
      </g>
     </g>
    </g>
    <g id="xtick_5">
     <g id="line2d_9">
      <path clip-path="url(#pd667657a6e)" d="M 441.79664 448.56 
L 441.79664 60.48 
" style="fill:none;stroke:#ffffff;stroke-linecap:round;stroke-width:0.8;"/>
     </g>
     <g id="line2d_10"/>
     <g id="text_5">
      <!-- 200 -->
      <g style="fill:#262626;" transform="translate(432.25289 459.658437)scale(0.1 -0.1)">
       <use xlink:href="#DejaVuSans-32"/>
       <use x="63.623047" xlink:href="#DejaVuSans-30"/>
       <use x="127.246094" xlink:href="#DejaVuSans-30"/>
      </g>
     </g>
    </g>
    <g id="xtick_6">
     <g id="line2d_11">
      <path clip-path="url(#pd667657a6e)" d="M 526.443895 448.56 
L 526.443895 60.48 
" style="fill:none;stroke:#ffffff;stroke-linecap:round;stroke-width:0.8;"/>
     </g>
     <g id="line2d_12"/>
     <g id="text_6">
      <!-- 400 -->
      <g style="fill:#262626;" transform="translate(516.900145 459.658437)scale(0.1 -0.1)">
       <use xlink:href="#DejaVuSans-34"/>
       <use x="63.623047" xlink:href="#DejaVuSans-30"/>
       <use x="127.246094" xlink:href="#DejaVuSans-30"/>
      </g>
     </g>
    </g>
    <g id="xtick_7">
     <g id="line2d_13">
      <path clip-path="url(#pd667657a6e)" d="M 611.091151 448.56 
L 611.091151 60.48 
" style="fill:none;stroke:#ffffff;stroke-linecap:round;stroke-width:0.8;"/>
     </g>
     <g id="line2d_14"/>
     <g id="text_7">
      <!-- 600 -->
      <g style="fill:#262626;" transform="translate(601.547401 459.658437)scale(0.1 -0.1)">
       <use xlink:href="#DejaVuSans-36"/>
       <use x="63.623047" xlink:href="#DejaVuSans-30"/>
       <use x="127.246094" xlink:href="#DejaVuSans-30"/>
      </g>
     </g>
    </g>
    <g id="text_8">
     <!-- Amounts -->
     <defs>
      <path d="M 34.1875 63.1875 
L 20.796875 26.90625 
L 47.609375 26.90625 
z
M 28.609375 72.90625 
L 39.796875 72.90625 
L 67.578125 0 
L 57.328125 0 
L 50.6875 18.703125 
L 17.828125 18.703125 
L 11.1875 0 
L 0.78125 0 
z
" id="DejaVuSans-41"/>
      <path d="M 52 44.1875 
Q 55.375 50.25 60.0625 53.125 
Q 64.75 56 71.09375 56 
Q 79.640625 56 84.28125 50.015625 
Q 88.921875 44.046875 88.921875 33.015625 
L 88.921875 0 
L 79.890625 0 
L 79.890625 32.71875 
Q 79.890625 40.578125 77.09375 44.375 
Q 74.3125 48.1875 68.609375 48.1875 
Q 61.625 48.1875 57.5625 43.546875 
Q 53.515625 38.921875 53.515625 30.90625 
L 53.515625 0 
L 44.484375 0 
L 44.484375 32.71875 
Q 44.484375 40.625 41.703125 44.40625 
Q 38.921875 48.1875 33.109375 48.1875 
Q 26.21875 48.1875 22.15625 43.53125 
Q 18.109375 38.875 18.109375 30.90625 
L 18.109375 0 
L 9.078125 0 
L 9.078125 54.6875 
L 18.109375 54.6875 
L 18.109375 46.1875 
Q 21.1875 51.21875 25.484375 53.609375 
Q 29.78125 56 35.6875 56 
Q 41.65625 56 45.828125 52.96875 
Q 50 49.953125 52 44.1875 
z
" id="DejaVuSans-6d"/>
      <path d="M 30.609375 48.390625 
Q 23.390625 48.390625 19.1875 42.75 
Q 14.984375 37.109375 14.984375 27.296875 
Q 14.984375 17.484375 19.15625 11.84375 
Q 23.34375 6.203125 30.609375 6.203125 
Q 37.796875 6.203125 41.984375 11.859375 
Q 46.1875 17.53125 46.1875 27.296875 
Q 46.1875 37.015625 41.984375 42.703125 
Q 37.796875 48.390625 30.609375 48.390625 
z
M 30.609375 56 
Q 42.328125 56 49.015625 48.375 
Q 55.71875 40.765625 55.71875 27.296875 
Q 55.71875 13.875 49.015625 6.21875 
Q 42.328125 -1.421875 30.609375 -1.421875 
Q 18.84375 -1.421875 12.171875 6.21875 
Q 5.515625 13.875 5.515625 27.296875 
Q 5.515625 40.765625 12.171875 48.375 
Q 18.84375 56 30.609375 56 
z
" id="DejaVuSans-6f"/>
      <path d="M 8.5 21.578125 
L 8.5 54.6875 
L 17.484375 54.6875 
L 17.484375 21.921875 
Q 17.484375 14.15625 20.5 10.265625 
Q 23.53125 6.390625 29.59375 6.390625 
Q 36.859375 6.390625 41.078125 11.03125 
Q 45.3125 15.671875 45.3125 23.6875 
L 45.3125 54.6875 
L 54.296875 54.6875 
L 54.296875 0 
L 45.3125 0 
L 45.3125 8.40625 
Q 42.046875 3.421875 37.71875 1 
Q 33.40625 -1.421875 27.6875 -1.421875 
Q 18.265625 -1.421875 13.375 4.4375 
Q 8.5 10.296875 8.5 21.578125 
z
M 31.109375 56 
z
" id="DejaVuSans-75"/>
      <path d="M 54.890625 33.015625 
L 54.890625 0 
L 45.90625 0 
L 45.90625 32.71875 
Q 45.90625 40.484375 42.875 44.328125 
Q 39.84375 48.1875 33.796875 48.1875 
Q 26.515625 48.1875 22.3125 43.546875 
Q 18.109375 38.921875 18.109375 30.90625 
L 18.109375 0 
L 9.078125 0 
L 9.078125 54.6875 
L 18.109375 54.6875 
L 18.109375 46.1875 
Q 21.34375 51.125 25.703125 53.5625 
Q 30.078125 56 35.796875 56 
Q 45.21875 56 50.046875 50.171875 
Q 54.890625 44.34375 54.890625 33.015625 
z
" id="DejaVuSans-6e"/>
      <path d="M 18.3125 70.21875 
L 18.3125 54.6875 
L 36.8125 54.6875 
L 36.8125 47.703125 
L 18.3125 47.703125 
L 18.3125 18.015625 
Q 18.3125 11.328125 20.140625 9.421875 
Q 21.96875 7.515625 27.59375 7.515625 
L 36.8125 7.515625 
L 36.8125 0 
L 27.59375 0 
Q 17.1875 0 13.234375 3.875 
Q 9.28125 7.765625 9.28125 18.015625 
L 9.28125 47.703125 
L 2.6875 47.703125 
L 2.6875 54.6875 
L 9.28125 54.6875 
L 9.28125 70.21875 
z
" id="DejaVuSans-74"/>
      <path d="M 44.28125 53.078125 
L 44.28125 44.578125 
Q 40.484375 46.53125 36.375 47.5 
Q 32.28125 48.484375 27.875 48.484375 
Q 21.1875 48.484375 17.84375 46.4375 
Q 14.5 44.390625 14.5 40.28125 
Q 14.5 37.15625 16.890625 35.375 
Q 19.28125 33.59375 26.515625 31.984375 
L 29.59375 31.296875 
Q 39.15625 29.25 43.1875 25.515625 
Q 47.21875 21.78125 47.21875 15.09375 
Q 47.21875 7.46875 41.1875 3.015625 
Q 35.15625 -1.421875 24.609375 -1.421875 
Q 20.21875 -1.421875 15.453125 -0.5625 
Q 10.6875 0.296875 5.421875 2 
L 5.421875 11.28125 
Q 10.40625 8.6875 15.234375 7.390625 
Q 20.0625 6.109375 24.8125 6.109375 
Q 31.15625 6.109375 34.5625 8.28125 
Q 37.984375 10.453125 37.984375 14.40625 
Q 37.984375 18.0625 35.515625 20.015625 
Q 33.0625 21.96875 24.703125 23.78125 
L 21.578125 24.515625 
Q 13.234375 26.265625 9.515625 29.90625 
Q 5.8125 33.546875 5.8125 39.890625 
Q 5.8125 47.609375 11.28125 51.796875 
Q 16.75 56 26.8125 56 
Q 31.78125 56 36.171875 55.265625 
Q 40.578125 54.546875 44.28125 53.078125 
z
" id="DejaVuSans-73"/>
     </defs>
     <g style="fill:#262626;" transform="translate(344.522422 474.096406)scale(0.11 -0.11)">
      <use xlink:href="#DejaVuSans-41"/>
      <use x="68.408203" xlink:href="#DejaVuSans-6d"/>
      <use x="165.820312" xlink:href="#DejaVuSans-6f"/>
      <use x="227.001953" xlink:href="#DejaVuSans-75"/>
      <use x="290.380859" xlink:href="#DejaVuSans-6e"/>
      <use x="353.759766" xlink:href="#DejaVuSans-74"/>
      <use x="392.96875" xlink:href="#DejaVuSans-73"/>
     </g>
    </g>
   </g>
   <g id="matplotlib.axis_2">
    <g id="ytick_1">
     <g id="line2d_15">
      <path clip-path="url(#pd667657a6e)" d="M 90 448.56 
L 648 448.56 
" style="fill:none;stroke:#ffffff;stroke-linecap:round;stroke-width:0.8;"/>
     </g>
     <g id="line2d_16"/>
     <g id="text_9">
      <!-- 0.000 -->
      <defs>
       <path d="M 10.6875 12.40625 
L 21 12.40625 
L 21 0 
L 10.6875 0 
z
" id="DejaVuSans-2e"/>
      </defs>
      <g style="fill:#262626;" transform="translate(57.871875 452.359219)scale(0.1 -0.1)">
       <use xlink:href="#DejaVuSans-30"/>
       <use x="63.623047" xlink:href="#DejaVuSans-2e"/>
       <use x="95.410156" xlink:href="#DejaVuSans-30"/>
       <use x="159.033203" xlink:href="#DejaVuSans-30"/>
       <use x="222.65625" xlink:href="#DejaVuSans-30"/>
      </g>
     </g>
    </g>
    <g id="ytick_2">
     <g id="line2d_17">
      <path clip-path="url(#pd667657a6e)" d="M 90 384.631392 
L 648 384.631392 
" style="fill:none;stroke:#ffffff;stroke-linecap:round;stroke-width:0.8;"/>
     </g>
     <g id="line2d_18"/>
     <g id="text_10">
      <!-- 0.002 -->
      <g style="fill:#262626;" transform="translate(57.871875 388.430611)scale(0.1 -0.1)">
       <use xlink:href="#DejaVuSans-30"/>
       <use x="63.623047" xlink:href="#DejaVuSans-2e"/>
       <use x="95.410156" xlink:href="#DejaVuSans-30"/>
       <use x="159.033203" xlink:href="#DejaVuSans-30"/>
       <use x="222.65625" xlink:href="#DejaVuSans-32"/>
      </g>
     </g>
    </g>
    <g id="ytick_3">
     <g id="line2d_19">
      <path clip-path="url(#pd667657a6e)" d="M 90 320.702785 
L 648 320.702785 
" style="fill:none;stroke:#ffffff;stroke-linecap:round;stroke-width:0.8;"/>
     </g>
     <g id="line2d_20"/>
     <g id="text_11">
      <!-- 0.004 -->
      <g style="fill:#262626;" transform="translate(57.871875 324.502004)scale(0.1 -0.1)">
       <use xlink:href="#DejaVuSans-30"/>
       <use x="63.623047" xlink:href="#DejaVuSans-2e"/>
       <use x="95.410156" xlink:href="#DejaVuSans-30"/>
       <use x="159.033203" xlink:href="#DejaVuSans-30"/>
       <use x="222.65625" xlink:href="#DejaVuSans-34"/>
      </g>
     </g>
    </g>
    <g id="ytick_4">
     <g id="line2d_21">
      <path clip-path="url(#pd667657a6e)" d="M 90 256.774177 
L 648 256.774177 
" style="fill:none;stroke:#ffffff;stroke-linecap:round;stroke-width:0.8;"/>
     </g>
     <g id="line2d_22"/>
     <g id="text_12">
      <!-- 0.006 -->
      <g style="fill:#262626;" transform="translate(57.871875 260.573396)scale(0.1 -0.1)">
       <use xlink:href="#DejaVuSans-30"/>
       <use x="63.623047" xlink:href="#DejaVuSans-2e"/>
       <use x="95.410156" xlink:href="#DejaVuSans-30"/>
       <use x="159.033203" xlink:href="#DejaVuSans-30"/>
       <use x="222.65625" xlink:href="#DejaVuSans-36"/>
      </g>
     </g>
    </g>
    <g id="ytick_5">
     <g id="line2d_23">
      <path clip-path="url(#pd667657a6e)" d="M 90 192.84557 
L 648 192.84557 
" style="fill:none;stroke:#ffffff;stroke-linecap:round;stroke-width:0.8;"/>
     </g>
     <g id="line2d_24"/>
     <g id="text_13">
      <!-- 0.008 -->
      <defs>
       <path d="M 31.78125 34.625 
Q 24.75 34.625 20.71875 30.859375 
Q 16.703125 27.09375 16.703125 20.515625 
Q 16.703125 13.921875 20.71875 10.15625 
Q 24.75 6.390625 31.78125 6.390625 
Q 38.8125 6.390625 42.859375 10.171875 
Q 46.921875 13.96875 46.921875 20.515625 
Q 46.921875 27.09375 42.890625 30.859375 
Q 38.875 34.625 31.78125 34.625 
z
M 21.921875 38.8125 
Q 15.578125 40.375 12.03125 44.71875 
Q 8.5 49.078125 8.5 55.328125 
Q 8.5 64.0625 14.71875 69.140625 
Q 20.953125 74.21875 31.78125 74.21875 
Q 42.671875 74.21875 48.875 69.140625 
Q 55.078125 64.0625 55.078125 55.328125 
Q 55.078125 49.078125 51.53125 44.71875 
Q 48 40.375 41.703125 38.8125 
Q 48.828125 37.15625 52.796875 32.3125 
Q 56.78125 27.484375 56.78125 20.515625 
Q 56.78125 9.90625 50.3125 4.234375 
Q 43.84375 -1.421875 31.78125 -1.421875 
Q 19.734375 -1.421875 13.25 4.234375 
Q 6.78125 9.90625 6.78125 20.515625 
Q 6.78125 27.484375 10.78125 32.3125 
Q 14.796875 37.15625 21.921875 38.8125 
z
M 18.3125 54.390625 
Q 18.3125 48.734375 21.84375 45.5625 
Q 25.390625 42.390625 31.78125 42.390625 
Q 38.140625 42.390625 41.71875 45.5625 
Q 45.3125 48.734375 45.3125 54.390625 
Q 45.3125 60.0625 41.71875 63.234375 
Q 38.140625 66.40625 31.78125 66.40625 
Q 25.390625 66.40625 21.84375 63.234375 
Q 18.3125 60.0625 18.3125 54.390625 
z
" id="DejaVuSans-38"/>
      </defs>
      <g style="fill:#262626;" transform="translate(57.871875 196.644789)scale(0.1 -0.1)">
       <use xlink:href="#DejaVuSans-30"/>
       <use x="63.623047" xlink:href="#DejaVuSans-2e"/>
       <use x="95.410156" xlink:href="#DejaVuSans-30"/>
       <use x="159.033203" xlink:href="#DejaVuSans-30"/>
       <use x="222.65625" xlink:href="#DejaVuSans-38"/>
      </g>
     </g>
    </g>
    <g id="ytick_6">
     <g id="line2d_25">
      <path clip-path="url(#pd667657a6e)" d="M 90 128.916962 
L 648 128.916962 
" style="fill:none;stroke:#ffffff;stroke-linecap:round;stroke-width:0.8;"/>
     </g>
     <g id="line2d_26"/>
     <g id="text_14">
      <!-- 0.010 -->
      <defs>
       <path d="M 12.40625 8.296875 
L 28.515625 8.296875 
L 28.515625 63.921875 
L 10.984375 60.40625 
L 10.984375 69.390625 
L 28.421875 72.90625 
L 38.28125 72.90625 
L 38.28125 8.296875 
L 54.390625 8.296875 
L 54.390625 0 
L 12.40625 0 
z
" id="DejaVuSans-31"/>
      </defs>
      <g style="fill:#262626;" transform="translate(57.871875 132.716181)scale(0.1 -0.1)">
       <use xlink:href="#DejaVuSans-30"/>
       <use x="63.623047" xlink:href="#DejaVuSans-2e"/>
       <use x="95.410156" xlink:href="#DejaVuSans-30"/>
       <use x="159.033203" xlink:href="#DejaVuSans-31"/>
       <use x="222.65625" xlink:href="#DejaVuSans-30"/>
      </g>
     </g>
    </g>
    <g id="ytick_7">
     <g id="line2d_27">
      <path clip-path="url(#pd667657a6e)" d="M 90 64.988355 
L 648 64.988355 
" style="fill:none;stroke:#ffffff;stroke-linecap:round;stroke-width:0.8;"/>
     </g>
     <g id="line2d_28"/>
     <g id="text_15">
      <!-- 0.012 -->
      <g style="fill:#262626;" transform="translate(57.871875 68.787573)scale(0.1 -0.1)">
       <use xlink:href="#DejaVuSans-30"/>
       <use x="63.623047" xlink:href="#DejaVuSans-2e"/>
       <use x="95.410156" xlink:href="#DejaVuSans-30"/>
       <use x="159.033203" xlink:href="#DejaVuSans-31"/>
       <use x="222.65625" xlink:href="#DejaVuSans-32"/>
      </g>
     </g>
    </g>
   </g>
   <g id="PolyCollection_1">
    <path clip-path="url(#pd667657a6e)" d="M 115.363636 448.521318 
L 115.363636 448.56 
L 120.487603 448.56 
L 125.61157 448.56 
L 130.735537 448.56 
L 135.859504 448.56 
L 140.983471 448.56 
L 146.107438 448.56 
L 151.231405 448.56 
L 156.355372 448.56 
L 161.479339 448.56 
L 166.603306 448.56 
L 171.727273 448.56 
L 176.85124 448.56 
L 181.975207 448.56 
L 187.099174 448.56 
L 192.22314 448.56 
L 197.347107 448.56 
L 202.471074 448.56 
L 207.595041 448.56 
L 212.719008 448.56 
L 217.842975 448.56 
L 222.966942 448.56 
L 228.090909 448.56 
L 233.214876 448.56 
L 238.338843 448.56 
L 243.46281 448.56 
L 248.586777 448.56 
L 253.710744 448.56 
L 258.834711 448.56 
L 263.958678 448.56 
L 269.082645 448.56 
L 274.206612 448.56 
L 279.330579 448.56 
L 284.454545 448.56 
L 289.578512 448.56 
L 294.702479 448.56 
L 299.826446 448.56 
L 304.950413 448.56 
L 310.07438 448.56 
L 315.198347 448.56 
L 320.322314 448.56 
L 325.446281 448.56 
L 330.570248 448.56 
L 335.694215 448.56 
L 340.818182 448.56 
L 345.942149 448.56 
L 351.066116 448.56 
L 356.190083 448.56 
L 361.31405 448.56 
L 366.438017 448.56 
L 371.561983 448.56 
L 376.68595 448.56 
L 381.809917 448.56 
L 386.933884 448.56 
L 392.057851 448.56 
L 397.181818 448.56 
L 402.305785 448.56 
L 407.429752 448.56 
L 412.553719 448.56 
L 417.677686 448.56 
L 422.801653 448.56 
L 427.92562 448.56 
L 433.049587 448.56 
L 438.173554 448.56 
L 443.297521 448.56 
L 448.421488 448.56 
L 453.545455 448.56 
L 458.669421 448.56 
L 463.793388 448.56 
L 468.917355 448.56 
L 474.041322 448.56 
L 479.165289 448.56 
L 484.289256 448.56 
L 489.413223 448.56 
L 494.53719 448.56 
L 499.661157 448.56 
L 504.785124 448.56 
L 509.909091 448.56 
L 515.033058 448.56 
L 520.157025 448.56 
L 525.280992 448.56 
L 530.404959 448.56 
L 535.528926 448.56 
L 540.652893 448.56 
L 545.77686 448.56 
L 550.900826 448.56 
L 556.024793 448.56 
L 561.14876 448.56 
L 566.272727 448.56 
L 571.396694 448.56 
L 576.520661 448.56 
L 581.644628 448.56 
L 586.768595 448.56 
L 591.892562 448.56 
L 597.016529 448.56 
L 602.140496 448.56 
L 607.264463 448.56 
L 612.38843 448.56 
L 617.512397 448.56 
L 622.636364 448.56 
L 622.636364 448.549556 
L 622.636364 448.549556 
L 617.512397 448.517343 
L 612.38843 448.425473 
L 607.264463 448.231918 
L 602.140496 447.938257 
L 597.016529 447.630573 
L 591.892562 447.415865 
L 586.768595 447.27971 
L 581.644628 447.078556 
L 576.520661 446.758147 
L 571.396694 446.516186 
L 566.272727 446.620995 
L 561.14876 447.089216 
L 556.024793 447.653876 
L 550.900826 448.033517 
L 545.77686 448.145006 
L 540.652893 448.086646 
L 535.528926 448.000267 
L 530.404959 447.945981 
L 525.280992 447.871063 
L 520.157025 447.691848 
L 515.033058 447.383167 
L 509.909091 446.952844 
L 504.785124 446.34846 
L 499.661157 445.447387 
L 494.53719 444.171127 
L 489.413223 442.63378 
L 484.289256 441.191855 
L 479.165289 440.271186 
L 474.041322 440.043095 
L 468.917355 440.289859 
L 463.793388 440.6409 
L 458.669421 440.882205 
L 453.545455 440.960746 
L 448.421488 440.779603 
L 443.297521 440.207059 
L 438.173554 439.339779 
L 433.049587 438.544298 
L 427.92562 438.084881 
L 422.801653 437.815775 
L 417.677686 437.345021 
L 412.553719 436.420444 
L 407.429752 435.096186 
L 402.305785 433.563711 
L 397.181818 431.70739 
L 392.057851 428.557344 
L 386.933884 421.84821 
L 381.809917 407.20834 
L 376.68595 376.617852 
L 371.561983 319.561121 
L 366.438017 233.332519 
L 361.31405 138.743076 
L 356.190083 78.96 
L 351.066116 88.2255 
L 345.942149 159.729507 
L 340.818182 252.854134 
L 335.694215 330.115471 
L 330.570248 379.603468 
L 325.446281 407.822143 
L 320.322314 423.966698 
L 315.198347 433.247666 
L 310.07438 438.054308 
L 304.950413 440.07185 
L 299.826446 440.77073 
L 294.702479 441.136701 
L 289.578512 441.640044 
L 284.454545 442.441257 
L 279.330579 443.47817 
L 274.206612 444.443319 
L 269.082645 444.925469 
L 263.958678 444.74342 
L 258.834711 444.160845 
L 253.710744 443.707461 
L 248.586777 443.707141 
L 243.46281 444.006785 
L 238.338843 444.257918 
L 233.214876 444.372128 
L 228.090909 444.549147 
L 222.966942 444.969848 
L 217.842975 445.631364 
L 212.719008 446.409171 
L 207.595041 447.155278 
L 202.471074 447.756521 
L 197.347107 448.162438 
L 192.22314 448.38114 
L 187.099174 448.448804 
L 181.975207 448.397875 
L 176.85124 448.249964 
L 171.727273 448.019157 
L 166.603306 447.678526 
L 161.479339 447.127026 
L 156.355372 446.306116 
L 151.231405 445.440375 
L 146.107438 445.029379 
L 140.983471 445.407349 
L 135.859504 446.370248 
L 130.735537 447.383137 
L 125.61157 448.071516 
L 120.487603 448.403513 
L 115.363636 448.521318 
z
" style="fill:#1f77b4;fill-opacity:0.25;"/>
   </g>
   <g id="line2d_29">
    <path clip-path="url(#pd667657a6e)" d="M 115.363636 448.521318 
L 120.487603 448.403513 
L 125.61157 448.071516 
L 130.735537 447.383137 
L 135.859504 446.370248 
L 140.983471 445.407349 
L 146.107438 445.029379 
L 151.231405 445.440375 
L 156.355372 446.306116 
L 161.479339 447.127026 
L 166.603306 447.678526 
L 171.727273 448.019157 
L 176.85124 448.249964 
L 181.975207 448.397875 
L 187.099174 448.448804 
L 192.22314 448.38114 
L 197.347107 448.162438 
L 202.471074 447.756521 
L 207.595041 447.155278 
L 212.719008 446.409171 
L 217.842975 445.631364 
L 222.966942 444.969848 
L 228.090909 444.549147 
L 233.214876 444.372128 
L 238.338843 444.257918 
L 243.46281 444.006785 
L 248.586777 443.707141 
L 253.710744 443.707461 
L 258.834711 444.160845 
L 263.958678 444.74342 
L 269.082645 444.925469 
L 274.206612 444.443319 
L 279.330579 443.47817 
L 284.454545 442.441257 
L 289.578512 441.640044 
L 294.702479 441.136701 
L 299.826446 440.77073 
L 304.950413 440.07185 
L 310.07438 438.054308 
L 315.198347 433.247666 
L 320.322314 423.966698 
L 325.446281 407.822143 
L 330.570248 379.603468 
L 335.694215 330.115471 
L 340.818182 252.854134 
L 345.942149 159.729507 
L 351.066116 88.2255 
L 356.190083 78.96 
L 361.31405 138.743076 
L 366.438017 233.332519 
L 371.561983 319.561121 
L 376.68595 376.617852 
L 381.809917 407.20834 
L 386.933884 421.84821 
L 392.057851 428.557344 
L 397.181818 431.70739 
L 402.305785 433.563711 
L 407.429752 435.096186 
L 412.553719 436.420444 
L 417.677686 437.345021 
L 422.801653 437.815775 
L 427.92562 438.084881 
L 433.049587 438.544298 
L 438.173554 439.339779 
L 443.297521 440.207059 
L 448.421488 440.779603 
L 453.545455 440.960746 
L 458.669421 440.882205 
L 463.793388 440.6409 
L 468.917355 440.289859 
L 474.041322 440.043095 
L 479.165289 440.271186 
L 484.289256 441.191855 
L 489.413223 442.63378 
L 494.53719 444.171127 
L 499.661157 445.447387 
L 504.785124 446.34846 
L 509.909091 446.952844 
L 515.033058 447.383167 
L 520.157025 447.691848 
L 525.280992 447.871063 
L 530.404959 447.945981 
L 535.528926 448.000267 
L 540.652893 448.086646 
L 545.77686 448.145006 
L 550.900826 448.033517 
L 556.024793 447.653876 
L 561.14876 447.089216 
L 566.272727 446.620995 
L 571.396694 446.516186 
L 576.520661 446.758147 
L 581.644628 447.078556 
L 586.768595 447.27971 
L 591.892562 447.415865 
L 597.016529 447.630573 
L 602.140496 447.938257 
L 607.264463 448.231918 
L 612.38843 448.425473 
L 617.512397 448.517343 
L 622.636364 448.549556 
" style="fill:none;stroke:#1f77b4;stroke-linecap:round;stroke-width:1.5;"/>
   </g>
   <g id="patch_3">
    <path d="M 90 448.56 
L 90 60.48 
" style="fill:none;"/>
   </g>
   <g id="patch_4">
    <path d="M 648 448.56 
L 648 60.48 
" style="fill:none;"/>
   </g>
   <g id="patch_5">
    <path d="M 90 448.56 
L 648 448.56 
" style="fill:none;"/>
   </g>
   <g id="patch_6">
    <path d="M 90 60.48 
L 648 60.48 
" style="fill:none;"/>
   </g>
   <g id="text_16">
    <!-- Distribution of Amounts -->
    <defs>
     <path d="M 19.671875 64.796875 
L 19.671875 8.109375 
L 31.59375 8.109375 
Q 46.6875 8.109375 53.6875 14.9375 
Q 60.6875 21.78125 60.6875 36.53125 
Q 60.6875 51.171875 53.6875 57.984375 
Q 46.6875 64.796875 31.59375 64.796875 
z
M 9.8125 72.90625 
L 30.078125 72.90625 
Q 51.265625 72.90625 61.171875 64.09375 
Q 71.09375 55.28125 71.09375 36.53125 
Q 71.09375 17.671875 61.125 8.828125 
Q 51.171875 0 30.078125 0 
L 9.8125 0 
z
" id="DejaVuSans-44"/>
     <path d="M 9.421875 54.6875 
L 18.40625 54.6875 
L 18.40625 0 
L 9.421875 0 
z
M 9.421875 75.984375 
L 18.40625 75.984375 
L 18.40625 64.59375 
L 9.421875 64.59375 
z
" id="DejaVuSans-69"/>
     <path d="M 41.109375 46.296875 
Q 39.59375 47.171875 37.8125 47.578125 
Q 36.03125 48 33.890625 48 
Q 26.265625 48 22.1875 43.046875 
Q 18.109375 38.09375 18.109375 28.8125 
L 18.109375 0 
L 9.078125 0 
L 9.078125 54.6875 
L 18.109375 54.6875 
L 18.109375 46.1875 
Q 20.953125 51.171875 25.484375 53.578125 
Q 30.03125 56 36.53125 56 
Q 37.453125 56 38.578125 55.875 
Q 39.703125 55.765625 41.0625 55.515625 
z
" id="DejaVuSans-72"/>
     <path d="M 48.6875 27.296875 
Q 48.6875 37.203125 44.609375 42.84375 
Q 40.53125 48.484375 33.40625 48.484375 
Q 26.265625 48.484375 22.1875 42.84375 
Q 18.109375 37.203125 18.109375 27.296875 
Q 18.109375 17.390625 22.1875 11.75 
Q 26.265625 6.109375 33.40625 6.109375 
Q 40.53125 6.109375 44.609375 11.75 
Q 48.6875 17.390625 48.6875 27.296875 
z
M 18.109375 46.390625 
Q 20.953125 51.265625 25.265625 53.625 
Q 29.59375 56 35.59375 56 
Q 45.5625 56 51.78125 48.09375 
Q 58.015625 40.1875 58.015625 27.296875 
Q 58.015625 14.40625 51.78125 6.484375 
Q 45.5625 -1.421875 35.59375 -1.421875 
Q 29.59375 -1.421875 25.265625 0.953125 
Q 20.953125 3.328125 18.109375 8.203125 
L 18.109375 0 
L 9.078125 0 
L 9.078125 75.984375 
L 18.109375 75.984375 
z
" id="DejaVuSans-62"/>
     <path id="DejaVuSans-20"/>
     <path d="M 37.109375 75.984375 
L 37.109375 68.5 
L 28.515625 68.5 
Q 23.6875 68.5 21.796875 66.546875 
Q 19.921875 64.59375 19.921875 59.515625 
L 19.921875 54.6875 
L 34.71875 54.6875 
L 34.71875 47.703125 
L 19.921875 47.703125 
L 19.921875 0 
L 10.890625 0 
L 10.890625 47.703125 
L 2.296875 47.703125 
L 2.296875 54.6875 
L 10.890625 54.6875 
L 10.890625 58.5 
Q 10.890625 67.625 15.140625 71.796875 
Q 19.390625 75.984375 28.609375 75.984375 
z
" id="DejaVuSans-66"/>
    </defs>
    <g style="fill:#262626;" transform="translate(303.639375 54.48)scale(0.11 -0.11)">
     <use xlink:href="#DejaVuSans-44"/>
     <use x="77.001953" xlink:href="#DejaVuSans-69"/>
     <use x="104.785156" xlink:href="#DejaVuSans-73"/>
     <use x="156.884766" xlink:href="#DejaVuSans-74"/>
     <use x="196.09375" xlink:href="#DejaVuSans-72"/>
     <use x="237.207031" xlink:href="#DejaVuSans-69"/>
     <use x="264.990234" xlink:href="#DejaVuSans-62"/>
     <use x="328.466797" xlink:href="#DejaVuSans-75"/>
     <use x="391.845703" xlink:href="#DejaVuSans-74"/>
     <use x="431.054688" xlink:href="#DejaVuSans-69"/>
     <use x="458.837891" xlink:href="#DejaVuSans-6f"/>
     <use x="520.019531" xlink:href="#DejaVuSans-6e"/>
     <use x="583.398438" xlink:href="#DejaVuSans-20"/>
     <use x="615.185547" xlink:href="#DejaVuSans-6f"/>
     <use x="676.367188" xlink:href="#DejaVuSans-66"/>
     <use x="711.572266" xlink:href="#DejaVuSans-20"/>
     <use x="743.359375" xlink:href="#DejaVuSans-41"/>
     <use x="811.767578" xlink:href="#DejaVuSans-6d"/>
     <use x="909.179688" xlink:href="#DejaVuSans-6f"/>
     <use x="970.361328" xlink:href="#DejaVuSans-75"/>
     <use x="1033.740234" xlink:href="#DejaVuSans-6e"/>
     <use x="1097.119141" xlink:href="#DejaVuSans-74"/>
     <use x="1136.328125" xlink:href="#DejaVuSans-73"/>
    </g>
   </g>
   <g id="legend_1">
    <g id="line2d_30">
     <path d="M 571.704687 73.578438 
L 591.704687 73.578438 
" style="fill:none;stroke:#1f77b4;stroke-linecap:round;stroke-width:1.5;"/>
    </g>
    <g id="line2d_31"/>
    <g id="text_17">
     <!-- Amount -->
     <g style="fill:#262626;" transform="translate(599.704687 77.078438)scale(0.1 -0.1)">
      <use xlink:href="#DejaVuSans-41"/>
      <use x="68.408203" xlink:href="#DejaVuSans-6d"/>
      <use x="165.820312" xlink:href="#DejaVuSans-6f"/>
      <use x="227.001953" xlink:href="#DejaVuSans-75"/>
      <use x="290.380859" xlink:href="#DejaVuSans-6e"/>
      <use x="353.759766" xlink:href="#DejaVuSans-74"/>
     </g>
    </g>
   </g>
  </g>
 </g>
 <defs>
  <clipPath id="pd667657a6e">
   <rect height="388.08" width="558" x="90" y="60.48"/>
  </clipPath>
 </defs>
</svg>
