<?xml version="1.0" encoding="utf-8" standalone="no"?>
<!DOCTYPE svg PUBLIC "-//W3C//DTD SVG 1.1//EN"
  "http://www.w3.org/Graphics/SVG/1.1/DTD/svg11.dtd">
<!-- Created with matplotlib (http://matplotlib.org/) -->
<svg height="288pt" version="1.1" viewBox="0 0 576 288" width="576pt" xmlns="http://www.w3.org/2000/svg" xmlns:xlink="http://www.w3.org/1999/xlink">
 <defs>
  <style type="text/css">
*{stroke-linecap:butt;stroke-linejoin:round;}
  </style>
 </defs>
 <g id="figure_1">
  <g id="patch_1">
   <path d="M 0 288 
L 576 288 
L 576 0 
L 0 0 
z
" style="fill:#ffffff;"/>
  </g>
  <g id="axes_1">
   <g id="patch_2">
    <path d="M 72 256.32 
L 518.4 256.32 
L 518.4 34.56 
L 72 34.56 
z
" style="fill:#eaeaf2;"/>
   </g>
   <g id="matplotlib.axis_1">
    <g id="xtick_1">
     <g id="line2d_1">
      <path clip-path="url(#p4d3a49ca56)" d="M 130.805249 256.32 
L 130.805249 34.56 
" style="fill:none;stroke:#ffffff;stroke-linecap:round;stroke-width:0.8;"/>
     </g>
     <g id="line2d_2"/>
     <g id="text_1">
      <!-- 0 -->
      <defs>
       <path d="M 31.78125 66.40625 
Q 24.171875 66.40625 20.328125 58.90625 
Q 16.5 51.421875 16.5 36.375 
Q 16.5 21.390625 20.328125 13.890625 
Q 24.171875 6.390625 31.78125 6.390625 
Q 39.453125 6.390625 43.28125 13.890625 
Q 47.125 21.390625 47.125 36.375 
Q 47.125 51.421875 43.28125 58.90625 
Q 39.453125 66.40625 31.78125 66.40625 
z
M 31.78125 74.21875 
Q 44.046875 74.21875 50.515625 64.515625 
Q 56.984375 54.828125 56.984375 36.375 
Q 56.984375 17.96875 50.515625 8.265625 
Q 44.046875 -1.421875 31.78125 -1.421875 
Q 19.53125 -1.421875 13.0625 8.265625 
Q 6.59375 17.96875 6.59375 36.375 
Q 6.59375 54.828125 13.0625 64.515625 
Q 19.53125 74.21875 31.78125 74.21875 
z
" id="DejaVuSans-30"/>
      </defs>
      <g style="fill:#262626;" transform="translate(127.623999 267.418437)scale(0.1 -0.1)">
       <use xlink:href="#DejaVuSans-30"/>
      </g>
     </g>
    </g>
    <g id="xtick_2">
     <g id="line2d_3">
      <path clip-path="url(#p4d3a49ca56)" d="M 224.715592 256.32 
L 224.715592 34.56 
" style="fill:none;stroke:#ffffff;stroke-linecap:round;stroke-width:0.8;"/>
     </g>
     <g id="line2d_4"/>
     <g id="text_2">
      <!-- 100 -->
      <defs>
       <path d="M 12.40625 8.296875 
L 28.515625 8.296875 
L 28.515625 63.921875 
L 10.984375 60.40625 
L 10.984375 69.390625 
L 28.421875 72.90625 
L 38.28125 72.90625 
L 38.28125 8.296875 
L 54.390625 8.296875 
L 54.390625 0 
L 12.40625 0 
z
" id="DejaVuSans-31"/>
      </defs>
      <g style="fill:#262626;" transform="translate(215.171842 267.418437)scale(0.1 -0.1)">
       <use xlink:href="#DejaVuSans-31"/>
       <use x="63.623047" xlink:href="#DejaVuSans-30"/>
       <use x="127.246094" xlink:href="#DejaVuSans-30"/>
      </g>
     </g>
    </g>
    <g id="xtick_3">
     <g id="line2d_5">
      <path clip-path="url(#p4d3a49ca56)" d="M 318.625935 256.32 
L 318.625935 34.56 
" style="fill:none;stroke:#ffffff;stroke-linecap:round;stroke-width:0.8;"/>
     </g>
     <g id="line2d_6"/>
     <g id="text_3">
      <!-- 200 -->
      <defs>
       <path d="M 19.1875 8.296875 
L 53.609375 8.296875 
L 53.609375 0 
L 7.328125 0 
L 7.328125 8.296875 
Q 12.9375 14.109375 22.625 23.890625 
Q 32.328125 33.6875 34.8125 36.53125 
Q 39.546875 41.84375 41.421875 45.53125 
Q 43.3125 49.21875 43.3125 52.78125 
Q 43.3125 58.59375 39.234375 62.25 
Q 35.15625 65.921875 28.609375 65.921875 
Q 23.96875 65.921875 18.8125 64.3125 
Q 13.671875 62.703125 7.8125 59.421875 
L 7.8125 69.390625 
Q 13.765625 71.78125 18.9375 73 
Q 24.125 74.21875 28.421875 74.21875 
Q 39.75 74.21875 46.484375 68.546875 
Q 53.21875 62.890625 53.21875 53.421875 
Q 53.21875 48.921875 51.53125 44.890625 
Q 49.859375 40.875 45.40625 35.40625 
Q 44.1875 33.984375 37.640625 27.21875 
Q 31.109375 20.453125 19.1875 8.296875 
z
" id="DejaVuSans-32"/>
      </defs>
      <g style="fill:#262626;" transform="translate(309.082185 267.418437)scale(0.1 -0.1)">
       <use xlink:href="#DejaVuSans-32"/>
       <use x="63.623047" xlink:href="#DejaVuSans-30"/>
       <use x="127.246094" xlink:href="#DejaVuSans-30"/>
      </g>
     </g>
    </g>
    <g id="xtick_4">
     <g id="line2d_7">
      <path clip-path="url(#p4d3a49ca56)" d="M 412.536278 256.32 
L 412.536278 34.56 
" style="fill:none;stroke:#ffffff;stroke-linecap:round;stroke-width:0.8;"/>
     </g>
     <g id="line2d_8"/>
     <g id="text_4">
      <!-- 300 -->
      <defs>
       <path d="M 40.578125 39.3125 
Q 47.65625 37.796875 51.625 33 
Q 55.609375 28.21875 55.609375 21.1875 
Q 55.609375 10.40625 48.1875 4.484375 
Q 40.765625 -1.421875 27.09375 -1.421875 
Q 22.515625 -1.421875 17.65625 -0.515625 
Q 12.796875 0.390625 7.625 2.203125 
L 7.625 11.71875 
Q 11.71875 9.328125 16.59375 8.109375 
Q 21.484375 6.890625 26.8125 6.890625 
Q 36.078125 6.890625 40.9375 10.546875 
Q 45.796875 14.203125 45.796875 21.1875 
Q 45.796875 27.640625 41.28125 31.265625 
Q 36.765625 34.90625 28.71875 34.90625 
L 20.21875 34.90625 
L 20.21875 43.015625 
L 29.109375 43.015625 
Q 36.375 43.015625 40.234375 45.921875 
Q 44.09375 48.828125 44.09375 54.296875 
Q 44.09375 59.90625 40.109375 62.90625 
Q 36.140625 65.921875 28.71875 65.921875 
Q 24.65625 65.921875 20.015625 65.03125 
Q 15.375 64.15625 9.8125 62.3125 
L 9.8125 71.09375 
Q 15.4375 72.65625 20.34375 73.4375 
Q 25.25 74.21875 29.59375 74.21875 
Q 40.828125 74.21875 47.359375 69.109375 
Q 53.90625 64.015625 53.90625 55.328125 
Q 53.90625 49.265625 50.4375 45.09375 
Q 46.96875 40.921875 40.578125 39.3125 
z
" id="DejaVuSans-33"/>
      </defs>
      <g style="fill:#262626;" transform="translate(402.992528 267.418437)scale(0.1 -0.1)">
       <use xlink:href="#DejaVuSans-33"/>
       <use x="63.623047" xlink:href="#DejaVuSans-30"/>
       <use x="127.246094" xlink:href="#DejaVuSans-30"/>
      </g>
     </g>
    </g>
    <g id="xtick_5">
     <g id="line2d_9">
      <path clip-path="url(#p4d3a49ca56)" d="M 506.446621 256.32 
L 506.446621 34.56 
" style="fill:none;stroke:#ffffff;stroke-linecap:round;stroke-width:0.8;"/>
     </g>
     <g id="line2d_10"/>
     <g id="text_5">
      <!-- 400 -->
      <defs>
       <path d="M 37.796875 64.3125 
L 12.890625 25.390625 
L 37.796875 25.390625 
z
M 35.203125 72.90625 
L 47.609375 72.90625 
L 47.609375 25.390625 
L 58.015625 25.390625 
L 58.015625 17.1875 
L 47.609375 17.1875 
L 47.609375 0 
L 37.796875 0 
L 37.796875 17.1875 
L 4.890625 17.1875 
L 4.890625 26.703125 
z
" id="DejaVuSans-34"/>
      </defs>
      <g style="fill:#262626;" transform="translate(496.902871 267.418437)scale(0.1 -0.1)">
       <use xlink:href="#DejaVuSans-34"/>
       <use x="63.623047" xlink:href="#DejaVuSans-30"/>
       <use x="127.246094" xlink:href="#DejaVuSans-30"/>
      </g>
     </g>
    </g>
    <g id="text_6">
     <!-- Debits -->
     <defs>
      <path d="M 19.671875 64.796875 
L 19.671875 8.109375 
L 31.59375 8.109375 
Q 46.6875 8.109375 53.6875 14.9375 
Q 60.6875 21.78125 60.6875 36.53125 
Q 60.6875 51.171875 53.6875 57.984375 
Q 46.6875 64.796875 31.59375 64.796875 
z
M 9.8125 72.90625 
L 30.078125 72.90625 
Q 51.265625 72.90625 61.171875 64.09375 
Q 71.09375 55.28125 71.09375 36.53125 
Q 71.09375 17.671875 61.125 8.828125 
Q 51.171875 0 30.078125 0 
L 9.8125 0 
z
" id="DejaVuSans-44"/>
      <path d="M 56.203125 29.59375 
L 56.203125 25.203125 
L 14.890625 25.203125 
Q 15.484375 15.921875 20.484375 11.0625 
Q 25.484375 6.203125 34.421875 6.203125 
Q 39.59375 6.203125 44.453125 7.46875 
Q 49.3125 8.734375 54.109375 11.28125 
L 54.109375 2.78125 
Q 49.265625 0.734375 44.1875 -0.34375 
Q 39.109375 -1.421875 33.890625 -1.421875 
Q 20.796875 -1.421875 13.15625 6.1875 
Q 5.515625 13.8125 5.515625 26.8125 
Q 5.515625 40.234375 12.765625 48.109375 
Q 20.015625 56 32.328125 56 
Q 43.359375 56 49.78125 48.890625 
Q 56.203125 41.796875 56.203125 29.59375 
z
M 47.21875 32.234375 
Q 47.125 39.59375 43.09375 43.984375 
Q 39.0625 48.390625 32.421875 48.390625 
Q 24.90625 48.390625 20.390625 44.140625 
Q 15.875 39.890625 15.1875 32.171875 
z
" id="DejaVuSans-65"/>
      <path d="M 48.6875 27.296875 
Q 48.6875 37.203125 44.609375 42.84375 
Q 40.53125 48.484375 33.40625 48.484375 
Q 26.265625 48.484375 22.1875 42.84375 
Q 18.109375 37.203125 18.109375 27.296875 
Q 18.109375 17.390625 22.1875 11.75 
Q 26.265625 6.109375 33.40625 6.109375 
Q 40.53125 6.109375 44.609375 11.75 
Q 48.6875 17.390625 48.6875 27.296875 
z
M 18.109375 46.390625 
Q 20.953125 51.265625 25.265625 53.625 
Q 29.59375 56 35.59375 56 
Q 45.5625 56 51.78125 48.09375 
Q 58.015625 40.1875 58.015625 27.296875 
Q 58.015625 14.40625 51.78125 6.484375 
Q 45.5625 -1.421875 35.59375 -1.421875 
Q 29.59375 -1.421875 25.265625 0.953125 
Q 20.953125 3.328125 18.109375 8.203125 
L 18.109375 0 
L 9.078125 0 
L 9.078125 75.984375 
L 18.109375 75.984375 
z
" id="DejaVuSans-62"/>
      <path d="M 9.421875 54.6875 
L 18.40625 54.6875 
L 18.40625 0 
L 9.421875 0 
z
M 9.421875 75.984375 
L 18.40625 75.984375 
L 18.40625 64.59375 
L 9.421875 64.59375 
z
" id="DejaVuSans-69"/>
      <path d="M 18.3125 70.21875 
L 18.3125 54.6875 
L 36.8125 54.6875 
L 36.8125 47.703125 
L 18.3125 47.703125 
L 18.3125 18.015625 
Q 18.3125 11.328125 20.140625 9.421875 
Q 21.96875 7.515625 27.59375 7.515625 
L 36.8125 7.515625 
L 36.8125 0 
L 27.59375 0 
Q 17.1875 0 13.234375 3.875 
Q 9.28125 7.765625 9.28125 18.015625 
L 9.28125 47.703125 
L 2.6875 47.703125 
L 2.6875 54.6875 
L 9.28125 54.6875 
L 9.28125 70.21875 
z
" id="DejaVuSans-74"/>
      <path d="M 44.28125 53.078125 
L 44.28125 44.578125 
Q 40.484375 46.53125 36.375 47.5 
Q 32.28125 48.484375 27.875 48.484375 
Q 21.1875 48.484375 17.84375 46.4375 
Q 14.5 44.390625 14.5 40.28125 
Q 14.5 37.15625 16.890625 35.375 
Q 19.28125 33.59375 26.515625 31.984375 
L 29.59375 31.296875 
Q 39.15625 29.25 43.1875 25.515625 
Q 47.21875 21.78125 47.21875 15.09375 
Q 47.21875 7.46875 41.1875 3.015625 
Q 35.15625 -1.421875 24.609375 -1.421875 
Q 20.21875 -1.421875 15.453125 -0.5625 
Q 10.6875 0.296875 5.421875 2 
L 5.421875 11.28125 
Q 10.40625 8.6875 15.234375 7.390625 
Q 20.0625 6.109375 24.8125 6.109375 
Q 31.15625 6.109375 34.5625 8.28125 
Q 37.984375 10.453125 37.984375 14.40625 
Q 37.984375 18.0625 35.515625 20.015625 
Q 33.0625 21.96875 24.703125 23.78125 
L 21.578125 24.515625 
Q 13.234375 26.265625 9.515625 29.90625 
Q 5.8125 33.546875 5.8125 39.890625 
Q 5.8125 47.609375 11.28125 51.796875 
Q 16.75 56 26.8125 56 
Q 31.78125 56 36.171875 55.265625 
Q 40.578125 54.546875 44.28125 53.078125 
z
" id="DejaVuSans-73"/>
     </defs>
     <g style="fill:#262626;" transform="translate(277.539844 281.856406)scale(0.11 -0.11)">
      <use xlink:href="#DejaVuSans-44"/>
      <use x="77.001953" xlink:href="#DejaVuSans-65"/>
      <use x="138.525391" xlink:href="#DejaVuSans-62"/>
      <use x="202.001953" xlink:href="#DejaVuSans-69"/>
      <use x="229.785156" xlink:href="#DejaVuSans-74"/>
      <use x="268.994141" xlink:href="#DejaVuSans-73"/>
     </g>
    </g>
   </g>
   <g id="matplotlib.axis_2">
    <g id="ytick_1">
     <g id="line2d_11">
      <path clip-path="url(#p4d3a49ca56)" d="M 72 256.32 
L 518.4 256.32 
" style="fill:none;stroke:#ffffff;stroke-linecap:round;stroke-width:0.8;"/>
     </g>
     <g id="line2d_12"/>
     <g id="text_7">
      <!-- 0.0000 -->
      <defs>
       <path d="M 10.6875 12.40625 
L 21 12.40625 
L 21 0 
L 10.6875 0 
z
" id="DejaVuSans-2e"/>
      </defs>
      <g style="fill:#262626;" transform="translate(33.509375 260.119219)scale(0.1 -0.1)">
       <use xlink:href="#DejaVuSans-30"/>
       <use x="63.623047" xlink:href="#DejaVuSans-2e"/>
       <use x="95.410156" xlink:href="#DejaVuSans-30"/>
       <use x="159.033203" xlink:href="#DejaVuSans-30"/>
       <use x="222.65625" xlink:href="#DejaVuSans-30"/>
       <use x="286.279297" xlink:href="#DejaVuSans-30"/>
      </g>
     </g>
    </g>
    <g id="ytick_2">
     <g id="line2d_13">
      <path clip-path="url(#p4d3a49ca56)" d="M 72 230.03772 
L 518.4 230.03772 
" style="fill:none;stroke:#ffffff;stroke-linecap:round;stroke-width:0.8;"/>
     </g>
     <g id="line2d_14"/>
     <g id="text_8">
      <!-- 0.0025 -->
      <defs>
       <path d="M 10.796875 72.90625 
L 49.515625 72.90625 
L 49.515625 64.59375 
L 19.828125 64.59375 
L 19.828125 46.734375 
Q 21.96875 47.46875 24.109375 47.828125 
Q 26.265625 48.1875 28.421875 48.1875 
Q 40.625 48.1875 47.75 41.5 
Q 54.890625 34.8125 54.890625 23.390625 
Q 54.890625 11.625 47.5625 5.09375 
Q 40.234375 -1.421875 26.90625 -1.421875 
Q 22.3125 -1.421875 17.546875 -0.640625 
Q 12.796875 0.140625 7.71875 1.703125 
L 7.71875 11.625 
Q 12.109375 9.234375 16.796875 8.0625 
Q 21.484375 6.890625 26.703125 6.890625 
Q 35.15625 6.890625 40.078125 11.328125 
Q 45.015625 15.765625 45.015625 23.390625 
Q 45.015625 31 40.078125 35.4375 
Q 35.15625 39.890625 26.703125 39.890625 
Q 22.75 39.890625 18.8125 39.015625 
Q 14.890625 38.140625 10.796875 36.28125 
z
" id="DejaVuSans-35"/>
      </defs>
      <g style="fill:#262626;" transform="translate(33.509375 233.836938)scale(0.1 -0.1)">
       <use xlink:href="#DejaVuSans-30"/>
       <use x="63.623047" xlink:href="#DejaVuSans-2e"/>
       <use x="95.410156" xlink:href="#DejaVuSans-30"/>
       <use x="159.033203" xlink:href="#DejaVuSans-30"/>
       <use x="222.65625" xlink:href="#DejaVuSans-32"/>
       <use x="286.279297" xlink:href="#DejaVuSans-35"/>
      </g>
     </g>
    </g>
    <g id="ytick_3">
     <g id="line2d_15">
      <path clip-path="url(#p4d3a49ca56)" d="M 72 203.755439 
L 518.4 203.755439 
" style="fill:none;stroke:#ffffff;stroke-linecap:round;stroke-width:0.8;"/>
     </g>
     <g id="line2d_16"/>
     <g id="text_9">
      <!-- 0.0050 -->
      <g style="fill:#262626;" transform="translate(33.509375 207.554658)scale(0.1 -0.1)">
       <use xlink:href="#DejaVuSans-30"/>
       <use x="63.623047" xlink:href="#DejaVuSans-2e"/>
       <use x="95.410156" xlink:href="#DejaVuSans-30"/>
       <use x="159.033203" xlink:href="#DejaVuSans-30"/>
       <use x="222.65625" xlink:href="#DejaVuSans-35"/>
       <use x="286.279297" xlink:href="#DejaVuSans-30"/>
      </g>
     </g>
    </g>
    <g id="ytick_4">
     <g id="line2d_17">
      <path clip-path="url(#p4d3a49ca56)" d="M 72 177.473159 
L 518.4 177.473159 
" style="fill:none;stroke:#ffffff;stroke-linecap:round;stroke-width:0.8;"/>
     </g>
     <g id="line2d_18"/>
     <g id="text_10">
      <!-- 0.0075 -->
      <defs>
       <path d="M 8.203125 72.90625 
L 55.078125 72.90625 
L 55.078125 68.703125 
L 28.609375 0 
L 18.3125 0 
L 43.21875 64.59375 
L 8.203125 64.59375 
z
" id="DejaVuSans-37"/>
      </defs>
      <g style="fill:#262626;" transform="translate(33.509375 181.272378)scale(0.1 -0.1)">
       <use xlink:href="#DejaVuSans-30"/>
       <use x="63.623047" xlink:href="#DejaVuSans-2e"/>
       <use x="95.410156" xlink:href="#DejaVuSans-30"/>
       <use x="159.033203" xlink:href="#DejaVuSans-30"/>
       <use x="222.65625" xlink:href="#DejaVuSans-37"/>
       <use x="286.279297" xlink:href="#DejaVuSans-35"/>
      </g>
     </g>
    </g>
    <g id="ytick_5">
     <g id="line2d_19">
      <path clip-path="url(#p4d3a49ca56)" d="M 72 151.190879 
L 518.4 151.190879 
" style="fill:none;stroke:#ffffff;stroke-linecap:round;stroke-width:0.8;"/>
     </g>
     <g id="line2d_20"/>
     <g id="text_11">
      <!-- 0.0100 -->
      <g style="fill:#262626;" transform="translate(33.509375 154.990097)scale(0.1 -0.1)">
       <use xlink:href="#DejaVuSans-30"/>
       <use x="63.623047" xlink:href="#DejaVuSans-2e"/>
       <use x="95.410156" xlink:href="#DejaVuSans-30"/>
       <use x="159.033203" xlink:href="#DejaVuSans-31"/>
       <use x="222.65625" xlink:href="#DejaVuSans-30"/>
       <use x="286.279297" xlink:href="#DejaVuSans-30"/>
      </g>
     </g>
    </g>
    <g id="ytick_6">
     <g id="line2d_21">
      <path clip-path="url(#p4d3a49ca56)" d="M 72 124.908598 
L 518.4 124.908598 
" style="fill:none;stroke:#ffffff;stroke-linecap:round;stroke-width:0.8;"/>
     </g>
     <g id="line2d_22"/>
     <g id="text_12">
      <!-- 0.0125 -->
      <g style="fill:#262626;" transform="translate(33.509375 128.707817)scale(0.1 -0.1)">
       <use xlink:href="#DejaVuSans-30"/>
       <use x="63.623047" xlink:href="#DejaVuSans-2e"/>
       <use x="95.410156" xlink:href="#DejaVuSans-30"/>
       <use x="159.033203" xlink:href="#DejaVuSans-31"/>
       <use x="222.65625" xlink:href="#DejaVuSans-32"/>
       <use x="286.279297" xlink:href="#DejaVuSans-35"/>
      </g>
     </g>
    </g>
    <g id="ytick_7">
     <g id="line2d_23">
      <path clip-path="url(#p4d3a49ca56)" d="M 72 98.626318 
L 518.4 98.626318 
" style="fill:none;stroke:#ffffff;stroke-linecap:round;stroke-width:0.8;"/>
     </g>
     <g id="line2d_24"/>
     <g id="text_13">
      <!-- 0.0150 -->
      <g style="fill:#262626;" transform="translate(33.509375 102.425537)scale(0.1 -0.1)">
       <use xlink:href="#DejaVuSans-30"/>
       <use x="63.623047" xlink:href="#DejaVuSans-2e"/>
       <use x="95.410156" xlink:href="#DejaVuSans-30"/>
       <use x="159.033203" xlink:href="#DejaVuSans-31"/>
       <use x="222.65625" xlink:href="#DejaVuSans-35"/>
       <use x="286.279297" xlink:href="#DejaVuSans-30"/>
      </g>
     </g>
    </g>
    <g id="ytick_8">
     <g id="line2d_25">
      <path clip-path="url(#p4d3a49ca56)" d="M 72 72.344038 
L 518.4 72.344038 
" style="fill:none;stroke:#ffffff;stroke-linecap:round;stroke-width:0.8;"/>
     </g>
     <g id="line2d_26"/>
     <g id="text_14">
      <!-- 0.0175 -->
      <g style="fill:#262626;" transform="translate(33.509375 76.143256)scale(0.1 -0.1)">
       <use xlink:href="#DejaVuSans-30"/>
       <use x="63.623047" xlink:href="#DejaVuSans-2e"/>
       <use x="95.410156" xlink:href="#DejaVuSans-30"/>
       <use x="159.033203" xlink:href="#DejaVuSans-31"/>
       <use x="222.65625" xlink:href="#DejaVuSans-37"/>
       <use x="286.279297" xlink:href="#DejaVuSans-35"/>
      </g>
     </g>
    </g>
    <g id="ytick_9">
     <g id="line2d_27">
      <path clip-path="url(#p4d3a49ca56)" d="M 72 46.061757 
L 518.4 46.061757 
" style="fill:none;stroke:#ffffff;stroke-linecap:round;stroke-width:0.8;"/>
     </g>
     <g id="line2d_28"/>
     <g id="text_15">
      <!-- 0.0200 -->
      <g style="fill:#262626;" transform="translate(33.509375 49.860976)scale(0.1 -0.1)">
       <use xlink:href="#DejaVuSans-30"/>
       <use x="63.623047" xlink:href="#DejaVuSans-2e"/>
       <use x="95.410156" xlink:href="#DejaVuSans-30"/>
       <use x="159.033203" xlink:href="#DejaVuSans-32"/>
       <use x="222.65625" xlink:href="#DejaVuSans-30"/>
       <use x="286.279297" xlink:href="#DejaVuSans-30"/>
      </g>
     </g>
    </g>
   </g>
   <g id="PolyCollection_1">
    <path clip-path="url(#p4d3a49ca56)" d="M 92.290909 255.658435 
L 92.290909 256.32 
L 96.390083 256.32 
L 100.489256 256.32 
L 104.58843 256.32 
L 108.687603 256.32 
L 112.786777 256.32 
L 116.88595 256.32 
L 120.985124 256.32 
L 125.084298 256.32 
L 129.183471 256.32 
L 133.282645 256.32 
L 137.381818 256.32 
L 141.480992 256.32 
L 145.580165 256.32 
L 149.679339 256.32 
L 153.778512 256.32 
L 157.877686 256.32 
L 161.97686 256.32 
L 166.076033 256.32 
L 170.175207 256.32 
L 174.27438 256.32 
L 178.373554 256.32 
L 182.472727 256.32 
L 186.571901 256.32 
L 190.671074 256.32 
L 194.770248 256.32 
L 198.869421 256.32 
L 202.968595 256.32 
L 207.067769 256.32 
L 211.166942 256.32 
L 215.266116 256.32 
L 219.365289 256.32 
L 223.464463 256.32 
L 227.563636 256.32 
L 231.66281 256.32 
L 235.761983 256.32 
L 239.861157 256.32 
L 243.960331 256.32 
L 248.059504 256.32 
L 252.158678 256.32 
L 256.257851 256.32 
L 260.357025 256.32 
L 264.456198 256.32 
L 268.555372 256.32 
L 272.654545 256.32 
L 276.753719 256.32 
L 280.852893 256.32 
L 284.952066 256.32 
L 289.05124 256.32 
L 293.150413 256.32 
L 297.249587 256.32 
L 301.34876 256.32 
L 305.447934 256.32 
L 309.547107 256.32 
L 313.646281 256.32 
L 317.745455 256.32 
L 321.844628 256.32 
L 325.943802 256.32 
L 330.042975 256.32 
L 334.142149 256.32 
L 338.241322 256.32 
L 342.340496 256.32 
L 346.439669 256.32 
L 350.538843 256.32 
L 354.638017 256.32 
L 358.73719 256.32 
L 362.836364 256.32 
L 366.935537 256.32 
L 371.034711 256.32 
L 375.133884 256.32 
L 379.233058 256.32 
L 383.332231 256.32 
L 387.431405 256.32 
L 391.530579 256.32 
L 395.629752 256.32 
L 399.728926 256.32 
L 403.828099 256.32 
L 407.927273 256.32 
L 412.026446 256.32 
L 416.12562 256.32 
L 420.224793 256.32 
L 424.323967 256.32 
L 428.42314 256.32 
L 432.522314 256.32 
L 436.621488 256.32 
L 440.720661 256.32 
L 444.819835 256.32 
L 448.919008 256.32 
L 453.018182 256.32 
L 457.117355 256.32 
L 461.216529 256.32 
L 465.315702 256.32 
L 469.414876 256.32 
L 473.51405 256.32 
L 477.613223 256.32 
L 481.712397 256.32 
L 485.81157 256.32 
L 489.910744 256.32 
L 494.009917 256.32 
L 498.109091 256.32 
L 498.109091 256.315968 
L 498.109091 256.315968 
L 494.009917 256.310028 
L 489.910744 256.297682 
L 485.81157 256.274742 
L 481.712397 256.236677 
L 477.613223 256.180246 
L 473.51405 256.105199 
L 469.414876 256.014598 
L 465.315702 255.912677 
L 461.216529 255.801024 
L 457.117355 255.676215 
L 453.018182 255.532098 
L 448.919008 255.366568 
L 444.819835 255.187694 
L 440.720661 255.012572 
L 436.621488 254.85712 
L 432.522314 254.723353 
L 428.42314 254.595086 
L 424.323967 254.448475 
L 420.224793 254.272751 
L 416.12562 254.087385 
L 412.026446 253.941912 
L 407.927273 253.894624 
L 403.828099 253.979843 
L 399.728926 254.181826 
L 395.629752 254.430814 
L 391.530579 254.625003 
L 387.431405 254.668961 
L 383.332231 254.511905 
L 379.233058 254.170315 
L 375.133884 253.725704 
L 371.034711 253.297131 
L 366.935537 252.998035 
L 362.836364 252.895453 
L 358.73719 252.990417 
L 354.638017 253.227695 
L 350.538843 253.526287 
L 346.439669 253.811543 
L 342.340496 254.032985 
L 338.241322 254.164849 
L 334.142149 254.197563 
L 330.042975 254.130259 
L 325.943802 253.968721 
L 321.844628 253.726783 
L 317.745455 253.427371 
L 313.646281 253.101738 
L 309.547107 252.788014 
L 305.447934 252.529589 
L 301.34876 252.370813 
L 297.249587 252.346682 
L 293.150413 252.467754 
L 289.05124 252.708418 
L 284.952066 253.008496 
L 280.852893 253.290869 
L 276.753719 253.48662 
L 272.654545 253.553988 
L 268.555372 253.483141 
L 264.456198 253.289827 
L 260.357025 253.007015 
L 256.257851 252.679831 
L 252.158678 252.360844 
L 248.059504 252.099555 
L 243.960331 251.925236 
L 239.861157 251.82987 
L 235.761983 251.759641 
L 231.66281 251.617742 
L 227.563636 251.275378 
L 223.464463 250.587697 
L 219.365289 249.415293 
L 215.266116 247.652111 
L 211.166942 245.253612 
L 207.067769 242.251767 
L 202.968595 238.746658 
L 198.869421 234.88016 
L 194.770248 230.810506 
L 190.671074 226.697581 
L 186.571901 222.675855 
L 182.472727 218.765482 
L 178.373554 214.693964 
L 174.27438 209.681061 
L 170.175207 202.332544 
L 166.076033 190.820261 
L 161.97686 173.450078 
L 157.877686 149.545495 
L 153.778512 120.359425 
L 149.679339 89.558959 
L 145.580165 62.830726 
L 141.480992 46.44018 
L 137.381818 45.12 
L 133.282645 60.184538 
L 129.183471 88.855399 
L 125.084298 125.234778 
L 120.985124 162.462736 
L 116.88595 194.962083 
L 112.786777 219.751491 
L 108.687603 236.475794 
L 104.58843 246.525205 
L 100.489256 251.926497 
L 96.390083 254.530384 
L 92.290909 255.658435 
z
" style="fill:#1f77b4;fill-opacity:0.25;"/>
   </g>
   <g id="line2d_29">
    <path clip-path="url(#p4d3a49ca56)" d="M 92.290909 255.658435 
L 96.390083 254.530384 
L 100.489256 251.926497 
L 104.58843 246.525205 
L 108.687603 236.475794 
L 112.786777 219.751491 
L 116.88595 194.962083 
L 120.985124 162.462736 
L 125.084298 125.234778 
L 129.183471 88.855399 
L 133.282645 60.184538 
L 137.381818 45.12 
L 141.480992 46.44018 
L 145.580165 62.830726 
L 149.679339 89.558959 
L 153.778512 120.359425 
L 157.877686 149.545495 
L 161.97686 173.450078 
L 166.076033 190.820261 
L 170.175207 202.332544 
L 174.27438 209.681061 
L 178.373554 214.693964 
L 182.472727 218.765482 
L 186.571901 222.675855 
L 190.671074 226.697581 
L 194.770248 230.810506 
L 198.869421 234.88016 
L 202.968595 238.746658 
L 207.067769 242.251767 
L 211.166942 245.253612 
L 215.266116 247.652111 
L 219.365289 249.415293 
L 223.464463 250.587697 
L 227.563636 251.275378 
L 231.66281 251.617742 
L 235.761983 251.759641 
L 239.861157 251.82987 
L 243.960331 251.925236 
L 248.059504 252.099555 
L 252.158678 252.360844 
L 256.257851 252.679831 
L 260.357025 253.007015 
L 264.456198 253.289827 
L 268.555372 253.483141 
L 272.654545 253.553988 
L 276.753719 253.48662 
L 280.852893 253.290869 
L 284.952066 253.008496 
L 289.05124 252.708418 
L 293.150413 252.467754 
L 297.249587 252.346682 
L 301.34876 252.370813 
L 305.447934 252.529589 
L 309.547107 252.788014 
L 313.646281 253.101738 
L 317.745455 253.427371 
L 321.844628 253.726783 
L 325.943802 253.968721 
L 330.042975 254.130259 
L 334.142149 254.197563 
L 338.241322 254.164849 
L 342.340496 254.032985 
L 346.439669 253.811543 
L 350.538843 253.526287 
L 354.638017 253.227695 
L 358.73719 252.990417 
L 362.836364 252.895453 
L 366.935537 252.998035 
L 371.034711 253.297131 
L 375.133884 253.725704 
L 379.233058 254.170315 
L 383.332231 254.511905 
L 387.431405 254.668961 
L 391.530579 254.625003 
L 395.629752 254.430814 
L 399.728926 254.181826 
L 403.828099 253.979843 
L 407.927273 253.894624 
L 412.026446 253.941912 
L 416.12562 254.087385 
L 420.224793 254.272751 
L 424.323967 254.448475 
L 428.42314 254.595086 
L 432.522314 254.723353 
L 436.621488 254.85712 
L 440.720661 255.012572 
L 444.819835 255.187694 
L 448.919008 255.366568 
L 453.018182 255.532098 
L 457.117355 255.676215 
L 461.216529 255.801024 
L 465.315702 255.912677 
L 469.414876 256.014598 
L 473.51405 256.105199 
L 477.613223 256.180246 
L 481.712397 256.236677 
L 485.81157 256.274742 
L 489.910744 256.297682 
L 494.009917 256.310028 
L 498.109091 256.315968 
" style="fill:none;stroke:#1f77b4;stroke-linecap:round;stroke-width:1.5;"/>
   </g>
   <g id="patch_3">
    <path d="M 72 256.32 
L 72 34.56 
" style="fill:none;"/>
   </g>
   <g id="patch_4">
    <path d="M 518.4 256.32 
L 518.4 34.56 
" style="fill:none;"/>
   </g>
   <g id="patch_5">
    <path d="M 72 256.32 
L 518.4 256.32 
" style="fill:none;"/>
   </g>
   <g id="patch_6">
    <path d="M 72 34.56 
L 518.4 34.56 
" style="fill:none;"/>
   </g>
   <g id="text_16">
    <!-- Distribution of Debits -->
    <defs>
     <path d="M 41.109375 46.296875 
Q 39.59375 47.171875 37.8125 47.578125 
Q 36.03125 48 33.890625 48 
Q 26.265625 48 22.1875 43.046875 
Q 18.109375 38.09375 18.109375 28.8125 
L 18.109375 0 
L 9.078125 0 
L 9.078125 54.6875 
L 18.109375 54.6875 
L 18.109375 46.1875 
Q 20.953125 51.171875 25.484375 53.578125 
Q 30.03125 56 36.53125 56 
Q 37.453125 56 38.578125 55.875 
Q 39.703125 55.765625 41.0625 55.515625 
z
" id="DejaVuSans-72"/>
     <path d="M 8.5 21.578125 
L 8.5 54.6875 
L 17.484375 54.6875 
L 17.484375 21.921875 
Q 17.484375 14.15625 20.5 10.265625 
Q 23.53125 6.390625 29.59375 6.390625 
Q 36.859375 6.390625 41.078125 11.03125 
Q 45.3125 15.671875 45.3125 23.6875 
L 45.3125 54.6875 
L 54.296875 54.6875 
L 54.296875 0 
L 45.3125 0 
L 45.3125 8.40625 
Q 42.046875 3.421875 37.71875 1 
Q 33.40625 -1.421875 27.6875 -1.421875 
Q 18.265625 -1.421875 13.375 4.4375 
Q 8.5 10.296875 8.5 21.578125 
z
M 31.109375 56 
z
" id="DejaVuSans-75"/>
     <path d="M 30.609375 48.390625 
Q 23.390625 48.390625 19.1875 42.75 
Q 14.984375 37.109375 14.984375 27.296875 
Q 14.984375 17.484375 19.15625 11.84375 
Q 23.34375 6.203125 30.609375 6.203125 
Q 37.796875 6.203125 41.984375 11.859375 
Q 46.1875 17.53125 46.1875 27.296875 
Q 46.1875 37.015625 41.984375 42.703125 
Q 37.796875 48.390625 30.609375 48.390625 
z
M 30.609375 56 
Q 42.328125 56 49.015625 48.375 
Q 55.71875 40.765625 55.71875 27.296875 
Q 55.71875 13.875 49.015625 6.21875 
Q 42.328125 -1.421875 30.609375 -1.421875 
Q 18.84375 -1.421875 12.171875 6.21875 
Q 5.515625 13.875 5.515625 27.296875 
Q 5.515625 40.765625 12.171875 48.375 
Q 18.84375 56 30.609375 56 
z
" id="DejaVuSans-6f"/>
     <path d="M 54.890625 33.015625 
L 54.890625 0 
L 45.90625 0 
L 45.90625 32.71875 
Q 45.90625 40.484375 42.875 44.328125 
Q 39.84375 48.1875 33.796875 48.1875 
Q 26.515625 48.1875 22.3125 43.546875 
Q 18.109375 38.921875 18.109375 30.90625 
L 18.109375 0 
L 9.078125 0 
L 9.078125 54.6875 
L 18.109375 54.6875 
L 18.109375 46.1875 
Q 21.34375 51.125 25.703125 53.5625 
Q 30.078125 56 35.796875 56 
Q 45.21875 56 50.046875 50.171875 
Q 54.890625 44.34375 54.890625 33.015625 
z
" id="DejaVuSans-6e"/>
     <path id="DejaVuSans-20"/>
     <path d="M 37.109375 75.984375 
L 37.109375 68.5 
L 28.515625 68.5 
Q 23.6875 68.5 21.796875 66.546875 
Q 19.921875 64.59375 19.921875 59.515625 
L 19.921875 54.6875 
L 34.71875 54.6875 
L 34.71875 47.703125 
L 19.921875 47.703125 
L 19.921875 0 
L 10.890625 0 
L 10.890625 47.703125 
L 2.296875 47.703125 
L 2.296875 54.6875 
L 10.890625 54.6875 
L 10.890625 58.5 
Q 10.890625 67.625 15.140625 71.796875 
Q 19.390625 75.984375 28.609375 75.984375 
z
" id="DejaVuSans-66"/>
    </defs>
    <g style="fill:#262626;" transform="translate(236.656797 28.56)scale(0.11 -0.11)">
     <use xlink:href="#DejaVuSans-44"/>
     <use x="77.001953" xlink:href="#DejaVuSans-69"/>
     <use x="104.785156" xlink:href="#DejaVuSans-73"/>
     <use x="156.884766" xlink:href="#DejaVuSans-74"/>
     <use x="196.09375" xlink:href="#DejaVuSans-72"/>
     <use x="237.207031" xlink:href="#DejaVuSans-69"/>
     <use x="264.990234" xlink:href="#DejaVuSans-62"/>
     <use x="328.466797" xlink:href="#DejaVuSans-75"/>
     <use x="391.845703" xlink:href="#DejaVuSans-74"/>
     <use x="431.054688" xlink:href="#DejaVuSans-69"/>
     <use x="458.837891" xlink:href="#DejaVuSans-6f"/>
     <use x="520.019531" xlink:href="#DejaVuSans-6e"/>
     <use x="583.398438" xlink:href="#DejaVuSans-20"/>
     <use x="615.185547" xlink:href="#DejaVuSans-6f"/>
     <use x="676.367188" xlink:href="#DejaVuSans-66"/>
     <use x="711.572266" xlink:href="#DejaVuSans-20"/>
     <use x="743.359375" xlink:href="#DejaVuSans-44"/>
     <use x="820.361328" xlink:href="#DejaVuSans-65"/>
     <use x="881.884766" xlink:href="#DejaVuSans-62"/>
     <use x="945.361328" xlink:href="#DejaVuSans-69"/>
     <use x="973.144531" xlink:href="#DejaVuSans-74"/>
     <use x="1012.353516" xlink:href="#DejaVuSans-73"/>
    </g>
   </g>
   <g id="legend_1">
    <g id="line2d_30">
     <path d="M 442.104687 47.658438 
L 462.104687 47.658438 
" style="fill:none;stroke:#1f77b4;stroke-linecap:round;stroke-width:1.5;"/>
    </g>
    <g id="line2d_31"/>
    <g id="text_17">
     <!-- Amount -->
     <defs>
      <path d="M 34.1875 63.1875 
L 20.796875 26.90625 
L 47.609375 26.90625 
z
M 28.609375 72.90625 
L 39.796875 72.90625 
L 67.578125 0 
L 57.328125 0 
L 50.6875 18.703125 
L 17.828125 18.703125 
L 11.1875 0 
L 0.78125 0 
z
" id="DejaVuSans-41"/>
      <path d="M 52 44.1875 
Q 55.375 50.25 60.0625 53.125 
Q 64.75 56 71.09375 56 
Q 79.640625 56 84.28125 50.015625 
Q 88.921875 44.046875 88.921875 33.015625 
L 88.921875 0 
L 79.890625 0 
L 79.890625 32.71875 
Q 79.890625 40.578125 77.09375 44.375 
Q 74.3125 48.1875 68.609375 48.1875 
Q 61.625 48.1875 57.5625 43.546875 
Q 53.515625 38.921875 53.515625 30.90625 
L 53.515625 0 
L 44.484375 0 
L 44.484375 32.71875 
Q 44.484375 40.625 41.703125 44.40625 
Q 38.921875 48.1875 33.109375 48.1875 
Q 26.21875 48.1875 22.15625 43.53125 
Q 18.109375 38.875 18.109375 30.90625 
L 18.109375 0 
L 9.078125 0 
L 9.078125 54.6875 
L 18.109375 54.6875 
L 18.109375 46.1875 
Q 21.1875 51.21875 25.484375 53.609375 
Q 29.78125 56 35.6875 56 
Q 41.65625 56 45.828125 52.96875 
Q 50 49.953125 52 44.1875 
z
" id="DejaVuSans-6d"/>
     </defs>
     <g style="fill:#262626;" transform="translate(470.104687 51.158438)scale(0.1 -0.1)">
      <use xlink:href="#DejaVuSans-41"/>
      <use x="68.408203" xlink:href="#DejaVuSans-6d"/>
      <use x="165.820312" xlink:href="#DejaVuSans-6f"/>
      <use x="227.001953" xlink:href="#DejaVuSans-75"/>
      <use x="290.380859" xlink:href="#DejaVuSans-6e"/>
      <use x="353.759766" xlink:href="#DejaVuSans-74"/>
     </g>
    </g>
   </g>
  </g>
 </g>
 <defs>
  <clipPath id="p4d3a49ca56">
   <rect height="221.76" width="446.4" x="72" y="34.56"/>
  </clipPath>
 </defs>
</svg>
