<?xml version="1.0" encoding="utf-8" standalone="no"?>
<!DOCTYPE svg PUBLIC "-//W3C//DTD SVG 1.1//EN"
  "http://www.w3.org/Graphics/SVG/1.1/DTD/svg11.dtd">
<!-- Created with matplotlib (http://matplotlib.org/) -->
<svg height="424pt" version="1.1" viewBox="0 0 436 424" width="436pt" xmlns="http://www.w3.org/2000/svg" xmlns:xlink="http://www.w3.org/1999/xlink">
 <defs>
  <style type="text/css">
*{stroke-linecap:butt;stroke-linejoin:round;}
  </style>
 </defs>
 <g id="figure_1">
  <g id="patch_1">
   <path d="M 0 424.173125 
L 436.112187 424.173125 
L 436.112187 0 
L 0 0 
z
" style="fill:#ffffff;"/>
  </g>
  <g id="axes_1">
   <g id="patch_2">
    <path d="M 52.123438 389.83875 
L 350.955894 389.83875 
L 350.955894 86.366638 
L 52.123438 86.366638 
z
" style="fill:#eaeaf2;"/>
   </g>
   <g id="matplotlib.axis_1">
    <g id="xtick_1">
     <g id="line2d_1">
      <path clip-path="url(#peda192ad05)" d="M 61.186124 389.83875 
L 61.186124 86.366638 
" style="fill:none;stroke:#ffffff;stroke-linecap:round;stroke-width:0.8;"/>
     </g>
     <g id="line2d_2"/>
     <g id="text_1">
      <!-- −200 -->
      <defs>
       <path d="M 10.59375 35.5 
L 73.1875 35.5 
L 73.1875 27.203125 
L 10.59375 27.203125 
z
" id="DejaVuSans-2212"/>
       <path d="M 19.1875 8.296875 
L 53.609375 8.296875 
L 53.609375 0 
L 7.328125 0 
L 7.328125 8.296875 
Q 12.9375 14.109375 22.625 23.890625 
Q 32.328125 33.6875 34.8125 36.53125 
Q 39.546875 41.84375 41.421875 45.53125 
Q 43.3125 49.21875 43.3125 52.78125 
Q 43.3125 58.59375 39.234375 62.25 
Q 35.15625 65.921875 28.609375 65.921875 
Q 23.96875 65.921875 18.8125 64.3125 
Q 13.671875 62.703125 7.8125 59.421875 
L 7.8125 69.390625 
Q 13.765625 71.78125 18.9375 73 
Q 24.125 74.21875 28.421875 74.21875 
Q 39.75 74.21875 46.484375 68.546875 
Q 53.21875 62.890625 53.21875 53.421875 
Q 53.21875 48.921875 51.53125 44.890625 
Q 49.859375 40.875 45.40625 35.40625 
Q 44.1875 33.984375 37.640625 27.21875 
Q 31.109375 20.453125 19.1875 8.296875 
z
" id="DejaVuSans-32"/>
       <path d="M 31.78125 66.40625 
Q 24.171875 66.40625 20.328125 58.90625 
Q 16.5 51.421875 16.5 36.375 
Q 16.5 21.390625 20.328125 13.890625 
Q 24.171875 6.390625 31.78125 6.390625 
Q 39.453125 6.390625 43.28125 13.890625 
Q 47.125 21.390625 47.125 36.375 
Q 47.125 51.421875 43.28125 58.90625 
Q 39.453125 66.40625 31.78125 66.40625 
z
M 31.78125 74.21875 
Q 44.046875 74.21875 50.515625 64.515625 
Q 56.984375 54.828125 56.984375 36.375 
Q 56.984375 17.96875 50.515625 8.265625 
Q 44.046875 -1.421875 31.78125 -1.421875 
Q 19.53125 -1.421875 13.0625 8.265625 
Q 6.59375 17.96875 6.59375 36.375 
Q 6.59375 54.828125 13.0625 64.515625 
Q 19.53125 74.21875 31.78125 74.21875 
z
" id="DejaVuSans-30"/>
      </defs>
      <g style="fill:#262626;" transform="translate(47.45253 400.937187)scale(0.1 -0.1)">
       <use xlink:href="#DejaVuSans-2212"/>
       <use x="83.789062" xlink:href="#DejaVuSans-32"/>
       <use x="147.412109" xlink:href="#DejaVuSans-30"/>
       <use x="211.035156" xlink:href="#DejaVuSans-30"/>
      </g>
     </g>
    </g>
    <g id="xtick_2">
     <g id="line2d_3">
      <path clip-path="url(#peda192ad05)" d="M 107.164861 389.83875 
L 107.164861 86.366638 
" style="fill:none;stroke:#ffffff;stroke-linecap:round;stroke-width:0.8;"/>
     </g>
     <g id="line2d_4"/>
     <g id="text_2">
      <!-- 0 -->
      <g style="fill:#262626;" transform="translate(103.983611 400.937187)scale(0.1 -0.1)">
       <use xlink:href="#DejaVuSans-30"/>
      </g>
     </g>
    </g>
    <g id="xtick_3">
     <g id="line2d_5">
      <path clip-path="url(#peda192ad05)" d="M 153.143597 389.83875 
L 153.143597 86.366638 
" style="fill:none;stroke:#ffffff;stroke-linecap:round;stroke-width:0.8;"/>
     </g>
     <g id="line2d_6"/>
     <g id="text_3">
      <!-- 200 -->
      <g style="fill:#262626;" transform="translate(143.599847 400.937187)scale(0.1 -0.1)">
       <use xlink:href="#DejaVuSans-32"/>
       <use x="63.623047" xlink:href="#DejaVuSans-30"/>
       <use x="127.246094" xlink:href="#DejaVuSans-30"/>
      </g>
     </g>
    </g>
    <g id="xtick_4">
     <g id="line2d_7">
      <path clip-path="url(#peda192ad05)" d="M 199.122334 389.83875 
L 199.122334 86.366638 
" style="fill:none;stroke:#ffffff;stroke-linecap:round;stroke-width:0.8;"/>
     </g>
     <g id="line2d_8"/>
     <g id="text_4">
      <!-- 400 -->
      <defs>
       <path d="M 37.796875 64.3125 
L 12.890625 25.390625 
L 37.796875 25.390625 
z
M 35.203125 72.90625 
L 47.609375 72.90625 
L 47.609375 25.390625 
L 58.015625 25.390625 
L 58.015625 17.1875 
L 47.609375 17.1875 
L 47.609375 0 
L 37.796875 0 
L 37.796875 17.1875 
L 4.890625 17.1875 
L 4.890625 26.703125 
z
" id="DejaVuSans-34"/>
      </defs>
      <g style="fill:#262626;" transform="translate(189.578584 400.937187)scale(0.1 -0.1)">
       <use xlink:href="#DejaVuSans-34"/>
       <use x="63.623047" xlink:href="#DejaVuSans-30"/>
       <use x="127.246094" xlink:href="#DejaVuSans-30"/>
      </g>
     </g>
    </g>
    <g id="xtick_5">
     <g id="line2d_9">
      <path clip-path="url(#peda192ad05)" d="M 245.10107 389.83875 
L 245.10107 86.366638 
" style="fill:none;stroke:#ffffff;stroke-linecap:round;stroke-width:0.8;"/>
     </g>
     <g id="line2d_10"/>
     <g id="text_5">
      <!-- 600 -->
      <defs>
       <path d="M 33.015625 40.375 
Q 26.375 40.375 22.484375 35.828125 
Q 18.609375 31.296875 18.609375 23.390625 
Q 18.609375 15.53125 22.484375 10.953125 
Q 26.375 6.390625 33.015625 6.390625 
Q 39.65625 6.390625 43.53125 10.953125 
Q 47.40625 15.53125 47.40625 23.390625 
Q 47.40625 31.296875 43.53125 35.828125 
Q 39.65625 40.375 33.015625 40.375 
z
M 52.59375 71.296875 
L 52.59375 62.3125 
Q 48.875 64.0625 45.09375 64.984375 
Q 41.3125 65.921875 37.59375 65.921875 
Q 27.828125 65.921875 22.671875 59.328125 
Q 17.53125 52.734375 16.796875 39.40625 
Q 19.671875 43.65625 24.015625 45.921875 
Q 28.375 48.1875 33.59375 48.1875 
Q 44.578125 48.1875 50.953125 41.515625 
Q 57.328125 34.859375 57.328125 23.390625 
Q 57.328125 12.15625 50.6875 5.359375 
Q 44.046875 -1.421875 33.015625 -1.421875 
Q 20.359375 -1.421875 13.671875 8.265625 
Q 6.984375 17.96875 6.984375 36.375 
Q 6.984375 53.65625 15.1875 63.9375 
Q 23.390625 74.21875 37.203125 74.21875 
Q 40.921875 74.21875 44.703125 73.484375 
Q 48.484375 72.75 52.59375 71.296875 
z
" id="DejaVuSans-36"/>
      </defs>
      <g style="fill:#262626;" transform="translate(235.55732 400.937187)scale(0.1 -0.1)">
       <use xlink:href="#DejaVuSans-36"/>
       <use x="63.623047" xlink:href="#DejaVuSans-30"/>
       <use x="127.246094" xlink:href="#DejaVuSans-30"/>
      </g>
     </g>
    </g>
    <g id="xtick_6">
     <g id="line2d_11">
      <path clip-path="url(#peda192ad05)" d="M 291.079807 389.83875 
L 291.079807 86.366638 
" style="fill:none;stroke:#ffffff;stroke-linecap:round;stroke-width:0.8;"/>
     </g>
     <g id="line2d_12"/>
     <g id="text_6">
      <!-- 800 -->
      <defs>
       <path d="M 31.78125 34.625 
Q 24.75 34.625 20.71875 30.859375 
Q 16.703125 27.09375 16.703125 20.515625 
Q 16.703125 13.921875 20.71875 10.15625 
Q 24.75 6.390625 31.78125 6.390625 
Q 38.8125 6.390625 42.859375 10.171875 
Q 46.921875 13.96875 46.921875 20.515625 
Q 46.921875 27.09375 42.890625 30.859375 
Q 38.875 34.625 31.78125 34.625 
z
M 21.921875 38.8125 
Q 15.578125 40.375 12.03125 44.71875 
Q 8.5 49.078125 8.5 55.328125 
Q 8.5 64.0625 14.71875 69.140625 
Q 20.953125 74.21875 31.78125 74.21875 
Q 42.671875 74.21875 48.875 69.140625 
Q 55.078125 64.0625 55.078125 55.328125 
Q 55.078125 49.078125 51.53125 44.71875 
Q 48 40.375 41.703125 38.8125 
Q 48.828125 37.15625 52.796875 32.3125 
Q 56.78125 27.484375 56.78125 20.515625 
Q 56.78125 9.90625 50.3125 4.234375 
Q 43.84375 -1.421875 31.78125 -1.421875 
Q 19.734375 -1.421875 13.25 4.234375 
Q 6.78125 9.90625 6.78125 20.515625 
Q 6.78125 27.484375 10.78125 32.3125 
Q 14.796875 37.15625 21.921875 38.8125 
z
M 18.3125 54.390625 
Q 18.3125 48.734375 21.84375 45.5625 
Q 25.390625 42.390625 31.78125 42.390625 
Q 38.140625 42.390625 41.71875 45.5625 
Q 45.3125 48.734375 45.3125 54.390625 
Q 45.3125 60.0625 41.71875 63.234375 
Q 38.140625 66.40625 31.78125 66.40625 
Q 25.390625 66.40625 21.84375 63.234375 
Q 18.3125 60.0625 18.3125 54.390625 
z
" id="DejaVuSans-38"/>
      </defs>
      <g style="fill:#262626;" transform="translate(281.536057 400.937187)scale(0.1 -0.1)">
       <use xlink:href="#DejaVuSans-38"/>
       <use x="63.623047" xlink:href="#DejaVuSans-30"/>
       <use x="127.246094" xlink:href="#DejaVuSans-30"/>
      </g>
     </g>
    </g>
    <g id="xtick_7">
     <g id="line2d_13">
      <path clip-path="url(#peda192ad05)" d="M 337.058544 389.83875 
L 337.058544 86.366638 
" style="fill:none;stroke:#ffffff;stroke-linecap:round;stroke-width:0.8;"/>
     </g>
     <g id="line2d_14"/>
     <g id="text_7">
      <!-- 1000 -->
      <defs>
       <path d="M 12.40625 8.296875 
L 28.515625 8.296875 
L 28.515625 63.921875 
L 10.984375 60.40625 
L 10.984375 69.390625 
L 28.421875 72.90625 
L 38.28125 72.90625 
L 38.28125 8.296875 
L 54.390625 8.296875 
L 54.390625 0 
L 12.40625 0 
z
" id="DejaVuSans-31"/>
      </defs>
      <g style="fill:#262626;" transform="translate(324.333544 400.937187)scale(0.1 -0.1)">
       <use xlink:href="#DejaVuSans-31"/>
       <use x="63.623047" xlink:href="#DejaVuSans-30"/>
       <use x="127.246094" xlink:href="#DejaVuSans-30"/>
       <use x="190.869141" xlink:href="#DejaVuSans-30"/>
      </g>
     </g>
    </g>
    <g id="text_8">
     <!-- Sum_Credit -->
     <defs>
      <path d="M 53.515625 70.515625 
L 53.515625 60.890625 
Q 47.90625 63.578125 42.921875 64.890625 
Q 37.9375 66.21875 33.296875 66.21875 
Q 25.25 66.21875 20.875 63.09375 
Q 16.5 59.96875 16.5 54.203125 
Q 16.5 49.359375 19.40625 46.890625 
Q 22.3125 44.4375 30.421875 42.921875 
L 36.375 41.703125 
Q 47.40625 39.59375 52.65625 34.296875 
Q 57.90625 29 57.90625 20.125 
Q 57.90625 9.515625 50.796875 4.046875 
Q 43.703125 -1.421875 29.984375 -1.421875 
Q 24.8125 -1.421875 18.96875 -0.25 
Q 13.140625 0.921875 6.890625 3.21875 
L 6.890625 13.375 
Q 12.890625 10.015625 18.65625 8.296875 
Q 24.421875 6.59375 29.984375 6.59375 
Q 38.421875 6.59375 43.015625 9.90625 
Q 47.609375 13.234375 47.609375 19.390625 
Q 47.609375 24.75 44.3125 27.78125 
Q 41.015625 30.8125 33.5 32.328125 
L 27.484375 33.5 
Q 16.453125 35.6875 11.515625 40.375 
Q 6.59375 45.0625 6.59375 53.421875 
Q 6.59375 63.09375 13.40625 68.65625 
Q 20.21875 74.21875 32.171875 74.21875 
Q 37.3125 74.21875 42.625 73.28125 
Q 47.953125 72.359375 53.515625 70.515625 
z
" id="DejaVuSans-53"/>
      <path d="M 8.5 21.578125 
L 8.5 54.6875 
L 17.484375 54.6875 
L 17.484375 21.921875 
Q 17.484375 14.15625 20.5 10.265625 
Q 23.53125 6.390625 29.59375 6.390625 
Q 36.859375 6.390625 41.078125 11.03125 
Q 45.3125 15.671875 45.3125 23.6875 
L 45.3125 54.6875 
L 54.296875 54.6875 
L 54.296875 0 
L 45.3125 0 
L 45.3125 8.40625 
Q 42.046875 3.421875 37.71875 1 
Q 33.40625 -1.421875 27.6875 -1.421875 
Q 18.265625 -1.421875 13.375 4.4375 
Q 8.5 10.296875 8.5 21.578125 
z
M 31.109375 56 
z
" id="DejaVuSans-75"/>
      <path d="M 52 44.1875 
Q 55.375 50.25 60.0625 53.125 
Q 64.75 56 71.09375 56 
Q 79.640625 56 84.28125 50.015625 
Q 88.921875 44.046875 88.921875 33.015625 
L 88.921875 0 
L 79.890625 0 
L 79.890625 32.71875 
Q 79.890625 40.578125 77.09375 44.375 
Q 74.3125 48.1875 68.609375 48.1875 
Q 61.625 48.1875 57.5625 43.546875 
Q 53.515625 38.921875 53.515625 30.90625 
L 53.515625 0 
L 44.484375 0 
L 44.484375 32.71875 
Q 44.484375 40.625 41.703125 44.40625 
Q 38.921875 48.1875 33.109375 48.1875 
Q 26.21875 48.1875 22.15625 43.53125 
Q 18.109375 38.875 18.109375 30.90625 
L 18.109375 0 
L 9.078125 0 
L 9.078125 54.6875 
L 18.109375 54.6875 
L 18.109375 46.1875 
Q 21.1875 51.21875 25.484375 53.609375 
Q 29.78125 56 35.6875 56 
Q 41.65625 56 45.828125 52.96875 
Q 50 49.953125 52 44.1875 
z
" id="DejaVuSans-6d"/>
      <path d="M 50.984375 -16.609375 
L 50.984375 -23.578125 
L -0.984375 -23.578125 
L -0.984375 -16.609375 
z
" id="DejaVuSans-5f"/>
      <path d="M 64.40625 67.28125 
L 64.40625 56.890625 
Q 59.421875 61.53125 53.78125 63.8125 
Q 48.140625 66.109375 41.796875 66.109375 
Q 29.296875 66.109375 22.65625 58.46875 
Q 16.015625 50.828125 16.015625 36.375 
Q 16.015625 21.96875 22.65625 14.328125 
Q 29.296875 6.6875 41.796875 6.6875 
Q 48.140625 6.6875 53.78125 8.984375 
Q 59.421875 11.28125 64.40625 15.921875 
L 64.40625 5.609375 
Q 59.234375 2.09375 53.4375 0.328125 
Q 47.65625 -1.421875 41.21875 -1.421875 
Q 24.65625 -1.421875 15.125 8.703125 
Q 5.609375 18.84375 5.609375 36.375 
Q 5.609375 53.953125 15.125 64.078125 
Q 24.65625 74.21875 41.21875 74.21875 
Q 47.75 74.21875 53.53125 72.484375 
Q 59.328125 70.75 64.40625 67.28125 
z
" id="DejaVuSans-43"/>
      <path d="M 41.109375 46.296875 
Q 39.59375 47.171875 37.8125 47.578125 
Q 36.03125 48 33.890625 48 
Q 26.265625 48 22.1875 43.046875 
Q 18.109375 38.09375 18.109375 28.8125 
L 18.109375 0 
L 9.078125 0 
L 9.078125 54.6875 
L 18.109375 54.6875 
L 18.109375 46.1875 
Q 20.953125 51.171875 25.484375 53.578125 
Q 30.03125 56 36.53125 56 
Q 37.453125 56 38.578125 55.875 
Q 39.703125 55.765625 41.0625 55.515625 
z
" id="DejaVuSans-72"/>
      <path d="M 56.203125 29.59375 
L 56.203125 25.203125 
L 14.890625 25.203125 
Q 15.484375 15.921875 20.484375 11.0625 
Q 25.484375 6.203125 34.421875 6.203125 
Q 39.59375 6.203125 44.453125 7.46875 
Q 49.3125 8.734375 54.109375 11.28125 
L 54.109375 2.78125 
Q 49.265625 0.734375 44.1875 -0.34375 
Q 39.109375 -1.421875 33.890625 -1.421875 
Q 20.796875 -1.421875 13.15625 6.1875 
Q 5.515625 13.8125 5.515625 26.8125 
Q 5.515625 40.234375 12.765625 48.109375 
Q 20.015625 56 32.328125 56 
Q 43.359375 56 49.78125 48.890625 
Q 56.203125 41.796875 56.203125 29.59375 
z
M 47.21875 32.234375 
Q 47.125 39.59375 43.09375 43.984375 
Q 39.0625 48.390625 32.421875 48.390625 
Q 24.90625 48.390625 20.390625 44.140625 
Q 15.875 39.890625 15.1875 32.171875 
z
" id="DejaVuSans-65"/>
      <path d="M 45.40625 46.390625 
L 45.40625 75.984375 
L 54.390625 75.984375 
L 54.390625 0 
L 45.40625 0 
L 45.40625 8.203125 
Q 42.578125 3.328125 38.25 0.953125 
Q 33.9375 -1.421875 27.875 -1.421875 
Q 17.96875 -1.421875 11.734375 6.484375 
Q 5.515625 14.40625 5.515625 27.296875 
Q 5.515625 40.1875 11.734375 48.09375 
Q 17.96875 56 27.875 56 
Q 33.9375 56 38.25 53.625 
Q 42.578125 51.265625 45.40625 46.390625 
z
M 14.796875 27.296875 
Q 14.796875 17.390625 18.875 11.75 
Q 22.953125 6.109375 30.078125 6.109375 
Q 37.203125 6.109375 41.296875 11.75 
Q 45.40625 17.390625 45.40625 27.296875 
Q 45.40625 37.203125 41.296875 42.84375 
Q 37.203125 48.484375 30.078125 48.484375 
Q 22.953125 48.484375 18.875 42.84375 
Q 14.796875 37.203125 14.796875 27.296875 
z
" id="DejaVuSans-64"/>
      <path d="M 9.421875 54.6875 
L 18.40625 54.6875 
L 18.40625 0 
L 9.421875 0 
z
M 9.421875 75.984375 
L 18.40625 75.984375 
L 18.40625 64.59375 
L 9.421875 64.59375 
z
" id="DejaVuSans-69"/>
      <path d="M 18.3125 70.21875 
L 18.3125 54.6875 
L 36.8125 54.6875 
L 36.8125 47.703125 
L 18.3125 47.703125 
L 18.3125 18.015625 
Q 18.3125 11.328125 20.140625 9.421875 
Q 21.96875 7.515625 27.59375 7.515625 
L 36.8125 7.515625 
L 36.8125 0 
L 27.59375 0 
Q 17.1875 0 13.234375 3.875 
Q 9.28125 7.765625 9.28125 18.015625 
L 9.28125 47.703125 
L 2.6875 47.703125 
L 2.6875 54.6875 
L 9.28125 54.6875 
L 9.28125 70.21875 
z
" id="DejaVuSans-74"/>
     </defs>
     <g style="fill:#262626;" transform="translate(172.681072 414.615312)scale(0.1 -0.1)">
      <use xlink:href="#DejaVuSans-53"/>
      <use x="63.476562" xlink:href="#DejaVuSans-75"/>
      <use x="126.855469" xlink:href="#DejaVuSans-6d"/>
      <use x="224.267578" xlink:href="#DejaVuSans-5f"/>
      <use x="274.267578" xlink:href="#DejaVuSans-43"/>
      <use x="344.091797" xlink:href="#DejaVuSans-72"/>
      <use x="385.173828" xlink:href="#DejaVuSans-65"/>
      <use x="446.697266" xlink:href="#DejaVuSans-64"/>
      <use x="510.173828" xlink:href="#DejaVuSans-69"/>
      <use x="537.957031" xlink:href="#DejaVuSans-74"/>
     </g>
    </g>
   </g>
   <g id="matplotlib.axis_2">
    <g id="ytick_1">
     <g id="line2d_15">
      <path clip-path="url(#peda192ad05)" d="M 52.123438 370.670932 
L 350.955894 370.670932 
" style="fill:none;stroke:#ffffff;stroke-linecap:round;stroke-width:0.8;"/>
     </g>
     <g id="line2d_16"/>
     <g id="text_9">
      <!-- −100 -->
      <g style="fill:#262626;" transform="translate(21.15625 374.470151)scale(0.1 -0.1)">
       <use xlink:href="#DejaVuSans-2212"/>
       <use x="83.789062" xlink:href="#DejaVuSans-31"/>
       <use x="147.412109" xlink:href="#DejaVuSans-30"/>
       <use x="211.035156" xlink:href="#DejaVuSans-30"/>
      </g>
     </g>
    </g>
    <g id="ytick_2">
     <g id="line2d_17">
      <path clip-path="url(#peda192ad05)" d="M 52.123438 332.955928 
L 350.955894 332.955928 
" style="fill:none;stroke:#ffffff;stroke-linecap:round;stroke-width:0.8;"/>
     </g>
     <g id="line2d_18"/>
     <g id="text_10">
      <!-- 0 -->
      <g style="fill:#262626;" transform="translate(42.260937 336.755147)scale(0.1 -0.1)">
       <use xlink:href="#DejaVuSans-30"/>
      </g>
     </g>
    </g>
    <g id="ytick_3">
     <g id="line2d_19">
      <path clip-path="url(#peda192ad05)" d="M 52.123438 295.240925 
L 350.955894 295.240925 
" style="fill:none;stroke:#ffffff;stroke-linecap:round;stroke-width:0.8;"/>
     </g>
     <g id="line2d_20"/>
     <g id="text_11">
      <!-- 100 -->
      <g style="fill:#262626;" transform="translate(29.535937 299.040143)scale(0.1 -0.1)">
       <use xlink:href="#DejaVuSans-31"/>
       <use x="63.623047" xlink:href="#DejaVuSans-30"/>
       <use x="127.246094" xlink:href="#DejaVuSans-30"/>
      </g>
     </g>
    </g>
    <g id="ytick_4">
     <g id="line2d_21">
      <path clip-path="url(#peda192ad05)" d="M 52.123438 257.525921 
L 350.955894 257.525921 
" style="fill:none;stroke:#ffffff;stroke-linecap:round;stroke-width:0.8;"/>
     </g>
     <g id="line2d_22"/>
     <g id="text_12">
      <!-- 200 -->
      <g style="fill:#262626;" transform="translate(29.535937 261.32514)scale(0.1 -0.1)">
       <use xlink:href="#DejaVuSans-32"/>
       <use x="63.623047" xlink:href="#DejaVuSans-30"/>
       <use x="127.246094" xlink:href="#DejaVuSans-30"/>
      </g>
     </g>
    </g>
    <g id="ytick_5">
     <g id="line2d_23">
      <path clip-path="url(#peda192ad05)" d="M 52.123438 219.810917 
L 350.955894 219.810917 
" style="fill:none;stroke:#ffffff;stroke-linecap:round;stroke-width:0.8;"/>
     </g>
     <g id="line2d_24"/>
     <g id="text_13">
      <!-- 300 -->
      <defs>
       <path d="M 40.578125 39.3125 
Q 47.65625 37.796875 51.625 33 
Q 55.609375 28.21875 55.609375 21.1875 
Q 55.609375 10.40625 48.1875 4.484375 
Q 40.765625 -1.421875 27.09375 -1.421875 
Q 22.515625 -1.421875 17.65625 -0.515625 
Q 12.796875 0.390625 7.625 2.203125 
L 7.625 11.71875 
Q 11.71875 9.328125 16.59375 8.109375 
Q 21.484375 6.890625 26.8125 6.890625 
Q 36.078125 6.890625 40.9375 10.546875 
Q 45.796875 14.203125 45.796875 21.1875 
Q 45.796875 27.640625 41.28125 31.265625 
Q 36.765625 34.90625 28.71875 34.90625 
L 20.21875 34.90625 
L 20.21875 43.015625 
L 29.109375 43.015625 
Q 36.375 43.015625 40.234375 45.921875 
Q 44.09375 48.828125 44.09375 54.296875 
Q 44.09375 59.90625 40.109375 62.90625 
Q 36.140625 65.921875 28.71875 65.921875 
Q 24.65625 65.921875 20.015625 65.03125 
Q 15.375 64.15625 9.8125 62.3125 
L 9.8125 71.09375 
Q 15.4375 72.65625 20.34375 73.4375 
Q 25.25 74.21875 29.59375 74.21875 
Q 40.828125 74.21875 47.359375 69.109375 
Q 53.90625 64.015625 53.90625 55.328125 
Q 53.90625 49.265625 50.4375 45.09375 
Q 46.96875 40.921875 40.578125 39.3125 
z
" id="DejaVuSans-33"/>
      </defs>
      <g style="fill:#262626;" transform="translate(29.535937 223.610136)scale(0.1 -0.1)">
       <use xlink:href="#DejaVuSans-33"/>
       <use x="63.623047" xlink:href="#DejaVuSans-30"/>
       <use x="127.246094" xlink:href="#DejaVuSans-30"/>
      </g>
     </g>
    </g>
    <g id="ytick_6">
     <g id="line2d_25">
      <path clip-path="url(#peda192ad05)" d="M 52.123438 182.095913 
L 350.955894 182.095913 
" style="fill:none;stroke:#ffffff;stroke-linecap:round;stroke-width:0.8;"/>
     </g>
     <g id="line2d_26"/>
     <g id="text_14">
      <!-- 400 -->
      <g style="fill:#262626;" transform="translate(29.535937 185.895132)scale(0.1 -0.1)">
       <use xlink:href="#DejaVuSans-34"/>
       <use x="63.623047" xlink:href="#DejaVuSans-30"/>
       <use x="127.246094" xlink:href="#DejaVuSans-30"/>
      </g>
     </g>
    </g>
    <g id="ytick_7">
     <g id="line2d_27">
      <path clip-path="url(#peda192ad05)" d="M 52.123438 144.38091 
L 350.955894 144.38091 
" style="fill:none;stroke:#ffffff;stroke-linecap:round;stroke-width:0.8;"/>
     </g>
     <g id="line2d_28"/>
     <g id="text_15">
      <!-- 500 -->
      <defs>
       <path d="M 10.796875 72.90625 
L 49.515625 72.90625 
L 49.515625 64.59375 
L 19.828125 64.59375 
L 19.828125 46.734375 
Q 21.96875 47.46875 24.109375 47.828125 
Q 26.265625 48.1875 28.421875 48.1875 
Q 40.625 48.1875 47.75 41.5 
Q 54.890625 34.8125 54.890625 23.390625 
Q 54.890625 11.625 47.5625 5.09375 
Q 40.234375 -1.421875 26.90625 -1.421875 
Q 22.3125 -1.421875 17.546875 -0.640625 
Q 12.796875 0.140625 7.71875 1.703125 
L 7.71875 11.625 
Q 12.109375 9.234375 16.796875 8.0625 
Q 21.484375 6.890625 26.703125 6.890625 
Q 35.15625 6.890625 40.078125 11.328125 
Q 45.015625 15.765625 45.015625 23.390625 
Q 45.015625 31 40.078125 35.4375 
Q 35.15625 39.890625 26.703125 39.890625 
Q 22.75 39.890625 18.8125 39.015625 
Q 14.890625 38.140625 10.796875 36.28125 
z
" id="DejaVuSans-35"/>
      </defs>
      <g style="fill:#262626;" transform="translate(29.535937 148.180129)scale(0.1 -0.1)">
       <use xlink:href="#DejaVuSans-35"/>
       <use x="63.623047" xlink:href="#DejaVuSans-30"/>
       <use x="127.246094" xlink:href="#DejaVuSans-30"/>
      </g>
     </g>
    </g>
    <g id="ytick_8">
     <g id="line2d_29">
      <path clip-path="url(#peda192ad05)" d="M 52.123438 106.665906 
L 350.955894 106.665906 
" style="fill:none;stroke:#ffffff;stroke-linecap:round;stroke-width:0.8;"/>
     </g>
     <g id="line2d_30"/>
     <g id="text_16">
      <!-- 600 -->
      <g style="fill:#262626;" transform="translate(29.535937 110.465125)scale(0.1 -0.1)">
       <use xlink:href="#DejaVuSans-36"/>
       <use x="63.623047" xlink:href="#DejaVuSans-30"/>
       <use x="127.246094" xlink:href="#DejaVuSans-30"/>
      </g>
     </g>
    </g>
    <g id="text_17">
     <!-- Sum_Debit -->
     <defs>
      <path d="M 19.671875 64.796875 
L 19.671875 8.109375 
L 31.59375 8.109375 
Q 46.6875 8.109375 53.6875 14.9375 
Q 60.6875 21.78125 60.6875 36.53125 
Q 60.6875 51.171875 53.6875 57.984375 
Q 46.6875 64.796875 31.59375 64.796875 
z
M 9.8125 72.90625 
L 30.078125 72.90625 
Q 51.265625 72.90625 61.171875 64.09375 
Q 71.09375 55.28125 71.09375 36.53125 
Q 71.09375 17.671875 61.125 8.828125 
Q 51.171875 0 30.078125 0 
L 9.8125 0 
z
" id="DejaVuSans-44"/>
      <path d="M 48.6875 27.296875 
Q 48.6875 37.203125 44.609375 42.84375 
Q 40.53125 48.484375 33.40625 48.484375 
Q 26.265625 48.484375 22.1875 42.84375 
Q 18.109375 37.203125 18.109375 27.296875 
Q 18.109375 17.390625 22.1875 11.75 
Q 26.265625 6.109375 33.40625 6.109375 
Q 40.53125 6.109375 44.609375 11.75 
Q 48.6875 17.390625 48.6875 27.296875 
z
M 18.109375 46.390625 
Q 20.953125 51.265625 25.265625 53.625 
Q 29.59375 56 35.59375 56 
Q 45.5625 56 51.78125 48.09375 
Q 58.015625 40.1875 58.015625 27.296875 
Q 58.015625 14.40625 51.78125 6.484375 
Q 45.5625 -1.421875 35.59375 -1.421875 
Q 29.59375 -1.421875 25.265625 0.953125 
Q 20.953125 3.328125 18.109375 8.203125 
L 18.109375 0 
L 9.078125 0 
L 9.078125 75.984375 
L 18.109375 75.984375 
z
" id="DejaVuSans-62"/>
     </defs>
     <g style="fill:#262626;" transform="translate(14.798437 265.265975)rotate(-90)scale(0.1 -0.1)">
      <use xlink:href="#DejaVuSans-53"/>
      <use x="63.476562" xlink:href="#DejaVuSans-75"/>
      <use x="126.855469" xlink:href="#DejaVuSans-6d"/>
      <use x="224.267578" xlink:href="#DejaVuSans-5f"/>
      <use x="274.267578" xlink:href="#DejaVuSans-44"/>
      <use x="351.269531" xlink:href="#DejaVuSans-65"/>
      <use x="412.792969" xlink:href="#DejaVuSans-62"/>
      <use x="476.269531" xlink:href="#DejaVuSans-69"/>
      <use x="504.052734" xlink:href="#DejaVuSans-74"/>
     </g>
    </g>
   </g>
   <g id="PathCollection_1">
    <path clip-path="url(#peda192ad05)" d="M 55.141947 389.83875 
L 58.160457 389.83875 
L 61.178966 389.83875 
L 64.197476 389.83875 
L 67.215986 389.83875 
L 70.234495 389.83875 
L 73.253005 389.83875 
L 76.271515 389.83875 
L 79.290024 389.83875 
L 82.308534 389.83875 
L 85.327044 389.83875 
L 88.345553 389.83875 
L 91.364063 389.83875 
L 94.382573 389.83875 
L 97.401082 389.83875 
L 100.419592 389.83875 
L 103.438102 389.83875 
L 106.456611 389.83875 
L 109.475121 389.83875 
L 112.493631 389.83875 
L 115.51214 389.83875 
L 118.53065 389.83875 
L 121.54916 389.83875 
L 124.567669 389.83875 
L 127.586179 389.83875 
L 130.604689 389.83875 
L 133.623198 389.83875 
L 136.641708 389.83875 
L 139.660218 389.83875 
L 142.678727 389.83875 
L 145.697237 389.83875 
L 148.715747 389.83875 
L 151.734256 389.83875 
L 154.752766 389.83875 
L 157.771276 389.83875 
L 160.789785 389.83875 
L 163.808295 389.83875 
L 166.826805 389.83875 
L 169.845314 389.83875 
L 172.863824 389.83875 
L 175.882334 389.83875 
L 178.900843 389.83875 
L 181.919353 389.83875 
L 184.937863 389.83875 
L 187.956372 389.83875 
L 190.974882 389.83875 
L 193.993392 389.83875 
L 197.011901 389.83875 
L 200.030411 389.83875 
L 203.048921 389.83875 
L 206.06743 389.83875 
L 209.08594 389.83875 
L 212.10445 389.83875 
L 215.122959 389.83875 
L 218.141469 389.83875 
L 221.159979 389.83875 
L 224.178488 389.83875 
L 227.196998 389.83875 
L 230.215508 389.83875 
L 233.234017 389.83875 
L 236.252527 389.83875 
L 239.271037 389.83875 
L 242.289546 389.83875 
L 245.308056 389.83875 
L 248.326566 389.83875 
L 251.345075 389.83875 
L 254.363585 389.83875 
L 257.382095 389.83875 
L 260.400604 389.83875 
L 263.419114 389.83875 
L 266.437624 389.83875 
L 269.456133 389.83875 
L 272.474643 389.83875 
L 275.493153 389.83875 
L 278.511662 389.83875 
L 281.530172 389.83875 
L 284.548682 389.83875 
L 287.567191 389.83875 
L 290.585701 389.83875 
L 293.604211 389.83875 
L 296.62272 389.83875 
L 299.64123 389.83875 
L 302.65974 389.83875 
L 305.678249 389.83875 
L 308.696759 389.83875 
L 311.715269 389.83875 
L 314.733778 389.83875 
L 317.752288 389.83875 
L 320.770798 389.83875 
L 323.789307 389.83875 
L 326.807817 389.83875 
L 329.826327 389.83875 
L 332.844836 389.83875 
L 335.863346 389.83875 
L 338.881856 389.83875 
L 341.900365 389.83875 
L 344.918875 389.83875 
L 347.937385 389.83875 
L 350.955894 389.83875 
L 350.955894 386.773375 
L 350.955894 383.708 
L 350.955894 380.642625 
L 350.955894 377.577251 
L 350.955894 374.511876 
L 350.955894 371.446501 
L 350.955894 368.381126 
L 350.955894 365.315751 
L 350.955894 362.250376 
L 350.955894 359.185001 
L 350.955894 356.119626 
L 350.955894 353.054252 
L 350.955894 349.988877 
L 350.955894 346.923502 
L 350.955894 343.858127 
L 350.955894 340.792752 
L 350.955894 337.727377 
L 350.955894 334.662002 
L 350.955894 331.596627 
L 350.955894 328.531253 
L 350.955894 325.465878 
L 350.955894 322.400503 
L 350.955894 319.335128 
L 350.955894 316.269753 
L 350.955894 313.204378 
L 350.955894 310.139003 
L 350.955894 307.073629 
L 350.955894 304.008254 
L 350.955894 300.942879 
L 350.955894 297.877504 
L 350.955894 294.812129 
L 350.955894 291.746754 
L 350.955894 288.681379 
L 350.955894 285.616004 
L 350.955894 282.55063 
L 350.955894 279.485255 
L 350.955894 276.41988 
L 350.955894 273.354505 
L 350.955894 270.28913 
L 350.955894 267.223755 
L 350.955894 264.15838 
L 350.955894 261.093005 
L 350.955894 258.027631 
L 350.955894 254.962256 
L 350.955894 251.896881 
L 350.955894 248.831506 
L 350.955894 245.766131 
L 350.955894 242.700756 
L 350.955894 239.635381 
L 350.955894 236.570007 
L 350.955894 233.504632 
L 350.955894 230.439257 
L 350.955894 227.373882 
L 350.955894 224.308507 
L 350.955894 221.243132 
L 350.955894 218.177757 
L 350.955894 215.112382 
L 350.955894 212.047008 
L 350.955894 208.981633 
L 350.955894 205.916258 
L 350.955894 202.850883 
L 350.955894 199.785508 
L 350.955894 196.720133 
L 350.955894 193.654758 
L 350.955894 190.589383 
L 350.955894 187.524009 
L 350.955894 184.458634 
L 350.955894 181.393259 
L 350.955894 178.327884 
L 350.955894 175.262509 
L 350.955894 172.197134 
L 350.955894 169.131759 
L 350.955894 166.066385 
L 350.955894 163.00101 
L 350.955894 159.935635 
L 350.955894 156.87026 
L 350.955894 153.804885 
L 350.955894 150.73951 
L 350.955894 147.674135 
L 350.955894 144.60876 
L 350.955894 141.543386 
L 350.955894 138.478011 
L 350.955894 135.412636 
L 350.955894 132.347261 
L 350.955894 129.281886 
L 350.955894 126.216511 
L 350.955894 123.151136 
L 350.955894 120.085761 
L 350.955894 117.020387 
L 350.955894 113.955012 
L 350.955894 110.889637 
L 350.955894 107.824262 
L 350.955894 104.758887 
L 350.955894 101.693512 
L 350.955894 98.628137 
L 350.955894 95.562763 
L 350.955894 92.497388 
L 350.955894 89.432013 
L 350.955894 86.366638 
L 347.937385 86.366638 
L 344.918875 86.366638 
L 341.900365 86.366638 
L 338.881856 86.366638 
L 335.863346 86.366638 
L 332.844836 86.366638 
L 329.826327 86.366638 
L 326.807817 86.366638 
L 323.789307 86.366638 
L 320.770798 86.366638 
L 317.752288 86.366638 
L 314.733778 86.366638 
L 311.715269 86.366638 
L 308.696759 86.366638 
L 305.678249 86.366638 
L 302.65974 86.366638 
L 299.64123 86.366638 
L 296.62272 86.366638 
L 293.604211 86.366638 
L 290.585701 86.366638 
L 287.567191 86.366638 
L 284.548682 86.366638 
L 281.530172 86.366638 
L 278.511662 86.366638 
L 275.493153 86.366638 
L 272.474643 86.366638 
L 269.456133 86.366638 
L 266.437624 86.366638 
L 263.419114 86.366638 
L 260.400604 86.366638 
L 257.382095 86.366638 
L 254.363585 86.366638 
L 251.345075 86.366638 
L 248.326566 86.366638 
L 245.308056 86.366638 
L 242.289546 86.366638 
L 239.271037 86.366638 
L 236.252527 86.366638 
L 233.234017 86.366638 
L 230.215508 86.366638 
L 227.196998 86.366638 
L 224.178488 86.366638 
L 221.159979 86.366638 
L 218.141469 86.366638 
L 215.122959 86.366638 
L 212.10445 86.366638 
L 209.08594 86.366638 
L 206.06743 86.366638 
L 203.048921 86.366638 
L 200.030411 86.366638 
L 197.011901 86.366638 
L 193.993392 86.366638 
L 190.974882 86.366638 
L 187.956372 86.366638 
L 184.937863 86.366638 
L 181.919353 86.366638 
L 178.900843 86.366638 
L 175.882334 86.366638 
L 172.863824 86.366638 
L 169.845314 86.366638 
L 166.826805 86.366638 
L 163.808295 86.366638 
L 160.789785 86.366638 
L 157.771276 86.366638 
L 154.752766 86.366638 
L 151.734256 86.366638 
L 148.715747 86.366638 
L 145.697237 86.366638 
L 142.678727 86.366638 
L 139.660218 86.366638 
L 136.641708 86.366638 
L 133.623198 86.366638 
L 130.604689 86.366638 
L 127.586179 86.366638 
L 124.567669 86.366638 
L 121.54916 86.366638 
L 118.53065 86.366638 
L 115.51214 86.366638 
L 112.493631 86.366638 
L 109.475121 86.366638 
L 106.456611 86.366638 
L 103.438102 86.366638 
L 100.419592 86.366638 
L 97.401082 86.366638 
L 94.382573 86.366638 
L 91.364063 86.366638 
L 88.345553 86.366638 
L 85.327044 86.366638 
L 82.308534 86.366638 
L 79.290024 86.366638 
L 76.271515 86.366638 
L 73.253005 86.366638 
L 70.234495 86.366638 
L 67.215986 86.366638 
L 64.197476 86.366638 
L 61.178966 86.366638 
L 58.160457 86.366638 
L 55.141947 86.366638 
L 52.123438 86.366638 
L 52.123438 89.432013 
L 52.123438 92.497388 
L 52.123438 95.562763 
L 52.123438 98.628137 
L 52.123438 101.693512 
L 52.123438 104.758887 
L 52.123438 107.824262 
L 52.123438 110.889637 
L 52.123438 113.955012 
L 52.123438 117.020387 
L 52.123438 120.085761 
L 52.123438 123.151136 
L 52.123438 126.216511 
L 52.123438 129.281886 
L 52.123438 132.347261 
L 52.123438 135.412636 
L 52.123438 138.478011 
L 52.123438 141.543386 
L 52.123438 144.60876 
L 52.123438 147.674135 
L 52.123438 150.73951 
L 52.123438 153.804885 
L 52.123438 156.87026 
L 52.123438 159.935635 
L 52.123438 163.00101 
L 52.123438 166.066385 
L 52.123438 169.131759 
L 52.123438 172.197134 
L 52.123438 175.262509 
L 52.123438 178.327884 
L 52.123438 181.393259 
L 52.123438 184.458634 
L 52.123438 187.524009 
L 52.123438 190.589383 
L 52.123438 193.654758 
L 52.123438 196.720133 
L 52.123438 199.785508 
L 52.123438 202.850883 
L 52.123438 205.916258 
L 52.123438 208.981633 
L 52.123438 212.047008 
L 52.123438 215.112382 
L 52.123438 218.177757 
L 52.123438 221.243132 
L 52.123438 224.308507 
L 52.123438 227.373882 
L 52.123438 230.439257 
L 52.123438 233.504632 
L 52.123438 236.570007 
L 52.123438 239.635381 
L 52.123438 242.700756 
L 52.123438 245.766131 
L 52.123438 248.831506 
L 52.123438 251.896881 
L 52.123438 254.962256 
L 52.123438 258.027631 
L 52.123438 261.093005 
L 52.123438 264.15838 
L 52.123438 267.223755 
L 52.123438 270.28913 
L 52.123438 273.354505 
L 52.123438 276.41988 
L 52.123438 279.485255 
L 52.123438 282.55063 
L 52.123438 285.616004 
L 52.123438 288.681379 
L 52.123438 291.746754 
L 52.123438 294.812129 
L 52.123438 297.877504 
L 52.123438 300.942879 
L 52.123438 304.008254 
L 52.123438 307.073629 
L 52.123438 310.139003 
L 52.123438 313.204378 
L 52.123438 316.269753 
L 52.123438 319.335128 
L 52.123438 322.400503 
L 52.123438 325.465878 
L 52.123438 328.531253 
L 52.123438 331.596627 
L 52.123438 334.662002 
L 52.123438 337.727377 
L 52.123438 340.792752 
L 52.123438 343.858127 
L 52.123438 346.923502 
L 52.123438 349.988877 
L 52.123438 353.054252 
L 52.123438 356.119626 
L 52.123438 359.185001 
L 52.123438 362.250376 
L 52.123438 365.315751 
L 52.123438 368.381126 
L 52.123438 371.446501 
L 52.123438 374.511876 
L 52.123438 377.577251 
L 52.123438 380.642625 
L 52.123438 383.708 
L 52.123438 386.773375 
L 52.123438 389.83875 
z
M 91.044705 368.381126 
L 88.345553 367.987785 
L 85.327044 367.172016 
L 82.308534 365.824657 
L 81.473102 365.315751 
L 79.290024 363.86994 
L 77.494792 362.250376 
L 76.271515 360.894175 
L 74.973731 359.185001 
L 73.316556 356.119626 
L 73.253005 355.958175 
L 72.112177 353.054252 
L 71.36726 349.988877 
L 70.968133 346.923502 
L 70.836993 343.858127 
L 70.927473 340.792752 
L 71.216213 337.727377 
L 71.698188 334.662002 
L 72.384622 331.596627 
L 73.253005 328.685924 
L 73.290293 328.531253 
L 74.171678 325.465878 
L 75.279777 322.400503 
L 76.271515 320.137893 
L 76.571134 319.335128 
L 77.863289 316.269753 
L 79.290024 313.497798 
L 79.423722 313.204378 
L 80.921297 310.139003 
L 82.308534 307.73858 
L 82.660695 307.073629 
L 84.397236 304.008254 
L 85.327044 302.522035 
L 86.259526 300.942879 
L 88.26793 297.877504 
L 88.345553 297.759222 
L 90.215584 294.812129 
L 91.364063 293.136838 
L 92.307576 291.746754 
L 94.382573 288.849192 
L 94.504297 288.681379 
L 96.681549 285.616004 
L 97.401082 284.62601 
L 98.952967 282.55063 
L 100.419592 280.623461 
L 101.329169 279.485255 
L 103.438102 276.855558 
L 103.812254 276.41988 
L 106.417825 273.354505 
L 106.456611 273.307922 
L 109.17744 270.28913 
L 109.475121 269.95744 
L 112.174255 267.223755 
L 112.493631 266.896508 
L 115.472568 264.15838 
L 115.51214 264.121327 
L 118.53065 261.557519 
L 119.152521 261.093005 
L 121.54916 259.226251 
L 123.294523 258.027631 
L 124.567669 257.111181 
L 127.586179 255.161153 
L 127.921644 254.962256 
L 130.604689 253.264825 
L 132.955553 251.896881 
L 133.623198 251.480118 
L 136.641708 249.692739 
L 138.163008 248.831506 
L 139.660218 247.906777 
L 142.678727 246.098714 
L 143.257981 245.766131 
L 145.697237 244.2065 
L 148.098515 242.700756 
L 148.715747 242.264253 
L 151.734256 240.239883 
L 152.707272 239.635381 
L 154.752766 238.154179 
L 157.134602 236.570007 
L 157.771276 236.068914 
L 160.789785 234.110455 
L 162.125645 233.504632 
L 163.808295 232.562723 
L 166.826805 232.130715 
L 168.444694 233.504632 
L 169.69721 236.570007 
L 169.845314 238.112801 
L 169.924564 239.635381 
L 169.849579 242.700756 
L 169.845314 242.748522 
L 169.566055 245.766131 
L 169.155412 248.831506 
L 168.639205 251.896881 
L 168.029234 254.962256 
L 167.339126 258.027631 
L 166.826805 260.107275 
L 166.602189 261.093005 
L 165.907104 264.15838 
L 165.291355 267.223755 
L 164.819009 270.28913 
L 164.584797 273.354505 
L 164.729121 276.41988 
L 165.458481 279.485255 
L 166.826805 282.125881 
L 167.202233 282.55063 
L 169.845314 284.346588 
L 172.863824 285.177715 
L 175.882334 285.343105 
L 178.900843 285.214749 
L 181.919353 285.030054 
L 184.937863 284.960111 
L 187.956372 285.160237 
L 190.111106 285.616004 
L 190.974882 285.810854 
L 193.993392 287.208031 
L 195.781392 288.681379 
L 197.011901 290.004672 
L 198.133888 291.746754 
L 199.506064 294.812129 
L 200.030411 296.579494 
L 200.359929 297.877504 
L 200.878115 300.942879 
L 201.154306 304.008254 
L 201.222917 307.073629 
L 201.094836 310.139003 
L 200.761706 313.204378 
L 200.197062 316.269753 
L 200.030411 316.895476 
L 199.434161 319.335128 
L 198.412339 322.400503 
L 197.039941 325.465878 
L 197.011901 325.517163 
L 195.437447 328.531253 
L 193.993392 330.72481 
L 193.427185 331.596627 
L 191.037029 334.662002 
L 190.974882 334.732142 
L 188.240682 337.727377 
L 187.956372 338.005039 
L 184.937863 340.770227 
L 184.911263 340.792752 
L 181.919353 343.160423 
L 180.919576 343.858127 
L 178.900843 345.223002 
L 175.9416 346.923502 
L 175.882334 346.957681 
L 172.863824 348.492658 
L 169.845314 349.733436 
L 169.095562 349.988877 
L 166.826805 350.802551 
L 163.808295 351.661186 
L 160.789785 352.326727 
L 157.771276 352.838922 
L 156.157452 353.054252 
L 154.752766 353.259349 
L 151.734256 353.630818 
L 148.715747 353.98965 
L 145.697237 354.397039 
L 142.678727 354.903148 
L 139.660218 355.533444 
L 137.346534 356.119626 
L 136.641708 356.313251 
L 133.623198 357.320249 
L 130.604689 358.384409 
L 128.398351 359.185001 
L 127.586179 359.50933 
L 124.567669 360.774122 
L 121.54916 361.931424 
L 120.691481 362.250376 
L 118.53065 363.164233 
L 115.51214 364.306986 
L 112.493631 365.272333 
L 112.342838 365.315751 
L 109.475121 366.301802 
L 106.456611 367.132835 
L 103.438102 367.770125 
L 100.419592 368.224753 
L 98.685209 368.381126 
L 97.401082 368.529835 
L 94.382573 368.624811 
L 91.364063 368.433853 
z
" style="fill:#eef5fc;"/>
   </g>
   <g id="PathCollection_2">
    <path clip-path="url(#peda192ad05)" d="M 91.364063 368.433853 
L 94.382573 368.624811 
L 97.401082 368.529835 
L 98.685209 368.381126 
L 100.419592 368.224753 
L 103.438102 367.770125 
L 106.456611 367.132835 
L 109.475121 366.301802 
L 112.342838 365.315751 
L 112.493631 365.272333 
L 115.51214 364.306986 
L 118.53065 363.164233 
L 120.691481 362.250376 
L 121.54916 361.931424 
L 124.567669 360.774122 
L 127.586179 359.50933 
L 128.398351 359.185001 
L 130.604689 358.384409 
L 133.623198 357.320249 
L 136.641708 356.313251 
L 137.346534 356.119626 
L 139.660218 355.533444 
L 142.678727 354.903148 
L 145.697237 354.397039 
L 148.715747 353.98965 
L 151.734256 353.630818 
L 154.752766 353.259349 
L 156.157452 353.054252 
L 157.771276 352.838922 
L 160.789785 352.326727 
L 163.808295 351.661186 
L 166.826805 350.802551 
L 169.095562 349.988877 
L 169.845314 349.733436 
L 172.863824 348.492658 
L 175.882334 346.957681 
L 175.9416 346.923502 
L 178.900843 345.223002 
L 180.919576 343.858127 
L 181.919353 343.160423 
L 184.911263 340.792752 
L 184.937863 340.770227 
L 187.956372 338.005039 
L 188.240682 337.727377 
L 190.974882 334.732142 
L 191.037029 334.662002 
L 193.427185 331.596627 
L 193.993392 330.72481 
L 195.437447 328.531253 
L 197.011901 325.517163 
L 197.039941 325.465878 
L 198.412339 322.400503 
L 199.434161 319.335128 
L 200.030411 316.895476 
L 200.197062 316.269753 
L 200.761706 313.204378 
L 201.094836 310.139003 
L 201.222917 307.073629 
L 201.154306 304.008254 
L 200.878115 300.942879 
L 200.359929 297.877504 
L 200.030411 296.579494 
L 199.506064 294.812129 
L 198.133888 291.746754 
L 197.011901 290.004672 
L 195.781392 288.681379 
L 193.993392 287.208031 
L 190.974882 285.810854 
L 190.111106 285.616004 
L 187.956372 285.160237 
L 184.937863 284.960111 
L 181.919353 285.030054 
L 178.900843 285.214749 
L 175.882334 285.343105 
L 172.863824 285.177715 
L 169.845314 284.346588 
L 167.202233 282.55063 
L 166.826805 282.125881 
L 165.458481 279.485255 
L 164.729121 276.41988 
L 164.584797 273.354505 
L 164.819009 270.28913 
L 165.291355 267.223755 
L 165.907104 264.15838 
L 166.602189 261.093005 
L 166.826805 260.107275 
L 167.339126 258.027631 
L 168.029234 254.962256 
L 168.639205 251.896881 
L 169.155412 248.831506 
L 169.566055 245.766131 
L 169.845314 242.748522 
L 169.849579 242.700756 
L 169.924564 239.635381 
L 169.845314 238.112801 
L 169.69721 236.570007 
L 168.444694 233.504632 
L 166.826805 232.130715 
L 163.808295 232.562723 
L 162.125645 233.504632 
L 160.789785 234.110455 
L 157.771276 236.068914 
L 157.134602 236.570007 
L 154.752766 238.154179 
L 152.707272 239.635381 
L 151.734256 240.239883 
L 148.715747 242.264253 
L 148.098515 242.700756 
L 145.697237 244.2065 
L 143.257981 245.766131 
L 142.678727 246.098714 
L 139.660218 247.906777 
L 138.163008 248.831506 
L 136.641708 249.692739 
L 133.623198 251.480118 
L 132.955553 251.896881 
L 130.604689 253.264825 
L 127.921644 254.962256 
L 127.586179 255.161153 
L 124.567669 257.111181 
L 123.294523 258.027631 
L 121.54916 259.226251 
L 119.152521 261.093005 
L 118.53065 261.557519 
L 115.51214 264.121327 
L 115.472568 264.15838 
L 112.493631 266.896508 
L 112.174255 267.223755 
L 109.475121 269.95744 
L 109.17744 270.28913 
L 106.456611 273.307922 
L 106.417825 273.354505 
L 103.812254 276.41988 
L 103.438102 276.855558 
L 101.329169 279.485255 
L 100.419592 280.623461 
L 98.952967 282.55063 
L 97.401082 284.62601 
L 96.681549 285.616004 
L 94.504297 288.681379 
L 94.382573 288.849192 
L 92.307576 291.746754 
L 91.364063 293.136838 
L 90.215584 294.812129 
L 88.345553 297.759222 
L 88.26793 297.877504 
L 86.259526 300.942879 
L 85.327044 302.522035 
L 84.397236 304.008254 
L 82.660695 307.073629 
L 82.308534 307.73858 
L 80.921297 310.139003 
L 79.423722 313.204378 
L 79.290024 313.497798 
L 77.863289 316.269753 
L 76.571134 319.335128 
L 76.271515 320.137893 
L 75.279777 322.400503 
L 74.171678 325.465878 
L 73.290293 328.531253 
L 73.253005 328.685924 
L 72.384622 331.596627 
L 71.698188 334.662002 
L 71.216213 337.727377 
L 70.927473 340.792752 
L 70.836993 343.858127 
L 70.968133 346.923502 
L 71.36726 349.988877 
L 72.112177 353.054252 
L 73.253005 355.958175 
L 73.316556 356.119626 
L 74.973731 359.185001 
L 76.271515 360.894175 
L 77.494792 362.250376 
L 79.290024 363.86994 
L 81.473102 365.315751 
L 82.308534 365.824657 
L 85.327044 367.172016 
L 88.345553 367.987785 
L 91.044705 368.381126 
z
M 87.397734 359.185001 
L 85.327044 357.969773 
L 83.168274 356.119626 
L 82.308534 355.184874 
L 80.732634 353.054252 
L 79.290024 350.133924 
L 79.224241 349.988877 
L 78.241975 346.923502 
L 77.714212 343.858127 
L 77.5334 340.792752 
L 77.635129 337.727377 
L 77.985867 334.662002 
L 78.576045 331.596627 
L 79.290024 328.974616 
L 79.392572 328.531253 
L 80.28576 325.465878 
L 81.415457 322.400503 
L 82.308534 320.394445 
L 82.730917 319.335128 
L 84.137024 316.269753 
L 85.327044 314.071837 
L 85.764772 313.204378 
L 87.478766 310.139003 
L 88.345553 308.749457 
L 89.355029 307.073629 
L 91.364063 304.099909 
L 91.425647 304.008254 
L 93.541113 300.942879 
L 94.382573 299.802595 
L 95.835279 297.877504 
L 97.401082 295.891968 
L 98.294664 294.812129 
L 100.419592 292.290237 
L 100.912157 291.746754 
L 103.438102 288.943477 
L 103.698214 288.681379 
L 106.456611 285.824885 
L 106.683838 285.616004 
L 109.475121 282.928211 
L 109.926357 282.55063 
L 112.493631 280.262974 
L 113.517897 279.485255 
L 115.51214 277.850274 
L 117.595125 276.41988 
L 118.53065 275.718405 
L 121.54916 273.824362 
L 122.469403 273.354505 
L 124.567669 272.151947 
L 127.586179 270.778376 
L 129.007602 270.28913 
L 130.604689 269.65589 
L 133.623198 268.83816 
L 136.641708 268.42407 
L 139.660218 268.552808 
L 142.678727 269.563493 
L 143.669763 270.28913 
L 145.697237 272.263521 
L 146.379623 273.354505 
L 147.869779 276.41988 
L 148.715747 278.661267 
L 148.978869 279.485255 
L 149.9465 282.55063 
L 150.901032 285.616004 
L 151.734256 288.149197 
L 151.923966 288.681379 
L 153.199662 291.746754 
L 154.639684 294.812129 
L 154.752766 295.027986 
L 156.717301 297.877504 
L 157.771276 299.246301 
L 159.723459 300.942879 
L 160.789785 301.800357 
L 163.808295 303.239515 
L 166.826805 303.995001 
L 166.930902 304.008254 
L 169.845314 304.396932 
L 172.863824 304.696181 
L 175.882334 305.147035 
L 178.900843 306.055534 
L 180.704518 307.073629 
L 181.919353 308.078144 
L 183.42916 310.139003 
L 184.524609 313.204378 
L 184.747658 316.269753 
L 184.326638 319.335128 
L 183.37437 322.400503 
L 181.929536 325.465878 
L 181.919353 325.481812 
L 179.813847 328.531253 
L 178.900843 329.592788 
L 176.975545 331.596627 
L 175.882334 332.554589 
L 173.101537 334.662002 
L 172.863824 334.820485 
L 169.845314 336.502903 
L 167.153754 337.727377 
L 166.826805 337.863103 
L 163.808295 338.855544 
L 160.789785 339.641754 
L 157.771276 340.294664 
L 155.30521 340.792752 
L 154.752766 340.896197 
L 151.734256 341.525637 
L 148.715747 342.291328 
L 145.697237 343.235441 
L 144.092086 343.858127 
L 142.678727 344.37234 
L 139.660218 345.6881 
L 137.034998 346.923502 
L 136.641708 347.102698 
L 133.623198 348.662448 
L 131.01632 349.988877 
L 130.604689 350.19842 
L 127.586179 351.814604 
L 125.081605 353.054252 
L 124.567669 353.31803 
L 121.54916 354.843492 
L 118.635512 356.119626 
L 118.53065 356.169182 
L 115.51214 357.514523 
L 112.493631 358.626217 
L 110.667767 359.185001 
L 109.475121 359.600836 
L 106.456611 360.445386 
L 103.438102 361.048865 
L 100.419592 361.412886 
L 97.401082 361.52022 
L 94.382573 361.328494 
L 91.364063 360.760203 
L 88.345553 359.686179 
z
" style="fill:#d9e8f5;"/>
   </g>
   <g id="PathCollection_3">
    <path clip-path="url(#peda192ad05)" d="M 88.345553 359.686179 
L 91.364063 360.760203 
L 94.382573 361.328494 
L 97.401082 361.52022 
L 100.419592 361.412886 
L 103.438102 361.048865 
L 106.456611 360.445386 
L 109.475121 359.600836 
L 110.667767 359.185001 
L 112.493631 358.626217 
L 115.51214 357.514523 
L 118.53065 356.169182 
L 118.635512 356.119626 
L 121.54916 354.843492 
L 124.567669 353.31803 
L 125.081605 353.054252 
L 127.586179 351.814604 
L 130.604689 350.19842 
L 131.01632 349.988877 
L 133.623198 348.662448 
L 136.641708 347.102698 
L 137.034998 346.923502 
L 139.660218 345.6881 
L 142.678727 344.37234 
L 144.092086 343.858127 
L 145.697237 343.235441 
L 148.715747 342.291328 
L 151.734256 341.525637 
L 154.752766 340.896197 
L 155.30521 340.792752 
L 157.771276 340.294664 
L 160.789785 339.641754 
L 163.808295 338.855544 
L 166.826805 337.863103 
L 167.153754 337.727377 
L 169.845314 336.502903 
L 172.863824 334.820485 
L 173.101537 334.662002 
L 175.882334 332.554589 
L 176.975545 331.596627 
L 178.900843 329.592788 
L 179.813847 328.531253 
L 181.919353 325.481812 
L 181.929536 325.465878 
L 183.37437 322.400503 
L 184.326638 319.335128 
L 184.747658 316.269753 
L 184.524609 313.204378 
L 183.42916 310.139003 
L 181.919353 308.078144 
L 180.704518 307.073629 
L 178.900843 306.055534 
L 175.882334 305.147035 
L 172.863824 304.696181 
L 169.845314 304.396932 
L 166.930902 304.008254 
L 166.826805 303.995001 
L 163.808295 303.239515 
L 160.789785 301.800357 
L 159.723459 300.942879 
L 157.771276 299.246301 
L 156.717301 297.877504 
L 154.752766 295.027986 
L 154.639684 294.812129 
L 153.199662 291.746754 
L 151.923966 288.681379 
L 151.734256 288.149197 
L 150.901032 285.616004 
L 149.9465 282.55063 
L 148.978869 279.485255 
L 148.715747 278.661267 
L 147.869779 276.41988 
L 146.379623 273.354505 
L 145.697237 272.263521 
L 143.669763 270.28913 
L 142.678727 269.563493 
L 139.660218 268.552808 
L 136.641708 268.42407 
L 133.623198 268.83816 
L 130.604689 269.65589 
L 129.007602 270.28913 
L 127.586179 270.778376 
L 124.567669 272.151947 
L 122.469403 273.354505 
L 121.54916 273.824362 
L 118.53065 275.718405 
L 117.595125 276.41988 
L 115.51214 277.850274 
L 113.517897 279.485255 
L 112.493631 280.262974 
L 109.926357 282.55063 
L 109.475121 282.928211 
L 106.683838 285.616004 
L 106.456611 285.824885 
L 103.698214 288.681379 
L 103.438102 288.943477 
L 100.912157 291.746754 
L 100.419592 292.290237 
L 98.294664 294.812129 
L 97.401082 295.891968 
L 95.835279 297.877504 
L 94.382573 299.802595 
L 93.541113 300.942879 
L 91.425647 304.008254 
L 91.364063 304.099909 
L 89.355029 307.073629 
L 88.345553 308.749457 
L 87.478766 310.139003 
L 85.764772 313.204378 
L 85.327044 314.071837 
L 84.137024 316.269753 
L 82.730917 319.335128 
L 82.308534 320.394445 
L 81.415457 322.400503 
L 80.28576 325.465878 
L 79.392572 328.531253 
L 79.290024 328.974616 
L 78.576045 331.596627 
L 77.985867 334.662002 
L 77.635129 337.727377 
L 77.5334 340.792752 
L 77.714212 343.858127 
L 78.241975 346.923502 
L 79.224241 349.988877 
L 79.290024 350.133924 
L 80.732634 353.054252 
L 82.308534 355.184874 
L 83.168274 356.119626 
L 85.327044 357.969773 
L 87.397734 359.185001 
z
M 95.524084 356.119626 
L 94.382573 355.921346 
L 91.364063 354.869693 
L 88.408024 353.054252 
L 88.345553 353.007659 
L 85.500862 349.988877 
L 85.327044 349.724318 
L 83.801185 346.923502 
L 82.821053 343.858127 
L 82.345423 340.792752 
L 82.308534 339.727256 
L 82.235954 337.727377 
L 82.308534 336.73967 
L 82.439011 334.662002 
L 82.889348 331.596627 
L 83.580863 328.531253 
L 84.521777 325.465878 
L 85.327044 323.395594 
L 85.680176 322.400503 
L 86.974374 319.335128 
L 88.345553 316.654645 
L 88.532943 316.269753 
L 90.191719 313.204378 
L 91.364063 311.315632 
L 92.086374 310.139003 
L 94.169624 307.073629 
L 94.382573 306.775265 
L 96.402424 304.008254 
L 97.401082 302.726354 
L 98.864445 300.942879 
L 100.419592 299.112504 
L 101.55664 297.877504 
L 103.438102 295.847392 
L 104.506885 294.812129 
L 106.456611 292.886143 
L 107.776346 291.746754 
L 109.475121 290.214803 
L 111.472007 288.681379 
L 112.493631 287.84406 
L 115.51214 285.779953 
L 115.807039 285.616004 
L 118.53065 283.937204 
L 121.448997 282.55063 
L 121.54916 282.496971 
L 124.567669 281.311978 
L 127.586179 280.566254 
L 130.604689 280.301335 
L 133.623198 280.651269 
L 136.641708 281.895084 
L 137.509739 282.55063 
L 139.660218 284.451319 
L 140.551849 285.616004 
L 142.523633 288.681379 
L 142.678727 288.952778 
L 144.078799 291.746754 
L 145.424097 294.812129 
L 145.697237 295.478634 
L 146.72132 297.877504 
L 147.946737 300.942879 
L 148.715747 303.032784 
L 149.147448 304.008254 
L 150.407384 307.073629 
L 151.531667 310.139003 
L 151.734256 310.821944 
L 152.74717 313.204378 
L 153.735916 316.269753 
L 154.276515 319.335128 
L 154.131495 322.400503 
L 152.925885 325.465878 
L 151.734256 326.875788 
L 150.599755 328.531253 
L 148.715747 330.247747 
L 147.469011 331.596627 
L 145.697237 332.992222 
L 143.843486 334.662002 
L 142.678727 335.49798 
L 139.858127 337.727377 
L 139.660218 337.860197 
L 136.641708 340.116625 
L 135.773053 340.792752 
L 133.623198 342.292978 
L 131.367793 343.858127 
L 130.604689 344.353236 
L 127.586179 346.314873 
L 126.611329 346.923502 
L 124.567669 348.170888 
L 121.54916 349.837523 
L 121.256599 349.988877 
L 118.53065 351.431682 
L 115.51214 352.781905 
L 114.809259 353.054252 
L 112.493631 354.016505 
L 109.475121 355.020787 
L 106.456611 355.771386 
L 104.350135 356.119626 
L 103.438102 356.291661 
L 100.419592 356.545949 
L 97.401082 356.443113 
z
" style="fill:#c6dbef;"/>
   </g>
   <g id="PathCollection_4">
    <path clip-path="url(#peda192ad05)" d="M 97.401082 356.443113 
L 100.419592 356.545949 
L 103.438102 356.291661 
L 104.350135 356.119626 
L 106.456611 355.771386 
L 109.475121 355.020787 
L 112.493631 354.016505 
L 114.809259 353.054252 
L 115.51214 352.781905 
L 118.53065 351.431682 
L 121.256599 349.988877 
L 121.54916 349.837523 
L 124.567669 348.170888 
L 126.611329 346.923502 
L 127.586179 346.314873 
L 130.604689 344.353236 
L 131.367793 343.858127 
L 133.623198 342.292978 
L 135.773053 340.792752 
L 136.641708 340.116625 
L 139.660218 337.860197 
L 139.858127 337.727377 
L 142.678727 335.49798 
L 143.843486 334.662002 
L 145.697237 332.992222 
L 147.469011 331.596627 
L 148.715747 330.247747 
L 150.599755 328.531253 
L 151.734256 326.875788 
L 152.925885 325.465878 
L 154.131495 322.400503 
L 154.276515 319.335128 
L 153.735916 316.269753 
L 152.74717 313.204378 
L 151.734256 310.821944 
L 151.531667 310.139003 
L 150.407384 307.073629 
L 149.147448 304.008254 
L 148.715747 303.032784 
L 147.946737 300.942879 
L 146.72132 297.877504 
L 145.697237 295.478634 
L 145.424097 294.812129 
L 144.078799 291.746754 
L 142.678727 288.952778 
L 142.523633 288.681379 
L 140.551849 285.616004 
L 139.660218 284.451319 
L 137.509739 282.55063 
L 136.641708 281.895084 
L 133.623198 280.651269 
L 130.604689 280.301335 
L 127.586179 280.566254 
L 124.567669 281.311978 
L 121.54916 282.496971 
L 121.448997 282.55063 
L 118.53065 283.937204 
L 115.807039 285.616004 
L 115.51214 285.779953 
L 112.493631 287.84406 
L 111.472007 288.681379 
L 109.475121 290.214803 
L 107.776346 291.746754 
L 106.456611 292.886143 
L 104.506885 294.812129 
L 103.438102 295.847392 
L 101.55664 297.877504 
L 100.419592 299.112504 
L 98.864445 300.942879 
L 97.401082 302.726354 
L 96.402424 304.008254 
L 94.382573 306.775265 
L 94.169624 307.073629 
L 92.086374 310.139003 
L 91.364063 311.315632 
L 90.191719 313.204378 
L 88.532943 316.269753 
L 88.345553 316.654645 
L 86.974374 319.335128 
L 85.680176 322.400503 
L 85.327044 323.395594 
L 84.521777 325.465878 
L 83.580863 328.531253 
L 82.889348 331.596627 
L 82.439011 334.662002 
L 82.308534 336.73967 
L 82.235954 337.727377 
L 82.308534 339.727256 
L 82.345423 340.792752 
L 82.821053 343.858127 
L 83.801185 346.923502 
L 85.327044 349.724318 
L 85.500862 349.988877 
L 88.345553 353.007659 
L 88.408024 353.054252 
L 91.364063 354.869693 
L 94.382573 355.921346 
L 95.524084 356.119626 
z
M 92.320564 349.988877 
L 91.364063 349.321586 
L 89.075228 346.923502 
L 88.345553 345.780541 
L 87.359687 343.858127 
L 86.444449 340.792752 
L 86.065184 337.727377 
L 86.089205 334.662002 
L 86.44031 331.596627 
L 87.081684 328.531253 
L 88.006399 325.465878 
L 88.345553 324.586863 
L 89.137215 322.400503 
L 90.501233 319.335128 
L 91.364063 317.694201 
L 92.097726 316.269753 
L 93.910999 313.204378 
L 94.382573 312.480862 
L 95.936994 310.139003 
L 97.401082 308.138656 
L 98.221759 307.073629 
L 100.419592 304.395556 
L 100.765425 304.008254 
L 103.438102 301.10385 
L 103.604626 300.942879 
L 106.456611 298.183641 
L 106.824156 297.877504 
L 109.475121 295.602783 
L 110.581423 294.812129 
L 112.493631 293.366154 
L 115.154212 291.746754 
L 115.51214 291.510555 
L 118.53065 289.950377 
L 121.54916 288.835889 
L 122.272638 288.681379 
L 124.567669 288.116477 
L 127.586179 287.940953 
L 130.604689 288.460018 
L 131.119053 288.681379 
L 133.623198 289.878813 
L 135.781963 291.746754 
L 136.641708 292.627234 
L 138.223893 294.812129 
L 139.660218 297.262025 
L 139.978098 297.877504 
L 141.357603 300.942879 
L 142.451615 304.008254 
L 142.678727 304.814594 
L 143.368093 307.073629 
L 144.058295 310.139003 
L 144.475487 313.204378 
L 144.582788 316.269753 
L 144.320044 319.335128 
L 143.591137 322.400503 
L 142.678727 324.544304 
L 142.336216 325.465878 
L 140.636515 328.531253 
L 139.660218 329.795588 
L 138.390027 331.596627 
L 136.641708 333.50826 
L 135.642035 334.662002 
L 133.623198 336.583084 
L 132.440741 337.727377 
L 130.604689 339.272225 
L 128.758795 340.792752 
L 127.586179 341.671741 
L 124.567669 343.808083 
L 124.493528 343.858127 
L 121.54916 345.760458 
L 119.491743 346.923502 
L 118.53065 347.464247 
L 115.51214 348.962473 
L 112.989206 349.988877 
L 112.493631 350.199606 
L 109.475121 351.235328 
L 106.456611 351.968884 
L 103.438102 352.391268 
L 100.419592 352.462219 
L 97.401082 352.097545 
L 94.382573 351.147559 
z
" style="fill:#a6cee4;"/>
   </g>
   <g id="PathCollection_5">
    <path clip-path="url(#peda192ad05)" d="M 94.382573 351.147559 
L 97.401082 352.097545 
L 100.419592 352.462219 
L 103.438102 352.391268 
L 106.456611 351.968884 
L 109.475121 351.235328 
L 112.493631 350.199606 
L 112.989206 349.988877 
L 115.51214 348.962473 
L 118.53065 347.464247 
L 119.491743 346.923502 
L 121.54916 345.760458 
L 124.493528 343.858127 
L 124.567669 343.808083 
L 127.586179 341.671741 
L 128.758795 340.792752 
L 130.604689 339.272225 
L 132.440741 337.727377 
L 133.623198 336.583084 
L 135.642035 334.662002 
L 136.641708 333.50826 
L 138.390027 331.596627 
L 139.660218 329.795588 
L 140.636515 328.531253 
L 142.336216 325.465878 
L 142.678727 324.544304 
L 143.591137 322.400503 
L 144.320044 319.335128 
L 144.582788 316.269753 
L 144.475487 313.204378 
L 144.058295 310.139003 
L 143.368093 307.073629 
L 142.678727 304.814594 
L 142.451615 304.008254 
L 141.357603 300.942879 
L 139.978098 297.877504 
L 139.660218 297.262025 
L 138.223893 294.812129 
L 136.641708 292.627234 
L 135.781963 291.746754 
L 133.623198 289.878813 
L 131.119053 288.681379 
L 130.604689 288.460018 
L 127.586179 287.940953 
L 124.567669 288.116477 
L 122.272638 288.681379 
L 121.54916 288.835889 
L 118.53065 289.950377 
L 115.51214 291.510555 
L 115.154212 291.746754 
L 112.493631 293.366154 
L 110.581423 294.812129 
L 109.475121 295.602783 
L 106.824156 297.877504 
L 106.456611 298.183641 
L 103.604626 300.942879 
L 103.438102 301.10385 
L 100.765425 304.008254 
L 100.419592 304.395556 
L 98.221759 307.073629 
L 97.401082 308.138656 
L 95.936994 310.139003 
L 94.382573 312.480862 
L 93.910999 313.204378 
L 92.097726 316.269753 
L 91.364063 317.694201 
L 90.501233 319.335128 
L 89.137215 322.400503 
L 88.345553 324.586863 
L 88.006399 325.465878 
L 87.081684 328.531253 
L 86.44031 331.596627 
L 86.089205 334.662002 
L 86.065184 337.727377 
L 86.444449 340.792752 
L 87.359687 343.858127 
L 88.345553 345.780541 
L 89.075228 346.923502 
L 91.364063 349.321586 
L 92.320564 349.988877 
z
M 95.400842 346.923502 
L 94.382573 346.274585 
L 92.036639 343.858127 
L 91.364063 342.763363 
L 90.428906 340.792752 
L 89.666394 337.727377 
L 89.456174 334.662002 
L 89.6669 331.596627 
L 90.226889 328.531253 
L 91.10626 325.465878 
L 91.364063 324.790955 
L 92.247409 322.400503 
L 93.657777 319.335128 
L 94.382573 318.0029 
L 95.335346 316.269753 
L 97.282175 313.204378 
L 97.401082 313.032414 
L 99.504236 310.139003 
L 100.419592 308.979374 
L 102.057839 307.073629 
L 103.438102 305.541536 
L 104.997003 304.008254 
L 106.456611 302.591634 
L 108.444712 300.942879 
L 109.475121 300.072668 
L 112.493631 297.972135 
L 112.667248 297.877504 
L 115.51214 296.222541 
L 118.53065 294.943365 
L 119.041443 294.812129 
L 121.54916 294.09212 
L 124.567669 293.804794 
L 127.586179 294.212103 
L 129.050305 294.812129 
L 130.604689 295.537667 
L 133.331018 297.877504 
L 133.623198 298.188689 
L 135.538592 300.942879 
L 136.641708 303.083679 
L 137.062411 304.008254 
L 138.128869 307.073629 
L 138.825345 310.139003 
L 139.175979 313.204378 
L 139.183308 316.269753 
L 138.826935 319.335128 
L 138.058121 322.400503 
L 136.789865 325.465878 
L 136.641708 325.724905 
L 135.149364 328.531253 
L 133.623198 330.652222 
L 132.967955 331.596627 
L 130.604689 334.310818 
L 130.298489 334.662002 
L 127.586179 337.289868 
L 127.115798 337.727377 
L 124.567669 339.831013 
L 123.302893 340.792752 
L 121.54916 342.030092 
L 118.610248 343.858127 
L 118.53065 343.906005 
L 115.51214 345.519088 
L 112.493631 346.814326 
L 112.163676 346.923502 
L 109.475121 347.839123 
L 106.456611 348.519337 
L 103.438102 348.820705 
L 100.419592 348.668951 
L 97.401082 347.922556 
z
" style="fill:#7fb9da;"/>
   </g>
   <g id="PathCollection_6">
    <path clip-path="url(#peda192ad05)" d="M 97.401082 347.922556 
L 100.419592 348.668951 
L 103.438102 348.820705 
L 106.456611 348.519337 
L 109.475121 347.839123 
L 112.163676 346.923502 
L 112.493631 346.814326 
L 115.51214 345.519088 
L 118.53065 343.906005 
L 118.610248 343.858127 
L 121.54916 342.030092 
L 123.302893 340.792752 
L 124.567669 339.831013 
L 127.115798 337.727377 
L 127.586179 337.289868 
L 130.298489 334.662002 
L 130.604689 334.310818 
L 132.967955 331.596627 
L 133.623198 330.652222 
L 135.149364 328.531253 
L 136.641708 325.724905 
L 136.789865 325.465878 
L 138.058121 322.400503 
L 138.826935 319.335128 
L 139.183308 316.269753 
L 139.175979 313.204378 
L 138.825345 310.139003 
L 138.128869 307.073629 
L 137.062411 304.008254 
L 136.641708 303.083679 
L 135.538592 300.942879 
L 133.623198 298.188689 
L 133.331018 297.877504 
L 130.604689 295.537667 
L 129.050305 294.812129 
L 127.586179 294.212103 
L 124.567669 293.804794 
L 121.54916 294.09212 
L 119.041443 294.812129 
L 118.53065 294.943365 
L 115.51214 296.222541 
L 112.667248 297.877504 
L 112.493631 297.972135 
L 109.475121 300.072668 
L 108.444712 300.942879 
L 106.456611 302.591634 
L 104.997003 304.008254 
L 103.438102 305.541536 
L 102.057839 307.073629 
L 100.419592 308.979374 
L 99.504236 310.139003 
L 97.401082 313.032414 
L 97.282175 313.204378 
L 95.335346 316.269753 
L 94.382573 318.0029 
L 93.657777 319.335128 
L 92.247409 322.400503 
L 91.364063 324.790955 
L 91.10626 325.465878 
L 90.226889 328.531253 
L 89.6669 331.596627 
L 89.456174 334.662002 
L 89.666394 337.727377 
L 90.428906 340.792752 
L 91.364063 342.763363 
L 92.036639 343.858127 
L 94.382573 346.274585 
L 95.400842 346.923502 
z
M 98.089326 343.858127 
L 97.401082 343.473187 
L 94.737153 340.792752 
L 94.382573 340.183638 
L 93.331931 337.727377 
L 92.775567 334.662002 
L 92.7857 331.596627 
L 93.232515 328.531253 
L 94.049901 325.465878 
L 94.382573 324.583774 
L 95.206481 322.400503 
L 96.667168 319.335128 
L 97.401082 318.043766 
L 98.455875 316.269753 
L 100.419592 313.395208 
L 100.561636 313.204378 
L 103.054184 310.139003 
L 103.438102 309.696735 
L 106.017147 307.073629 
L 106.456611 306.640514 
L 109.475121 304.1152 
L 109.63426 304.008254 
L 112.493631 302.050913 
L 114.641374 300.942879 
L 115.51214 300.469877 
L 118.53065 299.382057 
L 121.54916 298.869497 
L 124.567669 299.04776 
L 127.586179 300.143679 
L 128.715203 300.942879 
L 130.604689 302.641975 
L 131.637133 304.008254 
L 133.290124 307.073629 
L 133.623198 308.025901 
L 134.278459 310.139003 
L 134.78312 313.204378 
L 134.857458 316.269753 
L 134.507392 319.335128 
L 133.70558 322.400503 
L 133.623198 322.600397 
L 132.501757 325.465878 
L 130.786014 328.531253 
L 130.604689 328.784223 
L 128.602877 331.596627 
L 127.586179 332.749766 
L 125.844084 334.662002 
L 124.567669 335.858675 
L 122.41939 337.727377 
L 121.54916 338.406257 
L 118.53065 340.510036 
L 118.058542 340.792752 
L 115.51214 342.237291 
L 112.493631 343.604005 
L 111.729596 343.858127 
L 109.475121 344.607282 
L 106.456611 345.20116 
L 103.438102 345.32402 
L 100.419592 344.844982 
z
" style="fill:#5ba3d0;"/>
   </g>
   <g id="PathCollection_7">
    <path clip-path="url(#peda192ad05)" d="M 100.419592 344.844982 
L 103.438102 345.32402 
L 106.456611 345.20116 
L 109.475121 344.607282 
L 111.729596 343.858127 
L 112.493631 343.604005 
L 115.51214 342.237291 
L 118.058542 340.792752 
L 118.53065 340.510036 
L 121.54916 338.406257 
L 122.41939 337.727377 
L 124.567669 335.858675 
L 125.844084 334.662002 
L 127.586179 332.749766 
L 128.602877 331.596627 
L 130.604689 328.784223 
L 130.786014 328.531253 
L 132.501757 325.465878 
L 133.623198 322.600397 
L 133.70558 322.400503 
L 134.507392 319.335128 
L 134.857458 316.269753 
L 134.78312 313.204378 
L 134.278459 310.139003 
L 133.623198 308.025901 
L 133.290124 307.073629 
L 131.637133 304.008254 
L 130.604689 302.641975 
L 128.715203 300.942879 
L 127.586179 300.143679 
L 124.567669 299.04776 
L 121.54916 298.869497 
L 118.53065 299.382057 
L 115.51214 300.469877 
L 114.641374 300.942879 
L 112.493631 302.050913 
L 109.63426 304.008254 
L 109.475121 304.1152 
L 106.456611 306.640514 
L 106.017147 307.073629 
L 103.438102 309.696735 
L 103.054184 310.139003 
L 100.561636 313.204378 
L 100.419592 313.395208 
L 98.455875 316.269753 
L 97.401082 318.043766 
L 96.667168 319.335128 
L 95.206481 322.400503 
L 94.382573 324.583774 
L 94.049901 325.465878 
L 93.232515 328.531253 
L 92.7857 331.596627 
L 92.775567 334.662002 
L 93.331931 337.727377 
L 94.382573 340.183638 
L 94.737153 340.792752 
L 97.401082 343.473187 
L 98.089326 343.858127 
z
M 100.830829 340.792752 
L 100.419592 340.605836 
L 97.460384 337.727377 
L 97.401082 337.616874 
L 96.310943 334.662002 
L 96.001339 331.596627 
L 96.278289 328.531253 
L 97.011512 325.465878 
L 97.401082 324.415482 
L 98.178771 322.400503 
L 99.709718 319.335128 
L 100.419592 318.156691 
L 101.658346 316.269753 
L 103.438102 313.893921 
L 104.027797 313.204378 
L 106.456611 310.597366 
L 106.969647 310.139003 
L 109.475121 307.994887 
L 110.846958 307.073629 
L 112.493631 305.971804 
L 115.51214 304.522069 
L 117.370489 304.008254 
L 118.53065 303.672167 
L 121.54916 303.543229 
L 123.434332 304.008254 
L 124.567669 304.354315 
L 127.586179 306.644387 
L 127.937537 307.073629 
L 129.676268 310.139003 
L 130.580355 313.204378 
L 130.604689 313.462761 
L 130.84082 316.269753 
L 130.604689 319.133593 
L 130.588467 319.335128 
L 129.848301 322.400503 
L 128.622962 325.465878 
L 127.586179 327.289726 
L 126.865264 328.531253 
L 124.567669 331.571277 
L 124.547208 331.596627 
L 121.54916 334.650641 
L 121.536647 334.662002 
L 118.53065 337.03586 
L 117.491527 337.727377 
L 115.51214 338.931446 
L 112.493631 340.375012 
L 111.229676 340.792752 
L 109.475121 341.352795 
L 106.456611 341.810338 
L 103.438102 341.650817 
z
" style="fill:#3b8bc2;"/>
   </g>
   <g id="PathCollection_8">
    <path clip-path="url(#peda192ad05)" d="M 103.438102 341.650817 
L 106.456611 341.810338 
L 109.475121 341.352795 
L 111.229676 340.792752 
L 112.493631 340.375012 
L 115.51214 338.931446 
L 117.491527 337.727377 
L 118.53065 337.03586 
L 121.536647 334.662002 
L 121.54916 334.650641 
L 124.547208 331.596627 
L 124.567669 331.571277 
L 126.865264 328.531253 
L 127.586179 327.289726 
L 128.622962 325.465878 
L 129.848301 322.400503 
L 130.588467 319.335128 
L 130.604689 319.133593 
L 130.84082 316.269753 
L 130.604689 313.462761 
L 130.580355 313.204378 
L 129.676268 310.139003 
L 127.937537 307.073629 
L 127.586179 306.644387 
L 124.567669 304.354315 
L 123.434332 304.008254 
L 121.54916 303.543229 
L 118.53065 303.672167 
L 117.370489 304.008254 
L 115.51214 304.522069 
L 112.493631 305.971804 
L 110.846958 307.073629 
L 109.475121 307.994887 
L 106.969647 310.139003 
L 106.456611 310.597366 
L 104.027797 313.204378 
L 103.438102 313.893921 
L 101.658346 316.269753 
L 100.419592 318.156691 
L 99.709718 319.335128 
L 98.178771 322.400503 
L 97.401082 324.415482 
L 97.011512 325.465878 
L 96.278289 328.531253 
L 96.001339 331.596627 
L 96.310943 334.662002 
L 97.401082 337.616874 
L 97.460384 337.727377 
L 100.419592 340.605836 
L 100.830829 340.792752 
z
M 104.815298 337.727377 
L 103.438102 337.305907 
L 100.57448 334.662002 
L 100.419592 334.330596 
L 99.620212 331.596627 
L 99.594054 328.531253 
L 100.187196 325.465878 
L 100.419592 324.824542 
L 101.379442 322.400503 
L 103.0047 319.335128 
L 103.438102 318.672006 
L 105.240307 316.269753 
L 106.456611 314.844401 
L 108.159107 313.204378 
L 109.475121 312.032432 
L 112.250564 310.139003 
L 112.493631 309.978605 
L 115.51214 308.704903 
L 118.53065 308.190261 
L 121.54916 308.693352 
L 123.823721 310.139003 
L 124.567669 310.895781 
L 125.889688 313.204378 
L 126.651886 316.269753 
L 126.637877 319.335128 
L 125.99692 322.400503 
L 124.785864 325.465878 
L 124.567669 325.840182 
L 122.894025 328.531253 
L 121.54916 330.1951 
L 120.275379 331.596627 
L 118.53065 333.181514 
L 116.58136 334.662002 
L 115.51214 335.372695 
L 112.493631 336.893409 
L 109.901032 337.727377 
L 109.475121 337.854362 
L 106.456611 338.069889 
z
" style="fill:#2070b4;"/>
   </g>
   <g id="PathCollection_9">
    <path clip-path="url(#peda192ad05)" d="M 106.456611 338.069889 
L 109.475121 337.854362 
L 109.901032 337.727377 
L 112.493631 336.893409 
L 115.51214 335.372695 
L 116.58136 334.662002 
L 118.53065 333.181514 
L 120.275379 331.596627 
L 121.54916 330.1951 
L 122.894025 328.531253 
L 124.567669 325.840182 
L 124.785864 325.465878 
L 125.99692 322.400503 
L 126.637877 319.335128 
L 126.651886 316.269753 
L 125.889688 313.204378 
L 124.567669 310.895781 
L 123.823721 310.139003 
L 121.54916 308.693352 
L 118.53065 308.190261 
L 115.51214 308.704903 
L 112.493631 309.978605 
L 112.250564 310.139003 
L 109.475121 312.032432 
L 108.159107 313.204378 
L 106.456611 314.844401 
L 105.240307 316.269753 
L 103.438102 318.672006 
L 103.0047 319.335128 
L 101.379442 322.400503 
L 100.419592 324.824542 
L 100.187196 325.465878 
L 99.594054 328.531253 
L 99.620212 331.596627 
L 100.419592 334.330596 
L 100.57448 334.662002 
L 103.438102 337.305907 
L 104.815298 337.727377 
z
M 104.883457 331.596627 
L 103.732678 328.531253 
L 104.089548 325.465878 
L 105.263136 322.400503 
L 106.456611 320.314469 
L 107.16678 319.335128 
L 109.475121 316.785841 
L 110.138037 316.269753 
L 112.493631 314.677532 
L 115.51214 313.548579 
L 118.53065 313.76202 
L 121.365808 316.269753 
L 121.54916 316.794623 
L 122.045248 319.335128 
L 121.690257 322.400503 
L 121.54916 322.768623 
L 120.363649 325.465878 
L 118.53065 328.205507 
L 118.259229 328.531253 
L 115.51214 331.000424 
L 114.580336 331.596627 
L 112.493631 332.689334 
L 109.475121 333.436605 
L 106.456611 332.925607 
z
" style="fill:#0d57a1;"/>
   </g>
   <g id="PathCollection_10">
    <path clip-path="url(#peda192ad05)" d="M 106.456611 332.925607 
L 109.475121 333.436605 
L 112.493631 332.689334 
L 114.580336 331.596627 
L 115.51214 331.000424 
L 118.259229 328.531253 
L 118.53065 328.205507 
L 120.363649 325.465878 
L 121.54916 322.768623 
L 121.690257 322.400503 
L 122.045248 319.335128 
L 121.54916 316.794623 
L 121.365808 316.269753 
L 118.53065 313.76202 
L 115.51214 313.548579 
L 112.493631 314.677532 
L 110.138037 316.269753 
L 109.475121 316.785841 
L 107.16678 319.335128 
L 106.456611 320.314469 
L 105.263136 322.400503 
L 104.089548 325.465878 
L 103.732678 328.531253 
L 104.883457 331.596627 
z
" style="fill:#083c7d;"/>
   </g>
   <g id="patch_3">
    <path d="M 52.123438 389.83875 
L 52.123438 86.366638 
" style="fill:none;"/>
   </g>
   <g id="patch_4">
    <path d="M 52.123438 389.83875 
L 350.955894 389.83875 
" style="fill:none;"/>
   </g>
   <g id="legend_1">
    <g id="line2d_31"/>
    <g id="line2d_32"/>
    <g id="text_18">
     <!-- pearsonr = 0.45; p = 2.6e-06 -->
     <defs>
      <path d="M 18.109375 8.203125 
L 18.109375 -20.796875 
L 9.078125 -20.796875 
L 9.078125 54.6875 
L 18.109375 54.6875 
L 18.109375 46.390625 
Q 20.953125 51.265625 25.265625 53.625 
Q 29.59375 56 35.59375 56 
Q 45.5625 56 51.78125 48.09375 
Q 58.015625 40.1875 58.015625 27.296875 
Q 58.015625 14.40625 51.78125 6.484375 
Q 45.5625 -1.421875 35.59375 -1.421875 
Q 29.59375 -1.421875 25.265625 0.953125 
Q 20.953125 3.328125 18.109375 8.203125 
z
M 48.6875 27.296875 
Q 48.6875 37.203125 44.609375 42.84375 
Q 40.53125 48.484375 33.40625 48.484375 
Q 26.265625 48.484375 22.1875 42.84375 
Q 18.109375 37.203125 18.109375 27.296875 
Q 18.109375 17.390625 22.1875 11.75 
Q 26.265625 6.109375 33.40625 6.109375 
Q 40.53125 6.109375 44.609375 11.75 
Q 48.6875 17.390625 48.6875 27.296875 
z
" id="DejaVuSans-70"/>
      <path d="M 34.28125 27.484375 
Q 23.390625 27.484375 19.1875 25 
Q 14.984375 22.515625 14.984375 16.5 
Q 14.984375 11.71875 18.140625 8.90625 
Q 21.296875 6.109375 26.703125 6.109375 
Q 34.1875 6.109375 38.703125 11.40625 
Q 43.21875 16.703125 43.21875 25.484375 
L 43.21875 27.484375 
z
M 52.203125 31.203125 
L 52.203125 0 
L 43.21875 0 
L 43.21875 8.296875 
Q 40.140625 3.328125 35.546875 0.953125 
Q 30.953125 -1.421875 24.3125 -1.421875 
Q 15.921875 -1.421875 10.953125 3.296875 
Q 6 8.015625 6 15.921875 
Q 6 25.140625 12.171875 29.828125 
Q 18.359375 34.515625 30.609375 34.515625 
L 43.21875 34.515625 
L 43.21875 35.40625 
Q 43.21875 41.609375 39.140625 45 
Q 35.0625 48.390625 27.6875 48.390625 
Q 23 48.390625 18.546875 47.265625 
Q 14.109375 46.140625 10.015625 43.890625 
L 10.015625 52.203125 
Q 14.9375 54.109375 19.578125 55.046875 
Q 24.21875 56 28.609375 56 
Q 40.484375 56 46.34375 49.84375 
Q 52.203125 43.703125 52.203125 31.203125 
z
" id="DejaVuSans-61"/>
      <path d="M 44.28125 53.078125 
L 44.28125 44.578125 
Q 40.484375 46.53125 36.375 47.5 
Q 32.28125 48.484375 27.875 48.484375 
Q 21.1875 48.484375 17.84375 46.4375 
Q 14.5 44.390625 14.5 40.28125 
Q 14.5 37.15625 16.890625 35.375 
Q 19.28125 33.59375 26.515625 31.984375 
L 29.59375 31.296875 
Q 39.15625 29.25 43.1875 25.515625 
Q 47.21875 21.78125 47.21875 15.09375 
Q 47.21875 7.46875 41.1875 3.015625 
Q 35.15625 -1.421875 24.609375 -1.421875 
Q 20.21875 -1.421875 15.453125 -0.5625 
Q 10.6875 0.296875 5.421875 2 
L 5.421875 11.28125 
Q 10.40625 8.6875 15.234375 7.390625 
Q 20.0625 6.109375 24.8125 6.109375 
Q 31.15625 6.109375 34.5625 8.28125 
Q 37.984375 10.453125 37.984375 14.40625 
Q 37.984375 18.0625 35.515625 20.015625 
Q 33.0625 21.96875 24.703125 23.78125 
L 21.578125 24.515625 
Q 13.234375 26.265625 9.515625 29.90625 
Q 5.8125 33.546875 5.8125 39.890625 
Q 5.8125 47.609375 11.28125 51.796875 
Q 16.75 56 26.8125 56 
Q 31.78125 56 36.171875 55.265625 
Q 40.578125 54.546875 44.28125 53.078125 
z
" id="DejaVuSans-73"/>
      <path d="M 30.609375 48.390625 
Q 23.390625 48.390625 19.1875 42.75 
Q 14.984375 37.109375 14.984375 27.296875 
Q 14.984375 17.484375 19.15625 11.84375 
Q 23.34375 6.203125 30.609375 6.203125 
Q 37.796875 6.203125 41.984375 11.859375 
Q 46.1875 17.53125 46.1875 27.296875 
Q 46.1875 37.015625 41.984375 42.703125 
Q 37.796875 48.390625 30.609375 48.390625 
z
M 30.609375 56 
Q 42.328125 56 49.015625 48.375 
Q 55.71875 40.765625 55.71875 27.296875 
Q 55.71875 13.875 49.015625 6.21875 
Q 42.328125 -1.421875 30.609375 -1.421875 
Q 18.84375 -1.421875 12.171875 6.21875 
Q 5.515625 13.875 5.515625 27.296875 
Q 5.515625 40.765625 12.171875 48.375 
Q 18.84375 56 30.609375 56 
z
" id="DejaVuSans-6f"/>
      <path d="M 54.890625 33.015625 
L 54.890625 0 
L 45.90625 0 
L 45.90625 32.71875 
Q 45.90625 40.484375 42.875 44.328125 
Q 39.84375 48.1875 33.796875 48.1875 
Q 26.515625 48.1875 22.3125 43.546875 
Q 18.109375 38.921875 18.109375 30.90625 
L 18.109375 0 
L 9.078125 0 
L 9.078125 54.6875 
L 18.109375 54.6875 
L 18.109375 46.1875 
Q 21.34375 51.125 25.703125 53.5625 
Q 30.078125 56 35.796875 56 
Q 45.21875 56 50.046875 50.171875 
Q 54.890625 44.34375 54.890625 33.015625 
z
" id="DejaVuSans-6e"/>
      <path id="DejaVuSans-20"/>
      <path d="M 10.59375 45.40625 
L 73.1875 45.40625 
L 73.1875 37.203125 
L 10.59375 37.203125 
z
M 10.59375 25.484375 
L 73.1875 25.484375 
L 73.1875 17.1875 
L 10.59375 17.1875 
z
" id="DejaVuSans-3d"/>
      <path d="M 10.6875 12.40625 
L 21 12.40625 
L 21 0 
L 10.6875 0 
z
" id="DejaVuSans-2e"/>
      <path d="M 11.71875 51.703125 
L 22.015625 51.703125 
L 22.015625 39.3125 
L 11.71875 39.3125 
z
M 11.71875 12.40625 
L 22.015625 12.40625 
L 22.015625 4 
L 14.015625 -11.625 
L 7.71875 -11.625 
L 11.71875 4 
z
" id="DejaVuSans-3b"/>
      <path d="M 4.890625 31.390625 
L 31.203125 31.390625 
L 31.203125 23.390625 
L 4.890625 23.390625 
z
" id="DejaVuSans-2d"/>
     </defs>
     <g style="fill:#262626;" transform="translate(194.416832 102.965075)scale(0.1 -0.1)">
      <use xlink:href="#DejaVuSans-70"/>
      <use x="63.476562" xlink:href="#DejaVuSans-65"/>
      <use x="125" xlink:href="#DejaVuSans-61"/>
      <use x="186.279297" xlink:href="#DejaVuSans-72"/>
      <use x="227.392578" xlink:href="#DejaVuSans-73"/>
      <use x="279.492188" xlink:href="#DejaVuSans-6f"/>
      <use x="340.673828" xlink:href="#DejaVuSans-6e"/>
      <use x="404.052734" xlink:href="#DejaVuSans-72"/>
      <use x="445.166016" xlink:href="#DejaVuSans-20"/>
      <use x="476.953125" xlink:href="#DejaVuSans-3d"/>
      <use x="560.742188" xlink:href="#DejaVuSans-20"/>
      <use x="592.529297" xlink:href="#DejaVuSans-30"/>
      <use x="656.152344" xlink:href="#DejaVuSans-2e"/>
      <use x="687.939453" xlink:href="#DejaVuSans-34"/>
      <use x="751.5625" xlink:href="#DejaVuSans-35"/>
      <use x="815.185547" xlink:href="#DejaVuSans-3b"/>
      <use x="848.876953" xlink:href="#DejaVuSans-20"/>
      <use x="880.664062" xlink:href="#DejaVuSans-70"/>
      <use x="944.140625" xlink:href="#DejaVuSans-20"/>
      <use x="975.927734" xlink:href="#DejaVuSans-3d"/>
      <use x="1059.716797" xlink:href="#DejaVuSans-20"/>
      <use x="1091.503906" xlink:href="#DejaVuSans-32"/>
      <use x="1155.126953" xlink:href="#DejaVuSans-2e"/>
      <use x="1186.914062" xlink:href="#DejaVuSans-36"/>
      <use x="1250.537109" xlink:href="#DejaVuSans-65"/>
      <use x="1312.060547" xlink:href="#DejaVuSans-2d"/>
      <use x="1348.144531" xlink:href="#DejaVuSans-30"/>
      <use x="1411.767578" xlink:href="#DejaVuSans-36"/>
     </g>
    </g>
   </g>
  </g>
  <g id="axes_2">
   <g id="patch_5">
    <path d="M 52.123438 73.172198 
L 350.955894 73.172198 
L 350.955894 7.2 
L 52.123438 7.2 
z
" style="fill:#eaeaf2;"/>
   </g>
   <g id="matplotlib.axis_3">
    <g id="xtick_8">
     <g id="line2d_33">
      <path clip-path="url(#p550cd90951)" d="M 61.186124 73.172198 
L 61.186124 7.2 
" style="fill:none;stroke:#ffffff;stroke-linecap:round;stroke-width:0.8;"/>
     </g>
     <g id="line2d_34"/>
    </g>
    <g id="xtick_9">
     <g id="line2d_35">
      <path clip-path="url(#p550cd90951)" d="M 107.164861 73.172198 
L 107.164861 7.2 
" style="fill:none;stroke:#ffffff;stroke-linecap:round;stroke-width:0.8;"/>
     </g>
     <g id="line2d_36"/>
    </g>
    <g id="xtick_10">
     <g id="line2d_37">
      <path clip-path="url(#p550cd90951)" d="M 153.143597 73.172198 
L 153.143597 7.2 
" style="fill:none;stroke:#ffffff;stroke-linecap:round;stroke-width:0.8;"/>
     </g>
     <g id="line2d_38"/>
    </g>
    <g id="xtick_11">
     <g id="line2d_39">
      <path clip-path="url(#p550cd90951)" d="M 199.122334 73.172198 
L 199.122334 7.2 
" style="fill:none;stroke:#ffffff;stroke-linecap:round;stroke-width:0.8;"/>
     </g>
     <g id="line2d_40"/>
    </g>
    <g id="xtick_12">
     <g id="line2d_41">
      <path clip-path="url(#p550cd90951)" d="M 245.10107 73.172198 
L 245.10107 7.2 
" style="fill:none;stroke:#ffffff;stroke-linecap:round;stroke-width:0.8;"/>
     </g>
     <g id="line2d_42"/>
    </g>
    <g id="xtick_13">
     <g id="line2d_43">
      <path clip-path="url(#p550cd90951)" d="M 291.079807 73.172198 
L 291.079807 7.2 
" style="fill:none;stroke:#ffffff;stroke-linecap:round;stroke-width:0.8;"/>
     </g>
     <g id="line2d_44"/>
    </g>
    <g id="xtick_14">
     <g id="line2d_45">
      <path clip-path="url(#p550cd90951)" d="M 337.058544 73.172198 
L 337.058544 7.2 
" style="fill:none;stroke:#ffffff;stroke-linecap:round;stroke-width:0.8;"/>
     </g>
     <g id="line2d_46"/>
    </g>
   </g>
   <g id="matplotlib.axis_4">
    <g id="ytick_9"/>
    <g id="ytick_10"/>
   </g>
   <g id="PolyCollection_1">
    <path clip-path="url(#p550cd90951)" d="M 60.221071 72.747467 
L 60.221071 73.172198 
L 63.075992 73.172198 
L 65.930913 73.172198 
L 68.785834 73.172198 
L 71.640755 73.172198 
L 74.495676 73.172198 
L 77.350598 73.172198 
L 80.205519 73.172198 
L 83.06044 73.172198 
L 85.915361 73.172198 
L 88.770282 73.172198 
L 91.625203 73.172198 
L 94.480124 73.172198 
L 97.335045 73.172198 
L 100.189966 73.172198 
L 103.044888 73.172198 
L 105.899809 73.172198 
L 108.75473 73.172198 
L 111.609651 73.172198 
L 114.464572 73.172198 
L 117.319493 73.172198 
L 120.174414 73.172198 
L 123.029335 73.172198 
L 125.884256 73.172198 
L 128.739178 73.172198 
L 131.594099 73.172198 
L 134.44902 73.172198 
L 137.303941 73.172198 
L 140.158862 73.172198 
L 143.013783 73.172198 
L 145.868704 73.172198 
L 148.723625 73.172198 
L 151.578546 73.172198 
L 154.433468 73.172198 
L 157.288389 73.172198 
L 160.14331 73.172198 
L 162.998231 73.172198 
L 165.853152 73.172198 
L 168.708073 73.172198 
L 171.562994 73.172198 
L 174.417915 73.172198 
L 177.272836 73.172198 
L 180.127758 73.172198 
L 182.982679 73.172198 
L 185.8376 73.172198 
L 188.692521 73.172198 
L 191.547442 73.172198 
L 194.402363 73.172198 
L 197.257284 73.172198 
L 200.112205 73.172198 
L 202.967127 73.172198 
L 205.822048 73.172198 
L 208.676969 73.172198 
L 211.53189 73.172198 
L 214.386811 73.172198 
L 217.241732 73.172198 
L 220.096653 73.172198 
L 222.951574 73.172198 
L 225.806495 73.172198 
L 228.661417 73.172198 
L 231.516338 73.172198 
L 234.371259 73.172198 
L 237.22618 73.172198 
L 240.081101 73.172198 
L 242.936022 73.172198 
L 245.790943 73.172198 
L 248.645864 73.172198 
L 251.500785 73.172198 
L 254.355707 73.172198 
L 257.210628 73.172198 
L 260.065549 73.172198 
L 262.92047 73.172198 
L 265.775391 73.172198 
L 268.630312 73.172198 
L 271.485233 73.172198 
L 274.340154 73.172198 
L 277.195075 73.172198 
L 280.049997 73.172198 
L 282.904918 73.172198 
L 285.759839 73.172198 
L 288.61476 73.172198 
L 291.469681 73.172198 
L 294.324602 73.172198 
L 297.179523 73.172198 
L 300.034444 73.172198 
L 302.889365 73.172198 
L 305.744287 73.172198 
L 308.599208 73.172198 
L 311.454129 73.172198 
L 314.30905 73.172198 
L 317.163971 73.172198 
L 320.018892 73.172198 
L 322.873813 73.172198 
L 325.728734 73.172198 
L 328.583655 73.172198 
L 331.438577 73.172198 
L 334.293498 73.172198 
L 337.148419 73.172198 
L 340.00334 73.172198 
L 342.858261 73.172198 
L 342.858261 73.159445 
L 342.858261 73.159445 
L 340.00334 73.15053 
L 337.148419 73.136533 
L 334.293498 73.115313 
L 331.438577 73.084244 
L 328.583655 73.040309 
L 325.728734 72.980282 
L 322.873813 72.901013 
L 320.018892 72.799768 
L 317.163971 72.674579 
L 314.30905 72.524536 
L 311.454129 72.349936 
L 308.599208 72.152277 
L 305.744287 71.934093 
L 302.889365 71.69871 
L 300.034444 71.450038 
L 297.179523 71.192528 
L 294.324602 70.931336 
L 291.469681 70.672715 
L 288.61476 70.424455 
L 285.759839 70.1962 
L 282.904918 69.999352 
L 280.049997 69.846426 
L 277.195075 69.749781 
L 274.340154 69.719903 
L 271.485233 69.763523 
L 268.630312 69.882005 
L 265.775391 70.07037 
L 262.92047 70.31723 
L 260.065549 70.605699 
L 257.210628 70.915121 
L 254.355707 71.223309 
L 251.500785 71.508868 
L 248.645864 71.75325 
L 245.790943 71.942225 
L 242.936022 72.066637 
L 240.081101 72.122402 
L 237.22618 72.109845 
L 234.371259 72.032473 
L 231.516338 71.895346 
L 228.661417 71.703183 
L 225.806495 71.458395 
L 222.951574 71.159235 
L 220.096653 70.798377 
L 217.241732 70.362201 
L 214.386811 69.83112 
L 211.53189 69.18117 
L 208.676969 68.386924 
L 205.822048 67.425539 
L 202.967127 66.281445 
L 200.112205 64.950942 
L 197.257284 63.445792 
L 194.402363 61.794936 
L 191.547442 60.043715 
L 188.692521 58.250399 
L 185.8376 56.480388 
L 182.982679 54.798912 
L 180.127758 53.263432 
L 177.272836 51.91693 
L 174.417915 50.783091 
L 171.562994 49.863858 
L 168.708073 49.139368 
L 165.853152 48.569788 
L 162.998231 48.098368 
L 160.14331 47.654999 
L 157.288389 47.15983 
L 154.433468 46.526801 
L 151.578546 45.66734 
L 148.723625 44.494725 
L 145.868704 42.929746 
L 143.013783 40.908205 
L 140.158862 38.390482 
L 137.303941 35.372777 
L 134.44902 31.898881 
L 131.594099 28.070397 
L 128.739178 24.052645 
L 125.884256 20.073196 
L 123.029335 16.410549 
L 120.174414 13.371901 
L 117.319493 11.261233 
L 114.464572 10.341533 
L 111.609651 10.797213 
L 108.75473 12.703821 
L 105.899809 16.011573 
L 103.044888 20.546846 
L 100.189966 26.032177 
L 97.335045 32.121381 
L 94.480124 38.443224 
L 91.625203 44.645557 
L 88.770282 50.432272 
L 85.915361 55.58762 
L 83.06044 59.985629 
L 80.205519 63.585612 
L 77.350598 66.417238 
L 74.495676 68.559889 
L 71.640755 70.120974 
L 68.785834 71.216849 
L 65.930913 71.958495 
L 63.075992 72.44259 
L 60.221071 72.747467 
z
" style="fill:#1f77b4;fill-opacity:0.25;"/>
   </g>
   <g id="line2d_47">
    <path clip-path="url(#p550cd90951)" d="M 60.221071 72.747467 
L 63.075992 72.44259 
L 65.930913 71.958495 
L 68.785834 71.216849 
L 71.640755 70.120974 
L 74.495676 68.559889 
L 77.350598 66.417238 
L 80.205519 63.585612 
L 83.06044 59.985629 
L 85.915361 55.58762 
L 88.770282 50.432272 
L 91.625203 44.645557 
L 94.480124 38.443224 
L 97.335045 32.121381 
L 100.189966 26.032177 
L 103.044888 20.546846 
L 105.899809 16.011573 
L 108.75473 12.703821 
L 111.609651 10.797213 
L 114.464572 10.341533 
L 117.319493 11.261233 
L 120.174414 13.371901 
L 123.029335 16.410549 
L 125.884256 20.073196 
L 128.739178 24.052645 
L 131.594099 28.070397 
L 134.44902 31.898881 
L 137.303941 35.372777 
L 140.158862 38.390482 
L 143.013783 40.908205 
L 145.868704 42.929746 
L 148.723625 44.494725 
L 151.578546 45.66734 
L 154.433468 46.526801 
L 157.288389 47.15983 
L 160.14331 47.654999 
L 162.998231 48.098368 
L 165.853152 48.569788 
L 168.708073 49.139368 
L 171.562994 49.863858 
L 174.417915 50.783091 
L 177.272836 51.91693 
L 180.127758 53.263432 
L 182.982679 54.798912 
L 185.8376 56.480388 
L 188.692521 58.250399 
L 191.547442 60.043715 
L 194.402363 61.794936 
L 197.257284 63.445792 
L 200.112205 64.950942 
L 202.967127 66.281445 
L 205.822048 67.425539 
L 208.676969 68.386924 
L 211.53189 69.18117 
L 214.386811 69.83112 
L 217.241732 70.362201 
L 220.096653 70.798377 
L 222.951574 71.159235 
L 225.806495 71.458395 
L 228.661417 71.703183 
L 231.516338 71.895346 
L 234.371259 72.032473 
L 237.22618 72.109845 
L 240.081101 72.122402 
L 242.936022 72.066637 
L 245.790943 71.942225 
L 248.645864 71.75325 
L 251.500785 71.508868 
L 254.355707 71.223309 
L 257.210628 70.915121 
L 260.065549 70.605699 
L 262.92047 70.31723 
L 265.775391 70.07037 
L 268.630312 69.882005 
L 271.485233 69.763523 
L 274.340154 69.719903 
L 277.195075 69.749781 
L 280.049997 69.846426 
L 282.904918 69.999352 
L 285.759839 70.1962 
L 288.61476 70.424455 
L 291.469681 70.672715 
L 294.324602 70.931336 
L 297.179523 71.192528 
L 300.034444 71.450038 
L 302.889365 71.69871 
L 305.744287 71.934093 
L 308.599208 72.152277 
L 311.454129 72.349936 
L 314.30905 72.524536 
L 317.163971 72.674579 
L 320.018892 72.799768 
L 322.873813 72.901013 
L 325.728734 72.980282 
L 328.583655 73.040309 
L 331.438577 73.084244 
L 334.293498 73.115313 
L 337.148419 73.136533 
L 340.00334 73.15053 
L 342.858261 73.159445 
" style="fill:none;stroke:#1f77b4;stroke-linecap:round;stroke-width:1.5;"/>
   </g>
   <g id="patch_6">
    <path d="M 52.123438 73.172198 
L 350.955894 73.172198 
" style="fill:none;"/>
   </g>
  </g>
  <g id="axes_3">
   <g id="patch_7">
    <path d="M 363.94861 389.83875 
L 428.912188 389.83875 
L 428.912188 86.366638 
L 363.94861 86.366638 
z
" style="fill:#eaeaf2;"/>
   </g>
   <g id="matplotlib.axis_5">
    <g id="xtick_15"/>
    <g id="xtick_16"/>
   </g>
   <g id="matplotlib.axis_6">
    <g id="ytick_11">
     <g id="line2d_48">
      <path clip-path="url(#p375657c5de)" d="M 363.94861 370.670932 
L 428.912188 370.670932 
" style="fill:none;stroke:#ffffff;stroke-linecap:round;stroke-width:0.8;"/>
     </g>
     <g id="line2d_49"/>
    </g>
    <g id="ytick_12">
     <g id="line2d_50">
      <path clip-path="url(#p375657c5de)" d="M 363.94861 332.955928 
L 428.912188 332.955928 
" style="fill:none;stroke:#ffffff;stroke-linecap:round;stroke-width:0.8;"/>
     </g>
     <g id="line2d_51"/>
    </g>
    <g id="ytick_13">
     <g id="line2d_52">
      <path clip-path="url(#p375657c5de)" d="M 363.94861 295.240925 
L 428.912188 295.240925 
" style="fill:none;stroke:#ffffff;stroke-linecap:round;stroke-width:0.8;"/>
     </g>
     <g id="line2d_53"/>
    </g>
    <g id="ytick_14">
     <g id="line2d_54">
      <path clip-path="url(#p375657c5de)" d="M 363.94861 257.525921 
L 428.912188 257.525921 
" style="fill:none;stroke:#ffffff;stroke-linecap:round;stroke-width:0.8;"/>
     </g>
     <g id="line2d_55"/>
    </g>
    <g id="ytick_15">
     <g id="line2d_56">
      <path clip-path="url(#p375657c5de)" d="M 363.94861 219.810917 
L 428.912188 219.810917 
" style="fill:none;stroke:#ffffff;stroke-linecap:round;stroke-width:0.8;"/>
     </g>
     <g id="line2d_57"/>
    </g>
    <g id="ytick_16">
     <g id="line2d_58">
      <path clip-path="url(#p375657c5de)" d="M 363.94861 182.095913 
L 428.912188 182.095913 
" style="fill:none;stroke:#ffffff;stroke-linecap:round;stroke-width:0.8;"/>
     </g>
     <g id="line2d_59"/>
    </g>
    <g id="ytick_17">
     <g id="line2d_60">
      <path clip-path="url(#p375657c5de)" d="M 363.94861 144.38091 
L 428.912188 144.38091 
" style="fill:none;stroke:#ffffff;stroke-linecap:round;stroke-width:0.8;"/>
     </g>
     <g id="line2d_61"/>
    </g>
    <g id="ytick_18">
     <g id="line2d_62">
      <path clip-path="url(#p375657c5de)" d="M 363.94861 106.665906 
L 428.912188 106.665906 
" style="fill:none;stroke:#ffffff;stroke-linecap:round;stroke-width:0.8;"/>
     </g>
     <g id="line2d_63"/>
    </g>
   </g>
   <g id="PolyCollection_2">
    <path clip-path="url(#p375657c5de)" d="M 364.318003 381.305893 
L 363.94861 381.305893 
L 363.94861 378.412899 
L 363.94861 375.519905 
L 363.94861 372.626911 
L 363.94861 369.733917 
L 363.94861 366.840923 
L 363.94861 363.947929 
L 363.94861 361.054935 
L 363.94861 358.161941 
L 363.94861 355.268948 
L 363.94861 352.375954 
L 363.94861 349.48296 
L 363.94861 346.589966 
L 363.94861 343.696972 
L 363.94861 340.803978 
L 363.94861 337.910984 
L 363.94861 335.01799 
L 363.94861 332.124996 
L 363.94861 329.232002 
L 363.94861 326.339008 
L 363.94861 323.446014 
L 363.94861 320.553021 
L 363.94861 317.660027 
L 363.94861 314.767033 
L 363.94861 311.874039 
L 363.94861 308.981045 
L 363.94861 306.088051 
L 363.94861 303.195057 
L 363.94861 300.302063 
L 363.94861 297.409069 
L 363.94861 294.516075 
L 363.94861 291.623081 
L 363.94861 288.730088 
L 363.94861 285.837094 
L 363.94861 282.9441 
L 363.94861 280.051106 
L 363.94861 277.158112 
L 363.94861 274.265118 
L 363.94861 271.372124 
L 363.94861 268.47913 
L 363.94861 265.586136 
L 363.94861 262.693142 
L 363.94861 259.800148 
L 363.94861 256.907154 
L 363.94861 254.014161 
L 363.94861 251.121167 
L 363.94861 248.228173 
L 363.94861 245.335179 
L 363.94861 242.442185 
L 363.94861 239.549191 
L 363.94861 236.656197 
L 363.94861 233.763203 
L 363.94861 230.870209 
L 363.94861 227.977215 
L 363.94861 225.084221 
L 363.94861 222.191227 
L 363.94861 219.298234 
L 363.94861 216.40524 
L 363.94861 213.512246 
L 363.94861 210.619252 
L 363.94861 207.726258 
L 363.94861 204.833264 
L 363.94861 201.94027 
L 363.94861 199.047276 
L 363.94861 196.154282 
L 363.94861 193.261288 
L 363.94861 190.368294 
L 363.94861 187.4753 
L 363.94861 184.582307 
L 363.94861 181.689313 
L 363.94861 178.796319 
L 363.94861 175.903325 
L 363.94861 173.010331 
L 363.94861 170.117337 
L 363.94861 167.224343 
L 363.94861 164.331349 
L 363.94861 161.438355 
L 363.94861 158.545361 
L 363.94861 155.652367 
L 363.94861 152.759373 
L 363.94861 149.86638 
L 363.94861 146.973386 
L 363.94861 144.080392 
L 363.94861 141.187398 
L 363.94861 138.294404 
L 363.94861 135.40141 
L 363.94861 132.508416 
L 363.94861 129.615422 
L 363.94861 126.722428 
L 363.94861 123.829434 
L 363.94861 120.93644 
L 363.94861 118.043446 
L 363.94861 115.150453 
L 363.94861 112.257459 
L 363.94861 109.364465 
L 363.94861 106.471471 
L 363.94861 103.578477 
L 363.94861 100.685483 
L 363.94861 97.792489 
L 363.94861 94.899495 
L 363.959534 94.899495 
L 363.959534 94.899495 
L 363.966733 97.792489 
L 363.977778 100.685483 
L 363.994156 103.578477 
L 364.017616 106.471471 
L 364.050063 109.364465 
L 364.093368 112.257459 
L 364.149112 115.150453 
L 364.218267 118.043446 
L 364.300895 120.93644 
L 364.395913 123.829434 
L 364.501016 126.722428 
L 364.612821 129.615422 
L 364.727267 132.508416 
L 364.840239 135.40141 
L 364.948335 138.294404 
L 365.049626 141.187398 
L 365.144251 144.080392 
L 365.234693 146.973386 
L 365.325634 149.86638 
L 365.4234 152.759373 
L 365.535078 155.652367 
L 365.667495 158.545361 
L 365.826253 161.438355 
L 366.015025 164.331349 
L 366.235228 167.224343 
L 366.486101 170.117337 
L 366.765094 173.010331 
L 367.068416 175.903325 
L 367.391547 178.796319 
L 367.729556 181.689313 
L 368.077115 184.582307 
L 368.428253 187.4753 
L 368.775939 190.368294 
L 369.111701 193.261288 
L 369.425502 196.154282 
L 369.706078 199.047276 
L 369.941847 201.94027 
L 370.122372 204.833264 
L 370.240219 207.726258 
L 370.292884 210.619252 
L 370.284404 213.512246 
L 370.226213 216.40524 
L 370.136917 219.298234 
L 370.04082 222.191227 
L 369.965287 225.084221 
L 369.937301 227.977215 
L 369.979773 230.870209 
L 370.108314 233.763203 
L 370.329104 236.656197 
L 370.638363 239.549191 
L 371.023587 242.442185 
L 371.466385 245.335179 
L 371.9464 248.228173 
L 372.445571 251.121167 
L 372.951957 254.014161 
L 373.462402 256.907154 
L 373.983659 259.800148 
L 374.531902 262.693142 
L 375.130964 265.586136 
L 375.809887 268.47913 
L 376.6005 271.372124 
L 377.535663 274.265118 
L 378.648527 277.158112 
L 379.972824 280.051106 
L 381.543712 282.9441 
L 383.398427 285.837094 
L 385.575709 288.730088 
L 388.113044 291.623081 
L 391.041013 294.516075 
L 394.374597 297.409069 
L 398.102057 300.302063 
L 402.172924 303.195057 
L 406.487434 306.088051 
L 410.890321 308.981045 
L 415.171807 311.874039 
L 419.077889 314.767033 
L 422.3305 317.660027 
L 424.656046 320.553021 
L 425.818684 323.446014 
L 425.653011 326.339008 
L 424.090194 329.232002 
L 421.172261 332.124996 
L 417.051289 335.01799 
L 411.973102 337.910984 
L 406.248183 340.803978 
L 400.214963 343.696972 
L 394.201899 346.589966 
L 388.494553 349.48296 
L 383.312326 352.375954 
L 378.797167 355.268948 
L 375.014045 358.161941 
L 371.960925 361.054935 
L 369.584744 363.947929 
L 367.799639 366.840923 
L 366.504199 369.733917 
L 365.59555 372.626911 
L 364.979224 375.519905 
L 364.574806 378.412899 
L 364.318003 381.305893 
z
" style="fill:#1f77b4;fill-opacity:0.25;"/>
   </g>
   <g id="line2d_64">
    <path clip-path="url(#p375657c5de)" d="M 364.318003 381.305893 
L 364.574806 378.412899 
L 364.979224 375.519905 
L 365.59555 372.626911 
L 366.504199 369.733917 
L 367.799639 366.840923 
L 369.584744 363.947929 
L 371.960925 361.054935 
L 375.014045 358.161941 
L 378.797167 355.268948 
L 383.312326 352.375954 
L 388.494553 349.48296 
L 394.201899 346.589966 
L 400.214963 343.696972 
L 406.248183 340.803978 
L 411.973102 337.910984 
L 417.051289 335.01799 
L 421.172261 332.124996 
L 424.090194 329.232002 
L 425.653011 326.339008 
L 425.818684 323.446014 
L 424.656046 320.553021 
L 422.3305 317.660027 
L 419.077889 314.767033 
L 415.171807 311.874039 
L 410.890321 308.981045 
L 406.487434 306.088051 
L 402.172924 303.195057 
L 398.102057 300.302063 
L 394.374597 297.409069 
L 391.041013 294.516075 
L 388.113044 291.623081 
L 385.575709 288.730088 
L 383.398427 285.837094 
L 381.543712 282.9441 
L 379.972824 280.051106 
L 378.648527 277.158112 
L 377.535663 274.265118 
L 376.6005 271.372124 
L 375.809887 268.47913 
L 375.130964 265.586136 
L 374.531902 262.693142 
L 373.983659 259.800148 
L 373.462402 256.907154 
L 372.951957 254.014161 
L 372.445571 251.121167 
L 371.9464 248.228173 
L 371.466385 245.335179 
L 371.023587 242.442185 
L 370.638363 239.549191 
L 370.329104 236.656197 
L 370.108314 233.763203 
L 369.979773 230.870209 
L 369.937301 227.977215 
L 369.965287 225.084221 
L 370.04082 222.191227 
L 370.136917 219.298234 
L 370.226213 216.40524 
L 370.284404 213.512246 
L 370.292884 210.619252 
L 370.240219 207.726258 
L 370.122372 204.833264 
L 369.941847 201.94027 
L 369.706078 199.047276 
L 369.425502 196.154282 
L 369.111701 193.261288 
L 368.775939 190.368294 
L 368.428253 187.4753 
L 368.077115 184.582307 
L 367.729556 181.689313 
L 367.391547 178.796319 
L 367.068416 175.903325 
L 366.765094 173.010331 
L 366.486101 170.117337 
L 366.235228 167.224343 
L 366.015025 164.331349 
L 365.826253 161.438355 
L 365.667495 158.545361 
L 365.535078 155.652367 
L 365.4234 152.759373 
L 365.325634 149.86638 
L 365.234693 146.973386 
L 365.144251 144.080392 
L 365.049626 141.187398 
L 364.948335 138.294404 
L 364.840239 135.40141 
L 364.727267 132.508416 
L 364.612821 129.615422 
L 364.501016 126.722428 
L 364.395913 123.829434 
L 364.300895 120.93644 
L 364.218267 118.043446 
L 364.149112 115.150453 
L 364.093368 112.257459 
L 364.050063 109.364465 
L 364.017616 106.471471 
L 363.994156 103.578477 
L 363.977778 100.685483 
L 363.966733 97.792489 
L 363.959534 94.899495 
" style="fill:none;stroke:#1f77b4;stroke-linecap:round;stroke-width:1.5;"/>
   </g>
   <g id="patch_8">
    <path d="M 363.94861 389.83875 
L 363.94861 86.366638 
" style="fill:none;"/>
   </g>
  </g>
 </g>
 <defs>
  <clipPath id="peda192ad05">
   <rect height="303.472112" width="298.832457" x="52.123438" y="86.366638"/>
  </clipPath>
  <clipPath id="p550cd90951">
   <rect height="65.972198" width="298.832457" x="52.123438" y="7.2"/>
  </clipPath>
  <clipPath id="p375657c5de">
   <rect height="303.472112" width="64.963578" x="363.94861" y="86.366638"/>
  </clipPath>
 </defs>
</svg>
