<?xml version="1.0" encoding="utf-8" standalone="no"?>
<!DOCTYPE svg PUBLIC "-//W3C//DTD SVG 1.1//EN"
  "http://www.w3.org/Graphics/SVG/1.1/DTD/svg11.dtd">
<!-- Created with matplotlib (http://matplotlib.org/) -->
<svg height="424pt" version="1.1" viewBox="0 0 436 424" width="436pt" xmlns="http://www.w3.org/2000/svg" xmlns:xlink="http://www.w3.org/1999/xlink">
 <defs>
  <style type="text/css">
*{stroke-linecap:butt;stroke-linejoin:round;}
  </style>
 </defs>
 <g id="figure_1">
  <g id="patch_1">
   <path d="M 0 424.173125 
L 436.112187 424.173125 
L 436.112187 0 
L 0 0 
z
" style="fill:#ffffff;"/>
  </g>
  <g id="axes_1">
   <g id="patch_2">
    <path d="M 52.123438 389.83875 
L 350.955894 389.83875 
L 350.955894 86.366638 
L 52.123438 86.366638 
z
" style="fill:#eaeaf2;"/>
   </g>
   <g id="matplotlib.axis_1">
    <g id="xtick_1">
     <g id="line2d_1">
      <path clip-path="url(#pf4c5e12a00)" d="M 99.222949 389.83875 
L 99.222949 86.366638 
" style="fill:none;stroke:#ffffff;stroke-linecap:round;stroke-width:0.8;"/>
     </g>
     <g id="line2d_2"/>
     <g id="text_1">
      <!-- 0 -->
      <defs>
       <path d="M 31.78125 66.40625 
Q 24.171875 66.40625 20.328125 58.90625 
Q 16.5 51.421875 16.5 36.375 
Q 16.5 21.390625 20.328125 13.890625 
Q 24.171875 6.390625 31.78125 6.390625 
Q 39.453125 6.390625 43.28125 13.890625 
Q 47.125 21.390625 47.125 36.375 
Q 47.125 51.421875 43.28125 58.90625 
Q 39.453125 66.40625 31.78125 66.40625 
z
M 31.78125 74.21875 
Q 44.046875 74.21875 50.515625 64.515625 
Q 56.984375 54.828125 56.984375 36.375 
Q 56.984375 17.96875 50.515625 8.265625 
Q 44.046875 -1.421875 31.78125 -1.421875 
Q 19.53125 -1.421875 13.0625 8.265625 
Q 6.59375 17.96875 6.59375 36.375 
Q 6.59375 54.828125 13.0625 64.515625 
Q 19.53125 74.21875 31.78125 74.21875 
z
" id="DejaVuSans-30"/>
      </defs>
      <g style="fill:#262626;" transform="translate(96.041699 400.937187)scale(0.1 -0.1)">
       <use xlink:href="#DejaVuSans-30"/>
      </g>
     </g>
    </g>
    <g id="xtick_2">
     <g id="line2d_3">
      <path clip-path="url(#pf4c5e12a00)" d="M 149.073357 389.83875 
L 149.073357 86.366638 
" style="fill:none;stroke:#ffffff;stroke-linecap:round;stroke-width:0.8;"/>
     </g>
     <g id="line2d_4"/>
     <g id="text_2">
      <!-- 200 -->
      <defs>
       <path d="M 19.1875 8.296875 
L 53.609375 8.296875 
L 53.609375 0 
L 7.328125 0 
L 7.328125 8.296875 
Q 12.9375 14.109375 22.625 23.890625 
Q 32.328125 33.6875 34.8125 36.53125 
Q 39.546875 41.84375 41.421875 45.53125 
Q 43.3125 49.21875 43.3125 52.78125 
Q 43.3125 58.59375 39.234375 62.25 
Q 35.15625 65.921875 28.609375 65.921875 
Q 23.96875 65.921875 18.8125 64.3125 
Q 13.671875 62.703125 7.8125 59.421875 
L 7.8125 69.390625 
Q 13.765625 71.78125 18.9375 73 
Q 24.125 74.21875 28.421875 74.21875 
Q 39.75 74.21875 46.484375 68.546875 
Q 53.21875 62.890625 53.21875 53.421875 
Q 53.21875 48.921875 51.53125 44.890625 
Q 49.859375 40.875 45.40625 35.40625 
Q 44.1875 33.984375 37.640625 27.21875 
Q 31.109375 20.453125 19.1875 8.296875 
z
" id="DejaVuSans-32"/>
      </defs>
      <g style="fill:#262626;" transform="translate(139.529607 400.937187)scale(0.1 -0.1)">
       <use xlink:href="#DejaVuSans-32"/>
       <use x="63.623047" xlink:href="#DejaVuSans-30"/>
       <use x="127.246094" xlink:href="#DejaVuSans-30"/>
      </g>
     </g>
    </g>
    <g id="xtick_3">
     <g id="line2d_5">
      <path clip-path="url(#pf4c5e12a00)" d="M 198.923766 389.83875 
L 198.923766 86.366638 
" style="fill:none;stroke:#ffffff;stroke-linecap:round;stroke-width:0.8;"/>
     </g>
     <g id="line2d_6"/>
     <g id="text_3">
      <!-- 400 -->
      <defs>
       <path d="M 37.796875 64.3125 
L 12.890625 25.390625 
L 37.796875 25.390625 
z
M 35.203125 72.90625 
L 47.609375 72.90625 
L 47.609375 25.390625 
L 58.015625 25.390625 
L 58.015625 17.1875 
L 47.609375 17.1875 
L 47.609375 0 
L 37.796875 0 
L 37.796875 17.1875 
L 4.890625 17.1875 
L 4.890625 26.703125 
z
" id="DejaVuSans-34"/>
      </defs>
      <g style="fill:#262626;" transform="translate(189.380016 400.937187)scale(0.1 -0.1)">
       <use xlink:href="#DejaVuSans-34"/>
       <use x="63.623047" xlink:href="#DejaVuSans-30"/>
       <use x="127.246094" xlink:href="#DejaVuSans-30"/>
      </g>
     </g>
    </g>
    <g id="xtick_4">
     <g id="line2d_7">
      <path clip-path="url(#pf4c5e12a00)" d="M 248.774174 389.83875 
L 248.774174 86.366638 
" style="fill:none;stroke:#ffffff;stroke-linecap:round;stroke-width:0.8;"/>
     </g>
     <g id="line2d_8"/>
     <g id="text_4">
      <!-- 600 -->
      <defs>
       <path d="M 33.015625 40.375 
Q 26.375 40.375 22.484375 35.828125 
Q 18.609375 31.296875 18.609375 23.390625 
Q 18.609375 15.53125 22.484375 10.953125 
Q 26.375 6.390625 33.015625 6.390625 
Q 39.65625 6.390625 43.53125 10.953125 
Q 47.40625 15.53125 47.40625 23.390625 
Q 47.40625 31.296875 43.53125 35.828125 
Q 39.65625 40.375 33.015625 40.375 
z
M 52.59375 71.296875 
L 52.59375 62.3125 
Q 48.875 64.0625 45.09375 64.984375 
Q 41.3125 65.921875 37.59375 65.921875 
Q 27.828125 65.921875 22.671875 59.328125 
Q 17.53125 52.734375 16.796875 39.40625 
Q 19.671875 43.65625 24.015625 45.921875 
Q 28.375 48.1875 33.59375 48.1875 
Q 44.578125 48.1875 50.953125 41.515625 
Q 57.328125 34.859375 57.328125 23.390625 
Q 57.328125 12.15625 50.6875 5.359375 
Q 44.046875 -1.421875 33.015625 -1.421875 
Q 20.359375 -1.421875 13.671875 8.265625 
Q 6.984375 17.96875 6.984375 36.375 
Q 6.984375 53.65625 15.1875 63.9375 
Q 23.390625 74.21875 37.203125 74.21875 
Q 40.921875 74.21875 44.703125 73.484375 
Q 48.484375 72.75 52.59375 71.296875 
z
" id="DejaVuSans-36"/>
      </defs>
      <g style="fill:#262626;" transform="translate(239.230424 400.937187)scale(0.1 -0.1)">
       <use xlink:href="#DejaVuSans-36"/>
       <use x="63.623047" xlink:href="#DejaVuSans-30"/>
       <use x="127.246094" xlink:href="#DejaVuSans-30"/>
      </g>
     </g>
    </g>
    <g id="xtick_5">
     <g id="line2d_9">
      <path clip-path="url(#pf4c5e12a00)" d="M 298.624583 389.83875 
L 298.624583 86.366638 
" style="fill:none;stroke:#ffffff;stroke-linecap:round;stroke-width:0.8;"/>
     </g>
     <g id="line2d_10"/>
     <g id="text_5">
      <!-- 800 -->
      <defs>
       <path d="M 31.78125 34.625 
Q 24.75 34.625 20.71875 30.859375 
Q 16.703125 27.09375 16.703125 20.515625 
Q 16.703125 13.921875 20.71875 10.15625 
Q 24.75 6.390625 31.78125 6.390625 
Q 38.8125 6.390625 42.859375 10.171875 
Q 46.921875 13.96875 46.921875 20.515625 
Q 46.921875 27.09375 42.890625 30.859375 
Q 38.875 34.625 31.78125 34.625 
z
M 21.921875 38.8125 
Q 15.578125 40.375 12.03125 44.71875 
Q 8.5 49.078125 8.5 55.328125 
Q 8.5 64.0625 14.71875 69.140625 
Q 20.953125 74.21875 31.78125 74.21875 
Q 42.671875 74.21875 48.875 69.140625 
Q 55.078125 64.0625 55.078125 55.328125 
Q 55.078125 49.078125 51.53125 44.71875 
Q 48 40.375 41.703125 38.8125 
Q 48.828125 37.15625 52.796875 32.3125 
Q 56.78125 27.484375 56.78125 20.515625 
Q 56.78125 9.90625 50.3125 4.234375 
Q 43.84375 -1.421875 31.78125 -1.421875 
Q 19.734375 -1.421875 13.25 4.234375 
Q 6.78125 9.90625 6.78125 20.515625 
Q 6.78125 27.484375 10.78125 32.3125 
Q 14.796875 37.15625 21.921875 38.8125 
z
M 18.3125 54.390625 
Q 18.3125 48.734375 21.84375 45.5625 
Q 25.390625 42.390625 31.78125 42.390625 
Q 38.140625 42.390625 41.71875 45.5625 
Q 45.3125 48.734375 45.3125 54.390625 
Q 45.3125 60.0625 41.71875 63.234375 
Q 38.140625 66.40625 31.78125 66.40625 
Q 25.390625 66.40625 21.84375 63.234375 
Q 18.3125 60.0625 18.3125 54.390625 
z
" id="DejaVuSans-38"/>
      </defs>
      <g style="fill:#262626;" transform="translate(289.080833 400.937187)scale(0.1 -0.1)">
       <use xlink:href="#DejaVuSans-38"/>
       <use x="63.623047" xlink:href="#DejaVuSans-30"/>
       <use x="127.246094" xlink:href="#DejaVuSans-30"/>
      </g>
     </g>
    </g>
    <g id="xtick_6">
     <g id="line2d_11">
      <path clip-path="url(#pf4c5e12a00)" d="M 348.474991 389.83875 
L 348.474991 86.366638 
" style="fill:none;stroke:#ffffff;stroke-linecap:round;stroke-width:0.8;"/>
     </g>
     <g id="line2d_12"/>
     <g id="text_6">
      <!-- 1000 -->
      <defs>
       <path d="M 12.40625 8.296875 
L 28.515625 8.296875 
L 28.515625 63.921875 
L 10.984375 60.40625 
L 10.984375 69.390625 
L 28.421875 72.90625 
L 38.28125 72.90625 
L 38.28125 8.296875 
L 54.390625 8.296875 
L 54.390625 0 
L 12.40625 0 
z
" id="DejaVuSans-31"/>
      </defs>
      <g style="fill:#262626;" transform="translate(335.749991 400.937187)scale(0.1 -0.1)">
       <use xlink:href="#DejaVuSans-31"/>
       <use x="63.623047" xlink:href="#DejaVuSans-30"/>
       <use x="127.246094" xlink:href="#DejaVuSans-30"/>
       <use x="190.869141" xlink:href="#DejaVuSans-30"/>
      </g>
     </g>
    </g>
    <g id="text_7">
     <!-- Sum_Credit -->
     <defs>
      <path d="M 53.515625 70.515625 
L 53.515625 60.890625 
Q 47.90625 63.578125 42.921875 64.890625 
Q 37.9375 66.21875 33.296875 66.21875 
Q 25.25 66.21875 20.875 63.09375 
Q 16.5 59.96875 16.5 54.203125 
Q 16.5 49.359375 19.40625 46.890625 
Q 22.3125 44.4375 30.421875 42.921875 
L 36.375 41.703125 
Q 47.40625 39.59375 52.65625 34.296875 
Q 57.90625 29 57.90625 20.125 
Q 57.90625 9.515625 50.796875 4.046875 
Q 43.703125 -1.421875 29.984375 -1.421875 
Q 24.8125 -1.421875 18.96875 -0.25 
Q 13.140625 0.921875 6.890625 3.21875 
L 6.890625 13.375 
Q 12.890625 10.015625 18.65625 8.296875 
Q 24.421875 6.59375 29.984375 6.59375 
Q 38.421875 6.59375 43.015625 9.90625 
Q 47.609375 13.234375 47.609375 19.390625 
Q 47.609375 24.75 44.3125 27.78125 
Q 41.015625 30.8125 33.5 32.328125 
L 27.484375 33.5 
Q 16.453125 35.6875 11.515625 40.375 
Q 6.59375 45.0625 6.59375 53.421875 
Q 6.59375 63.09375 13.40625 68.65625 
Q 20.21875 74.21875 32.171875 74.21875 
Q 37.3125 74.21875 42.625 73.28125 
Q 47.953125 72.359375 53.515625 70.515625 
z
" id="DejaVuSans-53"/>
      <path d="M 8.5 21.578125 
L 8.5 54.6875 
L 17.484375 54.6875 
L 17.484375 21.921875 
Q 17.484375 14.15625 20.5 10.265625 
Q 23.53125 6.390625 29.59375 6.390625 
Q 36.859375 6.390625 41.078125 11.03125 
Q 45.3125 15.671875 45.3125 23.6875 
L 45.3125 54.6875 
L 54.296875 54.6875 
L 54.296875 0 
L 45.3125 0 
L 45.3125 8.40625 
Q 42.046875 3.421875 37.71875 1 
Q 33.40625 -1.421875 27.6875 -1.421875 
Q 18.265625 -1.421875 13.375 4.4375 
Q 8.5 10.296875 8.5 21.578125 
z
M 31.109375 56 
z
" id="DejaVuSans-75"/>
      <path d="M 52 44.1875 
Q 55.375 50.25 60.0625 53.125 
Q 64.75 56 71.09375 56 
Q 79.640625 56 84.28125 50.015625 
Q 88.921875 44.046875 88.921875 33.015625 
L 88.921875 0 
L 79.890625 0 
L 79.890625 32.71875 
Q 79.890625 40.578125 77.09375 44.375 
Q 74.3125 48.1875 68.609375 48.1875 
Q 61.625 48.1875 57.5625 43.546875 
Q 53.515625 38.921875 53.515625 30.90625 
L 53.515625 0 
L 44.484375 0 
L 44.484375 32.71875 
Q 44.484375 40.625 41.703125 44.40625 
Q 38.921875 48.1875 33.109375 48.1875 
Q 26.21875 48.1875 22.15625 43.53125 
Q 18.109375 38.875 18.109375 30.90625 
L 18.109375 0 
L 9.078125 0 
L 9.078125 54.6875 
L 18.109375 54.6875 
L 18.109375 46.1875 
Q 21.1875 51.21875 25.484375 53.609375 
Q 29.78125 56 35.6875 56 
Q 41.65625 56 45.828125 52.96875 
Q 50 49.953125 52 44.1875 
z
" id="DejaVuSans-6d"/>
      <path d="M 50.984375 -16.609375 
L 50.984375 -23.578125 
L -0.984375 -23.578125 
L -0.984375 -16.609375 
z
" id="DejaVuSans-5f"/>
      <path d="M 64.40625 67.28125 
L 64.40625 56.890625 
Q 59.421875 61.53125 53.78125 63.8125 
Q 48.140625 66.109375 41.796875 66.109375 
Q 29.296875 66.109375 22.65625 58.46875 
Q 16.015625 50.828125 16.015625 36.375 
Q 16.015625 21.96875 22.65625 14.328125 
Q 29.296875 6.6875 41.796875 6.6875 
Q 48.140625 6.6875 53.78125 8.984375 
Q 59.421875 11.28125 64.40625 15.921875 
L 64.40625 5.609375 
Q 59.234375 2.09375 53.4375 0.328125 
Q 47.65625 -1.421875 41.21875 -1.421875 
Q 24.65625 -1.421875 15.125 8.703125 
Q 5.609375 18.84375 5.609375 36.375 
Q 5.609375 53.953125 15.125 64.078125 
Q 24.65625 74.21875 41.21875 74.21875 
Q 47.75 74.21875 53.53125 72.484375 
Q 59.328125 70.75 64.40625 67.28125 
z
" id="DejaVuSans-43"/>
      <path d="M 41.109375 46.296875 
Q 39.59375 47.171875 37.8125 47.578125 
Q 36.03125 48 33.890625 48 
Q 26.265625 48 22.1875 43.046875 
Q 18.109375 38.09375 18.109375 28.8125 
L 18.109375 0 
L 9.078125 0 
L 9.078125 54.6875 
L 18.109375 54.6875 
L 18.109375 46.1875 
Q 20.953125 51.171875 25.484375 53.578125 
Q 30.03125 56 36.53125 56 
Q 37.453125 56 38.578125 55.875 
Q 39.703125 55.765625 41.0625 55.515625 
z
" id="DejaVuSans-72"/>
      <path d="M 56.203125 29.59375 
L 56.203125 25.203125 
L 14.890625 25.203125 
Q 15.484375 15.921875 20.484375 11.0625 
Q 25.484375 6.203125 34.421875 6.203125 
Q 39.59375 6.203125 44.453125 7.46875 
Q 49.3125 8.734375 54.109375 11.28125 
L 54.109375 2.78125 
Q 49.265625 0.734375 44.1875 -0.34375 
Q 39.109375 -1.421875 33.890625 -1.421875 
Q 20.796875 -1.421875 13.15625 6.1875 
Q 5.515625 13.8125 5.515625 26.8125 
Q 5.515625 40.234375 12.765625 48.109375 
Q 20.015625 56 32.328125 56 
Q 43.359375 56 49.78125 48.890625 
Q 56.203125 41.796875 56.203125 29.59375 
z
M 47.21875 32.234375 
Q 47.125 39.59375 43.09375 43.984375 
Q 39.0625 48.390625 32.421875 48.390625 
Q 24.90625 48.390625 20.390625 44.140625 
Q 15.875 39.890625 15.1875 32.171875 
z
" id="DejaVuSans-65"/>
      <path d="M 45.40625 46.390625 
L 45.40625 75.984375 
L 54.390625 75.984375 
L 54.390625 0 
L 45.40625 0 
L 45.40625 8.203125 
Q 42.578125 3.328125 38.25 0.953125 
Q 33.9375 -1.421875 27.875 -1.421875 
Q 17.96875 -1.421875 11.734375 6.484375 
Q 5.515625 14.40625 5.515625 27.296875 
Q 5.515625 40.1875 11.734375 48.09375 
Q 17.96875 56 27.875 56 
Q 33.9375 56 38.25 53.625 
Q 42.578125 51.265625 45.40625 46.390625 
z
M 14.796875 27.296875 
Q 14.796875 17.390625 18.875 11.75 
Q 22.953125 6.109375 30.078125 6.109375 
Q 37.203125 6.109375 41.296875 11.75 
Q 45.40625 17.390625 45.40625 27.296875 
Q 45.40625 37.203125 41.296875 42.84375 
Q 37.203125 48.484375 30.078125 48.484375 
Q 22.953125 48.484375 18.875 42.84375 
Q 14.796875 37.203125 14.796875 27.296875 
z
" id="DejaVuSans-64"/>
      <path d="M 9.421875 54.6875 
L 18.40625 54.6875 
L 18.40625 0 
L 9.421875 0 
z
M 9.421875 75.984375 
L 18.40625 75.984375 
L 18.40625 64.59375 
L 9.421875 64.59375 
z
" id="DejaVuSans-69"/>
      <path d="M 18.3125 70.21875 
L 18.3125 54.6875 
L 36.8125 54.6875 
L 36.8125 47.703125 
L 18.3125 47.703125 
L 18.3125 18.015625 
Q 18.3125 11.328125 20.140625 9.421875 
Q 21.96875 7.515625 27.59375 7.515625 
L 36.8125 7.515625 
L 36.8125 0 
L 27.59375 0 
Q 17.1875 0 13.234375 3.875 
Q 9.28125 7.765625 9.28125 18.015625 
L 9.28125 47.703125 
L 2.6875 47.703125 
L 2.6875 54.6875 
L 9.28125 54.6875 
L 9.28125 70.21875 
z
" id="DejaVuSans-74"/>
     </defs>
     <g style="fill:#262626;" transform="translate(172.681072 414.615312)scale(0.1 -0.1)">
      <use xlink:href="#DejaVuSans-53"/>
      <use x="63.476562" xlink:href="#DejaVuSans-75"/>
      <use x="126.855469" xlink:href="#DejaVuSans-6d"/>
      <use x="224.267578" xlink:href="#DejaVuSans-5f"/>
      <use x="274.267578" xlink:href="#DejaVuSans-43"/>
      <use x="344.091797" xlink:href="#DejaVuSans-72"/>
      <use x="385.173828" xlink:href="#DejaVuSans-65"/>
      <use x="446.697266" xlink:href="#DejaVuSans-64"/>
      <use x="510.173828" xlink:href="#DejaVuSans-69"/>
      <use x="537.957031" xlink:href="#DejaVuSans-74"/>
     </g>
    </g>
   </g>
   <g id="matplotlib.axis_2">
    <g id="ytick_1">
     <g id="line2d_13">
      <path clip-path="url(#pf4c5e12a00)" d="M 52.123438 380.544599 
L 350.955894 380.544599 
" style="fill:none;stroke:#ffffff;stroke-linecap:round;stroke-width:0.8;"/>
     </g>
     <g id="line2d_14"/>
     <g id="text_8">
      <!-- −100 -->
      <defs>
       <path d="M 10.59375 35.5 
L 73.1875 35.5 
L 73.1875 27.203125 
L 10.59375 27.203125 
z
" id="DejaVuSans-2212"/>
      </defs>
      <g style="fill:#262626;" transform="translate(21.15625 384.343817)scale(0.1 -0.1)">
       <use xlink:href="#DejaVuSans-2212"/>
       <use x="83.789062" xlink:href="#DejaVuSans-31"/>
       <use x="147.412109" xlink:href="#DejaVuSans-30"/>
       <use x="211.035156" xlink:href="#DejaVuSans-30"/>
      </g>
     </g>
    </g>
    <g id="ytick_2">
     <g id="line2d_15">
      <path clip-path="url(#pf4c5e12a00)" d="M 52.123438 339.852725 
L 350.955894 339.852725 
" style="fill:none;stroke:#ffffff;stroke-linecap:round;stroke-width:0.8;"/>
     </g>
     <g id="line2d_16"/>
     <g id="text_9">
      <!-- 0 -->
      <g style="fill:#262626;" transform="translate(42.260937 343.651944)scale(0.1 -0.1)">
       <use xlink:href="#DejaVuSans-30"/>
      </g>
     </g>
    </g>
    <g id="ytick_3">
     <g id="line2d_17">
      <path clip-path="url(#pf4c5e12a00)" d="M 52.123438 299.160851 
L 350.955894 299.160851 
" style="fill:none;stroke:#ffffff;stroke-linecap:round;stroke-width:0.8;"/>
     </g>
     <g id="line2d_18"/>
     <g id="text_10">
      <!-- 100 -->
      <g style="fill:#262626;" transform="translate(29.535937 302.96007)scale(0.1 -0.1)">
       <use xlink:href="#DejaVuSans-31"/>
       <use x="63.623047" xlink:href="#DejaVuSans-30"/>
       <use x="127.246094" xlink:href="#DejaVuSans-30"/>
      </g>
     </g>
    </g>
    <g id="ytick_4">
     <g id="line2d_19">
      <path clip-path="url(#pf4c5e12a00)" d="M 52.123438 258.468977 
L 350.955894 258.468977 
" style="fill:none;stroke:#ffffff;stroke-linecap:round;stroke-width:0.8;"/>
     </g>
     <g id="line2d_20"/>
     <g id="text_11">
      <!-- 200 -->
      <g style="fill:#262626;" transform="translate(29.535937 262.268196)scale(0.1 -0.1)">
       <use xlink:href="#DejaVuSans-32"/>
       <use x="63.623047" xlink:href="#DejaVuSans-30"/>
       <use x="127.246094" xlink:href="#DejaVuSans-30"/>
      </g>
     </g>
    </g>
    <g id="ytick_5">
     <g id="line2d_21">
      <path clip-path="url(#pf4c5e12a00)" d="M 52.123438 217.777103 
L 350.955894 217.777103 
" style="fill:none;stroke:#ffffff;stroke-linecap:round;stroke-width:0.8;"/>
     </g>
     <g id="line2d_22"/>
     <g id="text_12">
      <!-- 300 -->
      <defs>
       <path d="M 40.578125 39.3125 
Q 47.65625 37.796875 51.625 33 
Q 55.609375 28.21875 55.609375 21.1875 
Q 55.609375 10.40625 48.1875 4.484375 
Q 40.765625 -1.421875 27.09375 -1.421875 
Q 22.515625 -1.421875 17.65625 -0.515625 
Q 12.796875 0.390625 7.625 2.203125 
L 7.625 11.71875 
Q 11.71875 9.328125 16.59375 8.109375 
Q 21.484375 6.890625 26.8125 6.890625 
Q 36.078125 6.890625 40.9375 10.546875 
Q 45.796875 14.203125 45.796875 21.1875 
Q 45.796875 27.640625 41.28125 31.265625 
Q 36.765625 34.90625 28.71875 34.90625 
L 20.21875 34.90625 
L 20.21875 43.015625 
L 29.109375 43.015625 
Q 36.375 43.015625 40.234375 45.921875 
Q 44.09375 48.828125 44.09375 54.296875 
Q 44.09375 59.90625 40.109375 62.90625 
Q 36.140625 65.921875 28.71875 65.921875 
Q 24.65625 65.921875 20.015625 65.03125 
Q 15.375 64.15625 9.8125 62.3125 
L 9.8125 71.09375 
Q 15.4375 72.65625 20.34375 73.4375 
Q 25.25 74.21875 29.59375 74.21875 
Q 40.828125 74.21875 47.359375 69.109375 
Q 53.90625 64.015625 53.90625 55.328125 
Q 53.90625 49.265625 50.4375 45.09375 
Q 46.96875 40.921875 40.578125 39.3125 
z
" id="DejaVuSans-33"/>
      </defs>
      <g style="fill:#262626;" transform="translate(29.535937 221.576322)scale(0.1 -0.1)">
       <use xlink:href="#DejaVuSans-33"/>
       <use x="63.623047" xlink:href="#DejaVuSans-30"/>
       <use x="127.246094" xlink:href="#DejaVuSans-30"/>
      </g>
     </g>
    </g>
    <g id="ytick_6">
     <g id="line2d_23">
      <path clip-path="url(#pf4c5e12a00)" d="M 52.123438 177.085229 
L 350.955894 177.085229 
" style="fill:none;stroke:#ffffff;stroke-linecap:round;stroke-width:0.8;"/>
     </g>
     <g id="line2d_24"/>
     <g id="text_13">
      <!-- 400 -->
      <g style="fill:#262626;" transform="translate(29.535937 180.884448)scale(0.1 -0.1)">
       <use xlink:href="#DejaVuSans-34"/>
       <use x="63.623047" xlink:href="#DejaVuSans-30"/>
       <use x="127.246094" xlink:href="#DejaVuSans-30"/>
      </g>
     </g>
    </g>
    <g id="ytick_7">
     <g id="line2d_25">
      <path clip-path="url(#pf4c5e12a00)" d="M 52.123438 136.393355 
L 350.955894 136.393355 
" style="fill:none;stroke:#ffffff;stroke-linecap:round;stroke-width:0.8;"/>
     </g>
     <g id="line2d_26"/>
     <g id="text_14">
      <!-- 500 -->
      <defs>
       <path d="M 10.796875 72.90625 
L 49.515625 72.90625 
L 49.515625 64.59375 
L 19.828125 64.59375 
L 19.828125 46.734375 
Q 21.96875 47.46875 24.109375 47.828125 
Q 26.265625 48.1875 28.421875 48.1875 
Q 40.625 48.1875 47.75 41.5 
Q 54.890625 34.8125 54.890625 23.390625 
Q 54.890625 11.625 47.5625 5.09375 
Q 40.234375 -1.421875 26.90625 -1.421875 
Q 22.3125 -1.421875 17.546875 -0.640625 
Q 12.796875 0.140625 7.71875 1.703125 
L 7.71875 11.625 
Q 12.109375 9.234375 16.796875 8.0625 
Q 21.484375 6.890625 26.703125 6.890625 
Q 35.15625 6.890625 40.078125 11.328125 
Q 45.015625 15.765625 45.015625 23.390625 
Q 45.015625 31 40.078125 35.4375 
Q 35.15625 39.890625 26.703125 39.890625 
Q 22.75 39.890625 18.8125 39.015625 
Q 14.890625 38.140625 10.796875 36.28125 
z
" id="DejaVuSans-35"/>
      </defs>
      <g style="fill:#262626;" transform="translate(29.535937 140.192574)scale(0.1 -0.1)">
       <use xlink:href="#DejaVuSans-35"/>
       <use x="63.623047" xlink:href="#DejaVuSans-30"/>
       <use x="127.246094" xlink:href="#DejaVuSans-30"/>
      </g>
     </g>
    </g>
    <g id="ytick_8">
     <g id="line2d_27">
      <path clip-path="url(#pf4c5e12a00)" d="M 52.123438 95.701481 
L 350.955894 95.701481 
" style="fill:none;stroke:#ffffff;stroke-linecap:round;stroke-width:0.8;"/>
     </g>
     <g id="line2d_28"/>
     <g id="text_15">
      <!-- 600 -->
      <g style="fill:#262626;" transform="translate(29.535937 99.5007)scale(0.1 -0.1)">
       <use xlink:href="#DejaVuSans-36"/>
       <use x="63.623047" xlink:href="#DejaVuSans-30"/>
       <use x="127.246094" xlink:href="#DejaVuSans-30"/>
      </g>
     </g>
    </g>
    <g id="text_16">
     <!-- Sum_Debit -->
     <defs>
      <path d="M 19.671875 64.796875 
L 19.671875 8.109375 
L 31.59375 8.109375 
Q 46.6875 8.109375 53.6875 14.9375 
Q 60.6875 21.78125 60.6875 36.53125 
Q 60.6875 51.171875 53.6875 57.984375 
Q 46.6875 64.796875 31.59375 64.796875 
z
M 9.8125 72.90625 
L 30.078125 72.90625 
Q 51.265625 72.90625 61.171875 64.09375 
Q 71.09375 55.28125 71.09375 36.53125 
Q 71.09375 17.671875 61.125 8.828125 
Q 51.171875 0 30.078125 0 
L 9.8125 0 
z
" id="DejaVuSans-44"/>
      <path d="M 48.6875 27.296875 
Q 48.6875 37.203125 44.609375 42.84375 
Q 40.53125 48.484375 33.40625 48.484375 
Q 26.265625 48.484375 22.1875 42.84375 
Q 18.109375 37.203125 18.109375 27.296875 
Q 18.109375 17.390625 22.1875 11.75 
Q 26.265625 6.109375 33.40625 6.109375 
Q 40.53125 6.109375 44.609375 11.75 
Q 48.6875 17.390625 48.6875 27.296875 
z
M 18.109375 46.390625 
Q 20.953125 51.265625 25.265625 53.625 
Q 29.59375 56 35.59375 56 
Q 45.5625 56 51.78125 48.09375 
Q 58.015625 40.1875 58.015625 27.296875 
Q 58.015625 14.40625 51.78125 6.484375 
Q 45.5625 -1.421875 35.59375 -1.421875 
Q 29.59375 -1.421875 25.265625 0.953125 
Q 20.953125 3.328125 18.109375 8.203125 
L 18.109375 0 
L 9.078125 0 
L 9.078125 75.984375 
L 18.109375 75.984375 
z
" id="DejaVuSans-62"/>
     </defs>
     <g style="fill:#262626;" transform="translate(14.798437 265.265975)rotate(-90)scale(0.1 -0.1)">
      <use xlink:href="#DejaVuSans-53"/>
      <use x="63.476562" xlink:href="#DejaVuSans-75"/>
      <use x="126.855469" xlink:href="#DejaVuSans-6d"/>
      <use x="224.267578" xlink:href="#DejaVuSans-5f"/>
      <use x="274.267578" xlink:href="#DejaVuSans-44"/>
      <use x="351.269531" xlink:href="#DejaVuSans-65"/>
      <use x="412.792969" xlink:href="#DejaVuSans-62"/>
      <use x="476.269531" xlink:href="#DejaVuSans-69"/>
      <use x="504.052734" xlink:href="#DejaVuSans-74"/>
     </g>
    </g>
   </g>
   <g id="PathCollection_1">
    <path clip-path="url(#pf4c5e12a00)" d="M 55.141947 389.83875 
L 58.160457 389.83875 
L 61.178966 389.83875 
L 64.197476 389.83875 
L 67.215986 389.83875 
L 70.234495 389.83875 
L 73.253005 389.83875 
L 76.271515 389.83875 
L 79.290024 389.83875 
L 82.308534 389.83875 
L 85.327044 389.83875 
L 88.345553 389.83875 
L 91.364063 389.83875 
L 94.382573 389.83875 
L 97.401082 389.83875 
L 100.419592 389.83875 
L 103.438102 389.83875 
L 106.456611 389.83875 
L 109.475121 389.83875 
L 112.493631 389.83875 
L 115.51214 389.83875 
L 118.53065 389.83875 
L 121.54916 389.83875 
L 124.567669 389.83875 
L 127.586179 389.83875 
L 130.604689 389.83875 
L 133.623198 389.83875 
L 136.641708 389.83875 
L 139.660218 389.83875 
L 142.678727 389.83875 
L 145.697237 389.83875 
L 148.715747 389.83875 
L 151.734256 389.83875 
L 154.752766 389.83875 
L 157.771276 389.83875 
L 160.789785 389.83875 
L 163.808295 389.83875 
L 166.826805 389.83875 
L 169.845314 389.83875 
L 172.863824 389.83875 
L 175.882334 389.83875 
L 178.900843 389.83875 
L 181.919353 389.83875 
L 184.937863 389.83875 
L 187.956372 389.83875 
L 190.974882 389.83875 
L 193.993392 389.83875 
L 197.011901 389.83875 
L 200.030411 389.83875 
L 203.048921 389.83875 
L 206.06743 389.83875 
L 209.08594 389.83875 
L 212.10445 389.83875 
L 215.122959 389.83875 
L 218.141469 389.83875 
L 221.159979 389.83875 
L 224.178488 389.83875 
L 227.196998 389.83875 
L 230.215508 389.83875 
L 233.234017 389.83875 
L 236.252527 389.83875 
L 239.271037 389.83875 
L 242.289546 389.83875 
L 245.308056 389.83875 
L 248.326566 389.83875 
L 251.345075 389.83875 
L 254.363585 389.83875 
L 257.382095 389.83875 
L 260.400604 389.83875 
L 263.419114 389.83875 
L 266.437624 389.83875 
L 269.456133 389.83875 
L 272.474643 389.83875 
L 275.493153 389.83875 
L 278.511662 389.83875 
L 281.530172 389.83875 
L 284.548682 389.83875 
L 287.567191 389.83875 
L 290.585701 389.83875 
L 293.604211 389.83875 
L 296.62272 389.83875 
L 299.64123 389.83875 
L 302.65974 389.83875 
L 305.678249 389.83875 
L 308.696759 389.83875 
L 311.715269 389.83875 
L 314.733778 389.83875 
L 317.752288 389.83875 
L 320.770798 389.83875 
L 323.789307 389.83875 
L 326.807817 389.83875 
L 329.826327 389.83875 
L 332.844836 389.83875 
L 335.863346 389.83875 
L 338.881856 389.83875 
L 341.900365 389.83875 
L 344.918875 389.83875 
L 347.937385 389.83875 
L 350.955894 389.83875 
L 350.955894 386.773375 
L 350.955894 383.708 
L 350.955894 380.642625 
L 350.955894 377.577251 
L 350.955894 374.511876 
L 350.955894 371.446501 
L 350.955894 368.381126 
L 350.955894 365.315751 
L 350.955894 362.250376 
L 350.955894 359.185001 
L 350.955894 356.119626 
L 350.955894 353.054252 
L 350.955894 349.988877 
L 350.955894 346.923502 
L 350.955894 343.858127 
L 350.955894 340.792752 
L 350.955894 337.727377 
L 350.955894 334.662002 
L 350.955894 331.596627 
L 350.955894 328.531253 
L 350.955894 325.465878 
L 350.955894 322.400503 
L 350.955894 319.335128 
L 350.955894 316.269753 
L 350.955894 313.204378 
L 350.955894 310.139003 
L 350.955894 307.073629 
L 350.955894 304.008254 
L 350.955894 300.942879 
L 350.955894 297.877504 
L 350.955894 294.812129 
L 350.955894 291.746754 
L 350.955894 288.681379 
L 350.955894 285.616004 
L 350.955894 282.55063 
L 350.955894 279.485255 
L 350.955894 276.41988 
L 350.955894 273.354505 
L 350.955894 270.28913 
L 350.955894 267.223755 
L 350.955894 264.15838 
L 350.955894 261.093005 
L 350.955894 258.027631 
L 350.955894 254.962256 
L 350.955894 251.896881 
L 350.955894 248.831506 
L 350.955894 245.766131 
L 350.955894 242.700756 
L 350.955894 239.635381 
L 350.955894 236.570007 
L 350.955894 233.504632 
L 350.955894 230.439257 
L 350.955894 227.373882 
L 350.955894 224.308507 
L 350.955894 221.243132 
L 350.955894 218.177757 
L 350.955894 215.112382 
L 350.955894 212.047008 
L 350.955894 208.981633 
L 350.955894 205.916258 
L 350.955894 202.850883 
L 350.955894 199.785508 
L 350.955894 196.720133 
L 350.955894 193.654758 
L 350.955894 190.589383 
L 350.955894 187.524009 
L 350.955894 184.458634 
L 350.955894 181.393259 
L 350.955894 178.327884 
L 350.955894 175.262509 
L 350.955894 172.197134 
L 350.955894 169.131759 
L 350.955894 166.066385 
L 350.955894 163.00101 
L 350.955894 159.935635 
L 350.955894 156.87026 
L 350.955894 153.804885 
L 350.955894 150.73951 
L 350.955894 147.674135 
L 350.955894 144.60876 
L 350.955894 141.543386 
L 350.955894 138.478011 
L 350.955894 135.412636 
L 350.955894 132.347261 
L 350.955894 129.281886 
L 350.955894 126.216511 
L 350.955894 123.151136 
L 350.955894 120.085761 
L 350.955894 117.020387 
L 350.955894 113.955012 
L 350.955894 110.889637 
L 350.955894 107.824262 
L 350.955894 104.758887 
L 350.955894 101.693512 
L 350.955894 98.628137 
L 350.955894 95.562763 
L 350.955894 92.497388 
L 350.955894 89.432013 
L 350.955894 86.366638 
L 347.937385 86.366638 
L 344.918875 86.366638 
L 341.900365 86.366638 
L 338.881856 86.366638 
L 335.863346 86.366638 
L 332.844836 86.366638 
L 329.826327 86.366638 
L 326.807817 86.366638 
L 323.789307 86.366638 
L 320.770798 86.366638 
L 317.752288 86.366638 
L 314.733778 86.366638 
L 311.715269 86.366638 
L 308.696759 86.366638 
L 305.678249 86.366638 
L 302.65974 86.366638 
L 299.64123 86.366638 
L 296.62272 86.366638 
L 293.604211 86.366638 
L 290.585701 86.366638 
L 287.567191 86.366638 
L 284.548682 86.366638 
L 281.530172 86.366638 
L 278.511662 86.366638 
L 275.493153 86.366638 
L 272.474643 86.366638 
L 269.456133 86.366638 
L 266.437624 86.366638 
L 263.419114 86.366638 
L 260.400604 86.366638 
L 257.382095 86.366638 
L 254.363585 86.366638 
L 251.345075 86.366638 
L 248.326566 86.366638 
L 245.308056 86.366638 
L 242.289546 86.366638 
L 239.271037 86.366638 
L 236.252527 86.366638 
L 233.234017 86.366638 
L 230.215508 86.366638 
L 227.196998 86.366638 
L 224.178488 86.366638 
L 221.159979 86.366638 
L 218.141469 86.366638 
L 215.122959 86.366638 
L 212.10445 86.366638 
L 209.08594 86.366638 
L 206.06743 86.366638 
L 203.048921 86.366638 
L 200.030411 86.366638 
L 197.011901 86.366638 
L 193.993392 86.366638 
L 190.974882 86.366638 
L 187.956372 86.366638 
L 184.937863 86.366638 
L 181.919353 86.366638 
L 178.900843 86.366638 
L 175.882334 86.366638 
L 172.863824 86.366638 
L 169.845314 86.366638 
L 166.826805 86.366638 
L 163.808295 86.366638 
L 160.789785 86.366638 
L 157.771276 86.366638 
L 154.752766 86.366638 
L 151.734256 86.366638 
L 148.715747 86.366638 
L 145.697237 86.366638 
L 142.678727 86.366638 
L 139.660218 86.366638 
L 136.641708 86.366638 
L 133.623198 86.366638 
L 130.604689 86.366638 
L 127.586179 86.366638 
L 124.567669 86.366638 
L 121.54916 86.366638 
L 118.53065 86.366638 
L 115.51214 86.366638 
L 112.493631 86.366638 
L 109.475121 86.366638 
L 106.456611 86.366638 
L 103.438102 86.366638 
L 100.419592 86.366638 
L 97.401082 86.366638 
L 94.382573 86.366638 
L 91.364063 86.366638 
L 88.345553 86.366638 
L 85.327044 86.366638 
L 82.308534 86.366638 
L 79.290024 86.366638 
L 76.271515 86.366638 
L 73.253005 86.366638 
L 70.234495 86.366638 
L 67.215986 86.366638 
L 64.197476 86.366638 
L 61.178966 86.366638 
L 58.160457 86.366638 
L 55.141947 86.366638 
L 52.123438 86.366638 
L 52.123438 89.432013 
L 52.123438 92.497388 
L 52.123438 95.562763 
L 52.123438 98.628137 
L 52.123438 101.693512 
L 52.123438 104.758887 
L 52.123438 107.824262 
L 52.123438 110.889637 
L 52.123438 113.955012 
L 52.123438 117.020387 
L 52.123438 120.085761 
L 52.123438 123.151136 
L 52.123438 126.216511 
L 52.123438 129.281886 
L 52.123438 132.347261 
L 52.123438 135.412636 
L 52.123438 138.478011 
L 52.123438 141.543386 
L 52.123438 144.60876 
L 52.123438 147.674135 
L 52.123438 150.73951 
L 52.123438 153.804885 
L 52.123438 156.87026 
L 52.123438 159.935635 
L 52.123438 163.00101 
L 52.123438 166.066385 
L 52.123438 169.131759 
L 52.123438 172.197134 
L 52.123438 175.262509 
L 52.123438 178.327884 
L 52.123438 181.393259 
L 52.123438 184.458634 
L 52.123438 187.524009 
L 52.123438 190.589383 
L 52.123438 193.654758 
L 52.123438 196.720133 
L 52.123438 199.785508 
L 52.123438 202.850883 
L 52.123438 205.916258 
L 52.123438 208.981633 
L 52.123438 212.047008 
L 52.123438 215.112382 
L 52.123438 218.177757 
L 52.123438 221.243132 
L 52.123438 224.308507 
L 52.123438 227.373882 
L 52.123438 230.439257 
L 52.123438 233.504632 
L 52.123438 236.570007 
L 52.123438 239.635381 
L 52.123438 242.700756 
L 52.123438 245.766131 
L 52.123438 248.831506 
L 52.123438 251.896881 
L 52.123438 254.962256 
L 52.123438 258.027631 
L 52.123438 261.093005 
L 52.123438 264.15838 
L 52.123438 267.223755 
L 52.123438 270.28913 
L 52.123438 273.354505 
L 52.123438 276.41988 
L 52.123438 279.485255 
L 52.123438 282.55063 
L 52.123438 285.616004 
L 52.123438 288.681379 
L 52.123438 291.746754 
L 52.123438 294.812129 
L 52.123438 297.877504 
L 52.123438 300.942879 
L 52.123438 304.008254 
L 52.123438 307.073629 
L 52.123438 310.139003 
L 52.123438 313.204378 
L 52.123438 316.269753 
L 52.123438 319.335128 
L 52.123438 322.400503 
L 52.123438 325.465878 
L 52.123438 328.531253 
L 52.123438 331.596627 
L 52.123438 334.662002 
L 52.123438 337.727377 
L 52.123438 340.792752 
L 52.123438 343.858127 
L 52.123438 346.923502 
L 52.123438 349.988877 
L 52.123438 353.054252 
L 52.123438 356.119626 
L 52.123438 359.185001 
L 52.123438 362.250376 
L 52.123438 365.315751 
L 52.123438 368.381126 
L 52.123438 371.446501 
L 52.123438 374.511876 
L 52.123438 377.577251 
L 52.123438 380.642625 
L 52.123438 383.708 
L 52.123438 386.773375 
L 52.123438 389.83875 
z
M 79.298912 365.315751 
L 79.290024 365.311259 
L 76.271515 363.203935 
L 75.265042 362.250376 
L 73.253005 359.901284 
L 72.727217 359.185001 
L 70.968176 356.119626 
L 70.234495 354.254215 
L 69.747907 353.054252 
L 68.852538 349.988877 
L 68.29658 346.923502 
L 67.99188 343.858127 
L 67.883631 340.792752 
L 67.93978 337.727377 
L 68.144777 334.662002 
L 68.496058 331.596627 
L 69.002424 328.531253 
L 69.683792 325.465878 
L 70.234495 323.499986 
L 70.475537 322.400503 
L 71.279414 319.335128 
L 72.287617 316.269753 
L 73.253005 313.85447 
L 73.469477 313.204378 
L 74.606394 310.139003 
L 76.008324 307.073629 
L 76.271515 306.534718 
L 77.356469 304.008254 
L 78.909009 300.942879 
L 79.290024 300.224758 
L 80.431633 297.877504 
L 82.131263 294.812129 
L 82.308534 294.492023 
L 83.752844 291.746754 
L 85.327044 289.051753 
L 85.540486 288.681379 
L 87.276549 285.616004 
L 88.345553 283.829928 
L 89.125435 282.55063 
L 91.053321 279.485255 
L 91.364063 278.990527 
L 93.063194 276.41988 
L 94.382573 274.518807 
L 95.270383 273.354505 
L 97.401082 270.643569 
L 97.721798 270.28913 
L 100.419592 267.341635 
L 100.550314 267.223755 
L 103.438102 264.597637 
L 104.057223 264.15838 
L 106.456611 262.404474 
L 108.904587 261.093005 
L 109.475121 260.770739 
L 112.493631 259.569235 
L 115.51214 258.833604 
L 118.53065 258.468531 
L 121.54916 258.368914 
L 124.567669 258.418162 
L 127.586179 258.501782 
L 130.604689 258.528756 
L 133.623198 258.449045 
L 136.641708 258.261346 
L 139.543185 258.027631 
L 139.660218 258.016762 
L 142.678727 257.844471 
L 145.697237 257.990749 
L 145.848287 258.027631 
L 148.715747 259.172267 
L 150.326837 261.093005 
L 151.228137 264.15838 
L 151.368196 267.223755 
L 151.223169 270.28913 
L 150.989094 273.354505 
L 150.764831 276.41988 
L 150.615492 279.485255 
L 150.601817 282.55063 
L 150.798106 285.616004 
L 151.305949 288.681379 
L 151.734256 290.07065 
L 152.463835 291.746754 
L 154.752766 294.788102 
L 154.783355 294.812129 
L 157.771276 296.451084 
L 160.789785 297.295049 
L 163.808295 297.685371 
L 166.826805 297.856818 
L 167.375325 297.877504 
L 169.845314 297.964547 
L 172.863824 298.143172 
L 175.882334 298.511552 
L 178.900843 299.198556 
L 181.919353 300.357646 
L 182.962358 300.942879 
L 184.937863 302.162475 
L 187.059261 304.008254 
L 187.956372 304.925767 
L 189.614804 307.073629 
L 190.974882 309.348654 
L 191.384327 310.139003 
L 192.589345 313.204378 
L 193.338522 316.269753 
L 193.674759 319.335128 
L 193.626433 322.400503 
L 193.206694 325.465878 
L 192.410099 328.531253 
L 191.206671 331.596627 
L 190.974882 332.04007 
L 189.665233 334.662002 
L 187.956372 337.301331 
L 187.679894 337.727377 
L 185.258401 340.792752 
L 184.937863 341.142226 
L 182.263592 343.858127 
L 181.919353 344.170359 
L 178.900843 346.621135 
L 178.469832 346.923502 
L 175.882334 348.636139 
L 173.352774 349.988877 
L 172.863824 350.247984 
L 169.845314 351.56456 
L 166.826805 352.568413 
L 164.912941 353.054252 
L 163.808295 353.35002 
L 160.789785 353.965759 
L 157.771276 354.435154 
L 154.752766 354.822035 
L 151.734256 355.184906 
L 148.715747 355.570991 
L 145.697237 356.010386 
L 145.068856 356.119626 
L 142.678727 356.572306 
L 139.660218 357.21907 
L 136.641708 357.916259 
L 133.623198 358.641544 
L 131.428479 359.185001 
L 130.604689 359.412067 
L 127.586179 360.283444 
L 124.567669 361.13327 
L 121.54916 361.950179 
L 120.45198 362.250376 
L 118.53065 362.851554 
L 115.51214 363.772625 
L 112.493631 364.618691 
L 109.742303 365.315751 
L 109.475121 365.396723 
L 106.456611 366.271571 
L 103.438102 367.003964 
L 100.419592 367.586303 
L 97.401082 368.011708 
L 94.382573 368.268554 
L 91.364063 368.334251 
L 88.345553 368.167656 
L 85.327044 367.698347 
L 82.308534 366.809702 
z
" style="fill:#eef5fc;"/>
   </g>
   <g id="PathCollection_2">
    <path clip-path="url(#pf4c5e12a00)" d="M 82.308534 366.809702 
L 85.327044 367.698347 
L 88.345553 368.167656 
L 91.364063 368.334251 
L 94.382573 368.268554 
L 97.401082 368.011708 
L 100.419592 367.586303 
L 103.438102 367.003964 
L 106.456611 366.271571 
L 109.475121 365.396723 
L 109.742303 365.315751 
L 112.493631 364.618691 
L 115.51214 363.772625 
L 118.53065 362.851554 
L 120.45198 362.250376 
L 121.54916 361.950179 
L 124.567669 361.13327 
L 127.586179 360.283444 
L 130.604689 359.412067 
L 131.428479 359.185001 
L 133.623198 358.641544 
L 136.641708 357.916259 
L 139.660218 357.21907 
L 142.678727 356.572306 
L 145.068856 356.119626 
L 145.697237 356.010386 
L 148.715747 355.570991 
L 151.734256 355.184906 
L 154.752766 354.822035 
L 157.771276 354.435154 
L 160.789785 353.965759 
L 163.808295 353.35002 
L 164.912941 353.054252 
L 166.826805 352.568413 
L 169.845314 351.56456 
L 172.863824 350.247984 
L 173.352774 349.988877 
L 175.882334 348.636139 
L 178.469832 346.923502 
L 178.900843 346.621135 
L 181.919353 344.170359 
L 182.263592 343.858127 
L 184.937863 341.142226 
L 185.258401 340.792752 
L 187.679894 337.727377 
L 187.956372 337.301331 
L 189.665233 334.662002 
L 190.974882 332.04007 
L 191.206671 331.596627 
L 192.410099 328.531253 
L 193.206694 325.465878 
L 193.626433 322.400503 
L 193.674759 319.335128 
L 193.338522 316.269753 
L 192.589345 313.204378 
L 191.384327 310.139003 
L 190.974882 309.348654 
L 189.614804 307.073629 
L 187.956372 304.925767 
L 187.059261 304.008254 
L 184.937863 302.162475 
L 182.962358 300.942879 
L 181.919353 300.357646 
L 178.900843 299.198556 
L 175.882334 298.511552 
L 172.863824 298.143172 
L 169.845314 297.964547 
L 167.375325 297.877504 
L 166.826805 297.856818 
L 163.808295 297.685371 
L 160.789785 297.295049 
L 157.771276 296.451084 
L 154.783355 294.812129 
L 154.752766 294.788102 
L 152.463835 291.746754 
L 151.734256 290.07065 
L 151.305949 288.681379 
L 150.798106 285.616004 
L 150.601817 282.55063 
L 150.615492 279.485255 
L 150.764831 276.41988 
L 150.989094 273.354505 
L 151.223169 270.28913 
L 151.368196 267.223755 
L 151.228137 264.15838 
L 150.326837 261.093005 
L 148.715747 259.172267 
L 145.848287 258.027631 
L 145.697237 257.990749 
L 142.678727 257.844471 
L 139.660218 258.016762 
L 139.543185 258.027631 
L 136.641708 258.261346 
L 133.623198 258.449045 
L 130.604689 258.528756 
L 127.586179 258.501782 
L 124.567669 258.418162 
L 121.54916 258.368914 
L 118.53065 258.468531 
L 115.51214 258.833604 
L 112.493631 259.569235 
L 109.475121 260.770739 
L 108.904587 261.093005 
L 106.456611 262.404474 
L 104.057223 264.15838 
L 103.438102 264.597637 
L 100.550314 267.223755 
L 100.419592 267.341635 
L 97.721798 270.28913 
L 97.401082 270.643569 
L 95.270383 273.354505 
L 94.382573 274.518807 
L 93.063194 276.41988 
L 91.364063 278.990527 
L 91.053321 279.485255 
L 89.125435 282.55063 
L 88.345553 283.829928 
L 87.276549 285.616004 
L 85.540486 288.681379 
L 85.327044 289.051753 
L 83.752844 291.746754 
L 82.308534 294.492023 
L 82.131263 294.812129 
L 80.431633 297.877504 
L 79.290024 300.224758 
L 78.909009 300.942879 
L 77.356469 304.008254 
L 76.271515 306.534718 
L 76.008324 307.073629 
L 74.606394 310.139003 
L 73.469477 313.204378 
L 73.253005 313.85447 
L 72.287617 316.269753 
L 71.279414 319.335128 
L 70.475537 322.400503 
L 70.234495 323.499986 
L 69.683792 325.465878 
L 69.002424 328.531253 
L 68.496058 331.596627 
L 68.144777 334.662002 
L 67.93978 337.727377 
L 67.883631 340.792752 
L 67.99188 343.858127 
L 68.29658 346.923502 
L 68.852538 349.988877 
L 69.747907 353.054252 
L 70.234495 354.254215 
L 70.968176 356.119626 
L 72.727217 359.185001 
L 73.253005 359.901284 
L 75.265042 362.250376 
L 76.271515 363.203935 
L 79.290024 365.311259 
L 79.298912 365.315751 
z
M 83.016538 359.185001 
L 82.308534 358.767257 
L 79.290024 356.130745 
L 79.279969 356.119626 
L 77.026542 353.054252 
L 76.271515 351.558234 
L 75.534166 349.988877 
L 74.536275 346.923502 
L 73.936022 343.858127 
L 73.627529 340.792752 
L 73.545533 337.727377 
L 73.652171 334.662002 
L 73.929162 331.596627 
L 74.373395 328.531253 
L 74.994785 325.465878 
L 75.815787 322.400503 
L 76.271515 321.009822 
L 76.738633 319.335128 
L 77.766229 316.269753 
L 79.042077 313.204378 
L 79.290024 312.667593 
L 80.346665 310.139003 
L 81.876413 307.073629 
L 82.308534 306.277478 
L 83.478952 304.008254 
L 85.311831 300.942879 
L 85.327044 300.917879 
L 87.165872 297.877504 
L 88.345553 296.098346 
L 89.229655 294.812129 
L 91.364063 291.868948 
L 91.459973 291.746754 
L 93.826858 288.681379 
L 94.382573 287.96617 
L 96.442968 285.616004 
L 97.401082 284.50649 
L 99.401236 282.55063 
L 100.419592 281.514137 
L 102.912981 279.485255 
L 103.438102 279.030852 
L 106.456611 277.013248 
L 107.72082 276.41988 
L 109.475121 275.504514 
L 112.493631 274.482206 
L 115.51214 273.928836 
L 118.53065 273.749384 
L 121.54916 273.885364 
L 124.567669 274.322936 
L 127.586179 275.111941 
L 130.604689 276.405956 
L 130.628407 276.41988 
L 133.623198 278.462817 
L 134.619207 279.485255 
L 136.641708 282.275507 
L 136.795097 282.55063 
L 138.181023 285.616004 
L 139.177542 288.681379 
L 139.660218 290.464527 
L 140.010755 291.746754 
L 140.854215 294.812129 
L 141.762251 297.877504 
L 142.678727 300.538009 
L 142.856816 300.942879 
L 144.532299 304.008254 
L 145.697237 305.753337 
L 146.988388 307.073629 
L 148.715747 308.614609 
L 151.322741 310.139003 
L 151.734256 310.372164 
L 154.752766 311.567283 
L 157.771276 312.487232 
L 160.427414 313.204378 
L 160.789785 313.315649 
L 163.808295 314.237661 
L 166.826805 315.302796 
L 169.062117 316.269753 
L 169.845314 316.697939 
L 172.863824 318.802773 
L 173.446037 319.335128 
L 175.600241 322.400503 
L 175.882334 323.334649 
L 176.38585 325.465878 
L 176.198926 328.531253 
L 175.882334 329.454776 
L 175.071209 331.596627 
L 173.002628 334.662002 
L 172.863824 334.806064 
L 169.845314 337.458062 
L 169.47554 337.727377 
L 166.826805 339.211434 
L 163.808295 340.566211 
L 163.198169 340.792752 
L 160.789785 341.537568 
L 157.771276 342.345262 
L 154.752766 343.107186 
L 151.866811 343.858127 
L 151.734256 343.888835 
L 148.715747 344.681997 
L 145.697237 345.560865 
L 142.678727 346.526302 
L 141.569936 346.923502 
L 139.660218 347.562691 
L 136.641708 348.65441 
L 133.623198 349.780235 
L 133.107159 349.988877 
L 130.604689 350.969597 
L 127.586179 352.163536 
L 125.324626 353.054252 
L 124.567669 353.355076 
L 121.54916 354.598943 
L 118.53065 355.762099 
L 117.590232 356.119626 
L 115.51214 356.954116 
L 112.493631 358.077938 
L 109.475121 359.054382 
L 109.029798 359.185001 
L 106.456611 360.034891 
L 103.438102 360.845822 
L 100.419592 361.45342 
L 97.401082 361.848667 
L 94.382573 362.009101 
L 91.364063 361.889521 
L 88.345553 361.409188 
L 85.327044 360.431685 
z
" style="fill:#dceaf6;"/>
   </g>
   <g id="PathCollection_3">
    <path clip-path="url(#pf4c5e12a00)" d="M 85.327044 360.431685 
L 88.345553 361.409188 
L 91.364063 361.889521 
L 94.382573 362.009101 
L 97.401082 361.848667 
L 100.419592 361.45342 
L 103.438102 360.845822 
L 106.456611 360.034891 
L 109.029798 359.185001 
L 109.475121 359.054382 
L 112.493631 358.077938 
L 115.51214 356.954116 
L 117.590232 356.119626 
L 118.53065 355.762099 
L 121.54916 354.598943 
L 124.567669 353.355076 
L 125.324626 353.054252 
L 127.586179 352.163536 
L 130.604689 350.969597 
L 133.107159 349.988877 
L 133.623198 349.780235 
L 136.641708 348.65441 
L 139.660218 347.562691 
L 141.569936 346.923502 
L 142.678727 346.526302 
L 145.697237 345.560865 
L 148.715747 344.681997 
L 151.734256 343.888835 
L 151.866811 343.858127 
L 154.752766 343.107186 
L 157.771276 342.345262 
L 160.789785 341.537568 
L 163.198169 340.792752 
L 163.808295 340.566211 
L 166.826805 339.211434 
L 169.47554 337.727377 
L 169.845314 337.458062 
L 172.863824 334.806064 
L 173.002628 334.662002 
L 175.071209 331.596627 
L 175.882334 329.454776 
L 176.198926 328.531253 
L 176.38585 325.465878 
L 175.882334 323.334649 
L 175.600241 322.400503 
L 173.446037 319.335128 
L 172.863824 318.802773 
L 169.845314 316.697939 
L 169.062117 316.269753 
L 166.826805 315.302796 
L 163.808295 314.237661 
L 160.789785 313.315649 
L 160.427414 313.204378 
L 157.771276 312.487232 
L 154.752766 311.567283 
L 151.734256 310.372164 
L 151.322741 310.139003 
L 148.715747 308.614609 
L 146.988388 307.073629 
L 145.697237 305.753337 
L 144.532299 304.008254 
L 142.856816 300.942879 
L 142.678727 300.538009 
L 141.762251 297.877504 
L 140.854215 294.812129 
L 140.010755 291.746754 
L 139.660218 290.464527 
L 139.177542 288.681379 
L 138.181023 285.616004 
L 136.795097 282.55063 
L 136.641708 282.275507 
L 134.619207 279.485255 
L 133.623198 278.462817 
L 130.628407 276.41988 
L 130.604689 276.405956 
L 127.586179 275.111941 
L 124.567669 274.322936 
L 121.54916 273.885364 
L 118.53065 273.749384 
L 115.51214 273.928836 
L 112.493631 274.482206 
L 109.475121 275.504514 
L 107.72082 276.41988 
L 106.456611 277.013248 
L 103.438102 279.030852 
L 102.912981 279.485255 
L 100.419592 281.514137 
L 99.401236 282.55063 
L 97.401082 284.50649 
L 96.442968 285.616004 
L 94.382573 287.96617 
L 93.826858 288.681379 
L 91.459973 291.746754 
L 91.364063 291.868948 
L 89.229655 294.812129 
L 88.345553 296.098346 
L 87.165872 297.877504 
L 85.327044 300.917879 
L 85.311831 300.942879 
L 83.478952 304.008254 
L 82.308534 306.277478 
L 81.876413 307.073629 
L 80.346665 310.139003 
L 79.290024 312.667593 
L 79.042077 313.204378 
L 77.766229 316.269753 
L 76.738633 319.335128 
L 76.271515 321.009822 
L 75.815787 322.400503 
L 74.994785 325.465878 
L 74.373395 328.531253 
L 73.929162 331.596627 
L 73.652171 334.662002 
L 73.545533 337.727377 
L 73.627529 340.792752 
L 73.936022 343.858127 
L 74.536275 346.923502 
L 75.534166 349.988877 
L 76.271515 351.558234 
L 77.026542 353.054252 
L 79.279969 356.119626 
L 79.290024 356.130745 
L 82.308534 358.767257 
L 83.016538 359.185001 
z
M 87.788751 356.119626 
L 85.327044 354.834796 
L 83.168233 353.054252 
L 82.308534 352.156283 
L 80.704601 349.988877 
L 79.290024 347.142252 
L 79.191939 346.923502 
L 78.205869 343.858127 
L 77.642903 340.792752 
L 77.397127 337.727377 
L 77.404695 334.662002 
L 77.630642 331.596627 
L 78.061201 328.531253 
L 78.699665 325.465878 
L 79.290024 323.335335 
L 79.517419 322.400503 
L 80.435376 319.335128 
L 81.583653 316.269753 
L 82.308534 314.632119 
L 82.899639 313.204378 
L 84.365646 310.139003 
L 85.327044 308.389845 
L 86.040056 307.073629 
L 87.897602 304.008254 
L 88.345553 303.316614 
L 89.936915 300.942879 
L 91.364063 298.977908 
L 92.230014 297.877504 
L 94.382573 295.248638 
L 94.788567 294.812129 
L 97.401082 292.009135 
L 97.693169 291.746754 
L 100.419592 289.217144 
L 101.148701 288.681379 
L 103.438102 286.889323 
L 105.630102 285.616004 
L 106.456611 285.090517 
L 109.475121 283.715062 
L 112.493631 282.864079 
L 114.813736 282.55063 
L 115.51214 282.440771 
L 118.53065 282.449007 
L 119.169825 282.55063 
L 121.54916 282.915994 
L 124.567669 283.943814 
L 127.317186 285.616004 
L 127.586179 285.804255 
L 130.347896 288.681379 
L 130.604689 289.026246 
L 132.216223 291.746754 
L 133.538011 294.812129 
L 133.623198 295.046117 
L 134.625448 297.877504 
L 135.577403 300.942879 
L 136.472198 304.008254 
L 136.641708 304.582644 
L 137.528481 307.073629 
L 138.692971 310.139003 
L 139.660218 312.553123 
L 140.017563 313.204378 
L 141.720692 316.269753 
L 142.678727 318.083615 
L 143.628705 319.335128 
L 145.53003 322.400503 
L 145.697237 322.831419 
L 147.072174 325.465878 
L 147.407162 328.531253 
L 146.247491 331.596627 
L 145.697237 332.203167 
L 143.744896 334.662002 
L 142.678727 335.491046 
L 140.095086 337.727377 
L 139.660218 338.00286 
L 136.641708 340.129917 
L 135.775421 340.792752 
L 133.623198 342.117928 
L 130.888418 343.858127 
L 130.604689 344.014049 
L 127.586179 345.802469 
L 125.677207 346.923502 
L 124.567669 347.519036 
L 121.54916 349.155818 
L 119.952599 349.988877 
L 118.53065 350.70579 
L 115.51214 352.158817 
L 113.446616 353.054252 
L 112.493631 353.477262 
L 109.475121 354.703472 
L 106.456611 355.709519 
L 104.927517 356.119626 
L 103.438102 356.561473 
L 100.419592 357.212736 
L 97.401082 357.577133 
L 94.382573 357.61795 
L 91.364063 357.262677 
L 88.345553 356.383383 
z
" style="fill:#cadef0;"/>
   </g>
   <g id="PathCollection_4">
    <path clip-path="url(#pf4c5e12a00)" d="M 88.345553 356.383383 
L 91.364063 357.262677 
L 94.382573 357.61795 
L 97.401082 357.577133 
L 100.419592 357.212736 
L 103.438102 356.561473 
L 104.927517 356.119626 
L 106.456611 355.709519 
L 109.475121 354.703472 
L 112.493631 353.477262 
L 113.446616 353.054252 
L 115.51214 352.158817 
L 118.53065 350.70579 
L 119.952599 349.988877 
L 121.54916 349.155818 
L 124.567669 347.519036 
L 125.677207 346.923502 
L 127.586179 345.802469 
L 130.604689 344.014049 
L 130.888418 343.858127 
L 133.623198 342.117928 
L 135.775421 340.792752 
L 136.641708 340.129917 
L 139.660218 338.00286 
L 140.095086 337.727377 
L 142.678727 335.491046 
L 143.744896 334.662002 
L 145.697237 332.203167 
L 146.247491 331.596627 
L 147.407162 328.531253 
L 147.072174 325.465878 
L 145.697237 322.831419 
L 145.53003 322.400503 
L 143.628705 319.335128 
L 142.678727 318.083615 
L 141.720692 316.269753 
L 140.017563 313.204378 
L 139.660218 312.553123 
L 138.692971 310.139003 
L 137.528481 307.073629 
L 136.641708 304.582644 
L 136.472198 304.008254 
L 135.577403 300.942879 
L 134.625448 297.877504 
L 133.623198 295.046117 
L 133.538011 294.812129 
L 132.216223 291.746754 
L 130.604689 289.026246 
L 130.347896 288.681379 
L 127.586179 285.804255 
L 127.317186 285.616004 
L 124.567669 283.943814 
L 121.54916 282.915994 
L 119.169825 282.55063 
L 118.53065 282.449007 
L 115.51214 282.440771 
L 114.813736 282.55063 
L 112.493631 282.864079 
L 109.475121 283.715062 
L 106.456611 285.090517 
L 105.630102 285.616004 
L 103.438102 286.889323 
L 101.148701 288.681379 
L 100.419592 289.217144 
L 97.693169 291.746754 
L 97.401082 292.009135 
L 94.788567 294.812129 
L 94.382573 295.248638 
L 92.230014 297.877504 
L 91.364063 298.977908 
L 89.936915 300.942879 
L 88.345553 303.316614 
L 87.897602 304.008254 
L 86.040056 307.073629 
L 85.327044 308.389845 
L 84.365646 310.139003 
L 82.899639 313.204378 
L 82.308534 314.632119 
L 81.583653 316.269753 
L 80.435376 319.335128 
L 79.517419 322.400503 
L 79.290024 323.335335 
L 78.699665 325.465878 
L 78.061201 328.531253 
L 77.630642 331.596627 
L 77.404695 334.662002 
L 77.397127 337.727377 
L 77.642903 340.792752 
L 78.205869 343.858127 
L 79.191939 346.923502 
L 79.290024 347.142252 
L 80.704601 349.988877 
L 82.308534 352.156283 
L 83.168233 353.054252 
L 85.327044 354.834796 
L 87.788751 356.119626 
z
M 90.842867 353.054252 
L 88.345553 351.953504 
L 85.772109 349.988877 
L 85.327044 349.552103 
L 83.361041 346.923502 
L 82.308534 344.765828 
L 81.923475 343.858127 
L 81.069875 340.792752 
L 80.636233 337.727377 
L 80.524206 334.662002 
L 80.67663 331.596627 
L 81.065061 328.531253 
L 81.68271 325.465878 
L 82.308534 323.202874 
L 82.511647 322.400503 
L 83.481217 319.335128 
L 84.694123 316.269753 
L 85.327044 314.908567 
L 86.100121 313.204378 
L 87.718396 310.139003 
L 88.345553 309.077038 
L 89.563162 307.073629 
L 91.364063 304.436832 
L 91.680421 304.008254 
L 94.078147 300.942879 
L 94.382573 300.568067 
L 96.866177 297.877504 
L 97.401082 297.306662 
L 100.198361 294.812129 
L 100.419592 294.610473 
L 103.438102 292.383739 
L 104.607347 291.746754 
L 106.456611 290.658358 
L 109.475121 289.447567 
L 112.493631 288.75072 
L 113.529991 288.681379 
L 115.51214 288.528244 
L 116.86683 288.681379 
L 118.53065 288.868722 
L 121.54916 289.876503 
L 124.419229 291.746754 
L 124.567669 291.86129 
L 127.155624 294.812129 
L 127.586179 295.454173 
L 128.913282 297.877504 
L 130.18753 300.942879 
L 130.604689 302.177017 
L 131.221393 304.008254 
L 132.123913 307.073629 
L 132.919856 310.139003 
L 133.623198 313.174485 
L 133.631633 313.204378 
L 134.398881 316.269753 
L 135.034573 319.335128 
L 135.455787 322.400503 
L 135.540319 325.465878 
L 135.120481 328.531253 
L 133.975565 331.596627 
L 133.623198 332.151011 
L 132.198001 334.662002 
L 130.604689 336.497071 
L 129.611344 337.727377 
L 127.586179 339.598861 
L 126.332934 340.792752 
L 124.567669 342.162348 
L 122.352009 343.858127 
L 121.54916 344.393817 
L 118.53065 346.369691 
L 117.634768 346.923502 
L 115.51214 348.149897 
L 112.493631 349.694715 
L 111.851079 349.988877 
L 109.475121 351.076806 
L 106.456611 352.207998 
L 103.488976 353.054252 
L 103.438102 353.069787 
L 100.419592 353.711812 
L 97.401082 354.003842 
L 94.382573 353.88952 
L 91.364063 353.260789 
z
" style="fill:#b0d2e7;"/>
   </g>
   <g id="PathCollection_5">
    <path clip-path="url(#pf4c5e12a00)" d="M 91.364063 353.260789 
L 94.382573 353.88952 
L 97.401082 354.003842 
L 100.419592 353.711812 
L 103.438102 353.069787 
L 103.488976 353.054252 
L 106.456611 352.207998 
L 109.475121 351.076806 
L 111.851079 349.988877 
L 112.493631 349.694715 
L 115.51214 348.149897 
L 117.634768 346.923502 
L 118.53065 346.369691 
L 121.54916 344.393817 
L 122.352009 343.858127 
L 124.567669 342.162348 
L 126.332934 340.792752 
L 127.586179 339.598861 
L 129.611344 337.727377 
L 130.604689 336.497071 
L 132.198001 334.662002 
L 133.623198 332.151011 
L 133.975565 331.596627 
L 135.120481 328.531253 
L 135.540319 325.465878 
L 135.455787 322.400503 
L 135.034573 319.335128 
L 134.398881 316.269753 
L 133.631633 313.204378 
L 133.623198 313.174485 
L 132.919856 310.139003 
L 132.123913 307.073629 
L 131.221393 304.008254 
L 130.604689 302.177017 
L 130.18753 300.942879 
L 128.913282 297.877504 
L 127.586179 295.454173 
L 127.155624 294.812129 
L 124.567669 291.86129 
L 124.419229 291.746754 
L 121.54916 289.876503 
L 118.53065 288.868722 
L 116.86683 288.681379 
L 115.51214 288.528244 
L 113.529991 288.681379 
L 112.493631 288.75072 
L 109.475121 289.447567 
L 106.456611 290.658358 
L 104.607347 291.746754 
L 103.438102 292.383739 
L 100.419592 294.610473 
L 100.198361 294.812129 
L 97.401082 297.306662 
L 96.866177 297.877504 
L 94.382573 300.568067 
L 94.078147 300.942879 
L 91.680421 304.008254 
L 91.364063 304.436832 
L 89.563162 307.073629 
L 88.345553 309.077038 
L 87.718396 310.139003 
L 86.100121 313.204378 
L 85.327044 314.908567 
L 84.694123 316.269753 
L 83.481217 319.335128 
L 82.511647 322.400503 
L 82.308534 323.202874 
L 81.68271 325.465878 
L 81.065061 328.531253 
L 80.67663 331.596627 
L 80.524206 334.662002 
L 80.636233 337.727377 
L 81.069875 340.792752 
L 81.923475 343.858127 
L 82.308534 344.765828 
L 83.361041 346.923502 
L 85.327044 349.552103 
L 85.772109 349.988877 
L 88.345553 351.953504 
L 90.842867 353.054252 
z
M 92.772659 349.988877 
L 91.364063 349.506448 
L 88.345553 347.530586 
L 87.731111 346.923502 
L 85.50131 343.858127 
L 85.327044 343.49243 
L 84.257369 340.792752 
L 83.585678 337.727377 
L 83.32607 334.662002 
L 83.388957 331.596627 
L 83.724991 328.531253 
L 84.313278 325.465878 
L 85.15491 322.400503 
L 85.327044 321.905465 
L 86.188589 319.335128 
L 87.461929 316.269753 
L 88.345553 314.482422 
L 88.990734 313.204378 
L 90.766956 310.139003 
L 91.364063 309.212605 
L 92.851402 307.073629 
L 94.382573 305.065837 
L 95.299977 304.008254 
L 97.401082 301.700258 
L 98.2309 300.942879 
L 100.419592 298.958913 
L 101.948289 297.877504 
L 103.438102 296.789821 
L 106.456611 295.182742 
L 107.532692 294.812129 
L 109.475121 294.081985 
L 112.493631 293.544553 
L 115.51214 293.625841 
L 118.53065 294.444131 
L 119.220214 294.812129 
L 121.54916 296.264162 
L 123.145583 297.877504 
L 124.567669 299.738451 
L 125.283933 300.942879 
L 126.708901 304.008254 
L 127.586179 306.544175 
L 127.762653 307.073629 
L 128.606041 310.139003 
L 129.260042 313.204378 
L 129.737394 316.269753 
L 130.022426 319.335128 
L 130.071642 322.400503 
L 129.810437 325.465878 
L 129.125591 328.531253 
L 127.852899 331.596627 
L 127.586179 332.032067 
L 126.080553 334.662002 
L 124.567669 336.51464 
L 123.599699 337.727377 
L 121.54916 339.725335 
L 120.426394 340.792752 
L 118.53065 342.306572 
L 116.436189 343.858127 
L 115.51214 344.471154 
L 112.493631 346.297862 
L 111.294941 346.923502 
L 109.475121 347.839447 
L 106.456611 349.076759 
L 103.443071 349.988877 
L 103.438102 349.990435 
L 100.419592 350.596776 
L 97.401082 350.78774 
L 94.382573 350.478734 
z
" style="fill:#91c3de;"/>
   </g>
   <g id="PathCollection_6">
    <path clip-path="url(#pf4c5e12a00)" d="M 94.382573 350.478734 
L 97.401082 350.78774 
L 100.419592 350.596776 
L 103.438102 349.990435 
L 103.443071 349.988877 
L 106.456611 349.076759 
L 109.475121 347.839447 
L 111.294941 346.923502 
L 112.493631 346.297862 
L 115.51214 344.471154 
L 116.436189 343.858127 
L 118.53065 342.306572 
L 120.426394 340.792752 
L 121.54916 339.725335 
L 123.599699 337.727377 
L 124.567669 336.51464 
L 126.080553 334.662002 
L 127.586179 332.032067 
L 127.852899 331.596627 
L 129.125591 328.531253 
L 129.810437 325.465878 
L 130.071642 322.400503 
L 130.022426 319.335128 
L 129.737394 316.269753 
L 129.260042 313.204378 
L 128.606041 310.139003 
L 127.762653 307.073629 
L 127.586179 306.544175 
L 126.708901 304.008254 
L 125.283933 300.942879 
L 124.567669 299.738451 
L 123.145583 297.877504 
L 121.54916 296.264162 
L 119.220214 294.812129 
L 118.53065 294.444131 
L 115.51214 293.625841 
L 112.493631 293.544553 
L 109.475121 294.081985 
L 107.532692 294.812129 
L 106.456611 295.182742 
L 103.438102 296.789821 
L 101.948289 297.877504 
L 100.419592 298.958913 
L 98.2309 300.942879 
L 97.401082 301.700258 
L 95.299977 304.008254 
L 94.382573 305.065837 
L 92.851402 307.073629 
L 91.364063 309.212605 
L 90.766956 310.139003 
L 88.990734 313.204378 
L 88.345553 314.482422 
L 87.461929 316.269753 
L 86.188589 319.335128 
L 85.327044 321.905465 
L 85.15491 322.400503 
L 84.313278 325.465878 
L 83.724991 328.531253 
L 83.388957 331.596627 
L 83.32607 334.662002 
L 83.585678 337.727377 
L 84.257369 340.792752 
L 85.327044 343.49243 
L 85.50131 343.858127 
L 87.731111 346.923502 
L 88.345553 347.530586 
L 91.364063 349.506448 
L 92.772659 349.988877 
z
M 93.858333 346.923502 
L 91.364063 345.633675 
L 89.435495 343.858127 
L 88.345553 342.392431 
L 87.469966 340.792752 
L 86.455082 337.727377 
L 85.993616 334.662002 
L 85.942535 331.596627 
L 86.21953 328.531253 
L 86.782582 325.465878 
L 87.618437 322.400503 
L 88.345553 320.380253 
L 88.726234 319.335128 
L 90.089852 316.269753 
L 91.364063 313.886383 
L 91.755927 313.204378 
L 93.747008 310.139003 
L 94.382573 309.255225 
L 96.168712 307.073629 
L 97.401082 305.668417 
L 99.161387 304.008254 
L 100.419592 302.850834 
L 103.103365 300.942879 
L 103.438102 300.701083 
L 106.456611 299.137078 
L 109.475121 298.203535 
L 112.493631 297.909619 
L 115.51214 298.370459 
L 118.53065 299.843393 
L 119.792503 300.942879 
L 121.54916 302.920434 
L 122.251991 304.008254 
L 123.755455 307.073629 
L 124.567669 309.42458 
L 124.795937 310.139003 
L 125.522614 313.204378 
L 125.986102 316.269753 
L 126.190489 319.335128 
L 126.107973 322.400503 
L 125.677987 325.465878 
L 124.801081 328.531253 
L 124.567669 329.056592 
L 123.493133 331.596627 
L 121.54916 334.655725 
L 121.545174 334.662002 
L 118.999664 337.727377 
L 118.53065 338.177198 
L 115.628694 340.792752 
L 115.51214 340.882693 
L 112.493631 343.034892 
L 111.124624 343.858127 
L 109.475121 344.779058 
L 106.456611 346.129001 
L 103.981808 346.923502 
L 103.438102 347.098289 
L 100.419592 347.652865 
L 97.401082 347.711013 
L 94.382573 347.145463 
z
" style="fill:#6aaed6;"/>
   </g>
   <g id="PathCollection_7">
    <path clip-path="url(#pf4c5e12a00)" d="M 94.382573 347.145463 
L 97.401082 347.711013 
L 100.419592 347.652865 
L 103.438102 347.098289 
L 103.981808 346.923502 
L 106.456611 346.129001 
L 109.475121 344.779058 
L 111.124624 343.858127 
L 112.493631 343.034892 
L 115.51214 340.882693 
L 115.628694 340.792752 
L 118.53065 338.177198 
L 118.999664 337.727377 
L 121.545174 334.662002 
L 121.54916 334.655725 
L 123.493133 331.596627 
L 124.567669 329.056592 
L 124.801081 328.531253 
L 125.677987 325.465878 
L 126.107973 322.400503 
L 126.190489 319.335128 
L 125.986102 316.269753 
L 125.522614 313.204378 
L 124.795937 310.139003 
L 124.567669 309.42458 
L 123.755455 307.073629 
L 122.251991 304.008254 
L 121.54916 302.920434 
L 119.792503 300.942879 
L 118.53065 299.843393 
L 115.51214 298.370459 
L 112.493631 297.909619 
L 109.475121 298.203535 
L 106.456611 299.137078 
L 103.438102 300.701083 
L 103.103365 300.942879 
L 100.419592 302.850834 
L 99.161387 304.008254 
L 97.401082 305.668417 
L 96.168712 307.073629 
L 94.382573 309.255225 
L 93.747008 310.139003 
L 91.755927 313.204378 
L 91.364063 313.886383 
L 90.089852 316.269753 
L 88.726234 319.335128 
L 88.345553 320.380253 
L 87.618437 322.400503 
L 86.782582 325.465878 
L 86.21953 328.531253 
L 85.942535 331.596627 
L 85.993616 334.662002 
L 86.455082 337.727377 
L 87.469966 340.792752 
L 88.345553 342.392431 
L 89.435495 343.858127 
L 91.364063 345.633675 
L 93.858333 346.923502 
z
M 94.94946 343.858127 
L 94.382573 343.643839 
L 91.364063 341.212475 
L 91.035116 340.792752 
L 89.447446 337.727377 
L 88.667645 334.662002 
L 88.4504 331.596627 
L 88.653794 328.531253 
L 89.199884 325.465878 
L 90.052776 322.400503 
L 91.206731 319.335128 
L 91.364063 318.994952 
L 92.716107 316.269753 
L 94.382573 313.458289 
L 94.554493 313.204378 
L 96.878373 310.139003 
L 97.401082 309.508564 
L 99.856823 307.073629 
L 100.419592 306.540713 
L 103.438102 304.356316 
L 104.155132 304.008254 
L 106.456611 302.869112 
L 109.475121 302.097824 
L 112.493631 302.113075 
L 115.51214 303.119933 
L 116.754491 304.008254 
L 118.53065 305.658704 
L 119.532437 307.073629 
L 121.076317 310.139003 
L 121.54916 311.551904 
L 122.03479 313.204378 
L 122.590551 316.269753 
L 122.808511 319.335128 
L 122.683388 322.400503 
L 122.172756 325.465878 
L 121.54916 327.457594 
L 121.218962 328.531253 
L 119.781929 331.596627 
L 118.53065 333.478088 
L 117.708831 334.662002 
L 115.51214 337.100337 
L 114.886241 337.727377 
L 112.493631 339.726282 
L 110.978718 340.792752 
L 109.475121 341.736447 
L 106.456611 343.226285 
L 104.602422 343.858127 
L 103.438102 344.241242 
L 100.419592 344.726292 
L 97.401082 344.600276 
z
" style="fill:#4d99ca;"/>
   </g>
   <g id="PathCollection_8">
    <path clip-path="url(#pf4c5e12a00)" d="M 97.401082 344.600276 
L 100.419592 344.726292 
L 103.438102 344.241242 
L 104.602422 343.858127 
L 106.456611 343.226285 
L 109.475121 341.736447 
L 110.978718 340.792752 
L 112.493631 339.726282 
L 114.886241 337.727377 
L 115.51214 337.100337 
L 117.708831 334.662002 
L 118.53065 333.478088 
L 119.781929 331.596627 
L 121.218962 328.531253 
L 121.54916 327.457594 
L 122.172756 325.465878 
L 122.683388 322.400503 
L 122.808511 319.335128 
L 122.590551 316.269753 
L 122.03479 313.204378 
L 121.54916 311.551904 
L 121.076317 310.139003 
L 119.532437 307.073629 
L 118.53065 305.658704 
L 116.754491 304.008254 
L 115.51214 303.119933 
L 112.493631 302.113075 
L 109.475121 302.097824 
L 106.456611 302.869112 
L 104.155132 304.008254 
L 103.438102 304.356316 
L 100.419592 306.540713 
L 99.856823 307.073629 
L 97.401082 309.508564 
L 96.878373 310.139003 
L 94.554493 313.204378 
L 94.382573 313.458289 
L 92.716107 316.269753 
L 91.364063 318.994952 
L 91.206731 319.335128 
L 90.052776 322.400503 
L 89.199884 325.465878 
L 88.653794 328.531253 
L 88.4504 331.596627 
L 88.667645 334.662002 
L 89.447446 337.727377 
L 91.035116 340.792752 
L 91.364063 341.212475 
L 94.382573 343.643839 
L 94.94946 343.858127 
z
M 96.395654 340.792752 
L 94.382573 339.503043 
L 92.922962 337.727377 
L 91.543817 334.662002 
L 91.364063 333.657688 
L 91.077617 331.596627 
L 91.147651 328.531253 
L 91.364063 327.176322 
L 91.655436 325.465878 
L 92.558172 322.400503 
L 93.798058 319.335128 
L 94.382573 318.1834 
L 95.494781 316.269753 
L 97.401082 313.480712 
L 97.634865 313.204378 
L 100.419592 310.237996 
L 100.54641 310.139003 
L 103.438102 307.994866 
L 105.392059 307.073629 
L 106.456611 306.573401 
L 109.475121 306.026279 
L 112.493631 306.472826 
L 113.621391 307.073629 
L 115.51214 308.402936 
L 116.886872 310.139003 
L 118.462497 313.204378 
L 118.53065 313.425257 
L 119.250029 316.269753 
L 119.57335 319.335128 
L 119.473038 322.400503 
L 118.933451 325.465878 
L 118.53065 326.67988 
L 117.896438 328.531253 
L 116.300516 331.596627 
L 115.51214 332.701336 
L 113.96828 334.662002 
L 112.493631 336.140755 
L 110.615392 337.727377 
L 109.475121 338.547908 
L 106.456611 340.225236 
L 104.892287 340.792752 
L 103.438102 341.281986 
L 100.419592 341.663441 
L 97.401082 341.254146 
z
" style="fill:#3383be;"/>
   </g>
   <g id="PathCollection_9">
    <path clip-path="url(#pf4c5e12a00)" d="M 97.401082 341.254146 
L 100.419592 341.663441 
L 103.438102 341.281986 
L 104.892287 340.792752 
L 106.456611 340.225236 
L 109.475121 338.547908 
L 110.615392 337.727377 
L 112.493631 336.140755 
L 113.96828 334.662002 
L 115.51214 332.701336 
L 116.300516 331.596627 
L 117.896438 328.531253 
L 118.53065 326.67988 
L 118.933451 325.465878 
L 119.473038 322.400503 
L 119.57335 319.335128 
L 119.250029 316.269753 
L 118.53065 313.425257 
L 118.462497 313.204378 
L 116.886872 310.139003 
L 115.51214 308.402936 
L 113.621391 307.073629 
L 112.493631 306.472826 
L 109.475121 306.026279 
L 106.456611 306.573401 
L 105.392059 307.073629 
L 103.438102 307.994866 
L 100.54641 310.139003 
L 100.419592 310.237996 
L 97.634865 313.204378 
L 97.401082 313.480712 
L 95.494781 316.269753 
L 94.382573 318.1834 
L 93.798058 319.335128 
L 92.558172 322.400503 
L 91.655436 325.465878 
L 91.364063 327.176322 
L 91.147651 328.531253 
L 91.077617 331.596627 
L 91.364063 333.657688 
L 91.543817 334.662002 
L 92.922962 337.727377 
L 94.382573 339.503043 
L 96.395654 340.792752 
z
M 98.655559 337.727377 
L 97.401082 337.200804 
L 95.13399 334.662002 
L 94.382573 332.813778 
L 94.06161 331.596627 
L 93.918364 328.531253 
L 94.315227 325.465878 
L 94.382573 325.225477 
L 95.295158 322.400503 
L 96.695048 319.335128 
L 97.401082 318.118253 
L 98.744212 316.269753 
L 100.419592 314.28479 
L 101.700041 313.204378 
L 103.438102 311.861221 
L 106.456611 310.506655 
L 109.475121 310.26732 
L 112.493631 311.567904 
L 114.006198 313.204378 
L 115.51214 315.976749 
L 115.621217 316.269753 
L 116.194293 319.335128 
L 116.200799 322.400503 
L 115.673732 325.465878 
L 115.51214 325.926385 
L 114.504566 328.531253 
L 112.699475 331.596627 
L 112.493631 331.85534 
L 109.832693 334.662002 
L 109.475121 334.966005 
L 106.456611 336.899713 
L 104.328523 337.727377 
L 103.438102 338.033422 
L 100.419592 338.23083 
z
" style="fill:#1c6bb0;"/>
   </g>
   <g id="PathCollection_10">
    <path clip-path="url(#pf4c5e12a00)" d="M 100.419592 338.23083 
L 103.438102 338.033422 
L 104.328523 337.727377 
L 106.456611 336.899713 
L 109.475121 334.966005 
L 109.832693 334.662002 
L 112.493631 331.85534 
L 112.699475 331.596627 
L 114.504566 328.531253 
L 115.51214 325.926385 
L 115.673732 325.465878 
L 116.200799 322.400503 
L 116.194293 319.335128 
L 115.621217 316.269753 
L 115.51214 315.976749 
L 114.006198 313.204378 
L 112.493631 311.567904 
L 109.475121 310.26732 
L 106.456611 310.506655 
L 103.438102 311.861221 
L 101.700041 313.204378 
L 100.419592 314.28479 
L 98.744212 316.269753 
L 97.401082 318.118253 
L 96.695048 319.335128 
L 95.295158 322.400503 
L 94.382573 325.225477 
L 94.315227 325.465878 
L 93.918364 328.531253 
L 94.06161 331.596627 
L 94.382573 332.813778 
L 95.13399 334.662002 
L 97.401082 337.200804 
L 98.655559 337.727377 
z
M 98.299532 331.596627 
L 97.401082 328.941563 
L 97.32708 328.531253 
L 97.401082 327.531311 
L 97.603078 325.465878 
L 98.713842 322.400503 
L 100.374989 319.335128 
L 100.419592 319.272796 
L 103.438102 316.38893 
L 103.713015 316.269753 
L 106.456611 315.237612 
L 109.475121 315.739731 
L 110.105679 316.269753 
L 112.023338 319.335128 
L 112.455377 322.400503 
L 111.889125 325.465878 
L 110.52597 328.531253 
L 109.475121 330.033095 
L 107.947518 331.596627 
L 106.456611 332.743077 
L 103.438102 333.949661 
L 100.419592 333.615998 
z
" style="fill:#0a539e;"/>
   </g>
   <g id="PathCollection_11">
    <path clip-path="url(#pf4c5e12a00)" d="M 100.419592 333.615998 
L 103.438102 333.949661 
L 106.456611 332.743077 
L 107.947518 331.596627 
L 109.475121 330.033095 
L 110.52597 328.531253 
L 111.889125 325.465878 
L 112.455377 322.400503 
L 112.023338 319.335128 
L 110.105679 316.269753 
L 109.475121 315.739731 
L 106.456611 315.237612 
L 103.713015 316.269753 
L 103.438102 316.38893 
L 100.419592 319.272796 
L 100.374989 319.335128 
L 98.713842 322.400503 
L 97.603078 325.465878 
L 97.401082 327.531311 
L 97.32708 328.531253 
L 97.401082 328.941563 
L 98.299532 331.596627 
z
" style="fill:#083b7c;"/>
   </g>
   <g id="patch_3">
    <path d="M 52.123438 389.83875 
L 52.123438 86.366638 
" style="fill:none;"/>
   </g>
   <g id="patch_4">
    <path d="M 52.123438 389.83875 
L 350.955894 389.83875 
" style="fill:none;"/>
   </g>
   <g id="legend_1">
    <g id="line2d_29"/>
    <g id="line2d_30"/>
    <g id="text_17">
     <!-- pearsonr = 0.41; p = 3.3e-07 -->
     <defs>
      <path d="M 18.109375 8.203125 
L 18.109375 -20.796875 
L 9.078125 -20.796875 
L 9.078125 54.6875 
L 18.109375 54.6875 
L 18.109375 46.390625 
Q 20.953125 51.265625 25.265625 53.625 
Q 29.59375 56 35.59375 56 
Q 45.5625 56 51.78125 48.09375 
Q 58.015625 40.1875 58.015625 27.296875 
Q 58.015625 14.40625 51.78125 6.484375 
Q 45.5625 -1.421875 35.59375 -1.421875 
Q 29.59375 -1.421875 25.265625 0.953125 
Q 20.953125 3.328125 18.109375 8.203125 
z
M 48.6875 27.296875 
Q 48.6875 37.203125 44.609375 42.84375 
Q 40.53125 48.484375 33.40625 48.484375 
Q 26.265625 48.484375 22.1875 42.84375 
Q 18.109375 37.203125 18.109375 27.296875 
Q 18.109375 17.390625 22.1875 11.75 
Q 26.265625 6.109375 33.40625 6.109375 
Q 40.53125 6.109375 44.609375 11.75 
Q 48.6875 17.390625 48.6875 27.296875 
z
" id="DejaVuSans-70"/>
      <path d="M 34.28125 27.484375 
Q 23.390625 27.484375 19.1875 25 
Q 14.984375 22.515625 14.984375 16.5 
Q 14.984375 11.71875 18.140625 8.90625 
Q 21.296875 6.109375 26.703125 6.109375 
Q 34.1875 6.109375 38.703125 11.40625 
Q 43.21875 16.703125 43.21875 25.484375 
L 43.21875 27.484375 
z
M 52.203125 31.203125 
L 52.203125 0 
L 43.21875 0 
L 43.21875 8.296875 
Q 40.140625 3.328125 35.546875 0.953125 
Q 30.953125 -1.421875 24.3125 -1.421875 
Q 15.921875 -1.421875 10.953125 3.296875 
Q 6 8.015625 6 15.921875 
Q 6 25.140625 12.171875 29.828125 
Q 18.359375 34.515625 30.609375 34.515625 
L 43.21875 34.515625 
L 43.21875 35.40625 
Q 43.21875 41.609375 39.140625 45 
Q 35.0625 48.390625 27.6875 48.390625 
Q 23 48.390625 18.546875 47.265625 
Q 14.109375 46.140625 10.015625 43.890625 
L 10.015625 52.203125 
Q 14.9375 54.109375 19.578125 55.046875 
Q 24.21875 56 28.609375 56 
Q 40.484375 56 46.34375 49.84375 
Q 52.203125 43.703125 52.203125 31.203125 
z
" id="DejaVuSans-61"/>
      <path d="M 44.28125 53.078125 
L 44.28125 44.578125 
Q 40.484375 46.53125 36.375 47.5 
Q 32.28125 48.484375 27.875 48.484375 
Q 21.1875 48.484375 17.84375 46.4375 
Q 14.5 44.390625 14.5 40.28125 
Q 14.5 37.15625 16.890625 35.375 
Q 19.28125 33.59375 26.515625 31.984375 
L 29.59375 31.296875 
Q 39.15625 29.25 43.1875 25.515625 
Q 47.21875 21.78125 47.21875 15.09375 
Q 47.21875 7.46875 41.1875 3.015625 
Q 35.15625 -1.421875 24.609375 -1.421875 
Q 20.21875 -1.421875 15.453125 -0.5625 
Q 10.6875 0.296875 5.421875 2 
L 5.421875 11.28125 
Q 10.40625 8.6875 15.234375 7.390625 
Q 20.0625 6.109375 24.8125 6.109375 
Q 31.15625 6.109375 34.5625 8.28125 
Q 37.984375 10.453125 37.984375 14.40625 
Q 37.984375 18.0625 35.515625 20.015625 
Q 33.0625 21.96875 24.703125 23.78125 
L 21.578125 24.515625 
Q 13.234375 26.265625 9.515625 29.90625 
Q 5.8125 33.546875 5.8125 39.890625 
Q 5.8125 47.609375 11.28125 51.796875 
Q 16.75 56 26.8125 56 
Q 31.78125 56 36.171875 55.265625 
Q 40.578125 54.546875 44.28125 53.078125 
z
" id="DejaVuSans-73"/>
      <path d="M 30.609375 48.390625 
Q 23.390625 48.390625 19.1875 42.75 
Q 14.984375 37.109375 14.984375 27.296875 
Q 14.984375 17.484375 19.15625 11.84375 
Q 23.34375 6.203125 30.609375 6.203125 
Q 37.796875 6.203125 41.984375 11.859375 
Q 46.1875 17.53125 46.1875 27.296875 
Q 46.1875 37.015625 41.984375 42.703125 
Q 37.796875 48.390625 30.609375 48.390625 
z
M 30.609375 56 
Q 42.328125 56 49.015625 48.375 
Q 55.71875 40.765625 55.71875 27.296875 
Q 55.71875 13.875 49.015625 6.21875 
Q 42.328125 -1.421875 30.609375 -1.421875 
Q 18.84375 -1.421875 12.171875 6.21875 
Q 5.515625 13.875 5.515625 27.296875 
Q 5.515625 40.765625 12.171875 48.375 
Q 18.84375 56 30.609375 56 
z
" id="DejaVuSans-6f"/>
      <path d="M 54.890625 33.015625 
L 54.890625 0 
L 45.90625 0 
L 45.90625 32.71875 
Q 45.90625 40.484375 42.875 44.328125 
Q 39.84375 48.1875 33.796875 48.1875 
Q 26.515625 48.1875 22.3125 43.546875 
Q 18.109375 38.921875 18.109375 30.90625 
L 18.109375 0 
L 9.078125 0 
L 9.078125 54.6875 
L 18.109375 54.6875 
L 18.109375 46.1875 
Q 21.34375 51.125 25.703125 53.5625 
Q 30.078125 56 35.796875 56 
Q 45.21875 56 50.046875 50.171875 
Q 54.890625 44.34375 54.890625 33.015625 
z
" id="DejaVuSans-6e"/>
      <path id="DejaVuSans-20"/>
      <path d="M 10.59375 45.40625 
L 73.1875 45.40625 
L 73.1875 37.203125 
L 10.59375 37.203125 
z
M 10.59375 25.484375 
L 73.1875 25.484375 
L 73.1875 17.1875 
L 10.59375 17.1875 
z
" id="DejaVuSans-3d"/>
      <path d="M 10.6875 12.40625 
L 21 12.40625 
L 21 0 
L 10.6875 0 
z
" id="DejaVuSans-2e"/>
      <path d="M 11.71875 51.703125 
L 22.015625 51.703125 
L 22.015625 39.3125 
L 11.71875 39.3125 
z
M 11.71875 12.40625 
L 22.015625 12.40625 
L 22.015625 4 
L 14.015625 -11.625 
L 7.71875 -11.625 
L 11.71875 4 
z
" id="DejaVuSans-3b"/>
      <path d="M 4.890625 31.390625 
L 31.203125 31.390625 
L 31.203125 23.390625 
L 4.890625 23.390625 
z
" id="DejaVuSans-2d"/>
      <path d="M 8.203125 72.90625 
L 55.078125 72.90625 
L 55.078125 68.703125 
L 28.609375 0 
L 18.3125 0 
L 43.21875 64.59375 
L 8.203125 64.59375 
z
" id="DejaVuSans-37"/>
     </defs>
     <g style="fill:#262626;" transform="translate(194.416832 102.965075)scale(0.1 -0.1)">
      <use xlink:href="#DejaVuSans-70"/>
      <use x="63.476562" xlink:href="#DejaVuSans-65"/>
      <use x="125" xlink:href="#DejaVuSans-61"/>
      <use x="186.279297" xlink:href="#DejaVuSans-72"/>
      <use x="227.392578" xlink:href="#DejaVuSans-73"/>
      <use x="279.492188" xlink:href="#DejaVuSans-6f"/>
      <use x="340.673828" xlink:href="#DejaVuSans-6e"/>
      <use x="404.052734" xlink:href="#DejaVuSans-72"/>
      <use x="445.166016" xlink:href="#DejaVuSans-20"/>
      <use x="476.953125" xlink:href="#DejaVuSans-3d"/>
      <use x="560.742188" xlink:href="#DejaVuSans-20"/>
      <use x="592.529297" xlink:href="#DejaVuSans-30"/>
      <use x="656.152344" xlink:href="#DejaVuSans-2e"/>
      <use x="687.939453" xlink:href="#DejaVuSans-34"/>
      <use x="751.5625" xlink:href="#DejaVuSans-31"/>
      <use x="815.185547" xlink:href="#DejaVuSans-3b"/>
      <use x="848.876953" xlink:href="#DejaVuSans-20"/>
      <use x="880.664062" xlink:href="#DejaVuSans-70"/>
      <use x="944.140625" xlink:href="#DejaVuSans-20"/>
      <use x="975.927734" xlink:href="#DejaVuSans-3d"/>
      <use x="1059.716797" xlink:href="#DejaVuSans-20"/>
      <use x="1091.503906" xlink:href="#DejaVuSans-33"/>
      <use x="1155.126953" xlink:href="#DejaVuSans-2e"/>
      <use x="1186.914062" xlink:href="#DejaVuSans-33"/>
      <use x="1250.537109" xlink:href="#DejaVuSans-65"/>
      <use x="1312.060547" xlink:href="#DejaVuSans-2d"/>
      <use x="1348.144531" xlink:href="#DejaVuSans-30"/>
      <use x="1411.767578" xlink:href="#DejaVuSans-37"/>
     </g>
    </g>
   </g>
  </g>
  <g id="axes_2">
   <g id="patch_5">
    <path d="M 52.123438 73.172198 
L 350.955894 73.172198 
L 350.955894 7.2 
L 52.123438 7.2 
z
" style="fill:#eaeaf2;"/>
   </g>
   <g id="matplotlib.axis_3">
    <g id="xtick_7">
     <g id="line2d_31">
      <path clip-path="url(#p647725c409)" d="M 99.222949 73.172198 
L 99.222949 7.2 
" style="fill:none;stroke:#ffffff;stroke-linecap:round;stroke-width:0.8;"/>
     </g>
     <g id="line2d_32"/>
    </g>
    <g id="xtick_8">
     <g id="line2d_33">
      <path clip-path="url(#p647725c409)" d="M 149.073357 73.172198 
L 149.073357 7.2 
" style="fill:none;stroke:#ffffff;stroke-linecap:round;stroke-width:0.8;"/>
     </g>
     <g id="line2d_34"/>
    </g>
    <g id="xtick_9">
     <g id="line2d_35">
      <path clip-path="url(#p647725c409)" d="M 198.923766 73.172198 
L 198.923766 7.2 
" style="fill:none;stroke:#ffffff;stroke-linecap:round;stroke-width:0.8;"/>
     </g>
     <g id="line2d_36"/>
    </g>
    <g id="xtick_10">
     <g id="line2d_37">
      <path clip-path="url(#p647725c409)" d="M 248.774174 73.172198 
L 248.774174 7.2 
" style="fill:none;stroke:#ffffff;stroke-linecap:round;stroke-width:0.8;"/>
     </g>
     <g id="line2d_38"/>
    </g>
    <g id="xtick_11">
     <g id="line2d_39">
      <path clip-path="url(#p647725c409)" d="M 298.624583 73.172198 
L 298.624583 7.2 
" style="fill:none;stroke:#ffffff;stroke-linecap:round;stroke-width:0.8;"/>
     </g>
     <g id="line2d_40"/>
    </g>
    <g id="xtick_12">
     <g id="line2d_41">
      <path clip-path="url(#p647725c409)" d="M 348.474991 73.172198 
L 348.474991 7.2 
" style="fill:none;stroke:#ffffff;stroke-linecap:round;stroke-width:0.8;"/>
     </g>
     <g id="line2d_42"/>
    </g>
   </g>
   <g id="matplotlib.axis_4">
    <g id="ytick_9"/>
    <g id="ytick_10"/>
    <g id="ytick_11"/>
   </g>
   <g id="PolyCollection_1">
    <path clip-path="url(#p647725c409)" d="M 59.469905 72.785466 
L 59.469905 73.172198 
L 62.340001 73.172198 
L 65.210098 73.172198 
L 68.080194 73.172198 
L 70.95029 73.172198 
L 73.820386 73.172198 
L 76.690482 73.172198 
L 79.560578 73.172198 
L 82.430675 73.172198 
L 85.300771 73.172198 
L 88.170867 73.172198 
L 91.040963 73.172198 
L 93.911059 73.172198 
L 96.781155 73.172198 
L 99.651252 73.172198 
L 102.521348 73.172198 
L 105.391444 73.172198 
L 108.26154 73.172198 
L 111.131636 73.172198 
L 114.001733 73.172198 
L 116.871829 73.172198 
L 119.741925 73.172198 
L 122.612021 73.172198 
L 125.482117 73.172198 
L 128.352213 73.172198 
L 131.22231 73.172198 
L 134.092406 73.172198 
L 136.962502 73.172198 
L 139.832598 73.172198 
L 142.702694 73.172198 
L 145.572791 73.172198 
L 148.442887 73.172198 
L 151.312983 73.172198 
L 154.183079 73.172198 
L 157.053175 73.172198 
L 159.923271 73.172198 
L 162.793368 73.172198 
L 165.663464 73.172198 
L 168.53356 73.172198 
L 171.403656 73.172198 
L 174.273752 73.172198 
L 177.143848 73.172198 
L 180.013945 73.172198 
L 182.884041 73.172198 
L 185.754137 73.172198 
L 188.624233 73.172198 
L 191.494329 73.172198 
L 194.364426 73.172198 
L 197.234522 73.172198 
L 200.104618 73.172198 
L 202.974714 73.172198 
L 205.84481 73.172198 
L 208.714906 73.172198 
L 211.585003 73.172198 
L 214.455099 73.172198 
L 217.325195 73.172198 
L 220.195291 73.172198 
L 223.065387 73.172198 
L 225.935483 73.172198 
L 228.80558 73.172198 
L 231.675676 73.172198 
L 234.545772 73.172198 
L 237.415868 73.172198 
L 240.285964 73.172198 
L 243.156061 73.172198 
L 246.026157 73.172198 
L 248.896253 73.172198 
L 251.766349 73.172198 
L 254.636445 73.172198 
L 257.506541 73.172198 
L 260.376638 73.172198 
L 263.246734 73.172198 
L 266.11683 73.172198 
L 268.986926 73.172198 
L 271.857022 73.172198 
L 274.727118 73.172198 
L 277.597215 73.172198 
L 280.467311 73.172198 
L 283.337407 73.172198 
L 286.207503 73.172198 
L 289.077599 73.172198 
L 291.947696 73.172198 
L 294.817792 73.172198 
L 297.687888 73.172198 
L 300.557984 73.172198 
L 303.42808 73.172198 
L 306.298176 73.172198 
L 309.168273 73.172198 
L 312.038369 73.172198 
L 314.908465 73.172198 
L 317.778561 73.172198 
L 320.648657 73.172198 
L 323.518753 73.172198 
L 326.38885 73.172198 
L 329.258946 73.172198 
L 332.129042 73.172198 
L 334.999138 73.172198 
L 337.869234 73.172198 
L 340.739331 73.172198 
L 343.609427 73.172198 
L 343.609427 73.163523 
L 343.609427 73.163523 
L 340.739331 73.156014 
L 337.869234 73.143362 
L 334.999138 73.123119 
L 332.129042 73.092377 
L 329.258946 73.048094 
L 326.38885 72.987631 
L 323.518753 72.909437 
L 320.648657 72.81371 
L 317.778561 72.702818 
L 314.908465 72.581261 
L 312.038369 72.455047 
L 309.168273 72.330593 
L 306.298176 72.213435 
L 303.42808 72.107176 
L 300.557984 72.013078 
L 297.687888 71.930479 
L 294.817792 71.857922 
L 291.947696 71.794587 
L 289.077599 71.741497 
L 286.207503 71.702032 
L 283.337407 71.681545 
L 280.467311 71.686178 
L 277.597215 71.721246 
L 274.727118 71.789646 
L 271.857022 71.890755 
L 268.986926 72.020081 
L 266.11683 72.16976 
L 263.246734 72.32973 
L 260.376638 72.489288 
L 257.506541 72.638625 
L 254.636445 72.770007 
L 251.766349 72.878343 
L 248.896253 72.961117 
L 246.026157 73.017792 
L 243.156061 73.048958 
L 240.285964 73.055515 
L 237.415868 73.038132 
L 234.545772 72.997108 
L 231.675676 72.93255 
L 228.80558 72.844662 
L 225.935483 72.733749 
L 223.065387 72.599586 
L 220.195291 72.439904 
L 217.325195 72.248104 
L 214.455099 72.010719 
L 211.585003 71.705567 
L 208.714906 71.301734 
L 205.84481 70.762333 
L 202.974714 70.050368 
L 200.104618 69.137037 
L 197.234522 68.01078 
L 194.364426 66.684655 
L 191.494329 65.199562 
L 188.624233 63.621638 
L 185.754137 62.033642 
L 182.884041 60.521939 
L 180.013945 59.162129 
L 177.143848 58.006914 
L 174.273752 57.079166 
L 171.403656 56.371568 
L 168.53356 55.852167 
L 165.663464 55.473514 
L 162.793368 55.182282 
L 159.923271 54.926622 
L 157.053175 54.65968 
L 154.183079 54.339171 
L 151.312983 53.924109 
L 148.442887 53.370328 
L 145.572791 52.626421 
L 142.702694 51.631265 
L 139.832598 50.313914 
L 136.962502 48.596348 
L 134.092406 46.399656 
L 131.22231 43.654447 
L 128.352213 40.316308 
L 125.482117 36.386522 
L 122.612021 31.936507 
L 119.741925 27.131558 
L 116.871829 22.246279 
L 114.001733 17.662165 
L 111.131636 13.839066 
L 108.26154 11.257946 
L 105.391444 10.341533 
L 102.521348 11.369263 
L 99.651252 14.408975 
L 96.781155 19.286554 
L 93.911059 25.605386 
L 91.040963 32.812963 
L 88.170867 40.297673 
L 85.300771 47.490394 
L 82.430675 53.945921 
L 79.560578 59.387773 
L 76.690482 63.712465 
L 73.820386 66.96092 
L 70.95029 69.271489 
L 68.080194 70.8299 
L 65.210098 71.827656 
L 62.340001 72.434542 
L 59.469905 72.785466 
z
" style="fill:#1f77b4;fill-opacity:0.25;"/>
   </g>
   <g id="line2d_43">
    <path clip-path="url(#p647725c409)" d="M 59.469905 72.785466 
L 62.340001 72.434542 
L 65.210098 71.827656 
L 68.080194 70.8299 
L 70.95029 69.271489 
L 73.820386 66.96092 
L 76.690482 63.712465 
L 79.560578 59.387773 
L 82.430675 53.945921 
L 85.300771 47.490394 
L 88.170867 40.297673 
L 91.040963 32.812963 
L 93.911059 25.605386 
L 96.781155 19.286554 
L 99.651252 14.408975 
L 102.521348 11.369263 
L 105.391444 10.341533 
L 108.26154 11.257946 
L 111.131636 13.839066 
L 114.001733 17.662165 
L 116.871829 22.246279 
L 119.741925 27.131558 
L 122.612021 31.936507 
L 125.482117 36.386522 
L 128.352213 40.316308 
L 131.22231 43.654447 
L 134.092406 46.399656 
L 136.962502 48.596348 
L 139.832598 50.313914 
L 142.702694 51.631265 
L 145.572791 52.626421 
L 148.442887 53.370328 
L 151.312983 53.924109 
L 154.183079 54.339171 
L 157.053175 54.65968 
L 159.923271 54.926622 
L 162.793368 55.182282 
L 165.663464 55.473514 
L 168.53356 55.852167 
L 171.403656 56.371568 
L 174.273752 57.079166 
L 177.143848 58.006914 
L 180.013945 59.162129 
L 182.884041 60.521939 
L 185.754137 62.033642 
L 188.624233 63.621638 
L 191.494329 65.199562 
L 194.364426 66.684655 
L 197.234522 68.01078 
L 200.104618 69.137037 
L 202.974714 70.050368 
L 205.84481 70.762333 
L 208.714906 71.301734 
L 211.585003 71.705567 
L 214.455099 72.010719 
L 217.325195 72.248104 
L 220.195291 72.439904 
L 223.065387 72.599586 
L 225.935483 72.733749 
L 228.80558 72.844662 
L 231.675676 72.93255 
L 234.545772 72.997108 
L 237.415868 73.038132 
L 240.285964 73.055515 
L 243.156061 73.048958 
L 246.026157 73.017792 
L 248.896253 72.961117 
L 251.766349 72.878343 
L 254.636445 72.770007 
L 257.506541 72.638625 
L 260.376638 72.489288 
L 263.246734 72.32973 
L 266.11683 72.16976 
L 268.986926 72.020081 
L 271.857022 71.890755 
L 274.727118 71.789646 
L 277.597215 71.721246 
L 280.467311 71.686178 
L 283.337407 71.681545 
L 286.207503 71.702032 
L 289.077599 71.741497 
L 291.947696 71.794587 
L 294.817792 71.857922 
L 297.687888 71.930479 
L 300.557984 72.013078 
L 303.42808 72.107176 
L 306.298176 72.213435 
L 309.168273 72.330593 
L 312.038369 72.455047 
L 314.908465 72.581261 
L 317.778561 72.702818 
L 320.648657 72.81371 
L 323.518753 72.909437 
L 326.38885 72.987631 
L 329.258946 73.048094 
L 332.129042 73.092377 
L 334.999138 73.123119 
L 337.869234 73.143362 
L 340.739331 73.156014 
L 343.609427 73.163523 
" style="fill:none;stroke:#1f77b4;stroke-linecap:round;stroke-width:1.5;"/>
   </g>
   <g id="patch_6">
    <path d="M 52.123438 73.172198 
L 350.955894 73.172198 
" style="fill:none;"/>
   </g>
  </g>
  <g id="axes_3">
   <g id="patch_7">
    <path d="M 363.94861 389.83875 
L 428.912188 389.83875 
L 428.912188 86.366638 
L 363.94861 86.366638 
z
" style="fill:#eaeaf2;"/>
   </g>
   <g id="matplotlib.axis_5">
    <g id="xtick_13"/>
    <g id="xtick_14"/>
   </g>
   <g id="matplotlib.axis_6">
    <g id="ytick_12">
     <g id="line2d_44">
      <path clip-path="url(#p2941c033e7)" d="M 363.94861 380.544599 
L 428.912188 380.544599 
" style="fill:none;stroke:#ffffff;stroke-linecap:round;stroke-width:0.8;"/>
     </g>
     <g id="line2d_45"/>
    </g>
    <g id="ytick_13">
     <g id="line2d_46">
      <path clip-path="url(#p2941c033e7)" d="M 363.94861 339.852725 
L 428.912188 339.852725 
" style="fill:none;stroke:#ffffff;stroke-linecap:round;stroke-width:0.8;"/>
     </g>
     <g id="line2d_47"/>
    </g>
    <g id="ytick_14">
     <g id="line2d_48">
      <path clip-path="url(#p2941c033e7)" d="M 363.94861 299.160851 
L 428.912188 299.160851 
" style="fill:none;stroke:#ffffff;stroke-linecap:round;stroke-width:0.8;"/>
     </g>
     <g id="line2d_49"/>
    </g>
    <g id="ytick_15">
     <g id="line2d_50">
      <path clip-path="url(#p2941c033e7)" d="M 363.94861 258.468977 
L 428.912188 258.468977 
" style="fill:none;stroke:#ffffff;stroke-linecap:round;stroke-width:0.8;"/>
     </g>
     <g id="line2d_51"/>
    </g>
    <g id="ytick_16">
     <g id="line2d_52">
      <path clip-path="url(#p2941c033e7)" d="M 363.94861 217.777103 
L 428.912188 217.777103 
" style="fill:none;stroke:#ffffff;stroke-linecap:round;stroke-width:0.8;"/>
     </g>
     <g id="line2d_53"/>
    </g>
    <g id="ytick_17">
     <g id="line2d_54">
      <path clip-path="url(#p2941c033e7)" d="M 363.94861 177.085229 
L 428.912188 177.085229 
" style="fill:none;stroke:#ffffff;stroke-linecap:round;stroke-width:0.8;"/>
     </g>
     <g id="line2d_55"/>
    </g>
    <g id="ytick_18">
     <g id="line2d_56">
      <path clip-path="url(#p2941c033e7)" d="M 363.94861 136.393355 
L 428.912188 136.393355 
" style="fill:none;stroke:#ffffff;stroke-linecap:round;stroke-width:0.8;"/>
     </g>
     <g id="line2d_57"/>
    </g>
    <g id="ytick_19">
     <g id="line2d_58">
      <path clip-path="url(#p2941c033e7)" d="M 363.94861 95.701481 
L 428.912188 95.701481 
" style="fill:none;stroke:#ffffff;stroke-linecap:round;stroke-width:0.8;"/>
     </g>
     <g id="line2d_59"/>
    </g>
   </g>
   <g id="PolyCollection_2">
    <path clip-path="url(#p2941c033e7)" d="M 364.161309 382.03653 
L 363.94861 382.03653 
L 363.94861 379.128775 
L 363.94861 376.221021 
L 363.94861 373.313267 
L 363.94861 370.405513 
L 363.94861 367.497758 
L 363.94861 364.590004 
L 363.94861 361.68225 
L 363.94861 358.774496 
L 363.94861 355.866741 
L 363.94861 352.958987 
L 363.94861 350.051233 
L 363.94861 347.143479 
L 363.94861 344.235724 
L 363.94861 341.32797 
L 363.94861 338.420216 
L 363.94861 335.512462 
L 363.94861 332.604707 
L 363.94861 329.696953 
L 363.94861 326.789199 
L 363.94861 323.881445 
L 363.94861 320.97369 
L 363.94861 318.065936 
L 363.94861 315.158182 
L 363.94861 312.250428 
L 363.94861 309.342673 
L 363.94861 306.434919 
L 363.94861 303.527165 
L 363.94861 300.61941 
L 363.94861 297.711656 
L 363.94861 294.803902 
L 363.94861 291.896148 
L 363.94861 288.988393 
L 363.94861 286.080639 
L 363.94861 283.172885 
L 363.94861 280.265131 
L 363.94861 277.357376 
L 363.94861 274.449622 
L 363.94861 271.541868 
L 363.94861 268.634114 
L 363.94861 265.726359 
L 363.94861 262.818605 
L 363.94861 259.910851 
L 363.94861 257.003097 
L 363.94861 254.095342 
L 363.94861 251.187588 
L 363.94861 248.279834 
L 363.94861 245.37208 
L 363.94861 242.464325 
L 363.94861 239.556571 
L 363.94861 236.648817 
L 363.94861 233.741063 
L 363.94861 230.833308 
L 363.94861 227.925554 
L 363.94861 225.0178 
L 363.94861 222.110046 
L 363.94861 219.202291 
L 363.94861 216.294537 
L 363.94861 213.386783 
L 363.94861 210.479029 
L 363.94861 207.571274 
L 363.94861 204.66352 
L 363.94861 201.755766 
L 363.94861 198.848012 
L 363.94861 195.940257 
L 363.94861 193.032503 
L 363.94861 190.124749 
L 363.94861 187.216994 
L 363.94861 184.30924 
L 363.94861 181.401486 
L 363.94861 178.493732 
L 363.94861 175.585977 
L 363.94861 172.678223 
L 363.94861 169.770469 
L 363.94861 166.862715 
L 363.94861 163.95496 
L 363.94861 161.047206 
L 363.94861 158.139452 
L 363.94861 155.231698 
L 363.94861 152.323943 
L 363.94861 149.416189 
L 363.94861 146.508435 
L 363.94861 143.600681 
L 363.94861 140.692926 
L 363.94861 137.785172 
L 363.94861 134.877418 
L 363.94861 131.969664 
L 363.94861 129.061909 
L 363.94861 126.154155 
L 363.94861 123.246401 
L 363.94861 120.338647 
L 363.94861 117.430892 
L 363.94861 114.523138 
L 363.94861 111.615384 
L 363.94861 108.70763 
L 363.94861 105.799875 
L 363.94861 102.892121 
L 363.94861 99.984367 
L 363.94861 97.076613 
L 363.94861 94.168858 
L 363.956887 94.168858 
L 363.956887 94.168858 
L 363.963608 97.076613 
L 363.974658 99.984367 
L 363.991975 102.892121 
L 364.017814 105.799875 
L 364.054479 108.70763 
L 364.103883 111.615384 
L 364.166964 114.523138 
L 364.243087 117.430892 
L 364.329594 120.338647 
L 364.421697 123.246401 
L 364.512892 126.154155 
L 364.595908 129.061909 
L 364.664079 131.969664 
L 364.712816 134.877418 
L 364.740803 137.785172 
L 364.750514 140.692926 
L 364.747852 143.600681 
L 364.740959 146.508435 
L 364.73851 149.416189 
L 364.747983 152.323943 
L 364.774454 155.231698 
L 364.820256 158.139452 
L 364.885583 161.047206 
L 364.969769 163.95496 
L 365.072748 166.862715 
L 365.196109 169.770469 
L 365.343312 172.678223 
L 365.518939 175.585977 
L 365.72722 178.493732 
L 365.970308 181.401486 
L 366.246889 184.30924 
L 366.551545 187.216994 
L 366.874968 190.124749 
L 367.204841 193.032503 
L 367.526987 195.940257 
L 367.826432 198.848012 
L 368.088294 201.755766 
L 368.298646 204.66352 
L 368.445746 207.571274 
L 368.521877 210.479029 
L 368.525763 213.386783 
L 368.465 216.294537 
L 368.357601 219.202291 
L 368.231694 222.110046 
L 368.122768 225.0178 
L 368.068594 227.925554 
L 368.102705 230.833308 
L 368.247939 233.741063 
L 368.511703 236.648817 
L 368.884263 239.556571 
L 369.340665 242.464325 
L 369.84597 245.37208 
L 370.362694 248.279834 
L 370.858856 251.187588 
L 371.314895 254.095342 
L 371.728041 257.003097 
L 372.113325 259.910851 
L 372.501254 262.818605 
L 372.932996 265.726359 
L 373.454527 268.634114 
L 374.111431 271.541868 
L 374.945678 274.449622 
L 375.994921 277.357376 
L 377.293848 280.265131 
L 378.876223 283.172885 
L 380.775934 286.080639 
L 383.025673 288.988393 
L 385.652734 291.896148 
L 388.672528 294.803902 
L 392.081209 297.711656 
L 395.849061 300.61941 
L 399.915891 303.527165 
L 404.188827 306.434919 
L 408.542124 309.342673 
L 412.818298 312.250428 
L 416.830314 315.158182 
L 420.365684 318.065936 
L 423.194443 320.97369 
L 425.083474 323.881445 
L 425.818684 326.789199 
L 425.234123 329.696953 
L 423.243732 332.604707 
L 419.868456 335.512462 
L 415.250435 338.420216 
L 409.647806 341.32797 
L 403.408218 344.235724 
L 396.925033 347.143479 
L 390.58524 350.051233 
L 384.720487 352.958987 
L 379.571461 355.866741 
L 375.271689 358.774496 
L 371.851323 361.68225 
L 369.256619 364.590004 
L 367.377933 367.497758 
L 366.078802 370.405513 
L 365.220367 373.313267 
L 364.678118 376.221021 
L 364.35057 379.128775 
L 364.161309 382.03653 
z
" style="fill:#1f77b4;fill-opacity:0.25;"/>
   </g>
   <g id="line2d_60">
    <path clip-path="url(#p2941c033e7)" d="M 364.161309 382.03653 
L 364.35057 379.128775 
L 364.678118 376.221021 
L 365.220367 373.313267 
L 366.078802 370.405513 
L 367.377933 367.497758 
L 369.256619 364.590004 
L 371.851323 361.68225 
L 375.271689 358.774496 
L 379.571461 355.866741 
L 384.720487 352.958987 
L 390.58524 350.051233 
L 396.925033 347.143479 
L 403.408218 344.235724 
L 409.647806 341.32797 
L 415.250435 338.420216 
L 419.868456 335.512462 
L 423.243732 332.604707 
L 425.234123 329.696953 
L 425.818684 326.789199 
L 425.083474 323.881445 
L 423.194443 320.97369 
L 420.365684 318.065936 
L 416.830314 315.158182 
L 412.818298 312.250428 
L 408.542124 309.342673 
L 404.188827 306.434919 
L 399.915891 303.527165 
L 395.849061 300.61941 
L 392.081209 297.711656 
L 388.672528 294.803902 
L 385.652734 291.896148 
L 383.025673 288.988393 
L 380.775934 286.080639 
L 378.876223 283.172885 
L 377.293848 280.265131 
L 375.994921 277.357376 
L 374.945678 274.449622 
L 374.111431 271.541868 
L 373.454527 268.634114 
L 372.932996 265.726359 
L 372.501254 262.818605 
L 372.113325 259.910851 
L 371.728041 257.003097 
L 371.314895 254.095342 
L 370.858856 251.187588 
L 370.362694 248.279834 
L 369.84597 245.37208 
L 369.340665 242.464325 
L 368.884263 239.556571 
L 368.511703 236.648817 
L 368.247939 233.741063 
L 368.102705 230.833308 
L 368.068594 227.925554 
L 368.122768 225.0178 
L 368.231694 222.110046 
L 368.357601 219.202291 
L 368.465 216.294537 
L 368.525763 213.386783 
L 368.521877 210.479029 
L 368.445746 207.571274 
L 368.298646 204.66352 
L 368.088294 201.755766 
L 367.826432 198.848012 
L 367.526987 195.940257 
L 367.204841 193.032503 
L 366.874968 190.124749 
L 366.551545 187.216994 
L 366.246889 184.30924 
L 365.970308 181.401486 
L 365.72722 178.493732 
L 365.518939 175.585977 
L 365.343312 172.678223 
L 365.196109 169.770469 
L 365.072748 166.862715 
L 364.969769 163.95496 
L 364.885583 161.047206 
L 364.820256 158.139452 
L 364.774454 155.231698 
L 364.747983 152.323943 
L 364.73851 149.416189 
L 364.740959 146.508435 
L 364.747852 143.600681 
L 364.750514 140.692926 
L 364.740803 137.785172 
L 364.712816 134.877418 
L 364.664079 131.969664 
L 364.595908 129.061909 
L 364.512892 126.154155 
L 364.421697 123.246401 
L 364.329594 120.338647 
L 364.243087 117.430892 
L 364.166964 114.523138 
L 364.103883 111.615384 
L 364.054479 108.70763 
L 364.017814 105.799875 
L 363.991975 102.892121 
L 363.974658 99.984367 
L 363.963608 97.076613 
L 363.956887 94.168858 
" style="fill:none;stroke:#1f77b4;stroke-linecap:round;stroke-width:1.5;"/>
   </g>
   <g id="patch_8">
    <path d="M 363.94861 389.83875 
L 363.94861 86.366638 
" style="fill:none;"/>
   </g>
  </g>
 </g>
 <defs>
  <clipPath id="pf4c5e12a00">
   <rect height="303.472112" width="298.832457" x="52.123438" y="86.366638"/>
  </clipPath>
  <clipPath id="p647725c409">
   <rect height="65.972198" width="298.832457" x="52.123438" y="7.2"/>
  </clipPath>
  <clipPath id="p2941c033e7">
   <rect height="303.472112" width="64.963578" x="363.94861" y="86.366638"/>
  </clipPath>
 </defs>
</svg>
