<?xml version="1.0" encoding="utf-8" standalone="no"?>
<!DOCTYPE svg PUBLIC "-//W3C//DTD SVG 1.1//EN"
  "http://www.w3.org/Graphics/SVG/1.1/DTD/svg11.dtd">
<!-- Created with matplotlib (http://matplotlib.org/) -->
<svg height="424pt" version="1.1" viewBox="0 0 434 424" width="434pt" xmlns="http://www.w3.org/2000/svg" xmlns:xlink="http://www.w3.org/1999/xlink">
 <defs>
  <style type="text/css">
*{stroke-linecap:butt;stroke-linejoin:round;}
  </style>
 </defs>
 <g id="figure_1">
  <g id="patch_1">
   <path d="M 0 424.173125 
L 434.095 424.173125 
L 434.095 0 
L 0 0 
z
" style="fill:#ffffff;"/>
  </g>
  <g id="axes_1">
   <g id="patch_2">
    <path d="M 50.10625 389.83875 
L 348.938707 389.83875 
L 348.938707 86.366638 
L 50.10625 86.366638 
z
" style="fill:#eaeaf2;"/>
   </g>
   <g id="matplotlib.axis_1">
    <g id="xtick_1">
     <g id="line2d_1">
      <path clip-path="url(#p33f39e224e)" d="M 63.166447 389.83875 
L 63.166447 86.366638 
" style="fill:none;stroke:#ffffff;stroke-linecap:round;stroke-width:0.8;"/>
     </g>
     <g id="line2d_2"/>
     <g id="text_1">
      <!-- −200 -->
      <defs>
       <path d="M 10.59375 35.5 
L 73.1875 35.5 
L 73.1875 27.203125 
L 10.59375 27.203125 
z
" id="DejaVuSans-2212"/>
       <path d="M 19.1875 8.296875 
L 53.609375 8.296875 
L 53.609375 0 
L 7.328125 0 
L 7.328125 8.296875 
Q 12.9375 14.109375 22.625 23.890625 
Q 32.328125 33.6875 34.8125 36.53125 
Q 39.546875 41.84375 41.421875 45.53125 
Q 43.3125 49.21875 43.3125 52.78125 
Q 43.3125 58.59375 39.234375 62.25 
Q 35.15625 65.921875 28.609375 65.921875 
Q 23.96875 65.921875 18.8125 64.3125 
Q 13.671875 62.703125 7.8125 59.421875 
L 7.8125 69.390625 
Q 13.765625 71.78125 18.9375 73 
Q 24.125 74.21875 28.421875 74.21875 
Q 39.75 74.21875 46.484375 68.546875 
Q 53.21875 62.890625 53.21875 53.421875 
Q 53.21875 48.921875 51.53125 44.890625 
Q 49.859375 40.875 45.40625 35.40625 
Q 44.1875 33.984375 37.640625 27.21875 
Q 31.109375 20.453125 19.1875 8.296875 
z
" id="DejaVuSans-32"/>
       <path d="M 31.78125 66.40625 
Q 24.171875 66.40625 20.328125 58.90625 
Q 16.5 51.421875 16.5 36.375 
Q 16.5 21.390625 20.328125 13.890625 
Q 24.171875 6.390625 31.78125 6.390625 
Q 39.453125 6.390625 43.28125 13.890625 
Q 47.125 21.390625 47.125 36.375 
Q 47.125 51.421875 43.28125 58.90625 
Q 39.453125 66.40625 31.78125 66.40625 
z
M 31.78125 74.21875 
Q 44.046875 74.21875 50.515625 64.515625 
Q 56.984375 54.828125 56.984375 36.375 
Q 56.984375 17.96875 50.515625 8.265625 
Q 44.046875 -1.421875 31.78125 -1.421875 
Q 19.53125 -1.421875 13.0625 8.265625 
Q 6.59375 17.96875 6.59375 36.375 
Q 6.59375 54.828125 13.0625 64.515625 
Q 19.53125 74.21875 31.78125 74.21875 
z
" id="DejaVuSans-30"/>
      </defs>
      <g style="fill:#262626;" transform="translate(49.432853 400.937187)scale(0.1 -0.1)">
       <use xlink:href="#DejaVuSans-2212"/>
       <use x="83.789062" xlink:href="#DejaVuSans-32"/>
       <use x="147.412109" xlink:href="#DejaVuSans-30"/>
       <use x="211.035156" xlink:href="#DejaVuSans-30"/>
      </g>
     </g>
    </g>
    <g id="xtick_2">
     <g id="line2d_3">
      <path clip-path="url(#p33f39e224e)" d="M 105.554178 389.83875 
L 105.554178 86.366638 
" style="fill:none;stroke:#ffffff;stroke-linecap:round;stroke-width:0.8;"/>
     </g>
     <g id="line2d_4"/>
     <g id="text_2">
      <!-- 0 -->
      <g style="fill:#262626;" transform="translate(102.372928 400.937187)scale(0.1 -0.1)">
       <use xlink:href="#DejaVuSans-30"/>
      </g>
     </g>
    </g>
    <g id="xtick_3">
     <g id="line2d_5">
      <path clip-path="url(#p33f39e224e)" d="M 147.941908 389.83875 
L 147.941908 86.366638 
" style="fill:none;stroke:#ffffff;stroke-linecap:round;stroke-width:0.8;"/>
     </g>
     <g id="line2d_6"/>
     <g id="text_3">
      <!-- 200 -->
      <g style="fill:#262626;" transform="translate(138.398158 400.937187)scale(0.1 -0.1)">
       <use xlink:href="#DejaVuSans-32"/>
       <use x="63.623047" xlink:href="#DejaVuSans-30"/>
       <use x="127.246094" xlink:href="#DejaVuSans-30"/>
      </g>
     </g>
    </g>
    <g id="xtick_4">
     <g id="line2d_7">
      <path clip-path="url(#p33f39e224e)" d="M 190.329639 389.83875 
L 190.329639 86.366638 
" style="fill:none;stroke:#ffffff;stroke-linecap:round;stroke-width:0.8;"/>
     </g>
     <g id="line2d_8"/>
     <g id="text_4">
      <!-- 400 -->
      <defs>
       <path d="M 37.796875 64.3125 
L 12.890625 25.390625 
L 37.796875 25.390625 
z
M 35.203125 72.90625 
L 47.609375 72.90625 
L 47.609375 25.390625 
L 58.015625 25.390625 
L 58.015625 17.1875 
L 47.609375 17.1875 
L 47.609375 0 
L 37.796875 0 
L 37.796875 17.1875 
L 4.890625 17.1875 
L 4.890625 26.703125 
z
" id="DejaVuSans-34"/>
      </defs>
      <g style="fill:#262626;" transform="translate(180.785889 400.937187)scale(0.1 -0.1)">
       <use xlink:href="#DejaVuSans-34"/>
       <use x="63.623047" xlink:href="#DejaVuSans-30"/>
       <use x="127.246094" xlink:href="#DejaVuSans-30"/>
      </g>
     </g>
    </g>
    <g id="xtick_5">
     <g id="line2d_9">
      <path clip-path="url(#p33f39e224e)" d="M 232.71737 389.83875 
L 232.71737 86.366638 
" style="fill:none;stroke:#ffffff;stroke-linecap:round;stroke-width:0.8;"/>
     </g>
     <g id="line2d_10"/>
     <g id="text_5">
      <!-- 600 -->
      <defs>
       <path d="M 33.015625 40.375 
Q 26.375 40.375 22.484375 35.828125 
Q 18.609375 31.296875 18.609375 23.390625 
Q 18.609375 15.53125 22.484375 10.953125 
Q 26.375 6.390625 33.015625 6.390625 
Q 39.65625 6.390625 43.53125 10.953125 
Q 47.40625 15.53125 47.40625 23.390625 
Q 47.40625 31.296875 43.53125 35.828125 
Q 39.65625 40.375 33.015625 40.375 
z
M 52.59375 71.296875 
L 52.59375 62.3125 
Q 48.875 64.0625 45.09375 64.984375 
Q 41.3125 65.921875 37.59375 65.921875 
Q 27.828125 65.921875 22.671875 59.328125 
Q 17.53125 52.734375 16.796875 39.40625 
Q 19.671875 43.65625 24.015625 45.921875 
Q 28.375 48.1875 33.59375 48.1875 
Q 44.578125 48.1875 50.953125 41.515625 
Q 57.328125 34.859375 57.328125 23.390625 
Q 57.328125 12.15625 50.6875 5.359375 
Q 44.046875 -1.421875 33.015625 -1.421875 
Q 20.359375 -1.421875 13.671875 8.265625 
Q 6.984375 17.96875 6.984375 36.375 
Q 6.984375 53.65625 15.1875 63.9375 
Q 23.390625 74.21875 37.203125 74.21875 
Q 40.921875 74.21875 44.703125 73.484375 
Q 48.484375 72.75 52.59375 71.296875 
z
" id="DejaVuSans-36"/>
      </defs>
      <g style="fill:#262626;" transform="translate(223.17362 400.937187)scale(0.1 -0.1)">
       <use xlink:href="#DejaVuSans-36"/>
       <use x="63.623047" xlink:href="#DejaVuSans-30"/>
       <use x="127.246094" xlink:href="#DejaVuSans-30"/>
      </g>
     </g>
    </g>
    <g id="xtick_6">
     <g id="line2d_11">
      <path clip-path="url(#p33f39e224e)" d="M 275.105101 389.83875 
L 275.105101 86.366638 
" style="fill:none;stroke:#ffffff;stroke-linecap:round;stroke-width:0.8;"/>
     </g>
     <g id="line2d_12"/>
     <g id="text_6">
      <!-- 800 -->
      <defs>
       <path d="M 31.78125 34.625 
Q 24.75 34.625 20.71875 30.859375 
Q 16.703125 27.09375 16.703125 20.515625 
Q 16.703125 13.921875 20.71875 10.15625 
Q 24.75 6.390625 31.78125 6.390625 
Q 38.8125 6.390625 42.859375 10.171875 
Q 46.921875 13.96875 46.921875 20.515625 
Q 46.921875 27.09375 42.890625 30.859375 
Q 38.875 34.625 31.78125 34.625 
z
M 21.921875 38.8125 
Q 15.578125 40.375 12.03125 44.71875 
Q 8.5 49.078125 8.5 55.328125 
Q 8.5 64.0625 14.71875 69.140625 
Q 20.953125 74.21875 31.78125 74.21875 
Q 42.671875 74.21875 48.875 69.140625 
Q 55.078125 64.0625 55.078125 55.328125 
Q 55.078125 49.078125 51.53125 44.71875 
Q 48 40.375 41.703125 38.8125 
Q 48.828125 37.15625 52.796875 32.3125 
Q 56.78125 27.484375 56.78125 20.515625 
Q 56.78125 9.90625 50.3125 4.234375 
Q 43.84375 -1.421875 31.78125 -1.421875 
Q 19.734375 -1.421875 13.25 4.234375 
Q 6.78125 9.90625 6.78125 20.515625 
Q 6.78125 27.484375 10.78125 32.3125 
Q 14.796875 37.15625 21.921875 38.8125 
z
M 18.3125 54.390625 
Q 18.3125 48.734375 21.84375 45.5625 
Q 25.390625 42.390625 31.78125 42.390625 
Q 38.140625 42.390625 41.71875 45.5625 
Q 45.3125 48.734375 45.3125 54.390625 
Q 45.3125 60.0625 41.71875 63.234375 
Q 38.140625 66.40625 31.78125 66.40625 
Q 25.390625 66.40625 21.84375 63.234375 
Q 18.3125 60.0625 18.3125 54.390625 
z
" id="DejaVuSans-38"/>
      </defs>
      <g style="fill:#262626;" transform="translate(265.561351 400.937187)scale(0.1 -0.1)">
       <use xlink:href="#DejaVuSans-38"/>
       <use x="63.623047" xlink:href="#DejaVuSans-30"/>
       <use x="127.246094" xlink:href="#DejaVuSans-30"/>
      </g>
     </g>
    </g>
    <g id="xtick_7">
     <g id="line2d_13">
      <path clip-path="url(#p33f39e224e)" d="M 317.492832 389.83875 
L 317.492832 86.366638 
" style="fill:none;stroke:#ffffff;stroke-linecap:round;stroke-width:0.8;"/>
     </g>
     <g id="line2d_14"/>
     <g id="text_7">
      <!-- 1000 -->
      <defs>
       <path d="M 12.40625 8.296875 
L 28.515625 8.296875 
L 28.515625 63.921875 
L 10.984375 60.40625 
L 10.984375 69.390625 
L 28.421875 72.90625 
L 38.28125 72.90625 
L 38.28125 8.296875 
L 54.390625 8.296875 
L 54.390625 0 
L 12.40625 0 
z
" id="DejaVuSans-31"/>
      </defs>
      <g style="fill:#262626;" transform="translate(304.767832 400.937187)scale(0.1 -0.1)">
       <use xlink:href="#DejaVuSans-31"/>
       <use x="63.623047" xlink:href="#DejaVuSans-30"/>
       <use x="127.246094" xlink:href="#DejaVuSans-30"/>
       <use x="190.869141" xlink:href="#DejaVuSans-30"/>
      </g>
     </g>
    </g>
    <g id="text_8">
     <!-- Sum_Credit -->
     <defs>
      <path d="M 53.515625 70.515625 
L 53.515625 60.890625 
Q 47.90625 63.578125 42.921875 64.890625 
Q 37.9375 66.21875 33.296875 66.21875 
Q 25.25 66.21875 20.875 63.09375 
Q 16.5 59.96875 16.5 54.203125 
Q 16.5 49.359375 19.40625 46.890625 
Q 22.3125 44.4375 30.421875 42.921875 
L 36.375 41.703125 
Q 47.40625 39.59375 52.65625 34.296875 
Q 57.90625 29 57.90625 20.125 
Q 57.90625 9.515625 50.796875 4.046875 
Q 43.703125 -1.421875 29.984375 -1.421875 
Q 24.8125 -1.421875 18.96875 -0.25 
Q 13.140625 0.921875 6.890625 3.21875 
L 6.890625 13.375 
Q 12.890625 10.015625 18.65625 8.296875 
Q 24.421875 6.59375 29.984375 6.59375 
Q 38.421875 6.59375 43.015625 9.90625 
Q 47.609375 13.234375 47.609375 19.390625 
Q 47.609375 24.75 44.3125 27.78125 
Q 41.015625 30.8125 33.5 32.328125 
L 27.484375 33.5 
Q 16.453125 35.6875 11.515625 40.375 
Q 6.59375 45.0625 6.59375 53.421875 
Q 6.59375 63.09375 13.40625 68.65625 
Q 20.21875 74.21875 32.171875 74.21875 
Q 37.3125 74.21875 42.625 73.28125 
Q 47.953125 72.359375 53.515625 70.515625 
z
" id="DejaVuSans-53"/>
      <path d="M 8.5 21.578125 
L 8.5 54.6875 
L 17.484375 54.6875 
L 17.484375 21.921875 
Q 17.484375 14.15625 20.5 10.265625 
Q 23.53125 6.390625 29.59375 6.390625 
Q 36.859375 6.390625 41.078125 11.03125 
Q 45.3125 15.671875 45.3125 23.6875 
L 45.3125 54.6875 
L 54.296875 54.6875 
L 54.296875 0 
L 45.3125 0 
L 45.3125 8.40625 
Q 42.046875 3.421875 37.71875 1 
Q 33.40625 -1.421875 27.6875 -1.421875 
Q 18.265625 -1.421875 13.375 4.4375 
Q 8.5 10.296875 8.5 21.578125 
z
M 31.109375 56 
z
" id="DejaVuSans-75"/>
      <path d="M 52 44.1875 
Q 55.375 50.25 60.0625 53.125 
Q 64.75 56 71.09375 56 
Q 79.640625 56 84.28125 50.015625 
Q 88.921875 44.046875 88.921875 33.015625 
L 88.921875 0 
L 79.890625 0 
L 79.890625 32.71875 
Q 79.890625 40.578125 77.09375 44.375 
Q 74.3125 48.1875 68.609375 48.1875 
Q 61.625 48.1875 57.5625 43.546875 
Q 53.515625 38.921875 53.515625 30.90625 
L 53.515625 0 
L 44.484375 0 
L 44.484375 32.71875 
Q 44.484375 40.625 41.703125 44.40625 
Q 38.921875 48.1875 33.109375 48.1875 
Q 26.21875 48.1875 22.15625 43.53125 
Q 18.109375 38.875 18.109375 30.90625 
L 18.109375 0 
L 9.078125 0 
L 9.078125 54.6875 
L 18.109375 54.6875 
L 18.109375 46.1875 
Q 21.1875 51.21875 25.484375 53.609375 
Q 29.78125 56 35.6875 56 
Q 41.65625 56 45.828125 52.96875 
Q 50 49.953125 52 44.1875 
z
" id="DejaVuSans-6d"/>
      <path d="M 50.984375 -16.609375 
L 50.984375 -23.578125 
L -0.984375 -23.578125 
L -0.984375 -16.609375 
z
" id="DejaVuSans-5f"/>
      <path d="M 64.40625 67.28125 
L 64.40625 56.890625 
Q 59.421875 61.53125 53.78125 63.8125 
Q 48.140625 66.109375 41.796875 66.109375 
Q 29.296875 66.109375 22.65625 58.46875 
Q 16.015625 50.828125 16.015625 36.375 
Q 16.015625 21.96875 22.65625 14.328125 
Q 29.296875 6.6875 41.796875 6.6875 
Q 48.140625 6.6875 53.78125 8.984375 
Q 59.421875 11.28125 64.40625 15.921875 
L 64.40625 5.609375 
Q 59.234375 2.09375 53.4375 0.328125 
Q 47.65625 -1.421875 41.21875 -1.421875 
Q 24.65625 -1.421875 15.125 8.703125 
Q 5.609375 18.84375 5.609375 36.375 
Q 5.609375 53.953125 15.125 64.078125 
Q 24.65625 74.21875 41.21875 74.21875 
Q 47.75 74.21875 53.53125 72.484375 
Q 59.328125 70.75 64.40625 67.28125 
z
" id="DejaVuSans-43"/>
      <path d="M 41.109375 46.296875 
Q 39.59375 47.171875 37.8125 47.578125 
Q 36.03125 48 33.890625 48 
Q 26.265625 48 22.1875 43.046875 
Q 18.109375 38.09375 18.109375 28.8125 
L 18.109375 0 
L 9.078125 0 
L 9.078125 54.6875 
L 18.109375 54.6875 
L 18.109375 46.1875 
Q 20.953125 51.171875 25.484375 53.578125 
Q 30.03125 56 36.53125 56 
Q 37.453125 56 38.578125 55.875 
Q 39.703125 55.765625 41.0625 55.515625 
z
" id="DejaVuSans-72"/>
      <path d="M 56.203125 29.59375 
L 56.203125 25.203125 
L 14.890625 25.203125 
Q 15.484375 15.921875 20.484375 11.0625 
Q 25.484375 6.203125 34.421875 6.203125 
Q 39.59375 6.203125 44.453125 7.46875 
Q 49.3125 8.734375 54.109375 11.28125 
L 54.109375 2.78125 
Q 49.265625 0.734375 44.1875 -0.34375 
Q 39.109375 -1.421875 33.890625 -1.421875 
Q 20.796875 -1.421875 13.15625 6.1875 
Q 5.515625 13.8125 5.515625 26.8125 
Q 5.515625 40.234375 12.765625 48.109375 
Q 20.015625 56 32.328125 56 
Q 43.359375 56 49.78125 48.890625 
Q 56.203125 41.796875 56.203125 29.59375 
z
M 47.21875 32.234375 
Q 47.125 39.59375 43.09375 43.984375 
Q 39.0625 48.390625 32.421875 48.390625 
Q 24.90625 48.390625 20.390625 44.140625 
Q 15.875 39.890625 15.1875 32.171875 
z
" id="DejaVuSans-65"/>
      <path d="M 45.40625 46.390625 
L 45.40625 75.984375 
L 54.390625 75.984375 
L 54.390625 0 
L 45.40625 0 
L 45.40625 8.203125 
Q 42.578125 3.328125 38.25 0.953125 
Q 33.9375 -1.421875 27.875 -1.421875 
Q 17.96875 -1.421875 11.734375 6.484375 
Q 5.515625 14.40625 5.515625 27.296875 
Q 5.515625 40.1875 11.734375 48.09375 
Q 17.96875 56 27.875 56 
Q 33.9375 56 38.25 53.625 
Q 42.578125 51.265625 45.40625 46.390625 
z
M 14.796875 27.296875 
Q 14.796875 17.390625 18.875 11.75 
Q 22.953125 6.109375 30.078125 6.109375 
Q 37.203125 6.109375 41.296875 11.75 
Q 45.40625 17.390625 45.40625 27.296875 
Q 45.40625 37.203125 41.296875 42.84375 
Q 37.203125 48.484375 30.078125 48.484375 
Q 22.953125 48.484375 18.875 42.84375 
Q 14.796875 37.203125 14.796875 27.296875 
z
" id="DejaVuSans-64"/>
      <path d="M 9.421875 54.6875 
L 18.40625 54.6875 
L 18.40625 0 
L 9.421875 0 
z
M 9.421875 75.984375 
L 18.40625 75.984375 
L 18.40625 64.59375 
L 9.421875 64.59375 
z
" id="DejaVuSans-69"/>
      <path d="M 18.3125 70.21875 
L 18.3125 54.6875 
L 36.8125 54.6875 
L 36.8125 47.703125 
L 18.3125 47.703125 
L 18.3125 18.015625 
Q 18.3125 11.328125 20.140625 9.421875 
Q 21.96875 7.515625 27.59375 7.515625 
L 36.8125 7.515625 
L 36.8125 0 
L 27.59375 0 
Q 17.1875 0 13.234375 3.875 
Q 9.28125 7.765625 9.28125 18.015625 
L 9.28125 47.703125 
L 2.6875 47.703125 
L 2.6875 54.6875 
L 9.28125 54.6875 
L 9.28125 70.21875 
z
" id="DejaVuSans-74"/>
     </defs>
     <g style="fill:#262626;" transform="translate(170.663885 414.615312)scale(0.1 -0.1)">
      <use xlink:href="#DejaVuSans-53"/>
      <use x="63.476562" xlink:href="#DejaVuSans-75"/>
      <use x="126.855469" xlink:href="#DejaVuSans-6d"/>
      <use x="224.267578" xlink:href="#DejaVuSans-5f"/>
      <use x="274.267578" xlink:href="#DejaVuSans-43"/>
      <use x="344.091797" xlink:href="#DejaVuSans-72"/>
      <use x="385.173828" xlink:href="#DejaVuSans-65"/>
      <use x="446.697266" xlink:href="#DejaVuSans-64"/>
      <use x="510.173828" xlink:href="#DejaVuSans-69"/>
      <use x="537.957031" xlink:href="#DejaVuSans-74"/>
     </g>
    </g>
   </g>
   <g id="matplotlib.axis_2">
    <g id="ytick_1">
     <g id="line2d_15">
      <path clip-path="url(#p33f39e224e)" d="M 50.10625 346.943454 
L 348.938707 346.943454 
" style="fill:none;stroke:#ffffff;stroke-linecap:round;stroke-width:0.8;"/>
     </g>
     <g id="line2d_16"/>
     <g id="text_9">
      <!-- 0 -->
      <g style="fill:#262626;" transform="translate(40.24375 350.742672)scale(0.1 -0.1)">
       <use xlink:href="#DejaVuSans-30"/>
      </g>
     </g>
    </g>
    <g id="ytick_2">
     <g id="line2d_17">
      <path clip-path="url(#p33f39e224e)" d="M 50.10625 303.537368 
L 348.938707 303.537368 
" style="fill:none;stroke:#ffffff;stroke-linecap:round;stroke-width:0.8;"/>
     </g>
     <g id="line2d_18"/>
     <g id="text_10">
      <!-- 200 -->
      <g style="fill:#262626;" transform="translate(27.51875 307.336587)scale(0.1 -0.1)">
       <use xlink:href="#DejaVuSans-32"/>
       <use x="63.623047" xlink:href="#DejaVuSans-30"/>
       <use x="127.246094" xlink:href="#DejaVuSans-30"/>
      </g>
     </g>
    </g>
    <g id="ytick_3">
     <g id="line2d_19">
      <path clip-path="url(#p33f39e224e)" d="M 50.10625 260.131282 
L 348.938707 260.131282 
" style="fill:none;stroke:#ffffff;stroke-linecap:round;stroke-width:0.8;"/>
     </g>
     <g id="line2d_20"/>
     <g id="text_11">
      <!-- 400 -->
      <g style="fill:#262626;" transform="translate(27.51875 263.930501)scale(0.1 -0.1)">
       <use xlink:href="#DejaVuSans-34"/>
       <use x="63.623047" xlink:href="#DejaVuSans-30"/>
       <use x="127.246094" xlink:href="#DejaVuSans-30"/>
      </g>
     </g>
    </g>
    <g id="ytick_4">
     <g id="line2d_21">
      <path clip-path="url(#p33f39e224e)" d="M 50.10625 216.725197 
L 348.938707 216.725197 
" style="fill:none;stroke:#ffffff;stroke-linecap:round;stroke-width:0.8;"/>
     </g>
     <g id="line2d_22"/>
     <g id="text_12">
      <!-- 600 -->
      <g style="fill:#262626;" transform="translate(27.51875 220.524416)scale(0.1 -0.1)">
       <use xlink:href="#DejaVuSans-36"/>
       <use x="63.623047" xlink:href="#DejaVuSans-30"/>
       <use x="127.246094" xlink:href="#DejaVuSans-30"/>
      </g>
     </g>
    </g>
    <g id="ytick_5">
     <g id="line2d_23">
      <path clip-path="url(#p33f39e224e)" d="M 50.10625 173.319111 
L 348.938707 173.319111 
" style="fill:none;stroke:#ffffff;stroke-linecap:round;stroke-width:0.8;"/>
     </g>
     <g id="line2d_24"/>
     <g id="text_13">
      <!-- 800 -->
      <g style="fill:#262626;" transform="translate(27.51875 177.11833)scale(0.1 -0.1)">
       <use xlink:href="#DejaVuSans-38"/>
       <use x="63.623047" xlink:href="#DejaVuSans-30"/>
       <use x="127.246094" xlink:href="#DejaVuSans-30"/>
      </g>
     </g>
    </g>
    <g id="ytick_6">
     <g id="line2d_25">
      <path clip-path="url(#p33f39e224e)" d="M 50.10625 129.913025 
L 348.938707 129.913025 
" style="fill:none;stroke:#ffffff;stroke-linecap:round;stroke-width:0.8;"/>
     </g>
     <g id="line2d_26"/>
     <g id="text_14">
      <!-- 1000 -->
      <g style="fill:#262626;" transform="translate(21.15625 133.712244)scale(0.1 -0.1)">
       <use xlink:href="#DejaVuSans-31"/>
       <use x="63.623047" xlink:href="#DejaVuSans-30"/>
       <use x="127.246094" xlink:href="#DejaVuSans-30"/>
       <use x="190.869141" xlink:href="#DejaVuSans-30"/>
      </g>
     </g>
    </g>
    <g id="ytick_7">
     <g id="line2d_27">
      <path clip-path="url(#p33f39e224e)" d="M 50.10625 86.50694 
L 348.938707 86.50694 
" style="fill:none;stroke:#ffffff;stroke-linecap:round;stroke-width:0.8;"/>
     </g>
     <g id="line2d_28"/>
     <g id="text_15">
      <!-- 1200 -->
      <g style="fill:#262626;" transform="translate(21.15625 90.306159)scale(0.1 -0.1)">
       <use xlink:href="#DejaVuSans-31"/>
       <use x="63.623047" xlink:href="#DejaVuSans-32"/>
       <use x="127.246094" xlink:href="#DejaVuSans-30"/>
       <use x="190.869141" xlink:href="#DejaVuSans-30"/>
      </g>
     </g>
    </g>
    <g id="text_16">
     <!-- Sum_Debit -->
     <defs>
      <path d="M 19.671875 64.796875 
L 19.671875 8.109375 
L 31.59375 8.109375 
Q 46.6875 8.109375 53.6875 14.9375 
Q 60.6875 21.78125 60.6875 36.53125 
Q 60.6875 51.171875 53.6875 57.984375 
Q 46.6875 64.796875 31.59375 64.796875 
z
M 9.8125 72.90625 
L 30.078125 72.90625 
Q 51.265625 72.90625 61.171875 64.09375 
Q 71.09375 55.28125 71.09375 36.53125 
Q 71.09375 17.671875 61.125 8.828125 
Q 51.171875 0 30.078125 0 
L 9.8125 0 
z
" id="DejaVuSans-44"/>
      <path d="M 48.6875 27.296875 
Q 48.6875 37.203125 44.609375 42.84375 
Q 40.53125 48.484375 33.40625 48.484375 
Q 26.265625 48.484375 22.1875 42.84375 
Q 18.109375 37.203125 18.109375 27.296875 
Q 18.109375 17.390625 22.1875 11.75 
Q 26.265625 6.109375 33.40625 6.109375 
Q 40.53125 6.109375 44.609375 11.75 
Q 48.6875 17.390625 48.6875 27.296875 
z
M 18.109375 46.390625 
Q 20.953125 51.265625 25.265625 53.625 
Q 29.59375 56 35.59375 56 
Q 45.5625 56 51.78125 48.09375 
Q 58.015625 40.1875 58.015625 27.296875 
Q 58.015625 14.40625 51.78125 6.484375 
Q 45.5625 -1.421875 35.59375 -1.421875 
Q 29.59375 -1.421875 25.265625 0.953125 
Q 20.953125 3.328125 18.109375 8.203125 
L 18.109375 0 
L 9.078125 0 
L 9.078125 75.984375 
L 18.109375 75.984375 
z
" id="DejaVuSans-62"/>
     </defs>
     <g style="fill:#262626;" transform="translate(14.798437 265.265975)rotate(-90)scale(0.1 -0.1)">
      <use xlink:href="#DejaVuSans-53"/>
      <use x="63.476562" xlink:href="#DejaVuSans-75"/>
      <use x="126.855469" xlink:href="#DejaVuSans-6d"/>
      <use x="224.267578" xlink:href="#DejaVuSans-5f"/>
      <use x="274.267578" xlink:href="#DejaVuSans-44"/>
      <use x="351.269531" xlink:href="#DejaVuSans-65"/>
      <use x="412.792969" xlink:href="#DejaVuSans-62"/>
      <use x="476.269531" xlink:href="#DejaVuSans-69"/>
      <use x="504.052734" xlink:href="#DejaVuSans-74"/>
     </g>
    </g>
   </g>
   <g id="PathCollection_1">
    <path clip-path="url(#p33f39e224e)" d="M 53.12476 389.83875 
L 56.143269 389.83875 
L 59.161779 389.83875 
L 62.180289 389.83875 
L 65.198798 389.83875 
L 68.217308 389.83875 
L 71.235818 389.83875 
L 74.254327 389.83875 
L 77.272837 389.83875 
L 80.291347 389.83875 
L 83.309856 389.83875 
L 86.328366 389.83875 
L 89.346876 389.83875 
L 92.365385 389.83875 
L 95.383895 389.83875 
L 98.402405 389.83875 
L 101.420914 389.83875 
L 104.439424 389.83875 
L 107.457934 389.83875 
L 110.476443 389.83875 
L 113.494953 389.83875 
L 116.513463 389.83875 
L 119.531972 389.83875 
L 122.550482 389.83875 
L 125.568992 389.83875 
L 128.587501 389.83875 
L 131.606011 389.83875 
L 134.624521 389.83875 
L 137.64303 389.83875 
L 140.66154 389.83875 
L 143.68005 389.83875 
L 146.698559 389.83875 
L 149.717069 389.83875 
L 152.735579 389.83875 
L 155.754088 389.83875 
L 158.772598 389.83875 
L 161.791108 389.83875 
L 164.809617 389.83875 
L 167.828127 389.83875 
L 170.846637 389.83875 
L 173.865146 389.83875 
L 176.883656 389.83875 
L 179.902166 389.83875 
L 182.920675 389.83875 
L 185.939185 389.83875 
L 188.957695 389.83875 
L 191.976204 389.83875 
L 194.994714 389.83875 
L 198.013224 389.83875 
L 201.031733 389.83875 
L 204.050243 389.83875 
L 207.068753 389.83875 
L 210.087262 389.83875 
L 213.105772 389.83875 
L 216.124282 389.83875 
L 219.142791 389.83875 
L 222.161301 389.83875 
L 225.179811 389.83875 
L 228.19832 389.83875 
L 231.21683 389.83875 
L 234.23534 389.83875 
L 237.253849 389.83875 
L 240.272359 389.83875 
L 243.290869 389.83875 
L 246.309378 389.83875 
L 249.327888 389.83875 
L 252.346398 389.83875 
L 255.364907 389.83875 
L 258.383417 389.83875 
L 261.401927 389.83875 
L 264.420436 389.83875 
L 267.438946 389.83875 
L 270.457456 389.83875 
L 273.475965 389.83875 
L 276.494475 389.83875 
L 279.512985 389.83875 
L 282.531494 389.83875 
L 285.550004 389.83875 
L 288.568514 389.83875 
L 291.587023 389.83875 
L 294.605533 389.83875 
L 297.624043 389.83875 
L 300.642552 389.83875 
L 303.661062 389.83875 
L 306.679572 389.83875 
L 309.698081 389.83875 
L 312.716591 389.83875 
L 315.735101 389.83875 
L 318.75361 389.83875 
L 321.77212 389.83875 
L 324.79063 389.83875 
L 327.809139 389.83875 
L 330.827649 389.83875 
L 333.846159 389.83875 
L 336.864668 389.83875 
L 339.883178 389.83875 
L 342.901688 389.83875 
L 345.920197 389.83875 
L 348.938707 389.83875 
L 348.938707 386.773375 
L 348.938707 383.708 
L 348.938707 380.642625 
L 348.938707 377.577251 
L 348.938707 374.511876 
L 348.938707 371.446501 
L 348.938707 368.381126 
L 348.938707 365.315751 
L 348.938707 362.250376 
L 348.938707 359.185001 
L 348.938707 356.119626 
L 348.938707 353.054252 
L 348.938707 349.988877 
L 348.938707 346.923502 
L 348.938707 343.858127 
L 348.938707 340.792752 
L 348.938707 337.727377 
L 348.938707 334.662002 
L 348.938707 331.596627 
L 348.938707 328.531253 
L 348.938707 325.465878 
L 348.938707 322.400503 
L 348.938707 319.335128 
L 348.938707 316.269753 
L 348.938707 313.204378 
L 348.938707 310.139003 
L 348.938707 307.073629 
L 348.938707 304.008254 
L 348.938707 300.942879 
L 348.938707 297.877504 
L 348.938707 294.812129 
L 348.938707 291.746754 
L 348.938707 288.681379 
L 348.938707 285.616004 
L 348.938707 282.55063 
L 348.938707 279.485255 
L 348.938707 276.41988 
L 348.938707 273.354505 
L 348.938707 270.28913 
L 348.938707 267.223755 
L 348.938707 264.15838 
L 348.938707 261.093005 
L 348.938707 258.027631 
L 348.938707 254.962256 
L 348.938707 251.896881 
L 348.938707 248.831506 
L 348.938707 245.766131 
L 348.938707 242.700756 
L 348.938707 239.635381 
L 348.938707 236.570007 
L 348.938707 233.504632 
L 348.938707 230.439257 
L 348.938707 227.373882 
L 348.938707 224.308507 
L 348.938707 221.243132 
L 348.938707 218.177757 
L 348.938707 215.112382 
L 348.938707 212.047008 
L 348.938707 208.981633 
L 348.938707 205.916258 
L 348.938707 202.850883 
L 348.938707 199.785508 
L 348.938707 196.720133 
L 348.938707 193.654758 
L 348.938707 190.589383 
L 348.938707 187.524009 
L 348.938707 184.458634 
L 348.938707 181.393259 
L 348.938707 178.327884 
L 348.938707 175.262509 
L 348.938707 172.197134 
L 348.938707 169.131759 
L 348.938707 166.066385 
L 348.938707 163.00101 
L 348.938707 159.935635 
L 348.938707 156.87026 
L 348.938707 153.804885 
L 348.938707 150.73951 
L 348.938707 147.674135 
L 348.938707 144.60876 
L 348.938707 141.543386 
L 348.938707 138.478011 
L 348.938707 135.412636 
L 348.938707 132.347261 
L 348.938707 129.281886 
L 348.938707 126.216511 
L 348.938707 123.151136 
L 348.938707 120.085761 
L 348.938707 117.020387 
L 348.938707 113.955012 
L 348.938707 110.889637 
L 348.938707 107.824262 
L 348.938707 104.758887 
L 348.938707 101.693512 
L 348.938707 98.628137 
L 348.938707 95.562763 
L 348.938707 92.497388 
L 348.938707 89.432013 
L 348.938707 86.366638 
L 345.920197 86.366638 
L 342.901688 86.366638 
L 339.883178 86.366638 
L 336.864668 86.366638 
L 333.846159 86.366638 
L 330.827649 86.366638 
L 327.809139 86.366638 
L 324.79063 86.366638 
L 321.77212 86.366638 
L 318.75361 86.366638 
L 315.735101 86.366638 
L 312.716591 86.366638 
L 309.698081 86.366638 
L 306.679572 86.366638 
L 303.661062 86.366638 
L 300.642552 86.366638 
L 297.624043 86.366638 
L 294.605533 86.366638 
L 291.587023 86.366638 
L 288.568514 86.366638 
L 285.550004 86.366638 
L 282.531494 86.366638 
L 279.512985 86.366638 
L 276.494475 86.366638 
L 273.475965 86.366638 
L 270.457456 86.366638 
L 267.438946 86.366638 
L 264.420436 86.366638 
L 261.401927 86.366638 
L 258.383417 86.366638 
L 255.364907 86.366638 
L 252.346398 86.366638 
L 249.327888 86.366638 
L 246.309378 86.366638 
L 243.290869 86.366638 
L 240.272359 86.366638 
L 237.253849 86.366638 
L 234.23534 86.366638 
L 231.21683 86.366638 
L 228.19832 86.366638 
L 225.179811 86.366638 
L 222.161301 86.366638 
L 219.142791 86.366638 
L 216.124282 86.366638 
L 213.105772 86.366638 
L 210.087262 86.366638 
L 207.068753 86.366638 
L 204.050243 86.366638 
L 201.031733 86.366638 
L 198.013224 86.366638 
L 194.994714 86.366638 
L 191.976204 86.366638 
L 188.957695 86.366638 
L 185.939185 86.366638 
L 182.920675 86.366638 
L 179.902166 86.366638 
L 176.883656 86.366638 
L 173.865146 86.366638 
L 170.846637 86.366638 
L 167.828127 86.366638 
L 164.809617 86.366638 
L 161.791108 86.366638 
L 158.772598 86.366638 
L 155.754088 86.366638 
L 152.735579 86.366638 
L 149.717069 86.366638 
L 146.698559 86.366638 
L 143.68005 86.366638 
L 140.66154 86.366638 
L 137.64303 86.366638 
L 134.624521 86.366638 
L 131.606011 86.366638 
L 128.587501 86.366638 
L 125.568992 86.366638 
L 122.550482 86.366638 
L 119.531972 86.366638 
L 116.513463 86.366638 
L 113.494953 86.366638 
L 110.476443 86.366638 
L 107.457934 86.366638 
L 104.439424 86.366638 
L 101.420914 86.366638 
L 98.402405 86.366638 
L 95.383895 86.366638 
L 92.365385 86.366638 
L 89.346876 86.366638 
L 86.328366 86.366638 
L 83.309856 86.366638 
L 80.291347 86.366638 
L 77.272837 86.366638 
L 74.254327 86.366638 
L 71.235818 86.366638 
L 68.217308 86.366638 
L 65.198798 86.366638 
L 62.180289 86.366638 
L 59.161779 86.366638 
L 56.143269 86.366638 
L 53.12476 86.366638 
L 50.10625 86.366638 
L 50.10625 89.432013 
L 50.10625 92.497388 
L 50.10625 95.562763 
L 50.10625 98.628137 
L 50.10625 101.693512 
L 50.10625 104.758887 
L 50.10625 107.824262 
L 50.10625 110.889637 
L 50.10625 113.955012 
L 50.10625 117.020387 
L 50.10625 120.085761 
L 50.10625 123.151136 
L 50.10625 126.216511 
L 50.10625 129.281886 
L 50.10625 132.347261 
L 50.10625 135.412636 
L 50.10625 138.478011 
L 50.10625 141.543386 
L 50.10625 144.60876 
L 50.10625 147.674135 
L 50.10625 150.73951 
L 50.10625 153.804885 
L 50.10625 156.87026 
L 50.10625 159.935635 
L 50.10625 163.00101 
L 50.10625 166.066385 
L 50.10625 169.131759 
L 50.10625 172.197134 
L 50.10625 175.262509 
L 50.10625 178.327884 
L 50.10625 181.393259 
L 50.10625 184.458634 
L 50.10625 187.524009 
L 50.10625 190.589383 
L 50.10625 193.654758 
L 50.10625 196.720133 
L 50.10625 199.785508 
L 50.10625 202.850883 
L 50.10625 205.916258 
L 50.10625 208.981633 
L 50.10625 212.047008 
L 50.10625 215.112382 
L 50.10625 218.177757 
L 50.10625 221.243132 
L 50.10625 224.308507 
L 50.10625 227.373882 
L 50.10625 230.439257 
L 50.10625 233.504632 
L 50.10625 236.570007 
L 50.10625 239.635381 
L 50.10625 242.700756 
L 50.10625 245.766131 
L 50.10625 248.831506 
L 50.10625 251.896881 
L 50.10625 254.962256 
L 50.10625 258.027631 
L 50.10625 261.093005 
L 50.10625 264.15838 
L 50.10625 267.223755 
L 50.10625 270.28913 
L 50.10625 273.354505 
L 50.10625 276.41988 
L 50.10625 279.485255 
L 50.10625 282.55063 
L 50.10625 285.616004 
L 50.10625 288.681379 
L 50.10625 291.746754 
L 50.10625 294.812129 
L 50.10625 297.877504 
L 50.10625 300.942879 
L 50.10625 304.008254 
L 50.10625 307.073629 
L 50.10625 310.139003 
L 50.10625 313.204378 
L 50.10625 316.269753 
L 50.10625 319.335128 
L 50.10625 322.400503 
L 50.10625 325.465878 
L 50.10625 328.531253 
L 50.10625 331.596627 
L 50.10625 334.662002 
L 50.10625 337.727377 
L 50.10625 340.792752 
L 50.10625 343.858127 
L 50.10625 346.923502 
L 50.10625 349.988877 
L 50.10625 353.054252 
L 50.10625 356.119626 
L 50.10625 359.185001 
L 50.10625 362.250376 
L 50.10625 365.315751 
L 50.10625 368.381126 
L 50.10625 371.446501 
L 50.10625 374.511876 
L 50.10625 377.577251 
L 50.10625 380.642625 
L 50.10625 383.708 
L 50.10625 386.773375 
L 50.10625 389.83875 
z
M 82.665808 371.446501 
L 80.291347 370.414417 
L 77.272837 368.469907 
L 77.158011 368.381126 
L 74.254327 365.629638 
L 73.977377 365.315751 
L 71.962596 362.250376 
L 71.235818 360.368961 
L 70.767563 359.185001 
L 70.11642 356.119626 
L 69.971961 353.054252 
L 70.249273 349.988877 
L 70.930172 346.923502 
L 71.235818 346.038103 
L 71.854151 343.858127 
L 73.085818 340.792752 
L 74.254327 338.617144 
L 74.676637 337.727377 
L 76.467359 334.662002 
L 77.272837 333.506097 
L 78.528024 331.596627 
L 80.291347 329.32462 
L 80.895459 328.531253 
L 83.309856 325.702168 
L 83.515075 325.465878 
L 86.328366 322.435159 
L 86.362222 322.400503 
L 89.346876 319.416701 
L 89.4354 319.335128 
L 92.365385 316.595532 
L 92.753818 316.269753 
L 95.383895 313.955186 
L 96.358468 313.204378 
L 98.402405 311.503287 
L 100.316648 310.139003 
L 101.420914 309.266774 
L 104.439424 307.235059 
L 104.711792 307.073629 
L 107.457934 305.207364 
L 109.637329 304.008254 
L 110.476443 303.467948 
L 113.494953 301.797111 
L 115.36665 300.942879 
L 116.513463 300.313995 
L 119.531972 298.897396 
L 122.139968 297.877504 
L 122.550482 297.680301 
L 125.568992 296.384099 
L 128.587501 295.264363 
L 129.919355 294.812129 
L 131.606011 294.09749 
L 134.624521 292.923837 
L 137.64303 291.816519 
L 137.844036 291.746754 
L 140.66154 290.529902 
L 143.68005 289.294167 
L 145.268903 288.681379 
L 146.698559 288.010158 
L 149.717069 286.75346 
L 152.735579 285.645665 
L 152.847206 285.616004 
L 155.754088 284.744096 
L 158.772598 284.271334 
L 161.791108 284.442424 
L 164.634211 285.616004 
L 164.809617 285.732351 
L 166.850742 288.681379 
L 167.624397 291.746754 
L 167.79043 294.812129 
L 167.753605 297.877504 
L 167.782266 300.942879 
L 167.828127 301.338307 
L 168.162979 304.008254 
L 169.340739 307.073629 
L 170.846637 308.890745 
L 172.233035 310.139003 
L 173.865146 311.027616 
L 176.883656 312.322013 
L 179.22408 313.204378 
L 179.902166 313.4106 
L 182.920675 314.422529 
L 185.939185 315.702704 
L 186.992943 316.269753 
L 188.957695 317.420709 
L 191.349892 319.335128 
L 191.976204 319.974384 
L 193.910144 322.400503 
L 194.994714 324.410673 
L 195.525412 325.465878 
L 196.558245 328.531253 
L 197.115182 331.596627 
L 197.227606 334.662002 
L 196.819403 337.727377 
L 195.675722 340.792752 
L 194.994714 341.814809 
L 193.699824 343.858127 
L 191.976204 345.62408 
L 190.728808 346.923502 
L 188.957695 348.31788 
L 186.788701 349.988877 
L 185.939185 350.537109 
L 182.920675 352.451743 
L 181.923817 353.054252 
L 179.902166 354.175113 
L 176.883656 355.693302 
L 175.967822 356.119626 
L 173.865146 357.085905 
L 170.846637 358.302132 
L 168.286502 359.185001 
L 167.828127 359.351627 
L 164.809617 360.326721 
L 161.791108 361.132913 
L 158.772598 361.801436 
L 156.374267 362.250376 
L 155.754088 362.380776 
L 152.735579 362.94279 
L 149.717069 363.448237 
L 146.698559 363.934852 
L 143.68005 364.433705 
L 140.66154 364.964001 
L 138.850392 365.315751 
L 137.64303 365.587647 
L 134.624521 366.346639 
L 131.606011 367.123576 
L 128.587501 367.887608 
L 126.609154 368.381126 
L 125.568992 368.695032 
L 122.550482 369.599274 
L 119.531972 370.405019 
L 116.513463 371.105771 
L 114.856356 371.446501 
L 113.494953 371.807239 
L 110.476443 372.498801 
L 107.457934 373.047312 
L 104.439424 373.460678 
L 101.420914 373.742779 
L 98.402405 373.891176 
L 95.383895 373.89481 
L 92.365385 373.731065 
L 89.346876 373.361442 
L 86.328366 372.724803 
L 83.309856 371.726617 
z
" style="fill:#eef5fc;"/>
   </g>
   <g id="PathCollection_2">
    <path clip-path="url(#p33f39e224e)" d="M 83.309856 371.726617 
L 86.328366 372.724803 
L 89.346876 373.361442 
L 92.365385 373.731065 
L 95.383895 373.89481 
L 98.402405 373.891176 
L 101.420914 373.742779 
L 104.439424 373.460678 
L 107.457934 373.047312 
L 110.476443 372.498801 
L 113.494953 371.807239 
L 114.856356 371.446501 
L 116.513463 371.105771 
L 119.531972 370.405019 
L 122.550482 369.599274 
L 125.568992 368.695032 
L 126.609154 368.381126 
L 128.587501 367.887608 
L 131.606011 367.123576 
L 134.624521 366.346639 
L 137.64303 365.587647 
L 138.850392 365.315751 
L 140.66154 364.964001 
L 143.68005 364.433705 
L 146.698559 363.934852 
L 149.717069 363.448237 
L 152.735579 362.94279 
L 155.754088 362.380776 
L 156.374267 362.250376 
L 158.772598 361.801436 
L 161.791108 361.132913 
L 164.809617 360.326721 
L 167.828127 359.351627 
L 168.286502 359.185001 
L 170.846637 358.302132 
L 173.865146 357.085905 
L 175.967822 356.119626 
L 176.883656 355.693302 
L 179.902166 354.175113 
L 181.923817 353.054252 
L 182.920675 352.451743 
L 185.939185 350.537109 
L 186.788701 349.988877 
L 188.957695 348.31788 
L 190.728808 346.923502 
L 191.976204 345.62408 
L 193.699824 343.858127 
L 194.994714 341.814809 
L 195.675722 340.792752 
L 196.819403 337.727377 
L 197.227606 334.662002 
L 197.115182 331.596627 
L 196.558245 328.531253 
L 195.525412 325.465878 
L 194.994714 324.410673 
L 193.910144 322.400503 
L 191.976204 319.974384 
L 191.349892 319.335128 
L 188.957695 317.420709 
L 186.992943 316.269753 
L 185.939185 315.702704 
L 182.920675 314.422529 
L 179.902166 313.4106 
L 179.22408 313.204378 
L 176.883656 312.322013 
L 173.865146 311.027616 
L 172.233035 310.139003 
L 170.846637 308.890745 
L 169.340739 307.073629 
L 168.162979 304.008254 
L 167.828127 301.338307 
L 167.782266 300.942879 
L 167.753605 297.877504 
L 167.79043 294.812129 
L 167.624397 291.746754 
L 166.850742 288.681379 
L 164.809617 285.732351 
L 164.634211 285.616004 
L 161.791108 284.442424 
L 158.772598 284.271334 
L 155.754088 284.744096 
L 152.847206 285.616004 
L 152.735579 285.645665 
L 149.717069 286.75346 
L 146.698559 288.010158 
L 145.268903 288.681379 
L 143.68005 289.294167 
L 140.66154 290.529902 
L 137.844036 291.746754 
L 137.64303 291.816519 
L 134.624521 292.923837 
L 131.606011 294.09749 
L 129.919355 294.812129 
L 128.587501 295.264363 
L 125.568992 296.384099 
L 122.550482 297.680301 
L 122.139968 297.877504 
L 119.531972 298.897396 
L 116.513463 300.313995 
L 115.36665 300.942879 
L 113.494953 301.797111 
L 110.476443 303.467948 
L 109.637329 304.008254 
L 107.457934 305.207364 
L 104.711792 307.073629 
L 104.439424 307.235059 
L 101.420914 309.266774 
L 100.316648 310.139003 
L 98.402405 311.503287 
L 96.358468 313.204378 
L 95.383895 313.955186 
L 92.753818 316.269753 
L 92.365385 316.595532 
L 89.4354 319.335128 
L 89.346876 319.416701 
L 86.362222 322.400503 
L 86.328366 322.435159 
L 83.515075 325.465878 
L 83.309856 325.702168 
L 80.895459 328.531253 
L 80.291347 329.32462 
L 78.528024 331.596627 
L 77.272837 333.506097 
L 76.467359 334.662002 
L 74.676637 337.727377 
L 74.254327 338.617144 
L 73.085818 340.792752 
L 71.854151 343.858127 
L 71.235818 346.038103 
L 70.930172 346.923502 
L 70.249273 349.988877 
L 69.971961 353.054252 
L 70.11642 356.119626 
L 70.767563 359.185001 
L 71.235818 360.368961 
L 71.962596 362.250376 
L 73.977377 365.315751 
L 74.254327 365.629638 
L 77.158011 368.381126 
L 77.272837 368.469907 
L 80.291347 370.414417 
L 82.665808 371.446501 
z
M 97.645368 368.381126 
L 95.383895 368.259851 
L 92.365385 367.854409 
L 89.346876 367.122562 
L 86.328366 365.938845 
L 85.175279 365.315751 
L 83.309856 364.152237 
L 81.098874 362.250376 
L 80.291347 361.283904 
L 78.80567 359.185001 
L 77.565465 356.119626 
L 77.272837 354.471868 
L 77.010087 353.054252 
L 77.008344 349.988877 
L 77.272837 348.396023 
L 77.476147 346.923502 
L 78.300363 343.858127 
L 79.557622 340.792752 
L 80.291347 339.443176 
L 81.149889 337.727377 
L 83.129902 334.662002 
L 83.309856 334.418446 
L 85.359822 331.596627 
L 86.328366 330.442214 
L 87.969163 328.531253 
L 89.346876 327.064114 
L 90.94124 325.465878 
L 92.365385 324.094684 
L 94.29978 322.400503 
L 95.383895 321.447417 
L 98.10794 319.335128 
L 98.402405 319.096846 
L 101.420914 316.892308 
L 102.420327 316.269753 
L 104.439424 314.894365 
L 107.457934 313.206567 
L 107.462402 313.204378 
L 110.476443 311.523549 
L 113.494953 310.188258 
L 113.626159 310.139003 
L 116.513463 308.863492 
L 119.531972 307.802313 
L 122.121583 307.073629 
L 122.550482 306.927957 
L 125.568992 306.12321 
L 128.587501 305.528303 
L 131.606011 305.131384 
L 134.624521 304.947256 
L 137.64303 305.026823 
L 140.66154 305.477619 
L 143.68005 306.504835 
L 144.700136 307.073629 
L 146.698559 308.400744 
L 148.460183 310.139003 
L 149.717069 311.579254 
L 150.930293 313.204378 
L 152.735579 315.662828 
L 153.191005 316.269753 
L 155.754088 319.264627 
L 155.82582 319.335128 
L 158.772598 321.757813 
L 159.821502 322.400503 
L 161.791108 323.469503 
L 164.809617 324.661841 
L 167.393852 325.465878 
L 167.828127 325.606426 
L 170.846637 326.556773 
L 173.865146 327.741417 
L 175.351047 328.531253 
L 176.883656 329.749843 
L 178.517625 331.596627 
L 179.568121 334.662002 
L 179.305326 337.727377 
L 177.98935 340.792752 
L 176.883656 342.247901 
L 175.60483 343.858127 
L 173.865146 345.390109 
L 171.967918 346.923502 
L 170.846637 347.638534 
L 167.828127 349.347406 
L 166.542215 349.988877 
L 164.809617 350.729719 
L 161.791108 351.844414 
L 158.772598 352.811116 
L 157.942534 353.054252 
L 155.754088 353.639928 
L 152.735579 354.404586 
L 149.717069 355.167135 
L 146.698559 355.961931 
L 146.172766 356.119626 
L 143.68005 356.839176 
L 140.66154 357.784161 
L 137.64303 358.7649 
L 136.437185 359.185001 
L 134.624521 359.830053 
L 131.606011 360.927729 
L 128.587501 361.962102 
L 127.74119 362.250376 
L 125.568992 363.054307 
L 122.550482 364.084275 
L 119.531972 364.982933 
L 118.291478 365.315751 
L 116.513463 365.869819 
L 113.494953 366.678596 
L 110.476443 367.328352 
L 107.457934 367.827892 
L 104.439424 368.180857 
L 101.448573 368.381126 
L 101.420914 368.38348 
L 98.402405 368.428351 
z
" style="fill:#d9e8f5;"/>
   </g>
   <g id="PathCollection_3">
    <path clip-path="url(#p33f39e224e)" d="M 98.402405 368.428351 
L 101.420914 368.38348 
L 101.448573 368.381126 
L 104.439424 368.180857 
L 107.457934 367.827892 
L 110.476443 367.328352 
L 113.494953 366.678596 
L 116.513463 365.869819 
L 118.291478 365.315751 
L 119.531972 364.982933 
L 122.550482 364.084275 
L 125.568992 363.054307 
L 127.74119 362.250376 
L 128.587501 361.962102 
L 131.606011 360.927729 
L 134.624521 359.830053 
L 136.437185 359.185001 
L 137.64303 358.7649 
L 140.66154 357.784161 
L 143.68005 356.839176 
L 146.172766 356.119626 
L 146.698559 355.961931 
L 149.717069 355.167135 
L 152.735579 354.404586 
L 155.754088 353.639928 
L 157.942534 353.054252 
L 158.772598 352.811116 
L 161.791108 351.844414 
L 164.809617 350.729719 
L 166.542215 349.988877 
L 167.828127 349.347406 
L 170.846637 347.638534 
L 171.967918 346.923502 
L 173.865146 345.390109 
L 175.60483 343.858127 
L 176.883656 342.247901 
L 177.98935 340.792752 
L 179.305326 337.727377 
L 179.568121 334.662002 
L 178.517625 331.596627 
L 176.883656 329.749843 
L 175.351047 328.531253 
L 173.865146 327.741417 
L 170.846637 326.556773 
L 167.828127 325.606426 
L 167.393852 325.465878 
L 164.809617 324.661841 
L 161.791108 323.469503 
L 159.821502 322.400503 
L 158.772598 321.757813 
L 155.82582 319.335128 
L 155.754088 319.264627 
L 153.191005 316.269753 
L 152.735579 315.662828 
L 150.930293 313.204378 
L 149.717069 311.579254 
L 148.460183 310.139003 
L 146.698559 308.400744 
L 144.700136 307.073629 
L 143.68005 306.504835 
L 140.66154 305.477619 
L 137.64303 305.026823 
L 134.624521 304.947256 
L 131.606011 305.131384 
L 128.587501 305.528303 
L 125.568992 306.12321 
L 122.550482 306.927957 
L 122.121583 307.073629 
L 119.531972 307.802313 
L 116.513463 308.863492 
L 113.626159 310.139003 
L 113.494953 310.188258 
L 110.476443 311.523549 
L 107.462402 313.204378 
L 107.457934 313.206567 
L 104.439424 314.894365 
L 102.420327 316.269753 
L 101.420914 316.892308 
L 98.402405 319.096846 
L 98.10794 319.335128 
L 95.383895 321.447417 
L 94.29978 322.400503 
L 92.365385 324.094684 
L 90.94124 325.465878 
L 89.346876 327.064114 
L 87.969163 328.531253 
L 86.328366 330.442214 
L 85.359822 331.596627 
L 83.309856 334.418446 
L 83.129902 334.662002 
L 81.149889 337.727377 
L 80.291347 339.443176 
L 79.557622 340.792752 
L 78.300363 343.858127 
L 77.476147 346.923502 
L 77.272837 348.396023 
L 77.008344 349.988877 
L 77.010087 353.054252 
L 77.272837 354.471868 
L 77.565465 356.119626 
L 78.80567 359.185001 
L 80.291347 361.283904 
L 81.098874 362.250376 
L 83.309856 364.152237 
L 85.175279 365.315751 
L 86.328366 365.938845 
L 89.346876 367.122562 
L 92.365385 367.854409 
L 95.383895 368.259851 
L 97.645368 368.381126 
z
M 89.402825 362.250376 
L 89.346876 362.223685 
L 86.328366 360.191941 
L 85.245523 359.185001 
L 83.309856 356.43899 
L 83.11851 356.119626 
L 82.053896 353.054252 
L 81.751335 349.988877 
L 82.035824 346.923502 
L 82.839329 343.858127 
L 83.309856 342.73609 
L 84.056855 340.792752 
L 85.702958 337.727377 
L 86.328366 336.796344 
L 87.738191 334.662002 
L 89.346876 332.648853 
L 90.210192 331.596627 
L 92.365385 329.279613 
L 93.109941 328.531253 
L 95.383895 326.395782 
L 96.484199 325.465878 
L 98.402405 323.871429 
L 100.43846 322.400503 
L 101.420914 321.669928 
L 104.439424 319.7309 
L 105.159829 319.335128 
L 107.457934 317.966513 
L 110.476443 316.509001 
L 111.073203 316.269753 
L 113.494953 315.168148 
L 116.513463 314.088454 
L 119.531972 313.261516 
L 119.824219 313.204378 
L 122.550482 312.568762 
L 125.568992 312.138516 
L 128.587501 311.991361 
L 131.606011 312.173049 
L 134.624521 312.776592 
L 135.825945 313.204378 
L 137.64303 313.907609 
L 140.66154 315.794275 
L 141.231898 316.269753 
L 143.68005 318.617947 
L 144.318437 319.335128 
L 146.698559 322.345514 
L 146.742127 322.400503 
L 149.043882 325.465878 
L 149.717069 326.478214 
L 151.372137 328.531253 
L 152.735579 330.484224 
L 153.776339 331.596627 
L 155.754088 334.358614 
L 156.055138 334.662002 
L 157.593067 337.727377 
L 157.163903 340.792752 
L 155.754088 342.341056 
L 154.511647 343.858127 
L 152.735579 344.999201 
L 149.964722 346.923502 
L 149.717069 347.043115 
L 146.698559 348.708173 
L 144.50176 349.988877 
L 143.68005 350.373748 
L 140.66154 351.933752 
L 138.534311 353.054252 
L 137.64303 353.470439 
L 134.624521 354.953285 
L 132.145473 356.119626 
L 131.606011 356.362878 
L 128.587501 357.742133 
L 125.568992 358.979829 
L 125.046588 359.185001 
L 122.550482 360.196524 
L 119.531972 361.267374 
L 116.513463 362.173143 
L 116.218529 362.250376 
L 113.494953 363.042684 
L 110.476443 363.735537 
L 107.457934 364.245132 
L 104.439424 364.570634 
L 101.420914 364.698927 
L 98.402405 364.600154 
L 95.383895 364.221122 
L 92.365385 363.47487 
z
" style="fill:#c6dbef;"/>
   </g>
   <g id="PathCollection_4">
    <path clip-path="url(#p33f39e224e)" d="M 92.365385 363.47487 
L 95.383895 364.221122 
L 98.402405 364.600154 
L 101.420914 364.698927 
L 104.439424 364.570634 
L 107.457934 364.245132 
L 110.476443 363.735537 
L 113.494953 363.042684 
L 116.218529 362.250376 
L 116.513463 362.173143 
L 119.531972 361.267374 
L 122.550482 360.196524 
L 125.046588 359.185001 
L 125.568992 358.979829 
L 128.587501 357.742133 
L 131.606011 356.362878 
L 132.145473 356.119626 
L 134.624521 354.953285 
L 137.64303 353.470439 
L 138.534311 353.054252 
L 140.66154 351.933752 
L 143.68005 350.373748 
L 144.50176 349.988877 
L 146.698559 348.708173 
L 149.717069 347.043115 
L 149.964722 346.923502 
L 152.735579 344.999201 
L 154.511647 343.858127 
L 155.754088 342.341056 
L 157.163903 340.792752 
L 157.593067 337.727377 
L 156.055138 334.662002 
L 155.754088 334.358614 
L 153.776339 331.596627 
L 152.735579 330.484224 
L 151.372137 328.531253 
L 149.717069 326.478214 
L 149.043882 325.465878 
L 146.742127 322.400503 
L 146.698559 322.345514 
L 144.318437 319.335128 
L 143.68005 318.617947 
L 141.231898 316.269753 
L 140.66154 315.794275 
L 137.64303 313.907609 
L 135.825945 313.204378 
L 134.624521 312.776592 
L 131.606011 312.173049 
L 128.587501 311.991361 
L 125.568992 312.138516 
L 122.550482 312.568762 
L 119.824219 313.204378 
L 119.531972 313.261516 
L 116.513463 314.088454 
L 113.494953 315.168148 
L 111.073203 316.269753 
L 110.476443 316.509001 
L 107.457934 317.966513 
L 105.159829 319.335128 
L 104.439424 319.7309 
L 101.420914 321.669928 
L 100.43846 322.400503 
L 98.402405 323.871429 
L 96.484199 325.465878 
L 95.383895 326.395782 
L 93.109941 328.531253 
L 92.365385 329.279613 
L 90.210192 331.596627 
L 89.346876 332.648853 
L 87.738191 334.662002 
L 86.328366 336.796344 
L 85.702958 337.727377 
L 84.056855 340.792752 
L 83.309856 342.73609 
L 82.839329 343.858127 
L 82.035824 346.923502 
L 81.751335 349.988877 
L 82.053896 353.054252 
L 83.11851 356.119626 
L 83.309856 356.43899 
L 85.245523 359.185001 
L 86.328366 360.191941 
L 89.346876 362.223685 
L 89.402825 362.250376 
z
M 91.945833 359.185001 
L 89.346876 357.267919 
L 88.2346 356.119626 
L 86.49832 353.054252 
L 86.328366 352.330208 
L 85.823789 349.988877 
L 85.905077 346.923502 
L 86.328366 345.101816 
L 86.592405 343.858127 
L 87.772484 340.792752 
L 89.346876 337.986129 
L 89.489614 337.727377 
L 91.642157 334.662002 
L 92.365385 333.801426 
L 94.312353 331.596627 
L 95.383895 330.518096 
L 97.545976 328.531253 
L 98.402405 327.788871 
L 101.420914 325.488187 
L 101.454072 325.465878 
L 104.439424 323.448595 
L 106.319616 322.400503 
L 107.457934 321.732375 
L 110.476443 320.264319 
L 112.890188 319.335128 
L 113.494953 319.07696 
L 116.513463 318.080787 
L 119.531972 317.379946 
L 122.550482 316.963561 
L 125.568992 316.852733 
L 128.587501 317.105275 
L 131.606011 317.824538 
L 134.624521 319.17056 
L 134.88988 319.335128 
L 137.64303 321.348519 
L 138.742224 322.400503 
L 140.66154 324.705024 
L 141.240881 325.465878 
L 143.075125 328.531253 
L 143.68005 329.997267 
L 144.420544 331.596627 
L 145.229507 334.662002 
L 145.297514 337.727377 
L 144.397852 340.792752 
L 143.68005 341.855543 
L 142.455391 343.858127 
L 140.66154 345.624895 
L 139.410765 346.923502 
L 137.64303 348.260811 
L 135.369491 349.988877 
L 134.624521 350.452732 
L 131.606011 352.341011 
L 130.421017 353.054252 
L 128.587501 354.04696 
L 125.568992 355.560526 
L 124.361011 356.119626 
L 122.550482 356.934496 
L 119.531972 358.138364 
L 116.513463 359.149596 
L 116.389956 359.185001 
L 113.494953 360.057824 
L 110.476443 360.75714 
L 107.457934 361.247454 
L 104.439424 361.519407 
L 101.420914 361.545535 
L 98.402405 361.273106 
L 95.383895 360.612777 
L 92.365385 359.419994 
z
" style="fill:#a6cee4;"/>
   </g>
   <g id="PathCollection_5">
    <path clip-path="url(#p33f39e224e)" d="M 92.365385 359.419994 
L 95.383895 360.612777 
L 98.402405 361.273106 
L 101.420914 361.545535 
L 104.439424 361.519407 
L 107.457934 361.247454 
L 110.476443 360.75714 
L 113.494953 360.057824 
L 116.389956 359.185001 
L 116.513463 359.149596 
L 119.531972 358.138364 
L 122.550482 356.934496 
L 124.361011 356.119626 
L 125.568992 355.560526 
L 128.587501 354.04696 
L 130.421017 353.054252 
L 131.606011 352.341011 
L 134.624521 350.452732 
L 135.369491 349.988877 
L 137.64303 348.260811 
L 139.410765 346.923502 
L 140.66154 345.624895 
L 142.455391 343.858127 
L 143.68005 341.855543 
L 144.397852 340.792752 
L 145.297514 337.727377 
L 145.229507 334.662002 
L 144.420544 331.596627 
L 143.68005 329.997267 
L 143.075125 328.531253 
L 141.240881 325.465878 
L 140.66154 324.705024 
L 138.742224 322.400503 
L 137.64303 321.348519 
L 134.88988 319.335128 
L 134.624521 319.17056 
L 131.606011 317.824538 
L 128.587501 317.105275 
L 125.568992 316.852733 
L 122.550482 316.963561 
L 119.531972 317.379946 
L 116.513463 318.080787 
L 113.494953 319.07696 
L 112.890188 319.335128 
L 110.476443 320.264319 
L 107.457934 321.732375 
L 106.319616 322.400503 
L 104.439424 323.448595 
L 101.454072 325.465878 
L 101.420914 325.488187 
L 98.402405 327.788871 
L 97.545976 328.531253 
L 95.383895 330.518096 
L 94.312353 331.596627 
L 92.365385 333.801426 
L 91.642157 334.662002 
L 89.489614 337.727377 
L 89.346876 337.986129 
L 87.772484 340.792752 
L 86.592405 343.858127 
L 86.328366 345.101816 
L 85.905077 346.923502 
L 85.823789 349.988877 
L 86.328366 352.330208 
L 86.49832 353.054252 
L 88.2346 356.119626 
L 89.346876 357.267919 
L 91.945833 359.185001 
z
M 93.857442 356.119626 
L 92.365385 354.867434 
L 90.848217 353.054252 
L 89.629787 349.988877 
L 89.436973 346.923502 
L 89.982807 343.858127 
L 91.146055 340.792752 
L 92.365385 338.655543 
L 92.899363 337.727377 
L 95.216215 334.662002 
L 95.383895 334.474333 
L 98.153544 331.596627 
L 98.402405 331.365354 
L 101.420914 328.842885 
L 101.849337 328.531253 
L 104.439424 326.725267 
L 106.617351 325.465878 
L 107.457934 324.973182 
L 110.476443 323.52098 
L 113.483943 322.400503 
L 113.494953 322.396096 
L 116.513463 321.51498 
L 119.531972 320.96834 
L 122.550482 320.769927 
L 125.568992 320.972948 
L 128.587501 321.677149 
L 130.298739 322.400503 
L 131.606011 323.063565 
L 134.624521 325.416002 
L 134.675187 325.465878 
L 137.015488 328.531253 
L 137.64303 329.871384 
L 138.426943 331.596627 
L 139.0845 334.662002 
L 138.967776 337.727377 
L 137.970749 340.792752 
L 137.64303 341.307031 
L 136.108898 343.858127 
L 134.624521 345.435826 
L 133.239847 346.923502 
L 131.606011 348.237534 
L 129.343375 349.988877 
L 128.587501 350.475931 
L 125.568992 352.325325 
L 124.264084 353.054252 
L 122.550482 353.925683 
L 119.531972 355.278735 
L 117.321922 356.119626 
L 116.513463 356.422388 
L 113.494953 357.359877 
L 110.476443 358.062376 
L 107.457934 358.525604 
L 104.439424 358.725521 
L 101.420914 358.610298 
L 98.402405 358.087466 
L 95.383895 357.002401 
z
" style="fill:#7fb9da;"/>
   </g>
   <g id="PathCollection_6">
    <path clip-path="url(#p33f39e224e)" d="M 95.383895 357.002401 
L 98.402405 358.087466 
L 101.420914 358.610298 
L 104.439424 358.725521 
L 107.457934 358.525604 
L 110.476443 358.062376 
L 113.494953 357.359877 
L 116.513463 356.422388 
L 117.321922 356.119626 
L 119.531972 355.278735 
L 122.550482 353.925683 
L 124.264084 353.054252 
L 125.568992 352.325325 
L 128.587501 350.475931 
L 129.343375 349.988877 
L 131.606011 348.237534 
L 133.239847 346.923502 
L 134.624521 345.435826 
L 136.108898 343.858127 
L 137.64303 341.307031 
L 137.970749 340.792752 
L 138.967776 337.727377 
L 139.0845 334.662002 
L 138.426943 331.596627 
L 137.64303 329.871384 
L 137.015488 328.531253 
L 134.675187 325.465878 
L 134.624521 325.416002 
L 131.606011 323.063565 
L 130.298739 322.400503 
L 128.587501 321.677149 
L 125.568992 320.972948 
L 122.550482 320.769927 
L 119.531972 320.96834 
L 116.513463 321.51498 
L 113.494953 322.396096 
L 113.483943 322.400503 
L 110.476443 323.52098 
L 107.457934 324.973182 
L 106.617351 325.465878 
L 104.439424 326.725267 
L 101.849337 328.531253 
L 101.420914 328.842885 
L 98.402405 331.365354 
L 98.153544 331.596627 
L 95.383895 334.474333 
L 95.216215 334.662002 
L 92.899363 337.727377 
L 92.365385 338.655543 
L 91.146055 340.792752 
L 89.982807 343.858127 
L 89.436973 346.923502 
L 89.629787 349.988877 
L 90.848217 353.054252 
L 92.365385 354.867434 
L 93.857442 356.119626 
z
M 95.692964 353.054252 
L 95.383895 352.740009 
L 93.535333 349.988877 
L 92.915284 346.923502 
L 93.280987 343.858127 
L 94.400952 340.792752 
L 95.383895 339.108586 
L 96.219891 337.727377 
L 98.402405 335.033389 
L 98.730273 334.662002 
L 101.420914 332.131335 
L 102.071115 331.596627 
L 104.439424 329.841276 
L 106.557674 328.531253 
L 107.457934 327.994195 
L 110.476443 326.544603 
L 113.43695 325.465878 
L 113.494953 325.444113 
L 116.513463 324.689768 
L 119.531972 324.321498 
L 122.550482 324.386227 
L 125.568992 324.98122 
L 126.808381 325.465878 
L 128.587501 326.356637 
L 131.258623 328.531253 
L 131.606011 328.976342 
L 133.250118 331.596627 
L 134.103193 334.662002 
L 134.038711 337.727377 
L 133.086972 340.792752 
L 131.606011 343.150715 
L 131.166637 343.858127 
L 128.587501 346.571365 
L 128.239655 346.923502 
L 125.568992 348.974684 
L 124.12293 349.988877 
L 122.550482 350.917357 
L 119.531972 352.485984 
L 118.252099 353.054252 
L 116.513463 353.764021 
L 113.494953 354.750199 
L 110.476443 355.4694 
L 107.457934 355.902125 
L 104.439424 355.996821 
L 101.420914 355.654083 
L 98.402405 354.699096 
z
" style="fill:#5ba3d0;"/>
   </g>
   <g id="PathCollection_7">
    <path clip-path="url(#p33f39e224e)" d="M 98.402405 354.699096 
L 101.420914 355.654083 
L 104.439424 355.996821 
L 107.457934 355.902125 
L 110.476443 355.4694 
L 113.494953 354.750199 
L 116.513463 353.764021 
L 118.252099 353.054252 
L 119.531972 352.485984 
L 122.550482 350.917357 
L 124.12293 349.988877 
L 125.568992 348.974684 
L 128.239655 346.923502 
L 128.587501 346.571365 
L 131.166637 343.858127 
L 131.606011 343.150715 
L 133.086972 340.792752 
L 134.038711 337.727377 
L 134.103193 334.662002 
L 133.250118 331.596627 
L 131.606011 328.976342 
L 131.258623 328.531253 
L 128.587501 326.356637 
L 126.808381 325.465878 
L 125.568992 324.98122 
L 122.550482 324.386227 
L 119.531972 324.321498 
L 116.513463 324.689768 
L 113.494953 325.444113 
L 113.43695 325.465878 
L 110.476443 326.544603 
L 107.457934 327.994195 
L 106.557674 328.531253 
L 104.439424 329.841276 
L 102.071115 331.596627 
L 101.420914 332.131335 
L 98.730273 334.662002 
L 98.402405 335.033389 
L 96.219891 337.727377 
L 95.383895 339.108586 
L 94.400952 340.792752 
L 93.280987 343.858127 
L 92.915284 346.923502 
L 93.535333 349.988877 
L 95.383895 352.740009 
L 95.692964 353.054252 
z
M 104.198306 353.054252 
L 101.420914 352.304171 
L 98.402405 350.394002 
L 98.003851 349.988877 
L 96.647303 346.923502 
L 96.706536 343.858127 
L 97.742103 340.792752 
L 98.402405 339.696705 
L 99.674013 337.727377 
L 101.420914 335.750683 
L 102.508245 334.662002 
L 104.439424 333.067533 
L 106.562066 331.596627 
L 107.457934 331.036771 
L 110.476443 329.551227 
L 113.296923 328.531253 
L 113.494953 328.461617 
L 116.513463 327.850668 
L 119.531972 327.712235 
L 122.550482 328.146266 
L 123.629183 328.531253 
L 125.568992 329.51001 
L 127.912645 331.596627 
L 128.587501 332.813425 
L 129.388641 334.662002 
L 129.555107 337.727377 
L 128.656589 340.792752 
L 128.587501 340.902063 
L 126.68821 343.858127 
L 125.568992 344.99133 
L 123.524691 346.923502 
L 122.550482 347.622284 
L 119.531972 349.543797 
L 118.709814 349.988877 
L 116.513463 350.993136 
L 113.494953 352.072516 
L 110.476443 352.830065 
L 108.663582 353.054252 
L 107.457934 353.192103 
L 104.439424 353.101155 
z
" style="fill:#3b8bc2;"/>
   </g>
   <g id="PathCollection_8">
    <path clip-path="url(#p33f39e224e)" d="M 104.439424 353.101155 
L 107.457934 353.192103 
L 108.663582 353.054252 
L 110.476443 352.830065 
L 113.494953 352.072516 
L 116.513463 350.993136 
L 118.709814 349.988877 
L 119.531972 349.543797 
L 122.550482 347.622284 
L 123.524691 346.923502 
L 125.568992 344.99133 
L 126.68821 343.858127 
L 128.587501 340.902063 
L 128.656589 340.792752 
L 129.555107 337.727377 
L 129.388641 334.662002 
L 128.587501 332.813425 
L 127.912645 331.596627 
L 125.568992 329.51001 
L 123.629183 328.531253 
L 122.550482 328.146266 
L 119.531972 327.712235 
L 116.513463 327.850668 
L 113.494953 328.461617 
L 113.296923 328.531253 
L 110.476443 329.551227 
L 107.457934 331.036771 
L 106.562066 331.596627 
L 104.439424 333.067533 
L 102.508245 334.662002 
L 101.420914 335.750683 
L 99.674013 337.727377 
L 98.402405 339.696705 
L 97.742103 340.792752 
L 96.706536 343.858127 
L 96.647303 346.923502 
L 98.003851 349.988877 
L 98.402405 350.394002 
L 101.420914 352.304171 
L 104.198306 353.054252 
z
M 106.828888 349.988877 
L 104.439424 349.459427 
L 101.420914 347.272436 
L 101.15458 346.923502 
L 100.60268 343.858127 
L 101.420914 340.901844 
L 101.454373 340.792752 
L 103.613997 337.727377 
L 104.439424 336.901291 
L 107.094908 334.662002 
L 107.457934 334.41261 
L 110.476443 332.837751 
L 113.494953 331.740686 
L 114.417617 331.596627 
L 116.513463 331.306808 
L 119.531972 331.54443 
L 119.697042 331.596627 
L 122.550482 333.097958 
L 124.025645 334.662002 
L 124.849407 337.727377 
L 124.101379 340.792752 
L 122.550482 343.125865 
L 122.015549 343.858127 
L 119.531972 345.961767 
L 118.196773 346.923502 
L 116.513463 347.82883 
L 113.494953 349.066457 
L 110.476443 349.872555 
L 108.881701 349.988877 
L 107.457934 350.074821 
z
" style="fill:#2070b4;"/>
   </g>
   <g id="PathCollection_9">
    <path clip-path="url(#p33f39e224e)" d="M 107.457934 350.074821 
L 108.881701 349.988877 
L 110.476443 349.872555 
L 113.494953 349.066457 
L 116.513463 347.82883 
L 118.196773 346.923502 
L 119.531972 345.961767 
L 122.015549 343.858127 
L 122.550482 343.125865 
L 124.101379 340.792752 
L 124.849407 337.727377 
L 124.025645 334.662002 
L 122.550482 333.097958 
L 119.697042 331.596627 
L 119.531972 331.54443 
L 116.513463 331.306808 
L 114.417617 331.596627 
L 113.494953 331.740686 
L 110.476443 332.837751 
L 107.457934 334.41261 
L 107.094908 334.662002 
L 104.439424 336.901291 
L 103.613997 337.727377 
L 101.454373 340.792752 
L 101.420914 340.901844 
L 100.60268 343.858127 
L 101.15458 346.923502 
L 101.420914 347.272436 
L 104.439424 349.459427 
L 106.828888 349.988877 
z
M 106.48755 343.858127 
L 106.731396 340.792752 
L 107.457934 339.855375 
L 109.643268 337.727377 
L 110.476443 337.227589 
L 113.494953 336.298549 
L 116.513463 336.53355 
L 118.197421 337.727377 
L 118.24746 340.792752 
L 116.513463 342.951345 
L 115.528331 343.858127 
L 113.494953 344.847489 
L 110.476443 345.507385 
L 107.457934 344.808801 
z
" style="fill:#0d57a1;"/>
   </g>
   <g id="PathCollection_10">
    <path clip-path="url(#p33f39e224e)" d="M 107.457934 344.808801 
L 110.476443 345.507385 
L 113.494953 344.847489 
L 115.528331 343.858127 
L 116.513463 342.951345 
L 118.24746 340.792752 
L 118.197421 337.727377 
L 116.513463 336.53355 
L 113.494953 336.298549 
L 110.476443 337.227589 
L 109.643268 337.727377 
L 107.457934 339.855375 
L 106.731396 340.792752 
L 106.48755 343.858127 
z
" style="fill:#083c7d;"/>
   </g>
   <g id="patch_3">
    <path d="M 50.10625 389.83875 
L 50.10625 86.366638 
" style="fill:none;"/>
   </g>
   <g id="patch_4">
    <path d="M 50.10625 389.83875 
L 348.938707 389.83875 
" style="fill:none;"/>
   </g>
   <g id="legend_1">
    <g id="line2d_29"/>
    <g id="line2d_30"/>
    <g id="text_17">
     <!-- pearsonr = 0.38; p = 3.2e-05 -->
     <defs>
      <path d="M 18.109375 8.203125 
L 18.109375 -20.796875 
L 9.078125 -20.796875 
L 9.078125 54.6875 
L 18.109375 54.6875 
L 18.109375 46.390625 
Q 20.953125 51.265625 25.265625 53.625 
Q 29.59375 56 35.59375 56 
Q 45.5625 56 51.78125 48.09375 
Q 58.015625 40.1875 58.015625 27.296875 
Q 58.015625 14.40625 51.78125 6.484375 
Q 45.5625 -1.421875 35.59375 -1.421875 
Q 29.59375 -1.421875 25.265625 0.953125 
Q 20.953125 3.328125 18.109375 8.203125 
z
M 48.6875 27.296875 
Q 48.6875 37.203125 44.609375 42.84375 
Q 40.53125 48.484375 33.40625 48.484375 
Q 26.265625 48.484375 22.1875 42.84375 
Q 18.109375 37.203125 18.109375 27.296875 
Q 18.109375 17.390625 22.1875 11.75 
Q 26.265625 6.109375 33.40625 6.109375 
Q 40.53125 6.109375 44.609375 11.75 
Q 48.6875 17.390625 48.6875 27.296875 
z
" id="DejaVuSans-70"/>
      <path d="M 34.28125 27.484375 
Q 23.390625 27.484375 19.1875 25 
Q 14.984375 22.515625 14.984375 16.5 
Q 14.984375 11.71875 18.140625 8.90625 
Q 21.296875 6.109375 26.703125 6.109375 
Q 34.1875 6.109375 38.703125 11.40625 
Q 43.21875 16.703125 43.21875 25.484375 
L 43.21875 27.484375 
z
M 52.203125 31.203125 
L 52.203125 0 
L 43.21875 0 
L 43.21875 8.296875 
Q 40.140625 3.328125 35.546875 0.953125 
Q 30.953125 -1.421875 24.3125 -1.421875 
Q 15.921875 -1.421875 10.953125 3.296875 
Q 6 8.015625 6 15.921875 
Q 6 25.140625 12.171875 29.828125 
Q 18.359375 34.515625 30.609375 34.515625 
L 43.21875 34.515625 
L 43.21875 35.40625 
Q 43.21875 41.609375 39.140625 45 
Q 35.0625 48.390625 27.6875 48.390625 
Q 23 48.390625 18.546875 47.265625 
Q 14.109375 46.140625 10.015625 43.890625 
L 10.015625 52.203125 
Q 14.9375 54.109375 19.578125 55.046875 
Q 24.21875 56 28.609375 56 
Q 40.484375 56 46.34375 49.84375 
Q 52.203125 43.703125 52.203125 31.203125 
z
" id="DejaVuSans-61"/>
      <path d="M 44.28125 53.078125 
L 44.28125 44.578125 
Q 40.484375 46.53125 36.375 47.5 
Q 32.28125 48.484375 27.875 48.484375 
Q 21.1875 48.484375 17.84375 46.4375 
Q 14.5 44.390625 14.5 40.28125 
Q 14.5 37.15625 16.890625 35.375 
Q 19.28125 33.59375 26.515625 31.984375 
L 29.59375 31.296875 
Q 39.15625 29.25 43.1875 25.515625 
Q 47.21875 21.78125 47.21875 15.09375 
Q 47.21875 7.46875 41.1875 3.015625 
Q 35.15625 -1.421875 24.609375 -1.421875 
Q 20.21875 -1.421875 15.453125 -0.5625 
Q 10.6875 0.296875 5.421875 2 
L 5.421875 11.28125 
Q 10.40625 8.6875 15.234375 7.390625 
Q 20.0625 6.109375 24.8125 6.109375 
Q 31.15625 6.109375 34.5625 8.28125 
Q 37.984375 10.453125 37.984375 14.40625 
Q 37.984375 18.0625 35.515625 20.015625 
Q 33.0625 21.96875 24.703125 23.78125 
L 21.578125 24.515625 
Q 13.234375 26.265625 9.515625 29.90625 
Q 5.8125 33.546875 5.8125 39.890625 
Q 5.8125 47.609375 11.28125 51.796875 
Q 16.75 56 26.8125 56 
Q 31.78125 56 36.171875 55.265625 
Q 40.578125 54.546875 44.28125 53.078125 
z
" id="DejaVuSans-73"/>
      <path d="M 30.609375 48.390625 
Q 23.390625 48.390625 19.1875 42.75 
Q 14.984375 37.109375 14.984375 27.296875 
Q 14.984375 17.484375 19.15625 11.84375 
Q 23.34375 6.203125 30.609375 6.203125 
Q 37.796875 6.203125 41.984375 11.859375 
Q 46.1875 17.53125 46.1875 27.296875 
Q 46.1875 37.015625 41.984375 42.703125 
Q 37.796875 48.390625 30.609375 48.390625 
z
M 30.609375 56 
Q 42.328125 56 49.015625 48.375 
Q 55.71875 40.765625 55.71875 27.296875 
Q 55.71875 13.875 49.015625 6.21875 
Q 42.328125 -1.421875 30.609375 -1.421875 
Q 18.84375 -1.421875 12.171875 6.21875 
Q 5.515625 13.875 5.515625 27.296875 
Q 5.515625 40.765625 12.171875 48.375 
Q 18.84375 56 30.609375 56 
z
" id="DejaVuSans-6f"/>
      <path d="M 54.890625 33.015625 
L 54.890625 0 
L 45.90625 0 
L 45.90625 32.71875 
Q 45.90625 40.484375 42.875 44.328125 
Q 39.84375 48.1875 33.796875 48.1875 
Q 26.515625 48.1875 22.3125 43.546875 
Q 18.109375 38.921875 18.109375 30.90625 
L 18.109375 0 
L 9.078125 0 
L 9.078125 54.6875 
L 18.109375 54.6875 
L 18.109375 46.1875 
Q 21.34375 51.125 25.703125 53.5625 
Q 30.078125 56 35.796875 56 
Q 45.21875 56 50.046875 50.171875 
Q 54.890625 44.34375 54.890625 33.015625 
z
" id="DejaVuSans-6e"/>
      <path id="DejaVuSans-20"/>
      <path d="M 10.59375 45.40625 
L 73.1875 45.40625 
L 73.1875 37.203125 
L 10.59375 37.203125 
z
M 10.59375 25.484375 
L 73.1875 25.484375 
L 73.1875 17.1875 
L 10.59375 17.1875 
z
" id="DejaVuSans-3d"/>
      <path d="M 10.6875 12.40625 
L 21 12.40625 
L 21 0 
L 10.6875 0 
z
" id="DejaVuSans-2e"/>
      <path d="M 40.578125 39.3125 
Q 47.65625 37.796875 51.625 33 
Q 55.609375 28.21875 55.609375 21.1875 
Q 55.609375 10.40625 48.1875 4.484375 
Q 40.765625 -1.421875 27.09375 -1.421875 
Q 22.515625 -1.421875 17.65625 -0.515625 
Q 12.796875 0.390625 7.625 2.203125 
L 7.625 11.71875 
Q 11.71875 9.328125 16.59375 8.109375 
Q 21.484375 6.890625 26.8125 6.890625 
Q 36.078125 6.890625 40.9375 10.546875 
Q 45.796875 14.203125 45.796875 21.1875 
Q 45.796875 27.640625 41.28125 31.265625 
Q 36.765625 34.90625 28.71875 34.90625 
L 20.21875 34.90625 
L 20.21875 43.015625 
L 29.109375 43.015625 
Q 36.375 43.015625 40.234375 45.921875 
Q 44.09375 48.828125 44.09375 54.296875 
Q 44.09375 59.90625 40.109375 62.90625 
Q 36.140625 65.921875 28.71875 65.921875 
Q 24.65625 65.921875 20.015625 65.03125 
Q 15.375 64.15625 9.8125 62.3125 
L 9.8125 71.09375 
Q 15.4375 72.65625 20.34375 73.4375 
Q 25.25 74.21875 29.59375 74.21875 
Q 40.828125 74.21875 47.359375 69.109375 
Q 53.90625 64.015625 53.90625 55.328125 
Q 53.90625 49.265625 50.4375 45.09375 
Q 46.96875 40.921875 40.578125 39.3125 
z
" id="DejaVuSans-33"/>
      <path d="M 11.71875 51.703125 
L 22.015625 51.703125 
L 22.015625 39.3125 
L 11.71875 39.3125 
z
M 11.71875 12.40625 
L 22.015625 12.40625 
L 22.015625 4 
L 14.015625 -11.625 
L 7.71875 -11.625 
L 11.71875 4 
z
" id="DejaVuSans-3b"/>
      <path d="M 4.890625 31.390625 
L 31.203125 31.390625 
L 31.203125 23.390625 
L 4.890625 23.390625 
z
" id="DejaVuSans-2d"/>
      <path d="M 10.796875 72.90625 
L 49.515625 72.90625 
L 49.515625 64.59375 
L 19.828125 64.59375 
L 19.828125 46.734375 
Q 21.96875 47.46875 24.109375 47.828125 
Q 26.265625 48.1875 28.421875 48.1875 
Q 40.625 48.1875 47.75 41.5 
Q 54.890625 34.8125 54.890625 23.390625 
Q 54.890625 11.625 47.5625 5.09375 
Q 40.234375 -1.421875 26.90625 -1.421875 
Q 22.3125 -1.421875 17.546875 -0.640625 
Q 12.796875 0.140625 7.71875 1.703125 
L 7.71875 11.625 
Q 12.109375 9.234375 16.796875 8.0625 
Q 21.484375 6.890625 26.703125 6.890625 
Q 35.15625 6.890625 40.078125 11.328125 
Q 45.015625 15.765625 45.015625 23.390625 
Q 45.015625 31 40.078125 35.4375 
Q 35.15625 39.890625 26.703125 39.890625 
Q 22.75 39.890625 18.8125 39.015625 
Q 14.890625 38.140625 10.796875 36.28125 
z
" id="DejaVuSans-35"/>
     </defs>
     <g style="fill:#262626;" transform="translate(192.399644 102.965075)scale(0.1 -0.1)">
      <use xlink:href="#DejaVuSans-70"/>
      <use x="63.476562" xlink:href="#DejaVuSans-65"/>
      <use x="125" xlink:href="#DejaVuSans-61"/>
      <use x="186.279297" xlink:href="#DejaVuSans-72"/>
      <use x="227.392578" xlink:href="#DejaVuSans-73"/>
      <use x="279.492188" xlink:href="#DejaVuSans-6f"/>
      <use x="340.673828" xlink:href="#DejaVuSans-6e"/>
      <use x="404.052734" xlink:href="#DejaVuSans-72"/>
      <use x="445.166016" xlink:href="#DejaVuSans-20"/>
      <use x="476.953125" xlink:href="#DejaVuSans-3d"/>
      <use x="560.742188" xlink:href="#DejaVuSans-20"/>
      <use x="592.529297" xlink:href="#DejaVuSans-30"/>
      <use x="656.152344" xlink:href="#DejaVuSans-2e"/>
      <use x="687.939453" xlink:href="#DejaVuSans-33"/>
      <use x="751.5625" xlink:href="#DejaVuSans-38"/>
      <use x="815.185547" xlink:href="#DejaVuSans-3b"/>
      <use x="848.876953" xlink:href="#DejaVuSans-20"/>
      <use x="880.664062" xlink:href="#DejaVuSans-70"/>
      <use x="944.140625" xlink:href="#DejaVuSans-20"/>
      <use x="975.927734" xlink:href="#DejaVuSans-3d"/>
      <use x="1059.716797" xlink:href="#DejaVuSans-20"/>
      <use x="1091.503906" xlink:href="#DejaVuSans-33"/>
      <use x="1155.126953" xlink:href="#DejaVuSans-2e"/>
      <use x="1186.914062" xlink:href="#DejaVuSans-32"/>
      <use x="1250.537109" xlink:href="#DejaVuSans-65"/>
      <use x="1312.060547" xlink:href="#DejaVuSans-2d"/>
      <use x="1348.144531" xlink:href="#DejaVuSans-30"/>
      <use x="1411.767578" xlink:href="#DejaVuSans-35"/>
     </g>
    </g>
   </g>
  </g>
  <g id="axes_2">
   <g id="patch_5">
    <path d="M 50.10625 73.172198 
L 348.938707 73.172198 
L 348.938707 7.2 
L 50.10625 7.2 
z
" style="fill:#eaeaf2;"/>
   </g>
   <g id="matplotlib.axis_3">
    <g id="xtick_8">
     <g id="line2d_31">
      <path clip-path="url(#pb795f6b858)" d="M 63.166447 73.172198 
L 63.166447 7.2 
" style="fill:none;stroke:#ffffff;stroke-linecap:round;stroke-width:0.8;"/>
     </g>
     <g id="line2d_32"/>
    </g>
    <g id="xtick_9">
     <g id="line2d_33">
      <path clip-path="url(#pb795f6b858)" d="M 105.554178 73.172198 
L 105.554178 7.2 
" style="fill:none;stroke:#ffffff;stroke-linecap:round;stroke-width:0.8;"/>
     </g>
     <g id="line2d_34"/>
    </g>
    <g id="xtick_10">
     <g id="line2d_35">
      <path clip-path="url(#pb795f6b858)" d="M 147.941908 73.172198 
L 147.941908 7.2 
" style="fill:none;stroke:#ffffff;stroke-linecap:round;stroke-width:0.8;"/>
     </g>
     <g id="line2d_36"/>
    </g>
    <g id="xtick_11">
     <g id="line2d_37">
      <path clip-path="url(#pb795f6b858)" d="M 190.329639 73.172198 
L 190.329639 7.2 
" style="fill:none;stroke:#ffffff;stroke-linecap:round;stroke-width:0.8;"/>
     </g>
     <g id="line2d_38"/>
    </g>
    <g id="xtick_12">
     <g id="line2d_39">
      <path clip-path="url(#pb795f6b858)" d="M 232.71737 73.172198 
L 232.71737 7.2 
" style="fill:none;stroke:#ffffff;stroke-linecap:round;stroke-width:0.8;"/>
     </g>
     <g id="line2d_40"/>
    </g>
    <g id="xtick_13">
     <g id="line2d_41">
      <path clip-path="url(#pb795f6b858)" d="M 275.105101 73.172198 
L 275.105101 7.2 
" style="fill:none;stroke:#ffffff;stroke-linecap:round;stroke-width:0.8;"/>
     </g>
     <g id="line2d_42"/>
    </g>
    <g id="xtick_14">
     <g id="line2d_43">
      <path clip-path="url(#pb795f6b858)" d="M 317.492832 73.172198 
L 317.492832 7.2 
" style="fill:none;stroke:#ffffff;stroke-linecap:round;stroke-width:0.8;"/>
     </g>
     <g id="line2d_44"/>
    </g>
   </g>
   <g id="matplotlib.axis_4">
    <g id="ytick_8"/>
    <g id="ytick_9"/>
   </g>
   <g id="PolyCollection_1">
    <path clip-path="url(#pb795f6b858)" d="M 58.402012 72.769603 
L 58.402012 73.172198 
L 61.252931 73.172198 
L 64.103849 73.172198 
L 66.954768 73.172198 
L 69.805686 73.172198 
L 72.656605 73.172198 
L 75.507523 73.172198 
L 78.358442 73.172198 
L 81.20936 73.172198 
L 84.060279 73.172198 
L 86.911197 73.172198 
L 89.762116 73.172198 
L 92.613034 73.172198 
L 95.463953 73.172198 
L 98.314871 73.172198 
L 101.16579 73.172198 
L 104.016708 73.172198 
L 106.867627 73.172198 
L 109.718545 73.172198 
L 112.569464 73.172198 
L 115.420382 73.172198 
L 118.271301 73.172198 
L 121.122219 73.172198 
L 123.973138 73.172198 
L 126.824056 73.172198 
L 129.674975 73.172198 
L 132.525893 73.172198 
L 135.376812 73.172198 
L 138.227731 73.172198 
L 141.078649 73.172198 
L 143.929568 73.172198 
L 146.780486 73.172198 
L 149.631405 73.172198 
L 152.482323 73.172198 
L 155.333242 73.172198 
L 158.18416 73.172198 
L 161.035079 73.172198 
L 163.885997 73.172198 
L 166.736916 73.172198 
L 169.587834 73.172198 
L 172.438753 73.172198 
L 175.289671 73.172198 
L 178.14059 73.172198 
L 180.991508 73.172198 
L 183.842427 73.172198 
L 186.693345 73.172198 
L 189.544264 73.172198 
L 192.395182 73.172198 
L 195.246101 73.172198 
L 198.097019 73.172198 
L 200.947938 73.172198 
L 203.798856 73.172198 
L 206.649775 73.172198 
L 209.500693 73.172198 
L 212.351612 73.172198 
L 215.20253 73.172198 
L 218.053449 73.172198 
L 220.904367 73.172198 
L 223.755286 73.172198 
L 226.606204 73.172198 
L 229.457123 73.172198 
L 232.308041 73.172198 
L 235.15896 73.172198 
L 238.009878 73.172198 
L 240.860797 73.172198 
L 243.711715 73.172198 
L 246.562634 73.172198 
L 249.413552 73.172198 
L 252.264471 73.172198 
L 255.115389 73.172198 
L 257.966308 73.172198 
L 260.817226 73.172198 
L 263.668145 73.172198 
L 266.519063 73.172198 
L 269.369982 73.172198 
L 272.2209 73.172198 
L 275.071819 73.172198 
L 277.922737 73.172198 
L 280.773656 73.172198 
L 283.624574 73.172198 
L 286.475493 73.172198 
L 289.326411 73.172198 
L 292.17733 73.172198 
L 295.028248 73.172198 
L 297.879167 73.172198 
L 300.730086 73.172198 
L 303.581004 73.172198 
L 306.431923 73.172198 
L 309.282841 73.172198 
L 312.13376 73.172198 
L 314.984678 73.172198 
L 317.835597 73.172198 
L 320.686515 73.172198 
L 323.537434 73.172198 
L 326.388352 73.172198 
L 329.239271 73.172198 
L 332.090189 73.172198 
L 334.941108 73.172198 
L 337.792026 73.172198 
L 340.642945 73.172198 
L 340.642945 73.16026 
L 340.642945 73.16026 
L 337.792026 73.151894 
L 334.941108 73.138726 
L 332.090189 73.118702 
L 329.239271 73.089282 
L 326.388352 73.047528 
L 323.537434 72.99029 
L 320.686515 72.914505 
L 317.835597 72.817595 
L 314.984678 72.697911 
L 312.13376 72.555151 
L 309.282841 72.390647 
L 306.431923 72.207445 
L 303.581004 72.010099 
L 300.730086 71.804192 
L 297.879167 71.595613 
L 295.028248 71.389752 
L 292.17733 71.190758 
L 289.326411 71.001064 
L 286.475493 70.821321 
L 283.624574 70.650805 
L 280.773656 70.488265 
L 277.922737 70.333031 
L 275.071819 70.186134 
L 272.2209 70.05111 
L 269.369982 69.934215 
L 266.519063 69.843847 
L 263.668145 69.78917 
L 260.817226 69.77811 
L 257.966308 69.815062 
L 255.115389 69.898785 
L 252.264471 70.020965 
L 249.413552 70.165838 
L 246.562634 70.311104 
L 243.711715 70.430126 
L 240.860797 70.495181 
L 238.009878 70.481317 
L 235.15896 70.370217 
L 232.308041 70.153408 
L 229.457123 69.834171 
L 226.606204 69.427625 
L 223.755286 68.958738 
L 220.904367 68.458308 
L 218.053449 67.957396 
L 215.20253 67.481066 
L 212.351612 67.042525 
L 209.500693 66.638891 
L 206.649775 66.249582 
L 203.798856 65.837952 
L 200.947938 65.356161 
L 198.097019 64.752674 
L 195.246101 63.981162 
L 192.395182 63.009254 
L 189.544264 61.825534 
L 186.693345 60.443395 
L 183.842427 58.900921 
L 180.991508 57.256673 
L 178.14059 55.581958 
L 175.289671 53.950833 
L 172.438753 52.429437 
L 169.587834 51.066306 
L 166.736916 49.885054 
L 163.885997 48.880316 
L 161.035079 48.017226 
L 158.18416 47.234174 
L 155.333242 46.448217 
L 152.482323 45.562385 
L 149.631405 44.474201 
L 146.780486 43.084945 
L 143.929568 41.309407 
L 141.078649 39.085991 
L 138.227731 36.386959 
L 135.376812 33.228322 
L 132.525893 29.678355 
L 129.674975 25.863191 
L 126.824056 21.967474 
L 123.973138 18.228046 
L 121.122219 14.919158 
L 118.271301 12.32902 
L 115.420382 10.729336 
L 112.569464 10.341533 
L 109.718545 11.305024 
L 106.867627 13.653499 
L 104.016708 17.304437 
L 101.16579 22.064805 
L 98.314871 27.652758 
L 95.463953 33.731787 
L 92.613034 39.951214 
L 89.762116 45.985816 
L 86.911197 51.567979 
L 84.060279 56.507893 
L 81.20936 60.700132 
L 78.358442 64.117859 
L 75.507523 66.797984 
L 72.656605 68.821597 
L 69.805686 70.293874 
L 66.954768 71.32665 
L 64.103849 72.025514 
L 61.252931 72.481894 
L 58.402012 72.769603 
z
" style="fill:#1f77b4;fill-opacity:0.25;"/>
   </g>
   <g id="line2d_45">
    <path clip-path="url(#pb795f6b858)" d="M 58.402012 72.769603 
L 61.252931 72.481894 
L 64.103849 72.025514 
L 66.954768 71.32665 
L 69.805686 70.293874 
L 72.656605 68.821597 
L 75.507523 66.797984 
L 78.358442 64.117859 
L 81.20936 60.700132 
L 84.060279 56.507893 
L 86.911197 51.567979 
L 89.762116 45.985816 
L 92.613034 39.951214 
L 95.463953 33.731787 
L 98.314871 27.652758 
L 101.16579 22.064805 
L 104.016708 17.304437 
L 106.867627 13.653499 
L 109.718545 11.305024 
L 112.569464 10.341533 
L 115.420382 10.729336 
L 118.271301 12.32902 
L 121.122219 14.919158 
L 123.973138 18.228046 
L 126.824056 21.967474 
L 129.674975 25.863191 
L 132.525893 29.678355 
L 135.376812 33.228322 
L 138.227731 36.386959 
L 141.078649 39.085991 
L 143.929568 41.309407 
L 146.780486 43.084945 
L 149.631405 44.474201 
L 152.482323 45.562385 
L 155.333242 46.448217 
L 158.18416 47.234174 
L 161.035079 48.017226 
L 163.885997 48.880316 
L 166.736916 49.885054 
L 169.587834 51.066306 
L 172.438753 52.429437 
L 175.289671 53.950833 
L 178.14059 55.581958 
L 180.991508 57.256673 
L 183.842427 58.900921 
L 186.693345 60.443395 
L 189.544264 61.825534 
L 192.395182 63.009254 
L 195.246101 63.981162 
L 198.097019 64.752674 
L 200.947938 65.356161 
L 203.798856 65.837952 
L 206.649775 66.249582 
L 209.500693 66.638891 
L 212.351612 67.042525 
L 215.20253 67.481066 
L 218.053449 67.957396 
L 220.904367 68.458308 
L 223.755286 68.958738 
L 226.606204 69.427625 
L 229.457123 69.834171 
L 232.308041 70.153408 
L 235.15896 70.370217 
L 238.009878 70.481317 
L 240.860797 70.495181 
L 243.711715 70.430126 
L 246.562634 70.311104 
L 249.413552 70.165838 
L 252.264471 70.020965 
L 255.115389 69.898785 
L 257.966308 69.815062 
L 260.817226 69.77811 
L 263.668145 69.78917 
L 266.519063 69.843847 
L 269.369982 69.934215 
L 272.2209 70.05111 
L 275.071819 70.186134 
L 277.922737 70.333031 
L 280.773656 70.488265 
L 283.624574 70.650805 
L 286.475493 70.821321 
L 289.326411 71.001064 
L 292.17733 71.190758 
L 295.028248 71.389752 
L 297.879167 71.595613 
L 300.730086 71.804192 
L 303.581004 72.010099 
L 306.431923 72.207445 
L 309.282841 72.390647 
L 312.13376 72.555151 
L 314.984678 72.697911 
L 317.835597 72.817595 
L 320.686515 72.914505 
L 323.537434 72.99029 
L 326.388352 73.047528 
L 329.239271 73.089282 
L 332.090189 73.118702 
L 334.941108 73.138726 
L 337.792026 73.151894 
L 340.642945 73.16026 
" style="fill:none;stroke:#1f77b4;stroke-linecap:round;stroke-width:1.5;"/>
   </g>
   <g id="patch_6">
    <path d="M 50.10625 73.172198 
L 348.938707 73.172198 
" style="fill:none;"/>
   </g>
  </g>
  <g id="axes_3">
   <g id="patch_7">
    <path d="M 361.931422 389.83875 
L 426.895 389.83875 
L 426.895 86.366638 
L 361.931422 86.366638 
z
" style="fill:#eaeaf2;"/>
   </g>
   <g id="matplotlib.axis_5">
    <g id="xtick_15"/>
    <g id="xtick_16"/>
   </g>
   <g id="matplotlib.axis_6">
    <g id="ytick_10">
     <g id="line2d_46">
      <path clip-path="url(#p686db184e7)" d="M 361.931422 346.943454 
L 426.895 346.943454 
" style="fill:none;stroke:#ffffff;stroke-linecap:round;stroke-width:0.8;"/>
     </g>
     <g id="line2d_47"/>
    </g>
    <g id="ytick_11">
     <g id="line2d_48">
      <path clip-path="url(#p686db184e7)" d="M 361.931422 303.537368 
L 426.895 303.537368 
" style="fill:none;stroke:#ffffff;stroke-linecap:round;stroke-width:0.8;"/>
     </g>
     <g id="line2d_49"/>
    </g>
    <g id="ytick_12">
     <g id="line2d_50">
      <path clip-path="url(#p686db184e7)" d="M 361.931422 260.131282 
L 426.895 260.131282 
" style="fill:none;stroke:#ffffff;stroke-linecap:round;stroke-width:0.8;"/>
     </g>
     <g id="line2d_51"/>
    </g>
    <g id="ytick_13">
     <g id="line2d_52">
      <path clip-path="url(#p686db184e7)" d="M 361.931422 216.725197 
L 426.895 216.725197 
" style="fill:none;stroke:#ffffff;stroke-linecap:round;stroke-width:0.8;"/>
     </g>
     <g id="line2d_53"/>
    </g>
    <g id="ytick_14">
     <g id="line2d_54">
      <path clip-path="url(#p686db184e7)" d="M 361.931422 173.319111 
L 426.895 173.319111 
" style="fill:none;stroke:#ffffff;stroke-linecap:round;stroke-width:0.8;"/>
     </g>
     <g id="line2d_55"/>
    </g>
    <g id="ytick_15">
     <g id="line2d_56">
      <path clip-path="url(#p686db184e7)" d="M 361.931422 129.913025 
L 426.895 129.913025 
" style="fill:none;stroke:#ffffff;stroke-linecap:round;stroke-width:0.8;"/>
     </g>
     <g id="line2d_57"/>
    </g>
    <g id="ytick_16">
     <g id="line2d_58">
      <path clip-path="url(#p686db184e7)" d="M 361.931422 86.50694 
L 426.895 86.50694 
" style="fill:none;stroke:#ffffff;stroke-linecap:round;stroke-width:0.8;"/>
     </g>
     <g id="line2d_59"/>
    </g>
   </g>
   <g id="PolyCollection_2">
    <path clip-path="url(#p686db184e7)" d="M 362.323057 383.325113 
L 361.931422 383.325113 
L 361.931422 380.391327 
L 361.931422 377.457541 
L 361.931422 374.523755 
L 361.931422 371.589968 
L 361.931422 368.656182 
L 361.931422 365.722396 
L 361.931422 362.78861 
L 361.931422 359.854823 
L 361.931422 356.921037 
L 361.931422 353.987251 
L 361.931422 351.053465 
L 361.931422 348.119678 
L 361.931422 345.185892 
L 361.931422 342.252106 
L 361.931422 339.31832 
L 361.931422 336.384533 
L 361.931422 333.450747 
L 361.931422 330.516961 
L 361.931422 327.583175 
L 361.931422 324.649388 
L 361.931422 321.715602 
L 361.931422 318.781816 
L 361.931422 315.84803 
L 361.931422 312.914243 
L 361.931422 309.980457 
L 361.931422 307.046671 
L 361.931422 304.112885 
L 361.931422 301.179098 
L 361.931422 298.245312 
L 361.931422 295.311526 
L 361.931422 292.37774 
L 361.931422 289.443953 
L 361.931422 286.510167 
L 361.931422 283.576381 
L 361.931422 280.642595 
L 361.931422 277.708808 
L 361.931422 274.775022 
L 361.931422 271.841236 
L 361.931422 268.90745 
L 361.931422 265.973663 
L 361.931422 263.039877 
L 361.931422 260.106091 
L 361.931422 257.172305 
L 361.931422 254.238518 
L 361.931422 251.304732 
L 361.931422 248.370946 
L 361.931422 245.43716 
L 361.931422 242.503373 
L 361.931422 239.569587 
L 361.931422 236.635801 
L 361.931422 233.702015 
L 361.931422 230.768228 
L 361.931422 227.834442 
L 361.931422 224.900656 
L 361.931422 221.96687 
L 361.931422 219.033083 
L 361.931422 216.099297 
L 361.931422 213.165511 
L 361.931422 210.231725 
L 361.931422 207.297938 
L 361.931422 204.364152 
L 361.931422 201.430366 
L 361.931422 198.49658 
L 361.931422 195.562793 
L 361.931422 192.629007 
L 361.931422 189.695221 
L 361.931422 186.761435 
L 361.931422 183.827648 
L 361.931422 180.893862 
L 361.931422 177.960076 
L 361.931422 175.02629 
L 361.931422 172.092503 
L 361.931422 169.158717 
L 361.931422 166.224931 
L 361.931422 163.291145 
L 361.931422 160.357358 
L 361.931422 157.423572 
L 361.931422 154.489786 
L 361.931422 151.556 
L 361.931422 148.622213 
L 361.931422 145.688427 
L 361.931422 142.754641 
L 361.931422 139.820855 
L 361.931422 136.887068 
L 361.931422 133.953282 
L 361.931422 131.019496 
L 361.931422 128.08571 
L 361.931422 125.151923 
L 361.931422 122.218137 
L 361.931422 119.284351 
L 361.931422 116.350565 
L 361.931422 113.416778 
L 361.931422 110.482992 
L 361.931422 107.549206 
L 361.931422 104.61542 
L 361.931422 101.681633 
L 361.931422 98.747847 
L 361.931422 95.814061 
L 361.931422 92.880275 
L 361.940569 92.880275 
L 361.940569 92.880275 
L 361.949453 95.814061 
L 361.965031 98.747847 
L 361.990658 101.681633 
L 362.030139 104.61542 
L 362.086979 107.549206 
L 362.163199 110.482992 
L 362.257965 113.416778 
L 362.366428 116.350565 
L 362.479367 119.284351 
L 362.58405 122.218137 
L 362.666409 125.151923 
L 362.714095 128.08571 
L 362.719497 131.019496 
L 362.681732 133.953282 
L 362.606883 136.887068 
L 362.506393 139.820855 
L 362.394206 142.754641 
L 362.283628 145.688427 
L 362.184878 148.622213 
L 362.103884 151.556 
L 362.042383 154.489786 
L 361.998927 157.423572 
L 361.970254 160.357358 
L 361.952544 163.291145 
L 361.942285 166.224931 
L 361.936705 169.158717 
L 361.933852 172.092503 
L 361.932482 175.02629 
L 361.931868 177.960076 
L 361.931625 180.893862 
L 361.931583 183.827648 
L 361.931715 186.761435 
L 361.932139 189.695221 
L 361.933178 192.629007 
L 361.935524 195.562793 
L 361.940501 198.49658 
L 361.950449 201.430366 
L 361.969183 204.364152 
L 362.002414 207.297938 
L 362.057921 210.231725 
L 362.145188 213.165511 
L 362.274284 216.099297 
L 362.453911 219.033083 
L 362.688936 221.96687 
L 362.978081 224.900656 
L 363.312679 227.834442 
L 363.677292 230.768228 
L 364.052445 233.702015 
L 364.418913 236.635801 
L 364.762348 239.569587 
L 365.076735 242.503373 
L 365.36554 245.43716 
L 365.640182 248.370946 
L 365.916304 251.304732 
L 366.208876 254.238518 
L 366.527351 257.172305 
L 366.872024 260.106091 
L 367.232534 263.039877 
L 367.589245 265.973663 
L 367.917779 268.90745 
L 368.196186 271.841236 
L 368.413132 274.775022 
L 368.574538 277.708808 
L 368.705951 280.642595 
L 368.849044 283.576381 
L 369.052906 286.510167 
L 369.363189 289.443953 
L 369.813649 292.37774 
L 370.424104 295.311526 
L 371.206406 298.245312 
L 372.176823 301.179098 
L 373.370685 304.112885 
L 374.854311 307.046671 
L 376.729994 309.980457 
L 379.131183 312.914243 
L 382.205772 315.84803 
L 386.085828 318.781816 
L 390.843391 321.715602 
L 396.436103 324.649388 
L 402.653755 327.583175 
L 409.084874 330.516961 
L 415.125966 333.450747 
L 420.049664 336.384533 
L 423.13031 339.31832 
L 423.801496 342.252106 
L 421.800546 345.185892 
L 417.251059 348.119678 
L 410.651424 351.053465 
L 402.769146 353.987251 
L 394.47409 356.921037 
L 386.563321 359.854823 
L 379.628097 362.78861 
L 373.992661 365.722396 
L 369.726198 368.656182 
L 366.706369 371.589968 
L 364.703192 374.523755 
L 363.455694 377.457541 
L 362.725376 380.391327 
L 362.323057 383.325113 
z
" style="fill:#1f77b4;fill-opacity:0.25;"/>
   </g>
   <g id="line2d_60">
    <path clip-path="url(#p686db184e7)" d="M 362.323057 383.325113 
L 362.725376 380.391327 
L 363.455694 377.457541 
L 364.703192 374.523755 
L 366.706369 371.589968 
L 369.726198 368.656182 
L 373.992661 365.722396 
L 379.628097 362.78861 
L 386.563321 359.854823 
L 394.47409 356.921037 
L 402.769146 353.987251 
L 410.651424 351.053465 
L 417.251059 348.119678 
L 421.800546 345.185892 
L 423.801496 342.252106 
L 423.13031 339.31832 
L 420.049664 336.384533 
L 415.125966 333.450747 
L 409.084874 330.516961 
L 402.653755 327.583175 
L 396.436103 324.649388 
L 390.843391 321.715602 
L 386.085828 318.781816 
L 382.205772 315.84803 
L 379.131183 312.914243 
L 376.729994 309.980457 
L 374.854311 307.046671 
L 373.370685 304.112885 
L 372.176823 301.179098 
L 371.206406 298.245312 
L 370.424104 295.311526 
L 369.813649 292.37774 
L 369.363189 289.443953 
L 369.052906 286.510167 
L 368.849044 283.576381 
L 368.705951 280.642595 
L 368.574538 277.708808 
L 368.413132 274.775022 
L 368.196186 271.841236 
L 367.917779 268.90745 
L 367.589245 265.973663 
L 367.232534 263.039877 
L 366.872024 260.106091 
L 366.527351 257.172305 
L 366.208876 254.238518 
L 365.916304 251.304732 
L 365.640182 248.370946 
L 365.36554 245.43716 
L 365.076735 242.503373 
L 364.762348 239.569587 
L 364.418913 236.635801 
L 364.052445 233.702015 
L 363.677292 230.768228 
L 363.312679 227.834442 
L 362.978081 224.900656 
L 362.688936 221.96687 
L 362.453911 219.033083 
L 362.274284 216.099297 
L 362.145188 213.165511 
L 362.057921 210.231725 
L 362.002414 207.297938 
L 361.969183 204.364152 
L 361.950449 201.430366 
L 361.940501 198.49658 
L 361.935524 195.562793 
L 361.933178 192.629007 
L 361.932139 189.695221 
L 361.931715 186.761435 
L 361.931583 183.827648 
L 361.931625 180.893862 
L 361.931868 177.960076 
L 361.932482 175.02629 
L 361.933852 172.092503 
L 361.936705 169.158717 
L 361.942285 166.224931 
L 361.952544 163.291145 
L 361.970254 160.357358 
L 361.998927 157.423572 
L 362.042383 154.489786 
L 362.103884 151.556 
L 362.184878 148.622213 
L 362.283628 145.688427 
L 362.394206 142.754641 
L 362.506393 139.820855 
L 362.606883 136.887068 
L 362.681732 133.953282 
L 362.719497 131.019496 
L 362.714095 128.08571 
L 362.666409 125.151923 
L 362.58405 122.218137 
L 362.479367 119.284351 
L 362.366428 116.350565 
L 362.257965 113.416778 
L 362.163199 110.482992 
L 362.086979 107.549206 
L 362.030139 104.61542 
L 361.990658 101.681633 
L 361.965031 98.747847 
L 361.949453 95.814061 
L 361.940569 92.880275 
" style="fill:none;stroke:#1f77b4;stroke-linecap:round;stroke-width:1.5;"/>
   </g>
   <g id="patch_8">
    <path d="M 361.931422 389.83875 
L 361.931422 86.366638 
" style="fill:none;"/>
   </g>
  </g>
 </g>
 <defs>
  <clipPath id="p33f39e224e">
   <rect height="303.472112" width="298.832457" x="50.10625" y="86.366638"/>
  </clipPath>
  <clipPath id="pb795f6b858">
   <rect height="65.972198" width="298.832457" x="50.10625" y="7.2"/>
  </clipPath>
  <clipPath id="p686db184e7">
   <rect height="303.472112" width="64.963578" x="361.931422" y="86.366638"/>
  </clipPath>
 </defs>
</svg>
