<?xml version="1.0" encoding="utf-8" standalone="no"?>
<!DOCTYPE svg PUBLIC "-//W3C//DTD SVG 1.1//EN"
  "http://www.w3.org/Graphics/SVG/1.1/DTD/svg11.dtd">
<!-- Created with matplotlib (http://matplotlib.org/) -->
<svg height="424pt" version="1.1" viewBox="0 0 436 424" width="436pt" xmlns="http://www.w3.org/2000/svg" xmlns:xlink="http://www.w3.org/1999/xlink">
 <defs>
  <style type="text/css">
*{stroke-linecap:butt;stroke-linejoin:round;}
  </style>
 </defs>
 <g id="figure_1">
  <g id="patch_1">
   <path d="M 0 424.173125 
L 436.112187 424.173125 
L 436.112187 0 
L 0 0 
z
" style="fill:#ffffff;"/>
  </g>
  <g id="axes_1">
   <g id="patch_2">
    <path d="M 52.123438 389.83875 
L 350.955894 389.83875 
L 350.955894 86.366638 
L 52.123438 86.366638 
z
" style="fill:#eaeaf2;"/>
   </g>
   <g id="matplotlib.axis_1">
    <g id="xtick_1">
     <g id="line2d_1">
      <path clip-path="url(#pbd918ef482)" d="M 99.075554 389.83875 
L 99.075554 86.366638 
" style="fill:none;stroke:#ffffff;stroke-linecap:round;stroke-width:0.8;"/>
     </g>
     <g id="line2d_2"/>
     <g id="text_1">
      <!-- 0 -->
      <defs>
       <path d="M 31.78125 66.40625 
Q 24.171875 66.40625 20.328125 58.90625 
Q 16.5 51.421875 16.5 36.375 
Q 16.5 21.390625 20.328125 13.890625 
Q 24.171875 6.390625 31.78125 6.390625 
Q 39.453125 6.390625 43.28125 13.890625 
Q 47.125 21.390625 47.125 36.375 
Q 47.125 51.421875 43.28125 58.90625 
Q 39.453125 66.40625 31.78125 66.40625 
z
M 31.78125 74.21875 
Q 44.046875 74.21875 50.515625 64.515625 
Q 56.984375 54.828125 56.984375 36.375 
Q 56.984375 17.96875 50.515625 8.265625 
Q 44.046875 -1.421875 31.78125 -1.421875 
Q 19.53125 -1.421875 13.0625 8.265625 
Q 6.59375 17.96875 6.59375 36.375 
Q 6.59375 54.828125 13.0625 64.515625 
Q 19.53125 74.21875 31.78125 74.21875 
z
" id="DejaVuSans-30"/>
      </defs>
      <g style="fill:#262626;" transform="translate(95.894304 400.937187)scale(0.1 -0.1)">
       <use xlink:href="#DejaVuSans-30"/>
      </g>
     </g>
    </g>
    <g id="xtick_2">
     <g id="line2d_3">
      <path clip-path="url(#pbd918ef482)" d="M 148.997776 389.83875 
L 148.997776 86.366638 
" style="fill:none;stroke:#ffffff;stroke-linecap:round;stroke-width:0.8;"/>
     </g>
     <g id="line2d_4"/>
     <g id="text_2">
      <!-- 200 -->
      <defs>
       <path d="M 19.1875 8.296875 
L 53.609375 8.296875 
L 53.609375 0 
L 7.328125 0 
L 7.328125 8.296875 
Q 12.9375 14.109375 22.625 23.890625 
Q 32.328125 33.6875 34.8125 36.53125 
Q 39.546875 41.84375 41.421875 45.53125 
Q 43.3125 49.21875 43.3125 52.78125 
Q 43.3125 58.59375 39.234375 62.25 
Q 35.15625 65.921875 28.609375 65.921875 
Q 23.96875 65.921875 18.8125 64.3125 
Q 13.671875 62.703125 7.8125 59.421875 
L 7.8125 69.390625 
Q 13.765625 71.78125 18.9375 73 
Q 24.125 74.21875 28.421875 74.21875 
Q 39.75 74.21875 46.484375 68.546875 
Q 53.21875 62.890625 53.21875 53.421875 
Q 53.21875 48.921875 51.53125 44.890625 
Q 49.859375 40.875 45.40625 35.40625 
Q 44.1875 33.984375 37.640625 27.21875 
Q 31.109375 20.453125 19.1875 8.296875 
z
" id="DejaVuSans-32"/>
      </defs>
      <g style="fill:#262626;" transform="translate(139.454026 400.937187)scale(0.1 -0.1)">
       <use xlink:href="#DejaVuSans-32"/>
       <use x="63.623047" xlink:href="#DejaVuSans-30"/>
       <use x="127.246094" xlink:href="#DejaVuSans-30"/>
      </g>
     </g>
    </g>
    <g id="xtick_3">
     <g id="line2d_5">
      <path clip-path="url(#pbd918ef482)" d="M 198.919997 389.83875 
L 198.919997 86.366638 
" style="fill:none;stroke:#ffffff;stroke-linecap:round;stroke-width:0.8;"/>
     </g>
     <g id="line2d_6"/>
     <g id="text_3">
      <!-- 400 -->
      <defs>
       <path d="M 37.796875 64.3125 
L 12.890625 25.390625 
L 37.796875 25.390625 
z
M 35.203125 72.90625 
L 47.609375 72.90625 
L 47.609375 25.390625 
L 58.015625 25.390625 
L 58.015625 17.1875 
L 47.609375 17.1875 
L 47.609375 0 
L 37.796875 0 
L 37.796875 17.1875 
L 4.890625 17.1875 
L 4.890625 26.703125 
z
" id="DejaVuSans-34"/>
      </defs>
      <g style="fill:#262626;" transform="translate(189.376247 400.937187)scale(0.1 -0.1)">
       <use xlink:href="#DejaVuSans-34"/>
       <use x="63.623047" xlink:href="#DejaVuSans-30"/>
       <use x="127.246094" xlink:href="#DejaVuSans-30"/>
      </g>
     </g>
    </g>
    <g id="xtick_4">
     <g id="line2d_7">
      <path clip-path="url(#pbd918ef482)" d="M 248.842219 389.83875 
L 248.842219 86.366638 
" style="fill:none;stroke:#ffffff;stroke-linecap:round;stroke-width:0.8;"/>
     </g>
     <g id="line2d_8"/>
     <g id="text_4">
      <!-- 600 -->
      <defs>
       <path d="M 33.015625 40.375 
Q 26.375 40.375 22.484375 35.828125 
Q 18.609375 31.296875 18.609375 23.390625 
Q 18.609375 15.53125 22.484375 10.953125 
Q 26.375 6.390625 33.015625 6.390625 
Q 39.65625 6.390625 43.53125 10.953125 
Q 47.40625 15.53125 47.40625 23.390625 
Q 47.40625 31.296875 43.53125 35.828125 
Q 39.65625 40.375 33.015625 40.375 
z
M 52.59375 71.296875 
L 52.59375 62.3125 
Q 48.875 64.0625 45.09375 64.984375 
Q 41.3125 65.921875 37.59375 65.921875 
Q 27.828125 65.921875 22.671875 59.328125 
Q 17.53125 52.734375 16.796875 39.40625 
Q 19.671875 43.65625 24.015625 45.921875 
Q 28.375 48.1875 33.59375 48.1875 
Q 44.578125 48.1875 50.953125 41.515625 
Q 57.328125 34.859375 57.328125 23.390625 
Q 57.328125 12.15625 50.6875 5.359375 
Q 44.046875 -1.421875 33.015625 -1.421875 
Q 20.359375 -1.421875 13.671875 8.265625 
Q 6.984375 17.96875 6.984375 36.375 
Q 6.984375 53.65625 15.1875 63.9375 
Q 23.390625 74.21875 37.203125 74.21875 
Q 40.921875 74.21875 44.703125 73.484375 
Q 48.484375 72.75 52.59375 71.296875 
z
" id="DejaVuSans-36"/>
      </defs>
      <g style="fill:#262626;" transform="translate(239.298469 400.937187)scale(0.1 -0.1)">
       <use xlink:href="#DejaVuSans-36"/>
       <use x="63.623047" xlink:href="#DejaVuSans-30"/>
       <use x="127.246094" xlink:href="#DejaVuSans-30"/>
      </g>
     </g>
    </g>
    <g id="xtick_5">
     <g id="line2d_9">
      <path clip-path="url(#pbd918ef482)" d="M 298.764441 389.83875 
L 298.764441 86.366638 
" style="fill:none;stroke:#ffffff;stroke-linecap:round;stroke-width:0.8;"/>
     </g>
     <g id="line2d_10"/>
     <g id="text_5">
      <!-- 800 -->
      <defs>
       <path d="M 31.78125 34.625 
Q 24.75 34.625 20.71875 30.859375 
Q 16.703125 27.09375 16.703125 20.515625 
Q 16.703125 13.921875 20.71875 10.15625 
Q 24.75 6.390625 31.78125 6.390625 
Q 38.8125 6.390625 42.859375 10.171875 
Q 46.921875 13.96875 46.921875 20.515625 
Q 46.921875 27.09375 42.890625 30.859375 
Q 38.875 34.625 31.78125 34.625 
z
M 21.921875 38.8125 
Q 15.578125 40.375 12.03125 44.71875 
Q 8.5 49.078125 8.5 55.328125 
Q 8.5 64.0625 14.71875 69.140625 
Q 20.953125 74.21875 31.78125 74.21875 
Q 42.671875 74.21875 48.875 69.140625 
Q 55.078125 64.0625 55.078125 55.328125 
Q 55.078125 49.078125 51.53125 44.71875 
Q 48 40.375 41.703125 38.8125 
Q 48.828125 37.15625 52.796875 32.3125 
Q 56.78125 27.484375 56.78125 20.515625 
Q 56.78125 9.90625 50.3125 4.234375 
Q 43.84375 -1.421875 31.78125 -1.421875 
Q 19.734375 -1.421875 13.25 4.234375 
Q 6.78125 9.90625 6.78125 20.515625 
Q 6.78125 27.484375 10.78125 32.3125 
Q 14.796875 37.15625 21.921875 38.8125 
z
M 18.3125 54.390625 
Q 18.3125 48.734375 21.84375 45.5625 
Q 25.390625 42.390625 31.78125 42.390625 
Q 38.140625 42.390625 41.71875 45.5625 
Q 45.3125 48.734375 45.3125 54.390625 
Q 45.3125 60.0625 41.71875 63.234375 
Q 38.140625 66.40625 31.78125 66.40625 
Q 25.390625 66.40625 21.84375 63.234375 
Q 18.3125 60.0625 18.3125 54.390625 
z
" id="DejaVuSans-38"/>
      </defs>
      <g style="fill:#262626;" transform="translate(289.220691 400.937187)scale(0.1 -0.1)">
       <use xlink:href="#DejaVuSans-38"/>
       <use x="63.623047" xlink:href="#DejaVuSans-30"/>
       <use x="127.246094" xlink:href="#DejaVuSans-30"/>
      </g>
     </g>
    </g>
    <g id="xtick_6">
     <g id="line2d_11">
      <path clip-path="url(#pbd918ef482)" d="M 348.686662 389.83875 
L 348.686662 86.366638 
" style="fill:none;stroke:#ffffff;stroke-linecap:round;stroke-width:0.8;"/>
     </g>
     <g id="line2d_12"/>
     <g id="text_6">
      <!-- 1000 -->
      <defs>
       <path d="M 12.40625 8.296875 
L 28.515625 8.296875 
L 28.515625 63.921875 
L 10.984375 60.40625 
L 10.984375 69.390625 
L 28.421875 72.90625 
L 38.28125 72.90625 
L 38.28125 8.296875 
L 54.390625 8.296875 
L 54.390625 0 
L 12.40625 0 
z
" id="DejaVuSans-31"/>
      </defs>
      <g style="fill:#262626;" transform="translate(335.961662 400.937187)scale(0.1 -0.1)">
       <use xlink:href="#DejaVuSans-31"/>
       <use x="63.623047" xlink:href="#DejaVuSans-30"/>
       <use x="127.246094" xlink:href="#DejaVuSans-30"/>
       <use x="190.869141" xlink:href="#DejaVuSans-30"/>
      </g>
     </g>
    </g>
    <g id="text_7">
     <!-- Sum_Credit -->
     <defs>
      <path d="M 53.515625 70.515625 
L 53.515625 60.890625 
Q 47.90625 63.578125 42.921875 64.890625 
Q 37.9375 66.21875 33.296875 66.21875 
Q 25.25 66.21875 20.875 63.09375 
Q 16.5 59.96875 16.5 54.203125 
Q 16.5 49.359375 19.40625 46.890625 
Q 22.3125 44.4375 30.421875 42.921875 
L 36.375 41.703125 
Q 47.40625 39.59375 52.65625 34.296875 
Q 57.90625 29 57.90625 20.125 
Q 57.90625 9.515625 50.796875 4.046875 
Q 43.703125 -1.421875 29.984375 -1.421875 
Q 24.8125 -1.421875 18.96875 -0.25 
Q 13.140625 0.921875 6.890625 3.21875 
L 6.890625 13.375 
Q 12.890625 10.015625 18.65625 8.296875 
Q 24.421875 6.59375 29.984375 6.59375 
Q 38.421875 6.59375 43.015625 9.90625 
Q 47.609375 13.234375 47.609375 19.390625 
Q 47.609375 24.75 44.3125 27.78125 
Q 41.015625 30.8125 33.5 32.328125 
L 27.484375 33.5 
Q 16.453125 35.6875 11.515625 40.375 
Q 6.59375 45.0625 6.59375 53.421875 
Q 6.59375 63.09375 13.40625 68.65625 
Q 20.21875 74.21875 32.171875 74.21875 
Q 37.3125 74.21875 42.625 73.28125 
Q 47.953125 72.359375 53.515625 70.515625 
z
" id="DejaVuSans-53"/>
      <path d="M 8.5 21.578125 
L 8.5 54.6875 
L 17.484375 54.6875 
L 17.484375 21.921875 
Q 17.484375 14.15625 20.5 10.265625 
Q 23.53125 6.390625 29.59375 6.390625 
Q 36.859375 6.390625 41.078125 11.03125 
Q 45.3125 15.671875 45.3125 23.6875 
L 45.3125 54.6875 
L 54.296875 54.6875 
L 54.296875 0 
L 45.3125 0 
L 45.3125 8.40625 
Q 42.046875 3.421875 37.71875 1 
Q 33.40625 -1.421875 27.6875 -1.421875 
Q 18.265625 -1.421875 13.375 4.4375 
Q 8.5 10.296875 8.5 21.578125 
z
M 31.109375 56 
z
" id="DejaVuSans-75"/>
      <path d="M 52 44.1875 
Q 55.375 50.25 60.0625 53.125 
Q 64.75 56 71.09375 56 
Q 79.640625 56 84.28125 50.015625 
Q 88.921875 44.046875 88.921875 33.015625 
L 88.921875 0 
L 79.890625 0 
L 79.890625 32.71875 
Q 79.890625 40.578125 77.09375 44.375 
Q 74.3125 48.1875 68.609375 48.1875 
Q 61.625 48.1875 57.5625 43.546875 
Q 53.515625 38.921875 53.515625 30.90625 
L 53.515625 0 
L 44.484375 0 
L 44.484375 32.71875 
Q 44.484375 40.625 41.703125 44.40625 
Q 38.921875 48.1875 33.109375 48.1875 
Q 26.21875 48.1875 22.15625 43.53125 
Q 18.109375 38.875 18.109375 30.90625 
L 18.109375 0 
L 9.078125 0 
L 9.078125 54.6875 
L 18.109375 54.6875 
L 18.109375 46.1875 
Q 21.1875 51.21875 25.484375 53.609375 
Q 29.78125 56 35.6875 56 
Q 41.65625 56 45.828125 52.96875 
Q 50 49.953125 52 44.1875 
z
" id="DejaVuSans-6d"/>
      <path d="M 50.984375 -16.609375 
L 50.984375 -23.578125 
L -0.984375 -23.578125 
L -0.984375 -16.609375 
z
" id="DejaVuSans-5f"/>
      <path d="M 64.40625 67.28125 
L 64.40625 56.890625 
Q 59.421875 61.53125 53.78125 63.8125 
Q 48.140625 66.109375 41.796875 66.109375 
Q 29.296875 66.109375 22.65625 58.46875 
Q 16.015625 50.828125 16.015625 36.375 
Q 16.015625 21.96875 22.65625 14.328125 
Q 29.296875 6.6875 41.796875 6.6875 
Q 48.140625 6.6875 53.78125 8.984375 
Q 59.421875 11.28125 64.40625 15.921875 
L 64.40625 5.609375 
Q 59.234375 2.09375 53.4375 0.328125 
Q 47.65625 -1.421875 41.21875 -1.421875 
Q 24.65625 -1.421875 15.125 8.703125 
Q 5.609375 18.84375 5.609375 36.375 
Q 5.609375 53.953125 15.125 64.078125 
Q 24.65625 74.21875 41.21875 74.21875 
Q 47.75 74.21875 53.53125 72.484375 
Q 59.328125 70.75 64.40625 67.28125 
z
" id="DejaVuSans-43"/>
      <path d="M 41.109375 46.296875 
Q 39.59375 47.171875 37.8125 47.578125 
Q 36.03125 48 33.890625 48 
Q 26.265625 48 22.1875 43.046875 
Q 18.109375 38.09375 18.109375 28.8125 
L 18.109375 0 
L 9.078125 0 
L 9.078125 54.6875 
L 18.109375 54.6875 
L 18.109375 46.1875 
Q 20.953125 51.171875 25.484375 53.578125 
Q 30.03125 56 36.53125 56 
Q 37.453125 56 38.578125 55.875 
Q 39.703125 55.765625 41.0625 55.515625 
z
" id="DejaVuSans-72"/>
      <path d="M 56.203125 29.59375 
L 56.203125 25.203125 
L 14.890625 25.203125 
Q 15.484375 15.921875 20.484375 11.0625 
Q 25.484375 6.203125 34.421875 6.203125 
Q 39.59375 6.203125 44.453125 7.46875 
Q 49.3125 8.734375 54.109375 11.28125 
L 54.109375 2.78125 
Q 49.265625 0.734375 44.1875 -0.34375 
Q 39.109375 -1.421875 33.890625 -1.421875 
Q 20.796875 -1.421875 13.15625 6.1875 
Q 5.515625 13.8125 5.515625 26.8125 
Q 5.515625 40.234375 12.765625 48.109375 
Q 20.015625 56 32.328125 56 
Q 43.359375 56 49.78125 48.890625 
Q 56.203125 41.796875 56.203125 29.59375 
z
M 47.21875 32.234375 
Q 47.125 39.59375 43.09375 43.984375 
Q 39.0625 48.390625 32.421875 48.390625 
Q 24.90625 48.390625 20.390625 44.140625 
Q 15.875 39.890625 15.1875 32.171875 
z
" id="DejaVuSans-65"/>
      <path d="M 45.40625 46.390625 
L 45.40625 75.984375 
L 54.390625 75.984375 
L 54.390625 0 
L 45.40625 0 
L 45.40625 8.203125 
Q 42.578125 3.328125 38.25 0.953125 
Q 33.9375 -1.421875 27.875 -1.421875 
Q 17.96875 -1.421875 11.734375 6.484375 
Q 5.515625 14.40625 5.515625 27.296875 
Q 5.515625 40.1875 11.734375 48.09375 
Q 17.96875 56 27.875 56 
Q 33.9375 56 38.25 53.625 
Q 42.578125 51.265625 45.40625 46.390625 
z
M 14.796875 27.296875 
Q 14.796875 17.390625 18.875 11.75 
Q 22.953125 6.109375 30.078125 6.109375 
Q 37.203125 6.109375 41.296875 11.75 
Q 45.40625 17.390625 45.40625 27.296875 
Q 45.40625 37.203125 41.296875 42.84375 
Q 37.203125 48.484375 30.078125 48.484375 
Q 22.953125 48.484375 18.875 42.84375 
Q 14.796875 37.203125 14.796875 27.296875 
z
" id="DejaVuSans-64"/>
      <path d="M 9.421875 54.6875 
L 18.40625 54.6875 
L 18.40625 0 
L 9.421875 0 
z
M 9.421875 75.984375 
L 18.40625 75.984375 
L 18.40625 64.59375 
L 9.421875 64.59375 
z
" id="DejaVuSans-69"/>
      <path d="M 18.3125 70.21875 
L 18.3125 54.6875 
L 36.8125 54.6875 
L 36.8125 47.703125 
L 18.3125 47.703125 
L 18.3125 18.015625 
Q 18.3125 11.328125 20.140625 9.421875 
Q 21.96875 7.515625 27.59375 7.515625 
L 36.8125 7.515625 
L 36.8125 0 
L 27.59375 0 
Q 17.1875 0 13.234375 3.875 
Q 9.28125 7.765625 9.28125 18.015625 
L 9.28125 47.703125 
L 2.6875 47.703125 
L 2.6875 54.6875 
L 9.28125 54.6875 
L 9.28125 70.21875 
z
" id="DejaVuSans-74"/>
     </defs>
     <g style="fill:#262626;" transform="translate(172.681072 414.615312)scale(0.1 -0.1)">
      <use xlink:href="#DejaVuSans-53"/>
      <use x="63.476562" xlink:href="#DejaVuSans-75"/>
      <use x="126.855469" xlink:href="#DejaVuSans-6d"/>
      <use x="224.267578" xlink:href="#DejaVuSans-5f"/>
      <use x="274.267578" xlink:href="#DejaVuSans-43"/>
      <use x="344.091797" xlink:href="#DejaVuSans-72"/>
      <use x="385.173828" xlink:href="#DejaVuSans-65"/>
      <use x="446.697266" xlink:href="#DejaVuSans-64"/>
      <use x="510.173828" xlink:href="#DejaVuSans-69"/>
      <use x="537.957031" xlink:href="#DejaVuSans-74"/>
     </g>
    </g>
   </g>
   <g id="matplotlib.axis_2">
    <g id="ytick_1">
     <g id="line2d_13">
      <path clip-path="url(#pbd918ef482)" d="M 52.123438 380.657452 
L 350.955894 380.657452 
" style="fill:none;stroke:#ffffff;stroke-linecap:round;stroke-width:0.8;"/>
     </g>
     <g id="line2d_14"/>
     <g id="text_8">
      <!-- −100 -->
      <defs>
       <path d="M 10.59375 35.5 
L 73.1875 35.5 
L 73.1875 27.203125 
L 10.59375 27.203125 
z
" id="DejaVuSans-2212"/>
      </defs>
      <g style="fill:#262626;" transform="translate(21.15625 384.456671)scale(0.1 -0.1)">
       <use xlink:href="#DejaVuSans-2212"/>
       <use x="83.789062" xlink:href="#DejaVuSans-31"/>
       <use x="147.412109" xlink:href="#DejaVuSans-30"/>
       <use x="211.035156" xlink:href="#DejaVuSans-30"/>
      </g>
     </g>
    </g>
    <g id="ytick_2">
     <g id="line2d_15">
      <path clip-path="url(#pbd918ef482)" d="M 52.123438 339.933339 
L 350.955894 339.933339 
" style="fill:none;stroke:#ffffff;stroke-linecap:round;stroke-width:0.8;"/>
     </g>
     <g id="line2d_16"/>
     <g id="text_9">
      <!-- 0 -->
      <g style="fill:#262626;" transform="translate(42.260937 343.732558)scale(0.1 -0.1)">
       <use xlink:href="#DejaVuSans-30"/>
      </g>
     </g>
    </g>
    <g id="ytick_3">
     <g id="line2d_17">
      <path clip-path="url(#pbd918ef482)" d="M 52.123438 299.209226 
L 350.955894 299.209226 
" style="fill:none;stroke:#ffffff;stroke-linecap:round;stroke-width:0.8;"/>
     </g>
     <g id="line2d_18"/>
     <g id="text_10">
      <!-- 100 -->
      <g style="fill:#262626;" transform="translate(29.535937 303.008445)scale(0.1 -0.1)">
       <use xlink:href="#DejaVuSans-31"/>
       <use x="63.623047" xlink:href="#DejaVuSans-30"/>
       <use x="127.246094" xlink:href="#DejaVuSans-30"/>
      </g>
     </g>
    </g>
    <g id="ytick_4">
     <g id="line2d_19">
      <path clip-path="url(#pbd918ef482)" d="M 52.123438 258.485113 
L 350.955894 258.485113 
" style="fill:none;stroke:#ffffff;stroke-linecap:round;stroke-width:0.8;"/>
     </g>
     <g id="line2d_20"/>
     <g id="text_11">
      <!-- 200 -->
      <g style="fill:#262626;" transform="translate(29.535937 262.284331)scale(0.1 -0.1)">
       <use xlink:href="#DejaVuSans-32"/>
       <use x="63.623047" xlink:href="#DejaVuSans-30"/>
       <use x="127.246094" xlink:href="#DejaVuSans-30"/>
      </g>
     </g>
    </g>
    <g id="ytick_5">
     <g id="line2d_21">
      <path clip-path="url(#pbd918ef482)" d="M 52.123438 217.760999 
L 350.955894 217.760999 
" style="fill:none;stroke:#ffffff;stroke-linecap:round;stroke-width:0.8;"/>
     </g>
     <g id="line2d_22"/>
     <g id="text_12">
      <!-- 300 -->
      <defs>
       <path d="M 40.578125 39.3125 
Q 47.65625 37.796875 51.625 33 
Q 55.609375 28.21875 55.609375 21.1875 
Q 55.609375 10.40625 48.1875 4.484375 
Q 40.765625 -1.421875 27.09375 -1.421875 
Q 22.515625 -1.421875 17.65625 -0.515625 
Q 12.796875 0.390625 7.625 2.203125 
L 7.625 11.71875 
Q 11.71875 9.328125 16.59375 8.109375 
Q 21.484375 6.890625 26.8125 6.890625 
Q 36.078125 6.890625 40.9375 10.546875 
Q 45.796875 14.203125 45.796875 21.1875 
Q 45.796875 27.640625 41.28125 31.265625 
Q 36.765625 34.90625 28.71875 34.90625 
L 20.21875 34.90625 
L 20.21875 43.015625 
L 29.109375 43.015625 
Q 36.375 43.015625 40.234375 45.921875 
Q 44.09375 48.828125 44.09375 54.296875 
Q 44.09375 59.90625 40.109375 62.90625 
Q 36.140625 65.921875 28.71875 65.921875 
Q 24.65625 65.921875 20.015625 65.03125 
Q 15.375 64.15625 9.8125 62.3125 
L 9.8125 71.09375 
Q 15.4375 72.65625 20.34375 73.4375 
Q 25.25 74.21875 29.59375 74.21875 
Q 40.828125 74.21875 47.359375 69.109375 
Q 53.90625 64.015625 53.90625 55.328125 
Q 53.90625 49.265625 50.4375 45.09375 
Q 46.96875 40.921875 40.578125 39.3125 
z
" id="DejaVuSans-33"/>
      </defs>
      <g style="fill:#262626;" transform="translate(29.535937 221.560218)scale(0.1 -0.1)">
       <use xlink:href="#DejaVuSans-33"/>
       <use x="63.623047" xlink:href="#DejaVuSans-30"/>
       <use x="127.246094" xlink:href="#DejaVuSans-30"/>
      </g>
     </g>
    </g>
    <g id="ytick_6">
     <g id="line2d_23">
      <path clip-path="url(#pbd918ef482)" d="M 52.123438 177.036886 
L 350.955894 177.036886 
" style="fill:none;stroke:#ffffff;stroke-linecap:round;stroke-width:0.8;"/>
     </g>
     <g id="line2d_24"/>
     <g id="text_13">
      <!-- 400 -->
      <g style="fill:#262626;" transform="translate(29.535937 180.836105)scale(0.1 -0.1)">
       <use xlink:href="#DejaVuSans-34"/>
       <use x="63.623047" xlink:href="#DejaVuSans-30"/>
       <use x="127.246094" xlink:href="#DejaVuSans-30"/>
      </g>
     </g>
    </g>
    <g id="ytick_7">
     <g id="line2d_25">
      <path clip-path="url(#pbd918ef482)" d="M 52.123438 136.312773 
L 350.955894 136.312773 
" style="fill:none;stroke:#ffffff;stroke-linecap:round;stroke-width:0.8;"/>
     </g>
     <g id="line2d_26"/>
     <g id="text_14">
      <!-- 500 -->
      <defs>
       <path d="M 10.796875 72.90625 
L 49.515625 72.90625 
L 49.515625 64.59375 
L 19.828125 64.59375 
L 19.828125 46.734375 
Q 21.96875 47.46875 24.109375 47.828125 
Q 26.265625 48.1875 28.421875 48.1875 
Q 40.625 48.1875 47.75 41.5 
Q 54.890625 34.8125 54.890625 23.390625 
Q 54.890625 11.625 47.5625 5.09375 
Q 40.234375 -1.421875 26.90625 -1.421875 
Q 22.3125 -1.421875 17.546875 -0.640625 
Q 12.796875 0.140625 7.71875 1.703125 
L 7.71875 11.625 
Q 12.109375 9.234375 16.796875 8.0625 
Q 21.484375 6.890625 26.703125 6.890625 
Q 35.15625 6.890625 40.078125 11.328125 
Q 45.015625 15.765625 45.015625 23.390625 
Q 45.015625 31 40.078125 35.4375 
Q 35.15625 39.890625 26.703125 39.890625 
Q 22.75 39.890625 18.8125 39.015625 
Q 14.890625 38.140625 10.796875 36.28125 
z
" id="DejaVuSans-35"/>
      </defs>
      <g style="fill:#262626;" transform="translate(29.535937 140.111992)scale(0.1 -0.1)">
       <use xlink:href="#DejaVuSans-35"/>
       <use x="63.623047" xlink:href="#DejaVuSans-30"/>
       <use x="127.246094" xlink:href="#DejaVuSans-30"/>
      </g>
     </g>
    </g>
    <g id="ytick_8">
     <g id="line2d_27">
      <path clip-path="url(#pbd918ef482)" d="M 52.123438 95.58866 
L 350.955894 95.58866 
" style="fill:none;stroke:#ffffff;stroke-linecap:round;stroke-width:0.8;"/>
     </g>
     <g id="line2d_28"/>
     <g id="text_15">
      <!-- 600 -->
      <g style="fill:#262626;" transform="translate(29.535937 99.387878)scale(0.1 -0.1)">
       <use xlink:href="#DejaVuSans-36"/>
       <use x="63.623047" xlink:href="#DejaVuSans-30"/>
       <use x="127.246094" xlink:href="#DejaVuSans-30"/>
      </g>
     </g>
    </g>
    <g id="text_16">
     <!-- Sum_Debit -->
     <defs>
      <path d="M 19.671875 64.796875 
L 19.671875 8.109375 
L 31.59375 8.109375 
Q 46.6875 8.109375 53.6875 14.9375 
Q 60.6875 21.78125 60.6875 36.53125 
Q 60.6875 51.171875 53.6875 57.984375 
Q 46.6875 64.796875 31.59375 64.796875 
z
M 9.8125 72.90625 
L 30.078125 72.90625 
Q 51.265625 72.90625 61.171875 64.09375 
Q 71.09375 55.28125 71.09375 36.53125 
Q 71.09375 17.671875 61.125 8.828125 
Q 51.171875 0 30.078125 0 
L 9.8125 0 
z
" id="DejaVuSans-44"/>
      <path d="M 48.6875 27.296875 
Q 48.6875 37.203125 44.609375 42.84375 
Q 40.53125 48.484375 33.40625 48.484375 
Q 26.265625 48.484375 22.1875 42.84375 
Q 18.109375 37.203125 18.109375 27.296875 
Q 18.109375 17.390625 22.1875 11.75 
Q 26.265625 6.109375 33.40625 6.109375 
Q 40.53125 6.109375 44.609375 11.75 
Q 48.6875 17.390625 48.6875 27.296875 
z
M 18.109375 46.390625 
Q 20.953125 51.265625 25.265625 53.625 
Q 29.59375 56 35.59375 56 
Q 45.5625 56 51.78125 48.09375 
Q 58.015625 40.1875 58.015625 27.296875 
Q 58.015625 14.40625 51.78125 6.484375 
Q 45.5625 -1.421875 35.59375 -1.421875 
Q 29.59375 -1.421875 25.265625 0.953125 
Q 20.953125 3.328125 18.109375 8.203125 
L 18.109375 0 
L 9.078125 0 
L 9.078125 75.984375 
L 18.109375 75.984375 
z
" id="DejaVuSans-62"/>
     </defs>
     <g style="fill:#262626;" transform="translate(14.798437 265.265975)rotate(-90)scale(0.1 -0.1)">
      <use xlink:href="#DejaVuSans-53"/>
      <use x="63.476562" xlink:href="#DejaVuSans-75"/>
      <use x="126.855469" xlink:href="#DejaVuSans-6d"/>
      <use x="224.267578" xlink:href="#DejaVuSans-5f"/>
      <use x="274.267578" xlink:href="#DejaVuSans-44"/>
      <use x="351.269531" xlink:href="#DejaVuSans-65"/>
      <use x="412.792969" xlink:href="#DejaVuSans-62"/>
      <use x="476.269531" xlink:href="#DejaVuSans-69"/>
      <use x="504.052734" xlink:href="#DejaVuSans-74"/>
     </g>
    </g>
   </g>
   <g id="PathCollection_1">
    <path clip-path="url(#pbd918ef482)" d="M 55.141947 389.83875 
L 58.160457 389.83875 
L 61.178966 389.83875 
L 64.197476 389.83875 
L 67.215986 389.83875 
L 70.234495 389.83875 
L 73.253005 389.83875 
L 76.271515 389.83875 
L 79.290024 389.83875 
L 82.308534 389.83875 
L 85.327044 389.83875 
L 88.345553 389.83875 
L 91.364063 389.83875 
L 94.382573 389.83875 
L 97.401082 389.83875 
L 100.419592 389.83875 
L 103.438102 389.83875 
L 106.456611 389.83875 
L 109.475121 389.83875 
L 112.493631 389.83875 
L 115.51214 389.83875 
L 118.53065 389.83875 
L 121.54916 389.83875 
L 124.567669 389.83875 
L 127.586179 389.83875 
L 130.604689 389.83875 
L 133.623198 389.83875 
L 136.641708 389.83875 
L 139.660218 389.83875 
L 142.678727 389.83875 
L 145.697237 389.83875 
L 148.715747 389.83875 
L 151.734256 389.83875 
L 154.752766 389.83875 
L 157.771276 389.83875 
L 160.789785 389.83875 
L 163.808295 389.83875 
L 166.826805 389.83875 
L 169.845314 389.83875 
L 172.863824 389.83875 
L 175.882334 389.83875 
L 178.900843 389.83875 
L 181.919353 389.83875 
L 184.937863 389.83875 
L 187.956372 389.83875 
L 190.974882 389.83875 
L 193.993392 389.83875 
L 197.011901 389.83875 
L 200.030411 389.83875 
L 203.048921 389.83875 
L 206.06743 389.83875 
L 209.08594 389.83875 
L 212.10445 389.83875 
L 215.122959 389.83875 
L 218.141469 389.83875 
L 221.159979 389.83875 
L 224.178488 389.83875 
L 227.196998 389.83875 
L 230.215508 389.83875 
L 233.234017 389.83875 
L 236.252527 389.83875 
L 239.271037 389.83875 
L 242.289546 389.83875 
L 245.308056 389.83875 
L 248.326566 389.83875 
L 251.345075 389.83875 
L 254.363585 389.83875 
L 257.382095 389.83875 
L 260.400604 389.83875 
L 263.419114 389.83875 
L 266.437624 389.83875 
L 269.456133 389.83875 
L 272.474643 389.83875 
L 275.493153 389.83875 
L 278.511662 389.83875 
L 281.530172 389.83875 
L 284.548682 389.83875 
L 287.567191 389.83875 
L 290.585701 389.83875 
L 293.604211 389.83875 
L 296.62272 389.83875 
L 299.64123 389.83875 
L 302.65974 389.83875 
L 305.678249 389.83875 
L 308.696759 389.83875 
L 311.715269 389.83875 
L 314.733778 389.83875 
L 317.752288 389.83875 
L 320.770798 389.83875 
L 323.789307 389.83875 
L 326.807817 389.83875 
L 329.826327 389.83875 
L 332.844836 389.83875 
L 335.863346 389.83875 
L 338.881856 389.83875 
L 341.900365 389.83875 
L 344.918875 389.83875 
L 347.937385 389.83875 
L 350.955894 389.83875 
L 350.955894 386.773375 
L 350.955894 383.708 
L 350.955894 380.642625 
L 350.955894 377.577251 
L 350.955894 374.511876 
L 350.955894 371.446501 
L 350.955894 368.381126 
L 350.955894 365.315751 
L 350.955894 362.250376 
L 350.955894 359.185001 
L 350.955894 356.119626 
L 350.955894 353.054252 
L 350.955894 349.988877 
L 350.955894 346.923502 
L 350.955894 343.858127 
L 350.955894 340.792752 
L 350.955894 337.727377 
L 350.955894 334.662002 
L 350.955894 331.596627 
L 350.955894 328.531253 
L 350.955894 325.465878 
L 350.955894 322.400503 
L 350.955894 319.335128 
L 350.955894 316.269753 
L 350.955894 313.204378 
L 350.955894 310.139003 
L 350.955894 307.073629 
L 350.955894 304.008254 
L 350.955894 300.942879 
L 350.955894 297.877504 
L 350.955894 294.812129 
L 350.955894 291.746754 
L 350.955894 288.681379 
L 350.955894 285.616004 
L 350.955894 282.55063 
L 350.955894 279.485255 
L 350.955894 276.41988 
L 350.955894 273.354505 
L 350.955894 270.28913 
L 350.955894 267.223755 
L 350.955894 264.15838 
L 350.955894 261.093005 
L 350.955894 258.027631 
L 350.955894 254.962256 
L 350.955894 251.896881 
L 350.955894 248.831506 
L 350.955894 245.766131 
L 350.955894 242.700756 
L 350.955894 239.635381 
L 350.955894 236.570007 
L 350.955894 233.504632 
L 350.955894 230.439257 
L 350.955894 227.373882 
L 350.955894 224.308507 
L 350.955894 221.243132 
L 350.955894 218.177757 
L 350.955894 215.112382 
L 350.955894 212.047008 
L 350.955894 208.981633 
L 350.955894 205.916258 
L 350.955894 202.850883 
L 350.955894 199.785508 
L 350.955894 196.720133 
L 350.955894 193.654758 
L 350.955894 190.589383 
L 350.955894 187.524009 
L 350.955894 184.458634 
L 350.955894 181.393259 
L 350.955894 178.327884 
L 350.955894 175.262509 
L 350.955894 172.197134 
L 350.955894 169.131759 
L 350.955894 166.066385 
L 350.955894 163.00101 
L 350.955894 159.935635 
L 350.955894 156.87026 
L 350.955894 153.804885 
L 350.955894 150.73951 
L 350.955894 147.674135 
L 350.955894 144.60876 
L 350.955894 141.543386 
L 350.955894 138.478011 
L 350.955894 135.412636 
L 350.955894 132.347261 
L 350.955894 129.281886 
L 350.955894 126.216511 
L 350.955894 123.151136 
L 350.955894 120.085761 
L 350.955894 117.020387 
L 350.955894 113.955012 
L 350.955894 110.889637 
L 350.955894 107.824262 
L 350.955894 104.758887 
L 350.955894 101.693512 
L 350.955894 98.628137 
L 350.955894 95.562763 
L 350.955894 92.497388 
L 350.955894 89.432013 
L 350.955894 86.366638 
L 347.937385 86.366638 
L 344.918875 86.366638 
L 341.900365 86.366638 
L 338.881856 86.366638 
L 335.863346 86.366638 
L 332.844836 86.366638 
L 329.826327 86.366638 
L 326.807817 86.366638 
L 323.789307 86.366638 
L 320.770798 86.366638 
L 317.752288 86.366638 
L 314.733778 86.366638 
L 311.715269 86.366638 
L 308.696759 86.366638 
L 305.678249 86.366638 
L 302.65974 86.366638 
L 299.64123 86.366638 
L 296.62272 86.366638 
L 293.604211 86.366638 
L 290.585701 86.366638 
L 287.567191 86.366638 
L 284.548682 86.366638 
L 281.530172 86.366638 
L 278.511662 86.366638 
L 275.493153 86.366638 
L 272.474643 86.366638 
L 269.456133 86.366638 
L 266.437624 86.366638 
L 263.419114 86.366638 
L 260.400604 86.366638 
L 257.382095 86.366638 
L 254.363585 86.366638 
L 251.345075 86.366638 
L 248.326566 86.366638 
L 245.308056 86.366638 
L 242.289546 86.366638 
L 239.271037 86.366638 
L 236.252527 86.366638 
L 233.234017 86.366638 
L 230.215508 86.366638 
L 227.196998 86.366638 
L 224.178488 86.366638 
L 221.159979 86.366638 
L 218.141469 86.366638 
L 215.122959 86.366638 
L 212.10445 86.366638 
L 209.08594 86.366638 
L 206.06743 86.366638 
L 203.048921 86.366638 
L 200.030411 86.366638 
L 197.011901 86.366638 
L 193.993392 86.366638 
L 190.974882 86.366638 
L 187.956372 86.366638 
L 184.937863 86.366638 
L 181.919353 86.366638 
L 178.900843 86.366638 
L 175.882334 86.366638 
L 172.863824 86.366638 
L 169.845314 86.366638 
L 166.826805 86.366638 
L 163.808295 86.366638 
L 160.789785 86.366638 
L 157.771276 86.366638 
L 154.752766 86.366638 
L 151.734256 86.366638 
L 148.715747 86.366638 
L 145.697237 86.366638 
L 142.678727 86.366638 
L 139.660218 86.366638 
L 136.641708 86.366638 
L 133.623198 86.366638 
L 130.604689 86.366638 
L 127.586179 86.366638 
L 124.567669 86.366638 
L 121.54916 86.366638 
L 118.53065 86.366638 
L 115.51214 86.366638 
L 112.493631 86.366638 
L 109.475121 86.366638 
L 106.456611 86.366638 
L 103.438102 86.366638 
L 100.419592 86.366638 
L 97.401082 86.366638 
L 94.382573 86.366638 
L 91.364063 86.366638 
L 88.345553 86.366638 
L 85.327044 86.366638 
L 82.308534 86.366638 
L 79.290024 86.366638 
L 76.271515 86.366638 
L 73.253005 86.366638 
L 70.234495 86.366638 
L 67.215986 86.366638 
L 64.197476 86.366638 
L 61.178966 86.366638 
L 58.160457 86.366638 
L 55.141947 86.366638 
L 52.123438 86.366638 
L 52.123438 89.432013 
L 52.123438 92.497388 
L 52.123438 95.562763 
L 52.123438 98.628137 
L 52.123438 101.693512 
L 52.123438 104.758887 
L 52.123438 107.824262 
L 52.123438 110.889637 
L 52.123438 113.955012 
L 52.123438 117.020387 
L 52.123438 120.085761 
L 52.123438 123.151136 
L 52.123438 126.216511 
L 52.123438 129.281886 
L 52.123438 132.347261 
L 52.123438 135.412636 
L 52.123438 138.478011 
L 52.123438 141.543386 
L 52.123438 144.60876 
L 52.123438 147.674135 
L 52.123438 150.73951 
L 52.123438 153.804885 
L 52.123438 156.87026 
L 52.123438 159.935635 
L 52.123438 163.00101 
L 52.123438 166.066385 
L 52.123438 169.131759 
L 52.123438 172.197134 
L 52.123438 175.262509 
L 52.123438 178.327884 
L 52.123438 181.393259 
L 52.123438 184.458634 
L 52.123438 187.524009 
L 52.123438 190.589383 
L 52.123438 193.654758 
L 52.123438 196.720133 
L 52.123438 199.785508 
L 52.123438 202.850883 
L 52.123438 205.916258 
L 52.123438 208.981633 
L 52.123438 212.047008 
L 52.123438 215.112382 
L 52.123438 218.177757 
L 52.123438 221.243132 
L 52.123438 224.308507 
L 52.123438 227.373882 
L 52.123438 230.439257 
L 52.123438 233.504632 
L 52.123438 236.570007 
L 52.123438 239.635381 
L 52.123438 242.700756 
L 52.123438 245.766131 
L 52.123438 248.831506 
L 52.123438 251.896881 
L 52.123438 254.962256 
L 52.123438 258.027631 
L 52.123438 261.093005 
L 52.123438 264.15838 
L 52.123438 267.223755 
L 52.123438 270.28913 
L 52.123438 273.354505 
L 52.123438 276.41988 
L 52.123438 279.485255 
L 52.123438 282.55063 
L 52.123438 285.616004 
L 52.123438 288.681379 
L 52.123438 291.746754 
L 52.123438 294.812129 
L 52.123438 297.877504 
L 52.123438 300.942879 
L 52.123438 304.008254 
L 52.123438 307.073629 
L 52.123438 310.139003 
L 52.123438 313.204378 
L 52.123438 316.269753 
L 52.123438 319.335128 
L 52.123438 322.400503 
L 52.123438 325.465878 
L 52.123438 328.531253 
L 52.123438 331.596627 
L 52.123438 334.662002 
L 52.123438 337.727377 
L 52.123438 340.792752 
L 52.123438 343.858127 
L 52.123438 346.923502 
L 52.123438 349.988877 
L 52.123438 353.054252 
L 52.123438 356.119626 
L 52.123438 359.185001 
L 52.123438 362.250376 
L 52.123438 365.315751 
L 52.123438 368.381126 
L 52.123438 371.446501 
L 52.123438 374.511876 
L 52.123438 377.577251 
L 52.123438 380.642625 
L 52.123438 383.708 
L 52.123438 386.773375 
L 52.123438 389.83875 
z
M 90.766819 368.381126 
L 88.345553 368.236994 
L 85.327044 367.762913 
L 82.308534 366.875035 
L 79.290024 365.381998 
L 79.187537 365.315751 
L 76.271515 363.276634 
L 75.189649 362.250376 
L 73.253005 359.985976 
L 72.665689 359.185001 
L 70.92041 356.119626 
L 70.234495 354.372652 
L 69.700617 353.054252 
L 68.812441 349.988877 
L 68.261464 346.923502 
L 67.960076 343.858127 
L 67.853826 340.792752 
L 67.910898 337.727377 
L 68.115885 334.662002 
L 68.466308 331.596627 
L 68.970992 328.531253 
L 69.649839 325.465878 
L 70.234495 323.37834 
L 70.448819 322.400503 
L 71.249717 319.335128 
L 72.254153 316.269753 
L 73.253005 313.771118 
L 73.4418 313.204378 
L 74.574906 310.139003 
L 75.972107 307.073629 
L 76.271515 306.460784 
L 77.325642 304.008254 
L 78.873454 300.942879 
L 79.290024 300.158059 
L 80.400429 297.877504 
L 82.095154 294.812129 
L 82.308534 294.426905 
L 83.720149 291.746754 
L 85.327044 288.996844 
L 85.50912 288.681379 
L 87.241161 285.616004 
L 88.345553 283.771223 
L 89.090831 282.55063 
L 91.014799 279.485255 
L 91.364063 278.929448 
L 93.026332 276.41988 
L 94.382573 274.468372 
L 95.234897 273.354505 
L 97.401082 270.605888 
L 97.689262 270.28913 
L 100.419592 267.319783 
L 100.526948 267.223755 
L 103.438102 264.595441 
L 104.061451 264.15838 
L 106.456611 262.4265 
L 108.988465 261.093005 
L 109.475121 260.822491 
L 112.493631 259.650196 
L 115.51214 258.944854 
L 118.53065 258.610273 
L 121.54916 258.539259 
L 124.567669 258.612625 
L 127.586179 258.714028 
L 130.604689 258.752493 
L 133.623198 258.680346 
L 136.641708 258.500793 
L 139.660218 258.271817 
L 142.678727 258.12594 
L 145.697237 258.352853 
L 148.715747 259.73008 
L 149.836226 261.093005 
L 150.841984 264.15838 
L 151.038728 267.223755 
L 150.926093 270.28913 
L 150.709989 273.354505 
L 150.494207 276.41988 
L 150.346848 279.485255 
L 150.331132 282.55063 
L 150.524305 285.616004 
L 151.032265 288.681379 
L 151.734256 290.919522 
L 152.101729 291.746754 
L 154.43798 294.812129 
L 154.752766 295.091003 
L 157.771276 296.687139 
L 160.789785 297.502381 
L 163.78002 297.877504 
L 163.808295 297.880555 
L 166.826805 298.031615 
L 169.845314 298.142617 
L 172.863824 298.329673 
L 175.882334 298.70958 
L 178.900843 299.412237 
L 181.919353 300.592931 
L 182.542337 300.942879 
L 184.937863 302.422815 
L 186.757239 304.008254 
L 187.956372 305.235692 
L 189.373496 307.073629 
L 190.974882 309.753169 
L 191.174669 310.139003 
L 192.400831 313.204378 
L 193.169538 316.269753 
L 193.523709 319.335128 
L 193.491702 322.400503 
L 193.086673 325.465878 
L 192.303259 328.531253 
L 191.111648 331.596627 
L 190.974882 331.860604 
L 189.589909 334.662002 
L 187.956372 337.205171 
L 187.62057 337.727377 
L 185.212329 340.792752 
L 184.937863 341.093753 
L 182.234047 343.858127 
L 181.919353 344.145009 
L 178.900843 346.610553 
L 178.457134 346.923502 
L 175.882334 348.634465 
L 173.360028 349.988877 
L 172.863824 350.252593 
L 169.845314 351.572619 
L 166.826805 352.579575 
L 164.968699 353.054252 
L 163.808295 353.366518 
L 160.789785 353.989753 
L 157.771276 354.473005 
L 154.752766 354.883121 
L 151.734256 355.280962 
L 148.715747 355.714228 
L 146.275392 356.119626 
L 145.697237 356.224281 
L 142.678727 356.875149 
L 139.660218 357.593195 
L 136.641708 358.351864 
L 133.623198 359.122177 
L 133.390274 359.185001 
L 130.604689 360.0173 
L 127.586179 360.887637 
L 124.567669 361.708637 
L 122.490714 362.250376 
L 121.54916 362.53161 
L 118.53065 363.425264 
L 115.51214 364.250443 
L 112.493631 365.002934 
L 111.165142 365.315751 
L 109.475121 365.792679 
L 106.456611 366.571124 
L 103.438102 367.228064 
L 100.419592 367.754008 
L 97.401082 368.138799 
L 94.382573 368.367455 
L 93.491007 368.381126 
L 91.364063 368.424922 
z
" style="fill:#eef5fc;"/>
   </g>
   <g id="PathCollection_2">
    <path clip-path="url(#pbd918ef482)" d="M 91.364063 368.424922 
L 93.491007 368.381126 
L 94.382573 368.367455 
L 97.401082 368.138799 
L 100.419592 367.754008 
L 103.438102 367.228064 
L 106.456611 366.571124 
L 109.475121 365.792679 
L 111.165142 365.315751 
L 112.493631 365.002934 
L 115.51214 364.250443 
L 118.53065 363.425264 
L 121.54916 362.53161 
L 122.490714 362.250376 
L 124.567669 361.708637 
L 127.586179 360.887637 
L 130.604689 360.0173 
L 133.390274 359.185001 
L 133.623198 359.122177 
L 136.641708 358.351864 
L 139.660218 357.593195 
L 142.678727 356.875149 
L 145.697237 356.224281 
L 146.275392 356.119626 
L 148.715747 355.714228 
L 151.734256 355.280962 
L 154.752766 354.883121 
L 157.771276 354.473005 
L 160.789785 353.989753 
L 163.808295 353.366518 
L 164.968699 353.054252 
L 166.826805 352.579575 
L 169.845314 351.572619 
L 172.863824 350.252593 
L 173.360028 349.988877 
L 175.882334 348.634465 
L 178.457134 346.923502 
L 178.900843 346.610553 
L 181.919353 344.145009 
L 182.234047 343.858127 
L 184.937863 341.093753 
L 185.212329 340.792752 
L 187.62057 337.727377 
L 187.956372 337.205171 
L 189.589909 334.662002 
L 190.974882 331.860604 
L 191.111648 331.596627 
L 192.303259 328.531253 
L 193.086673 325.465878 
L 193.491702 322.400503 
L 193.523709 319.335128 
L 193.169538 316.269753 
L 192.400831 313.204378 
L 191.174669 310.139003 
L 190.974882 309.753169 
L 189.373496 307.073629 
L 187.956372 305.235692 
L 186.757239 304.008254 
L 184.937863 302.422815 
L 182.542337 300.942879 
L 181.919353 300.592931 
L 178.900843 299.412237 
L 175.882334 298.70958 
L 172.863824 298.329673 
L 169.845314 298.142617 
L 166.826805 298.031615 
L 163.808295 297.880555 
L 163.78002 297.877504 
L 160.789785 297.502381 
L 157.771276 296.687139 
L 154.752766 295.091003 
L 154.43798 294.812129 
L 152.101729 291.746754 
L 151.734256 290.919522 
L 151.032265 288.681379 
L 150.524305 285.616004 
L 150.331132 282.55063 
L 150.346848 279.485255 
L 150.494207 276.41988 
L 150.709989 273.354505 
L 150.926093 270.28913 
L 151.038728 267.223755 
L 150.841984 264.15838 
L 149.836226 261.093005 
L 148.715747 259.73008 
L 145.697237 258.352853 
L 142.678727 258.12594 
L 139.660218 258.271817 
L 136.641708 258.500793 
L 133.623198 258.680346 
L 130.604689 258.752493 
L 127.586179 258.714028 
L 124.567669 258.612625 
L 121.54916 258.539259 
L 118.53065 258.610273 
L 115.51214 258.944854 
L 112.493631 259.650196 
L 109.475121 260.822491 
L 108.988465 261.093005 
L 106.456611 262.4265 
L 104.061451 264.15838 
L 103.438102 264.595441 
L 100.526948 267.223755 
L 100.419592 267.319783 
L 97.689262 270.28913 
L 97.401082 270.605888 
L 95.234897 273.354505 
L 94.382573 274.468372 
L 93.026332 276.41988 
L 91.364063 278.929448 
L 91.014799 279.485255 
L 89.090831 282.55063 
L 88.345553 283.771223 
L 87.241161 285.616004 
L 85.50912 288.681379 
L 85.327044 288.996844 
L 83.720149 291.746754 
L 82.308534 294.426905 
L 82.095154 294.812129 
L 80.400429 297.877504 
L 79.290024 300.158059 
L 78.873454 300.942879 
L 77.325642 304.008254 
L 76.271515 306.460784 
L 75.972107 307.073629 
L 74.574906 310.139003 
L 73.4418 313.204378 
L 73.253005 313.771118 
L 72.254153 316.269753 
L 71.249717 319.335128 
L 70.448819 322.400503 
L 70.234495 323.37834 
L 69.649839 325.465878 
L 68.970992 328.531253 
L 68.466308 331.596627 
L 68.115885 334.662002 
L 67.910898 337.727377 
L 67.853826 340.792752 
L 67.960076 343.858127 
L 68.261464 346.923502 
L 68.812441 349.988877 
L 69.700617 353.054252 
L 70.234495 354.372652 
L 70.92041 356.119626 
L 72.665689 359.185001 
L 73.253005 359.985976 
L 75.189649 362.250376 
L 76.271515 363.276634 
L 79.187537 365.315751 
L 79.290024 365.381998 
L 82.308534 366.875035 
L 85.327044 367.762913 
L 88.345553 368.236994 
L 90.766819 368.381126 
z
M 82.868849 359.185001 
L 82.308534 358.853256 
L 79.290024 356.234662 
L 79.186102 356.119626 
L 76.953342 353.054252 
L 76.271515 351.70146 
L 75.467876 349.988877 
L 74.479642 346.923502 
L 73.886059 343.858127 
L 73.58205 340.792752 
L 73.502874 337.727377 
L 73.610998 334.662002 
L 73.888352 331.596627 
L 74.331943 328.531253 
L 74.951734 325.465878 
L 75.770167 322.400503 
L 76.271515 320.871487 
L 76.700532 319.335128 
L 77.725303 316.269753 
L 78.997442 313.204378 
L 79.290024 312.571544 
L 80.308312 310.139003 
L 81.834736 307.073629 
L 82.308534 306.201786 
L 83.442572 304.008254 
L 85.27289 300.942879 
L 85.327044 300.854019 
L 87.132278 297.877504 
L 88.345553 296.051141 
L 89.200202 294.812129 
L 91.364063 291.835593 
L 91.434099 291.746754 
L 93.80562 288.681379 
L 94.382573 287.940857 
L 96.431074 285.616004 
L 97.401082 284.496958 
L 99.40483 282.55063 
L 100.419592 281.523347 
L 102.947317 279.485255 
L 103.438102 279.063888 
L 106.456611 277.066945 
L 107.861859 276.41988 
L 109.475121 275.592991 
L 112.493631 274.595404 
L 115.51214 274.067475 
L 118.53065 273.914572 
L 121.54916 274.079119 
L 124.567669 274.549362 
L 127.586179 275.379454 
L 129.9828 276.41988 
L 130.604689 276.710293 
L 133.623198 278.867015 
L 134.219484 279.485255 
L 136.458528 282.55063 
L 136.641708 282.884208 
L 137.881638 285.616004 
L 138.904329 288.681379 
L 139.660218 291.494169 
L 139.728954 291.746754 
L 140.593938 294.812129 
L 141.532315 297.877504 
L 142.632001 300.942879 
L 142.678727 301.051418 
L 144.372419 304.008254 
L 145.697237 305.892049 
L 146.905208 307.073629 
L 148.715747 308.624476 
L 151.353807 310.139003 
L 151.734256 310.351854 
L 154.752766 311.563123 
L 157.771276 312.524276 
L 160.154515 313.204378 
L 160.789785 313.411335 
L 163.808295 314.389187 
L 166.826805 315.504921 
L 168.562052 316.269753 
L 169.845314 316.983322 
L 172.863824 319.123691 
L 173.095947 319.335128 
L 175.309353 322.400503 
L 175.882334 324.235527 
L 176.183487 325.465878 
L 176.037925 328.531253 
L 175.882334 328.998442 
L 174.928091 331.596627 
L 172.898637 334.662002 
L 172.863824 334.698557 
L 169.845314 337.387342 
L 169.387196 337.727377 
L 166.826805 339.182579 
L 163.808295 340.569285 
L 163.231044 340.792752 
L 160.789785 341.576497 
L 157.771276 342.435849 
L 154.752766 343.267832 
L 152.742813 343.858127 
L 151.734256 344.120429 
L 148.715747 345.010733 
L 145.697237 345.993988 
L 143.092107 346.923502 
L 142.678727 347.061107 
L 139.660218 348.18372 
L 136.641708 349.340901 
L 135.016034 349.988877 
L 133.623198 350.527494 
L 130.604689 351.725802 
L 127.586179 352.881655 
L 127.149155 353.054252 
L 124.567669 354.081021 
L 121.54916 355.226943 
L 119.04955 356.119626 
L 118.53065 356.314707 
L 115.51214 357.448086 
L 112.493631 358.462992 
L 110.081147 359.185001 
L 109.475121 359.386975 
L 106.456611 360.306304 
L 103.438102 361.049556 
L 100.419592 361.608687 
L 97.401082 361.970447 
L 94.382573 362.10898 
L 91.364063 361.976681 
L 88.345553 361.491341 
L 85.327044 360.515911 
z
" style="fill:#dceaf6;"/>
   </g>
   <g id="PathCollection_3">
    <path clip-path="url(#pbd918ef482)" d="M 85.327044 360.515911 
L 88.345553 361.491341 
L 91.364063 361.976681 
L 94.382573 362.10898 
L 97.401082 361.970447 
L 100.419592 361.608687 
L 103.438102 361.049556 
L 106.456611 360.306304 
L 109.475121 359.386975 
L 110.081147 359.185001 
L 112.493631 358.462992 
L 115.51214 357.448086 
L 118.53065 356.314707 
L 119.04955 356.119626 
L 121.54916 355.226943 
L 124.567669 354.081021 
L 127.149155 353.054252 
L 127.586179 352.881655 
L 130.604689 351.725802 
L 133.623198 350.527494 
L 135.016034 349.988877 
L 136.641708 349.340901 
L 139.660218 348.18372 
L 142.678727 347.061107 
L 143.092107 346.923502 
L 145.697237 345.993988 
L 148.715747 345.010733 
L 151.734256 344.120429 
L 152.742813 343.858127 
L 154.752766 343.267832 
L 157.771276 342.435849 
L 160.789785 341.576497 
L 163.231044 340.792752 
L 163.808295 340.569285 
L 166.826805 339.182579 
L 169.387196 337.727377 
L 169.845314 337.387342 
L 172.863824 334.698557 
L 172.898637 334.662002 
L 174.928091 331.596627 
L 175.882334 328.998442 
L 176.037925 328.531253 
L 176.183487 325.465878 
L 175.882334 324.235527 
L 175.309353 322.400503 
L 173.095947 319.335128 
L 172.863824 319.123691 
L 169.845314 316.983322 
L 168.562052 316.269753 
L 166.826805 315.504921 
L 163.808295 314.389187 
L 160.789785 313.411335 
L 160.154515 313.204378 
L 157.771276 312.524276 
L 154.752766 311.563123 
L 151.734256 310.351854 
L 151.353807 310.139003 
L 148.715747 308.624476 
L 146.905208 307.073629 
L 145.697237 305.892049 
L 144.372419 304.008254 
L 142.678727 301.051418 
L 142.632001 300.942879 
L 141.532315 297.877504 
L 140.593938 294.812129 
L 139.728954 291.746754 
L 139.660218 291.494169 
L 138.904329 288.681379 
L 137.881638 285.616004 
L 136.641708 282.884208 
L 136.458528 282.55063 
L 134.219484 279.485255 
L 133.623198 278.867015 
L 130.604689 276.710293 
L 129.9828 276.41988 
L 127.586179 275.379454 
L 124.567669 274.549362 
L 121.54916 274.079119 
L 118.53065 273.914572 
L 115.51214 274.067475 
L 112.493631 274.595404 
L 109.475121 275.592991 
L 107.861859 276.41988 
L 106.456611 277.066945 
L 103.438102 279.063888 
L 102.947317 279.485255 
L 100.419592 281.523347 
L 99.40483 282.55063 
L 97.401082 284.496958 
L 96.431074 285.616004 
L 94.382573 287.940857 
L 93.80562 288.681379 
L 91.434099 291.746754 
L 91.364063 291.835593 
L 89.200202 294.812129 
L 88.345553 296.051141 
L 87.132278 297.877504 
L 85.327044 300.854019 
L 85.27289 300.942879 
L 83.442572 304.008254 
L 82.308534 306.201786 
L 81.834736 307.073629 
L 80.308312 310.139003 
L 79.290024 312.571544 
L 78.997442 313.204378 
L 77.725303 316.269753 
L 76.700532 319.335128 
L 76.271515 320.871487 
L 75.770167 322.400503 
L 74.951734 325.465878 
L 74.331943 328.531253 
L 73.888352 331.596627 
L 73.610998 334.662002 
L 73.502874 337.727377 
L 73.58205 340.792752 
L 73.886059 343.858127 
L 74.479642 346.923502 
L 75.467876 349.988877 
L 76.271515 351.70146 
L 76.953342 353.054252 
L 79.186102 356.119626 
L 79.290024 356.234662 
L 82.308534 358.853256 
L 82.868849 359.185001 
z
M 87.58268 356.119626 
L 85.327044 354.936713 
L 83.048609 353.054252 
L 82.308534 352.279911 
L 80.615014 349.988877 
L 79.290024 347.31906 
L 79.112896 346.923502 
L 78.137275 343.858127 
L 77.581501 340.792752 
L 77.340542 337.727377 
L 77.351117 334.662002 
L 77.578613 331.596627 
L 78.009479 328.531253 
L 78.647121 325.465878 
L 79.290024 323.148857 
L 79.472467 322.400503 
L 80.389159 319.335128 
L 81.535367 316.269753 
L 82.308534 314.525754 
L 82.857099 313.204378 
L 84.321777 310.139003 
L 85.327044 308.313744 
L 86.00118 307.073629 
L 87.859034 304.008254 
L 88.345553 303.258912 
L 89.904748 300.942879 
L 91.364063 298.939937 
L 92.204507 297.877504 
L 94.382573 295.228115 
L 94.771989 294.812129 
L 97.401082 292.005759 
L 97.691755 291.746754 
L 100.419592 289.232647 
L 101.177624 288.681379 
L 103.438102 286.927659 
L 105.727468 285.616004 
L 106.456611 285.15811 
L 109.475121 283.804554 
L 112.493631 282.977154 
L 115.51214 282.594826 
L 118.53065 282.632452 
L 121.54916 283.128765 
L 124.567669 284.212495 
L 126.842207 285.616004 
L 127.586179 286.145551 
L 129.992998 288.681379 
L 130.604689 289.513642 
L 131.915547 291.746754 
L 133.269351 294.812129 
L 133.623198 295.781799 
L 134.369487 297.877504 
L 135.357094 300.942879 
L 136.298211 304.008254 
L 136.641708 305.101517 
L 137.390431 307.073629 
L 138.65048 310.139003 
L 139.660218 312.439027 
L 140.11697 313.204378 
L 141.986323 316.269753 
L 142.678727 317.471049 
L 144.178462 319.335128 
L 145.697237 321.655932 
L 146.342314 322.400503 
L 147.97511 325.465878 
L 148.388512 328.531253 
L 147.436182 331.596627 
L 145.697237 333.760427 
L 145.061854 334.662002 
L 142.678727 336.723409 
L 141.629509 337.727377 
L 139.660218 339.09478 
L 137.370288 340.792752 
L 136.641708 341.226502 
L 133.623198 343.142773 
L 132.539123 343.858127 
L 130.604689 344.954728 
L 127.586179 346.660106 
L 127.135134 346.923502 
L 124.567669 348.288863 
L 121.54916 349.802852 
L 121.180226 349.988877 
L 118.53065 351.276757 
L 115.51214 352.609332 
L 114.434236 353.054252 
L 112.493631 353.87319 
L 109.475121 355.003602 
L 106.456611 355.937765 
L 105.739331 356.119626 
L 103.438102 356.764172 
L 100.419592 357.369478 
L 97.401082 357.703474 
L 94.382573 357.725897 
L 91.364063 357.361994 
L 88.345553 356.482721 
z
" style="fill:#cadef0;"/>
   </g>
   <g id="PathCollection_4">
    <path clip-path="url(#pbd918ef482)" d="M 88.345553 356.482721 
L 91.364063 357.361994 
L 94.382573 357.725897 
L 97.401082 357.703474 
L 100.419592 357.369478 
L 103.438102 356.764172 
L 105.739331 356.119626 
L 106.456611 355.937765 
L 109.475121 355.003602 
L 112.493631 353.87319 
L 114.434236 353.054252 
L 115.51214 352.609332 
L 118.53065 351.276757 
L 121.180226 349.988877 
L 121.54916 349.802852 
L 124.567669 348.288863 
L 127.135134 346.923502 
L 127.586179 346.660106 
L 130.604689 344.954728 
L 132.539123 343.858127 
L 133.623198 343.142773 
L 136.641708 341.226502 
L 137.370288 340.792752 
L 139.660218 339.09478 
L 141.629509 337.727377 
L 142.678727 336.723409 
L 145.061854 334.662002 
L 145.697237 333.760427 
L 147.436182 331.596627 
L 148.388512 328.531253 
L 147.97511 325.465878 
L 146.342314 322.400503 
L 145.697237 321.655932 
L 144.178462 319.335128 
L 142.678727 317.471049 
L 141.986323 316.269753 
L 140.11697 313.204378 
L 139.660218 312.439027 
L 138.65048 310.139003 
L 137.390431 307.073629 
L 136.641708 305.101517 
L 136.298211 304.008254 
L 135.357094 300.942879 
L 134.369487 297.877504 
L 133.623198 295.781799 
L 133.269351 294.812129 
L 131.915547 291.746754 
L 130.604689 289.513642 
L 129.992998 288.681379 
L 127.586179 286.145551 
L 126.842207 285.616004 
L 124.567669 284.212495 
L 121.54916 283.128765 
L 118.53065 282.632452 
L 115.51214 282.594826 
L 112.493631 282.977154 
L 109.475121 283.804554 
L 106.456611 285.15811 
L 105.727468 285.616004 
L 103.438102 286.927659 
L 101.177624 288.681379 
L 100.419592 289.232647 
L 97.691755 291.746754 
L 97.401082 292.005759 
L 94.771989 294.812129 
L 94.382573 295.228115 
L 92.204507 297.877504 
L 91.364063 298.939937 
L 89.904748 300.942879 
L 88.345553 303.258912 
L 87.859034 304.008254 
L 86.00118 307.073629 
L 85.327044 308.313744 
L 84.321777 310.139003 
L 82.857099 313.204378 
L 82.308534 314.525754 
L 81.535367 316.269753 
L 80.389159 319.335128 
L 79.472467 322.400503 
L 79.290024 323.148857 
L 78.647121 325.465878 
L 78.009479 328.531253 
L 77.578613 331.596627 
L 77.351117 334.662002 
L 77.340542 337.727377 
L 77.581501 340.792752 
L 78.137275 343.858127 
L 79.112896 346.923502 
L 79.290024 347.31906 
L 80.615014 349.988877 
L 82.308534 352.279911 
L 83.048609 353.054252 
L 85.327044 354.936713 
L 87.58268 356.119626 
z
M 90.575111 353.054252 
L 88.345553 352.064546 
L 85.632618 349.988877 
L 85.327044 349.688364 
L 83.261732 346.923502 
L 82.308534 344.966719 
L 81.838968 343.858127 
L 80.995645 340.792752 
L 80.569084 337.727377 
L 80.461834 334.662002 
L 80.617286 331.596627 
L 81.007344 328.531253 
L 81.625419 325.465878 
L 82.308534 323.001256 
L 82.46114 322.400503 
L 83.430925 319.335128 
L 84.643332 316.269753 
L 85.327044 314.802749 
L 86.054927 313.204378 
L 87.674203 310.139003 
L 88.345553 309.005484 
L 89.525244 307.073629 
L 91.364063 304.391363 
L 91.648549 304.008254 
L 94.055346 300.942879 
L 94.382573 300.541762 
L 96.859043 297.877504 
L 97.401082 297.302278 
L 100.217767 294.812129 
L 100.419592 294.629485 
L 103.438102 292.424037 
L 104.700801 291.746754 
L 106.456611 290.727723 
L 109.475121 289.541298 
L 112.493631 288.872301 
L 115.51214 288.697492 
L 118.53065 289.068561 
L 121.54916 290.137283 
L 123.978515 291.746754 
L 124.567669 292.209575 
L 126.825859 294.812129 
L 127.586179 295.956532 
L 128.633721 297.877504 
L 129.943164 300.942879 
L 130.604689 302.862219 
L 130.99995 304.008254 
L 131.953225 307.073629 
L 132.814305 310.139003 
L 133.606974 313.204378 
L 133.623198 313.274608 
L 134.493823 316.269753 
L 135.275466 319.335128 
L 135.861987 322.400503 
L 136.12794 325.465878 
L 135.907308 328.531253 
L 134.992947 331.596627 
L 133.623198 333.917602 
L 133.227182 334.662002 
L 130.673057 337.727377 
L 130.604689 337.788265 
L 127.586179 340.607777 
L 127.392832 340.792752 
L 124.567669 342.973729 
L 123.395983 343.858127 
L 121.54916 345.065986 
L 118.53065 346.912314 
L 118.511973 346.923502 
L 115.51214 348.595803 
L 112.61389 349.988877 
L 112.493631 350.045692 
L 109.475121 351.364125 
L 106.456611 352.428084 
L 104.150495 353.054252 
L 103.438102 353.260966 
L 100.419592 353.862927 
L 97.401082 354.129618 
L 94.382573 354.001593 
L 91.364063 353.369108 
z
" style="fill:#b0d2e7;"/>
   </g>
   <g id="PathCollection_5">
    <path clip-path="url(#pbd918ef482)" d="M 91.364063 353.369108 
L 94.382573 354.001593 
L 97.401082 354.129618 
L 100.419592 353.862927 
L 103.438102 353.260966 
L 104.150495 353.054252 
L 106.456611 352.428084 
L 109.475121 351.364125 
L 112.493631 350.045692 
L 112.61389 349.988877 
L 115.51214 348.595803 
L 118.511973 346.923502 
L 118.53065 346.912314 
L 121.54916 345.065986 
L 123.395983 343.858127 
L 124.567669 342.973729 
L 127.392832 340.792752 
L 127.586179 340.607777 
L 130.604689 337.788265 
L 130.673057 337.727377 
L 133.227182 334.662002 
L 133.623198 333.917602 
L 134.992947 331.596627 
L 135.907308 328.531253 
L 136.12794 325.465878 
L 135.861987 322.400503 
L 135.275466 319.335128 
L 134.493823 316.269753 
L 133.623198 313.274608 
L 133.606974 313.204378 
L 132.814305 310.139003 
L 131.953225 307.073629 
L 130.99995 304.008254 
L 130.604689 302.862219 
L 129.943164 300.942879 
L 128.633721 297.877504 
L 127.586179 295.956532 
L 126.825859 294.812129 
L 124.567669 292.209575 
L 123.978515 291.746754 
L 121.54916 290.137283 
L 118.53065 289.068561 
L 115.51214 288.697492 
L 112.493631 288.872301 
L 109.475121 289.541298 
L 106.456611 290.727723 
L 104.700801 291.746754 
L 103.438102 292.424037 
L 100.419592 294.629485 
L 100.217767 294.812129 
L 97.401082 297.302278 
L 96.859043 297.877504 
L 94.382573 300.541762 
L 94.055346 300.942879 
L 91.648549 304.008254 
L 91.364063 304.391363 
L 89.525244 307.073629 
L 88.345553 309.005484 
L 87.674203 310.139003 
L 86.054927 313.204378 
L 85.327044 314.802749 
L 84.643332 316.269753 
L 83.430925 319.335128 
L 82.46114 322.400503 
L 82.308534 323.001256 
L 81.625419 325.465878 
L 81.007344 328.531253 
L 80.617286 331.596627 
L 80.461834 334.662002 
L 80.569084 337.727377 
L 80.995645 340.792752 
L 81.838968 343.858127 
L 82.308534 344.966719 
L 83.261732 346.923502 
L 85.327044 349.688364 
L 85.632618 349.988877 
L 88.345553 352.064546 
L 90.575111 353.054252 
z
M 92.414517 349.988877 
L 91.364063 349.624984 
L 88.345553 347.663416 
L 87.597916 346.923502 
L 85.393668 343.858127 
L 85.327044 343.718084 
L 84.170183 340.792752 
L 83.508405 337.727377 
L 83.255748 334.662002 
L 83.323503 331.596627 
L 83.662853 328.531253 
L 84.253228 325.465878 
L 85.095907 322.400503 
L 85.327044 321.737686 
L 86.135974 319.335128 
L 87.41118 316.269753 
L 88.345553 314.386076 
L 88.945279 313.204378 
L 90.726151 310.139003 
L 91.364063 309.153274 
L 92.819355 307.073629 
L 94.382573 305.034393 
L 95.279834 304.008254 
L 97.401082 301.693543 
L 98.23186 300.942879 
L 100.419592 298.976724 
L 101.993615 297.877504 
L 103.438102 296.834772 
L 106.456611 295.253337 
L 107.773747 294.812129 
L 109.475121 294.189081 
L 112.493631 293.686442 
L 115.51214 293.811757 
L 118.53065 294.689056 
L 118.756436 294.812129 
L 121.54916 296.592178 
L 122.806141 297.877504 
L 124.567669 300.204707 
L 125.005267 300.942879 
L 126.467965 304.008254 
L 127.556426 307.073629 
L 127.586179 307.176985 
L 128.452297 310.139003 
L 129.173752 313.204378 
L 129.733779 316.269753 
L 130.11765 319.335128 
L 130.281699 322.400503 
L 130.15042 325.465878 
L 129.610155 328.531253 
L 128.499281 331.596627 
L 127.586179 333.157798 
L 126.759408 334.662002 
L 124.567669 337.390001 
L 124.301365 337.727377 
L 121.54916 340.400441 
L 121.133196 340.792752 
L 118.53065 342.835461 
L 117.119903 343.858127 
L 115.51214 344.895373 
L 112.493631 346.630258 
L 111.913743 346.923502 
L 109.475121 348.107729 
L 106.456611 349.285623 
L 104.03432 349.988877 
L 103.438102 350.167724 
L 100.419592 350.740895 
L 97.401082 350.91214 
L 94.382573 350.594556 
z
" style="fill:#91c3de;"/>
   </g>
   <g id="PathCollection_6">
    <path clip-path="url(#pbd918ef482)" d="M 94.382573 350.594556 
L 97.401082 350.91214 
L 100.419592 350.740895 
L 103.438102 350.167724 
L 104.03432 349.988877 
L 106.456611 349.285623 
L 109.475121 348.107729 
L 111.913743 346.923502 
L 112.493631 346.630258 
L 115.51214 344.895373 
L 117.119903 343.858127 
L 118.53065 342.835461 
L 121.133196 340.792752 
L 121.54916 340.400441 
L 124.301365 337.727377 
L 124.567669 337.390001 
L 126.759408 334.662002 
L 127.586179 333.157798 
L 128.499281 331.596627 
L 129.610155 328.531253 
L 130.15042 325.465878 
L 130.281699 322.400503 
L 130.11765 319.335128 
L 129.733779 316.269753 
L 129.173752 313.204378 
L 128.452297 310.139003 
L 127.586179 307.176985 
L 127.556426 307.073629 
L 126.467965 304.008254 
L 125.005267 300.942879 
L 124.567669 300.204707 
L 122.806141 297.877504 
L 121.54916 296.592178 
L 118.756436 294.812129 
L 118.53065 294.689056 
L 115.51214 293.811757 
L 112.493631 293.686442 
L 109.475121 294.189081 
L 107.773747 294.812129 
L 106.456611 295.253337 
L 103.438102 296.834772 
L 101.993615 297.877504 
L 100.419592 298.976724 
L 98.23186 300.942879 
L 97.401082 301.693543 
L 95.279834 304.008254 
L 94.382573 305.034393 
L 92.819355 307.073629 
L 91.364063 309.153274 
L 90.726151 310.139003 
L 88.945279 313.204378 
L 88.345553 314.386076 
L 87.41118 316.269753 
L 86.135974 319.335128 
L 85.327044 321.737686 
L 85.095907 322.400503 
L 84.253228 325.465878 
L 83.662853 328.531253 
L 83.323503 331.596627 
L 83.255748 334.662002 
L 83.508405 337.727377 
L 84.170183 340.792752 
L 85.327044 343.718084 
L 85.393668 343.858127 
L 87.597916 346.923502 
L 88.345553 347.663416 
L 91.364063 349.624984 
L 92.414517 349.988877 
z
M 93.577398 346.923502 
L 91.364063 345.771378 
L 89.290361 343.858127 
L 88.345553 342.584947 
L 87.366362 340.792752 
L 86.365475 337.727377 
L 85.913898 334.662002 
L 85.870105 331.596627 
L 86.152641 328.531253 
L 86.719988 325.465878 
L 87.559186 322.400503 
L 88.345553 320.22485 
L 88.67169 319.335128 
L 90.040644 316.269753 
L 91.364063 313.806021 
L 91.712277 313.204378 
L 93.71369 310.139003 
L 94.382573 309.214086 
L 96.150122 307.073629 
L 97.401082 305.657486 
L 99.168993 304.008254 
L 100.419592 302.868613 
L 103.167015 300.942879 
L 103.438102 300.749504 
L 106.456611 299.215981 
L 109.475121 298.317667 
L 112.493631 298.067649 
L 115.51214 298.586334 
L 118.53065 300.137903 
L 119.441914 300.942879 
L 121.54916 303.340803 
L 121.979278 304.008254 
L 123.523138 307.073629 
L 124.567669 310.01338 
L 124.609201 310.139003 
L 125.392704 313.204378 
L 125.924638 316.269753 
L 126.20986 319.335128 
L 126.220424 322.400503 
L 125.894825 325.465878 
L 125.132452 328.531253 
L 124.567669 329.884525 
L 123.885625 331.596627 
L 122.03772 334.662002 
L 121.54916 335.262559 
L 119.515448 337.727377 
L 118.53065 338.665335 
L 116.145996 340.792752 
L 115.51214 341.272709 
L 112.493631 343.348221 
L 111.626694 343.858127 
L 109.475121 345.026577 
L 106.456611 346.326741 
L 104.533349 346.923502 
L 103.438102 347.262575 
L 100.419592 347.791065 
L 97.401082 347.835309 
L 94.382573 347.266709 
z
" style="fill:#6aaed6;"/>
   </g>
   <g id="PathCollection_7">
    <path clip-path="url(#pbd918ef482)" d="M 94.382573 347.266709 
L 97.401082 347.835309 
L 100.419592 347.791065 
L 103.438102 347.262575 
L 104.533349 346.923502 
L 106.456611 346.326741 
L 109.475121 345.026577 
L 111.626694 343.858127 
L 112.493631 343.348221 
L 115.51214 341.272709 
L 116.145996 340.792752 
L 118.53065 338.665335 
L 119.515448 337.727377 
L 121.54916 335.262559 
L 122.03772 334.662002 
L 123.885625 331.596627 
L 124.567669 329.884525 
L 125.132452 328.531253 
L 125.894825 325.465878 
L 126.220424 322.400503 
L 126.20986 319.335128 
L 125.924638 316.269753 
L 125.392704 313.204378 
L 124.609201 310.139003 
L 124.567669 310.01338 
L 123.523138 307.073629 
L 121.979278 304.008254 
L 121.54916 303.340803 
L 119.441914 300.942879 
L 118.53065 300.137903 
L 115.51214 298.586334 
L 112.493631 298.067649 
L 109.475121 298.317667 
L 106.456611 299.215981 
L 103.438102 300.749504 
L 103.167015 300.942879 
L 100.419592 302.868613 
L 99.168993 304.008254 
L 97.401082 305.657486 
L 96.150122 307.073629 
L 94.382573 309.214086 
L 93.71369 310.139003 
L 91.712277 313.204378 
L 91.364063 313.806021 
L 90.040644 316.269753 
L 88.67169 319.335128 
L 88.345553 320.22485 
L 87.559186 322.400503 
L 86.719988 325.465878 
L 86.152641 328.531253 
L 85.870105 331.596627 
L 85.913898 334.662002 
L 86.365475 337.727377 
L 87.366362 340.792752 
L 88.345553 342.584947 
L 89.290361 343.858127 
L 91.364063 345.771378 
L 93.577398 346.923502 
z
M 94.562891 343.858127 
L 94.382573 343.789217 
L 91.364063 341.377824 
L 90.906432 340.792752 
L 89.339932 337.727377 
L 88.574582 334.662002 
L 88.368135 331.596627 
L 88.580226 328.531253 
L 89.133729 325.465878 
L 89.993197 322.400503 
L 91.153136 319.335128 
L 91.364063 318.881472 
L 92.67013 316.269753 
L 94.382573 313.40003 
L 94.516389 313.204378 
L 96.860084 310.139003 
L 97.401082 309.491632 
L 99.86897 307.073629 
L 100.419592 306.557605 
L 103.438102 304.407065 
L 104.280934 304.008254 
L 106.456611 302.956651 
L 109.475121 302.228156 
L 112.493631 302.297591 
L 115.51214 303.375547 
L 116.381794 304.008254 
L 118.53065 306.032659 
L 119.265771 307.073629 
L 120.853639 310.139003 
L 121.54916 312.148091 
L 121.87259 313.204378 
L 122.487239 316.269753 
L 122.773411 319.335128 
L 122.725092 322.400503 
L 122.298174 325.465878 
L 121.54916 328.066367 
L 121.417533 328.531253 
L 120.058256 331.596627 
L 118.53065 333.939496 
L 118.038185 334.662002 
L 115.51214 337.472393 
L 115.257756 337.727377 
L 112.493631 340.014202 
L 111.374243 340.792752 
L 109.475121 341.962056 
L 106.456611 343.413654 
L 105.117884 343.858127 
L 103.438102 344.394258 
L 100.419592 344.860517 
L 97.401082 344.726819 
z
" style="fill:#4d99ca;"/>
   </g>
   <g id="PathCollection_8">
    <path clip-path="url(#pbd918ef482)" d="M 97.401082 344.726819 
L 100.419592 344.860517 
L 103.438102 344.394258 
L 105.117884 343.858127 
L 106.456611 343.413654 
L 109.475121 341.962056 
L 111.374243 340.792752 
L 112.493631 340.014202 
L 115.257756 337.727377 
L 115.51214 337.472393 
L 118.038185 334.662002 
L 118.53065 333.939496 
L 120.058256 331.596627 
L 121.417533 328.531253 
L 121.54916 328.066367 
L 122.298174 325.465878 
L 122.725092 322.400503 
L 122.773411 319.335128 
L 122.487239 316.269753 
L 121.87259 313.204378 
L 121.54916 312.148091 
L 120.853639 310.139003 
L 119.265771 307.073629 
L 118.53065 306.032659 
L 116.381794 304.008254 
L 115.51214 303.375547 
L 112.493631 302.297591 
L 109.475121 302.228156 
L 106.456611 302.956651 
L 104.280934 304.008254 
L 103.438102 304.407065 
L 100.419592 306.557605 
L 99.86897 307.073629 
L 97.401082 309.491632 
L 96.860084 310.139003 
L 94.516389 313.204378 
L 94.382573 313.40003 
L 92.67013 316.269753 
L 91.364063 318.881472 
L 91.153136 319.335128 
L 89.993197 322.400503 
L 89.133729 325.465878 
L 88.580226 328.531253 
L 88.368135 331.596627 
L 88.574582 334.662002 
L 89.339932 337.727377 
L 90.906432 340.792752 
L 91.364063 341.377824 
L 94.382573 343.789217 
L 94.562891 343.858127 
z
M 96.116215 340.792752 
L 94.382573 339.675566 
L 92.785439 337.727377 
L 91.429526 334.662002 
L 91.364063 334.292448 
L 90.993771 331.596627 
L 91.073571 328.531253 
L 91.364063 326.735741 
L 91.583817 325.465878 
L 92.498125 322.400503 
L 93.749205 319.335128 
L 94.382573 318.096575 
L 95.456248 316.269753 
L 97.401082 313.451793 
L 97.613464 313.204378 
L 100.419592 310.253549 
L 100.569299 310.139003 
L 103.438102 308.050293 
L 105.573758 307.073629 
L 106.456611 306.670485 
L 109.475121 306.17505 
L 112.493631 306.686952 
L 113.20166 307.073629 
L 115.51214 308.731808 
L 116.622735 310.139003 
L 118.247896 313.204378 
L 118.53065 314.081982 
L 119.113415 316.269753 
L 119.497197 319.335128 
L 119.463332 322.400503 
L 118.993536 325.465878 
L 118.53065 326.958013 
L 118.026642 328.531253 
L 116.492371 331.596627 
L 115.51214 332.99127 
L 114.214992 334.662002 
L 112.493631 336.389093 
L 110.907411 337.727377 
L 109.475121 338.7476 
L 106.456611 340.40156 
L 105.359678 340.792752 
L 103.438102 341.424812 
L 100.419592 341.795558 
L 97.401082 341.385853 
z
" style="fill:#3383be;"/>
   </g>
   <g id="PathCollection_9">
    <path clip-path="url(#pbd918ef482)" d="M 97.401082 341.385853 
L 100.419592 341.795558 
L 103.438102 341.424812 
L 105.359678 340.792752 
L 106.456611 340.40156 
L 109.475121 338.7476 
L 110.907411 337.727377 
L 112.493631 336.389093 
L 114.214992 334.662002 
L 115.51214 332.99127 
L 116.492371 331.596627 
L 118.026642 328.531253 
L 118.53065 326.958013 
L 118.993536 325.465878 
L 119.463332 322.400503 
L 119.497197 319.335128 
L 119.113415 316.269753 
L 118.53065 314.081982 
L 118.247896 313.204378 
L 116.622735 310.139003 
L 115.51214 308.731808 
L 113.20166 307.073629 
L 112.493631 306.686952 
L 109.475121 306.17505 
L 106.456611 306.670485 
L 105.573758 307.073629 
L 103.438102 308.050293 
L 100.569299 310.139003 
L 100.419592 310.253549 
L 97.613464 313.204378 
L 97.401082 313.451793 
L 95.456248 316.269753 
L 94.382573 318.096575 
L 93.749205 319.335128 
L 92.498125 322.400503 
L 91.583817 325.465878 
L 91.364063 326.735741 
L 91.073571 328.531253 
L 90.993771 331.596627 
L 91.364063 334.292448 
L 91.429526 334.662002 
L 92.785439 337.727377 
L 94.382573 339.675566 
L 96.116215 340.792752 
z
M 98.217165 337.727377 
L 97.401082 337.38174 
L 94.981369 334.662002 
L 94.382573 333.178295 
L 93.969101 331.596627 
L 93.840873 328.531253 
L 94.250765 325.465878 
L 94.382573 325.001094 
L 95.236374 322.400503 
L 96.656347 319.335128 
L 97.401082 318.065797 
L 98.727746 316.269753 
L 100.419592 314.29452 
L 101.741582 313.204378 
L 103.438102 311.920692 
L 106.456611 310.625764 
L 109.475121 310.460849 
L 112.493631 311.849416 
L 113.739198 313.204378 
L 115.44057 316.269753 
L 115.51214 316.532899 
L 116.08396 319.335128 
L 116.151563 322.400503 
L 115.686427 325.465878 
L 115.51214 325.991808 
L 114.584593 328.531253 
L 112.831315 331.596627 
L 112.493631 332.026301 
L 110.022452 334.662002 
L 109.475121 335.127137 
L 106.456611 337.059224 
L 104.727273 337.727377 
L 103.438102 338.164629 
L 100.419592 338.361358 
z
" style="fill:#1c6bb0;"/>
   </g>
   <g id="PathCollection_10">
    <path clip-path="url(#pbd918ef482)" d="M 100.419592 338.361358 
L 103.438102 338.164629 
L 104.727273 337.727377 
L 106.456611 337.059224 
L 109.475121 335.127137 
L 110.022452 334.662002 
L 112.493631 332.026301 
L 112.831315 331.596627 
L 114.584593 328.531253 
L 115.51214 325.991808 
L 115.686427 325.465878 
L 116.151563 322.400503 
L 116.08396 319.335128 
L 115.51214 316.532899 
L 115.44057 316.269753 
L 113.739198 313.204378 
L 112.493631 311.849416 
L 109.475121 310.460849 
L 106.456611 310.625764 
L 103.438102 311.920692 
L 101.741582 313.204378 
L 100.419592 314.29452 
L 98.727746 316.269753 
L 97.401082 318.065797 
L 96.656347 319.335128 
L 95.236374 322.400503 
L 94.382573 325.001094 
L 94.250765 325.465878 
L 93.840873 328.531253 
L 93.969101 331.596627 
L 94.382573 333.178295 
L 94.981369 334.662002 
L 97.401082 337.38174 
L 98.217165 337.727377 
z
M 98.128723 331.596627 
L 97.401082 329.404458 
L 97.247139 328.531253 
L 97.401082 326.588738 
L 97.519436 325.465878 
L 98.66878 322.400503 
L 100.367399 319.335128 
L 100.419592 319.263439 
L 103.438102 316.4644 
L 103.916798 316.269753 
L 106.456611 315.371136 
L 109.475121 315.960469 
L 109.839068 316.269753 
L 111.825082 319.335128 
L 112.345143 322.400503 
L 111.86381 325.465878 
L 110.570851 328.531253 
L 109.475121 330.137964 
L 108.085452 331.596627 
L 106.456611 332.863061 
L 103.438102 334.09568 
L 100.419592 333.788721 
z
" style="fill:#0a539e;"/>
   </g>
   <g id="PathCollection_11">
    <path clip-path="url(#pbd918ef482)" d="M 100.419592 333.788721 
L 103.438102 334.09568 
L 106.456611 332.863061 
L 108.085452 331.596627 
L 109.475121 330.137964 
L 110.570851 328.531253 
L 111.86381 325.465878 
L 112.345143 322.400503 
L 111.825082 319.335128 
L 109.839068 316.269753 
L 109.475121 315.960469 
L 106.456611 315.371136 
L 103.916798 316.269753 
L 103.438102 316.4644 
L 100.419592 319.263439 
L 100.367399 319.335128 
L 98.66878 322.400503 
L 97.519436 325.465878 
L 97.401082 326.588738 
L 97.247139 328.531253 
L 97.401082 329.404458 
L 98.128723 331.596627 
z
" style="fill:#083b7c;"/>
   </g>
   <g id="patch_3">
    <path d="M 52.123438 389.83875 
L 52.123438 86.366638 
" style="fill:none;"/>
   </g>
   <g id="patch_4">
    <path d="M 52.123438 389.83875 
L 350.955894 389.83875 
" style="fill:none;"/>
   </g>
   <g id="legend_1">
    <g id="line2d_29"/>
    <g id="line2d_30"/>
    <g id="text_17">
     <!-- pearsonr = 0.41; p = 3.2e-07 -->
     <defs>
      <path d="M 18.109375 8.203125 
L 18.109375 -20.796875 
L 9.078125 -20.796875 
L 9.078125 54.6875 
L 18.109375 54.6875 
L 18.109375 46.390625 
Q 20.953125 51.265625 25.265625 53.625 
Q 29.59375 56 35.59375 56 
Q 45.5625 56 51.78125 48.09375 
Q 58.015625 40.1875 58.015625 27.296875 
Q 58.015625 14.40625 51.78125 6.484375 
Q 45.5625 -1.421875 35.59375 -1.421875 
Q 29.59375 -1.421875 25.265625 0.953125 
Q 20.953125 3.328125 18.109375 8.203125 
z
M 48.6875 27.296875 
Q 48.6875 37.203125 44.609375 42.84375 
Q 40.53125 48.484375 33.40625 48.484375 
Q 26.265625 48.484375 22.1875 42.84375 
Q 18.109375 37.203125 18.109375 27.296875 
Q 18.109375 17.390625 22.1875 11.75 
Q 26.265625 6.109375 33.40625 6.109375 
Q 40.53125 6.109375 44.609375 11.75 
Q 48.6875 17.390625 48.6875 27.296875 
z
" id="DejaVuSans-70"/>
      <path d="M 34.28125 27.484375 
Q 23.390625 27.484375 19.1875 25 
Q 14.984375 22.515625 14.984375 16.5 
Q 14.984375 11.71875 18.140625 8.90625 
Q 21.296875 6.109375 26.703125 6.109375 
Q 34.1875 6.109375 38.703125 11.40625 
Q 43.21875 16.703125 43.21875 25.484375 
L 43.21875 27.484375 
z
M 52.203125 31.203125 
L 52.203125 0 
L 43.21875 0 
L 43.21875 8.296875 
Q 40.140625 3.328125 35.546875 0.953125 
Q 30.953125 -1.421875 24.3125 -1.421875 
Q 15.921875 -1.421875 10.953125 3.296875 
Q 6 8.015625 6 15.921875 
Q 6 25.140625 12.171875 29.828125 
Q 18.359375 34.515625 30.609375 34.515625 
L 43.21875 34.515625 
L 43.21875 35.40625 
Q 43.21875 41.609375 39.140625 45 
Q 35.0625 48.390625 27.6875 48.390625 
Q 23 48.390625 18.546875 47.265625 
Q 14.109375 46.140625 10.015625 43.890625 
L 10.015625 52.203125 
Q 14.9375 54.109375 19.578125 55.046875 
Q 24.21875 56 28.609375 56 
Q 40.484375 56 46.34375 49.84375 
Q 52.203125 43.703125 52.203125 31.203125 
z
" id="DejaVuSans-61"/>
      <path d="M 44.28125 53.078125 
L 44.28125 44.578125 
Q 40.484375 46.53125 36.375 47.5 
Q 32.28125 48.484375 27.875 48.484375 
Q 21.1875 48.484375 17.84375 46.4375 
Q 14.5 44.390625 14.5 40.28125 
Q 14.5 37.15625 16.890625 35.375 
Q 19.28125 33.59375 26.515625 31.984375 
L 29.59375 31.296875 
Q 39.15625 29.25 43.1875 25.515625 
Q 47.21875 21.78125 47.21875 15.09375 
Q 47.21875 7.46875 41.1875 3.015625 
Q 35.15625 -1.421875 24.609375 -1.421875 
Q 20.21875 -1.421875 15.453125 -0.5625 
Q 10.6875 0.296875 5.421875 2 
L 5.421875 11.28125 
Q 10.40625 8.6875 15.234375 7.390625 
Q 20.0625 6.109375 24.8125 6.109375 
Q 31.15625 6.109375 34.5625 8.28125 
Q 37.984375 10.453125 37.984375 14.40625 
Q 37.984375 18.0625 35.515625 20.015625 
Q 33.0625 21.96875 24.703125 23.78125 
L 21.578125 24.515625 
Q 13.234375 26.265625 9.515625 29.90625 
Q 5.8125 33.546875 5.8125 39.890625 
Q 5.8125 47.609375 11.28125 51.796875 
Q 16.75 56 26.8125 56 
Q 31.78125 56 36.171875 55.265625 
Q 40.578125 54.546875 44.28125 53.078125 
z
" id="DejaVuSans-73"/>
      <path d="M 30.609375 48.390625 
Q 23.390625 48.390625 19.1875 42.75 
Q 14.984375 37.109375 14.984375 27.296875 
Q 14.984375 17.484375 19.15625 11.84375 
Q 23.34375 6.203125 30.609375 6.203125 
Q 37.796875 6.203125 41.984375 11.859375 
Q 46.1875 17.53125 46.1875 27.296875 
Q 46.1875 37.015625 41.984375 42.703125 
Q 37.796875 48.390625 30.609375 48.390625 
z
M 30.609375 56 
Q 42.328125 56 49.015625 48.375 
Q 55.71875 40.765625 55.71875 27.296875 
Q 55.71875 13.875 49.015625 6.21875 
Q 42.328125 -1.421875 30.609375 -1.421875 
Q 18.84375 -1.421875 12.171875 6.21875 
Q 5.515625 13.875 5.515625 27.296875 
Q 5.515625 40.765625 12.171875 48.375 
Q 18.84375 56 30.609375 56 
z
" id="DejaVuSans-6f"/>
      <path d="M 54.890625 33.015625 
L 54.890625 0 
L 45.90625 0 
L 45.90625 32.71875 
Q 45.90625 40.484375 42.875 44.328125 
Q 39.84375 48.1875 33.796875 48.1875 
Q 26.515625 48.1875 22.3125 43.546875 
Q 18.109375 38.921875 18.109375 30.90625 
L 18.109375 0 
L 9.078125 0 
L 9.078125 54.6875 
L 18.109375 54.6875 
L 18.109375 46.1875 
Q 21.34375 51.125 25.703125 53.5625 
Q 30.078125 56 35.796875 56 
Q 45.21875 56 50.046875 50.171875 
Q 54.890625 44.34375 54.890625 33.015625 
z
" id="DejaVuSans-6e"/>
      <path id="DejaVuSans-20"/>
      <path d="M 10.59375 45.40625 
L 73.1875 45.40625 
L 73.1875 37.203125 
L 10.59375 37.203125 
z
M 10.59375 25.484375 
L 73.1875 25.484375 
L 73.1875 17.1875 
L 10.59375 17.1875 
z
" id="DejaVuSans-3d"/>
      <path d="M 10.6875 12.40625 
L 21 12.40625 
L 21 0 
L 10.6875 0 
z
" id="DejaVuSans-2e"/>
      <path d="M 11.71875 51.703125 
L 22.015625 51.703125 
L 22.015625 39.3125 
L 11.71875 39.3125 
z
M 11.71875 12.40625 
L 22.015625 12.40625 
L 22.015625 4 
L 14.015625 -11.625 
L 7.71875 -11.625 
L 11.71875 4 
z
" id="DejaVuSans-3b"/>
      <path d="M 4.890625 31.390625 
L 31.203125 31.390625 
L 31.203125 23.390625 
L 4.890625 23.390625 
z
" id="DejaVuSans-2d"/>
      <path d="M 8.203125 72.90625 
L 55.078125 72.90625 
L 55.078125 68.703125 
L 28.609375 0 
L 18.3125 0 
L 43.21875 64.59375 
L 8.203125 64.59375 
z
" id="DejaVuSans-37"/>
     </defs>
     <g style="fill:#262626;" transform="translate(194.416832 102.965075)scale(0.1 -0.1)">
      <use xlink:href="#DejaVuSans-70"/>
      <use x="63.476562" xlink:href="#DejaVuSans-65"/>
      <use x="125" xlink:href="#DejaVuSans-61"/>
      <use x="186.279297" xlink:href="#DejaVuSans-72"/>
      <use x="227.392578" xlink:href="#DejaVuSans-73"/>
      <use x="279.492188" xlink:href="#DejaVuSans-6f"/>
      <use x="340.673828" xlink:href="#DejaVuSans-6e"/>
      <use x="404.052734" xlink:href="#DejaVuSans-72"/>
      <use x="445.166016" xlink:href="#DejaVuSans-20"/>
      <use x="476.953125" xlink:href="#DejaVuSans-3d"/>
      <use x="560.742188" xlink:href="#DejaVuSans-20"/>
      <use x="592.529297" xlink:href="#DejaVuSans-30"/>
      <use x="656.152344" xlink:href="#DejaVuSans-2e"/>
      <use x="687.939453" xlink:href="#DejaVuSans-34"/>
      <use x="751.5625" xlink:href="#DejaVuSans-31"/>
      <use x="815.185547" xlink:href="#DejaVuSans-3b"/>
      <use x="848.876953" xlink:href="#DejaVuSans-20"/>
      <use x="880.664062" xlink:href="#DejaVuSans-70"/>
      <use x="944.140625" xlink:href="#DejaVuSans-20"/>
      <use x="975.927734" xlink:href="#DejaVuSans-3d"/>
      <use x="1059.716797" xlink:href="#DejaVuSans-20"/>
      <use x="1091.503906" xlink:href="#DejaVuSans-33"/>
      <use x="1155.126953" xlink:href="#DejaVuSans-2e"/>
      <use x="1186.914062" xlink:href="#DejaVuSans-32"/>
      <use x="1250.537109" xlink:href="#DejaVuSans-65"/>
      <use x="1312.060547" xlink:href="#DejaVuSans-2d"/>
      <use x="1348.144531" xlink:href="#DejaVuSans-30"/>
      <use x="1411.767578" xlink:href="#DejaVuSans-37"/>
     </g>
    </g>
   </g>
  </g>
  <g id="axes_2">
   <g id="patch_5">
    <path d="M 52.123438 73.172198 
L 350.955894 73.172198 
L 350.955894 7.2 
L 52.123438 7.2 
z
" style="fill:#eaeaf2;"/>
   </g>
   <g id="matplotlib.axis_3">
    <g id="xtick_7">
     <g id="line2d_31">
      <path clip-path="url(#p47f9d3a976)" d="M 99.075554 73.172198 
L 99.075554 7.2 
" style="fill:none;stroke:#ffffff;stroke-linecap:round;stroke-width:0.8;"/>
     </g>
     <g id="line2d_32"/>
    </g>
    <g id="xtick_8">
     <g id="line2d_33">
      <path clip-path="url(#p47f9d3a976)" d="M 148.997776 73.172198 
L 148.997776 7.2 
" style="fill:none;stroke:#ffffff;stroke-linecap:round;stroke-width:0.8;"/>
     </g>
     <g id="line2d_34"/>
    </g>
    <g id="xtick_9">
     <g id="line2d_35">
      <path clip-path="url(#p47f9d3a976)" d="M 198.919997 73.172198 
L 198.919997 7.2 
" style="fill:none;stroke:#ffffff;stroke-linecap:round;stroke-width:0.8;"/>
     </g>
     <g id="line2d_36"/>
    </g>
    <g id="xtick_10">
     <g id="line2d_37">
      <path clip-path="url(#p47f9d3a976)" d="M 248.842219 73.172198 
L 248.842219 7.2 
" style="fill:none;stroke:#ffffff;stroke-linecap:round;stroke-width:0.8;"/>
     </g>
     <g id="line2d_38"/>
    </g>
    <g id="xtick_11">
     <g id="line2d_39">
      <path clip-path="url(#p47f9d3a976)" d="M 298.764441 73.172198 
L 298.764441 7.2 
" style="fill:none;stroke:#ffffff;stroke-linecap:round;stroke-width:0.8;"/>
     </g>
     <g id="line2d_40"/>
    </g>
    <g id="xtick_12">
     <g id="line2d_41">
      <path clip-path="url(#p47f9d3a976)" d="M 348.686662 73.172198 
L 348.686662 7.2 
" style="fill:none;stroke:#ffffff;stroke-linecap:round;stroke-width:0.8;"/>
     </g>
     <g id="line2d_42"/>
    </g>
   </g>
   <g id="matplotlib.axis_4">
    <g id="ytick_9"/>
    <g id="ytick_10"/>
    <g id="ytick_11"/>
   </g>
   <g id="PolyCollection_1">
    <path clip-path="url(#p47f9d3a976)" d="M 59.455006 72.786918 
L 59.455006 73.172198 
L 62.325403 73.172198 
L 65.1958 73.172198 
L 68.066197 73.172198 
L 70.936595 73.172198 
L 73.806992 73.172198 
L 76.677389 73.172198 
L 79.547786 73.172198 
L 82.418183 73.172198 
L 85.28858 73.172198 
L 88.158978 73.172198 
L 91.029375 73.172198 
L 93.899772 73.172198 
L 96.770169 73.172198 
L 99.640566 73.172198 
L 102.510963 73.172198 
L 105.381361 73.172198 
L 108.251758 73.172198 
L 111.122155 73.172198 
L 113.992552 73.172198 
L 116.862949 73.172198 
L 119.733346 73.172198 
L 122.603744 73.172198 
L 125.474141 73.172198 
L 128.344538 73.172198 
L 131.214935 73.172198 
L 134.085332 73.172198 
L 136.95573 73.172198 
L 139.826127 73.172198 
L 142.696524 73.172198 
L 145.566921 73.172198 
L 148.437318 73.172198 
L 151.307715 73.172198 
L 154.178113 73.172198 
L 157.04851 73.172198 
L 159.918907 73.172198 
L 162.789304 73.172198 
L 165.659701 73.172198 
L 168.530098 73.172198 
L 171.400496 73.172198 
L 174.270893 73.172198 
L 177.14129 73.172198 
L 180.011687 73.172198 
L 182.882084 73.172198 
L 185.752481 73.172198 
L 188.622879 73.172198 
L 191.493276 73.172198 
L 194.363673 73.172198 
L 197.23407 73.172198 
L 200.104467 73.172198 
L 202.974865 73.172198 
L 205.845262 73.172198 
L 208.715659 73.172198 
L 211.586056 73.172198 
L 214.456453 73.172198 
L 217.32685 73.172198 
L 220.197248 73.172198 
L 223.067645 73.172198 
L 225.938042 73.172198 
L 228.808439 73.172198 
L 231.678836 73.172198 
L 234.549233 73.172198 
L 237.419631 73.172198 
L 240.290028 73.172198 
L 243.160425 73.172198 
L 246.030822 73.172198 
L 248.901219 73.172198 
L 251.771616 73.172198 
L 254.642014 73.172198 
L 257.512411 73.172198 
L 260.382808 73.172198 
L 263.253205 73.172198 
L 266.123602 73.172198 
L 268.994 73.172198 
L 271.864397 73.172198 
L 274.734794 73.172198 
L 277.605191 73.172198 
L 280.475588 73.172198 
L 283.345985 73.172198 
L 286.216383 73.172198 
L 289.08678 73.172198 
L 291.957177 73.172198 
L 294.827574 73.172198 
L 297.697971 73.172198 
L 300.568368 73.172198 
L 303.438766 73.172198 
L 306.309163 73.172198 
L 309.17956 73.172198 
L 312.049957 73.172198 
L 314.920354 73.172198 
L 317.790751 73.172198 
L 320.661149 73.172198 
L 323.531546 73.172198 
L 326.401943 73.172198 
L 329.27234 73.172198 
L 332.142737 73.172198 
L 335.013135 73.172198 
L 337.883532 73.172198 
L 340.753929 73.172198 
L 343.624326 73.172198 
L 343.624326 73.163542 
L 343.624326 73.163542 
L 340.753929 73.156016 
L 337.883532 73.143316 
L 335.013135 73.122972 
L 332.142737 73.092052 
L 329.27234 73.047498 
L 326.401943 72.986671 
L 323.531546 72.908051 
L 320.661149 72.811903 
L 317.790751 72.700704 
L 314.920354 72.579072 
L 312.049957 72.453126 
L 309.17956 72.329338 
L 306.309163 72.213218 
L 303.438766 72.108262 
L 300.568368 72.015561 
L 297.697971 71.934271 
L 294.827574 71.862795 
L 291.957177 71.800253 
L 289.08678 71.747702 
L 286.216383 71.708623 
L 283.345985 71.6885 
L 280.475588 71.693582 
L 277.605191 71.729231 
L 274.734794 71.798319 
L 271.864397 71.900128 
L 268.994 72.030036 
L 266.123602 72.180046 
L 263.253205 72.339996 
L 260.382808 72.499137 
L 257.512411 72.64769 
L 254.642014 72.77801 
L 251.771616 72.885138 
L 248.901219 72.966706 
L 246.030822 73.022309 
L 243.160425 73.052631 
L 240.290028 73.058618 
L 237.419631 73.040939 
L 234.549233 72.999859 
L 231.678836 72.935453 
L 228.808439 72.847917 
L 225.938042 72.737616 
L 223.067645 72.604468 
L 220.197248 72.446437 
L 217.32685 72.257214 
L 214.456453 72.023613 
L 211.586056 71.723643 
L 208.715659 71.326396 
L 205.845262 70.794758 
L 202.974865 70.091262 
L 200.104467 69.186473 
L 197.23407 68.068166 
L 194.363673 66.74887 
L 191.493276 65.26924 
L 188.622879 63.695519 
L 185.752481 62.110894 
L 182.882084 60.602336 
L 180.011687 59.246025 
L 177.14129 58.095005 
L 174.270893 57.172103 
L 171.400496 56.469512 
L 168.530098 55.954374 
L 165.659701 55.577991 
L 162.789304 55.285504 
L 159.918907 55.023289 
L 157.04851 54.742517 
L 154.178113 54.398871 
L 151.307715 53.949609 
L 148.437318 53.34965 
L 145.566921 52.548254 
L 142.696524 51.487268 
L 139.826127 50.101416 
L 136.95573 48.320794 
L 134.085332 46.075974 
L 131.214935 43.306513 
L 128.344538 39.974083 
L 125.474141 36.08106 
L 122.603744 31.69377 
L 119.733346 26.966608 
L 116.862949 22.159561 
L 113.992552 17.639194 
L 111.122155 13.853893 
L 108.251758 11.279584 
L 105.381361 10.341533 
L 102.510963 11.328234 
L 99.640566 14.320203 
L 96.770169 19.155915 
L 93.899772 25.447991 
L 91.029375 32.647964 
L 88.158978 40.143031 
L 85.28858 47.359098 
L 82.418183 53.844382 
L 79.547786 59.316271 
L 76.677389 63.666933 
L 73.806992 66.935157 
L 70.936595 69.259074 
L 68.066197 70.82542 
L 65.1958 71.827207 
L 62.325403 72.435689 
L 59.455006 72.786918 
z
" style="fill:#1f77b4;fill-opacity:0.25;"/>
   </g>
   <g id="line2d_43">
    <path clip-path="url(#p47f9d3a976)" d="M 59.455006 72.786918 
L 62.325403 72.435689 
L 65.1958 71.827207 
L 68.066197 70.82542 
L 70.936595 69.259074 
L 73.806992 66.935157 
L 76.677389 63.666933 
L 79.547786 59.316271 
L 82.418183 53.844382 
L 85.28858 47.359098 
L 88.158978 40.143031 
L 91.029375 32.647964 
L 93.899772 25.447991 
L 96.770169 19.155915 
L 99.640566 14.320203 
L 102.510963 11.328234 
L 105.381361 10.341533 
L 108.251758 11.279584 
L 111.122155 13.853893 
L 113.992552 17.639194 
L 116.862949 22.159561 
L 119.733346 26.966608 
L 122.603744 31.69377 
L 125.474141 36.08106 
L 128.344538 39.974083 
L 131.214935 43.306513 
L 134.085332 46.075974 
L 136.95573 48.320794 
L 139.826127 50.101416 
L 142.696524 51.487268 
L 145.566921 52.548254 
L 148.437318 53.34965 
L 151.307715 53.949609 
L 154.178113 54.398871 
L 157.04851 54.742517 
L 159.918907 55.023289 
L 162.789304 55.285504 
L 165.659701 55.577991 
L 168.530098 55.954374 
L 171.400496 56.469512 
L 174.270893 57.172103 
L 177.14129 58.095005 
L 180.011687 59.246025 
L 182.882084 60.602336 
L 185.752481 62.110894 
L 188.622879 63.695519 
L 191.493276 65.26924 
L 194.363673 66.74887 
L 197.23407 68.068166 
L 200.104467 69.186473 
L 202.974865 70.091262 
L 205.845262 70.794758 
L 208.715659 71.326396 
L 211.586056 71.723643 
L 214.456453 72.023613 
L 217.32685 72.257214 
L 220.197248 72.446437 
L 223.067645 72.604468 
L 225.938042 72.737616 
L 228.808439 72.847917 
L 231.678836 72.935453 
L 234.549233 72.999859 
L 237.419631 73.040939 
L 240.290028 73.058618 
L 243.160425 73.052631 
L 246.030822 73.022309 
L 248.901219 72.966706 
L 251.771616 72.885138 
L 254.642014 72.77801 
L 257.512411 72.64769 
L 260.382808 72.499137 
L 263.253205 72.339996 
L 266.123602 72.180046 
L 268.994 72.030036 
L 271.864397 71.900128 
L 274.734794 71.798319 
L 277.605191 71.729231 
L 280.475588 71.693582 
L 283.345985 71.6885 
L 286.216383 71.708623 
L 289.08678 71.747702 
L 291.957177 71.800253 
L 294.827574 71.862795 
L 297.697971 71.934271 
L 300.568368 72.015561 
L 303.438766 72.108262 
L 306.309163 72.213218 
L 309.17956 72.329338 
L 312.049957 72.453126 
L 314.920354 72.579072 
L 317.790751 72.700704 
L 320.661149 72.811903 
L 323.531546 72.908051 
L 326.401943 72.986671 
L 329.27234 73.047498 
L 332.142737 73.092052 
L 335.013135 73.122972 
L 337.883532 73.143316 
L 340.753929 73.156016 
L 343.624326 73.163542 
" style="fill:none;stroke:#1f77b4;stroke-linecap:round;stroke-width:1.5;"/>
   </g>
   <g id="patch_6">
    <path d="M 52.123438 73.172198 
L 350.955894 73.172198 
" style="fill:none;"/>
   </g>
  </g>
  <g id="axes_3">
   <g id="patch_7">
    <path d="M 363.94861 389.83875 
L 428.912188 389.83875 
L 428.912188 86.366638 
L 363.94861 86.366638 
z
" style="fill:#eaeaf2;"/>
   </g>
   <g id="matplotlib.axis_5">
    <g id="xtick_13"/>
    <g id="xtick_14"/>
   </g>
   <g id="matplotlib.axis_6">
    <g id="ytick_12">
     <g id="line2d_44">
      <path clip-path="url(#pcbd4c31b85)" d="M 363.94861 380.657452 
L 428.912188 380.657452 
" style="fill:none;stroke:#ffffff;stroke-linecap:round;stroke-width:0.8;"/>
     </g>
     <g id="line2d_45"/>
    </g>
    <g id="ytick_13">
     <g id="line2d_46">
      <path clip-path="url(#pcbd4c31b85)" d="M 363.94861 339.933339 
L 428.912188 339.933339 
" style="fill:none;stroke:#ffffff;stroke-linecap:round;stroke-width:0.8;"/>
     </g>
     <g id="line2d_47"/>
    </g>
    <g id="ytick_14">
     <g id="line2d_48">
      <path clip-path="url(#pcbd4c31b85)" d="M 363.94861 299.209226 
L 428.912188 299.209226 
" style="fill:none;stroke:#ffffff;stroke-linecap:round;stroke-width:0.8;"/>
     </g>
     <g id="line2d_49"/>
    </g>
    <g id="ytick_15">
     <g id="line2d_50">
      <path clip-path="url(#pcbd4c31b85)" d="M 363.94861 258.485113 
L 428.912188 258.485113 
" style="fill:none;stroke:#ffffff;stroke-linecap:round;stroke-width:0.8;"/>
     </g>
     <g id="line2d_51"/>
    </g>
    <g id="ytick_16">
     <g id="line2d_52">
      <path clip-path="url(#pcbd4c31b85)" d="M 363.94861 217.760999 
L 428.912188 217.760999 
" style="fill:none;stroke:#ffffff;stroke-linecap:round;stroke-width:0.8;"/>
     </g>
     <g id="line2d_53"/>
    </g>
    <g id="ytick_17">
     <g id="line2d_54">
      <path clip-path="url(#pcbd4c31b85)" d="M 363.94861 177.036886 
L 428.912188 177.036886 
" style="fill:none;stroke:#ffffff;stroke-linecap:round;stroke-width:0.8;"/>
     </g>
     <g id="line2d_55"/>
    </g>
    <g id="ytick_18">
     <g id="line2d_56">
      <path clip-path="url(#pcbd4c31b85)" d="M 363.94861 136.312773 
L 428.912188 136.312773 
" style="fill:none;stroke:#ffffff;stroke-linecap:round;stroke-width:0.8;"/>
     </g>
     <g id="line2d_57"/>
    </g>
    <g id="ytick_19">
     <g id="line2d_58">
      <path clip-path="url(#pcbd4c31b85)" d="M 363.94861 95.58866 
L 428.912188 95.58866 
" style="fill:none;stroke:#ffffff;stroke-linecap:round;stroke-width:0.8;"/>
     </g>
     <g id="line2d_59"/>
    </g>
   </g>
   <g id="PolyCollection_2">
    <path clip-path="url(#pcbd4c31b85)" d="M 364.165818 382.040495 
L 363.94861 382.040495 
L 363.94861 379.132661 
L 363.94861 376.224826 
L 363.94861 373.316992 
L 363.94861 370.409158 
L 363.94861 367.501323 
L 363.94861 364.593489 
L 363.94861 361.685655 
L 363.94861 358.77782 
L 363.94861 355.869986 
L 363.94861 352.962151 
L 363.94861 350.054317 
L 363.94861 347.146483 
L 363.94861 344.238648 
L 363.94861 341.330814 
L 363.94861 338.42298 
L 363.94861 335.515145 
L 363.94861 332.607311 
L 363.94861 329.699477 
L 363.94861 326.791642 
L 363.94861 323.883808 
L 363.94861 320.975973 
L 363.94861 318.068139 
L 363.94861 315.160305 
L 363.94861 312.25247 
L 363.94861 309.344636 
L 363.94861 306.436802 
L 363.94861 303.528967 
L 363.94861 300.621133 
L 363.94861 297.713298 
L 363.94861 294.805464 
L 363.94861 291.89763 
L 363.94861 288.989795 
L 363.94861 286.081961 
L 363.94861 283.174127 
L 363.94861 280.266292 
L 363.94861 277.358458 
L 363.94861 274.450624 
L 363.94861 271.542789 
L 363.94861 268.634955 
L 363.94861 265.72712 
L 363.94861 262.819286 
L 363.94861 259.911452 
L 363.94861 257.003617 
L 363.94861 254.095783 
L 363.94861 251.187949 
L 363.94861 248.280114 
L 363.94861 245.37228 
L 363.94861 242.464446 
L 363.94861 239.556611 
L 363.94861 236.648777 
L 363.94861 233.740942 
L 363.94861 230.833108 
L 363.94861 227.925274 
L 363.94861 225.017439 
L 363.94861 222.109605 
L 363.94861 219.201771 
L 363.94861 216.293936 
L 363.94861 213.386102 
L 363.94861 210.478267 
L 363.94861 207.570433 
L 363.94861 204.662599 
L 363.94861 201.754764 
L 363.94861 198.84693 
L 363.94861 195.939096 
L 363.94861 193.031261 
L 363.94861 190.123427 
L 363.94861 187.215593 
L 363.94861 184.307758 
L 363.94861 181.399924 
L 363.94861 178.492089 
L 363.94861 175.584255 
L 363.94861 172.676421 
L 363.94861 169.768586 
L 363.94861 166.860752 
L 363.94861 163.952918 
L 363.94861 161.045083 
L 363.94861 158.137249 
L 363.94861 155.229415 
L 363.94861 152.32158 
L 363.94861 149.413746 
L 363.94861 146.505911 
L 363.94861 143.598077 
L 363.94861 140.690243 
L 363.94861 137.782408 
L 363.94861 134.874574 
L 363.94861 131.96674 
L 363.94861 129.058905 
L 363.94861 126.151071 
L 363.94861 123.243236 
L 363.94861 120.335402 
L 363.94861 117.427568 
L 363.94861 114.519733 
L 363.94861 111.611899 
L 363.94861 108.704065 
L 363.94861 105.79623 
L 363.94861 102.888396 
L 363.94861 99.980562 
L 363.94861 97.072727 
L 363.94861 94.164893 
L 363.956829 94.164893 
L 363.956829 94.164893 
L 363.963519 97.072727 
L 363.974528 99.980562 
L 363.991791 102.888396 
L 364.017563 105.79623 
L 364.054143 108.704065 
L 364.103433 111.611899 
L 364.166358 114.519733 
L 364.242258 117.427568 
L 364.328444 120.335402 
L 364.420096 123.243236 
L 364.510686 126.151071 
L 364.592938 129.058905 
L 364.660208 131.96674 
L 364.707965 134.874574 
L 364.734975 137.782408 
L 364.743807 140.690243 
L 364.740446 143.598077 
L 364.733087 146.505911 
L 364.730399 149.413746 
L 364.739805 152.32158 
L 364.766282 155.229415 
L 364.812037 158.137249 
L 364.877145 161.045083 
L 364.960853 163.952918 
L 365.063055 166.860752 
L 365.185342 169.768586 
L 365.331213 172.676421 
L 365.505301 175.584255 
L 365.711874 178.492089 
L 365.953103 181.399924 
L 366.227669 184.307758 
L 366.530142 187.215593 
L 366.851217 190.123427 
L 367.178619 193.031261 
L 367.498249 195.939096 
L 367.795256 198.84693 
L 368.054882 201.754764 
L 368.263308 204.662599 
L 368.408838 207.570433 
L 368.483738 210.478267 
L 368.486649 213.386102 
L 368.425045 216.293936 
L 368.316807 219.201771 
L 368.189954 222.109605 
L 368.079904 225.017439 
L 368.024397 227.925274 
L 368.056959 230.833108 
L 368.200433 233.740942 
L 368.462222 236.648777 
L 368.832573 239.556611 
L 369.286493 242.464446 
L 369.788987 245.37228 
L 370.302498 248.280114 
L 370.794963 251.187949 
L 371.246728 254.095783 
L 371.654923 257.003617 
L 372.034476 259.911452 
L 372.415774 262.819286 
L 372.839829 265.72712 
L 373.352399 268.634955 
L 373.998759 271.542789 
L 374.820473 274.450624 
L 375.85471 277.358458 
L 377.135659 280.266292 
L 378.696667 283.174127 
L 380.571404 286.081961 
L 382.792661 288.989795 
L 385.388259 291.89763 
L 388.374651 294.805464 
L 391.749632 297.713298 
L 395.485792 300.621133 
L 399.525961 303.528967 
L 403.780981 306.436802 
L 408.12937 309.344636 
L 412.418088 312.25247 
L 416.46411 315.160305 
L 420.057657 318.068139 
L 422.969207 320.975973 
L 424.962971 323.883808 
L 425.818684 326.791642 
L 425.36102 329.699477 
L 423.492462 332.607311 
L 420.2222 335.515145 
L 415.682399 338.42298 
L 410.124827 341.330814 
L 403.895464 344.238648 
L 397.390756 347.146483 
L 391.004581 350.054317 
L 385.077626 352.962151 
L 379.859914 355.869986 
L 375.493011 358.77782 
L 372.012829 361.685655 
L 369.368791 364.593489 
L 367.452118 367.501323 
L 366.12553 370.409158 
L 365.248401 373.316992 
L 364.694136 376.224826 
L 364.359283 379.132661 
L 364.165818 382.040495 
z
" style="fill:#1f77b4;fill-opacity:0.25;"/>
   </g>
   <g id="line2d_60">
    <path clip-path="url(#pcbd4c31b85)" d="M 364.165818 382.040495 
L 364.359283 379.132661 
L 364.694136 376.224826 
L 365.248401 373.316992 
L 366.12553 370.409158 
L 367.452118 367.501323 
L 369.368791 364.593489 
L 372.012829 361.685655 
L 375.493011 358.77782 
L 379.859914 355.869986 
L 385.077626 352.962151 
L 391.004581 350.054317 
L 397.390756 347.146483 
L 403.895464 344.238648 
L 410.124827 341.330814 
L 415.682399 338.42298 
L 420.2222 335.515145 
L 423.492462 332.607311 
L 425.36102 329.699477 
L 425.818684 326.791642 
L 424.962971 323.883808 
L 422.969207 320.975973 
L 420.057657 318.068139 
L 416.46411 315.160305 
L 412.418088 312.25247 
L 408.12937 309.344636 
L 403.780981 306.436802 
L 399.525961 303.528967 
L 395.485792 300.621133 
L 391.749632 297.713298 
L 388.374651 294.805464 
L 385.388259 291.89763 
L 382.792661 288.989795 
L 380.571404 286.081961 
L 378.696667 283.174127 
L 377.135659 280.266292 
L 375.85471 277.358458 
L 374.820473 274.450624 
L 373.998759 271.542789 
L 373.352399 268.634955 
L 372.839829 265.72712 
L 372.415774 262.819286 
L 372.034476 259.911452 
L 371.654923 257.003617 
L 371.246728 254.095783 
L 370.794963 251.187949 
L 370.302498 248.280114 
L 369.788987 245.37228 
L 369.286493 242.464446 
L 368.832573 239.556611 
L 368.462222 236.648777 
L 368.200433 233.740942 
L 368.056959 230.833108 
L 368.024397 227.925274 
L 368.079904 225.017439 
L 368.189954 222.109605 
L 368.316807 219.201771 
L 368.425045 216.293936 
L 368.486649 213.386102 
L 368.483738 210.478267 
L 368.408838 207.570433 
L 368.263308 204.662599 
L 368.054882 201.754764 
L 367.795256 198.84693 
L 367.498249 195.939096 
L 367.178619 193.031261 
L 366.851217 190.123427 
L 366.530142 187.215593 
L 366.227669 184.307758 
L 365.953103 181.399924 
L 365.711874 178.492089 
L 365.505301 175.584255 
L 365.331213 172.676421 
L 365.185342 169.768586 
L 365.063055 166.860752 
L 364.960853 163.952918 
L 364.877145 161.045083 
L 364.812037 158.137249 
L 364.766282 155.229415 
L 364.739805 152.32158 
L 364.730399 149.413746 
L 364.733087 146.505911 
L 364.740446 143.598077 
L 364.743807 140.690243 
L 364.734975 137.782408 
L 364.707965 134.874574 
L 364.660208 131.96674 
L 364.592938 129.058905 
L 364.510686 126.151071 
L 364.420096 123.243236 
L 364.328444 120.335402 
L 364.242258 117.427568 
L 364.166358 114.519733 
L 364.103433 111.611899 
L 364.054143 108.704065 
L 364.017563 105.79623 
L 363.991791 102.888396 
L 363.974528 99.980562 
L 363.963519 97.072727 
L 363.956829 94.164893 
" style="fill:none;stroke:#1f77b4;stroke-linecap:round;stroke-width:1.5;"/>
   </g>
   <g id="patch_8">
    <path d="M 363.94861 389.83875 
L 363.94861 86.366638 
" style="fill:none;"/>
   </g>
  </g>
 </g>
 <defs>
  <clipPath id="pbd918ef482">
   <rect height="303.472112" width="298.832457" x="52.123438" y="86.366638"/>
  </clipPath>
  <clipPath id="p47f9d3a976">
   <rect height="65.972198" width="298.832457" x="52.123438" y="7.2"/>
  </clipPath>
  <clipPath id="pcbd4c31b85">
   <rect height="303.472112" width="64.963578" x="363.94861" y="86.366638"/>
  </clipPath>
 </defs>
</svg>
