<?xml version="1.0" encoding="utf-8" standalone="no"?>
<!DOCTYPE svg PUBLIC "-//W3C//DTD SVG 1.1//EN"
  "http://www.w3.org/Graphics/SVG/1.1/DTD/svg11.dtd">
<!-- Created with matplotlib (http://matplotlib.org/) -->
<svg height="424pt" version="1.1" viewBox="0 0 436 424" width="436pt" xmlns="http://www.w3.org/2000/svg" xmlns:xlink="http://www.w3.org/1999/xlink">
 <defs>
  <style type="text/css">
*{stroke-linecap:butt;stroke-linejoin:round;}
  </style>
 </defs>
 <g id="figure_1">
  <g id="patch_1">
   <path d="M 0 424.173125 
L 436.112187 424.173125 
L 436.112187 0 
L 0 0 
z
" style="fill:#ffffff;"/>
  </g>
  <g id="axes_1">
   <g id="patch_2">
    <path d="M 52.123438 389.83875 
L 350.955894 389.83875 
L 350.955894 86.366638 
L 52.123438 86.366638 
z
" style="fill:#eaeaf2;"/>
   </g>
   <g id="matplotlib.axis_1">
    <g id="xtick_1">
     <g id="line2d_1">
      <path clip-path="url(#p58aa619087)" d="M 99.075554 389.83875 
L 99.075554 86.366638 
" style="fill:none;stroke:#ffffff;stroke-linecap:round;stroke-width:0.8;"/>
     </g>
     <g id="line2d_2"/>
     <g id="text_1">
      <!-- 0 -->
      <defs>
       <path d="M 31.78125 66.40625 
Q 24.171875 66.40625 20.328125 58.90625 
Q 16.5 51.421875 16.5 36.375 
Q 16.5 21.390625 20.328125 13.890625 
Q 24.171875 6.390625 31.78125 6.390625 
Q 39.453125 6.390625 43.28125 13.890625 
Q 47.125 21.390625 47.125 36.375 
Q 47.125 51.421875 43.28125 58.90625 
Q 39.453125 66.40625 31.78125 66.40625 
z
M 31.78125 74.21875 
Q 44.046875 74.21875 50.515625 64.515625 
Q 56.984375 54.828125 56.984375 36.375 
Q 56.984375 17.96875 50.515625 8.265625 
Q 44.046875 -1.421875 31.78125 -1.421875 
Q 19.53125 -1.421875 13.0625 8.265625 
Q 6.59375 17.96875 6.59375 36.375 
Q 6.59375 54.828125 13.0625 64.515625 
Q 19.53125 74.21875 31.78125 74.21875 
z
" id="DejaVuSans-30"/>
      </defs>
      <g style="fill:#262626;" transform="translate(95.894304 400.937187)scale(0.1 -0.1)">
       <use xlink:href="#DejaVuSans-30"/>
      </g>
     </g>
    </g>
    <g id="xtick_2">
     <g id="line2d_3">
      <path clip-path="url(#p58aa619087)" d="M 148.997776 389.83875 
L 148.997776 86.366638 
" style="fill:none;stroke:#ffffff;stroke-linecap:round;stroke-width:0.8;"/>
     </g>
     <g id="line2d_4"/>
     <g id="text_2">
      <!-- 200 -->
      <defs>
       <path d="M 19.1875 8.296875 
L 53.609375 8.296875 
L 53.609375 0 
L 7.328125 0 
L 7.328125 8.296875 
Q 12.9375 14.109375 22.625 23.890625 
Q 32.328125 33.6875 34.8125 36.53125 
Q 39.546875 41.84375 41.421875 45.53125 
Q 43.3125 49.21875 43.3125 52.78125 
Q 43.3125 58.59375 39.234375 62.25 
Q 35.15625 65.921875 28.609375 65.921875 
Q 23.96875 65.921875 18.8125 64.3125 
Q 13.671875 62.703125 7.8125 59.421875 
L 7.8125 69.390625 
Q 13.765625 71.78125 18.9375 73 
Q 24.125 74.21875 28.421875 74.21875 
Q 39.75 74.21875 46.484375 68.546875 
Q 53.21875 62.890625 53.21875 53.421875 
Q 53.21875 48.921875 51.53125 44.890625 
Q 49.859375 40.875 45.40625 35.40625 
Q 44.1875 33.984375 37.640625 27.21875 
Q 31.109375 20.453125 19.1875 8.296875 
z
" id="DejaVuSans-32"/>
      </defs>
      <g style="fill:#262626;" transform="translate(139.454026 400.937187)scale(0.1 -0.1)">
       <use xlink:href="#DejaVuSans-32"/>
       <use x="63.623047" xlink:href="#DejaVuSans-30"/>
       <use x="127.246094" xlink:href="#DejaVuSans-30"/>
      </g>
     </g>
    </g>
    <g id="xtick_3">
     <g id="line2d_5">
      <path clip-path="url(#p58aa619087)" d="M 198.919997 389.83875 
L 198.919997 86.366638 
" style="fill:none;stroke:#ffffff;stroke-linecap:round;stroke-width:0.8;"/>
     </g>
     <g id="line2d_6"/>
     <g id="text_3">
      <!-- 400 -->
      <defs>
       <path d="M 37.796875 64.3125 
L 12.890625 25.390625 
L 37.796875 25.390625 
z
M 35.203125 72.90625 
L 47.609375 72.90625 
L 47.609375 25.390625 
L 58.015625 25.390625 
L 58.015625 17.1875 
L 47.609375 17.1875 
L 47.609375 0 
L 37.796875 0 
L 37.796875 17.1875 
L 4.890625 17.1875 
L 4.890625 26.703125 
z
" id="DejaVuSans-34"/>
      </defs>
      <g style="fill:#262626;" transform="translate(189.376247 400.937187)scale(0.1 -0.1)">
       <use xlink:href="#DejaVuSans-34"/>
       <use x="63.623047" xlink:href="#DejaVuSans-30"/>
       <use x="127.246094" xlink:href="#DejaVuSans-30"/>
      </g>
     </g>
    </g>
    <g id="xtick_4">
     <g id="line2d_7">
      <path clip-path="url(#p58aa619087)" d="M 248.842219 389.83875 
L 248.842219 86.366638 
" style="fill:none;stroke:#ffffff;stroke-linecap:round;stroke-width:0.8;"/>
     </g>
     <g id="line2d_8"/>
     <g id="text_4">
      <!-- 600 -->
      <defs>
       <path d="M 33.015625 40.375 
Q 26.375 40.375 22.484375 35.828125 
Q 18.609375 31.296875 18.609375 23.390625 
Q 18.609375 15.53125 22.484375 10.953125 
Q 26.375 6.390625 33.015625 6.390625 
Q 39.65625 6.390625 43.53125 10.953125 
Q 47.40625 15.53125 47.40625 23.390625 
Q 47.40625 31.296875 43.53125 35.828125 
Q 39.65625 40.375 33.015625 40.375 
z
M 52.59375 71.296875 
L 52.59375 62.3125 
Q 48.875 64.0625 45.09375 64.984375 
Q 41.3125 65.921875 37.59375 65.921875 
Q 27.828125 65.921875 22.671875 59.328125 
Q 17.53125 52.734375 16.796875 39.40625 
Q 19.671875 43.65625 24.015625 45.921875 
Q 28.375 48.1875 33.59375 48.1875 
Q 44.578125 48.1875 50.953125 41.515625 
Q 57.328125 34.859375 57.328125 23.390625 
Q 57.328125 12.15625 50.6875 5.359375 
Q 44.046875 -1.421875 33.015625 -1.421875 
Q 20.359375 -1.421875 13.671875 8.265625 
Q 6.984375 17.96875 6.984375 36.375 
Q 6.984375 53.65625 15.1875 63.9375 
Q 23.390625 74.21875 37.203125 74.21875 
Q 40.921875 74.21875 44.703125 73.484375 
Q 48.484375 72.75 52.59375 71.296875 
z
" id="DejaVuSans-36"/>
      </defs>
      <g style="fill:#262626;" transform="translate(239.298469 400.937187)scale(0.1 -0.1)">
       <use xlink:href="#DejaVuSans-36"/>
       <use x="63.623047" xlink:href="#DejaVuSans-30"/>
       <use x="127.246094" xlink:href="#DejaVuSans-30"/>
      </g>
     </g>
    </g>
    <g id="xtick_5">
     <g id="line2d_9">
      <path clip-path="url(#p58aa619087)" d="M 298.764441 389.83875 
L 298.764441 86.366638 
" style="fill:none;stroke:#ffffff;stroke-linecap:round;stroke-width:0.8;"/>
     </g>
     <g id="line2d_10"/>
     <g id="text_5">
      <!-- 800 -->
      <defs>
       <path d="M 31.78125 34.625 
Q 24.75 34.625 20.71875 30.859375 
Q 16.703125 27.09375 16.703125 20.515625 
Q 16.703125 13.921875 20.71875 10.15625 
Q 24.75 6.390625 31.78125 6.390625 
Q 38.8125 6.390625 42.859375 10.171875 
Q 46.921875 13.96875 46.921875 20.515625 
Q 46.921875 27.09375 42.890625 30.859375 
Q 38.875 34.625 31.78125 34.625 
z
M 21.921875 38.8125 
Q 15.578125 40.375 12.03125 44.71875 
Q 8.5 49.078125 8.5 55.328125 
Q 8.5 64.0625 14.71875 69.140625 
Q 20.953125 74.21875 31.78125 74.21875 
Q 42.671875 74.21875 48.875 69.140625 
Q 55.078125 64.0625 55.078125 55.328125 
Q 55.078125 49.078125 51.53125 44.71875 
Q 48 40.375 41.703125 38.8125 
Q 48.828125 37.15625 52.796875 32.3125 
Q 56.78125 27.484375 56.78125 20.515625 
Q 56.78125 9.90625 50.3125 4.234375 
Q 43.84375 -1.421875 31.78125 -1.421875 
Q 19.734375 -1.421875 13.25 4.234375 
Q 6.78125 9.90625 6.78125 20.515625 
Q 6.78125 27.484375 10.78125 32.3125 
Q 14.796875 37.15625 21.921875 38.8125 
z
M 18.3125 54.390625 
Q 18.3125 48.734375 21.84375 45.5625 
Q 25.390625 42.390625 31.78125 42.390625 
Q 38.140625 42.390625 41.71875 45.5625 
Q 45.3125 48.734375 45.3125 54.390625 
Q 45.3125 60.0625 41.71875 63.234375 
Q 38.140625 66.40625 31.78125 66.40625 
Q 25.390625 66.40625 21.84375 63.234375 
Q 18.3125 60.0625 18.3125 54.390625 
z
" id="DejaVuSans-38"/>
      </defs>
      <g style="fill:#262626;" transform="translate(289.220691 400.937187)scale(0.1 -0.1)">
       <use xlink:href="#DejaVuSans-38"/>
       <use x="63.623047" xlink:href="#DejaVuSans-30"/>
       <use x="127.246094" xlink:href="#DejaVuSans-30"/>
      </g>
     </g>
    </g>
    <g id="xtick_6">
     <g id="line2d_11">
      <path clip-path="url(#p58aa619087)" d="M 348.686662 389.83875 
L 348.686662 86.366638 
" style="fill:none;stroke:#ffffff;stroke-linecap:round;stroke-width:0.8;"/>
     </g>
     <g id="line2d_12"/>
     <g id="text_6">
      <!-- 1000 -->
      <defs>
       <path d="M 12.40625 8.296875 
L 28.515625 8.296875 
L 28.515625 63.921875 
L 10.984375 60.40625 
L 10.984375 69.390625 
L 28.421875 72.90625 
L 38.28125 72.90625 
L 38.28125 8.296875 
L 54.390625 8.296875 
L 54.390625 0 
L 12.40625 0 
z
" id="DejaVuSans-31"/>
      </defs>
      <g style="fill:#262626;" transform="translate(335.961662 400.937187)scale(0.1 -0.1)">
       <use xlink:href="#DejaVuSans-31"/>
       <use x="63.623047" xlink:href="#DejaVuSans-30"/>
       <use x="127.246094" xlink:href="#DejaVuSans-30"/>
       <use x="190.869141" xlink:href="#DejaVuSans-30"/>
      </g>
     </g>
    </g>
    <g id="text_7">
     <!-- Sum_Credit -->
     <defs>
      <path d="M 53.515625 70.515625 
L 53.515625 60.890625 
Q 47.90625 63.578125 42.921875 64.890625 
Q 37.9375 66.21875 33.296875 66.21875 
Q 25.25 66.21875 20.875 63.09375 
Q 16.5 59.96875 16.5 54.203125 
Q 16.5 49.359375 19.40625 46.890625 
Q 22.3125 44.4375 30.421875 42.921875 
L 36.375 41.703125 
Q 47.40625 39.59375 52.65625 34.296875 
Q 57.90625 29 57.90625 20.125 
Q 57.90625 9.515625 50.796875 4.046875 
Q 43.703125 -1.421875 29.984375 -1.421875 
Q 24.8125 -1.421875 18.96875 -0.25 
Q 13.140625 0.921875 6.890625 3.21875 
L 6.890625 13.375 
Q 12.890625 10.015625 18.65625 8.296875 
Q 24.421875 6.59375 29.984375 6.59375 
Q 38.421875 6.59375 43.015625 9.90625 
Q 47.609375 13.234375 47.609375 19.390625 
Q 47.609375 24.75 44.3125 27.78125 
Q 41.015625 30.8125 33.5 32.328125 
L 27.484375 33.5 
Q 16.453125 35.6875 11.515625 40.375 
Q 6.59375 45.0625 6.59375 53.421875 
Q 6.59375 63.09375 13.40625 68.65625 
Q 20.21875 74.21875 32.171875 74.21875 
Q 37.3125 74.21875 42.625 73.28125 
Q 47.953125 72.359375 53.515625 70.515625 
z
" id="DejaVuSans-53"/>
      <path d="M 8.5 21.578125 
L 8.5 54.6875 
L 17.484375 54.6875 
L 17.484375 21.921875 
Q 17.484375 14.15625 20.5 10.265625 
Q 23.53125 6.390625 29.59375 6.390625 
Q 36.859375 6.390625 41.078125 11.03125 
Q 45.3125 15.671875 45.3125 23.6875 
L 45.3125 54.6875 
L 54.296875 54.6875 
L 54.296875 0 
L 45.3125 0 
L 45.3125 8.40625 
Q 42.046875 3.421875 37.71875 1 
Q 33.40625 -1.421875 27.6875 -1.421875 
Q 18.265625 -1.421875 13.375 4.4375 
Q 8.5 10.296875 8.5 21.578125 
z
M 31.109375 56 
z
" id="DejaVuSans-75"/>
      <path d="M 52 44.1875 
Q 55.375 50.25 60.0625 53.125 
Q 64.75 56 71.09375 56 
Q 79.640625 56 84.28125 50.015625 
Q 88.921875 44.046875 88.921875 33.015625 
L 88.921875 0 
L 79.890625 0 
L 79.890625 32.71875 
Q 79.890625 40.578125 77.09375 44.375 
Q 74.3125 48.1875 68.609375 48.1875 
Q 61.625 48.1875 57.5625 43.546875 
Q 53.515625 38.921875 53.515625 30.90625 
L 53.515625 0 
L 44.484375 0 
L 44.484375 32.71875 
Q 44.484375 40.625 41.703125 44.40625 
Q 38.921875 48.1875 33.109375 48.1875 
Q 26.21875 48.1875 22.15625 43.53125 
Q 18.109375 38.875 18.109375 30.90625 
L 18.109375 0 
L 9.078125 0 
L 9.078125 54.6875 
L 18.109375 54.6875 
L 18.109375 46.1875 
Q 21.1875 51.21875 25.484375 53.609375 
Q 29.78125 56 35.6875 56 
Q 41.65625 56 45.828125 52.96875 
Q 50 49.953125 52 44.1875 
z
" id="DejaVuSans-6d"/>
      <path d="M 50.984375 -16.609375 
L 50.984375 -23.578125 
L -0.984375 -23.578125 
L -0.984375 -16.609375 
z
" id="DejaVuSans-5f"/>
      <path d="M 64.40625 67.28125 
L 64.40625 56.890625 
Q 59.421875 61.53125 53.78125 63.8125 
Q 48.140625 66.109375 41.796875 66.109375 
Q 29.296875 66.109375 22.65625 58.46875 
Q 16.015625 50.828125 16.015625 36.375 
Q 16.015625 21.96875 22.65625 14.328125 
Q 29.296875 6.6875 41.796875 6.6875 
Q 48.140625 6.6875 53.78125 8.984375 
Q 59.421875 11.28125 64.40625 15.921875 
L 64.40625 5.609375 
Q 59.234375 2.09375 53.4375 0.328125 
Q 47.65625 -1.421875 41.21875 -1.421875 
Q 24.65625 -1.421875 15.125 8.703125 
Q 5.609375 18.84375 5.609375 36.375 
Q 5.609375 53.953125 15.125 64.078125 
Q 24.65625 74.21875 41.21875 74.21875 
Q 47.75 74.21875 53.53125 72.484375 
Q 59.328125 70.75 64.40625 67.28125 
z
" id="DejaVuSans-43"/>
      <path d="M 41.109375 46.296875 
Q 39.59375 47.171875 37.8125 47.578125 
Q 36.03125 48 33.890625 48 
Q 26.265625 48 22.1875 43.046875 
Q 18.109375 38.09375 18.109375 28.8125 
L 18.109375 0 
L 9.078125 0 
L 9.078125 54.6875 
L 18.109375 54.6875 
L 18.109375 46.1875 
Q 20.953125 51.171875 25.484375 53.578125 
Q 30.03125 56 36.53125 56 
Q 37.453125 56 38.578125 55.875 
Q 39.703125 55.765625 41.0625 55.515625 
z
" id="DejaVuSans-72"/>
      <path d="M 56.203125 29.59375 
L 56.203125 25.203125 
L 14.890625 25.203125 
Q 15.484375 15.921875 20.484375 11.0625 
Q 25.484375 6.203125 34.421875 6.203125 
Q 39.59375 6.203125 44.453125 7.46875 
Q 49.3125 8.734375 54.109375 11.28125 
L 54.109375 2.78125 
Q 49.265625 0.734375 44.1875 -0.34375 
Q 39.109375 -1.421875 33.890625 -1.421875 
Q 20.796875 -1.421875 13.15625 6.1875 
Q 5.515625 13.8125 5.515625 26.8125 
Q 5.515625 40.234375 12.765625 48.109375 
Q 20.015625 56 32.328125 56 
Q 43.359375 56 49.78125 48.890625 
Q 56.203125 41.796875 56.203125 29.59375 
z
M 47.21875 32.234375 
Q 47.125 39.59375 43.09375 43.984375 
Q 39.0625 48.390625 32.421875 48.390625 
Q 24.90625 48.390625 20.390625 44.140625 
Q 15.875 39.890625 15.1875 32.171875 
z
" id="DejaVuSans-65"/>
      <path d="M 45.40625 46.390625 
L 45.40625 75.984375 
L 54.390625 75.984375 
L 54.390625 0 
L 45.40625 0 
L 45.40625 8.203125 
Q 42.578125 3.328125 38.25 0.953125 
Q 33.9375 -1.421875 27.875 -1.421875 
Q 17.96875 -1.421875 11.734375 6.484375 
Q 5.515625 14.40625 5.515625 27.296875 
Q 5.515625 40.1875 11.734375 48.09375 
Q 17.96875 56 27.875 56 
Q 33.9375 56 38.25 53.625 
Q 42.578125 51.265625 45.40625 46.390625 
z
M 14.796875 27.296875 
Q 14.796875 17.390625 18.875 11.75 
Q 22.953125 6.109375 30.078125 6.109375 
Q 37.203125 6.109375 41.296875 11.75 
Q 45.40625 17.390625 45.40625 27.296875 
Q 45.40625 37.203125 41.296875 42.84375 
Q 37.203125 48.484375 30.078125 48.484375 
Q 22.953125 48.484375 18.875 42.84375 
Q 14.796875 37.203125 14.796875 27.296875 
z
" id="DejaVuSans-64"/>
      <path d="M 9.421875 54.6875 
L 18.40625 54.6875 
L 18.40625 0 
L 9.421875 0 
z
M 9.421875 75.984375 
L 18.40625 75.984375 
L 18.40625 64.59375 
L 9.421875 64.59375 
z
" id="DejaVuSans-69"/>
      <path d="M 18.3125 70.21875 
L 18.3125 54.6875 
L 36.8125 54.6875 
L 36.8125 47.703125 
L 18.3125 47.703125 
L 18.3125 18.015625 
Q 18.3125 11.328125 20.140625 9.421875 
Q 21.96875 7.515625 27.59375 7.515625 
L 36.8125 7.515625 
L 36.8125 0 
L 27.59375 0 
Q 17.1875 0 13.234375 3.875 
Q 9.28125 7.765625 9.28125 18.015625 
L 9.28125 47.703125 
L 2.6875 47.703125 
L 2.6875 54.6875 
L 9.28125 54.6875 
L 9.28125 70.21875 
z
" id="DejaVuSans-74"/>
     </defs>
     <g style="fill:#262626;" transform="translate(172.681072 414.615312)scale(0.1 -0.1)">
      <use xlink:href="#DejaVuSans-53"/>
      <use x="63.476562" xlink:href="#DejaVuSans-75"/>
      <use x="126.855469" xlink:href="#DejaVuSans-6d"/>
      <use x="224.267578" xlink:href="#DejaVuSans-5f"/>
      <use x="274.267578" xlink:href="#DejaVuSans-43"/>
      <use x="344.091797" xlink:href="#DejaVuSans-72"/>
      <use x="385.173828" xlink:href="#DejaVuSans-65"/>
      <use x="446.697266" xlink:href="#DejaVuSans-64"/>
      <use x="510.173828" xlink:href="#DejaVuSans-69"/>
      <use x="537.957031" xlink:href="#DejaVuSans-74"/>
     </g>
    </g>
   </g>
   <g id="matplotlib.axis_2">
    <g id="ytick_1">
     <g id="line2d_13">
      <path clip-path="url(#p58aa619087)" d="M 52.123438 380.683641 
L 350.955894 380.683641 
" style="fill:none;stroke:#ffffff;stroke-linecap:round;stroke-width:0.8;"/>
     </g>
     <g id="line2d_14"/>
     <g id="text_8">
      <!-- −100 -->
      <defs>
       <path d="M 10.59375 35.5 
L 73.1875 35.5 
L 73.1875 27.203125 
L 10.59375 27.203125 
z
" id="DejaVuSans-2212"/>
      </defs>
      <g style="fill:#262626;" transform="translate(21.15625 384.482859)scale(0.1 -0.1)">
       <use xlink:href="#DejaVuSans-2212"/>
       <use x="83.789062" xlink:href="#DejaVuSans-31"/>
       <use x="147.412109" xlink:href="#DejaVuSans-30"/>
       <use x="211.035156" xlink:href="#DejaVuSans-30"/>
      </g>
     </g>
    </g>
    <g id="ytick_2">
     <g id="line2d_15">
      <path clip-path="url(#p58aa619087)" d="M 52.123438 339.952046 
L 350.955894 339.952046 
" style="fill:none;stroke:#ffffff;stroke-linecap:round;stroke-width:0.8;"/>
     </g>
     <g id="line2d_16"/>
     <g id="text_9">
      <!-- 0 -->
      <g style="fill:#262626;" transform="translate(42.260937 343.751265)scale(0.1 -0.1)">
       <use xlink:href="#DejaVuSans-30"/>
      </g>
     </g>
    </g>
    <g id="ytick_3">
     <g id="line2d_17">
      <path clip-path="url(#p58aa619087)" d="M 52.123438 299.220452 
L 350.955894 299.220452 
" style="fill:none;stroke:#ffffff;stroke-linecap:round;stroke-width:0.8;"/>
     </g>
     <g id="line2d_18"/>
     <g id="text_10">
      <!-- 100 -->
      <g style="fill:#262626;" transform="translate(29.535937 303.01967)scale(0.1 -0.1)">
       <use xlink:href="#DejaVuSans-31"/>
       <use x="63.623047" xlink:href="#DejaVuSans-30"/>
       <use x="127.246094" xlink:href="#DejaVuSans-30"/>
      </g>
     </g>
    </g>
    <g id="ytick_4">
     <g id="line2d_19">
      <path clip-path="url(#p58aa619087)" d="M 52.123438 258.488857 
L 350.955894 258.488857 
" style="fill:none;stroke:#ffffff;stroke-linecap:round;stroke-width:0.8;"/>
     </g>
     <g id="line2d_20"/>
     <g id="text_11">
      <!-- 200 -->
      <g style="fill:#262626;" transform="translate(29.535937 262.288076)scale(0.1 -0.1)">
       <use xlink:href="#DejaVuSans-32"/>
       <use x="63.623047" xlink:href="#DejaVuSans-30"/>
       <use x="127.246094" xlink:href="#DejaVuSans-30"/>
      </g>
     </g>
    </g>
    <g id="ytick_5">
     <g id="line2d_21">
      <path clip-path="url(#p58aa619087)" d="M 52.123438 217.757263 
L 350.955894 217.757263 
" style="fill:none;stroke:#ffffff;stroke-linecap:round;stroke-width:0.8;"/>
     </g>
     <g id="line2d_22"/>
     <g id="text_12">
      <!-- 300 -->
      <defs>
       <path d="M 40.578125 39.3125 
Q 47.65625 37.796875 51.625 33 
Q 55.609375 28.21875 55.609375 21.1875 
Q 55.609375 10.40625 48.1875 4.484375 
Q 40.765625 -1.421875 27.09375 -1.421875 
Q 22.515625 -1.421875 17.65625 -0.515625 
Q 12.796875 0.390625 7.625 2.203125 
L 7.625 11.71875 
Q 11.71875 9.328125 16.59375 8.109375 
Q 21.484375 6.890625 26.8125 6.890625 
Q 36.078125 6.890625 40.9375 10.546875 
Q 45.796875 14.203125 45.796875 21.1875 
Q 45.796875 27.640625 41.28125 31.265625 
Q 36.765625 34.90625 28.71875 34.90625 
L 20.21875 34.90625 
L 20.21875 43.015625 
L 29.109375 43.015625 
Q 36.375 43.015625 40.234375 45.921875 
Q 44.09375 48.828125 44.09375 54.296875 
Q 44.09375 59.90625 40.109375 62.90625 
Q 36.140625 65.921875 28.71875 65.921875 
Q 24.65625 65.921875 20.015625 65.03125 
Q 15.375 64.15625 9.8125 62.3125 
L 9.8125 71.09375 
Q 15.4375 72.65625 20.34375 73.4375 
Q 25.25 74.21875 29.59375 74.21875 
Q 40.828125 74.21875 47.359375 69.109375 
Q 53.90625 64.015625 53.90625 55.328125 
Q 53.90625 49.265625 50.4375 45.09375 
Q 46.96875 40.921875 40.578125 39.3125 
z
" id="DejaVuSans-33"/>
      </defs>
      <g style="fill:#262626;" transform="translate(29.535937 221.556481)scale(0.1 -0.1)">
       <use xlink:href="#DejaVuSans-33"/>
       <use x="63.623047" xlink:href="#DejaVuSans-30"/>
       <use x="127.246094" xlink:href="#DejaVuSans-30"/>
      </g>
     </g>
    </g>
    <g id="ytick_6">
     <g id="line2d_23">
      <path clip-path="url(#p58aa619087)" d="M 52.123438 177.025668 
L 350.955894 177.025668 
" style="fill:none;stroke:#ffffff;stroke-linecap:round;stroke-width:0.8;"/>
     </g>
     <g id="line2d_24"/>
     <g id="text_13">
      <!-- 400 -->
      <g style="fill:#262626;" transform="translate(29.535937 180.824887)scale(0.1 -0.1)">
       <use xlink:href="#DejaVuSans-34"/>
       <use x="63.623047" xlink:href="#DejaVuSans-30"/>
       <use x="127.246094" xlink:href="#DejaVuSans-30"/>
      </g>
     </g>
    </g>
    <g id="ytick_7">
     <g id="line2d_25">
      <path clip-path="url(#p58aa619087)" d="M 52.123438 136.294073 
L 350.955894 136.294073 
" style="fill:none;stroke:#ffffff;stroke-linecap:round;stroke-width:0.8;"/>
     </g>
     <g id="line2d_26"/>
     <g id="text_14">
      <!-- 500 -->
      <defs>
       <path d="M 10.796875 72.90625 
L 49.515625 72.90625 
L 49.515625 64.59375 
L 19.828125 64.59375 
L 19.828125 46.734375 
Q 21.96875 47.46875 24.109375 47.828125 
Q 26.265625 48.1875 28.421875 48.1875 
Q 40.625 48.1875 47.75 41.5 
Q 54.890625 34.8125 54.890625 23.390625 
Q 54.890625 11.625 47.5625 5.09375 
Q 40.234375 -1.421875 26.90625 -1.421875 
Q 22.3125 -1.421875 17.546875 -0.640625 
Q 12.796875 0.140625 7.71875 1.703125 
L 7.71875 11.625 
Q 12.109375 9.234375 16.796875 8.0625 
Q 21.484375 6.890625 26.703125 6.890625 
Q 35.15625 6.890625 40.078125 11.328125 
Q 45.015625 15.765625 45.015625 23.390625 
Q 45.015625 31 40.078125 35.4375 
Q 35.15625 39.890625 26.703125 39.890625 
Q 22.75 39.890625 18.8125 39.015625 
Q 14.890625 38.140625 10.796875 36.28125 
z
" id="DejaVuSans-35"/>
      </defs>
      <g style="fill:#262626;" transform="translate(29.535937 140.093292)scale(0.1 -0.1)">
       <use xlink:href="#DejaVuSans-35"/>
       <use x="63.623047" xlink:href="#DejaVuSans-30"/>
       <use x="127.246094" xlink:href="#DejaVuSans-30"/>
      </g>
     </g>
    </g>
    <g id="ytick_8">
     <g id="line2d_27">
      <path clip-path="url(#p58aa619087)" d="M 52.123438 95.562479 
L 350.955894 95.562479 
" style="fill:none;stroke:#ffffff;stroke-linecap:round;stroke-width:0.8;"/>
     </g>
     <g id="line2d_28"/>
     <g id="text_15">
      <!-- 600 -->
      <g style="fill:#262626;" transform="translate(29.535937 99.361698)scale(0.1 -0.1)">
       <use xlink:href="#DejaVuSans-36"/>
       <use x="63.623047" xlink:href="#DejaVuSans-30"/>
       <use x="127.246094" xlink:href="#DejaVuSans-30"/>
      </g>
     </g>
    </g>
    <g id="text_16">
     <!-- Sum_Debit -->
     <defs>
      <path d="M 19.671875 64.796875 
L 19.671875 8.109375 
L 31.59375 8.109375 
Q 46.6875 8.109375 53.6875 14.9375 
Q 60.6875 21.78125 60.6875 36.53125 
Q 60.6875 51.171875 53.6875 57.984375 
Q 46.6875 64.796875 31.59375 64.796875 
z
M 9.8125 72.90625 
L 30.078125 72.90625 
Q 51.265625 72.90625 61.171875 64.09375 
Q 71.09375 55.28125 71.09375 36.53125 
Q 71.09375 17.671875 61.125 8.828125 
Q 51.171875 0 30.078125 0 
L 9.8125 0 
z
" id="DejaVuSans-44"/>
      <path d="M 48.6875 27.296875 
Q 48.6875 37.203125 44.609375 42.84375 
Q 40.53125 48.484375 33.40625 48.484375 
Q 26.265625 48.484375 22.1875 42.84375 
Q 18.109375 37.203125 18.109375 27.296875 
Q 18.109375 17.390625 22.1875 11.75 
Q 26.265625 6.109375 33.40625 6.109375 
Q 40.53125 6.109375 44.609375 11.75 
Q 48.6875 17.390625 48.6875 27.296875 
z
M 18.109375 46.390625 
Q 20.953125 51.265625 25.265625 53.625 
Q 29.59375 56 35.59375 56 
Q 45.5625 56 51.78125 48.09375 
Q 58.015625 40.1875 58.015625 27.296875 
Q 58.015625 14.40625 51.78125 6.484375 
Q 45.5625 -1.421875 35.59375 -1.421875 
Q 29.59375 -1.421875 25.265625 0.953125 
Q 20.953125 3.328125 18.109375 8.203125 
L 18.109375 0 
L 9.078125 0 
L 9.078125 75.984375 
L 18.109375 75.984375 
z
" id="DejaVuSans-62"/>
     </defs>
     <g style="fill:#262626;" transform="translate(14.798437 265.265975)rotate(-90)scale(0.1 -0.1)">
      <use xlink:href="#DejaVuSans-53"/>
      <use x="63.476562" xlink:href="#DejaVuSans-75"/>
      <use x="126.855469" xlink:href="#DejaVuSans-6d"/>
      <use x="224.267578" xlink:href="#DejaVuSans-5f"/>
      <use x="274.267578" xlink:href="#DejaVuSans-44"/>
      <use x="351.269531" xlink:href="#DejaVuSans-65"/>
      <use x="412.792969" xlink:href="#DejaVuSans-62"/>
      <use x="476.269531" xlink:href="#DejaVuSans-69"/>
      <use x="504.052734" xlink:href="#DejaVuSans-74"/>
     </g>
    </g>
   </g>
   <g id="PathCollection_1">
    <path clip-path="url(#p58aa619087)" d="M 55.141947 389.83875 
L 58.160457 389.83875 
L 61.178966 389.83875 
L 64.197476 389.83875 
L 67.215986 389.83875 
L 70.234495 389.83875 
L 73.253005 389.83875 
L 76.271515 389.83875 
L 79.290024 389.83875 
L 82.308534 389.83875 
L 85.327044 389.83875 
L 88.345553 389.83875 
L 91.364063 389.83875 
L 94.382573 389.83875 
L 97.401082 389.83875 
L 100.419592 389.83875 
L 103.438102 389.83875 
L 106.456611 389.83875 
L 109.475121 389.83875 
L 112.493631 389.83875 
L 115.51214 389.83875 
L 118.53065 389.83875 
L 121.54916 389.83875 
L 124.567669 389.83875 
L 127.586179 389.83875 
L 130.604689 389.83875 
L 133.623198 389.83875 
L 136.641708 389.83875 
L 139.660218 389.83875 
L 142.678727 389.83875 
L 145.697237 389.83875 
L 148.715747 389.83875 
L 151.734256 389.83875 
L 154.752766 389.83875 
L 157.771276 389.83875 
L 160.789785 389.83875 
L 163.808295 389.83875 
L 166.826805 389.83875 
L 169.845314 389.83875 
L 172.863824 389.83875 
L 175.882334 389.83875 
L 178.900843 389.83875 
L 181.919353 389.83875 
L 184.937863 389.83875 
L 187.956372 389.83875 
L 190.974882 389.83875 
L 193.993392 389.83875 
L 197.011901 389.83875 
L 200.030411 389.83875 
L 203.048921 389.83875 
L 206.06743 389.83875 
L 209.08594 389.83875 
L 212.10445 389.83875 
L 215.122959 389.83875 
L 218.141469 389.83875 
L 221.159979 389.83875 
L 224.178488 389.83875 
L 227.196998 389.83875 
L 230.215508 389.83875 
L 233.234017 389.83875 
L 236.252527 389.83875 
L 239.271037 389.83875 
L 242.289546 389.83875 
L 245.308056 389.83875 
L 248.326566 389.83875 
L 251.345075 389.83875 
L 254.363585 389.83875 
L 257.382095 389.83875 
L 260.400604 389.83875 
L 263.419114 389.83875 
L 266.437624 389.83875 
L 269.456133 389.83875 
L 272.474643 389.83875 
L 275.493153 389.83875 
L 278.511662 389.83875 
L 281.530172 389.83875 
L 284.548682 389.83875 
L 287.567191 389.83875 
L 290.585701 389.83875 
L 293.604211 389.83875 
L 296.62272 389.83875 
L 299.64123 389.83875 
L 302.65974 389.83875 
L 305.678249 389.83875 
L 308.696759 389.83875 
L 311.715269 389.83875 
L 314.733778 389.83875 
L 317.752288 389.83875 
L 320.770798 389.83875 
L 323.789307 389.83875 
L 326.807817 389.83875 
L 329.826327 389.83875 
L 332.844836 389.83875 
L 335.863346 389.83875 
L 338.881856 389.83875 
L 341.900365 389.83875 
L 344.918875 389.83875 
L 347.937385 389.83875 
L 350.955894 389.83875 
L 350.955894 386.773375 
L 350.955894 383.708 
L 350.955894 380.642625 
L 350.955894 377.577251 
L 350.955894 374.511876 
L 350.955894 371.446501 
L 350.955894 368.381126 
L 350.955894 365.315751 
L 350.955894 362.250376 
L 350.955894 359.185001 
L 350.955894 356.119626 
L 350.955894 353.054252 
L 350.955894 349.988877 
L 350.955894 346.923502 
L 350.955894 343.858127 
L 350.955894 340.792752 
L 350.955894 337.727377 
L 350.955894 334.662002 
L 350.955894 331.596627 
L 350.955894 328.531253 
L 350.955894 325.465878 
L 350.955894 322.400503 
L 350.955894 319.335128 
L 350.955894 316.269753 
L 350.955894 313.204378 
L 350.955894 310.139003 
L 350.955894 307.073629 
L 350.955894 304.008254 
L 350.955894 300.942879 
L 350.955894 297.877504 
L 350.955894 294.812129 
L 350.955894 291.746754 
L 350.955894 288.681379 
L 350.955894 285.616004 
L 350.955894 282.55063 
L 350.955894 279.485255 
L 350.955894 276.41988 
L 350.955894 273.354505 
L 350.955894 270.28913 
L 350.955894 267.223755 
L 350.955894 264.15838 
L 350.955894 261.093005 
L 350.955894 258.027631 
L 350.955894 254.962256 
L 350.955894 251.896881 
L 350.955894 248.831506 
L 350.955894 245.766131 
L 350.955894 242.700756 
L 350.955894 239.635381 
L 350.955894 236.570007 
L 350.955894 233.504632 
L 350.955894 230.439257 
L 350.955894 227.373882 
L 350.955894 224.308507 
L 350.955894 221.243132 
L 350.955894 218.177757 
L 350.955894 215.112382 
L 350.955894 212.047008 
L 350.955894 208.981633 
L 350.955894 205.916258 
L 350.955894 202.850883 
L 350.955894 199.785508 
L 350.955894 196.720133 
L 350.955894 193.654758 
L 350.955894 190.589383 
L 350.955894 187.524009 
L 350.955894 184.458634 
L 350.955894 181.393259 
L 350.955894 178.327884 
L 350.955894 175.262509 
L 350.955894 172.197134 
L 350.955894 169.131759 
L 350.955894 166.066385 
L 350.955894 163.00101 
L 350.955894 159.935635 
L 350.955894 156.87026 
L 350.955894 153.804885 
L 350.955894 150.73951 
L 350.955894 147.674135 
L 350.955894 144.60876 
L 350.955894 141.543386 
L 350.955894 138.478011 
L 350.955894 135.412636 
L 350.955894 132.347261 
L 350.955894 129.281886 
L 350.955894 126.216511 
L 350.955894 123.151136 
L 350.955894 120.085761 
L 350.955894 117.020387 
L 350.955894 113.955012 
L 350.955894 110.889637 
L 350.955894 107.824262 
L 350.955894 104.758887 
L 350.955894 101.693512 
L 350.955894 98.628137 
L 350.955894 95.562763 
L 350.955894 92.497388 
L 350.955894 89.432013 
L 350.955894 86.366638 
L 347.937385 86.366638 
L 344.918875 86.366638 
L 341.900365 86.366638 
L 338.881856 86.366638 
L 335.863346 86.366638 
L 332.844836 86.366638 
L 329.826327 86.366638 
L 326.807817 86.366638 
L 323.789307 86.366638 
L 320.770798 86.366638 
L 317.752288 86.366638 
L 314.733778 86.366638 
L 311.715269 86.366638 
L 308.696759 86.366638 
L 305.678249 86.366638 
L 302.65974 86.366638 
L 299.64123 86.366638 
L 296.62272 86.366638 
L 293.604211 86.366638 
L 290.585701 86.366638 
L 287.567191 86.366638 
L 284.548682 86.366638 
L 281.530172 86.366638 
L 278.511662 86.366638 
L 275.493153 86.366638 
L 272.474643 86.366638 
L 269.456133 86.366638 
L 266.437624 86.366638 
L 263.419114 86.366638 
L 260.400604 86.366638 
L 257.382095 86.366638 
L 254.363585 86.366638 
L 251.345075 86.366638 
L 248.326566 86.366638 
L 245.308056 86.366638 
L 242.289546 86.366638 
L 239.271037 86.366638 
L 236.252527 86.366638 
L 233.234017 86.366638 
L 230.215508 86.366638 
L 227.196998 86.366638 
L 224.178488 86.366638 
L 221.159979 86.366638 
L 218.141469 86.366638 
L 215.122959 86.366638 
L 212.10445 86.366638 
L 209.08594 86.366638 
L 206.06743 86.366638 
L 203.048921 86.366638 
L 200.030411 86.366638 
L 197.011901 86.366638 
L 193.993392 86.366638 
L 190.974882 86.366638 
L 187.956372 86.366638 
L 184.937863 86.366638 
L 181.919353 86.366638 
L 178.900843 86.366638 
L 175.882334 86.366638 
L 172.863824 86.366638 
L 169.845314 86.366638 
L 166.826805 86.366638 
L 163.808295 86.366638 
L 160.789785 86.366638 
L 157.771276 86.366638 
L 154.752766 86.366638 
L 151.734256 86.366638 
L 148.715747 86.366638 
L 145.697237 86.366638 
L 142.678727 86.366638 
L 139.660218 86.366638 
L 136.641708 86.366638 
L 133.623198 86.366638 
L 130.604689 86.366638 
L 127.586179 86.366638 
L 124.567669 86.366638 
L 121.54916 86.366638 
L 118.53065 86.366638 
L 115.51214 86.366638 
L 112.493631 86.366638 
L 109.475121 86.366638 
L 106.456611 86.366638 
L 103.438102 86.366638 
L 100.419592 86.366638 
L 97.401082 86.366638 
L 94.382573 86.366638 
L 91.364063 86.366638 
L 88.345553 86.366638 
L 85.327044 86.366638 
L 82.308534 86.366638 
L 79.290024 86.366638 
L 76.271515 86.366638 
L 73.253005 86.366638 
L 70.234495 86.366638 
L 67.215986 86.366638 
L 64.197476 86.366638 
L 61.178966 86.366638 
L 58.160457 86.366638 
L 55.141947 86.366638 
L 52.123438 86.366638 
L 52.123438 89.432013 
L 52.123438 92.497388 
L 52.123438 95.562763 
L 52.123438 98.628137 
L 52.123438 101.693512 
L 52.123438 104.758887 
L 52.123438 107.824262 
L 52.123438 110.889637 
L 52.123438 113.955012 
L 52.123438 117.020387 
L 52.123438 120.085761 
L 52.123438 123.151136 
L 52.123438 126.216511 
L 52.123438 129.281886 
L 52.123438 132.347261 
L 52.123438 135.412636 
L 52.123438 138.478011 
L 52.123438 141.543386 
L 52.123438 144.60876 
L 52.123438 147.674135 
L 52.123438 150.73951 
L 52.123438 153.804885 
L 52.123438 156.87026 
L 52.123438 159.935635 
L 52.123438 163.00101 
L 52.123438 166.066385 
L 52.123438 169.131759 
L 52.123438 172.197134 
L 52.123438 175.262509 
L 52.123438 178.327884 
L 52.123438 181.393259 
L 52.123438 184.458634 
L 52.123438 187.524009 
L 52.123438 190.589383 
L 52.123438 193.654758 
L 52.123438 196.720133 
L 52.123438 199.785508 
L 52.123438 202.850883 
L 52.123438 205.916258 
L 52.123438 208.981633 
L 52.123438 212.047008 
L 52.123438 215.112382 
L 52.123438 218.177757 
L 52.123438 221.243132 
L 52.123438 224.308507 
L 52.123438 227.373882 
L 52.123438 230.439257 
L 52.123438 233.504632 
L 52.123438 236.570007 
L 52.123438 239.635381 
L 52.123438 242.700756 
L 52.123438 245.766131 
L 52.123438 248.831506 
L 52.123438 251.896881 
L 52.123438 254.962256 
L 52.123438 258.027631 
L 52.123438 261.093005 
L 52.123438 264.15838 
L 52.123438 267.223755 
L 52.123438 270.28913 
L 52.123438 273.354505 
L 52.123438 276.41988 
L 52.123438 279.485255 
L 52.123438 282.55063 
L 52.123438 285.616004 
L 52.123438 288.681379 
L 52.123438 291.746754 
L 52.123438 294.812129 
L 52.123438 297.877504 
L 52.123438 300.942879 
L 52.123438 304.008254 
L 52.123438 307.073629 
L 52.123438 310.139003 
L 52.123438 313.204378 
L 52.123438 316.269753 
L 52.123438 319.335128 
L 52.123438 322.400503 
L 52.123438 325.465878 
L 52.123438 328.531253 
L 52.123438 331.596627 
L 52.123438 334.662002 
L 52.123438 337.727377 
L 52.123438 340.792752 
L 52.123438 343.858127 
L 52.123438 346.923502 
L 52.123438 349.988877 
L 52.123438 353.054252 
L 52.123438 356.119626 
L 52.123438 359.185001 
L 52.123438 362.250376 
L 52.123438 365.315751 
L 52.123438 368.381126 
L 52.123438 371.446501 
L 52.123438 374.511876 
L 52.123438 377.577251 
L 52.123438 380.642625 
L 52.123438 383.708 
L 52.123438 386.773375 
L 52.123438 389.83875 
z
M 90.922411 368.381126 
L 88.345553 368.234129 
L 85.327044 367.765764 
L 82.308534 366.883054 
L 79.290024 365.395212 
L 79.166956 365.315751 
L 76.271515 363.292979 
L 75.1721 362.250376 
L 73.253005 360.00643 
L 72.650814 359.185001 
L 70.909232 356.119626 
L 70.234495 354.399278 
L 69.690352 353.054252 
L 68.804678 349.988877 
L 68.255663 346.923502 
L 67.955846 343.858127 
L 67.850897 340.792752 
L 67.909096 337.727377 
L 68.115121 334.662002 
L 68.466572 331.596627 
L 68.972352 328.531253 
L 69.652449 325.465878 
L 70.234495 323.390317 
L 70.451736 322.400503 
L 71.253858 319.335128 
L 72.259844 316.269753 
L 73.253005 313.787301 
L 73.447355 313.204378 
L 74.582132 310.139003 
L 75.981449 307.073629 
L 76.271515 306.480138 
L 77.334411 304.008254 
L 78.884359 300.942879 
L 79.290024 300.178678 
L 80.410581 297.877504 
L 82.107208 294.812129 
L 82.308534 294.448588 
L 83.73121 291.746754 
L 85.327044 289.014859 
L 85.519444 288.681379 
L 87.25242 285.616004 
L 88.345553 283.789042 
L 89.101245 282.55063 
L 91.025657 279.485255 
L 91.364063 278.946429 
L 93.036508 276.41988 
L 94.382573 274.482047 
L 95.244859 273.354505 
L 97.401082 270.617369 
L 97.699557 270.28913 
L 100.419592 267.329983 
L 100.538302 267.223755 
L 103.438102 264.605033 
L 104.074915 264.15838 
L 106.456611 262.435923 
L 109.005618 261.093005 
L 109.475121 260.831989 
L 112.493631 259.659285 
L 115.51214 258.95371 
L 118.53065 258.619065 
L 121.54916 258.548086 
L 124.567669 258.621442 
L 127.586179 258.722621 
L 130.604689 258.760515 
L 133.623198 258.687395 
L 136.641708 258.506469 
L 139.660218 258.275702 
L 142.678727 258.127458 
L 145.697237 258.350877 
L 148.715747 259.721597 
L 149.844843 261.093005 
L 150.8492 264.15838 
L 151.044494 267.223755 
L 150.930893 270.28913 
L 150.714451 273.354505 
L 150.499106 276.41988 
L 150.353213 279.485255 
L 150.340415 282.55063 
L 150.538532 285.616004 
L 151.053991 288.681379 
L 151.734256 290.829456 
L 152.144769 291.746754 
L 154.492217 294.812129 
L 154.752766 295.043055 
L 157.771276 296.651129 
L 160.789785 297.48015 
L 163.808295 297.870289 
L 163.931893 297.877504 
L 166.826805 298.029697 
L 169.845314 298.146042 
L 172.863824 298.336758 
L 175.882334 298.71907 
L 178.900843 299.423222 
L 181.919353 300.604715 
L 182.521726 300.942879 
L 184.937863 302.434362 
L 186.745509 304.008254 
L 187.956372 305.246186 
L 189.366987 307.073629 
L 190.974882 309.759393 
L 191.171753 310.139003 
L 192.400853 313.204378 
L 193.17225 316.269753 
L 193.52887 319.335128 
L 193.499108 322.400503 
L 193.096198 325.465878 
L 192.314892 328.531253 
L 191.125535 331.596627 
L 190.974882 331.887693 
L 189.604775 334.662002 
L 187.956372 337.230108 
L 187.636855 337.727377 
L 185.231285 340.792752 
L 184.937863 341.114632 
L 182.255351 343.858127 
L 181.919353 344.164479 
L 178.900843 346.628533 
L 178.482656 346.923502 
L 175.882334 348.651316 
L 173.390795 349.988877 
L 172.863824 350.268856 
L 169.845314 351.586803 
L 166.826805 352.591272 
L 165.006658 353.054252 
L 163.808295 353.375398 
L 160.789785 353.992751 
L 157.771276 354.467375 
L 154.752766 354.865281 
L 151.734256 355.246914 
L 148.715747 355.660289 
L 145.796078 356.119626 
L 145.697237 356.136606 
L 142.678727 356.761265 
L 139.660218 357.455275 
L 136.641708 358.194241 
L 133.623198 358.950684 
L 132.730823 359.185001 
L 130.604689 359.805223 
L 127.586179 360.679206 
L 124.567669 361.512065 
L 121.74107 362.250376 
L 121.54916 362.307899 
L 118.53065 363.233444 
L 115.51214 364.092247 
L 112.493631 364.877009 
L 110.680809 365.315751 
L 109.475121 365.66578 
L 106.456611 366.478257 
L 103.438102 367.162046 
L 100.419592 367.708511 
L 97.401082 368.108722 
L 94.382573 368.348936 
L 92.62589 368.381126 
L 91.364063 368.412185 
z
" style="fill:#eef5fc;"/>
   </g>
   <g id="PathCollection_2">
    <path clip-path="url(#p58aa619087)" d="M 91.364063 368.412185 
L 92.62589 368.381126 
L 94.382573 368.348936 
L 97.401082 368.108722 
L 100.419592 367.708511 
L 103.438102 367.162046 
L 106.456611 366.478257 
L 109.475121 365.66578 
L 110.680809 365.315751 
L 112.493631 364.877009 
L 115.51214 364.092247 
L 118.53065 363.233444 
L 121.54916 362.307899 
L 121.74107 362.250376 
L 124.567669 361.512065 
L 127.586179 360.679206 
L 130.604689 359.805223 
L 132.730823 359.185001 
L 133.623198 358.950684 
L 136.641708 358.194241 
L 139.660218 357.455275 
L 142.678727 356.761265 
L 145.697237 356.136606 
L 145.796078 356.119626 
L 148.715747 355.660289 
L 151.734256 355.246914 
L 154.752766 354.865281 
L 157.771276 354.467375 
L 160.789785 353.992751 
L 163.808295 353.375398 
L 165.006658 353.054252 
L 166.826805 352.591272 
L 169.845314 351.586803 
L 172.863824 350.268856 
L 173.390795 349.988877 
L 175.882334 348.651316 
L 178.482656 346.923502 
L 178.900843 346.628533 
L 181.919353 344.164479 
L 182.255351 343.858127 
L 184.937863 341.114632 
L 185.231285 340.792752 
L 187.636855 337.727377 
L 187.956372 337.230108 
L 189.604775 334.662002 
L 190.974882 331.887693 
L 191.125535 331.596627 
L 192.314892 328.531253 
L 193.096198 325.465878 
L 193.499108 322.400503 
L 193.52887 319.335128 
L 193.17225 316.269753 
L 192.400853 313.204378 
L 191.171753 310.139003 
L 190.974882 309.759393 
L 189.366987 307.073629 
L 187.956372 305.246186 
L 186.745509 304.008254 
L 184.937863 302.434362 
L 182.521726 300.942879 
L 181.919353 300.604715 
L 178.900843 299.423222 
L 175.882334 298.71907 
L 172.863824 298.336758 
L 169.845314 298.146042 
L 166.826805 298.029697 
L 163.931893 297.877504 
L 163.808295 297.870289 
L 160.789785 297.48015 
L 157.771276 296.651129 
L 154.752766 295.043055 
L 154.492217 294.812129 
L 152.144769 291.746754 
L 151.734256 290.829456 
L 151.053991 288.681379 
L 150.538532 285.616004 
L 150.340415 282.55063 
L 150.353213 279.485255 
L 150.499106 276.41988 
L 150.714451 273.354505 
L 150.930893 270.28913 
L 151.044494 267.223755 
L 150.8492 264.15838 
L 149.844843 261.093005 
L 148.715747 259.721597 
L 145.697237 258.350877 
L 142.678727 258.127458 
L 139.660218 258.275702 
L 136.641708 258.506469 
L 133.623198 258.687395 
L 130.604689 258.760515 
L 127.586179 258.722621 
L 124.567669 258.621442 
L 121.54916 258.548086 
L 118.53065 258.619065 
L 115.51214 258.95371 
L 112.493631 259.659285 
L 109.475121 260.831989 
L 109.005618 261.093005 
L 106.456611 262.435923 
L 104.074915 264.15838 
L 103.438102 264.605033 
L 100.538302 267.223755 
L 100.419592 267.329983 
L 97.699557 270.28913 
L 97.401082 270.617369 
L 95.244859 273.354505 
L 94.382573 274.482047 
L 93.036508 276.41988 
L 91.364063 278.946429 
L 91.025657 279.485255 
L 89.101245 282.55063 
L 88.345553 283.789042 
L 87.25242 285.616004 
L 85.519444 288.681379 
L 85.327044 289.014859 
L 83.73121 291.746754 
L 82.308534 294.448588 
L 82.107208 294.812129 
L 80.410581 297.877504 
L 79.290024 300.178678 
L 78.884359 300.942879 
L 77.334411 304.008254 
L 76.271515 306.480138 
L 75.981449 307.073629 
L 74.582132 310.139003 
L 73.447355 313.204378 
L 73.253005 313.787301 
L 72.259844 316.269753 
L 71.253858 319.335128 
L 70.451736 322.400503 
L 70.234495 323.390317 
L 69.652449 325.465878 
L 68.972352 328.531253 
L 68.466572 331.596627 
L 68.115121 334.662002 
L 67.909096 337.727377 
L 67.850897 340.792752 
L 67.955846 343.858127 
L 68.255663 346.923502 
L 68.804678 349.988877 
L 69.690352 353.054252 
L 70.234495 354.399278 
L 70.909232 356.119626 
L 72.650814 359.185001 
L 73.253005 360.00643 
L 75.1721 362.250376 
L 76.271515 363.292979 
L 79.166956 365.315751 
L 79.290024 365.395212 
L 82.308534 366.883054 
L 85.327044 367.765764 
L 88.345553 368.234129 
L 90.922411 368.381126 
z
M 82.842071 359.185001 
L 82.308534 358.869474 
L 79.290024 356.255961 
L 79.166871 356.119626 
L 76.938822 353.054252 
L 76.271515 351.728826 
L 75.455837 349.988877 
L 74.470599 346.923502 
L 73.879361 343.858127 
L 73.577218 340.792752 
L 73.499569 337.727377 
L 73.609005 334.662002 
L 73.887557 331.596627 
L 74.332326 328.531253 
L 74.953366 325.465878 
L 75.773217 322.400503 
L 76.271515 320.882611 
L 76.704179 319.335128 
L 77.730423 316.269753 
L 79.004414 313.204378 
L 79.290024 312.587061 
L 80.315577 310.139003 
L 81.844108 307.073629 
L 82.308534 306.219419 
L 83.452236 304.008254 
L 85.284909 300.942879 
L 85.327044 300.873752 
L 87.144579 297.877504 
L 88.345553 296.069743 
L 89.213067 294.812129 
L 91.364063 291.853047 
L 91.44785 291.746754 
L 93.821162 288.681379 
L 94.382573 287.960557 
L 96.447644 285.616004 
L 97.401082 284.515603 
L 99.423085 282.55063 
L 100.419592 281.541345 
L 102.968335 279.485255 
L 103.438102 279.081734 
L 106.456611 277.082207 
L 107.894282 276.41988 
L 109.475121 275.609223 
L 112.493631 274.610369 
L 115.51214 274.08167 
L 118.53065 273.92825 
L 121.54916 274.092303 
L 124.567669 274.561851 
L 127.586179 275.3908 
L 129.962387 276.41988 
L 130.604689 276.718911 
L 133.623198 278.871396 
L 134.21662 279.485255 
L 136.462783 282.55063 
L 136.641708 282.874817 
L 137.891533 285.616004 
L 138.920659 288.681379 
L 139.660218 291.397337 
L 139.756499 291.746754 
L 140.633765 294.812129 
L 141.587633 297.877504 
L 142.678727 300.869514 
L 142.712841 300.942879 
L 144.48796 304.008254 
L 145.697237 305.72096 
L 147.076174 307.073629 
L 148.715747 308.490278 
L 151.537416 310.139003 
L 151.734256 310.251591 
L 154.752766 311.494762 
L 157.771276 312.481625 
L 160.245041 313.204378 
L 160.789785 313.38624 
L 163.808295 314.379396 
L 166.826805 315.504488 
L 168.55712 316.269753 
L 169.845314 316.987802 
L 172.863824 319.127273 
L 173.09242 319.335128 
L 175.313409 322.400503 
L 175.882334 324.207285 
L 176.192903 325.465878 
L 176.052088 328.531253 
L 175.882334 329.04325 
L 174.948317 331.596627 
L 172.921388 334.662002 
L 172.863824 334.722475 
L 169.845314 337.410144 
L 169.416934 337.727377 
L 166.826805 339.195394 
L 163.808295 340.573464 
L 163.235079 340.792752 
L 160.789785 341.568543 
L 157.771276 342.412071 
L 154.752766 343.223732 
L 152.522133 343.858127 
L 151.734256 344.05674 
L 148.715747 344.922259 
L 145.697237 345.879541 
L 142.678727 346.921749 
L 142.674261 346.923502 
L 139.660218 348.024375 
L 136.641708 349.166184 
L 134.535419 349.988877 
L 133.623198 350.335489 
L 130.604689 351.535965 
L 127.586179 352.700891 
L 126.690464 353.054252 
L 124.567669 353.899879 
L 121.54916 355.070582 
L 118.641263 356.119626 
L 118.53065 356.161723 
L 115.51214 357.327675 
L 112.493631 358.37102 
L 109.824318 359.185001 
L 109.475121 359.30374 
L 106.456611 360.248271 
L 103.438102 361.010703 
L 100.419592 361.584297 
L 97.401082 361.957002 
L 94.382573 362.103962 
L 91.364063 361.97838 
L 88.345553 361.498701 
L 85.327044 360.528431 
z
" style="fill:#dceaf6;"/>
   </g>
   <g id="PathCollection_3">
    <path clip-path="url(#p58aa619087)" d="M 85.327044 360.528431 
L 88.345553 361.498701 
L 91.364063 361.97838 
L 94.382573 362.103962 
L 97.401082 361.957002 
L 100.419592 361.584297 
L 103.438102 361.010703 
L 106.456611 360.248271 
L 109.475121 359.30374 
L 109.824318 359.185001 
L 112.493631 358.37102 
L 115.51214 357.327675 
L 118.53065 356.161723 
L 118.641263 356.119626 
L 121.54916 355.070582 
L 124.567669 353.899879 
L 126.690464 353.054252 
L 127.586179 352.700891 
L 130.604689 351.535965 
L 133.623198 350.335489 
L 134.535419 349.988877 
L 136.641708 349.166184 
L 139.660218 348.024375 
L 142.674261 346.923502 
L 142.678727 346.921749 
L 145.697237 345.879541 
L 148.715747 344.922259 
L 151.734256 344.05674 
L 152.522133 343.858127 
L 154.752766 343.223732 
L 157.771276 342.412071 
L 160.789785 341.568543 
L 163.235079 340.792752 
L 163.808295 340.573464 
L 166.826805 339.195394 
L 169.416934 337.727377 
L 169.845314 337.410144 
L 172.863824 334.722475 
L 172.921388 334.662002 
L 174.948317 331.596627 
L 175.882334 329.04325 
L 176.052088 328.531253 
L 176.192903 325.465878 
L 175.882334 324.207285 
L 175.313409 322.400503 
L 173.09242 319.335128 
L 172.863824 319.127273 
L 169.845314 316.987802 
L 168.55712 316.269753 
L 166.826805 315.504488 
L 163.808295 314.379396 
L 160.789785 313.38624 
L 160.245041 313.204378 
L 157.771276 312.481625 
L 154.752766 311.494762 
L 151.734256 310.251591 
L 151.537416 310.139003 
L 148.715747 308.490278 
L 147.076174 307.073629 
L 145.697237 305.72096 
L 144.48796 304.008254 
L 142.712841 300.942879 
L 142.678727 300.869514 
L 141.587633 297.877504 
L 140.633765 294.812129 
L 139.756499 291.746754 
L 139.660218 291.397337 
L 138.920659 288.681379 
L 137.891533 285.616004 
L 136.641708 282.874817 
L 136.462783 282.55063 
L 134.21662 279.485255 
L 133.623198 278.871396 
L 130.604689 276.718911 
L 129.962387 276.41988 
L 127.586179 275.3908 
L 124.567669 274.561851 
L 121.54916 274.092303 
L 118.53065 273.92825 
L 115.51214 274.08167 
L 112.493631 274.610369 
L 109.475121 275.609223 
L 107.894282 276.41988 
L 106.456611 277.082207 
L 103.438102 279.081734 
L 102.968335 279.485255 
L 100.419592 281.541345 
L 99.423085 282.55063 
L 97.401082 284.515603 
L 96.447644 285.616004 
L 94.382573 287.960557 
L 93.821162 288.681379 
L 91.44785 291.746754 
L 91.364063 291.853047 
L 89.213067 294.812129 
L 88.345553 296.069743 
L 87.144579 297.877504 
L 85.327044 300.873752 
L 85.284909 300.942879 
L 83.452236 304.008254 
L 82.308534 306.219419 
L 81.844108 307.073629 
L 80.315577 310.139003 
L 79.290024 312.587061 
L 79.004414 313.204378 
L 77.730423 316.269753 
L 76.704179 319.335128 
L 76.271515 320.882611 
L 75.773217 322.400503 
L 74.953366 325.465878 
L 74.332326 328.531253 
L 73.887557 331.596627 
L 73.609005 334.662002 
L 73.499569 337.727377 
L 73.577218 340.792752 
L 73.879361 343.858127 
L 74.470599 346.923502 
L 75.455837 349.988877 
L 76.271515 351.728826 
L 76.938822 353.054252 
L 79.166871 356.119626 
L 79.290024 356.255961 
L 82.308534 358.869474 
L 82.842071 359.185001 
z
M 87.548916 356.119626 
L 85.327044 354.955857 
L 83.025104 353.054252 
L 82.308534 352.304157 
L 80.598119 349.988877 
L 79.290024 347.3494 
L 79.099548 346.923502 
L 78.127256 343.858127 
L 77.574106 340.792752 
L 77.335258 337.727377 
L 77.347591 334.662002 
L 77.57663 331.596627 
L 78.008948 328.531253 
L 78.648062 325.465878 
L 79.290024 323.156112 
L 79.47455 322.400503 
L 80.392627 319.335128 
L 81.540486 316.269753 
L 82.308534 314.538859 
L 82.863056 313.204378 
L 84.329622 310.139003 
L 85.327044 308.3291 
L 86.009961 307.073629 
L 87.870058 304.008254 
L 88.345553 303.276146 
L 89.916906 300.942879 
L 91.364063 298.957051 
L 92.21822 297.877504 
L 94.382573 295.244994 
L 94.78781 294.812129 
L 97.401082 292.022458 
L 97.710462 291.746754 
L 100.419592 289.249358 
L 101.200389 288.681379 
L 103.438102 286.944702 
L 105.756198 285.616004 
L 106.456611 285.175933 
L 109.475121 283.820495 
L 112.493631 282.991807 
L 115.51214 282.608463 
L 118.53065 282.645014 
L 121.54916 283.139767 
L 124.567669 284.220735 
L 126.83573 285.616004 
L 127.586179 286.147884 
L 129.999661 288.681379 
L 130.604689 289.499512 
L 131.931422 291.746754 
L 133.29532 294.812129 
L 133.623198 295.697826 
L 134.410118 297.877504 
L 135.413172 300.942879 
L 136.371946 304.008254 
L 136.641708 304.848733 
L 137.502285 307.073629 
L 138.782063 310.139003 
L 139.660218 312.12704 
L 140.303316 313.204378 
L 142.163052 316.269753 
L 142.678727 317.183309 
L 144.364002 319.335128 
L 145.697237 321.452044 
L 146.487634 322.400503 
L 148.032392 325.465878 
L 148.379244 328.531253 
L 147.368138 331.596627 
L 145.697237 333.621788 
L 144.942484 334.662002 
L 142.678727 336.581225 
L 141.453854 337.727377 
L 139.660218 338.951618 
L 137.130518 340.792752 
L 136.641708 341.079524 
L 133.623198 342.98588 
L 132.286214 343.858127 
L 130.604689 344.804261 
L 127.586179 346.516357 
L 126.886829 346.923502 
L 124.567669 348.157325 
L 121.54916 349.689307 
L 120.957547 349.988877 
L 118.53065 351.176791 
L 115.51214 352.530805 
L 114.256162 353.054252 
L 112.493631 353.806728 
L 109.475121 354.956473 
L 106.456611 355.905952 
L 105.625738 356.119626 
L 103.438102 356.741764 
L 100.419592 357.358423 
L 97.401082 357.701116 
L 94.382573 357.730432 
L 91.364063 357.372281 
L 88.345553 356.498157 
z
" style="fill:#cadef0;"/>
   </g>
   <g id="PathCollection_4">
    <path clip-path="url(#p58aa619087)" d="M 88.345553 356.498157 
L 91.364063 357.372281 
L 94.382573 357.730432 
L 97.401082 357.701116 
L 100.419592 357.358423 
L 103.438102 356.741764 
L 105.625738 356.119626 
L 106.456611 355.905952 
L 109.475121 354.956473 
L 112.493631 353.806728 
L 114.256162 353.054252 
L 115.51214 352.530805 
L 118.53065 351.176791 
L 120.957547 349.988877 
L 121.54916 349.689307 
L 124.567669 348.157325 
L 126.886829 346.923502 
L 127.586179 346.516357 
L 130.604689 344.804261 
L 132.286214 343.858127 
L 133.623198 342.98588 
L 136.641708 341.079524 
L 137.130518 340.792752 
L 139.660218 338.951618 
L 141.453854 337.727377 
L 142.678727 336.581225 
L 144.942484 334.662002 
L 145.697237 333.621788 
L 147.368138 331.596627 
L 148.379244 328.531253 
L 148.032392 325.465878 
L 146.487634 322.400503 
L 145.697237 321.452044 
L 144.364002 319.335128 
L 142.678727 317.183309 
L 142.163052 316.269753 
L 140.303316 313.204378 
L 139.660218 312.12704 
L 138.782063 310.139003 
L 137.502285 307.073629 
L 136.641708 304.848733 
L 136.371946 304.008254 
L 135.413172 300.942879 
L 134.410118 297.877504 
L 133.623198 295.697826 
L 133.29532 294.812129 
L 131.931422 291.746754 
L 130.604689 289.499512 
L 129.999661 288.681379 
L 127.586179 286.147884 
L 126.83573 285.616004 
L 124.567669 284.220735 
L 121.54916 283.139767 
L 118.53065 282.645014 
L 115.51214 282.608463 
L 112.493631 282.991807 
L 109.475121 283.820495 
L 106.456611 285.175933 
L 105.756198 285.616004 
L 103.438102 286.944702 
L 101.200389 288.681379 
L 100.419592 289.249358 
L 97.710462 291.746754 
L 97.401082 292.022458 
L 94.78781 294.812129 
L 94.382573 295.244994 
L 92.21822 297.877504 
L 91.364063 298.957051 
L 89.916906 300.942879 
L 88.345553 303.276146 
L 87.870058 304.008254 
L 86.009961 307.073629 
L 85.327044 308.3291 
L 84.329622 310.139003 
L 82.863056 313.204378 
L 82.308534 314.538859 
L 81.540486 316.269753 
L 80.392627 319.335128 
L 79.47455 322.400503 
L 79.290024 323.156112 
L 78.648062 325.465878 
L 78.008948 328.531253 
L 77.57663 331.596627 
L 77.347591 334.662002 
L 77.335258 337.727377 
L 77.574106 340.792752 
L 78.127256 343.858127 
L 79.099548 346.923502 
L 79.290024 347.3494 
L 80.598119 349.988877 
L 82.308534 352.304157 
L 83.025104 353.054252 
L 85.327044 354.955857 
L 87.548916 356.119626 
z
M 90.530053 353.054252 
L 88.345553 352.085776 
L 85.604923 349.988877 
L 85.327044 349.715388 
L 83.243318 346.923502 
L 82.308534 345.000977 
L 81.825238 343.858127 
L 80.985436 340.792752 
L 80.561654 337.727377 
L 80.456651 334.662002 
L 80.613998 331.596627 
L 81.005757 328.531253 
L 81.625476 325.465878 
L 82.308534 323.006109 
L 82.462666 322.400503 
L 83.433942 319.335128 
L 84.648078 316.269753 
L 85.327044 314.81431 
L 86.060896 313.204378 
L 87.682146 310.139003 
L 88.345553 309.019599 
L 89.534614 307.073629 
L 91.364063 304.406328 
L 91.659801 304.008254 
L 94.068915 300.942879 
L 94.382573 300.558474 
L 96.87501 297.877504 
L 97.401082 297.319251 
L 100.236946 294.812129 
L 100.419592 294.646822 
L 103.438102 292.439487 
L 104.729029 291.746754 
L 106.456611 290.74357 
L 109.475121 289.55563 
L 112.493631 288.885348 
L 115.51214 288.70906 
L 118.53065 289.077816 
L 121.54916 290.142161 
L 123.981062 291.746754 
L 124.567669 292.204861 
L 126.842116 294.812129 
L 127.586179 295.922038 
L 128.661761 297.877504 
L 129.984759 300.942879 
L 130.604689 302.707772 
L 131.06143 304.008254 
L 132.033116 307.073629 
L 132.912901 310.139003 
L 133.623198 312.828519 
L 133.743757 313.204378 
L 134.648287 316.269753 
L 135.433705 319.335128 
L 136.010961 322.400503 
L 136.254181 325.465878 
L 135.999286 328.531253 
L 135.0418 331.596627 
L 133.623198 333.93423 
L 133.224569 334.662002 
L 130.62006 337.727377 
L 130.604689 337.740904 
L 127.586179 340.537455 
L 127.31654 340.792752 
L 124.567669 342.903546 
L 123.297049 343.858127 
L 121.54916 345.000359 
L 118.53065 346.855046 
L 118.416482 346.923502 
L 115.51214 348.548601 
L 112.531745 349.988877 
L 112.493631 350.007019 
L 109.475121 351.338256 
L 106.456611 352.412671 
L 104.117295 353.054252 
L 103.438102 353.253527 
L 100.419592 353.863551 
L 97.401082 354.136714 
L 94.382573 354.014124 
L 91.364063 353.386472 
z
" style="fill:#b0d2e7;"/>
   </g>
   <g id="PathCollection_5">
    <path clip-path="url(#p58aa619087)" d="M 91.364063 353.386472 
L 94.382573 354.014124 
L 97.401082 354.136714 
L 100.419592 353.863551 
L 103.438102 353.253527 
L 104.117295 353.054252 
L 106.456611 352.412671 
L 109.475121 351.338256 
L 112.493631 350.007019 
L 112.531745 349.988877 
L 115.51214 348.548601 
L 118.416482 346.923502 
L 118.53065 346.855046 
L 121.54916 345.000359 
L 123.297049 343.858127 
L 124.567669 342.903546 
L 127.31654 340.792752 
L 127.586179 340.537455 
L 130.604689 337.740904 
L 130.62006 337.727377 
L 133.224569 334.662002 
L 133.623198 333.93423 
L 135.0418 331.596627 
L 135.999286 328.531253 
L 136.254181 325.465878 
L 136.010961 322.400503 
L 135.433705 319.335128 
L 134.648287 316.269753 
L 133.743757 313.204378 
L 133.623198 312.828519 
L 132.912901 310.139003 
L 132.033116 307.073629 
L 131.06143 304.008254 
L 130.604689 302.707772 
L 129.984759 300.942879 
L 128.661761 297.877504 
L 127.586179 295.922038 
L 126.842116 294.812129 
L 124.567669 292.204861 
L 123.981062 291.746754 
L 121.54916 290.142161 
L 118.53065 289.077816 
L 115.51214 288.70906 
L 112.493631 288.885348 
L 109.475121 289.55563 
L 106.456611 290.74357 
L 104.729029 291.746754 
L 103.438102 292.439487 
L 100.419592 294.646822 
L 100.236946 294.812129 
L 97.401082 297.319251 
L 96.87501 297.877504 
L 94.382573 300.558474 
L 94.068915 300.942879 
L 91.659801 304.008254 
L 91.364063 304.406328 
L 89.534614 307.073629 
L 88.345553 309.019599 
L 87.682146 310.139003 
L 86.060896 313.204378 
L 85.327044 314.81431 
L 84.648078 316.269753 
L 83.433942 319.335128 
L 82.462666 322.400503 
L 82.308534 323.006109 
L 81.625476 325.465878 
L 81.005757 328.531253 
L 80.613998 331.596627 
L 80.456651 334.662002 
L 80.561654 337.727377 
L 80.985436 340.792752 
L 81.825238 343.858127 
L 82.308534 345.000977 
L 83.243318 346.923502 
L 85.327044 349.715388 
L 85.604923 349.988877 
L 88.345553 352.085776 
L 90.530053 353.054252 
z
M 92.347309 349.988877 
L 91.364063 349.648654 
L 88.345553 347.690957 
L 87.570578 346.923502 
L 85.373829 343.858127 
L 85.327044 343.759539 
L 84.156302 340.792752 
L 83.49825 337.727377 
L 83.248513 334.662002 
L 83.318631 331.596627 
L 83.659999 328.531253 
L 84.252224 325.465878 
L 85.09674 322.400503 
L 85.327044 321.741099 
L 86.138382 319.335128 
L 87.415371 316.269753 
L 88.345553 314.396391 
L 88.951107 313.204378 
L 90.733977 310.139003 
L 91.364063 309.165982 
L 92.829134 307.073629 
L 94.382573 305.048088 
L 95.292177 304.008254 
L 97.401082 301.707643 
L 98.247609 300.942879 
L 100.419592 298.990979 
L 102.013846 297.877504 
L 103.438102 296.849147 
L 106.456611 295.266472 
L 107.811053 294.812129 
L 109.475121 294.201832 
L 112.493631 293.69715 
L 115.51214 293.819505 
L 118.53065 294.691583 
L 118.752893 294.812129 
L 121.54916 296.582408 
L 122.823356 297.877504 
L 124.567669 300.159873 
L 125.03616 300.942879 
L 126.514005 304.008254 
L 127.586179 306.976384 
L 127.620173 307.073629 
L 128.535778 310.139003 
L 129.274588 313.204378 
L 129.849331 316.269753 
L 130.242988 319.335128 
L 130.409758 322.400503 
L 130.272725 325.465878 
L 129.718058 328.531253 
L 128.585327 331.596627 
L 127.586179 333.272194 
L 126.806961 334.662002 
L 124.567669 337.414751 
L 124.317807 337.727377 
L 121.54916 340.396076 
L 121.125554 340.792752 
L 118.53065 342.822232 
L 117.097842 343.858127 
L 115.51214 344.881259 
L 112.493631 346.619276 
L 111.89308 346.923502 
L 109.475121 348.101775 
L 106.456611 349.285313 
L 104.04815 349.988877 
L 103.438102 350.17319 
L 100.419592 350.751554 
L 97.401082 350.927398 
L 94.382573 350.614034 
z
" style="fill:#91c3de;"/>
   </g>
   <g id="PathCollection_6">
    <path clip-path="url(#p58aa619087)" d="M 94.382573 350.614034 
L 97.401082 350.927398 
L 100.419592 350.751554 
L 103.438102 350.17319 
L 104.04815 349.988877 
L 106.456611 349.285313 
L 109.475121 348.101775 
L 111.89308 346.923502 
L 112.493631 346.619276 
L 115.51214 344.881259 
L 117.097842 343.858127 
L 118.53065 342.822232 
L 121.125554 340.792752 
L 121.54916 340.396076 
L 124.317807 337.727377 
L 124.567669 337.414751 
L 126.806961 334.662002 
L 127.586179 333.272194 
L 128.585327 331.596627 
L 129.718058 328.531253 
L 130.272725 325.465878 
L 130.409758 322.400503 
L 130.242988 319.335128 
L 129.849331 316.269753 
L 129.274588 313.204378 
L 128.535778 310.139003 
L 127.620173 307.073629 
L 127.586179 306.976384 
L 126.514005 304.008254 
L 125.03616 300.942879 
L 124.567669 300.159873 
L 122.823356 297.877504 
L 121.54916 296.582408 
L 118.752893 294.812129 
L 118.53065 294.691583 
L 115.51214 293.819505 
L 112.493631 293.69715 
L 109.475121 294.201832 
L 107.811053 294.812129 
L 106.456611 295.266472 
L 103.438102 296.849147 
L 102.013846 297.877504 
L 100.419592 298.990979 
L 98.247609 300.942879 
L 97.401082 301.707643 
L 95.292177 304.008254 
L 94.382573 305.048088 
L 92.829134 307.073629 
L 91.364063 309.165982 
L 90.733977 310.139003 
L 88.951107 313.204378 
L 88.345553 314.396391 
L 87.415371 316.269753 
L 86.138382 319.335128 
L 85.327044 321.741099 
L 85.09674 322.400503 
L 84.252224 325.465878 
L 83.659999 328.531253 
L 83.318631 331.596627 
L 83.248513 334.662002 
L 83.49825 337.727377 
L 84.156302 340.792752 
L 85.327044 343.759539 
L 85.373829 343.858127 
L 87.570578 346.923502 
L 88.345553 347.690957 
L 91.364063 349.648654 
L 92.347309 349.988877 
z
M 93.516258 346.923502 
L 91.364063 345.802248 
L 89.259204 343.858127 
L 88.345553 342.624085 
L 87.346899 340.792752 
L 86.351313 337.727377 
L 85.903758 334.662002 
L 85.863069 331.596627 
L 86.148111 328.531253 
L 86.717622 325.465878 
L 87.55885 322.400503 
L 88.345553 320.227717 
L 88.673296 319.335128 
L 90.044103 316.269753 
L 91.364063 313.81502 
L 91.717832 313.204378 
L 93.721223 310.139003 
L 94.382573 309.225062 
L 96.160127 307.073629 
L 97.401082 305.669367 
L 99.182181 304.008254 
L 100.419592 302.88078 
L 103.184105 300.942879 
L 103.438102 300.761656 
L 106.456611 299.226736 
L 109.475121 298.326691 
L 112.493631 298.073775 
L 115.51214 298.586676 
L 118.53065 300.125766 
L 119.461996 300.942879 
L 121.54916 303.293444 
L 122.014374 304.008254 
L 123.574818 307.073629 
L 124.567669 309.811166 
L 124.678218 310.139003 
L 125.478502 313.204378 
L 126.025452 316.269753 
L 126.322251 319.335128 
L 126.339335 322.400503 
L 126.014083 325.465878 
L 125.245747 328.531253 
L 124.567669 330.129199 
L 123.973111 331.596627 
L 122.108931 334.662002 
L 121.54916 335.343099 
L 119.562149 337.727377 
L 118.53065 338.703573 
L 116.175395 340.792752 
L 115.51214 341.293474 
L 112.493631 343.362565 
L 111.649961 343.858127 
L 109.475121 345.039528 
L 106.456611 346.340887 
L 104.583844 346.923502 
L 103.438102 347.279459 
L 100.419592 347.810786 
L 97.401082 347.858117 
L 94.382573 347.29272 
z
" style="fill:#6aaed6;"/>
   </g>
   <g id="PathCollection_7">
    <path clip-path="url(#p58aa619087)" d="M 94.382573 347.29272 
L 97.401082 347.858117 
L 100.419592 347.810786 
L 103.438102 347.279459 
L 104.583844 346.923502 
L 106.456611 346.340887 
L 109.475121 345.039528 
L 111.649961 343.858127 
L 112.493631 343.362565 
L 115.51214 341.293474 
L 116.175395 340.792752 
L 118.53065 338.703573 
L 119.562149 337.727377 
L 121.54916 335.343099 
L 122.108931 334.662002 
L 123.973111 331.596627 
L 124.567669 330.129199 
L 125.245747 328.531253 
L 126.014083 325.465878 
L 126.339335 322.400503 
L 126.322251 319.335128 
L 126.025452 316.269753 
L 125.478502 313.204378 
L 124.678218 310.139003 
L 124.567669 309.811166 
L 123.574818 307.073629 
L 122.014374 304.008254 
L 121.54916 303.293444 
L 119.461996 300.942879 
L 118.53065 300.125766 
L 115.51214 298.586676 
L 112.493631 298.073775 
L 109.475121 298.326691 
L 106.456611 299.226736 
L 103.438102 300.761656 
L 103.184105 300.942879 
L 100.419592 302.88078 
L 99.182181 304.008254 
L 97.401082 305.669367 
L 96.160127 307.073629 
L 94.382573 309.225062 
L 93.721223 310.139003 
L 91.717832 313.204378 
L 91.364063 313.81502 
L 90.044103 316.269753 
L 88.673296 319.335128 
L 88.345553 320.227717 
L 87.55885 322.400503 
L 86.717622 325.465878 
L 86.148111 328.531253 
L 85.863069 331.596627 
L 85.903758 334.662002 
L 86.351313 337.727377 
L 87.346899 340.792752 
L 88.345553 342.624085 
L 89.259204 343.858127 
L 91.364063 345.802248 
L 93.516258 346.923502 
z
M 94.466671 343.858127 
L 94.382573 343.825909 
L 91.364063 341.416418 
L 90.877131 340.792752 
L 89.318978 337.727377 
L 88.559731 334.662002 
L 88.357743 331.596627 
L 88.573197 328.531253 
L 89.129403 325.465878 
L 89.991237 322.400503 
L 91.153452 319.335128 
L 91.364063 318.882784 
L 92.672488 316.269753 
L 94.382573 313.407055 
L 94.52132 313.204378 
L 96.866882 310.139003 
L 97.401082 309.500111 
L 99.87848 307.073629 
L 100.419592 306.566628 
L 103.438102 304.415616 
L 104.298054 304.008254 
L 106.456611 302.963666 
L 109.475121 302.232222 
L 112.493631 302.295996 
L 115.51214 303.362104 
L 116.407369 304.008254 
L 118.53065 305.985855 
L 119.307007 307.073629 
L 120.912857 310.139003 
L 121.54916 311.93743 
L 121.945305 313.204378 
L 122.574806 316.269753 
L 122.872945 319.335128 
L 122.832491 322.400503 
L 122.408546 325.465878 
L 121.54916 328.422988 
L 121.518224 328.531253 
L 120.1498 331.596627 
L 118.53065 334.057303 
L 118.114796 334.662002 
L 115.51214 337.537796 
L 115.321808 337.727377 
L 112.493631 340.056325 
L 111.430869 340.792752 
L 109.475121 341.994095 
L 106.456611 343.442797 
L 105.204835 343.858127 
L 103.438102 344.42205 
L 100.419592 344.88921 
L 97.401082 344.75733 
z
" style="fill:#4d99ca;"/>
   </g>
   <g id="PathCollection_8">
    <path clip-path="url(#p58aa619087)" d="M 97.401082 344.75733 
L 100.419592 344.88921 
L 103.438102 344.42205 
L 105.204835 343.858127 
L 106.456611 343.442797 
L 109.475121 341.994095 
L 111.430869 340.792752 
L 112.493631 340.056325 
L 115.321808 337.727377 
L 115.51214 337.537796 
L 118.114796 334.662002 
L 118.53065 334.057303 
L 120.1498 331.596627 
L 121.518224 328.531253 
L 121.54916 328.422988 
L 122.408546 325.465878 
L 122.832491 322.400503 
L 122.872945 319.335128 
L 122.574806 316.269753 
L 121.945305 313.204378 
L 121.54916 311.93743 
L 120.912857 310.139003 
L 119.307007 307.073629 
L 118.53065 305.985855 
L 116.407369 304.008254 
L 115.51214 303.362104 
L 112.493631 302.295996 
L 109.475121 302.232222 
L 106.456611 302.963666 
L 104.298054 304.008254 
L 103.438102 304.415616 
L 100.419592 306.566628 
L 99.87848 307.073629 
L 97.401082 309.500111 
L 96.866882 310.139003 
L 94.52132 313.204378 
L 94.382573 313.407055 
L 92.672488 316.269753 
L 91.364063 318.882784 
L 91.153452 319.335128 
L 89.991237 322.400503 
L 89.129403 325.465878 
L 88.573197 328.531253 
L 88.357743 331.596627 
L 88.559731 334.662002 
L 89.318978 337.727377 
L 90.877131 340.792752 
L 91.364063 341.416418 
L 94.382573 343.825909 
L 94.466671 343.858127 
z
M 96.034946 340.792752 
L 94.382573 339.723464 
L 92.750777 337.727377 
L 91.405716 334.662002 
L 91.364063 334.424402 
L 90.979287 331.596627 
L 91.063319 328.531253 
L 91.364063 326.68432 
L 91.576227 325.465878 
L 92.493525 322.400503 
L 93.747278 319.335128 
L 94.382573 318.094676 
L 95.456506 316.269753 
L 97.401082 313.45508 
L 97.616426 313.204378 
L 100.419592 310.258067 
L 100.575175 310.139003 
L 103.438102 308.053892 
L 105.578031 307.073629 
L 106.456611 306.67172 
L 109.475121 306.170947 
L 112.493631 306.671892 
L 113.236581 307.073629 
L 115.51214 308.685118 
L 116.6729 310.139003 
L 118.317551 313.204378 
L 118.53065 313.850001 
L 119.190249 316.269753 
L 119.586297 319.335128 
L 119.560796 322.400503 
L 119.094963 325.465878 
L 118.53065 327.276199 
L 118.126573 328.531253 
L 116.584954 331.596627 
L 115.51214 333.111965 
L 114.300315 334.662002 
L 112.493631 336.464063 
L 110.988343 337.727377 
L 109.475121 338.800623 
L 106.456611 340.447874 
L 105.485924 340.792752 
L 103.438102 341.464144 
L 100.419592 341.834114 
L 97.401082 341.425001 
z
" style="fill:#3383be;"/>
   </g>
   <g id="PathCollection_9">
    <path clip-path="url(#p58aa619087)" d="M 97.401082 341.425001 
L 100.419592 341.834114 
L 103.438102 341.464144 
L 105.485924 340.792752 
L 106.456611 340.447874 
L 109.475121 338.800623 
L 110.988343 337.727377 
L 112.493631 336.464063 
L 114.300315 334.662002 
L 115.51214 333.111965 
L 116.584954 331.596627 
L 118.126573 328.531253 
L 118.53065 327.276199 
L 119.094963 325.465878 
L 119.560796 322.400503 
L 119.586297 319.335128 
L 119.190249 316.269753 
L 118.53065 313.850001 
L 118.317551 313.204378 
L 116.6729 310.139003 
L 115.51214 308.685118 
L 113.236581 307.073629 
L 112.493631 306.671892 
L 109.475121 306.170947 
L 106.456611 306.67172 
L 105.578031 307.073629 
L 103.438102 308.053892 
L 100.575175 310.139003 
L 100.419592 310.258067 
L 97.616426 313.204378 
L 97.401082 313.45508 
L 95.456506 316.269753 
L 94.382573 318.094676 
L 93.747278 319.335128 
L 92.493525 322.400503 
L 91.576227 325.465878 
L 91.364063 326.68432 
L 91.063319 328.531253 
L 90.979287 331.596627 
L 91.364063 334.424402 
L 91.405716 334.662002 
L 92.750777 337.727377 
L 94.382573 339.723464 
L 96.034946 340.792752 
z
M 98.059478 337.727377 
L 97.401082 337.445862 
L 94.935785 334.662002 
L 94.382573 333.279073 
L 93.94588 331.596627 
L 93.824223 328.531253 
L 94.239038 325.465878 
L 94.382573 324.961792 
L 95.226524 322.400503 
L 96.649999 319.335128 
L 97.401082 318.056972 
L 98.722578 316.269753 
L 100.419592 314.289974 
L 101.735747 313.204378 
L 103.438102 311.915731 
L 106.456611 310.616079 
L 109.475121 310.439355 
L 112.493631 311.799018 
L 113.802499 313.204378 
L 115.51214 316.242748 
L 115.522665 316.269753 
L 116.165334 319.335128 
L 116.241899 322.400503 
L 115.781106 325.465878 
L 115.51214 326.275772 
L 114.686342 328.531253 
L 112.92554 331.596627 
L 112.493631 332.142869 
L 110.117894 334.662002 
L 109.475121 335.205259 
L 106.456611 337.127145 
L 104.89256 337.727377 
L 103.438102 338.217426 
L 100.419592 338.411744 
z
" style="fill:#1c6bb0;"/>
   </g>
   <g id="PathCollection_10">
    <path clip-path="url(#p58aa619087)" d="M 100.419592 338.411744 
L 103.438102 338.217426 
L 104.89256 337.727377 
L 106.456611 337.127145 
L 109.475121 335.205259 
L 110.117894 334.662002 
L 112.493631 332.142869 
L 112.92554 331.596627 
L 114.686342 328.531253 
L 115.51214 326.275772 
L 115.781106 325.465878 
L 116.241899 322.400503 
L 116.165334 319.335128 
L 115.522665 316.269753 
L 115.51214 316.242748 
L 113.802499 313.204378 
L 112.493631 311.799018 
L 109.475121 310.439355 
L 106.456611 310.616079 
L 103.438102 311.915731 
L 101.735747 313.204378 
L 100.419592 314.289974 
L 98.722578 316.269753 
L 97.401082 318.056972 
L 96.649999 319.335128 
L 95.226524 322.400503 
L 94.382573 324.961792 
L 94.239038 325.465878 
L 93.824223 328.531253 
L 93.94588 331.596627 
L 94.382573 333.279073 
L 94.935785 334.662002 
L 97.401082 337.445862 
L 98.059478 337.727377 
z
M 98.053214 331.596627 
L 97.401082 329.595657 
L 97.21616 328.531253 
L 97.401082 326.260404 
L 97.487009 325.465878 
L 98.644887 322.400503 
L 100.349452 319.335128 
L 100.419592 319.238916 
L 103.438102 316.436156 
L 103.843996 316.269753 
L 106.456611 315.337401 
L 109.475121 315.897324 
L 109.920496 316.269753 
L 111.931995 319.335128 
L 112.461508 322.400503 
L 111.979428 325.465878 
L 110.679159 328.531253 
L 109.475121 330.289024 
L 108.222436 331.596627 
L 106.456611 332.960206 
L 103.438102 334.188549 
L 100.419592 333.880308 
z
" style="fill:#0a539e;"/>
   </g>
   <g id="PathCollection_11">
    <path clip-path="url(#p58aa619087)" d="M 100.419592 333.880308 
L 103.438102 334.188549 
L 106.456611 332.960206 
L 108.222436 331.596627 
L 109.475121 330.289024 
L 110.679159 328.531253 
L 111.979428 325.465878 
L 112.461508 322.400503 
L 111.931995 319.335128 
L 109.920496 316.269753 
L 109.475121 315.897324 
L 106.456611 315.337401 
L 103.843996 316.269753 
L 103.438102 316.436156 
L 100.419592 319.238916 
L 100.349452 319.335128 
L 98.644887 322.400503 
L 97.487009 325.465878 
L 97.401082 326.260404 
L 97.21616 328.531253 
L 97.401082 329.595657 
L 98.053214 331.596627 
z
" style="fill:#083b7c;"/>
   </g>
   <g id="patch_3">
    <path d="M 52.123438 389.83875 
L 52.123438 86.366638 
" style="fill:none;"/>
   </g>
   <g id="patch_4">
    <path d="M 52.123438 389.83875 
L 350.955894 389.83875 
" style="fill:none;"/>
   </g>
   <g id="legend_1">
    <g id="line2d_29"/>
    <g id="line2d_30"/>
    <g id="text_17">
     <!-- pearsonr = 0.41; p = 3.2e-07 -->
     <defs>
      <path d="M 18.109375 8.203125 
L 18.109375 -20.796875 
L 9.078125 -20.796875 
L 9.078125 54.6875 
L 18.109375 54.6875 
L 18.109375 46.390625 
Q 20.953125 51.265625 25.265625 53.625 
Q 29.59375 56 35.59375 56 
Q 45.5625 56 51.78125 48.09375 
Q 58.015625 40.1875 58.015625 27.296875 
Q 58.015625 14.40625 51.78125 6.484375 
Q 45.5625 -1.421875 35.59375 -1.421875 
Q 29.59375 -1.421875 25.265625 0.953125 
Q 20.953125 3.328125 18.109375 8.203125 
z
M 48.6875 27.296875 
Q 48.6875 37.203125 44.609375 42.84375 
Q 40.53125 48.484375 33.40625 48.484375 
Q 26.265625 48.484375 22.1875 42.84375 
Q 18.109375 37.203125 18.109375 27.296875 
Q 18.109375 17.390625 22.1875 11.75 
Q 26.265625 6.109375 33.40625 6.109375 
Q 40.53125 6.109375 44.609375 11.75 
Q 48.6875 17.390625 48.6875 27.296875 
z
" id="DejaVuSans-70"/>
      <path d="M 34.28125 27.484375 
Q 23.390625 27.484375 19.1875 25 
Q 14.984375 22.515625 14.984375 16.5 
Q 14.984375 11.71875 18.140625 8.90625 
Q 21.296875 6.109375 26.703125 6.109375 
Q 34.1875 6.109375 38.703125 11.40625 
Q 43.21875 16.703125 43.21875 25.484375 
L 43.21875 27.484375 
z
M 52.203125 31.203125 
L 52.203125 0 
L 43.21875 0 
L 43.21875 8.296875 
Q 40.140625 3.328125 35.546875 0.953125 
Q 30.953125 -1.421875 24.3125 -1.421875 
Q 15.921875 -1.421875 10.953125 3.296875 
Q 6 8.015625 6 15.921875 
Q 6 25.140625 12.171875 29.828125 
Q 18.359375 34.515625 30.609375 34.515625 
L 43.21875 34.515625 
L 43.21875 35.40625 
Q 43.21875 41.609375 39.140625 45 
Q 35.0625 48.390625 27.6875 48.390625 
Q 23 48.390625 18.546875 47.265625 
Q 14.109375 46.140625 10.015625 43.890625 
L 10.015625 52.203125 
Q 14.9375 54.109375 19.578125 55.046875 
Q 24.21875 56 28.609375 56 
Q 40.484375 56 46.34375 49.84375 
Q 52.203125 43.703125 52.203125 31.203125 
z
" id="DejaVuSans-61"/>
      <path d="M 44.28125 53.078125 
L 44.28125 44.578125 
Q 40.484375 46.53125 36.375 47.5 
Q 32.28125 48.484375 27.875 48.484375 
Q 21.1875 48.484375 17.84375 46.4375 
Q 14.5 44.390625 14.5 40.28125 
Q 14.5 37.15625 16.890625 35.375 
Q 19.28125 33.59375 26.515625 31.984375 
L 29.59375 31.296875 
Q 39.15625 29.25 43.1875 25.515625 
Q 47.21875 21.78125 47.21875 15.09375 
Q 47.21875 7.46875 41.1875 3.015625 
Q 35.15625 -1.421875 24.609375 -1.421875 
Q 20.21875 -1.421875 15.453125 -0.5625 
Q 10.6875 0.296875 5.421875 2 
L 5.421875 11.28125 
Q 10.40625 8.6875 15.234375 7.390625 
Q 20.0625 6.109375 24.8125 6.109375 
Q 31.15625 6.109375 34.5625 8.28125 
Q 37.984375 10.453125 37.984375 14.40625 
Q 37.984375 18.0625 35.515625 20.015625 
Q 33.0625 21.96875 24.703125 23.78125 
L 21.578125 24.515625 
Q 13.234375 26.265625 9.515625 29.90625 
Q 5.8125 33.546875 5.8125 39.890625 
Q 5.8125 47.609375 11.28125 51.796875 
Q 16.75 56 26.8125 56 
Q 31.78125 56 36.171875 55.265625 
Q 40.578125 54.546875 44.28125 53.078125 
z
" id="DejaVuSans-73"/>
      <path d="M 30.609375 48.390625 
Q 23.390625 48.390625 19.1875 42.75 
Q 14.984375 37.109375 14.984375 27.296875 
Q 14.984375 17.484375 19.15625 11.84375 
Q 23.34375 6.203125 30.609375 6.203125 
Q 37.796875 6.203125 41.984375 11.859375 
Q 46.1875 17.53125 46.1875 27.296875 
Q 46.1875 37.015625 41.984375 42.703125 
Q 37.796875 48.390625 30.609375 48.390625 
z
M 30.609375 56 
Q 42.328125 56 49.015625 48.375 
Q 55.71875 40.765625 55.71875 27.296875 
Q 55.71875 13.875 49.015625 6.21875 
Q 42.328125 -1.421875 30.609375 -1.421875 
Q 18.84375 -1.421875 12.171875 6.21875 
Q 5.515625 13.875 5.515625 27.296875 
Q 5.515625 40.765625 12.171875 48.375 
Q 18.84375 56 30.609375 56 
z
" id="DejaVuSans-6f"/>
      <path d="M 54.890625 33.015625 
L 54.890625 0 
L 45.90625 0 
L 45.90625 32.71875 
Q 45.90625 40.484375 42.875 44.328125 
Q 39.84375 48.1875 33.796875 48.1875 
Q 26.515625 48.1875 22.3125 43.546875 
Q 18.109375 38.921875 18.109375 30.90625 
L 18.109375 0 
L 9.078125 0 
L 9.078125 54.6875 
L 18.109375 54.6875 
L 18.109375 46.1875 
Q 21.34375 51.125 25.703125 53.5625 
Q 30.078125 56 35.796875 56 
Q 45.21875 56 50.046875 50.171875 
Q 54.890625 44.34375 54.890625 33.015625 
z
" id="DejaVuSans-6e"/>
      <path id="DejaVuSans-20"/>
      <path d="M 10.59375 45.40625 
L 73.1875 45.40625 
L 73.1875 37.203125 
L 10.59375 37.203125 
z
M 10.59375 25.484375 
L 73.1875 25.484375 
L 73.1875 17.1875 
L 10.59375 17.1875 
z
" id="DejaVuSans-3d"/>
      <path d="M 10.6875 12.40625 
L 21 12.40625 
L 21 0 
L 10.6875 0 
z
" id="DejaVuSans-2e"/>
      <path d="M 11.71875 51.703125 
L 22.015625 51.703125 
L 22.015625 39.3125 
L 11.71875 39.3125 
z
M 11.71875 12.40625 
L 22.015625 12.40625 
L 22.015625 4 
L 14.015625 -11.625 
L 7.71875 -11.625 
L 11.71875 4 
z
" id="DejaVuSans-3b"/>
      <path d="M 4.890625 31.390625 
L 31.203125 31.390625 
L 31.203125 23.390625 
L 4.890625 23.390625 
z
" id="DejaVuSans-2d"/>
      <path d="M 8.203125 72.90625 
L 55.078125 72.90625 
L 55.078125 68.703125 
L 28.609375 0 
L 18.3125 0 
L 43.21875 64.59375 
L 8.203125 64.59375 
z
" id="DejaVuSans-37"/>
     </defs>
     <g style="fill:#262626;" transform="translate(194.416832 102.965075)scale(0.1 -0.1)">
      <use xlink:href="#DejaVuSans-70"/>
      <use x="63.476562" xlink:href="#DejaVuSans-65"/>
      <use x="125" xlink:href="#DejaVuSans-61"/>
      <use x="186.279297" xlink:href="#DejaVuSans-72"/>
      <use x="227.392578" xlink:href="#DejaVuSans-73"/>
      <use x="279.492188" xlink:href="#DejaVuSans-6f"/>
      <use x="340.673828" xlink:href="#DejaVuSans-6e"/>
      <use x="404.052734" xlink:href="#DejaVuSans-72"/>
      <use x="445.166016" xlink:href="#DejaVuSans-20"/>
      <use x="476.953125" xlink:href="#DejaVuSans-3d"/>
      <use x="560.742188" xlink:href="#DejaVuSans-20"/>
      <use x="592.529297" xlink:href="#DejaVuSans-30"/>
      <use x="656.152344" xlink:href="#DejaVuSans-2e"/>
      <use x="687.939453" xlink:href="#DejaVuSans-34"/>
      <use x="751.5625" xlink:href="#DejaVuSans-31"/>
      <use x="815.185547" xlink:href="#DejaVuSans-3b"/>
      <use x="848.876953" xlink:href="#DejaVuSans-20"/>
      <use x="880.664062" xlink:href="#DejaVuSans-70"/>
      <use x="944.140625" xlink:href="#DejaVuSans-20"/>
      <use x="975.927734" xlink:href="#DejaVuSans-3d"/>
      <use x="1059.716797" xlink:href="#DejaVuSans-20"/>
      <use x="1091.503906" xlink:href="#DejaVuSans-33"/>
      <use x="1155.126953" xlink:href="#DejaVuSans-2e"/>
      <use x="1186.914062" xlink:href="#DejaVuSans-32"/>
      <use x="1250.537109" xlink:href="#DejaVuSans-65"/>
      <use x="1312.060547" xlink:href="#DejaVuSans-2d"/>
      <use x="1348.144531" xlink:href="#DejaVuSans-30"/>
      <use x="1411.767578" xlink:href="#DejaVuSans-37"/>
     </g>
    </g>
   </g>
  </g>
  <g id="axes_2">
   <g id="patch_5">
    <path d="M 52.123438 73.172198 
L 350.955894 73.172198 
L 350.955894 7.2 
L 52.123438 7.2 
z
" style="fill:#eaeaf2;"/>
   </g>
   <g id="matplotlib.axis_3">
    <g id="xtick_7">
     <g id="line2d_31">
      <path clip-path="url(#p9d010469ca)" d="M 99.075554 73.172198 
L 99.075554 7.2 
" style="fill:none;stroke:#ffffff;stroke-linecap:round;stroke-width:0.8;"/>
     </g>
     <g id="line2d_32"/>
    </g>
    <g id="xtick_8">
     <g id="line2d_33">
      <path clip-path="url(#p9d010469ca)" d="M 148.997776 73.172198 
L 148.997776 7.2 
" style="fill:none;stroke:#ffffff;stroke-linecap:round;stroke-width:0.8;"/>
     </g>
     <g id="line2d_34"/>
    </g>
    <g id="xtick_9">
     <g id="line2d_35">
      <path clip-path="url(#p9d010469ca)" d="M 198.919997 73.172198 
L 198.919997 7.2 
" style="fill:none;stroke:#ffffff;stroke-linecap:round;stroke-width:0.8;"/>
     </g>
     <g id="line2d_36"/>
    </g>
    <g id="xtick_10">
     <g id="line2d_37">
      <path clip-path="url(#p9d010469ca)" d="M 248.842219 73.172198 
L 248.842219 7.2 
" style="fill:none;stroke:#ffffff;stroke-linecap:round;stroke-width:0.8;"/>
     </g>
     <g id="line2d_38"/>
    </g>
    <g id="xtick_11">
     <g id="line2d_39">
      <path clip-path="url(#p9d010469ca)" d="M 298.764441 73.172198 
L 298.764441 7.2 
" style="fill:none;stroke:#ffffff;stroke-linecap:round;stroke-width:0.8;"/>
     </g>
     <g id="line2d_40"/>
    </g>
    <g id="xtick_12">
     <g id="line2d_41">
      <path clip-path="url(#p9d010469ca)" d="M 348.686662 73.172198 
L 348.686662 7.2 
" style="fill:none;stroke:#ffffff;stroke-linecap:round;stroke-width:0.8;"/>
     </g>
     <g id="line2d_42"/>
    </g>
   </g>
   <g id="matplotlib.axis_4">
    <g id="ytick_9"/>
    <g id="ytick_10"/>
    <g id="ytick_11"/>
   </g>
   <g id="PolyCollection_1">
    <path clip-path="url(#p9d010469ca)" d="M 59.455006 72.786918 
L 59.455006 73.172198 
L 62.325403 73.172198 
L 65.1958 73.172198 
L 68.066197 73.172198 
L 70.936595 73.172198 
L 73.806992 73.172198 
L 76.677389 73.172198 
L 79.547786 73.172198 
L 82.418183 73.172198 
L 85.28858 73.172198 
L 88.158978 73.172198 
L 91.029375 73.172198 
L 93.899772 73.172198 
L 96.770169 73.172198 
L 99.640566 73.172198 
L 102.510963 73.172198 
L 105.381361 73.172198 
L 108.251758 73.172198 
L 111.122155 73.172198 
L 113.992552 73.172198 
L 116.862949 73.172198 
L 119.733346 73.172198 
L 122.603744 73.172198 
L 125.474141 73.172198 
L 128.344538 73.172198 
L 131.214935 73.172198 
L 134.085332 73.172198 
L 136.95573 73.172198 
L 139.826127 73.172198 
L 142.696524 73.172198 
L 145.566921 73.172198 
L 148.437318 73.172198 
L 151.307715 73.172198 
L 154.178113 73.172198 
L 157.04851 73.172198 
L 159.918907 73.172198 
L 162.789304 73.172198 
L 165.659701 73.172198 
L 168.530098 73.172198 
L 171.400496 73.172198 
L 174.270893 73.172198 
L 177.14129 73.172198 
L 180.011687 73.172198 
L 182.882084 73.172198 
L 185.752481 73.172198 
L 188.622879 73.172198 
L 191.493276 73.172198 
L 194.363673 73.172198 
L 197.23407 73.172198 
L 200.104467 73.172198 
L 202.974865 73.172198 
L 205.845262 73.172198 
L 208.715659 73.172198 
L 211.586056 73.172198 
L 214.456453 73.172198 
L 217.32685 73.172198 
L 220.197248 73.172198 
L 223.067645 73.172198 
L 225.938042 73.172198 
L 228.808439 73.172198 
L 231.678836 73.172198 
L 234.549233 73.172198 
L 237.419631 73.172198 
L 240.290028 73.172198 
L 243.160425 73.172198 
L 246.030822 73.172198 
L 248.901219 73.172198 
L 251.771616 73.172198 
L 254.642014 73.172198 
L 257.512411 73.172198 
L 260.382808 73.172198 
L 263.253205 73.172198 
L 266.123602 73.172198 
L 268.994 73.172198 
L 271.864397 73.172198 
L 274.734794 73.172198 
L 277.605191 73.172198 
L 280.475588 73.172198 
L 283.345985 73.172198 
L 286.216383 73.172198 
L 289.08678 73.172198 
L 291.957177 73.172198 
L 294.827574 73.172198 
L 297.697971 73.172198 
L 300.568368 73.172198 
L 303.438766 73.172198 
L 306.309163 73.172198 
L 309.17956 73.172198 
L 312.049957 73.172198 
L 314.920354 73.172198 
L 317.790751 73.172198 
L 320.661149 73.172198 
L 323.531546 73.172198 
L 326.401943 73.172198 
L 329.27234 73.172198 
L 332.142737 73.172198 
L 335.013135 73.172198 
L 337.883532 73.172198 
L 340.753929 73.172198 
L 343.624326 73.172198 
L 343.624326 73.163542 
L 343.624326 73.163542 
L 340.753929 73.156016 
L 337.883532 73.143316 
L 335.013135 73.122972 
L 332.142737 73.092052 
L 329.27234 73.047498 
L 326.401943 72.986671 
L 323.531546 72.908051 
L 320.661149 72.811903 
L 317.790751 72.700704 
L 314.920354 72.579072 
L 312.049957 72.453126 
L 309.17956 72.329338 
L 306.309163 72.213218 
L 303.438766 72.108262 
L 300.568368 72.015561 
L 297.697971 71.934271 
L 294.827574 71.862795 
L 291.957177 71.800253 
L 289.08678 71.747702 
L 286.216383 71.708623 
L 283.345985 71.6885 
L 280.475588 71.693582 
L 277.605191 71.729231 
L 274.734794 71.798319 
L 271.864397 71.900128 
L 268.994 72.030036 
L 266.123602 72.180046 
L 263.253205 72.339996 
L 260.382808 72.499137 
L 257.512411 72.64769 
L 254.642014 72.77801 
L 251.771616 72.885138 
L 248.901219 72.966706 
L 246.030822 73.022309 
L 243.160425 73.052631 
L 240.290028 73.058618 
L 237.419631 73.040939 
L 234.549233 72.999859 
L 231.678836 72.935453 
L 228.808439 72.847917 
L 225.938042 72.737616 
L 223.067645 72.604468 
L 220.197248 72.446437 
L 217.32685 72.257214 
L 214.456453 72.023613 
L 211.586056 71.723643 
L 208.715659 71.326396 
L 205.845262 70.794758 
L 202.974865 70.091262 
L 200.104467 69.186473 
L 197.23407 68.068166 
L 194.363673 66.74887 
L 191.493276 65.26924 
L 188.622879 63.695519 
L 185.752481 62.110894 
L 182.882084 60.602336 
L 180.011687 59.246025 
L 177.14129 58.095005 
L 174.270893 57.172103 
L 171.400496 56.469512 
L 168.530098 55.954374 
L 165.659701 55.577991 
L 162.789304 55.285504 
L 159.918907 55.023289 
L 157.04851 54.742517 
L 154.178113 54.398871 
L 151.307715 53.949609 
L 148.437318 53.34965 
L 145.566921 52.548254 
L 142.696524 51.487268 
L 139.826127 50.101416 
L 136.95573 48.320794 
L 134.085332 46.075974 
L 131.214935 43.306513 
L 128.344538 39.974083 
L 125.474141 36.08106 
L 122.603744 31.69377 
L 119.733346 26.966608 
L 116.862949 22.159561 
L 113.992552 17.639194 
L 111.122155 13.853893 
L 108.251758 11.279584 
L 105.381361 10.341533 
L 102.510963 11.328234 
L 99.640566 14.320203 
L 96.770169 19.155915 
L 93.899772 25.447991 
L 91.029375 32.647964 
L 88.158978 40.143031 
L 85.28858 47.359098 
L 82.418183 53.844382 
L 79.547786 59.316271 
L 76.677389 63.666933 
L 73.806992 66.935157 
L 70.936595 69.259074 
L 68.066197 70.82542 
L 65.1958 71.827207 
L 62.325403 72.435689 
L 59.455006 72.786918 
z
" style="fill:#1f77b4;fill-opacity:0.25;"/>
   </g>
   <g id="line2d_43">
    <path clip-path="url(#p9d010469ca)" d="M 59.455006 72.786918 
L 62.325403 72.435689 
L 65.1958 71.827207 
L 68.066197 70.82542 
L 70.936595 69.259074 
L 73.806992 66.935157 
L 76.677389 63.666933 
L 79.547786 59.316271 
L 82.418183 53.844382 
L 85.28858 47.359098 
L 88.158978 40.143031 
L 91.029375 32.647964 
L 93.899772 25.447991 
L 96.770169 19.155915 
L 99.640566 14.320203 
L 102.510963 11.328234 
L 105.381361 10.341533 
L 108.251758 11.279584 
L 111.122155 13.853893 
L 113.992552 17.639194 
L 116.862949 22.159561 
L 119.733346 26.966608 
L 122.603744 31.69377 
L 125.474141 36.08106 
L 128.344538 39.974083 
L 131.214935 43.306513 
L 134.085332 46.075974 
L 136.95573 48.320794 
L 139.826127 50.101416 
L 142.696524 51.487268 
L 145.566921 52.548254 
L 148.437318 53.34965 
L 151.307715 53.949609 
L 154.178113 54.398871 
L 157.04851 54.742517 
L 159.918907 55.023289 
L 162.789304 55.285504 
L 165.659701 55.577991 
L 168.530098 55.954374 
L 171.400496 56.469512 
L 174.270893 57.172103 
L 177.14129 58.095005 
L 180.011687 59.246025 
L 182.882084 60.602336 
L 185.752481 62.110894 
L 188.622879 63.695519 
L 191.493276 65.26924 
L 194.363673 66.74887 
L 197.23407 68.068166 
L 200.104467 69.186473 
L 202.974865 70.091262 
L 205.845262 70.794758 
L 208.715659 71.326396 
L 211.586056 71.723643 
L 214.456453 72.023613 
L 217.32685 72.257214 
L 220.197248 72.446437 
L 223.067645 72.604468 
L 225.938042 72.737616 
L 228.808439 72.847917 
L 231.678836 72.935453 
L 234.549233 72.999859 
L 237.419631 73.040939 
L 240.290028 73.058618 
L 243.160425 73.052631 
L 246.030822 73.022309 
L 248.901219 72.966706 
L 251.771616 72.885138 
L 254.642014 72.77801 
L 257.512411 72.64769 
L 260.382808 72.499137 
L 263.253205 72.339996 
L 266.123602 72.180046 
L 268.994 72.030036 
L 271.864397 71.900128 
L 274.734794 71.798319 
L 277.605191 71.729231 
L 280.475588 71.693582 
L 283.345985 71.6885 
L 286.216383 71.708623 
L 289.08678 71.747702 
L 291.957177 71.800253 
L 294.827574 71.862795 
L 297.697971 71.934271 
L 300.568368 72.015561 
L 303.438766 72.108262 
L 306.309163 72.213218 
L 309.17956 72.329338 
L 312.049957 72.453126 
L 314.920354 72.579072 
L 317.790751 72.700704 
L 320.661149 72.811903 
L 323.531546 72.908051 
L 326.401943 72.986671 
L 329.27234 73.047498 
L 332.142737 73.092052 
L 335.013135 73.122972 
L 337.883532 73.143316 
L 340.753929 73.156016 
L 343.624326 73.163542 
" style="fill:none;stroke:#1f77b4;stroke-linecap:round;stroke-width:1.5;"/>
   </g>
   <g id="patch_6">
    <path d="M 52.123438 73.172198 
L 350.955894 73.172198 
" style="fill:none;"/>
   </g>
  </g>
  <g id="axes_3">
   <g id="patch_7">
    <path d="M 363.94861 389.83875 
L 428.912188 389.83875 
L 428.912188 86.366638 
L 363.94861 86.366638 
z
" style="fill:#eaeaf2;"/>
   </g>
   <g id="matplotlib.axis_5">
    <g id="xtick_13"/>
    <g id="xtick_14"/>
   </g>
   <g id="matplotlib.axis_6">
    <g id="ytick_12">
     <g id="line2d_44">
      <path clip-path="url(#p72fa512c0d)" d="M 363.94861 380.683641 
L 428.912188 380.683641 
" style="fill:none;stroke:#ffffff;stroke-linecap:round;stroke-width:0.8;"/>
     </g>
     <g id="line2d_45"/>
    </g>
    <g id="ytick_13">
     <g id="line2d_46">
      <path clip-path="url(#p72fa512c0d)" d="M 363.94861 339.952046 
L 428.912188 339.952046 
" style="fill:none;stroke:#ffffff;stroke-linecap:round;stroke-width:0.8;"/>
     </g>
     <g id="line2d_47"/>
    </g>
    <g id="ytick_14">
     <g id="line2d_48">
      <path clip-path="url(#p72fa512c0d)" d="M 363.94861 299.220452 
L 428.912188 299.220452 
" style="fill:none;stroke:#ffffff;stroke-linecap:round;stroke-width:0.8;"/>
     </g>
     <g id="line2d_49"/>
    </g>
    <g id="ytick_15">
     <g id="line2d_50">
      <path clip-path="url(#p72fa512c0d)" d="M 363.94861 258.488857 
L 428.912188 258.488857 
" style="fill:none;stroke:#ffffff;stroke-linecap:round;stroke-width:0.8;"/>
     </g>
     <g id="line2d_51"/>
    </g>
    <g id="ytick_16">
     <g id="line2d_52">
      <path clip-path="url(#p72fa512c0d)" d="M 363.94861 217.757263 
L 428.912188 217.757263 
" style="fill:none;stroke:#ffffff;stroke-linecap:round;stroke-width:0.8;"/>
     </g>
     <g id="line2d_53"/>
    </g>
    <g id="ytick_17">
     <g id="line2d_54">
      <path clip-path="url(#p72fa512c0d)" d="M 363.94861 177.025668 
L 428.912188 177.025668 
" style="fill:none;stroke:#ffffff;stroke-linecap:round;stroke-width:0.8;"/>
     </g>
     <g id="line2d_55"/>
    </g>
    <g id="ytick_18">
     <g id="line2d_56">
      <path clip-path="url(#p72fa512c0d)" d="M 363.94861 136.294073 
L 428.912188 136.294073 
" style="fill:none;stroke:#ffffff;stroke-linecap:round;stroke-width:0.8;"/>
     </g>
     <g id="line2d_57"/>
    </g>
    <g id="ytick_19">
     <g id="line2d_58">
      <path clip-path="url(#p72fa512c0d)" d="M 363.94861 95.562479 
L 428.912188 95.562479 
" style="fill:none;stroke:#ffffff;stroke-linecap:round;stroke-width:0.8;"/>
     </g>
     <g id="line2d_59"/>
    </g>
   </g>
   <g id="PolyCollection_2">
    <path clip-path="url(#p72fa512c0d)" d="M 364.161451 382.043415 
L 363.94861 382.043415 
L 363.94861 379.135521 
L 363.94861 376.227628 
L 363.94861 373.319735 
L 363.94861 370.411841 
L 363.94861 367.503948 
L 363.94861 364.596055 
L 363.94861 361.688161 
L 363.94861 358.780268 
L 363.94861 355.872375 
L 363.94861 352.964481 
L 363.94861 350.056588 
L 363.94861 347.148695 
L 363.94861 344.240801 
L 363.94861 341.332908 
L 363.94861 338.425014 
L 363.94861 335.517121 
L 363.94861 332.609228 
L 363.94861 329.701334 
L 363.94861 326.793441 
L 363.94861 323.885548 
L 363.94861 320.977654 
L 363.94861 318.069761 
L 363.94861 315.161868 
L 363.94861 312.253974 
L 363.94861 309.346081 
L 363.94861 306.438188 
L 363.94861 303.530294 
L 363.94861 300.622401 
L 363.94861 297.714508 
L 363.94861 294.806614 
L 363.94861 291.898721 
L 363.94861 288.990828 
L 363.94861 286.082934 
L 363.94861 283.175041 
L 363.94861 280.267148 
L 363.94861 277.359254 
L 363.94861 274.451361 
L 363.94861 271.543467 
L 363.94861 268.635574 
L 363.94861 265.727681 
L 363.94861 262.819787 
L 363.94861 259.911894 
L 363.94861 257.004001 
L 363.94861 254.096107 
L 363.94861 251.188214 
L 363.94861 248.280321 
L 363.94861 245.372427 
L 363.94861 242.464534 
L 363.94861 239.556641 
L 363.94861 236.648747 
L 363.94861 233.740854 
L 363.94861 230.832961 
L 363.94861 227.925067 
L 363.94861 225.017174 
L 363.94861 222.109281 
L 363.94861 219.201387 
L 363.94861 216.293494 
L 363.94861 213.385601 
L 363.94861 210.477707 
L 363.94861 207.569814 
L 363.94861 204.66192 
L 363.94861 201.754027 
L 363.94861 198.846134 
L 363.94861 195.93824 
L 363.94861 193.030347 
L 363.94861 190.122454 
L 363.94861 187.21456 
L 363.94861 184.306667 
L 363.94861 181.398774 
L 363.94861 178.49088 
L 363.94861 175.582987 
L 363.94861 172.675094 
L 363.94861 169.7672 
L 363.94861 166.859307 
L 363.94861 163.951414 
L 363.94861 161.04352 
L 363.94861 158.135627 
L 363.94861 155.227734 
L 363.94861 152.31984 
L 363.94861 149.411947 
L 363.94861 146.504053 
L 363.94861 143.59616 
L 363.94861 140.688267 
L 363.94861 137.780373 
L 363.94861 134.87248 
L 363.94861 131.964587 
L 363.94861 129.056693 
L 363.94861 126.1488 
L 363.94861 123.240907 
L 363.94861 120.333013 
L 363.94861 117.42512 
L 363.94861 114.517227 
L 363.94861 111.609333 
L 363.94861 108.70144 
L 363.94861 105.793547 
L 363.94861 102.885653 
L 363.94861 99.97776 
L 363.94861 97.069867 
L 363.94861 94.161973 
L 363.956816 94.161973 
L 363.956816 94.161973 
L 363.963499 97.069867 
L 363.974498 99.97776 
L 363.991748 102.885653 
L 364.017502 105.793547 
L 364.054059 108.70144 
L 364.103319 111.609333 
L 364.166203 114.517227 
L 364.242046 117.42512 
L 364.328151 120.333013 
L 364.419695 123.240907 
L 364.510143 126.1488 
L 364.592221 129.056693 
L 364.659289 131.964587 
L 364.706831 134.87248 
L 364.73363 137.780373 
L 364.742274 140.688267 
L 364.738767 143.59616 
L 364.731311 146.504053 
L 364.728575 149.411947 
L 364.737968 152.31984 
L 364.764444 155.227734 
L 364.810184 158.135627 
L 364.875237 161.04352 
L 364.958833 163.951414 
L 365.060855 166.859307 
L 365.182899 169.7672 
L 365.328468 172.675094 
L 365.502206 175.582987 
L 365.70839 178.49088 
L 365.949193 181.398774 
L 366.223295 184.306667 
L 366.525264 187.21456 
L 366.845798 190.122454 
L 367.172629 193.030347 
L 367.491682 195.93824 
L 367.788129 198.846134 
L 368.047246 201.754027 
L 368.255234 204.66192 
L 368.400412 207.569814 
L 368.475042 210.477707 
L 368.477748 213.385601 
L 368.415975 216.293494 
L 368.307578 219.201387 
L 368.180545 222.109281 
L 368.070277 225.017174 
L 368.014498 227.925067 
L 368.04673 230.832961 
L 368.189813 233.740854 
L 368.451147 236.648747 
L 368.820978 239.556641 
L 369.27431 242.464534 
L 369.776137 245.372427 
L 370.288897 248.280321 
L 370.780512 251.188214 
L 371.231312 254.096107 
L 371.638407 257.004001 
L 372.0167 259.911894 
L 372.396549 262.819787 
L 372.818928 265.727681 
L 373.329545 268.635574 
L 373.973608 271.543467 
L 374.792598 274.451361 
L 375.823598 277.359254 
L 377.100726 280.267148 
L 378.657306 283.175041 
L 380.527076 286.082934 
L 382.74303 288.990828 
L 385.333367 291.898721 
L 388.315109 294.806614 
L 391.686798 297.714508 
L 395.421876 300.622401 
L 399.46399 303.530294 
L 403.724567 306.438188 
L 408.082218 309.346081 
L 412.383276 312.253974 
L 416.443222 315.161868 
L 420.049969 318.069761 
L 422.971161 320.977654 
L 424.968196 323.885548 
L 425.818684 326.793441 
L 425.346524 329.701334 
L 423.45517 332.609228 
L 420.156532 335.517121 
L 415.586774 338.425014 
L 410.002128 341.332908 
L 403.752542 344.240801 
L 397.237115 347.148695 
L 390.850602 350.056588 
L 384.932802 352.964481 
L 379.731491 355.872375 
L 375.385292 358.780268 
L 371.927155 361.688161 
L 369.304059 364.596055 
L 367.405588 367.503948 
L 366.093676 370.411841 
L 365.227612 373.319735 
L 364.681192 376.227628 
L 364.351589 379.135521 
L 364.161451 382.043415 
z
" style="fill:#1f77b4;fill-opacity:0.25;"/>
   </g>
   <g id="line2d_60">
    <path clip-path="url(#p72fa512c0d)" d="M 364.161451 382.043415 
L 364.351589 379.135521 
L 364.681192 376.227628 
L 365.227612 373.319735 
L 366.093676 370.411841 
L 367.405588 367.503948 
L 369.304059 364.596055 
L 371.927155 361.688161 
L 375.385292 358.780268 
L 379.731491 355.872375 
L 384.932802 352.964481 
L 390.850602 350.056588 
L 397.237115 347.148695 
L 403.752542 344.240801 
L 410.002128 341.332908 
L 415.586774 338.425014 
L 420.156532 335.517121 
L 423.45517 332.609228 
L 425.346524 329.701334 
L 425.818684 326.793441 
L 424.968196 323.885548 
L 422.971161 320.977654 
L 420.049969 318.069761 
L 416.443222 315.161868 
L 412.383276 312.253974 
L 408.082218 309.346081 
L 403.724567 306.438188 
L 399.46399 303.530294 
L 395.421876 300.622401 
L 391.686798 297.714508 
L 388.315109 294.806614 
L 385.333367 291.898721 
L 382.74303 288.990828 
L 380.527076 286.082934 
L 378.657306 283.175041 
L 377.100726 280.267148 
L 375.823598 277.359254 
L 374.792598 274.451361 
L 373.973608 271.543467 
L 373.329545 268.635574 
L 372.818928 265.727681 
L 372.396549 262.819787 
L 372.0167 259.911894 
L 371.638407 257.004001 
L 371.231312 254.096107 
L 370.780512 251.188214 
L 370.288897 248.280321 
L 369.776137 245.372427 
L 369.27431 242.464534 
L 368.820978 239.556641 
L 368.451147 236.648747 
L 368.189813 233.740854 
L 368.04673 230.832961 
L 368.014498 227.925067 
L 368.070277 225.017174 
L 368.180545 222.109281 
L 368.307578 219.201387 
L 368.415975 216.293494 
L 368.477748 213.385601 
L 368.475042 210.477707 
L 368.400412 207.569814 
L 368.255234 204.66192 
L 368.047246 201.754027 
L 367.788129 198.846134 
L 367.491682 195.93824 
L 367.172629 193.030347 
L 366.845798 190.122454 
L 366.525264 187.21456 
L 366.223295 184.306667 
L 365.949193 181.398774 
L 365.70839 178.49088 
L 365.502206 175.582987 
L 365.328468 172.675094 
L 365.182899 169.7672 
L 365.060855 166.859307 
L 364.958833 163.951414 
L 364.875237 161.04352 
L 364.810184 158.135627 
L 364.764444 155.227734 
L 364.737968 152.31984 
L 364.728575 149.411947 
L 364.731311 146.504053 
L 364.738767 143.59616 
L 364.742274 140.688267 
L 364.73363 137.780373 
L 364.706831 134.87248 
L 364.659289 131.964587 
L 364.592221 129.056693 
L 364.510143 126.1488 
L 364.419695 123.240907 
L 364.328151 120.333013 
L 364.242046 117.42512 
L 364.166203 114.517227 
L 364.103319 111.609333 
L 364.054059 108.70144 
L 364.017502 105.793547 
L 363.991748 102.885653 
L 363.974498 99.97776 
L 363.963499 97.069867 
L 363.956816 94.161973 
" style="fill:none;stroke:#1f77b4;stroke-linecap:round;stroke-width:1.5;"/>
   </g>
   <g id="patch_8">
    <path d="M 363.94861 389.83875 
L 363.94861 86.366638 
" style="fill:none;"/>
   </g>
  </g>
 </g>
 <defs>
  <clipPath id="p58aa619087">
   <rect height="303.472112" width="298.832457" x="52.123438" y="86.366638"/>
  </clipPath>
  <clipPath id="p9d010469ca">
   <rect height="65.972198" width="298.832457" x="52.123438" y="7.2"/>
  </clipPath>
  <clipPath id="p72fa512c0d">
   <rect height="303.472112" width="64.963578" x="363.94861" y="86.366638"/>
  </clipPath>
 </defs>
</svg>
