<?xml version="1.0" encoding="utf-8" standalone="no"?>
<!DOCTYPE svg PUBLIC "-//W3C//DTD SVG 1.1//EN"
  "http://www.w3.org/Graphics/SVG/1.1/DTD/svg11.dtd">
<!-- Created with matplotlib (http://matplotlib.org/) -->
<svg height="424pt" version="1.1" viewBox="0 0 436 424" width="436pt" xmlns="http://www.w3.org/2000/svg" xmlns:xlink="http://www.w3.org/1999/xlink">
 <defs>
  <style type="text/css">
*{stroke-linecap:butt;stroke-linejoin:round;}
  </style>
 </defs>
 <g id="figure_1">
  <g id="patch_1">
   <path d="M 0 424.173125 
L 436.112187 424.173125 
L 436.112187 0 
L 0 0 
z
" style="fill:#ffffff;"/>
  </g>
  <g id="axes_1">
   <g id="patch_2">
    <path d="M 52.123438 389.83875 
L 350.955894 389.83875 
L 350.955894 86.366638 
L 52.123438 86.366638 
z
" style="fill:#eaeaf2;"/>
   </g>
   <g id="matplotlib.axis_1">
    <g id="xtick_1">
     <g id="line2d_1">
      <path clip-path="url(#pe958fdd9bc)" d="M 58.608062 389.83875 
L 58.608062 86.366638 
" style="fill:none;stroke:#ffffff;stroke-linecap:round;stroke-width:0.8;"/>
     </g>
     <g id="line2d_2"/>
     <g id="text_1">
      <!-- −200 -->
      <defs>
       <path d="M 10.59375 35.5 
L 73.1875 35.5 
L 73.1875 27.203125 
L 10.59375 27.203125 
z
" id="DejaVuSans-2212"/>
       <path d="M 19.1875 8.296875 
L 53.609375 8.296875 
L 53.609375 0 
L 7.328125 0 
L 7.328125 8.296875 
Q 12.9375 14.109375 22.625 23.890625 
Q 32.328125 33.6875 34.8125 36.53125 
Q 39.546875 41.84375 41.421875 45.53125 
Q 43.3125 49.21875 43.3125 52.78125 
Q 43.3125 58.59375 39.234375 62.25 
Q 35.15625 65.921875 28.609375 65.921875 
Q 23.96875 65.921875 18.8125 64.3125 
Q 13.671875 62.703125 7.8125 59.421875 
L 7.8125 69.390625 
Q 13.765625 71.78125 18.9375 73 
Q 24.125 74.21875 28.421875 74.21875 
Q 39.75 74.21875 46.484375 68.546875 
Q 53.21875 62.890625 53.21875 53.421875 
Q 53.21875 48.921875 51.53125 44.890625 
Q 49.859375 40.875 45.40625 35.40625 
Q 44.1875 33.984375 37.640625 27.21875 
Q 31.109375 20.453125 19.1875 8.296875 
z
" id="DejaVuSans-32"/>
       <path d="M 31.78125 66.40625 
Q 24.171875 66.40625 20.328125 58.90625 
Q 16.5 51.421875 16.5 36.375 
Q 16.5 21.390625 20.328125 13.890625 
Q 24.171875 6.390625 31.78125 6.390625 
Q 39.453125 6.390625 43.28125 13.890625 
Q 47.125 21.390625 47.125 36.375 
Q 47.125 51.421875 43.28125 58.90625 
Q 39.453125 66.40625 31.78125 66.40625 
z
M 31.78125 74.21875 
Q 44.046875 74.21875 50.515625 64.515625 
Q 56.984375 54.828125 56.984375 36.375 
Q 56.984375 17.96875 50.515625 8.265625 
Q 44.046875 -1.421875 31.78125 -1.421875 
Q 19.53125 -1.421875 13.0625 8.265625 
Q 6.59375 17.96875 6.59375 36.375 
Q 6.59375 54.828125 13.0625 64.515625 
Q 19.53125 74.21875 31.78125 74.21875 
z
" id="DejaVuSans-30"/>
      </defs>
      <g style="fill:#262626;" transform="translate(44.874468 400.937187)scale(0.1 -0.1)">
       <use xlink:href="#DejaVuSans-2212"/>
       <use x="83.789062" xlink:href="#DejaVuSans-32"/>
       <use x="147.412109" xlink:href="#DejaVuSans-30"/>
       <use x="211.035156" xlink:href="#DejaVuSans-30"/>
      </g>
     </g>
    </g>
    <g id="xtick_2">
     <g id="line2d_3">
      <path clip-path="url(#pe958fdd9bc)" d="M 105.419467 389.83875 
L 105.419467 86.366638 
" style="fill:none;stroke:#ffffff;stroke-linecap:round;stroke-width:0.8;"/>
     </g>
     <g id="line2d_4"/>
     <g id="text_2">
      <!-- 0 -->
      <g style="fill:#262626;" transform="translate(102.238217 400.937187)scale(0.1 -0.1)">
       <use xlink:href="#DejaVuSans-30"/>
      </g>
     </g>
    </g>
    <g id="xtick_3">
     <g id="line2d_5">
      <path clip-path="url(#pe958fdd9bc)" d="M 152.230872 389.83875 
L 152.230872 86.366638 
" style="fill:none;stroke:#ffffff;stroke-linecap:round;stroke-width:0.8;"/>
     </g>
     <g id="line2d_6"/>
     <g id="text_3">
      <!-- 200 -->
      <g style="fill:#262626;" transform="translate(142.687122 400.937187)scale(0.1 -0.1)">
       <use xlink:href="#DejaVuSans-32"/>
       <use x="63.623047" xlink:href="#DejaVuSans-30"/>
       <use x="127.246094" xlink:href="#DejaVuSans-30"/>
      </g>
     </g>
    </g>
    <g id="xtick_4">
     <g id="line2d_7">
      <path clip-path="url(#pe958fdd9bc)" d="M 199.042277 389.83875 
L 199.042277 86.366638 
" style="fill:none;stroke:#ffffff;stroke-linecap:round;stroke-width:0.8;"/>
     </g>
     <g id="line2d_8"/>
     <g id="text_4">
      <!-- 400 -->
      <defs>
       <path d="M 37.796875 64.3125 
L 12.890625 25.390625 
L 37.796875 25.390625 
z
M 35.203125 72.90625 
L 47.609375 72.90625 
L 47.609375 25.390625 
L 58.015625 25.390625 
L 58.015625 17.1875 
L 47.609375 17.1875 
L 47.609375 0 
L 37.796875 0 
L 37.796875 17.1875 
L 4.890625 17.1875 
L 4.890625 26.703125 
z
" id="DejaVuSans-34"/>
      </defs>
      <g style="fill:#262626;" transform="translate(189.498527 400.937187)scale(0.1 -0.1)">
       <use xlink:href="#DejaVuSans-34"/>
       <use x="63.623047" xlink:href="#DejaVuSans-30"/>
       <use x="127.246094" xlink:href="#DejaVuSans-30"/>
      </g>
     </g>
    </g>
    <g id="xtick_5">
     <g id="line2d_9">
      <path clip-path="url(#pe958fdd9bc)" d="M 245.853683 389.83875 
L 245.853683 86.366638 
" style="fill:none;stroke:#ffffff;stroke-linecap:round;stroke-width:0.8;"/>
     </g>
     <g id="line2d_10"/>
     <g id="text_5">
      <!-- 600 -->
      <defs>
       <path d="M 33.015625 40.375 
Q 26.375 40.375 22.484375 35.828125 
Q 18.609375 31.296875 18.609375 23.390625 
Q 18.609375 15.53125 22.484375 10.953125 
Q 26.375 6.390625 33.015625 6.390625 
Q 39.65625 6.390625 43.53125 10.953125 
Q 47.40625 15.53125 47.40625 23.390625 
Q 47.40625 31.296875 43.53125 35.828125 
Q 39.65625 40.375 33.015625 40.375 
z
M 52.59375 71.296875 
L 52.59375 62.3125 
Q 48.875 64.0625 45.09375 64.984375 
Q 41.3125 65.921875 37.59375 65.921875 
Q 27.828125 65.921875 22.671875 59.328125 
Q 17.53125 52.734375 16.796875 39.40625 
Q 19.671875 43.65625 24.015625 45.921875 
Q 28.375 48.1875 33.59375 48.1875 
Q 44.578125 48.1875 50.953125 41.515625 
Q 57.328125 34.859375 57.328125 23.390625 
Q 57.328125 12.15625 50.6875 5.359375 
Q 44.046875 -1.421875 33.015625 -1.421875 
Q 20.359375 -1.421875 13.671875 8.265625 
Q 6.984375 17.96875 6.984375 36.375 
Q 6.984375 53.65625 15.1875 63.9375 
Q 23.390625 74.21875 37.203125 74.21875 
Q 40.921875 74.21875 44.703125 73.484375 
Q 48.484375 72.75 52.59375 71.296875 
z
" id="DejaVuSans-36"/>
      </defs>
      <g style="fill:#262626;" transform="translate(236.309933 400.937187)scale(0.1 -0.1)">
       <use xlink:href="#DejaVuSans-36"/>
       <use x="63.623047" xlink:href="#DejaVuSans-30"/>
       <use x="127.246094" xlink:href="#DejaVuSans-30"/>
      </g>
     </g>
    </g>
    <g id="xtick_6">
     <g id="line2d_11">
      <path clip-path="url(#pe958fdd9bc)" d="M 292.665088 389.83875 
L 292.665088 86.366638 
" style="fill:none;stroke:#ffffff;stroke-linecap:round;stroke-width:0.8;"/>
     </g>
     <g id="line2d_12"/>
     <g id="text_6">
      <!-- 800 -->
      <defs>
       <path d="M 31.78125 34.625 
Q 24.75 34.625 20.71875 30.859375 
Q 16.703125 27.09375 16.703125 20.515625 
Q 16.703125 13.921875 20.71875 10.15625 
Q 24.75 6.390625 31.78125 6.390625 
Q 38.8125 6.390625 42.859375 10.171875 
Q 46.921875 13.96875 46.921875 20.515625 
Q 46.921875 27.09375 42.890625 30.859375 
Q 38.875 34.625 31.78125 34.625 
z
M 21.921875 38.8125 
Q 15.578125 40.375 12.03125 44.71875 
Q 8.5 49.078125 8.5 55.328125 
Q 8.5 64.0625 14.71875 69.140625 
Q 20.953125 74.21875 31.78125 74.21875 
Q 42.671875 74.21875 48.875 69.140625 
Q 55.078125 64.0625 55.078125 55.328125 
Q 55.078125 49.078125 51.53125 44.71875 
Q 48 40.375 41.703125 38.8125 
Q 48.828125 37.15625 52.796875 32.3125 
Q 56.78125 27.484375 56.78125 20.515625 
Q 56.78125 9.90625 50.3125 4.234375 
Q 43.84375 -1.421875 31.78125 -1.421875 
Q 19.734375 -1.421875 13.25 4.234375 
Q 6.78125 9.90625 6.78125 20.515625 
Q 6.78125 27.484375 10.78125 32.3125 
Q 14.796875 37.15625 21.921875 38.8125 
z
M 18.3125 54.390625 
Q 18.3125 48.734375 21.84375 45.5625 
Q 25.390625 42.390625 31.78125 42.390625 
Q 38.140625 42.390625 41.71875 45.5625 
Q 45.3125 48.734375 45.3125 54.390625 
Q 45.3125 60.0625 41.71875 63.234375 
Q 38.140625 66.40625 31.78125 66.40625 
Q 25.390625 66.40625 21.84375 63.234375 
Q 18.3125 60.0625 18.3125 54.390625 
z
" id="DejaVuSans-38"/>
      </defs>
      <g style="fill:#262626;" transform="translate(283.121338 400.937187)scale(0.1 -0.1)">
       <use xlink:href="#DejaVuSans-38"/>
       <use x="63.623047" xlink:href="#DejaVuSans-30"/>
       <use x="127.246094" xlink:href="#DejaVuSans-30"/>
      </g>
     </g>
    </g>
    <g id="xtick_7">
     <g id="line2d_13">
      <path clip-path="url(#pe958fdd9bc)" d="M 339.476493 389.83875 
L 339.476493 86.366638 
" style="fill:none;stroke:#ffffff;stroke-linecap:round;stroke-width:0.8;"/>
     </g>
     <g id="line2d_14"/>
     <g id="text_7">
      <!-- 1000 -->
      <defs>
       <path d="M 12.40625 8.296875 
L 28.515625 8.296875 
L 28.515625 63.921875 
L 10.984375 60.40625 
L 10.984375 69.390625 
L 28.421875 72.90625 
L 38.28125 72.90625 
L 38.28125 8.296875 
L 54.390625 8.296875 
L 54.390625 0 
L 12.40625 0 
z
" id="DejaVuSans-31"/>
      </defs>
      <g style="fill:#262626;" transform="translate(326.751493 400.937187)scale(0.1 -0.1)">
       <use xlink:href="#DejaVuSans-31"/>
       <use x="63.623047" xlink:href="#DejaVuSans-30"/>
       <use x="127.246094" xlink:href="#DejaVuSans-30"/>
       <use x="190.869141" xlink:href="#DejaVuSans-30"/>
      </g>
     </g>
    </g>
    <g id="text_8">
     <!-- Sum_Credit -->
     <defs>
      <path d="M 53.515625 70.515625 
L 53.515625 60.890625 
Q 47.90625 63.578125 42.921875 64.890625 
Q 37.9375 66.21875 33.296875 66.21875 
Q 25.25 66.21875 20.875 63.09375 
Q 16.5 59.96875 16.5 54.203125 
Q 16.5 49.359375 19.40625 46.890625 
Q 22.3125 44.4375 30.421875 42.921875 
L 36.375 41.703125 
Q 47.40625 39.59375 52.65625 34.296875 
Q 57.90625 29 57.90625 20.125 
Q 57.90625 9.515625 50.796875 4.046875 
Q 43.703125 -1.421875 29.984375 -1.421875 
Q 24.8125 -1.421875 18.96875 -0.25 
Q 13.140625 0.921875 6.890625 3.21875 
L 6.890625 13.375 
Q 12.890625 10.015625 18.65625 8.296875 
Q 24.421875 6.59375 29.984375 6.59375 
Q 38.421875 6.59375 43.015625 9.90625 
Q 47.609375 13.234375 47.609375 19.390625 
Q 47.609375 24.75 44.3125 27.78125 
Q 41.015625 30.8125 33.5 32.328125 
L 27.484375 33.5 
Q 16.453125 35.6875 11.515625 40.375 
Q 6.59375 45.0625 6.59375 53.421875 
Q 6.59375 63.09375 13.40625 68.65625 
Q 20.21875 74.21875 32.171875 74.21875 
Q 37.3125 74.21875 42.625 73.28125 
Q 47.953125 72.359375 53.515625 70.515625 
z
" id="DejaVuSans-53"/>
      <path d="M 8.5 21.578125 
L 8.5 54.6875 
L 17.484375 54.6875 
L 17.484375 21.921875 
Q 17.484375 14.15625 20.5 10.265625 
Q 23.53125 6.390625 29.59375 6.390625 
Q 36.859375 6.390625 41.078125 11.03125 
Q 45.3125 15.671875 45.3125 23.6875 
L 45.3125 54.6875 
L 54.296875 54.6875 
L 54.296875 0 
L 45.3125 0 
L 45.3125 8.40625 
Q 42.046875 3.421875 37.71875 1 
Q 33.40625 -1.421875 27.6875 -1.421875 
Q 18.265625 -1.421875 13.375 4.4375 
Q 8.5 10.296875 8.5 21.578125 
z
M 31.109375 56 
z
" id="DejaVuSans-75"/>
      <path d="M 52 44.1875 
Q 55.375 50.25 60.0625 53.125 
Q 64.75 56 71.09375 56 
Q 79.640625 56 84.28125 50.015625 
Q 88.921875 44.046875 88.921875 33.015625 
L 88.921875 0 
L 79.890625 0 
L 79.890625 32.71875 
Q 79.890625 40.578125 77.09375 44.375 
Q 74.3125 48.1875 68.609375 48.1875 
Q 61.625 48.1875 57.5625 43.546875 
Q 53.515625 38.921875 53.515625 30.90625 
L 53.515625 0 
L 44.484375 0 
L 44.484375 32.71875 
Q 44.484375 40.625 41.703125 44.40625 
Q 38.921875 48.1875 33.109375 48.1875 
Q 26.21875 48.1875 22.15625 43.53125 
Q 18.109375 38.875 18.109375 30.90625 
L 18.109375 0 
L 9.078125 0 
L 9.078125 54.6875 
L 18.109375 54.6875 
L 18.109375 46.1875 
Q 21.1875 51.21875 25.484375 53.609375 
Q 29.78125 56 35.6875 56 
Q 41.65625 56 45.828125 52.96875 
Q 50 49.953125 52 44.1875 
z
" id="DejaVuSans-6d"/>
      <path d="M 50.984375 -16.609375 
L 50.984375 -23.578125 
L -0.984375 -23.578125 
L -0.984375 -16.609375 
z
" id="DejaVuSans-5f"/>
      <path d="M 64.40625 67.28125 
L 64.40625 56.890625 
Q 59.421875 61.53125 53.78125 63.8125 
Q 48.140625 66.109375 41.796875 66.109375 
Q 29.296875 66.109375 22.65625 58.46875 
Q 16.015625 50.828125 16.015625 36.375 
Q 16.015625 21.96875 22.65625 14.328125 
Q 29.296875 6.6875 41.796875 6.6875 
Q 48.140625 6.6875 53.78125 8.984375 
Q 59.421875 11.28125 64.40625 15.921875 
L 64.40625 5.609375 
Q 59.234375 2.09375 53.4375 0.328125 
Q 47.65625 -1.421875 41.21875 -1.421875 
Q 24.65625 -1.421875 15.125 8.703125 
Q 5.609375 18.84375 5.609375 36.375 
Q 5.609375 53.953125 15.125 64.078125 
Q 24.65625 74.21875 41.21875 74.21875 
Q 47.75 74.21875 53.53125 72.484375 
Q 59.328125 70.75 64.40625 67.28125 
z
" id="DejaVuSans-43"/>
      <path d="M 41.109375 46.296875 
Q 39.59375 47.171875 37.8125 47.578125 
Q 36.03125 48 33.890625 48 
Q 26.265625 48 22.1875 43.046875 
Q 18.109375 38.09375 18.109375 28.8125 
L 18.109375 0 
L 9.078125 0 
L 9.078125 54.6875 
L 18.109375 54.6875 
L 18.109375 46.1875 
Q 20.953125 51.171875 25.484375 53.578125 
Q 30.03125 56 36.53125 56 
Q 37.453125 56 38.578125 55.875 
Q 39.703125 55.765625 41.0625 55.515625 
z
" id="DejaVuSans-72"/>
      <path d="M 56.203125 29.59375 
L 56.203125 25.203125 
L 14.890625 25.203125 
Q 15.484375 15.921875 20.484375 11.0625 
Q 25.484375 6.203125 34.421875 6.203125 
Q 39.59375 6.203125 44.453125 7.46875 
Q 49.3125 8.734375 54.109375 11.28125 
L 54.109375 2.78125 
Q 49.265625 0.734375 44.1875 -0.34375 
Q 39.109375 -1.421875 33.890625 -1.421875 
Q 20.796875 -1.421875 13.15625 6.1875 
Q 5.515625 13.8125 5.515625 26.8125 
Q 5.515625 40.234375 12.765625 48.109375 
Q 20.015625 56 32.328125 56 
Q 43.359375 56 49.78125 48.890625 
Q 56.203125 41.796875 56.203125 29.59375 
z
M 47.21875 32.234375 
Q 47.125 39.59375 43.09375 43.984375 
Q 39.0625 48.390625 32.421875 48.390625 
Q 24.90625 48.390625 20.390625 44.140625 
Q 15.875 39.890625 15.1875 32.171875 
z
" id="DejaVuSans-65"/>
      <path d="M 45.40625 46.390625 
L 45.40625 75.984375 
L 54.390625 75.984375 
L 54.390625 0 
L 45.40625 0 
L 45.40625 8.203125 
Q 42.578125 3.328125 38.25 0.953125 
Q 33.9375 -1.421875 27.875 -1.421875 
Q 17.96875 -1.421875 11.734375 6.484375 
Q 5.515625 14.40625 5.515625 27.296875 
Q 5.515625 40.1875 11.734375 48.09375 
Q 17.96875 56 27.875 56 
Q 33.9375 56 38.25 53.625 
Q 42.578125 51.265625 45.40625 46.390625 
z
M 14.796875 27.296875 
Q 14.796875 17.390625 18.875 11.75 
Q 22.953125 6.109375 30.078125 6.109375 
Q 37.203125 6.109375 41.296875 11.75 
Q 45.40625 17.390625 45.40625 27.296875 
Q 45.40625 37.203125 41.296875 42.84375 
Q 37.203125 48.484375 30.078125 48.484375 
Q 22.953125 48.484375 18.875 42.84375 
Q 14.796875 37.203125 14.796875 27.296875 
z
" id="DejaVuSans-64"/>
      <path d="M 9.421875 54.6875 
L 18.40625 54.6875 
L 18.40625 0 
L 9.421875 0 
z
M 9.421875 75.984375 
L 18.40625 75.984375 
L 18.40625 64.59375 
L 9.421875 64.59375 
z
" id="DejaVuSans-69"/>
      <path d="M 18.3125 70.21875 
L 18.3125 54.6875 
L 36.8125 54.6875 
L 36.8125 47.703125 
L 18.3125 47.703125 
L 18.3125 18.015625 
Q 18.3125 11.328125 20.140625 9.421875 
Q 21.96875 7.515625 27.59375 7.515625 
L 36.8125 7.515625 
L 36.8125 0 
L 27.59375 0 
Q 17.1875 0 13.234375 3.875 
Q 9.28125 7.765625 9.28125 18.015625 
L 9.28125 47.703125 
L 2.6875 47.703125 
L 2.6875 54.6875 
L 9.28125 54.6875 
L 9.28125 70.21875 
z
" id="DejaVuSans-74"/>
     </defs>
     <g style="fill:#262626;" transform="translate(172.681072 414.615312)scale(0.1 -0.1)">
      <use xlink:href="#DejaVuSans-53"/>
      <use x="63.476562" xlink:href="#DejaVuSans-75"/>
      <use x="126.855469" xlink:href="#DejaVuSans-6d"/>
      <use x="224.267578" xlink:href="#DejaVuSans-5f"/>
      <use x="274.267578" xlink:href="#DejaVuSans-43"/>
      <use x="344.091797" xlink:href="#DejaVuSans-72"/>
      <use x="385.173828" xlink:href="#DejaVuSans-65"/>
      <use x="446.697266" xlink:href="#DejaVuSans-64"/>
      <use x="510.173828" xlink:href="#DejaVuSans-69"/>
      <use x="537.957031" xlink:href="#DejaVuSans-74"/>
     </g>
    </g>
   </g>
   <g id="matplotlib.axis_2">
    <g id="ytick_1">
     <g id="line2d_15">
      <path clip-path="url(#pe958fdd9bc)" d="M 52.123438 369.510463 
L 350.955894 369.510463 
" style="fill:none;stroke:#ffffff;stroke-linecap:round;stroke-width:0.8;"/>
     </g>
     <g id="line2d_16"/>
     <g id="text_9">
      <!-- −100 -->
      <g style="fill:#262626;" transform="translate(21.15625 373.309682)scale(0.1 -0.1)">
       <use xlink:href="#DejaVuSans-2212"/>
       <use x="83.789062" xlink:href="#DejaVuSans-31"/>
       <use x="147.412109" xlink:href="#DejaVuSans-30"/>
       <use x="211.035156" xlink:href="#DejaVuSans-30"/>
      </g>
     </g>
    </g>
    <g id="ytick_2">
     <g id="line2d_17">
      <path clip-path="url(#pe958fdd9bc)" d="M 52.123438 335.436987 
L 350.955894 335.436987 
" style="fill:none;stroke:#ffffff;stroke-linecap:round;stroke-width:0.8;"/>
     </g>
     <g id="line2d_18"/>
     <g id="text_10">
      <!-- 0 -->
      <g style="fill:#262626;" transform="translate(42.260937 339.236205)scale(0.1 -0.1)">
       <use xlink:href="#DejaVuSans-30"/>
      </g>
     </g>
    </g>
    <g id="ytick_3">
     <g id="line2d_19">
      <path clip-path="url(#pe958fdd9bc)" d="M 52.123438 301.36351 
L 350.955894 301.36351 
" style="fill:none;stroke:#ffffff;stroke-linecap:round;stroke-width:0.8;"/>
     </g>
     <g id="line2d_20"/>
     <g id="text_11">
      <!-- 100 -->
      <g style="fill:#262626;" transform="translate(29.535937 305.162729)scale(0.1 -0.1)">
       <use xlink:href="#DejaVuSans-31"/>
       <use x="63.623047" xlink:href="#DejaVuSans-30"/>
       <use x="127.246094" xlink:href="#DejaVuSans-30"/>
      </g>
     </g>
    </g>
    <g id="ytick_4">
     <g id="line2d_21">
      <path clip-path="url(#pe958fdd9bc)" d="M 52.123438 267.290034 
L 350.955894 267.290034 
" style="fill:none;stroke:#ffffff;stroke-linecap:round;stroke-width:0.8;"/>
     </g>
     <g id="line2d_22"/>
     <g id="text_12">
      <!-- 200 -->
      <g style="fill:#262626;" transform="translate(29.535937 271.089253)scale(0.1 -0.1)">
       <use xlink:href="#DejaVuSans-32"/>
       <use x="63.623047" xlink:href="#DejaVuSans-30"/>
       <use x="127.246094" xlink:href="#DejaVuSans-30"/>
      </g>
     </g>
    </g>
    <g id="ytick_5">
     <g id="line2d_23">
      <path clip-path="url(#pe958fdd9bc)" d="M 52.123438 233.216557 
L 350.955894 233.216557 
" style="fill:none;stroke:#ffffff;stroke-linecap:round;stroke-width:0.8;"/>
     </g>
     <g id="line2d_24"/>
     <g id="text_13">
      <!-- 300 -->
      <defs>
       <path d="M 40.578125 39.3125 
Q 47.65625 37.796875 51.625 33 
Q 55.609375 28.21875 55.609375 21.1875 
Q 55.609375 10.40625 48.1875 4.484375 
Q 40.765625 -1.421875 27.09375 -1.421875 
Q 22.515625 -1.421875 17.65625 -0.515625 
Q 12.796875 0.390625 7.625 2.203125 
L 7.625 11.71875 
Q 11.71875 9.328125 16.59375 8.109375 
Q 21.484375 6.890625 26.8125 6.890625 
Q 36.078125 6.890625 40.9375 10.546875 
Q 45.796875 14.203125 45.796875 21.1875 
Q 45.796875 27.640625 41.28125 31.265625 
Q 36.765625 34.90625 28.71875 34.90625 
L 20.21875 34.90625 
L 20.21875 43.015625 
L 29.109375 43.015625 
Q 36.375 43.015625 40.234375 45.921875 
Q 44.09375 48.828125 44.09375 54.296875 
Q 44.09375 59.90625 40.109375 62.90625 
Q 36.140625 65.921875 28.71875 65.921875 
Q 24.65625 65.921875 20.015625 65.03125 
Q 15.375 64.15625 9.8125 62.3125 
L 9.8125 71.09375 
Q 15.4375 72.65625 20.34375 73.4375 
Q 25.25 74.21875 29.59375 74.21875 
Q 40.828125 74.21875 47.359375 69.109375 
Q 53.90625 64.015625 53.90625 55.328125 
Q 53.90625 49.265625 50.4375 45.09375 
Q 46.96875 40.921875 40.578125 39.3125 
z
" id="DejaVuSans-33"/>
      </defs>
      <g style="fill:#262626;" transform="translate(29.535937 237.015776)scale(0.1 -0.1)">
       <use xlink:href="#DejaVuSans-33"/>
       <use x="63.623047" xlink:href="#DejaVuSans-30"/>
       <use x="127.246094" xlink:href="#DejaVuSans-30"/>
      </g>
     </g>
    </g>
    <g id="ytick_6">
     <g id="line2d_25">
      <path clip-path="url(#pe958fdd9bc)" d="M 52.123438 199.143081 
L 350.955894 199.143081 
" style="fill:none;stroke:#ffffff;stroke-linecap:round;stroke-width:0.8;"/>
     </g>
     <g id="line2d_26"/>
     <g id="text_14">
      <!-- 400 -->
      <g style="fill:#262626;" transform="translate(29.535937 202.9423)scale(0.1 -0.1)">
       <use xlink:href="#DejaVuSans-34"/>
       <use x="63.623047" xlink:href="#DejaVuSans-30"/>
       <use x="127.246094" xlink:href="#DejaVuSans-30"/>
      </g>
     </g>
    </g>
    <g id="ytick_7">
     <g id="line2d_27">
      <path clip-path="url(#pe958fdd9bc)" d="M 52.123438 165.069605 
L 350.955894 165.069605 
" style="fill:none;stroke:#ffffff;stroke-linecap:round;stroke-width:0.8;"/>
     </g>
     <g id="line2d_28"/>
     <g id="text_15">
      <!-- 500 -->
      <defs>
       <path d="M 10.796875 72.90625 
L 49.515625 72.90625 
L 49.515625 64.59375 
L 19.828125 64.59375 
L 19.828125 46.734375 
Q 21.96875 47.46875 24.109375 47.828125 
Q 26.265625 48.1875 28.421875 48.1875 
Q 40.625 48.1875 47.75 41.5 
Q 54.890625 34.8125 54.890625 23.390625 
Q 54.890625 11.625 47.5625 5.09375 
Q 40.234375 -1.421875 26.90625 -1.421875 
Q 22.3125 -1.421875 17.546875 -0.640625 
Q 12.796875 0.140625 7.71875 1.703125 
L 7.71875 11.625 
Q 12.109375 9.234375 16.796875 8.0625 
Q 21.484375 6.890625 26.703125 6.890625 
Q 35.15625 6.890625 40.078125 11.328125 
Q 45.015625 15.765625 45.015625 23.390625 
Q 45.015625 31 40.078125 35.4375 
Q 35.15625 39.890625 26.703125 39.890625 
Q 22.75 39.890625 18.8125 39.015625 
Q 14.890625 38.140625 10.796875 36.28125 
z
" id="DejaVuSans-35"/>
      </defs>
      <g style="fill:#262626;" transform="translate(29.535937 168.868824)scale(0.1 -0.1)">
       <use xlink:href="#DejaVuSans-35"/>
       <use x="63.623047" xlink:href="#DejaVuSans-30"/>
       <use x="127.246094" xlink:href="#DejaVuSans-30"/>
      </g>
     </g>
    </g>
    <g id="ytick_8">
     <g id="line2d_29">
      <path clip-path="url(#pe958fdd9bc)" d="M 52.123438 130.996128 
L 350.955894 130.996128 
" style="fill:none;stroke:#ffffff;stroke-linecap:round;stroke-width:0.8;"/>
     </g>
     <g id="line2d_30"/>
     <g id="text_16">
      <!-- 600 -->
      <g style="fill:#262626;" transform="translate(29.535937 134.795347)scale(0.1 -0.1)">
       <use xlink:href="#DejaVuSans-36"/>
       <use x="63.623047" xlink:href="#DejaVuSans-30"/>
       <use x="127.246094" xlink:href="#DejaVuSans-30"/>
      </g>
     </g>
    </g>
    <g id="ytick_9">
     <g id="line2d_31">
      <path clip-path="url(#pe958fdd9bc)" d="M 52.123438 96.922652 
L 350.955894 96.922652 
" style="fill:none;stroke:#ffffff;stroke-linecap:round;stroke-width:0.8;"/>
     </g>
     <g id="line2d_32"/>
     <g id="text_17">
      <!-- 700 -->
      <defs>
       <path d="M 8.203125 72.90625 
L 55.078125 72.90625 
L 55.078125 68.703125 
L 28.609375 0 
L 18.3125 0 
L 43.21875 64.59375 
L 8.203125 64.59375 
z
" id="DejaVuSans-37"/>
      </defs>
      <g style="fill:#262626;" transform="translate(29.535937 100.721871)scale(0.1 -0.1)">
       <use xlink:href="#DejaVuSans-37"/>
       <use x="63.623047" xlink:href="#DejaVuSans-30"/>
       <use x="127.246094" xlink:href="#DejaVuSans-30"/>
      </g>
     </g>
    </g>
    <g id="text_18">
     <!-- Sum_Debit -->
     <defs>
      <path d="M 19.671875 64.796875 
L 19.671875 8.109375 
L 31.59375 8.109375 
Q 46.6875 8.109375 53.6875 14.9375 
Q 60.6875 21.78125 60.6875 36.53125 
Q 60.6875 51.171875 53.6875 57.984375 
Q 46.6875 64.796875 31.59375 64.796875 
z
M 9.8125 72.90625 
L 30.078125 72.90625 
Q 51.265625 72.90625 61.171875 64.09375 
Q 71.09375 55.28125 71.09375 36.53125 
Q 71.09375 17.671875 61.125 8.828125 
Q 51.171875 0 30.078125 0 
L 9.8125 0 
z
" id="DejaVuSans-44"/>
      <path d="M 48.6875 27.296875 
Q 48.6875 37.203125 44.609375 42.84375 
Q 40.53125 48.484375 33.40625 48.484375 
Q 26.265625 48.484375 22.1875 42.84375 
Q 18.109375 37.203125 18.109375 27.296875 
Q 18.109375 17.390625 22.1875 11.75 
Q 26.265625 6.109375 33.40625 6.109375 
Q 40.53125 6.109375 44.609375 11.75 
Q 48.6875 17.390625 48.6875 27.296875 
z
M 18.109375 46.390625 
Q 20.953125 51.265625 25.265625 53.625 
Q 29.59375 56 35.59375 56 
Q 45.5625 56 51.78125 48.09375 
Q 58.015625 40.1875 58.015625 27.296875 
Q 58.015625 14.40625 51.78125 6.484375 
Q 45.5625 -1.421875 35.59375 -1.421875 
Q 29.59375 -1.421875 25.265625 0.953125 
Q 20.953125 3.328125 18.109375 8.203125 
L 18.109375 0 
L 9.078125 0 
L 9.078125 75.984375 
L 18.109375 75.984375 
z
" id="DejaVuSans-62"/>
     </defs>
     <g style="fill:#262626;" transform="translate(14.798437 265.265975)rotate(-90)scale(0.1 -0.1)">
      <use xlink:href="#DejaVuSans-53"/>
      <use x="63.476562" xlink:href="#DejaVuSans-75"/>
      <use x="126.855469" xlink:href="#DejaVuSans-6d"/>
      <use x="224.267578" xlink:href="#DejaVuSans-5f"/>
      <use x="274.267578" xlink:href="#DejaVuSans-44"/>
      <use x="351.269531" xlink:href="#DejaVuSans-65"/>
      <use x="412.792969" xlink:href="#DejaVuSans-62"/>
      <use x="476.269531" xlink:href="#DejaVuSans-69"/>
      <use x="504.052734" xlink:href="#DejaVuSans-74"/>
     </g>
    </g>
   </g>
   <g id="PathCollection_1">
    <path clip-path="url(#pe958fdd9bc)" d="M 55.141947 389.83875 
L 58.160457 389.83875 
L 61.178966 389.83875 
L 64.197476 389.83875 
L 67.215986 389.83875 
L 70.234495 389.83875 
L 73.253005 389.83875 
L 76.271515 389.83875 
L 79.290024 389.83875 
L 82.308534 389.83875 
L 85.327044 389.83875 
L 88.345553 389.83875 
L 91.364063 389.83875 
L 94.382573 389.83875 
L 97.401082 389.83875 
L 100.419592 389.83875 
L 103.438102 389.83875 
L 106.456611 389.83875 
L 109.475121 389.83875 
L 112.493631 389.83875 
L 115.51214 389.83875 
L 118.53065 389.83875 
L 121.54916 389.83875 
L 124.567669 389.83875 
L 127.586179 389.83875 
L 130.604689 389.83875 
L 133.623198 389.83875 
L 136.641708 389.83875 
L 139.660218 389.83875 
L 142.678727 389.83875 
L 145.697237 389.83875 
L 148.715747 389.83875 
L 151.734256 389.83875 
L 154.752766 389.83875 
L 157.771276 389.83875 
L 160.789785 389.83875 
L 163.808295 389.83875 
L 166.826805 389.83875 
L 169.845314 389.83875 
L 172.863824 389.83875 
L 175.882334 389.83875 
L 178.900843 389.83875 
L 181.919353 389.83875 
L 184.937863 389.83875 
L 187.956372 389.83875 
L 190.974882 389.83875 
L 193.993392 389.83875 
L 197.011901 389.83875 
L 200.030411 389.83875 
L 203.048921 389.83875 
L 206.06743 389.83875 
L 209.08594 389.83875 
L 212.10445 389.83875 
L 215.122959 389.83875 
L 218.141469 389.83875 
L 221.159979 389.83875 
L 224.178488 389.83875 
L 227.196998 389.83875 
L 230.215508 389.83875 
L 233.234017 389.83875 
L 236.252527 389.83875 
L 239.271037 389.83875 
L 242.289546 389.83875 
L 245.308056 389.83875 
L 248.326566 389.83875 
L 251.345075 389.83875 
L 254.363585 389.83875 
L 257.382095 389.83875 
L 260.400604 389.83875 
L 263.419114 389.83875 
L 266.437624 389.83875 
L 269.456133 389.83875 
L 272.474643 389.83875 
L 275.493153 389.83875 
L 278.511662 389.83875 
L 281.530172 389.83875 
L 284.548682 389.83875 
L 287.567191 389.83875 
L 290.585701 389.83875 
L 293.604211 389.83875 
L 296.62272 389.83875 
L 299.64123 389.83875 
L 302.65974 389.83875 
L 305.678249 389.83875 
L 308.696759 389.83875 
L 311.715269 389.83875 
L 314.733778 389.83875 
L 317.752288 389.83875 
L 320.770798 389.83875 
L 323.789307 389.83875 
L 326.807817 389.83875 
L 329.826327 389.83875 
L 332.844836 389.83875 
L 335.863346 389.83875 
L 338.881856 389.83875 
L 341.900365 389.83875 
L 344.918875 389.83875 
L 347.937385 389.83875 
L 350.955894 389.83875 
L 350.955894 386.773375 
L 350.955894 383.708 
L 350.955894 380.642625 
L 350.955894 377.577251 
L 350.955894 374.511876 
L 350.955894 371.446501 
L 350.955894 368.381126 
L 350.955894 365.315751 
L 350.955894 362.250376 
L 350.955894 359.185001 
L 350.955894 356.119626 
L 350.955894 353.054252 
L 350.955894 349.988877 
L 350.955894 346.923502 
L 350.955894 343.858127 
L 350.955894 340.792752 
L 350.955894 337.727377 
L 350.955894 334.662002 
L 350.955894 331.596627 
L 350.955894 328.531253 
L 350.955894 325.465878 
L 350.955894 322.400503 
L 350.955894 319.335128 
L 350.955894 316.269753 
L 350.955894 313.204378 
L 350.955894 310.139003 
L 350.955894 307.073629 
L 350.955894 304.008254 
L 350.955894 300.942879 
L 350.955894 297.877504 
L 350.955894 294.812129 
L 350.955894 291.746754 
L 350.955894 288.681379 
L 350.955894 285.616004 
L 350.955894 282.55063 
L 350.955894 279.485255 
L 350.955894 276.41988 
L 350.955894 273.354505 
L 350.955894 270.28913 
L 350.955894 267.223755 
L 350.955894 264.15838 
L 350.955894 261.093005 
L 350.955894 258.027631 
L 350.955894 254.962256 
L 350.955894 251.896881 
L 350.955894 248.831506 
L 350.955894 245.766131 
L 350.955894 242.700756 
L 350.955894 239.635381 
L 350.955894 236.570007 
L 350.955894 233.504632 
L 350.955894 230.439257 
L 350.955894 227.373882 
L 350.955894 224.308507 
L 350.955894 221.243132 
L 350.955894 218.177757 
L 350.955894 215.112382 
L 350.955894 212.047008 
L 350.955894 208.981633 
L 350.955894 205.916258 
L 350.955894 202.850883 
L 350.955894 199.785508 
L 350.955894 196.720133 
L 350.955894 193.654758 
L 350.955894 190.589383 
L 350.955894 187.524009 
L 350.955894 184.458634 
L 350.955894 181.393259 
L 350.955894 178.327884 
L 350.955894 175.262509 
L 350.955894 172.197134 
L 350.955894 169.131759 
L 350.955894 166.066385 
L 350.955894 163.00101 
L 350.955894 159.935635 
L 350.955894 156.87026 
L 350.955894 153.804885 
L 350.955894 150.73951 
L 350.955894 147.674135 
L 350.955894 144.60876 
L 350.955894 141.543386 
L 350.955894 138.478011 
L 350.955894 135.412636 
L 350.955894 132.347261 
L 350.955894 129.281886 
L 350.955894 126.216511 
L 350.955894 123.151136 
L 350.955894 120.085761 
L 350.955894 117.020387 
L 350.955894 113.955012 
L 350.955894 110.889637 
L 350.955894 107.824262 
L 350.955894 104.758887 
L 350.955894 101.693512 
L 350.955894 98.628137 
L 350.955894 95.562763 
L 350.955894 92.497388 
L 350.955894 89.432013 
L 350.955894 86.366638 
L 347.937385 86.366638 
L 344.918875 86.366638 
L 341.900365 86.366638 
L 338.881856 86.366638 
L 335.863346 86.366638 
L 332.844836 86.366638 
L 329.826327 86.366638 
L 326.807817 86.366638 
L 323.789307 86.366638 
L 320.770798 86.366638 
L 317.752288 86.366638 
L 314.733778 86.366638 
L 311.715269 86.366638 
L 308.696759 86.366638 
L 305.678249 86.366638 
L 302.65974 86.366638 
L 299.64123 86.366638 
L 296.62272 86.366638 
L 293.604211 86.366638 
L 290.585701 86.366638 
L 287.567191 86.366638 
L 284.548682 86.366638 
L 281.530172 86.366638 
L 278.511662 86.366638 
L 275.493153 86.366638 
L 272.474643 86.366638 
L 269.456133 86.366638 
L 266.437624 86.366638 
L 263.419114 86.366638 
L 260.400604 86.366638 
L 257.382095 86.366638 
L 254.363585 86.366638 
L 251.345075 86.366638 
L 248.326566 86.366638 
L 245.308056 86.366638 
L 242.289546 86.366638 
L 239.271037 86.366638 
L 236.252527 86.366638 
L 233.234017 86.366638 
L 230.215508 86.366638 
L 227.196998 86.366638 
L 224.178488 86.366638 
L 221.159979 86.366638 
L 218.141469 86.366638 
L 215.122959 86.366638 
L 212.10445 86.366638 
L 209.08594 86.366638 
L 206.06743 86.366638 
L 203.048921 86.366638 
L 200.030411 86.366638 
L 197.011901 86.366638 
L 193.993392 86.366638 
L 190.974882 86.366638 
L 187.956372 86.366638 
L 184.937863 86.366638 
L 181.919353 86.366638 
L 178.900843 86.366638 
L 175.882334 86.366638 
L 172.863824 86.366638 
L 169.845314 86.366638 
L 166.826805 86.366638 
L 163.808295 86.366638 
L 160.789785 86.366638 
L 157.771276 86.366638 
L 154.752766 86.366638 
L 151.734256 86.366638 
L 148.715747 86.366638 
L 145.697237 86.366638 
L 142.678727 86.366638 
L 139.660218 86.366638 
L 136.641708 86.366638 
L 133.623198 86.366638 
L 130.604689 86.366638 
L 127.586179 86.366638 
L 124.567669 86.366638 
L 121.54916 86.366638 
L 118.53065 86.366638 
L 115.51214 86.366638 
L 112.493631 86.366638 
L 109.475121 86.366638 
L 106.456611 86.366638 
L 103.438102 86.366638 
L 100.419592 86.366638 
L 97.401082 86.366638 
L 94.382573 86.366638 
L 91.364063 86.366638 
L 88.345553 86.366638 
L 85.327044 86.366638 
L 82.308534 86.366638 
L 79.290024 86.366638 
L 76.271515 86.366638 
L 73.253005 86.366638 
L 70.234495 86.366638 
L 67.215986 86.366638 
L 64.197476 86.366638 
L 61.178966 86.366638 
L 58.160457 86.366638 
L 55.141947 86.366638 
L 52.123437 86.366638 
L 52.123437 89.432013 
L 52.123437 92.497388 
L 52.123437 95.562763 
L 52.123437 98.628137 
L 52.123437 101.693512 
L 52.123437 104.758887 
L 52.123437 107.824262 
L 52.123437 110.889637 
L 52.123437 113.955012 
L 52.123437 117.020387 
L 52.123437 120.085761 
L 52.123437 123.151136 
L 52.123437 126.216511 
L 52.123437 129.281886 
L 52.123437 132.347261 
L 52.123437 135.412636 
L 52.123437 138.478011 
L 52.123437 141.543386 
L 52.123437 144.60876 
L 52.123437 147.674135 
L 52.123437 150.73951 
L 52.123437 153.804885 
L 52.123437 156.87026 
L 52.123437 159.935635 
L 52.123437 163.00101 
L 52.123437 166.066385 
L 52.123437 169.131759 
L 52.123437 172.197134 
L 52.123437 175.262509 
L 52.123437 178.327884 
L 52.123437 181.393259 
L 52.123437 184.458634 
L 52.123437 187.524009 
L 52.123437 190.589383 
L 52.123437 193.654758 
L 52.123437 196.720133 
L 52.123437 199.785508 
L 52.123437 202.850883 
L 52.123437 205.916258 
L 52.123437 208.981633 
L 52.123437 212.047008 
L 52.123437 215.112382 
L 52.123437 218.177757 
L 52.123437 221.243132 
L 52.123437 224.308507 
L 52.123437 227.373882 
L 52.123437 230.439257 
L 52.123437 233.504632 
L 52.123437 236.570007 
L 52.123437 239.635381 
L 52.123437 242.700756 
L 52.123437 245.766131 
L 52.123437 248.831506 
L 52.123437 251.896881 
L 52.123437 254.962256 
L 52.123437 258.027631 
L 52.123437 261.093005 
L 52.123437 264.15838 
L 52.123437 267.223755 
L 52.123437 270.28913 
L 52.123437 273.354505 
L 52.123437 276.41988 
L 52.123437 279.485255 
L 52.123437 282.55063 
L 52.123437 285.616004 
L 52.123437 288.681379 
L 52.123437 291.746754 
L 52.123437 294.812129 
L 52.123437 297.877504 
L 52.123437 300.942879 
L 52.123437 304.008254 
L 52.123437 307.073629 
L 52.123437 310.139003 
L 52.123437 313.204378 
L 52.123437 316.269753 
L 52.123437 319.335128 
L 52.123437 322.400503 
L 52.123437 325.465878 
L 52.123437 328.531253 
L 52.123437 331.596627 
L 52.123437 334.662002 
L 52.123437 337.727377 
L 52.123437 340.792752 
L 52.123437 343.858127 
L 52.123437 346.923502 
L 52.123437 349.988877 
L 52.123437 353.054252 
L 52.123437 356.119626 
L 52.123437 359.185001 
L 52.123437 362.250376 
L 52.123437 365.315751 
L 52.123437 368.381126 
L 52.123437 371.446501 
L 52.123437 374.511876 
L 52.123437 377.577251 
L 52.123437 380.642625 
L 52.123437 383.708 
L 52.123437 386.773375 
L 52.123437 389.83875 
z
M 88.313722 365.315751 
L 85.327044 364.090248 
L 82.354612 362.250376 
L 82.308534 362.220383 
L 79.290024 359.730255 
L 78.752945 359.185001 
L 76.271515 356.140895 
L 76.255953 356.119626 
L 74.358038 353.054252 
L 73.253005 350.49778 
L 73.027684 349.988877 
L 71.976781 346.923502 
L 71.287326 343.858127 
L 70.875921 340.792752 
L 70.688318 337.727377 
L 70.691153 334.662002 
L 70.866885 331.596627 
L 71.210911 328.531253 
L 71.730227 325.465878 
L 72.443301 322.400503 
L 73.253005 319.72349 
L 73.349956 319.335128 
L 74.256763 316.269753 
L 75.397461 313.204378 
L 76.271515 311.237478 
L 76.699722 310.139003 
L 78.067324 307.073629 
L 79.290024 304.775069 
L 79.664737 304.008254 
L 81.316167 300.942879 
L 82.308534 299.31962 
L 83.153058 297.877504 
L 85.174245 294.812129 
L 85.327044 294.588042 
L 87.252167 291.746754 
L 88.345553 290.266705 
L 89.546563 288.681379 
L 91.364063 286.412472 
L 92.038188 285.616004 
L 94.382573 282.920344 
L 94.731848 282.55063 
L 97.401082 279.726853 
L 97.655337 279.485255 
L 100.419592 276.795123 
L 100.857644 276.41988 
L 103.438102 274.104938 
L 104.402146 273.354505 
L 106.456611 271.645825 
L 108.349399 270.28913 
L 109.475121 269.411869 
L 112.493631 267.369929 
L 112.739424 267.223755 
L 115.51214 265.373728 
L 117.612924 264.15838 
L 118.53065 263.558158 
L 121.54916 261.796755 
L 122.899781 261.093005 
L 124.567669 260.098725 
L 127.586179 258.476278 
L 128.510963 258.027631 
L 130.604689 256.866363 
L 133.623198 255.347604 
L 134.480327 254.962256 
L 136.641708 253.859513 
L 139.660218 252.477746 
L 141.102026 251.896881 
L 142.678727 251.17838 
L 145.697237 249.989591 
L 148.715747 248.935313 
L 149.107024 248.831506 
L 151.734256 248.024569 
L 154.752766 247.35604 
L 157.771276 247.11612 
L 160.789785 247.925731 
L 161.712252 248.831506 
L 163.14296 251.896881 
L 163.564525 254.962256 
L 163.574519 258.027631 
L 163.3789 261.093005 
L 163.072921 264.15838 
L 162.717102 267.223755 
L 162.363919 270.28913 
L 162.069287 273.354505 
L 161.899109 276.41988 
L 161.934812 279.485255 
L 162.27951 282.55063 
L 163.064981 285.616004 
L 163.808295 287.28018 
L 164.689467 288.681379 
L 166.826805 290.815032 
L 168.375616 291.746754 
L 169.845314 292.389612 
L 172.863824 293.157339 
L 175.882334 293.620953 
L 178.900843 294.003004 
L 181.919353 294.486812 
L 183.249661 294.812129 
L 184.937863 295.227343 
L 187.956372 296.455496 
L 190.117781 297.877504 
L 190.974882 298.555366 
L 193.047172 300.942879 
L 193.993392 302.468141 
L 194.739114 304.008254 
L 195.74209 307.073629 
L 196.300833 310.139003 
L 196.51171 313.204378 
L 196.430908 316.269753 
L 196.085161 319.335128 
L 195.477861 322.400503 
L 194.591446 325.465878 
L 193.993392 327.011195 
L 193.419241 328.531253 
L 191.94106 331.596627 
L 190.974882 333.215268 
L 190.089563 334.662002 
L 187.956372 337.53882 
L 187.807338 337.727377 
L 184.993414 340.792752 
L 184.937863 340.846845 
L 181.919353 343.490821 
L 181.434844 343.858127 
L 178.900843 345.652233 
L 176.730508 346.923502 
L 175.882334 347.407085 
L 172.863824 348.842426 
L 169.845314 349.971082 
L 169.78651 349.988877 
L 166.826805 350.90916 
L 163.808295 351.631207 
L 160.789785 352.189261 
L 157.771276 352.634269 
L 154.752766 353.017562 
L 154.463729 353.054252 
L 151.734256 353.423787 
L 148.715747 353.877643 
L 145.697237 354.418704 
L 142.678727 355.07028 
L 139.660218 355.830521 
L 138.690792 356.119626 
L 136.641708 356.769796 
L 133.623198 357.81972 
L 130.604689 358.877929 
L 129.768203 359.185001 
L 127.586179 360.056477 
L 124.567669 361.214542 
L 121.558279 362.250376 
L 121.54916 362.253917 
L 118.53065 363.398614 
L 115.51214 364.367069 
L 112.493631 365.163989 
L 111.805822 365.315751 
L 109.475121 365.93577 
L 106.456611 366.542914 
L 103.438102 366.94733 
L 100.419592 367.146961 
L 97.401082 367.127661 
L 94.382573 366.858898 
L 91.364063 366.287697 
L 88.345553 365.329331 
z
" style="fill:#eef5fc;"/>
   </g>
   <g id="PathCollection_2">
    <path clip-path="url(#pe958fdd9bc)" d="M 88.345553 365.329331 
L 91.364063 366.287697 
L 94.382573 366.858898 
L 97.401082 367.127661 
L 100.419592 367.146961 
L 103.438102 366.94733 
L 106.456611 366.542914 
L 109.475121 365.93577 
L 111.805822 365.315751 
L 112.493631 365.163989 
L 115.51214 364.367069 
L 118.53065 363.398614 
L 121.54916 362.253917 
L 121.558279 362.250376 
L 124.567669 361.214542 
L 127.586179 360.056477 
L 129.768203 359.185001 
L 130.604689 358.877929 
L 133.623198 357.81972 
L 136.641708 356.769796 
L 138.690792 356.119626 
L 139.660218 355.830521 
L 142.678727 355.07028 
L 145.697237 354.418704 
L 148.715747 353.877643 
L 151.734256 353.423787 
L 154.463729 353.054252 
L 154.752766 353.017562 
L 157.771276 352.634269 
L 160.789785 352.189261 
L 163.808295 351.631207 
L 166.826805 350.90916 
L 169.78651 349.988877 
L 169.845314 349.971082 
L 172.863824 348.842426 
L 175.882334 347.407085 
L 176.730508 346.923502 
L 178.900843 345.652233 
L 181.434844 343.858127 
L 181.919353 343.490821 
L 184.937863 340.846845 
L 184.993414 340.792752 
L 187.807338 337.727377 
L 187.956372 337.53882 
L 190.089563 334.662002 
L 190.974882 333.215268 
L 191.94106 331.596627 
L 193.419241 328.531253 
L 193.993392 327.011195 
L 194.591446 325.465878 
L 195.477861 322.400503 
L 196.085161 319.335128 
L 196.430908 316.269753 
L 196.51171 313.204378 
L 196.300833 310.139003 
L 195.74209 307.073629 
L 194.739114 304.008254 
L 193.993392 302.468141 
L 193.047172 300.942879 
L 190.974882 298.555366 
L 190.117781 297.877504 
L 187.956372 296.455496 
L 184.937863 295.227343 
L 183.249661 294.812129 
L 181.919353 294.486812 
L 178.900843 294.003004 
L 175.882334 293.620953 
L 172.863824 293.157339 
L 169.845314 292.389612 
L 168.375616 291.746754 
L 166.826805 290.815032 
L 164.689467 288.681379 
L 163.808295 287.28018 
L 163.064981 285.616004 
L 162.27951 282.55063 
L 161.934812 279.485255 
L 161.899109 276.41988 
L 162.069287 273.354505 
L 162.363919 270.28913 
L 162.717102 267.223755 
L 163.072921 264.15838 
L 163.3789 261.093005 
L 163.574519 258.027631 
L 163.564525 254.962256 
L 163.14296 251.896881 
L 161.712252 248.831506 
L 160.789785 247.925731 
L 157.771276 247.11612 
L 154.752766 247.35604 
L 151.734256 248.024569 
L 149.107024 248.831506 
L 148.715747 248.935313 
L 145.697237 249.989591 
L 142.678727 251.17838 
L 141.102026 251.896881 
L 139.660218 252.477746 
L 136.641708 253.859513 
L 134.480327 254.962256 
L 133.623198 255.347604 
L 130.604689 256.866363 
L 128.510963 258.027631 
L 127.586179 258.476278 
L 124.567669 260.098725 
L 122.899781 261.093005 
L 121.54916 261.796755 
L 118.53065 263.558158 
L 117.612924 264.15838 
L 115.51214 265.373728 
L 112.739424 267.223755 
L 112.493631 267.369929 
L 109.475121 269.411869 
L 108.349399 270.28913 
L 106.456611 271.645825 
L 104.402146 273.354505 
L 103.438102 274.104938 
L 100.857644 276.41988 
L 100.419592 276.795123 
L 97.655337 279.485255 
L 97.401082 279.726853 
L 94.731848 282.55063 
L 94.382573 282.920344 
L 92.038188 285.616004 
L 91.364063 286.412472 
L 89.546563 288.681379 
L 88.345553 290.266705 
L 87.252167 291.746754 
L 85.327044 294.588042 
L 85.174245 294.812129 
L 83.153058 297.877504 
L 82.308534 299.31962 
L 81.316167 300.942879 
L 79.664737 304.008254 
L 79.290024 304.775069 
L 78.067324 307.073629 
L 76.699722 310.139003 
L 76.271515 311.237478 
L 75.397461 313.204378 
L 74.256763 316.269753 
L 73.349956 319.335128 
L 73.253005 319.72349 
L 72.443301 322.400503 
L 71.730227 325.465878 
L 71.210911 328.531253 
L 70.866885 331.596627 
L 70.691153 334.662002 
L 70.688318 337.727377 
L 70.875921 340.792752 
L 71.287326 343.858127 
L 71.976781 346.923502 
L 73.027684 349.988877 
L 73.253005 350.49778 
L 74.358038 353.054252 
L 76.255953 356.119626 
L 76.271515 356.140895 
L 78.752945 359.185001 
L 79.290024 359.730255 
L 82.308534 362.220383 
L 82.354612 362.250376 
L 85.327044 364.090248 
L 88.313722 365.315751 
z
M 94.486635 359.185001 
L 94.382573 359.165905 
L 91.364063 358.234743 
L 88.345553 356.735106 
L 87.431473 356.119626 
L 85.327044 354.537652 
L 83.812552 353.054252 
L 82.308534 351.230044 
L 81.426975 349.988877 
L 79.781829 346.923502 
L 79.290024 345.630788 
L 78.621771 343.858127 
L 77.84306 340.792752 
L 77.402686 337.727377 
L 77.236446 334.662002 
L 77.305643 331.596627 
L 77.591051 328.531253 
L 78.089529 325.465878 
L 78.812519 322.400503 
L 79.290024 320.844236 
L 79.695163 319.335128 
L 80.716591 316.269753 
L 82.003996 313.204378 
L 82.308534 312.568326 
L 83.391241 310.139003 
L 85.038768 307.073629 
L 85.327044 306.583856 
L 86.806685 304.008254 
L 88.345553 301.685008 
L 88.843969 300.942879 
L 91.08615 297.877504 
L 91.364063 297.515743 
L 93.557543 294.812129 
L 94.382573 293.846206 
L 96.342949 291.746754 
L 97.401082 290.633941 
L 99.498576 288.681379 
L 100.419592 287.81285 
L 103.13244 285.616004 
L 103.438102 285.357958 
L 106.456611 283.161439 
L 107.484394 282.55063 
L 109.475121 281.257236 
L 112.493631 279.69087 
L 112.990472 279.485255 
L 115.51214 278.294372 
L 118.53065 277.199649 
L 121.428849 276.41988 
L 121.54916 276.381559 
L 124.567669 275.735226 
L 127.586179 275.386015 
L 130.604689 275.3616 
L 133.623198 275.74105 
L 135.879118 276.41988 
L 136.641708 276.663078 
L 139.660218 278.353355 
L 140.92765 279.485255 
L 142.678727 281.361027 
L 143.505878 282.55063 
L 145.277938 285.616004 
L 145.697237 286.456558 
L 146.703461 288.681379 
L 147.952822 291.746754 
L 148.715747 293.731602 
L 149.157335 294.812129 
L 150.4665 297.877504 
L 151.734256 300.743659 
L 151.84284 300.942879 
L 153.678219 304.008254 
L 154.752766 305.671011 
L 156.036797 307.073629 
L 157.771276 308.861662 
L 159.688468 310.139003 
L 160.789785 310.881492 
L 163.808295 312.196503 
L 166.826805 313.130049 
L 167.094516 313.204378 
L 169.845314 314.142027 
L 172.863824 315.484008 
L 174.06857 316.269753 
L 175.882334 318.263343 
L 176.535969 319.335128 
L 177.17244 322.400503 
L 176.753142 325.465878 
L 175.882334 327.511365 
L 175.391047 328.531253 
L 172.959095 331.596627 
L 172.863824 331.684206 
L 169.845314 334.000128 
L 168.802991 334.662002 
L 166.826805 335.648005 
L 163.808295 336.871058 
L 161.302799 337.727377 
L 160.789785 337.873999 
L 157.771276 338.669256 
L 154.752766 339.491405 
L 151.734256 340.428042 
L 150.787053 340.792752 
L 148.715747 341.483394 
L 145.697237 342.702224 
L 143.211065 343.858127 
L 142.678727 344.082377 
L 139.660218 345.584484 
L 137.099858 346.923502 
L 136.641708 347.149196 
L 133.623198 348.782416 
L 131.349175 349.988877 
L 130.604689 350.375595 
L 127.586179 351.967389 
L 125.349241 353.054252 
L 124.567669 353.44212 
L 121.54916 354.871141 
L 118.53065 356.086851 
L 118.440634 356.119626 
L 115.51214 357.274232 
L 112.493631 358.230736 
L 109.475121 358.964843 
L 108.218264 359.185001 
L 106.456611 359.54336 
L 103.438102 359.901604 
L 100.419592 359.983185 
L 97.401082 359.756508 
z
" style="fill:#d9e8f5;"/>
   </g>
   <g id="PathCollection_3">
    <path clip-path="url(#pe958fdd9bc)" d="M 97.401082 359.756508 
L 100.419592 359.983185 
L 103.438102 359.901604 
L 106.456611 359.54336 
L 108.218264 359.185001 
L 109.475121 358.964843 
L 112.493631 358.230736 
L 115.51214 357.274232 
L 118.440634 356.119626 
L 118.53065 356.086851 
L 121.54916 354.871141 
L 124.567669 353.44212 
L 125.349241 353.054252 
L 127.586179 351.967389 
L 130.604689 350.375595 
L 131.349175 349.988877 
L 133.623198 348.782416 
L 136.641708 347.149196 
L 137.099858 346.923502 
L 139.660218 345.584484 
L 142.678727 344.082377 
L 143.211065 343.858127 
L 145.697237 342.702224 
L 148.715747 341.483394 
L 150.787053 340.792752 
L 151.734256 340.428042 
L 154.752766 339.491405 
L 157.771276 338.669256 
L 160.789785 337.873999 
L 161.302799 337.727377 
L 163.808295 336.871058 
L 166.826805 335.648005 
L 168.802991 334.662002 
L 169.845314 334.000128 
L 172.863824 331.684206 
L 172.959095 331.596627 
L 175.391047 328.531253 
L 175.882334 327.511365 
L 176.753142 325.465878 
L 177.17244 322.400503 
L 176.535969 319.335128 
L 175.882334 318.263343 
L 174.06857 316.269753 
L 172.863824 315.484008 
L 169.845314 314.142027 
L 167.094516 313.204378 
L 166.826805 313.130049 
L 163.808295 312.196503 
L 160.789785 310.881492 
L 159.688468 310.139003 
L 157.771276 308.861662 
L 156.036797 307.073629 
L 154.752766 305.671011 
L 153.678219 304.008254 
L 151.84284 300.942879 
L 151.734256 300.743659 
L 150.4665 297.877504 
L 149.157335 294.812129 
L 148.715747 293.731602 
L 147.952822 291.746754 
L 146.703461 288.681379 
L 145.697237 286.456558 
L 145.277938 285.616004 
L 143.505878 282.55063 
L 142.678727 281.361027 
L 140.92765 279.485255 
L 139.660218 278.353355 
L 136.641708 276.663078 
L 135.879118 276.41988 
L 133.623198 275.74105 
L 130.604689 275.3616 
L 127.586179 275.386015 
L 124.567669 275.735226 
L 121.54916 276.381559 
L 121.428849 276.41988 
L 118.53065 277.199649 
L 115.51214 278.294372 
L 112.990472 279.485255 
L 112.493631 279.69087 
L 109.475121 281.257236 
L 107.484394 282.55063 
L 106.456611 283.161439 
L 103.438102 285.357958 
L 103.13244 285.616004 
L 100.419592 287.81285 
L 99.498576 288.681379 
L 97.401082 290.633941 
L 96.342949 291.746754 
L 94.382573 293.846206 
L 93.557543 294.812129 
L 91.364063 297.515743 
L 91.08615 297.877504 
L 88.843969 300.942879 
L 88.345553 301.685008 
L 86.806685 304.008254 
L 85.327044 306.583856 
L 85.038768 307.073629 
L 83.391241 310.139003 
L 82.308534 312.568326 
L 82.003996 313.204378 
L 80.716591 316.269753 
L 79.695163 319.335128 
L 79.290024 320.844236 
L 78.812519 322.400503 
L 78.089529 325.465878 
L 77.591051 328.531253 
L 77.305643 331.596627 
L 77.236446 334.662002 
L 77.402686 337.727377 
L 77.84306 340.792752 
L 78.621771 343.858127 
L 79.290024 345.630788 
L 79.781829 346.923502 
L 81.426975 349.988877 
L 82.308534 351.230044 
L 83.812552 353.054252 
L 85.327044 354.537652 
L 87.431473 356.119626 
L 88.345553 356.735106 
L 91.364063 358.234743 
L 94.382573 359.165905 
L 94.486635 359.185001 
z
M 93.256665 353.054252 
L 91.364063 352.105723 
L 88.554463 349.988877 
L 88.345553 349.799901 
L 85.879592 346.923502 
L 85.327044 346.048132 
L 84.117213 343.858127 
L 82.972376 340.792752 
L 82.308534 337.826841 
L 82.286083 337.727377 
L 81.917821 334.662002 
L 81.865776 331.596627 
L 82.095375 328.531253 
L 82.308534 327.208439 
L 82.555989 325.465878 
L 83.21778 322.400503 
L 84.12177 319.335128 
L 85.298361 316.269753 
L 85.327044 316.205559 
L 86.60269 313.204378 
L 88.212857 310.139003 
L 88.345553 309.91092 
L 89.996733 307.073629 
L 91.364063 305.040136 
L 92.086972 304.008254 
L 94.382573 301.049743 
L 94.47255 300.942879 
L 97.192555 297.877504 
L 97.401082 297.651651 
L 100.367391 294.812129 
L 100.419592 294.7626 
L 103.438102 292.263943 
L 104.20075 291.746754 
L 106.456611 290.14648 
L 109.078913 288.681379 
L 109.475121 288.442536 
L 112.493631 287.001082 
L 115.51214 285.955772 
L 116.985121 285.616004 
L 118.53065 285.204833 
L 121.54916 284.78483 
L 124.567669 284.75456 
L 127.586179 285.170797 
L 129.043117 285.616004 
L 130.604689 286.11255 
L 133.623198 287.768858 
L 134.746251 288.681379 
L 136.641708 290.472358 
L 137.677156 291.746754 
L 139.660218 294.739836 
L 139.702209 294.812129 
L 141.296479 297.877504 
L 142.581321 300.942879 
L 142.678727 301.208591 
L 143.773509 304.008254 
L 144.812444 307.073629 
L 145.697237 310.123488 
L 145.702723 310.139003 
L 146.622804 313.204378 
L 147.342145 316.269753 
L 147.78715 319.335128 
L 147.846327 322.400503 
L 147.357168 325.465878 
L 146.086078 328.531253 
L 145.697237 329.089938 
L 144.208423 331.596627 
L 142.678727 333.306997 
L 141.603952 334.662002 
L 139.660218 336.501124 
L 138.463795 337.727377 
L 136.641708 339.244223 
L 134.851662 340.792752 
L 133.623198 341.70903 
L 130.728877 343.858127 
L 130.604689 343.941704 
L 127.586179 346.002044 
L 126.130406 346.923502 
L 124.567669 347.868625 
L 121.54916 349.526544 
L 120.608869 349.988877 
L 118.53065 351.019331 
L 115.51214 352.279242 
L 113.197824 353.054252 
L 112.493631 353.305799 
L 109.475121 354.145192 
L 106.456611 354.699287 
L 103.438102 354.961716 
L 100.419592 354.905254 
L 97.401082 354.47477 
L 94.382573 353.576534 
z
" style="fill:#c6dbef;"/>
   </g>
   <g id="PathCollection_4">
    <path clip-path="url(#pe958fdd9bc)" d="M 94.382573 353.576534 
L 97.401082 354.47477 
L 100.419592 354.905254 
L 103.438102 354.961716 
L 106.456611 354.699287 
L 109.475121 354.145192 
L 112.493631 353.305799 
L 113.197824 353.054252 
L 115.51214 352.279242 
L 118.53065 351.019331 
L 120.608869 349.988877 
L 121.54916 349.526544 
L 124.567669 347.868625 
L 126.130406 346.923502 
L 127.586179 346.002044 
L 130.604689 343.941704 
L 130.728877 343.858127 
L 133.623198 341.70903 
L 134.851662 340.792752 
L 136.641708 339.244223 
L 138.463795 337.727377 
L 139.660218 336.501124 
L 141.603952 334.662002 
L 142.678727 333.306997 
L 144.208423 331.596627 
L 145.697237 329.089938 
L 146.086078 328.531253 
L 147.357168 325.465878 
L 147.846327 322.400503 
L 147.78715 319.335128 
L 147.342145 316.269753 
L 146.622804 313.204378 
L 145.702723 310.139003 
L 145.697237 310.123488 
L 144.812444 307.073629 
L 143.773509 304.008254 
L 142.678727 301.208591 
L 142.581321 300.942879 
L 141.296479 297.877504 
L 139.702209 294.812129 
L 139.660218 294.739836 
L 137.677156 291.746754 
L 136.641708 290.472358 
L 134.746251 288.681379 
L 133.623198 287.768858 
L 130.604689 286.11255 
L 129.043117 285.616004 
L 127.586179 285.170797 
L 124.567669 284.75456 
L 121.54916 284.78483 
L 118.53065 285.204833 
L 116.985121 285.616004 
L 115.51214 285.955772 
L 112.493631 287.001082 
L 109.475121 288.442536 
L 109.078913 288.681379 
L 106.456611 290.14648 
L 104.20075 291.746754 
L 103.438102 292.263943 
L 100.419592 294.7626 
L 100.367391 294.812129 
L 97.401082 297.651651 
L 97.192555 297.877504 
L 94.47255 300.942879 
L 94.382573 301.049743 
L 92.086972 304.008254 
L 91.364063 305.040136 
L 89.996733 307.073629 
L 88.345553 309.91092 
L 88.212857 310.139003 
L 86.60269 313.204378 
L 85.327044 316.205559 
L 85.298361 316.269753 
L 84.12177 319.335128 
L 83.21778 322.400503 
L 82.555989 325.465878 
L 82.308534 327.208439 
L 82.095375 328.531253 
L 81.865776 331.596627 
L 81.917821 334.662002 
L 82.286083 337.727377 
L 82.308534 337.826841 
L 82.972376 340.792752 
L 84.117213 343.858127 
L 85.327044 346.048132 
L 85.879592 346.923502 
L 88.345553 349.799901 
L 88.554463 349.988877 
L 91.364063 352.105723 
L 93.256665 353.054252 
z
M 97.839175 349.988877 
L 97.401082 349.882477 
L 94.382573 348.569791 
L 92.032602 346.923502 
L 91.364063 346.349809 
L 89.211843 343.858127 
L 88.345553 342.44855 
L 87.481904 340.792752 
L 86.425529 337.727377 
L 85.85328 334.662002 
L 85.661726 331.596627 
L 85.787271 328.531253 
L 86.195548 325.465878 
L 86.87521 322.400503 
L 87.834734 319.335128 
L 88.345553 318.053967 
L 89.038552 316.269753 
L 90.501161 313.204378 
L 91.364063 311.6762 
L 92.255801 310.139003 
L 94.324 307.073629 
L 94.382573 306.993542 
L 96.740527 304.008254 
L 97.401082 303.23843 
L 99.621438 300.942879 
L 100.419592 300.151954 
L 103.121075 297.877504 
L 103.438102 297.611734 
L 106.456611 295.503632 
L 107.730869 294.812129 
L 109.475121 293.816218 
L 112.493631 292.539251 
L 115.274956 291.746754 
L 115.51214 291.671849 
L 118.53065 291.163096 
L 121.54916 291.106534 
L 124.567669 291.559232 
L 125.140933 291.746754 
L 127.586179 292.601676 
L 130.604689 294.472183 
L 130.997669 294.812129 
L 133.623198 297.537502 
L 133.881984 297.877504 
L 135.824708 300.942879 
L 136.641708 302.63242 
L 137.26794 304.008254 
L 138.373318 307.073629 
L 139.181538 310.139003 
L 139.660218 312.832143 
L 139.734869 313.204378 
L 140.069688 316.269753 
L 140.08404 319.335128 
L 139.711321 322.400503 
L 139.660218 322.594754 
L 138.994258 325.465878 
L 137.778422 328.531253 
L 136.641708 330.452426 
L 136.015066 331.596627 
L 133.712159 334.662002 
L 133.623198 334.757167 
L 130.910982 337.727377 
L 130.604689 338.006028 
L 127.586179 340.708134 
L 127.487669 340.792752 
L 124.567669 343.021879 
L 123.353626 343.858127 
L 121.54916 345.018278 
L 118.53065 346.698889 
L 118.061583 346.923502 
L 115.51214 348.132987 
L 112.493631 349.257196 
L 109.797848 349.988877 
L 109.475121 350.081044 
L 106.456611 350.62471 
L 103.438102 350.807921 
L 100.419592 350.586932 
z
" style="fill:#a6cee4;"/>
   </g>
   <g id="PathCollection_5">
    <path clip-path="url(#pe958fdd9bc)" d="M 100.419592 350.586932 
L 103.438102 350.807921 
L 106.456611 350.62471 
L 109.475121 350.081044 
L 109.797848 349.988877 
L 112.493631 349.257196 
L 115.51214 348.132987 
L 118.061583 346.923502 
L 118.53065 346.698889 
L 121.54916 345.018278 
L 123.353626 343.858127 
L 124.567669 343.021879 
L 127.487669 340.792752 
L 127.586179 340.708134 
L 130.604689 338.006028 
L 130.910982 337.727377 
L 133.623198 334.757167 
L 133.712159 334.662002 
L 136.015066 331.596627 
L 136.641708 330.452426 
L 137.778422 328.531253 
L 138.994258 325.465878 
L 139.660218 322.594754 
L 139.711321 322.400503 
L 140.08404 319.335128 
L 140.069688 316.269753 
L 139.734869 313.204378 
L 139.660218 312.832143 
L 139.181538 310.139003 
L 138.373318 307.073629 
L 137.26794 304.008254 
L 136.641708 302.63242 
L 135.824708 300.942879 
L 133.881984 297.877504 
L 133.623198 297.537502 
L 130.997669 294.812129 
L 130.604689 294.472183 
L 127.586179 292.601676 
L 125.140933 291.746754 
L 124.567669 291.559232 
L 121.54916 291.106534 
L 118.53065 291.163096 
L 115.51214 291.671849 
L 115.274956 291.746754 
L 112.493631 292.539251 
L 109.475121 293.816218 
L 107.730869 294.812129 
L 106.456611 295.503632 
L 103.438102 297.611734 
L 103.121075 297.877504 
L 100.419592 300.151954 
L 99.621438 300.942879 
L 97.401082 303.23843 
L 96.740527 304.008254 
L 94.382573 306.993542 
L 94.324 307.073629 
L 92.255801 310.139003 
L 91.364063 311.6762 
L 90.501161 313.204378 
L 89.038552 316.269753 
L 88.345553 318.053967 
L 87.834734 319.335128 
L 86.87521 322.400503 
L 86.195548 325.465878 
L 85.787271 328.531253 
L 85.661726 331.596627 
L 85.85328 334.662002 
L 86.425529 337.727377 
L 87.481904 340.792752 
L 88.345553 342.44855 
L 89.211843 343.858127 
L 91.364063 346.349809 
L 92.032602 346.923502 
L 94.382573 348.569791 
L 97.401082 349.882477 
L 97.839175 349.988877 
z
M 102.934186 346.923502 
L 100.419592 346.560764 
L 97.401082 345.48511 
L 94.835782 343.858127 
L 94.382573 343.496694 
L 92.020024 340.792752 
L 91.364063 339.685743 
L 90.416457 337.727377 
L 89.525235 334.662002 
L 89.136439 331.596627 
L 89.151122 328.531253 
L 89.511553 325.465878 
L 90.190908 322.400503 
L 91.187489 319.335128 
L 91.364063 318.911852 
L 92.477853 316.269753 
L 94.094417 313.204378 
L 94.382573 312.732383 
L 96.072498 310.139003 
L 97.401082 308.361327 
L 98.478436 307.073629 
L 100.419592 304.952803 
L 101.436687 304.008254 
L 103.438102 302.232864 
L 105.241358 300.942879 
L 106.456611 300.077615 
L 109.475121 298.42495 
L 110.892422 297.877504 
L 112.493631 297.226039 
L 115.51214 296.489062 
L 118.53065 296.246141 
L 121.54916 296.549541 
L 124.567669 297.518403 
L 125.224372 297.877504 
L 127.586179 299.383246 
L 129.218645 300.942879 
L 130.604689 302.634948 
L 131.508126 304.008254 
L 133.015968 307.073629 
L 133.623198 308.860232 
L 134.039384 310.139003 
L 134.688979 313.204378 
L 134.98609 316.269753 
L 134.932149 319.335128 
L 134.498079 322.400503 
L 133.623198 325.46108 
L 133.621918 325.465878 
L 132.374748 328.531253 
L 130.604689 331.514456 
L 130.55671 331.596627 
L 128.252613 334.662002 
L 127.586179 335.374731 
L 125.293288 337.727377 
L 124.567669 338.362685 
L 121.54916 340.776674 
L 121.526644 340.792752 
L 118.53065 342.745506 
L 116.447639 343.858127 
L 115.51214 344.337365 
L 112.493631 345.569647 
L 109.475121 346.433531 
L 106.456611 346.920822 
L 106.336767 346.923502 
L 103.438102 346.991801 
z
" style="fill:#7fb9da;"/>
   </g>
   <g id="PathCollection_6">
    <path clip-path="url(#pe958fdd9bc)" d="M 103.438102 346.991801 
L 106.336767 346.923502 
L 106.456611 346.920822 
L 109.475121 346.433531 
L 112.493631 345.569647 
L 115.51214 344.337365 
L 116.447639 343.858127 
L 118.53065 342.745506 
L 121.526644 340.792752 
L 121.54916 340.776674 
L 124.567669 338.362685 
L 125.293288 337.727377 
L 127.586179 335.374731 
L 128.252613 334.662002 
L 130.55671 331.596627 
L 130.604689 331.514456 
L 132.374748 328.531253 
L 133.621918 325.465878 
L 133.623198 325.46108 
L 134.498079 322.400503 
L 134.932149 319.335128 
L 134.98609 316.269753 
L 134.688979 313.204378 
L 134.039384 310.139003 
L 133.623198 308.860232 
L 133.015968 307.073629 
L 131.508126 304.008254 
L 130.604689 302.634948 
L 129.218645 300.942879 
L 127.586179 299.383246 
L 125.224372 297.877504 
L 124.567669 297.518403 
L 121.54916 296.549541 
L 118.53065 296.246141 
L 115.51214 296.489062 
L 112.493631 297.226039 
L 110.892422 297.877504 
L 109.475121 298.42495 
L 106.456611 300.077615 
L 105.241358 300.942879 
L 103.438102 302.232864 
L 101.436687 304.008254 
L 100.419592 304.952803 
L 98.478436 307.073629 
L 97.401082 308.361327 
L 96.072498 310.139003 
L 94.382573 312.732383 
L 94.094417 313.204378 
L 92.477853 316.269753 
L 91.364063 318.911852 
L 91.187489 319.335128 
L 90.190908 322.400503 
L 89.511553 325.465878 
L 89.151122 328.531253 
L 89.136439 331.596627 
L 89.525235 334.662002 
L 90.416457 337.727377 
L 91.364063 339.685743 
L 92.020024 340.792752 
L 94.382573 343.496694 
L 94.835782 343.858127 
L 97.401082 345.48511 
L 100.419592 346.560764 
L 102.934186 346.923502 
z
M 97.375071 340.792752 
L 94.652649 337.727377 
L 94.382573 337.246658 
L 93.255199 334.662002 
L 92.579966 331.596627 
L 92.433611 328.531253 
L 92.720591 325.465878 
L 93.389342 322.400503 
L 94.382573 319.450251 
L 94.423094 319.335128 
L 95.850141 316.269753 
L 97.401082 313.60811 
L 97.662243 313.204378 
L 99.973144 310.139003 
L 100.419592 309.611581 
L 102.945559 307.073629 
L 103.438102 306.613586 
L 106.456611 304.339769 
L 107.047133 304.008254 
L 109.475121 302.660667 
L 112.493631 301.543974 
L 115.51214 300.977748 
L 118.53065 301.012806 
L 121.54916 301.77577 
L 124.567669 303.491247 
L 125.158433 304.008254 
L 127.586179 306.808113 
L 127.761945 307.073629 
L 129.259876 310.139003 
L 130.159412 313.204378 
L 130.57256 316.269753 
L 130.556029 319.335128 
L 130.12381 322.400503 
L 129.252109 325.465878 
L 127.878309 328.531253 
L 127.586179 329.009719 
L 125.97502 331.596627 
L 124.567669 333.335836 
L 123.415676 334.662002 
L 121.54916 336.437484 
L 120.007866 337.727377 
L 118.53065 338.811962 
L 115.51214 340.644219 
L 115.197262 340.792752 
L 112.493631 341.990318 
L 109.475121 342.891026 
L 106.456611 343.328008 
L 103.438102 343.231855 
L 100.419592 342.469423 
L 97.401082 340.81431 
z
" style="fill:#5ba3d0;"/>
   </g>
   <g id="PathCollection_7">
    <path clip-path="url(#pe958fdd9bc)" d="M 97.401082 340.81431 
L 100.419592 342.469423 
L 103.438102 343.231855 
L 106.456611 343.328008 
L 109.475121 342.891026 
L 112.493631 341.990318 
L 115.197262 340.792752 
L 115.51214 340.644219 
L 118.53065 338.811962 
L 120.007866 337.727377 
L 121.54916 336.437484 
L 123.415676 334.662002 
L 124.567669 333.335836 
L 125.97502 331.596627 
L 127.586179 329.009719 
L 127.878309 328.531253 
L 129.252109 325.465878 
L 130.12381 322.400503 
L 130.556029 319.335128 
L 130.57256 316.269753 
L 130.159412 313.204378 
L 129.259876 310.139003 
L 127.761945 307.073629 
L 127.586179 306.808113 
L 125.158433 304.008254 
L 124.567669 303.491247 
L 121.54916 301.77577 
L 118.53065 301.012806 
L 115.51214 300.977748 
L 112.493631 301.543974 
L 109.475121 302.660667 
L 107.047133 304.008254 
L 106.456611 304.339769 
L 103.438102 306.613586 
L 102.945559 307.073629 
L 100.419592 309.611581 
L 99.973144 310.139003 
L 97.662243 313.204378 
L 97.401082 313.60811 
L 95.850141 316.269753 
L 94.423094 319.335128 
L 94.382573 319.450251 
L 93.389342 322.400503 
L 92.720591 325.465878 
L 92.433611 328.531253 
L 92.579966 331.596627 
L 93.255199 334.662002 
L 94.382573 337.246658 
L 94.652649 337.727377 
L 97.375071 340.792752 
z
M 100.195466 337.727377 
L 97.424707 334.662002 
L 97.401082 334.616185 
L 96.274201 331.596627 
L 95.866515 328.531253 
L 96.0322 325.465878 
L 96.675854 322.400503 
L 97.401082 320.334676 
L 97.787376 319.335128 
L 99.402441 316.269753 
L 100.419592 314.718016 
L 101.585642 313.204378 
L 103.438102 311.13766 
L 104.56698 310.139003 
L 106.456611 308.616478 
L 109.091801 307.073629 
L 109.475121 306.858423 
L 112.493631 305.825355 
L 115.51214 305.476727 
L 118.53065 305.920225 
L 120.991515 307.073629 
L 121.54916 307.415579 
L 124.095887 310.139003 
L 124.567669 310.93257 
L 125.591523 313.204378 
L 126.303902 316.269753 
L 126.434706 319.335128 
L 126.042158 322.400503 
L 125.13162 325.465878 
L 124.567669 326.661422 
L 123.635771 328.531253 
L 121.54916 331.540029 
L 121.505076 331.596627 
L 118.53065 334.605819 
L 118.463519 334.662002 
L 115.51214 336.754021 
L 113.68657 337.727377 
L 112.493631 338.300363 
L 109.475121 339.227469 
L 106.456611 339.566828 
L 103.438102 339.197416 
L 100.419592 337.896765 
z
" style="fill:#3b8bc2;"/>
   </g>
   <g id="PathCollection_8">
    <path clip-path="url(#pe958fdd9bc)" d="M 100.419592 337.896765 
L 103.438102 339.197416 
L 106.456611 339.566828 
L 109.475121 339.227469 
L 112.493631 338.300363 
L 113.68657 337.727377 
L 115.51214 336.754021 
L 118.463519 334.662002 
L 118.53065 334.605819 
L 121.505076 331.596627 
L 121.54916 331.540029 
L 123.635771 328.531253 
L 124.567669 326.661422 
L 125.13162 325.465878 
L 126.042158 322.400503 
L 126.434706 319.335128 
L 126.303902 316.269753 
L 125.591523 313.204378 
L 124.567669 310.93257 
L 124.095887 310.139003 
L 121.54916 307.415579 
L 120.991515 307.073629 
L 118.53065 305.920225 
L 115.51214 305.476727 
L 112.493631 305.825355 
L 109.475121 306.858423 
L 109.091801 307.073629 
L 106.456611 308.616478 
L 104.56698 310.139003 
L 103.438102 311.13766 
L 101.585642 313.204378 
L 100.419592 314.718016 
L 99.402441 316.269753 
L 97.787376 319.335128 
L 97.401082 320.334676 
L 96.675854 322.400503 
L 96.0322 325.465878 
L 95.866515 328.531253 
L 96.274201 331.596627 
L 97.401082 334.616185 
L 97.424707 334.662002 
L 100.195466 337.727377 
z
M 104.350923 334.662002 
L 103.438102 334.28289 
L 100.856661 331.596627 
L 100.419592 330.598606 
L 99.83031 328.531253 
L 99.759368 325.465878 
L 100.335399 322.400503 
L 100.419592 322.174957 
L 101.668458 319.335128 
L 103.438102 316.443478 
L 103.574924 316.269753 
L 106.456611 313.33063 
L 106.636795 313.204378 
L 109.475121 311.47099 
L 112.493631 310.474501 
L 115.51214 310.482169 
L 118.53065 311.836908 
L 119.911556 313.204378 
L 121.54916 316.142333 
L 121.598113 316.269753 
L 122.042631 319.335128 
L 121.780574 322.400503 
L 121.54916 323.171639 
L 120.779804 325.465878 
L 119.068195 328.531253 
L 118.53065 329.219187 
L 116.281104 331.596627 
L 115.51214 332.241374 
L 112.493631 334.10673 
L 110.954165 334.662002 
L 109.475121 335.121956 
L 106.456611 335.256409 
z
" style="fill:#2070b4;"/>
   </g>
   <g id="PathCollection_9">
    <path clip-path="url(#pe958fdd9bc)" d="M 106.456611 335.256409 
L 109.475121 335.121956 
L 110.954165 334.662002 
L 112.493631 334.10673 
L 115.51214 332.241374 
L 116.281104 331.596627 
L 118.53065 329.219187 
L 119.068195 328.531253 
L 120.779804 325.465878 
L 121.54916 323.171639 
L 121.780574 322.400503 
L 122.042631 319.335128 
L 121.598113 316.269753 
L 121.54916 316.142333 
L 119.911556 313.204378 
L 118.53065 311.836908 
L 115.51214 310.482169 
L 112.493631 310.474501 
L 109.475121 311.47099 
L 106.636795 313.204378 
L 106.456611 313.33063 
L 103.574924 316.269753 
L 103.438102 316.443478 
L 101.668458 319.335128 
L 100.419592 322.174957 
L 100.335399 322.400503 
L 99.759368 325.465878 
L 99.83031 328.531253 
L 100.419592 330.598606 
L 100.856661 331.596627 
L 103.438102 334.28289 
L 104.350923 334.662002 
z
M 106.461576 328.531253 
L 106.456611 328.52825 
L 105.234825 325.465878 
L 105.64229 322.400503 
L 106.456611 320.739676 
L 107.569331 319.335128 
L 109.475121 317.760563 
L 112.493631 316.940317 
L 115.51214 318.787744 
L 115.81875 319.335128 
L 116.080518 322.400503 
L 115.51214 324.204725 
L 114.924336 325.465878 
L 112.493631 328.096371 
L 111.601801 328.531253 
L 109.475121 329.234546 
z
" style="fill:#0d57a1;"/>
   </g>
   <g id="PathCollection_10">
    <path clip-path="url(#pe958fdd9bc)" d="M 109.475121 329.234546 
L 111.601801 328.531253 
L 112.493631 328.096371 
L 114.924336 325.465878 
L 115.51214 324.204725 
L 116.080518 322.400503 
L 115.81875 319.335128 
L 115.51214 318.787744 
L 112.493631 316.940317 
L 109.475121 317.760563 
L 107.569331 319.335128 
L 106.456611 320.739676 
L 105.64229 322.400503 
L 105.234825 325.465878 
L 106.456611 328.52825 
L 106.461576 328.531253 
z
" style="fill:#083c7d;"/>
   </g>
   <g id="patch_3">
    <path d="M 52.123438 389.83875 
L 52.123438 86.366638 
" style="fill:none;"/>
   </g>
   <g id="patch_4">
    <path d="M 52.123437 389.83875 
L 350.955894 389.83875 
" style="fill:none;"/>
   </g>
   <g id="legend_1">
    <g id="line2d_33"/>
    <g id="line2d_34"/>
    <g id="text_19">
     <!-- pearsonr = 0.32; p = 0.00035 -->
     <defs>
      <path d="M 18.109375 8.203125 
L 18.109375 -20.796875 
L 9.078125 -20.796875 
L 9.078125 54.6875 
L 18.109375 54.6875 
L 18.109375 46.390625 
Q 20.953125 51.265625 25.265625 53.625 
Q 29.59375 56 35.59375 56 
Q 45.5625 56 51.78125 48.09375 
Q 58.015625 40.1875 58.015625 27.296875 
Q 58.015625 14.40625 51.78125 6.484375 
Q 45.5625 -1.421875 35.59375 -1.421875 
Q 29.59375 -1.421875 25.265625 0.953125 
Q 20.953125 3.328125 18.109375 8.203125 
z
M 48.6875 27.296875 
Q 48.6875 37.203125 44.609375 42.84375 
Q 40.53125 48.484375 33.40625 48.484375 
Q 26.265625 48.484375 22.1875 42.84375 
Q 18.109375 37.203125 18.109375 27.296875 
Q 18.109375 17.390625 22.1875 11.75 
Q 26.265625 6.109375 33.40625 6.109375 
Q 40.53125 6.109375 44.609375 11.75 
Q 48.6875 17.390625 48.6875 27.296875 
z
" id="DejaVuSans-70"/>
      <path d="M 34.28125 27.484375 
Q 23.390625 27.484375 19.1875 25 
Q 14.984375 22.515625 14.984375 16.5 
Q 14.984375 11.71875 18.140625 8.90625 
Q 21.296875 6.109375 26.703125 6.109375 
Q 34.1875 6.109375 38.703125 11.40625 
Q 43.21875 16.703125 43.21875 25.484375 
L 43.21875 27.484375 
z
M 52.203125 31.203125 
L 52.203125 0 
L 43.21875 0 
L 43.21875 8.296875 
Q 40.140625 3.328125 35.546875 0.953125 
Q 30.953125 -1.421875 24.3125 -1.421875 
Q 15.921875 -1.421875 10.953125 3.296875 
Q 6 8.015625 6 15.921875 
Q 6 25.140625 12.171875 29.828125 
Q 18.359375 34.515625 30.609375 34.515625 
L 43.21875 34.515625 
L 43.21875 35.40625 
Q 43.21875 41.609375 39.140625 45 
Q 35.0625 48.390625 27.6875 48.390625 
Q 23 48.390625 18.546875 47.265625 
Q 14.109375 46.140625 10.015625 43.890625 
L 10.015625 52.203125 
Q 14.9375 54.109375 19.578125 55.046875 
Q 24.21875 56 28.609375 56 
Q 40.484375 56 46.34375 49.84375 
Q 52.203125 43.703125 52.203125 31.203125 
z
" id="DejaVuSans-61"/>
      <path d="M 44.28125 53.078125 
L 44.28125 44.578125 
Q 40.484375 46.53125 36.375 47.5 
Q 32.28125 48.484375 27.875 48.484375 
Q 21.1875 48.484375 17.84375 46.4375 
Q 14.5 44.390625 14.5 40.28125 
Q 14.5 37.15625 16.890625 35.375 
Q 19.28125 33.59375 26.515625 31.984375 
L 29.59375 31.296875 
Q 39.15625 29.25 43.1875 25.515625 
Q 47.21875 21.78125 47.21875 15.09375 
Q 47.21875 7.46875 41.1875 3.015625 
Q 35.15625 -1.421875 24.609375 -1.421875 
Q 20.21875 -1.421875 15.453125 -0.5625 
Q 10.6875 0.296875 5.421875 2 
L 5.421875 11.28125 
Q 10.40625 8.6875 15.234375 7.390625 
Q 20.0625 6.109375 24.8125 6.109375 
Q 31.15625 6.109375 34.5625 8.28125 
Q 37.984375 10.453125 37.984375 14.40625 
Q 37.984375 18.0625 35.515625 20.015625 
Q 33.0625 21.96875 24.703125 23.78125 
L 21.578125 24.515625 
Q 13.234375 26.265625 9.515625 29.90625 
Q 5.8125 33.546875 5.8125 39.890625 
Q 5.8125 47.609375 11.28125 51.796875 
Q 16.75 56 26.8125 56 
Q 31.78125 56 36.171875 55.265625 
Q 40.578125 54.546875 44.28125 53.078125 
z
" id="DejaVuSans-73"/>
      <path d="M 30.609375 48.390625 
Q 23.390625 48.390625 19.1875 42.75 
Q 14.984375 37.109375 14.984375 27.296875 
Q 14.984375 17.484375 19.15625 11.84375 
Q 23.34375 6.203125 30.609375 6.203125 
Q 37.796875 6.203125 41.984375 11.859375 
Q 46.1875 17.53125 46.1875 27.296875 
Q 46.1875 37.015625 41.984375 42.703125 
Q 37.796875 48.390625 30.609375 48.390625 
z
M 30.609375 56 
Q 42.328125 56 49.015625 48.375 
Q 55.71875 40.765625 55.71875 27.296875 
Q 55.71875 13.875 49.015625 6.21875 
Q 42.328125 -1.421875 30.609375 -1.421875 
Q 18.84375 -1.421875 12.171875 6.21875 
Q 5.515625 13.875 5.515625 27.296875 
Q 5.515625 40.765625 12.171875 48.375 
Q 18.84375 56 30.609375 56 
z
" id="DejaVuSans-6f"/>
      <path d="M 54.890625 33.015625 
L 54.890625 0 
L 45.90625 0 
L 45.90625 32.71875 
Q 45.90625 40.484375 42.875 44.328125 
Q 39.84375 48.1875 33.796875 48.1875 
Q 26.515625 48.1875 22.3125 43.546875 
Q 18.109375 38.921875 18.109375 30.90625 
L 18.109375 0 
L 9.078125 0 
L 9.078125 54.6875 
L 18.109375 54.6875 
L 18.109375 46.1875 
Q 21.34375 51.125 25.703125 53.5625 
Q 30.078125 56 35.796875 56 
Q 45.21875 56 50.046875 50.171875 
Q 54.890625 44.34375 54.890625 33.015625 
z
" id="DejaVuSans-6e"/>
      <path id="DejaVuSans-20"/>
      <path d="M 10.59375 45.40625 
L 73.1875 45.40625 
L 73.1875 37.203125 
L 10.59375 37.203125 
z
M 10.59375 25.484375 
L 73.1875 25.484375 
L 73.1875 17.1875 
L 10.59375 17.1875 
z
" id="DejaVuSans-3d"/>
      <path d="M 10.6875 12.40625 
L 21 12.40625 
L 21 0 
L 10.6875 0 
z
" id="DejaVuSans-2e"/>
      <path d="M 11.71875 51.703125 
L 22.015625 51.703125 
L 22.015625 39.3125 
L 11.71875 39.3125 
z
M 11.71875 12.40625 
L 22.015625 12.40625 
L 22.015625 4 
L 14.015625 -11.625 
L 7.71875 -11.625 
L 11.71875 4 
z
" id="DejaVuSans-3b"/>
     </defs>
     <g style="fill:#262626;" transform="translate(191.452769 102.965075)scale(0.1 -0.1)">
      <use xlink:href="#DejaVuSans-70"/>
      <use x="63.476562" xlink:href="#DejaVuSans-65"/>
      <use x="125" xlink:href="#DejaVuSans-61"/>
      <use x="186.279297" xlink:href="#DejaVuSans-72"/>
      <use x="227.392578" xlink:href="#DejaVuSans-73"/>
      <use x="279.492188" xlink:href="#DejaVuSans-6f"/>
      <use x="340.673828" xlink:href="#DejaVuSans-6e"/>
      <use x="404.052734" xlink:href="#DejaVuSans-72"/>
      <use x="445.166016" xlink:href="#DejaVuSans-20"/>
      <use x="476.953125" xlink:href="#DejaVuSans-3d"/>
      <use x="560.742188" xlink:href="#DejaVuSans-20"/>
      <use x="592.529297" xlink:href="#DejaVuSans-30"/>
      <use x="656.152344" xlink:href="#DejaVuSans-2e"/>
      <use x="687.939453" xlink:href="#DejaVuSans-33"/>
      <use x="751.5625" xlink:href="#DejaVuSans-32"/>
      <use x="815.185547" xlink:href="#DejaVuSans-3b"/>
      <use x="848.876953" xlink:href="#DejaVuSans-20"/>
      <use x="880.664062" xlink:href="#DejaVuSans-70"/>
      <use x="944.140625" xlink:href="#DejaVuSans-20"/>
      <use x="975.927734" xlink:href="#DejaVuSans-3d"/>
      <use x="1059.716797" xlink:href="#DejaVuSans-20"/>
      <use x="1091.503906" xlink:href="#DejaVuSans-30"/>
      <use x="1155.126953" xlink:href="#DejaVuSans-2e"/>
      <use x="1186.914062" xlink:href="#DejaVuSans-30"/>
      <use x="1250.537109" xlink:href="#DejaVuSans-30"/>
      <use x="1314.160156" xlink:href="#DejaVuSans-30"/>
      <use x="1377.783203" xlink:href="#DejaVuSans-33"/>
      <use x="1441.40625" xlink:href="#DejaVuSans-35"/>
     </g>
    </g>
   </g>
  </g>
  <g id="axes_2">
   <g id="patch_5">
    <path d="M 52.123438 73.172198 
L 350.955894 73.172198 
L 350.955894 7.2 
L 52.123438 7.2 
z
" style="fill:#eaeaf2;"/>
   </g>
   <g id="matplotlib.axis_3">
    <g id="xtick_8">
     <g id="line2d_35">
      <path clip-path="url(#p62367eb154)" d="M 58.608062 73.172198 
L 58.608062 7.2 
" style="fill:none;stroke:#ffffff;stroke-linecap:round;stroke-width:0.8;"/>
     </g>
     <g id="line2d_36"/>
    </g>
    <g id="xtick_9">
     <g id="line2d_37">
      <path clip-path="url(#p62367eb154)" d="M 105.419467 73.172198 
L 105.419467 7.2 
" style="fill:none;stroke:#ffffff;stroke-linecap:round;stroke-width:0.8;"/>
     </g>
     <g id="line2d_38"/>
    </g>
    <g id="xtick_10">
     <g id="line2d_39">
      <path clip-path="url(#p62367eb154)" d="M 152.230872 73.172198 
L 152.230872 7.2 
" style="fill:none;stroke:#ffffff;stroke-linecap:round;stroke-width:0.8;"/>
     </g>
     <g id="line2d_40"/>
    </g>
    <g id="xtick_11">
     <g id="line2d_41">
      <path clip-path="url(#p62367eb154)" d="M 199.042277 73.172198 
L 199.042277 7.2 
" style="fill:none;stroke:#ffffff;stroke-linecap:round;stroke-width:0.8;"/>
     </g>
     <g id="line2d_42"/>
    </g>
    <g id="xtick_12">
     <g id="line2d_43">
      <path clip-path="url(#p62367eb154)" d="M 245.853683 73.172198 
L 245.853683 7.2 
" style="fill:none;stroke:#ffffff;stroke-linecap:round;stroke-width:0.8;"/>
     </g>
     <g id="line2d_44"/>
    </g>
    <g id="xtick_13">
     <g id="line2d_45">
      <path clip-path="url(#p62367eb154)" d="M 292.665088 73.172198 
L 292.665088 7.2 
" style="fill:none;stroke:#ffffff;stroke-linecap:round;stroke-width:0.8;"/>
     </g>
     <g id="line2d_46"/>
    </g>
    <g id="xtick_14">
     <g id="line2d_47">
      <path clip-path="url(#p62367eb154)" d="M 339.476493 73.172198 
L 339.476493 7.2 
" style="fill:none;stroke:#ffffff;stroke-linecap:round;stroke-width:0.8;"/>
     </g>
     <g id="line2d_48"/>
    </g>
   </g>
   <g id="matplotlib.axis_4">
    <g id="ytick_10"/>
    <g id="ytick_11"/>
   </g>
   <g id="PolyCollection_1">
    <path clip-path="url(#p62367eb154)" d="M 60.209279 72.717536 
L 60.209279 73.172198 
L 63.064439 73.172198 
L 65.919598 73.172198 
L 68.774757 73.172198 
L 71.629917 73.172198 
L 74.485076 73.172198 
L 77.340235 73.172198 
L 80.195395 73.172198 
L 83.050554 73.172198 
L 85.905713 73.172198 
L 88.760873 73.172198 
L 91.616032 73.172198 
L 94.471191 73.172198 
L 97.326351 73.172198 
L 100.18151 73.172198 
L 103.036669 73.172198 
L 105.891829 73.172198 
L 108.746988 73.172198 
L 111.602147 73.172198 
L 114.457307 73.172198 
L 117.312466 73.172198 
L 120.167625 73.172198 
L 123.022785 73.172198 
L 125.877944 73.172198 
L 128.733103 73.172198 
L 131.588263 73.172198 
L 134.443422 73.172198 
L 137.298581 73.172198 
L 140.153741 73.172198 
L 143.0089 73.172198 
L 145.864059 73.172198 
L 148.719218 73.172198 
L 151.574378 73.172198 
L 154.429537 73.172198 
L 157.284696 73.172198 
L 160.139856 73.172198 
L 162.995015 73.172198 
L 165.850174 73.172198 
L 168.705334 73.172198 
L 171.560493 73.172198 
L 174.415652 73.172198 
L 177.270812 73.172198 
L 180.125971 73.172198 
L 182.98113 73.172198 
L 185.83629 73.172198 
L 188.691449 73.172198 
L 191.546608 73.172198 
L 194.401768 73.172198 
L 197.256927 73.172198 
L 200.112086 73.172198 
L 202.967246 73.172198 
L 205.822405 73.172198 
L 208.677564 73.172198 
L 211.532724 73.172198 
L 214.387883 73.172198 
L 217.243042 73.172198 
L 220.098202 73.172198 
L 222.953361 73.172198 
L 225.80852 73.172198 
L 228.66368 73.172198 
L 231.518839 73.172198 
L 234.373998 73.172198 
L 237.229157 73.172198 
L 240.084317 73.172198 
L 242.939476 73.172198 
L 245.794635 73.172198 
L 248.649795 73.172198 
L 251.504954 73.172198 
L 254.360113 73.172198 
L 257.215273 73.172198 
L 260.070432 73.172198 
L 262.925591 73.172198 
L 265.780751 73.172198 
L 268.63591 73.172198 
L 271.491069 73.172198 
L 274.346229 73.172198 
L 277.201388 73.172198 
L 280.056547 73.172198 
L 282.911707 73.172198 
L 285.766866 73.172198 
L 288.622025 73.172198 
L 291.477185 73.172198 
L 294.332344 73.172198 
L 297.187503 73.172198 
L 300.042663 73.172198 
L 302.897822 73.172198 
L 305.752981 73.172198 
L 308.608141 73.172198 
L 311.4633 73.172198 
L 314.318459 73.172198 
L 317.173619 73.172198 
L 320.028778 73.172198 
L 322.883937 73.172198 
L 325.739096 73.172198 
L 328.594256 73.172198 
L 331.449415 73.172198 
L 334.304574 73.172198 
L 337.159734 73.172198 
L 340.014893 73.172198 
L 342.870052 73.172198 
L 342.870052 73.161972 
L 342.870052 73.161972 
L 340.014893 73.154493 
L 337.159734 73.142581 
L 334.304574 73.124313 
L 331.449415 73.097338 
L 328.594256 73.058984 
L 325.739096 73.006448 
L 322.883937 72.93709 
L 320.028778 72.848748 
L 317.173619 72.740036 
L 314.318459 72.610515 
L 311.4633 72.460678 
L 308.608141 72.291731 
L 305.752981 72.105212 
L 302.897822 71.902589 
L 300.042663 71.685033 
L 297.187503 71.453521 
L 294.332344 71.209381 
L 291.477185 70.955224 
L 288.622025 70.696058 
L 285.766866 70.440217 
L 282.911707 70.199746 
L 280.056547 69.989919 
L 277.201388 69.827793 
L 274.346229 69.729945 
L 271.491069 69.709816 
L 268.63591 69.775207 
L 265.780751 69.926517 
L 262.925591 70.15615 
L 260.070432 70.449251 
L 257.215273 70.785614 
L 254.360113 71.14235 
L 251.504954 71.496741 
L 248.649795 71.828716 
L 245.794635 72.122514 
L 242.939476 72.367344 
L 240.084317 72.557059 
L 237.229157 72.689083 
L 234.373998 72.762896 
L 231.518839 72.778402 
L 228.66368 72.734432 
L 225.80852 72.627523 
L 222.953361 72.45106 
L 220.098202 72.194813 
L 217.243042 71.844923 
L 214.387883 71.384454 
L 211.532724 70.794661 
L 208.677564 70.057099 
L 205.822405 69.156564 
L 202.967246 68.084641 
L 200.112086 66.843354 
L 197.256927 65.448146 
L 194.401768 63.929372 
L 191.546608 62.33158 
L 188.691449 60.710281 
L 185.83629 59.126418 
L 182.98113 57.639328 
L 180.125971 56.299399 
L 177.270812 55.141703 
L 174.415652 54.181727 
L 171.560493 53.413793 
L 168.705334 52.812219 
L 165.850174 52.334696 
L 162.995015 51.926978 
L 160.139856 51.527853 
L 157.284696 51.073404 
L 154.429537 50.499817 
L 151.574378 49.744439 
L 148.719218 48.745306 
L 145.864059 47.440053 
L 143.0089 45.765716 
L 140.153741 43.661351 
L 137.298581 41.075278 
L 134.443422 37.977904 
L 131.588263 34.379445 
L 128.733103 30.349689 
L 125.877944 26.034901 
L 123.022785 21.665712 
L 120.167625 17.550336 
L 117.312466 14.049879 
L 114.457307 11.536682 
L 111.602147 10.341533 
L 108.746988 10.699637 
L 105.891829 12.70708 
L 103.036669 16.298166 
L 100.18151 21.249633 
L 97.326351 27.211496 
L 94.471191 33.757979 
L 91.616032 40.447574 
L 88.760873 46.879919 
L 85.905713 52.739099 
L 83.050554 57.817263 
L 80.195395 62.017652 
L 77.340235 65.340609 
L 74.485076 67.858917 
L 71.629917 69.689428 
L 68.774757 70.966829 
L 65.919598 71.823279 
L 63.064439 72.375306 
L 60.209279 72.717536 
z
" style="fill:#1f77b4;fill-opacity:0.25;"/>
   </g>
   <g id="line2d_49">
    <path clip-path="url(#p62367eb154)" d="M 60.209279 72.717536 
L 63.064439 72.375306 
L 65.919598 71.823279 
L 68.774757 70.966829 
L 71.629917 69.689428 
L 74.485076 67.858917 
L 77.340235 65.340609 
L 80.195395 62.017652 
L 83.050554 57.817263 
L 85.905713 52.739099 
L 88.760873 46.879919 
L 91.616032 40.447574 
L 94.471191 33.757979 
L 97.326351 27.211496 
L 100.18151 21.249633 
L 103.036669 16.298166 
L 105.891829 12.70708 
L 108.746988 10.699637 
L 111.602147 10.341533 
L 114.457307 11.536682 
L 117.312466 14.049879 
L 120.167625 17.550336 
L 123.022785 21.665712 
L 125.877944 26.034901 
L 128.733103 30.349689 
L 131.588263 34.379445 
L 134.443422 37.977904 
L 137.298581 41.075278 
L 140.153741 43.661351 
L 143.0089 45.765716 
L 145.864059 47.440053 
L 148.719218 48.745306 
L 151.574378 49.744439 
L 154.429537 50.499817 
L 157.284696 51.073404 
L 160.139856 51.527853 
L 162.995015 51.926978 
L 165.850174 52.334696 
L 168.705334 52.812219 
L 171.560493 53.413793 
L 174.415652 54.181727 
L 177.270812 55.141703 
L 180.125971 56.299399 
L 182.98113 57.639328 
L 185.83629 59.126418 
L 188.691449 60.710281 
L 191.546608 62.33158 
L 194.401768 63.929372 
L 197.256927 65.448146 
L 200.112086 66.843354 
L 202.967246 68.084641 
L 205.822405 69.156564 
L 208.677564 70.057099 
L 211.532724 70.794661 
L 214.387883 71.384454 
L 217.243042 71.844923 
L 220.098202 72.194813 
L 222.953361 72.45106 
L 225.80852 72.627523 
L 228.66368 72.734432 
L 231.518839 72.778402 
L 234.373998 72.762896 
L 237.229157 72.689083 
L 240.084317 72.557059 
L 242.939476 72.367344 
L 245.794635 72.122514 
L 248.649795 71.828716 
L 251.504954 71.496741 
L 254.360113 71.14235 
L 257.215273 70.785614 
L 260.070432 70.449251 
L 262.925591 70.15615 
L 265.780751 69.926517 
L 268.63591 69.775207 
L 271.491069 69.709816 
L 274.346229 69.729945 
L 277.201388 69.827793 
L 280.056547 69.989919 
L 282.911707 70.199746 
L 285.766866 70.440217 
L 288.622025 70.696058 
L 291.477185 70.955224 
L 294.332344 71.209381 
L 297.187503 71.453521 
L 300.042663 71.685033 
L 302.897822 71.902589 
L 305.752981 72.105212 
L 308.608141 72.291731 
L 311.4633 72.460678 
L 314.318459 72.610515 
L 317.173619 72.740036 
L 320.028778 72.848748 
L 322.883937 72.93709 
L 325.739096 73.006448 
L 328.594256 73.058984 
L 331.449415 73.097338 
L 334.304574 73.124313 
L 337.159734 73.142581 
L 340.014893 73.154493 
L 342.870052 73.161972 
" style="fill:none;stroke:#1f77b4;stroke-linecap:round;stroke-width:1.5;"/>
   </g>
   <g id="patch_6">
    <path d="M 52.123437 73.172198 
L 350.955894 73.172198 
" style="fill:none;"/>
   </g>
  </g>
  <g id="axes_3">
   <g id="patch_7">
    <path d="M 363.94861 389.83875 
L 428.912188 389.83875 
L 428.912188 86.366638 
L 363.94861 86.366638 
z
" style="fill:#eaeaf2;"/>
   </g>
   <g id="matplotlib.axis_5">
    <g id="xtick_15"/>
    <g id="xtick_16"/>
   </g>
   <g id="matplotlib.axis_6">
    <g id="ytick_12">
     <g id="line2d_50">
      <path clip-path="url(#p69e15aa151)" d="M 363.94861 369.510463 
L 428.912188 369.510463 
" style="fill:none;stroke:#ffffff;stroke-linecap:round;stroke-width:0.8;"/>
     </g>
     <g id="line2d_51"/>
    </g>
    <g id="ytick_13">
     <g id="line2d_52">
      <path clip-path="url(#p69e15aa151)" d="M 363.94861 335.436987 
L 428.912188 335.436987 
" style="fill:none;stroke:#ffffff;stroke-linecap:round;stroke-width:0.8;"/>
     </g>
     <g id="line2d_53"/>
    </g>
    <g id="ytick_14">
     <g id="line2d_54">
      <path clip-path="url(#p69e15aa151)" d="M 363.94861 301.36351 
L 428.912188 301.36351 
" style="fill:none;stroke:#ffffff;stroke-linecap:round;stroke-width:0.8;"/>
     </g>
     <g id="line2d_55"/>
    </g>
    <g id="ytick_15">
     <g id="line2d_56">
      <path clip-path="url(#p69e15aa151)" d="M 363.94861 267.290034 
L 428.912188 267.290034 
" style="fill:none;stroke:#ffffff;stroke-linecap:round;stroke-width:0.8;"/>
     </g>
     <g id="line2d_57"/>
    </g>
    <g id="ytick_16">
     <g id="line2d_58">
      <path clip-path="url(#p69e15aa151)" d="M 363.94861 233.216557 
L 428.912188 233.216557 
" style="fill:none;stroke:#ffffff;stroke-linecap:round;stroke-width:0.8;"/>
     </g>
     <g id="line2d_59"/>
    </g>
    <g id="ytick_17">
     <g id="line2d_60">
      <path clip-path="url(#p69e15aa151)" d="M 363.94861 199.143081 
L 428.912188 199.143081 
" style="fill:none;stroke:#ffffff;stroke-linecap:round;stroke-width:0.8;"/>
     </g>
     <g id="line2d_61"/>
    </g>
    <g id="ytick_18">
     <g id="line2d_62">
      <path clip-path="url(#p69e15aa151)" d="M 363.94861 165.069605 
L 428.912188 165.069605 
" style="fill:none;stroke:#ffffff;stroke-linecap:round;stroke-width:0.8;"/>
     </g>
     <g id="line2d_63"/>
    </g>
    <g id="ytick_19">
     <g id="line2d_64">
      <path clip-path="url(#p69e15aa151)" d="M 363.94861 130.996128 
L 428.912188 130.996128 
" style="fill:none;stroke:#ffffff;stroke-linecap:round;stroke-width:0.8;"/>
     </g>
     <g id="line2d_65"/>
    </g>
    <g id="ytick_20">
     <g id="line2d_66">
      <path clip-path="url(#p69e15aa151)" d="M 363.94861 96.922652 
L 428.912188 96.922652 
" style="fill:none;stroke:#ffffff;stroke-linecap:round;stroke-width:0.8;"/>
     </g>
     <g id="line2d_67"/>
    </g>
   </g>
   <g id="PolyCollection_2">
    <path clip-path="url(#p69e15aa151)" d="M 364.257062 381.443708 
L 363.94861 381.443708 
L 363.94861 378.54793 
L 363.94861 375.652152 
L 363.94861 372.756373 
L 363.94861 369.860595 
L 363.94861 366.964817 
L 363.94861 364.069039 
L 363.94861 361.173261 
L 363.94861 358.277483 
L 363.94861 355.381705 
L 363.94861 352.485927 
L 363.94861 349.590149 
L 363.94861 346.694371 
L 363.94861 343.798593 
L 363.94861 340.902815 
L 363.94861 338.007037 
L 363.94861 335.111259 
L 363.94861 332.215481 
L 363.94861 329.319703 
L 363.94861 326.423925 
L 363.94861 323.528147 
L 363.94861 320.632369 
L 363.94861 317.73659 
L 363.94861 314.840812 
L 363.94861 311.945034 
L 363.94861 309.049256 
L 363.94861 306.153478 
L 363.94861 303.2577 
L 363.94861 300.361922 
L 363.94861 297.466144 
L 363.94861 294.570366 
L 363.94861 291.674588 
L 363.94861 288.77881 
L 363.94861 285.883032 
L 363.94861 282.987254 
L 363.94861 280.091476 
L 363.94861 277.195698 
L 363.94861 274.29992 
L 363.94861 271.404142 
L 363.94861 268.508364 
L 363.94861 265.612585 
L 363.94861 262.716807 
L 363.94861 259.821029 
L 363.94861 256.925251 
L 363.94861 254.029473 
L 363.94861 251.133695 
L 363.94861 248.237917 
L 363.94861 245.342139 
L 363.94861 242.446361 
L 363.94861 239.550583 
L 363.94861 236.654805 
L 363.94861 233.759027 
L 363.94861 230.863249 
L 363.94861 227.967471 
L 363.94861 225.071693 
L 363.94861 222.175915 
L 363.94861 219.280137 
L 363.94861 216.384359 
L 363.94861 213.488581 
L 363.94861 210.592802 
L 363.94861 207.697024 
L 363.94861 204.801246 
L 363.94861 201.905468 
L 363.94861 199.00969 
L 363.94861 196.113912 
L 363.94861 193.218134 
L 363.94861 190.322356 
L 363.94861 187.426578 
L 363.94861 184.5308 
L 363.94861 181.635022 
L 363.94861 178.739244 
L 363.94861 175.843466 
L 363.94861 172.947688 
L 363.94861 170.05191 
L 363.94861 167.156132 
L 363.94861 164.260354 
L 363.94861 161.364576 
L 363.94861 158.468797 
L 363.94861 155.573019 
L 363.94861 152.677241 
L 363.94861 149.781463 
L 363.94861 146.885685 
L 363.94861 143.989907 
L 363.94861 141.094129 
L 363.94861 138.198351 
L 363.94861 135.302573 
L 363.94861 132.406795 
L 363.94861 129.511017 
L 363.94861 126.615239 
L 363.94861 123.719461 
L 363.94861 120.823683 
L 363.94861 117.927905 
L 363.94861 115.032127 
L 363.94861 112.136349 
L 363.94861 109.240571 
L 363.94861 106.344792 
L 363.94861 103.449014 
L 363.94861 100.553236 
L 363.94861 97.657458 
L 363.94861 94.76168 
L 363.957976 94.76168 
L 363.957976 94.76168 
L 363.964585 97.657458 
L 363.974963 100.553236 
L 363.990658 103.449014 
L 364.013512 106.344792 
L 364.045544 109.240571 
L 364.088736 112.136349 
L 364.14474 115.032127 
L 364.214545 117.927905 
L 364.298143 120.823683 
L 364.394315 123.719461 
L 364.500592 126.615239 
L 364.613456 129.511017 
L 364.728794 132.406795 
L 364.842533 135.302573 
L 364.951333 138.198351 
L 365.053193 141.094129 
L 365.147827 143.989907 
L 365.236714 146.885685 
L 365.322838 149.781463 
L 365.410192 152.677241 
L 365.503187 155.573019 
L 365.606113 158.468797 
L 365.722758 161.364576 
L 365.856205 164.260354 
L 366.008775 167.156132 
L 366.182038 170.05191 
L 366.376783 172.947688 
L 366.592926 175.843466 
L 366.82937 178.739244 
L 367.083867 181.635022 
L 367.352992 184.5308 
L 367.632289 187.426578 
L 367.916598 190.322356 
L 368.200514 193.218134 
L 368.478869 196.113912 
L 368.747094 199.00969 
L 369.001386 201.905468 
L 369.238628 204.801246 
L 369.456138 207.697024 
L 369.651397 210.592802 
L 369.821923 213.488581 
L 369.965483 216.384359 
L 370.080695 219.280137 
L 370.167973 222.175915 
L 370.230618 225.071693 
L 370.275705 227.967471 
L 370.314432 230.863249 
L 370.361612 233.759027 
L 370.434229 236.654805 
L 370.549187 239.550583 
L 370.720701 242.446361 
L 370.957939 245.342139 
L 371.263586 248.237917 
L 371.633863 251.133695 
L 372.060183 254.029473 
L 372.532263 256.925251 
L 373.042081 259.821029 
L 373.587861 262.716807 
L 374.177224 265.612585 
L 374.828905 268.508364 
L 375.57277 271.404142 
L 376.448325 274.29992 
L 377.502191 277.195698 
L 378.785092 280.091476 
L 380.348766 282.987254 
L 382.24287 285.883032 
L 384.511572 288.77881 
L 387.189341 291.674588 
L 390.295421 294.570366 
L 393.826848 297.466144 
L 397.750381 300.361922 
L 401.994411 303.2577 
L 406.442473 306.153478 
L 410.930368 309.049256 
L 415.248853 311.945034 
L 419.153399 314.840812 
L 422.381567 317.73659 
L 424.677151 320.632369 
L 425.818684 323.528147 
L 425.648416 326.423925 
L 424.096931 329.319703 
L 421.198543 332.215481 
L 417.093743 335.111259 
L 412.017139 338.007037 
L 406.272164 340.902815 
L 400.196501 343.798593 
L 394.124173 346.694371 
L 388.350703 349.590149 
L 383.106878 352.485927 
L 378.544477 355.381705 
L 374.734616 358.277483 
L 371.676915 361.173261 
L 369.315922 364.069039 
L 367.56065 366.964817 
L 366.303452 369.860595 
L 365.435533 372.756373 
L 364.857788 375.652152 
L 364.486843 378.54793 
L 364.257062 381.443708 
z
" style="fill:#1f77b4;fill-opacity:0.25;"/>
   </g>
   <g id="line2d_68">
    <path clip-path="url(#p69e15aa151)" d="M 364.257062 381.443708 
L 364.486843 378.54793 
L 364.857788 375.652152 
L 365.435533 372.756373 
L 366.303452 369.860595 
L 367.56065 366.964817 
L 369.315922 364.069039 
L 371.676915 361.173261 
L 374.734616 358.277483 
L 378.544477 355.381705 
L 383.106878 352.485927 
L 388.350703 349.590149 
L 394.124173 346.694371 
L 400.196501 343.798593 
L 406.272164 340.902815 
L 412.017139 338.007037 
L 417.093743 335.111259 
L 421.198543 332.215481 
L 424.096931 329.319703 
L 425.648416 326.423925 
L 425.818684 323.528147 
L 424.677151 320.632369 
L 422.381567 317.73659 
L 419.153399 314.840812 
L 415.248853 311.945034 
L 410.930368 309.049256 
L 406.442473 306.153478 
L 401.994411 303.2577 
L 397.750381 300.361922 
L 393.826848 297.466144 
L 390.295421 294.570366 
L 387.189341 291.674588 
L 384.511572 288.77881 
L 382.24287 285.883032 
L 380.348766 282.987254 
L 378.785092 280.091476 
L 377.502191 277.195698 
L 376.448325 274.29992 
L 375.57277 271.404142 
L 374.828905 268.508364 
L 374.177224 265.612585 
L 373.587861 262.716807 
L 373.042081 259.821029 
L 372.532263 256.925251 
L 372.060183 254.029473 
L 371.633863 251.133695 
L 371.263586 248.237917 
L 370.957939 245.342139 
L 370.720701 242.446361 
L 370.549187 239.550583 
L 370.434229 236.654805 
L 370.361612 233.759027 
L 370.314432 230.863249 
L 370.275705 227.967471 
L 370.230618 225.071693 
L 370.167973 222.175915 
L 370.080695 219.280137 
L 369.965483 216.384359 
L 369.821923 213.488581 
L 369.651397 210.592802 
L 369.456138 207.697024 
L 369.238628 204.801246 
L 369.001386 201.905468 
L 368.747094 199.00969 
L 368.478869 196.113912 
L 368.200514 193.218134 
L 367.916598 190.322356 
L 367.632289 187.426578 
L 367.352992 184.5308 
L 367.083867 181.635022 
L 366.82937 178.739244 
L 366.592926 175.843466 
L 366.376783 172.947688 
L 366.182038 170.05191 
L 366.008775 167.156132 
L 365.856205 164.260354 
L 365.722758 161.364576 
L 365.606113 158.468797 
L 365.503187 155.573019 
L 365.410192 152.677241 
L 365.322838 149.781463 
L 365.236714 146.885685 
L 365.147827 143.989907 
L 365.053193 141.094129 
L 364.951333 138.198351 
L 364.842533 135.302573 
L 364.728794 132.406795 
L 364.613456 129.511017 
L 364.500592 126.615239 
L 364.394315 123.719461 
L 364.298143 120.823683 
L 364.214545 117.927905 
L 364.14474 115.032127 
L 364.088736 112.136349 
L 364.045544 109.240571 
L 364.013512 106.344792 
L 363.990658 103.449014 
L 363.974963 100.553236 
L 363.964585 97.657458 
L 363.957976 94.76168 
" style="fill:none;stroke:#1f77b4;stroke-linecap:round;stroke-width:1.5;"/>
   </g>
   <g id="patch_8">
    <path d="M 363.94861 389.83875 
L 363.94861 86.366638 
" style="fill:none;"/>
   </g>
  </g>
 </g>
 <defs>
  <clipPath id="pe958fdd9bc">
   <rect height="303.472112" width="298.832457" x="52.123438" y="86.366638"/>
  </clipPath>
  <clipPath id="p62367eb154">
   <rect height="65.972198" width="298.832457" x="52.123438" y="7.2"/>
  </clipPath>
  <clipPath id="p69e15aa151">
   <rect height="303.472112" width="64.963578" x="363.94861" y="86.366638"/>
  </clipPath>
 </defs>
</svg>
