<?xml version="1.0" encoding="utf-8" standalone="no"?>
<!DOCTYPE svg PUBLIC "-//W3C//DTD SVG 1.1//EN"
  "http://www.w3.org/Graphics/SVG/1.1/DTD/svg11.dtd">
<!-- Created with matplotlib (http://matplotlib.org/) -->
<svg height="425pt" version="1.1" viewBox="0 0 434 425" width="434pt" xmlns="http://www.w3.org/2000/svg" xmlns:xlink="http://www.w3.org/1999/xlink">
 <defs>
  <style type="text/css">
*{stroke-linecap:butt;stroke-linejoin:round;}
  </style>
 </defs>
 <g id="figure_1">
  <g id="patch_1">
   <path d="M 0 425.608 
L 434.25925 425.608 
L 434.25925 0 
L 0 0 
z
" style="fill:#ffffff;"/>
  </g>
  <g id="axes_1">
   <g id="patch_2">
    <path d="M 47.53525 392.304 
L 348.537043 392.304 
L 348.537043 86.87669 
L 47.53525 86.87669 
z
" style="fill:#ffffff;"/>
   </g>
   <g id="matplotlib.axis_1">
    <g id="xtick_1">
     <g id="line2d_1"/>
     <g id="text_1">
      <!-- 0 -->
      <defs>
       <path d="M 31.78125 66.40625 
Q 24.171875 66.40625 20.328125 58.90625 
Q 16.5 51.421875 16.5 36.375 
Q 16.5 21.390625 20.328125 13.890625 
Q 24.171875 6.390625 31.78125 6.390625 
Q 39.453125 6.390625 43.28125 13.890625 
Q 47.125 21.390625 47.125 36.375 
Q 47.125 51.421875 43.28125 58.90625 
Q 39.453125 66.40625 31.78125 66.40625 
z
M 31.78125 74.21875 
Q 44.046875 74.21875 50.515625 64.515625 
Q 56.984375 54.828125 56.984375 36.375 
Q 56.984375 17.96875 50.515625 8.265625 
Q 44.046875 -1.421875 31.78125 -1.421875 
Q 19.53125 -1.421875 13.0625 8.265625 
Q 6.59375 17.96875 6.59375 36.375 
Q 6.59375 54.828125 13.0625 64.515625 
Q 19.53125 74.21875 31.78125 74.21875 
z
" id="DejaVuSans-30"/>
      </defs>
      <g style="fill:#262626;" transform="translate(93.629415 403.98275)scale(0.08 -0.08)">
       <use xlink:href="#DejaVuSans-30"/>
      </g>
     </g>
    </g>
    <g id="xtick_2">
     <g id="line2d_2"/>
     <g id="text_2">
      <!-- 200 -->
      <defs>
       <path d="M 19.1875 8.296875 
L 53.609375 8.296875 
L 53.609375 0 
L 7.328125 0 
L 7.328125 8.296875 
Q 12.9375 14.109375 22.625 23.890625 
Q 32.328125 33.6875 34.8125 36.53125 
Q 39.546875 41.84375 41.421875 45.53125 
Q 43.3125 49.21875 43.3125 52.78125 
Q 43.3125 58.59375 39.234375 62.25 
Q 35.15625 65.921875 28.609375 65.921875 
Q 23.96875 65.921875 18.8125 64.3125 
Q 13.671875 62.703125 7.8125 59.421875 
L 7.8125 69.390625 
Q 13.765625 71.78125 18.9375 73 
Q 24.125 74.21875 28.421875 74.21875 
Q 39.75 74.21875 46.484375 68.546875 
Q 53.21875 62.890625 53.21875 53.421875 
Q 53.21875 48.921875 51.53125 44.890625 
Q 49.859375 40.875 45.40625 35.40625 
Q 44.1875 33.984375 37.640625 27.21875 
Q 31.109375 20.453125 19.1875 8.296875 
z
" id="DejaVuSans-32"/>
      </defs>
      <g style="fill:#262626;" transform="translate(138.168147 403.98275)scale(0.08 -0.08)">
       <use xlink:href="#DejaVuSans-32"/>
       <use x="63.623047" xlink:href="#DejaVuSans-30"/>
       <use x="127.246094" xlink:href="#DejaVuSans-30"/>
      </g>
     </g>
    </g>
    <g id="xtick_3">
     <g id="line2d_3"/>
     <g id="text_3">
      <!-- 400 -->
      <defs>
       <path d="M 37.796875 64.3125 
L 12.890625 25.390625 
L 37.796875 25.390625 
z
M 35.203125 72.90625 
L 47.609375 72.90625 
L 47.609375 25.390625 
L 58.015625 25.390625 
L 58.015625 17.1875 
L 47.609375 17.1875 
L 47.609375 0 
L 37.796875 0 
L 37.796875 17.1875 
L 4.890625 17.1875 
L 4.890625 26.703125 
z
" id="DejaVuSans-34"/>
      </defs>
      <g style="fill:#262626;" transform="translate(187.796879 403.98275)scale(0.08 -0.08)">
       <use xlink:href="#DejaVuSans-34"/>
       <use x="63.623047" xlink:href="#DejaVuSans-30"/>
       <use x="127.246094" xlink:href="#DejaVuSans-30"/>
      </g>
     </g>
    </g>
    <g id="xtick_4">
     <g id="line2d_4"/>
     <g id="text_4">
      <!-- 600 -->
      <defs>
       <path d="M 33.015625 40.375 
Q 26.375 40.375 22.484375 35.828125 
Q 18.609375 31.296875 18.609375 23.390625 
Q 18.609375 15.53125 22.484375 10.953125 
Q 26.375 6.390625 33.015625 6.390625 
Q 39.65625 6.390625 43.53125 10.953125 
Q 47.40625 15.53125 47.40625 23.390625 
Q 47.40625 31.296875 43.53125 35.828125 
Q 39.65625 40.375 33.015625 40.375 
z
M 52.59375 71.296875 
L 52.59375 62.3125 
Q 48.875 64.0625 45.09375 64.984375 
Q 41.3125 65.921875 37.59375 65.921875 
Q 27.828125 65.921875 22.671875 59.328125 
Q 17.53125 52.734375 16.796875 39.40625 
Q 19.671875 43.65625 24.015625 45.921875 
Q 28.375 48.1875 33.59375 48.1875 
Q 44.578125 48.1875 50.953125 41.515625 
Q 57.328125 34.859375 57.328125 23.390625 
Q 57.328125 12.15625 50.6875 5.359375 
Q 44.046875 -1.421875 33.015625 -1.421875 
Q 20.359375 -1.421875 13.671875 8.265625 
Q 6.984375 17.96875 6.984375 36.375 
Q 6.984375 53.65625 15.1875 63.9375 
Q 23.390625 74.21875 37.203125 74.21875 
Q 40.921875 74.21875 44.703125 73.484375 
Q 48.484375 72.75 52.59375 71.296875 
z
" id="DejaVuSans-36"/>
      </defs>
      <g style="fill:#262626;" transform="translate(237.425611 403.98275)scale(0.08 -0.08)">
       <use xlink:href="#DejaVuSans-36"/>
       <use x="63.623047" xlink:href="#DejaVuSans-30"/>
       <use x="127.246094" xlink:href="#DejaVuSans-30"/>
      </g>
     </g>
    </g>
    <g id="xtick_5">
     <g id="line2d_5"/>
     <g id="text_5">
      <!-- 800 -->
      <defs>
       <path d="M 31.78125 34.625 
Q 24.75 34.625 20.71875 30.859375 
Q 16.703125 27.09375 16.703125 20.515625 
Q 16.703125 13.921875 20.71875 10.15625 
Q 24.75 6.390625 31.78125 6.390625 
Q 38.8125 6.390625 42.859375 10.171875 
Q 46.921875 13.96875 46.921875 20.515625 
Q 46.921875 27.09375 42.890625 30.859375 
Q 38.875 34.625 31.78125 34.625 
z
M 21.921875 38.8125 
Q 15.578125 40.375 12.03125 44.71875 
Q 8.5 49.078125 8.5 55.328125 
Q 8.5 64.0625 14.71875 69.140625 
Q 20.953125 74.21875 31.78125 74.21875 
Q 42.671875 74.21875 48.875 69.140625 
Q 55.078125 64.0625 55.078125 55.328125 
Q 55.078125 49.078125 51.53125 44.71875 
Q 48 40.375 41.703125 38.8125 
Q 48.828125 37.15625 52.796875 32.3125 
Q 56.78125 27.484375 56.78125 20.515625 
Q 56.78125 9.90625 50.3125 4.234375 
Q 43.84375 -1.421875 31.78125 -1.421875 
Q 19.734375 -1.421875 13.25 4.234375 
Q 6.78125 9.90625 6.78125 20.515625 
Q 6.78125 27.484375 10.78125 32.3125 
Q 14.796875 37.15625 21.921875 38.8125 
z
M 18.3125 54.390625 
Q 18.3125 48.734375 21.84375 45.5625 
Q 25.390625 42.390625 31.78125 42.390625 
Q 38.140625 42.390625 41.71875 45.5625 
Q 45.3125 48.734375 45.3125 54.390625 
Q 45.3125 60.0625 41.71875 63.234375 
Q 38.140625 66.40625 31.78125 66.40625 
Q 25.390625 66.40625 21.84375 63.234375 
Q 18.3125 60.0625 18.3125 54.390625 
z
" id="DejaVuSans-38"/>
      </defs>
      <g style="fill:#262626;" transform="translate(287.054343 403.98275)scale(0.08 -0.08)">
       <use xlink:href="#DejaVuSans-38"/>
       <use x="63.623047" xlink:href="#DejaVuSans-30"/>
       <use x="127.246094" xlink:href="#DejaVuSans-30"/>
      </g>
     </g>
    </g>
    <g id="xtick_6">
     <g id="line2d_6"/>
     <g id="text_6">
      <!-- 1000 -->
      <defs>
       <path d="M 12.40625 8.296875 
L 28.515625 8.296875 
L 28.515625 63.921875 
L 10.984375 60.40625 
L 10.984375 69.390625 
L 28.421875 72.90625 
L 38.28125 72.90625 
L 38.28125 8.296875 
L 54.390625 8.296875 
L 54.390625 0 
L 12.40625 0 
z
" id="DejaVuSans-31"/>
      </defs>
      <g style="fill:#262626;" transform="translate(334.138075 403.98275)scale(0.08 -0.08)">
       <use xlink:href="#DejaVuSans-31"/>
       <use x="63.623047" xlink:href="#DejaVuSans-30"/>
       <use x="127.246094" xlink:href="#DejaVuSans-30"/>
       <use x="190.869141" xlink:href="#DejaVuSans-30"/>
      </g>
     </g>
    </g>
    <g id="text_7">
     <!-- Sum_Credit -->
     <defs>
      <path d="M 53.515625 70.515625 
L 53.515625 60.890625 
Q 47.90625 63.578125 42.921875 64.890625 
Q 37.9375 66.21875 33.296875 66.21875 
Q 25.25 66.21875 20.875 63.09375 
Q 16.5 59.96875 16.5 54.203125 
Q 16.5 49.359375 19.40625 46.890625 
Q 22.3125 44.4375 30.421875 42.921875 
L 36.375 41.703125 
Q 47.40625 39.59375 52.65625 34.296875 
Q 57.90625 29 57.90625 20.125 
Q 57.90625 9.515625 50.796875 4.046875 
Q 43.703125 -1.421875 29.984375 -1.421875 
Q 24.8125 -1.421875 18.96875 -0.25 
Q 13.140625 0.921875 6.890625 3.21875 
L 6.890625 13.375 
Q 12.890625 10.015625 18.65625 8.296875 
Q 24.421875 6.59375 29.984375 6.59375 
Q 38.421875 6.59375 43.015625 9.90625 
Q 47.609375 13.234375 47.609375 19.390625 
Q 47.609375 24.75 44.3125 27.78125 
Q 41.015625 30.8125 33.5 32.328125 
L 27.484375 33.5 
Q 16.453125 35.6875 11.515625 40.375 
Q 6.59375 45.0625 6.59375 53.421875 
Q 6.59375 63.09375 13.40625 68.65625 
Q 20.21875 74.21875 32.171875 74.21875 
Q 37.3125 74.21875 42.625 73.28125 
Q 47.953125 72.359375 53.515625 70.515625 
z
" id="DejaVuSans-53"/>
      <path d="M 8.5 21.578125 
L 8.5 54.6875 
L 17.484375 54.6875 
L 17.484375 21.921875 
Q 17.484375 14.15625 20.5 10.265625 
Q 23.53125 6.390625 29.59375 6.390625 
Q 36.859375 6.390625 41.078125 11.03125 
Q 45.3125 15.671875 45.3125 23.6875 
L 45.3125 54.6875 
L 54.296875 54.6875 
L 54.296875 0 
L 45.3125 0 
L 45.3125 8.40625 
Q 42.046875 3.421875 37.71875 1 
Q 33.40625 -1.421875 27.6875 -1.421875 
Q 18.265625 -1.421875 13.375 4.4375 
Q 8.5 10.296875 8.5 21.578125 
z
M 31.109375 56 
z
" id="DejaVuSans-75"/>
      <path d="M 52 44.1875 
Q 55.375 50.25 60.0625 53.125 
Q 64.75 56 71.09375 56 
Q 79.640625 56 84.28125 50.015625 
Q 88.921875 44.046875 88.921875 33.015625 
L 88.921875 0 
L 79.890625 0 
L 79.890625 32.71875 
Q 79.890625 40.578125 77.09375 44.375 
Q 74.3125 48.1875 68.609375 48.1875 
Q 61.625 48.1875 57.5625 43.546875 
Q 53.515625 38.921875 53.515625 30.90625 
L 53.515625 0 
L 44.484375 0 
L 44.484375 32.71875 
Q 44.484375 40.625 41.703125 44.40625 
Q 38.921875 48.1875 33.109375 48.1875 
Q 26.21875 48.1875 22.15625 43.53125 
Q 18.109375 38.875 18.109375 30.90625 
L 18.109375 0 
L 9.078125 0 
L 9.078125 54.6875 
L 18.109375 54.6875 
L 18.109375 46.1875 
Q 21.1875 51.21875 25.484375 53.609375 
Q 29.78125 56 35.6875 56 
Q 41.65625 56 45.828125 52.96875 
Q 50 49.953125 52 44.1875 
z
" id="DejaVuSans-6d"/>
      <path d="M 50.984375 -16.609375 
L 50.984375 -23.578125 
L -0.984375 -23.578125 
L -0.984375 -16.609375 
z
" id="DejaVuSans-5f"/>
      <path d="M 64.40625 67.28125 
L 64.40625 56.890625 
Q 59.421875 61.53125 53.78125 63.8125 
Q 48.140625 66.109375 41.796875 66.109375 
Q 29.296875 66.109375 22.65625 58.46875 
Q 16.015625 50.828125 16.015625 36.375 
Q 16.015625 21.96875 22.65625 14.328125 
Q 29.296875 6.6875 41.796875 6.6875 
Q 48.140625 6.6875 53.78125 8.984375 
Q 59.421875 11.28125 64.40625 15.921875 
L 64.40625 5.609375 
Q 59.234375 2.09375 53.4375 0.328125 
Q 47.65625 -1.421875 41.21875 -1.421875 
Q 24.65625 -1.421875 15.125 8.703125 
Q 5.609375 18.84375 5.609375 36.375 
Q 5.609375 53.953125 15.125 64.078125 
Q 24.65625 74.21875 41.21875 74.21875 
Q 47.75 74.21875 53.53125 72.484375 
Q 59.328125 70.75 64.40625 67.28125 
z
" id="DejaVuSans-43"/>
      <path d="M 41.109375 46.296875 
Q 39.59375 47.171875 37.8125 47.578125 
Q 36.03125 48 33.890625 48 
Q 26.265625 48 22.1875 43.046875 
Q 18.109375 38.09375 18.109375 28.8125 
L 18.109375 0 
L 9.078125 0 
L 9.078125 54.6875 
L 18.109375 54.6875 
L 18.109375 46.1875 
Q 20.953125 51.171875 25.484375 53.578125 
Q 30.03125 56 36.53125 56 
Q 37.453125 56 38.578125 55.875 
Q 39.703125 55.765625 41.0625 55.515625 
z
" id="DejaVuSans-72"/>
      <path d="M 56.203125 29.59375 
L 56.203125 25.203125 
L 14.890625 25.203125 
Q 15.484375 15.921875 20.484375 11.0625 
Q 25.484375 6.203125 34.421875 6.203125 
Q 39.59375 6.203125 44.453125 7.46875 
Q 49.3125 8.734375 54.109375 11.28125 
L 54.109375 2.78125 
Q 49.265625 0.734375 44.1875 -0.34375 
Q 39.109375 -1.421875 33.890625 -1.421875 
Q 20.796875 -1.421875 13.15625 6.1875 
Q 5.515625 13.8125 5.515625 26.8125 
Q 5.515625 40.234375 12.765625 48.109375 
Q 20.015625 56 32.328125 56 
Q 43.359375 56 49.78125 48.890625 
Q 56.203125 41.796875 56.203125 29.59375 
z
M 47.21875 32.234375 
Q 47.125 39.59375 43.09375 43.984375 
Q 39.0625 48.390625 32.421875 48.390625 
Q 24.90625 48.390625 20.390625 44.140625 
Q 15.875 39.890625 15.1875 32.171875 
z
" id="DejaVuSans-65"/>
      <path d="M 45.40625 46.390625 
L 45.40625 75.984375 
L 54.390625 75.984375 
L 54.390625 0 
L 45.40625 0 
L 45.40625 8.203125 
Q 42.578125 3.328125 38.25 0.953125 
Q 33.9375 -1.421875 27.875 -1.421875 
Q 17.96875 -1.421875 11.734375 6.484375 
Q 5.515625 14.40625 5.515625 27.296875 
Q 5.515625 40.1875 11.734375 48.09375 
Q 17.96875 56 27.875 56 
Q 33.9375 56 38.25 53.625 
Q 42.578125 51.265625 45.40625 46.390625 
z
M 14.796875 27.296875 
Q 14.796875 17.390625 18.875 11.75 
Q 22.953125 6.109375 30.078125 6.109375 
Q 37.203125 6.109375 41.296875 11.75 
Q 45.40625 17.390625 45.40625 27.296875 
Q 45.40625 37.203125 41.296875 42.84375 
Q 37.203125 48.484375 30.078125 48.484375 
Q 22.953125 48.484375 18.875 42.84375 
Q 14.796875 37.203125 14.796875 27.296875 
z
" id="DejaVuSans-64"/>
      <path d="M 9.421875 54.6875 
L 18.40625 54.6875 
L 18.40625 0 
L 9.421875 0 
z
M 9.421875 75.984375 
L 18.40625 75.984375 
L 18.40625 64.59375 
L 9.421875 64.59375 
z
" id="DejaVuSans-69"/>
      <path d="M 18.3125 70.21875 
L 18.3125 54.6875 
L 36.8125 54.6875 
L 36.8125 47.703125 
L 18.3125 47.703125 
L 18.3125 18.015625 
Q 18.3125 11.328125 20.140625 9.421875 
Q 21.96875 7.515625 27.59375 7.515625 
L 36.8125 7.515625 
L 36.8125 0 
L 27.59375 0 
Q 17.1875 0 13.234375 3.875 
Q 9.28125 7.765625 9.28125 18.015625 
L 9.28125 47.703125 
L 2.6875 47.703125 
L 2.6875 54.6875 
L 9.28125 54.6875 
L 9.28125 70.21875 
z
" id="DejaVuSans-74"/>
     </defs>
     <g style="fill:#262626;" transform="translate(172.640584 416.333125)scale(0.088 -0.088)">
      <use xlink:href="#DejaVuSans-53"/>
      <use x="63.476562" xlink:href="#DejaVuSans-75"/>
      <use x="126.855469" xlink:href="#DejaVuSans-6d"/>
      <use x="224.267578" xlink:href="#DejaVuSans-5f"/>
      <use x="274.267578" xlink:href="#DejaVuSans-43"/>
      <use x="344.091797" xlink:href="#DejaVuSans-72"/>
      <use x="385.173828" xlink:href="#DejaVuSans-65"/>
      <use x="446.697266" xlink:href="#DejaVuSans-64"/>
      <use x="510.173828" xlink:href="#DejaVuSans-69"/>
      <use x="537.957031" xlink:href="#DejaVuSans-74"/>
     </g>
    </g>
   </g>
   <g id="matplotlib.axis_2">
    <g id="ytick_1">
     <g id="line2d_7"/>
     <g id="text_8">
      <!-- −100 -->
      <defs>
       <path d="M 10.59375 35.5 
L 73.1875 35.5 
L 73.1875 27.203125 
L 10.59375 27.203125 
z
" id="DejaVuSans-2212"/>
      </defs>
      <g style="fill:#262626;" transform="translate(19.9615 383.374764)scale(0.08 -0.08)">
       <use xlink:href="#DejaVuSans-2212"/>
       <use x="83.789062" xlink:href="#DejaVuSans-31"/>
       <use x="147.412109" xlink:href="#DejaVuSans-30"/>
       <use x="211.035156" xlink:href="#DejaVuSans-30"/>
      </g>
     </g>
    </g>
    <g id="ytick_2">
     <g id="line2d_8"/>
     <g id="text_9">
      <!-- 0 -->
      <g style="fill:#262626;" transform="translate(36.84525 343.167638)scale(0.08 -0.08)">
       <use xlink:href="#DejaVuSans-30"/>
      </g>
     </g>
    </g>
    <g id="ytick_3">
     <g id="line2d_9"/>
     <g id="text_10">
      <!-- 100 -->
      <g style="fill:#262626;" transform="translate(26.66525 302.960512)scale(0.08 -0.08)">
       <use xlink:href="#DejaVuSans-31"/>
       <use x="63.623047" xlink:href="#DejaVuSans-30"/>
       <use x="127.246094" xlink:href="#DejaVuSans-30"/>
      </g>
     </g>
    </g>
    <g id="ytick_4">
     <g id="line2d_10"/>
     <g id="text_11">
      <!-- 200 -->
      <g style="fill:#262626;" transform="translate(26.66525 262.753386)scale(0.08 -0.08)">
       <use xlink:href="#DejaVuSans-32"/>
       <use x="63.623047" xlink:href="#DejaVuSans-30"/>
       <use x="127.246094" xlink:href="#DejaVuSans-30"/>
      </g>
     </g>
    </g>
    <g id="ytick_5">
     <g id="line2d_11"/>
     <g id="text_12">
      <!-- 300 -->
      <defs>
       <path d="M 40.578125 39.3125 
Q 47.65625 37.796875 51.625 33 
Q 55.609375 28.21875 55.609375 21.1875 
Q 55.609375 10.40625 48.1875 4.484375 
Q 40.765625 -1.421875 27.09375 -1.421875 
Q 22.515625 -1.421875 17.65625 -0.515625 
Q 12.796875 0.390625 7.625 2.203125 
L 7.625 11.71875 
Q 11.71875 9.328125 16.59375 8.109375 
Q 21.484375 6.890625 26.8125 6.890625 
Q 36.078125 6.890625 40.9375 10.546875 
Q 45.796875 14.203125 45.796875 21.1875 
Q 45.796875 27.640625 41.28125 31.265625 
Q 36.765625 34.90625 28.71875 34.90625 
L 20.21875 34.90625 
L 20.21875 43.015625 
L 29.109375 43.015625 
Q 36.375 43.015625 40.234375 45.921875 
Q 44.09375 48.828125 44.09375 54.296875 
Q 44.09375 59.90625 40.109375 62.90625 
Q 36.140625 65.921875 28.71875 65.921875 
Q 24.65625 65.921875 20.015625 65.03125 
Q 15.375 64.15625 9.8125 62.3125 
L 9.8125 71.09375 
Q 15.4375 72.65625 20.34375 73.4375 
Q 25.25 74.21875 29.59375 74.21875 
Q 40.828125 74.21875 47.359375 69.109375 
Q 53.90625 64.015625 53.90625 55.328125 
Q 53.90625 49.265625 50.4375 45.09375 
Q 46.96875 40.921875 40.578125 39.3125 
z
" id="DejaVuSans-33"/>
      </defs>
      <g style="fill:#262626;" transform="translate(26.66525 222.54626)scale(0.08 -0.08)">
       <use xlink:href="#DejaVuSans-33"/>
       <use x="63.623047" xlink:href="#DejaVuSans-30"/>
       <use x="127.246094" xlink:href="#DejaVuSans-30"/>
      </g>
     </g>
    </g>
    <g id="ytick_6">
     <g id="line2d_12"/>
     <g id="text_13">
      <!-- 400 -->
      <g style="fill:#262626;" transform="translate(26.66525 182.339135)scale(0.08 -0.08)">
       <use xlink:href="#DejaVuSans-34"/>
       <use x="63.623047" xlink:href="#DejaVuSans-30"/>
       <use x="127.246094" xlink:href="#DejaVuSans-30"/>
      </g>
     </g>
    </g>
    <g id="ytick_7">
     <g id="line2d_13"/>
     <g id="text_14">
      <!-- 500 -->
      <defs>
       <path d="M 10.796875 72.90625 
L 49.515625 72.90625 
L 49.515625 64.59375 
L 19.828125 64.59375 
L 19.828125 46.734375 
Q 21.96875 47.46875 24.109375 47.828125 
Q 26.265625 48.1875 28.421875 48.1875 
Q 40.625 48.1875 47.75 41.5 
Q 54.890625 34.8125 54.890625 23.390625 
Q 54.890625 11.625 47.5625 5.09375 
Q 40.234375 -1.421875 26.90625 -1.421875 
Q 22.3125 -1.421875 17.546875 -0.640625 
Q 12.796875 0.140625 7.71875 1.703125 
L 7.71875 11.625 
Q 12.109375 9.234375 16.796875 8.0625 
Q 21.484375 6.890625 26.703125 6.890625 
Q 35.15625 6.890625 40.078125 11.328125 
Q 45.015625 15.765625 45.015625 23.390625 
Q 45.015625 31 40.078125 35.4375 
Q 35.15625 39.890625 26.703125 39.890625 
Q 22.75 39.890625 18.8125 39.015625 
Q 14.890625 38.140625 10.796875 36.28125 
z
" id="DejaVuSans-35"/>
      </defs>
      <g style="fill:#262626;" transform="translate(26.66525 142.132009)scale(0.08 -0.08)">
       <use xlink:href="#DejaVuSans-35"/>
       <use x="63.623047" xlink:href="#DejaVuSans-30"/>
       <use x="127.246094" xlink:href="#DejaVuSans-30"/>
      </g>
     </g>
    </g>
    <g id="ytick_8">
     <g id="line2d_14"/>
     <g id="text_15">
      <!-- 600 -->
      <g style="fill:#262626;" transform="translate(26.66525 101.924883)scale(0.08 -0.08)">
       <use xlink:href="#DejaVuSans-36"/>
       <use x="63.623047" xlink:href="#DejaVuSans-30"/>
       <use x="127.246094" xlink:href="#DejaVuSans-30"/>
      </g>
     </g>
    </g>
    <g id="text_16">
     <!-- Sum_Debit -->
     <defs>
      <path d="M 19.671875 64.796875 
L 19.671875 8.109375 
L 31.59375 8.109375 
Q 46.6875 8.109375 53.6875 14.9375 
Q 60.6875 21.78125 60.6875 36.53125 
Q 60.6875 51.171875 53.6875 57.984375 
Q 46.6875 64.796875 31.59375 64.796875 
z
M 9.8125 72.90625 
L 30.078125 72.90625 
Q 51.265625 72.90625 61.171875 64.09375 
Q 71.09375 55.28125 71.09375 36.53125 
Q 71.09375 17.671875 61.125 8.828125 
Q 51.171875 0 30.078125 0 
L 9.8125 0 
z
" id="DejaVuSans-44"/>
      <path d="M 48.6875 27.296875 
Q 48.6875 37.203125 44.609375 42.84375 
Q 40.53125 48.484375 33.40625 48.484375 
Q 26.265625 48.484375 22.1875 42.84375 
Q 18.109375 37.203125 18.109375 27.296875 
Q 18.109375 17.390625 22.1875 11.75 
Q 26.265625 6.109375 33.40625 6.109375 
Q 40.53125 6.109375 44.609375 11.75 
Q 48.6875 17.390625 48.6875 27.296875 
z
M 18.109375 46.390625 
Q 20.953125 51.265625 25.265625 53.625 
Q 29.59375 56 35.59375 56 
Q 45.5625 56 51.78125 48.09375 
Q 58.015625 40.1875 58.015625 27.296875 
Q 58.015625 14.40625 51.78125 6.484375 
Q 45.5625 -1.421875 35.59375 -1.421875 
Q 29.59375 -1.421875 25.265625 0.953125 
Q 20.953125 3.328125 18.109375 8.203125 
L 18.109375 0 
L 9.078125 0 
L 9.078125 75.984375 
L 18.109375 75.984375 
z
" id="DejaVuSans-62"/>
     </defs>
     <g style="fill:#262626;" transform="translate(13.886625 263.494032)rotate(-90)scale(0.088 -0.088)">
      <use xlink:href="#DejaVuSans-53"/>
      <use x="63.476562" xlink:href="#DejaVuSans-75"/>
      <use x="126.855469" xlink:href="#DejaVuSans-6d"/>
      <use x="224.267578" xlink:href="#DejaVuSans-5f"/>
      <use x="274.267578" xlink:href="#DejaVuSans-44"/>
      <use x="351.269531" xlink:href="#DejaVuSans-65"/>
      <use x="412.792969" xlink:href="#DejaVuSans-62"/>
      <use x="476.269531" xlink:href="#DejaVuSans-69"/>
      <use x="504.052734" xlink:href="#DejaVuSans-74"/>
     </g>
    </g>
   </g>
   <g id="PathCollection_1">
    <path clip-path="url(#pf49502077d)" d="M 50.575672 392.304 
L 53.616094 392.304 
L 56.656516 392.304 
L 59.696939 392.304 
L 62.737361 392.304 
L 65.777783 392.304 
L 68.818205 392.304 
L 71.858627 392.304 
L 74.899049 392.304 
L 77.939472 392.304 
L 80.979894 392.304 
L 84.020316 392.304 
L 87.060738 392.304 
L 90.10116 392.304 
L 93.141582 392.304 
L 96.182004 392.304 
L 99.222427 392.304 
L 102.262849 392.304 
L 105.303271 392.304 
L 108.343693 392.304 
L 111.384115 392.304 
L 114.424537 392.304 
L 117.46496 392.304 
L 120.505382 392.304 
L 123.545804 392.304 
L 126.586226 392.304 
L 129.626648 392.304 
L 132.66707 392.304 
L 135.707492 392.304 
L 138.747915 392.304 
L 141.788337 392.304 
L 144.828759 392.304 
L 147.869181 392.304 
L 150.909603 392.304 
L 153.950025 392.304 
L 156.990447 392.304 
L 160.03087 392.304 
L 163.071292 392.304 
L 166.111714 392.304 
L 169.152136 392.304 
L 172.192558 392.304 
L 175.23298 392.304 
L 178.273403 392.304 
L 181.313825 392.304 
L 184.354247 392.304 
L 187.394669 392.304 
L 190.435091 392.304 
L 193.475513 392.304 
L 196.515935 392.304 
L 199.556358 392.304 
L 202.59678 392.304 
L 205.637202 392.304 
L 208.677624 392.304 
L 211.718046 392.304 
L 214.758468 392.304 
L 217.798891 392.304 
L 220.839313 392.304 
L 223.879735 392.304 
L 226.920157 392.304 
L 229.960579 392.304 
L 233.001001 392.304 
L 236.041423 392.304 
L 239.081846 392.304 
L 242.122268 392.304 
L 245.16269 392.304 
L 248.203112 392.304 
L 251.243534 392.304 
L 254.283956 392.304 
L 257.324379 392.304 
L 260.364801 392.304 
L 263.405223 392.304 
L 266.445645 392.304 
L 269.486067 392.304 
L 272.526489 392.304 
L 275.566911 392.304 
L 278.607334 392.304 
L 281.647756 392.304 
L 284.688178 392.304 
L 287.7286 392.304 
L 290.769022 392.304 
L 293.809444 392.304 
L 296.849867 392.304 
L 299.890289 392.304 
L 302.930711 392.304 
L 305.971133 392.304 
L 309.011555 392.304 
L 312.051977 392.304 
L 315.092399 392.304 
L 318.132822 392.304 
L 321.173244 392.304 
L 324.213666 392.304 
L 327.254088 392.304 
L 330.29451 392.304 
L 333.334932 392.304 
L 336.375354 392.304 
L 339.415777 392.304 
L 342.456199 392.304 
L 345.496621 392.304 
L 348.537043 392.304 
L 348.537043 389.218876 
L 348.537043 386.133751 
L 348.537043 383.048627 
L 348.537043 379.963503 
L 348.537043 376.878378 
L 348.537043 373.793254 
L 348.537043 370.70813 
L 348.537043 367.623005 
L 348.537043 364.537881 
L 348.537043 361.452757 
L 348.537043 358.367632 
L 348.537043 355.282508 
L 348.537043 352.197383 
L 348.537043 349.112259 
L 348.537043 346.027135 
L 348.537043 342.94201 
L 348.537043 339.856886 
L 348.537043 336.771762 
L 348.537043 333.686637 
L 348.537043 330.601513 
L 348.537043 327.516389 
L 348.537043 324.431264 
L 348.537043 321.34614 
L 348.537043 318.261016 
L 348.537043 315.175891 
L 348.537043 312.090767 
L 348.537043 309.005643 
L 348.537043 305.920518 
L 348.537043 302.835394 
L 348.537043 299.75027 
L 348.537043 296.665145 
L 348.537043 293.580021 
L 348.537043 290.494897 
L 348.537043 287.409772 
L 348.537043 284.324648 
L 348.537043 281.239524 
L 348.537043 278.154399 
L 348.537043 275.069275 
L 348.537043 271.98415 
L 348.537043 268.899026 
L 348.537043 265.813902 
L 348.537043 262.728777 
L 348.537043 259.643653 
L 348.537043 256.558529 
L 348.537043 253.473404 
L 348.537043 250.38828 
L 348.537043 247.303156 
L 348.537043 244.218031 
L 348.537043 241.132907 
L 348.537043 238.047783 
L 348.537043 234.962658 
L 348.537043 231.877534 
L 348.537043 228.79241 
L 348.537043 225.707285 
L 348.537043 222.622161 
L 348.537043 219.537037 
L 348.537043 216.451912 
L 348.537043 213.366788 
L 348.537043 210.281664 
L 348.537043 207.196539 
L 348.537043 204.111415 
L 348.537043 201.02629 
L 348.537043 197.941166 
L 348.537043 194.856042 
L 348.537043 191.770917 
L 348.537043 188.685793 
L 348.537043 185.600669 
L 348.537043 182.515544 
L 348.537043 179.43042 
L 348.537043 176.345296 
L 348.537043 173.260171 
L 348.537043 170.175047 
L 348.537043 167.089923 
L 348.537043 164.004798 
L 348.537043 160.919674 
L 348.537043 157.83455 
L 348.537043 154.749425 
L 348.537043 151.664301 
L 348.537043 148.579177 
L 348.537043 145.494052 
L 348.537043 142.408928 
L 348.537043 139.323804 
L 348.537043 136.238679 
L 348.537043 133.153555 
L 348.537043 130.068431 
L 348.537043 126.983306 
L 348.537043 123.898182 
L 348.537043 120.813057 
L 348.537043 117.727933 
L 348.537043 114.642809 
L 348.537043 111.557684 
L 348.537043 108.47256 
L 348.537043 105.387436 
L 348.537043 102.302311 
L 348.537043 99.217187 
L 348.537043 96.132063 
L 348.537043 93.046938 
L 348.537043 89.961814 
L 348.537043 86.87669 
L 345.496621 86.87669 
L 342.456199 86.87669 
L 339.415777 86.87669 
L 336.375354 86.87669 
L 333.334932 86.87669 
L 330.29451 86.87669 
L 327.254088 86.87669 
L 324.213666 86.87669 
L 321.173244 86.87669 
L 318.132822 86.87669 
L 315.092399 86.87669 
L 312.051977 86.87669 
L 309.011555 86.87669 
L 305.971133 86.87669 
L 302.930711 86.87669 
L 299.890289 86.87669 
L 296.849867 86.87669 
L 293.809444 86.87669 
L 290.769022 86.87669 
L 287.7286 86.87669 
L 284.688178 86.87669 
L 281.647756 86.87669 
L 278.607334 86.87669 
L 275.566911 86.87669 
L 272.526489 86.87669 
L 269.486067 86.87669 
L 266.445645 86.87669 
L 263.405223 86.87669 
L 260.364801 86.87669 
L 257.324379 86.87669 
L 254.283956 86.87669 
L 251.243534 86.87669 
L 248.203112 86.87669 
L 245.16269 86.87669 
L 242.122268 86.87669 
L 239.081846 86.87669 
L 236.041423 86.87669 
L 233.001001 86.87669 
L 229.960579 86.87669 
L 226.920157 86.87669 
L 223.879735 86.87669 
L 220.839313 86.87669 
L 217.798891 86.87669 
L 214.758468 86.87669 
L 211.718046 86.87669 
L 208.677624 86.87669 
L 205.637202 86.87669 
L 202.59678 86.87669 
L 199.556358 86.87669 
L 196.515935 86.87669 
L 193.475513 86.87669 
L 190.435091 86.87669 
L 187.394669 86.87669 
L 184.354247 86.87669 
L 181.313825 86.87669 
L 178.273403 86.87669 
L 175.23298 86.87669 
L 172.192558 86.87669 
L 169.152136 86.87669 
L 166.111714 86.87669 
L 163.071292 86.87669 
L 160.03087 86.87669 
L 156.990447 86.87669 
L 153.950025 86.87669 
L 150.909603 86.87669 
L 147.869181 86.87669 
L 144.828759 86.87669 
L 141.788337 86.87669 
L 138.747915 86.87669 
L 135.707492 86.87669 
L 132.66707 86.87669 
L 129.626648 86.87669 
L 126.586226 86.87669 
L 123.545804 86.87669 
L 120.505382 86.87669 
L 117.46496 86.87669 
L 114.424537 86.87669 
L 111.384115 86.87669 
L 108.343693 86.87669 
L 105.303271 86.87669 
L 102.262849 86.87669 
L 99.222427 86.87669 
L 96.182004 86.87669 
L 93.141582 86.87669 
L 90.10116 86.87669 
L 87.060738 86.87669 
L 84.020316 86.87669 
L 80.979894 86.87669 
L 77.939472 86.87669 
L 74.899049 86.87669 
L 71.858627 86.87669 
L 68.818205 86.87669 
L 65.777783 86.87669 
L 62.737361 86.87669 
L 59.696939 86.87669 
L 56.656516 86.87669 
L 53.616094 86.87669 
L 50.575672 86.87669 
L 47.53525 86.87669 
L 47.53525 89.961814 
L 47.53525 93.046938 
L 47.53525 96.132063 
L 47.53525 99.217187 
L 47.53525 102.302311 
L 47.53525 105.387436 
L 47.53525 108.47256 
L 47.53525 111.557684 
L 47.53525 114.642809 
L 47.53525 117.727933 
L 47.53525 120.813057 
L 47.53525 123.898182 
L 47.53525 126.983306 
L 47.53525 130.068431 
L 47.53525 133.153555 
L 47.53525 136.238679 
L 47.53525 139.323804 
L 47.53525 142.408928 
L 47.53525 145.494052 
L 47.53525 148.579177 
L 47.53525 151.664301 
L 47.53525 154.749425 
L 47.53525 157.83455 
L 47.53525 160.919674 
L 47.53525 164.004798 
L 47.53525 167.089923 
L 47.53525 170.175047 
L 47.53525 173.260171 
L 47.53525 176.345296 
L 47.53525 179.43042 
L 47.53525 182.515544 
L 47.53525 185.600669 
L 47.53525 188.685793 
L 47.53525 191.770917 
L 47.53525 194.856042 
L 47.53525 197.941166 
L 47.53525 201.02629 
L 47.53525 204.111415 
L 47.53525 207.196539 
L 47.53525 210.281664 
L 47.53525 213.366788 
L 47.53525 216.451912 
L 47.53525 219.537037 
L 47.53525 222.622161 
L 47.53525 225.707285 
L 47.53525 228.79241 
L 47.53525 231.877534 
L 47.53525 234.962658 
L 47.53525 238.047783 
L 47.53525 241.132907 
L 47.53525 244.218031 
L 47.53525 247.303156 
L 47.53525 250.38828 
L 47.53525 253.473404 
L 47.53525 256.558529 
L 47.53525 259.643653 
L 47.53525 262.728777 
L 47.53525 265.813902 
L 47.53525 268.899026 
L 47.53525 271.98415 
L 47.53525 275.069275 
L 47.53525 278.154399 
L 47.53525 281.239524 
L 47.53525 284.324648 
L 47.53525 287.409772 
L 47.53525 290.494897 
L 47.53525 293.580021 
L 47.53525 296.665145 
L 47.53525 299.75027 
L 47.53525 302.835394 
L 47.53525 305.920518 
L 47.53525 309.005643 
L 47.53525 312.090767 
L 47.53525 315.175891 
L 47.53525 318.261016 
L 47.53525 321.34614 
L 47.53525 324.431264 
L 47.53525 327.516389 
L 47.53525 330.601513 
L 47.53525 333.686637 
L 47.53525 336.771762 
L 47.53525 339.856886 
L 47.53525 342.94201 
L 47.53525 346.027135 
L 47.53525 349.112259 
L 47.53525 352.197383 
L 47.53525 355.282508 
L 47.53525 358.367632 
L 47.53525 361.452757 
L 47.53525 364.537881 
L 47.53525 367.623005 
L 47.53525 370.70813 
L 47.53525 373.793254 
L 47.53525 376.878378 
L 47.53525 379.963503 
L 47.53525 383.048627 
L 47.53525 386.133751 
L 47.53525 389.218876 
L 47.53525 392.304 
z
M 76.989208 367.623005 
L 74.899049 366.52624 
L 72.354565 364.537881 
L 71.858627 364.087194 
L 69.562562 361.452757 
L 68.818205 360.316587 
L 67.65471 358.367632 
L 66.355301 355.282508 
L 65.777783 353.228118 
L 65.463843 352.197383 
L 64.822491 349.112259 
L 64.467078 346.027135 
L 64.337284 342.94201 
L 64.397603 339.856886 
L 64.630691 336.771762 
L 65.033629 333.686637 
L 65.616186 330.601513 
L 65.777783 329.928459 
L 66.226185 327.516389 
L 66.949162 324.431264 
L 67.860445 321.34614 
L 68.818205 318.711906 
L 68.953038 318.261016 
L 69.985134 315.175891 
L 71.255256 312.090767 
L 71.858627 310.785435 
L 72.572761 309.005643 
L 73.98756 305.920518 
L 74.899049 304.153124 
L 75.514737 302.835394 
L 77.088454 299.75027 
L 77.939472 298.213968 
L 78.747013 296.665145 
L 80.486512 293.580021 
L 80.979894 292.726733 
L 82.236544 290.494897 
L 84.020316 287.591191 
L 84.132926 287.409772 
L 86.006024 284.324648 
L 87.060738 282.680322 
L 88.025391 281.239524 
L 90.10116 278.270695 
L 90.189507 278.154399 
L 92.500885 275.069275 
L 93.141582 274.239445 
L 95.102994 271.98415 
L 96.182004 270.763332 
L 98.124758 268.899026 
L 99.222427 267.840946 
L 101.826834 265.813902 
L 102.262849 265.465522 
L 105.303271 263.549305 
L 107.116071 262.728777 
L 108.343693 262.130611 
L 111.384115 261.113639 
L 114.424537 260.496337 
L 117.46496 260.179671 
L 120.505382 260.063556 
L 123.545804 260.053295 
L 126.586226 260.072672 
L 129.626648 260.077293 
L 132.66707 260.064749 
L 135.707492 260.085402 
L 138.747915 260.267691 
L 141.788337 260.893846 
L 144.828759 262.646485 
L 144.909281 262.728777 
L 146.705867 265.813902 
L 147.420382 268.899026 
L 147.683949 271.98415 
L 147.767552 275.069275 
L 147.813222 278.154399 
L 147.869181 279.80251 
L 147.9218 281.239524 
L 148.210668 284.324648 
L 148.793136 287.409772 
L 149.821434 290.494897 
L 150.909603 292.544135 
L 151.752641 293.580021 
L 153.950025 295.424438 
L 156.589241 296.665145 
L 156.990447 296.813597 
L 160.03087 297.423318 
L 163.071292 297.746702 
L 166.111714 297.974683 
L 169.152136 298.271256 
L 172.192558 298.795658 
L 175.23298 299.716554 
L 175.307849 299.75027 
L 178.273403 301.129925 
L 180.699317 302.835394 
L 181.313825 303.309811 
L 183.840577 305.920518 
L 184.354247 306.55403 
L 185.976356 309.005643 
L 187.394669 311.901989 
L 187.476524 312.090767 
L 188.451975 315.175891 
L 188.980123 318.261016 
L 189.092505 321.34614 
L 188.808436 324.431264 
L 188.130303 327.516389 
L 187.394669 329.602989 
L 187.06174 330.601513 
L 185.632327 333.686637 
L 184.354247 335.800701 
L 183.766941 336.771762 
L 181.454063 339.856886 
L 181.313825 340.017583 
L 178.597073 342.94201 
L 178.273403 343.249376 
L 175.23298 345.850122 
L 174.99671 346.027135 
L 172.192558 347.976508 
L 170.212439 349.112259 
L 169.152136 349.703107 
L 166.111714 351.096175 
L 163.071292 352.182595 
L 163.019716 352.197383 
L 160.03087 353.076904 
L 156.990447 353.770156 
L 153.950025 354.327301 
L 150.909603 354.81069 
L 147.869181 355.275906 
L 147.830088 355.282508 
L 144.828759 355.821223 
L 141.788337 356.426768 
L 138.747915 357.099632 
L 135.707492 357.830746 
L 133.637597 358.367632 
L 132.66707 358.64055 
L 129.626648 359.5629 
L 126.586226 360.482471 
L 123.545804 361.378032 
L 123.304023 361.452757 
L 120.505382 362.411229 
L 117.46496 363.402686 
L 114.424537 364.322636 
L 113.70677 364.537881 
L 111.384115 365.337695 
L 108.343693 366.302044 
L 105.303271 367.146984 
L 103.359663 367.623005 
L 102.262849 367.947698 
L 99.222427 368.730269 
L 96.182004 369.337335 
L 93.141582 369.764388 
L 90.10116 369.999547 
L 87.060738 370.017278 
L 84.020316 369.770398 
L 80.979894 369.178384 
L 77.939472 368.108663 
z
" style="fill:#eef5fc;"/>
   </g>
   <g id="PathCollection_2">
    <path clip-path="url(#pf49502077d)" d="M 77.939472 368.108663 
L 80.979894 369.178384 
L 84.020316 369.770398 
L 87.060738 370.017278 
L 90.10116 369.999547 
L 93.141582 369.764388 
L 96.182004 369.337335 
L 99.222427 368.730269 
L 102.262849 367.947698 
L 103.359663 367.623005 
L 105.303271 367.146984 
L 108.343693 366.302044 
L 111.384115 365.337695 
L 113.70677 364.537881 
L 114.424537 364.322636 
L 117.46496 363.402686 
L 120.505382 362.411229 
L 123.304023 361.452757 
L 123.545804 361.378032 
L 126.586226 360.482471 
L 129.626648 359.5629 
L 132.66707 358.64055 
L 133.637597 358.367632 
L 135.707492 357.830746 
L 138.747915 357.099632 
L 141.788337 356.426768 
L 144.828759 355.821223 
L 147.830088 355.282508 
L 147.869181 355.275906 
L 150.909603 354.81069 
L 153.950025 354.327301 
L 156.990447 353.770156 
L 160.03087 353.076904 
L 163.019716 352.197383 
L 163.071292 352.182595 
L 166.111714 351.096175 
L 169.152136 349.703107 
L 170.212439 349.112259 
L 172.192558 347.976508 
L 174.99671 346.027135 
L 175.23298 345.850122 
L 178.273403 343.249376 
L 178.597073 342.94201 
L 181.313825 340.017583 
L 181.454063 339.856886 
L 183.766941 336.771762 
L 184.354247 335.800701 
L 185.632327 333.686637 
L 187.06174 330.601513 
L 187.394669 329.602989 
L 188.130303 327.516389 
L 188.808436 324.431264 
L 189.092505 321.34614 
L 188.980123 318.261016 
L 188.451975 315.175891 
L 187.476524 312.090767 
L 187.394669 311.901989 
L 185.976356 309.005643 
L 184.354247 306.55403 
L 183.840577 305.920518 
L 181.313825 303.309811 
L 180.699317 302.835394 
L 178.273403 301.129925 
L 175.307849 299.75027 
L 175.23298 299.716554 
L 172.192558 298.795658 
L 169.152136 298.271256 
L 166.111714 297.974683 
L 163.071292 297.746702 
L 160.03087 297.423318 
L 156.990447 296.813597 
L 156.589241 296.665145 
L 153.950025 295.424438 
L 151.752641 293.580021 
L 150.909603 292.544135 
L 149.821434 290.494897 
L 148.793136 287.409772 
L 148.210668 284.324648 
L 147.9218 281.239524 
L 147.869181 279.80251 
L 147.813222 278.154399 
L 147.767552 275.069275 
L 147.683949 271.98415 
L 147.420382 268.899026 
L 146.705867 265.813902 
L 144.909281 262.728777 
L 144.828759 262.646485 
L 141.788337 260.893846 
L 138.747915 260.267691 
L 135.707492 260.085402 
L 132.66707 260.064749 
L 129.626648 260.077293 
L 126.586226 260.072672 
L 123.545804 260.053295 
L 120.505382 260.063556 
L 117.46496 260.179671 
L 114.424537 260.496337 
L 111.384115 261.113639 
L 108.343693 262.130611 
L 107.116071 262.728777 
L 105.303271 263.549305 
L 102.262849 265.465522 
L 101.826834 265.813902 
L 99.222427 267.840946 
L 98.124758 268.899026 
L 96.182004 270.763332 
L 95.102994 271.98415 
L 93.141582 274.239445 
L 92.500885 275.069275 
L 90.189507 278.154399 
L 90.10116 278.270695 
L 88.025391 281.239524 
L 87.060738 282.680322 
L 86.006024 284.324648 
L 84.132926 287.409772 
L 84.020316 287.591191 
L 82.236544 290.494897 
L 80.979894 292.726733 
L 80.486512 293.580021 
L 78.747013 296.665145 
L 77.939472 298.213968 
L 77.088454 299.75027 
L 75.514737 302.835394 
L 74.899049 304.153124 
L 73.98756 305.920518 
L 72.572761 309.005643 
L 71.858627 310.785435 
L 71.255256 312.090767 
L 69.985134 315.175891 
L 68.953038 318.261016 
L 68.818205 318.711906 
L 67.860445 321.34614 
L 66.949162 324.431264 
L 66.226185 327.516389 
L 65.777783 329.928459 
L 65.616186 330.601513 
L 65.033629 333.686637 
L 64.630691 336.771762 
L 64.397603 339.856886 
L 64.337284 342.94201 
L 64.467078 346.027135 
L 64.822491 349.112259 
L 65.463843 352.197383 
L 65.777783 353.228118 
L 66.355301 355.282508 
L 67.65471 358.367632 
L 68.818205 360.316587 
L 69.562562 361.452757 
L 71.858627 364.087194 
L 72.354565 364.537881 
L 74.899049 366.52624 
L 76.989208 367.623005 
z
M 81.40821 361.452757 
L 80.979894 361.277514 
L 77.939472 359.371252 
L 76.817913 358.367632 
L 74.899049 356.208246 
L 74.229913 355.282508 
L 72.567254 352.197383 
L 71.858627 350.195491 
L 71.481095 349.112259 
L 70.763476 346.027135 
L 70.381924 342.94201 
L 70.263043 339.856886 
L 70.363695 336.771762 
L 70.662546 333.686637 
L 71.155273 330.601513 
L 71.852215 327.516389 
L 71.858627 327.493466 
L 72.576682 324.431264 
L 73.490128 321.34614 
L 74.631026 318.261016 
L 74.899049 317.621282 
L 75.810329 315.175891 
L 77.181748 312.090767 
L 77.939472 310.589535 
L 78.685689 309.005643 
L 80.33003 305.920518 
L 80.979894 304.801523 
L 82.094819 302.835394 
L 84.020316 299.817612 
L 84.064027 299.75027 
L 86.091509 296.665145 
L 87.060738 295.283643 
L 88.327781 293.580021 
L 90.10116 291.278261 
L 90.768431 290.494897 
L 93.141582 287.720436 
L 93.448763 287.409772 
L 96.182004 284.578128 
L 96.478949 284.324648 
L 99.222427 281.864138 
L 100.115465 281.239524 
L 102.262849 279.625782 
L 104.941479 278.154399 
L 105.303271 277.936644 
L 108.343693 276.609167 
L 111.384115 275.781965 
L 114.424537 275.355089 
L 117.46496 275.267738 
L 120.505382 275.501872 
L 123.545804 276.095304 
L 126.586226 277.171035 
L 128.351774 278.154399 
L 129.626648 278.958701 
L 132.009801 281.239524 
L 132.66707 282.042709 
L 134.104814 284.324648 
L 135.518608 287.409772 
L 135.707492 287.906285 
L 136.637054 290.494897 
L 137.6122 293.580021 
L 138.545548 296.665145 
L 138.747915 297.286581 
L 139.70063 299.75027 
L 141.07966 302.835394 
L 141.788337 304.207339 
L 142.993014 305.920518 
L 144.828759 308.203538 
L 145.758679 309.005643 
L 147.869181 310.733195 
L 150.217177 312.090767 
L 150.909603 312.512448 
L 153.950025 313.93725 
L 156.9856 315.175891 
L 156.990447 315.178265 
L 160.03087 316.584359 
L 163.071292 318.142817 
L 163.275095 318.261016 
L 166.111714 320.549334 
L 166.906751 321.34614 
L 168.622834 324.431264 
L 168.97833 327.516389 
L 168.132588 330.601513 
L 166.179784 333.686637 
L 166.111714 333.75561 
L 163.071292 336.403351 
L 162.584656 336.771762 
L 160.03087 338.182267 
L 156.990447 339.641906 
L 156.514888 339.856886 
L 153.950025 340.785141 
L 150.909603 341.867682 
L 147.997627 342.94201 
L 147.869181 342.982828 
L 144.828759 344.070925 
L 141.788337 345.245373 
L 139.943656 346.027135 
L 138.747915 346.486987 
L 135.707492 347.770792 
L 132.66707 349.089631 
L 132.619659 349.112259 
L 129.626648 350.459674 
L 126.586226 351.810022 
L 125.747366 352.197383 
L 123.545804 353.195164 
L 120.505382 354.54222 
L 118.789536 355.282508 
L 117.46496 355.866706 
L 114.424537 357.17528 
L 111.384115 358.344259 
L 111.32141 358.367632 
L 108.343693 359.562362 
L 105.303271 360.604618 
L 102.320985 361.452757 
L 102.262849 361.471537 
L 99.222427 362.305797 
L 96.182004 362.908527 
L 93.141582 363.269537 
L 90.10116 363.36175 
L 87.060738 363.131313 
L 84.020316 362.483347 
z
" style="fill:#dceaf6;"/>
   </g>
   <g id="PathCollection_3">
    <path clip-path="url(#pf49502077d)" d="M 84.020316 362.483347 
L 87.060738 363.131313 
L 90.10116 363.36175 
L 93.141582 363.269537 
L 96.182004 362.908527 
L 99.222427 362.305797 
L 102.262849 361.471537 
L 102.320985 361.452757 
L 105.303271 360.604618 
L 108.343693 359.562362 
L 111.32141 358.367632 
L 111.384115 358.344259 
L 114.424537 357.17528 
L 117.46496 355.866706 
L 118.789536 355.282508 
L 120.505382 354.54222 
L 123.545804 353.195164 
L 125.747366 352.197383 
L 126.586226 351.810022 
L 129.626648 350.459674 
L 132.619659 349.112259 
L 132.66707 349.089631 
L 135.707492 347.770792 
L 138.747915 346.486987 
L 139.943656 346.027135 
L 141.788337 345.245373 
L 144.828759 344.070925 
L 147.869181 342.982828 
L 147.997627 342.94201 
L 150.909603 341.867682 
L 153.950025 340.785141 
L 156.514888 339.856886 
L 156.990447 339.641906 
L 160.03087 338.182267 
L 162.584656 336.771762 
L 163.071292 336.403351 
L 166.111714 333.75561 
L 166.179784 333.686637 
L 168.132588 330.601513 
L 168.97833 327.516389 
L 168.622834 324.431264 
L 166.906751 321.34614 
L 166.111714 320.549334 
L 163.275095 318.261016 
L 163.071292 318.142817 
L 160.03087 316.584359 
L 156.990447 315.178265 
L 156.9856 315.175891 
L 153.950025 313.93725 
L 150.909603 312.512448 
L 150.217177 312.090767 
L 147.869181 310.733195 
L 145.758679 309.005643 
L 144.828759 308.203538 
L 142.993014 305.920518 
L 141.788337 304.207339 
L 141.07966 302.835394 
L 139.70063 299.75027 
L 138.747915 297.286581 
L 138.545548 296.665145 
L 137.6122 293.580021 
L 136.637054 290.494897 
L 135.707492 287.906285 
L 135.518608 287.409772 
L 134.104814 284.324648 
L 132.66707 282.042709 
L 132.009801 281.239524 
L 129.626648 278.958701 
L 128.351774 278.154399 
L 126.586226 277.171035 
L 123.545804 276.095304 
L 120.505382 275.501872 
L 117.46496 275.267738 
L 114.424537 275.355089 
L 111.384115 275.781965 
L 108.343693 276.609167 
L 105.303271 277.936644 
L 104.941479 278.154399 
L 102.262849 279.625782 
L 100.115465 281.239524 
L 99.222427 281.864138 
L 96.478949 284.324648 
L 96.182004 284.578128 
L 93.448763 287.409772 
L 93.141582 287.720436 
L 90.768431 290.494897 
L 90.10116 291.278261 
L 88.327781 293.580021 
L 87.060738 295.283643 
L 86.091509 296.665145 
L 84.064027 299.75027 
L 84.020316 299.817612 
L 82.094819 302.835394 
L 80.979894 304.801523 
L 80.33003 305.920518 
L 78.685689 309.005643 
L 77.939472 310.589535 
L 77.181748 312.090767 
L 75.810329 315.175891 
L 74.899049 317.621282 
L 74.631026 318.261016 
L 73.490128 321.34614 
L 72.576682 324.431264 
L 71.858627 327.493466 
L 71.852215 327.516389 
L 71.155273 330.601513 
L 70.662546 333.686637 
L 70.363695 336.771762 
L 70.263043 339.856886 
L 70.381924 342.94201 
L 70.763476 346.027135 
L 71.481095 349.112259 
L 71.858627 350.195491 
L 72.567254 352.197383 
L 74.229913 355.282508 
L 74.899049 356.208246 
L 76.817913 358.367632 
L 77.939472 359.371252 
L 80.979894 361.277514 
L 81.40821 361.452757 
z
M 88.862071 358.367632 
L 87.060738 358.06842 
L 84.020316 356.996708 
L 81.274837 355.282508 
L 80.979894 355.063146 
L 78.290951 352.197383 
L 77.939472 351.677831 
L 76.496943 349.112259 
L 75.395676 346.027135 
L 74.899049 343.632776 
L 74.755139 342.94201 
L 74.433449 339.856886 
L 74.405936 336.771762 
L 74.632072 333.686637 
L 74.899049 331.896482 
L 75.064122 330.601513 
L 75.64541 327.516389 
L 76.424263 324.431264 
L 77.423867 321.34614 
L 77.939472 320.016472 
L 78.563821 318.261016 
L 79.860002 315.175891 
L 80.979894 312.92025 
L 81.377287 312.090767 
L 83.019694 309.005643 
L 84.020316 307.338808 
L 84.882419 305.920518 
L 86.960573 302.835394 
L 87.060738 302.691317 
L 89.227514 299.75027 
L 90.10116 298.628189 
L 91.793552 296.665145 
L 93.141582 295.131868 
L 94.723563 293.580021 
L 96.182004 292.12983 
L 98.185888 290.494897 
L 99.222427 289.611224 
L 102.262849 287.584544 
L 102.613309 287.409772 
L 105.303271 285.938099 
L 108.343693 284.822306 
L 110.660342 284.324648 
L 111.384115 284.146602 
L 114.424537 283.888534 
L 117.46496 284.125198 
L 118.271677 284.324648 
L 120.505382 284.883917 
L 123.545804 286.364546 
L 124.902899 287.409772 
L 126.586226 288.96215 
L 127.795885 290.494897 
L 129.626648 293.528749 
L 129.65301 293.580021 
L 131.039615 296.665145 
L 132.161403 299.75027 
L 132.66707 301.309163 
L 133.200217 302.835394 
L 134.256145 305.920518 
L 135.304746 309.005643 
L 135.707492 310.195457 
L 136.529156 312.090767 
L 137.860847 315.175891 
L 138.747915 317.374394 
L 139.238498 318.261016 
L 140.637466 321.34614 
L 141.578102 324.431264 
L 141.788337 326.795856 
L 141.873818 327.516389 
L 141.788337 327.889119 
L 141.263853 330.601513 
L 139.576931 333.686637 
L 138.747915 334.581394 
L 136.936368 336.771762 
L 135.707492 337.813173 
L 133.484334 339.856886 
L 132.66707 340.443543 
L 129.626648 342.754548 
L 129.395584 342.94201 
L 126.586226 344.857759 
L 124.87082 346.027135 
L 123.545804 346.831969 
L 120.505382 348.668186 
L 119.765998 349.112259 
L 117.46496 350.412128 
L 114.424537 351.994196 
L 114.019562 352.197383 
L 111.384115 353.511348 
L 108.343693 354.832232 
L 107.16921 355.282508 
L 105.303271 356.035466 
L 102.262849 357.056955 
L 99.222427 357.834551 
L 96.182004 358.363641 
L 96.133852 358.367632 
L 93.141582 358.65486 
L 90.10116 358.576294 
z
" style="fill:#cadef0;"/>
   </g>
   <g id="PathCollection_4">
    <path clip-path="url(#pf49502077d)" d="M 90.10116 358.576294 
L 93.141582 358.65486 
L 96.133852 358.367632 
L 96.182004 358.363641 
L 99.222427 357.834551 
L 102.262849 357.056955 
L 105.303271 356.035466 
L 107.16921 355.282508 
L 108.343693 354.832232 
L 111.384115 353.511348 
L 114.019562 352.197383 
L 114.424537 351.994196 
L 117.46496 350.412128 
L 119.765998 349.112259 
L 120.505382 348.668186 
L 123.545804 346.831969 
L 124.87082 346.027135 
L 126.586226 344.857759 
L 129.395584 342.94201 
L 129.626648 342.754548 
L 132.66707 340.443543 
L 133.484334 339.856886 
L 135.707492 337.813173 
L 136.936368 336.771762 
L 138.747915 334.581394 
L 139.576931 333.686637 
L 141.263853 330.601513 
L 141.788337 327.889119 
L 141.873818 327.516389 
L 141.788337 326.795856 
L 141.578102 324.431264 
L 140.637466 321.34614 
L 139.238498 318.261016 
L 138.747915 317.374394 
L 137.860847 315.175891 
L 136.529156 312.090767 
L 135.707492 310.195457 
L 135.304746 309.005643 
L 134.256145 305.920518 
L 133.200217 302.835394 
L 132.66707 301.309163 
L 132.161403 299.75027 
L 131.039615 296.665145 
L 129.65301 293.580021 
L 129.626648 293.528749 
L 127.795885 290.494897 
L 126.586226 288.96215 
L 124.902899 287.409772 
L 123.545804 286.364546 
L 120.505382 284.883917 
L 118.271677 284.324648 
L 117.46496 284.125198 
L 114.424537 283.888534 
L 111.384115 284.146602 
L 110.660342 284.324648 
L 108.343693 284.822306 
L 105.303271 285.938099 
L 102.613309 287.409772 
L 102.262849 287.584544 
L 99.222427 289.611224 
L 98.185888 290.494897 
L 96.182004 292.12983 
L 94.723563 293.580021 
L 93.141582 295.131868 
L 91.793552 296.665145 
L 90.10116 298.628189 
L 89.227514 299.75027 
L 87.060738 302.691317 
L 86.960573 302.835394 
L 84.882419 305.920518 
L 84.020316 307.338808 
L 83.019694 309.005643 
L 81.377287 312.090767 
L 80.979894 312.92025 
L 79.860002 315.175891 
L 78.563821 318.261016 
L 77.939472 320.016472 
L 77.423867 321.34614 
L 76.424263 324.431264 
L 75.64541 327.516389 
L 75.064122 330.601513 
L 74.899049 331.896482 
L 74.632072 333.686637 
L 74.405936 336.771762 
L 74.433449 339.856886 
L 74.755139 342.94201 
L 74.899049 343.632776 
L 75.395676 346.027135 
L 76.496943 349.112259 
L 77.939472 351.677831 
L 78.290951 352.197383 
L 80.979894 355.063146 
L 81.274837 355.282508 
L 84.020316 356.996708 
L 87.060738 358.06842 
L 88.862071 358.367632 
z
M 84.362214 352.197383 
L 84.020316 351.97 
L 81.222072 349.112259 
L 80.979894 348.761003 
L 79.479745 346.027135 
L 78.458992 342.94201 
L 77.939472 339.917697 
L 77.929309 339.856886 
L 77.745708 336.771762 
L 77.868522 333.686637 
L 77.939472 333.132696 
L 78.227836 330.601513 
L 78.800281 327.516389 
L 79.593407 324.431264 
L 80.624454 321.34614 
L 80.979894 320.458262 
L 81.819335 318.261016 
L 83.228077 315.175891 
L 84.020316 313.670973 
L 84.856403 312.090767 
L 86.713877 309.005643 
L 87.060738 308.472242 
L 88.81285 305.920518 
L 90.10116 304.197516 
L 91.227988 302.835394 
L 93.141582 300.625826 
L 94.022624 299.75027 
L 96.182004 297.622897 
L 97.372893 296.665145 
L 99.222427 295.138603 
L 101.677871 293.580021 
L 102.262849 293.186611 
L 105.303271 291.678181 
L 108.343693 290.712395 
L 109.776186 290.494897 
L 111.384115 290.218095 
L 114.424537 290.274391 
L 115.425356 290.494897 
L 117.46496 290.963534 
L 120.505382 292.494072 
L 121.822934 293.580021 
L 123.545804 295.317923 
L 124.532058 296.665145 
L 126.291372 299.75027 
L 126.586226 300.396417 
L 127.610607 302.835394 
L 128.670402 305.920518 
L 129.548671 309.005643 
L 129.626648 309.323847 
L 130.396818 312.090767 
L 131.136249 315.175891 
L 131.729543 318.261016 
L 132.122483 321.34614 
L 132.231795 324.431264 
L 131.942393 327.516389 
L 131.102326 330.601513 
L 129.626648 333.488611 
L 129.535316 333.686637 
L 127.422822 336.771762 
L 126.586226 337.657672 
L 124.601243 339.856886 
L 123.545804 340.782917 
L 121.098199 342.94201 
L 120.505382 343.386085 
L 117.46496 345.637562 
L 116.918136 346.027135 
L 114.424537 347.642212 
L 111.891308 349.112259 
L 111.384115 349.39402 
L 108.343693 350.956261 
L 105.421571 352.197383 
L 105.303271 352.248562 
L 102.262849 353.364053 
L 99.222427 354.178844 
L 96.182004 354.681961 
L 93.141582 354.833873 
L 90.10116 354.5515 
L 87.060738 353.684844 
z
" style="fill:#b0d2e7;"/>
   </g>
   <g id="PathCollection_5">
    <path clip-path="url(#pf49502077d)" d="M 87.060738 353.684844 
L 90.10116 354.5515 
L 93.141582 354.833873 
L 96.182004 354.681961 
L 99.222427 354.178844 
L 102.262849 353.364053 
L 105.303271 352.248562 
L 105.421571 352.197383 
L 108.343693 350.956261 
L 111.384115 349.39402 
L 111.891308 349.112259 
L 114.424537 347.642212 
L 116.918136 346.027135 
L 117.46496 345.637562 
L 120.505382 343.386085 
L 121.098199 342.94201 
L 123.545804 340.782917 
L 124.601243 339.856886 
L 126.586226 337.657672 
L 127.422822 336.771762 
L 129.535316 333.686637 
L 129.626648 333.488611 
L 131.102326 330.601513 
L 131.942393 327.516389 
L 132.231795 324.431264 
L 132.122483 321.34614 
L 131.729543 318.261016 
L 131.136249 315.175891 
L 130.396818 312.090767 
L 129.626648 309.323847 
L 129.548671 309.005643 
L 128.670402 305.920518 
L 127.610607 302.835394 
L 126.586226 300.396417 
L 126.291372 299.75027 
L 124.532058 296.665145 
L 123.545804 295.317923 
L 121.822934 293.580021 
L 120.505382 292.494072 
L 117.46496 290.963534 
L 115.425356 290.494897 
L 114.424537 290.274391 
L 111.384115 290.218095 
L 109.776186 290.494897 
L 108.343693 290.712395 
L 105.303271 291.678181 
L 102.262849 293.186611 
L 101.677871 293.580021 
L 99.222427 295.138603 
L 97.372893 296.665145 
L 96.182004 297.622897 
L 94.022624 299.75027 
L 93.141582 300.625826 
L 91.227988 302.835394 
L 90.10116 304.197516 
L 88.81285 305.920518 
L 87.060738 308.472242 
L 86.713877 309.005643 
L 84.856403 312.090767 
L 84.020316 313.670973 
L 83.228077 315.175891 
L 81.819335 318.261016 
L 80.979894 320.458262 
L 80.624454 321.34614 
L 79.593407 324.431264 
L 78.800281 327.516389 
L 78.227836 330.601513 
L 77.939472 333.132696 
L 77.868522 333.686637 
L 77.745708 336.771762 
L 77.929309 339.856886 
L 77.939472 339.917697 
L 78.458992 342.94201 
L 79.479745 346.027135 
L 80.979894 348.761003 
L 81.222072 349.112259 
L 84.020316 351.97 
L 84.362214 352.197383 
z
M 86.672225 349.112259 
L 84.020316 346.590716 
L 83.603632 346.027135 
L 82.015694 342.94201 
L 81.143254 339.856886 
L 80.979894 338.56758 
L 80.766636 336.771762 
L 80.762009 333.686637 
L 80.979894 331.527185 
L 81.066639 330.601513 
L 81.620072 327.516389 
L 82.41855 324.431264 
L 83.470082 321.34614 
L 84.020316 320.02606 
L 84.753172 318.261016 
L 86.271824 315.175891 
L 87.060738 313.781351 
L 88.065638 312.090767 
L 90.10116 309.06972 
L 90.148883 309.005643 
L 92.596814 305.920518 
L 93.141582 305.274321 
L 95.534479 302.835394 
L 96.182004 302.190593 
L 99.197059 299.75027 
L 99.222427 299.729461 
L 102.262849 297.779724 
L 104.777464 296.665145 
L 105.303271 296.415694 
L 108.343693 295.571814 
L 111.384115 295.340862 
L 114.424537 295.80337 
L 116.450504 296.665145 
L 117.46496 297.159921 
L 120.421656 299.75027 
L 120.505382 299.843306 
L 122.498715 302.835394 
L 123.545804 304.985721 
L 123.948224 305.920518 
L 125.015433 309.005643 
L 125.81756 312.090767 
L 126.396455 315.175891 
L 126.586226 316.780344 
L 126.786559 318.261016 
L 126.94133 321.34614 
L 126.768986 324.431264 
L 126.586226 325.414915 
L 126.234755 327.516389 
L 125.259558 330.601513 
L 123.656934 333.686637 
L 123.545804 333.843625 
L 121.554677 336.771762 
L 120.505382 337.932417 
L 118.761082 339.856886 
L 117.46496 341.023515 
L 115.228815 342.94201 
L 114.424537 343.542756 
L 111.384115 345.646485 
L 110.768721 346.027135 
L 108.343693 347.430273 
L 105.303271 348.884298 
L 104.710478 349.112259 
L 102.262849 350.05513 
L 99.222427 350.880972 
L 96.182004 351.328281 
L 93.141582 351.332315 
L 90.10116 350.763943 
L 87.060738 349.392858 
z
" style="fill:#91c3de;"/>
   </g>
   <g id="PathCollection_6">
    <path clip-path="url(#pf49502077d)" d="M 87.060738 349.392858 
L 90.10116 350.763943 
L 93.141582 351.332315 
L 96.182004 351.328281 
L 99.222427 350.880972 
L 102.262849 350.05513 
L 104.710478 349.112259 
L 105.303271 348.884298 
L 108.343693 347.430273 
L 110.768721 346.027135 
L 111.384115 345.646485 
L 114.424537 343.542756 
L 115.228815 342.94201 
L 117.46496 341.023515 
L 118.761082 339.856886 
L 120.505382 337.932417 
L 121.554677 336.771762 
L 123.545804 333.843625 
L 123.656934 333.686637 
L 125.259558 330.601513 
L 126.234755 327.516389 
L 126.586226 325.414915 
L 126.768986 324.431264 
L 126.94133 321.34614 
L 126.786559 318.261016 
L 126.586226 316.780344 
L 126.396455 315.175891 
L 125.81756 312.090767 
L 125.015433 309.005643 
L 123.948224 305.920518 
L 123.545804 304.985721 
L 122.498715 302.835394 
L 120.505382 299.843306 
L 120.421656 299.75027 
L 117.46496 297.159921 
L 116.450504 296.665145 
L 114.424537 295.80337 
L 111.384115 295.340862 
L 108.343693 295.571814 
L 105.303271 296.415694 
L 104.777464 296.665145 
L 102.262849 297.779724 
L 99.222427 299.729461 
L 99.197059 299.75027 
L 96.182004 302.190593 
L 95.534479 302.835394 
L 93.141582 305.274321 
L 92.596814 305.920518 
L 90.148883 309.005643 
L 90.10116 309.06972 
L 88.065638 312.090767 
L 87.060738 313.781351 
L 86.271824 315.175891 
L 84.753172 318.261016 
L 84.020316 320.02606 
L 83.470082 321.34614 
L 82.41855 324.431264 
L 81.620072 327.516389 
L 81.066639 330.601513 
L 80.979894 331.527185 
L 80.762009 333.686637 
L 80.766636 336.771762 
L 80.979894 338.56758 
L 81.143254 339.856886 
L 82.015694 342.94201 
L 83.603632 346.027135 
L 84.020316 346.590716 
L 86.672225 349.112259 
z
M 88.703812 346.027135 
L 87.060738 344.619572 
L 85.795703 342.94201 
L 84.375176 339.856886 
L 84.020316 338.338432 
L 83.709147 336.771762 
L 83.540163 333.686637 
L 83.747597 330.601513 
L 84.020316 329.030404 
L 84.278053 327.516389 
L 85.090144 324.431264 
L 86.175992 321.34614 
L 87.060738 319.332261 
L 87.552579 318.261016 
L 89.218389 315.175891 
L 90.10116 313.751189 
L 91.238284 312.090767 
L 93.141582 309.587473 
L 93.65939 309.005643 
L 96.182004 306.337222 
L 96.67374 305.920518 
L 99.222427 303.801357 
L 100.788597 302.835394 
L 102.262849 301.908127 
L 105.303271 300.641249 
L 108.343693 300.019489 
L 111.384115 300.119032 
L 114.424537 301.140525 
L 116.748063 302.835394 
L 117.46496 303.501272 
L 119.229071 305.920518 
L 120.505382 308.386979 
L 120.774254 309.005643 
L 121.786724 312.090767 
L 122.455486 315.175891 
L 122.821132 318.261016 
L 122.886787 321.34614 
L 122.623065 324.431264 
L 121.967847 327.516389 
L 120.821025 330.601513 
L 120.505382 331.188213 
L 119.190245 333.686637 
L 117.46496 336.042054 
L 116.916897 336.771762 
L 114.424537 339.387678 
L 113.942036 339.856886 
L 111.384115 341.96348 
L 110.026622 342.94201 
L 108.343693 344.034098 
L 105.303271 345.671092 
L 104.452087 346.027135 
L 102.262849 346.913804 
L 99.222427 347.736641 
L 96.182004 348.09727 
L 93.141582 347.890489 
L 90.10116 346.913241 
z
" style="fill:#6aaed6;"/>
   </g>
   <g id="PathCollection_7">
    <path clip-path="url(#pf49502077d)" d="M 90.10116 346.913241 
L 93.141582 347.890489 
L 96.182004 348.09727 
L 99.222427 347.736641 
L 102.262849 346.913804 
L 104.452087 346.027135 
L 105.303271 345.671092 
L 108.343693 344.034098 
L 110.026622 342.94201 
L 111.384115 341.96348 
L 113.942036 339.856886 
L 114.424537 339.387678 
L 116.916897 336.771762 
L 117.46496 336.042054 
L 119.190245 333.686637 
L 120.505382 331.188213 
L 120.821025 330.601513 
L 121.967847 327.516389 
L 122.623065 324.431264 
L 122.886787 321.34614 
L 122.821132 318.261016 
L 122.455486 315.175891 
L 121.786724 312.090767 
L 120.774254 309.005643 
L 120.505382 308.386979 
L 119.229071 305.920518 
L 117.46496 303.501272 
L 116.748063 302.835394 
L 114.424537 301.140525 
L 111.384115 300.119032 
L 108.343693 300.019489 
L 105.303271 300.641249 
L 102.262849 301.908127 
L 100.788597 302.835394 
L 99.222427 303.801357 
L 96.67374 305.920518 
L 96.182004 306.337222 
L 93.65939 309.005643 
L 93.141582 309.587473 
L 91.238284 312.090767 
L 90.10116 313.751189 
L 89.218389 315.175891 
L 87.552579 318.261016 
L 87.060738 319.332261 
L 86.175992 321.34614 
L 85.090144 324.431264 
L 84.278053 327.516389 
L 84.020316 329.030404 
L 83.747597 330.601513 
L 83.540163 333.686637 
L 83.709147 336.771762 
L 84.020316 338.338432 
L 84.375176 339.856886 
L 85.795703 342.94201 
L 87.060738 344.619572 
L 88.703812 346.027135 
z
M 90.594241 342.94201 
L 90.10116 342.582664 
L 87.978474 339.856886 
L 87.060738 337.65824 
L 86.782848 336.771762 
L 86.374302 333.686637 
L 86.445948 330.601513 
L 86.907281 327.516389 
L 87.060738 326.930648 
L 87.741197 324.431264 
L 88.892872 321.34614 
L 90.10116 318.784374 
L 90.374207 318.261016 
L 92.266089 315.175891 
L 93.141582 313.922103 
L 94.645056 312.090767 
L 96.182004 310.371254 
L 97.72239 309.005643 
L 99.222427 307.728189 
L 102.148089 305.920518 
L 102.262849 305.84951 
L 105.303271 304.710421 
L 108.343693 304.349751 
L 111.384115 304.922682 
L 113.157454 305.920518 
L 114.424537 306.838988 
L 116.184254 309.005643 
L 117.46496 311.330798 
L 117.793297 312.090767 
L 118.700248 315.175891 
L 119.178068 318.261016 
L 119.267571 321.34614 
L 118.965687 324.431264 
L 118.230208 327.516389 
L 117.46496 329.438651 
L 116.997011 330.601513 
L 115.211584 333.686637 
L 114.424537 334.708645 
L 112.721171 336.771762 
L 111.384115 338.076724 
L 109.308514 339.856886 
L 108.343693 340.571171 
L 105.303271 342.434379 
L 104.197962 342.94201 
L 102.262849 343.771333 
L 99.222427 344.57754 
L 96.182004 344.801773 
L 93.141582 344.26896 
z
" style="fill:#4d99ca;"/>
   </g>
   <g id="PathCollection_8">
    <path clip-path="url(#pf49502077d)" d="M 93.141582 344.26896 
L 96.182004 344.801773 
L 99.222427 344.57754 
L 102.262849 343.771333 
L 104.197962 342.94201 
L 105.303271 342.434379 
L 108.343693 340.571171 
L 109.308514 339.856886 
L 111.384115 338.076724 
L 112.721171 336.771762 
L 114.424537 334.708645 
L 115.211584 333.686637 
L 116.997011 330.601513 
L 117.46496 329.438651 
L 118.230208 327.516389 
L 118.965687 324.431264 
L 119.267571 321.34614 
L 119.178068 318.261016 
L 118.700248 315.175891 
L 117.793297 312.090767 
L 117.46496 311.330798 
L 116.184254 309.005643 
L 114.424537 306.838988 
L 113.157454 305.920518 
L 111.384115 304.922682 
L 108.343693 304.349751 
L 105.303271 304.710421 
L 102.262849 305.84951 
L 102.148089 305.920518 
L 99.222427 307.728189 
L 97.72239 309.005643 
L 96.182004 310.371254 
L 94.645056 312.090767 
L 93.141582 313.922103 
L 92.266089 315.175891 
L 90.374207 318.261016 
L 90.10116 318.784374 
L 88.892872 321.34614 
L 87.741197 324.431264 
L 87.060738 326.930648 
L 86.907281 327.516389 
L 86.445948 330.601513 
L 86.374302 333.686637 
L 86.782848 336.771762 
L 87.060738 337.65824 
L 87.978474 339.856886 
L 90.10116 342.582664 
L 90.594241 342.94201 
z
M 92.84344 339.856886 
L 90.360282 336.771762 
L 90.10116 336.087748 
L 89.478532 333.686637 
L 89.333589 330.601513 
L 89.695512 327.516389 
L 90.10116 325.925964 
L 90.523888 324.431264 
L 91.789694 321.34614 
L 93.141582 318.754839 
L 93.448321 318.261016 
L 95.707084 315.175891 
L 96.182004 314.599456 
L 98.826919 312.090767 
L 99.222427 311.739957 
L 102.262849 309.873555 
L 104.896119 309.005643 
L 105.303271 308.871939 
L 108.343693 308.890449 
L 108.657872 309.005643 
L 111.384115 310.320959 
L 113.041556 312.090767 
L 114.424537 314.425852 
L 114.740485 315.175891 
L 115.493266 318.261016 
L 115.710805 321.34614 
L 115.438239 324.431264 
L 114.666221 327.516389 
L 114.424537 328.091286 
L 113.300486 330.601513 
L 111.384115 333.574573 
L 111.301856 333.686637 
L 108.370199 336.771762 
L 108.343693 336.794713 
L 105.303271 338.955974 
L 103.544653 339.856886 
L 102.262849 340.444247 
L 99.222427 341.203978 
L 96.182004 341.188777 
L 93.141582 340.088424 
z
" style="fill:#3383be;"/>
   </g>
   <g id="PathCollection_9">
    <path clip-path="url(#pf49502077d)" d="M 93.141582 340.088424 
L 96.182004 341.188777 
L 99.222427 341.203978 
L 102.262849 340.444247 
L 103.544653 339.856886 
L 105.303271 338.955974 
L 108.343693 336.794713 
L 108.370199 336.771762 
L 111.301856 333.686637 
L 111.384115 333.574573 
L 113.300486 330.601513 
L 114.424537 328.091286 
L 114.666221 327.516389 
L 115.438239 324.431264 
L 115.710805 321.34614 
L 115.493266 318.261016 
L 114.740485 315.175891 
L 114.424537 314.425852 
L 113.041556 312.090767 
L 111.384115 310.320959 
L 108.657872 309.005643 
L 108.343693 308.890449 
L 105.303271 308.871939 
L 104.896119 309.005643 
L 102.262849 309.873555 
L 99.222427 311.739957 
L 98.826919 312.090767 
L 96.182004 314.599456 
L 95.707084 315.175891 
L 93.448321 318.261016 
L 93.141582 318.754839 
L 91.789694 321.34614 
L 90.523888 324.431264 
L 90.10116 325.925964 
L 89.695512 327.516389 
L 89.333589 330.601513 
L 89.478532 333.686637 
L 90.10116 336.087748 
L 90.360282 336.771762 
L 92.84344 339.856886 
z
M 96.252417 336.771762 
L 96.182004 336.753259 
L 93.397856 333.686637 
L 93.141582 332.859779 
L 92.727391 330.601513 
L 92.897598 327.516389 
L 93.141582 326.519643 
L 93.762267 324.431264 
L 95.202595 321.34614 
L 96.182004 319.73675 
L 97.377819 318.261016 
L 99.222427 316.319613 
L 100.915879 315.175891 
L 102.262849 314.347638 
L 105.303271 313.658611 
L 108.343693 314.457763 
L 109.177257 315.175891 
L 111.230761 318.261016 
L 111.384115 318.853423 
L 111.818433 321.34614 
L 111.681278 324.431264 
L 111.384115 325.618878 
L 110.835807 327.516389 
L 109.262108 330.601513 
L 108.343693 331.852738 
L 106.651813 333.686637 
L 105.303271 334.829922 
L 102.262849 336.606394 
L 101.585214 336.771762 
L 99.222427 337.26582 
z
" style="fill:#1c6bb0;"/>
   </g>
   <g id="PathCollection_10">
    <path clip-path="url(#pf49502077d)" d="M 99.222427 337.26582 
L 101.585214 336.771762 
L 102.262849 336.606394 
L 105.303271 334.829922 
L 106.651813 333.686637 
L 108.343693 331.852738 
L 109.262108 330.601513 
L 110.835807 327.516389 
L 111.384115 325.618878 
L 111.681278 324.431264 
L 111.818433 321.34614 
L 111.384115 318.853423 
L 111.230761 318.261016 
L 109.177257 315.175891 
L 108.343693 314.457763 
L 105.303271 313.658611 
L 102.262849 314.347638 
L 100.915879 315.175891 
L 99.222427 316.319613 
L 97.377819 318.261016 
L 96.182004 319.73675 
L 95.202595 321.34614 
L 93.762267 324.431264 
L 93.141582 326.519643 
L 92.897598 327.516389 
L 92.727391 330.601513 
L 93.141582 332.859779 
L 93.397856 333.686637 
L 96.182004 336.753259 
L 96.252417 336.771762 
z
M 98.884505 330.601513 
L 97.916475 327.516389 
L 98.61511 324.431264 
L 99.222427 323.340755 
L 101.317662 321.34614 
L 102.262849 320.686504 
L 105.303271 321.047041 
L 105.555766 321.34614 
L 106.295411 324.431264 
L 105.580031 327.516389 
L 105.303271 327.971253 
L 102.635593 330.601513 
L 102.262849 330.851896 
L 99.222427 330.901097 
z
" style="fill:#0a539e;"/>
   </g>
   <g id="PathCollection_11">
    <path clip-path="url(#pf49502077d)" d="M 99.222427 330.901097 
L 102.262849 330.851896 
L 102.635593 330.601513 
L 105.303271 327.971253 
L 105.580031 327.516389 
L 106.295411 324.431264 
L 105.555766 321.34614 
L 105.303271 321.047041 
L 102.262849 320.686504 
L 101.317662 321.34614 
L 99.222427 323.340755 
L 98.61511 324.431264 
L 97.916475 327.516389 
L 98.884505 330.601513 
z
" style="fill:#083b7c;"/>
   </g>
   <g id="patch_3">
    <path d="M 47.53525 392.304 
L 47.53525 86.87669 
" style="fill:none;stroke:#262626;stroke-linecap:square;stroke-linejoin:miter;stroke-width:1.25;"/>
   </g>
   <g id="patch_4">
    <path d="M 47.53525 392.304 
L 348.537043 392.304 
" style="fill:none;stroke:#262626;stroke-linecap:square;stroke-linejoin:miter;stroke-width:1.25;"/>
   </g>
   <g id="legend_1">
    <g id="line2d_15"/>
    <g id="line2d_16"/>
    <g id="text_17">
     <!-- pearsonr = 0.42; p = 7.5e-08 -->
     <defs>
      <path d="M 18.109375 8.203125 
L 18.109375 -20.796875 
L 9.078125 -20.796875 
L 9.078125 54.6875 
L 18.109375 54.6875 
L 18.109375 46.390625 
Q 20.953125 51.265625 25.265625 53.625 
Q 29.59375 56 35.59375 56 
Q 45.5625 56 51.78125 48.09375 
Q 58.015625 40.1875 58.015625 27.296875 
Q 58.015625 14.40625 51.78125 6.484375 
Q 45.5625 -1.421875 35.59375 -1.421875 
Q 29.59375 -1.421875 25.265625 0.953125 
Q 20.953125 3.328125 18.109375 8.203125 
z
M 48.6875 27.296875 
Q 48.6875 37.203125 44.609375 42.84375 
Q 40.53125 48.484375 33.40625 48.484375 
Q 26.265625 48.484375 22.1875 42.84375 
Q 18.109375 37.203125 18.109375 27.296875 
Q 18.109375 17.390625 22.1875 11.75 
Q 26.265625 6.109375 33.40625 6.109375 
Q 40.53125 6.109375 44.609375 11.75 
Q 48.6875 17.390625 48.6875 27.296875 
z
" id="DejaVuSans-70"/>
      <path d="M 34.28125 27.484375 
Q 23.390625 27.484375 19.1875 25 
Q 14.984375 22.515625 14.984375 16.5 
Q 14.984375 11.71875 18.140625 8.90625 
Q 21.296875 6.109375 26.703125 6.109375 
Q 34.1875 6.109375 38.703125 11.40625 
Q 43.21875 16.703125 43.21875 25.484375 
L 43.21875 27.484375 
z
M 52.203125 31.203125 
L 52.203125 0 
L 43.21875 0 
L 43.21875 8.296875 
Q 40.140625 3.328125 35.546875 0.953125 
Q 30.953125 -1.421875 24.3125 -1.421875 
Q 15.921875 -1.421875 10.953125 3.296875 
Q 6 8.015625 6 15.921875 
Q 6 25.140625 12.171875 29.828125 
Q 18.359375 34.515625 30.609375 34.515625 
L 43.21875 34.515625 
L 43.21875 35.40625 
Q 43.21875 41.609375 39.140625 45 
Q 35.0625 48.390625 27.6875 48.390625 
Q 23 48.390625 18.546875 47.265625 
Q 14.109375 46.140625 10.015625 43.890625 
L 10.015625 52.203125 
Q 14.9375 54.109375 19.578125 55.046875 
Q 24.21875 56 28.609375 56 
Q 40.484375 56 46.34375 49.84375 
Q 52.203125 43.703125 52.203125 31.203125 
z
" id="DejaVuSans-61"/>
      <path d="M 44.28125 53.078125 
L 44.28125 44.578125 
Q 40.484375 46.53125 36.375 47.5 
Q 32.28125 48.484375 27.875 48.484375 
Q 21.1875 48.484375 17.84375 46.4375 
Q 14.5 44.390625 14.5 40.28125 
Q 14.5 37.15625 16.890625 35.375 
Q 19.28125 33.59375 26.515625 31.984375 
L 29.59375 31.296875 
Q 39.15625 29.25 43.1875 25.515625 
Q 47.21875 21.78125 47.21875 15.09375 
Q 47.21875 7.46875 41.1875 3.015625 
Q 35.15625 -1.421875 24.609375 -1.421875 
Q 20.21875 -1.421875 15.453125 -0.5625 
Q 10.6875 0.296875 5.421875 2 
L 5.421875 11.28125 
Q 10.40625 8.6875 15.234375 7.390625 
Q 20.0625 6.109375 24.8125 6.109375 
Q 31.15625 6.109375 34.5625 8.28125 
Q 37.984375 10.453125 37.984375 14.40625 
Q 37.984375 18.0625 35.515625 20.015625 
Q 33.0625 21.96875 24.703125 23.78125 
L 21.578125 24.515625 
Q 13.234375 26.265625 9.515625 29.90625 
Q 5.8125 33.546875 5.8125 39.890625 
Q 5.8125 47.609375 11.28125 51.796875 
Q 16.75 56 26.8125 56 
Q 31.78125 56 36.171875 55.265625 
Q 40.578125 54.546875 44.28125 53.078125 
z
" id="DejaVuSans-73"/>
      <path d="M 30.609375 48.390625 
Q 23.390625 48.390625 19.1875 42.75 
Q 14.984375 37.109375 14.984375 27.296875 
Q 14.984375 17.484375 19.15625 11.84375 
Q 23.34375 6.203125 30.609375 6.203125 
Q 37.796875 6.203125 41.984375 11.859375 
Q 46.1875 17.53125 46.1875 27.296875 
Q 46.1875 37.015625 41.984375 42.703125 
Q 37.796875 48.390625 30.609375 48.390625 
z
M 30.609375 56 
Q 42.328125 56 49.015625 48.375 
Q 55.71875 40.765625 55.71875 27.296875 
Q 55.71875 13.875 49.015625 6.21875 
Q 42.328125 -1.421875 30.609375 -1.421875 
Q 18.84375 -1.421875 12.171875 6.21875 
Q 5.515625 13.875 5.515625 27.296875 
Q 5.515625 40.765625 12.171875 48.375 
Q 18.84375 56 30.609375 56 
z
" id="DejaVuSans-6f"/>
      <path d="M 54.890625 33.015625 
L 54.890625 0 
L 45.90625 0 
L 45.90625 32.71875 
Q 45.90625 40.484375 42.875 44.328125 
Q 39.84375 48.1875 33.796875 48.1875 
Q 26.515625 48.1875 22.3125 43.546875 
Q 18.109375 38.921875 18.109375 30.90625 
L 18.109375 0 
L 9.078125 0 
L 9.078125 54.6875 
L 18.109375 54.6875 
L 18.109375 46.1875 
Q 21.34375 51.125 25.703125 53.5625 
Q 30.078125 56 35.796875 56 
Q 45.21875 56 50.046875 50.171875 
Q 54.890625 44.34375 54.890625 33.015625 
z
" id="DejaVuSans-6e"/>
      <path id="DejaVuSans-20"/>
      <path d="M 10.59375 45.40625 
L 73.1875 45.40625 
L 73.1875 37.203125 
L 10.59375 37.203125 
z
M 10.59375 25.484375 
L 73.1875 25.484375 
L 73.1875 17.1875 
L 10.59375 17.1875 
z
" id="DejaVuSans-3d"/>
      <path d="M 10.6875 12.40625 
L 21 12.40625 
L 21 0 
L 10.6875 0 
z
" id="DejaVuSans-2e"/>
      <path d="M 11.71875 51.703125 
L 22.015625 51.703125 
L 22.015625 39.3125 
L 11.71875 39.3125 
z
M 11.71875 12.40625 
L 22.015625 12.40625 
L 22.015625 4 
L 14.015625 -11.625 
L 7.71875 -11.625 
L 11.71875 4 
z
" id="DejaVuSans-3b"/>
      <path d="M 8.203125 72.90625 
L 55.078125 72.90625 
L 55.078125 68.703125 
L 28.609375 0 
L 18.3125 0 
L 43.21875 64.59375 
L 8.203125 64.59375 
z
" id="DejaVuSans-37"/>
      <path d="M 4.890625 31.390625 
L 31.203125 31.390625 
L 31.203125 23.390625 
L 4.890625 23.390625 
z
" id="DejaVuSans-2d"/>
     </defs>
     <g style="fill:#262626;" transform="translate(223.305793 100.15544)scale(0.08 -0.08)">
      <use xlink:href="#DejaVuSans-70"/>
      <use x="63.476562" xlink:href="#DejaVuSans-65"/>
      <use x="125" xlink:href="#DejaVuSans-61"/>
      <use x="186.279297" xlink:href="#DejaVuSans-72"/>
      <use x="227.392578" xlink:href="#DejaVuSans-73"/>
      <use x="279.492188" xlink:href="#DejaVuSans-6f"/>
      <use x="340.673828" xlink:href="#DejaVuSans-6e"/>
      <use x="404.052734" xlink:href="#DejaVuSans-72"/>
      <use x="445.166016" xlink:href="#DejaVuSans-20"/>
      <use x="476.953125" xlink:href="#DejaVuSans-3d"/>
      <use x="560.742188" xlink:href="#DejaVuSans-20"/>
      <use x="592.529297" xlink:href="#DejaVuSans-30"/>
      <use x="656.152344" xlink:href="#DejaVuSans-2e"/>
      <use x="687.939453" xlink:href="#DejaVuSans-34"/>
      <use x="751.5625" xlink:href="#DejaVuSans-32"/>
      <use x="815.185547" xlink:href="#DejaVuSans-3b"/>
      <use x="848.876953" xlink:href="#DejaVuSans-20"/>
      <use x="880.664062" xlink:href="#DejaVuSans-70"/>
      <use x="944.140625" xlink:href="#DejaVuSans-20"/>
      <use x="975.927734" xlink:href="#DejaVuSans-3d"/>
      <use x="1059.716797" xlink:href="#DejaVuSans-20"/>
      <use x="1091.503906" xlink:href="#DejaVuSans-37"/>
      <use x="1155.126953" xlink:href="#DejaVuSans-2e"/>
      <use x="1186.914062" xlink:href="#DejaVuSans-35"/>
      <use x="1250.537109" xlink:href="#DejaVuSans-65"/>
      <use x="1312.060547" xlink:href="#DejaVuSans-2d"/>
      <use x="1348.144531" xlink:href="#DejaVuSans-30"/>
      <use x="1411.767578" xlink:href="#DejaVuSans-38"/>
     </g>
    </g>
   </g>
  </g>
  <g id="axes_2">
   <g id="patch_5">
    <path d="M 47.53525 73.597241 
L 348.537043 73.597241 
L 348.537043 7.2 
L 47.53525 7.2 
z
" style="fill:#ffffff;"/>
   </g>
   <g id="matplotlib.axis_3">
    <g id="xtick_7">
     <g id="line2d_17"/>
    </g>
    <g id="xtick_8">
     <g id="line2d_18"/>
    </g>
    <g id="xtick_9">
     <g id="line2d_19"/>
    </g>
    <g id="xtick_10">
     <g id="line2d_20"/>
    </g>
    <g id="xtick_11">
     <g id="line2d_21"/>
    </g>
    <g id="xtick_12">
     <g id="line2d_22"/>
    </g>
   </g>
   <g id="matplotlib.axis_4">
    <g id="ytick_9"/>
    <g id="ytick_10"/>
    <g id="ytick_11"/>
   </g>
   <g id="PolyCollection_1">
    <path clip-path="url(#p08f74884a0)" d="M 55.179416 73.208868 
L 55.179416 73.597241 
L 58.065411 73.597241 
L 60.951405 73.597241 
L 63.8374 73.597241 
L 66.723394 73.597241 
L 69.609389 73.597241 
L 72.495383 73.597241 
L 75.381378 73.597241 
L 78.267372 73.597241 
L 81.153367 73.597241 
L 84.039362 73.597241 
L 86.925356 73.597241 
L 89.811351 73.597241 
L 92.697345 73.597241 
L 95.58334 73.597241 
L 98.469334 73.597241 
L 101.355329 73.597241 
L 104.241323 73.597241 
L 107.127318 73.597241 
L 110.013313 73.597241 
L 112.899307 73.597241 
L 115.785302 73.597241 
L 118.671296 73.597241 
L 121.557291 73.597241 
L 124.443285 73.597241 
L 127.32928 73.597241 
L 130.215274 73.597241 
L 133.101269 73.597241 
L 135.987264 73.597241 
L 138.873258 73.597241 
L 141.759253 73.597241 
L 144.645247 73.597241 
L 147.531242 73.597241 
L 150.417236 73.597241 
L 153.303231 73.597241 
L 156.189225 73.597241 
L 159.07522 73.597241 
L 161.961215 73.597241 
L 164.847209 73.597241 
L 167.733204 73.597241 
L 170.619198 73.597241 
L 173.505193 73.597241 
L 176.391187 73.597241 
L 179.277182 73.597241 
L 182.163176 73.597241 
L 185.049171 73.597241 
L 187.935166 73.597241 
L 190.82116 73.597241 
L 193.707155 73.597241 
L 196.593149 73.597241 
L 199.479144 73.597241 
L 202.365138 73.597241 
L 205.251133 73.597241 
L 208.137127 73.597241 
L 211.023122 73.597241 
L 213.909117 73.597241 
L 216.795111 73.597241 
L 219.681106 73.597241 
L 222.5671 73.597241 
L 225.453095 73.597241 
L 228.339089 73.597241 
L 231.225084 73.597241 
L 234.111078 73.597241 
L 236.997073 73.597241 
L 239.883068 73.597241 
L 242.769062 73.597241 
L 245.655057 73.597241 
L 248.541051 73.597241 
L 251.427046 73.597241 
L 254.31304 73.597241 
L 257.199035 73.597241 
L 260.085029 73.597241 
L 262.971024 73.597241 
L 265.857019 73.597241 
L 268.743013 73.597241 
L 271.629008 73.597241 
L 274.515002 73.597241 
L 277.400997 73.597241 
L 280.286991 73.597241 
L 283.172986 73.597241 
L 286.05898 73.597241 
L 288.944975 73.597241 
L 291.83097 73.597241 
L 294.716964 73.597241 
L 297.602959 73.597241 
L 300.488953 73.597241 
L 303.374948 73.597241 
L 306.260942 73.597241 
L 309.146937 73.597241 
L 312.032932 73.597241 
L 314.918926 73.597241 
L 317.804921 73.597241 
L 320.690915 73.597241 
L 323.57691 73.597241 
L 326.462904 73.597241 
L 329.348899 73.597241 
L 332.234893 73.597241 
L 335.120888 73.597241 
L 338.006883 73.597241 
L 340.892877 73.597241 
L 340.892877 73.588973 
L 340.892877 73.588973 
L 338.006883 73.582035 
L 335.120888 73.570468 
L 332.234893 73.552102 
L 329.348899 73.524333 
L 326.462904 73.484371 
L 323.57691 73.429645 
L 320.690915 73.35832 
L 317.804921 73.269816 
L 314.918926 73.165131 
L 312.032932 73.046812 
L 309.146937 72.918475 
L 306.260942 72.783957 
L 303.374948 72.646323 
L 300.488953 72.507128 
L 297.602959 72.366298 
L 294.716964 72.222821 
L 291.83097 72.076163 
L 288.944975 71.928001 
L 286.05898 71.783641 
L 283.172986 71.65252 
L 280.286991 71.54742 
L 277.400997 71.482415 
L 274.515002 71.47002 
L 271.629008 71.518279 
L 268.743013 71.628618 
L 265.857019 71.795047 
L 262.971024 72.004947 
L 260.085029 72.241189 
L 257.199035 72.485016 
L 254.31304 72.718927 
L 251.427046 72.928912 
L 248.541051 73.105622 
L 245.655057 73.244411 
L 242.769062 73.344477 
L 239.883068 73.407522 
L 236.997073 73.43638 
L 234.111078 73.433953 
L 231.225084 73.402613 
L 228.339089 73.343999 
L 225.453095 73.258982 
L 222.5671 73.14743 
L 219.681106 73.007465 
L 216.795111 72.834079 
L 213.909117 72.617266 
L 211.023122 72.340249 
L 208.137127 71.978657 
L 205.251133 71.501586 
L 202.365138 70.875223 
L 199.479144 70.069017 
L 196.593149 69.063513 
L 193.707155 67.858092 
L 190.82116 66.47639 
L 187.935166 64.967375 
L 185.049171 63.400966 
L 182.163176 61.858558 
L 179.277182 60.42035 
L 176.391187 59.152412 
L 173.505193 58.096631 
L 170.619198 57.265823 
L 167.733204 56.644772 
L 164.847209 56.196175 
L 161.961215 55.869249 
L 159.07522 55.608229 
L 156.189225 55.358542 
L 153.303231 55.069499 
L 150.417236 54.693632 
L 147.531242 54.183765 
L 144.645247 53.489346 
L 141.759253 52.553475 
L 138.873258 51.311724 
L 135.987264 49.69347 
L 133.101269 47.626294 
L 130.215274 45.044041 
L 127.32928 41.899181 
L 124.443285 38.179741 
L 121.557291 33.929993 
L 118.671296 29.27199 
L 115.785302 24.422509 
L 112.899307 19.697859 
L 110.013313 15.498922 
L 107.127318 12.271902 
L 104.241323 10.44655 
L 101.355329 10.361773 
L 98.469334 12.195299 
L 95.58334 15.916445 
L 92.697345 21.277023 
L 89.811351 27.845596 
L 86.925356 35.078033 
L 84.039362 42.406933 
L 81.153367 49.327967 
L 78.267372 55.463765 
L 75.381378 60.594321 
L 72.495383 64.65328 
L 69.609389 67.698242 
L 66.723394 69.867782 
L 63.8374 71.337721 
L 60.951405 72.285669 
L 58.065411 72.867964 
L 55.179416 73.208868 
z
" style="fill:#1f77b4;fill-opacity:0.25;"/>
   </g>
   <g id="line2d_23">
    <path clip-path="url(#p08f74884a0)" d="M 55.179416 73.208868 
L 58.065411 72.867964 
L 60.951405 72.285669 
L 63.8374 71.337721 
L 66.723394 69.867782 
L 69.609389 67.698242 
L 72.495383 64.65328 
L 75.381378 60.594321 
L 78.267372 55.463765 
L 81.153367 49.327967 
L 84.039362 42.406933 
L 86.925356 35.078033 
L 89.811351 27.845596 
L 92.697345 21.277023 
L 95.58334 15.916445 
L 98.469334 12.195299 
L 101.355329 10.361773 
L 104.241323 10.44655 
L 107.127318 12.271902 
L 110.013313 15.498922 
L 112.899307 19.697859 
L 115.785302 24.422509 
L 118.671296 29.27199 
L 121.557291 33.929993 
L 124.443285 38.179741 
L 127.32928 41.899181 
L 130.215274 45.044041 
L 133.101269 47.626294 
L 135.987264 49.69347 
L 138.873258 51.311724 
L 141.759253 52.553475 
L 144.645247 53.489346 
L 147.531242 54.183765 
L 150.417236 54.693632 
L 153.303231 55.069499 
L 156.189225 55.358542 
L 159.07522 55.608229 
L 161.961215 55.869249 
L 164.847209 56.196175 
L 167.733204 56.644772 
L 170.619198 57.265823 
L 173.505193 58.096631 
L 176.391187 59.152412 
L 179.277182 60.42035 
L 182.163176 61.858558 
L 185.049171 63.400966 
L 187.935166 64.967375 
L 190.82116 66.47639 
L 193.707155 67.858092 
L 196.593149 69.063513 
L 199.479144 70.069017 
L 202.365138 70.875223 
L 205.251133 71.501586 
L 208.137127 71.978657 
L 211.023122 72.340249 
L 213.909117 72.617266 
L 216.795111 72.834079 
L 219.681106 73.007465 
L 222.5671 73.14743 
L 225.453095 73.258982 
L 228.339089 73.343999 
L 231.225084 73.402613 
L 234.111078 73.433953 
L 236.997073 73.43638 
L 239.883068 73.407522 
L 242.769062 73.344477 
L 245.655057 73.244411 
L 248.541051 73.105622 
L 251.427046 72.928912 
L 254.31304 72.718927 
L 257.199035 72.485016 
L 260.085029 72.241189 
L 262.971024 72.004947 
L 265.857019 71.795047 
L 268.743013 71.628618 
L 271.629008 71.518279 
L 274.515002 71.47002 
L 277.400997 71.482415 
L 280.286991 71.54742 
L 283.172986 71.65252 
L 286.05898 71.783641 
L 288.944975 71.928001 
L 291.83097 72.076163 
L 294.716964 72.222821 
L 297.602959 72.366298 
L 300.488953 72.507128 
L 303.374948 72.646323 
L 306.260942 72.783957 
L 309.146937 72.918475 
L 312.032932 73.046812 
L 314.918926 73.165131 
L 317.804921 73.269816 
L 320.690915 73.35832 
L 323.57691 73.429645 
L 326.462904 73.484371 
L 329.348899 73.524333 
L 332.234893 73.552102 
L 335.120888 73.570468 
L 338.006883 73.582035 
L 340.892877 73.588973 
" style="fill:none;stroke:#1f77b4;stroke-linecap:round;stroke-width:1.4;"/>
   </g>
   <g id="patch_6">
    <path d="M 47.53525 73.597241 
L 348.537043 73.597241 
" style="fill:none;stroke:#262626;stroke-linecap:square;stroke-linejoin:miter;stroke-width:1.25;"/>
   </g>
  </g>
  <g id="axes_3">
   <g id="patch_7">
    <path d="M 361.624078 392.304 
L 427.05925 392.304 
L 427.05925 86.87669 
L 361.624078 86.87669 
z
" style="fill:#ffffff;"/>
   </g>
   <g id="matplotlib.axis_5">
    <g id="xtick_13"/>
    <g id="xtick_14"/>
   </g>
   <g id="matplotlib.axis_6">
    <g id="ytick_12">
     <g id="line2d_24"/>
    </g>
    <g id="ytick_13">
     <g id="line2d_25"/>
    </g>
    <g id="ytick_14">
     <g id="line2d_26"/>
    </g>
    <g id="ytick_15">
     <g id="line2d_27"/>
    </g>
    <g id="ytick_16">
     <g id="line2d_28"/>
    </g>
    <g id="ytick_17">
     <g id="line2d_29"/>
    </g>
    <g id="ytick_18">
     <g id="line2d_30"/>
    </g>
    <g id="ytick_19">
     <g id="line2d_31"/>
    </g>
   </g>
   <g id="PolyCollection_2">
    <path clip-path="url(#pf0c2b9c597)" d="M 361.852712 384.098542 
L 361.624078 384.098542 
L 361.624078 381.179185 
L 361.624078 378.259827 
L 361.624078 375.340469 
L 361.624078 372.421112 
L 361.624078 369.501754 
L 361.624078 366.582397 
L 361.624078 363.663039 
L 361.624078 360.743682 
L 361.624078 357.824324 
L 361.624078 354.904967 
L 361.624078 351.985609 
L 361.624078 349.066252 
L 361.624078 346.146894 
L 361.624078 343.227537 
L 361.624078 340.308179 
L 361.624078 337.388822 
L 361.624078 334.469464 
L 361.624078 331.550107 
L 361.624078 328.630749 
L 361.624078 325.711392 
L 361.624078 322.792034 
L 361.624078 319.872677 
L 361.624078 316.953319 
L 361.624078 314.033962 
L 361.624078 311.114604 
L 361.624078 308.195247 
L 361.624078 305.275889 
L 361.624078 302.356531 
L 361.624078 299.437174 
L 361.624078 296.517816 
L 361.624078 293.598459 
L 361.624078 290.679101 
L 361.624078 287.759744 
L 361.624078 284.840386 
L 361.624078 281.921029 
L 361.624078 279.001671 
L 361.624078 276.082314 
L 361.624078 273.162956 
L 361.624078 270.243599 
L 361.624078 267.324241 
L 361.624078 264.404884 
L 361.624078 261.485526 
L 361.624078 258.566169 
L 361.624078 255.646811 
L 361.624078 252.727454 
L 361.624078 249.808096 
L 361.624078 246.888739 
L 361.624078 243.969381 
L 361.624078 241.050024 
L 361.624078 238.130666 
L 361.624078 235.211309 
L 361.624078 232.291951 
L 361.624078 229.372594 
L 361.624078 226.453236 
L 361.624078 223.533878 
L 361.624078 220.614521 
L 361.624078 217.695163 
L 361.624078 214.775806 
L 361.624078 211.856448 
L 361.624078 208.937091 
L 361.624078 206.017733 
L 361.624078 203.098376 
L 361.624078 200.179018 
L 361.624078 197.259661 
L 361.624078 194.340303 
L 361.624078 191.420946 
L 361.624078 188.501588 
L 361.624078 185.582231 
L 361.624078 182.662873 
L 361.624078 179.743516 
L 361.624078 176.824158 
L 361.624078 173.904801 
L 361.624078 170.985443 
L 361.624078 168.066086 
L 361.624078 165.146728 
L 361.624078 162.227371 
L 361.624078 159.308013 
L 361.624078 156.388656 
L 361.624078 153.469298 
L 361.624078 150.54994 
L 361.624078 147.630583 
L 361.624078 144.711225 
L 361.624078 141.791868 
L 361.624078 138.87251 
L 361.624078 135.953153 
L 361.624078 133.033795 
L 361.624078 130.114438 
L 361.624078 127.19508 
L 361.624078 124.275723 
L 361.624078 121.356365 
L 361.624078 118.437008 
L 361.624078 115.51765 
L 361.624078 112.598293 
L 361.624078 109.678935 
L 361.624078 106.759578 
L 361.624078 103.84022 
L 361.624078 100.920863 
L 361.624078 98.001505 
L 361.624078 95.082148 
L 361.631887 95.082148 
L 361.631887 95.082148 
L 361.637936 98.001505 
L 361.647722 100.920863 
L 361.662865 103.84022 
L 361.685261 106.759578 
L 361.716884 109.678935 
L 361.759465 112.598293 
L 361.814058 115.51765 
L 361.88058 118.437008 
L 361.95744 121.356365 
L 362.041411 124.275723 
L 362.127873 127.19508 
L 362.2115 130.114438 
L 362.287328 133.033795 
L 362.352024 135.953153 
L 362.405065 138.87251 
L 362.44949 141.791868 
L 362.49196 144.711225 
L 362.542007 147.630583 
L 362.610537 150.54994 
L 362.707888 153.469298 
L 362.841827 156.388656 
L 363.015963 159.308013 
L 363.22891 162.227371 
L 363.474409 165.146728 
L 363.742363 168.066086 
L 364.020538 170.985443 
L 364.296551 173.904801 
L 364.559713 176.824158 
L 364.802371 179.743516 
L 365.020525 182.662873 
L 365.213701 185.582231 
L 365.384165 188.501588 
L 365.535689 191.420946 
L 365.672111 194.340303 
L 365.79593 197.259661 
L 365.907197 200.179018 
L 366.002971 203.098376 
L 366.077596 206.017733 
L 366.123962 208.937091 
L 366.135711 211.856448 
L 366.110044 214.775806 
L 366.05047 217.695163 
L 365.968669 220.614521 
L 365.884688 223.533878 
L 365.825041 226.453236 
L 365.818855 229.372594 
L 365.892782 232.291951 
L 366.065855 235.211309 
L 366.34558 238.130666 
L 366.726307 241.050024 
L 367.190351 243.969381 
L 367.711684 246.888739 
L 368.261371 249.808096 
L 368.813575 252.727454 
L 369.350841 255.646811 
L 369.867675 258.566169 
L 370.371858 261.485526 
L 370.88355 264.404884 
L 371.432762 267.324241 
L 372.056092 270.243599 
L 372.793665 273.162956 
L 373.686961 276.082314 
L 374.777702 279.001671 
L 376.10746 281.921029 
L 377.717245 284.840386 
L 379.646283 287.759744 
L 381.929392 290.679101 
L 384.592887 293.598459 
L 387.649374 296.517816 
L 391.092118 299.437174 
L 394.889639 302.356531 
L 398.980991 305.275889 
L 403.271919 308.195247 
L 407.632086 311.114604 
L 411.893935 314.033962 
L 415.854428 316.953319 
L 419.281568 319.872677 
L 421.927731 322.792034 
L 423.550943 325.711392 
L 423.943289 328.630749 
L 422.962887 331.550107 
L 420.563386 334.469464 
L 416.813691 337.388822 
L 411.901539 340.308179 
L 406.117731 343.227537 
L 399.822463 346.146894 
L 393.399868 349.066252 
L 387.209949 351.985609 
L 381.54758 354.904967 
L 376.615991 357.824324 
L 372.518078 360.743682 
L 369.264407 363.663039 
L 366.793276 366.582397 
L 364.996516 369.501754 
L 363.744997 372.421112 
L 362.90947 375.340469 
L 362.374609 378.259827 
L 362.046193 381.179185 
L 361.852712 384.098542 
z
" style="fill:#1f77b4;fill-opacity:0.25;"/>
   </g>
   <g id="line2d_32">
    <path clip-path="url(#pf0c2b9c597)" d="M 361.852712 384.098542 
L 362.046193 381.179185 
L 362.374609 378.259827 
L 362.90947 375.340469 
L 363.744997 372.421112 
L 364.996516 369.501754 
L 366.793276 366.582397 
L 369.264407 363.663039 
L 372.518078 360.743682 
L 376.615991 357.824324 
L 381.54758 354.904967 
L 387.209949 351.985609 
L 393.399868 349.066252 
L 399.822463 346.146894 
L 406.117731 343.227537 
L 411.901539 340.308179 
L 416.813691 337.388822 
L 420.563386 334.469464 
L 422.962887 331.550107 
L 423.943289 328.630749 
L 423.550943 325.711392 
L 421.927731 322.792034 
L 419.281568 319.872677 
L 415.854428 316.953319 
L 411.893935 314.033962 
L 407.632086 311.114604 
L 403.271919 308.195247 
L 398.980991 305.275889 
L 394.889639 302.356531 
L 391.092118 299.437174 
L 387.649374 296.517816 
L 384.592887 293.598459 
L 381.929392 290.679101 
L 379.646283 287.759744 
L 377.717245 284.840386 
L 376.10746 281.921029 
L 374.777702 279.001671 
L 373.686961 276.082314 
L 372.793665 273.162956 
L 372.056092 270.243599 
L 371.432762 267.324241 
L 370.88355 264.404884 
L 370.371858 261.485526 
L 369.867675 258.566169 
L 369.350841 255.646811 
L 368.813575 252.727454 
L 368.261371 249.808096 
L 367.711684 246.888739 
L 367.190351 243.969381 
L 366.726307 241.050024 
L 366.34558 238.130666 
L 366.065855 235.211309 
L 365.892782 232.291951 
L 365.818855 229.372594 
L 365.825041 226.453236 
L 365.884688 223.533878 
L 365.968669 220.614521 
L 366.05047 217.695163 
L 366.110044 214.775806 
L 366.135711 211.856448 
L 366.123962 208.937091 
L 366.077596 206.017733 
L 366.002971 203.098376 
L 365.907197 200.179018 
L 365.79593 197.259661 
L 365.672111 194.340303 
L 365.535689 191.420946 
L 365.384165 188.501588 
L 365.213701 185.582231 
L 365.020525 182.662873 
L 364.802371 179.743516 
L 364.559713 176.824158 
L 364.296551 173.904801 
L 364.020538 170.985443 
L 363.742363 168.066086 
L 363.474409 165.146728 
L 363.22891 162.227371 
L 363.015963 159.308013 
L 362.841827 156.388656 
L 362.707888 153.469298 
L 362.610537 150.54994 
L 362.542007 147.630583 
L 362.49196 144.711225 
L 362.44949 141.791868 
L 362.405065 138.87251 
L 362.352024 135.953153 
L 362.287328 133.033795 
L 362.2115 130.114438 
L 362.127873 127.19508 
L 362.041411 124.275723 
L 361.95744 121.356365 
L 361.88058 118.437008 
L 361.814058 115.51765 
L 361.759465 112.598293 
L 361.716884 109.678935 
L 361.685261 106.759578 
L 361.662865 103.84022 
L 361.647722 100.920863 
L 361.637936 98.001505 
L 361.631887 95.082148 
" style="fill:none;stroke:#1f77b4;stroke-linecap:round;stroke-width:1.4;"/>
   </g>
   <g id="patch_8">
    <path d="M 361.624078 392.304 
L 361.624078 86.87669 
" style="fill:none;stroke:#262626;stroke-linecap:square;stroke-linejoin:miter;stroke-width:1.25;"/>
   </g>
  </g>
 </g>
 <defs>
  <clipPath id="pf49502077d">
   <rect height="305.42731" width="301.001793" x="47.53525" y="86.87669"/>
  </clipPath>
  <clipPath id="p08f74884a0">
   <rect height="66.397241" width="301.001793" x="47.53525" y="7.2"/>
  </clipPath>
  <clipPath id="pf0c2b9c597">
   <rect height="305.42731" width="65.435172" x="361.624078" y="86.87669"/>
  </clipPath>
 </defs>
</svg>
