<?xml version="1.0" encoding="utf-8" standalone="no"?>
<!DOCTYPE svg PUBLIC "-//W3C//DTD SVG 1.1//EN"
  "http://www.w3.org/Graphics/SVG/1.1/DTD/svg11.dtd">
<!-- Created with matplotlib (http://matplotlib.org/) -->
<svg height="432pt" version="1.1" viewBox="0 0 1152 432" width="1152pt" xmlns="http://www.w3.org/2000/svg" xmlns:xlink="http://www.w3.org/1999/xlink">
 <defs>
  <style type="text/css">
*{stroke-linecap:butt;stroke-linejoin:round;}
  </style>
 </defs>
 <g id="figure_1">
  <g id="patch_1">
   <path d="M 0 432 
L 1152 432 
L 1152 0 
L 0 0 
z
" style="fill:#ffffff;"/>
  </g>
  <g id="axes_1">
   <g id="patch_2">
    <path d="M 144 345.6 
L 1036.8 345.6 
L 1036.8 51.84 
L 144 51.84 
z
" style="fill:#eaeaf2;"/>
   </g>
   <g id="matplotlib.axis_1">
    <g id="xtick_1">
     <g id="line2d_1">
      <path clip-path="url(#p2e22e46283)" d="M 246.931609 345.6 
L 246.931609 51.84 
" style="fill:none;stroke:#ffffff;stroke-linecap:round;stroke-width:0.8;"/>
     </g>
     <g id="line2d_2"/>
     <g id="text_1">
      <!-- 2013 -->
      <defs>
       <path d="M 19.1875 8.296875 
L 53.609375 8.296875 
L 53.609375 0 
L 7.328125 0 
L 7.328125 8.296875 
Q 12.9375 14.109375 22.625 23.890625 
Q 32.328125 33.6875 34.8125 36.53125 
Q 39.546875 41.84375 41.421875 45.53125 
Q 43.3125 49.21875 43.3125 52.78125 
Q 43.3125 58.59375 39.234375 62.25 
Q 35.15625 65.921875 28.609375 65.921875 
Q 23.96875 65.921875 18.8125 64.3125 
Q 13.671875 62.703125 7.8125 59.421875 
L 7.8125 69.390625 
Q 13.765625 71.78125 18.9375 73 
Q 24.125 74.21875 28.421875 74.21875 
Q 39.75 74.21875 46.484375 68.546875 
Q 53.21875 62.890625 53.21875 53.421875 
Q 53.21875 48.921875 51.53125 44.890625 
Q 49.859375 40.875 45.40625 35.40625 
Q 44.1875 33.984375 37.640625 27.21875 
Q 31.109375 20.453125 19.1875 8.296875 
z
" id="DejaVuSans-32"/>
       <path d="M 31.78125 66.40625 
Q 24.171875 66.40625 20.328125 58.90625 
Q 16.5 51.421875 16.5 36.375 
Q 16.5 21.390625 20.328125 13.890625 
Q 24.171875 6.390625 31.78125 6.390625 
Q 39.453125 6.390625 43.28125 13.890625 
Q 47.125 21.390625 47.125 36.375 
Q 47.125 51.421875 43.28125 58.90625 
Q 39.453125 66.40625 31.78125 66.40625 
z
M 31.78125 74.21875 
Q 44.046875 74.21875 50.515625 64.515625 
Q 56.984375 54.828125 56.984375 36.375 
Q 56.984375 17.96875 50.515625 8.265625 
Q 44.046875 -1.421875 31.78125 -1.421875 
Q 19.53125 -1.421875 13.0625 8.265625 
Q 6.59375 17.96875 6.59375 36.375 
Q 6.59375 54.828125 13.0625 64.515625 
Q 19.53125 74.21875 31.78125 74.21875 
z
" id="DejaVuSans-30"/>
       <path d="M 12.40625 8.296875 
L 28.515625 8.296875 
L 28.515625 63.921875 
L 10.984375 60.40625 
L 10.984375 69.390625 
L 28.421875 72.90625 
L 38.28125 72.90625 
L 38.28125 8.296875 
L 54.390625 8.296875 
L 54.390625 0 
L 12.40625 0 
z
" id="DejaVuSans-31"/>
       <path d="M 40.578125 39.3125 
Q 47.65625 37.796875 51.625 33 
Q 55.609375 28.21875 55.609375 21.1875 
Q 55.609375 10.40625 48.1875 4.484375 
Q 40.765625 -1.421875 27.09375 -1.421875 
Q 22.515625 -1.421875 17.65625 -0.515625 
Q 12.796875 0.390625 7.625 2.203125 
L 7.625 11.71875 
Q 11.71875 9.328125 16.59375 8.109375 
Q 21.484375 6.890625 26.8125 6.890625 
Q 36.078125 6.890625 40.9375 10.546875 
Q 45.796875 14.203125 45.796875 21.1875 
Q 45.796875 27.640625 41.28125 31.265625 
Q 36.765625 34.90625 28.71875 34.90625 
L 20.21875 34.90625 
L 20.21875 43.015625 
L 29.109375 43.015625 
Q 36.375 43.015625 40.234375 45.921875 
Q 44.09375 48.828125 44.09375 54.296875 
Q 44.09375 59.90625 40.109375 62.90625 
Q 36.140625 65.921875 28.71875 65.921875 
Q 24.65625 65.921875 20.015625 65.03125 
Q 15.375 64.15625 9.8125 62.3125 
L 9.8125 71.09375 
Q 15.4375 72.65625 20.34375 73.4375 
Q 25.25 74.21875 29.59375 74.21875 
Q 40.828125 74.21875 47.359375 69.109375 
Q 53.90625 64.015625 53.90625 55.328125 
Q 53.90625 49.265625 50.4375 45.09375 
Q 46.96875 40.921875 40.578125 39.3125 
z
" id="DejaVuSans-33"/>
      </defs>
      <g style="fill:#262626;" transform="translate(223.851418 368.40544)rotate(-30)scale(0.1 -0.1)">
       <use xlink:href="#DejaVuSans-32"/>
       <use x="63.623047" xlink:href="#DejaVuSans-30"/>
       <use x="127.246094" xlink:href="#DejaVuSans-31"/>
       <use x="190.869141" xlink:href="#DejaVuSans-33"/>
      </g>
     </g>
    </g>
    <g id="xtick_2">
     <g id="line2d_3">
      <path clip-path="url(#p2e22e46283)" d="M 395.779612 345.6 
L 395.779612 51.84 
" style="fill:none;stroke:#ffffff;stroke-linecap:round;stroke-width:0.8;"/>
     </g>
     <g id="line2d_4"/>
     <g id="text_2">
      <!-- 2014 -->
      <defs>
       <path d="M 37.796875 64.3125 
L 12.890625 25.390625 
L 37.796875 25.390625 
z
M 35.203125 72.90625 
L 47.609375 72.90625 
L 47.609375 25.390625 
L 58.015625 25.390625 
L 58.015625 17.1875 
L 47.609375 17.1875 
L 47.609375 0 
L 37.796875 0 
L 37.796875 17.1875 
L 4.890625 17.1875 
L 4.890625 26.703125 
z
" id="DejaVuSans-34"/>
      </defs>
      <g style="fill:#262626;" transform="translate(372.699422 368.40544)rotate(-30)scale(0.1 -0.1)">
       <use xlink:href="#DejaVuSans-32"/>
       <use x="63.623047" xlink:href="#DejaVuSans-30"/>
       <use x="127.246094" xlink:href="#DejaVuSans-31"/>
       <use x="190.869141" xlink:href="#DejaVuSans-34"/>
      </g>
     </g>
    </g>
    <g id="xtick_3">
     <g id="line2d_5">
      <path clip-path="url(#p2e22e46283)" d="M 544.627615 345.6 
L 544.627615 51.84 
" style="fill:none;stroke:#ffffff;stroke-linecap:round;stroke-width:0.8;"/>
     </g>
     <g id="line2d_6"/>
     <g id="text_3">
      <!-- 2015 -->
      <defs>
       <path d="M 10.796875 72.90625 
L 49.515625 72.90625 
L 49.515625 64.59375 
L 19.828125 64.59375 
L 19.828125 46.734375 
Q 21.96875 47.46875 24.109375 47.828125 
Q 26.265625 48.1875 28.421875 48.1875 
Q 40.625 48.1875 47.75 41.5 
Q 54.890625 34.8125 54.890625 23.390625 
Q 54.890625 11.625 47.5625 5.09375 
Q 40.234375 -1.421875 26.90625 -1.421875 
Q 22.3125 -1.421875 17.546875 -0.640625 
Q 12.796875 0.140625 7.71875 1.703125 
L 7.71875 11.625 
Q 12.109375 9.234375 16.796875 8.0625 
Q 21.484375 6.890625 26.703125 6.890625 
Q 35.15625 6.890625 40.078125 11.328125 
Q 45.015625 15.765625 45.015625 23.390625 
Q 45.015625 31 40.078125 35.4375 
Q 35.15625 39.890625 26.703125 39.890625 
Q 22.75 39.890625 18.8125 39.015625 
Q 14.890625 38.140625 10.796875 36.28125 
z
" id="DejaVuSans-35"/>
      </defs>
      <g style="fill:#262626;" transform="translate(521.547425 368.40544)rotate(-30)scale(0.1 -0.1)">
       <use xlink:href="#DejaVuSans-32"/>
       <use x="63.623047" xlink:href="#DejaVuSans-30"/>
       <use x="127.246094" xlink:href="#DejaVuSans-31"/>
       <use x="190.869141" xlink:href="#DejaVuSans-35"/>
      </g>
     </g>
    </g>
    <g id="xtick_4">
     <g id="line2d_7">
      <path clip-path="url(#p2e22e46283)" d="M 693.475618 345.6 
L 693.475618 51.84 
" style="fill:none;stroke:#ffffff;stroke-linecap:round;stroke-width:0.8;"/>
     </g>
     <g id="line2d_8"/>
     <g id="text_4">
      <!-- 2016 -->
      <defs>
       <path d="M 33.015625 40.375 
Q 26.375 40.375 22.484375 35.828125 
Q 18.609375 31.296875 18.609375 23.390625 
Q 18.609375 15.53125 22.484375 10.953125 
Q 26.375 6.390625 33.015625 6.390625 
Q 39.65625 6.390625 43.53125 10.953125 
Q 47.40625 15.53125 47.40625 23.390625 
Q 47.40625 31.296875 43.53125 35.828125 
Q 39.65625 40.375 33.015625 40.375 
z
M 52.59375 71.296875 
L 52.59375 62.3125 
Q 48.875 64.0625 45.09375 64.984375 
Q 41.3125 65.921875 37.59375 65.921875 
Q 27.828125 65.921875 22.671875 59.328125 
Q 17.53125 52.734375 16.796875 39.40625 
Q 19.671875 43.65625 24.015625 45.921875 
Q 28.375 48.1875 33.59375 48.1875 
Q 44.578125 48.1875 50.953125 41.515625 
Q 57.328125 34.859375 57.328125 23.390625 
Q 57.328125 12.15625 50.6875 5.359375 
Q 44.046875 -1.421875 33.015625 -1.421875 
Q 20.359375 -1.421875 13.671875 8.265625 
Q 6.984375 17.96875 6.984375 36.375 
Q 6.984375 53.65625 15.1875 63.9375 
Q 23.390625 74.21875 37.203125 74.21875 
Q 40.921875 74.21875 44.703125 73.484375 
Q 48.484375 72.75 52.59375 71.296875 
z
" id="DejaVuSans-36"/>
      </defs>
      <g style="fill:#262626;" transform="translate(670.395428 368.40544)rotate(-30)scale(0.1 -0.1)">
       <use xlink:href="#DejaVuSans-32"/>
       <use x="63.623047" xlink:href="#DejaVuSans-30"/>
       <use x="127.246094" xlink:href="#DejaVuSans-31"/>
       <use x="190.869141" xlink:href="#DejaVuSans-36"/>
      </g>
     </g>
    </g>
    <g id="xtick_5">
     <g id="line2d_9">
      <path clip-path="url(#p2e22e46283)" d="M 842.731424 345.6 
L 842.731424 51.84 
" style="fill:none;stroke:#ffffff;stroke-linecap:round;stroke-width:0.8;"/>
     </g>
     <g id="line2d_10"/>
     <g id="text_5">
      <!-- 2017 -->
      <defs>
       <path d="M 8.203125 72.90625 
L 55.078125 72.90625 
L 55.078125 68.703125 
L 28.609375 0 
L 18.3125 0 
L 43.21875 64.59375 
L 8.203125 64.59375 
z
" id="DejaVuSans-37"/>
      </defs>
      <g style="fill:#262626;" transform="translate(819.651234 368.40544)rotate(-30)scale(0.1 -0.1)">
       <use xlink:href="#DejaVuSans-32"/>
       <use x="63.623047" xlink:href="#DejaVuSans-30"/>
       <use x="127.246094" xlink:href="#DejaVuSans-31"/>
       <use x="190.869141" xlink:href="#DejaVuSans-37"/>
      </g>
     </g>
    </g>
    <g id="xtick_6">
     <g id="line2d_11">
      <path clip-path="url(#p2e22e46283)" d="M 991.579428 345.6 
L 991.579428 51.84 
" style="fill:none;stroke:#ffffff;stroke-linecap:round;stroke-width:0.8;"/>
     </g>
     <g id="line2d_12"/>
     <g id="text_6">
      <!-- 2018 -->
      <defs>
       <path d="M 31.78125 34.625 
Q 24.75 34.625 20.71875 30.859375 
Q 16.703125 27.09375 16.703125 20.515625 
Q 16.703125 13.921875 20.71875 10.15625 
Q 24.75 6.390625 31.78125 6.390625 
Q 38.8125 6.390625 42.859375 10.171875 
Q 46.921875 13.96875 46.921875 20.515625 
Q 46.921875 27.09375 42.890625 30.859375 
Q 38.875 34.625 31.78125 34.625 
z
M 21.921875 38.8125 
Q 15.578125 40.375 12.03125 44.71875 
Q 8.5 49.078125 8.5 55.328125 
Q 8.5 64.0625 14.71875 69.140625 
Q 20.953125 74.21875 31.78125 74.21875 
Q 42.671875 74.21875 48.875 69.140625 
Q 55.078125 64.0625 55.078125 55.328125 
Q 55.078125 49.078125 51.53125 44.71875 
Q 48 40.375 41.703125 38.8125 
Q 48.828125 37.15625 52.796875 32.3125 
Q 56.78125 27.484375 56.78125 20.515625 
Q 56.78125 9.90625 50.3125 4.234375 
Q 43.84375 -1.421875 31.78125 -1.421875 
Q 19.734375 -1.421875 13.25 4.234375 
Q 6.78125 9.90625 6.78125 20.515625 
Q 6.78125 27.484375 10.78125 32.3125 
Q 14.796875 37.15625 21.921875 38.8125 
z
M 18.3125 54.390625 
Q 18.3125 48.734375 21.84375 45.5625 
Q 25.390625 42.390625 31.78125 42.390625 
Q 38.140625 42.390625 41.71875 45.5625 
Q 45.3125 48.734375 45.3125 54.390625 
Q 45.3125 60.0625 41.71875 63.234375 
Q 38.140625 66.40625 31.78125 66.40625 
Q 25.390625 66.40625 21.84375 63.234375 
Q 18.3125 60.0625 18.3125 54.390625 
z
" id="DejaVuSans-38"/>
      </defs>
      <g style="fill:#262626;" transform="translate(968.499237 368.40544)rotate(-30)scale(0.1 -0.1)">
       <use xlink:href="#DejaVuSans-32"/>
       <use x="63.623047" xlink:href="#DejaVuSans-30"/>
       <use x="127.246094" xlink:href="#DejaVuSans-31"/>
       <use x="190.869141" xlink:href="#DejaVuSans-38"/>
      </g>
     </g>
    </g>
    <g id="xtick_7">
     <g id="line2d_13"/>
    </g>
    <g id="xtick_8">
     <g id="line2d_14"/>
    </g>
    <g id="xtick_9">
     <g id="line2d_15"/>
    </g>
    <g id="xtick_10">
     <g id="line2d_16"/>
    </g>
    <g id="xtick_11">
     <g id="line2d_17"/>
    </g>
    <g id="xtick_12">
     <g id="line2d_18"/>
    </g>
    <g id="xtick_13">
     <g id="line2d_19"/>
    </g>
    <g id="xtick_14">
     <g id="line2d_20"/>
    </g>
    <g id="xtick_15">
     <g id="line2d_21"/>
    </g>
    <g id="xtick_16">
     <g id="line2d_22"/>
    </g>
    <g id="xtick_17">
     <g id="line2d_23"/>
    </g>
    <g id="xtick_18">
     <g id="line2d_24"/>
    </g>
    <g id="xtick_19">
     <g id="line2d_25"/>
    </g>
    <g id="xtick_20">
     <g id="line2d_26"/>
    </g>
    <g id="xtick_21">
     <g id="line2d_27"/>
    </g>
    <g id="xtick_22">
     <g id="line2d_28"/>
    </g>
    <g id="xtick_23">
     <g id="line2d_29"/>
    </g>
    <g id="xtick_24">
     <g id="line2d_30"/>
    </g>
    <g id="xtick_25">
     <g id="line2d_31"/>
    </g>
    <g id="xtick_26">
     <g id="line2d_32"/>
    </g>
    <g id="xtick_27">
     <g id="line2d_33"/>
    </g>
    <g id="xtick_28">
     <g id="line2d_34"/>
    </g>
    <g id="xtick_29">
     <g id="line2d_35"/>
    </g>
    <g id="xtick_30">
     <g id="line2d_36"/>
    </g>
    <g id="xtick_31">
     <g id="line2d_37"/>
    </g>
    <g id="xtick_32">
     <g id="line2d_38"/>
    </g>
    <g id="xtick_33">
     <g id="line2d_39"/>
    </g>
    <g id="xtick_34">
     <g id="line2d_40"/>
    </g>
    <g id="xtick_35">
     <g id="line2d_41"/>
    </g>
    <g id="xtick_36">
     <g id="line2d_42"/>
    </g>
    <g id="xtick_37">
     <g id="line2d_43"/>
    </g>
    <g id="xtick_38">
     <g id="line2d_44"/>
    </g>
    <g id="xtick_39">
     <g id="line2d_45"/>
    </g>
    <g id="xtick_40">
     <g id="line2d_46"/>
    </g>
    <g id="xtick_41">
     <g id="line2d_47"/>
    </g>
    <g id="xtick_42">
     <g id="line2d_48"/>
    </g>
    <g id="xtick_43">
     <g id="line2d_49"/>
    </g>
    <g id="xtick_44">
     <g id="line2d_50"/>
    </g>
    <g id="xtick_45">
     <g id="line2d_51"/>
    </g>
    <g id="xtick_46">
     <g id="line2d_52"/>
    </g>
    <g id="xtick_47">
     <g id="line2d_53"/>
    </g>
    <g id="xtick_48">
     <g id="line2d_54"/>
    </g>
    <g id="xtick_49">
     <g id="line2d_55"/>
    </g>
    <g id="xtick_50">
     <g id="line2d_56"/>
    </g>
    <g id="xtick_51">
     <g id="line2d_57"/>
    </g>
    <g id="xtick_52">
     <g id="line2d_58"/>
    </g>
    <g id="xtick_53">
     <g id="line2d_59"/>
    </g>
    <g id="xtick_54">
     <g id="line2d_60"/>
    </g>
    <g id="xtick_55">
     <g id="line2d_61"/>
    </g>
    <g id="xtick_56">
     <g id="line2d_62"/>
    </g>
    <g id="xtick_57">
     <g id="line2d_63"/>
    </g>
    <g id="xtick_58">
     <g id="line2d_64"/>
    </g>
    <g id="xtick_59">
     <g id="line2d_65"/>
    </g>
    <g id="xtick_60">
     <g id="line2d_66"/>
    </g>
    <g id="xtick_61">
     <g id="line2d_67"/>
    </g>
    <g id="xtick_62">
     <g id="line2d_68"/>
    </g>
    <g id="xtick_63">
     <g id="line2d_69"/>
    </g>
    <g id="xtick_64">
     <g id="line2d_70"/>
    </g>
    <g id="xtick_65">
     <g id="line2d_71"/>
    </g>
    <g id="xtick_66">
     <g id="line2d_72"/>
    </g>
    <g id="xtick_67">
     <g id="line2d_73"/>
    </g>
    <g id="xtick_68">
     <g id="line2d_74"/>
    </g>
    <g id="xtick_69">
     <g id="line2d_75"/>
    </g>
    <g id="xtick_70">
     <g id="line2d_76"/>
    </g>
    <g id="xtick_71">
     <g id="line2d_77"/>
    </g>
    <g id="xtick_72">
     <g id="line2d_78"/>
    </g>
    <g id="xtick_73">
     <g id="line2d_79"/>
    </g>
    <g id="xtick_74">
     <g id="line2d_80"/>
    </g>
    <g id="xtick_75">
     <g id="line2d_81"/>
    </g>
    <g id="xtick_76">
     <g id="line2d_82"/>
    </g>
    <g id="xtick_77">
     <g id="line2d_83"/>
    </g>
    <g id="xtick_78">
     <g id="line2d_84"/>
    </g>
    <g id="text_7">
     <!-- Year -->
     <defs>
      <path d="M -0.203125 72.90625 
L 10.40625 72.90625 
L 30.609375 42.921875 
L 50.6875 72.90625 
L 61.28125 72.90625 
L 35.5 34.71875 
L 35.5 0 
L 25.59375 0 
L 25.59375 34.71875 
z
" id="DejaVuSans-59"/>
      <path d="M 56.203125 29.59375 
L 56.203125 25.203125 
L 14.890625 25.203125 
Q 15.484375 15.921875 20.484375 11.0625 
Q 25.484375 6.203125 34.421875 6.203125 
Q 39.59375 6.203125 44.453125 7.46875 
Q 49.3125 8.734375 54.109375 11.28125 
L 54.109375 2.78125 
Q 49.265625 0.734375 44.1875 -0.34375 
Q 39.109375 -1.421875 33.890625 -1.421875 
Q 20.796875 -1.421875 13.15625 6.1875 
Q 5.515625 13.8125 5.515625 26.8125 
Q 5.515625 40.234375 12.765625 48.109375 
Q 20.015625 56 32.328125 56 
Q 43.359375 56 49.78125 48.890625 
Q 56.203125 41.796875 56.203125 29.59375 
z
M 47.21875 32.234375 
Q 47.125 39.59375 43.09375 43.984375 
Q 39.0625 48.390625 32.421875 48.390625 
Q 24.90625 48.390625 20.390625 44.140625 
Q 15.875 39.890625 15.1875 32.171875 
z
" id="DejaVuSans-65"/>
      <path d="M 34.28125 27.484375 
Q 23.390625 27.484375 19.1875 25 
Q 14.984375 22.515625 14.984375 16.5 
Q 14.984375 11.71875 18.140625 8.90625 
Q 21.296875 6.109375 26.703125 6.109375 
Q 34.1875 6.109375 38.703125 11.40625 
Q 43.21875 16.703125 43.21875 25.484375 
L 43.21875 27.484375 
z
M 52.203125 31.203125 
L 52.203125 0 
L 43.21875 0 
L 43.21875 8.296875 
Q 40.140625 3.328125 35.546875 0.953125 
Q 30.953125 -1.421875 24.3125 -1.421875 
Q 15.921875 -1.421875 10.953125 3.296875 
Q 6 8.015625 6 15.921875 
Q 6 25.140625 12.171875 29.828125 
Q 18.359375 34.515625 30.609375 34.515625 
L 43.21875 34.515625 
L 43.21875 35.40625 
Q 43.21875 41.609375 39.140625 45 
Q 35.0625 48.390625 27.6875 48.390625 
Q 23 48.390625 18.546875 47.265625 
Q 14.109375 46.140625 10.015625 43.890625 
L 10.015625 52.203125 
Q 14.9375 54.109375 19.578125 55.046875 
Q 24.21875 56 28.609375 56 
Q 40.484375 56 46.34375 49.84375 
Q 52.203125 43.703125 52.203125 31.203125 
z
" id="DejaVuSans-61"/>
      <path d="M 41.109375 46.296875 
Q 39.59375 47.171875 37.8125 47.578125 
Q 36.03125 48 33.890625 48 
Q 26.265625 48 22.1875 43.046875 
Q 18.109375 38.09375 18.109375 28.8125 
L 18.109375 0 
L 9.078125 0 
L 9.078125 54.6875 
L 18.109375 54.6875 
L 18.109375 46.1875 
Q 20.953125 51.171875 25.484375 53.578125 
Q 30.03125 56 36.53125 56 
Q 37.453125 56 38.578125 55.875 
Q 39.703125 55.765625 41.0625 55.515625 
z
" id="DejaVuSans-72"/>
     </defs>
     <g style="fill:#262626;" transform="translate(578.036172 382.564783)scale(0.11 -0.11)">
      <use xlink:href="#DejaVuSans-59"/>
      <use x="60.880859" xlink:href="#DejaVuSans-65"/>
      <use x="122.404297" xlink:href="#DejaVuSans-61"/>
      <use x="183.683594" xlink:href="#DejaVuSans-72"/>
     </g>
    </g>
   </g>
   <g id="matplotlib.axis_2">
    <g id="ytick_1">
     <g id="line2d_85">
      <path clip-path="url(#p2e22e46283)" d="M 144 308.80641 
L 1036.8 308.80641 
" style="fill:none;stroke:#ffffff;stroke-linecap:round;stroke-width:0.8;"/>
     </g>
     <g id="line2d_86"/>
     <g id="text_8">
      <!-- 0 -->
      <g style="fill:#262626;" transform="translate(134.1375 312.605629)scale(0.1 -0.1)">
       <use xlink:href="#DejaVuSans-30"/>
      </g>
     </g>
    </g>
    <g id="ytick_2">
     <g id="line2d_87">
      <path clip-path="url(#p2e22e46283)" d="M 144 258.248628 
L 1036.8 258.248628 
" style="fill:none;stroke:#ffffff;stroke-linecap:round;stroke-width:0.8;"/>
     </g>
     <g id="line2d_88"/>
     <g id="text_9">
      <!-- 2000 -->
      <g style="fill:#262626;" transform="translate(115.05 262.047847)scale(0.1 -0.1)">
       <use xlink:href="#DejaVuSans-32"/>
       <use x="63.623047" xlink:href="#DejaVuSans-30"/>
       <use x="127.246094" xlink:href="#DejaVuSans-30"/>
       <use x="190.869141" xlink:href="#DejaVuSans-30"/>
      </g>
     </g>
    </g>
    <g id="ytick_3">
     <g id="line2d_89">
      <path clip-path="url(#p2e22e46283)" d="M 144 207.690846 
L 1036.8 207.690846 
" style="fill:none;stroke:#ffffff;stroke-linecap:round;stroke-width:0.8;"/>
     </g>
     <g id="line2d_90"/>
     <g id="text_10">
      <!-- 4000 -->
      <g style="fill:#262626;" transform="translate(115.05 211.490065)scale(0.1 -0.1)">
       <use xlink:href="#DejaVuSans-34"/>
       <use x="63.623047" xlink:href="#DejaVuSans-30"/>
       <use x="127.246094" xlink:href="#DejaVuSans-30"/>
       <use x="190.869141" xlink:href="#DejaVuSans-30"/>
      </g>
     </g>
    </g>
    <g id="ytick_4">
     <g id="line2d_91">
      <path clip-path="url(#p2e22e46283)" d="M 144 157.133065 
L 1036.8 157.133065 
" style="fill:none;stroke:#ffffff;stroke-linecap:round;stroke-width:0.8;"/>
     </g>
     <g id="line2d_92"/>
     <g id="text_11">
      <!-- 6000 -->
      <g style="fill:#262626;" transform="translate(115.05 160.932283)scale(0.1 -0.1)">
       <use xlink:href="#DejaVuSans-36"/>
       <use x="63.623047" xlink:href="#DejaVuSans-30"/>
       <use x="127.246094" xlink:href="#DejaVuSans-30"/>
       <use x="190.869141" xlink:href="#DejaVuSans-30"/>
      </g>
     </g>
    </g>
    <g id="ytick_5">
     <g id="line2d_93">
      <path clip-path="url(#p2e22e46283)" d="M 144 106.575283 
L 1036.8 106.575283 
" style="fill:none;stroke:#ffffff;stroke-linecap:round;stroke-width:0.8;"/>
     </g>
     <g id="line2d_94"/>
     <g id="text_12">
      <!-- 8000 -->
      <g style="fill:#262626;" transform="translate(115.05 110.374502)scale(0.1 -0.1)">
       <use xlink:href="#DejaVuSans-38"/>
       <use x="63.623047" xlink:href="#DejaVuSans-30"/>
       <use x="127.246094" xlink:href="#DejaVuSans-30"/>
       <use x="190.869141" xlink:href="#DejaVuSans-30"/>
      </g>
     </g>
    </g>
    <g id="ytick_6">
     <g id="line2d_95">
      <path clip-path="url(#p2e22e46283)" d="M 144 56.017501 
L 1036.8 56.017501 
" style="fill:none;stroke:#ffffff;stroke-linecap:round;stroke-width:0.8;"/>
     </g>
     <g id="line2d_96"/>
     <g id="text_13">
      <!-- 10000 -->
      <g style="fill:#262626;" transform="translate(108.6875 59.81672)scale(0.1 -0.1)">
       <use xlink:href="#DejaVuSans-31"/>
       <use x="63.623047" xlink:href="#DejaVuSans-30"/>
       <use x="127.246094" xlink:href="#DejaVuSans-30"/>
       <use x="190.869141" xlink:href="#DejaVuSans-30"/>
       <use x="254.492188" xlink:href="#DejaVuSans-30"/>
      </g>
     </g>
    </g>
    <g id="text_14">
     <!-- Balance -->
     <defs>
      <path d="M 19.671875 34.8125 
L 19.671875 8.109375 
L 35.5 8.109375 
Q 43.453125 8.109375 47.28125 11.40625 
Q 51.125 14.703125 51.125 21.484375 
Q 51.125 28.328125 47.28125 31.5625 
Q 43.453125 34.8125 35.5 34.8125 
z
M 19.671875 64.796875 
L 19.671875 42.828125 
L 34.28125 42.828125 
Q 41.5 42.828125 45.03125 45.53125 
Q 48.578125 48.25 48.578125 53.8125 
Q 48.578125 59.328125 45.03125 62.0625 
Q 41.5 64.796875 34.28125 64.796875 
z
M 9.8125 72.90625 
L 35.015625 72.90625 
Q 46.296875 72.90625 52.390625 68.21875 
Q 58.5 63.53125 58.5 54.890625 
Q 58.5 48.1875 55.375 44.234375 
Q 52.25 40.28125 46.1875 39.3125 
Q 53.46875 37.75 57.5 32.78125 
Q 61.53125 27.828125 61.53125 20.40625 
Q 61.53125 10.640625 54.890625 5.3125 
Q 48.25 0 35.984375 0 
L 9.8125 0 
z
" id="DejaVuSans-42"/>
      <path d="M 9.421875 75.984375 
L 18.40625 75.984375 
L 18.40625 0 
L 9.421875 0 
z
" id="DejaVuSans-6c"/>
      <path d="M 54.890625 33.015625 
L 54.890625 0 
L 45.90625 0 
L 45.90625 32.71875 
Q 45.90625 40.484375 42.875 44.328125 
Q 39.84375 48.1875 33.796875 48.1875 
Q 26.515625 48.1875 22.3125 43.546875 
Q 18.109375 38.921875 18.109375 30.90625 
L 18.109375 0 
L 9.078125 0 
L 9.078125 54.6875 
L 18.109375 54.6875 
L 18.109375 46.1875 
Q 21.34375 51.125 25.703125 53.5625 
Q 30.078125 56 35.796875 56 
Q 45.21875 56 50.046875 50.171875 
Q 54.890625 44.34375 54.890625 33.015625 
z
" id="DejaVuSans-6e"/>
      <path d="M 48.78125 52.59375 
L 48.78125 44.1875 
Q 44.96875 46.296875 41.140625 47.34375 
Q 37.3125 48.390625 33.40625 48.390625 
Q 24.65625 48.390625 19.8125 42.84375 
Q 14.984375 37.3125 14.984375 27.296875 
Q 14.984375 17.28125 19.8125 11.734375 
Q 24.65625 6.203125 33.40625 6.203125 
Q 37.3125 6.203125 41.140625 7.25 
Q 44.96875 8.296875 48.78125 10.40625 
L 48.78125 2.09375 
Q 45.015625 0.34375 40.984375 -0.53125 
Q 36.96875 -1.421875 32.421875 -1.421875 
Q 20.0625 -1.421875 12.78125 6.34375 
Q 5.515625 14.109375 5.515625 27.296875 
Q 5.515625 40.671875 12.859375 48.328125 
Q 20.21875 56 33.015625 56 
Q 37.15625 56 41.109375 55.140625 
Q 45.0625 54.296875 48.78125 52.59375 
z
" id="DejaVuSans-63"/>
     </defs>
     <g style="fill:#262626;" transform="translate(102.399844 220.656406)rotate(-90)scale(0.11 -0.11)">
      <use xlink:href="#DejaVuSans-42"/>
      <use x="68.603516" xlink:href="#DejaVuSans-61"/>
      <use x="129.882812" xlink:href="#DejaVuSans-6c"/>
      <use x="157.666016" xlink:href="#DejaVuSans-61"/>
      <use x="218.945312" xlink:href="#DejaVuSans-6e"/>
      <use x="282.324219" xlink:href="#DejaVuSans-63"/>
      <use x="337.304688" xlink:href="#DejaVuSans-65"/>
     </g>
    </g>
   </g>
   <g id="line2d_97">
    <path clip-path="url(#p2e22e46283)" d="M 184.581818 258.248628 
L 184.846324 169.77251 
L 184.871099 111.631061 
L 185.24353 250.664961 
L 185.321782 308.80641 
L 185.513714 309.63303 
L 185.937786 310.183351 
L 185.96823 315.421896 
L 186.120943 315.673168 
L 199.769993 319.429864 
L 247.523175 323.10592 
L 250.190116 324.117076 
L 250.536238 324.522549 
L 251.199564 325.753631 
L 251.382863 327.234469 
L 252.322202 327.666485 
L 256.763405 327.7676 
L 315.484764 328.778756 
L 316.02042 328.070947 
L 316.773496 329.186505 
L 316.839155 328.680927 
L 317.087976 329.584142 
L 317.837578 328.502963 
L 317.856934 327.786812 
L 318.061836 327.597221 
L 318.58237 326.419224 
L 320.501412 327.302722 
L 320.70091 327.024654 
L 320.94478 323.586725 
L 321.29862 321.015356 
L 321.977715 321.268145 
L 322.071868 318.1098 
L 322.26261 318.615378 
L 322.324248 317.384802 
L 322.988466 316.494732 
L 323.001635 315.875652 
L 327.93939 316.109229 
L 329.523227 316.783164 
L 332.623911 317.035953 
L 332.919945 317.494259 
L 337.504819 217.314015 
L 337.813824 113.796956 
L 337.901596 115.906733 
L 338.0425 116.528846 
L 338.149581 325.421467 
L 338.376289 327.228655 
L 338.40215 327.367688 
L 338.428284 328.232985 
L 339.867682 328.485774 
L 348.129553 328.675365 
L 348.150538 328.928154 
L 348.293085 328.978712 
L 348.342734 329.737079 
L 350.086883 330.242657 
L 350.095431 330.495446 
L 360.714771 330.954005 
L 360.950569 330.224961 
L 361.025361 332.247273 
L 361.105195 331.236117 
L 372.644771 331.392341 
L 385.935313 318.752895 
L 389.257928 318.740256 
L 392.966436 318.285236 
L 393.215677 317.804937 
L 393.796032 317.349917 
L 393.943426 315.080125 
L 398.370819 315.459308 
L 398.3772 318.745564 
L 398.47773 314.167557 
L 401.12471 313.838932 
L 401.137175 313.814917 
L 401.137897 314.269937 
L 401.22397 314.225699 
L 401.361556 312.892995 
L 403.965164 312.084071 
L 404.097507 311.249868 
L 404.313958 311.755445 
L 406.970567 313.284818 
L 407.025917 312.77924 
L 408.044674 313.891512 
L 408.058966 314.270695 
L 408.219944 314.220137 
L 408.299527 297.910702 
L 408.724067 281.178857 
L 408.818838 282.666267 
L 409.412979 282.130355 
L 409.619623 265.821173 
L 409.757346 265.928861 
L 409.794629 266.109858 
L 412.752167 266.486766 
L 412.906358 266.815139 
L 413.66067 266.794663 
L 415.469091 257.512254 
L 415.639443 259.303769 
L 416.015028 260.331609 
L 417.90777 262.202247 
L 418.3104 263.67904 
L 418.559943 262.948985 
L 419.603909 263.97278 
L 419.655753 264.756426 
L 422.462262 264.010699 
L 422.639382 266.579792 
L 423.589581 266.958976 
L 423.624863 267.851573 
L 423.841522 267.85132 
L 423.890614 268.81116 
L 425.181121 268.810907 
L 426.973235 269.588991 
L 428.730242 269.588739 
L 428.766845 269.285392 
L 429.654434 269.285139 
L 429.668004 269.701735 
L 429.949402 269.701483 
L 430.543708 282.954952 
L 431.39974 276.635229 
L 431.575926 276.331883 
L 432.149172 277.229283 
L 432.201469 278.300097 
L 432.342562 278.552886 
L 435.199258 270.969219 
L 436.38334 266.388937 
L 436.491681 267.064894 
L 436.625128 265.168977 
L 436.810962 266.386156 
L 437.716454 264.23745 
L 438.385095 259.636945 
L 438.985173 259.920321 
L 440.490187 260.839967 
L 442.322723 255.485898 
L 442.608402 256.323135 
L 444.34441 256.556459 
L 444.490482 256.809248 
L 444.540891 254.786937 
L 444.560979 255.899208 
L 444.83213 257.365384 
L 445.236214 257.607556 
L 445.331807 258.478161 
L 445.357426 259.425866 
L 445.379903 249.400258 
L 445.488693 249.905836 
L 448.117973 248.49401 
L 448.38085 247.294021 
L 448.532784 245.926938 
L 449.733622 245.111947 
L 449.98451 241.333258 
L 450.781142 243.481711 
L 452.564316 240.98719 
L 453.856805 241.105748 
L 453.936638 238.704254 
L 456.986535 238.830648 
L 456.988579 239.361505 
L 457.332653 240.271545 
L 457.789166 237.57909 
L 461.59481 233.277381 
L 461.696799 231.290966 
L 463.828838 229.354603 
L 464.735279 224.656268 
L 465.289961 219.551955 
L 465.471127 221.488318 
L 467.693208 219.415449 
L 467.857962 217.852202 
L 469.191165 214.147328 
L 469.231054 214.7793 
L 469.325811 207.414043 
L 469.337923 207.755308 
L 471.490734 205.123775 
L 471.580743 201.819571 
L 471.901643 199.440069 
L 473.259517 195.348681 
L 473.702328 193.561969 
L 473.831744 187.043554 
L 473.974451 192.832925 
L 476.129906 193.338503 
L 476.198458 193.844081 
L 476.483972 192.580642 
L 477.004487 189.734239 
L 477.940493 189.194029 
L 478.076319 185.720962 
L 478.120158 185.175949 
L 478.122135 185.681527 
L 481.492616 185.795282 
L 482.053632 186.048071 
L 482.095847 188.469789 
L 482.830898 193.437091 
L 483.045235 192.717148 
L 483.809525 192.082395 
L 484.641103 191.149857 
L 486.284336 190.364189 
L 486.907698 189.508246 
L 487.038134 188.213967 
L 487.084153 188.304971 
L 487.117518 188.962222 
L 488.109447 196.350989 
L 488.239679 193.7733 
L 489.025176 193.19593 
L 489.42394 191.728491 
L 490.108242 191.70397 
L 491.253497 192.910279 
L 491.302315 192.404701 
L 491.311302 194.907311 
L 491.872546 193.64362 
L 492.617564 192.126886 
L 494.324398 192.379675 
L 494.495623 194.035442 
L 506.779676 197.068909 
L 506.854223 198.957242 
L 519.458679 200.466392 
L 519.566312 200.97197 
L 519.619289 202.010932 
L 531.867451 204.195029 
L 531.941134 205.911465 
L 544.406814 204.33381 
L 544.493099 205.774706 
L 544.583713 206.533073 
L 546.250649 204.839388 
L 546.664743 205.218571 
L 547.237593 205.21124 
L 548.843467 162.755848 
L 549.062709 111.638897 
L 549.222309 119.222565 
L 549.234472 143.982733 
L 549.240315 119.222565 
L 549.489141 86.878729 
L 549.595887 111.638897 
L 550.34126 115.317482 
L 550.616423 111.638897 
L 554.466841 107.921889 
L 554.72226 104.888422 
L 554.775345 105.141211 
L 557.091344 105.185449 
L 557.208446 106.372546 
L 557.823647 105.866968 
L 558.033397 102.497039 
L 561.307265 84.462573 
L 561.471721 84.330112 
L 562.283098 84.715362 
L 564.000929 84.822797 
L 566.241267 83.931969 
L 566.354527 82.677883 
L 566.376196 81.550445 
L 566.556984 80.814071 
L 566.629402 79.37014 
L 567.217639 79.749324 
L 567.32825 80.128507 
L 568.632733 80.03902 
L 568.670804 81.226117 
L 569.137766 83.861441 
L 569.310582 83.957501 
L 569.316657 83.861441 
L 573.354551 85.757358 
L 573.454311 86.38933 
L 573.576312 86.768513 
L 576.816404 84.240624 
L 577.806421 85.504569 
L 580.956154 86.904767 
L 580.967185 88.091863 
L 581.0394 87.99277 
L 581.116849 87.990748 
L 582.106012 88.226094 
L 582.184722 89.490039 
L 582.556667 89.869222 
L 582.924445 89.995364 
L 583.238528 90.248153 
L 583.383614 96.567875 
L 583.751996 97.073453 
L 584.972643 97.32877 
L 586.029693 97.783285 
L 586.444434 100.285895 
L 586.578093 97.783285 
L 587.078784 97.833842 
L 589.343755 99.178427 
L 590.027944 99.355379 
L 591.987743 99.987351 
L 593.357384 100.168095 
L 593.398868 101.355192 
L 593.460411 101.268232 
L 593.983191 101.460099 
L 594.339415 102.016235 
L 594.867661 102.20254 
L 595.484623 102.253604 
L 596.224917 106.930451 
L 596.741684 107.061649 
L 596.930255 109.903249 
L 597.913664 109.957093 
L 598.014001 110.864605 
L 598.638855 111.439447 
L 598.982598 112.070661 
L 599.878891 112.449844 
L 599.9465 112.070661 
L 600.010441 112.449844 
L 601.44357 112.854307 
L 602.501426 107.798528 
L 604.660902 107.841502 
L 604.671027 108.038931 
L 605.820261 108.037414 
L 605.952226 109.224511 
L 606.174898 109.134518 
L 607.37078 113.382888 
L 608.900153 113.863187 
L 610.422027 113.10482 
L 610.81634 111.588087 
L 610.828036 110.576931 
L 610.990964 109.060198 
L 612.176716 110.14719 
L 614.705754 110.956115 
L 617.400967 112.030215 
L 618.037125 112.018839 
L 618.110742 113.205683 
L 630.873656 113.116449 
L 630.99821 114.303293 
L 631.070576 112.190988 
L 636.686587 101.573854 
L 637.618718 92.220665 
L 637.72529 95.859055 
L 637.766655 94.595111 
L 638.602698 95.090577 
L 640.917148 102.44547 
L 641.80166 103.255659 
L 641.942097 95.900766 
L 641.966551 103.255659 
L 642.236471 108.46311 
L 642.472708 108.586724 
L 643.02395 110.359786 
L 643.350589 110.346388 
L 643.415795 110.673749 
L 643.592462 110.581987 
L 643.621584 111.769084 
L 647.624753 112.093665 
L 647.936307 103.899007 
L 648.260727 104.130814 
L 648.477009 103.018543 
L 648.764345 103.524626 
L 650.829205 101.91335 
L 651.284717 102.292533 
L 651.720631 106.716339 
L 653.672978 107.6011 
L 655.79106 107.503271 
L 655.86648 108.847855 
L 656.014025 108.241162 
L 659.082434 108.472969 
L 659.491903 108.53743 
L 661.947541 104.568897 
L 663.075583 104.768853 
L 667.237823 105.126297 
L 667.779871 101.068782 
L 668.044447 101.278344 
L 668.35012 101.186329 
L 668.434125 102.373426 
L 670.348112 102.583493 
L 670.864714 102.806706 
L 672.879534 103.169963 
L 673.099426 103.448031 
L 673.619007 99.435007 
L 673.696876 101.061451 
L 674.163192 101.592813 
L 674.18741 102.254615 
L 674.743206 102.446482 
L 677.76292 102.836788 
L 679.47268 99.713581 
L 680.474317 100.183515 
L 680.574356 101.370612 
L 680.750141 95.595397 
L 680.818235 95.593374 
L 681.562178 95.994297 
L 682.346863 96.074937 
L 683.141026 97.338882 
L 684.210116 97.448845 
L 684.663679 98.190022 
L 684.979107 98.280773 
L 685.140147 93.474245 
L 688.995195 94.232612 
L 690.544756 91.82682 
L 691.629185 92.1514 
L 692.402703 92.515922 
L 693.13671 92.425424 
L 693.206665 93.61252 
L 694.79095 93.600892 
L 694.820889 90.441031 
L 695.033909 89.809058 
L 695.216467 96.887148 
L 696.197261 103.206871 
L 696.374202 101.993484 
L 698.434583 103.307986 
L 699.263395 109.122131 
L 699.452282 103.307986 
L 700.575221 105.182922 
L 701.988343 99.243899 
L 702.318432 101.137288 
L 704.091845 101.319549 
L 704.648354 102.406541 
L 704.888514 103.454604 
L 704.949741 102.317054 
L 705.340878 103.833787 
L 705.850971 103.743289 
L 705.880419 105.907162 
L 705.90879 105.904634 
L 706.015551 107.584416 
L 707.497045 105.562105 
L 708.708342 106.269914 
L 708.975892 107.533858 
L 711.154866 107.905964 
L 711.240967 108.325088 
L 711.646103 107.412267 
L 712.566175 107.676431 
L 712.74583 106.459253 
L 712.979127 106.620785 
L 713.848583 104.130056 
L 714.540228 104.635634 
L 715.277591 104.837359 
L 717.657904 104.821939 
L 717.930292 106.57048 
L 718.441801 108.087213 
L 719.26519 107.076058 
L 720.339344 107.581635 
L 721.381714 107.762885 
L 722.013294 108.142068 
L 724.997683 107.130913 
L 726.441796 107.477486 
L 727.805754 109.312734 
L 728.233244 109.416377 
L 729.13791 110.680322 
L 730.402429 110.802419 
L 730.483716 112.482201 
L 730.530415 112.39145 
L 730.880285 106.727209 
L 732.921409 106.95118 
L 734.215894 108.847097 
L 734.225967 107.330363 
L 734.877989 107.709547 
L 735.5397 107.876135 
L 737.639493 109.392868 
L 738.348008 110.619653 
L 739.087693 110.843624 
L 740.695597 111.010211 
L 741.235954 111.23848 
L 741.967786 111.364874 
L 742.168204 109.797583 
L 742.494295 109.709613 
L 742.717798 111.604518 
L 742.808992 111.60199 
L 743.232828 111.866155 
L 743.386411 113.130099 
L 743.804149 113.218575 
L 743.87332 113.377074 
L 744.719477 113.629863 
L 745.019595 114.441063 
L 745.202152 116.026807 
L 745.691129 117.081695 
L 746.61888 117.297577 
L 746.90639 117.892642 
L 747.050679 119.257702 
L 752.617012 120.051965 
L 754.661581 121.31591 
L 755.147196 121.844239 
L 755.280865 121.753487 
L 755.359348 122.229489 
L 755.359683 123.909271 
L 755.372574 123.906996 
L 757.037282 123.430994 
L 757.597378 123.971963 
L 759.866489 124.87088 
L 759.933928 125.221751 
L 760.145419 125.511953 
L 760.250159 125.824905 
L 760.287961 129.464813 
L 761.508306 129.562137 
L 761.914995 129.870539 
L 763.253801 129.917052 
L 764.566232 130.776535 
L 766.850569 130.946662 
L 767.060738 127.660406 
L 767.589197 127.652316 
L 767.593766 129.332099 
L 767.599368 129.244128 
L 767.717726 128.964796 
L 768.028033 119.049404 
L 768.055423 115.752531 
L 768.763692 116.384504 
L 770.323429 117.601429 
L 771.1403 116.384504 
L 771.186206 118.548124 
L 771.952455 118.600198 
L 772.233428 111.221037 
L 772.264174 118.806727 
L 772.938682 118.894192 
L 773.413262 115.551817 
L 773.674822 101.989945 
L 773.678391 98.64757 
L 773.909965 98.824522 
L 774.047886 99.203705 
L 774.062485 102.54608 
L 774.870189 102.672475 
L 778.362869 90.033029 
L 778.44753 102.672475 
L 778.721915 115.31192 
L 778.765211 127.951366 
L 779.100392 115.31192 
L 779.268111 115.45778 
L 779.354986 113.738815 
L 779.429334 98.401859 
L 779.562659 98.761325 
L 780.005729 101.024544 
L 780.046617 100.930001 
L 780.122991 101.574613 
L 780.235651 103.254395 
L 781.554685 115.89384 
L 781.892661 116.0397 
L 781.982817 115.409244 
L 782.113299 136.824509 
L 782.153051 136.822993 
L 782.256989 115.407727 
L 782.55577 115.58468 
L 782.751426 115.870078 
L 783.303758 116.279343 
L 783.6777 137.694609 
L 783.709389 116.279343 
L 784.641969 116.742706 
L 784.991816 115.984339 
L 785.010799 116.136012 
L 785.08679 116.468177 
L 785.153006 100.069507 
L 785.575479 103.058231 
L 785.659253 105.843712 
L 785.757541 107.739629 
L 786.18352 112.567897 
L 786.363171 112.643733 
L 786.39191 106.955983 
L 786.874633 106.981262 
L 786.984017 108.527066 
L 787.220741 108.527824 
L 787.781508 117.375436 
L 788.621057 118.73898 
L 789.430584 123.162785 
L 789.534158 118.73898 
L 789.559664 123.162785 
L 789.875173 123.293983 
L 790.273914 127.934682 
L 790.606065 118.968006 
L 790.700049 110.019279 
L 790.831126 110.356752 
L 791.167597 110.652768 
L 791.171887 106.178404 
L 791.215325 110.652768 
L 792.771659 110.575162 
L 792.877536 112.254944 
L 793.75847 98.223137 
L 805.076847 98.134661 
L 805.111619 99.814443 
L 815.191058 99.940838 
L 815.25583 100.320021 
L 815.436552 95.566831 
L 815.454766 97.563864 
L 815.582407 96.600485 
L 815.779238 103.929341 
L 816.17433 104.112108 
L 816.247452 104.364897 
L 816.536807 104.490027 
L 817.226244 104.565611 
L 817.525946 104.473596 
L 817.56026 104.727649 
L 817.565056 104.725121 
L 817.602674 112.94076 
L 817.753504 114.620543 
L 820.589092 115.217377 
L 820.859658 115.596561 
L 821.797453 113.574249 
L 822.474094 113.843975 
L 822.949104 114.3493 
L 823.248018 113.843722 
L 823.656232 114.045953 
L 823.846884 113.970117 
L 824.182533 114.136705 
L 824.899973 114.23782 
L 824.957325 114.726967 
L 825.15569 114.885971 
L 825.664608 115.072276 
L 825.753329 115.830643 
L 826.058548 115.67897 
L 826.127705 109.106458 
L 826.208992 110.140112 
L 826.293885 110.392901 
L 826.356976 108.135496 
L 826.372321 102.723033 
L 826.414238 102.950543 
L 826.898174 103.102216 
L 829.716549 103.289533 
L 829.837398 103.902293 
L 830.07819 103.899512 
L 830.288138 112.115152 
L 830.884035 112.266825 
L 831.781753 112.470573 
L 832.031849 112.667748 
L 832.163521 114.184482 
L 832.344474 114.260318 
L 832.445589 114.559621 
L 833.111209 114.781569 
L 833.236103 115.113734 
L 833.488261 105.301732 
L 833.538892 113.517372 
L 833.59025 107.368282 
L 833.754225 107.626632 
L 833.826011 108.208046 
L 834.36044 108.840019 
L 835.172156 109.028852 
L 835.213277 109.104689 
L 835.716219 109.180525 
L 835.724521 109.33144 
L 835.924198 109.663605 
L 836.143298 109.739442 
L 836.267192 109.968721 
L 836.435925 102.906305 
L 838.873132 104.372733 
L 839.108406 103.76604 
L 839.578121 107.810662 
L 839.772653 107.938068 
L 841.235187 108.334946 
L 842.232671 100.731562 
L 842.655596 100.626401 
L 843.470135 101.890346 
L 843.835444 102.998573 
L 844.054327 130.749486 
L 844.651078 102.998573 
L 844.670907 130.749486 
L 844.894717 129.333868 
L 845.421863 129.414761 
L 846.02922 157.241511 
L 846.054533 129.490597 
L 846.181013 128.428884 
L 846.310788 126.356015 
L 846.583988 126.431852 
L 846.650968 126.937429 
L 847.275464 127.089103 
L 847.884709 127.485223 
L 847.994084 122.122054 
L 848.254204 122.19789 
L 848.468862 123.209046 
L 848.679612 123.461835 
L 848.892184 124.296038 
L 848.931317 126.070616 
L 849.74553 126.22229 
L 850.253297 126.51148 
L 850.71393 126.927318 
L 850.877353 127.003155 
L 850.911082 126.371182 
L 851.266054 126.557488 
L 851.876531 126.633324 
L 852.067023 127.352256 
L 852.300792 127.428093 
L 852.483657 127.806265 
L 852.547721 127.174293 
L 852.624462 130.334154 
L 852.820141 130.409991 
L 853.068306 130.777293 
L 853.272 130.802572 
L 853.340784 131.611496 
L 853.382489 128.527472 
L 853.414769 129.665022 
L 853.596387 129.718866 
L 853.652399 123.764423 
L 853.725553 123.84026 
L 853.828962 124.246997 
L 853.864513 125.005364 
L 853.929082 124.373392 
L 854.191826 124.525065 
L 854.328624 124.903995 
L 855.087444 124.901215 
L 855.171936 125.233632 
L 856.854542 125.536979 
L 857.246755 125.791285 
L 858.349767 126.018795 
L 858.811623 126.472803 
L 859.103735 126.54864 
L 859.249166 104.1341 
L 859.502339 104.898534 
L 859.701742 105.754983 
L 860.398197 107.726736 
L 860.551288 103.30293 
L 860.639112 106.733276 
L 860.738571 106.809113 
L 861.033119 108.203749 
L 861.382913 108.279586 
L 861.477109 108.476508 
L 862.046655 108.628182 
L 862.154392 106.808101 
L 864.731942 107.429204 
L 864.830763 118.02384 
L 864.862679 110.232886 
L 864.877665 110.308722 
L 864.97373 109.67675 
L 865.060053 97.346465 
L 865.328348 97.422302 
L 865.370148 96.79033 
L 865.39775 96.967282 
L 866.039096 101.391088 
L 867.037981 101.600144 
L 867.057177 101.875179 
L 867.239376 78.869618 
L 867.249269 79.220237 
L 867.36336 102.225797 
L 867.464876 102.301634 
L 867.589303 100.077091 
L 868.291465 100.228764 
L 868.913175 100.304601 
L 869.138548 100.532111 
L 869.392377 100.607948 
L 869.489947 99.344003 
L 869.8482 100.090236 
L 870.009414 100.140794 
L 870.177529 106.586658 
L 870.500009 106.738332 
L 870.777169 98.605101 
L 871.148118 98.861429 
L 871.621991 99.918087 
L 871.740447 100.92899 
L 871.839509 104.217268 
L 871.972781 104.416718 
L 872.034499 103.784746 
L 872.445752 103.860583 
L 872.446555 104.238755 
L 872.901812 104.693775 
L 873.683165 105.049702 
L 873.831343 108.209563 
L 874.370308 108.267452 
L 874.686482 109.313492 
L 874.781957 116.694928 
L 874.871645 116.315745 
L 875.853473 116.467418 
L 876.238856 109.239678 
L 876.363137 109.998045 
L 876.516407 109.543025 
L 876.520599 109.618861 
L 876.568265 108.860495 
L 876.93357 121.49994 
L 876.961913 115.180217 
L 877.547488 115.486597 
L 877.857295 115.76416 
L 878.138967 115.839996 
L 878.441312 116.050822 
L 879.048372 116.118823 
L 879.099309 116.030094 
L 879.301818 116.316503 
L 879.583594 117.936628 
L 880.25509 118.403529 
L 880.266182 118.60576 
L 880.963171 118.681596 
L 881.180684 119.086817 
L 881.647897 120.105304 
L 882.011894 113.443557 
L 882.505873 120.157631 
L 882.908753 120.792384 
L 884.489433 120.944057 
L 884.829212 121.576029 
L 884.887857 123.36173 
L 885.438093 123.437567 
L 885.742789 124.094818 
L 886.085928 124.474002 
L 886.456939 126.290037 
L 886.763542 126.47887 
L 887.2497 126.554707 
L 887.647195 119.440216 
L 887.687744 120.704161 
L 887.704278 120.987031 
L 887.89123 121.062868 
L 887.94136 119.798923 
L 888.888642 120.220323 
L 889.242072 121.458988 
L 890.314951 121.966336 
L 890.373356 122.248954 
L 890.670726 122.692093 
L 891.661026 122.6021 
L 891.818332 122.804331 
L 891.937025 123.158235 
L 892.340051 123.234072 
L 892.974538 124.971237 
L 893.251976 125.047074 
L 893.253586 125.426257 
L 893.369583 124.847371 
L 893.426265 118.751113 
L 893.447816 119.015025 
L 893.935485 119.217003 
L 893.962605 121.151091 
L 894.015766 119.532231 
L 894.635711 120.796176 
L 894.693781 118.733924 
L 894.842497 118.835039 
L 894.919162 119.965259 
L 896.176635 120.192769 
L 896.275668 117.968226 
L 896.327682 119.232171 
L 898.016717 119.358312 
L 898.899124 119.736485 
L 899.040679 125.045052 
L 899.046697 124.033896 
L 899.164318 123.528318 
L 899.281547 116.979569 
L 899.468986 117.485147 
L 899.593233 116.673694 
L 899.635293 116.977041 
L 899.799726 116.901204 
L 900.406285 117.14287 
L 900.503563 117.420938 
L 900.998137 117.864077 
L 901.322515 118.840853 
L 902.232798 119.154565 
L 902.393186 119.521867 
L 903.668467 119.774656 
L 904.78131 120.932176 
L 904.788711 114.383427 
L 906.31614 115.950718 
L 906.816128 114.838447 
L 906.913684 113.928407 
L 907.134653 118.966237 
L 908.267169 120.48297 
L 910.505789 104.991308 
L 910.659169 107.771986 
L 916.250319 107.675167 
L 916.392219 89.750917 
L 917.41824 91.014862 
L 919.270533 91.322758 
L 919.292957 91.774745 
L 919.42832 89.120461 
L 919.482444 89.470574 
L 919.597615 90.154874 
L 919.729948 92.42871 
L 921.075197 92.961842 
L 921.120343 94.352181 
L 921.310334 94.857759 
L 921.396101 96.121703 
L 921.638101 97.143981 
L 922.111657 79.431315 
L 922.247021 79.507152 
L 923.089336 79.78522 
L 924.958305 79.936893 
L 925.891531 80.442218 
L 926.10019 80.720286 
L 926.177819 81.206652 
L 927.340283 81.774669 
L 927.724458 65.542334 
L 928.25211 65.784506 
L 928.543051 66.188968 
L 928.870705 66.383363 
L 928.981534 66.866695 
L 929.085717 66.762546 
L 929.875509 67.129849 
L 929.98302 67.529002 
L 931.057665 67.760051 
L 931.185703 68.196871 
L 931.186128 80.836316 
L 931.312504 82.100261 
L 931.897323 82.485005 
L 932.032974 83.116978 
L 933.50889 65.192727 
L 933.769497 78.097095 
L 934.159321 79.89038 
L 934.437864 80.395958 
L 934.851142 112.924835 
L 935.138364 113.127066 
L 935.361188 113.602814 
L 936.489532 114.10005 
L 936.537349 114.479234 
L 937.778269 114.712558 
L 937.796266 114.952454 
L 938.090129 115.21763 
L 938.123079 115.75784 
L 938.746663 118.309744 
L 938.801009 100.385494 
L 938.938935 100.486609 
L 939.003834 99.475454 
L 939.20529 101.668145 
L 939.369549 101.288961 
L 939.640667 102.073365 
L 939.803434 120.972117 
L 940.405137 121.301754 
L 940.568041 121.933473 
L 941.055724 121.971391 
L 941.251044 122.111942 
L 941.352301 122.490114 
L 941.490694 122.488597 
L 941.686638 122.752762 
L 942.000566 122.34653 
L 942.235114 123.111217 
L 942.997894 124.375161 
L 943.060848 125.639106 
L 943.697384 125.917173 
L 944.379108 126.353993 
L 944.635797 132.926504 
L 944.839968 102.362808 
L 944.917781 102.902007 
L 947.167209 103.205101 
L 947.399614 104.021609 
L 948.351296 116.661055 
L 950.428263 109.546564 
L 951.106192 109.925747 
L 951.885629 110.127978 
L 952.99532 110.203815 
L 953.158464 106.993396 
L 953.323152 107.012608 
L 953.379598 107.214839 
L 953.601789 107.449427 
L 954.003196 107.350586 
L 954.065684 107.603375 
L 954.619361 107.856164 
L 954.950281 108.143585 
L 955.428207 108.219422 
L 955.519416 108.556895 
L 956.035272 108.632732 
L 956.276923 101.178492 
L 956.312757 101.254329 
L 956.399755 101.52001 
L 956.658776 101.595847 
L 958.85612 101.781394 
L 960.708215 102.527627 
L 960.786226 102.45179 
L 960.959707 102.98568 
L 961.13662 103.061517 
L 961.220243 103.222544 
L 961.295918 103.146707 
L 961.393644 104.209179 
L 961.661421 104.209179 
L 962.189214 96.981438 
L 962.439956 97.281246 
L 964.248221 97.693797 
L 964.746708 98.264595 
L 966.38321 98.561622 
L 966.632645 98.456967 
L 967.340602 98.729726 
L 967.555256 98.984032 
L 967.574952 99.39987 
L 967.623421 93.699733 
L 967.917714 94.291511 
L 970.18169 94.345355 
L 970.38021 94.712658 
L 970.994345 94.887588 
L 972.267256 95.062518 
L 972.321177 95.365611 
L 972.654914 95.927561 
L 973.071732 95.96548 
L 973.242929 90.20897 
L 973.323484 90.348763 
L 973.477298 90.719351 
L 975.13039 90.981493 
L 976.830267 91.992649 
L 976.865633 89.136134 
L 976.9396 91.165777 
L 976.990155 91.325539 
L 977.720377 91.838701 
L 977.794517 92.546257 
L 977.866803 92.64712 
L 978.440819 92.705767 
L 978.727758 93.201486 
L 978.818225 93.101634 
L 978.938654 93.477531 
L 979.128736 89.958204 
L 979.183341 90.034041 
L 979.35669 90.109877 
L 980.278702 90.185714 
L 980.469373 90.54341 
L 980.810219 90.619247 
L 980.995174 90.91046 
L 981.426487 90.986296 
L 981.468287 91.193583 
L 981.840884 91.276245 
L 982.789171 91.781823 
L 983.186439 92.236843 
L 983.271662 93.500788 
L 983.536069 93.562974 
L 983.670695 93.881741 
L 984.041532 93.957577 
L 984.043372 94.260671 
L 984.551955 93.755093 
L 984.575168 93.83093 
L 984.742334 87.734673 
L 984.895425 86.470728 
L 986.905912 86.669167 
L 986.951799 86.745004 
L 986.983064 87.075652 
L 987.524592 87.189407 
L 987.545473 87.486434 
L 987.648844 83.960029 
L 987.756265 81.601003 
L 990.234682 81.828513 
L 990.300903 82.090402 
L 990.387136 78.280873 
L 990.787878 78.432546 
L 990.994144 78.938124 
L 991.137639 78.432546 
L 992.235289 78.400442 
L 992.238282 82.7383 
L 992.239098 78.400442 
L 993.346571 76.681478 
L 994.213152 77.945422 
L 994.586971 78.021259 
L 994.756889 78.443922 
L 995.028757 78.519759 
L 995.1477 78.67851 
L 995.402576 78.754347 
L 995.479039 79.18156 
L 995.920826 79.257397 
L 996.20119 76.500481 
L 996.218182 76.576317 
" style="fill:none;stroke:#1f77b4;stroke-linecap:round;stroke-width:1.5;"/>
   </g>
   <g id="patch_3">
    <path d="M 144 345.6 
L 144 51.84 
" style="fill:none;"/>
   </g>
   <g id="patch_4">
    <path d="M 1036.8 345.6 
L 1036.8 51.84 
" style="fill:none;"/>
   </g>
   <g id="patch_5">
    <path d="M 144 345.6 
L 1036.8 345.6 
" style="fill:none;"/>
   </g>
   <g id="patch_6">
    <path d="M 144 51.84 
L 1036.8 51.84 
" style="fill:none;"/>
   </g>
   <g id="text_15">
    <!-- Balance over Time -->
    <defs>
     <path id="DejaVuSans-20"/>
     <path d="M 30.609375 48.390625 
Q 23.390625 48.390625 19.1875 42.75 
Q 14.984375 37.109375 14.984375 27.296875 
Q 14.984375 17.484375 19.15625 11.84375 
Q 23.34375 6.203125 30.609375 6.203125 
Q 37.796875 6.203125 41.984375 11.859375 
Q 46.1875 17.53125 46.1875 27.296875 
Q 46.1875 37.015625 41.984375 42.703125 
Q 37.796875 48.390625 30.609375 48.390625 
z
M 30.609375 56 
Q 42.328125 56 49.015625 48.375 
Q 55.71875 40.765625 55.71875 27.296875 
Q 55.71875 13.875 49.015625 6.21875 
Q 42.328125 -1.421875 30.609375 -1.421875 
Q 18.84375 -1.421875 12.171875 6.21875 
Q 5.515625 13.875 5.515625 27.296875 
Q 5.515625 40.765625 12.171875 48.375 
Q 18.84375 56 30.609375 56 
z
" id="DejaVuSans-6f"/>
     <path d="M 2.984375 54.6875 
L 12.5 54.6875 
L 29.59375 8.796875 
L 46.6875 54.6875 
L 56.203125 54.6875 
L 35.6875 0 
L 23.484375 0 
z
" id="DejaVuSans-76"/>
     <path d="M -0.296875 72.90625 
L 61.375 72.90625 
L 61.375 64.59375 
L 35.5 64.59375 
L 35.5 0 
L 25.59375 0 
L 25.59375 64.59375 
L -0.296875 64.59375 
z
" id="DejaVuSans-54"/>
     <path d="M 9.421875 54.6875 
L 18.40625 54.6875 
L 18.40625 0 
L 9.421875 0 
z
M 9.421875 75.984375 
L 18.40625 75.984375 
L 18.40625 64.59375 
L 9.421875 64.59375 
z
" id="DejaVuSans-69"/>
     <path d="M 52 44.1875 
Q 55.375 50.25 60.0625 53.125 
Q 64.75 56 71.09375 56 
Q 79.640625 56 84.28125 50.015625 
Q 88.921875 44.046875 88.921875 33.015625 
L 88.921875 0 
L 79.890625 0 
L 79.890625 32.71875 
Q 79.890625 40.578125 77.09375 44.375 
Q 74.3125 48.1875 68.609375 48.1875 
Q 61.625 48.1875 57.5625 43.546875 
Q 53.515625 38.921875 53.515625 30.90625 
L 53.515625 0 
L 44.484375 0 
L 44.484375 32.71875 
Q 44.484375 40.625 41.703125 44.40625 
Q 38.921875 48.1875 33.109375 48.1875 
Q 26.21875 48.1875 22.15625 43.53125 
Q 18.109375 38.875 18.109375 30.90625 
L 18.109375 0 
L 9.078125 0 
L 9.078125 54.6875 
L 18.109375 54.6875 
L 18.109375 46.1875 
Q 21.1875 51.21875 25.484375 53.609375 
Q 29.78125 56 35.6875 56 
Q 41.65625 56 45.828125 52.96875 
Q 50 49.953125 52 44.1875 
z
" id="DejaVuSans-6d"/>
    </defs>
    <g style="fill:#262626;" transform="translate(539.075547 45.84)scale(0.11 -0.11)">
     <use xlink:href="#DejaVuSans-42"/>
     <use x="68.603516" xlink:href="#DejaVuSans-61"/>
     <use x="129.882812" xlink:href="#DejaVuSans-6c"/>
     <use x="157.666016" xlink:href="#DejaVuSans-61"/>
     <use x="218.945312" xlink:href="#DejaVuSans-6e"/>
     <use x="282.324219" xlink:href="#DejaVuSans-63"/>
     <use x="337.304688" xlink:href="#DejaVuSans-65"/>
     <use x="398.828125" xlink:href="#DejaVuSans-20"/>
     <use x="430.615234" xlink:href="#DejaVuSans-6f"/>
     <use x="491.796875" xlink:href="#DejaVuSans-76"/>
     <use x="550.976562" xlink:href="#DejaVuSans-65"/>
     <use x="612.5" xlink:href="#DejaVuSans-72"/>
     <use x="653.613281" xlink:href="#DejaVuSans-20"/>
     <use x="685.400391" xlink:href="#DejaVuSans-54"/>
     <use x="746.4375" xlink:href="#DejaVuSans-69"/>
     <use x="774.220703" xlink:href="#DejaVuSans-6d"/>
     <use x="871.632812" xlink:href="#DejaVuSans-65"/>
    </g>
   </g>
   <g id="legend_1">
    <g id="line2d_98">
     <path d="M 959.915625 64.938438 
L 979.915625 64.938438 
" style="fill:none;stroke:#1f77b4;stroke-linecap:round;stroke-width:1.5;"/>
    </g>
    <g id="line2d_99"/>
    <g id="text_16">
     <!-- Balance -->
     <g style="fill:#262626;" transform="translate(987.915625 68.438438)scale(0.1 -0.1)">
      <use xlink:href="#DejaVuSans-42"/>
      <use x="68.603516" xlink:href="#DejaVuSans-61"/>
      <use x="129.882812" xlink:href="#DejaVuSans-6c"/>
      <use x="157.666016" xlink:href="#DejaVuSans-61"/>
      <use x="218.945312" xlink:href="#DejaVuSans-6e"/>
      <use x="282.324219" xlink:href="#DejaVuSans-63"/>
      <use x="337.304688" xlink:href="#DejaVuSans-65"/>
     </g>
    </g>
   </g>
  </g>
 </g>
 <defs>
  <clipPath id="p2e22e46283">
   <rect height="293.76" width="892.8" x="144" y="51.84"/>
  </clipPath>
 </defs>
</svg>
