<?xml version="1.0" encoding="utf-8" standalone="no"?>
<!DOCTYPE svg PUBLIC "-//W3C//DTD SVG 1.1//EN"
  "http://www.w3.org/Graphics/SVG/1.1/DTD/svg11.dtd">
<!-- Created with matplotlib (http://matplotlib.org/) -->
<svg height="432pt" version="1.1" viewBox="0 0 1152 432" width="1152pt" xmlns="http://www.w3.org/2000/svg" xmlns:xlink="http://www.w3.org/1999/xlink">
 <defs>
  <style type="text/css">
*{stroke-linecap:butt;stroke-linejoin:round;}
  </style>
 </defs>
 <g id="figure_1">
  <g id="patch_1">
   <path d="M 0 432 
L 1152 432 
L 1152 0 
L 0 0 
z
" style="fill:#ffffff;"/>
  </g>
  <g id="axes_1">
   <g id="patch_2">
    <path d="M 144 345.6 
L 1036.8 345.6 
L 1036.8 51.84 
L 144 51.84 
z
" style="fill:#eaeaf2;"/>
   </g>
   <g id="matplotlib.axis_1">
    <g id="xtick_1">
     <g id="line2d_1">
      <path clip-path="url(#p07a451c62e)" d="M 182.053652 345.6 
L 182.053652 51.84 
" style="fill:none;stroke:#ffffff;stroke-linecap:round;stroke-width:0.8;"/>
     </g>
     <g id="line2d_2"/>
     <g id="text_1">
      <!-- 2015 -->
      <defs>
       <path d="M 19.1875 8.296875 
L 53.609375 8.296875 
L 53.609375 0 
L 7.328125 0 
L 7.328125 8.296875 
Q 12.9375 14.109375 22.625 23.890625 
Q 32.328125 33.6875 34.8125 36.53125 
Q 39.546875 41.84375 41.421875 45.53125 
Q 43.3125 49.21875 43.3125 52.78125 
Q 43.3125 58.59375 39.234375 62.25 
Q 35.15625 65.921875 28.609375 65.921875 
Q 23.96875 65.921875 18.8125 64.3125 
Q 13.671875 62.703125 7.8125 59.421875 
L 7.8125 69.390625 
Q 13.765625 71.78125 18.9375 73 
Q 24.125 74.21875 28.421875 74.21875 
Q 39.75 74.21875 46.484375 68.546875 
Q 53.21875 62.890625 53.21875 53.421875 
Q 53.21875 48.921875 51.53125 44.890625 
Q 49.859375 40.875 45.40625 35.40625 
Q 44.1875 33.984375 37.640625 27.21875 
Q 31.109375 20.453125 19.1875 8.296875 
z
" id="DejaVuSans-32"/>
       <path d="M 31.78125 66.40625 
Q 24.171875 66.40625 20.328125 58.90625 
Q 16.5 51.421875 16.5 36.375 
Q 16.5 21.390625 20.328125 13.890625 
Q 24.171875 6.390625 31.78125 6.390625 
Q 39.453125 6.390625 43.28125 13.890625 
Q 47.125 21.390625 47.125 36.375 
Q 47.125 51.421875 43.28125 58.90625 
Q 39.453125 66.40625 31.78125 66.40625 
z
M 31.78125 74.21875 
Q 44.046875 74.21875 50.515625 64.515625 
Q 56.984375 54.828125 56.984375 36.375 
Q 56.984375 17.96875 50.515625 8.265625 
Q 44.046875 -1.421875 31.78125 -1.421875 
Q 19.53125 -1.421875 13.0625 8.265625 
Q 6.59375 17.96875 6.59375 36.375 
Q 6.59375 54.828125 13.0625 64.515625 
Q 19.53125 74.21875 31.78125 74.21875 
z
" id="DejaVuSans-30"/>
       <path d="M 12.40625 8.296875 
L 28.515625 8.296875 
L 28.515625 63.921875 
L 10.984375 60.40625 
L 10.984375 69.390625 
L 28.421875 72.90625 
L 38.28125 72.90625 
L 38.28125 8.296875 
L 54.390625 8.296875 
L 54.390625 0 
L 12.40625 0 
z
" id="DejaVuSans-31"/>
       <path d="M 10.796875 72.90625 
L 49.515625 72.90625 
L 49.515625 64.59375 
L 19.828125 64.59375 
L 19.828125 46.734375 
Q 21.96875 47.46875 24.109375 47.828125 
Q 26.265625 48.1875 28.421875 48.1875 
Q 40.625 48.1875 47.75 41.5 
Q 54.890625 34.8125 54.890625 23.390625 
Q 54.890625 11.625 47.5625 5.09375 
Q 40.234375 -1.421875 26.90625 -1.421875 
Q 22.3125 -1.421875 17.546875 -0.640625 
Q 12.796875 0.140625 7.71875 1.703125 
L 7.71875 11.625 
Q 12.109375 9.234375 16.796875 8.0625 
Q 21.484375 6.890625 26.703125 6.890625 
Q 35.15625 6.890625 40.078125 11.328125 
Q 45.015625 15.765625 45.015625 23.390625 
Q 45.015625 31 40.078125 35.4375 
Q 35.15625 39.890625 26.703125 39.890625 
Q 22.75 39.890625 18.8125 39.015625 
Q 14.890625 38.140625 10.796875 36.28125 
z
" id="DejaVuSans-35"/>
      </defs>
      <g style="fill:#262626;" transform="translate(158.973461 368.40544)rotate(-30)scale(0.1 -0.1)">
       <use xlink:href="#DejaVuSans-32"/>
       <use x="63.623047" xlink:href="#DejaVuSans-30"/>
       <use x="127.246094" xlink:href="#DejaVuSans-31"/>
       <use x="190.869141" xlink:href="#DejaVuSans-35"/>
      </g>
     </g>
    </g>
    <g id="xtick_2">
     <g id="line2d_3">
      <path clip-path="url(#p07a451c62e)" d="M 453.802545 345.6 
L 453.802545 51.84 
" style="fill:none;stroke:#ffffff;stroke-linecap:round;stroke-width:0.8;"/>
     </g>
     <g id="line2d_4"/>
     <g id="text_2">
      <!-- 2016 -->
      <defs>
       <path d="M 33.015625 40.375 
Q 26.375 40.375 22.484375 35.828125 
Q 18.609375 31.296875 18.609375 23.390625 
Q 18.609375 15.53125 22.484375 10.953125 
Q 26.375 6.390625 33.015625 6.390625 
Q 39.65625 6.390625 43.53125 10.953125 
Q 47.40625 15.53125 47.40625 23.390625 
Q 47.40625 31.296875 43.53125 35.828125 
Q 39.65625 40.375 33.015625 40.375 
z
M 52.59375 71.296875 
L 52.59375 62.3125 
Q 48.875 64.0625 45.09375 64.984375 
Q 41.3125 65.921875 37.59375 65.921875 
Q 27.828125 65.921875 22.671875 59.328125 
Q 17.53125 52.734375 16.796875 39.40625 
Q 19.671875 43.65625 24.015625 45.921875 
Q 28.375 48.1875 33.59375 48.1875 
Q 44.578125 48.1875 50.953125 41.515625 
Q 57.328125 34.859375 57.328125 23.390625 
Q 57.328125 12.15625 50.6875 5.359375 
Q 44.046875 -1.421875 33.015625 -1.421875 
Q 20.359375 -1.421875 13.671875 8.265625 
Q 6.984375 17.96875 6.984375 36.375 
Q 6.984375 53.65625 15.1875 63.9375 
Q 23.390625 74.21875 37.203125 74.21875 
Q 40.921875 74.21875 44.703125 73.484375 
Q 48.484375 72.75 52.59375 71.296875 
z
" id="DejaVuSans-36"/>
      </defs>
      <g style="fill:#262626;" transform="translate(430.722354 368.40544)rotate(-30)scale(0.1 -0.1)">
       <use xlink:href="#DejaVuSans-32"/>
       <use x="63.623047" xlink:href="#DejaVuSans-30"/>
       <use x="127.246094" xlink:href="#DejaVuSans-31"/>
       <use x="190.869141" xlink:href="#DejaVuSans-36"/>
      </g>
     </g>
    </g>
    <g id="xtick_3">
     <g id="line2d_5">
      <path clip-path="url(#p07a451c62e)" d="M 726.295955 345.6 
L 726.295955 51.84 
" style="fill:none;stroke:#ffffff;stroke-linecap:round;stroke-width:0.8;"/>
     </g>
     <g id="line2d_6"/>
     <g id="text_3">
      <!-- 2017 -->
      <defs>
       <path d="M 8.203125 72.90625 
L 55.078125 72.90625 
L 55.078125 68.703125 
L 28.609375 0 
L 18.3125 0 
L 43.21875 64.59375 
L 8.203125 64.59375 
z
" id="DejaVuSans-37"/>
      </defs>
      <g style="fill:#262626;" transform="translate(703.215765 368.40544)rotate(-30)scale(0.1 -0.1)">
       <use xlink:href="#DejaVuSans-32"/>
       <use x="63.623047" xlink:href="#DejaVuSans-30"/>
       <use x="127.246094" xlink:href="#DejaVuSans-31"/>
       <use x="190.869141" xlink:href="#DejaVuSans-37"/>
      </g>
     </g>
    </g>
    <g id="xtick_4">
     <g id="line2d_7">
      <path clip-path="url(#p07a451c62e)" d="M 998.044848 345.6 
L 998.044848 51.84 
" style="fill:none;stroke:#ffffff;stroke-linecap:round;stroke-width:0.8;"/>
     </g>
     <g id="line2d_8"/>
     <g id="text_4">
      <!-- 2018 -->
      <defs>
       <path d="M 31.78125 34.625 
Q 24.75 34.625 20.71875 30.859375 
Q 16.703125 27.09375 16.703125 20.515625 
Q 16.703125 13.921875 20.71875 10.15625 
Q 24.75 6.390625 31.78125 6.390625 
Q 38.8125 6.390625 42.859375 10.171875 
Q 46.921875 13.96875 46.921875 20.515625 
Q 46.921875 27.09375 42.890625 30.859375 
Q 38.875 34.625 31.78125 34.625 
z
M 21.921875 38.8125 
Q 15.578125 40.375 12.03125 44.71875 
Q 8.5 49.078125 8.5 55.328125 
Q 8.5 64.0625 14.71875 69.140625 
Q 20.953125 74.21875 31.78125 74.21875 
Q 42.671875 74.21875 48.875 69.140625 
Q 55.078125 64.0625 55.078125 55.328125 
Q 55.078125 49.078125 51.53125 44.71875 
Q 48 40.375 41.703125 38.8125 
Q 48.828125 37.15625 52.796875 32.3125 
Q 56.78125 27.484375 56.78125 20.515625 
Q 56.78125 9.90625 50.3125 4.234375 
Q 43.84375 -1.421875 31.78125 -1.421875 
Q 19.734375 -1.421875 13.25 4.234375 
Q 6.78125 9.90625 6.78125 20.515625 
Q 6.78125 27.484375 10.78125 32.3125 
Q 14.796875 37.15625 21.921875 38.8125 
z
M 18.3125 54.390625 
Q 18.3125 48.734375 21.84375 45.5625 
Q 25.390625 42.390625 31.78125 42.390625 
Q 38.140625 42.390625 41.71875 45.5625 
Q 45.3125 48.734375 45.3125 54.390625 
Q 45.3125 60.0625 41.71875 63.234375 
Q 38.140625 66.40625 31.78125 66.40625 
Q 25.390625 66.40625 21.84375 63.234375 
Q 18.3125 60.0625 18.3125 54.390625 
z
" id="DejaVuSans-38"/>
      </defs>
      <g style="fill:#262626;" transform="translate(974.964658 368.40544)rotate(-30)scale(0.1 -0.1)">
       <use xlink:href="#DejaVuSans-32"/>
       <use x="63.623047" xlink:href="#DejaVuSans-30"/>
       <use x="127.246094" xlink:href="#DejaVuSans-31"/>
       <use x="190.869141" xlink:href="#DejaVuSans-38"/>
      </g>
     </g>
    </g>
    <g id="xtick_5">
     <g id="line2d_9"/>
    </g>
    <g id="xtick_6">
     <g id="line2d_10"/>
    </g>
    <g id="xtick_7">
     <g id="line2d_11"/>
    </g>
    <g id="xtick_8">
     <g id="line2d_12"/>
    </g>
    <g id="xtick_9">
     <g id="line2d_13"/>
    </g>
    <g id="xtick_10">
     <g id="line2d_14"/>
    </g>
    <g id="xtick_11">
     <g id="line2d_15"/>
    </g>
    <g id="xtick_12">
     <g id="line2d_16"/>
    </g>
    <g id="xtick_13">
     <g id="line2d_17"/>
    </g>
    <g id="xtick_14">
     <g id="line2d_18"/>
    </g>
    <g id="xtick_15">
     <g id="line2d_19"/>
    </g>
    <g id="xtick_16">
     <g id="line2d_20"/>
    </g>
    <g id="xtick_17">
     <g id="line2d_21"/>
    </g>
    <g id="xtick_18">
     <g id="line2d_22"/>
    </g>
    <g id="xtick_19">
     <g id="line2d_23"/>
    </g>
    <g id="xtick_20">
     <g id="line2d_24"/>
    </g>
    <g id="xtick_21">
     <g id="line2d_25"/>
    </g>
    <g id="xtick_22">
     <g id="line2d_26"/>
    </g>
    <g id="xtick_23">
     <g id="line2d_27"/>
    </g>
    <g id="xtick_24">
     <g id="line2d_28"/>
    </g>
    <g id="xtick_25">
     <g id="line2d_29"/>
    </g>
    <g id="xtick_26">
     <g id="line2d_30"/>
    </g>
    <g id="xtick_27">
     <g id="line2d_31"/>
    </g>
    <g id="xtick_28">
     <g id="line2d_32"/>
    </g>
    <g id="xtick_29">
     <g id="line2d_33"/>
    </g>
    <g id="xtick_30">
     <g id="line2d_34"/>
    </g>
    <g id="xtick_31">
     <g id="line2d_35"/>
    </g>
    <g id="xtick_32">
     <g id="line2d_36"/>
    </g>
    <g id="xtick_33">
     <g id="line2d_37"/>
    </g>
    <g id="xtick_34">
     <g id="line2d_38"/>
    </g>
    <g id="xtick_35">
     <g id="line2d_39"/>
    </g>
    <g id="xtick_36">
     <g id="line2d_40"/>
    </g>
    <g id="xtick_37">
     <g id="line2d_41"/>
    </g>
    <g id="xtick_38">
     <g id="line2d_42"/>
    </g>
    <g id="xtick_39">
     <g id="line2d_43"/>
    </g>
    <g id="xtick_40">
     <g id="line2d_44"/>
    </g>
    <g id="xtick_41">
     <g id="line2d_45"/>
    </g>
    <g id="xtick_42">
     <g id="line2d_46"/>
    </g>
    <g id="xtick_43">
     <g id="line2d_47"/>
    </g>
    <g id="text_5">
     <!-- Year -->
     <defs>
      <path d="M -0.203125 72.90625 
L 10.40625 72.90625 
L 30.609375 42.921875 
L 50.6875 72.90625 
L 61.28125 72.90625 
L 35.5 34.71875 
L 35.5 0 
L 25.59375 0 
L 25.59375 34.71875 
z
" id="DejaVuSans-59"/>
      <path d="M 56.203125 29.59375 
L 56.203125 25.203125 
L 14.890625 25.203125 
Q 15.484375 15.921875 20.484375 11.0625 
Q 25.484375 6.203125 34.421875 6.203125 
Q 39.59375 6.203125 44.453125 7.46875 
Q 49.3125 8.734375 54.109375 11.28125 
L 54.109375 2.78125 
Q 49.265625 0.734375 44.1875 -0.34375 
Q 39.109375 -1.421875 33.890625 -1.421875 
Q 20.796875 -1.421875 13.15625 6.1875 
Q 5.515625 13.8125 5.515625 26.8125 
Q 5.515625 40.234375 12.765625 48.109375 
Q 20.015625 56 32.328125 56 
Q 43.359375 56 49.78125 48.890625 
Q 56.203125 41.796875 56.203125 29.59375 
z
M 47.21875 32.234375 
Q 47.125 39.59375 43.09375 43.984375 
Q 39.0625 48.390625 32.421875 48.390625 
Q 24.90625 48.390625 20.390625 44.140625 
Q 15.875 39.890625 15.1875 32.171875 
z
" id="DejaVuSans-65"/>
      <path d="M 34.28125 27.484375 
Q 23.390625 27.484375 19.1875 25 
Q 14.984375 22.515625 14.984375 16.5 
Q 14.984375 11.71875 18.140625 8.90625 
Q 21.296875 6.109375 26.703125 6.109375 
Q 34.1875 6.109375 38.703125 11.40625 
Q 43.21875 16.703125 43.21875 25.484375 
L 43.21875 27.484375 
z
M 52.203125 31.203125 
L 52.203125 0 
L 43.21875 0 
L 43.21875 8.296875 
Q 40.140625 3.328125 35.546875 0.953125 
Q 30.953125 -1.421875 24.3125 -1.421875 
Q 15.921875 -1.421875 10.953125 3.296875 
Q 6 8.015625 6 15.921875 
Q 6 25.140625 12.171875 29.828125 
Q 18.359375 34.515625 30.609375 34.515625 
L 43.21875 34.515625 
L 43.21875 35.40625 
Q 43.21875 41.609375 39.140625 45 
Q 35.0625 48.390625 27.6875 48.390625 
Q 23 48.390625 18.546875 47.265625 
Q 14.109375 46.140625 10.015625 43.890625 
L 10.015625 52.203125 
Q 14.9375 54.109375 19.578125 55.046875 
Q 24.21875 56 28.609375 56 
Q 40.484375 56 46.34375 49.84375 
Q 52.203125 43.703125 52.203125 31.203125 
z
" id="DejaVuSans-61"/>
      <path d="M 41.109375 46.296875 
Q 39.59375 47.171875 37.8125 47.578125 
Q 36.03125 48 33.890625 48 
Q 26.265625 48 22.1875 43.046875 
Q 18.109375 38.09375 18.109375 28.8125 
L 18.109375 0 
L 9.078125 0 
L 9.078125 54.6875 
L 18.109375 54.6875 
L 18.109375 46.1875 
Q 20.953125 51.171875 25.484375 53.578125 
Q 30.03125 56 36.53125 56 
Q 37.453125 56 38.578125 55.875 
Q 39.703125 55.765625 41.0625 55.515625 
z
" id="DejaVuSans-72"/>
     </defs>
     <g style="fill:#262626;" transform="translate(578.036172 382.564783)scale(0.11 -0.11)">
      <use xlink:href="#DejaVuSans-59"/>
      <use x="60.880859" xlink:href="#DejaVuSans-65"/>
      <use x="122.404297" xlink:href="#DejaVuSans-61"/>
      <use x="183.683594" xlink:href="#DejaVuSans-72"/>
     </g>
    </g>
   </g>
   <g id="matplotlib.axis_2">
    <g id="ytick_1">
     <g id="line2d_48">
      <path clip-path="url(#p07a451c62e)" d="M 144 311.843223 
L 1036.8 311.843223 
" style="fill:none;stroke:#ffffff;stroke-linecap:round;stroke-width:0.8;"/>
     </g>
     <g id="line2d_49"/>
     <g id="text_6">
      <!-- 4000 -->
      <defs>
       <path d="M 37.796875 64.3125 
L 12.890625 25.390625 
L 37.796875 25.390625 
z
M 35.203125 72.90625 
L 47.609375 72.90625 
L 47.609375 25.390625 
L 58.015625 25.390625 
L 58.015625 17.1875 
L 47.609375 17.1875 
L 47.609375 0 
L 37.796875 0 
L 37.796875 17.1875 
L 4.890625 17.1875 
L 4.890625 26.703125 
z
" id="DejaVuSans-34"/>
      </defs>
      <g style="fill:#262626;" transform="translate(115.05 315.642441)scale(0.1 -0.1)">
       <use xlink:href="#DejaVuSans-34"/>
       <use x="63.623047" xlink:href="#DejaVuSans-30"/>
       <use x="127.246094" xlink:href="#DejaVuSans-30"/>
       <use x="190.869141" xlink:href="#DejaVuSans-30"/>
      </g>
     </g>
    </g>
    <g id="ytick_2">
     <g id="line2d_50">
      <path clip-path="url(#p07a451c62e)" d="M 144 258.263269 
L 1036.8 258.263269 
" style="fill:none;stroke:#ffffff;stroke-linecap:round;stroke-width:0.8;"/>
     </g>
     <g id="line2d_51"/>
     <g id="text_7">
      <!-- 6000 -->
      <g style="fill:#262626;" transform="translate(115.05 262.062488)scale(0.1 -0.1)">
       <use xlink:href="#DejaVuSans-36"/>
       <use x="63.623047" xlink:href="#DejaVuSans-30"/>
       <use x="127.246094" xlink:href="#DejaVuSans-30"/>
       <use x="190.869141" xlink:href="#DejaVuSans-30"/>
      </g>
     </g>
    </g>
    <g id="ytick_3">
     <g id="line2d_52">
      <path clip-path="url(#p07a451c62e)" d="M 144 204.683315 
L 1036.8 204.683315 
" style="fill:none;stroke:#ffffff;stroke-linecap:round;stroke-width:0.8;"/>
     </g>
     <g id="line2d_53"/>
     <g id="text_8">
      <!-- 8000 -->
      <g style="fill:#262626;" transform="translate(115.05 208.482534)scale(0.1 -0.1)">
       <use xlink:href="#DejaVuSans-38"/>
       <use x="63.623047" xlink:href="#DejaVuSans-30"/>
       <use x="127.246094" xlink:href="#DejaVuSans-30"/>
       <use x="190.869141" xlink:href="#DejaVuSans-30"/>
      </g>
     </g>
    </g>
    <g id="ytick_4">
     <g id="line2d_54">
      <path clip-path="url(#p07a451c62e)" d="M 144 151.103361 
L 1036.8 151.103361 
" style="fill:none;stroke:#ffffff;stroke-linecap:round;stroke-width:0.8;"/>
     </g>
     <g id="line2d_55"/>
     <g id="text_9">
      <!-- 10000 -->
      <g style="fill:#262626;" transform="translate(108.6875 154.90258)scale(0.1 -0.1)">
       <use xlink:href="#DejaVuSans-31"/>
       <use x="63.623047" xlink:href="#DejaVuSans-30"/>
       <use x="127.246094" xlink:href="#DejaVuSans-30"/>
       <use x="190.869141" xlink:href="#DejaVuSans-30"/>
       <use x="254.492188" xlink:href="#DejaVuSans-30"/>
      </g>
     </g>
    </g>
    <g id="ytick_5">
     <g id="line2d_56">
      <path clip-path="url(#p07a451c62e)" d="M 144 97.523407 
L 1036.8 97.523407 
" style="fill:none;stroke:#ffffff;stroke-linecap:round;stroke-width:0.8;"/>
     </g>
     <g id="line2d_57"/>
     <g id="text_10">
      <!-- 12000 -->
      <g style="fill:#262626;" transform="translate(108.6875 101.322626)scale(0.1 -0.1)">
       <use xlink:href="#DejaVuSans-31"/>
       <use x="63.623047" xlink:href="#DejaVuSans-32"/>
       <use x="127.246094" xlink:href="#DejaVuSans-30"/>
       <use x="190.869141" xlink:href="#DejaVuSans-30"/>
       <use x="254.492188" xlink:href="#DejaVuSans-30"/>
      </g>
     </g>
    </g>
    <g id="text_11">
     <!-- Balance -->
     <defs>
      <path d="M 19.671875 34.8125 
L 19.671875 8.109375 
L 35.5 8.109375 
Q 43.453125 8.109375 47.28125 11.40625 
Q 51.125 14.703125 51.125 21.484375 
Q 51.125 28.328125 47.28125 31.5625 
Q 43.453125 34.8125 35.5 34.8125 
z
M 19.671875 64.796875 
L 19.671875 42.828125 
L 34.28125 42.828125 
Q 41.5 42.828125 45.03125 45.53125 
Q 48.578125 48.25 48.578125 53.8125 
Q 48.578125 59.328125 45.03125 62.0625 
Q 41.5 64.796875 34.28125 64.796875 
z
M 9.8125 72.90625 
L 35.015625 72.90625 
Q 46.296875 72.90625 52.390625 68.21875 
Q 58.5 63.53125 58.5 54.890625 
Q 58.5 48.1875 55.375 44.234375 
Q 52.25 40.28125 46.1875 39.3125 
Q 53.46875 37.75 57.5 32.78125 
Q 61.53125 27.828125 61.53125 20.40625 
Q 61.53125 10.640625 54.890625 5.3125 
Q 48.25 0 35.984375 0 
L 9.8125 0 
z
" id="DejaVuSans-42"/>
      <path d="M 9.421875 75.984375 
L 18.40625 75.984375 
L 18.40625 0 
L 9.421875 0 
z
" id="DejaVuSans-6c"/>
      <path d="M 54.890625 33.015625 
L 54.890625 0 
L 45.90625 0 
L 45.90625 32.71875 
Q 45.90625 40.484375 42.875 44.328125 
Q 39.84375 48.1875 33.796875 48.1875 
Q 26.515625 48.1875 22.3125 43.546875 
Q 18.109375 38.921875 18.109375 30.90625 
L 18.109375 0 
L 9.078125 0 
L 9.078125 54.6875 
L 18.109375 54.6875 
L 18.109375 46.1875 
Q 21.34375 51.125 25.703125 53.5625 
Q 30.078125 56 35.796875 56 
Q 45.21875 56 50.046875 50.171875 
Q 54.890625 44.34375 54.890625 33.015625 
z
" id="DejaVuSans-6e"/>
      <path d="M 48.78125 52.59375 
L 48.78125 44.1875 
Q 44.96875 46.296875 41.140625 47.34375 
Q 37.3125 48.390625 33.40625 48.390625 
Q 24.65625 48.390625 19.8125 42.84375 
Q 14.984375 37.3125 14.984375 27.296875 
Q 14.984375 17.28125 19.8125 11.734375 
Q 24.65625 6.203125 33.40625 6.203125 
Q 37.3125 6.203125 41.140625 7.25 
Q 44.96875 8.296875 48.78125 10.40625 
L 48.78125 2.09375 
Q 45.015625 0.34375 40.984375 -0.53125 
Q 36.96875 -1.421875 32.421875 -1.421875 
Q 20.0625 -1.421875 12.78125 6.34375 
Q 5.515625 14.109375 5.515625 27.296875 
Q 5.515625 40.671875 12.859375 48.328125 
Q 20.21875 56 33.015625 56 
Q 37.15625 56 41.109375 55.140625 
Q 45.0625 54.296875 48.78125 52.59375 
z
" id="DejaVuSans-63"/>
     </defs>
     <g style="fill:#262626;" transform="translate(102.399844 220.656406)rotate(-90)scale(0.11 -0.11)">
      <use xlink:href="#DejaVuSans-42"/>
      <use x="68.603516" xlink:href="#DejaVuSans-61"/>
      <use x="129.882812" xlink:href="#DejaVuSans-6c"/>
      <use x="157.666016" xlink:href="#DejaVuSans-61"/>
      <use x="218.945312" xlink:href="#DejaVuSans-6e"/>
      <use x="282.324219" xlink:href="#DejaVuSans-63"/>
      <use x="337.304688" xlink:href="#DejaVuSans-65"/>
     </g>
    </g>
   </g>
   <g id="line2d_58">
    <path clip-path="url(#p07a451c62e)" d="M 184.581818 264.816365 
L 184.847656 276.909896 
L 185.521625 277.311746 
L 187.203718 277.303977 
L 189.613611 230.625389 
L 189.857595 212.918554 
L 190.412907 239.1588 
L 190.688801 231.121807 
L 190.704217 239.1588 
L 190.742856 212.918554 
L 190.83387 186.678307 
L 191.700491 212.918554 
L 193.161383 209.020076 
L 193.200013 212.918554 
L 200.163001 211.579055 
L 200.400773 209.609456 
L 200.489805 209.877356 
L 200.620544 209.609456 
L 203.45956 153.357738 
L 204.711486 153.490348 
L 204.803715 153.40462 
L 206.071997 153.05635 
L 206.125286 151.264905 
L 206.456751 149.565348 
L 211.939002 149.297449 
L 211.971842 148.830767 
L 212.045639 131.484257 
L 212.312442 131.216357 
L 212.338913 130.452843 
L 212.627405 130.593223 
L 212.977897 130.452843 
L 214.608632 130.720743 
L 216.875352 70.857468 
L 217.499402 70.971325 
L 221.580452 70.703426 
L 221.894839 67.39915 
L 222.239376 65.192727 
L 222.506213 65.460627 
L 223.245345 65.594577 
L 223.599499 65.996427 
L 225.976751 65.90159 
L 226.38234 68.580588 
L 227.148065 68.694445 
L 234.275803 69.230245 
L 234.300836 69.364195 
L 234.543149 71.373443 
L 234.819758 71.775293 
L 240.55243 69.096295 
L 242.898169 70.435794 
L 248.593254 71.922102 
L 249.553509 71.933889 
L 249.94981 72.061945 
L 250.907928 73.401444 
L 252.005118 73.936976 
L 252.318453 74.204876 
L 252.901813 80.90237 
L 253.391454 81.438169 
L 255.693107 81.708748 
L 257.254242 82.190432 
L 258.323788 79.538224 
L 258.687266 82.190432 
L 259.821767 82.244012 
L 263.223756 83.583511 
L 270.150173 84.719674 
L 271.221046 84.625641 
L 272.612811 85.418356 
L 273.789166 85.615798 
L 274.517492 86.339663 
L 275.710702 88.620026 
L 276.319741 89.795035 
L 276.368548 90.626328 
L 276.960354 90.765368 
L 278.037448 93.776829 
L 279.139024 93.833892 
L 279.470886 94.795652 
L 279.76123 95.190536 
L 280.778109 95.404856 
L 281.65271 96.073802 
L 282.895373 95.671952 
L 282.984267 96.073802 
L 283.279567 96.475651 
L 286.26491 96.904291 
L 287.66593 91.546295 
L 291.998479 91.801068 
L 294.221906 91.704088 
L 295.783868 66.213693 
L 296.014142 70.716017 
L 299.407953 71.225026 
L 302.289089 70.421327 
L 303.024335 68.813928 
L 303.28196 67.742329 
L 303.307183 66.134931 
L 305.045011 67.2869 
L 306.695987 67.5548 
L 309.510634 68.144179 
L 310.678354 286.303802 
L 314.902621 287.442108 
L 339.298383 287.241183 
L 339.483521 289.384381 
L 339.852101 289.38331 
L 346.622936 332.247273 
L 346.75794 289.38331 
L 346.895409 176.195657 
L 347.097437 289.38331 
L 349.677336 278.131519 
L 351.866209 276.79202 
L 352.403899 266.879729 
L 352.404916 268.887102 
L 352.438859 270.73561 
L 353.659755 271.260694 
L 358.242812 279.055238 
L 359.226127 279.467535 
L 359.322121 279.913857 
L 359.533973 272.119313 
L 359.71837 279.913857 
L 360.030464 284.012723 
L 360.055273 288.111589 
L 360.724261 288.242592 
L 361.571727 290.121641 
L 362.787161 290.010195 
L 362.900838 290.357125 
L 370.010877 290.701109 
L 370.96404 290.053595 
L 371.065687 286.035098 
L 371.255556 284.856339 
L 371.476077 285.102003 
L 372.359726 285.638339 
L 376.335148 283.930746 
L 377.077675 284.332595 
L 377.849845 289.020841 
L 381.03513 289.95849 
L 384.959496 290.034842 
L 384.972378 290.02359 
L 385.170123 290.021715 
L 385.590164 289.378755 
L 390.990079 289.624419 
L 391.47953 289.692734 
L 396.289398 285.486975 
L 398.324697 285.698884 
L 406.042008 286.077694 
L 406.879349 281.777635 
L 407.688538 281.997849 
L 407.773787 281.902209 
L 411.689579 282.124833 
L 412.657658 282.361389 
L 416.193496 282.746361 
L 417.154553 283.041051 
L 417.34855 284.206415 
L 417.517893 279.953506 
L 417.599454 280.511809 
L 418.580631 281.776296 
L 419.854945 281.979632 
L 425.350088 282.393269 
L 428.332182 279.083367 
L 429.590244 279.418778 
L 429.996187 279.326084 
L 430.455177 273.29834 
L 430.612353 273.458812 
L 430.819103 273.578563 
L 431.367065 273.63 
L 431.706337 273.883701 
L 433.400632 273.969161 
L 435.17466 275.308659 
L 436.720016 275.425196 
L 437.059186 275.567719 
L 437.616169 276.210678 
L 438.183269 271.116832 
L 438.790723 271.213008 
L 446.089873 272.016707 
L 447.99863 269.467105 
L 450.813406 269.811088 
L 452.119861 270.1974 
L 453.257439 270.098813 
L 456.056567 266.750066 
L 456.110432 268.089564 
L 456.207082 267.75469 
L 456.459821 267.745045 
L 456.713905 267.410171 
L 457.371769 273.571865 
L 458.673529 280.26936 
L 459.039781 278.983441 
L 463.007189 280.376519 
L 464.303692 274.214825 
L 464.65334 280.376519 
L 466.898198 282.363532 
L 469.345696 276.069495 
L 469.644218 278.076064 
L 473.870062 278.26922 
L 474.055709 279.379932 
L 474.126274 280.531901 
L 474.736701 281.73745 
L 474.94277 280.531901 
L 475.482407 280.933751 
L 476.838739 280.835164 
L 476.850493 283.128386 
L 479.788985 280.985188 
L 481.872781 281.735307 
L 482.671586 283.074806 
L 486.327451 283.518984 
L 486.389279 283.913332 
L 486.698366 282.945946 
L 489.157247 283.397089 
L 489.241289 282.107152 
L 490.780226 279.467535 
L 492.512772 280.003335 
L 493.674641 280.217119 
L 497.861096 280.289988 
L 498.061737 280.273646 
L 499.829293 281.881045 
L 500.8779 280.809445 
L 502.233809 281.345245 
L 504.996805 281.537329 
L 505.715411 281.939179 
L 511.725279 280.86758 
L 513.399831 280.966971 
L 514.06309 281.23487 
L 517.033344 283.179823 
L 517.586114 283.289662 
L 518.817256 284.62916 
L 521.084424 284.758556 
L 521.399888 284.66238 
L 522.08368 278.65955 
L 527.559296 279.030859 
L 527.572403 279.298759 
L 527.927462 277.69136 
L 528.094143 279.298759 
L 529.285948 279.700608 
L 530.757016 279.877154 
L 534.366625 281.484553 
L 535.366054 282.505519 
L 537.018133 283.02203 
L 539.441753 283.198576 
L 542.198303 283.574439 
L 542.402615 281.91346 
L 543.154577 281.910781 
L 543.157585 282.138764 
L 543.469007 282.045535 
L 544.794851 283.664989 
L 545.850187 283.926727 
L 547.338059 284.194627 
L 547.810483 285.054317 
L 548.303674 286.734853 
L 549.148409 287.852798 
L 551.143707 288.081585 
L 551.964417 289.528243 
L 552.051932 290.158879 
L 556.624829 290.598771 
L 561.993602 291.000621 
L 565.709985 292.340119 
L 566.245142 292.844575 
L 566.258955 293.404485 
L 566.962395 293.305898 
L 569.415606 292.801443 
L 570.930535 293.374748 
L 574.27921 294.118438 
L 574.499333 294.490283 
L 575.285359 294.801315 
L 575.288419 295.338454 
L 575.760127 299.195942 
L 577.89865 299.299084 
L 578.204713 299.625922 
L 581.168513 299.675215 
L 582.028698 300.211015 
L 583.730842 300.586074 
L 587.4181 300.766371 
L 588.288142 297.283674 
L 588.601762 297.190445 
L 589.09572 297.181872 
L 589.421938 296.885843 
L 589.62263 286.377742 
L 589.819522 282.883793 
L 590.830368 283.553543 
L 594.359571 284.843212 
L 595.264401 283.553543 
L 595.440586 285.846497 
L 596.961065 285.901684 
L 597.597912 286.120558 
L 597.615861 278.300296 
L 597.678654 286.120558 
L 598.701607 286.213252 
L 599.842442 282.671081 
L 600.353945 264.756355 
L 600.599998 264.943885 
L 600.72392 265.345735 
L 600.794873 268.887906 
L 602.25262 269.021856 
L 608.826072 255.626867 
L 609.504979 282.416844 
L 609.634933 269.021856 
L 609.836048 282.416844 
L 610.22436 281.505985 
L 610.420933 281.660563 
L 610.605787 280.749704 
L 610.671243 279.838845 
L 610.705617 264.495957 
L 611.052351 264.896735 
L 611.380672 265.764462 
L 611.520639 265.818042 
L 611.631214 267.277828 
L 611.749423 267.813628 
L 611.941981 267.711022 
L 612.190808 267.858367 
L 614.332003 281.253355 
L 615.75248 281.406326 
L 615.904563 258.042787 
L 615.993871 280.738184 
L 616.149099 280.960273 
L 616.18779 282.299772 
L 617.897346 283.001401 
L 618.404074 260.306004 
L 618.800926 283.001401 
L 619.895789 283.492462 
L 620.589293 276.347307 
L 620.619919 271.230421 
L 620.779076 270.426722 
L 621.166794 270.473069 
L 621.248234 270.939482 
L 621.593815 272.945784 
L 621.690231 276.026363 
L 622.64187 278.035611 
L 622.686067 277.462842 
L 622.745947 279.068097 
L 622.815159 225.488143 
L 623.136 225.568513 
L 623.182196 224.657654 
L 623.252969 278.237608 
L 624.461836 279.148467 
L 624.531169 279.690964 
L 624.877714 279.691768 
L 625.032107 279.903408 
L 626.477686 289.2799 
L 627.589137 290.724952 
L 628.890026 286.036706 
L 629.466381 295.413198 
L 629.861406 295.552238 
L 630.373589 300.470342 
L 631.226691 300.827988 
L 631.34347 286.583489 
L 631.345262 281.841663 
L 632.057802 277.099837 
L 632.247516 282.155374 
L 635.343847 282.073129 
L 636.679635 267.202548 
L 657.33343 267.108783 
L 675.779093 267.242733 
L 676.040958 267.644583 
L 676.415914 262.607264 
L 676.491874 270.374214 
L 676.702329 269.353248 
L 676.846347 271.469656 
L 678.283705 271.795958 
L 678.587492 272.063857 
L 679.888278 272.14396 
L 680.160285 280.850702 
L 680.388397 281.119941 
L 680.500377 281.022426 
L 680.771565 281.019747 
L 683.65246 281.329439 
L 685.825297 281.652258 
L 686.717046 282.054108 
L 687.96301 279.91091 
L 689.225562 280.196759 
L 689.87075 280.73229 
L 692.589566 280.94661 
L 692.727241 280.86624 
L 692.751223 281.042786 
L 693.042472 281.149946 
L 693.221337 281.069576 
L 694.191821 281.836841 
L 695.515683 282.034283 
L 695.568739 282.837982 
L 695.949296 283.186252 
L 695.970373 280.935894 
L 696.267336 272.807547 
L 696.374679 263.457845 
L 696.399178 269.193847 
L 696.485124 269.033107 
L 696.508494 269.187953 
L 697.711769 269.348693 
L 702.328837 269.509433 
L 702.757193 269.867079 
L 702.758788 269.864132 
L 702.872843 269.768224 
L 702.896136 270.059967 
L 703.425234 270.274019 
L 703.599756 278.980762 
L 706.355367 279.277059 
L 706.516697 279.486021 
L 706.962158 279.668996 
L 707.194457 281.490982 
L 708.090662 281.645829 
L 709.019939 282.078219 
L 709.194107 275.561557 
L 709.233944 275.673271 
L 709.370448 275.83535 
L 709.417394 284.542093 
L 709.542342 282.934694 
L 709.642085 272.536165 
L 709.7549 274.143563 
L 710.770141 275.429482 
L 712.847431 275.709973 
L 712.909844 275.869909 
L 713.496514 275.950279 
L 713.948188 276.38267 
L 714.554866 276.725581 
L 714.845892 272.302288 
L 714.909555 269.141071 
L 718.115564 270.48057 
L 719.423089 270.695158 
L 720.247625 270.052198 
L 720.966075 274.473616 
L 723.598014 274.894219 
L 725.247809 266.836329 
L 726.112018 266.724883 
L 727.801996 268.863527 
L 728.29423 269.238854 
L 729.15588 298.648623 
L 729.512025 328.058392 
L 729.949101 298.648623 
L 730.66021 297.148384 
L 730.921645 297.234112 
L 732.454601 296.135723 
L 732.681395 266.725955 
L 732.723601 296.135723 
L 732.783861 295.010544 
L 733.639901 295.707084 
L 734.571831 295.858983 
L 735.25141 296.019723 
L 735.488234 291.005711 
L 735.920321 291.27361 
L 735.94706 290.603861 
L 736.646105 290.684231 
L 737.037477 292.559529 
L 737.097099 292.827429 
L 737.579648 292.907799 
L 737.80576 294.788455 
L 739.150356 294.949195 
L 740.074936 295.029565 
L 740.26247 295.255673 
L 740.83194 295.387479 
L 741.044455 295.776738 
L 741.26806 295.857108 
L 741.548865 295.187358 
L 741.691427 295.30443 
L 743.138807 296.146707 
L 743.697505 296.227077 
L 743.899447 296.627855 
L 744.289776 296.708225 
L 744.29623 296.038476 
L 744.569073 294.698977 
L 744.744586 298.047724 
L 745.020635 298.436982 
L 745.243568 298.383402 
L 745.393376 298.463772 
L 745.712743 299.133522 
L 745.89434 292.823143 
L 745.92593 293.358942 
L 746.008258 294.216221 
L 746.246073 294.273284 
L 746.255078 291.004907 
L 746.393873 291.085277 
L 746.683132 291.888976 
L 746.81768 291.219227 
L 746.945351 291.730647 
L 747.621276 292.132229 
L 747.760864 292.212599 
L 749.082529 292.129282 
L 749.096196 292.48157 
L 750.148163 292.72268 
L 751.803302 292.88342 
L 752.401923 293.152927 
L 755.741515 293.474407 
L 756.059943 293.875185 
L 756.294586 278.979958 
L 756.414183 279.060328 
L 756.582191 270.20115 
L 756.899464 270.73695 
L 756.984394 271.644594 
L 757.533639 271.918924 
L 758.510181 274.008542 
L 758.7423 274.295195 
L 758.768159 277.643942 
L 758.972936 272.955696 
L 759.345919 273.242081 
L 759.535004 274.514069 
L 760.054899 274.594439 
L 760.178451 274.803133 
L 760.855178 274.883503 
L 761.38918 272.954624 
L 761.442373 273.034994 
L 762.357423 273.115364 
L 764.40875 273.478904 
L 765.355054 273.549362 
L 765.416141 273.602942 
L 766.31655 273.693224 
L 766.530323 275.032723 
L 766.673281 276.6645 
L 766.856799 276.74487 
L 767.080456 254.751103 
L 767.210393 263.007774 
L 767.369853 263.275673 
L 767.867198 262.605924 
L 768.230546 263.945423 
L 769.03509 264.025793 
L 769.153059 267.37454 
L 769.837713 267.451159 
L 770.469028 267.585109 
L 770.561033 267.876584 
L 770.987208 267.956954 
L 770.999858 265.599436 
L 771.205161 289.98019 
L 771.463217 245.051256 
L 771.591379 265.971013 
L 773.953938 266.372863 
L 774.096956 266.453233 
L 775.014118 266.533603 
L 775.106855 267.244073 
L 775.253949 265.904574 
L 776.336188 266.172206 
L 776.357515 272.8697 
L 776.593649 272.95007 
L 777.25627 264.330663 
L 778.101539 264.682683 
L 778.517848 265.802504 
L 779.243959 266.097462 
L 779.369692 267.380166 
L 779.412088 266.710416 
L 779.658218 268.691803 
L 779.838893 268.69475 
L 779.89343 269.900299 
L 780.109504 269.980669 
L 780.887482 270.863667 
L 782.521276 271.240869 
L 782.94447 274.589616 
L 784.468387 275.170155 
L 784.659092 276.456074 
L 784.676283 276.348914 
L 784.896588 275.947065 
L 784.989713 276.482864 
L 785.012927 283.180358 
L 785.362506 283.260728 
L 786.89978 283.341098 
L 787.44706 284.225167 
L 787.681618 282.939249 
L 787.955512 275.279458 
L 788.258429 281.976953 
L 788.443809 275.279458 
L 788.508515 281.976953 
L 789.517956 282.087327 
L 789.795918 282.301647 
L 791.873579 282.979969 
L 792.649247 282.966039 
L 793.018499 283.275195 
L 793.933385 284.992165 
L 795.386538 285.486975 
L 795.38665 285.701295 
L 795.72307 285.781665 
L 796.337866 286.211108 
L 797.531783 287.290477 
L 797.976442 288.629975 
L 797.999071 289.969474 
L 798.053901 288.629975 
L 798.219091 281.570013 
L 798.245012 282.244585 
L 798.382368 281.923373 
L 798.67223 285.660039 
L 798.883573 285.991699 
L 798.984583 287.757962 
L 799.975093 288.018628 
L 802.666256 288.179368 
L 803.017472 288.581218 
L 803.131649 290.071812 
L 803.320656 290.741561 
L 804.071275 290.821931 
L 804.726847 291.518471 
L 805.600276 291.92032 
L 806.34008 292.120442 
L 806.420253 293.995472 
L 806.594965 294.045034 
L 807.977717 294.125403 
L 808.250069 293.455654 
L 808.465884 295.175303 
L 808.874628 286.965782 
L 810.650586 287.412371 
L 810.670793 288.08212 
L 811.034728 288.37681 
L 811.068524 288.64471 
L 811.202805 288.72508 
L 812.873359 289.262755 
L 813.119205 289.562267 
L 813.835743 289.642637 
L 813.891961 290.031895 
L 815.252687 290.02868 
L 816.316675 290.243 
L 816.354064 290.61806 
L 817.02251 290.866939 
L 817.343394 291.4306 
L 817.983429 291.56455 
L 818.228008 292.941286 
L 818.57146 293.021656 
L 818.921892 286.560986 
L 818.992379 286.760303 
L 819.021376 286.840673 
L 819.301923 286.227182 
L 819.753821 288.276884 
L 819.95653 288.490936 
L 820.057272 286.775305 
L 820.868684 285.5285 
L 820.921068 286.683148 
L 821.104388 286.790308 
L 821.150489 286.120558 
L 821.255428 286.521336 
L 821.41961 285.851587 
L 821.423393 287.191086 
L 821.968967 287.314588 
L 823.122401 287.394958 
L 824.129343 288.734456 
L 824.303254 286.376938 
L 824.517147 286.457308 
L 826.820395 286.59099 
L 828.765904 286.991768 
L 829.068399 286.455969 
L 829.31427 279.515757 
L 829.388765 281.123156 
L 829.410058 285.141653 
L 829.9172 283.210095 
L 830.078814 283.531575 
L 830.351683 283.129725 
L 830.479587 283.451205 
L 830.521854 283.987005 
L 831.629815 284.336882 
L 831.724672 284.537807 
L 832.198302 285.007435 
L 832.952436 285.373118 
L 833.133145 286.0426 
L 834.578354 286.203339 
L 835.56403 286.764322 
L 837.802925 286.844691 
L 837.82414 287.032221 
L 838.344983 287.353701 
L 838.541333 287.648391 
L 838.675096 287.645176 
L 839.031853 287.988623 
L 839.860542 281.048412 
L 839.922904 281.414095 
L 842.157732 283.075074 
L 843.221289 281.896315 
L 843.385453 280.931876 
L 843.548316 286.27085 
L 845.636929 287.878249 
L 850.428141 271.460547 
L 850.609143 274.407445 
L 860.474147 274.40423 
L 860.672874 255.408529 
L 860.940513 255.405046 
L 863.002706 256.744545 
L 865.752397 256.937433 
L 866.070824 257.263735 
L 866.076589 257.549852 
L 866.324555 258.275056 
L 866.516639 259.077416 
L 866.583137 256.264469 
L 866.595744 256.585948 
L 866.777521 258.242908 
L 868.75923 258.692444 
L 869.617097 260.031943 
L 869.820297 260.683207 
L 869.894404 262.156656 
L 870.146179 262.237026 
L 870.332851 263.240043 
L 870.876314 244.468574 
L 870.907103 244.548944 
L 873.45761 244.843634 
L 875.960102 245.004373 
L 878.012532 245.539905 
L 878.771225 246.350034 
L 880.849402 246.952005 
L 881.282213 229.749357 
L 882.512615 230.006005 
L 882.843477 230.434644 
L 883.728694 230.22863 
L 883.755373 230.652179 
L 883.79876 230.647357 
L 883.927956 231.148062 
L 885.006085 231.53732 
L 887.12746 232.000251 
L 887.422001 232.245111 
L 887.591836 245.6401 
L 889.132142 246.422903 
L 889.261692 246.717592 
L 892.026006 260.112581 
L 892.089798 241.11688 
L 892.727404 241.804846 
L 892.956575 242.89627 
L 893.277666 243.29812 
L 893.494765 243.833919 
L 894.422991 278.307262 
L 894.882506 278.521581 
L 895.327553 279.025769 
L 897.383525 279.552728 
L 897.576479 279.954577 
L 899.842122 280.155234 
L 899.976049 280.409471 
L 900.284567 280.489841 
L 900.311349 281.062343 
L 900.499425 281.309614 
L 901.334776 283.451473 
L 901.548557 283.558633 
L 901.884374 284.121222 
L 901.896266 265.125521 
L 902.072288 265.841885 
L 902.132228 264.770286 
L 902.339245 264.368437 
L 902.789024 266.233823 
L 903.103418 266.807128 
L 903.186125 258.770135 
L 904.025827 278.79859 
L 904.556684 279.147931 
L 904.948167 279.817413 
L 905.758735 279.857598 
L 905.760708 280.258376 
L 906.956314 280.40572 
L 907.146735 280.70041 
L 907.217619 281.147267 
L 907.493495 280.825787 
L 907.695575 281.189327 
L 908.80725 282.528826 
L 910.478381 284.163015 
L 911.786061 284.625946 
L 912.177467 284.893845 
L 912.317262 291.59134 
L 912.457126 278.196351 
L 912.490518 278.767781 
L 912.809635 259.77208 
L 916.999433 260.374051 
L 917.433132 260.958608 
L 918.985002 274.353597 
L 923.317767 266.813826 
L 923.975545 267.215675 
L 924.032616 264.536678 
L 925.522685 264.750997 
L 927.404427 263.893718 
L 927.609678 263.974088 
L 927.703845 261.42904 
L 928.468699 258.750043 
L 928.497075 258.770403 
L 928.562936 259.019014 
L 928.740698 259.233334 
L 928.993955 259.228512 
L 929.992815 256.549514 
L 930.407788 257.085313 
L 932.070613 257.827932 
L 932.81289 257.908302 
L 933.370382 250.008473 
L 933.430641 250.290036 
L 934.459782 250.450776 
L 937.145508 250.625982 
L 938.385948 250.647414 
L 939.31233 250.968626 
L 941.42333 251.357884 
L 941.672597 251.277514 
L 941.879175 251.843319 
L 942.507361 252.004059 
L 942.683779 251.923689 
L 942.734629 252.094341 
L 942.915303 253.220324 
L 943.669532 253.220324 
L 944.185929 245.560533 
L 944.845896 245.878262 
L 945.938363 246.09928 
L 947.90563 246.315475 
L 948.593111 246.704733 
L 949.392528 246.920393 
L 952.241264 246.918785 
L 952.343403 247.233567 
L 954.003728 247.522631 
L 954.221259 248.232833 
L 954.779871 248.299541 
L 954.813417 248.859987 
L 954.851918 242.819115 
L 958.638617 242.876178 
L 959.606826 243.265436 
L 960.359676 206.799723 
L 960.707876 206.98511 
L 962.352321 206.44931 
L 962.393846 206.770522 
L 962.774774 206.955909 
L 963.179149 207.402498 
L 964.129218 207.591635 
L 964.798198 201.491021 
L 965.022131 201.63917 
L 965.174171 202.031911 
L 967.727048 202.309723 
L 970.666384 203.381322 
L 970.876762 204.988721 
L 970.963855 201.961453 
L 971.052387 202.391164 
L 971.626699 202.674335 
L 972.179193 202.998493 
L 973.320115 204.074915 
L 974.125435 204.137067 
L 974.47684 204.217437 
L 974.717266 204.664026 
L 974.937217 204.662419 
L 975.192214 200.932718 
L 975.200375 201.331085 
L 975.459569 201.411455 
L 975.465954 201.809822 
L 977.251926 201.970562 
L 977.963793 202.577891 
L 979.498585 202.819 
L 979.678096 203.038678 
L 980.005063 203.045912 
L 980.599704 189.560105 
L 980.912961 189.640475 
L 981.893906 190.176275 
L 982.595597 190.256644 
L 982.839797 191.997993 
L 983.160982 192.255445 
L 983.895891 192.401718 
L 984.548516 192.8033 
L 985.058192 191.463801 
L 985.093444 191.544171 
L 985.607196 190.472572 
L 986.118078 185.0835 
L 987.918414 185.16387 
L 988.616287 184.76202 
L 988.940652 184.84239 
L 989.543401 185.322734 
L 990.334219 185.403104 
L 990.978243 180.313009 
L 990.979941 180.393379 
L 991.161021 180.125479 
L 991.164002 180.179059 
L 991.165614 182.10124 
L 991.228001 179.315082 
L 991.229061 179.601199 
L 995.637053 179.959113 
L 996.066641 175.921864 
L 996.210694 176.002234 
L 996.218182 171.405073 
L 996.218182 171.405073 
" style="fill:none;stroke:#1f77b4;stroke-linecap:round;stroke-width:1.5;"/>
   </g>
   <g id="patch_3">
    <path d="M 144 345.6 
L 144 51.84 
" style="fill:none;"/>
   </g>
   <g id="patch_4">
    <path d="M 1036.8 345.6 
L 1036.8 51.84 
" style="fill:none;"/>
   </g>
   <g id="patch_5">
    <path d="M 144 345.6 
L 1036.8 345.6 
" style="fill:none;"/>
   </g>
   <g id="patch_6">
    <path d="M 144 51.84 
L 1036.8 51.84 
" style="fill:none;"/>
   </g>
   <g id="text_12">
    <!-- Balance over Time -->
    <defs>
     <path id="DejaVuSans-20"/>
     <path d="M 30.609375 48.390625 
Q 23.390625 48.390625 19.1875 42.75 
Q 14.984375 37.109375 14.984375 27.296875 
Q 14.984375 17.484375 19.15625 11.84375 
Q 23.34375 6.203125 30.609375 6.203125 
Q 37.796875 6.203125 41.984375 11.859375 
Q 46.1875 17.53125 46.1875 27.296875 
Q 46.1875 37.015625 41.984375 42.703125 
Q 37.796875 48.390625 30.609375 48.390625 
z
M 30.609375 56 
Q 42.328125 56 49.015625 48.375 
Q 55.71875 40.765625 55.71875 27.296875 
Q 55.71875 13.875 49.015625 6.21875 
Q 42.328125 -1.421875 30.609375 -1.421875 
Q 18.84375 -1.421875 12.171875 6.21875 
Q 5.515625 13.875 5.515625 27.296875 
Q 5.515625 40.765625 12.171875 48.375 
Q 18.84375 56 30.609375 56 
z
" id="DejaVuSans-6f"/>
     <path d="M 2.984375 54.6875 
L 12.5 54.6875 
L 29.59375 8.796875 
L 46.6875 54.6875 
L 56.203125 54.6875 
L 35.6875 0 
L 23.484375 0 
z
" id="DejaVuSans-76"/>
     <path d="M -0.296875 72.90625 
L 61.375 72.90625 
L 61.375 64.59375 
L 35.5 64.59375 
L 35.5 0 
L 25.59375 0 
L 25.59375 64.59375 
L -0.296875 64.59375 
z
" id="DejaVuSans-54"/>
     <path d="M 9.421875 54.6875 
L 18.40625 54.6875 
L 18.40625 0 
L 9.421875 0 
z
M 9.421875 75.984375 
L 18.40625 75.984375 
L 18.40625 64.59375 
L 9.421875 64.59375 
z
" id="DejaVuSans-69"/>
     <path d="M 52 44.1875 
Q 55.375 50.25 60.0625 53.125 
Q 64.75 56 71.09375 56 
Q 79.640625 56 84.28125 50.015625 
Q 88.921875 44.046875 88.921875 33.015625 
L 88.921875 0 
L 79.890625 0 
L 79.890625 32.71875 
Q 79.890625 40.578125 77.09375 44.375 
Q 74.3125 48.1875 68.609375 48.1875 
Q 61.625 48.1875 57.5625 43.546875 
Q 53.515625 38.921875 53.515625 30.90625 
L 53.515625 0 
L 44.484375 0 
L 44.484375 32.71875 
Q 44.484375 40.625 41.703125 44.40625 
Q 38.921875 48.1875 33.109375 48.1875 
Q 26.21875 48.1875 22.15625 43.53125 
Q 18.109375 38.875 18.109375 30.90625 
L 18.109375 0 
L 9.078125 0 
L 9.078125 54.6875 
L 18.109375 54.6875 
L 18.109375 46.1875 
Q 21.1875 51.21875 25.484375 53.609375 
Q 29.78125 56 35.6875 56 
Q 41.65625 56 45.828125 52.96875 
Q 50 49.953125 52 44.1875 
z
" id="DejaVuSans-6d"/>
    </defs>
    <g style="fill:#262626;" transform="translate(539.075547 45.84)scale(0.11 -0.11)">
     <use xlink:href="#DejaVuSans-42"/>
     <use x="68.603516" xlink:href="#DejaVuSans-61"/>
     <use x="129.882812" xlink:href="#DejaVuSans-6c"/>
     <use x="157.666016" xlink:href="#DejaVuSans-61"/>
     <use x="218.945312" xlink:href="#DejaVuSans-6e"/>
     <use x="282.324219" xlink:href="#DejaVuSans-63"/>
     <use x="337.304688" xlink:href="#DejaVuSans-65"/>
     <use x="398.828125" xlink:href="#DejaVuSans-20"/>
     <use x="430.615234" xlink:href="#DejaVuSans-6f"/>
     <use x="491.796875" xlink:href="#DejaVuSans-76"/>
     <use x="550.976562" xlink:href="#DejaVuSans-65"/>
     <use x="612.5" xlink:href="#DejaVuSans-72"/>
     <use x="653.613281" xlink:href="#DejaVuSans-20"/>
     <use x="685.400391" xlink:href="#DejaVuSans-54"/>
     <use x="746.4375" xlink:href="#DejaVuSans-69"/>
     <use x="774.220703" xlink:href="#DejaVuSans-6d"/>
     <use x="871.632812" xlink:href="#DejaVuSans-65"/>
    </g>
   </g>
   <g id="legend_1">
    <g id="line2d_59">
     <path d="M 959.915625 64.938438 
L 979.915625 64.938438 
" style="fill:none;stroke:#1f77b4;stroke-linecap:round;stroke-width:1.5;"/>
    </g>
    <g id="line2d_60"/>
    <g id="text_13">
     <!-- Balance -->
     <g style="fill:#262626;" transform="translate(987.915625 68.438438)scale(0.1 -0.1)">
      <use xlink:href="#DejaVuSans-42"/>
      <use x="68.603516" xlink:href="#DejaVuSans-61"/>
      <use x="129.882812" xlink:href="#DejaVuSans-6c"/>
      <use x="157.666016" xlink:href="#DejaVuSans-61"/>
      <use x="218.945312" xlink:href="#DejaVuSans-6e"/>
      <use x="282.324219" xlink:href="#DejaVuSans-63"/>
      <use x="337.304688" xlink:href="#DejaVuSans-65"/>
     </g>
    </g>
   </g>
  </g>
 </g>
 <defs>
  <clipPath id="p07a451c62e">
   <rect height="293.76" width="892.8" x="144" y="51.84"/>
  </clipPath>
 </defs>
</svg>
