<?xml version="1.0" encoding="utf-8" standalone="no"?>
<!DOCTYPE svg PUBLIC "-//W3C//DTD SVG 1.1//EN"
  "http://www.w3.org/Graphics/SVG/1.1/DTD/svg11.dtd">
<!-- Created with matplotlib (http://matplotlib.org/) -->
<svg height="432pt" version="1.1" viewBox="0 0 1152 432" width="1152pt" xmlns="http://www.w3.org/2000/svg" xmlns:xlink="http://www.w3.org/1999/xlink">
 <defs>
  <style type="text/css">
*{stroke-linecap:butt;stroke-linejoin:round;}
  </style>
 </defs>
 <g id="figure_1">
  <g id="patch_1">
   <path d="M 0 432 
L 1152 432 
L 1152 0 
L 0 0 
z
" style="fill:#ffffff;"/>
  </g>
  <g id="axes_1">
   <g id="patch_2">
    <path d="M 144 345.6 
L 1036.8 345.6 
L 1036.8 51.84 
L 144 51.84 
z
" style="fill:#eaeaf2;"/>
   </g>
   <g id="matplotlib.axis_1">
    <g id="xtick_1">
     <g id="line2d_1">
      <path clip-path="url(#p07e71de63d)" d="M 243.055689 345.6 
L 243.055689 51.84 
" style="fill:none;stroke:#ffffff;stroke-linecap:round;stroke-width:0.8;"/>
     </g>
     <g id="line2d_2"/>
     <g id="text_1">
      <!-- 2013 -->
      <defs>
       <path d="M 19.1875 8.296875 
L 53.609375 8.296875 
L 53.609375 0 
L 7.328125 0 
L 7.328125 8.296875 
Q 12.9375 14.109375 22.625 23.890625 
Q 32.328125 33.6875 34.8125 36.53125 
Q 39.546875 41.84375 41.421875 45.53125 
Q 43.3125 49.21875 43.3125 52.78125 
Q 43.3125 58.59375 39.234375 62.25 
Q 35.15625 65.921875 28.609375 65.921875 
Q 23.96875 65.921875 18.8125 64.3125 
Q 13.671875 62.703125 7.8125 59.421875 
L 7.8125 69.390625 
Q 13.765625 71.78125 18.9375 73 
Q 24.125 74.21875 28.421875 74.21875 
Q 39.75 74.21875 46.484375 68.546875 
Q 53.21875 62.890625 53.21875 53.421875 
Q 53.21875 48.921875 51.53125 44.890625 
Q 49.859375 40.875 45.40625 35.40625 
Q 44.1875 33.984375 37.640625 27.21875 
Q 31.109375 20.453125 19.1875 8.296875 
z
" id="DejaVuSans-32"/>
       <path d="M 31.78125 66.40625 
Q 24.171875 66.40625 20.328125 58.90625 
Q 16.5 51.421875 16.5 36.375 
Q 16.5 21.390625 20.328125 13.890625 
Q 24.171875 6.390625 31.78125 6.390625 
Q 39.453125 6.390625 43.28125 13.890625 
Q 47.125 21.390625 47.125 36.375 
Q 47.125 51.421875 43.28125 58.90625 
Q 39.453125 66.40625 31.78125 66.40625 
z
M 31.78125 74.21875 
Q 44.046875 74.21875 50.515625 64.515625 
Q 56.984375 54.828125 56.984375 36.375 
Q 56.984375 17.96875 50.515625 8.265625 
Q 44.046875 -1.421875 31.78125 -1.421875 
Q 19.53125 -1.421875 13.0625 8.265625 
Q 6.59375 17.96875 6.59375 36.375 
Q 6.59375 54.828125 13.0625 64.515625 
Q 19.53125 74.21875 31.78125 74.21875 
z
" id="DejaVuSans-30"/>
       <path d="M 12.40625 8.296875 
L 28.515625 8.296875 
L 28.515625 63.921875 
L 10.984375 60.40625 
L 10.984375 69.390625 
L 28.421875 72.90625 
L 38.28125 72.90625 
L 38.28125 8.296875 
L 54.390625 8.296875 
L 54.390625 0 
L 12.40625 0 
z
" id="DejaVuSans-31"/>
       <path d="M 40.578125 39.3125 
Q 47.65625 37.796875 51.625 33 
Q 55.609375 28.21875 55.609375 21.1875 
Q 55.609375 10.40625 48.1875 4.484375 
Q 40.765625 -1.421875 27.09375 -1.421875 
Q 22.515625 -1.421875 17.65625 -0.515625 
Q 12.796875 0.390625 7.625 2.203125 
L 7.625 11.71875 
Q 11.71875 9.328125 16.59375 8.109375 
Q 21.484375 6.890625 26.8125 6.890625 
Q 36.078125 6.890625 40.9375 10.546875 
Q 45.796875 14.203125 45.796875 21.1875 
Q 45.796875 27.640625 41.28125 31.265625 
Q 36.765625 34.90625 28.71875 34.90625 
L 20.21875 34.90625 
L 20.21875 43.015625 
L 29.109375 43.015625 
Q 36.375 43.015625 40.234375 45.921875 
Q 44.09375 48.828125 44.09375 54.296875 
Q 44.09375 59.90625 40.109375 62.90625 
Q 36.140625 65.921875 28.71875 65.921875 
Q 24.65625 65.921875 20.015625 65.03125 
Q 15.375 64.15625 9.8125 62.3125 
L 9.8125 71.09375 
Q 15.4375 72.65625 20.34375 73.4375 
Q 25.25 74.21875 29.59375 74.21875 
Q 40.828125 74.21875 47.359375 69.109375 
Q 53.90625 64.015625 53.90625 55.328125 
Q 53.90625 49.265625 50.4375 45.09375 
Q 46.96875 40.921875 40.578125 39.3125 
z
" id="DejaVuSans-33"/>
      </defs>
      <g style="fill:#262626;" transform="translate(219.975499 368.40544)rotate(-30)scale(0.1 -0.1)">
       <use xlink:href="#DejaVuSans-32"/>
       <use x="63.623047" xlink:href="#DejaVuSans-30"/>
       <use x="127.246094" xlink:href="#DejaVuSans-31"/>
       <use x="190.869141" xlink:href="#DejaVuSans-33"/>
      </g>
     </g>
    </g>
    <g id="xtick_2">
     <g id="line2d_3">
      <path clip-path="url(#p07e71de63d)" d="M 393.472608 345.6 
L 393.472608 51.84 
" style="fill:none;stroke:#ffffff;stroke-linecap:round;stroke-width:0.8;"/>
     </g>
     <g id="line2d_4"/>
     <g id="text_2">
      <!-- 2014 -->
      <defs>
       <path d="M 37.796875 64.3125 
L 12.890625 25.390625 
L 37.796875 25.390625 
z
M 35.203125 72.90625 
L 47.609375 72.90625 
L 47.609375 25.390625 
L 58.015625 25.390625 
L 58.015625 17.1875 
L 47.609375 17.1875 
L 47.609375 0 
L 37.796875 0 
L 37.796875 17.1875 
L 4.890625 17.1875 
L 4.890625 26.703125 
z
" id="DejaVuSans-34"/>
      </defs>
      <g style="fill:#262626;" transform="translate(370.392418 368.40544)rotate(-30)scale(0.1 -0.1)">
       <use xlink:href="#DejaVuSans-32"/>
       <use x="63.623047" xlink:href="#DejaVuSans-30"/>
       <use x="127.246094" xlink:href="#DejaVuSans-31"/>
       <use x="190.869141" xlink:href="#DejaVuSans-34"/>
      </g>
     </g>
    </g>
    <g id="xtick_3">
     <g id="line2d_5">
      <path clip-path="url(#p07e71de63d)" d="M 543.889527 345.6 
L 543.889527 51.84 
" style="fill:none;stroke:#ffffff;stroke-linecap:round;stroke-width:0.8;"/>
     </g>
     <g id="line2d_6"/>
     <g id="text_3">
      <!-- 2015 -->
      <defs>
       <path d="M 10.796875 72.90625 
L 49.515625 72.90625 
L 49.515625 64.59375 
L 19.828125 64.59375 
L 19.828125 46.734375 
Q 21.96875 47.46875 24.109375 47.828125 
Q 26.265625 48.1875 28.421875 48.1875 
Q 40.625 48.1875 47.75 41.5 
Q 54.890625 34.8125 54.890625 23.390625 
Q 54.890625 11.625 47.5625 5.09375 
Q 40.234375 -1.421875 26.90625 -1.421875 
Q 22.3125 -1.421875 17.546875 -0.640625 
Q 12.796875 0.140625 7.71875 1.703125 
L 7.71875 11.625 
Q 12.109375 9.234375 16.796875 8.0625 
Q 21.484375 6.890625 26.703125 6.890625 
Q 35.15625 6.890625 40.078125 11.328125 
Q 45.015625 15.765625 45.015625 23.390625 
Q 45.015625 31 40.078125 35.4375 
Q 35.15625 39.890625 26.703125 39.890625 
Q 22.75 39.890625 18.8125 39.015625 
Q 14.890625 38.140625 10.796875 36.28125 
z
" id="DejaVuSans-35"/>
      </defs>
      <g style="fill:#262626;" transform="translate(520.809337 368.40544)rotate(-30)scale(0.1 -0.1)">
       <use xlink:href="#DejaVuSans-32"/>
       <use x="63.623047" xlink:href="#DejaVuSans-30"/>
       <use x="127.246094" xlink:href="#DejaVuSans-31"/>
       <use x="190.869141" xlink:href="#DejaVuSans-35"/>
      </g>
     </g>
    </g>
    <g id="xtick_4">
     <g id="line2d_7">
      <path clip-path="url(#p07e71de63d)" d="M 694.306446 345.6 
L 694.306446 51.84 
" style="fill:none;stroke:#ffffff;stroke-linecap:round;stroke-width:0.8;"/>
     </g>
     <g id="line2d_8"/>
     <g id="text_4">
      <!-- 2016 -->
      <defs>
       <path d="M 33.015625 40.375 
Q 26.375 40.375 22.484375 35.828125 
Q 18.609375 31.296875 18.609375 23.390625 
Q 18.609375 15.53125 22.484375 10.953125 
Q 26.375 6.390625 33.015625 6.390625 
Q 39.65625 6.390625 43.53125 10.953125 
Q 47.40625 15.53125 47.40625 23.390625 
Q 47.40625 31.296875 43.53125 35.828125 
Q 39.65625 40.375 33.015625 40.375 
z
M 52.59375 71.296875 
L 52.59375 62.3125 
Q 48.875 64.0625 45.09375 64.984375 
Q 41.3125 65.921875 37.59375 65.921875 
Q 27.828125 65.921875 22.671875 59.328125 
Q 17.53125 52.734375 16.796875 39.40625 
Q 19.671875 43.65625 24.015625 45.921875 
Q 28.375 48.1875 33.59375 48.1875 
Q 44.578125 48.1875 50.953125 41.515625 
Q 57.328125 34.859375 57.328125 23.390625 
Q 57.328125 12.15625 50.6875 5.359375 
Q 44.046875 -1.421875 33.015625 -1.421875 
Q 20.359375 -1.421875 13.671875 8.265625 
Q 6.984375 17.96875 6.984375 36.375 
Q 6.984375 53.65625 15.1875 63.9375 
Q 23.390625 74.21875 37.203125 74.21875 
Q 40.921875 74.21875 44.703125 73.484375 
Q 48.484375 72.75 52.59375 71.296875 
z
" id="DejaVuSans-36"/>
      </defs>
      <g style="fill:#262626;" transform="translate(671.226256 368.40544)rotate(-30)scale(0.1 -0.1)">
       <use xlink:href="#DejaVuSans-32"/>
       <use x="63.623047" xlink:href="#DejaVuSans-30"/>
       <use x="127.246094" xlink:href="#DejaVuSans-31"/>
       <use x="190.869141" xlink:href="#DejaVuSans-36"/>
      </g>
     </g>
    </g>
    <g id="xtick_5">
     <g id="line2d_9">
      <path clip-path="url(#p07e71de63d)" d="M 845.135466 345.6 
L 845.135466 51.84 
" style="fill:none;stroke:#ffffff;stroke-linecap:round;stroke-width:0.8;"/>
     </g>
     <g id="line2d_10"/>
     <g id="text_5">
      <!-- 2017 -->
      <defs>
       <path d="M 8.203125 72.90625 
L 55.078125 72.90625 
L 55.078125 68.703125 
L 28.609375 0 
L 18.3125 0 
L 43.21875 64.59375 
L 8.203125 64.59375 
z
" id="DejaVuSans-37"/>
      </defs>
      <g style="fill:#262626;" transform="translate(822.055276 368.40544)rotate(-30)scale(0.1 -0.1)">
       <use xlink:href="#DejaVuSans-32"/>
       <use x="63.623047" xlink:href="#DejaVuSans-30"/>
       <use x="127.246094" xlink:href="#DejaVuSans-31"/>
       <use x="190.869141" xlink:href="#DejaVuSans-37"/>
      </g>
     </g>
    </g>
    <g id="xtick_6">
     <g id="line2d_11">
      <path clip-path="url(#p07e71de63d)" d="M 995.552385 345.6 
L 995.552385 51.84 
" style="fill:none;stroke:#ffffff;stroke-linecap:round;stroke-width:0.8;"/>
     </g>
     <g id="line2d_12"/>
     <g id="text_6">
      <!-- 2018 -->
      <defs>
       <path d="M 31.78125 34.625 
Q 24.75 34.625 20.71875 30.859375 
Q 16.703125 27.09375 16.703125 20.515625 
Q 16.703125 13.921875 20.71875 10.15625 
Q 24.75 6.390625 31.78125 6.390625 
Q 38.8125 6.390625 42.859375 10.171875 
Q 46.921875 13.96875 46.921875 20.515625 
Q 46.921875 27.09375 42.890625 30.859375 
Q 38.875 34.625 31.78125 34.625 
z
M 21.921875 38.8125 
Q 15.578125 40.375 12.03125 44.71875 
Q 8.5 49.078125 8.5 55.328125 
Q 8.5 64.0625 14.71875 69.140625 
Q 20.953125 74.21875 31.78125 74.21875 
Q 42.671875 74.21875 48.875 69.140625 
Q 55.078125 64.0625 55.078125 55.328125 
Q 55.078125 49.078125 51.53125 44.71875 
Q 48 40.375 41.703125 38.8125 
Q 48.828125 37.15625 52.796875 32.3125 
Q 56.78125 27.484375 56.78125 20.515625 
Q 56.78125 9.90625 50.3125 4.234375 
Q 43.84375 -1.421875 31.78125 -1.421875 
Q 19.734375 -1.421875 13.25 4.234375 
Q 6.78125 9.90625 6.78125 20.515625 
Q 6.78125 27.484375 10.78125 32.3125 
Q 14.796875 37.15625 21.921875 38.8125 
z
M 18.3125 54.390625 
Q 18.3125 48.734375 21.84375 45.5625 
Q 25.390625 42.390625 31.78125 42.390625 
Q 38.140625 42.390625 41.71875 45.5625 
Q 45.3125 48.734375 45.3125 54.390625 
Q 45.3125 60.0625 41.71875 63.234375 
Q 38.140625 66.40625 31.78125 66.40625 
Q 25.390625 66.40625 21.84375 63.234375 
Q 18.3125 60.0625 18.3125 54.390625 
z
" id="DejaVuSans-38"/>
      </defs>
      <g style="fill:#262626;" transform="translate(972.472195 368.40544)rotate(-30)scale(0.1 -0.1)">
       <use xlink:href="#DejaVuSans-32"/>
       <use x="63.623047" xlink:href="#DejaVuSans-30"/>
       <use x="127.246094" xlink:href="#DejaVuSans-31"/>
       <use x="190.869141" xlink:href="#DejaVuSans-38"/>
      </g>
     </g>
    </g>
    <g id="xtick_7">
     <g id="line2d_13"/>
    </g>
    <g id="xtick_8">
     <g id="line2d_14"/>
    </g>
    <g id="xtick_9">
     <g id="line2d_15"/>
    </g>
    <g id="xtick_10">
     <g id="line2d_16"/>
    </g>
    <g id="xtick_11">
     <g id="line2d_17"/>
    </g>
    <g id="xtick_12">
     <g id="line2d_18"/>
    </g>
    <g id="xtick_13">
     <g id="line2d_19"/>
    </g>
    <g id="xtick_14">
     <g id="line2d_20"/>
    </g>
    <g id="xtick_15">
     <g id="line2d_21"/>
    </g>
    <g id="xtick_16">
     <g id="line2d_22"/>
    </g>
    <g id="xtick_17">
     <g id="line2d_23"/>
    </g>
    <g id="xtick_18">
     <g id="line2d_24"/>
    </g>
    <g id="xtick_19">
     <g id="line2d_25"/>
    </g>
    <g id="xtick_20">
     <g id="line2d_26"/>
    </g>
    <g id="xtick_21">
     <g id="line2d_27"/>
    </g>
    <g id="xtick_22">
     <g id="line2d_28"/>
    </g>
    <g id="xtick_23">
     <g id="line2d_29"/>
    </g>
    <g id="xtick_24">
     <g id="line2d_30"/>
    </g>
    <g id="xtick_25">
     <g id="line2d_31"/>
    </g>
    <g id="xtick_26">
     <g id="line2d_32"/>
    </g>
    <g id="xtick_27">
     <g id="line2d_33"/>
    </g>
    <g id="xtick_28">
     <g id="line2d_34"/>
    </g>
    <g id="xtick_29">
     <g id="line2d_35"/>
    </g>
    <g id="xtick_30">
     <g id="line2d_36"/>
    </g>
    <g id="xtick_31">
     <g id="line2d_37"/>
    </g>
    <g id="xtick_32">
     <g id="line2d_38"/>
    </g>
    <g id="xtick_33">
     <g id="line2d_39"/>
    </g>
    <g id="xtick_34">
     <g id="line2d_40"/>
    </g>
    <g id="xtick_35">
     <g id="line2d_41"/>
    </g>
    <g id="xtick_36">
     <g id="line2d_42"/>
    </g>
    <g id="xtick_37">
     <g id="line2d_43"/>
    </g>
    <g id="xtick_38">
     <g id="line2d_44"/>
    </g>
    <g id="xtick_39">
     <g id="line2d_45"/>
    </g>
    <g id="xtick_40">
     <g id="line2d_46"/>
    </g>
    <g id="xtick_41">
     <g id="line2d_47"/>
    </g>
    <g id="xtick_42">
     <g id="line2d_48"/>
    </g>
    <g id="xtick_43">
     <g id="line2d_49"/>
    </g>
    <g id="xtick_44">
     <g id="line2d_50"/>
    </g>
    <g id="xtick_45">
     <g id="line2d_51"/>
    </g>
    <g id="xtick_46">
     <g id="line2d_52"/>
    </g>
    <g id="xtick_47">
     <g id="line2d_53"/>
    </g>
    <g id="xtick_48">
     <g id="line2d_54"/>
    </g>
    <g id="xtick_49">
     <g id="line2d_55"/>
    </g>
    <g id="xtick_50">
     <g id="line2d_56"/>
    </g>
    <g id="xtick_51">
     <g id="line2d_57"/>
    </g>
    <g id="xtick_52">
     <g id="line2d_58"/>
    </g>
    <g id="xtick_53">
     <g id="line2d_59"/>
    </g>
    <g id="xtick_54">
     <g id="line2d_60"/>
    </g>
    <g id="xtick_55">
     <g id="line2d_61"/>
    </g>
    <g id="xtick_56">
     <g id="line2d_62"/>
    </g>
    <g id="xtick_57">
     <g id="line2d_63"/>
    </g>
    <g id="xtick_58">
     <g id="line2d_64"/>
    </g>
    <g id="xtick_59">
     <g id="line2d_65"/>
    </g>
    <g id="xtick_60">
     <g id="line2d_66"/>
    </g>
    <g id="xtick_61">
     <g id="line2d_67"/>
    </g>
    <g id="xtick_62">
     <g id="line2d_68"/>
    </g>
    <g id="xtick_63">
     <g id="line2d_69"/>
    </g>
    <g id="xtick_64">
     <g id="line2d_70"/>
    </g>
    <g id="xtick_65">
     <g id="line2d_71"/>
    </g>
    <g id="xtick_66">
     <g id="line2d_72"/>
    </g>
    <g id="xtick_67">
     <g id="line2d_73"/>
    </g>
    <g id="xtick_68">
     <g id="line2d_74"/>
    </g>
    <g id="xtick_69">
     <g id="line2d_75"/>
    </g>
    <g id="xtick_70">
     <g id="line2d_76"/>
    </g>
    <g id="xtick_71">
     <g id="line2d_77"/>
    </g>
    <g id="xtick_72">
     <g id="line2d_78"/>
    </g>
    <g id="xtick_73">
     <g id="line2d_79"/>
    </g>
    <g id="xtick_74">
     <g id="line2d_80"/>
    </g>
    <g id="xtick_75">
     <g id="line2d_81"/>
    </g>
    <g id="xtick_76">
     <g id="line2d_82"/>
    </g>
    <g id="xtick_77">
     <g id="line2d_83"/>
    </g>
    <g id="text_7">
     <!-- Year -->
     <defs>
      <path d="M -0.203125 72.90625 
L 10.40625 72.90625 
L 30.609375 42.921875 
L 50.6875 72.90625 
L 61.28125 72.90625 
L 35.5 34.71875 
L 35.5 0 
L 25.59375 0 
L 25.59375 34.71875 
z
" id="DejaVuSans-59"/>
      <path d="M 56.203125 29.59375 
L 56.203125 25.203125 
L 14.890625 25.203125 
Q 15.484375 15.921875 20.484375 11.0625 
Q 25.484375 6.203125 34.421875 6.203125 
Q 39.59375 6.203125 44.453125 7.46875 
Q 49.3125 8.734375 54.109375 11.28125 
L 54.109375 2.78125 
Q 49.265625 0.734375 44.1875 -0.34375 
Q 39.109375 -1.421875 33.890625 -1.421875 
Q 20.796875 -1.421875 13.15625 6.1875 
Q 5.515625 13.8125 5.515625 26.8125 
Q 5.515625 40.234375 12.765625 48.109375 
Q 20.015625 56 32.328125 56 
Q 43.359375 56 49.78125 48.890625 
Q 56.203125 41.796875 56.203125 29.59375 
z
M 47.21875 32.234375 
Q 47.125 39.59375 43.09375 43.984375 
Q 39.0625 48.390625 32.421875 48.390625 
Q 24.90625 48.390625 20.390625 44.140625 
Q 15.875 39.890625 15.1875 32.171875 
z
" id="DejaVuSans-65"/>
      <path d="M 34.28125 27.484375 
Q 23.390625 27.484375 19.1875 25 
Q 14.984375 22.515625 14.984375 16.5 
Q 14.984375 11.71875 18.140625 8.90625 
Q 21.296875 6.109375 26.703125 6.109375 
Q 34.1875 6.109375 38.703125 11.40625 
Q 43.21875 16.703125 43.21875 25.484375 
L 43.21875 27.484375 
z
M 52.203125 31.203125 
L 52.203125 0 
L 43.21875 0 
L 43.21875 8.296875 
Q 40.140625 3.328125 35.546875 0.953125 
Q 30.953125 -1.421875 24.3125 -1.421875 
Q 15.921875 -1.421875 10.953125 3.296875 
Q 6 8.015625 6 15.921875 
Q 6 25.140625 12.171875 29.828125 
Q 18.359375 34.515625 30.609375 34.515625 
L 43.21875 34.515625 
L 43.21875 35.40625 
Q 43.21875 41.609375 39.140625 45 
Q 35.0625 48.390625 27.6875 48.390625 
Q 23 48.390625 18.546875 47.265625 
Q 14.109375 46.140625 10.015625 43.890625 
L 10.015625 52.203125 
Q 14.9375 54.109375 19.578125 55.046875 
Q 24.21875 56 28.609375 56 
Q 40.484375 56 46.34375 49.84375 
Q 52.203125 43.703125 52.203125 31.203125 
z
" id="DejaVuSans-61"/>
      <path d="M 41.109375 46.296875 
Q 39.59375 47.171875 37.8125 47.578125 
Q 36.03125 48 33.890625 48 
Q 26.265625 48 22.1875 43.046875 
Q 18.109375 38.09375 18.109375 28.8125 
L 18.109375 0 
L 9.078125 0 
L 9.078125 54.6875 
L 18.109375 54.6875 
L 18.109375 46.1875 
Q 20.953125 51.171875 25.484375 53.578125 
Q 30.03125 56 36.53125 56 
Q 37.453125 56 38.578125 55.875 
Q 39.703125 55.765625 41.0625 55.515625 
z
" id="DejaVuSans-72"/>
     </defs>
     <g style="fill:#262626;" transform="translate(578.036172 382.564783)scale(0.11 -0.11)">
      <use xlink:href="#DejaVuSans-59"/>
      <use x="60.880859" xlink:href="#DejaVuSans-65"/>
      <use x="122.404297" xlink:href="#DejaVuSans-61"/>
      <use x="183.683594" xlink:href="#DejaVuSans-72"/>
     </g>
    </g>
   </g>
   <g id="matplotlib.axis_2">
    <g id="ytick_1">
     <g id="line2d_84">
      <path clip-path="url(#p07e71de63d)" d="M 144 315.337705 
L 1036.8 315.337705 
" style="fill:none;stroke:#ffffff;stroke-linecap:round;stroke-width:0.8;"/>
     </g>
     <g id="line2d_85"/>
     <g id="text_8">
      <!-- −4000 -->
      <defs>
       <path d="M 10.59375 35.5 
L 73.1875 35.5 
L 73.1875 27.203125 
L 10.59375 27.203125 
z
" id="DejaVuSans-2212"/>
      </defs>
      <g style="fill:#262626;" transform="translate(106.670312 319.136924)scale(0.1 -0.1)">
       <use xlink:href="#DejaVuSans-2212"/>
       <use x="83.789062" xlink:href="#DejaVuSans-34"/>
       <use x="147.412109" xlink:href="#DejaVuSans-30"/>
       <use x="211.035156" xlink:href="#DejaVuSans-30"/>
       <use x="274.658203" xlink:href="#DejaVuSans-30"/>
      </g>
     </g>
    </g>
    <g id="ytick_2">
     <g id="line2d_86">
      <path clip-path="url(#p07e71de63d)" d="M 144 257.028853 
L 1036.8 257.028853 
" style="fill:none;stroke:#ffffff;stroke-linecap:round;stroke-width:0.8;"/>
     </g>
     <g id="line2d_87"/>
     <g id="text_9">
      <!-- −2000 -->
      <g style="fill:#262626;" transform="translate(106.670312 260.828071)scale(0.1 -0.1)">
       <use xlink:href="#DejaVuSans-2212"/>
       <use x="83.789062" xlink:href="#DejaVuSans-32"/>
       <use x="147.412109" xlink:href="#DejaVuSans-30"/>
       <use x="211.035156" xlink:href="#DejaVuSans-30"/>
       <use x="274.658203" xlink:href="#DejaVuSans-30"/>
      </g>
     </g>
    </g>
    <g id="ytick_3">
     <g id="line2d_88">
      <path clip-path="url(#p07e71de63d)" d="M 144 198.72 
L 1036.8 198.72 
" style="fill:none;stroke:#ffffff;stroke-linecap:round;stroke-width:0.8;"/>
     </g>
     <g id="line2d_89"/>
     <g id="text_10">
      <!-- 0 -->
      <g style="fill:#262626;" transform="translate(134.1375 202.519219)scale(0.1 -0.1)">
       <use xlink:href="#DejaVuSans-30"/>
      </g>
     </g>
    </g>
    <g id="ytick_4">
     <g id="line2d_90">
      <path clip-path="url(#p07e71de63d)" d="M 144 140.411147 
L 1036.8 140.411147 
" style="fill:none;stroke:#ffffff;stroke-linecap:round;stroke-width:0.8;"/>
     </g>
     <g id="line2d_91"/>
     <g id="text_11">
      <!-- 2000 -->
      <g style="fill:#262626;" transform="translate(115.05 144.210366)scale(0.1 -0.1)">
       <use xlink:href="#DejaVuSans-32"/>
       <use x="63.623047" xlink:href="#DejaVuSans-30"/>
       <use x="127.246094" xlink:href="#DejaVuSans-30"/>
       <use x="190.869141" xlink:href="#DejaVuSans-30"/>
      </g>
     </g>
    </g>
    <g id="ytick_5">
     <g id="line2d_92">
      <path clip-path="url(#p07e71de63d)" d="M 144 82.102295 
L 1036.8 82.102295 
" style="fill:none;stroke:#ffffff;stroke-linecap:round;stroke-width:0.8;"/>
     </g>
     <g id="line2d_93"/>
     <g id="text_12">
      <!-- 4000 -->
      <g style="fill:#262626;" transform="translate(115.05 85.901513)scale(0.1 -0.1)">
       <use xlink:href="#DejaVuSans-34"/>
       <use x="63.623047" xlink:href="#DejaVuSans-30"/>
       <use x="127.246094" xlink:href="#DejaVuSans-30"/>
       <use x="190.869141" xlink:href="#DejaVuSans-30"/>
      </g>
     </g>
    </g>
    <g id="text_13">
     <!-- Change in Balance -->
     <defs>
      <path d="M 64.40625 67.28125 
L 64.40625 56.890625 
Q 59.421875 61.53125 53.78125 63.8125 
Q 48.140625 66.109375 41.796875 66.109375 
Q 29.296875 66.109375 22.65625 58.46875 
Q 16.015625 50.828125 16.015625 36.375 
Q 16.015625 21.96875 22.65625 14.328125 
Q 29.296875 6.6875 41.796875 6.6875 
Q 48.140625 6.6875 53.78125 8.984375 
Q 59.421875 11.28125 64.40625 15.921875 
L 64.40625 5.609375 
Q 59.234375 2.09375 53.4375 0.328125 
Q 47.65625 -1.421875 41.21875 -1.421875 
Q 24.65625 -1.421875 15.125 8.703125 
Q 5.609375 18.84375 5.609375 36.375 
Q 5.609375 53.953125 15.125 64.078125 
Q 24.65625 74.21875 41.21875 74.21875 
Q 47.75 74.21875 53.53125 72.484375 
Q 59.328125 70.75 64.40625 67.28125 
z
" id="DejaVuSans-43"/>
      <path d="M 54.890625 33.015625 
L 54.890625 0 
L 45.90625 0 
L 45.90625 32.71875 
Q 45.90625 40.484375 42.875 44.328125 
Q 39.84375 48.1875 33.796875 48.1875 
Q 26.515625 48.1875 22.3125 43.546875 
Q 18.109375 38.921875 18.109375 30.90625 
L 18.109375 0 
L 9.078125 0 
L 9.078125 75.984375 
L 18.109375 75.984375 
L 18.109375 46.1875 
Q 21.34375 51.125 25.703125 53.5625 
Q 30.078125 56 35.796875 56 
Q 45.21875 56 50.046875 50.171875 
Q 54.890625 44.34375 54.890625 33.015625 
z
" id="DejaVuSans-68"/>
      <path d="M 54.890625 33.015625 
L 54.890625 0 
L 45.90625 0 
L 45.90625 32.71875 
Q 45.90625 40.484375 42.875 44.328125 
Q 39.84375 48.1875 33.796875 48.1875 
Q 26.515625 48.1875 22.3125 43.546875 
Q 18.109375 38.921875 18.109375 30.90625 
L 18.109375 0 
L 9.078125 0 
L 9.078125 54.6875 
L 18.109375 54.6875 
L 18.109375 46.1875 
Q 21.34375 51.125 25.703125 53.5625 
Q 30.078125 56 35.796875 56 
Q 45.21875 56 50.046875 50.171875 
Q 54.890625 44.34375 54.890625 33.015625 
z
" id="DejaVuSans-6e"/>
      <path d="M 45.40625 27.984375 
Q 45.40625 37.75 41.375 43.109375 
Q 37.359375 48.484375 30.078125 48.484375 
Q 22.859375 48.484375 18.828125 43.109375 
Q 14.796875 37.75 14.796875 27.984375 
Q 14.796875 18.265625 18.828125 12.890625 
Q 22.859375 7.515625 30.078125 7.515625 
Q 37.359375 7.515625 41.375 12.890625 
Q 45.40625 18.265625 45.40625 27.984375 
z
M 54.390625 6.78125 
Q 54.390625 -7.171875 48.1875 -13.984375 
Q 42 -20.796875 29.203125 -20.796875 
Q 24.46875 -20.796875 20.265625 -20.09375 
Q 16.0625 -19.390625 12.109375 -17.921875 
L 12.109375 -9.1875 
Q 16.0625 -11.328125 19.921875 -12.34375 
Q 23.78125 -13.375 27.78125 -13.375 
Q 36.625 -13.375 41.015625 -8.765625 
Q 45.40625 -4.15625 45.40625 5.171875 
L 45.40625 9.625 
Q 42.625 4.78125 38.28125 2.390625 
Q 33.9375 0 27.875 0 
Q 17.828125 0 11.671875 7.65625 
Q 5.515625 15.328125 5.515625 27.984375 
Q 5.515625 40.671875 11.671875 48.328125 
Q 17.828125 56 27.875 56 
Q 33.9375 56 38.28125 53.609375 
Q 42.625 51.21875 45.40625 46.390625 
L 45.40625 54.6875 
L 54.390625 54.6875 
z
" id="DejaVuSans-67"/>
      <path id="DejaVuSans-20"/>
      <path d="M 9.421875 54.6875 
L 18.40625 54.6875 
L 18.40625 0 
L 9.421875 0 
z
M 9.421875 75.984375 
L 18.40625 75.984375 
L 18.40625 64.59375 
L 9.421875 64.59375 
z
" id="DejaVuSans-69"/>
      <path d="M 19.671875 34.8125 
L 19.671875 8.109375 
L 35.5 8.109375 
Q 43.453125 8.109375 47.28125 11.40625 
Q 51.125 14.703125 51.125 21.484375 
Q 51.125 28.328125 47.28125 31.5625 
Q 43.453125 34.8125 35.5 34.8125 
z
M 19.671875 64.796875 
L 19.671875 42.828125 
L 34.28125 42.828125 
Q 41.5 42.828125 45.03125 45.53125 
Q 48.578125 48.25 48.578125 53.8125 
Q 48.578125 59.328125 45.03125 62.0625 
Q 41.5 64.796875 34.28125 64.796875 
z
M 9.8125 72.90625 
L 35.015625 72.90625 
Q 46.296875 72.90625 52.390625 68.21875 
Q 58.5 63.53125 58.5 54.890625 
Q 58.5 48.1875 55.375 44.234375 
Q 52.25 40.28125 46.1875 39.3125 
Q 53.46875 37.75 57.5 32.78125 
Q 61.53125 27.828125 61.53125 20.40625 
Q 61.53125 10.640625 54.890625 5.3125 
Q 48.25 0 35.984375 0 
L 9.8125 0 
z
" id="DejaVuSans-42"/>
      <path d="M 9.421875 75.984375 
L 18.40625 75.984375 
L 18.40625 0 
L 9.421875 0 
z
" id="DejaVuSans-6c"/>
      <path d="M 48.78125 52.59375 
L 48.78125 44.1875 
Q 44.96875 46.296875 41.140625 47.34375 
Q 37.3125 48.390625 33.40625 48.390625 
Q 24.65625 48.390625 19.8125 42.84375 
Q 14.984375 37.3125 14.984375 27.296875 
Q 14.984375 17.28125 19.8125 11.734375 
Q 24.65625 6.203125 33.40625 6.203125 
Q 37.3125 6.203125 41.140625 7.25 
Q 44.96875 8.296875 48.78125 10.40625 
L 48.78125 2.09375 
Q 45.015625 0.34375 40.984375 -0.53125 
Q 36.96875 -1.421875 32.421875 -1.421875 
Q 20.0625 -1.421875 12.78125 6.34375 
Q 5.515625 14.109375 5.515625 27.296875 
Q 5.515625 40.671875 12.859375 48.328125 
Q 20.21875 56 33.015625 56 
Q 37.15625 56 41.109375 55.140625 
Q 45.0625 54.296875 48.78125 52.59375 
z
" id="DejaVuSans-63"/>
     </defs>
     <g style="fill:#262626;" transform="translate(100.382656 250.224062)rotate(-90)scale(0.11 -0.11)">
      <use xlink:href="#DejaVuSans-43"/>
      <use x="69.824219" xlink:href="#DejaVuSans-68"/>
      <use x="133.203125" xlink:href="#DejaVuSans-61"/>
      <use x="194.482422" xlink:href="#DejaVuSans-6e"/>
      <use x="257.861328" xlink:href="#DejaVuSans-67"/>
      <use x="321.337891" xlink:href="#DejaVuSans-65"/>
      <use x="382.861328" xlink:href="#DejaVuSans-20"/>
      <use x="414.648438" xlink:href="#DejaVuSans-69"/>
      <use x="442.431641" xlink:href="#DejaVuSans-6e"/>
      <use x="505.810547" xlink:href="#DejaVuSans-20"/>
      <use x="537.597656" xlink:href="#DejaVuSans-42"/>
      <use x="606.201172" xlink:href="#DejaVuSans-61"/>
      <use x="667.480469" xlink:href="#DejaVuSans-6c"/>
      <use x="695.263672" xlink:href="#DejaVuSans-61"/>
      <use x="756.542969" xlink:href="#DejaVuSans-6e"/>
      <use x="819.921875" xlink:href="#DejaVuSans-63"/>
      <use x="874.902344" xlink:href="#DejaVuSans-65"/>
     </g>
    </g>
   </g>
   <g id="line2d_94">
    <path clip-path="url(#p07e71de63d)" d="M 184.581818 300.760492 
L 184.849112 265.775181 
L 184.874148 140.411147 
L 185.031013 96.679508 
L 185.250505 131.664819 
L 185.329581 314.258992 
L 334.583574 318.107376 
L 334.895836 79.332624 
L 335.13185 83.181008 
L 335.150046 262.859738 
L 393.545604 202.735148 
L 400.477345 202.735148 
L 402.995155 192.909814 
L 405.8358 197.437205 
L 405.866946 198.282684 
L 405.881389 202.735148 
L 405.978762 198.399301 
L 406.224664 202.735148 
L 411.860905 202.735148 
L 414.686235 197.539246 
L 417.54802 202.735148 
L 417.600411 197.262279 
L 417.681524 202.735148 
L 426.194503 202.735148 
L 429.083876 197.685018 
L 430.225516 197.485018 
L 430.278364 198.428456 
L 430.306982 191.754424 
L 430.374745 198.428456 
L 430.420944 202.735148 
L 437.946092 202.735148 
L 440.742599 198.428456 
L 442.696908 197.437205 
L 442.768148 196.67919 
L 442.805909 197.479771 
L 442.894378 197.378896 
L 442.916113 202.735148 
L 452.290704 202.735148 
L 455.270782 198.107757 
L 455.32674 198.247698 
L 455.329587 197.267818 
L 455.337424 198.136911 
L 455.510473 198.253529 
L 455.67444 202.735148 
L 463.87388 202.735148 
L 466.767597 197.991139 
L 467.698254 198.428456 
L 467.723768 198.326415 
L 467.80625 177.729396 
L 468.053034 202.735148 
L 475.141893 202.735148 
L 478.026644 193.073954 
L 480.463407 198.588805 
L 480.501159 193.310979 
L 480.505714 198.428456 
L 480.655988 195.927006 
L 480.698648 202.735148 
L 481.000994 202.735148 
L 484.133821 96.679508 
L 484.964692 332.247273 
L 484.984057 65.192727 
L 485.26439 300.760492 
L 485.294735 202.735148 
L 489.714172 202.735148 
L 492.552175 192.277163 
L 493.220857 198.078603 
L 493.229123 196.715342 
L 493.293227 198.428456 
L 493.468194 197.451782 
L 493.541456 197.612132 
L 493.6032 202.735148 
L 501.251702 202.735148 
L 504.280178 195.221469 
L 505.642654 196.542164 
L 505.717986 197.038956 
L 505.949574 193.043342 
L 505.95183 226.416705 
L 506.107126 198.72379 
L 506.613352 198.724082 
L 506.683581 202.735148 
L 506.902109 200.16985 
L 507.120752 202.735148 
L 512.953452 202.735148 
L 515.662798 196.979481 
L 518.455298 195.728464 
L 518.564066 202.735148 
L 518.604103 197.521753 
L 518.617601 198.743324 
L 518.71661 227.874426 
L 520.060141 202.735148 
L 527.030699 202.735148 
L 529.909521 195.233714 
L 530.994315 196.201058 
L 530.994864 198.763149 
L 531.069323 190.135771 
L 531.112508 227.874426 
L 531.175735 202.735148 
L 532.696317 201.052354 
L 534.646404 198.574228 
L 534.860196 202.735148 
L 538.307727 202.735148 
L 539.37236 198.793469 
L 543.495184 85.866714 
L 543.576679 198.486765 
L 543.670332 197.291433 
L 543.753591 197.845367 
L 543.84516 195.566657 
L 543.868326 200.673347 
L 545.529666 198.282684 
L 545.948125 198.72379 
L 546.500412 198.724665 
L 546.527013 247.684276 
L 548.149814 217.989618 
L 548.209759 238.404131 
L 548.532648 170.163822 
L 548.550845 227.276178 
L 548.79645 207.466328 
L 548.802293 170.163822 
L 548.910164 194.477448 
L 549.663394 202.962552 
L 549.941457 203.006867 
L 553.83246 201.635443 
L 554.090572 198.428456 
L 554.144216 198.574228 
L 556.18177 198.813294 
L 556.437922 198.721458 
L 556.484626 197.350908 
L 556.602962 199.303089 
L 557.224648 200.073932 
L 557.326949 199.099008 
L 557.344964 200.177721 
L 557.419142 198.924081 
L 557.436609 217.29137 
L 560.376078 199.24478 
L 560.561161 199.011544 
L 560.584723 199.332243 
L 560.632334 199.22787 
L 560.911175 198.567231 
L 561.143606 198.428456 
L 561.731103 198.596094 
L 563.467041 199.747402 
L 565.730993 199.303089 
L 565.819938 199.583263 
L 565.845447 199.157316 
L 565.867344 199.423496 
L 566.044515 198.865772 
L 566.083578 199.423205 
L 566.123219 198.428456 
L 566.528252 198.574228 
L 566.717656 198.282684 
L 566.829434 198.721749 
L 568.112757 198.728163 
L 568.186138 195.804557 
L 568.534245 198.596094 
L 568.658023 198.609213 
L 568.83266 198.830787 
L 568.838799 196.533418 
L 572.919254 198.136911 
L 573.143353 201.635443 
L 576.417596 197.262279 
L 577.418048 197.262279 
L 580.51072 198.733411 
L 580.600981 197.350908 
L 580.612128 198.823498 
L 580.685104 198.722332 
L 580.76337 198.58793 
L 581.186012 198.580642 
L 581.762959 197.262279 
L 581.842498 198.282684 
L 582.218364 198.574519 
L 582.590018 198.428456 
L 582.907412 191.431393 
L 583.054028 198.136911 
L 583.426292 198.512129 
L 584.209041 198.633411 
L 584.659805 198.195803 
L 585.727996 195.833712 
L 586.147109 201.606288 
L 586.282177 198.661691 
L 586.788146 197.262279 
L 589.046751 198.626997 
L 589.076991 198.515919 
L 589.768391 197.991139 
L 592.825685 198.722041 
L 593.132925 197.350908 
L 593.174845 198.820291 
L 593.237037 198.498718 
L 593.765328 198.078603 
L 594.125306 198.505132 
L 594.65912 198.661108 
L 595.282585 197.991139 
L 595.372055 197.017965 
L 595.548825 197.940411 
L 595.620814 197.441287 
L 595.873426 197.815338 
L 596.030683 198.568689 
L 596.552897 195.442751 
L 596.743455 198.657901 
L 597.73723 197.972189 
L 597.747947 198.421167 
L 597.838624 198.290264 
L 598.234746 198.486765 
L 598.470064 197.992014 
L 599.723171 199.157316 
L 599.856107 198.253529 
L 601.304342 204.550885 
L 602.373348 198.670437 
L 604.555586 198.492304 
L 604.565817 198.721749 
L 605.727165 197.350908 
L 605.860521 198.82379 
L 606.08554 193.820307 
L 607.294027 198.166066 
L 608.839521 199.594633 
L 610.377435 200.469266 
L 610.775905 199.886177 
L 610.787724 200.469266 
L 610.952369 197.46636 
L 612.15062 198.428456 
L 612.926696 198.078603 
L 614.706315 197.481228 
L 617.429936 198.733119 
L 618.0728 197.3512 
L 618.259666 198.820291 
L 618.354607 198.721166 
L 631.044632 197.3512 
L 631.1705 201.052354 
L 631.222031 198.82379 
L 631.243629 210.964859 
L 636.918834 209.507138 
L 637.86079 196.535459 
L 637.946459 196.708345 
L 637.968485 200.177721 
L 638.010286 198.148573 
L 638.855142 190.23752 
L 641.193987 198.271313 
L 641.592538 198.234287 
L 642.087822 207.20248 
L 642.22974 190.23752 
L 642.254451 192.714188 
L 642.527216 198.577435 
L 642.765943 196.675109 
L 643.322995 198.735452 
L 643.653077 198.34245 
L 643.71897 198.721749 
L 643.862128 198.824081 
L 643.8975 197.350908 
L 643.926929 198.345657 
L 647.972293 207.466328 
L 648.28713 198.452654 
L 648.61497 200.002795 
L 648.833532 198.136328 
L 649.123896 200.578303 
L 651.210521 198.282684 
L 651.670834 193.617975 
L 652.111343 197.699595 
L 654.084268 198.820583 
L 656.200851 198.732245 
L 656.224675 197.350908 
L 656.294399 198.536327 
L 656.30089 199.419706 
L 656.449991 198.579476 
L 659.550742 198.645656 
L 659.964527 203.296953 
L 662.446048 198.489388 
L 663.58598 198.428456 
L 666.235838 198.599301 
L 667.792092 203.399577 
L 668.339853 198.47831 
L 668.801072 198.824081 
L 668.916113 197.350908 
L 669.001004 198.477727 
L 673.493269 198.399301 
L 673.715479 203.348265 
L 674.296084 197.451782 
L 674.319226 198.107174 
L 674.790457 198.065483 
L 674.796162 198.611254 
L 674.81493 198.498718 
L 675.376585 198.5614 
L 676.617477 198.428456 
L 678.428127 202.322029 
L 680.155909 198.354987 
L 681.00778 198.543033 
L 681.168104 197.350908 
L 681.269197 205.279746 
L 681.446835 198.722332 
L 681.515647 198.58968 
L 681.726158 198.664024 
L 681.788264 198.443908 
L 682.267431 198.626997 
L 683.060387 197.262279 
L 683.862921 198.593178 
L 684.943279 198.564898 
L 685.020816 198.020294 
L 685.401623 198.615336 
L 685.720376 204.263423 
L 685.883113 197.845367 
L 689.778795 201.494627 
L 691.344689 198.345657 
L 692.440549 198.299593 
L 693.22222 198.824373 
L 693.963964 197.350908 
L 694.034655 198.722915 
L 694.162493 198.730496 
L 695.63564 202.364303 
L 695.665894 199.448861 
L 695.881159 197.262279 
L 695.903959 192.014482 
L 696.065641 191.431393 
L 697.056773 200.119412 
L 697.235579 197.20397 
L 699.317678 192.014482 
L 700.155225 205.425518 
L 700.346104 196.557616 
L 701.480879 205.569541 
L 702.908896 196.536333 
L 703.242464 198.509797 
L 705.03457 197.46636 
L 705.596945 197.511257 
L 705.839636 200.031949 
L 705.901509 197.408051 
L 706.296768 198.824373 
L 706.812238 196.224381 
L 706.978552 201.052354 
L 708.475662 198.136911 
L 709.451569 198.486765 
L 709.699727 197.262279 
L 709.970096 198.290847 
L 712.172038 198.23662 
L 712.259046 199.772766 
L 712.668453 198.415336 
L 713.598222 200.123786 
L 713.779771 198.533703 
L 714.015527 201.592586 
L 714.894147 198.136911 
L 715.593083 198.487348 
L 716.338218 198.722624 
L 718.709937 198.73516 
L 718.74362 196.782688 
L 718.929485 198.817667 
L 718.975112 198.543033 
L 719.018879 196.970734 
L 719.53578 199.886177 
L 720.367847 198.136911 
L 721.453323 198.510963 
L 722.506681 198.282684 
L 723.144918 199.886177 
L 726.160763 198.428456 
L 727.292201 198.611837 
L 727.620098 196.603389 
L 728.998433 198.600467 
L 729.430428 197.262279 
L 730.34463 198.568689 
L 731.50996 198.72758 
L 731.622477 196.782688 
L 731.751812 202.213575 
L 731.910853 201.759057 
L 732.10537 198.461692 
L 734.168008 196.970734 
L 735.34284 198.574228 
L 735.476138 200.469266 
L 735.486317 198.282684 
L 736.145211 198.527872 
L 736.813898 196.970734 
L 738.935823 197.608925 
L 739.651806 198.461692 
L 740.399287 198.527872 
L 742.024139 198.456736 
L 742.570192 198.574228 
L 743.309737 200.527574 
L 743.512268 198.821457 
L 743.841796 198.471896 
L 743.856029 196.782688 
L 744.067655 198.722915 
L 744.588114 197.262279 
L 744.743315 198.61796 
L 745.235356 198.428456 
L 746.090433 197.784434 
L 746.393714 197.16053 
L 746.458209 198.450613 
L 746.578196 197.503386 
L 747.072326 198.471021 
L 748.009856 198.033705 
L 748.300397 197.145661 
L 748.446206 198.241284 
L 751.302353 198.282684 
L 754.07121 197.262279 
L 756.13733 198.110672 
L 756.628064 198.824664 
L 756.763142 198.171022 
L 756.842452 196.782688 
L 756.842791 198.722624 
L 756.855817 199.268978 
L 758.538072 198.096095 
L 759.104072 198.136911 
L 760.732358 198.492595 
L 761.3971 198.315337 
L 761.465249 198.496386 
L 761.631192 198.608922 
L 761.67897 198.359068 
L 761.784814 194.522054 
L 761.823014 198.607755 
L 763.056222 198.364316 
L 763.467198 198.666356 
L 764.820115 198.136911 
L 765.672478 198.523791 
L 766.14638 198.523791 
L 768.454795 202.510075 
L 768.66718 198.727289 
L 769.118182 198.722041 
L 769.201208 196.782688 
L 769.211487 199.042156 
L 769.331092 201.781215 
L 769.437804 207.094317 
L 769.64467 202.52232 
L 769.672349 197.991139 
L 770.388083 197.316506 
L 771.964261 200.123494 
L 772.789741 196.224673 
L 772.836131 198.659942 
L 773.610457 207.230469 
L 773.894392 190.209531 
L 773.925461 198.619126 
L 774.607079 202.574798 
L 775.086661 201.693751 
L 775.155545 206.679158 
L 775.350979 202.574798 
L 775.354584 198.515919 
L 775.5886 198.282684 
L 775.727975 194.865202 
L 775.742727 198.574228 
L 776.558945 213.297213 
L 780.173993 184.142787 
L 780.451269 184.142787 
L 780.495022 213.297213 
L 780.833736 198.551779 
L 781.003222 200.702501 
L 781.091013 215.417032 
L 781.166145 198.429913 
L 781.26576 198.595511 
L 781.300875 197.992889 
L 781.462729 198.661691 
L 781.585339 198.458485 
L 781.588387 198.342159 
L 781.639203 198.722624 
L 781.748615 198.829038 
L 781.828045 198.136911 
L 781.867113 196.782688 
L 781.980961 184.142787 
L 783.313898 198.551779 
L 783.655437 199.447111 
L 783.746543 174.021536 
L 783.918571 223.418464 
L 784.023604 198.515919 
L 784.325535 198.47831 
L 784.398216 198.632537 
L 784.523253 198.24799 
L 785.081407 174.021536 
L 785.45929 223.418464 
L 785.491314 198.564024 
L 785.841252 198.341576 
L 786.433723 199.594633 
L 786.806441 198.336911 
L 786.88455 209.856991 
L 786.950147 197.456447 
L 787.120463 196.536625 
L 787.377073 196.631085 
L 787.402128 199.343322 
L 787.46173 196.533418 
L 787.561054 193.151505 
L 787.991523 198.632537 
L 788.173067 204.288495 
L 788.20211 198.690846 
L 788.68992 197.72875 
L 788.800458 198.689971 
L 789.027686 198.749154 
L 789.039677 188.515951 
L 789.606354 197.14741 
L 790.454753 193.617975 
L 791.272812 203.822025 
L 791.377478 193.617975 
L 791.403253 198.568689 
L 791.722088 193.36783 
L 792.125031 209.061367 
L 792.460684 209.040667 
L 792.555658 198.330788 
L 792.688117 198.378602 
L 793.028134 203.880333 
L 793.032469 193.559667 
L 793.076365 198.809504 
L 794.649103 196.782688 
L 794.756097 214.903039 
L 795.646316 198.82204 
L 807.083993 196.782688 
L 807.119131 198.574228 
L 817.304812 198.282684 
L 817.370266 204.201907 
L 817.700286 190.267549 
L 817.899191 198.509213 
L 818.298448 198.428456 
L 818.37234 198.575686 
L 819.361449 198.826122 
L 819.66431 198.426998 
L 819.698986 198.722915 
L 819.703832 189.244811 
L 819.741846 196.782688 
L 819.894267 198.594928 
L 820.471256 198.508047 
L 822.190509 198.574228 
L 822.759743 198.282684 
L 823.033161 201.052354 
L 823.980841 198.408922 
L 824.664614 198.137203 
L 825.144631 199.303089 
L 825.446695 198.574228 
L 825.746694 198.632537 
L 825.859211 198.807463 
L 826.051873 198.527872 
L 826.346769 198.807463 
L 826.375931 198.632537 
L 826.39106 198.690846 
L 826.686552 198.632537 
L 826.789258 198.807463 
L 827.127543 198.418252 
L 827.174019 198.555569 
L 827.306321 198.70105 
L 827.374475 198.505132 
L 827.888757 197.845367 
L 827.978413 198.894927 
L 828.28685 203.851179 
L 828.343948 201.168972 
L 828.356735 192.477746 
L 828.409206 202.889083 
L 828.438879 198.428456 
L 828.588423 204.962254 
L 828.603929 198.545073 
L 828.646289 198.632537 
L 831.16788 198.632537 
L 831.699968 198.824373 
L 831.983406 198.489972 
L 832.027302 198.632537 
L 832.070029 198.330788 
L 832.10553 198.723207 
L 832.34886 189.244811 
L 832.561021 198.632537 
L 833.768782 198.632537 
L 834.070379 198.492595 
L 834.323111 196.970734 
L 834.456171 198.632537 
L 834.639031 198.486473 
L 834.741212 198.638951 
L 835.189267 198.632537 
L 835.413848 198.336911 
L 835.540059 208.195189 
L 835.774766 196.970734 
L 835.794875 189.244811 
L 835.846039 205.811814 
L 835.897938 198.598426 
L 835.972541 198.631079 
L 836.063642 198.136911 
L 836.108959 198.632537 
L 836.136184 197.991139 
L 836.676246 198.632537 
L 838.046316 198.545948 
L 838.054706 198.336911 
L 838.256487 198.632537 
L 838.477896 198.455569 
L 838.603096 202.160222 
L 838.717478 198.611254 
L 838.739018 203.533687 
L 838.773608 197.262279 
L 840.903999 198.486473 
L 841.236503 199.419706 
L 841.474258 194.055292 
L 841.948923 198.573062 
L 842.873351 198.428747 
L 843.623456 207.489068 
L 844.631454 198.831953 
L 845.048687 198.723499 
L 845.058837 197.262279 
L 845.881961 197.850323 
L 846.175426 198.311546 
L 846.251121 166.714562 
L 846.47231 230.725438 
L 847.075352 166.714562 
L 847.095389 200.352648 
L 847.321558 198.626706 
L 847.854261 166.714562 
L 848.43426 198.632537 
L 848.46802 230.725438 
L 848.4936 199.944486 
L 848.621413 201.110663 
L 848.752556 198.632537 
L 849.028635 198.136911 
L 849.096322 198.632537 
L 849.873271 198.632537 
L 850.299876 198.428456 
L 850.343066 204.176542 
L 850.453594 198.632537 
L 850.716456 197.553823 
L 850.933377 198.428456 
L 851.146348 197.845367 
L 851.269754 198.632537 
L 851.361161 196.673359 
L 851.400706 198.632537 
L 851.965127 198.632537 
L 852.223501 198.473937 
L 852.594321 198.632537 
L 852.73662 198.296386 
L 853.064846 198.664024 
L 853.202108 198.632537 
L 853.367254 199.448861 
L 853.401338 198.592595 
L 853.760052 198.632537 
L 854.376964 197.890848 
L 854.569464 198.632537 
L 854.805697 198.28385 
L 854.990489 199.448861 
L 855.055228 195.075697 
L 855.132778 198.632537 
L 855.33052 198.296386 
L 855.581301 198.778309 
L 855.696756 198.632537 
L 855.787141 197.787058 
L 855.85665 202.27684 
L 855.898795 197.991139 
L 855.931415 198.657901 
L 856.114948 205.587325 
L 856.245475 198.250905 
L 856.349974 197.845367 
L 856.3859 199.448861 
L 856.451149 198.632537 
L 856.605162 198.632537 
L 856.716663 198.428747 
L 856.744284 198.574228 
L 856.854903 198.723499 
L 857.557965 198.807172 
L 857.621721 198.336619 
L 857.707103 198.632537 
L 859.056353 198.632537 
L 859.407445 198.426706 
L 859.803792 198.632537 
L 860.679025 198.632537 
L 860.91843 198.28385 
L 861.385154 198.632537 
L 861.680345 214.929861 
L 861.792791 208.361077 
L 861.827309 198.136911 
L 862.043338 198.421459 
L 862.08315 198.136911 
L 862.168532 198.632537 
L 862.214789 198.4028 
L 862.284655 196.533418 
L 862.863376 198.632537 
L 862.988452 203.822025 
L 863.143156 195.075697 
L 863.156268 198.408048 
L 863.231906 198.632537 
L 863.525304 197.846825 
L 863.630065 198.632537 
L 863.983547 198.492887 
L 864.078736 198.632537 
L 864.43568 198.632537 
L 864.654285 200.819119 
L 864.763158 198.632537 
L 865.059389 198.499301 
L 865.818232 198.632537 
L 866.654034 198.723207 
L 866.700429 198.632537 
L 866.997223 198.632537 
L 867.367875 189.734606 
L 867.467738 207.705394 
L 867.612212 206.562541 
L 867.686619 205.098114 
L 867.699445 198.632537 
L 867.970568 199.448861 
L 868.244315 195.075697 
L 868.688807 198.632537 
L 868.985091 198.632537 
L 869.298707 198.79551 
L 869.303472 198.724082 
L 869.400807 198.632537 
L 869.689297 198.661691 
L 869.698221 198.4028 
L 869.71762 225.252569 
L 869.901739 198.315628 
L 869.974429 221.081737 
L 869.976924 172.187431 
L 870.129616 201.28559 
L 870.255354 198.632537 
L 870.964917 198.632537 
L 871.593181 198.45761 
L 871.820929 198.632537 
L 872.077433 200.177721 
L 872.276286 198.296386 
L 872.301704 198.632537 
L 872.538061 198.661691 
L 872.700974 191.431393 
L 872.870861 198.632537 
L 873.032039 198.632537 
L 873.196741 208.100145 
L 873.476822 198.424374 
L 873.851681 197.501345 
L 874.330548 197.554114 
L 874.450253 196.563739 
L 874.526621 198.716793 
L 874.550359 198.489972 
L 874.685036 199.448861 
L 874.747405 198.632537 
L 875.163803 198.282684 
L 875.580269 198.632537 
L 875.623859 198.309506 
L 876.413448 195.075697 
L 876.563187 198.653236 
L 877.107833 198.329914 
L 877.215166 198.136911 
L 877.344496 198.486765 
L 877.427341 197.991139 
L 877.439947 198.282684 
L 877.458658 191.431393 
L 877.523822 199.157316 
L 877.614455 198.632537 
L 878.091386 198.632537 
L 878.606632 207.055834 
L 878.996077 197.845367 
L 879.121668 199.24478 
L 879.276554 198.632537 
L 879.280789 199.594633 
L 879.328958 191.431393 
L 879.540881 191.431393 
L 879.698113 206.008607 
L 879.726755 198.599884 
L 880.034314 198.486765 
L 880.631575 198.632537 
L 880.916216 198.476852 
L 881.835206 198.822332 
L 881.88668 198.471021 
L 882.06013 198.726122 
L 882.072465 198.632537 
L 882.091324 196.851493 
L 882.37607 198.181518 
L 883.054644 198.486765 
L 883.065853 198.632537 
L 883.770188 198.252655 
L 883.989994 197.632831 
L 884.371545 198.632537 
L 884.462131 206.403066 
L 884.748255 197.262279 
L 884.780231 200.177721 
L 884.829965 197.262279 
L 885.020672 199.069562 
L 885.027883 194.653541 
L 885.130193 197.902801 
L 885.222859 197.702511 
L 885.479792 198.632537 
L 885.497216 198.436327 
L 885.736278 198.632537 
L 886.550826 198.632537 
L 887.333618 197.991139 
L 887.676978 197.097848 
L 887.736242 198.632537 
L 888.292278 197.961985 
L 888.600185 198.282684 
L 888.946941 196.679482 
L 889.264712 198.666064 
L 889.321863 198.58968 
L 889.631697 198.632537 
L 890.12298 206.925222 
L 890.524664 197.262279 
L 890.56564 198.393762 
L 890.771271 200.177721 
L 890.82193 198.233996 
L 891.779197 197.991139 
L 892.031848 198.632537 
L 892.136351 198.222334 
L 893.025383 198.632537 
L 893.27956 198.296386 
L 893.580065 198.723499 
L 894.392977 198.820291 
L 894.739767 198.311838 
L 894.85971 198.632537 
L 895.426922 198.399301 
L 895.620991 197.65907 
L 895.90816 198.632537 
L 896.188522 198.282684 
L 896.307368 205.750881 
L 896.386426 198.487056 
L 896.879235 196.489395 
L 896.906642 200.587049 
L 896.960363 197.262279 
L 897.586842 200.177721 
L 897.605377 198.28385 
L 897.645524 198.603382 
L 897.795807 198.399301 
L 897.826858 198.673061 
L 897.86989 197.784143 
L 897.873281 198.632537 
L 898.842978 198.632537 
L 899.144007 201.28559 
L 899.244085 197.262279 
L 899.296647 198.661983 
L 900.260611 198.632537 
L 901.003485 198.28385 
L 901.895193 194.346836 
L 902.025138 196.970734 
L 902.163183 206.272746 
L 902.281647 198.136911 
L 902.471061 199.655857 
L 902.596619 198.370147 
L 902.639121 198.807463 
L 902.805288 198.501342 
L 903.378542 198.659942 
L 903.516544 198.296386 
L 903.863796 198.632537 
L 904.016331 197.991431 
L 904.344128 198.632537 
L 905.181032 198.53312 
L 905.264005 198.296386 
L 905.426084 198.515919 
L 906.626104 198.632537 
L 906.714806 198.399301 
L 907.018073 198.723499 
L 907.126993 198.370147 
L 907.182389 198.82379 
L 907.275374 198.34624 
L 907.753921 198.322042 
L 907.83938 206.272746 
L 907.846859 197.262279 
L 909.184566 198.370147 
L 909.390387 200.002795 
L 909.895645 199.769559 
L 909.99423 195.242168 
L 910.217528 196.970734 
L 911.361981 216.586707 
L 913.624197 195.513013 
L 913.779193 198.824373 
L 919.368572 198.723499 
L 919.429276 219.392238 
L 919.572672 197.262279 
L 920.609507 198.364899 
L 922.502649 198.510088 
L 922.503985 201.781215 
L 922.695469 198.280643 
L 922.773134 198.370147 
L 922.811854 196.970734 
L 922.830513 197.846825 
L 922.945582 198.399301 
L 924.078645 198.594344 
L 924.30501 197.116507 
L 924.350632 198.136911 
L 924.542626 197.262279 
L 924.848273 198.632537 
L 924.873848 219.148215 
L 925.352396 198.632537 
L 925.489185 198.399301 
L 926.340379 198.632537 
L 927.706814 198.632537 
L 928.229048 198.137203 
L 929.172111 198.399301 
L 929.461416 198.0649 
L 930.636133 217.440932 
L 931.024357 198.440701 
L 931.55757 198.253529 
L 931.851579 198.495802 
L 932.182686 198.259069 
L 932.183463 198.944198 
L 932.238343 198.399301 
L 932.370411 198.834868 
L 932.399964 198.296386 
L 933.198081 198.259652 
L 933.306725 198.453529 
L 934.392698 198.216212 
L 934.522085 184.142787 
L 934.522514 197.262279 
L 934.650223 198.399301 
L 935.191425 198.596968 
L 935.241206 197.991139 
L 935.378287 219.392238 
L 936.869759 184.142787 
L 937.022785 198.414462 
L 937.133113 197.971314 
L 937.250047 198.033996 
L 937.280158 198.523791 
L 937.388019 198.282684 
L 937.527046 198.282684 
L 937.757537 198.574228 
L 937.808525 161.204084 
L 938.226159 198.632537 
L 938.439579 198.574228 
L 938.516409 198.171314 
L 938.741581 198.233996 
L 939.530984 198.632537 
L 939.881818 198.282684 
L 939.93014 198.450905 
L 941.184139 198.443324 
L 941.202326 198.632537 
L 941.347448 198.501633 
L 941.499286 198.09697 
L 941.532584 196.389104 
L 942.092102 198.107757 
L 942.162741 219.392238 
L 942.217659 198.603382 
L 942.357039 199.886177 
L 942.422622 196.970734 
L 942.610767 197.940411 
L 942.626202 199.157316 
L 942.909927 198.096095 
L 943.066168 176.923859 
L 943.23065 198.339826 
L 943.838695 197.991431 
L 944.003316 198.676268 
L 944.496139 198.557901 
L 944.693519 198.28385 
L 944.795843 198.721749 
L 944.935695 198.399301 
L 945.256228 199.069853 
L 945.687961 197.262279 
L 946.458781 197.262279 
L 946.522399 198.399301 
L 947.165644 198.216212 
L 947.854554 191.431393 
L 948.074527 198.428456 
L 948.207048 219.392238 
L 948.339622 198.304549 
L 948.398904 198.370438 
L 950.672043 198.433412 
L 950.711154 198.0649 
L 950.906897 184.142787 
L 951.86861 206.925222 
L 953.967469 198.282684 
L 955.440196 198.632537 
L 956.561583 201.489671 
L 956.726448 198.697843 
L 956.949912 198.449447 
L 957.174446 198.828746 
L 957.55045 198.721458 
L 957.64323 198.428456 
L 958.202743 198.388514 
L 958.537151 198.632537 
L 959.020115 198.330788 
L 959.112284 198.632537 
L 959.633578 207.317057 
L 959.913988 198.413587 
L 960.001903 198.632537 
L 961.437794 198.632537 
L 961.543099 198.807463 
L 961.983318 198.609213 
L 962.198235 198.807463 
L 962.484159 198.370438 
L 963.154501 198.296386 
L 964.355775 198.807463 
L 964.434609 198.104259 
L 964.609919 198.632537 
L 964.788696 198.534286 
L 964.873201 198.807463 
L 964.949673 197.494639 
L 965.04843 198.632537 
L 965.290802 198.807463 
L 965.319029 207.055834 
L 965.852385 198.374229 
L 966.10577 198.479476 
L 967.091979 198.484724 
L 967.933095 198.296386 
L 968.230638 198.485307 
L 968.436836 198.377435 
L 970.090587 198.83895 
L 970.311419 198.721749 
L 970.342651 198.405424 
L 971.058071 198.426706 
L 971.274987 198.24041 
L 971.294891 205.294032 
L 971.343871 198.110089 
L 971.641266 198.657901 
L 973.929105 198.296386 
L 974.129718 198.518251 
L 974.750326 198.518251 
L 976.036654 198.370438 
L 976.091143 198.233996 
L 976.428398 198.676268 
L 976.849609 205.359046 
L 977.104015 198.292596 
L 977.259449 198.417669 
L 978.929966 197.553823 
L 980.64776 202.01445 
L 980.688637 196.970734 
L 980.758245 198.535744 
L 980.809334 198.454695 
L 981.154068 198.632537 
L 981.407147 198.480934 
L 981.547252 197.991431 
L 981.548368 198.632537 
L 981.622174 198.603674 
L 981.695222 198.739825 
L 982.091102 198.632537 
L 982.275288 198.233996 
L 982.565252 198.83516 
L 982.656672 198.286474 
L 982.778371 202.778879 
L 983.025636 198.632537 
L 983.200813 198.632537 
L 984.132543 198.307465 
L 984.325224 198.632537 
L 984.669662 198.471604 
L 984.856567 198.632537 
L 985.292426 198.480934 
L 985.334667 198.712128 
L 985.508245 198.632537 
L 985.711191 198.136911 
L 986.669474 198.282684 
L 986.902449 198.632537 
L 987.070929 197.262279 
L 987.157051 198.64828 
L 987.424244 198.439826 
L 987.56029 198.632537 
L 987.935035 198.370438 
L 987.936895 199.303089 
L 988.450838 198.632537 
L 988.474296 205.750881 
L 988.797929 198.632537 
L 990.829606 198.632537 
L 990.875977 198.33866 
L 990.907572 198.632537 
L 991.14236 198.676268 
L 991.454808 198.377435 
L 991.52093 196.970734 
L 991.547263 201.635443 
L 991.662509 198.408631 
L 991.688065 200.469266 
L 991.688923 198.632537 
L 993.701393 198.632537 
L 994.193463 198.41796 
L 994.260382 203.113572 
L 994.347524 198.632537 
L 994.57604 198.632537 
L 994.75249 198.136911 
L 994.96093 199.303089 
L 995.105938 198.723207 
L 995.511495 198.722041 
L 995.512373 198.839242 
L 995.533741 198.632537 
L 996.215158 193.7171 
L 996.218182 203.7229 
L 996.218182 203.7229 
" style="fill:none;stroke:#1f77b4;stroke-linecap:round;stroke-width:1.5;"/>
   </g>
   <g id="patch_3">
    <path d="M 144 345.6 
L 144 51.84 
" style="fill:none;"/>
   </g>
   <g id="patch_4">
    <path d="M 1036.8 345.6 
L 1036.8 51.84 
" style="fill:none;"/>
   </g>
   <g id="patch_5">
    <path d="M 144 345.6 
L 1036.8 345.6 
" style="fill:none;"/>
   </g>
   <g id="patch_6">
    <path d="M 144 51.84 
L 1036.8 51.84 
" style="fill:none;"/>
   </g>
   <g id="text_14">
    <!-- Change in Balance over Time -->
    <defs>
     <path d="M 30.609375 48.390625 
Q 23.390625 48.390625 19.1875 42.75 
Q 14.984375 37.109375 14.984375 27.296875 
Q 14.984375 17.484375 19.15625 11.84375 
Q 23.34375 6.203125 30.609375 6.203125 
Q 37.796875 6.203125 41.984375 11.859375 
Q 46.1875 17.53125 46.1875 27.296875 
Q 46.1875 37.015625 41.984375 42.703125 
Q 37.796875 48.390625 30.609375 48.390625 
z
M 30.609375 56 
Q 42.328125 56 49.015625 48.375 
Q 55.71875 40.765625 55.71875 27.296875 
Q 55.71875 13.875 49.015625 6.21875 
Q 42.328125 -1.421875 30.609375 -1.421875 
Q 18.84375 -1.421875 12.171875 6.21875 
Q 5.515625 13.875 5.515625 27.296875 
Q 5.515625 40.765625 12.171875 48.375 
Q 18.84375 56 30.609375 56 
z
" id="DejaVuSans-6f"/>
     <path d="M 2.984375 54.6875 
L 12.5 54.6875 
L 29.59375 8.796875 
L 46.6875 54.6875 
L 56.203125 54.6875 
L 35.6875 0 
L 23.484375 0 
z
" id="DejaVuSans-76"/>
     <path d="M -0.296875 72.90625 
L 61.375 72.90625 
L 61.375 64.59375 
L 35.5 64.59375 
L 35.5 0 
L 25.59375 0 
L 25.59375 64.59375 
L -0.296875 64.59375 
z
" id="DejaVuSans-54"/>
     <path d="M 52 44.1875 
Q 55.375 50.25 60.0625 53.125 
Q 64.75 56 71.09375 56 
Q 79.640625 56 84.28125 50.015625 
Q 88.921875 44.046875 88.921875 33.015625 
L 88.921875 0 
L 79.890625 0 
L 79.890625 32.71875 
Q 79.890625 40.578125 77.09375 44.375 
Q 74.3125 48.1875 68.609375 48.1875 
Q 61.625 48.1875 57.5625 43.546875 
Q 53.515625 38.921875 53.515625 30.90625 
L 53.515625 0 
L 44.484375 0 
L 44.484375 32.71875 
Q 44.484375 40.625 41.703125 44.40625 
Q 38.921875 48.1875 33.109375 48.1875 
Q 26.21875 48.1875 22.15625 43.53125 
Q 18.109375 38.875 18.109375 30.90625 
L 18.109375 0 
L 9.078125 0 
L 9.078125 54.6875 
L 18.109375 54.6875 
L 18.109375 46.1875 
Q 21.1875 51.21875 25.484375 53.609375 
Q 29.78125 56 35.6875 56 
Q 41.65625 56 45.828125 52.96875 
Q 50 49.953125 52 44.1875 
z
" id="DejaVuSans-6d"/>
    </defs>
    <g style="fill:#262626;" transform="translate(509.507891 45.84)scale(0.11 -0.11)">
     <use xlink:href="#DejaVuSans-43"/>
     <use x="69.824219" xlink:href="#DejaVuSans-68"/>
     <use x="133.203125" xlink:href="#DejaVuSans-61"/>
     <use x="194.482422" xlink:href="#DejaVuSans-6e"/>
     <use x="257.861328" xlink:href="#DejaVuSans-67"/>
     <use x="321.337891" xlink:href="#DejaVuSans-65"/>
     <use x="382.861328" xlink:href="#DejaVuSans-20"/>
     <use x="414.648438" xlink:href="#DejaVuSans-69"/>
     <use x="442.431641" xlink:href="#DejaVuSans-6e"/>
     <use x="505.810547" xlink:href="#DejaVuSans-20"/>
     <use x="537.597656" xlink:href="#DejaVuSans-42"/>
     <use x="606.201172" xlink:href="#DejaVuSans-61"/>
     <use x="667.480469" xlink:href="#DejaVuSans-6c"/>
     <use x="695.263672" xlink:href="#DejaVuSans-61"/>
     <use x="756.542969" xlink:href="#DejaVuSans-6e"/>
     <use x="819.921875" xlink:href="#DejaVuSans-63"/>
     <use x="874.902344" xlink:href="#DejaVuSans-65"/>
     <use x="936.425781" xlink:href="#DejaVuSans-20"/>
     <use x="968.212891" xlink:href="#DejaVuSans-6f"/>
     <use x="1029.394531" xlink:href="#DejaVuSans-76"/>
     <use x="1088.574219" xlink:href="#DejaVuSans-65"/>
     <use x="1150.097656" xlink:href="#DejaVuSans-72"/>
     <use x="1191.210938" xlink:href="#DejaVuSans-20"/>
     <use x="1222.998047" xlink:href="#DejaVuSans-54"/>
     <use x="1284.035156" xlink:href="#DejaVuSans-69"/>
     <use x="1311.818359" xlink:href="#DejaVuSans-6d"/>
     <use x="1409.230469" xlink:href="#DejaVuSans-65"/>
    </g>
   </g>
   <g id="legend_1">
    <g id="line2d_95">
     <path d="M 916.628125 64.938437 
L 936.628125 64.938437 
" style="fill:none;stroke:#1f77b4;stroke-linecap:round;stroke-width:1.5;"/>
    </g>
    <g id="line2d_96"/>
    <g id="text_15">
     <!-- Change_Balance -->
     <defs>
      <path d="M 50.984375 -16.609375 
L 50.984375 -23.578125 
L -0.984375 -23.578125 
L -0.984375 -16.609375 
z
" id="DejaVuSans-5f"/>
     </defs>
     <g style="fill:#262626;" transform="translate(944.628125 68.438437)scale(0.1 -0.1)">
      <use xlink:href="#DejaVuSans-43"/>
      <use x="69.824219" xlink:href="#DejaVuSans-68"/>
      <use x="133.203125" xlink:href="#DejaVuSans-61"/>
      <use x="194.482422" xlink:href="#DejaVuSans-6e"/>
      <use x="257.861328" xlink:href="#DejaVuSans-67"/>
      <use x="321.337891" xlink:href="#DejaVuSans-65"/>
      <use x="382.861328" xlink:href="#DejaVuSans-5f"/>
      <use x="432.861328" xlink:href="#DejaVuSans-42"/>
      <use x="501.464844" xlink:href="#DejaVuSans-61"/>
      <use x="562.744141" xlink:href="#DejaVuSans-6c"/>
      <use x="590.527344" xlink:href="#DejaVuSans-61"/>
      <use x="651.806641" xlink:href="#DejaVuSans-6e"/>
      <use x="715.185547" xlink:href="#DejaVuSans-63"/>
      <use x="770.166016" xlink:href="#DejaVuSans-65"/>
     </g>
    </g>
   </g>
  </g>
 </g>
 <defs>
  <clipPath id="p07e71de63d">
   <rect height="293.76" width="892.8" x="144" y="51.84"/>
  </clipPath>
 </defs>
</svg>
