<?xml version="1.0" encoding="utf-8" standalone="no"?>
<!DOCTYPE svg PUBLIC "-//W3C//DTD SVG 1.1//EN"
  "http://www.w3.org/Graphics/SVG/1.1/DTD/svg11.dtd">
<!-- Created with matplotlib (http://matplotlib.org/) -->
<svg height="432pt" version="1.1" viewBox="0 0 1152 432" width="1152pt" xmlns="http://www.w3.org/2000/svg" xmlns:xlink="http://www.w3.org/1999/xlink">
 <defs>
  <style type="text/css">
*{stroke-linecap:butt;stroke-linejoin:round;}
  </style>
 </defs>
 <g id="figure_1">
  <g id="patch_1">
   <path d="M 0 432 
L 1152 432 
L 1152 0 
L 0 0 
z
" style="fill:#ffffff;"/>
  </g>
  <g id="axes_1">
   <g id="patch_2">
    <path d="M 144 345.6 
L 1036.8 345.6 
L 1036.8 51.84 
L 144 51.84 
z
" style="fill:#eaeaf2;"/>
   </g>
   <g id="matplotlib.axis_1">
    <g id="xtick_1">
     <g id="line2d_1">
      <path clip-path="url(#p39ee3ac90d)" d="M 246.932914 345.6 
L 246.932914 51.84 
" style="fill:none;stroke:#ffffff;stroke-linecap:round;stroke-width:0.8;"/>
     </g>
     <g id="line2d_2"/>
     <g id="text_1">
      <!-- 2013 -->
      <defs>
       <path d="M 19.1875 8.296875 
L 53.609375 8.296875 
L 53.609375 0 
L 7.328125 0 
L 7.328125 8.296875 
Q 12.9375 14.109375 22.625 23.890625 
Q 32.328125 33.6875 34.8125 36.53125 
Q 39.546875 41.84375 41.421875 45.53125 
Q 43.3125 49.21875 43.3125 52.78125 
Q 43.3125 58.59375 39.234375 62.25 
Q 35.15625 65.921875 28.609375 65.921875 
Q 23.96875 65.921875 18.8125 64.3125 
Q 13.671875 62.703125 7.8125 59.421875 
L 7.8125 69.390625 
Q 13.765625 71.78125 18.9375 73 
Q 24.125 74.21875 28.421875 74.21875 
Q 39.75 74.21875 46.484375 68.546875 
Q 53.21875 62.890625 53.21875 53.421875 
Q 53.21875 48.921875 51.53125 44.890625 
Q 49.859375 40.875 45.40625 35.40625 
Q 44.1875 33.984375 37.640625 27.21875 
Q 31.109375 20.453125 19.1875 8.296875 
z
" id="DejaVuSans-32"/>
       <path d="M 31.78125 66.40625 
Q 24.171875 66.40625 20.328125 58.90625 
Q 16.5 51.421875 16.5 36.375 
Q 16.5 21.390625 20.328125 13.890625 
Q 24.171875 6.390625 31.78125 6.390625 
Q 39.453125 6.390625 43.28125 13.890625 
Q 47.125 21.390625 47.125 36.375 
Q 47.125 51.421875 43.28125 58.90625 
Q 39.453125 66.40625 31.78125 66.40625 
z
M 31.78125 74.21875 
Q 44.046875 74.21875 50.515625 64.515625 
Q 56.984375 54.828125 56.984375 36.375 
Q 56.984375 17.96875 50.515625 8.265625 
Q 44.046875 -1.421875 31.78125 -1.421875 
Q 19.53125 -1.421875 13.0625 8.265625 
Q 6.59375 17.96875 6.59375 36.375 
Q 6.59375 54.828125 13.0625 64.515625 
Q 19.53125 74.21875 31.78125 74.21875 
z
" id="DejaVuSans-30"/>
       <path d="M 12.40625 8.296875 
L 28.515625 8.296875 
L 28.515625 63.921875 
L 10.984375 60.40625 
L 10.984375 69.390625 
L 28.421875 72.90625 
L 38.28125 72.90625 
L 38.28125 8.296875 
L 54.390625 8.296875 
L 54.390625 0 
L 12.40625 0 
z
" id="DejaVuSans-31"/>
       <path d="M 40.578125 39.3125 
Q 47.65625 37.796875 51.625 33 
Q 55.609375 28.21875 55.609375 21.1875 
Q 55.609375 10.40625 48.1875 4.484375 
Q 40.765625 -1.421875 27.09375 -1.421875 
Q 22.515625 -1.421875 17.65625 -0.515625 
Q 12.796875 0.390625 7.625 2.203125 
L 7.625 11.71875 
Q 11.71875 9.328125 16.59375 8.109375 
Q 21.484375 6.890625 26.8125 6.890625 
Q 36.078125 6.890625 40.9375 10.546875 
Q 45.796875 14.203125 45.796875 21.1875 
Q 45.796875 27.640625 41.28125 31.265625 
Q 36.765625 34.90625 28.71875 34.90625 
L 20.21875 34.90625 
L 20.21875 43.015625 
L 29.109375 43.015625 
Q 36.375 43.015625 40.234375 45.921875 
Q 44.09375 48.828125 44.09375 54.296875 
Q 44.09375 59.90625 40.109375 62.90625 
Q 36.140625 65.921875 28.71875 65.921875 
Q 24.65625 65.921875 20.015625 65.03125 
Q 15.375 64.15625 9.8125 62.3125 
L 9.8125 71.09375 
Q 15.4375 72.65625 20.34375 73.4375 
Q 25.25 74.21875 29.59375 74.21875 
Q 40.828125 74.21875 47.359375 69.109375 
Q 53.90625 64.015625 53.90625 55.328125 
Q 53.90625 49.265625 50.4375 45.09375 
Q 46.96875 40.921875 40.578125 39.3125 
z
" id="DejaVuSans-33"/>
      </defs>
      <g style="fill:#262626;" transform="translate(223.852724 368.40544)rotate(-30)scale(0.1 -0.1)">
       <use xlink:href="#DejaVuSans-32"/>
       <use x="63.623047" xlink:href="#DejaVuSans-30"/>
       <use x="127.246094" xlink:href="#DejaVuSans-31"/>
       <use x="190.869141" xlink:href="#DejaVuSans-33"/>
      </g>
     </g>
    </g>
    <g id="xtick_2">
     <g id="line2d_3">
      <path clip-path="url(#p39ee3ac90d)" d="M 395.784033 345.6 
L 395.784033 51.84 
" style="fill:none;stroke:#ffffff;stroke-linecap:round;stroke-width:0.8;"/>
     </g>
     <g id="line2d_4"/>
     <g id="text_2">
      <!-- 2014 -->
      <defs>
       <path d="M 37.796875 64.3125 
L 12.890625 25.390625 
L 37.796875 25.390625 
z
M 35.203125 72.90625 
L 47.609375 72.90625 
L 47.609375 25.390625 
L 58.015625 25.390625 
L 58.015625 17.1875 
L 47.609375 17.1875 
L 47.609375 0 
L 37.796875 0 
L 37.796875 17.1875 
L 4.890625 17.1875 
L 4.890625 26.703125 
z
" id="DejaVuSans-34"/>
      </defs>
      <g style="fill:#262626;" transform="translate(372.703843 368.40544)rotate(-30)scale(0.1 -0.1)">
       <use xlink:href="#DejaVuSans-32"/>
       <use x="63.623047" xlink:href="#DejaVuSans-30"/>
       <use x="127.246094" xlink:href="#DejaVuSans-31"/>
       <use x="190.869141" xlink:href="#DejaVuSans-34"/>
      </g>
     </g>
    </g>
    <g id="xtick_3">
     <g id="line2d_5">
      <path clip-path="url(#p39ee3ac90d)" d="M 544.635153 345.6 
L 544.635153 51.84 
" style="fill:none;stroke:#ffffff;stroke-linecap:round;stroke-width:0.8;"/>
     </g>
     <g id="line2d_6"/>
     <g id="text_3">
      <!-- 2015 -->
      <defs>
       <path d="M 10.796875 72.90625 
L 49.515625 72.90625 
L 49.515625 64.59375 
L 19.828125 64.59375 
L 19.828125 46.734375 
Q 21.96875 47.46875 24.109375 47.828125 
Q 26.265625 48.1875 28.421875 48.1875 
Q 40.625 48.1875 47.75 41.5 
Q 54.890625 34.8125 54.890625 23.390625 
Q 54.890625 11.625 47.5625 5.09375 
Q 40.234375 -1.421875 26.90625 -1.421875 
Q 22.3125 -1.421875 17.546875 -0.640625 
Q 12.796875 0.140625 7.71875 1.703125 
L 7.71875 11.625 
Q 12.109375 9.234375 16.796875 8.0625 
Q 21.484375 6.890625 26.703125 6.890625 
Q 35.15625 6.890625 40.078125 11.328125 
Q 45.015625 15.765625 45.015625 23.390625 
Q 45.015625 31 40.078125 35.4375 
Q 35.15625 39.890625 26.703125 39.890625 
Q 22.75 39.890625 18.8125 39.015625 
Q 14.890625 38.140625 10.796875 36.28125 
z
" id="DejaVuSans-35"/>
      </defs>
      <g style="fill:#262626;" transform="translate(521.554963 368.40544)rotate(-30)scale(0.1 -0.1)">
       <use xlink:href="#DejaVuSans-32"/>
       <use x="63.623047" xlink:href="#DejaVuSans-30"/>
       <use x="127.246094" xlink:href="#DejaVuSans-31"/>
       <use x="190.869141" xlink:href="#DejaVuSans-35"/>
      </g>
     </g>
    </g>
    <g id="xtick_4">
     <g id="line2d_7">
      <path clip-path="url(#p39ee3ac90d)" d="M 693.486272 345.6 
L 693.486272 51.84 
" style="fill:none;stroke:#ffffff;stroke-linecap:round;stroke-width:0.8;"/>
     </g>
     <g id="line2d_8"/>
     <g id="text_4">
      <!-- 2016 -->
      <defs>
       <path d="M 33.015625 40.375 
Q 26.375 40.375 22.484375 35.828125 
Q 18.609375 31.296875 18.609375 23.390625 
Q 18.609375 15.53125 22.484375 10.953125 
Q 26.375 6.390625 33.015625 6.390625 
Q 39.65625 6.390625 43.53125 10.953125 
Q 47.40625 15.53125 47.40625 23.390625 
Q 47.40625 31.296875 43.53125 35.828125 
Q 39.65625 40.375 33.015625 40.375 
z
M 52.59375 71.296875 
L 52.59375 62.3125 
Q 48.875 64.0625 45.09375 64.984375 
Q 41.3125 65.921875 37.59375 65.921875 
Q 27.828125 65.921875 22.671875 59.328125 
Q 17.53125 52.734375 16.796875 39.40625 
Q 19.671875 43.65625 24.015625 45.921875 
Q 28.375 48.1875 33.59375 48.1875 
Q 44.578125 48.1875 50.953125 41.515625 
Q 57.328125 34.859375 57.328125 23.390625 
Q 57.328125 12.15625 50.6875 5.359375 
Q 44.046875 -1.421875 33.015625 -1.421875 
Q 20.359375 -1.421875 13.671875 8.265625 
Q 6.984375 17.96875 6.984375 36.375 
Q 6.984375 53.65625 15.1875 63.9375 
Q 23.390625 74.21875 37.203125 74.21875 
Q 40.921875 74.21875 44.703125 73.484375 
Q 48.484375 72.75 52.59375 71.296875 
z
" id="DejaVuSans-36"/>
      </defs>
      <g style="fill:#262626;" transform="translate(670.406082 368.40544)rotate(-30)scale(0.1 -0.1)">
       <use xlink:href="#DejaVuSans-32"/>
       <use x="63.623047" xlink:href="#DejaVuSans-30"/>
       <use x="127.246094" xlink:href="#DejaVuSans-31"/>
       <use x="190.869141" xlink:href="#DejaVuSans-36"/>
      </g>
     </g>
    </g>
    <g id="xtick_5">
     <g id="line2d_9">
      <path clip-path="url(#p39ee3ac90d)" d="M 842.745203 345.6 
L 842.745203 51.84 
" style="fill:none;stroke:#ffffff;stroke-linecap:round;stroke-width:0.8;"/>
     </g>
     <g id="line2d_10"/>
     <g id="text_5">
      <!-- 2017 -->
      <defs>
       <path d="M 8.203125 72.90625 
L 55.078125 72.90625 
L 55.078125 68.703125 
L 28.609375 0 
L 18.3125 0 
L 43.21875 64.59375 
L 8.203125 64.59375 
z
" id="DejaVuSans-37"/>
      </defs>
      <g style="fill:#262626;" transform="translate(819.665013 368.40544)rotate(-30)scale(0.1 -0.1)">
       <use xlink:href="#DejaVuSans-32"/>
       <use x="63.623047" xlink:href="#DejaVuSans-30"/>
       <use x="127.246094" xlink:href="#DejaVuSans-31"/>
       <use x="190.869141" xlink:href="#DejaVuSans-37"/>
      </g>
     </g>
    </g>
    <g id="xtick_6">
     <g id="line2d_11">
      <path clip-path="url(#p39ee3ac90d)" d="M 991.596323 345.6 
L 991.596323 51.84 
" style="fill:none;stroke:#ffffff;stroke-linecap:round;stroke-width:0.8;"/>
     </g>
     <g id="line2d_12"/>
     <g id="text_6">
      <!-- 2018 -->
      <defs>
       <path d="M 31.78125 34.625 
Q 24.75 34.625 20.71875 30.859375 
Q 16.703125 27.09375 16.703125 20.515625 
Q 16.703125 13.921875 20.71875 10.15625 
Q 24.75 6.390625 31.78125 6.390625 
Q 38.8125 6.390625 42.859375 10.171875 
Q 46.921875 13.96875 46.921875 20.515625 
Q 46.921875 27.09375 42.890625 30.859375 
Q 38.875 34.625 31.78125 34.625 
z
M 21.921875 38.8125 
Q 15.578125 40.375 12.03125 44.71875 
Q 8.5 49.078125 8.5 55.328125 
Q 8.5 64.0625 14.71875 69.140625 
Q 20.953125 74.21875 31.78125 74.21875 
Q 42.671875 74.21875 48.875 69.140625 
Q 55.078125 64.0625 55.078125 55.328125 
Q 55.078125 49.078125 51.53125 44.71875 
Q 48 40.375 41.703125 38.8125 
Q 48.828125 37.15625 52.796875 32.3125 
Q 56.78125 27.484375 56.78125 20.515625 
Q 56.78125 9.90625 50.3125 4.234375 
Q 43.84375 -1.421875 31.78125 -1.421875 
Q 19.734375 -1.421875 13.25 4.234375 
Q 6.78125 9.90625 6.78125 20.515625 
Q 6.78125 27.484375 10.78125 32.3125 
Q 14.796875 37.15625 21.921875 38.8125 
z
M 18.3125 54.390625 
Q 18.3125 48.734375 21.84375 45.5625 
Q 25.390625 42.390625 31.78125 42.390625 
Q 38.140625 42.390625 41.71875 45.5625 
Q 45.3125 48.734375 45.3125 54.390625 
Q 45.3125 60.0625 41.71875 63.234375 
Q 38.140625 66.40625 31.78125 66.40625 
Q 25.390625 66.40625 21.84375 63.234375 
Q 18.3125 60.0625 18.3125 54.390625 
z
" id="DejaVuSans-38"/>
      </defs>
      <g style="fill:#262626;" transform="translate(968.516132 368.40544)rotate(-30)scale(0.1 -0.1)">
       <use xlink:href="#DejaVuSans-32"/>
       <use x="63.623047" xlink:href="#DejaVuSans-30"/>
       <use x="127.246094" xlink:href="#DejaVuSans-31"/>
       <use x="190.869141" xlink:href="#DejaVuSans-38"/>
      </g>
     </g>
    </g>
    <g id="xtick_7">
     <g id="line2d_13"/>
    </g>
    <g id="xtick_8">
     <g id="line2d_14"/>
    </g>
    <g id="xtick_9">
     <g id="line2d_15"/>
    </g>
    <g id="xtick_10">
     <g id="line2d_16"/>
    </g>
    <g id="xtick_11">
     <g id="line2d_17"/>
    </g>
    <g id="xtick_12">
     <g id="line2d_18"/>
    </g>
    <g id="xtick_13">
     <g id="line2d_19"/>
    </g>
    <g id="xtick_14">
     <g id="line2d_20"/>
    </g>
    <g id="xtick_15">
     <g id="line2d_21"/>
    </g>
    <g id="xtick_16">
     <g id="line2d_22"/>
    </g>
    <g id="xtick_17">
     <g id="line2d_23"/>
    </g>
    <g id="xtick_18">
     <g id="line2d_24"/>
    </g>
    <g id="xtick_19">
     <g id="line2d_25"/>
    </g>
    <g id="xtick_20">
     <g id="line2d_26"/>
    </g>
    <g id="xtick_21">
     <g id="line2d_27"/>
    </g>
    <g id="xtick_22">
     <g id="line2d_28"/>
    </g>
    <g id="xtick_23">
     <g id="line2d_29"/>
    </g>
    <g id="xtick_24">
     <g id="line2d_30"/>
    </g>
    <g id="xtick_25">
     <g id="line2d_31"/>
    </g>
    <g id="xtick_26">
     <g id="line2d_32"/>
    </g>
    <g id="xtick_27">
     <g id="line2d_33"/>
    </g>
    <g id="xtick_28">
     <g id="line2d_34"/>
    </g>
    <g id="xtick_29">
     <g id="line2d_35"/>
    </g>
    <g id="xtick_30">
     <g id="line2d_36"/>
    </g>
    <g id="xtick_31">
     <g id="line2d_37"/>
    </g>
    <g id="xtick_32">
     <g id="line2d_38"/>
    </g>
    <g id="xtick_33">
     <g id="line2d_39"/>
    </g>
    <g id="xtick_34">
     <g id="line2d_40"/>
    </g>
    <g id="xtick_35">
     <g id="line2d_41"/>
    </g>
    <g id="xtick_36">
     <g id="line2d_42"/>
    </g>
    <g id="xtick_37">
     <g id="line2d_43"/>
    </g>
    <g id="xtick_38">
     <g id="line2d_44"/>
    </g>
    <g id="xtick_39">
     <g id="line2d_45"/>
    </g>
    <g id="xtick_40">
     <g id="line2d_46"/>
    </g>
    <g id="xtick_41">
     <g id="line2d_47"/>
    </g>
    <g id="xtick_42">
     <g id="line2d_48"/>
    </g>
    <g id="xtick_43">
     <g id="line2d_49"/>
    </g>
    <g id="xtick_44">
     <g id="line2d_50"/>
    </g>
    <g id="xtick_45">
     <g id="line2d_51"/>
    </g>
    <g id="xtick_46">
     <g id="line2d_52"/>
    </g>
    <g id="xtick_47">
     <g id="line2d_53"/>
    </g>
    <g id="xtick_48">
     <g id="line2d_54"/>
    </g>
    <g id="xtick_49">
     <g id="line2d_55"/>
    </g>
    <g id="xtick_50">
     <g id="line2d_56"/>
    </g>
    <g id="xtick_51">
     <g id="line2d_57"/>
    </g>
    <g id="xtick_52">
     <g id="line2d_58"/>
    </g>
    <g id="xtick_53">
     <g id="line2d_59"/>
    </g>
    <g id="xtick_54">
     <g id="line2d_60"/>
    </g>
    <g id="xtick_55">
     <g id="line2d_61"/>
    </g>
    <g id="xtick_56">
     <g id="line2d_62"/>
    </g>
    <g id="xtick_57">
     <g id="line2d_63"/>
    </g>
    <g id="xtick_58">
     <g id="line2d_64"/>
    </g>
    <g id="xtick_59">
     <g id="line2d_65"/>
    </g>
    <g id="xtick_60">
     <g id="line2d_66"/>
    </g>
    <g id="xtick_61">
     <g id="line2d_67"/>
    </g>
    <g id="xtick_62">
     <g id="line2d_68"/>
    </g>
    <g id="xtick_63">
     <g id="line2d_69"/>
    </g>
    <g id="xtick_64">
     <g id="line2d_70"/>
    </g>
    <g id="xtick_65">
     <g id="line2d_71"/>
    </g>
    <g id="xtick_66">
     <g id="line2d_72"/>
    </g>
    <g id="xtick_67">
     <g id="line2d_73"/>
    </g>
    <g id="xtick_68">
     <g id="line2d_74"/>
    </g>
    <g id="xtick_69">
     <g id="line2d_75"/>
    </g>
    <g id="xtick_70">
     <g id="line2d_76"/>
    </g>
    <g id="xtick_71">
     <g id="line2d_77"/>
    </g>
    <g id="xtick_72">
     <g id="line2d_78"/>
    </g>
    <g id="xtick_73">
     <g id="line2d_79"/>
    </g>
    <g id="xtick_74">
     <g id="line2d_80"/>
    </g>
    <g id="xtick_75">
     <g id="line2d_81"/>
    </g>
    <g id="xtick_76">
     <g id="line2d_82"/>
    </g>
    <g id="xtick_77">
     <g id="line2d_83"/>
    </g>
    <g id="xtick_78">
     <g id="line2d_84"/>
    </g>
    <g id="text_7">
     <!-- Year -->
     <defs>
      <path d="M -0.203125 72.90625 
L 10.40625 72.90625 
L 30.609375 42.921875 
L 50.6875 72.90625 
L 61.28125 72.90625 
L 35.5 34.71875 
L 35.5 0 
L 25.59375 0 
L 25.59375 34.71875 
z
" id="DejaVuSans-59"/>
      <path d="M 56.203125 29.59375 
L 56.203125 25.203125 
L 14.890625 25.203125 
Q 15.484375 15.921875 20.484375 11.0625 
Q 25.484375 6.203125 34.421875 6.203125 
Q 39.59375 6.203125 44.453125 7.46875 
Q 49.3125 8.734375 54.109375 11.28125 
L 54.109375 2.78125 
Q 49.265625 0.734375 44.1875 -0.34375 
Q 39.109375 -1.421875 33.890625 -1.421875 
Q 20.796875 -1.421875 13.15625 6.1875 
Q 5.515625 13.8125 5.515625 26.8125 
Q 5.515625 40.234375 12.765625 48.109375 
Q 20.015625 56 32.328125 56 
Q 43.359375 56 49.78125 48.890625 
Q 56.203125 41.796875 56.203125 29.59375 
z
M 47.21875 32.234375 
Q 47.125 39.59375 43.09375 43.984375 
Q 39.0625 48.390625 32.421875 48.390625 
Q 24.90625 48.390625 20.390625 44.140625 
Q 15.875 39.890625 15.1875 32.171875 
z
" id="DejaVuSans-65"/>
      <path d="M 34.28125 27.484375 
Q 23.390625 27.484375 19.1875 25 
Q 14.984375 22.515625 14.984375 16.5 
Q 14.984375 11.71875 18.140625 8.90625 
Q 21.296875 6.109375 26.703125 6.109375 
Q 34.1875 6.109375 38.703125 11.40625 
Q 43.21875 16.703125 43.21875 25.484375 
L 43.21875 27.484375 
z
M 52.203125 31.203125 
L 52.203125 0 
L 43.21875 0 
L 43.21875 8.296875 
Q 40.140625 3.328125 35.546875 0.953125 
Q 30.953125 -1.421875 24.3125 -1.421875 
Q 15.921875 -1.421875 10.953125 3.296875 
Q 6 8.015625 6 15.921875 
Q 6 25.140625 12.171875 29.828125 
Q 18.359375 34.515625 30.609375 34.515625 
L 43.21875 34.515625 
L 43.21875 35.40625 
Q 43.21875 41.609375 39.140625 45 
Q 35.0625 48.390625 27.6875 48.390625 
Q 23 48.390625 18.546875 47.265625 
Q 14.109375 46.140625 10.015625 43.890625 
L 10.015625 52.203125 
Q 14.9375 54.109375 19.578125 55.046875 
Q 24.21875 56 28.609375 56 
Q 40.484375 56 46.34375 49.84375 
Q 52.203125 43.703125 52.203125 31.203125 
z
" id="DejaVuSans-61"/>
      <path d="M 41.109375 46.296875 
Q 39.59375 47.171875 37.8125 47.578125 
Q 36.03125 48 33.890625 48 
Q 26.265625 48 22.1875 43.046875 
Q 18.109375 38.09375 18.109375 28.8125 
L 18.109375 0 
L 9.078125 0 
L 9.078125 54.6875 
L 18.109375 54.6875 
L 18.109375 46.1875 
Q 20.953125 51.171875 25.484375 53.578125 
Q 30.03125 56 36.53125 56 
Q 37.453125 56 38.578125 55.875 
Q 39.703125 55.765625 41.0625 55.515625 
z
" id="DejaVuSans-72"/>
     </defs>
     <g style="fill:#262626;" transform="translate(578.036172 382.564783)scale(0.11 -0.11)">
      <use xlink:href="#DejaVuSans-59"/>
      <use x="60.880859" xlink:href="#DejaVuSans-65"/>
      <use x="122.404297" xlink:href="#DejaVuSans-61"/>
      <use x="183.683594" xlink:href="#DejaVuSans-72"/>
     </g>
    </g>
   </g>
   <g id="matplotlib.axis_2">
    <g id="ytick_1">
     <g id="line2d_85">
      <path clip-path="url(#p39ee3ac90d)" d="M 144 329.14957 
L 1036.8 329.14957 
" style="fill:none;stroke:#ffffff;stroke-linecap:round;stroke-width:0.8;"/>
     </g>
     <g id="line2d_86"/>
     <g id="text_8">
      <!-- −4000 -->
      <defs>
       <path d="M 10.59375 35.5 
L 73.1875 35.5 
L 73.1875 27.203125 
L 10.59375 27.203125 
z
" id="DejaVuSans-2212"/>
      </defs>
      <g style="fill:#262626;" transform="translate(106.670312 332.948789)scale(0.1 -0.1)">
       <use xlink:href="#DejaVuSans-2212"/>
       <use x="83.789062" xlink:href="#DejaVuSans-34"/>
       <use x="147.412109" xlink:href="#DejaVuSans-30"/>
       <use x="211.035156" xlink:href="#DejaVuSans-30"/>
       <use x="274.658203" xlink:href="#DejaVuSans-30"/>
      </g>
     </g>
    </g>
    <g id="ytick_2">
     <g id="line2d_87">
      <path clip-path="url(#p39ee3ac90d)" d="M 144 263.934785 
L 1036.8 263.934785 
" style="fill:none;stroke:#ffffff;stroke-linecap:round;stroke-width:0.8;"/>
     </g>
     <g id="line2d_88"/>
     <g id="text_9">
      <!-- −2000 -->
      <g style="fill:#262626;" transform="translate(106.670312 267.734004)scale(0.1 -0.1)">
       <use xlink:href="#DejaVuSans-2212"/>
       <use x="83.789062" xlink:href="#DejaVuSans-32"/>
       <use x="147.412109" xlink:href="#DejaVuSans-30"/>
       <use x="211.035156" xlink:href="#DejaVuSans-30"/>
       <use x="274.658203" xlink:href="#DejaVuSans-30"/>
      </g>
     </g>
    </g>
    <g id="ytick_3">
     <g id="line2d_89">
      <path clip-path="url(#p39ee3ac90d)" d="M 144 198.72 
L 1036.8 198.72 
" style="fill:none;stroke:#ffffff;stroke-linecap:round;stroke-width:0.8;"/>
     </g>
     <g id="line2d_90"/>
     <g id="text_10">
      <!-- 0 -->
      <g style="fill:#262626;" transform="translate(134.1375 202.519219)scale(0.1 -0.1)">
       <use xlink:href="#DejaVuSans-30"/>
      </g>
     </g>
    </g>
    <g id="ytick_4">
     <g id="line2d_91">
      <path clip-path="url(#p39ee3ac90d)" d="M 144 133.505215 
L 1036.8 133.505215 
" style="fill:none;stroke:#ffffff;stroke-linecap:round;stroke-width:0.8;"/>
     </g>
     <g id="line2d_92"/>
     <g id="text_11">
      <!-- 2000 -->
      <g style="fill:#262626;" transform="translate(115.05 137.304434)scale(0.1 -0.1)">
       <use xlink:href="#DejaVuSans-32"/>
       <use x="63.623047" xlink:href="#DejaVuSans-30"/>
       <use x="127.246094" xlink:href="#DejaVuSans-30"/>
       <use x="190.869141" xlink:href="#DejaVuSans-30"/>
      </g>
     </g>
    </g>
    <g id="ytick_5">
     <g id="line2d_93">
      <path clip-path="url(#p39ee3ac90d)" d="M 144 68.29043 
L 1036.8 68.29043 
" style="fill:none;stroke:#ffffff;stroke-linecap:round;stroke-width:0.8;"/>
     </g>
     <g id="line2d_94"/>
     <g id="text_12">
      <!-- 4000 -->
      <g style="fill:#262626;" transform="translate(115.05 72.089648)scale(0.1 -0.1)">
       <use xlink:href="#DejaVuSans-34"/>
       <use x="63.623047" xlink:href="#DejaVuSans-30"/>
       <use x="127.246094" xlink:href="#DejaVuSans-30"/>
       <use x="190.869141" xlink:href="#DejaVuSans-30"/>
      </g>
     </g>
    </g>
    <g id="text_13">
     <!-- Change in Balance -->
     <defs>
      <path d="M 64.40625 67.28125 
L 64.40625 56.890625 
Q 59.421875 61.53125 53.78125 63.8125 
Q 48.140625 66.109375 41.796875 66.109375 
Q 29.296875 66.109375 22.65625 58.46875 
Q 16.015625 50.828125 16.015625 36.375 
Q 16.015625 21.96875 22.65625 14.328125 
Q 29.296875 6.6875 41.796875 6.6875 
Q 48.140625 6.6875 53.78125 8.984375 
Q 59.421875 11.28125 64.40625 15.921875 
L 64.40625 5.609375 
Q 59.234375 2.09375 53.4375 0.328125 
Q 47.65625 -1.421875 41.21875 -1.421875 
Q 24.65625 -1.421875 15.125 8.703125 
Q 5.609375 18.84375 5.609375 36.375 
Q 5.609375 53.953125 15.125 64.078125 
Q 24.65625 74.21875 41.21875 74.21875 
Q 47.75 74.21875 53.53125 72.484375 
Q 59.328125 70.75 64.40625 67.28125 
z
" id="DejaVuSans-43"/>
      <path d="M 54.890625 33.015625 
L 54.890625 0 
L 45.90625 0 
L 45.90625 32.71875 
Q 45.90625 40.484375 42.875 44.328125 
Q 39.84375 48.1875 33.796875 48.1875 
Q 26.515625 48.1875 22.3125 43.546875 
Q 18.109375 38.921875 18.109375 30.90625 
L 18.109375 0 
L 9.078125 0 
L 9.078125 75.984375 
L 18.109375 75.984375 
L 18.109375 46.1875 
Q 21.34375 51.125 25.703125 53.5625 
Q 30.078125 56 35.796875 56 
Q 45.21875 56 50.046875 50.171875 
Q 54.890625 44.34375 54.890625 33.015625 
z
" id="DejaVuSans-68"/>
      <path d="M 54.890625 33.015625 
L 54.890625 0 
L 45.90625 0 
L 45.90625 32.71875 
Q 45.90625 40.484375 42.875 44.328125 
Q 39.84375 48.1875 33.796875 48.1875 
Q 26.515625 48.1875 22.3125 43.546875 
Q 18.109375 38.921875 18.109375 30.90625 
L 18.109375 0 
L 9.078125 0 
L 9.078125 54.6875 
L 18.109375 54.6875 
L 18.109375 46.1875 
Q 21.34375 51.125 25.703125 53.5625 
Q 30.078125 56 35.796875 56 
Q 45.21875 56 50.046875 50.171875 
Q 54.890625 44.34375 54.890625 33.015625 
z
" id="DejaVuSans-6e"/>
      <path d="M 45.40625 27.984375 
Q 45.40625 37.75 41.375 43.109375 
Q 37.359375 48.484375 30.078125 48.484375 
Q 22.859375 48.484375 18.828125 43.109375 
Q 14.796875 37.75 14.796875 27.984375 
Q 14.796875 18.265625 18.828125 12.890625 
Q 22.859375 7.515625 30.078125 7.515625 
Q 37.359375 7.515625 41.375 12.890625 
Q 45.40625 18.265625 45.40625 27.984375 
z
M 54.390625 6.78125 
Q 54.390625 -7.171875 48.1875 -13.984375 
Q 42 -20.796875 29.203125 -20.796875 
Q 24.46875 -20.796875 20.265625 -20.09375 
Q 16.0625 -19.390625 12.109375 -17.921875 
L 12.109375 -9.1875 
Q 16.0625 -11.328125 19.921875 -12.34375 
Q 23.78125 -13.375 27.78125 -13.375 
Q 36.625 -13.375 41.015625 -8.765625 
Q 45.40625 -4.15625 45.40625 5.171875 
L 45.40625 9.625 
Q 42.625 4.78125 38.28125 2.390625 
Q 33.9375 0 27.875 0 
Q 17.828125 0 11.671875 7.65625 
Q 5.515625 15.328125 5.515625 27.984375 
Q 5.515625 40.671875 11.671875 48.328125 
Q 17.828125 56 27.875 56 
Q 33.9375 56 38.28125 53.609375 
Q 42.625 51.21875 45.40625 46.390625 
L 45.40625 54.6875 
L 54.390625 54.6875 
z
" id="DejaVuSans-67"/>
      <path id="DejaVuSans-20"/>
      <path d="M 9.421875 54.6875 
L 18.40625 54.6875 
L 18.40625 0 
L 9.421875 0 
z
M 9.421875 75.984375 
L 18.40625 75.984375 
L 18.40625 64.59375 
L 9.421875 64.59375 
z
" id="DejaVuSans-69"/>
      <path d="M 19.671875 34.8125 
L 19.671875 8.109375 
L 35.5 8.109375 
Q 43.453125 8.109375 47.28125 11.40625 
Q 51.125 14.703125 51.125 21.484375 
Q 51.125 28.328125 47.28125 31.5625 
Q 43.453125 34.8125 35.5 34.8125 
z
M 19.671875 64.796875 
L 19.671875 42.828125 
L 34.28125 42.828125 
Q 41.5 42.828125 45.03125 45.53125 
Q 48.578125 48.25 48.578125 53.8125 
Q 48.578125 59.328125 45.03125 62.0625 
Q 41.5 64.796875 34.28125 64.796875 
z
M 9.8125 72.90625 
L 35.015625 72.90625 
Q 46.296875 72.90625 52.390625 68.21875 
Q 58.5 63.53125 58.5 54.890625 
Q 58.5 48.1875 55.375 44.234375 
Q 52.25 40.28125 46.1875 39.3125 
Q 53.46875 37.75 57.5 32.78125 
Q 61.53125 27.828125 61.53125 20.40625 
Q 61.53125 10.640625 54.890625 5.3125 
Q 48.25 0 35.984375 0 
L 9.8125 0 
z
" id="DejaVuSans-42"/>
      <path d="M 9.421875 75.984375 
L 18.40625 75.984375 
L 18.40625 0 
L 9.421875 0 
z
" id="DejaVuSans-6c"/>
      <path d="M 48.78125 52.59375 
L 48.78125 44.1875 
Q 44.96875 46.296875 41.140625 47.34375 
Q 37.3125 48.390625 33.40625 48.390625 
Q 24.65625 48.390625 19.8125 42.84375 
Q 14.984375 37.3125 14.984375 27.296875 
Q 14.984375 17.28125 19.8125 11.734375 
Q 24.65625 6.203125 33.40625 6.203125 
Q 37.3125 6.203125 41.140625 7.25 
Q 44.96875 8.296875 48.78125 10.40625 
L 48.78125 2.09375 
Q 45.015625 0.34375 40.984375 -0.53125 
Q 36.96875 -1.421875 32.421875 -1.421875 
Q 20.0625 -1.421875 12.78125 6.34375 
Q 5.515625 14.109375 5.515625 27.296875 
Q 5.515625 40.671875 12.859375 48.328125 
Q 20.21875 56 33.015625 56 
Q 37.15625 56 41.109375 55.140625 
Q 45.0625 54.296875 48.78125 52.59375 
z
" id="DejaVuSans-63"/>
     </defs>
     <g style="fill:#262626;" transform="translate(100.382656 250.224062)rotate(-90)scale(0.11 -0.11)">
      <use xlink:href="#DejaVuSans-43"/>
      <use x="69.824219" xlink:href="#DejaVuSans-68"/>
      <use x="133.203125" xlink:href="#DejaVuSans-61"/>
      <use x="194.482422" xlink:href="#DejaVuSans-6e"/>
      <use x="257.861328" xlink:href="#DejaVuSans-67"/>
      <use x="321.337891" xlink:href="#DejaVuSans-65"/>
      <use x="382.861328" xlink:href="#DejaVuSans-20"/>
      <use x="414.648438" xlink:href="#DejaVuSans-69"/>
      <use x="442.431641" xlink:href="#DejaVuSans-6e"/>
      <use x="505.810547" xlink:href="#DejaVuSans-20"/>
      <use x="537.597656" xlink:href="#DejaVuSans-42"/>
      <use x="606.201172" xlink:href="#DejaVuSans-61"/>
      <use x="667.480469" xlink:href="#DejaVuSans-6c"/>
      <use x="695.263672" xlink:href="#DejaVuSans-61"/>
      <use x="756.542969" xlink:href="#DejaVuSans-6e"/>
      <use x="819.921875" xlink:href="#DejaVuSans-63"/>
      <use x="874.902344" xlink:href="#DejaVuSans-65"/>
     </g>
    </g>
   </g>
   <g id="line2d_95">
    <path clip-path="url(#p39ee3ac90d)" d="M 184.581818 312.845874 
L 184.846329 273.717003 
L 184.871105 133.505215 
L 185.026337 84.594126 
L 185.243544 123.722997 
L 185.321797 197.653738 
L 185.513733 198.010137 
L 185.937814 191.96277 
L 185.968259 198.395883 
L 186.120975 193.874215 
L 199.770311 193.978233 
L 247.524493 197.415704 
L 250.191489 198.196977 
L 250.537619 197.13202 
L 251.200959 196.809859 
L 251.384262 198.16274 
L 252.32362 198.58957 
L 256.764916 197.630587 
L 303.710679 198.423599 
L 311.754001 198.801518 
L 315.487504 199.633007 
L 316.023172 197.281036 
L 316.776263 199.372148 
L 316.841924 197.554938 
L 317.09075 200.114618 
L 317.840368 199.643767 
L 317.859724 198.964555 
L 318.064631 200.239504 
L 318.585175 197.580372 
L 320.504258 199.078681 
L 320.70376 203.154605 
L 320.947635 202.036824 
L 321.301482 198.393926 
L 321.980591 202.793968 
L 322.074747 198.067852 
L 322.327132 199.868106 
L 322.991364 199.518555 
L 323.004533 198.467619 
L 327.023839 198.671089 
L 327.942391 197.850687 
L 329.526261 198.393926 
L 332.62701 198.128828 
L 332.923051 327.943097 
L 337.50802 332.247273 
L 338.045713 65.192727 
L 338.050589 69.496903 
L 338.068596 197.627 
L 338.152796 196.91192 
L 338.379509 198.540659 
L 338.40537 197.603849 
L 338.431505 198.393926 
L 339.870933 198.671089 
L 346.885103 198.671089 
L 348.132977 198.393926 
L 348.153962 198.654785 
L 348.296512 197.741778 
L 348.346162 198.067852 
L 350.090348 198.393926 
L 350.098896 198.128502 
L 360.718458 199.660397 
L 360.954262 196.111409 
L 361.029055 200.024296 
L 361.10889 198.518486 
L 372.648708 215.023696 
L 385.939528 198.736304 
L 389.262213 199.306933 
L 393.220045 199.306933 
L 393.800412 200.783722 
L 393.947809 198.230889 
L 398.375294 194.481039 
L 398.381676 204.589331 
L 398.482208 199.013467 
L 401.129243 198.750977 
L 401.141709 198.133067 
L 401.142431 198.777063 
L 401.228505 200.276025 
L 401.272803 198.883037 
L 401.366095 198.915644 
L 401.934769 199.567792 
L 403.969757 199.796044 
L 404.102102 198.067852 
L 404.318559 196.747253 
L 406.975223 199.372148 
L 407.030574 197.285275 
L 408.049352 198.230889 
L 408.063644 198.785215 
L 408.304211 220.302507 
L 408.728759 196.801381 
L 408.823533 199.411277 
L 409.417686 219.757311 
L 409.624334 198.581093 
L 409.76206 198.486531 
L 409.799344 198.233824 
L 412.756943 198.29643 
L 412.911138 198.746412 
L 413.665466 210.693435 
L 415.584633 197.533743 
L 416.019873 196.307053 
L 417.912655 196.815076 
L 418.315293 199.661701 
L 418.564842 197.399401 
L 419.608829 197.709171 
L 419.660674 199.681918 
L 422.467242 195.406111 
L 422.644366 198.230889 
L 423.594585 197.568633 
L 423.629867 198.720326 
L 423.846531 197.481571 
L 423.895624 198.720326 
L 425.186158 197.716344 
L 426.97831 198.720326 
L 428.735353 199.111289 
L 428.771957 198.720326 
L 429.659565 198.18263 
L 429.673135 198.720326 
L 429.954539 181.62427 
L 430.548858 206.871848 
L 431.581097 197.562438 
L 432.154355 197.338751 
L 432.206653 198.393926 
L 432.347749 208.502218 
L 435.204505 204.628133 
L 436.388612 197.848078 
L 436.496955 201.165554 
L 436.630405 197.149954 
L 436.816242 201.491628 
L 437.721753 204.654219 
L 438.390408 198.354471 
L 438.9905 197.533743 
L 440.495545 205.626246 
L 442.328119 197.640043 
L 442.613804 198.503487 
L 444.066339 198.635547 
L 444.349848 198.393926 
L 444.495924 201.328591 
L 444.566422 197.22006 
L 444.712847 198.328711 
L 444.837579 198.407621 
L 445.241671 198.328711 
L 445.337266 197.497549 
L 445.362886 211.652092 
L 445.385363 198.067852 
L 445.494155 200.541123 
L 448.12349 200.267873 
L 448.386372 200.483408 
L 448.53831 199.777458 
L 449.600966 198.713805 
L 449.739173 201.071319 
L 449.86382 201.242834 
L 449.990067 195.948698 
L 450.786715 201.937698 
L 452.569926 198.716739 
L 452.779236 198.570332 
L 453.862443 201.817702 
L 453.942277 198.556963 
L 456.992238 198.035245 
L 456.994282 198.067852 
L 457.176103 198.198282 
L 457.338364 202.193013 
L 457.794886 204.2688 
L 461.7026 201.217726 
L 463.834684 201.617493 
L 464.248145 201.882917 
L 464.741144 201.322722 
L 464.931947 200.53558 
L 465.153703 200.885783 
L 465.295838 196.222274 
L 465.477007 201.393806 
L 467.699135 200.736441 
L 467.863893 203.498939 
L 469.197124 197.904815 
L 469.26226 204.005984 
L 469.331772 198.2798 
L 469.343884 202.11443 
L 471.496741 202.982112 
L 471.586752 201.789334 
L 471.907658 203.997506 
L 473.265561 201.024691 
L 473.708381 200.913825 
L 473.812 201.933785 
L 473.837799 193.1712 
L 473.98051 198.067852 
L 476.136009 198.067852 
L 476.204563 200.349717 
L 476.490083 202.391592 
L 477.010609 199.41682 
L 477.946635 201.121861 
L 477.976461 196.771708 
L 478.016794 202.038454 
L 478.016921 199.427906 
L 478.082463 199.423015 
L 478.126303 198.067852 
L 478.128281 198.573267 
L 481.498832 198.393926 
L 482.05986 195.596212 
L 482.102076 192.850669 
L 482.812069 198.181978 
L 482.837142 199.224762 
L 482.956667 199.143896 
L 483.051483 199.538772 
L 483.81579 199.698222 
L 484.524168 198.944665 
L 484.647385 199.733438 
L 486.914027 199.772893 
L 487.044466 198.602613 
L 487.090486 198.067852 
L 487.114096 198.524356 
L 487.123852 189.189185 
L 488.138655 200.084619 
L 488.143498 199.607247 
L 488.246036 199.464753 
L 489.03155 199.783979 
L 489.21397 199.54888 
L 489.430322 198.751629 
L 490.114638 197.163975 
L 491.259918 199.372148 
L 491.308737 195.491868 
L 491.317724 199.698222 
L 491.593237 199.371822 
L 491.878979 200.676444 
L 492.624013 198.393926 
L 494.330883 197.301578 
L 494.403383 198.002637 
L 494.502112 194.807113 
L 506.786421 196.284228 
L 506.86097 196.773339 
L 519.46569 198.067852 
L 519.573325 197.379836 
L 519.626303 195.902721 
L 531.874721 196.505958 
L 531.948406 200.755027 
L 544.414347 198.459141 
L 544.418241 197.122238 
L 544.500634 197.741778 
L 544.59125 200.904695 
L 546.258221 198.230889 
L 546.672324 198.724239 
L 547.218862 198.725217 
L 547.245185 253.483464 
L 548.851093 220.271856 
L 548.910415 243.104205 
L 549.229943 166.781711 
L 549.24795 230.658289 
L 549.490998 208.502218 
L 549.496781 166.781711 
L 549.603529 193.974972 
L 550.348917 203.465028 
L 550.624086 203.514591 
L 554.474585 201.980739 
L 554.730009 198.393926 
L 554.783096 198.556963 
L 556.799439 198.824344 
L 557.052924 198.72163 
L 557.099143 197.188757 
L 557.216247 199.372148 
L 557.831461 200.234287 
L 557.932697 199.143896 
L 557.950524 200.35037 
L 558.02393 198.948252 
L 558.041215 219.490909 
L 560.950085 199.306933 
L 561.133241 199.046074 
L 561.156558 199.404755 
L 561.203674 199.288021 
L 561.479612 198.549137 
L 561.709624 198.393926 
L 562.291005 198.581419 
L 564.008873 199.869085 
L 566.249258 199.372148 
L 566.337277 199.685505 
L 566.36252 199.209111 
L 566.384189 199.506816 
L 566.559515 198.883037 
L 566.598172 199.50649 
L 566.6374 198.393926 
L 567.038217 198.556963 
L 567.225649 198.230889 
L 567.336263 198.721956 
L 568.340763 198.824344 
L 568.606227 198.72913 
L 568.678845 195.459261 
L 569.023328 198.581419 
L 569.145817 198.596092 
L 569.318637 198.843908 
L 569.324712 196.274446 
L 573.36269 198.067852 
L 573.584456 201.980739 
L 576.824616 197.08963 
L 577.814653 197.08963 
L 580.875131 198.734999 
L 580.964453 197.188757 
L 580.975484 198.835756 
L 581.0477 198.722609 
L 581.125151 198.572289 
L 581.543394 198.564137 
L 582.114334 197.08963 
L 582.193046 198.230889 
L 582.564999 198.557289 
L 582.932784 198.393926 
L 583.246874 190.568152 
L 583.391964 198.067852 
L 583.760353 198.487509 
L 584.534954 198.623156 
L 584.981026 198.133719 
L 586.038097 195.491868 
L 586.452847 201.948132 
L 586.586509 198.654785 
L 587.087211 197.08963 
L 589.322304 198.615982 
L 589.352229 198.491748 
L 590.036432 197.904815 
L 593.061901 198.722283 
L 593.365942 197.188757 
L 593.407427 198.832169 
L 593.468971 198.47251 
L 593.991763 198.002637 
L 594.347993 198.479684 
L 594.87625 198.654133 
L 595.493225 197.904815 
L 595.581764 196.81638 
L 595.756693 197.848078 
L 595.827933 197.28984 
L 596.077915 197.708193 
L 596.233535 198.550768 
L 596.750313 195.054603 
L 596.938888 198.650546 
L 597.922318 197.88362 
L 597.932923 198.385774 
L 598.022656 198.239367 
L 598.414655 198.459141 
L 598.647523 197.905793 
L 599.887586 199.209111 
L 600.019138 198.198282 
L 601.452297 205.241479 
L 602.510176 198.664567 
L 604.669697 198.465336 
L 604.679821 198.721956 
L 605.82908 197.188757 
L 605.961047 198.836082 
L 606.183725 193.240002 
L 607.379631 198.10046 
L 608.909037 199.698222 
L 610.430942 200.676444 
L 610.825264 200.024296 
L 610.83696 200.676444 
L 610.999891 197.317882 
L 612.185668 198.393926 
L 612.953666 198.002637 
L 614.714759 197.334512 
L 617.410028 198.734673 
L 618.0462 197.189083 
L 618.231121 198.832169 
L 618.325074 198.721304 
L 630.882999 197.189083 
L 631.007556 201.328591 
L 631.058552 198.836082 
L 631.079924 212.415105 
L 636.696052 210.784735 
L 637.628203 196.276728 
L 637.712979 196.47009 
L 637.734776 200.35037 
L 637.776143 198.080895 
L 638.612203 189.232879 
L 640.926702 198.218172 
L 641.321104 198.176761 
L 641.811232 208.207121 
L 641.951673 189.232879 
L 641.976127 192.002877 
L 642.246052 198.56055 
L 642.482294 196.432917 
L 643.033548 198.737282 
L 643.360193 198.297734 
L 643.425401 198.721956 
L 643.567068 198.836408 
L 643.602072 197.188757 
L 643.631194 198.301321 
L 647.634447 208.502218 
L 647.946008 198.42099 
L 648.270435 200.154725 
L 648.486721 198.0672 
L 648.774063 200.798395 
L 650.838966 198.230889 
L 651.294487 193.013706 
L 651.730411 197.578741 
L 653.682798 198.832496 
L 655.777348 198.733695 
L 655.800925 197.188757 
L 655.876346 199.502577 
L 656.023895 198.562832 
L 659.092368 198.636851 
L 659.501845 203.839035 
L 661.957535 198.462076 
L 663.0856 198.393926 
L 665.707874 198.585005 
L 667.247928 203.953813 
L 667.789987 198.449685 
L 668.246405 198.836408 
L 668.360248 197.188757 
L 668.444255 198.449033 
L 672.889757 198.361319 
L 673.109654 203.896424 
L 673.684214 197.301578 
L 673.707116 198.034593 
L 674.173442 197.987964 
L 674.179087 198.598374 
L 674.19766 198.47251 
L 674.753468 198.542616 
L 675.981443 198.393926 
L 677.773245 202.748643 
L 679.483041 198.311755 
L 680.326044 198.522073 
L 680.484699 197.188757 
L 680.58474 206.056663 
L 680.760529 198.722609 
L 680.828625 198.574245 
L 681.036943 198.657394 
L 681.098403 198.411208 
L 681.572583 198.615982 
L 682.357284 197.08963 
L 683.151464 198.578158 
L 684.220576 198.546529 
L 684.297305 197.937423 
L 684.674148 198.602939 
L 684.989583 204.91997 
L 685.150626 197.741778 
L 689.005755 201.823246 
L 690.555348 198.301321 
L 691.639801 198.249801 
L 692.413335 198.836734 
L 693.147357 197.188757 
L 693.217313 198.723261 
L 693.34382 198.731739 
L 694.801632 202.795924 
L 694.831571 199.535185 
L 695.044596 197.08963 
L 695.067157 191.2203 
L 695.227157 190.568152 
L 696.207972 200.285155 
L 696.384916 197.024416 
L 698.44534 191.2203 
L 699.27417 206.2197 
L 699.463061 196.30151 
L 700.586024 206.380781 
L 701.999175 196.277706 
L 702.329271 198.484901 
L 704.102721 197.317882 
L 704.659242 197.368098 
L 704.899407 200.187333 
L 704.960636 197.252667 
L 705.35178 198.836734 
L 705.861884 195.928807 
L 706.026467 201.328591 
L 707.507993 198.067852 
L 708.473741 198.459141 
L 708.719315 197.08963 
L 708.98687 198.240019 
L 711.16589 198.179369 
L 711.251993 199.897453 
L 711.657138 198.379253 
L 712.577229 200.290046 
L 712.756888 198.511639 
L 712.99019 201.932806 
L 713.859663 198.067852 
L 714.551323 198.459793 
L 715.288702 198.722935 
L 717.635731 198.736956 
L 717.669064 196.553239 
L 717.852995 198.829235 
L 717.898147 198.522073 
L 717.941458 196.763556 
L 718.452978 200.024296 
L 719.276383 198.067852 
L 720.35056 198.486205 
L 721.392952 198.230889 
L 722.024545 200.024296 
L 725.008997 198.393926 
L 726.128656 198.599027 
L 726.45314 196.352703 
L 727.817127 198.58631 
L 728.244626 197.08963 
L 729.149311 198.550768 
L 730.30251 198.728478 
L 730.413856 196.553239 
L 730.541845 202.627344 
L 730.69923 202.118995 
L 730.891722 198.431099 
L 732.932888 196.763556 
L 734.09549 198.556963 
L 734.227401 200.676444 
L 734.237474 198.230889 
L 734.889509 198.505117 
L 735.551235 196.763556 
L 737.651071 197.477332 
L 738.359601 198.431099 
L 739.099302 198.505117 
L 740.707239 198.425555 
L 741.247608 198.556963 
L 741.979455 200.741658 
L 742.179877 198.833474 
L 742.505975 198.442511 
L 742.52006 196.553239 
L 742.729483 198.723261 
L 743.244524 197.08963 
L 743.39811 198.605874 
L 743.885029 198.393926 
L 744.731204 197.673629 
L 745.031328 196.975831 
L 745.095152 198.418708 
L 745.213889 197.359294 
L 745.702876 198.441533 
L 746.630646 197.952422 
L 746.918163 196.959201 
L 747.062454 198.184587 
L 749.88887 198.230889 
L 752.628904 197.08963 
L 754.673516 198.038505 
L 755.159142 198.837061 
L 755.292813 198.106003 
L 755.371298 196.553239 
L 755.371633 198.722935 
L 755.384523 199.333997 
L 757.049267 198.022202 
L 757.609375 198.067852 
L 759.220711 198.465662 
L 759.878533 198.267409 
L 759.945973 198.469901 
L 760.110188 198.595766 
L 760.157468 198.31632 
L 760.262211 194.024862 
L 760.300013 198.594462 
L 761.520384 198.32219 
L 761.927081 198.660002 
L 763.265915 198.067852 
L 764.109405 198.500552 
L 764.578374 198.500552 
L 766.862759 202.958961 
L 767.072933 198.728152 
L 767.519241 198.722283 
L 767.601403 196.553239 
L 767.611574 199.080312 
L 767.729934 202.143776 
L 767.835535 208.086147 
L 768.040248 202.972656 
L 768.067638 197.904815 
L 768.775923 197.15028 
L 770.335692 200.28972 
L 771.15258 195.929133 
L 771.198487 198.652829 
L 771.964752 208.238424 
L 772.245731 189.201576 
L 772.276478 198.607178 
L 772.950999 203.031349 
L 773.42559 202.045954 
L 773.493756 207.621818 
L 773.687155 203.031349 
L 773.690724 198.491748 
L 773.922303 198.230889 
L 774.060227 194.408651 
L 774.074826 198.556963 
L 774.882547 215.023696 
L 778.459963 182.416304 
L 778.734353 182.416304 
L 778.77765 215.023696 
L 779.112839 198.531855 
L 779.280561 200.937303 
L 779.367438 217.39458 
L 779.441788 198.395556 
L 779.540366 198.580766 
L 779.575115 197.906772 
L 779.735285 198.654785 
L 779.856618 198.427512 
L 779.859634 198.297408 
L 779.909921 198.722935 
L 780.018194 198.841952 
L 780.096797 198.067852 
L 780.135459 196.553239 
L 780.248121 182.416304 
L 781.567183 198.531855 
L 781.905166 199.533228 
L 781.995324 171.096321 
L 782.165561 226.343679 
L 782.269501 198.491748 
L 782.568289 198.449685 
L 782.640213 198.622178 
L 782.763949 198.192086 
L 783.316292 171.096321 
L 783.690242 226.343679 
L 783.721933 198.54555 
L 784.068228 198.296756 
L 784.654532 199.698222 
L 785.02337 198.291539 
L 785.100665 211.176024 
L 785.16558 197.306796 
L 785.334123 196.278032 
L 785.588061 196.38368 
L 785.612855 199.417146 
L 785.671837 196.274446 
L 785.770127 192.491988 
L 786.196115 198.622178 
L 786.375769 204.948012 
L 786.40451 198.687393 
L 786.887242 197.611349 
L 786.996629 198.686414 
L 787.221491 198.752607 
L 787.233358 187.307413 
L 787.794136 196.961157 
L 788.633703 193.013706 
L 789.443246 204.426294 
L 789.546823 193.013706 
L 789.57233 198.550768 
L 789.887846 192.733935 
L 790.286594 210.286168 
L 790.618753 210.263017 
L 790.712738 198.284691 
L 790.843819 198.338167 
L 791.180296 204.491508 
L 791.184586 192.948492 
L 791.228025 198.820105 
L 792.784391 196.553239 
L 792.890271 216.819711 
L 793.771224 198.834126 
L 805.089837 196.553239 
L 805.12461 198.556963 
L 815.204261 198.230889 
L 815.269034 204.851168 
L 815.595618 189.266465 
L 815.792453 198.484249 
L 816.187553 198.393926 
L 816.260676 198.558593 
L 817.239489 198.838691 
L 817.539197 198.392296 
L 817.573512 198.723261 
L 817.578308 188.122597 
L 817.615926 196.553239 
L 817.76676 198.580114 
L 818.337743 198.482944 
L 820.039099 198.556963 
L 820.602408 198.230889 
L 820.872979 201.328591 
L 821.810794 198.372079 
L 822.487449 198.068178 
L 822.962469 199.372148 
L 823.261389 198.556963 
L 823.558265 198.622178 
L 823.669611 198.817822 
L 823.860268 198.505117 
L 824.152093 198.817822 
L 824.180952 198.622178 
L 824.195924 198.687393 
L 824.488339 198.622178 
L 824.589976 198.817822 
L 824.92474 198.382513 
L 824.970732 198.536094 
L 825.101656 198.698805 
L 825.169101 198.479684 
L 825.67803 197.741778 
L 825.766752 198.915644 
L 826.071978 204.458901 
L 826.128482 201.459021 
L 826.141136 191.738431 
L 826.193061 203.382857 
L 826.222425 198.393926 
L 826.370412 205.701569 
L 826.385757 198.524356 
L 826.427676 198.622178 
L 828.923018 198.622178 
L 829.449567 198.836734 
L 829.730055 198.462728 
L 829.773493 198.622178 
L 829.815776 198.284691 
L 829.850907 198.723587 
L 830.091704 188.122597 
L 830.301656 198.622178 
L 831.496845 198.622178 
L 831.795303 198.465662 
L 832.045403 196.763556 
L 832.177078 198.622178 
L 832.358035 198.458815 
L 832.459153 198.629351 
L 832.902544 198.622178 
L 833.124787 198.291539 
L 833.249683 209.317403 
L 833.481947 196.763556 
L 833.501847 188.122597 
L 833.552479 206.651748 
L 833.603837 198.584027 
L 833.677663 198.620547 
L 833.767816 198.067852 
L 833.812661 198.622178 
L 833.839603 197.904815 
L 834.374044 198.622178 
L 835.729851 198.525334 
L 835.738154 198.291539 
L 835.937835 198.622178 
L 836.156939 198.424251 
L 836.280835 202.567672 
L 836.394026 198.598374 
L 836.415342 204.103807 
L 836.449572 197.08963 
L 838.557786 198.458815 
L 838.88683 199.502577 
L 839.122109 193.502817 
L 839.591833 198.555659 
L 840.506638 198.394252 
L 841.248935 208.527652 
L 842.246439 198.845212 
L 842.659329 198.723913 
L 842.669374 197.08963 
L 843.483929 197.747321 
L 843.774339 198.26317 
L 843.849246 162.92393 
L 844.068133 234.51607 
L 844.664897 162.92393 
L 844.684726 200.546014 
L 844.908541 198.615656 
L 845.435698 162.92393 
L 846.00966 198.622178 
L 846.043068 234.51607 
L 846.068382 200.08951 
L 846.194864 201.393806 
L 846.324642 198.622178 
L 846.597847 198.067852 
L 846.664829 198.622178 
L 847.43369 198.622178 
L 847.855855 198.393926 
L 847.898595 204.8228 
L 848.007973 198.622178 
L 848.268099 197.415704 
L 848.482761 198.393926 
L 848.693516 197.741778 
L 848.815637 198.622178 
L 848.906092 196.430961 
L 848.945226 198.622178 
L 849.503772 198.622178 
L 849.759456 198.444794 
L 850.126415 198.622178 
L 850.267233 198.246215 
L 850.592042 198.657394 
L 850.727876 198.622178 
L 850.891302 199.535185 
L 850.925032 198.577506 
L 851.280012 198.622178 
L 851.890501 197.792646 
L 852.080997 198.622178 
L 852.314771 198.232193 
L 852.49764 199.535185 
L 852.561705 194.644076 
L 852.638448 198.622178 
L 852.834131 198.246215 
L 853.082301 198.785215 
L 853.196555 198.622178 
L 853.285999 197.676563 
L 853.354785 202.698102 
L 853.396491 197.904815 
L 853.428771 198.650546 
L 853.610394 206.400671 
L 853.739562 198.195347 
L 853.842973 197.741778 
L 853.878525 199.535185 
L 853.943095 198.622178 
L 854.095505 198.622178 
L 854.205845 198.394252 
L 854.233179 198.556963 
L 854.342646 198.723913 
L 855.038389 198.817496 
L 855.101482 198.291213 
L 855.185975 198.622178 
L 856.52118 198.622178 
L 856.868617 198.39197 
L 857.260838 198.622178 
L 858.12696 198.622178 
L 858.363873 198.232193 
L 858.825738 198.622178 
L 859.117857 216.84971 
L 859.229132 209.502939 
L 859.26329 198.067852 
L 859.47707 198.3861 
L 859.516469 198.067852 
L 859.600962 198.622178 
L 859.646737 198.365232 
L 859.715876 196.274446 
L 860.288572 198.622178 
L 860.412346 204.426294 
L 860.56544 194.644076 
L 860.578416 198.371101 
L 860.653266 198.622178 
L 860.94361 197.743409 
L 861.047281 198.622178 
L 861.397083 198.465988 
L 861.491281 198.622178 
L 861.844509 198.622178 
L 862.060838 201.067732 
L 862.168578 198.622178 
L 862.461725 198.473162 
L 863.212669 198.622178 
L 864.039771 198.723587 
L 864.085682 198.622178 
L 864.379387 198.622178 
L 864.746181 188.670402 
L 864.845004 208.769598 
L 864.987974 207.491389 
L 865.061607 205.853519 
L 865.074299 198.622178 
L 865.3426 199.535185 
L 865.613497 194.644076 
L 866.053362 198.622178 
L 866.346562 198.622178 
L 866.656914 198.804453 
L 866.661629 198.724565 
L 866.757951 198.622178 
L 867.043438 198.654785 
L 867.052269 198.365232 
L 867.071465 228.39501 
L 867.253668 198.267735 
L 867.325602 223.730196 
L 867.32807 169.04499 
L 867.479173 201.589451 
L 867.603602 198.622178 
L 868.305779 198.622178 
L 868.927502 198.426533 
L 869.152879 198.622178 
L 869.406714 200.35037 
L 869.603497 198.246215 
L 869.62865 198.622178 
L 869.862546 198.654785 
L 870.023764 190.568152 
L 870.191882 198.622178 
L 870.351382 198.622178 
L 870.51437 209.211102 
L 870.791535 198.389361 
L 871.162492 197.357011 
L 871.636375 197.41603 
L 871.754833 196.308357 
L 871.830406 198.716413 
L 871.853897 198.462728 
L 871.987172 199.535185 
L 872.048892 198.622178 
L 872.460956 198.230889 
L 872.873086 198.622178 
L 872.916222 198.260888 
L 873.697592 194.644076 
L 873.845772 198.645329 
L 874.384749 198.283713 
L 874.490964 198.067852 
L 874.618948 198.459141 
L 874.70093 197.904815 
L 874.713405 198.230889 
L 874.731922 190.568152 
L 874.796407 199.209111 
L 874.886097 198.622178 
L 875.358063 198.622178 
L 875.867945 208.043106 
L 876.253336 197.741778 
L 876.37762 199.306933 
L 876.530893 198.622178 
L 876.535085 199.698222 
L 876.582753 190.568152 
L 876.792469 190.568152 
L 876.948065 206.871848 
L 876.976408 198.585658 
L 877.280766 198.459141 
L 877.871809 198.622178 
L 878.153487 198.448054 
L 878.784773 198.730108 
L 879.062911 198.834452 
L 879.113849 198.441533 
L 879.285494 198.726848 
L 879.2977 198.622178 
L 879.316363 196.630192 
L 879.598144 198.117741 
L 880.269654 198.459141 
L 880.280747 198.622178 
L 880.97775 198.197303 
L 881.195268 197.50407 
L 881.572848 198.622178 
L 881.662491 207.313026 
L 881.945636 197.08963 
L 881.977279 200.35037 
L 882.026495 197.08963 
L 882.215216 199.110963 
L 882.222353 194.171921 
L 882.323598 197.806015 
L 882.415299 197.582002 
L 882.669558 198.622178 
L 882.6868 198.40273 
L 882.923373 198.622178 
L 883.729442 198.622178 
L 884.504086 197.904815 
L 884.843872 196.905725 
L 884.902518 198.622178 
L 885.452766 197.872208 
L 885.757468 198.230889 
L 886.100615 196.437809 
L 886.415078 198.659676 
L 886.471633 198.574245 
L 886.778242 198.622178 
L 887.264411 207.897025 
L 887.661914 197.08963 
L 887.702464 198.355123 
L 887.905954 200.35037 
L 887.956085 198.176435 
L 888.903388 197.904815 
L 889.153408 198.622178 
L 889.256824 198.163392 
L 890.136601 198.622178 
L 890.388132 198.246215 
L 890.685509 198.723913 
L 891.489959 198.832169 
L 891.833139 198.263497 
L 891.951834 198.622178 
L 892.513141 198.361319 
L 892.705189 197.533417 
L 892.989369 198.622178 
L 893.266813 198.230889 
L 893.384422 206.583599 
L 893.462656 198.459467 
L 893.950335 196.225208 
L 893.977457 200.808177 
L 894.030619 197.08963 
L 894.650577 200.35037 
L 894.668919 198.232193 
L 894.708647 198.58957 
L 894.857366 198.361319 
L 894.888094 198.667502 
L 894.930678 197.673303 
L 894.934034 198.622178 
L 895.893636 198.622178 
L 896.191532 201.589451 
L 896.290568 197.08963 
L 896.342583 198.655111 
L 897.296512 198.622178 
L 898.031653 198.232193 
L 898.914078 193.828891 
L 899.042671 196.763556 
L 899.179279 207.167271 
L 899.29651 198.067852 
L 899.483952 199.766697 
L 899.608203 198.328711 
L 899.650263 198.817822 
L 899.8147 198.475445 
L 900.381987 198.652829 
L 900.518552 198.246215 
L 900.862189 198.622178 
L 901.013136 197.905141 
L 901.337521 198.622178 
L 901.594673 198.622178 
L 902.165713 198.510987 
L 902.247822 198.246215 
L 902.408214 198.491748 
L 903.595743 198.622178 
L 903.683521 198.361319 
L 903.983631 198.723913 
L 904.091417 198.328711 
L 904.146236 198.836082 
L 904.238253 198.301973 
L 904.711819 198.274909 
L 904.796388 207.167271 
L 904.803789 197.08963 
L 906.127571 198.328711 
L 906.33125 200.154725 
L 906.831248 199.893866 
L 906.928807 194.830264 
L 907.14978 196.763556 
L 908.28232 218.702788 
L 910.520987 195.133187 
L 910.67437 198.836734 
L 916.205565 198.723913 
L 916.265637 221.840598 
L 916.40754 197.08963 
L 917.433582 198.322842 
L 919.285914 198.371753 
L 919.307017 198.485227 
L 919.308339 202.143776 
L 919.497829 198.228607 
L 919.574686 198.328711 
L 919.613003 196.763556 
L 919.631468 197.743409 
L 919.745339 198.361319 
L 920.866607 198.579462 
L 921.090616 196.926593 
L 921.135763 198.067852 
L 921.325758 197.08963 
L 921.628223 198.622178 
L 921.653532 221.567674 
L 922.127098 198.622178 
L 922.262464 198.361319 
L 923.104797 198.622178 
L 924.457008 198.622178 
L 924.973805 198.068178 
L 925.907051 198.361319 
L 926.193345 197.987312 
L 927.355834 219.658185 
L 927.740016 198.407621 
L 928.267679 198.198282 
L 928.558627 198.469249 
L 928.886287 198.204477 
L 928.887056 198.970751 
L 928.997118 198.725869 
L 929.072058 198.848473 
L 929.101304 198.246215 
L 929.891112 198.205129 
L 929.998625 198.421968 
L 931.073293 198.156544 
L 931.201333 182.416304 
L 931.201758 197.08963 
L 931.328137 198.361319 
L 931.863706 198.582397 
L 931.912969 197.904815 
L 932.048623 221.840598 
L 933.524569 182.416304 
L 933.676002 198.378275 
L 933.785181 197.882642 
L 933.900898 197.952748 
L 933.930695 198.500552 
L 934.037434 198.230889 
L 934.175014 198.230889 
L 934.403105 198.556963 
L 934.453562 156.760807 
L 934.866849 198.622178 
L 935.078047 198.556963 
L 935.154077 198.106329 
L 935.376906 198.176435 
L 936.158091 198.622178 
L 936.505273 198.230889 
L 936.553092 198.419034 
L 937.794037 198.410556 
L 937.812035 198.622178 
L 937.955647 198.475771 
L 938.105904 198.02318 
L 938.138855 196.113039 
L 938.692548 198.035245 
L 938.762452 221.840598 
L 938.816799 198.58957 
L 938.954728 200.024296 
L 939.019628 196.763556 
L 939.205815 197.848078 
L 939.221089 199.209111 
L 939.50186 198.022202 
L 939.656474 174.342387 
L 939.819245 198.2948 
L 940.42096 197.905141 
L 940.583868 198.671089 
L 941.071561 198.538703 
L 941.266885 198.232193 
L 941.368144 198.721956 
L 941.506541 198.361319 
L 941.823737 199.111289 
L 942.250976 197.08963 
L 943.013771 197.08963 
L 943.076727 198.361319 
L 943.713276 198.156544 
L 944.395015 190.568152 
L 944.612699 198.393926 
L 944.74384 221.840598 
L 944.875034 198.255345 
L 944.933699 198.329037 
L 947.183175 198.399469 
L 947.221879 197.987312 
L 947.415585 182.416304 
L 948.367286 207.897025 
L 950.444296 198.230889 
L 951.901693 198.622178 
L 953.011407 201.817702 
L 953.174555 198.695218 
L 953.395693 198.417403 
L 953.617889 198.841626 
L 953.989979 198.72163 
L 954.081793 198.393926 
L 954.635482 198.349254 
L 954.966409 198.622178 
L 955.444346 198.284691 
L 955.535556 198.622178 
L 956.051423 208.335268 
L 956.328914 198.377296 
L 956.415914 198.622178 
L 957.836857 198.622178 
L 957.941066 198.817822 
L 958.167652 198.622178 
L 958.376702 198.596092 
L 958.589383 198.817822 
L 958.87233 198.329037 
L 959.535693 198.246215 
L 960.377843 198.622178 
L 960.536559 198.817822 
L 960.581777 198.622178 
L 960.724463 198.817822 
L 960.802476 198.031332 
L 960.975961 198.622178 
L 961.152878 198.512291 
L 961.236503 198.817822 
L 961.312179 197.349511 
L 961.409907 198.622178 
L 961.649756 198.817822 
L 961.677689 208.043106 
L 962.205493 198.333276 
L 962.456241 198.450989 
L 963.432184 198.456858 
L 964.264544 198.246215 
L 964.558989 198.45751 
L 964.763041 198.336863 
L 966.399578 198.853038 
L 966.618111 198.721956 
L 966.649017 198.368166 
L 967.35699 198.39197 
L 967.571648 198.183608 
L 967.591345 206.072641 
L 967.639815 198.037853 
L 967.934114 198.650546 
L 970.198137 198.246215 
L 970.396661 198.494357 
L 971.010809 198.494357 
L 972.283747 198.329037 
L 972.337669 198.176435 
L 972.671413 198.671089 
L 973.08824 206.145355 
L 973.339997 198.241976 
L 973.493814 198.381861 
L 975.146941 197.415704 
L 976.846853 202.404635 
L 976.887304 196.763556 
L 976.956188 198.513921 
L 977.006744 198.423273 
L 977.34789 198.622178 
L 977.598335 198.452619 
L 977.736981 197.905141 
L 977.738086 198.622178 
L 977.811124 198.589897 
L 977.883411 198.742173 
L 978.27517 198.622178 
L 978.457439 198.176435 
L 978.744384 198.848799 
L 978.834853 198.235128 
L 978.955285 203.259601 
L 979.199976 198.622178 
L 979.373329 198.622178 
L 980.29536 198.258605 
L 980.486035 198.622178 
L 980.826888 198.442185 
L 981.011848 198.622178 
L 981.443169 198.452619 
L 981.48497 198.711196 
L 981.656742 198.622178 
L 981.857575 198.067852 
L 982.805882 198.230889 
L 983.036432 198.622178 
L 983.203158 197.08963 
L 983.288383 198.639786 
L 983.552795 198.406643 
L 983.687425 198.622178 
L 984.058269 198.329037 
L 984.06011 199.372148 
L 984.568703 198.622178 
L 984.591916 206.583599 
L 984.91218 198.622178 
L 986.922709 198.622178 
L 986.968597 198.293495 
L 986.999863 198.622178 
L 987.232206 198.671089 
L 987.541402 198.336863 
L 987.606836 196.763556 
L 987.632895 201.980739 
L 987.746941 198.371753 
L 987.772231 200.676444 
L 987.77308 198.622178 
L 989.764601 198.622178 
L 990.251549 198.382187 
L 990.317771 203.633934 
L 990.404006 198.622178 
L 990.630143 198.622178 
L 990.804756 198.067852 
L 991.011026 199.372148 
L 991.154525 198.723587 
L 991.55586 198.722283 
L 991.556729 198.853364 
L 991.577875 198.622178 
L 992.252198 193.124571 
L 992.255191 204.315429 
L 992.256007 200.937303 
L 993.363503 197.08963 
L 994.230102 198.622178 
L 994.603929 198.235128 
L 994.663401 198.659676 
L 995.045724 198.515226 
L 995.164669 198.622178 
L 995.419551 198.168935 
L 995.496016 198.622178 
L 995.937812 202.276162 
L 996.218182 198.622178 
L 996.218182 198.622178 
" style="fill:none;stroke:#1f77b4;stroke-linecap:round;stroke-width:1.5;"/>
   </g>
   <g id="patch_3">
    <path d="M 144 345.6 
L 144 51.84 
" style="fill:none;"/>
   </g>
   <g id="patch_4">
    <path d="M 1036.8 345.6 
L 1036.8 51.84 
" style="fill:none;"/>
   </g>
   <g id="patch_5">
    <path d="M 144 345.6 
L 1036.8 345.6 
" style="fill:none;"/>
   </g>
   <g id="patch_6">
    <path d="M 144 51.84 
L 1036.8 51.84 
" style="fill:none;"/>
   </g>
   <g id="text_14">
    <!-- Change in Balance over Time -->
    <defs>
     <path d="M 30.609375 48.390625 
Q 23.390625 48.390625 19.1875 42.75 
Q 14.984375 37.109375 14.984375 27.296875 
Q 14.984375 17.484375 19.15625 11.84375 
Q 23.34375 6.203125 30.609375 6.203125 
Q 37.796875 6.203125 41.984375 11.859375 
Q 46.1875 17.53125 46.1875 27.296875 
Q 46.1875 37.015625 41.984375 42.703125 
Q 37.796875 48.390625 30.609375 48.390625 
z
M 30.609375 56 
Q 42.328125 56 49.015625 48.375 
Q 55.71875 40.765625 55.71875 27.296875 
Q 55.71875 13.875 49.015625 6.21875 
Q 42.328125 -1.421875 30.609375 -1.421875 
Q 18.84375 -1.421875 12.171875 6.21875 
Q 5.515625 13.875 5.515625 27.296875 
Q 5.515625 40.765625 12.171875 48.375 
Q 18.84375 56 30.609375 56 
z
" id="DejaVuSans-6f"/>
     <path d="M 2.984375 54.6875 
L 12.5 54.6875 
L 29.59375 8.796875 
L 46.6875 54.6875 
L 56.203125 54.6875 
L 35.6875 0 
L 23.484375 0 
z
" id="DejaVuSans-76"/>
     <path d="M -0.296875 72.90625 
L 61.375 72.90625 
L 61.375 64.59375 
L 35.5 64.59375 
L 35.5 0 
L 25.59375 0 
L 25.59375 64.59375 
L -0.296875 64.59375 
z
" id="DejaVuSans-54"/>
     <path d="M 52 44.1875 
Q 55.375 50.25 60.0625 53.125 
Q 64.75 56 71.09375 56 
Q 79.640625 56 84.28125 50.015625 
Q 88.921875 44.046875 88.921875 33.015625 
L 88.921875 0 
L 79.890625 0 
L 79.890625 32.71875 
Q 79.890625 40.578125 77.09375 44.375 
Q 74.3125 48.1875 68.609375 48.1875 
Q 61.625 48.1875 57.5625 43.546875 
Q 53.515625 38.921875 53.515625 30.90625 
L 53.515625 0 
L 44.484375 0 
L 44.484375 32.71875 
Q 44.484375 40.625 41.703125 44.40625 
Q 38.921875 48.1875 33.109375 48.1875 
Q 26.21875 48.1875 22.15625 43.53125 
Q 18.109375 38.875 18.109375 30.90625 
L 18.109375 0 
L 9.078125 0 
L 9.078125 54.6875 
L 18.109375 54.6875 
L 18.109375 46.1875 
Q 21.1875 51.21875 25.484375 53.609375 
Q 29.78125 56 35.6875 56 
Q 41.65625 56 45.828125 52.96875 
Q 50 49.953125 52 44.1875 
z
" id="DejaVuSans-6d"/>
    </defs>
    <g style="fill:#262626;" transform="translate(509.507891 45.84)scale(0.11 -0.11)">
     <use xlink:href="#DejaVuSans-43"/>
     <use x="69.824219" xlink:href="#DejaVuSans-68"/>
     <use x="133.203125" xlink:href="#DejaVuSans-61"/>
     <use x="194.482422" xlink:href="#DejaVuSans-6e"/>
     <use x="257.861328" xlink:href="#DejaVuSans-67"/>
     <use x="321.337891" xlink:href="#DejaVuSans-65"/>
     <use x="382.861328" xlink:href="#DejaVuSans-20"/>
     <use x="414.648438" xlink:href="#DejaVuSans-69"/>
     <use x="442.431641" xlink:href="#DejaVuSans-6e"/>
     <use x="505.810547" xlink:href="#DejaVuSans-20"/>
     <use x="537.597656" xlink:href="#DejaVuSans-42"/>
     <use x="606.201172" xlink:href="#DejaVuSans-61"/>
     <use x="667.480469" xlink:href="#DejaVuSans-6c"/>
     <use x="695.263672" xlink:href="#DejaVuSans-61"/>
     <use x="756.542969" xlink:href="#DejaVuSans-6e"/>
     <use x="819.921875" xlink:href="#DejaVuSans-63"/>
     <use x="874.902344" xlink:href="#DejaVuSans-65"/>
     <use x="936.425781" xlink:href="#DejaVuSans-20"/>
     <use x="968.212891" xlink:href="#DejaVuSans-6f"/>
     <use x="1029.394531" xlink:href="#DejaVuSans-76"/>
     <use x="1088.574219" xlink:href="#DejaVuSans-65"/>
     <use x="1150.097656" xlink:href="#DejaVuSans-72"/>
     <use x="1191.210938" xlink:href="#DejaVuSans-20"/>
     <use x="1222.998047" xlink:href="#DejaVuSans-54"/>
     <use x="1284.035156" xlink:href="#DejaVuSans-69"/>
     <use x="1311.818359" xlink:href="#DejaVuSans-6d"/>
     <use x="1409.230469" xlink:href="#DejaVuSans-65"/>
    </g>
   </g>
   <g id="legend_1">
    <g id="line2d_96">
     <path d="M 916.628125 64.938437 
L 936.628125 64.938437 
" style="fill:none;stroke:#1f77b4;stroke-linecap:round;stroke-width:1.5;"/>
    </g>
    <g id="line2d_97"/>
    <g id="text_15">
     <!-- Change_Balance -->
     <defs>
      <path d="M 50.984375 -16.609375 
L 50.984375 -23.578125 
L -0.984375 -23.578125 
L -0.984375 -16.609375 
z
" id="DejaVuSans-5f"/>
     </defs>
     <g style="fill:#262626;" transform="translate(944.628125 68.438437)scale(0.1 -0.1)">
      <use xlink:href="#DejaVuSans-43"/>
      <use x="69.824219" xlink:href="#DejaVuSans-68"/>
      <use x="133.203125" xlink:href="#DejaVuSans-61"/>
      <use x="194.482422" xlink:href="#DejaVuSans-6e"/>
      <use x="257.861328" xlink:href="#DejaVuSans-67"/>
      <use x="321.337891" xlink:href="#DejaVuSans-65"/>
      <use x="382.861328" xlink:href="#DejaVuSans-5f"/>
      <use x="432.861328" xlink:href="#DejaVuSans-42"/>
      <use x="501.464844" xlink:href="#DejaVuSans-61"/>
      <use x="562.744141" xlink:href="#DejaVuSans-6c"/>
      <use x="590.527344" xlink:href="#DejaVuSans-61"/>
      <use x="651.806641" xlink:href="#DejaVuSans-6e"/>
      <use x="715.185547" xlink:href="#DejaVuSans-63"/>
      <use x="770.166016" xlink:href="#DejaVuSans-65"/>
     </g>
    </g>
   </g>
  </g>
 </g>
 <defs>
  <clipPath id="p39ee3ac90d">
   <rect height="293.76" width="892.8" x="144" y="51.84"/>
  </clipPath>
 </defs>
</svg>
