<?xml version="1.0" encoding="utf-8" standalone="no"?>
<!DOCTYPE svg PUBLIC "-//W3C//DTD SVG 1.1//EN"
  "http://www.w3.org/Graphics/SVG/1.1/DTD/svg11.dtd">
<!-- Created with matplotlib (http://matplotlib.org/) -->
<svg height="432pt" version="1.1" viewBox="0 0 1152 432" width="1152pt" xmlns="http://www.w3.org/2000/svg" xmlns:xlink="http://www.w3.org/1999/xlink">
 <defs>
  <style type="text/css">
*{stroke-linecap:butt;stroke-linejoin:round;}
  </style>
 </defs>
 <g id="figure_1">
  <g id="patch_1">
   <path d="M 0 432 
L 1152 432 
L 1152 0 
L 0 0 
z
" style="fill:#ffffff;"/>
  </g>
  <g id="axes_1">
   <g id="patch_2">
    <path d="M 144 345.6 
L 1036.8 345.6 
L 1036.8 51.84 
L 144 51.84 
z
" style="fill:#eaeaf2;"/>
   </g>
   <g id="matplotlib.axis_1">
    <g id="xtick_1">
     <g id="line2d_1">
      <path clip-path="url(#p019af9186f)" d="M 182.046615 345.6 
L 182.046615 51.84 
" style="fill:none;stroke:#ffffff;stroke-linecap:round;stroke-width:0.8;"/>
     </g>
     <g id="line2d_2"/>
     <g id="text_1">
      <!-- 2015 -->
      <defs>
       <path d="M 19.1875 8.296875 
L 53.609375 8.296875 
L 53.609375 0 
L 7.328125 0 
L 7.328125 8.296875 
Q 12.9375 14.109375 22.625 23.890625 
Q 32.328125 33.6875 34.8125 36.53125 
Q 39.546875 41.84375 41.421875 45.53125 
Q 43.3125 49.21875 43.3125 52.78125 
Q 43.3125 58.59375 39.234375 62.25 
Q 35.15625 65.921875 28.609375 65.921875 
Q 23.96875 65.921875 18.8125 64.3125 
Q 13.671875 62.703125 7.8125 59.421875 
L 7.8125 69.390625 
Q 13.765625 71.78125 18.9375 73 
Q 24.125 74.21875 28.421875 74.21875 
Q 39.75 74.21875 46.484375 68.546875 
Q 53.21875 62.890625 53.21875 53.421875 
Q 53.21875 48.921875 51.53125 44.890625 
Q 49.859375 40.875 45.40625 35.40625 
Q 44.1875 33.984375 37.640625 27.21875 
Q 31.109375 20.453125 19.1875 8.296875 
z
" id="DejaVuSans-32"/>
       <path d="M 31.78125 66.40625 
Q 24.171875 66.40625 20.328125 58.90625 
Q 16.5 51.421875 16.5 36.375 
Q 16.5 21.390625 20.328125 13.890625 
Q 24.171875 6.390625 31.78125 6.390625 
Q 39.453125 6.390625 43.28125 13.890625 
Q 47.125 21.390625 47.125 36.375 
Q 47.125 51.421875 43.28125 58.90625 
Q 39.453125 66.40625 31.78125 66.40625 
z
M 31.78125 74.21875 
Q 44.046875 74.21875 50.515625 64.515625 
Q 56.984375 54.828125 56.984375 36.375 
Q 56.984375 17.96875 50.515625 8.265625 
Q 44.046875 -1.421875 31.78125 -1.421875 
Q 19.53125 -1.421875 13.0625 8.265625 
Q 6.59375 17.96875 6.59375 36.375 
Q 6.59375 54.828125 13.0625 64.515625 
Q 19.53125 74.21875 31.78125 74.21875 
z
" id="DejaVuSans-30"/>
       <path d="M 12.40625 8.296875 
L 28.515625 8.296875 
L 28.515625 63.921875 
L 10.984375 60.40625 
L 10.984375 69.390625 
L 28.421875 72.90625 
L 38.28125 72.90625 
L 38.28125 8.296875 
L 54.390625 8.296875 
L 54.390625 0 
L 12.40625 0 
z
" id="DejaVuSans-31"/>
       <path d="M 10.796875 72.90625 
L 49.515625 72.90625 
L 49.515625 64.59375 
L 19.828125 64.59375 
L 19.828125 46.734375 
Q 21.96875 47.46875 24.109375 47.828125 
Q 26.265625 48.1875 28.421875 48.1875 
Q 40.625 48.1875 47.75 41.5 
Q 54.890625 34.8125 54.890625 23.390625 
Q 54.890625 11.625 47.5625 5.09375 
Q 40.234375 -1.421875 26.90625 -1.421875 
Q 22.3125 -1.421875 17.546875 -0.640625 
Q 12.796875 0.140625 7.71875 1.703125 
L 7.71875 11.625 
Q 12.109375 9.234375 16.796875 8.0625 
Q 21.484375 6.890625 26.703125 6.890625 
Q 35.15625 6.890625 40.078125 11.328125 
Q 45.015625 15.765625 45.015625 23.390625 
Q 45.015625 31 40.078125 35.4375 
Q 35.15625 39.890625 26.703125 39.890625 
Q 22.75 39.890625 18.8125 39.015625 
Q 14.890625 38.140625 10.796875 36.28125 
z
" id="DejaVuSans-35"/>
      </defs>
      <g style="fill:#262626;" transform="translate(158.966425 368.40544)rotate(-30)scale(0.1 -0.1)">
       <use xlink:href="#DejaVuSans-32"/>
       <use x="63.623047" xlink:href="#DejaVuSans-30"/>
       <use x="127.246094" xlink:href="#DejaVuSans-31"/>
       <use x="190.869141" xlink:href="#DejaVuSans-35"/>
      </g>
     </g>
    </g>
    <g id="xtick_2">
     <g id="line2d_3">
      <path clip-path="url(#p019af9186f)" d="M 454.551838 345.6 
L 454.551838 51.84 
" style="fill:none;stroke:#ffffff;stroke-linecap:round;stroke-width:0.8;"/>
     </g>
     <g id="line2d_4"/>
     <g id="text_2">
      <!-- 2016 -->
      <defs>
       <path d="M 33.015625 40.375 
Q 26.375 40.375 22.484375 35.828125 
Q 18.609375 31.296875 18.609375 23.390625 
Q 18.609375 15.53125 22.484375 10.953125 
Q 26.375 6.390625 33.015625 6.390625 
Q 39.65625 6.390625 43.53125 10.953125 
Q 47.40625 15.53125 47.40625 23.390625 
Q 47.40625 31.296875 43.53125 35.828125 
Q 39.65625 40.375 33.015625 40.375 
z
M 52.59375 71.296875 
L 52.59375 62.3125 
Q 48.875 64.0625 45.09375 64.984375 
Q 41.3125 65.921875 37.59375 65.921875 
Q 27.828125 65.921875 22.671875 59.328125 
Q 17.53125 52.734375 16.796875 39.40625 
Q 19.671875 43.65625 24.015625 45.921875 
Q 28.375 48.1875 33.59375 48.1875 
Q 44.578125 48.1875 50.953125 41.515625 
Q 57.328125 34.859375 57.328125 23.390625 
Q 57.328125 12.15625 50.6875 5.359375 
Q 44.046875 -1.421875 33.015625 -1.421875 
Q 20.359375 -1.421875 13.671875 8.265625 
Q 6.984375 17.96875 6.984375 36.375 
Q 6.984375 53.65625 15.1875 63.9375 
Q 23.390625 74.21875 37.203125 74.21875 
Q 40.921875 74.21875 44.703125 73.484375 
Q 48.484375 72.75 52.59375 71.296875 
z
" id="DejaVuSans-36"/>
      </defs>
      <g style="fill:#262626;" transform="translate(431.471648 368.40544)rotate(-30)scale(0.1 -0.1)">
       <use xlink:href="#DejaVuSans-32"/>
       <use x="63.623047" xlink:href="#DejaVuSans-30"/>
       <use x="127.246094" xlink:href="#DejaVuSans-31"/>
       <use x="190.869141" xlink:href="#DejaVuSans-36"/>
      </g>
     </g>
    </g>
    <g id="xtick_3">
     <g id="line2d_5">
      <path clip-path="url(#p019af9186f)" d="M 727.803652 345.6 
L 727.803652 51.84 
" style="fill:none;stroke:#ffffff;stroke-linecap:round;stroke-width:0.8;"/>
     </g>
     <g id="line2d_6"/>
     <g id="text_3">
      <!-- 2017 -->
      <defs>
       <path d="M 8.203125 72.90625 
L 55.078125 72.90625 
L 55.078125 68.703125 
L 28.609375 0 
L 18.3125 0 
L 43.21875 64.59375 
L 8.203125 64.59375 
z
" id="DejaVuSans-37"/>
      </defs>
      <g style="fill:#262626;" transform="translate(704.723461 368.40544)rotate(-30)scale(0.1 -0.1)">
       <use xlink:href="#DejaVuSans-32"/>
       <use x="63.623047" xlink:href="#DejaVuSans-30"/>
       <use x="127.246094" xlink:href="#DejaVuSans-31"/>
       <use x="190.869141" xlink:href="#DejaVuSans-37"/>
      </g>
     </g>
    </g>
    <g id="xtick_4">
     <g id="line2d_7">
      <path clip-path="url(#p019af9186f)" d="M 1000.308875 345.6 
L 1000.308875 51.84 
" style="fill:none;stroke:#ffffff;stroke-linecap:round;stroke-width:0.8;"/>
     </g>
     <g id="line2d_8"/>
     <g id="text_4">
      <!-- 2018 -->
      <defs>
       <path d="M 31.78125 34.625 
Q 24.75 34.625 20.71875 30.859375 
Q 16.703125 27.09375 16.703125 20.515625 
Q 16.703125 13.921875 20.71875 10.15625 
Q 24.75 6.390625 31.78125 6.390625 
Q 38.8125 6.390625 42.859375 10.171875 
Q 46.921875 13.96875 46.921875 20.515625 
Q 46.921875 27.09375 42.890625 30.859375 
Q 38.875 34.625 31.78125 34.625 
z
M 21.921875 38.8125 
Q 15.578125 40.375 12.03125 44.71875 
Q 8.5 49.078125 8.5 55.328125 
Q 8.5 64.0625 14.71875 69.140625 
Q 20.953125 74.21875 31.78125 74.21875 
Q 42.671875 74.21875 48.875 69.140625 
Q 55.078125 64.0625 55.078125 55.328125 
Q 55.078125 49.078125 51.53125 44.71875 
Q 48 40.375 41.703125 38.8125 
Q 48.828125 37.15625 52.796875 32.3125 
Q 56.78125 27.484375 56.78125 20.515625 
Q 56.78125 9.90625 50.3125 4.234375 
Q 43.84375 -1.421875 31.78125 -1.421875 
Q 19.734375 -1.421875 13.25 4.234375 
Q 6.78125 9.90625 6.78125 20.515625 
Q 6.78125 27.484375 10.78125 32.3125 
Q 14.796875 37.15625 21.921875 38.8125 
z
M 18.3125 54.390625 
Q 18.3125 48.734375 21.84375 45.5625 
Q 25.390625 42.390625 31.78125 42.390625 
Q 38.140625 42.390625 41.71875 45.5625 
Q 45.3125 48.734375 45.3125 54.390625 
Q 45.3125 60.0625 41.71875 63.234375 
Q 38.140625 66.40625 31.78125 66.40625 
Q 25.390625 66.40625 21.84375 63.234375 
Q 18.3125 60.0625 18.3125 54.390625 
z
" id="DejaVuSans-38"/>
      </defs>
      <g style="fill:#262626;" transform="translate(977.228685 368.40544)rotate(-30)scale(0.1 -0.1)">
       <use xlink:href="#DejaVuSans-32"/>
       <use x="63.623047" xlink:href="#DejaVuSans-30"/>
       <use x="127.246094" xlink:href="#DejaVuSans-31"/>
       <use x="190.869141" xlink:href="#DejaVuSans-38"/>
      </g>
     </g>
    </g>
    <g id="xtick_5">
     <g id="line2d_9"/>
    </g>
    <g id="xtick_6">
     <g id="line2d_10"/>
    </g>
    <g id="xtick_7">
     <g id="line2d_11"/>
    </g>
    <g id="xtick_8">
     <g id="line2d_12"/>
    </g>
    <g id="xtick_9">
     <g id="line2d_13"/>
    </g>
    <g id="xtick_10">
     <g id="line2d_14"/>
    </g>
    <g id="xtick_11">
     <g id="line2d_15"/>
    </g>
    <g id="xtick_12">
     <g id="line2d_16"/>
    </g>
    <g id="xtick_13">
     <g id="line2d_17"/>
    </g>
    <g id="xtick_14">
     <g id="line2d_18"/>
    </g>
    <g id="xtick_15">
     <g id="line2d_19"/>
    </g>
    <g id="xtick_16">
     <g id="line2d_20"/>
    </g>
    <g id="xtick_17">
     <g id="line2d_21"/>
    </g>
    <g id="xtick_18">
     <g id="line2d_22"/>
    </g>
    <g id="xtick_19">
     <g id="line2d_23"/>
    </g>
    <g id="xtick_20">
     <g id="line2d_24"/>
    </g>
    <g id="xtick_21">
     <g id="line2d_25"/>
    </g>
    <g id="xtick_22">
     <g id="line2d_26"/>
    </g>
    <g id="xtick_23">
     <g id="line2d_27"/>
    </g>
    <g id="xtick_24">
     <g id="line2d_28"/>
    </g>
    <g id="xtick_25">
     <g id="line2d_29"/>
    </g>
    <g id="xtick_26">
     <g id="line2d_30"/>
    </g>
    <g id="xtick_27">
     <g id="line2d_31"/>
    </g>
    <g id="xtick_28">
     <g id="line2d_32"/>
    </g>
    <g id="xtick_29">
     <g id="line2d_33"/>
    </g>
    <g id="xtick_30">
     <g id="line2d_34"/>
    </g>
    <g id="xtick_31">
     <g id="line2d_35"/>
    </g>
    <g id="xtick_32">
     <g id="line2d_36"/>
    </g>
    <g id="xtick_33">
     <g id="line2d_37"/>
    </g>
    <g id="xtick_34">
     <g id="line2d_38"/>
    </g>
    <g id="xtick_35">
     <g id="line2d_39"/>
    </g>
    <g id="xtick_36">
     <g id="line2d_40"/>
    </g>
    <g id="xtick_37">
     <g id="line2d_41"/>
    </g>
    <g id="xtick_38">
     <g id="line2d_42"/>
    </g>
    <g id="xtick_39">
     <g id="line2d_43"/>
    </g>
    <g id="xtick_40">
     <g id="line2d_44"/>
    </g>
    <g id="xtick_41">
     <g id="line2d_45"/>
    </g>
    <g id="xtick_42">
     <g id="line2d_46"/>
    </g>
    <g id="xtick_43">
     <g id="line2d_47"/>
    </g>
    <g id="text_5">
     <!-- Year -->
     <defs>
      <path d="M -0.203125 72.90625 
L 10.40625 72.90625 
L 30.609375 42.921875 
L 50.6875 72.90625 
L 61.28125 72.90625 
L 35.5 34.71875 
L 35.5 0 
L 25.59375 0 
L 25.59375 34.71875 
z
" id="DejaVuSans-59"/>
      <path d="M 56.203125 29.59375 
L 56.203125 25.203125 
L 14.890625 25.203125 
Q 15.484375 15.921875 20.484375 11.0625 
Q 25.484375 6.203125 34.421875 6.203125 
Q 39.59375 6.203125 44.453125 7.46875 
Q 49.3125 8.734375 54.109375 11.28125 
L 54.109375 2.78125 
Q 49.265625 0.734375 44.1875 -0.34375 
Q 39.109375 -1.421875 33.890625 -1.421875 
Q 20.796875 -1.421875 13.15625 6.1875 
Q 5.515625 13.8125 5.515625 26.8125 
Q 5.515625 40.234375 12.765625 48.109375 
Q 20.015625 56 32.328125 56 
Q 43.359375 56 49.78125 48.890625 
Q 56.203125 41.796875 56.203125 29.59375 
z
M 47.21875 32.234375 
Q 47.125 39.59375 43.09375 43.984375 
Q 39.0625 48.390625 32.421875 48.390625 
Q 24.90625 48.390625 20.390625 44.140625 
Q 15.875 39.890625 15.1875 32.171875 
z
" id="DejaVuSans-65"/>
      <path d="M 34.28125 27.484375 
Q 23.390625 27.484375 19.1875 25 
Q 14.984375 22.515625 14.984375 16.5 
Q 14.984375 11.71875 18.140625 8.90625 
Q 21.296875 6.109375 26.703125 6.109375 
Q 34.1875 6.109375 38.703125 11.40625 
Q 43.21875 16.703125 43.21875 25.484375 
L 43.21875 27.484375 
z
M 52.203125 31.203125 
L 52.203125 0 
L 43.21875 0 
L 43.21875 8.296875 
Q 40.140625 3.328125 35.546875 0.953125 
Q 30.953125 -1.421875 24.3125 -1.421875 
Q 15.921875 -1.421875 10.953125 3.296875 
Q 6 8.015625 6 15.921875 
Q 6 25.140625 12.171875 29.828125 
Q 18.359375 34.515625 30.609375 34.515625 
L 43.21875 34.515625 
L 43.21875 35.40625 
Q 43.21875 41.609375 39.140625 45 
Q 35.0625 48.390625 27.6875 48.390625 
Q 23 48.390625 18.546875 47.265625 
Q 14.109375 46.140625 10.015625 43.890625 
L 10.015625 52.203125 
Q 14.9375 54.109375 19.578125 55.046875 
Q 24.21875 56 28.609375 56 
Q 40.484375 56 46.34375 49.84375 
Q 52.203125 43.703125 52.203125 31.203125 
z
" id="DejaVuSans-61"/>
      <path d="M 41.109375 46.296875 
Q 39.59375 47.171875 37.8125 47.578125 
Q 36.03125 48 33.890625 48 
Q 26.265625 48 22.1875 43.046875 
Q 18.109375 38.09375 18.109375 28.8125 
L 18.109375 0 
L 9.078125 0 
L 9.078125 54.6875 
L 18.109375 54.6875 
L 18.109375 46.1875 
Q 20.953125 51.171875 25.484375 53.578125 
Q 30.03125 56 36.53125 56 
Q 37.453125 56 38.578125 55.875 
Q 39.703125 55.765625 41.0625 55.515625 
z
" id="DejaVuSans-72"/>
     </defs>
     <g style="fill:#262626;" transform="translate(578.036172 382.564783)scale(0.11 -0.11)">
      <use xlink:href="#DejaVuSans-59"/>
      <use x="60.880859" xlink:href="#DejaVuSans-65"/>
      <use x="122.404297" xlink:href="#DejaVuSans-61"/>
      <use x="183.683594" xlink:href="#DejaVuSans-72"/>
     </g>
    </g>
   </g>
   <g id="matplotlib.axis_2">
    <g id="ytick_1">
     <g id="line2d_48">
      <path clip-path="url(#p019af9186f)" d="M 144 334.333142 
L 1036.8 334.333142 
" style="fill:none;stroke:#ffffff;stroke-linecap:round;stroke-width:0.8;"/>
     </g>
     <g id="line2d_49"/>
     <g id="text_6">
      <!-- 3000 -->
      <defs>
       <path d="M 40.578125 39.3125 
Q 47.65625 37.796875 51.625 33 
Q 55.609375 28.21875 55.609375 21.1875 
Q 55.609375 10.40625 48.1875 4.484375 
Q 40.765625 -1.421875 27.09375 -1.421875 
Q 22.515625 -1.421875 17.65625 -0.515625 
Q 12.796875 0.390625 7.625 2.203125 
L 7.625 11.71875 
Q 11.71875 9.328125 16.59375 8.109375 
Q 21.484375 6.890625 26.8125 6.890625 
Q 36.078125 6.890625 40.9375 10.546875 
Q 45.796875 14.203125 45.796875 21.1875 
Q 45.796875 27.640625 41.28125 31.265625 
Q 36.765625 34.90625 28.71875 34.90625 
L 20.21875 34.90625 
L 20.21875 43.015625 
L 29.109375 43.015625 
Q 36.375 43.015625 40.234375 45.921875 
Q 44.09375 48.828125 44.09375 54.296875 
Q 44.09375 59.90625 40.109375 62.90625 
Q 36.140625 65.921875 28.71875 65.921875 
Q 24.65625 65.921875 20.015625 65.03125 
Q 15.375 64.15625 9.8125 62.3125 
L 9.8125 71.09375 
Q 15.4375 72.65625 20.34375 73.4375 
Q 25.25 74.21875 29.59375 74.21875 
Q 40.828125 74.21875 47.359375 69.109375 
Q 53.90625 64.015625 53.90625 55.328125 
Q 53.90625 49.265625 50.4375 45.09375 
Q 46.96875 40.921875 40.578125 39.3125 
z
" id="DejaVuSans-33"/>
      </defs>
      <g style="fill:#262626;" transform="translate(115.05 338.132361)scale(0.1 -0.1)">
       <use xlink:href="#DejaVuSans-33"/>
       <use x="63.623047" xlink:href="#DejaVuSans-30"/>
       <use x="127.246094" xlink:href="#DejaVuSans-30"/>
       <use x="190.869141" xlink:href="#DejaVuSans-30"/>
      </g>
     </g>
    </g>
    <g id="ytick_2">
     <g id="line2d_50">
      <path clip-path="url(#p019af9186f)" d="M 144 294.065387 
L 1036.8 294.065387 
" style="fill:none;stroke:#ffffff;stroke-linecap:round;stroke-width:0.8;"/>
     </g>
     <g id="line2d_51"/>
     <g id="text_7">
      <!-- 4000 -->
      <defs>
       <path d="M 37.796875 64.3125 
L 12.890625 25.390625 
L 37.796875 25.390625 
z
M 35.203125 72.90625 
L 47.609375 72.90625 
L 47.609375 25.390625 
L 58.015625 25.390625 
L 58.015625 17.1875 
L 47.609375 17.1875 
L 47.609375 0 
L 37.796875 0 
L 37.796875 17.1875 
L 4.890625 17.1875 
L 4.890625 26.703125 
z
" id="DejaVuSans-34"/>
      </defs>
      <g style="fill:#262626;" transform="translate(115.05 297.864606)scale(0.1 -0.1)">
       <use xlink:href="#DejaVuSans-34"/>
       <use x="63.623047" xlink:href="#DejaVuSans-30"/>
       <use x="127.246094" xlink:href="#DejaVuSans-30"/>
       <use x="190.869141" xlink:href="#DejaVuSans-30"/>
      </g>
     </g>
    </g>
    <g id="ytick_3">
     <g id="line2d_52">
      <path clip-path="url(#p019af9186f)" d="M 144 253.797632 
L 1036.8 253.797632 
" style="fill:none;stroke:#ffffff;stroke-linecap:round;stroke-width:0.8;"/>
     </g>
     <g id="line2d_53"/>
     <g id="text_8">
      <!-- 5000 -->
      <g style="fill:#262626;" transform="translate(115.05 257.596851)scale(0.1 -0.1)">
       <use xlink:href="#DejaVuSans-35"/>
       <use x="63.623047" xlink:href="#DejaVuSans-30"/>
       <use x="127.246094" xlink:href="#DejaVuSans-30"/>
       <use x="190.869141" xlink:href="#DejaVuSans-30"/>
      </g>
     </g>
    </g>
    <g id="ytick_4">
     <g id="line2d_54">
      <path clip-path="url(#p019af9186f)" d="M 144 213.529876 
L 1036.8 213.529876 
" style="fill:none;stroke:#ffffff;stroke-linecap:round;stroke-width:0.8;"/>
     </g>
     <g id="line2d_55"/>
     <g id="text_9">
      <!-- 6000 -->
      <g style="fill:#262626;" transform="translate(115.05 217.329095)scale(0.1 -0.1)">
       <use xlink:href="#DejaVuSans-36"/>
       <use x="63.623047" xlink:href="#DejaVuSans-30"/>
       <use x="127.246094" xlink:href="#DejaVuSans-30"/>
       <use x="190.869141" xlink:href="#DejaVuSans-30"/>
      </g>
     </g>
    </g>
    <g id="ytick_5">
     <g id="line2d_56">
      <path clip-path="url(#p019af9186f)" d="M 144 173.262121 
L 1036.8 173.262121 
" style="fill:none;stroke:#ffffff;stroke-linecap:round;stroke-width:0.8;"/>
     </g>
     <g id="line2d_57"/>
     <g id="text_10">
      <!-- 7000 -->
      <g style="fill:#262626;" transform="translate(115.05 177.06134)scale(0.1 -0.1)">
       <use xlink:href="#DejaVuSans-37"/>
       <use x="63.623047" xlink:href="#DejaVuSans-30"/>
       <use x="127.246094" xlink:href="#DejaVuSans-30"/>
       <use x="190.869141" xlink:href="#DejaVuSans-30"/>
      </g>
     </g>
    </g>
    <g id="ytick_6">
     <g id="line2d_58">
      <path clip-path="url(#p019af9186f)" d="M 144 132.994366 
L 1036.8 132.994366 
" style="fill:none;stroke:#ffffff;stroke-linecap:round;stroke-width:0.8;"/>
     </g>
     <g id="line2d_59"/>
     <g id="text_11">
      <!-- 8000 -->
      <g style="fill:#262626;" transform="translate(115.05 136.793584)scale(0.1 -0.1)">
       <use xlink:href="#DejaVuSans-38"/>
       <use x="63.623047" xlink:href="#DejaVuSans-30"/>
       <use x="127.246094" xlink:href="#DejaVuSans-30"/>
       <use x="190.869141" xlink:href="#DejaVuSans-30"/>
      </g>
     </g>
    </g>
    <g id="ytick_7">
     <g id="line2d_60">
      <path clip-path="url(#p019af9186f)" d="M 144 92.72661 
L 1036.8 92.72661 
" style="fill:none;stroke:#ffffff;stroke-linecap:round;stroke-width:0.8;"/>
     </g>
     <g id="line2d_61"/>
     <g id="text_12">
      <!-- 9000 -->
      <defs>
       <path d="M 10.984375 1.515625 
L 10.984375 10.5 
Q 14.703125 8.734375 18.5 7.8125 
Q 22.3125 6.890625 25.984375 6.890625 
Q 35.75 6.890625 40.890625 13.453125 
Q 46.046875 20.015625 46.78125 33.40625 
Q 43.953125 29.203125 39.59375 26.953125 
Q 35.25 24.703125 29.984375 24.703125 
Q 19.046875 24.703125 12.671875 31.3125 
Q 6.296875 37.9375 6.296875 49.421875 
Q 6.296875 60.640625 12.9375 67.421875 
Q 19.578125 74.21875 30.609375 74.21875 
Q 43.265625 74.21875 49.921875 64.515625 
Q 56.59375 54.828125 56.59375 36.375 
Q 56.59375 19.140625 48.40625 8.859375 
Q 40.234375 -1.421875 26.421875 -1.421875 
Q 22.703125 -1.421875 18.890625 -0.6875 
Q 15.09375 0.046875 10.984375 1.515625 
z
M 30.609375 32.421875 
Q 37.25 32.421875 41.125 36.953125 
Q 45.015625 41.5 45.015625 49.421875 
Q 45.015625 57.28125 41.125 61.84375 
Q 37.25 66.40625 30.609375 66.40625 
Q 23.96875 66.40625 20.09375 61.84375 
Q 16.21875 57.28125 16.21875 49.421875 
Q 16.21875 41.5 20.09375 36.953125 
Q 23.96875 32.421875 30.609375 32.421875 
z
" id="DejaVuSans-39"/>
      </defs>
      <g style="fill:#262626;" transform="translate(115.05 96.525829)scale(0.1 -0.1)">
       <use xlink:href="#DejaVuSans-39"/>
       <use x="63.623047" xlink:href="#DejaVuSans-30"/>
       <use x="127.246094" xlink:href="#DejaVuSans-30"/>
       <use x="190.869141" xlink:href="#DejaVuSans-30"/>
      </g>
     </g>
    </g>
    <g id="ytick_8">
     <g id="line2d_62">
      <path clip-path="url(#p019af9186f)" d="M 144 52.458855 
L 1036.8 52.458855 
" style="fill:none;stroke:#ffffff;stroke-linecap:round;stroke-width:0.8;"/>
     </g>
     <g id="line2d_63"/>
     <g id="text_13">
      <!-- 10000 -->
      <g style="fill:#262626;" transform="translate(108.6875 56.258074)scale(0.1 -0.1)">
       <use xlink:href="#DejaVuSans-31"/>
       <use x="63.623047" xlink:href="#DejaVuSans-30"/>
       <use x="127.246094" xlink:href="#DejaVuSans-30"/>
       <use x="190.869141" xlink:href="#DejaVuSans-30"/>
       <use x="254.492188" xlink:href="#DejaVuSans-30"/>
      </g>
     </g>
    </g>
    <g id="text_14">
     <!-- Balance -->
     <defs>
      <path d="M 19.671875 34.8125 
L 19.671875 8.109375 
L 35.5 8.109375 
Q 43.453125 8.109375 47.28125 11.40625 
Q 51.125 14.703125 51.125 21.484375 
Q 51.125 28.328125 47.28125 31.5625 
Q 43.453125 34.8125 35.5 34.8125 
z
M 19.671875 64.796875 
L 19.671875 42.828125 
L 34.28125 42.828125 
Q 41.5 42.828125 45.03125 45.53125 
Q 48.578125 48.25 48.578125 53.8125 
Q 48.578125 59.328125 45.03125 62.0625 
Q 41.5 64.796875 34.28125 64.796875 
z
M 9.8125 72.90625 
L 35.015625 72.90625 
Q 46.296875 72.90625 52.390625 68.21875 
Q 58.5 63.53125 58.5 54.890625 
Q 58.5 48.1875 55.375 44.234375 
Q 52.25 40.28125 46.1875 39.3125 
Q 53.46875 37.75 57.5 32.78125 
Q 61.53125 27.828125 61.53125 20.40625 
Q 61.53125 10.640625 54.890625 5.3125 
Q 48.25 0 35.984375 0 
L 9.8125 0 
z
" id="DejaVuSans-42"/>
      <path d="M 9.421875 75.984375 
L 18.40625 75.984375 
L 18.40625 0 
L 9.421875 0 
z
" id="DejaVuSans-6c"/>
      <path d="M 54.890625 33.015625 
L 54.890625 0 
L 45.90625 0 
L 45.90625 32.71875 
Q 45.90625 40.484375 42.875 44.328125 
Q 39.84375 48.1875 33.796875 48.1875 
Q 26.515625 48.1875 22.3125 43.546875 
Q 18.109375 38.921875 18.109375 30.90625 
L 18.109375 0 
L 9.078125 0 
L 9.078125 54.6875 
L 18.109375 54.6875 
L 18.109375 46.1875 
Q 21.34375 51.125 25.703125 53.5625 
Q 30.078125 56 35.796875 56 
Q 45.21875 56 50.046875 50.171875 
Q 54.890625 44.34375 54.890625 33.015625 
z
" id="DejaVuSans-6e"/>
      <path d="M 48.78125 52.59375 
L 48.78125 44.1875 
Q 44.96875 46.296875 41.140625 47.34375 
Q 37.3125 48.390625 33.40625 48.390625 
Q 24.65625 48.390625 19.8125 42.84375 
Q 14.984375 37.3125 14.984375 27.296875 
Q 14.984375 17.28125 19.8125 11.734375 
Q 24.65625 6.203125 33.40625 6.203125 
Q 37.3125 6.203125 41.140625 7.25 
Q 44.96875 8.296875 48.78125 10.40625 
L 48.78125 2.09375 
Q 45.015625 0.34375 40.984375 -0.53125 
Q 36.96875 -1.421875 32.421875 -1.421875 
Q 20.0625 -1.421875 12.78125 6.34375 
Q 5.515625 14.109375 5.515625 27.296875 
Q 5.515625 40.671875 12.859375 48.328125 
Q 20.21875 56 33.015625 56 
Q 37.15625 56 41.109375 55.140625 
Q 45.0625 54.296875 48.78125 52.59375 
z
" id="DejaVuSans-63"/>
     </defs>
     <g style="fill:#262626;" transform="translate(102.399844 220.656406)rotate(-90)scale(0.11 -0.11)">
      <use xlink:href="#DejaVuSans-42"/>
      <use x="68.603516" xlink:href="#DejaVuSans-61"/>
      <use x="129.882812" xlink:href="#DejaVuSans-6c"/>
      <use x="157.666016" xlink:href="#DejaVuSans-61"/>
      <use x="218.945312" xlink:href="#DejaVuSans-6e"/>
      <use x="282.324219" xlink:href="#DejaVuSans-63"/>
      <use x="337.304688" xlink:href="#DejaVuSans-65"/>
     </g>
    </g>
   </g>
   <g id="line2d_64">
    <path clip-path="url(#p019af9186f)" d="M 184.581818 331.643256 
L 185.524241 332.247273 
L 187.211015 332.235595 
L 189.627615 262.073461 
L 189.872279 235.458488 
L 190.429136 274.899949 
L 190.705798 262.819622 
L 190.721256 274.899949 
L 190.760003 235.458488 
L 190.85127 196.017027 
L 191.720304 235.458488 
L 193.185262 229.598724 
L 193.224 235.458488 
L 200.206367 233.4451 
L 200.4448 230.484615 
L 200.53408 230.887292 
L 200.665183 230.484615 
L 204.767511 230.68394 
L 204.859997 230.555083 
L 206.131809 230.031603 
L 206.185245 227.338898 
L 206.517633 224.784311 
L 212.015143 224.381634 
L 212.048074 223.680169 
L 212.122076 197.606798 
L 212.389621 197.20412 
L 212.416167 196.056489 
L 212.705462 196.267492 
L 213.056929 196.056489 
L 214.692202 196.459167 
L 217.591018 196.630305 
L 221.683427 196.227627 
L 221.998688 191.261002 
L 222.344185 187.94455 
L 222.611764 188.347228 
L 223.352953 188.548566 
L 223.708093 189.152583 
L 225.597069 189.141308 
L 225.795209 189.012451 
L 226.091961 189.010035 
L 226.49868 193.03681 
L 227.005885 193.189828 
L 227.167603 193.360966 
L 227.266535 193.207948 
L 234.414111 194.013303 
L 234.439214 194.214642 
L 234.682201 197.234724 
L 234.95958 197.83874 
L 240.708208 193.811965 
L 243.060475 195.825352 
L 248.77141 198.059407 
L 249.127164 198.037663 
L 249.148611 197.894712 
L 250.131742 198.269605 
L 251.092527 200.282993 
L 252.14457 200.887009 
L 252.19277 201.087945 
L 252.506977 201.490623 
L 253.091961 211.557562 
L 253.582965 212.362917 
L 255.891024 212.769621 
L 257.456503 213.493635 
L 258.529026 209.507128 
L 258.893516 213.493635 
L 260.031175 213.574171 
L 263.442632 215.587559 
L 270.388326 217.295314 
L 271.222796 217.292495 
L 271.46218 217.153974 
L 272.857818 218.345497 
L 274.037447 218.642271 
L 274.7678 219.730305 
L 275.964331 223.157897 
L 276.575066 224.92404 
L 276.624009 226.173549 
L 277.217461 226.382539 
L 278.297554 230.909037 
L 279.402195 230.994807 
L 279.734981 232.44042 
L 280.026133 233.033966 
L 281.045842 233.356108 
L 281.922877 234.361594 
L 283.168999 233.757578 
L 283.258141 234.361594 
L 283.554262 234.965611 
L 286.547914 235.609895 
L 287.952833 227.556344 
L 292.29744 227.93929 
L 294.527056 227.793521 
L 296.32428 234.56092 
L 299.727537 235.326007 
L 302.616692 234.117974 
L 303.353984 231.701909 
L 303.612326 230.091199 
L 303.637619 227.675134 
L 305.380283 229.406647 
L 307.035855 229.809325 
L 315.265329 232.406192 
L 316.710265 232.386058 
L 316.923363 232.247537 
L 339.72899 232.104184 
L 339.914643 235.325604 
L 340.284248 235.323994 
L 347.073928 299.752402 
L 347.209308 235.323994 
L 347.347159 65.192727 
L 347.54975 235.323994 
L 350.13683 218.411536 
L 352.331795 216.398149 
L 352.870981 201.499079 
L 352.872001 204.516342 
L 352.906038 207.294817 
L 354.130332 208.084065 
L 358.726145 219.799969 
L 359.712196 220.419689 
L 359.808458 221.09055 
L 360.020899 209.374647 
L 360.205809 221.09055 
L 360.518772 227.251517 
L 360.54365 233.412483 
L 361.2145 233.609393 
L 362.064325 236.433773 
L 363.064703 236.412431 
L 363.06943 236.268675 
L 363.283141 236.266259 
L 363.397135 236.787727 
L 370.526962 237.304765 
L 371.482778 236.331493 
L 371.584709 230.29133 
L 371.775106 228.519548 
L 371.99624 228.888804 
L 372.882349 229.694964 
L 376.868835 227.128297 
L 377.613429 227.732314 
L 378.387747 234.779171 
L 381.581898 236.188542 
L 385.277292 236.442229 
L 385.7284 236.283574 
L 386.14961 235.317148 
L 391.204929 235.511239 
L 391.564554 235.686403 
L 392.055367 235.789086 
L 396.878622 229.467451 
L 398.919585 229.785969 
L 406.658376 230.355355 
L 407.498047 223.891978 
L 408.084578 224.225798 
L 408.309488 224.222979 
L 408.394974 224.079223 
L 412.321664 224.413848 
L 413.292438 224.769412 
L 416.838117 225.34806 
L 417.801848 225.791005 
L 417.996385 227.542653 
L 418.1662 221.150146 
L 418.247988 221.989326 
L 419.231896 223.889964 
L 420.509757 224.195597 
L 426.020193 224.817331 
L 429.010587 219.84225 
L 430.272151 220.346402 
L 430.679224 220.207076 
L 431.139491 211.146831 
L 431.297105 211.388034 
L 431.50443 211.568031 
L 432.053917 211.645345 
L 432.394133 212.026681 
L 434.093143 212.155135 
L 435.872109 214.168523 
L 437.421767 214.343688 
L 437.76188 214.557912 
L 438.320413 215.524338 
L 438.889092 207.867827 
L 439.498236 208.012389 
L 446.817701 209.220421 
L 448.73177 205.388139 
L 451.55438 205.905177 
L 452.864472 206.485838 
L 454.005216 206.337653 
L 456.812134 201.304183 
L 456.86615 203.317571 
L 456.963068 202.814224 
L 457.216511 202.799728 
L 457.471302 202.296381 
L 458.130997 211.557964 
L 459.43638 221.624903 
L 459.803652 219.692051 
L 463.782102 221.785974 
L 465.082213 212.524391 
L 465.432834 221.785974 
L 467.68394 224.772634 
L 470.13825 215.312127 
L 470.437603 218.328182 
L 474.675208 218.618513 
L 474.861371 220.288014 
L 474.932133 222.019527 
L 475.544259 223.831576 
L 475.750902 222.019527 
L 476.292041 222.623544 
L 477.652148 222.475358 
L 477.663934 225.922278 
L 480.610604 222.700858 
L 482.7002 223.828355 
L 483.501228 225.841743 
L 487.167269 226.509382 
L 487.229268 227.102123 
L 487.539215 225.648055 
L 490.00494 226.326164 
L 490.089217 224.387271 
L 491.632436 220.419689 
L 493.369804 221.225044 
L 494.534907 221.546381 
L 498.622771 221.790806 
L 498.733014 221.655909 
L 498.934213 221.631346 
L 500.706689 224.047411 
L 501.758214 222.436701 
L 503.117897 223.242056 
L 505.888583 223.530776 
L 506.609189 224.134792 
L 512.635783 222.524082 
L 514.314997 222.673476 
L 514.980101 223.076153 
L 517.958622 225.999592 
L 518.51293 226.16469 
L 519.747499 228.178078 
L 521.096269 228.387067 
L 522.020977 228.372571 
L 522.337318 228.22801 
L 523.023014 219.205214 
L 528.51387 219.763325 
L 528.527013 220.166002 
L 528.88306 217.749937 
L 529.050205 220.166002 
L 530.245327 220.770019 
L 531.72049 221.035383 
L 535.340145 223.451449 
L 536.342355 224.986053 
L 537.08688 225.405643 
L 537.999032 225.762415 
L 540.429398 226.02778 
L 543.19362 226.592736 
L 543.3985 224.096135 
L 544.152556 224.092109 
L 544.155571 224.434787 
L 544.46786 224.294655 
L 545.797395 226.728841 
L 546.39286 226.869778 
L 546.855668 227.122257 
L 548.347681 227.524935 
L 548.82142 228.817127 
L 549.315984 231.343123 
L 550.163069 233.023497 
L 552.163921 233.367383 
L 552.986915 235.541842 
L 553.074674 236.489745 
L 557.660298 237.150942 
L 563.044013 237.754958 
L 566.77074 239.768346 
L 567.307386 240.526588 
L 567.321237 241.368184 
L 567.973916 241.36456 
L 568.026635 241.219998 
L 570.486674 240.461757 
L 572.00582 241.323487 
L 575.363814 242.441319 
L 575.58455 243.000236 
L 576.372764 243.467744 
L 576.375832 244.275113 
L 576.848853 250.073267 
L 578.993328 250.228298 
L 579.300243 250.719565 
L 582.272291 250.793657 
L 583.13487 251.599012 
L 584.841752 252.162761 
L 588.539272 252.433763 
L 589.411737 247.198955 
L 589.726229 247.058823 
L 590.221562 247.045937 
L 590.548687 246.600979 
L 590.749938 230.806354 
L 590.947378 225.554634 
L 591.961038 226.561327 
L 595.500063 228.499817 
L 596.407411 226.561327 
L 596.584087 230.007845 
L 598.108797 230.090796 
L 598.747417 230.419784 
L 598.765416 218.665223 
L 598.828384 230.419784 
L 599.854184 230.55911 
L 600.998194 225.234908 
L 601.511121 198.307457 
L 601.757858 198.589331 
L 601.882125 199.193347 
L 601.953276 204.51755 
L 603.41508 204.718889 
L 610.006827 184.585011 
L 610.687623 224.852767 
L 610.81794 204.718889 
L 611.019614 224.852767 
L 611.409007 223.483663 
L 611.606127 223.716008 
L 611.791496 222.346904 
L 611.857134 220.9778 
L 611.891603 197.916054 
L 612.239303 198.51846 
L 612.568537 199.822732 
L 612.708894 199.903268 
L 612.819776 202.097458 
L 612.938315 202.902813 
L 613.131408 202.748588 
L 613.380928 202.97006 
L 615.528082 223.103938 
L 616.374502 223.336283 
L 616.952513 223.333867 
L 617.105019 188.216357 
L 617.194576 222.329589 
L 617.350236 222.663409 
L 617.389035 224.676796 
L 619.103348 225.731409 
L 619.611487 191.618177 
L 620.009443 225.731409 
L 621.107353 226.469517 
L 621.802788 215.729704 
L 621.833498 208.038563 
L 621.993099 206.83053 
L 622.381896 206.900193 
L 622.463563 207.601255 
L 622.810105 210.616907 
L 622.90679 215.247296 
L 623.861077 218.267378 
L 623.905397 217.406453 
L 623.965444 219.819297 
L 624.034849 139.283786 
L 624.356582 139.40459 
L 624.402907 138.035486 
L 624.473877 218.570997 
L 625.686108 219.9401 
L 625.755634 220.755522 
L 626.103144 220.75673 
L 626.257967 221.074846 
L 627.707569 235.16856 
L 628.822113 237.340603 
L 630.126623 230.293746 
L 630.704582 244.38746 
L 631.100707 244.59645 
L 631.614315 251.988804 
L 632.469791 252.526379 
L 632.586895 231.115611 
L 632.588693 223.988218 
L 633.303215 216.860825 
L 633.493457 224.459753 
L 636.598406 224.336131 
L 637.937912 201.984306 
L 658.649191 201.843368 
L 677.146191 202.044707 
L 677.408785 202.648724 
L 677.784785 195.077178 
L 677.860956 206.751605 
L 678.071997 205.217001 
L 678.216416 208.398154 
L 679.657774 208.888615 
L 679.962407 209.291292 
L 681.266813 209.411693 
L 681.539578 222.498714 
L 681.768324 222.903404 
L 681.880615 222.75683 
L 682.152559 222.752803 
L 685.041472 223.218298 
L 686.051744 223.502186 
L 687.220356 223.703525 
L 688.114587 224.307541 
L 689.364019 221.086121 
L 690.630084 221.515778 
L 691.277068 222.32073 
L 692.971611 222.522069 
L 694.003451 222.642872 
L 694.14151 222.522069 
L 694.165558 222.787433 
L 694.457618 222.948504 
L 694.636981 222.827701 
L 695.610166 223.98097 
L 696.937713 224.277743 
L 696.990916 225.485776 
L 697.372532 226.009256 
L 697.393668 222.626765 
L 697.691457 210.409125 
L 697.799099 196.355679 
L 697.823666 204.977408 
L 697.909852 204.735801 
L 697.933287 204.968549 
L 699.13991 205.210155 
L 703.769829 205.451762 
L 704.199377 205.989337 
L 704.200976 205.984907 
L 704.315349 205.840749 
L 704.338706 206.279264 
L 704.869277 206.601004 
L 705.044285 219.688024 
L 707.807566 220.133386 
L 707.969344 220.447474 
L 708.404664 220.568277 
L 708.648991 223.461113 
L 709.54769 223.693861 
L 710.479553 224.343782 
L 710.654207 214.548651 
L 710.694154 214.716567 
L 710.831038 214.960187 
L 710.878114 228.047208 
L 711.00341 225.631142 
L 711.103431 210.001213 
L 711.21656 212.417278 
L 712.234626 214.350131 
L 713.856532 214.591737 
L 714.317698 214.771734 
L 714.380285 215.012132 
L 714.968587 215.132936 
L 715.421518 215.782857 
L 716.029885 216.298285 
L 716.321721 209.649675 
L 716.385561 204.89808 
L 719.600494 206.911468 
L 720.911657 207.234013 
L 721.738488 206.267587 
L 722.458938 212.913377 
L 723.654907 213.143306 
L 725.098202 213.545581 
L 726.752589 201.433845 
L 727.412837 201.42096 
L 727.619203 201.266332 
L 729.313884 204.480906 
L 729.807489 205.045058 
L 730.671537 249.250597 
L 731.028673 293.456136 
L 731.466966 249.250597 
L 732.180054 246.995603 
L 732.442216 247.124459 
L 733.979439 245.473481 
L 734.206863 201.267942 
L 734.249187 245.473481 
L 734.309615 243.782236 
L 735.168037 244.829197 
L 736.102562 245.057515 
L 736.784032 245.299122 
L 737.021515 237.762609 
L 737.454805 238.165286 
L 737.481618 237.158593 
L 738.182609 237.279396 
L 738.57507 240.098139 
L 738.634857 240.500816 
L 739.118749 240.62162 
L 739.345491 243.448416 
L 740.693829 243.690022 
L 741.620983 243.810826 
L 741.809038 244.150686 
L 742.380093 244.348803 
L 742.5932 244.933893 
L 742.817427 245.054697 
L 743.099014 244.048003 
L 743.241972 244.223973 
L 744.69338 245.489991 
L 745.253634 245.610794 
L 745.456138 246.2132 
L 745.847553 246.334003 
L 745.854025 245.327309 
L 746.127628 243.313922 
L 746.303629 248.347391 
L 746.580446 248.932482 
L 746.804 248.851946 
L 746.954225 248.972749 
L 747.274481 249.979443 
L 747.456583 240.494373 
L 747.488261 241.299729 
L 747.570818 242.588297 
L 747.809295 242.674067 
L 747.818325 237.761401 
L 747.957507 237.882204 
L 748.247571 239.090237 
L 748.382493 238.083543 
L 748.510519 238.852254 
L 748.849172 239.254529 
L 749.328302 239.576671 
L 750.653646 239.451439 
L 750.667351 239.98096 
L 751.722246 240.343369 
L 753.38199 240.584976 
L 753.982278 240.990069 
L 757.331164 241.473283 
L 757.650478 242.075688 
L 757.885775 219.686816 
L 758.005705 219.807619 
L 758.17418 206.491475 
L 758.492336 207.296831 
L 758.577503 208.661102 
L 759.128277 209.073444 
L 760.107536 212.214329 
L 760.340301 212.645194 
L 760.366233 217.678663 
L 760.57158 210.631806 
L 760.9456 211.062268 
L 761.135212 212.974181 
L 761.656554 213.094985 
L 761.78045 213.40867 
L 762.45906 213.529474 
L 762.994548 210.630195 
L 763.04789 210.750999 
L 763.965486 210.871802 
L 766.022522 211.418235 
L 766.786005 211.403336 
L 767.445605 211.725478 
L 767.935632 211.740377 
L 768.15 213.753765 
L 768.293356 216.206474 
L 768.477385 216.327277 
L 768.701664 183.268658 
L 768.831963 195.67918 
L 768.991867 196.081858 
L 769.490595 195.075164 
L 769.854955 197.088552 
L 770.661739 197.209355 
L 770.780035 202.242825 
L 771.138381 202.237187 
L 771.466595 202.35799 
L 772.095035 202.438526 
L 772.191928 202.997442 
L 772.61929 203.118246 
L 772.631975 199.574683 
L 772.837849 236.221159 
L 773.096623 168.688912 
L 773.113534 199.574683 
L 773.225142 200.133197 
L 774.759488 200.374803 
L 775.737693 200.858016 
L 776.657407 200.97882 
L 776.750402 202.046721 
L 776.897905 200.033333 
L 777.528748 200.234672 
L 777.983156 200.435608 
L 778.004543 210.502547 
L 778.241335 210.62335 
L 778.905799 197.667602 
L 779.168981 197.788405 
L 779.753421 198.196721 
L 780.170889 199.879913 
L 780.899021 200.323261 
L 781.025103 202.251281 
L 781.067617 201.244587 
L 781.314433 204.22279 
L 781.49561 204.22722 
L 781.5503 206.039269 
L 781.766975 206.160072 
L 782.547118 207.487297 
L 784.185459 208.054267 
L 784.609831 213.087736 
L 786.137989 213.960339 
L 786.329225 215.893191 
L 786.346464 215.73212 
L 786.567382 215.128104 
L 786.660766 215.933459 
L 786.684045 226.000398 
L 787.034597 226.121201 
L 788.576149 226.242004 
L 789.124953 227.57084 
L 789.360163 225.637988 
L 789.63482 214.124631 
L 789.93858 224.19157 
L 790.124476 214.124631 
L 790.189361 224.19157 
L 791.201613 224.357473 
L 791.480348 224.679615 
L 793.563791 225.699195 
L 794.341618 225.678256 
L 794.711897 226.142945 
L 795.62933 228.723706 
L 797.086528 229.467451 
L 797.08664 229.789593 
L 797.423997 229.910397 
L 798.040503 230.555889 
L 799.237743 232.178277 
L 799.68364 234.191664 
L 799.706332 236.205052 
L 799.761315 234.191664 
L 799.926964 223.579903 
L 799.952957 224.593845 
L 800.090696 224.111034 
L 800.381364 229.727581 
L 800.593296 230.226096 
L 800.694586 232.880949 
L 801.687853 233.272754 
L 804.386507 233.514361 
L 804.7387 234.118377 
L 804.853195 236.358875 
L 805.042728 237.365569 
L 805.795436 237.486372 
L 806.452832 238.533334 
L 807.328692 239.13735 
L 808.070555 239.43815 
L 808.150952 242.25649 
L 808.32615 242.330986 
L 809.71275 242.451789 
L 809.98586 241.445095 
L 810.202276 244.029882 
L 810.612157 231.690231 
L 812.393059 232.361495 
L 812.413322 233.368189 
L 812.77827 233.811134 
L 812.81216 234.213812 
L 812.946814 234.334615 
L 814.622018 235.142789 
L 814.868548 235.592982 
L 815.58708 235.713786 
L 815.643454 236.298876 
L 817.007968 236.294044 
L 818.074917 236.616186 
L 818.112411 237.179934 
L 818.782717 237.554022 
L 819.104494 238.401255 
L 819.74631 238.602594 
L 819.99157 240.671954 
L 820.335978 240.792757 
L 820.687385 231.081786 
L 820.758069 231.381378 
L 820.787146 231.502181 
L 821.068474 230.580049 
L 821.521629 233.660935 
L 821.724902 233.982675 
L 821.825925 231.403928 
L 822.639596 229.529866 
L 822.692125 231.265407 
L 822.875955 231.426478 
L 822.922185 230.419784 
L 823.027416 231.022189 
L 823.192055 230.015495 
L 823.195848 232.028883 
L 823.742941 232.214518 
L 824.899585 232.335321 
L 825.90933 234.348709 
L 826.083724 230.805146 
L 826.298213 230.925949 
L 828.607871 231.126885 
L 830.558795 231.729291 
L 830.862131 230.923936 
L 831.108687 220.492171 
L 831.18339 222.908237 
L 831.204742 228.9484 
L 831.713295 226.045095 
L 831.875359 226.528308 
L 832.148988 225.924291 
L 832.277247 226.407505 
L 832.319632 227.21286 
L 833.430676 227.738757 
L 833.525797 228.040765 
L 834.000746 228.746658 
L 834.756979 229.296313 
L 834.938191 230.302605 
L 836.387422 230.544211 
L 837.375841 231.387418 
L 839.620967 231.508221 
L 839.642242 231.790095 
L 840.164535 232.273308 
L 840.361431 232.716254 
L 840.495566 232.711422 
L 840.853316 233.227654 
L 841.684311 222.79589 
L 841.746847 223.345544 
L 843.987895 225.842145 
L 845.054412 224.070364 
L 845.219033 222.620725 
L 845.38235 230.645686 
L 847.476776 233.061751 
L 852.281322 208.384463 
L 852.462828 212.813916 
L 862.355288 212.809084 
L 862.554568 184.256829 
L 862.822952 184.251594 
L 864.890884 186.264982 
L 867.648228 186.55491 
L 867.967542 187.045371 
L 867.973323 187.475431 
L 868.221979 188.565479 
L 868.414597 189.771498 
L 868.48128 185.543384 
L 868.493922 186.026597 
L 868.676206 188.517157 
L 870.663431 189.19285 
L 871.523685 191.206238 
L 871.727451 192.185147 
L 871.801764 194.399874 
L 872.054239 194.520677 
L 872.241431 196.028302 
L 872.786407 167.813088 
L 872.817281 167.933892 
L 875.374887 168.376837 
L 877.884344 168.618444 
L 879.942486 169.423396 
L 880.70329 170.641093 
L 882.787252 171.545909 
L 883.221267 145.688776 
L 884.455093 146.074541 
L 884.786876 146.718825 
L 885.674558 146.409166 
L 885.70131 147.045799 
L 885.744818 147.038551 
L 885.874374 147.791155 
L 886.955503 148.376246 
L 889.082783 149.072072 
L 889.378143 149.44012 
L 889.548451 169.573997 
L 891.093044 170.750621 
L 891.222954 171.193566 
L 893.994962 191.327444 
L 894.058932 162.77519 
L 894.698312 163.809265 
L 894.928122 165.449774 
L 895.250106 166.05379 
L 895.467809 166.859145 
L 896.398618 218.675693 
L 896.859412 218.997835 
L 897.305699 219.755674 
L 899.367392 220.547741 
L 899.560883 221.151757 
L 901.832832 221.453363 
L 901.967131 221.835504 
L 902.276508 221.956307 
L 902.303364 222.816829 
L 902.491965 223.1885 
L 903.32964 226.407907 
L 903.544017 226.568978 
L 903.880768 227.414601 
L 903.892693 198.862347 
L 904.069205 199.939106 
L 904.129312 198.328396 
L 904.336905 197.72438 
L 904.787935 200.528224 
L 905.103205 201.389954 
L 906.028181 231.49453 
L 906.560515 232.019622 
L 906.953089 233.025913 
L 907.765912 233.086314 
L 907.767891 233.68872 
L 908.46845 233.912609 
L 908.966824 233.910193 
L 909.157775 234.353138 
L 909.228856 235.024804 
L 909.505501 234.541591 
L 909.708143 235.088025 
L 910.822912 237.101412 
L 912.498694 239.557745 
L 913.810013 240.253572 
L 914.202509 240.65625 
L 914.342693 250.723189 
L 914.482946 230.589311 
L 914.516431 231.448222 
L 914.836436 202.895968 
L 919.037895 203.800784 
L 919.472801 204.679426 
L 921.028991 224.813304 
L 925.373814 213.480347 
L 926.033423 214.084363 
L 927.584869 214.406505 
L 929.471848 213.117937 
L 929.67767 213.238741 
L 929.7721 209.413304 
L 930.567538 209.443907 
L 930.633582 209.817592 
L 930.811839 210.139734 
L 931.0658 210.132486 
L 932.219799 210.535163 
L 932.483569 210.937841 
L 934.151021 212.054063 
L 934.895364 212.174866 
L 935.454408 200.300711 
L 935.514835 200.723925 
L 936.54684 200.965531 
L 939.240041 201.228882 
L 940.452134 201.108079 
L 940.483933 201.261097 
L 941.412893 201.743907 
L 943.529769 202.328998 
L 943.779729 202.208194 
L 943.986882 203.058649 
L 944.616817 203.300256 
L 944.793726 203.179453 
L 944.844717 203.435958 
L 945.025895 205.128412 
L 945.57558 205.249215 
L 945.782223 205.128412 
L 946.300057 193.615055 
L 946.96186 194.092631 
L 948.057368 194.42484 
L 950.03011 194.749801 
L 950.719505 195.334891 
L 951.521147 195.659047 
L 954.377811 195.656631 
L 954.480234 196.129777 
L 956.145181 196.564266 
L 956.363316 197.631764 
L 956.923483 197.732031 
L 956.957123 198.574432 
L 956.995731 189.494456 
L 960.792969 189.580226 
L 961.763873 190.165317 
L 962.518819 135.354056 
L 962.867987 135.632709 
L 964.517009 134.827354 
L 964.55865 135.310164 
L 964.940638 135.588817 
L 965.346138 136.260081 
L 966.298852 136.544371 
L 966.969694 127.374598 
L 967.19425 127.597278 
L 967.346713 128.187604 
L 969.906695 128.60518 
L 972.854212 130.215891 
L 973.065175 132.631956 
L 973.15251 128.0817 
L 973.241289 128.727594 
L 973.8172 129.153225 
L 974.371232 129.640464 
L 975.409363 130.928227 
L 975.515328 131.258423 
L 975.960941 131.231041 
L 976.675273 131.472647 
L 976.916368 132.143911 
L 977.136932 132.141495 
L 977.392639 126.535418 
L 977.400822 127.134199 
L 977.660737 127.255003 
L 977.66714 127.853784 
L 979.458082 128.095391 
L 980.171931 129.008261 
L 981.710994 129.37067 
L 981.891005 129.700866 
L 982.218883 129.711738 
L 982.815178 109.441353 
L 983.129307 109.562156 
L 984.112982 110.367511 
L 984.816626 110.488315 
L 985.061506 113.105719 
L 985.383585 113.492692 
L 986.120539 113.712554 
L 986.52286 114.195364 
L 986.774981 114.316167 
L 987.286075 112.30278 
L 987.321425 112.423583 
L 987.836607 110.812873 
L 988.348911 102.712611 
L 991.179341 102.954218 
L 991.783768 103.676218 
L 992.576786 103.797022 
L 993.222603 96.146148 
L 993.405889 95.743471 
L 993.408879 95.824006 
L 993.410495 98.713218 
L 993.473056 94.525371 
L 993.474119 94.955431 
L 996.218182 95.076234 
L 996.218182 95.076234 
" style="fill:none;stroke:#1f77b4;stroke-linecap:round;stroke-width:1.5;"/>
   </g>
   <g id="patch_3">
    <path d="M 144 345.6 
L 144 51.84 
" style="fill:none;"/>
   </g>
   <g id="patch_4">
    <path d="M 1036.8 345.6 
L 1036.8 51.84 
" style="fill:none;"/>
   </g>
   <g id="patch_5">
    <path d="M 144 345.6 
L 1036.8 345.6 
" style="fill:none;"/>
   </g>
   <g id="patch_6">
    <path d="M 144 51.84 
L 1036.8 51.84 
" style="fill:none;"/>
   </g>
   <g id="text_15">
    <!-- Balance over Time -->
    <defs>
     <path id="DejaVuSans-20"/>
     <path d="M 30.609375 48.390625 
Q 23.390625 48.390625 19.1875 42.75 
Q 14.984375 37.109375 14.984375 27.296875 
Q 14.984375 17.484375 19.15625 11.84375 
Q 23.34375 6.203125 30.609375 6.203125 
Q 37.796875 6.203125 41.984375 11.859375 
Q 46.1875 17.53125 46.1875 27.296875 
Q 46.1875 37.015625 41.984375 42.703125 
Q 37.796875 48.390625 30.609375 48.390625 
z
M 30.609375 56 
Q 42.328125 56 49.015625 48.375 
Q 55.71875 40.765625 55.71875 27.296875 
Q 55.71875 13.875 49.015625 6.21875 
Q 42.328125 -1.421875 30.609375 -1.421875 
Q 18.84375 -1.421875 12.171875 6.21875 
Q 5.515625 13.875 5.515625 27.296875 
Q 5.515625 40.765625 12.171875 48.375 
Q 18.84375 56 30.609375 56 
z
" id="DejaVuSans-6f"/>
     <path d="M 2.984375 54.6875 
L 12.5 54.6875 
L 29.59375 8.796875 
L 46.6875 54.6875 
L 56.203125 54.6875 
L 35.6875 0 
L 23.484375 0 
z
" id="DejaVuSans-76"/>
     <path d="M -0.296875 72.90625 
L 61.375 72.90625 
L 61.375 64.59375 
L 35.5 64.59375 
L 35.5 0 
L 25.59375 0 
L 25.59375 64.59375 
L -0.296875 64.59375 
z
" id="DejaVuSans-54"/>
     <path d="M 9.421875 54.6875 
L 18.40625 54.6875 
L 18.40625 0 
L 9.421875 0 
z
M 9.421875 75.984375 
L 18.40625 75.984375 
L 18.40625 64.59375 
L 9.421875 64.59375 
z
" id="DejaVuSans-69"/>
     <path d="M 52 44.1875 
Q 55.375 50.25 60.0625 53.125 
Q 64.75 56 71.09375 56 
Q 79.640625 56 84.28125 50.015625 
Q 88.921875 44.046875 88.921875 33.015625 
L 88.921875 0 
L 79.890625 0 
L 79.890625 32.71875 
Q 79.890625 40.578125 77.09375 44.375 
Q 74.3125 48.1875 68.609375 48.1875 
Q 61.625 48.1875 57.5625 43.546875 
Q 53.515625 38.921875 53.515625 30.90625 
L 53.515625 0 
L 44.484375 0 
L 44.484375 32.71875 
Q 44.484375 40.625 41.703125 44.40625 
Q 38.921875 48.1875 33.109375 48.1875 
Q 26.21875 48.1875 22.15625 43.53125 
Q 18.109375 38.875 18.109375 30.90625 
L 18.109375 0 
L 9.078125 0 
L 9.078125 54.6875 
L 18.109375 54.6875 
L 18.109375 46.1875 
Q 21.1875 51.21875 25.484375 53.609375 
Q 29.78125 56 35.6875 56 
Q 41.65625 56 45.828125 52.96875 
Q 50 49.953125 52 44.1875 
z
" id="DejaVuSans-6d"/>
    </defs>
    <g style="fill:#262626;" transform="translate(539.075547 45.84)scale(0.11 -0.11)">
     <use xlink:href="#DejaVuSans-42"/>
     <use x="68.603516" xlink:href="#DejaVuSans-61"/>
     <use x="129.882812" xlink:href="#DejaVuSans-6c"/>
     <use x="157.666016" xlink:href="#DejaVuSans-61"/>
     <use x="218.945312" xlink:href="#DejaVuSans-6e"/>
     <use x="282.324219" xlink:href="#DejaVuSans-63"/>
     <use x="337.304688" xlink:href="#DejaVuSans-65"/>
     <use x="398.828125" xlink:href="#DejaVuSans-20"/>
     <use x="430.615234" xlink:href="#DejaVuSans-6f"/>
     <use x="491.796875" xlink:href="#DejaVuSans-76"/>
     <use x="550.976562" xlink:href="#DejaVuSans-65"/>
     <use x="612.5" xlink:href="#DejaVuSans-72"/>
     <use x="653.613281" xlink:href="#DejaVuSans-20"/>
     <use x="685.400391" xlink:href="#DejaVuSans-54"/>
     <use x="746.4375" xlink:href="#DejaVuSans-69"/>
     <use x="774.220703" xlink:href="#DejaVuSans-6d"/>
     <use x="871.632812" xlink:href="#DejaVuSans-65"/>
    </g>
   </g>
   <g id="legend_1">
    <g id="line2d_65">
     <path d="M 959.915625 64.938438 
L 979.915625 64.938438 
" style="fill:none;stroke:#1f77b4;stroke-linecap:round;stroke-width:1.5;"/>
    </g>
    <g id="line2d_66"/>
    <g id="text_16">
     <!-- Balance -->
     <g style="fill:#262626;" transform="translate(987.915625 68.438438)scale(0.1 -0.1)">
      <use xlink:href="#DejaVuSans-42"/>
      <use x="68.603516" xlink:href="#DejaVuSans-61"/>
      <use x="129.882812" xlink:href="#DejaVuSans-6c"/>
      <use x="157.666016" xlink:href="#DejaVuSans-61"/>
      <use x="218.945312" xlink:href="#DejaVuSans-6e"/>
      <use x="282.324219" xlink:href="#DejaVuSans-63"/>
      <use x="337.304688" xlink:href="#DejaVuSans-65"/>
     </g>
    </g>
   </g>
  </g>
 </g>
 <defs>
  <clipPath id="p019af9186f">
   <rect height="293.76" width="892.8" x="144" y="51.84"/>
  </clipPath>
 </defs>
</svg>
