<?xml version="1.0" encoding="utf-8" standalone="no"?>
<!DOCTYPE svg PUBLIC "-//W3C//DTD SVG 1.1//EN"
  "http://www.w3.org/Graphics/SVG/1.1/DTD/svg11.dtd">
<!-- Created with matplotlib (http://matplotlib.org/) -->
<svg height="432pt" version="1.1" viewBox="0 0 1152 432" width="1152pt" xmlns="http://www.w3.org/2000/svg" xmlns:xlink="http://www.w3.org/1999/xlink">
 <defs>
  <style type="text/css">
*{stroke-linecap:butt;stroke-linejoin:round;}
  </style>
 </defs>
 <g id="figure_1">
  <g id="patch_1">
   <path d="M 0 432 
L 1152 432 
L 1152 0 
L 0 0 
z
" style="fill:#ffffff;"/>
  </g>
  <g id="axes_1">
   <g id="patch_2">
    <path d="M 144 345.6 
L 1036.8 345.6 
L 1036.8 51.84 
L 144 51.84 
z
" style="fill:#eaeaf2;"/>
   </g>
   <g id="matplotlib.axis_1">
    <g id="xtick_1">
     <g id="line2d_1">
      <path clip-path="url(#p18bae9a1da)" d="M 246.931609 345.6 
L 246.931609 51.84 
" style="fill:none;stroke:#ffffff;stroke-linecap:round;stroke-width:0.8;"/>
     </g>
     <g id="line2d_2"/>
     <g id="text_1">
      <!-- 2013 -->
      <defs>
       <path d="M 19.1875 8.296875 
L 53.609375 8.296875 
L 53.609375 0 
L 7.328125 0 
L 7.328125 8.296875 
Q 12.9375 14.109375 22.625 23.890625 
Q 32.328125 33.6875 34.8125 36.53125 
Q 39.546875 41.84375 41.421875 45.53125 
Q 43.3125 49.21875 43.3125 52.78125 
Q 43.3125 58.59375 39.234375 62.25 
Q 35.15625 65.921875 28.609375 65.921875 
Q 23.96875 65.921875 18.8125 64.3125 
Q 13.671875 62.703125 7.8125 59.421875 
L 7.8125 69.390625 
Q 13.765625 71.78125 18.9375 73 
Q 24.125 74.21875 28.421875 74.21875 
Q 39.75 74.21875 46.484375 68.546875 
Q 53.21875 62.890625 53.21875 53.421875 
Q 53.21875 48.921875 51.53125 44.890625 
Q 49.859375 40.875 45.40625 35.40625 
Q 44.1875 33.984375 37.640625 27.21875 
Q 31.109375 20.453125 19.1875 8.296875 
z
" id="DejaVuSans-32"/>
       <path d="M 31.78125 66.40625 
Q 24.171875 66.40625 20.328125 58.90625 
Q 16.5 51.421875 16.5 36.375 
Q 16.5 21.390625 20.328125 13.890625 
Q 24.171875 6.390625 31.78125 6.390625 
Q 39.453125 6.390625 43.28125 13.890625 
Q 47.125 21.390625 47.125 36.375 
Q 47.125 51.421875 43.28125 58.90625 
Q 39.453125 66.40625 31.78125 66.40625 
z
M 31.78125 74.21875 
Q 44.046875 74.21875 50.515625 64.515625 
Q 56.984375 54.828125 56.984375 36.375 
Q 56.984375 17.96875 50.515625 8.265625 
Q 44.046875 -1.421875 31.78125 -1.421875 
Q 19.53125 -1.421875 13.0625 8.265625 
Q 6.59375 17.96875 6.59375 36.375 
Q 6.59375 54.828125 13.0625 64.515625 
Q 19.53125 74.21875 31.78125 74.21875 
z
" id="DejaVuSans-30"/>
       <path d="M 12.40625 8.296875 
L 28.515625 8.296875 
L 28.515625 63.921875 
L 10.984375 60.40625 
L 10.984375 69.390625 
L 28.421875 72.90625 
L 38.28125 72.90625 
L 38.28125 8.296875 
L 54.390625 8.296875 
L 54.390625 0 
L 12.40625 0 
z
" id="DejaVuSans-31"/>
       <path d="M 40.578125 39.3125 
Q 47.65625 37.796875 51.625 33 
Q 55.609375 28.21875 55.609375 21.1875 
Q 55.609375 10.40625 48.1875 4.484375 
Q 40.765625 -1.421875 27.09375 -1.421875 
Q 22.515625 -1.421875 17.65625 -0.515625 
Q 12.796875 0.390625 7.625 2.203125 
L 7.625 11.71875 
Q 11.71875 9.328125 16.59375 8.109375 
Q 21.484375 6.890625 26.8125 6.890625 
Q 36.078125 6.890625 40.9375 10.546875 
Q 45.796875 14.203125 45.796875 21.1875 
Q 45.796875 27.640625 41.28125 31.265625 
Q 36.765625 34.90625 28.71875 34.90625 
L 20.21875 34.90625 
L 20.21875 43.015625 
L 29.109375 43.015625 
Q 36.375 43.015625 40.234375 45.921875 
Q 44.09375 48.828125 44.09375 54.296875 
Q 44.09375 59.90625 40.109375 62.90625 
Q 36.140625 65.921875 28.71875 65.921875 
Q 24.65625 65.921875 20.015625 65.03125 
Q 15.375 64.15625 9.8125 62.3125 
L 9.8125 71.09375 
Q 15.4375 72.65625 20.34375 73.4375 
Q 25.25 74.21875 29.59375 74.21875 
Q 40.828125 74.21875 47.359375 69.109375 
Q 53.90625 64.015625 53.90625 55.328125 
Q 53.90625 49.265625 50.4375 45.09375 
Q 46.96875 40.921875 40.578125 39.3125 
z
" id="DejaVuSans-33"/>
      </defs>
      <g style="fill:#262626;" transform="translate(223.851418 368.40544)rotate(-30)scale(0.1 -0.1)">
       <use xlink:href="#DejaVuSans-32"/>
       <use x="63.623047" xlink:href="#DejaVuSans-30"/>
       <use x="127.246094" xlink:href="#DejaVuSans-31"/>
       <use x="190.869141" xlink:href="#DejaVuSans-33"/>
      </g>
     </g>
    </g>
    <g id="xtick_2">
     <g id="line2d_3">
      <path clip-path="url(#p18bae9a1da)" d="M 395.779612 345.6 
L 395.779612 51.84 
" style="fill:none;stroke:#ffffff;stroke-linecap:round;stroke-width:0.8;"/>
     </g>
     <g id="line2d_4"/>
     <g id="text_2">
      <!-- 2014 -->
      <defs>
       <path d="M 37.796875 64.3125 
L 12.890625 25.390625 
L 37.796875 25.390625 
z
M 35.203125 72.90625 
L 47.609375 72.90625 
L 47.609375 25.390625 
L 58.015625 25.390625 
L 58.015625 17.1875 
L 47.609375 17.1875 
L 47.609375 0 
L 37.796875 0 
L 37.796875 17.1875 
L 4.890625 17.1875 
L 4.890625 26.703125 
z
" id="DejaVuSans-34"/>
      </defs>
      <g style="fill:#262626;" transform="translate(372.699422 368.40544)rotate(-30)scale(0.1 -0.1)">
       <use xlink:href="#DejaVuSans-32"/>
       <use x="63.623047" xlink:href="#DejaVuSans-30"/>
       <use x="127.246094" xlink:href="#DejaVuSans-31"/>
       <use x="190.869141" xlink:href="#DejaVuSans-34"/>
      </g>
     </g>
    </g>
    <g id="xtick_3">
     <g id="line2d_5">
      <path clip-path="url(#p18bae9a1da)" d="M 544.627615 345.6 
L 544.627615 51.84 
" style="fill:none;stroke:#ffffff;stroke-linecap:round;stroke-width:0.8;"/>
     </g>
     <g id="line2d_6"/>
     <g id="text_3">
      <!-- 2015 -->
      <defs>
       <path d="M 10.796875 72.90625 
L 49.515625 72.90625 
L 49.515625 64.59375 
L 19.828125 64.59375 
L 19.828125 46.734375 
Q 21.96875 47.46875 24.109375 47.828125 
Q 26.265625 48.1875 28.421875 48.1875 
Q 40.625 48.1875 47.75 41.5 
Q 54.890625 34.8125 54.890625 23.390625 
Q 54.890625 11.625 47.5625 5.09375 
Q 40.234375 -1.421875 26.90625 -1.421875 
Q 22.3125 -1.421875 17.546875 -0.640625 
Q 12.796875 0.140625 7.71875 1.703125 
L 7.71875 11.625 
Q 12.109375 9.234375 16.796875 8.0625 
Q 21.484375 6.890625 26.703125 6.890625 
Q 35.15625 6.890625 40.078125 11.328125 
Q 45.015625 15.765625 45.015625 23.390625 
Q 45.015625 31 40.078125 35.4375 
Q 35.15625 39.890625 26.703125 39.890625 
Q 22.75 39.890625 18.8125 39.015625 
Q 14.890625 38.140625 10.796875 36.28125 
z
" id="DejaVuSans-35"/>
      </defs>
      <g style="fill:#262626;" transform="translate(521.547425 368.40544)rotate(-30)scale(0.1 -0.1)">
       <use xlink:href="#DejaVuSans-32"/>
       <use x="63.623047" xlink:href="#DejaVuSans-30"/>
       <use x="127.246094" xlink:href="#DejaVuSans-31"/>
       <use x="190.869141" xlink:href="#DejaVuSans-35"/>
      </g>
     </g>
    </g>
    <g id="xtick_4">
     <g id="line2d_7">
      <path clip-path="url(#p18bae9a1da)" d="M 693.475618 345.6 
L 693.475618 51.84 
" style="fill:none;stroke:#ffffff;stroke-linecap:round;stroke-width:0.8;"/>
     </g>
     <g id="line2d_8"/>
     <g id="text_4">
      <!-- 2016 -->
      <defs>
       <path d="M 33.015625 40.375 
Q 26.375 40.375 22.484375 35.828125 
Q 18.609375 31.296875 18.609375 23.390625 
Q 18.609375 15.53125 22.484375 10.953125 
Q 26.375 6.390625 33.015625 6.390625 
Q 39.65625 6.390625 43.53125 10.953125 
Q 47.40625 15.53125 47.40625 23.390625 
Q 47.40625 31.296875 43.53125 35.828125 
Q 39.65625 40.375 33.015625 40.375 
z
M 52.59375 71.296875 
L 52.59375 62.3125 
Q 48.875 64.0625 45.09375 64.984375 
Q 41.3125 65.921875 37.59375 65.921875 
Q 27.828125 65.921875 22.671875 59.328125 
Q 17.53125 52.734375 16.796875 39.40625 
Q 19.671875 43.65625 24.015625 45.921875 
Q 28.375 48.1875 33.59375 48.1875 
Q 44.578125 48.1875 50.953125 41.515625 
Q 57.328125 34.859375 57.328125 23.390625 
Q 57.328125 12.15625 50.6875 5.359375 
Q 44.046875 -1.421875 33.015625 -1.421875 
Q 20.359375 -1.421875 13.671875 8.265625 
Q 6.984375 17.96875 6.984375 36.375 
Q 6.984375 53.65625 15.1875 63.9375 
Q 23.390625 74.21875 37.203125 74.21875 
Q 40.921875 74.21875 44.703125 73.484375 
Q 48.484375 72.75 52.59375 71.296875 
z
" id="DejaVuSans-36"/>
      </defs>
      <g style="fill:#262626;" transform="translate(670.395428 368.40544)rotate(-30)scale(0.1 -0.1)">
       <use xlink:href="#DejaVuSans-32"/>
       <use x="63.623047" xlink:href="#DejaVuSans-30"/>
       <use x="127.246094" xlink:href="#DejaVuSans-31"/>
       <use x="190.869141" xlink:href="#DejaVuSans-36"/>
      </g>
     </g>
    </g>
    <g id="xtick_5">
     <g id="line2d_9">
      <path clip-path="url(#p18bae9a1da)" d="M 842.731424 345.6 
L 842.731424 51.84 
" style="fill:none;stroke:#ffffff;stroke-linecap:round;stroke-width:0.8;"/>
     </g>
     <g id="line2d_10"/>
     <g id="text_5">
      <!-- 2017 -->
      <defs>
       <path d="M 8.203125 72.90625 
L 55.078125 72.90625 
L 55.078125 68.703125 
L 28.609375 0 
L 18.3125 0 
L 43.21875 64.59375 
L 8.203125 64.59375 
z
" id="DejaVuSans-37"/>
      </defs>
      <g style="fill:#262626;" transform="translate(819.651234 368.40544)rotate(-30)scale(0.1 -0.1)">
       <use xlink:href="#DejaVuSans-32"/>
       <use x="63.623047" xlink:href="#DejaVuSans-30"/>
       <use x="127.246094" xlink:href="#DejaVuSans-31"/>
       <use x="190.869141" xlink:href="#DejaVuSans-37"/>
      </g>
     </g>
    </g>
    <g id="xtick_6">
     <g id="line2d_11">
      <path clip-path="url(#p18bae9a1da)" d="M 991.579428 345.6 
L 991.579428 51.84 
" style="fill:none;stroke:#ffffff;stroke-linecap:round;stroke-width:0.8;"/>
     </g>
     <g id="line2d_12"/>
     <g id="text_6">
      <!-- 2018 -->
      <defs>
       <path d="M 31.78125 34.625 
Q 24.75 34.625 20.71875 30.859375 
Q 16.703125 27.09375 16.703125 20.515625 
Q 16.703125 13.921875 20.71875 10.15625 
Q 24.75 6.390625 31.78125 6.390625 
Q 38.8125 6.390625 42.859375 10.171875 
Q 46.921875 13.96875 46.921875 20.515625 
Q 46.921875 27.09375 42.890625 30.859375 
Q 38.875 34.625 31.78125 34.625 
z
M 21.921875 38.8125 
Q 15.578125 40.375 12.03125 44.71875 
Q 8.5 49.078125 8.5 55.328125 
Q 8.5 64.0625 14.71875 69.140625 
Q 20.953125 74.21875 31.78125 74.21875 
Q 42.671875 74.21875 48.875 69.140625 
Q 55.078125 64.0625 55.078125 55.328125 
Q 55.078125 49.078125 51.53125 44.71875 
Q 48 40.375 41.703125 38.8125 
Q 48.828125 37.15625 52.796875 32.3125 
Q 56.78125 27.484375 56.78125 20.515625 
Q 56.78125 9.90625 50.3125 4.234375 
Q 43.84375 -1.421875 31.78125 -1.421875 
Q 19.734375 -1.421875 13.25 4.234375 
Q 6.78125 9.90625 6.78125 20.515625 
Q 6.78125 27.484375 10.78125 32.3125 
Q 14.796875 37.15625 21.921875 38.8125 
z
M 18.3125 54.390625 
Q 18.3125 48.734375 21.84375 45.5625 
Q 25.390625 42.390625 31.78125 42.390625 
Q 38.140625 42.390625 41.71875 45.5625 
Q 45.3125 48.734375 45.3125 54.390625 
Q 45.3125 60.0625 41.71875 63.234375 
Q 38.140625 66.40625 31.78125 66.40625 
Q 25.390625 66.40625 21.84375 63.234375 
Q 18.3125 60.0625 18.3125 54.390625 
z
" id="DejaVuSans-38"/>
      </defs>
      <g style="fill:#262626;" transform="translate(968.499237 368.40544)rotate(-30)scale(0.1 -0.1)">
       <use xlink:href="#DejaVuSans-32"/>
       <use x="63.623047" xlink:href="#DejaVuSans-30"/>
       <use x="127.246094" xlink:href="#DejaVuSans-31"/>
       <use x="190.869141" xlink:href="#DejaVuSans-38"/>
      </g>
     </g>
    </g>
    <g id="xtick_7">
     <g id="line2d_13"/>
    </g>
    <g id="xtick_8">
     <g id="line2d_14"/>
    </g>
    <g id="xtick_9">
     <g id="line2d_15"/>
    </g>
    <g id="xtick_10">
     <g id="line2d_16"/>
    </g>
    <g id="xtick_11">
     <g id="line2d_17"/>
    </g>
    <g id="xtick_12">
     <g id="line2d_18"/>
    </g>
    <g id="xtick_13">
     <g id="line2d_19"/>
    </g>
    <g id="xtick_14">
     <g id="line2d_20"/>
    </g>
    <g id="xtick_15">
     <g id="line2d_21"/>
    </g>
    <g id="xtick_16">
     <g id="line2d_22"/>
    </g>
    <g id="xtick_17">
     <g id="line2d_23"/>
    </g>
    <g id="xtick_18">
     <g id="line2d_24"/>
    </g>
    <g id="xtick_19">
     <g id="line2d_25"/>
    </g>
    <g id="xtick_20">
     <g id="line2d_26"/>
    </g>
    <g id="xtick_21">
     <g id="line2d_27"/>
    </g>
    <g id="xtick_22">
     <g id="line2d_28"/>
    </g>
    <g id="xtick_23">
     <g id="line2d_29"/>
    </g>
    <g id="xtick_24">
     <g id="line2d_30"/>
    </g>
    <g id="xtick_25">
     <g id="line2d_31"/>
    </g>
    <g id="xtick_26">
     <g id="line2d_32"/>
    </g>
    <g id="xtick_27">
     <g id="line2d_33"/>
    </g>
    <g id="xtick_28">
     <g id="line2d_34"/>
    </g>
    <g id="xtick_29">
     <g id="line2d_35"/>
    </g>
    <g id="xtick_30">
     <g id="line2d_36"/>
    </g>
    <g id="xtick_31">
     <g id="line2d_37"/>
    </g>
    <g id="xtick_32">
     <g id="line2d_38"/>
    </g>
    <g id="xtick_33">
     <g id="line2d_39"/>
    </g>
    <g id="xtick_34">
     <g id="line2d_40"/>
    </g>
    <g id="xtick_35">
     <g id="line2d_41"/>
    </g>
    <g id="xtick_36">
     <g id="line2d_42"/>
    </g>
    <g id="xtick_37">
     <g id="line2d_43"/>
    </g>
    <g id="xtick_38">
     <g id="line2d_44"/>
    </g>
    <g id="xtick_39">
     <g id="line2d_45"/>
    </g>
    <g id="xtick_40">
     <g id="line2d_46"/>
    </g>
    <g id="xtick_41">
     <g id="line2d_47"/>
    </g>
    <g id="xtick_42">
     <g id="line2d_48"/>
    </g>
    <g id="xtick_43">
     <g id="line2d_49"/>
    </g>
    <g id="xtick_44">
     <g id="line2d_50"/>
    </g>
    <g id="xtick_45">
     <g id="line2d_51"/>
    </g>
    <g id="xtick_46">
     <g id="line2d_52"/>
    </g>
    <g id="xtick_47">
     <g id="line2d_53"/>
    </g>
    <g id="xtick_48">
     <g id="line2d_54"/>
    </g>
    <g id="xtick_49">
     <g id="line2d_55"/>
    </g>
    <g id="xtick_50">
     <g id="line2d_56"/>
    </g>
    <g id="xtick_51">
     <g id="line2d_57"/>
    </g>
    <g id="xtick_52">
     <g id="line2d_58"/>
    </g>
    <g id="xtick_53">
     <g id="line2d_59"/>
    </g>
    <g id="xtick_54">
     <g id="line2d_60"/>
    </g>
    <g id="xtick_55">
     <g id="line2d_61"/>
    </g>
    <g id="xtick_56">
     <g id="line2d_62"/>
    </g>
    <g id="xtick_57">
     <g id="line2d_63"/>
    </g>
    <g id="xtick_58">
     <g id="line2d_64"/>
    </g>
    <g id="xtick_59">
     <g id="line2d_65"/>
    </g>
    <g id="xtick_60">
     <g id="line2d_66"/>
    </g>
    <g id="xtick_61">
     <g id="line2d_67"/>
    </g>
    <g id="xtick_62">
     <g id="line2d_68"/>
    </g>
    <g id="xtick_63">
     <g id="line2d_69"/>
    </g>
    <g id="xtick_64">
     <g id="line2d_70"/>
    </g>
    <g id="xtick_65">
     <g id="line2d_71"/>
    </g>
    <g id="xtick_66">
     <g id="line2d_72"/>
    </g>
    <g id="xtick_67">
     <g id="line2d_73"/>
    </g>
    <g id="xtick_68">
     <g id="line2d_74"/>
    </g>
    <g id="xtick_69">
     <g id="line2d_75"/>
    </g>
    <g id="xtick_70">
     <g id="line2d_76"/>
    </g>
    <g id="xtick_71">
     <g id="line2d_77"/>
    </g>
    <g id="xtick_72">
     <g id="line2d_78"/>
    </g>
    <g id="xtick_73">
     <g id="line2d_79"/>
    </g>
    <g id="xtick_74">
     <g id="line2d_80"/>
    </g>
    <g id="xtick_75">
     <g id="line2d_81"/>
    </g>
    <g id="xtick_76">
     <g id="line2d_82"/>
    </g>
    <g id="xtick_77">
     <g id="line2d_83"/>
    </g>
    <g id="xtick_78">
     <g id="line2d_84"/>
    </g>
    <g id="text_7">
     <!-- Year -->
     <defs>
      <path d="M -0.203125 72.90625 
L 10.40625 72.90625 
L 30.609375 42.921875 
L 50.6875 72.90625 
L 61.28125 72.90625 
L 35.5 34.71875 
L 35.5 0 
L 25.59375 0 
L 25.59375 34.71875 
z
" id="DejaVuSans-59"/>
      <path d="M 56.203125 29.59375 
L 56.203125 25.203125 
L 14.890625 25.203125 
Q 15.484375 15.921875 20.484375 11.0625 
Q 25.484375 6.203125 34.421875 6.203125 
Q 39.59375 6.203125 44.453125 7.46875 
Q 49.3125 8.734375 54.109375 11.28125 
L 54.109375 2.78125 
Q 49.265625 0.734375 44.1875 -0.34375 
Q 39.109375 -1.421875 33.890625 -1.421875 
Q 20.796875 -1.421875 13.15625 6.1875 
Q 5.515625 13.8125 5.515625 26.8125 
Q 5.515625 40.234375 12.765625 48.109375 
Q 20.015625 56 32.328125 56 
Q 43.359375 56 49.78125 48.890625 
Q 56.203125 41.796875 56.203125 29.59375 
z
M 47.21875 32.234375 
Q 47.125 39.59375 43.09375 43.984375 
Q 39.0625 48.390625 32.421875 48.390625 
Q 24.90625 48.390625 20.390625 44.140625 
Q 15.875 39.890625 15.1875 32.171875 
z
" id="DejaVuSans-65"/>
      <path d="M 34.28125 27.484375 
Q 23.390625 27.484375 19.1875 25 
Q 14.984375 22.515625 14.984375 16.5 
Q 14.984375 11.71875 18.140625 8.90625 
Q 21.296875 6.109375 26.703125 6.109375 
Q 34.1875 6.109375 38.703125 11.40625 
Q 43.21875 16.703125 43.21875 25.484375 
L 43.21875 27.484375 
z
M 52.203125 31.203125 
L 52.203125 0 
L 43.21875 0 
L 43.21875 8.296875 
Q 40.140625 3.328125 35.546875 0.953125 
Q 30.953125 -1.421875 24.3125 -1.421875 
Q 15.921875 -1.421875 10.953125 3.296875 
Q 6 8.015625 6 15.921875 
Q 6 25.140625 12.171875 29.828125 
Q 18.359375 34.515625 30.609375 34.515625 
L 43.21875 34.515625 
L 43.21875 35.40625 
Q 43.21875 41.609375 39.140625 45 
Q 35.0625 48.390625 27.6875 48.390625 
Q 23 48.390625 18.546875 47.265625 
Q 14.109375 46.140625 10.015625 43.890625 
L 10.015625 52.203125 
Q 14.9375 54.109375 19.578125 55.046875 
Q 24.21875 56 28.609375 56 
Q 40.484375 56 46.34375 49.84375 
Q 52.203125 43.703125 52.203125 31.203125 
z
" id="DejaVuSans-61"/>
      <path d="M 41.109375 46.296875 
Q 39.59375 47.171875 37.8125 47.578125 
Q 36.03125 48 33.890625 48 
Q 26.265625 48 22.1875 43.046875 
Q 18.109375 38.09375 18.109375 28.8125 
L 18.109375 0 
L 9.078125 0 
L 9.078125 54.6875 
L 18.109375 54.6875 
L 18.109375 46.1875 
Q 20.953125 51.171875 25.484375 53.578125 
Q 30.03125 56 36.53125 56 
Q 37.453125 56 38.578125 55.875 
Q 39.703125 55.765625 41.0625 55.515625 
z
" id="DejaVuSans-72"/>
     </defs>
     <g style="fill:#262626;" transform="translate(578.036172 382.564783)scale(0.11 -0.11)">
      <use xlink:href="#DejaVuSans-59"/>
      <use x="60.880859" xlink:href="#DejaVuSans-65"/>
      <use x="122.404297" xlink:href="#DejaVuSans-61"/>
      <use x="183.683594" xlink:href="#DejaVuSans-72"/>
     </g>
    </g>
   </g>
   <g id="matplotlib.axis_2">
    <g id="ytick_1">
     <g id="line2d_85">
      <path clip-path="url(#p18bae9a1da)" d="M 144 329.14957 
L 1036.8 329.14957 
" style="fill:none;stroke:#ffffff;stroke-linecap:round;stroke-width:0.8;"/>
     </g>
     <g id="line2d_86"/>
     <g id="text_8">
      <!-- −4000 -->
      <defs>
       <path d="M 10.59375 35.5 
L 73.1875 35.5 
L 73.1875 27.203125 
L 10.59375 27.203125 
z
" id="DejaVuSans-2212"/>
      </defs>
      <g style="fill:#262626;" transform="translate(106.670312 332.948789)scale(0.1 -0.1)">
       <use xlink:href="#DejaVuSans-2212"/>
       <use x="83.789062" xlink:href="#DejaVuSans-34"/>
       <use x="147.412109" xlink:href="#DejaVuSans-30"/>
       <use x="211.035156" xlink:href="#DejaVuSans-30"/>
       <use x="274.658203" xlink:href="#DejaVuSans-30"/>
      </g>
     </g>
    </g>
    <g id="ytick_2">
     <g id="line2d_87">
      <path clip-path="url(#p18bae9a1da)" d="M 144 263.934785 
L 1036.8 263.934785 
" style="fill:none;stroke:#ffffff;stroke-linecap:round;stroke-width:0.8;"/>
     </g>
     <g id="line2d_88"/>
     <g id="text_9">
      <!-- −2000 -->
      <g style="fill:#262626;" transform="translate(106.670312 267.734004)scale(0.1 -0.1)">
       <use xlink:href="#DejaVuSans-2212"/>
       <use x="83.789062" xlink:href="#DejaVuSans-32"/>
       <use x="147.412109" xlink:href="#DejaVuSans-30"/>
       <use x="211.035156" xlink:href="#DejaVuSans-30"/>
       <use x="274.658203" xlink:href="#DejaVuSans-30"/>
      </g>
     </g>
    </g>
    <g id="ytick_3">
     <g id="line2d_89">
      <path clip-path="url(#p18bae9a1da)" d="M 144 198.72 
L 1036.8 198.72 
" style="fill:none;stroke:#ffffff;stroke-linecap:round;stroke-width:0.8;"/>
     </g>
     <g id="line2d_90"/>
     <g id="text_10">
      <!-- 0 -->
      <g style="fill:#262626;" transform="translate(134.1375 202.519219)scale(0.1 -0.1)">
       <use xlink:href="#DejaVuSans-30"/>
      </g>
     </g>
    </g>
    <g id="ytick_4">
     <g id="line2d_91">
      <path clip-path="url(#p18bae9a1da)" d="M 144 133.505215 
L 1036.8 133.505215 
" style="fill:none;stroke:#ffffff;stroke-linecap:round;stroke-width:0.8;"/>
     </g>
     <g id="line2d_92"/>
     <g id="text_11">
      <!-- 2000 -->
      <g style="fill:#262626;" transform="translate(115.05 137.304434)scale(0.1 -0.1)">
       <use xlink:href="#DejaVuSans-32"/>
       <use x="63.623047" xlink:href="#DejaVuSans-30"/>
       <use x="127.246094" xlink:href="#DejaVuSans-30"/>
       <use x="190.869141" xlink:href="#DejaVuSans-30"/>
      </g>
     </g>
    </g>
    <g id="ytick_5">
     <g id="line2d_93">
      <path clip-path="url(#p18bae9a1da)" d="M 144 68.29043 
L 1036.8 68.29043 
" style="fill:none;stroke:#ffffff;stroke-linecap:round;stroke-width:0.8;"/>
     </g>
     <g id="line2d_94"/>
     <g id="text_12">
      <!-- 4000 -->
      <g style="fill:#262626;" transform="translate(115.05 72.089648)scale(0.1 -0.1)">
       <use xlink:href="#DejaVuSans-34"/>
       <use x="63.623047" xlink:href="#DejaVuSans-30"/>
       <use x="127.246094" xlink:href="#DejaVuSans-30"/>
       <use x="190.869141" xlink:href="#DejaVuSans-30"/>
      </g>
     </g>
    </g>
    <g id="text_13">
     <!-- Change in Balance -->
     <defs>
      <path d="M 64.40625 67.28125 
L 64.40625 56.890625 
Q 59.421875 61.53125 53.78125 63.8125 
Q 48.140625 66.109375 41.796875 66.109375 
Q 29.296875 66.109375 22.65625 58.46875 
Q 16.015625 50.828125 16.015625 36.375 
Q 16.015625 21.96875 22.65625 14.328125 
Q 29.296875 6.6875 41.796875 6.6875 
Q 48.140625 6.6875 53.78125 8.984375 
Q 59.421875 11.28125 64.40625 15.921875 
L 64.40625 5.609375 
Q 59.234375 2.09375 53.4375 0.328125 
Q 47.65625 -1.421875 41.21875 -1.421875 
Q 24.65625 -1.421875 15.125 8.703125 
Q 5.609375 18.84375 5.609375 36.375 
Q 5.609375 53.953125 15.125 64.078125 
Q 24.65625 74.21875 41.21875 74.21875 
Q 47.75 74.21875 53.53125 72.484375 
Q 59.328125 70.75 64.40625 67.28125 
z
" id="DejaVuSans-43"/>
      <path d="M 54.890625 33.015625 
L 54.890625 0 
L 45.90625 0 
L 45.90625 32.71875 
Q 45.90625 40.484375 42.875 44.328125 
Q 39.84375 48.1875 33.796875 48.1875 
Q 26.515625 48.1875 22.3125 43.546875 
Q 18.109375 38.921875 18.109375 30.90625 
L 18.109375 0 
L 9.078125 0 
L 9.078125 75.984375 
L 18.109375 75.984375 
L 18.109375 46.1875 
Q 21.34375 51.125 25.703125 53.5625 
Q 30.078125 56 35.796875 56 
Q 45.21875 56 50.046875 50.171875 
Q 54.890625 44.34375 54.890625 33.015625 
z
" id="DejaVuSans-68"/>
      <path d="M 54.890625 33.015625 
L 54.890625 0 
L 45.90625 0 
L 45.90625 32.71875 
Q 45.90625 40.484375 42.875 44.328125 
Q 39.84375 48.1875 33.796875 48.1875 
Q 26.515625 48.1875 22.3125 43.546875 
Q 18.109375 38.921875 18.109375 30.90625 
L 18.109375 0 
L 9.078125 0 
L 9.078125 54.6875 
L 18.109375 54.6875 
L 18.109375 46.1875 
Q 21.34375 51.125 25.703125 53.5625 
Q 30.078125 56 35.796875 56 
Q 45.21875 56 50.046875 50.171875 
Q 54.890625 44.34375 54.890625 33.015625 
z
" id="DejaVuSans-6e"/>
      <path d="M 45.40625 27.984375 
Q 45.40625 37.75 41.375 43.109375 
Q 37.359375 48.484375 30.078125 48.484375 
Q 22.859375 48.484375 18.828125 43.109375 
Q 14.796875 37.75 14.796875 27.984375 
Q 14.796875 18.265625 18.828125 12.890625 
Q 22.859375 7.515625 30.078125 7.515625 
Q 37.359375 7.515625 41.375 12.890625 
Q 45.40625 18.265625 45.40625 27.984375 
z
M 54.390625 6.78125 
Q 54.390625 -7.171875 48.1875 -13.984375 
Q 42 -20.796875 29.203125 -20.796875 
Q 24.46875 -20.796875 20.265625 -20.09375 
Q 16.0625 -19.390625 12.109375 -17.921875 
L 12.109375 -9.1875 
Q 16.0625 -11.328125 19.921875 -12.34375 
Q 23.78125 -13.375 27.78125 -13.375 
Q 36.625 -13.375 41.015625 -8.765625 
Q 45.40625 -4.15625 45.40625 5.171875 
L 45.40625 9.625 
Q 42.625 4.78125 38.28125 2.390625 
Q 33.9375 0 27.875 0 
Q 17.828125 0 11.671875 7.65625 
Q 5.515625 15.328125 5.515625 27.984375 
Q 5.515625 40.671875 11.671875 48.328125 
Q 17.828125 56 27.875 56 
Q 33.9375 56 38.28125 53.609375 
Q 42.625 51.21875 45.40625 46.390625 
L 45.40625 54.6875 
L 54.390625 54.6875 
z
" id="DejaVuSans-67"/>
      <path id="DejaVuSans-20"/>
      <path d="M 9.421875 54.6875 
L 18.40625 54.6875 
L 18.40625 0 
L 9.421875 0 
z
M 9.421875 75.984375 
L 18.40625 75.984375 
L 18.40625 64.59375 
L 9.421875 64.59375 
z
" id="DejaVuSans-69"/>
      <path d="M 19.671875 34.8125 
L 19.671875 8.109375 
L 35.5 8.109375 
Q 43.453125 8.109375 47.28125 11.40625 
Q 51.125 14.703125 51.125 21.484375 
Q 51.125 28.328125 47.28125 31.5625 
Q 43.453125 34.8125 35.5 34.8125 
z
M 19.671875 64.796875 
L 19.671875 42.828125 
L 34.28125 42.828125 
Q 41.5 42.828125 45.03125 45.53125 
Q 48.578125 48.25 48.578125 53.8125 
Q 48.578125 59.328125 45.03125 62.0625 
Q 41.5 64.796875 34.28125 64.796875 
z
M 9.8125 72.90625 
L 35.015625 72.90625 
Q 46.296875 72.90625 52.390625 68.21875 
Q 58.5 63.53125 58.5 54.890625 
Q 58.5 48.1875 55.375 44.234375 
Q 52.25 40.28125 46.1875 39.3125 
Q 53.46875 37.75 57.5 32.78125 
Q 61.53125 27.828125 61.53125 20.40625 
Q 61.53125 10.640625 54.890625 5.3125 
Q 48.25 0 35.984375 0 
L 9.8125 0 
z
" id="DejaVuSans-42"/>
      <path d="M 9.421875 75.984375 
L 18.40625 75.984375 
L 18.40625 0 
L 9.421875 0 
z
" id="DejaVuSans-6c"/>
      <path d="M 48.78125 52.59375 
L 48.78125 44.1875 
Q 44.96875 46.296875 41.140625 47.34375 
Q 37.3125 48.390625 33.40625 48.390625 
Q 24.65625 48.390625 19.8125 42.84375 
Q 14.984375 37.3125 14.984375 27.296875 
Q 14.984375 17.28125 19.8125 11.734375 
Q 24.65625 6.203125 33.40625 6.203125 
Q 37.3125 6.203125 41.140625 7.25 
Q 44.96875 8.296875 48.78125 10.40625 
L 48.78125 2.09375 
Q 45.015625 0.34375 40.984375 -0.53125 
Q 36.96875 -1.421875 32.421875 -1.421875 
Q 20.0625 -1.421875 12.78125 6.34375 
Q 5.515625 14.109375 5.515625 27.296875 
Q 5.515625 40.671875 12.859375 48.328125 
Q 20.21875 56 33.015625 56 
Q 37.15625 56 41.109375 55.140625 
Q 45.0625 54.296875 48.78125 52.59375 
z
" id="DejaVuSans-63"/>
     </defs>
     <g style="fill:#262626;" transform="translate(100.382656 250.224062)rotate(-90)scale(0.11 -0.11)">
      <use xlink:href="#DejaVuSans-43"/>
      <use x="69.824219" xlink:href="#DejaVuSans-68"/>
      <use x="133.203125" xlink:href="#DejaVuSans-61"/>
      <use x="194.482422" xlink:href="#DejaVuSans-6e"/>
      <use x="257.861328" xlink:href="#DejaVuSans-67"/>
      <use x="321.337891" xlink:href="#DejaVuSans-65"/>
      <use x="382.861328" xlink:href="#DejaVuSans-20"/>
      <use x="414.648438" xlink:href="#DejaVuSans-69"/>
      <use x="442.431641" xlink:href="#DejaVuSans-6e"/>
      <use x="505.810547" xlink:href="#DejaVuSans-20"/>
      <use x="537.597656" xlink:href="#DejaVuSans-42"/>
      <use x="606.201172" xlink:href="#DejaVuSans-61"/>
      <use x="667.480469" xlink:href="#DejaVuSans-6c"/>
      <use x="695.263672" xlink:href="#DejaVuSans-61"/>
      <use x="756.542969" xlink:href="#DejaVuSans-6e"/>
      <use x="819.921875" xlink:href="#DejaVuSans-63"/>
      <use x="874.902344" xlink:href="#DejaVuSans-65"/>
     </g>
    </g>
   </g>
   <g id="line2d_95">
    <path clip-path="url(#p18bae9a1da)" d="M 184.581818 312.845874 
L 184.846324 273.717003 
L 184.871099 133.505215 
L 185.026328 84.594126 
L 185.24353 123.722997 
L 185.321782 197.653738 
L 185.513714 198.010137 
L 185.937786 191.96277 
L 185.96823 198.395883 
L 186.120943 193.874215 
L 199.769993 193.978233 
L 247.523175 197.415704 
L 250.190116 198.196977 
L 250.536238 197.13202 
L 251.199564 196.809859 
L 251.382863 198.16274 
L 252.322202 198.58957 
L 256.763405 197.630587 
L 303.708185 198.423599 
L 311.751339 198.801518 
L 315.484764 199.633007 
L 316.02042 197.281036 
L 316.773496 199.372148 
L 316.839155 197.554938 
L 317.087976 200.114618 
L 317.837578 199.643767 
L 317.856934 198.964555 
L 318.061836 200.239504 
L 318.58237 197.580372 
L 320.501412 199.078681 
L 320.70091 203.154605 
L 320.94478 202.036824 
L 321.29862 198.393926 
L 321.977715 202.793968 
L 322.071868 198.067852 
L 322.324248 199.868106 
L 322.988466 199.518555 
L 323.001635 198.467619 
L 327.020857 198.671089 
L 327.93939 197.850687 
L 329.523227 198.393926 
L 332.623911 198.128828 
L 332.919945 327.943097 
L 337.504819 332.247273 
L 338.0425 65.192727 
L 338.047376 69.496903 
L 338.065382 197.627 
L 338.149581 196.91192 
L 338.376289 198.540659 
L 338.40215 197.603849 
L 338.428284 198.393926 
L 339.867682 198.671089 
L 346.881705 198.671089 
L 348.129553 198.393926 
L 348.150538 198.654785 
L 348.293085 197.741778 
L 348.342734 198.067852 
L 350.086883 198.393926 
L 350.095431 198.128502 
L 360.714771 199.660397 
L 360.950569 196.111409 
L 361.025361 200.024296 
L 361.105195 198.518486 
L 372.644771 215.023696 
L 385.935313 198.736304 
L 389.257928 199.306933 
L 393.215677 199.306933 
L 393.796032 200.783722 
L 393.943426 198.230889 
L 398.370819 194.481039 
L 398.3772 204.589331 
L 398.47773 199.013467 
L 401.12471 198.750977 
L 401.137175 198.133067 
L 401.137897 198.777063 
L 401.22397 200.276025 
L 401.268267 198.883037 
L 401.361556 198.915644 
L 401.930219 199.567792 
L 403.965164 199.796044 
L 404.097507 198.067852 
L 404.313958 196.747253 
L 406.970567 199.372148 
L 407.025917 197.285275 
L 408.044674 198.230889 
L 408.058966 198.785215 
L 408.299527 220.302507 
L 408.724067 196.801381 
L 408.818838 199.411277 
L 409.412979 219.757311 
L 409.619623 198.581093 
L 409.757346 198.486531 
L 409.794629 198.233824 
L 412.752167 198.29643 
L 412.906358 198.746412 
L 413.66067 210.693435 
L 415.579797 197.533743 
L 416.015028 196.307053 
L 417.90777 196.815076 
L 418.3104 199.661701 
L 418.559943 197.399401 
L 419.603909 197.709171 
L 419.655753 199.681918 
L 422.462262 195.406111 
L 422.639382 198.230889 
L 423.589581 197.568633 
L 423.624863 198.720326 
L 423.841522 197.481571 
L 423.890614 198.720326 
L 425.181121 197.716344 
L 426.973235 198.720326 
L 428.730242 199.111289 
L 428.766845 198.720326 
L 429.654434 198.18263 
L 429.668004 198.720326 
L 429.949402 181.62427 
L 430.543708 206.871848 
L 431.575926 197.562438 
L 432.149172 197.338751 
L 432.201469 198.393926 
L 432.342562 208.502218 
L 435.199258 204.628133 
L 436.38334 197.848078 
L 436.491681 201.165554 
L 436.625128 197.149954 
L 436.810962 201.491628 
L 437.716454 204.654219 
L 438.385095 198.354471 
L 438.985173 197.533743 
L 440.490187 205.626246 
L 442.322723 197.640043 
L 442.608402 198.503487 
L 444.060906 198.635547 
L 444.34441 198.393926 
L 444.490482 201.328591 
L 444.560979 197.22006 
L 444.707401 198.328711 
L 444.83213 198.407621 
L 445.236214 198.328711 
L 445.331807 197.497549 
L 445.357426 211.652092 
L 445.379903 198.067852 
L 445.488693 200.541123 
L 448.117973 200.267873 
L 448.38085 200.483408 
L 448.532784 199.777458 
L 449.595417 198.713805 
L 449.733622 201.071319 
L 449.858266 201.242834 
L 449.98451 195.948698 
L 450.781142 201.937698 
L 452.564316 198.716739 
L 452.773622 198.570332 
L 453.856805 201.817702 
L 453.936638 198.556963 
L 456.986535 198.035245 
L 456.988579 198.067852 
L 457.170396 198.198282 
L 457.332653 202.193013 
L 457.789166 204.2688 
L 461.696799 201.217726 
L 463.828838 201.617493 
L 464.24229 201.882917 
L 464.735279 201.322722 
L 464.926077 200.53558 
L 465.14783 200.885783 
L 465.289961 196.222274 
L 465.471127 201.393806 
L 467.693208 200.736441 
L 467.857962 203.498939 
L 469.191165 197.904815 
L 469.256301 204.005984 
L 469.325811 198.2798 
L 469.337923 202.11443 
L 471.490734 202.982112 
L 471.580743 201.789334 
L 471.901643 203.997506 
L 473.259517 201.024691 
L 473.702328 200.913825 
L 473.805944 201.933785 
L 473.831744 193.1712 
L 473.974451 198.067852 
L 476.129906 198.067852 
L 476.198458 200.349717 
L 476.483972 202.391592 
L 477.004487 199.41682 
L 477.940493 201.121861 
L 477.970319 196.771708 
L 478.01065 202.038454 
L 478.010778 199.427906 
L 478.076319 199.423015 
L 478.120158 198.067852 
L 478.122135 198.573267 
L 481.492616 198.393926 
L 482.053632 195.596212 
L 482.095847 192.850669 
L 482.805825 198.181978 
L 482.830898 199.224762 
L 482.950421 199.143896 
L 483.045235 199.538772 
L 483.809525 199.698222 
L 484.517889 198.944665 
L 484.641103 199.733438 
L 486.907698 199.772893 
L 487.038134 198.602613 
L 487.084153 198.067852 
L 487.107762 198.524356 
L 487.117518 189.189185 
L 488.1323 200.084619 
L 488.137143 199.607247 
L 488.239679 199.464753 
L 489.025176 199.783979 
L 489.207592 199.54888 
L 489.42394 198.751629 
L 490.108242 197.163975 
L 491.253497 199.372148 
L 491.302315 195.491868 
L 491.311302 199.698222 
L 491.58681 199.371822 
L 491.872546 200.676444 
L 492.617564 198.393926 
L 494.324398 197.301578 
L 494.396896 198.002637 
L 494.495623 194.807113 
L 506.779676 196.284228 
L 506.854223 196.773339 
L 519.458679 198.067852 
L 519.566312 197.379836 
L 519.619289 195.902721 
L 531.867451 196.505958 
L 531.941134 200.755027 
L 544.406814 198.459141 
L 544.410708 197.122238 
L 544.493099 197.741778 
L 544.583713 200.904695 
L 546.250649 198.230889 
L 546.664743 198.724239 
L 547.21127 198.725217 
L 547.237593 253.483464 
L 548.843467 220.271856 
L 548.902788 243.104205 
L 549.222309 166.781711 
L 549.240315 230.658289 
L 549.483359 208.502218 
L 549.489141 166.781711 
L 549.595887 193.974972 
L 550.34126 203.465028 
L 550.616423 203.514591 
L 554.466841 201.980739 
L 554.72226 198.393926 
L 554.775345 198.556963 
L 556.791647 198.824344 
L 557.045126 198.72163 
L 557.091344 197.188757 
L 557.208446 199.372148 
L 557.823647 200.234287 
L 557.924881 199.143896 
L 557.942708 200.35037 
L 558.016112 198.948252 
L 558.033397 219.490909 
L 560.942206 199.306933 
L 561.125358 199.046074 
L 561.148675 199.404755 
L 561.195789 199.288021 
L 561.471721 198.549137 
L 561.701729 198.393926 
L 562.283098 198.581419 
L 564.000929 199.869085 
L 566.241267 199.372148 
L 566.329285 199.685505 
L 566.354527 199.209111 
L 566.376196 199.506816 
L 566.551518 198.883037 
L 566.590175 199.50649 
L 566.629402 198.393926 
L 567.03021 198.556963 
L 567.217639 198.230889 
L 567.32825 198.721956 
L 568.332729 198.824344 
L 568.598188 198.72913 
L 568.670804 195.459261 
L 569.015279 198.581419 
L 569.137766 198.596092 
L 569.310582 198.843908 
L 569.316657 196.274446 
L 573.354551 198.067852 
L 573.576312 201.980739 
L 576.816404 197.08963 
L 577.806421 197.08963 
L 580.866834 198.734999 
L 580.956154 197.188757 
L 580.967185 198.835756 
L 581.0394 198.722609 
L 581.116849 198.572289 
L 581.535083 198.564137 
L 582.106012 197.08963 
L 582.184722 198.230889 
L 582.556667 198.557289 
L 582.924445 198.393926 
L 583.238528 190.568152 
L 583.383614 198.067852 
L 583.751996 198.487509 
L 584.526581 198.623156 
L 584.972643 198.133719 
L 586.029693 195.491868 
L 586.444434 201.948132 
L 586.578093 198.654785 
L 587.078784 197.08963 
L 589.313831 198.615982 
L 589.343755 198.491748 
L 590.027944 197.904815 
L 593.053349 198.722283 
L 593.357384 197.188757 
L 593.398868 198.832169 
L 593.460411 198.47251 
L 593.983191 198.002637 
L 594.339415 198.479684 
L 594.867661 198.654133 
L 595.484623 197.904815 
L 595.57316 196.81638 
L 595.748085 197.848078 
L 595.819323 197.28984 
L 596.069301 197.708193 
L 596.224917 198.550768 
L 596.741684 195.054603 
L 596.930255 198.650546 
L 597.913664 197.88362 
L 597.92427 198.385774 
L 598.014001 198.239367 
L 598.405992 198.459141 
L 598.638855 197.905793 
L 599.878891 199.209111 
L 600.010441 198.198282 
L 601.44357 205.241479 
L 602.501426 198.664567 
L 604.660902 198.465336 
L 604.671027 198.721956 
L 605.820261 197.188757 
L 605.952226 198.836082 
L 606.174898 193.240002 
L 607.37078 198.10046 
L 608.900153 199.698222 
L 610.422027 200.676444 
L 610.81634 200.024296 
L 610.828036 200.676444 
L 610.990964 197.317882 
L 612.176716 198.393926 
L 612.944698 198.002637 
L 614.705754 197.334512 
L 617.400967 198.734673 
L 618.037125 197.189083 
L 618.222043 198.832169 
L 618.315993 198.721304 
L 630.873656 197.189083 
L 630.99821 201.328591 
L 631.049205 198.836082 
L 631.070576 212.415105 
L 636.686587 210.784735 
L 637.618718 196.276728 
L 637.703493 196.47009 
L 637.72529 200.35037 
L 637.766655 198.080895 
L 638.602698 189.232879 
L 640.917148 198.218172 
L 641.311542 198.176761 
L 641.80166 208.207121 
L 641.942097 189.232879 
L 641.966551 192.002877 
L 642.236471 198.56055 
L 642.472708 196.432917 
L 643.02395 198.737282 
L 643.350589 198.297734 
L 643.415795 198.721956 
L 643.557459 198.836408 
L 643.592462 197.188757 
L 643.621584 198.301321 
L 647.624753 208.502218 
L 647.936307 198.42099 
L 648.260727 200.154725 
L 648.477009 198.0672 
L 648.764345 200.798395 
L 650.829205 198.230889 
L 651.284717 193.013706 
L 651.720631 197.578741 
L 653.672978 198.832496 
L 655.767484 198.733695 
L 655.79106 197.188757 
L 655.86648 199.502577 
L 656.014025 198.562832 
L 659.082434 198.636851 
L 659.491903 203.839035 
L 661.947541 198.462076 
L 663.075583 198.393926 
L 665.697802 198.585005 
L 667.237823 203.953813 
L 667.779871 198.449685 
L 668.236279 198.836408 
L 668.35012 197.188757 
L 668.434125 198.449033 
L 672.879534 198.361319 
L 673.099426 203.896424 
L 673.673975 197.301578 
L 673.696876 198.034593 
L 674.163192 197.987964 
L 674.168837 198.598374 
L 674.18741 198.47251 
L 674.743206 198.542616 
L 675.971155 198.393926 
L 677.76292 202.748643 
L 679.47268 198.311755 
L 680.315666 198.522073 
L 680.474317 197.188757 
L 680.574356 206.056663 
L 680.750141 198.722609 
L 680.818235 198.574245 
L 681.02655 198.657394 
L 681.088008 198.411208 
L 681.562178 198.615982 
L 682.346863 197.08963 
L 683.141026 198.578158 
L 684.210116 198.546529 
L 684.286843 197.937423 
L 684.663679 198.602939 
L 684.979107 204.91997 
L 685.140147 197.741778 
L 688.995195 201.823246 
L 690.544756 198.301321 
L 691.629185 198.249801 
L 692.402703 198.836734 
L 693.13671 197.188757 
L 693.206665 198.723261 
L 693.333168 198.731739 
L 694.79095 202.795924 
L 694.820889 199.535185 
L 695.033909 197.08963 
L 695.05647 191.2203 
L 695.216467 190.568152 
L 696.197261 200.285155 
L 696.374202 197.024416 
L 698.434583 191.2203 
L 699.263395 206.2197 
L 699.452282 196.30151 
L 700.575221 206.380781 
L 701.988343 196.277706 
L 702.318432 198.484901 
L 704.091845 197.317882 
L 704.648354 197.368098 
L 704.888514 200.187333 
L 704.949741 197.252667 
L 705.340878 198.836734 
L 705.850971 195.928807 
L 706.015551 201.328591 
L 707.497045 198.067852 
L 708.462773 198.459141 
L 708.708342 197.08963 
L 708.975892 198.240019 
L 711.154866 198.179369 
L 711.240967 199.897453 
L 711.646103 198.379253 
L 712.566175 200.290046 
L 712.74583 198.511639 
L 712.979127 201.932806 
L 713.848583 198.067852 
L 714.540228 198.459793 
L 715.277591 198.722935 
L 717.624572 198.736956 
L 717.657904 196.553239 
L 717.84183 198.829235 
L 717.886981 198.522073 
L 717.930292 196.763556 
L 718.441801 200.024296 
L 719.26519 198.067852 
L 720.339344 198.486205 
L 721.381714 198.230889 
L 722.013294 200.024296 
L 724.997683 198.393926 
L 726.117319 198.599027 
L 726.441796 196.352703 
L 727.805754 198.58631 
L 728.233244 197.08963 
L 729.13791 198.550768 
L 730.291086 198.728478 
L 730.402429 196.553239 
L 730.530415 202.627344 
L 730.687796 202.118995 
L 730.880285 198.431099 
L 732.921409 196.763556 
L 734.083986 198.556963 
L 734.215894 200.676444 
L 734.225967 198.230889 
L 734.877989 198.505117 
L 735.5397 196.763556 
L 737.639493 197.477332 
L 738.348008 198.431099 
L 739.087693 198.505117 
L 740.695597 198.425555 
L 741.235954 198.556963 
L 741.967786 200.741658 
L 742.168204 198.833474 
L 742.494295 198.442511 
L 742.508379 196.553239 
L 742.717798 198.723261 
L 743.232828 197.08963 
L 743.386411 198.605874 
L 743.87332 198.393926 
L 744.719477 197.673629 
L 745.019595 196.975831 
L 745.083418 198.418708 
L 745.202152 197.359294 
L 745.691129 198.441533 
L 746.61888 197.952422 
L 746.90639 196.959201 
L 747.050679 198.184587 
L 749.877035 198.230889 
L 752.617012 197.08963 
L 754.661581 198.038505 
L 755.147196 198.837061 
L 755.280865 198.106003 
L 755.359348 196.553239 
L 755.359683 198.722935 
L 755.372574 199.333997 
L 757.037282 198.022202 
L 757.597378 198.067852 
L 759.208681 198.465662 
L 759.866489 198.267409 
L 759.933928 198.469901 
L 760.098139 198.595766 
L 760.145419 198.31632 
L 760.250159 194.024862 
L 760.287961 198.594462 
L 761.508306 198.32219 
L 761.914995 198.660002 
L 763.253801 198.067852 
L 764.097273 198.500552 
L 764.566232 198.500552 
L 766.850569 202.958961 
L 767.060738 198.728152 
L 767.507037 198.722283 
L 767.589197 196.553239 
L 767.599368 199.080312 
L 767.717726 202.143776 
L 767.823325 208.086147 
L 768.028033 202.972656 
L 768.055423 197.904815 
L 768.763692 197.15028 
L 770.323429 200.28972 
L 771.1403 195.929133 
L 771.186206 198.652829 
L 771.952455 208.238424 
L 772.233428 189.201576 
L 772.264174 198.607178 
L 772.938682 203.031349 
L 773.413262 202.045954 
L 773.481427 207.621818 
L 773.674822 203.031349 
L 773.678391 198.491748 
L 773.909965 198.230889 
L 774.047886 194.408651 
L 774.062485 198.556963 
L 774.870189 215.023696 
L 778.44753 182.416304 
L 778.721915 182.416304 
L 778.765211 215.023696 
L 779.100392 198.531855 
L 779.268111 200.937303 
L 779.354986 217.39458 
L 779.429334 198.395556 
L 779.52791 198.580766 
L 779.562659 197.906772 
L 779.722825 198.654785 
L 779.844156 198.427512 
L 779.847172 198.297408 
L 779.897458 198.722935 
L 780.005729 198.841952 
L 780.08433 198.067852 
L 780.122991 196.553239 
L 780.235651 182.416304 
L 781.554685 198.531855 
L 781.892661 199.533228 
L 781.982817 171.096321 
L 782.153051 226.343679 
L 782.256989 198.491748 
L 782.55577 198.449685 
L 782.627693 198.622178 
L 782.751426 198.192086 
L 783.303758 171.096321 
L 783.6777 226.343679 
L 783.709389 198.54555 
L 784.055677 198.296756 
L 784.641969 199.698222 
L 785.010799 198.291539 
L 785.088093 211.176024 
L 785.153006 197.306796 
L 785.321546 196.278032 
L 785.575479 196.38368 
L 785.600273 199.417146 
L 785.659253 196.274446 
L 785.757541 192.491988 
L 786.18352 198.622178 
L 786.363171 204.948012 
L 786.39191 198.687393 
L 786.874633 197.611349 
L 786.984017 198.686414 
L 787.208875 198.752607 
L 787.220741 187.307413 
L 787.781508 196.961157 
L 788.621057 193.013706 
L 789.430584 204.426294 
L 789.534158 193.013706 
L 789.559664 198.550768 
L 789.875173 192.733935 
L 790.273914 210.286168 
L 790.606065 210.263017 
L 790.700049 198.284691 
L 790.831126 198.338167 
L 791.167597 204.491508 
L 791.171887 192.948492 
L 791.215325 198.820105 
L 792.771659 196.553239 
L 792.877536 216.819711 
L 793.75847 198.834126 
L 805.076847 196.553239 
L 805.111619 198.556963 
L 815.191058 198.230889 
L 815.25583 204.851168 
L 815.582407 189.266465 
L 815.779238 198.484249 
L 816.17433 198.393926 
L 816.247452 198.558593 
L 817.226244 198.838691 
L 817.525946 198.392296 
L 817.56026 198.723261 
L 817.565056 188.122597 
L 817.602674 196.553239 
L 817.753504 198.580114 
L 818.324475 198.482944 
L 820.025796 198.556963 
L 820.589092 198.230889 
L 820.859658 201.328591 
L 821.797453 198.372079 
L 822.474094 198.068178 
L 822.949104 199.372148 
L 823.248018 198.556963 
L 823.544888 198.622178 
L 823.656232 198.817822 
L 823.846884 198.505117 
L 824.138704 198.817822 
L 824.167561 198.622178 
L 824.182533 198.687393 
L 824.474943 198.622178 
L 824.576577 198.817822 
L 824.911334 198.382513 
L 824.957325 198.536094 
L 825.088247 198.698805 
L 825.15569 198.479684 
L 825.664608 197.741778 
L 825.753329 198.915644 
L 826.058548 204.458901 
L 826.115051 201.459021 
L 826.127705 191.738431 
L 826.179629 203.382857 
L 826.208992 198.393926 
L 826.356976 205.701569 
L 826.372321 198.524356 
L 826.414238 198.622178 
L 828.909529 198.622178 
L 829.436066 198.836734 
L 829.716549 198.462728 
L 829.759986 198.622178 
L 829.802267 198.284691 
L 829.837398 198.723587 
L 830.07819 188.122597 
L 830.288138 198.622178 
L 831.483302 198.622178 
L 831.781753 198.465662 
L 832.031849 196.763556 
L 832.163521 198.622178 
L 832.344474 198.458815 
L 832.445589 198.629351 
L 832.888971 198.622178 
L 833.111209 198.291539 
L 833.236103 209.317403 
L 833.468362 196.763556 
L 833.488261 188.122597 
L 833.538892 206.651748 
L 833.59025 198.584027 
L 833.664074 198.620547 
L 833.754225 198.067852 
L 833.799069 198.622178 
L 833.826011 197.904815 
L 834.36044 198.622178 
L 835.716219 198.525334 
L 835.724521 198.291539 
L 835.924198 198.622178 
L 836.143298 198.424251 
L 836.267192 202.567672 
L 836.380381 198.598374 
L 836.401696 204.103807 
L 836.435925 197.08963 
L 838.544095 198.458815 
L 838.873132 199.502577 
L 839.108406 193.502817 
L 839.578121 198.555659 
L 840.492906 198.394252 
L 841.235187 208.527652 
L 842.232671 198.845212 
L 842.645552 198.723913 
L 842.655596 197.08963 
L 843.470135 197.747321 
L 843.760539 198.26317 
L 843.835444 162.92393 
L 844.054327 234.51607 
L 844.651078 162.92393 
L 844.670907 200.546014 
L 844.894717 198.615656 
L 845.421863 162.92393 
L 845.995812 198.622178 
L 846.02922 234.51607 
L 846.054533 200.08951 
L 846.181013 201.393806 
L 846.310788 198.622178 
L 846.583988 198.067852 
L 846.650968 198.622178 
L 847.419813 198.622178 
L 847.84197 198.393926 
L 847.884709 204.8228 
L 847.994084 198.622178 
L 848.254204 197.415704 
L 848.468862 198.393926 
L 848.679612 197.741778 
L 848.801731 198.622178 
L 848.892184 196.430961 
L 848.931317 198.622178 
L 849.489851 198.622178 
L 849.74553 198.444794 
L 850.112482 198.622178 
L 850.253297 198.246215 
L 850.578099 198.657394 
L 850.71393 198.622178 
L 850.877353 199.535185 
L 850.911082 198.577506 
L 851.266054 198.622178 
L 851.876531 197.792646 
L 852.067023 198.622178 
L 852.300792 198.232193 
L 852.483657 199.535185 
L 852.547721 194.644076 
L 852.624462 198.622178 
L 852.820141 198.246215 
L 853.068306 198.785215 
L 853.182557 198.622178 
L 853.272 197.676563 
L 853.340784 202.698102 
L 853.382489 197.904815 
L 853.414769 198.650546 
L 853.596387 206.400671 
L 853.725553 198.195347 
L 853.828962 197.741778 
L 853.864513 199.535185 
L 853.929082 198.622178 
L 854.081488 198.622178 
L 854.191826 198.394252 
L 854.21916 198.556963 
L 854.328624 198.723913 
L 855.024353 198.817496 
L 855.087444 198.291213 
L 855.171936 198.622178 
L 856.507112 198.622178 
L 856.854542 198.39197 
L 857.246755 198.622178 
L 858.112859 198.622178 
L 858.349767 198.232193 
L 858.811623 198.622178 
L 859.103735 216.84971 
L 859.215008 209.502939 
L 859.249166 198.067852 
L 859.462941 198.3861 
L 859.502339 198.067852 
L 859.58683 198.622178 
L 859.632604 198.365232 
L 859.701742 196.274446 
L 860.274426 198.622178 
L 860.398197 204.426294 
L 860.551288 194.644076 
L 860.564264 198.371101 
L 860.639112 198.622178 
L 860.92945 197.743409 
L 861.033119 198.622178 
L 861.382913 198.465988 
L 861.477109 198.622178 
L 861.830331 198.622178 
L 862.046655 201.067732 
L 862.154392 198.622178 
L 862.447534 198.473162 
L 863.198462 198.622178 
L 864.025546 198.723587 
L 864.071457 198.622178 
L 864.365155 198.622178 
L 864.731942 188.670402 
L 864.830763 208.769598 
L 864.97373 207.491389 
L 865.047361 205.853519 
L 865.060053 198.622178 
L 865.328348 199.535185 
L 865.59924 194.644076 
L 866.039096 198.622178 
L 866.332289 198.622178 
L 866.642634 198.804453 
L 866.64735 198.724565 
L 866.743669 198.622178 
L 867.02915 198.654785 
L 867.037981 198.365232 
L 867.057177 228.39501 
L 867.239376 198.267735 
L 867.311308 223.730196 
L 867.313777 169.04499 
L 867.464876 201.589451 
L 867.589303 198.622178 
L 868.291465 198.622178 
L 868.913175 198.426533 
L 869.138548 198.622178 
L 869.392377 200.35037 
L 869.589156 198.246215 
L 869.614308 198.622178 
L 869.8482 198.654785 
L 870.009414 190.568152 
L 870.177529 198.622178 
L 870.337025 198.622178 
L 870.500009 209.211102 
L 870.777169 198.389361 
L 871.148118 197.357011 
L 871.621991 197.41603 
L 871.740447 196.308357 
L 871.816018 198.716413 
L 871.839509 198.462728 
L 871.972781 199.535185 
L 872.034499 198.622178 
L 872.446555 198.230889 
L 872.858676 198.622178 
L 872.901812 198.260888 
L 873.683165 194.644076 
L 873.831343 198.645329 
L 874.370308 198.283713 
L 874.47652 198.067852 
L 874.604502 198.459141 
L 874.686482 197.904815 
L 874.698957 198.230889 
L 874.717473 190.568152 
L 874.781957 199.209111 
L 874.871645 198.622178 
L 875.343602 198.622178 
L 875.853473 208.043106 
L 876.238856 197.741778 
L 876.363137 199.306933 
L 876.516407 198.622178 
L 876.520599 199.698222 
L 876.568265 190.568152 
L 876.777977 190.568152 
L 876.93357 206.871848 
L 876.961913 198.585658 
L 877.266264 198.459141 
L 877.857295 198.622178 
L 878.138967 198.448054 
L 878.77024 198.730108 
L 879.048372 198.834452 
L 879.099309 198.441533 
L 879.27095 198.726848 
L 879.283156 198.622178 
L 879.301818 196.630192 
L 879.583594 198.117741 
L 880.25509 198.459141 
L 880.266182 198.622178 
L 880.963171 198.197303 
L 881.180684 197.50407 
L 881.558256 198.622178 
L 881.647897 207.313026 
L 881.931037 197.08963 
L 881.962679 200.35037 
L 882.011894 197.08963 
L 882.200611 199.110963 
L 882.207748 194.171921 
L 882.308991 197.806015 
L 882.40069 197.582002 
L 882.654943 198.622178 
L 882.672185 198.40273 
L 882.908753 198.622178 
L 883.714806 198.622178 
L 884.489433 197.904815 
L 884.829212 196.905725 
L 884.887857 198.622178 
L 885.438093 197.872208 
L 885.742789 198.230889 
L 886.085928 196.437809 
L 886.400385 198.659676 
L 886.456939 198.574245 
L 886.763542 198.622178 
L 887.2497 207.897025 
L 887.647195 197.08963 
L 887.687744 198.355123 
L 887.89123 200.35037 
L 887.94136 198.176435 
L 888.888642 197.904815 
L 889.138658 198.622178 
L 889.242072 198.163392 
L 890.12183 198.622178 
L 890.373356 198.246215 
L 890.670726 198.723913 
L 891.47516 198.832169 
L 891.818332 198.263497 
L 891.937025 198.622178 
L 892.49832 198.361319 
L 892.690365 197.533417 
L 892.974538 198.622178 
L 893.251976 198.230889 
L 893.369583 206.583599 
L 893.447816 198.459467 
L 893.935485 196.225208 
L 893.962605 200.808177 
L 894.015766 197.08963 
L 894.635711 200.35037 
L 894.654053 198.232193 
L 894.693781 198.58957 
L 894.842497 198.361319 
L 894.873223 198.667502 
L 894.915807 197.673303 
L 894.919162 198.622178 
L 895.878745 198.622178 
L 896.176635 201.589451 
L 896.275668 197.08963 
L 896.327682 198.655111 
L 897.281591 198.622178 
L 898.016717 198.232193 
L 898.899124 193.828891 
L 899.027714 196.763556 
L 899.164318 207.167271 
L 899.281547 198.067852 
L 899.468986 199.766697 
L 899.593233 198.328711 
L 899.635293 198.817822 
L 899.799726 198.475445 
L 900.367001 198.652829 
L 900.503563 198.246215 
L 900.847194 198.622178 
L 900.998137 197.905141 
L 901.322515 198.622178 
L 901.579662 198.622178 
L 902.15069 198.510987 
L 902.232798 198.246215 
L 902.393186 198.491748 
L 903.58069 198.622178 
L 903.668467 198.361319 
L 903.96857 198.723913 
L 904.076354 198.328711 
L 904.131172 198.836082 
L 904.223187 198.301973 
L 904.696743 198.274909 
L 904.78131 207.167271 
L 904.788711 197.08963 
L 906.112465 198.328711 
L 906.31614 200.154725 
L 906.816128 199.893866 
L 906.913684 194.830264 
L 907.134653 196.763556 
L 908.267169 218.702788 
L 910.505789 195.133187 
L 910.659169 198.836734 
L 916.190248 198.723913 
L 916.250319 221.840598 
L 916.392219 197.08963 
L 917.41824 198.322842 
L 919.270533 198.371753 
L 919.291635 198.485227 
L 919.292957 202.143776 
L 919.482444 198.228607 
L 919.559298 198.328711 
L 919.597615 196.763556 
L 919.616079 197.743409 
L 919.729948 198.361319 
L 920.851193 198.579462 
L 921.075197 196.926593 
L 921.120343 198.067852 
L 921.310334 197.08963 
L 921.612793 198.622178 
L 921.638101 221.567674 
L 922.111657 198.622178 
L 922.247021 198.361319 
L 923.089336 198.622178 
L 924.441519 198.622178 
L 924.958305 198.068178 
L 925.891531 198.361319 
L 926.177819 197.987312 
L 927.340283 219.658185 
L 927.724458 198.407621 
L 928.25211 198.198282 
L 928.543051 198.469249 
L 928.870705 198.204477 
L 928.871474 198.970751 
L 928.981534 198.725869 
L 929.056472 198.848473 
L 929.085717 198.246215 
L 929.875509 198.205129 
L 929.98302 198.421968 
L 931.057665 198.156544 
L 931.185703 182.416304 
L 931.186128 197.08963 
L 931.312504 198.361319 
L 931.848061 198.582397 
L 931.897323 197.904815 
L 932.032974 221.840598 
L 933.50889 182.416304 
L 933.66032 198.378275 
L 933.769497 197.882642 
L 933.885211 197.952748 
L 933.915008 198.500552 
L 934.021744 198.230889 
L 934.159321 198.230889 
L 934.387408 198.556963 
L 934.437864 156.760807 
L 934.851142 198.622178 
L 935.062335 198.556963 
L 935.138364 198.106329 
L 935.361188 198.176435 
L 936.142356 198.622178 
L 936.489532 198.230889 
L 936.537349 198.419034 
L 937.778269 198.410556 
L 937.796266 198.622178 
L 937.939875 198.475771 
L 938.090129 198.02318 
L 938.123079 196.113039 
L 938.676761 198.035245 
L 938.746663 221.840598 
L 938.801009 198.58957 
L 938.938935 200.024296 
L 939.003834 196.763556 
L 939.190016 197.848078 
L 939.20529 199.209111 
L 939.486056 198.022202 
L 939.640667 174.342387 
L 939.803434 198.2948 
L 940.405137 197.905141 
L 940.568041 198.671089 
L 941.055724 198.538703 
L 941.251044 198.232193 
L 941.352301 198.721956 
L 941.490694 198.361319 
L 941.807884 199.111289 
L 942.235114 197.08963 
L 942.997894 197.08963 
L 943.060848 198.361319 
L 943.697384 198.156544 
L 944.379108 190.568152 
L 944.596787 198.393926 
L 944.727926 221.840598 
L 944.859117 198.255345 
L 944.917781 198.329037 
L 947.167209 198.399469 
L 947.205913 197.987312 
L 947.399614 182.416304 
L 948.351296 207.897025 
L 950.428263 198.230889 
L 951.885629 198.622178 
L 952.99532 201.817702 
L 953.158464 198.695218 
L 953.379598 198.417403 
L 953.601789 198.841626 
L 953.973871 198.72163 
L 954.065684 198.393926 
L 954.619361 198.349254 
L 954.950281 198.622178 
L 955.428207 198.284691 
L 955.519416 198.622178 
L 956.035272 208.335268 
L 956.312757 198.377296 
L 956.399755 198.622178 
L 957.820669 198.622178 
L 957.924876 198.817822 
L 958.151457 198.622178 
L 958.360503 198.596092 
L 958.573178 198.817822 
L 958.85612 198.329037 
L 959.51947 198.246215 
L 960.361601 198.622178 
L 960.520314 198.817822 
L 960.565531 198.622178 
L 960.708215 198.817822 
L 960.786226 198.031332 
L 960.959707 198.622178 
L 961.13662 198.512291 
L 961.220243 198.817822 
L 961.295918 197.349511 
L 961.393644 198.622178 
L 961.633488 198.817822 
L 961.661421 208.043106 
L 962.189214 198.333276 
L 962.439956 198.450989 
L 963.415879 198.456858 
L 964.248221 198.246215 
L 964.54266 198.45751 
L 964.746708 198.336863 
L 966.38321 198.853038 
L 966.601738 198.721956 
L 966.632645 198.368166 
L 967.340602 198.39197 
L 967.555256 198.183608 
L 967.574952 206.072641 
L 967.623421 198.037853 
L 967.917714 198.650546 
L 970.18169 198.246215 
L 970.38021 198.494357 
L 970.994345 198.494357 
L 972.267256 198.329037 
L 972.321177 198.176435 
L 972.654914 198.671089 
L 973.071732 206.145355 
L 973.323484 198.241976 
L 973.477298 198.381861 
L 975.13039 197.415704 
L 976.830267 202.404635 
L 976.870717 196.763556 
L 976.9396 198.513921 
L 976.990155 198.423273 
L 977.331293 198.622178 
L 977.581733 198.452619 
L 977.720377 197.905141 
L 977.721481 198.622178 
L 977.794517 198.589897 
L 977.866803 198.742173 
L 978.258553 198.622178 
L 978.440819 198.176435 
L 978.727758 198.848799 
L 978.818225 198.235128 
L 978.938654 203.259601 
L 979.183341 198.622178 
L 979.35669 198.622178 
L 980.278702 198.258605 
L 980.469373 198.622178 
L 980.810219 198.442185 
L 980.995174 198.622178 
L 981.426487 198.452619 
L 981.468287 198.711196 
L 981.640055 198.622178 
L 981.840884 198.067852 
L 982.789171 198.230889 
L 983.019717 198.622178 
L 983.186439 197.08963 
L 983.271662 198.639786 
L 983.536069 198.406643 
L 983.670695 198.622178 
L 984.041532 198.329037 
L 984.043372 199.372148 
L 984.551955 198.622178 
L 984.575168 206.583599 
L 984.895425 198.622178 
L 986.905912 198.622178 
L 986.951799 198.293495 
L 986.983064 198.622178 
L 987.215403 198.671089 
L 987.524592 198.336863 
L 987.590024 196.763556 
L 987.616083 201.980739 
L 987.730126 198.371753 
L 987.755416 200.676444 
L 987.756265 198.622178 
L 989.747745 198.622178 
L 990.234682 198.382187 
L 990.300903 203.633934 
L 990.387136 198.622178 
L 990.613268 198.622178 
L 990.787878 198.067852 
L 990.994144 199.372148 
L 991.137639 198.723587 
L 991.538966 198.722283 
L 991.539835 198.853364 
L 991.56098 198.622178 
L 992.235289 193.124571 
L 992.238282 204.315429 
L 992.239098 200.937303 
L 993.346571 197.08963 
L 994.213152 198.622178 
L 994.586971 198.235128 
L 994.646442 198.659676 
L 995.028757 198.515226 
L 995.1477 198.622178 
L 995.402576 198.168935 
L 995.479039 198.622178 
L 995.920826 198.515226 
L 995.963305 202.276162 
L 996.218182 198.381861 
L 996.218182 198.381861 
" style="fill:none;stroke:#1f77b4;stroke-linecap:round;stroke-width:1.5;"/>
   </g>
   <g id="patch_3">
    <path d="M 144 345.6 
L 144 51.84 
" style="fill:none;"/>
   </g>
   <g id="patch_4">
    <path d="M 1036.8 345.6 
L 1036.8 51.84 
" style="fill:none;"/>
   </g>
   <g id="patch_5">
    <path d="M 144 345.6 
L 1036.8 345.6 
" style="fill:none;"/>
   </g>
   <g id="patch_6">
    <path d="M 144 51.84 
L 1036.8 51.84 
" style="fill:none;"/>
   </g>
   <g id="text_14">
    <!-- Change in Balance over Time -->
    <defs>
     <path d="M 30.609375 48.390625 
Q 23.390625 48.390625 19.1875 42.75 
Q 14.984375 37.109375 14.984375 27.296875 
Q 14.984375 17.484375 19.15625 11.84375 
Q 23.34375 6.203125 30.609375 6.203125 
Q 37.796875 6.203125 41.984375 11.859375 
Q 46.1875 17.53125 46.1875 27.296875 
Q 46.1875 37.015625 41.984375 42.703125 
Q 37.796875 48.390625 30.609375 48.390625 
z
M 30.609375 56 
Q 42.328125 56 49.015625 48.375 
Q 55.71875 40.765625 55.71875 27.296875 
Q 55.71875 13.875 49.015625 6.21875 
Q 42.328125 -1.421875 30.609375 -1.421875 
Q 18.84375 -1.421875 12.171875 6.21875 
Q 5.515625 13.875 5.515625 27.296875 
Q 5.515625 40.765625 12.171875 48.375 
Q 18.84375 56 30.609375 56 
z
" id="DejaVuSans-6f"/>
     <path d="M 2.984375 54.6875 
L 12.5 54.6875 
L 29.59375 8.796875 
L 46.6875 54.6875 
L 56.203125 54.6875 
L 35.6875 0 
L 23.484375 0 
z
" id="DejaVuSans-76"/>
     <path d="M -0.296875 72.90625 
L 61.375 72.90625 
L 61.375 64.59375 
L 35.5 64.59375 
L 35.5 0 
L 25.59375 0 
L 25.59375 64.59375 
L -0.296875 64.59375 
z
" id="DejaVuSans-54"/>
     <path d="M 52 44.1875 
Q 55.375 50.25 60.0625 53.125 
Q 64.75 56 71.09375 56 
Q 79.640625 56 84.28125 50.015625 
Q 88.921875 44.046875 88.921875 33.015625 
L 88.921875 0 
L 79.890625 0 
L 79.890625 32.71875 
Q 79.890625 40.578125 77.09375 44.375 
Q 74.3125 48.1875 68.609375 48.1875 
Q 61.625 48.1875 57.5625 43.546875 
Q 53.515625 38.921875 53.515625 30.90625 
L 53.515625 0 
L 44.484375 0 
L 44.484375 32.71875 
Q 44.484375 40.625 41.703125 44.40625 
Q 38.921875 48.1875 33.109375 48.1875 
Q 26.21875 48.1875 22.15625 43.53125 
Q 18.109375 38.875 18.109375 30.90625 
L 18.109375 0 
L 9.078125 0 
L 9.078125 54.6875 
L 18.109375 54.6875 
L 18.109375 46.1875 
Q 21.1875 51.21875 25.484375 53.609375 
Q 29.78125 56 35.6875 56 
Q 41.65625 56 45.828125 52.96875 
Q 50 49.953125 52 44.1875 
z
" id="DejaVuSans-6d"/>
    </defs>
    <g style="fill:#262626;" transform="translate(509.507891 45.84)scale(0.11 -0.11)">
     <use xlink:href="#DejaVuSans-43"/>
     <use x="69.824219" xlink:href="#DejaVuSans-68"/>
     <use x="133.203125" xlink:href="#DejaVuSans-61"/>
     <use x="194.482422" xlink:href="#DejaVuSans-6e"/>
     <use x="257.861328" xlink:href="#DejaVuSans-67"/>
     <use x="321.337891" xlink:href="#DejaVuSans-65"/>
     <use x="382.861328" xlink:href="#DejaVuSans-20"/>
     <use x="414.648438" xlink:href="#DejaVuSans-69"/>
     <use x="442.431641" xlink:href="#DejaVuSans-6e"/>
     <use x="505.810547" xlink:href="#DejaVuSans-20"/>
     <use x="537.597656" xlink:href="#DejaVuSans-42"/>
     <use x="606.201172" xlink:href="#DejaVuSans-61"/>
     <use x="667.480469" xlink:href="#DejaVuSans-6c"/>
     <use x="695.263672" xlink:href="#DejaVuSans-61"/>
     <use x="756.542969" xlink:href="#DejaVuSans-6e"/>
     <use x="819.921875" xlink:href="#DejaVuSans-63"/>
     <use x="874.902344" xlink:href="#DejaVuSans-65"/>
     <use x="936.425781" xlink:href="#DejaVuSans-20"/>
     <use x="968.212891" xlink:href="#DejaVuSans-6f"/>
     <use x="1029.394531" xlink:href="#DejaVuSans-76"/>
     <use x="1088.574219" xlink:href="#DejaVuSans-65"/>
     <use x="1150.097656" xlink:href="#DejaVuSans-72"/>
     <use x="1191.210938" xlink:href="#DejaVuSans-20"/>
     <use x="1222.998047" xlink:href="#DejaVuSans-54"/>
     <use x="1284.035156" xlink:href="#DejaVuSans-69"/>
     <use x="1311.818359" xlink:href="#DejaVuSans-6d"/>
     <use x="1409.230469" xlink:href="#DejaVuSans-65"/>
    </g>
   </g>
   <g id="legend_1">
    <g id="line2d_96">
     <path d="M 916.628125 64.938437 
L 936.628125 64.938437 
" style="fill:none;stroke:#1f77b4;stroke-linecap:round;stroke-width:1.5;"/>
    </g>
    <g id="line2d_97"/>
    <g id="text_15">
     <!-- Change_Balance -->
     <defs>
      <path d="M 50.984375 -16.609375 
L 50.984375 -23.578125 
L -0.984375 -23.578125 
L -0.984375 -16.609375 
z
" id="DejaVuSans-5f"/>
     </defs>
     <g style="fill:#262626;" transform="translate(944.628125 68.438437)scale(0.1 -0.1)">
      <use xlink:href="#DejaVuSans-43"/>
      <use x="69.824219" xlink:href="#DejaVuSans-68"/>
      <use x="133.203125" xlink:href="#DejaVuSans-61"/>
      <use x="194.482422" xlink:href="#DejaVuSans-6e"/>
      <use x="257.861328" xlink:href="#DejaVuSans-67"/>
      <use x="321.337891" xlink:href="#DejaVuSans-65"/>
      <use x="382.861328" xlink:href="#DejaVuSans-5f"/>
      <use x="432.861328" xlink:href="#DejaVuSans-42"/>
      <use x="501.464844" xlink:href="#DejaVuSans-61"/>
      <use x="562.744141" xlink:href="#DejaVuSans-6c"/>
      <use x="590.527344" xlink:href="#DejaVuSans-61"/>
      <use x="651.806641" xlink:href="#DejaVuSans-6e"/>
      <use x="715.185547" xlink:href="#DejaVuSans-63"/>
      <use x="770.166016" xlink:href="#DejaVuSans-65"/>
     </g>
    </g>
   </g>
  </g>
 </g>
 <defs>
  <clipPath id="p18bae9a1da">
   <rect height="293.76" width="892.8" x="144" y="51.84"/>
  </clipPath>
 </defs>
</svg>
