<?xml version="1.0" encoding="utf-8" standalone="no"?>
<!DOCTYPE svg PUBLIC "-//W3C//DTD SVG 1.1//EN"
  "http://www.w3.org/Graphics/SVG/1.1/DTD/svg11.dtd">
<!-- Created with matplotlib (http://matplotlib.org/) -->
<svg height="432pt" version="1.1" viewBox="0 0 1152 432" width="1152pt" xmlns="http://www.w3.org/2000/svg" xmlns:xlink="http://www.w3.org/1999/xlink">
 <defs>
  <style type="text/css">
*{stroke-linecap:butt;stroke-linejoin:round;}
  </style>
 </defs>
 <g id="figure_1">
  <g id="patch_1">
   <path d="M 0 432 
L 1152 432 
L 1152 0 
L 0 0 
z
" style="fill:#ffffff;"/>
  </g>
  <g id="axes_1">
   <g id="patch_2">
    <path d="M 144 345.6 
L 1036.8 345.6 
L 1036.8 51.84 
L 144 51.84 
z
" style="fill:#eaeaf2;"/>
   </g>
   <g id="matplotlib.axis_1">
    <g id="xtick_1">
     <g id="line2d_1">
      <path clip-path="url(#p65c7f62073)" d="M 243.055627 345.6 
L 243.055627 51.84 
" style="fill:none;stroke:#ffffff;stroke-linecap:round;stroke-width:0.8;"/>
     </g>
     <g id="line2d_2"/>
     <g id="text_1">
      <!-- 2013 -->
      <defs>
       <path d="M 19.1875 8.296875 
L 53.609375 8.296875 
L 53.609375 0 
L 7.328125 0 
L 7.328125 8.296875 
Q 12.9375 14.109375 22.625 23.890625 
Q 32.328125 33.6875 34.8125 36.53125 
Q 39.546875 41.84375 41.421875 45.53125 
Q 43.3125 49.21875 43.3125 52.78125 
Q 43.3125 58.59375 39.234375 62.25 
Q 35.15625 65.921875 28.609375 65.921875 
Q 23.96875 65.921875 18.8125 64.3125 
Q 13.671875 62.703125 7.8125 59.421875 
L 7.8125 69.390625 
Q 13.765625 71.78125 18.9375 73 
Q 24.125 74.21875 28.421875 74.21875 
Q 39.75 74.21875 46.484375 68.546875 
Q 53.21875 62.890625 53.21875 53.421875 
Q 53.21875 48.921875 51.53125 44.890625 
Q 49.859375 40.875 45.40625 35.40625 
Q 44.1875 33.984375 37.640625 27.21875 
Q 31.109375 20.453125 19.1875 8.296875 
z
" id="DejaVuSans-32"/>
       <path d="M 31.78125 66.40625 
Q 24.171875 66.40625 20.328125 58.90625 
Q 16.5 51.421875 16.5 36.375 
Q 16.5 21.390625 20.328125 13.890625 
Q 24.171875 6.390625 31.78125 6.390625 
Q 39.453125 6.390625 43.28125 13.890625 
Q 47.125 21.390625 47.125 36.375 
Q 47.125 51.421875 43.28125 58.90625 
Q 39.453125 66.40625 31.78125 66.40625 
z
M 31.78125 74.21875 
Q 44.046875 74.21875 50.515625 64.515625 
Q 56.984375 54.828125 56.984375 36.375 
Q 56.984375 17.96875 50.515625 8.265625 
Q 44.046875 -1.421875 31.78125 -1.421875 
Q 19.53125 -1.421875 13.0625 8.265625 
Q 6.59375 17.96875 6.59375 36.375 
Q 6.59375 54.828125 13.0625 64.515625 
Q 19.53125 74.21875 31.78125 74.21875 
z
" id="DejaVuSans-30"/>
       <path d="M 12.40625 8.296875 
L 28.515625 8.296875 
L 28.515625 63.921875 
L 10.984375 60.40625 
L 10.984375 69.390625 
L 28.421875 72.90625 
L 38.28125 72.90625 
L 38.28125 8.296875 
L 54.390625 8.296875 
L 54.390625 0 
L 12.40625 0 
z
" id="DejaVuSans-31"/>
       <path d="M 40.578125 39.3125 
Q 47.65625 37.796875 51.625 33 
Q 55.609375 28.21875 55.609375 21.1875 
Q 55.609375 10.40625 48.1875 4.484375 
Q 40.765625 -1.421875 27.09375 -1.421875 
Q 22.515625 -1.421875 17.65625 -0.515625 
Q 12.796875 0.390625 7.625 2.203125 
L 7.625 11.71875 
Q 11.71875 9.328125 16.59375 8.109375 
Q 21.484375 6.890625 26.8125 6.890625 
Q 36.078125 6.890625 40.9375 10.546875 
Q 45.796875 14.203125 45.796875 21.1875 
Q 45.796875 27.640625 41.28125 31.265625 
Q 36.765625 34.90625 28.71875 34.90625 
L 20.21875 34.90625 
L 20.21875 43.015625 
L 29.109375 43.015625 
Q 36.375 43.015625 40.234375 45.921875 
Q 44.09375 48.828125 44.09375 54.296875 
Q 44.09375 59.90625 40.109375 62.90625 
Q 36.140625 65.921875 28.71875 65.921875 
Q 24.65625 65.921875 20.015625 65.03125 
Q 15.375 64.15625 9.8125 62.3125 
L 9.8125 71.09375 
Q 15.4375 72.65625 20.34375 73.4375 
Q 25.25 74.21875 29.59375 74.21875 
Q 40.828125 74.21875 47.359375 69.109375 
Q 53.90625 64.015625 53.90625 55.328125 
Q 53.90625 49.265625 50.4375 45.09375 
Q 46.96875 40.921875 40.578125 39.3125 
z
" id="DejaVuSans-33"/>
      </defs>
      <g style="fill:#262626;" transform="translate(219.975436 368.40544)rotate(-30)scale(0.1 -0.1)">
       <use xlink:href="#DejaVuSans-32"/>
       <use x="63.623047" xlink:href="#DejaVuSans-30"/>
       <use x="127.246094" xlink:href="#DejaVuSans-31"/>
       <use x="190.869141" xlink:href="#DejaVuSans-33"/>
      </g>
     </g>
    </g>
    <g id="xtick_2">
     <g id="line2d_3">
      <path clip-path="url(#p65c7f62073)" d="M 393.472393 345.6 
L 393.472393 51.84 
" style="fill:none;stroke:#ffffff;stroke-linecap:round;stroke-width:0.8;"/>
     </g>
     <g id="line2d_4"/>
     <g id="text_2">
      <!-- 2014 -->
      <defs>
       <path d="M 37.796875 64.3125 
L 12.890625 25.390625 
L 37.796875 25.390625 
z
M 35.203125 72.90625 
L 47.609375 72.90625 
L 47.609375 25.390625 
L 58.015625 25.390625 
L 58.015625 17.1875 
L 47.609375 17.1875 
L 47.609375 0 
L 37.796875 0 
L 37.796875 17.1875 
L 4.890625 17.1875 
L 4.890625 26.703125 
z
" id="DejaVuSans-34"/>
      </defs>
      <g style="fill:#262626;" transform="translate(370.392203 368.40544)rotate(-30)scale(0.1 -0.1)">
       <use xlink:href="#DejaVuSans-32"/>
       <use x="63.623047" xlink:href="#DejaVuSans-30"/>
       <use x="127.246094" xlink:href="#DejaVuSans-31"/>
       <use x="190.869141" xlink:href="#DejaVuSans-34"/>
      </g>
     </g>
    </g>
    <g id="xtick_3">
     <g id="line2d_5">
      <path clip-path="url(#p65c7f62073)" d="M 543.889159 345.6 
L 543.889159 51.84 
" style="fill:none;stroke:#ffffff;stroke-linecap:round;stroke-width:0.8;"/>
     </g>
     <g id="line2d_6"/>
     <g id="text_3">
      <!-- 2015 -->
      <defs>
       <path d="M 10.796875 72.90625 
L 49.515625 72.90625 
L 49.515625 64.59375 
L 19.828125 64.59375 
L 19.828125 46.734375 
Q 21.96875 47.46875 24.109375 47.828125 
Q 26.265625 48.1875 28.421875 48.1875 
Q 40.625 48.1875 47.75 41.5 
Q 54.890625 34.8125 54.890625 23.390625 
Q 54.890625 11.625 47.5625 5.09375 
Q 40.234375 -1.421875 26.90625 -1.421875 
Q 22.3125 -1.421875 17.546875 -0.640625 
Q 12.796875 0.140625 7.71875 1.703125 
L 7.71875 11.625 
Q 12.109375 9.234375 16.796875 8.0625 
Q 21.484375 6.890625 26.703125 6.890625 
Q 35.15625 6.890625 40.078125 11.328125 
Q 45.015625 15.765625 45.015625 23.390625 
Q 45.015625 31 40.078125 35.4375 
Q 35.15625 39.890625 26.703125 39.890625 
Q 22.75 39.890625 18.8125 39.015625 
Q 14.890625 38.140625 10.796875 36.28125 
z
" id="DejaVuSans-35"/>
      </defs>
      <g style="fill:#262626;" transform="translate(520.808969 368.40544)rotate(-30)scale(0.1 -0.1)">
       <use xlink:href="#DejaVuSans-32"/>
       <use x="63.623047" xlink:href="#DejaVuSans-30"/>
       <use x="127.246094" xlink:href="#DejaVuSans-31"/>
       <use x="190.869141" xlink:href="#DejaVuSans-35"/>
      </g>
     </g>
    </g>
    <g id="xtick_4">
     <g id="line2d_7">
      <path clip-path="url(#p65c7f62073)" d="M 694.305925 345.6 
L 694.305925 51.84 
" style="fill:none;stroke:#ffffff;stroke-linecap:round;stroke-width:0.8;"/>
     </g>
     <g id="line2d_8"/>
     <g id="text_4">
      <!-- 2016 -->
      <defs>
       <path d="M 33.015625 40.375 
Q 26.375 40.375 22.484375 35.828125 
Q 18.609375 31.296875 18.609375 23.390625 
Q 18.609375 15.53125 22.484375 10.953125 
Q 26.375 6.390625 33.015625 6.390625 
Q 39.65625 6.390625 43.53125 10.953125 
Q 47.40625 15.53125 47.40625 23.390625 
Q 47.40625 31.296875 43.53125 35.828125 
Q 39.65625 40.375 33.015625 40.375 
z
M 52.59375 71.296875 
L 52.59375 62.3125 
Q 48.875 64.0625 45.09375 64.984375 
Q 41.3125 65.921875 37.59375 65.921875 
Q 27.828125 65.921875 22.671875 59.328125 
Q 17.53125 52.734375 16.796875 39.40625 
Q 19.671875 43.65625 24.015625 45.921875 
Q 28.375 48.1875 33.59375 48.1875 
Q 44.578125 48.1875 50.953125 41.515625 
Q 57.328125 34.859375 57.328125 23.390625 
Q 57.328125 12.15625 50.6875 5.359375 
Q 44.046875 -1.421875 33.015625 -1.421875 
Q 20.359375 -1.421875 13.671875 8.265625 
Q 6.984375 17.96875 6.984375 36.375 
Q 6.984375 53.65625 15.1875 63.9375 
Q 23.390625 74.21875 37.203125 74.21875 
Q 40.921875 74.21875 44.703125 73.484375 
Q 48.484375 72.75 52.59375 71.296875 
z
" id="DejaVuSans-36"/>
      </defs>
      <g style="fill:#262626;" transform="translate(671.225735 368.40544)rotate(-30)scale(0.1 -0.1)">
       <use xlink:href="#DejaVuSans-32"/>
       <use x="63.623047" xlink:href="#DejaVuSans-30"/>
       <use x="127.246094" xlink:href="#DejaVuSans-31"/>
       <use x="190.869141" xlink:href="#DejaVuSans-36"/>
      </g>
     </g>
    </g>
    <g id="xtick_5">
     <g id="line2d_9">
      <path clip-path="url(#p65c7f62073)" d="M 845.134792 345.6 
L 845.134792 51.84 
" style="fill:none;stroke:#ffffff;stroke-linecap:round;stroke-width:0.8;"/>
     </g>
     <g id="line2d_10"/>
     <g id="text_5">
      <!-- 2017 -->
      <defs>
       <path d="M 8.203125 72.90625 
L 55.078125 72.90625 
L 55.078125 68.703125 
L 28.609375 0 
L 18.3125 0 
L 43.21875 64.59375 
L 8.203125 64.59375 
z
" id="DejaVuSans-37"/>
      </defs>
      <g style="fill:#262626;" transform="translate(822.054602 368.40544)rotate(-30)scale(0.1 -0.1)">
       <use xlink:href="#DejaVuSans-32"/>
       <use x="63.623047" xlink:href="#DejaVuSans-30"/>
       <use x="127.246094" xlink:href="#DejaVuSans-31"/>
       <use x="190.869141" xlink:href="#DejaVuSans-37"/>
      </g>
     </g>
    </g>
    <g id="xtick_6">
     <g id="line2d_11">
      <path clip-path="url(#p65c7f62073)" d="M 995.551558 345.6 
L 995.551558 51.84 
" style="fill:none;stroke:#ffffff;stroke-linecap:round;stroke-width:0.8;"/>
     </g>
     <g id="line2d_12"/>
     <g id="text_6">
      <!-- 2018 -->
      <defs>
       <path d="M 31.78125 34.625 
Q 24.75 34.625 20.71875 30.859375 
Q 16.703125 27.09375 16.703125 20.515625 
Q 16.703125 13.921875 20.71875 10.15625 
Q 24.75 6.390625 31.78125 6.390625 
Q 38.8125 6.390625 42.859375 10.171875 
Q 46.921875 13.96875 46.921875 20.515625 
Q 46.921875 27.09375 42.890625 30.859375 
Q 38.875 34.625 31.78125 34.625 
z
M 21.921875 38.8125 
Q 15.578125 40.375 12.03125 44.71875 
Q 8.5 49.078125 8.5 55.328125 
Q 8.5 64.0625 14.71875 69.140625 
Q 20.953125 74.21875 31.78125 74.21875 
Q 42.671875 74.21875 48.875 69.140625 
Q 55.078125 64.0625 55.078125 55.328125 
Q 55.078125 49.078125 51.53125 44.71875 
Q 48 40.375 41.703125 38.8125 
Q 48.828125 37.15625 52.796875 32.3125 
Q 56.78125 27.484375 56.78125 20.515625 
Q 56.78125 9.90625 50.3125 4.234375 
Q 43.84375 -1.421875 31.78125 -1.421875 
Q 19.734375 -1.421875 13.25 4.234375 
Q 6.78125 9.90625 6.78125 20.515625 
Q 6.78125 27.484375 10.78125 32.3125 
Q 14.796875 37.15625 21.921875 38.8125 
z
M 18.3125 54.390625 
Q 18.3125 48.734375 21.84375 45.5625 
Q 25.390625 42.390625 31.78125 42.390625 
Q 38.140625 42.390625 41.71875 45.5625 
Q 45.3125 48.734375 45.3125 54.390625 
Q 45.3125 60.0625 41.71875 63.234375 
Q 38.140625 66.40625 31.78125 66.40625 
Q 25.390625 66.40625 21.84375 63.234375 
Q 18.3125 60.0625 18.3125 54.390625 
z
" id="DejaVuSans-38"/>
      </defs>
      <g style="fill:#262626;" transform="translate(972.471368 368.40544)rotate(-30)scale(0.1 -0.1)">
       <use xlink:href="#DejaVuSans-32"/>
       <use x="63.623047" xlink:href="#DejaVuSans-30"/>
       <use x="127.246094" xlink:href="#DejaVuSans-31"/>
       <use x="190.869141" xlink:href="#DejaVuSans-38"/>
      </g>
     </g>
    </g>
    <g id="xtick_7">
     <g id="line2d_13"/>
    </g>
    <g id="xtick_8">
     <g id="line2d_14"/>
    </g>
    <g id="xtick_9">
     <g id="line2d_15"/>
    </g>
    <g id="xtick_10">
     <g id="line2d_16"/>
    </g>
    <g id="xtick_11">
     <g id="line2d_17"/>
    </g>
    <g id="xtick_12">
     <g id="line2d_18"/>
    </g>
    <g id="xtick_13">
     <g id="line2d_19"/>
    </g>
    <g id="xtick_14">
     <g id="line2d_20"/>
    </g>
    <g id="xtick_15">
     <g id="line2d_21"/>
    </g>
    <g id="xtick_16">
     <g id="line2d_22"/>
    </g>
    <g id="xtick_17">
     <g id="line2d_23"/>
    </g>
    <g id="xtick_18">
     <g id="line2d_24"/>
    </g>
    <g id="xtick_19">
     <g id="line2d_25"/>
    </g>
    <g id="xtick_20">
     <g id="line2d_26"/>
    </g>
    <g id="xtick_21">
     <g id="line2d_27"/>
    </g>
    <g id="xtick_22">
     <g id="line2d_28"/>
    </g>
    <g id="xtick_23">
     <g id="line2d_29"/>
    </g>
    <g id="xtick_24">
     <g id="line2d_30"/>
    </g>
    <g id="xtick_25">
     <g id="line2d_31"/>
    </g>
    <g id="xtick_26">
     <g id="line2d_32"/>
    </g>
    <g id="xtick_27">
     <g id="line2d_33"/>
    </g>
    <g id="xtick_28">
     <g id="line2d_34"/>
    </g>
    <g id="xtick_29">
     <g id="line2d_35"/>
    </g>
    <g id="xtick_30">
     <g id="line2d_36"/>
    </g>
    <g id="xtick_31">
     <g id="line2d_37"/>
    </g>
    <g id="xtick_32">
     <g id="line2d_38"/>
    </g>
    <g id="xtick_33">
     <g id="line2d_39"/>
    </g>
    <g id="xtick_34">
     <g id="line2d_40"/>
    </g>
    <g id="xtick_35">
     <g id="line2d_41"/>
    </g>
    <g id="xtick_36">
     <g id="line2d_42"/>
    </g>
    <g id="xtick_37">
     <g id="line2d_43"/>
    </g>
    <g id="xtick_38">
     <g id="line2d_44"/>
    </g>
    <g id="xtick_39">
     <g id="line2d_45"/>
    </g>
    <g id="xtick_40">
     <g id="line2d_46"/>
    </g>
    <g id="xtick_41">
     <g id="line2d_47"/>
    </g>
    <g id="xtick_42">
     <g id="line2d_48"/>
    </g>
    <g id="xtick_43">
     <g id="line2d_49"/>
    </g>
    <g id="xtick_44">
     <g id="line2d_50"/>
    </g>
    <g id="xtick_45">
     <g id="line2d_51"/>
    </g>
    <g id="xtick_46">
     <g id="line2d_52"/>
    </g>
    <g id="xtick_47">
     <g id="line2d_53"/>
    </g>
    <g id="xtick_48">
     <g id="line2d_54"/>
    </g>
    <g id="xtick_49">
     <g id="line2d_55"/>
    </g>
    <g id="xtick_50">
     <g id="line2d_56"/>
    </g>
    <g id="xtick_51">
     <g id="line2d_57"/>
    </g>
    <g id="xtick_52">
     <g id="line2d_58"/>
    </g>
    <g id="xtick_53">
     <g id="line2d_59"/>
    </g>
    <g id="xtick_54">
     <g id="line2d_60"/>
    </g>
    <g id="xtick_55">
     <g id="line2d_61"/>
    </g>
    <g id="xtick_56">
     <g id="line2d_62"/>
    </g>
    <g id="xtick_57">
     <g id="line2d_63"/>
    </g>
    <g id="xtick_58">
     <g id="line2d_64"/>
    </g>
    <g id="xtick_59">
     <g id="line2d_65"/>
    </g>
    <g id="xtick_60">
     <g id="line2d_66"/>
    </g>
    <g id="xtick_61">
     <g id="line2d_67"/>
    </g>
    <g id="xtick_62">
     <g id="line2d_68"/>
    </g>
    <g id="xtick_63">
     <g id="line2d_69"/>
    </g>
    <g id="xtick_64">
     <g id="line2d_70"/>
    </g>
    <g id="xtick_65">
     <g id="line2d_71"/>
    </g>
    <g id="xtick_66">
     <g id="line2d_72"/>
    </g>
    <g id="xtick_67">
     <g id="line2d_73"/>
    </g>
    <g id="xtick_68">
     <g id="line2d_74"/>
    </g>
    <g id="xtick_69">
     <g id="line2d_75"/>
    </g>
    <g id="xtick_70">
     <g id="line2d_76"/>
    </g>
    <g id="xtick_71">
     <g id="line2d_77"/>
    </g>
    <g id="xtick_72">
     <g id="line2d_78"/>
    </g>
    <g id="xtick_73">
     <g id="line2d_79"/>
    </g>
    <g id="xtick_74">
     <g id="line2d_80"/>
    </g>
    <g id="xtick_75">
     <g id="line2d_81"/>
    </g>
    <g id="xtick_76">
     <g id="line2d_82"/>
    </g>
    <g id="xtick_77">
     <g id="line2d_83"/>
    </g>
    <g id="text_7">
     <!-- Year -->
     <defs>
      <path d="M -0.203125 72.90625 
L 10.40625 72.90625 
L 30.609375 42.921875 
L 50.6875 72.90625 
L 61.28125 72.90625 
L 35.5 34.71875 
L 35.5 0 
L 25.59375 0 
L 25.59375 34.71875 
z
" id="DejaVuSans-59"/>
      <path d="M 56.203125 29.59375 
L 56.203125 25.203125 
L 14.890625 25.203125 
Q 15.484375 15.921875 20.484375 11.0625 
Q 25.484375 6.203125 34.421875 6.203125 
Q 39.59375 6.203125 44.453125 7.46875 
Q 49.3125 8.734375 54.109375 11.28125 
L 54.109375 2.78125 
Q 49.265625 0.734375 44.1875 -0.34375 
Q 39.109375 -1.421875 33.890625 -1.421875 
Q 20.796875 -1.421875 13.15625 6.1875 
Q 5.515625 13.8125 5.515625 26.8125 
Q 5.515625 40.234375 12.765625 48.109375 
Q 20.015625 56 32.328125 56 
Q 43.359375 56 49.78125 48.890625 
Q 56.203125 41.796875 56.203125 29.59375 
z
M 47.21875 32.234375 
Q 47.125 39.59375 43.09375 43.984375 
Q 39.0625 48.390625 32.421875 48.390625 
Q 24.90625 48.390625 20.390625 44.140625 
Q 15.875 39.890625 15.1875 32.171875 
z
" id="DejaVuSans-65"/>
      <path d="M 34.28125 27.484375 
Q 23.390625 27.484375 19.1875 25 
Q 14.984375 22.515625 14.984375 16.5 
Q 14.984375 11.71875 18.140625 8.90625 
Q 21.296875 6.109375 26.703125 6.109375 
Q 34.1875 6.109375 38.703125 11.40625 
Q 43.21875 16.703125 43.21875 25.484375 
L 43.21875 27.484375 
z
M 52.203125 31.203125 
L 52.203125 0 
L 43.21875 0 
L 43.21875 8.296875 
Q 40.140625 3.328125 35.546875 0.953125 
Q 30.953125 -1.421875 24.3125 -1.421875 
Q 15.921875 -1.421875 10.953125 3.296875 
Q 6 8.015625 6 15.921875 
Q 6 25.140625 12.171875 29.828125 
Q 18.359375 34.515625 30.609375 34.515625 
L 43.21875 34.515625 
L 43.21875 35.40625 
Q 43.21875 41.609375 39.140625 45 
Q 35.0625 48.390625 27.6875 48.390625 
Q 23 48.390625 18.546875 47.265625 
Q 14.109375 46.140625 10.015625 43.890625 
L 10.015625 52.203125 
Q 14.9375 54.109375 19.578125 55.046875 
Q 24.21875 56 28.609375 56 
Q 40.484375 56 46.34375 49.84375 
Q 52.203125 43.703125 52.203125 31.203125 
z
" id="DejaVuSans-61"/>
      <path d="M 41.109375 46.296875 
Q 39.59375 47.171875 37.8125 47.578125 
Q 36.03125 48 33.890625 48 
Q 26.265625 48 22.1875 43.046875 
Q 18.109375 38.09375 18.109375 28.8125 
L 18.109375 0 
L 9.078125 0 
L 9.078125 54.6875 
L 18.109375 54.6875 
L 18.109375 46.1875 
Q 20.953125 51.171875 25.484375 53.578125 
Q 30.03125 56 36.53125 56 
Q 37.453125 56 38.578125 55.875 
Q 39.703125 55.765625 41.0625 55.515625 
z
" id="DejaVuSans-72"/>
     </defs>
     <g style="fill:#262626;" transform="translate(578.036172 382.564783)scale(0.11 -0.11)">
      <use xlink:href="#DejaVuSans-59"/>
      <use x="60.880859" xlink:href="#DejaVuSans-65"/>
      <use x="122.404297" xlink:href="#DejaVuSans-61"/>
      <use x="183.683594" xlink:href="#DejaVuSans-72"/>
     </g>
    </g>
   </g>
   <g id="matplotlib.axis_2">
    <g id="ytick_1">
     <g id="line2d_84">
      <path clip-path="url(#p65c7f62073)" d="M 144 332.247273 
L 1036.8 332.247273 
" style="fill:none;stroke:#ffffff;stroke-linecap:round;stroke-width:0.8;"/>
     </g>
     <g id="line2d_85"/>
     <g id="text_8">
      <!-- 0 -->
      <g style="fill:#262626;" transform="translate(134.1375 336.046491)scale(0.1 -0.1)">
       <use xlink:href="#DejaVuSans-30"/>
      </g>
     </g>
    </g>
    <g id="ytick_2">
     <g id="line2d_86">
      <path clip-path="url(#p65c7f62073)" d="M 144 276.824748 
L 1036.8 276.824748 
" style="fill:none;stroke:#ffffff;stroke-linecap:round;stroke-width:0.8;"/>
     </g>
     <g id="line2d_87"/>
     <g id="text_9">
      <!-- 2000 -->
      <g style="fill:#262626;" transform="translate(115.05 280.623966)scale(0.1 -0.1)">
       <use xlink:href="#DejaVuSans-32"/>
       <use x="63.623047" xlink:href="#DejaVuSans-30"/>
       <use x="127.246094" xlink:href="#DejaVuSans-30"/>
       <use x="190.869141" xlink:href="#DejaVuSans-30"/>
      </g>
     </g>
    </g>
    <g id="ytick_3">
     <g id="line2d_88">
      <path clip-path="url(#p65c7f62073)" d="M 144 221.402223 
L 1036.8 221.402223 
" style="fill:none;stroke:#ffffff;stroke-linecap:round;stroke-width:0.8;"/>
     </g>
     <g id="line2d_89"/>
     <g id="text_10">
      <!-- 4000 -->
      <g style="fill:#262626;" transform="translate(115.05 225.201441)scale(0.1 -0.1)">
       <use xlink:href="#DejaVuSans-34"/>
       <use x="63.623047" xlink:href="#DejaVuSans-30"/>
       <use x="127.246094" xlink:href="#DejaVuSans-30"/>
       <use x="190.869141" xlink:href="#DejaVuSans-30"/>
      </g>
     </g>
    </g>
    <g id="ytick_4">
     <g id="line2d_90">
      <path clip-path="url(#p65c7f62073)" d="M 144 165.979698 
L 1036.8 165.979698 
" style="fill:none;stroke:#ffffff;stroke-linecap:round;stroke-width:0.8;"/>
     </g>
     <g id="line2d_91"/>
     <g id="text_11">
      <!-- 6000 -->
      <g style="fill:#262626;" transform="translate(115.05 169.778916)scale(0.1 -0.1)">
       <use xlink:href="#DejaVuSans-36"/>
       <use x="63.623047" xlink:href="#DejaVuSans-30"/>
       <use x="127.246094" xlink:href="#DejaVuSans-30"/>
       <use x="190.869141" xlink:href="#DejaVuSans-30"/>
      </g>
     </g>
    </g>
    <g id="ytick_5">
     <g id="line2d_92">
      <path clip-path="url(#p65c7f62073)" d="M 144 110.557172 
L 1036.8 110.557172 
" style="fill:none;stroke:#ffffff;stroke-linecap:round;stroke-width:0.8;"/>
     </g>
     <g id="line2d_93"/>
     <g id="text_12">
      <!-- 8000 -->
      <g style="fill:#262626;" transform="translate(115.05 114.356391)scale(0.1 -0.1)">
       <use xlink:href="#DejaVuSans-38"/>
       <use x="63.623047" xlink:href="#DejaVuSans-30"/>
       <use x="127.246094" xlink:href="#DejaVuSans-30"/>
       <use x="190.869141" xlink:href="#DejaVuSans-30"/>
      </g>
     </g>
    </g>
    <g id="ytick_6">
     <g id="line2d_94">
      <path clip-path="url(#p65c7f62073)" d="M 144 55.134647 
L 1036.8 55.134647 
" style="fill:none;stroke:#ffffff;stroke-linecap:round;stroke-width:0.8;"/>
     </g>
     <g id="line2d_95"/>
     <g id="text_13">
      <!-- 10000 -->
      <g style="fill:#262626;" transform="translate(108.6875 58.933866)scale(0.1 -0.1)">
       <use xlink:href="#DejaVuSans-31"/>
       <use x="63.623047" xlink:href="#DejaVuSans-30"/>
       <use x="127.246094" xlink:href="#DejaVuSans-30"/>
       <use x="190.869141" xlink:href="#DejaVuSans-30"/>
       <use x="254.492188" xlink:href="#DejaVuSans-30"/>
      </g>
     </g>
    </g>
    <g id="text_14">
     <!-- Balance -->
     <defs>
      <path d="M 19.671875 34.8125 
L 19.671875 8.109375 
L 35.5 8.109375 
Q 43.453125 8.109375 47.28125 11.40625 
Q 51.125 14.703125 51.125 21.484375 
Q 51.125 28.328125 47.28125 31.5625 
Q 43.453125 34.8125 35.5 34.8125 
z
M 19.671875 64.796875 
L 19.671875 42.828125 
L 34.28125 42.828125 
Q 41.5 42.828125 45.03125 45.53125 
Q 48.578125 48.25 48.578125 53.8125 
Q 48.578125 59.328125 45.03125 62.0625 
Q 41.5 64.796875 34.28125 64.796875 
z
M 9.8125 72.90625 
L 35.015625 72.90625 
Q 46.296875 72.90625 52.390625 68.21875 
Q 58.5 63.53125 58.5 54.890625 
Q 58.5 48.1875 55.375 44.234375 
Q 52.25 40.28125 46.1875 39.3125 
Q 53.46875 37.75 57.5 32.78125 
Q 61.53125 27.828125 61.53125 20.40625 
Q 61.53125 10.640625 54.890625 5.3125 
Q 48.25 0 35.984375 0 
L 9.8125 0 
z
" id="DejaVuSans-42"/>
      <path d="M 9.421875 75.984375 
L 18.40625 75.984375 
L 18.40625 0 
L 9.421875 0 
z
" id="DejaVuSans-6c"/>
      <path d="M 54.890625 33.015625 
L 54.890625 0 
L 45.90625 0 
L 45.90625 32.71875 
Q 45.90625 40.484375 42.875 44.328125 
Q 39.84375 48.1875 33.796875 48.1875 
Q 26.515625 48.1875 22.3125 43.546875 
Q 18.109375 38.921875 18.109375 30.90625 
L 18.109375 0 
L 9.078125 0 
L 9.078125 54.6875 
L 18.109375 54.6875 
L 18.109375 46.1875 
Q 21.34375 51.125 25.703125 53.5625 
Q 30.078125 56 35.796875 56 
Q 45.21875 56 50.046875 50.171875 
Q 54.890625 44.34375 54.890625 33.015625 
z
" id="DejaVuSans-6e"/>
      <path d="M 48.78125 52.59375 
L 48.78125 44.1875 
Q 44.96875 46.296875 41.140625 47.34375 
Q 37.3125 48.390625 33.40625 48.390625 
Q 24.65625 48.390625 19.8125 42.84375 
Q 14.984375 37.3125 14.984375 27.296875 
Q 14.984375 17.28125 19.8125 11.734375 
Q 24.65625 6.203125 33.40625 6.203125 
Q 37.3125 6.203125 41.140625 7.25 
Q 44.96875 8.296875 48.78125 10.40625 
L 48.78125 2.09375 
Q 45.015625 0.34375 40.984375 -0.53125 
Q 36.96875 -1.421875 32.421875 -1.421875 
Q 20.0625 -1.421875 12.78125 6.34375 
Q 5.515625 14.109375 5.515625 27.296875 
Q 5.515625 40.671875 12.859375 48.328125 
Q 20.21875 56 33.015625 56 
Q 37.15625 56 41.109375 55.140625 
Q 45.0625 54.296875 48.78125 52.59375 
z
" id="DejaVuSans-63"/>
     </defs>
     <g style="fill:#262626;" transform="translate(102.399844 220.656406)rotate(-90)scale(0.11 -0.11)">
      <use xlink:href="#DejaVuSans-42"/>
      <use x="68.603516" xlink:href="#DejaVuSans-61"/>
      <use x="129.882812" xlink:href="#DejaVuSans-6c"/>
      <use x="157.666016" xlink:href="#DejaVuSans-61"/>
      <use x="218.945312" xlink:href="#DejaVuSans-6e"/>
      <use x="282.324219" xlink:href="#DejaVuSans-63"/>
      <use x="337.304688" xlink:href="#DejaVuSans-65"/>
     </g>
    </g>
   </g>
   <g id="line2d_96">
    <path clip-path="url(#p65c7f62073)" d="M 184.581818 276.824748 
L 184.849111 179.835329 
L 184.874147 116.099425 
L 185.250504 268.511369 
L 185.329581 332.247273 
L 334.583421 222.427539 
L 334.895683 108.949919 
L 335.131697 222.427539 
L 335.149893 332.247273 
L 393.545391 271.282495 
L 394.499772 267.4661 
L 397.235639 263.649705 
L 400.477126 259.83331 
L 402.994933 256.016915 
L 405.835575 261.539492 
L 405.881164 263.174457 
L 405.978537 259.358062 
L 406.224438 259.662886 
L 408.955526 255.846491 
L 414.686001 248.2137 
L 417.547783 249.336007 
L 417.595185 245.519611 
L 417.600174 246.378661 
L 417.681287 247.764224 
L 420.601083 243.947829 
L 423.159355 240.131434 
L 426.194258 236.315039 
L 429.083628 232.498643 
L 430.225266 233.482393 
L 430.306732 234.933355 
L 430.420694 241.831242 
L 431.817344 238.014847 
L 435.0838 234.198452 
L 440.742339 226.565662 
L 442.696645 226.842775 
L 442.915851 232.455414 
L 443.459032 228.639019 
L 446.612423 224.822624 
L 455.270506 213.373439 
L 455.329312 214.404297 
L 455.337148 216.236566 
L 455.674165 217.234172 
L 457.858203 213.417777 
L 466.767311 201.968591 
L 467.697967 202.661373 
L 467.805962 203.312588 
L 468.052745 225.758156 
L 469.430989 221.941761 
L 472.53219 218.125366 
L 475.141598 214.308971 
L 478.026346 210.492576 
L 480.500858 215.983839 
L 480.505413 221.12511 
L 480.655687 221.402223 
L 480.698347 224.056962 
L 481.000693 220.240566 
L 484.133517 216.424171 
L 484.964386 313.41359 
L 484.983751 186.496008 
L 485.264085 313.41359 
L 485.294429 216.424171 
L 486.963828 212.607776 
L 492.551862 204.974986 
L 493.228809 211.708546 
L 493.292913 213.613972 
L 493.46788 213.891085 
L 493.602886 216.149553 
L 495.566212 212.333158 
L 504.279853 200.883972 
L 505.642327 204.209324 
L 505.71766 206.279355 
L 505.949247 207.877187 
L 505.951503 213.272847 
L 506.106799 186.947147 
L 506.683254 186.939665 
L 506.901782 183.12327 
L 507.120424 181.745189 
L 509.693277 177.928794 
L 512.953118 174.112399 
L 515.662461 170.296004 
L 518.454959 171.950366 
L 518.563727 175.348044 
L 518.603763 171.531649 
L 518.617262 172.670582 
L 518.716271 172.648413 
L 520.0598 144.93715 
L 521.611946 141.120755 
L 524.470857 137.30436 
L 527.03035 133.487965 
L 529.90917 129.67157 
L 530.993963 132.985283 
L 531.068971 137.220118 
L 531.112156 145.379422 
L 531.175383 117.66816 
L 532.695963 113.851764 
L 534.646048 111.634863 
L 534.85984 111.77342 
L 535.252056 107.957025 
L 538.307368 104.14063 
L 539.371999 100.324235 
L 543.494819 100.254402 
L 543.576314 214.724917 
L 543.669967 214.946607 
L 543.844795 217.135797 
L 543.867961 220.133047 
L 545.529299 218.276392 
L 545.947758 218.692061 
L 546.526645 218.684025 
L 548.149444 172.143514 
L 548.370996 116.108015 
L 548.532278 124.421394 
L 548.54457 151.564022 
L 548.550475 124.421394 
L 548.801923 88.965388 
L 548.909794 116.108015 
L 549.663023 120.140558 
L 549.941086 116.108015 
L 553.832084 112.033351 
L 554.090196 108.708 
L 554.143841 108.985113 
L 556.484248 109.033607 
L 556.602584 110.334928 
L 557.22427 109.780703 
L 557.43623 106.086515 
L 560.744602 86.316746 
L 560.910792 86.171539 
L 561.73072 86.593858 
L 563.466656 86.711631 
L 565.730606 85.735086 
L 565.845059 84.36033 
L 565.866957 83.124408 
L 566.04965 82.317179 
L 566.122831 80.734312 
L 566.717267 81.149981 
L 566.829045 81.56565 
L 568.147276 81.467552 
L 568.185748 82.768873 
L 568.657632 85.657772 
L 568.83227 85.763075 
L 568.838408 85.657772 
L 572.918859 87.736116 
L 573.019671 88.428898 
L 573.142958 88.844567 
L 576.417198 86.073441 
L 577.417649 87.459004 
L 580.600579 88.993931 
L 580.611725 90.295252 
L 580.684701 90.186623 
L 580.762967 90.184406 
L 581.762555 90.442398 
L 581.842094 91.827961 
L 582.217959 92.24363 
L 582.589613 92.38191 
L 582.907007 92.659022 
L 583.053622 99.586838 
L 583.425887 100.141063 
L 584.659399 100.420947 
L 585.727589 100.919195 
L 586.146701 103.66261 
L 586.281769 100.919195 
L 586.787737 100.974618 
L 589.07658 102.44858 
L 589.767979 102.642559 
L 591.748433 103.33534 
L 593.132509 103.533476 
L 593.17443 104.834797 
L 593.236622 104.73947 
L 593.764912 104.949799 
L 594.12489 105.559446 
L 594.658703 105.763678 
L 595.282168 105.819655 
L 596.030264 110.946516 
L 596.552478 111.090337 
L 596.743036 114.20536 
L 597.73681 114.264385 
L 597.838204 115.25922 
L 598.469643 115.889374 
L 598.81701 116.581324 
L 599.722749 116.996993 
L 599.79107 116.581324 
L 599.855685 116.996993 
L 601.303918 117.440373 
L 602.372924 111.89812 
L 604.555159 111.94523 
L 604.56539 112.161655 
L 605.726737 112.159992 
L 605.860092 113.461313 
L 606.085112 113.362661 
L 607.293597 118.019815 
L 608.839089 118.546329 
L 610.377003 117.714992 
L 610.775472 116.052316 
L 610.787291 114.943865 
L 610.951936 113.28119 
L 612.150185 114.472774 
L 614.705877 115.359534 
L 617.429496 116.536986 
L 618.072359 116.524516 
L 618.146752 117.82556 
L 631.044178 117.727739 
L 631.170046 119.028783 
L 631.243174 116.713229 
L 636.918374 105.074499 
L 637.860329 94.821332 
L 637.968024 98.809814 
L 638.009826 97.424251 
L 638.85468 97.967392 
L 641.193523 106.029984 
L 642.087357 106.918129 
L 642.229274 98.855538 
L 642.253986 106.918129 
L 642.52675 112.62665 
L 642.765477 112.762158 
L 643.322529 114.705826 
L 643.65261 114.691139 
L 643.718503 115.049999 
L 643.897033 114.949408 
L 643.926462 116.250728 
L 647.971822 116.606541 
L 648.286659 107.623381 
L 648.614498 107.877493 
L 648.83306 106.658198 
L 649.123424 107.212977 
L 651.210046 105.446661 
L 651.670359 105.86233 
L 652.110868 110.711801 
L 654.083791 111.681696 
L 656.224196 111.574453 
L 656.300411 113.048415 
L 656.449511 112.383345 
L 659.550259 112.637457 
L 659.964043 112.708121 
L 662.445562 108.35773 
L 663.585493 108.576926 
L 667.791601 108.968763 
L 668.339361 104.520828 
L 668.606726 104.750555 
L 668.91562 104.649686 
L 669.000511 105.951006 
L 670.93467 106.181287 
L 671.456717 106.425977 
L 673.492771 106.824188 
L 673.714982 107.129012 
L 674.240038 102.729849 
L 674.318728 104.512792 
L 674.789959 105.095283 
L 674.814432 105.820763 
L 675.376086 106.031092 
L 678.427625 106.458954 
L 680.155405 103.035227 
L 681.167599 103.55038 
L 681.268692 104.851701 
L 681.44633 98.520786 
L 681.515142 98.518569 
L 682.266925 98.958069 
L 683.059881 99.046468 
L 683.862413 100.432031 
L 684.942771 100.552575 
L 685.401114 101.36507 
L 685.719867 101.464553 
L 685.882604 96.195534 
L 689.778282 97.026871 
L 691.344174 94.389591 
L 692.440033 94.745403 
L 693.221703 95.145 
L 693.963446 95.045793 
L 694.034137 96.347114 
L 695.63512 96.334367 
L 695.665374 92.870459 
L 695.88064 92.177678 
L 696.065121 99.936831 
L 697.056252 106.864647 
L 697.235058 105.534506 
L 699.317154 106.975492 
L 700.154701 113.349082 
L 700.345579 106.975492 
L 701.480354 109.030836 
L 702.908369 102.520352 
L 703.241937 104.595926 
L 705.034041 104.795724 
L 705.596415 105.987308 
L 705.839106 107.136217 
L 705.900979 105.88921 
L 706.296238 107.551886 
L 706.811707 107.45268 
L 706.841465 109.824764 
L 706.870135 109.821993 
L 706.978021 111.663406 
L 708.475129 109.446505 
L 709.699193 110.22242 
L 709.969562 111.607984 
L 712.171501 112.015893 
L 712.25851 112.475346 
L 712.667916 111.474692 
L 713.597685 111.764275 
L 713.779233 110.429978 
L 714.014989 110.607053 
L 714.893608 107.876662 
L 715.592543 108.430887 
L 716.337678 108.652023 
L 718.743077 108.635119 
L 719.018336 110.551907 
L 719.535236 112.214583 
L 720.367302 111.106133 
L 721.452778 111.660358 
L 722.506134 111.859048 
L 723.14437 112.274717 
L 726.160213 111.166266 
L 727.619545 111.546187 
L 728.997879 113.558025 
L 729.429874 113.671641 
L 730.344075 115.057204 
L 731.621921 115.19105 
L 731.704065 117.032463 
L 731.751256 116.93298 
L 732.104814 110.723717 
L 734.167449 110.969239 
L 735.475578 113.047584 
L 735.485757 111.384908 
L 736.14465 111.800577 
L 736.813336 111.983194 
L 738.935259 113.64587 
L 739.651241 114.990697 
L 740.398722 115.236219 
L 742.023573 115.418836 
L 742.569625 115.669069 
L 743.309169 115.807625 
L 743.5117 114.089527 
L 743.841228 113.993092 
L 744.067087 116.070328 
L 744.159242 116.067557 
L 744.587545 116.35714 
L 744.742746 117.742703 
L 745.164887 117.839692 
L 745.234786 118.013442 
L 746.089862 118.290555 
L 746.393142 119.179809 
L 746.577624 120.918136 
L 747.071754 122.074527 
L 748.009283 122.311182 
L 748.299824 122.963505 
L 748.445633 124.459913 
L 754.070631 125.330601 
L 756.136749 126.716164 
L 756.627483 127.295329 
L 756.76256 127.195846 
L 756.841871 127.717649 
L 756.842209 129.559062 
L 756.855235 129.556568 
L 758.537489 129.034765 
L 759.103488 129.627786 
L 761.396514 130.613199 
L 761.464663 130.997831 
L 761.678383 131.315956 
L 761.784227 131.659022 
L 761.822427 135.649166 
L 763.055634 135.755855 
L 763.466609 136.093932 
L 764.819525 136.144921 
L 766.145789 137.087104 
L 768.454201 137.273601 
L 768.666586 133.671137 
L 769.200614 133.662269 
L 769.205231 135.503682 
L 769.210893 135.407247 
L 769.330497 135.101038 
L 769.644075 124.231572 
L 769.671754 120.617469 
L 770.387488 121.310251 
L 771.963664 122.644271 
L 772.789143 121.310251 
L 772.835533 123.682058 
L 773.609858 123.739143 
L 773.893793 115.649948 
L 773.924862 123.965544 
L 774.606479 124.061425 
L 775.086061 120.397442 
L 775.350378 105.530627 
L 775.353984 101.866643 
L 775.587999 102.060622 
L 775.727374 102.476291 
L 775.742126 106.140274 
L 776.558343 106.278831 
L 780.087833 92.423199 
L 780.173387 106.278831 
L 780.450663 120.134462 
L 780.494416 133.990093 
L 780.83313 120.134462 
L 781.002616 120.294356 
L 781.090407 118.40999 
L 781.165539 101.59729 
L 781.300268 101.991344 
L 781.748008 104.472333 
L 781.789328 104.368693 
L 781.866506 105.075331 
L 781.980354 106.916744 
L 783.31329 120.772375 
L 783.654828 120.932269 
L 783.745933 120.24115 
L 783.877791 143.717023 
L 783.917962 143.715361 
L 784.022995 120.239488 
L 784.324925 120.433466 
L 784.522643 120.746327 
L 785.080796 121.194972 
L 785.458679 144.670845 
L 785.490703 121.194972 
L 786.433112 121.702919 
L 786.786645 120.871582 
L 786.805829 121.037849 
L 786.882621 121.401975 
L 786.949535 103.425402 
L 787.37646 106.701705 
L 787.461117 109.755209 
L 787.560441 111.833553 
L 787.99091 117.126404 
L 788.172453 117.209538 
L 788.201496 110.974504 
L 788.689306 111.002215 
L 788.799843 112.696759 
L 789.039062 112.69759 
L 789.605739 122.396532 
L 790.454137 123.891278 
L 791.272195 128.740749 
L 791.376861 123.891278 
L 791.402636 128.740749 
L 791.72147 128.88457 
L 792.124413 133.971804 
L 792.460066 124.142342 
L 792.55504 114.332555 
L 792.687498 114.7025 
L 793.027515 115.026999 
L 793.031851 110.122106 
L 793.075746 115.026999 
L 794.648483 114.941926 
L 794.755476 116.783339 
L 795.645695 101.401371 
L 807.08336 101.304382 
L 807.118498 103.145795 
L 817.304169 103.284352 
L 817.369623 103.700021 
L 817.552249 98.489472 
L 817.570656 100.678662 
L 817.699642 99.622585 
L 817.898548 107.656635 
L 818.297804 107.856987 
L 818.371696 108.1341 
L 818.664101 108.27127 
L 819.360804 108.354127 
L 819.663665 108.253258 
L 819.69834 108.531756 
L 819.703186 108.528985 
L 819.741201 117.535146 
L 819.893621 119.376559 
L 822.759094 120.030822 
L 823.032512 120.446491 
L 823.980191 118.22959 
L 824.663963 118.525269 
L 825.14398 119.079217 
L 825.446044 118.524992 
L 825.858559 118.746682 
L 826.051221 118.663548 
L 826.390408 118.846165 
L 827.115409 118.95701 
L 827.173366 119.493223 
L 827.373821 119.667527 
L 827.888103 119.871759 
L 827.977759 120.703097 
L 828.286195 120.536829 
L 828.356081 113.331901 
L 828.438224 114.465015 
L 828.524012 114.742127 
L 828.587768 112.267512 
L 828.603274 106.334253 
L 828.645634 106.583655 
L 829.13467 106.749922 
L 831.982748 106.955263 
L 832.104871 107.626984 
L 832.348201 107.623935 
L 832.560362 116.630096 
L 833.162539 116.796363 
L 834.069719 117.019716 
L 834.32245 117.235864 
L 834.45551 118.89854 
L 834.63837 118.981673 
L 834.740551 119.309775 
L 835.413186 119.55308 
L 835.539397 119.917206 
L 835.774104 109.161079 
L 835.845377 118.167239 
L 835.897276 111.426475 
L 836.062979 111.709684 
L 836.135522 112.347043 
L 836.675583 113.039824 
L 837.495855 113.246828 
L 837.537408 113.329961 
L 838.045651 113.413095 
L 838.054041 113.578531 
L 838.255823 113.942657 
L 838.477232 114.025791 
L 838.602431 114.277132 
L 838.772942 106.53516 
L 841.235836 108.14269 
L 841.47359 107.47762 
L 841.948255 111.911422 
L 842.144837 112.051087 
L 842.872682 112.209318 
L 843.622786 112.486153 
L 844.630783 104.15116 
L 845.058165 104.035881 
L 845.881289 105.421444 
L 846.250448 106.636306 
L 846.471637 137.057453 
L 847.074678 106.636306 
L 847.094716 137.057453 
L 847.320885 135.505622 
L 847.853587 135.594298 
L 848.467345 166.098579 
L 848.492925 135.677432 
L 848.620738 134.513559 
L 848.75188 132.241235 
L 849.027959 132.324369 
L 849.095646 132.878594 
L 849.726723 133.044862 
L 849.872594 133.118851 
L 850.299199 133.201985 
L 850.342389 133.479098 
L 850.452917 127.599876 
L 850.715779 127.68301 
L 850.932699 128.79146 
L 851.145671 129.068573 
L 851.360483 129.983045 
L 851.400028 131.928375 
L 852.222823 132.094643 
L 852.735941 132.41166 
L 853.201428 132.86751 
L 853.366574 132.950644 
L 853.400658 132.257862 
L 853.759372 132.462094 
L 854.376283 132.545228 
L 854.568782 133.333336 
L 854.805015 133.41647 
L 854.989807 133.831031 
L 855.054546 133.138249 
L 855.132096 136.602157 
L 855.329838 136.685291 
L 855.580619 137.087935 
L 855.696073 137.032513 
L 855.786459 137.115646 
L 855.855968 138.002407 
L 855.898113 134.621633 
L 855.930732 135.86864 
L 856.114265 135.927665 
L 856.170867 129.400277 
L 856.244792 129.483411 
L 856.349291 129.929285 
L 856.385217 130.760623 
L 856.450466 130.067841 
L 856.71598 130.234109 
L 856.85422 130.6495 
L 857.621037 130.646452 
L 857.706419 131.010855 
L 859.406759 131.343391 
L 859.803106 131.622166 
L 860.917743 131.871567 
L 861.384466 132.369261 
L 861.679657 132.452395 
L 861.82662 107.881096 
L 862.082461 108.719084 
L 862.283966 109.657942 
L 862.987762 111.81942 
L 863.142467 106.96995 
L 863.231216 110.730368 
L 863.331723 110.813502 
L 863.629375 112.342332 
L 863.982856 112.425466 
L 864.078045 112.641337 
L 864.653593 112.807604 
L 864.762466 110.812393 
L 867.367181 111.493259 
L 867.467044 123.107326 
L 867.499297 114.566715 
L 867.51444 114.649849 
L 867.611518 113.957067 
L 867.69875 100.440345 
L 867.969874 100.523479 
L 868.012114 99.830697 
L 868.040007 100.024676 
L 868.688112 104.874147 
L 869.697525 105.103319 
L 869.716923 105.404817 
L 869.901043 80.185629 
L 869.91104 80.569984 
L 870.026333 105.789173 
L 870.128919 105.872306 
L 870.254657 103.433715 
L 870.964219 103.599983 
L 871.592482 103.683117 
L 871.82023 103.932518 
L 872.076734 104.015652 
L 872.175333 102.630089 
L 872.537362 103.448125 
L 872.700275 103.503548 
L 872.870162 110.569643 
L 873.196041 110.73591 
L 873.476121 101.820089 
L 873.85098 102.101081 
L 874.329847 103.259411 
L 874.449552 104.367585 
L 874.549658 107.972266 
L 874.684335 108.190908 
L 874.746703 107.498126 
L 875.162291 107.58126 
L 875.163101 107.99582 
L 875.623157 108.494623 
L 876.412744 108.884798 
L 876.562484 112.348706 
L 877.107129 112.412164 
L 877.426636 113.558856 
L 877.523117 121.650545 
L 877.613751 121.234876 
L 878.605926 121.401144 
L 878.995371 113.47794 
L 879.120962 114.309277 
L 879.275848 113.810475 
L 879.280083 113.893608 
L 879.328252 113.062271 
L 879.697407 126.917902 
L 879.726049 119.990086 
L 880.317795 120.325947 
L 880.630867 120.630216 
L 880.915508 120.71335 
L 881.221039 120.944462 
L 881.834497 121.019005 
L 881.885972 120.921739 
L 882.090615 121.235708 
L 882.37536 123.011722 
L 883.053934 123.523549 
L 883.065142 123.745239 
L 883.769477 123.828373 
L 883.989283 124.272585 
L 884.46142 125.389072 
L 884.829253 118.086323 
L 885.328439 125.446434 
L 885.735565 126.142264 
L 887.332903 126.308531 
L 887.676263 127.001313 
L 887.735527 128.958836 
L 888.291562 129.04197 
L 888.599469 129.762463 
L 888.946225 130.178132 
L 889.321146 132.168909 
L 889.63098 132.375912 
L 890.122262 132.459046 
L 890.523946 124.659988 
L 890.581631 126.35564 
L 890.770553 126.438774 
L 890.821212 125.053211 
L 891.778478 125.515158 
L 892.135632 126.87301 
L 893.21982 127.429175 
L 893.27884 127.738987 
L 893.579344 128.224765 
L 894.580081 128.126113 
L 894.739045 128.347803 
L 894.858988 128.735761 
L 895.266262 128.818894 
L 895.907436 130.723212 
L 896.187799 130.806346 
L 896.189425 131.222015 
L 896.306645 130.587427 
L 896.363924 123.904579 
L 896.385702 124.193885 
L 896.878511 124.415298 
L 896.905917 126.535486 
L 896.959638 124.760857 
L 897.586117 126.14642 
L 897.644799 123.885736 
L 897.795082 123.996581 
L 897.872556 125.235551 
L 899.143281 125.484952 
L 899.243358 123.046361 
L 899.29592 124.431925 
L 901.002757 124.570204 
L 901.894464 124.984764 
L 902.037511 130.804129 
L 902.043592 129.695679 
L 902.162453 129.141454 
L 902.280918 121.962574 
L 902.470331 122.516799 
L 902.595889 121.627268 
L 902.638391 121.959803 
L 902.804557 121.876669 
L 903.41751 122.141589 
L 903.515813 122.446413 
L 904.015599 122.932191 
L 904.343396 124.002954 
L 905.263273 124.346851 
L 905.425351 124.749496 
L 906.714072 125.026608 
L 907.126259 125.328107 
L 907.181654 125.660642 
L 907.274639 125.56199 
L 907.753186 125.917248 
L 907.838645 126.295507 
L 907.846123 119.116627 
L 909.38965 120.834726 
L 909.894908 119.61543 
L 909.993493 118.617825 
L 910.21679 124.140402 
L 911.361242 125.803078 
L 913.623456 108.820785 
L 913.778452 111.869024 
L 919.428529 111.76289 
L 919.571925 92.113942 
L 920.608759 93.499505 
L 922.480574 93.837028 
L 922.503235 94.332505 
L 922.640024 91.422823 
L 922.694718 91.806624 
L 922.811103 92.556768 
L 922.944831 95.049396 
L 924.304258 95.633826 
L 924.34988 97.157946 
L 924.541874 97.712171 
L 924.628544 99.097734 
L 924.873095 100.218378 
L 925.351642 80.801373 
L 925.488432 80.884507 
L 926.339625 81.189331 
L 928.228292 81.355598 
L 929.171354 81.909546 
L 929.382212 82.21437 
L 929.460659 82.747535 
L 930.635375 83.370207 
L 931.023598 65.575974 
L 931.556811 65.841448 
L 931.850819 66.284828 
L 932.181926 66.497928 
L 932.293923 67.027767 
L 932.399204 66.913597 
L 933.19732 67.316241 
L 933.305964 67.753802 
L 934.391935 68.007083 
L 934.521322 68.485934 
L 934.521752 82.341565 
L 934.64946 83.727128 
L 935.240443 84.148894 
L 935.377524 84.841675 
L 936.868995 65.192727 
L 937.132348 79.338773 
L 937.526281 81.30461 
L 937.807759 81.858835 
L 938.225393 117.517687 
L 938.515642 117.739378 
L 938.740814 118.260903 
L 939.88105 118.805984 
L 939.929372 119.221653 
L 941.18337 119.477428 
L 941.201556 119.740408 
L 941.498517 120.031099 
L 941.531814 120.623289 
L 942.16197 123.420741 
L 942.216889 103.771793 
L 942.356268 103.882638 
L 942.421852 102.774187 
L 942.625431 105.177862 
L 942.791421 104.762193 
L 943.065396 105.622074 
L 943.229879 126.339291 
L 943.837923 126.700646 
L 944.002544 127.39315 
L 944.495367 127.434717 
L 944.692746 127.588792 
L 944.79507 128.003352 
L 944.934922 128.001689 
L 945.132931 128.291272 
L 945.255454 128.178487 
L 945.450167 127.845952 
L 945.687187 128.684218 
L 946.458006 130.069781 
L 946.521624 131.455344 
L 947.164869 131.760168 
L 947.853778 132.239019 
L 948.113172 139.443947 
L 948.319495 105.939368 
L 948.398128 106.530449 
L 950.671264 106.862707 
L 950.906118 107.757781 
L 951.86783 121.613412 
L 953.966686 113.814354 
L 954.651761 114.230023 
L 955.439412 114.451713 
L 956.560799 114.534847 
L 956.725663 111.015517 
L 956.892087 111.036577 
L 956.949127 111.258267 
L 957.17366 111.515428 
L 957.579298 111.407077 
L 957.642444 111.68419 
L 958.201956 111.961302 
L 958.536364 112.276379 
L 959.019328 112.359513 
L 959.111497 112.729458 
L 959.63279 112.812592 
L 959.876988 104.641095 
L 959.9132 104.724229 
L 960.001115 105.015474 
L 960.262865 105.098608 
L 962.483368 105.302009 
L 964.354983 106.120045 
L 964.433816 106.036911 
L 964.609126 106.622173 
L 964.787903 106.705307 
L 964.872408 106.881828 
L 964.94888 106.798694 
L 965.047636 107.963398 
L 965.290008 108.046532 
L 965.318235 107.963398 
L 965.85159 100.040194 
L 966.104975 100.36885 
L 967.932298 100.821098 
L 968.436039 101.446818 
L 970.089789 101.772425 
L 970.341852 101.657701 
L 971.057272 101.956705 
L 971.274187 102.23548 
L 971.294091 102.691331 
L 971.343071 96.442718 
L 971.640466 97.091439 
L 973.928302 97.150464 
L 974.128915 97.553108 
L 974.749522 97.74487 
L 976.035849 97.936632 
L 976.090338 98.26889 
L 976.427593 98.884912 
L 976.848804 98.926478 
L 977.021805 92.61607 
L 977.103209 92.769313 
L 977.258644 93.17556 
L 978.929159 93.462926 
L 980.646951 94.571376 
L 980.68269 91.440004 
L 980.757436 93.664941 
L 980.808524 93.840076 
L 981.546442 94.402615 
L 981.621364 95.178253 
L 981.694412 95.288821 
L 982.274477 95.353111 
L 982.56444 95.896529 
L 982.655861 95.78707 
L 982.777559 96.199136 
L 982.969644 92.341174 
L 983.024825 92.424308 
L 983.200001 92.507442 
L 984.13173 92.590575 
L 984.324411 92.98269 
L 984.668849 93.065824 
L 984.855754 93.385057 
L 985.291612 93.468191 
L 985.333853 93.695423 
L 985.710376 93.786039 
L 986.668658 94.340265 
L 987.070113 94.839067 
L 987.156235 96.22463 
L 987.423428 96.2928 
L 987.559473 96.642239 
L 987.934218 96.725373 
L 987.936078 97.057631 
L 988.450021 96.503406 
L 988.473478 96.586539 
L 988.642406 89.903691 
L 988.797111 88.518128 
L 990.828787 88.735662 
L 990.875158 88.818795 
L 990.906752 89.181259 
L 991.453987 89.305959 
L 991.475088 89.631567 
L 991.579549 85.765846 
L 991.688103 83.179831 
L 993.700571 83.346098 
L 994.19264 83.429232 
L 994.259559 83.716321 
L 994.346701 79.540233 
L 994.751666 79.706501 
L 994.960106 80.260726 
L 995.105114 79.706501 
L 995.511548 79.701513 
L 995.532916 79.588174 
L 996.214333 79.671308 
L 996.217357 84.42656 
L 996.218182 79.671308 
" style="fill:none;stroke:#1f77b4;stroke-linecap:round;stroke-width:1.5;"/>
   </g>
   <g id="patch_3">
    <path d="M 144 345.6 
L 144 51.84 
" style="fill:none;"/>
   </g>
   <g id="patch_4">
    <path d="M 1036.8 345.6 
L 1036.8 51.84 
" style="fill:none;"/>
   </g>
   <g id="patch_5">
    <path d="M 144 345.6 
L 1036.8 345.6 
" style="fill:none;"/>
   </g>
   <g id="patch_6">
    <path d="M 144 51.84 
L 1036.8 51.84 
" style="fill:none;"/>
   </g>
   <g id="text_15">
    <!-- Balance over Time -->
    <defs>
     <path id="DejaVuSans-20"/>
     <path d="M 30.609375 48.390625 
Q 23.390625 48.390625 19.1875 42.75 
Q 14.984375 37.109375 14.984375 27.296875 
Q 14.984375 17.484375 19.15625 11.84375 
Q 23.34375 6.203125 30.609375 6.203125 
Q 37.796875 6.203125 41.984375 11.859375 
Q 46.1875 17.53125 46.1875 27.296875 
Q 46.1875 37.015625 41.984375 42.703125 
Q 37.796875 48.390625 30.609375 48.390625 
z
M 30.609375 56 
Q 42.328125 56 49.015625 48.375 
Q 55.71875 40.765625 55.71875 27.296875 
Q 55.71875 13.875 49.015625 6.21875 
Q 42.328125 -1.421875 30.609375 -1.421875 
Q 18.84375 -1.421875 12.171875 6.21875 
Q 5.515625 13.875 5.515625 27.296875 
Q 5.515625 40.765625 12.171875 48.375 
Q 18.84375 56 30.609375 56 
z
" id="DejaVuSans-6f"/>
     <path d="M 2.984375 54.6875 
L 12.5 54.6875 
L 29.59375 8.796875 
L 46.6875 54.6875 
L 56.203125 54.6875 
L 35.6875 0 
L 23.484375 0 
z
" id="DejaVuSans-76"/>
     <path d="M -0.296875 72.90625 
L 61.375 72.90625 
L 61.375 64.59375 
L 35.5 64.59375 
L 35.5 0 
L 25.59375 0 
L 25.59375 64.59375 
L -0.296875 64.59375 
z
" id="DejaVuSans-54"/>
     <path d="M 9.421875 54.6875 
L 18.40625 54.6875 
L 18.40625 0 
L 9.421875 0 
z
M 9.421875 75.984375 
L 18.40625 75.984375 
L 18.40625 64.59375 
L 9.421875 64.59375 
z
" id="DejaVuSans-69"/>
     <path d="M 52 44.1875 
Q 55.375 50.25 60.0625 53.125 
Q 64.75 56 71.09375 56 
Q 79.640625 56 84.28125 50.015625 
Q 88.921875 44.046875 88.921875 33.015625 
L 88.921875 0 
L 79.890625 0 
L 79.890625 32.71875 
Q 79.890625 40.578125 77.09375 44.375 
Q 74.3125 48.1875 68.609375 48.1875 
Q 61.625 48.1875 57.5625 43.546875 
Q 53.515625 38.921875 53.515625 30.90625 
L 53.515625 0 
L 44.484375 0 
L 44.484375 32.71875 
Q 44.484375 40.625 41.703125 44.40625 
Q 38.921875 48.1875 33.109375 48.1875 
Q 26.21875 48.1875 22.15625 43.53125 
Q 18.109375 38.875 18.109375 30.90625 
L 18.109375 0 
L 9.078125 0 
L 9.078125 54.6875 
L 18.109375 54.6875 
L 18.109375 46.1875 
Q 21.1875 51.21875 25.484375 53.609375 
Q 29.78125 56 35.6875 56 
Q 41.65625 56 45.828125 52.96875 
Q 50 49.953125 52 44.1875 
z
" id="DejaVuSans-6d"/>
    </defs>
    <g style="fill:#262626;" transform="translate(539.075547 45.84)scale(0.11 -0.11)">
     <use xlink:href="#DejaVuSans-42"/>
     <use x="68.603516" xlink:href="#DejaVuSans-61"/>
     <use x="129.882812" xlink:href="#DejaVuSans-6c"/>
     <use x="157.666016" xlink:href="#DejaVuSans-61"/>
     <use x="218.945312" xlink:href="#DejaVuSans-6e"/>
     <use x="282.324219" xlink:href="#DejaVuSans-63"/>
     <use x="337.304688" xlink:href="#DejaVuSans-65"/>
     <use x="398.828125" xlink:href="#DejaVuSans-20"/>
     <use x="430.615234" xlink:href="#DejaVuSans-6f"/>
     <use x="491.796875" xlink:href="#DejaVuSans-76"/>
     <use x="550.976562" xlink:href="#DejaVuSans-65"/>
     <use x="612.5" xlink:href="#DejaVuSans-72"/>
     <use x="653.613281" xlink:href="#DejaVuSans-20"/>
     <use x="685.400391" xlink:href="#DejaVuSans-54"/>
     <use x="746.4375" xlink:href="#DejaVuSans-69"/>
     <use x="774.220703" xlink:href="#DejaVuSans-6d"/>
     <use x="871.632812" xlink:href="#DejaVuSans-65"/>
    </g>
   </g>
   <g id="legend_1">
    <g id="line2d_97">
     <path d="M 959.915625 64.938438 
L 979.915625 64.938438 
" style="fill:none;stroke:#1f77b4;stroke-linecap:round;stroke-width:1.5;"/>
    </g>
    <g id="line2d_98"/>
    <g id="text_16">
     <!-- Balance -->
     <g style="fill:#262626;" transform="translate(987.915625 68.438438)scale(0.1 -0.1)">
      <use xlink:href="#DejaVuSans-42"/>
      <use x="68.603516" xlink:href="#DejaVuSans-61"/>
      <use x="129.882812" xlink:href="#DejaVuSans-6c"/>
      <use x="157.666016" xlink:href="#DejaVuSans-61"/>
      <use x="218.945312" xlink:href="#DejaVuSans-6e"/>
      <use x="282.324219" xlink:href="#DejaVuSans-63"/>
      <use x="337.304688" xlink:href="#DejaVuSans-65"/>
     </g>
    </g>
   </g>
  </g>
 </g>
 <defs>
  <clipPath id="p65c7f62073">
   <rect height="293.76" width="892.8" x="144" y="51.84"/>
  </clipPath>
 </defs>
</svg>
