<?xml version="1.0" encoding="utf-8" standalone="no"?>
<!DOCTYPE svg PUBLIC "-//W3C//DTD SVG 1.1//EN"
  "http://www.w3.org/Graphics/SVG/1.1/DTD/svg11.dtd">
<!-- Created with matplotlib (http://matplotlib.org/) -->
<svg height="432pt" version="1.1" viewBox="0 0 1152 432" width="1152pt" xmlns="http://www.w3.org/2000/svg" xmlns:xlink="http://www.w3.org/1999/xlink">
 <defs>
  <style type="text/css">
*{stroke-linecap:butt;stroke-linejoin:round;}
  </style>
 </defs>
 <g id="figure_1">
  <g id="patch_1">
   <path d="M 0 432 
L 1152 432 
L 1152 0 
L 0 0 
z
" style="fill:#ffffff;"/>
  </g>
  <g id="axes_1">
   <g id="patch_2">
    <path d="M 144 345.6 
L 1036.8 345.6 
L 1036.8 51.84 
L 144 51.84 
z
" style="fill:#ffffff;"/>
   </g>
   <g id="matplotlib.axis_1">
    <g id="xtick_1">
     <g id="line2d_1"/>
     <g id="text_1">
      <!-- 2013 -->
      <defs>
       <path d="M 19.1875 8.296875 
L 53.609375 8.296875 
L 53.609375 0 
L 7.328125 0 
L 7.328125 8.296875 
Q 12.9375 14.109375 22.625 23.890625 
Q 32.328125 33.6875 34.8125 36.53125 
Q 39.546875 41.84375 41.421875 45.53125 
Q 43.3125 49.21875 43.3125 52.78125 
Q 43.3125 58.59375 39.234375 62.25 
Q 35.15625 65.921875 28.609375 65.921875 
Q 23.96875 65.921875 18.8125 64.3125 
Q 13.671875 62.703125 7.8125 59.421875 
L 7.8125 69.390625 
Q 13.765625 71.78125 18.9375 73 
Q 24.125 74.21875 28.421875 74.21875 
Q 39.75 74.21875 46.484375 68.546875 
Q 53.21875 62.890625 53.21875 53.421875 
Q 53.21875 48.921875 51.53125 44.890625 
Q 49.859375 40.875 45.40625 35.40625 
Q 44.1875 33.984375 37.640625 27.21875 
Q 31.109375 20.453125 19.1875 8.296875 
z
" id="DejaVuSans-32"/>
       <path d="M 31.78125 66.40625 
Q 24.171875 66.40625 20.328125 58.90625 
Q 16.5 51.421875 16.5 36.375 
Q 16.5 21.390625 20.328125 13.890625 
Q 24.171875 6.390625 31.78125 6.390625 
Q 39.453125 6.390625 43.28125 13.890625 
Q 47.125 21.390625 47.125 36.375 
Q 47.125 51.421875 43.28125 58.90625 
Q 39.453125 66.40625 31.78125 66.40625 
z
M 31.78125 74.21875 
Q 44.046875 74.21875 50.515625 64.515625 
Q 56.984375 54.828125 56.984375 36.375 
Q 56.984375 17.96875 50.515625 8.265625 
Q 44.046875 -1.421875 31.78125 -1.421875 
Q 19.53125 -1.421875 13.0625 8.265625 
Q 6.59375 17.96875 6.59375 36.375 
Q 6.59375 54.828125 13.0625 64.515625 
Q 19.53125 74.21875 31.78125 74.21875 
z
" id="DejaVuSans-30"/>
       <path d="M 12.40625 8.296875 
L 28.515625 8.296875 
L 28.515625 63.921875 
L 10.984375 60.40625 
L 10.984375 69.390625 
L 28.421875 72.90625 
L 38.28125 72.90625 
L 38.28125 8.296875 
L 54.390625 8.296875 
L 54.390625 0 
L 12.40625 0 
z
" id="DejaVuSans-31"/>
       <path d="M 40.578125 39.3125 
Q 47.65625 37.796875 51.625 33 
Q 55.609375 28.21875 55.609375 21.1875 
Q 55.609375 10.40625 48.1875 4.484375 
Q 40.765625 -1.421875 27.09375 -1.421875 
Q 22.515625 -1.421875 17.65625 -0.515625 
Q 12.796875 0.390625 7.625 2.203125 
L 7.625 11.71875 
Q 11.71875 9.328125 16.59375 8.109375 
Q 21.484375 6.890625 26.8125 6.890625 
Q 36.078125 6.890625 40.9375 10.546875 
Q 45.796875 14.203125 45.796875 21.1875 
Q 45.796875 27.640625 41.28125 31.265625 
Q 36.765625 34.90625 28.71875 34.90625 
L 20.21875 34.90625 
L 20.21875 43.015625 
L 29.109375 43.015625 
Q 36.375 43.015625 40.234375 45.921875 
Q 44.09375 48.828125 44.09375 54.296875 
Q 44.09375 59.90625 40.109375 62.90625 
Q 36.140625 65.921875 28.71875 65.921875 
Q 24.65625 65.921875 20.015625 65.03125 
Q 15.375 64.15625 9.8125 62.3125 
L 9.8125 71.09375 
Q 15.4375 72.65625 20.34375 73.4375 
Q 25.25 74.21875 29.59375 74.21875 
Q 40.828125 74.21875 47.359375 69.109375 
Q 53.90625 64.015625 53.90625 55.328125 
Q 53.90625 49.265625 50.4375 45.09375 
Q 46.96875 40.921875 40.578125 39.3125 
z
" id="DejaVuSans-33"/>
      </defs>
      <g style="fill:#262626;" transform="translate(227.846823 366.644352)rotate(-30)scale(0.08 -0.08)">
       <use xlink:href="#DejaVuSans-32"/>
       <use x="63.623047" xlink:href="#DejaVuSans-30"/>
       <use x="127.246094" xlink:href="#DejaVuSans-31"/>
       <use x="190.869141" xlink:href="#DejaVuSans-33"/>
      </g>
     </g>
    </g>
    <g id="xtick_2">
     <g id="line2d_2"/>
     <g id="text_2">
      <!-- 2014 -->
      <defs>
       <path d="M 37.796875 64.3125 
L 12.890625 25.390625 
L 37.796875 25.390625 
z
M 35.203125 72.90625 
L 47.609375 72.90625 
L 47.609375 25.390625 
L 58.015625 25.390625 
L 58.015625 17.1875 
L 47.609375 17.1875 
L 47.609375 0 
L 37.796875 0 
L 37.796875 17.1875 
L 4.890625 17.1875 
L 4.890625 26.703125 
z
" id="DejaVuSans-34"/>
      </defs>
      <g style="fill:#262626;" transform="translate(375.213185 366.644352)rotate(-30)scale(0.08 -0.08)">
       <use xlink:href="#DejaVuSans-32"/>
       <use x="63.623047" xlink:href="#DejaVuSans-30"/>
       <use x="127.246094" xlink:href="#DejaVuSans-31"/>
       <use x="190.869141" xlink:href="#DejaVuSans-34"/>
      </g>
     </g>
    </g>
    <g id="xtick_3">
     <g id="line2d_3"/>
     <g id="text_3">
      <!-- 2015 -->
      <defs>
       <path d="M 10.796875 72.90625 
L 49.515625 72.90625 
L 49.515625 64.59375 
L 19.828125 64.59375 
L 19.828125 46.734375 
Q 21.96875 47.46875 24.109375 47.828125 
Q 26.265625 48.1875 28.421875 48.1875 
Q 40.625 48.1875 47.75 41.5 
Q 54.890625 34.8125 54.890625 23.390625 
Q 54.890625 11.625 47.5625 5.09375 
Q 40.234375 -1.421875 26.90625 -1.421875 
Q 22.3125 -1.421875 17.546875 -0.640625 
Q 12.796875 0.140625 7.71875 1.703125 
L 7.71875 11.625 
Q 12.109375 9.234375 16.796875 8.0625 
Q 21.484375 6.890625 26.703125 6.890625 
Q 35.15625 6.890625 40.078125 11.328125 
Q 45.015625 15.765625 45.015625 23.390625 
Q 45.015625 31 40.078125 35.4375 
Q 35.15625 39.890625 26.703125 39.890625 
Q 22.75 39.890625 18.8125 39.015625 
Q 14.890625 38.140625 10.796875 36.28125 
z
" id="DejaVuSans-35"/>
      </defs>
      <g style="fill:#262626;" transform="translate(522.579546 366.644352)rotate(-30)scale(0.08 -0.08)">
       <use xlink:href="#DejaVuSans-32"/>
       <use x="63.623047" xlink:href="#DejaVuSans-30"/>
       <use x="127.246094" xlink:href="#DejaVuSans-31"/>
       <use x="190.869141" xlink:href="#DejaVuSans-35"/>
      </g>
     </g>
    </g>
    <g id="xtick_4">
     <g id="line2d_4"/>
     <g id="text_4">
      <!-- 2016 -->
      <defs>
       <path d="M 33.015625 40.375 
Q 26.375 40.375 22.484375 35.828125 
Q 18.609375 31.296875 18.609375 23.390625 
Q 18.609375 15.53125 22.484375 10.953125 
Q 26.375 6.390625 33.015625 6.390625 
Q 39.65625 6.390625 43.53125 10.953125 
Q 47.40625 15.53125 47.40625 23.390625 
Q 47.40625 31.296875 43.53125 35.828125 
Q 39.65625 40.375 33.015625 40.375 
z
M 52.59375 71.296875 
L 52.59375 62.3125 
Q 48.875 64.0625 45.09375 64.984375 
Q 41.3125 65.921875 37.59375 65.921875 
Q 27.828125 65.921875 22.671875 59.328125 
Q 17.53125 52.734375 16.796875 39.40625 
Q 19.671875 43.65625 24.015625 45.921875 
Q 28.375 48.1875 33.59375 48.1875 
Q 44.578125 48.1875 50.953125 41.515625 
Q 57.328125 34.859375 57.328125 23.390625 
Q 57.328125 12.15625 50.6875 5.359375 
Q 44.046875 -1.421875 33.015625 -1.421875 
Q 20.359375 -1.421875 13.671875 8.265625 
Q 6.984375 17.96875 6.984375 36.375 
Q 6.984375 53.65625 15.1875 63.9375 
Q 23.390625 74.21875 37.203125 74.21875 
Q 40.921875 74.21875 44.703125 73.484375 
Q 48.484375 72.75 52.59375 71.296875 
z
" id="DejaVuSans-36"/>
      </defs>
      <g style="fill:#262626;" transform="translate(669.945908 366.644352)rotate(-30)scale(0.08 -0.08)">
       <use xlink:href="#DejaVuSans-32"/>
       <use x="63.623047" xlink:href="#DejaVuSans-30"/>
       <use x="127.246094" xlink:href="#DejaVuSans-31"/>
       <use x="190.869141" xlink:href="#DejaVuSans-36"/>
      </g>
     </g>
    </g>
    <g id="xtick_5">
     <g id="line2d_5"/>
     <g id="text_5">
      <!-- 2017 -->
      <defs>
       <path d="M 8.203125 72.90625 
L 55.078125 72.90625 
L 55.078125 68.703125 
L 28.609375 0 
L 18.3125 0 
L 43.21875 64.59375 
L 8.203125 64.59375 
z
" id="DejaVuSans-37"/>
      </defs>
      <g style="fill:#262626;" transform="translate(817.716013 366.644352)rotate(-30)scale(0.08 -0.08)">
       <use xlink:href="#DejaVuSans-32"/>
       <use x="63.623047" xlink:href="#DejaVuSans-30"/>
       <use x="127.246094" xlink:href="#DejaVuSans-31"/>
       <use x="190.869141" xlink:href="#DejaVuSans-37"/>
      </g>
     </g>
    </g>
    <g id="xtick_6">
     <g id="line2d_6"/>
     <g id="text_6">
      <!-- 2018 -->
      <defs>
       <path d="M 31.78125 34.625 
Q 24.75 34.625 20.71875 30.859375 
Q 16.703125 27.09375 16.703125 20.515625 
Q 16.703125 13.921875 20.71875 10.15625 
Q 24.75 6.390625 31.78125 6.390625 
Q 38.8125 6.390625 42.859375 10.171875 
Q 46.921875 13.96875 46.921875 20.515625 
Q 46.921875 27.09375 42.890625 30.859375 
Q 38.875 34.625 31.78125 34.625 
z
M 21.921875 38.8125 
Q 15.578125 40.375 12.03125 44.71875 
Q 8.5 49.078125 8.5 55.328125 
Q 8.5 64.0625 14.71875 69.140625 
Q 20.953125 74.21875 31.78125 74.21875 
Q 42.671875 74.21875 48.875 69.140625 
Q 55.078125 64.0625 55.078125 55.328125 
Q 55.078125 49.078125 51.53125 44.71875 
Q 48 40.375 41.703125 38.8125 
Q 48.828125 37.15625 52.796875 32.3125 
Q 56.78125 27.484375 56.78125 20.515625 
Q 56.78125 9.90625 50.3125 4.234375 
Q 43.84375 -1.421875 31.78125 -1.421875 
Q 19.734375 -1.421875 13.25 4.234375 
Q 6.78125 9.90625 6.78125 20.515625 
Q 6.78125 27.484375 10.78125 32.3125 
Q 14.796875 37.15625 21.921875 38.8125 
z
M 18.3125 54.390625 
Q 18.3125 48.734375 21.84375 45.5625 
Q 25.390625 42.390625 31.78125 42.390625 
Q 38.140625 42.390625 41.71875 45.5625 
Q 45.3125 48.734375 45.3125 54.390625 
Q 45.3125 60.0625 41.71875 63.234375 
Q 38.140625 66.40625 31.78125 66.40625 
Q 25.390625 66.40625 21.84375 63.234375 
Q 18.3125 60.0625 18.3125 54.390625 
z
" id="DejaVuSans-38"/>
      </defs>
      <g style="fill:#262626;" transform="translate(965.082375 366.644352)rotate(-30)scale(0.08 -0.08)">
       <use xlink:href="#DejaVuSans-32"/>
       <use x="63.623047" xlink:href="#DejaVuSans-30"/>
       <use x="127.246094" xlink:href="#DejaVuSans-31"/>
       <use x="190.869141" xlink:href="#DejaVuSans-38"/>
      </g>
     </g>
    </g>
    <g id="xtick_7">
     <g id="line2d_7"/>
    </g>
    <g id="xtick_8">
     <g id="line2d_8"/>
    </g>
    <g id="xtick_9">
     <g id="line2d_9"/>
    </g>
    <g id="xtick_10">
     <g id="line2d_10"/>
    </g>
    <g id="xtick_11">
     <g id="line2d_11"/>
    </g>
    <g id="xtick_12">
     <g id="line2d_12"/>
    </g>
    <g id="xtick_13">
     <g id="line2d_13"/>
    </g>
    <g id="xtick_14">
     <g id="line2d_14"/>
    </g>
    <g id="xtick_15">
     <g id="line2d_15"/>
    </g>
    <g id="xtick_16">
     <g id="line2d_16"/>
    </g>
    <g id="xtick_17">
     <g id="line2d_17"/>
    </g>
    <g id="xtick_18">
     <g id="line2d_18"/>
    </g>
    <g id="xtick_19">
     <g id="line2d_19"/>
    </g>
    <g id="xtick_20">
     <g id="line2d_20"/>
    </g>
    <g id="xtick_21">
     <g id="line2d_21"/>
    </g>
    <g id="xtick_22">
     <g id="line2d_22"/>
    </g>
    <g id="xtick_23">
     <g id="line2d_23"/>
    </g>
    <g id="xtick_24">
     <g id="line2d_24"/>
    </g>
    <g id="xtick_25">
     <g id="line2d_25"/>
    </g>
    <g id="xtick_26">
     <g id="line2d_26"/>
    </g>
    <g id="xtick_27">
     <g id="line2d_27"/>
    </g>
    <g id="xtick_28">
     <g id="line2d_28"/>
    </g>
    <g id="xtick_29">
     <g id="line2d_29"/>
    </g>
    <g id="xtick_30">
     <g id="line2d_30"/>
    </g>
    <g id="xtick_31">
     <g id="line2d_31"/>
    </g>
    <g id="xtick_32">
     <g id="line2d_32"/>
    </g>
    <g id="xtick_33">
     <g id="line2d_33"/>
    </g>
    <g id="xtick_34">
     <g id="line2d_34"/>
    </g>
    <g id="xtick_35">
     <g id="line2d_35"/>
    </g>
    <g id="xtick_36">
     <g id="line2d_36"/>
    </g>
    <g id="xtick_37">
     <g id="line2d_37"/>
    </g>
    <g id="xtick_38">
     <g id="line2d_38"/>
    </g>
    <g id="xtick_39">
     <g id="line2d_39"/>
    </g>
    <g id="xtick_40">
     <g id="line2d_40"/>
    </g>
    <g id="xtick_41">
     <g id="line2d_41"/>
    </g>
    <g id="xtick_42">
     <g id="line2d_42"/>
    </g>
    <g id="xtick_43">
     <g id="line2d_43"/>
    </g>
    <g id="xtick_44">
     <g id="line2d_44"/>
    </g>
    <g id="xtick_45">
     <g id="line2d_45"/>
    </g>
    <g id="xtick_46">
     <g id="line2d_46"/>
    </g>
    <g id="xtick_47">
     <g id="line2d_47"/>
    </g>
    <g id="xtick_48">
     <g id="line2d_48"/>
    </g>
    <g id="xtick_49">
     <g id="line2d_49"/>
    </g>
    <g id="xtick_50">
     <g id="line2d_50"/>
    </g>
    <g id="xtick_51">
     <g id="line2d_51"/>
    </g>
    <g id="xtick_52">
     <g id="line2d_52"/>
    </g>
    <g id="xtick_53">
     <g id="line2d_53"/>
    </g>
    <g id="xtick_54">
     <g id="line2d_54"/>
    </g>
    <g id="xtick_55">
     <g id="line2d_55"/>
    </g>
    <g id="xtick_56">
     <g id="line2d_56"/>
    </g>
    <g id="xtick_57">
     <g id="line2d_57"/>
    </g>
    <g id="xtick_58">
     <g id="line2d_58"/>
    </g>
    <g id="xtick_59">
     <g id="line2d_59"/>
    </g>
    <g id="xtick_60">
     <g id="line2d_60"/>
    </g>
    <g id="xtick_61">
     <g id="line2d_61"/>
    </g>
    <g id="xtick_62">
     <g id="line2d_62"/>
    </g>
    <g id="xtick_63">
     <g id="line2d_63"/>
    </g>
    <g id="xtick_64">
     <g id="line2d_64"/>
    </g>
    <g id="xtick_65">
     <g id="line2d_65"/>
    </g>
    <g id="xtick_66">
     <g id="line2d_66"/>
    </g>
    <g id="xtick_67">
     <g id="line2d_67"/>
    </g>
    <g id="xtick_68">
     <g id="line2d_68"/>
    </g>
    <g id="xtick_69">
     <g id="line2d_69"/>
    </g>
    <g id="xtick_70">
     <g id="line2d_70"/>
    </g>
    <g id="xtick_71">
     <g id="line2d_71"/>
    </g>
    <g id="xtick_72">
     <g id="line2d_72"/>
    </g>
    <g id="xtick_73">
     <g id="line2d_73"/>
    </g>
    <g id="xtick_74">
     <g id="line2d_74"/>
    </g>
    <g id="xtick_75">
     <g id="line2d_75"/>
    </g>
    <g id="xtick_76">
     <g id="line2d_76"/>
    </g>
    <g id="xtick_77">
     <g id="line2d_77"/>
    </g>
    <g id="xtick_78">
     <g id="line2d_78"/>
    </g>
    <g id="xtick_79">
     <g id="line2d_79"/>
    </g>
    <g id="text_7">
     <!-- Year -->
     <defs>
      <path d="M -0.203125 72.90625 
L 10.40625 72.90625 
L 30.609375 42.921875 
L 50.6875 72.90625 
L 61.28125 72.90625 
L 35.5 34.71875 
L 35.5 0 
L 25.59375 0 
L 25.59375 34.71875 
z
" id="DejaVuSans-59"/>
      <path d="M 56.203125 29.59375 
L 56.203125 25.203125 
L 14.890625 25.203125 
Q 15.484375 15.921875 20.484375 11.0625 
Q 25.484375 6.203125 34.421875 6.203125 
Q 39.59375 6.203125 44.453125 7.46875 
Q 49.3125 8.734375 54.109375 11.28125 
L 54.109375 2.78125 
Q 49.265625 0.734375 44.1875 -0.34375 
Q 39.109375 -1.421875 33.890625 -1.421875 
Q 20.796875 -1.421875 13.15625 6.1875 
Q 5.515625 13.8125 5.515625 26.8125 
Q 5.515625 40.234375 12.765625 48.109375 
Q 20.015625 56 32.328125 56 
Q 43.359375 56 49.78125 48.890625 
Q 56.203125 41.796875 56.203125 29.59375 
z
M 47.21875 32.234375 
Q 47.125 39.59375 43.09375 43.984375 
Q 39.0625 48.390625 32.421875 48.390625 
Q 24.90625 48.390625 20.390625 44.140625 
Q 15.875 39.890625 15.1875 32.171875 
z
" id="DejaVuSans-65"/>
      <path d="M 34.28125 27.484375 
Q 23.390625 27.484375 19.1875 25 
Q 14.984375 22.515625 14.984375 16.5 
Q 14.984375 11.71875 18.140625 8.90625 
Q 21.296875 6.109375 26.703125 6.109375 
Q 34.1875 6.109375 38.703125 11.40625 
Q 43.21875 16.703125 43.21875 25.484375 
L 43.21875 27.484375 
z
M 52.203125 31.203125 
L 52.203125 0 
L 43.21875 0 
L 43.21875 8.296875 
Q 40.140625 3.328125 35.546875 0.953125 
Q 30.953125 -1.421875 24.3125 -1.421875 
Q 15.921875 -1.421875 10.953125 3.296875 
Q 6 8.015625 6 15.921875 
Q 6 25.140625 12.171875 29.828125 
Q 18.359375 34.515625 30.609375 34.515625 
L 43.21875 34.515625 
L 43.21875 35.40625 
Q 43.21875 41.609375 39.140625 45 
Q 35.0625 48.390625 27.6875 48.390625 
Q 23 48.390625 18.546875 47.265625 
Q 14.109375 46.140625 10.015625 43.890625 
L 10.015625 52.203125 
Q 14.9375 54.109375 19.578125 55.046875 
Q 24.21875 56 28.609375 56 
Q 40.484375 56 46.34375 49.84375 
Q 52.203125 43.703125 52.203125 31.203125 
z
" id="DejaVuSans-61"/>
      <path d="M 41.109375 46.296875 
Q 39.59375 47.171875 37.8125 47.578125 
Q 36.03125 48 33.890625 48 
Q 26.265625 48 22.1875 43.046875 
Q 18.109375 38.09375 18.109375 28.8125 
L 18.109375 0 
L 9.078125 0 
L 9.078125 54.6875 
L 18.109375 54.6875 
L 18.109375 46.1875 
Q 20.953125 51.171875 25.484375 53.578125 
Q 30.03125 56 36.53125 56 
Q 37.453125 56 38.578125 55.875 
Q 39.703125 55.765625 41.0625 55.515625 
z
" id="DejaVuSans-72"/>
     </defs>
     <g style="fill:#262626;" transform="translate(578.036172 380.443483)scale(0.11 -0.11)">
      <use xlink:href="#DejaVuSans-59"/>
      <use x="60.880859" xlink:href="#DejaVuSans-65"/>
      <use x="122.404297" xlink:href="#DejaVuSans-61"/>
      <use x="183.683594" xlink:href="#DejaVuSans-72"/>
     </g>
    </g>
   </g>
   <g id="matplotlib.axis_2">
    <g id="ytick_1">
     <g id="line2d_80"/>
     <g id="text_8">
      <!-- −4000 -->
      <defs>
       <path d="M 10.59375 35.5 
L 73.1875 35.5 
L 73.1875 27.203125 
L 10.59375 27.203125 
z
" id="DejaVuSans-2212"/>
      </defs>
      <g style="fill:#262626;" transform="translate(111.33625 301.310975)scale(0.08 -0.08)">
       <use xlink:href="#DejaVuSans-2212"/>
       <use x="83.789062" xlink:href="#DejaVuSans-34"/>
       <use x="147.412109" xlink:href="#DejaVuSans-30"/>
       <use x="211.035156" xlink:href="#DejaVuSans-30"/>
       <use x="274.658203" xlink:href="#DejaVuSans-30"/>
      </g>
     </g>
    </g>
    <g id="ytick_2">
     <g id="line2d_81"/>
     <g id="text_9">
      <!-- −2000 -->
      <g style="fill:#262626;" transform="translate(111.33625 243.725089)scale(0.08 -0.08)">
       <use xlink:href="#DejaVuSans-2212"/>
       <use x="83.789062" xlink:href="#DejaVuSans-32"/>
       <use x="147.412109" xlink:href="#DejaVuSans-30"/>
       <use x="211.035156" xlink:href="#DejaVuSans-30"/>
       <use x="274.658203" xlink:href="#DejaVuSans-30"/>
      </g>
     </g>
    </g>
    <g id="ytick_3">
     <g id="line2d_82"/>
     <g id="text_10">
      <!-- 0 -->
      <g style="fill:#262626;" transform="translate(133.31 186.139203)scale(0.08 -0.08)">
       <use xlink:href="#DejaVuSans-30"/>
      </g>
     </g>
    </g>
    <g id="ytick_4">
     <g id="line2d_83"/>
     <g id="text_11">
      <!-- 2000 -->
      <g style="fill:#262626;" transform="translate(118.04 128.553318)scale(0.08 -0.08)">
       <use xlink:href="#DejaVuSans-32"/>
       <use x="63.623047" xlink:href="#DejaVuSans-30"/>
       <use x="127.246094" xlink:href="#DejaVuSans-30"/>
       <use x="190.869141" xlink:href="#DejaVuSans-30"/>
      </g>
     </g>
    </g>
    <g id="ytick_5">
     <g id="line2d_84"/>
     <g id="text_12">
      <!-- 4000 -->
      <g style="fill:#262626;" transform="translate(118.04 70.967432)scale(0.08 -0.08)">
       <use xlink:href="#DejaVuSans-34"/>
       <use x="63.623047" xlink:href="#DejaVuSans-30"/>
       <use x="127.246094" xlink:href="#DejaVuSans-30"/>
       <use x="190.869141" xlink:href="#DejaVuSans-30"/>
      </g>
     </g>
    </g>
    <g id="text_13">
     <!-- Change in Balance -->
     <defs>
      <path d="M 64.40625 67.28125 
L 64.40625 56.890625 
Q 59.421875 61.53125 53.78125 63.8125 
Q 48.140625 66.109375 41.796875 66.109375 
Q 29.296875 66.109375 22.65625 58.46875 
Q 16.015625 50.828125 16.015625 36.375 
Q 16.015625 21.96875 22.65625 14.328125 
Q 29.296875 6.6875 41.796875 6.6875 
Q 48.140625 6.6875 53.78125 8.984375 
Q 59.421875 11.28125 64.40625 15.921875 
L 64.40625 5.609375 
Q 59.234375 2.09375 53.4375 0.328125 
Q 47.65625 -1.421875 41.21875 -1.421875 
Q 24.65625 -1.421875 15.125 8.703125 
Q 5.609375 18.84375 5.609375 36.375 
Q 5.609375 53.953125 15.125 64.078125 
Q 24.65625 74.21875 41.21875 74.21875 
Q 47.75 74.21875 53.53125 72.484375 
Q 59.328125 70.75 64.40625 67.28125 
z
" id="DejaVuSans-43"/>
      <path d="M 54.890625 33.015625 
L 54.890625 0 
L 45.90625 0 
L 45.90625 32.71875 
Q 45.90625 40.484375 42.875 44.328125 
Q 39.84375 48.1875 33.796875 48.1875 
Q 26.515625 48.1875 22.3125 43.546875 
Q 18.109375 38.921875 18.109375 30.90625 
L 18.109375 0 
L 9.078125 0 
L 9.078125 75.984375 
L 18.109375 75.984375 
L 18.109375 46.1875 
Q 21.34375 51.125 25.703125 53.5625 
Q 30.078125 56 35.796875 56 
Q 45.21875 56 50.046875 50.171875 
Q 54.890625 44.34375 54.890625 33.015625 
z
" id="DejaVuSans-68"/>
      <path d="M 54.890625 33.015625 
L 54.890625 0 
L 45.90625 0 
L 45.90625 32.71875 
Q 45.90625 40.484375 42.875 44.328125 
Q 39.84375 48.1875 33.796875 48.1875 
Q 26.515625 48.1875 22.3125 43.546875 
Q 18.109375 38.921875 18.109375 30.90625 
L 18.109375 0 
L 9.078125 0 
L 9.078125 54.6875 
L 18.109375 54.6875 
L 18.109375 46.1875 
Q 21.34375 51.125 25.703125 53.5625 
Q 30.078125 56 35.796875 56 
Q 45.21875 56 50.046875 50.171875 
Q 54.890625 44.34375 54.890625 33.015625 
z
" id="DejaVuSans-6e"/>
      <path d="M 45.40625 27.984375 
Q 45.40625 37.75 41.375 43.109375 
Q 37.359375 48.484375 30.078125 48.484375 
Q 22.859375 48.484375 18.828125 43.109375 
Q 14.796875 37.75 14.796875 27.984375 
Q 14.796875 18.265625 18.828125 12.890625 
Q 22.859375 7.515625 30.078125 7.515625 
Q 37.359375 7.515625 41.375 12.890625 
Q 45.40625 18.265625 45.40625 27.984375 
z
M 54.390625 6.78125 
Q 54.390625 -7.171875 48.1875 -13.984375 
Q 42 -20.796875 29.203125 -20.796875 
Q 24.46875 -20.796875 20.265625 -20.09375 
Q 16.0625 -19.390625 12.109375 -17.921875 
L 12.109375 -9.1875 
Q 16.0625 -11.328125 19.921875 -12.34375 
Q 23.78125 -13.375 27.78125 -13.375 
Q 36.625 -13.375 41.015625 -8.765625 
Q 45.40625 -4.15625 45.40625 5.171875 
L 45.40625 9.625 
Q 42.625 4.78125 38.28125 2.390625 
Q 33.9375 0 27.875 0 
Q 17.828125 0 11.671875 7.65625 
Q 5.515625 15.328125 5.515625 27.984375 
Q 5.515625 40.671875 11.671875 48.328125 
Q 17.828125 56 27.875 56 
Q 33.9375 56 38.28125 53.609375 
Q 42.625 51.21875 45.40625 46.390625 
L 45.40625 54.6875 
L 54.390625 54.6875 
z
" id="DejaVuSans-67"/>
      <path id="DejaVuSans-20"/>
      <path d="M 9.421875 54.6875 
L 18.40625 54.6875 
L 18.40625 0 
L 9.421875 0 
z
M 9.421875 75.984375 
L 18.40625 75.984375 
L 18.40625 64.59375 
L 9.421875 64.59375 
z
" id="DejaVuSans-69"/>
      <path d="M 19.671875 34.8125 
L 19.671875 8.109375 
L 35.5 8.109375 
Q 43.453125 8.109375 47.28125 11.40625 
Q 51.125 14.703125 51.125 21.484375 
Q 51.125 28.328125 47.28125 31.5625 
Q 43.453125 34.8125 35.5 34.8125 
z
M 19.671875 64.796875 
L 19.671875 42.828125 
L 34.28125 42.828125 
Q 41.5 42.828125 45.03125 45.53125 
Q 48.578125 48.25 48.578125 53.8125 
Q 48.578125 59.328125 45.03125 62.0625 
Q 41.5 64.796875 34.28125 64.796875 
z
M 9.8125 72.90625 
L 35.015625 72.90625 
Q 46.296875 72.90625 52.390625 68.21875 
Q 58.5 63.53125 58.5 54.890625 
Q 58.5 48.1875 55.375 44.234375 
Q 52.25 40.28125 46.1875 39.3125 
Q 53.46875 37.75 57.5 32.78125 
Q 61.53125 27.828125 61.53125 20.40625 
Q 61.53125 10.640625 54.890625 5.3125 
Q 48.25 0 35.984375 0 
L 9.8125 0 
z
" id="DejaVuSans-42"/>
      <path d="M 9.421875 75.984375 
L 18.40625 75.984375 
L 18.40625 0 
L 9.421875 0 
z
" id="DejaVuSans-6c"/>
      <path d="M 48.78125 52.59375 
L 48.78125 44.1875 
Q 44.96875 46.296875 41.140625 47.34375 
Q 37.3125 48.390625 33.40625 48.390625 
Q 24.65625 48.390625 19.8125 42.84375 
Q 14.984375 37.3125 14.984375 27.296875 
Q 14.984375 17.28125 19.8125 11.734375 
Q 24.65625 6.203125 33.40625 6.203125 
Q 37.3125 6.203125 41.140625 7.25 
Q 44.96875 8.296875 48.78125 10.40625 
L 48.78125 2.09375 
Q 45.015625 0.34375 40.984375 -0.53125 
Q 36.96875 -1.421875 32.421875 -1.421875 
Q 20.0625 -1.421875 12.78125 6.34375 
Q 5.515625 14.109375 5.515625 27.296875 
Q 5.515625 40.671875 12.859375 48.328125 
Q 20.21875 56 33.015625 56 
Q 37.15625 56 41.109375 55.140625 
Q 45.0625 54.296875 48.78125 52.59375 
z
" id="DejaVuSans-63"/>
     </defs>
     <g style="fill:#262626;" transform="translate(105.048594 250.224062)rotate(-90)scale(0.11 -0.11)">
      <use xlink:href="#DejaVuSans-43"/>
      <use x="69.824219" xlink:href="#DejaVuSans-68"/>
      <use x="133.203125" xlink:href="#DejaVuSans-61"/>
      <use x="194.482422" xlink:href="#DejaVuSans-6e"/>
      <use x="257.861328" xlink:href="#DejaVuSans-67"/>
      <use x="321.337891" xlink:href="#DejaVuSans-65"/>
      <use x="382.861328" xlink:href="#DejaVuSans-20"/>
      <use x="414.648438" xlink:href="#DejaVuSans-69"/>
      <use x="442.431641" xlink:href="#DejaVuSans-6e"/>
      <use x="505.810547" xlink:href="#DejaVuSans-20"/>
      <use x="537.597656" xlink:href="#DejaVuSans-42"/>
      <use x="606.201172" xlink:href="#DejaVuSans-61"/>
      <use x="667.480469" xlink:href="#DejaVuSans-6c"/>
      <use x="695.263672" xlink:href="#DejaVuSans-61"/>
      <use x="756.542969" xlink:href="#DejaVuSans-6e"/>
      <use x="819.921875" xlink:href="#DejaVuSans-63"/>
      <use x="874.902344" xlink:href="#DejaVuSans-65"/>
     </g>
    </g>
   </g>
   <g id="line2d_85">
    <path clip-path="url(#p8decd460ec)" d="M 184.581818 283.875129 
L 184.843691 249.323597 
L 184.868219 125.513943 
L 185.021903 82.324528 
L 185.236943 116.87606 
L 185.314416 182.158299 
L 185.504437 182.473006 
L 185.924289 177.133067 
L 185.954429 182.813627 
L 186.105623 178.820909 
L 199.618809 178.912759 
L 246.896653 181.948111 
L 249.537047 182.63799 
L 249.879724 181.697612 
L 250.536447 181.413138 
L 250.717922 182.607757 
L 251.64791 182.984657 
L 256.044905 182.137856 
L 302.522394 182.838101 
L 310.485486 183.171811 
L 314.181748 183.906031 
L 314.712073 181.829196 
L 315.457652 183.675687 
L 315.522658 182.071057 
L 315.769002 184.331303 
L 316.511142 183.915533 
L 316.530306 183.315776 
L 316.733168 184.44158 
L 317.248521 182.093515 
L 319.148461 183.416551 
L 319.345973 187.015669 
L 319.587415 186.028647 
L 319.937733 182.811899 
L 320.610068 186.697219 
L 320.703284 182.52397 
L 320.953152 184.113628 
L 321.610759 183.804968 
L 321.623796 182.876971 
L 325.60301 183.056639 
L 326.5124 182.332209 
L 328.080472 182.811899 
L 331.150291 182.577812 
L 331.443379 297.206261 
L 335.982614 301.00693 
L 336.514944 65.192727 
L 336.519771 68.993396 
L 336.537598 182.134689 
L 336.620959 181.50326 
L 336.84541 182.941467 
L 336.871014 182.114246 
L 336.896888 182.811899 
L 338.321957 183.056639 
L 345.266163 183.056639 
L 346.501589 182.811899 
L 346.522365 183.042243 
L 346.663493 182.23604 
L 346.712648 182.52397 
L 348.439437 182.811899 
L 348.447899 182.577524 
L 358.961533 183.930217 
L 359.194985 180.796393 
L 359.269032 184.251546 
L 359.348071 182.921888 
L 370.772782 197.4963 
L 383.931028 183.114225 
L 387.22057 183.618101 
L 391.138924 183.618101 
L 391.713501 184.922134 
L 391.859428 182.667934 
L 396.242751 179.356746 
L 396.249068 188.282558 
L 396.348598 183.358965 
L 398.969229 183.127182 
L 398.981571 182.581556 
L 398.982285 183.150216 
L 399.067502 184.473828 
L 399.111357 183.243793 
L 399.203718 183.272586 
L 399.766721 183.848445 
L 401.78141 184.049996 
L 401.912435 182.52397 
L 402.126732 181.357855 
L 404.756896 183.675687 
L 404.811696 181.832939 
L 405.820312 182.667934 
L 405.834462 183.157414 
L 406.072628 202.157589 
L 406.492942 181.405652 
L 406.58677 183.710239 
L 407.174997 201.676171 
L 407.379584 182.977171 
L 407.515936 182.893671 
L 407.552848 182.670526 
L 410.480946 182.725808 
L 410.633602 183.123151 
L 411.380406 193.672597 
L 413.28043 182.052341 
L 413.711328 180.969151 
L 415.58523 181.417745 
L 415.983852 183.931369 
L 416.230912 181.933714 
L 417.264485 182.207247 
L 417.315813 183.94922 
L 420.094386 180.173602 
L 420.269743 182.667934 
L 421.210484 182.08315 
L 421.245415 183.100116 
L 421.459917 182.006273 
L 421.508521 183.100116 
L 422.786182 182.213582 
L 424.560457 183.100116 
L 426.299974 183.445344 
L 426.336213 183.100116 
L 427.214967 182.625321 
L 427.228402 183.100116 
L 427.506999 168.003976 
L 428.09539 190.298064 
L 429.117333 182.077679 
L 429.684873 181.880159 
L 429.736649 182.811899 
L 429.876338 191.737711 
L 432.704598 188.316822 
L 433.876893 182.329905 
L 433.984156 185.259299 
L 434.116275 181.713448 
L 434.300258 185.547229 
L 435.196737 188.339856 
L 435.858722 182.77706 
L 436.452828 182.052341 
L 437.942861 189.198174 
L 439.757155 182.146206 
L 440.03999 182.908643 
L 441.478037 183.025255 
L 441.758718 182.811899 
L 441.903336 185.403264 
L 441.973132 181.775353 
L 442.118096 182.754313 
L 442.241584 182.823992 
L 442.641645 182.754313 
L 442.736286 182.020381 
L 442.761651 194.51911 
L 442.783904 182.52397 
L 442.891611 184.707914 
L 445.494719 184.466629 
L 445.754979 184.656951 
L 445.905401 184.033584 
L 446.957457 183.094358 
L 447.094286 185.176088 
L 447.217689 185.327538 
L 447.342677 180.652716 
L 448.131378 185.941116 
L 450.104025 182.967669 
L 451.176426 185.835158 
L 451.255465 182.955864 
L 454.275003 182.495177 
L 454.277027 182.52397 
L 454.457034 182.639141 
L 454.617676 186.166565 
L 455.069644 187.999524 
L 458.93838 185.305368 
L 461.049197 185.658369 
L 461.458534 185.892744 
L 461.946615 185.398081 
L 462.135515 184.70302 
L 462.355059 185.012256 
L 462.495776 180.894289 
L 462.675138 185.46085 
L 464.875101 184.880384 
L 465.038215 187.319722 
L 466.358148 182.380005 
L 466.422635 187.767452 
L 466.491453 182.711124 
L 466.503444 186.097174 
L 468.634826 186.863354 
L 468.72394 185.810108 
L 469.041645 187.759966 
L 470.386003 185.134914 
L 470.824406 185.037018 
L 470.926991 185.937661 
L 470.952533 178.200133 
L 471.09382 182.52397 
L 473.227819 182.52397 
L 473.295689 184.5389 
L 473.578361 186.341914 
L 474.093695 183.715134 
L 475.020384 185.220717 
L 475.049913 181.37945 
L 475.089843 186.030086 
L 475.089969 183.724923 
L 475.154858 183.720604 
L 475.19826 182.52397 
L 475.200218 182.97026 
L 478.537149 182.811899 
L 479.092581 180.341465 
L 479.134376 177.917099 
L 479.837287 182.624745 
L 479.862109 183.545543 
L 479.980443 183.474137 
L 480.074313 183.822819 
L 480.830996 183.963617 
L 481.532308 183.298212 
L 481.654296 183.994713 
L 483.898329 184.029553 
L 484.027466 182.996174 
L 484.073027 182.52397 
L 484.096402 182.927071 
L 484.106061 174.683939 
L 485.110742 184.304813 
L 485.115536 183.883284 
L 485.217051 183.757459 
L 485.994729 184.039342 
L 486.17533 183.831745 
L 486.389524 183.127758 
L 487.067014 181.725829 
L 488.20087 183.675687 
L 488.249202 180.249327 
L 488.258099 183.963617 
L 488.530865 183.675399 
L 488.813756 184.827405 
L 489.551359 182.811899 
L 491.241203 181.847335 
L 491.312979 182.466384 
L 491.410724 179.644675 
L 503.5725 180.948996 
L 503.646305 181.38089 
L 516.125295 182.52397 
L 516.231857 181.916439 
L 516.284307 180.612118 
L 528.41055 181.144788 
L 528.483499 184.896796 
L 540.825096 182.869485 
L 540.828951 181.688974 
L 540.910522 182.23604 
L 541.000233 185.028956 
L 542.650577 182.667934 
L 543.060549 183.103572 
L 543.601636 183.104435 
L 543.627697 231.457 
L 545.217586 202.130524 
L 545.276316 222.291919 
L 545.592656 154.897717 
L 545.610484 211.30194 
L 545.851108 191.737711 
L 545.856833 154.897717 
L 545.962516 178.909879 
L 546.700469 187.289778 
L 546.972893 187.333543 
L 550.784984 185.979123 
L 551.037861 182.811899 
L 551.090418 182.955864 
L 553.086649 183.191966 
L 553.337605 183.101268 
L 553.383363 181.747712 
L 553.499299 183.675687 
L 554.108377 184.436973 
L 554.208602 183.474137 
L 554.226252 184.539476 
L 554.298926 183.301379 
L 554.316038 201.440933 
L 557.195893 183.618101 
L 557.377222 183.387758 
L 557.400307 183.70448 
L 557.446952 183.601402 
L 557.720138 182.948953 
L 557.947856 182.811899 
L 558.523438 182.977458 
L 560.22417 184.114492 
L 562.442207 183.675687 
L 562.529349 183.952388 
L 562.554339 183.531723 
L 562.575793 183.794602 
L 562.74937 183.243793 
L 562.787642 183.794314 
L 562.826478 182.811899 
L 563.223297 182.955864 
L 563.40886 182.667934 
L 563.51837 183.101556 
L 564.775667 183.10789 
L 564.84756 180.220534 
L 565.188607 182.977458 
L 565.309875 182.990415 
L 565.48097 183.209242 
L 565.486984 180.940358 
L 569.484685 182.52397 
L 569.704239 185.979123 
L 572.912079 181.660181 
L 573.892241 181.660181 
L 576.922191 183.113073 
L 577.010622 181.747712 
L 577.021542 183.202043 
L 577.033094 183.110482 
L 577.093039 183.102132 
L 577.169717 182.969396 
L 577.583788 182.962198 
L 578.149033 181.660181 
L 578.22696 182.667934 
L 578.595203 182.956152 
L 578.959319 182.811899 
L 579.270277 175.901593 
L 579.413919 182.52397 
L 579.778633 182.894535 
L 580.545508 183.014313 
L 580.98713 182.582131 
L 582.033658 180.249327 
L 582.44427 185.95033 
L 582.576599 183.042243 
L 583.072306 181.660181 
L 585.285105 183.007979 
L 585.314732 182.898278 
L 585.99211 182.380005 
L 588.9874 183.101844 
L 589.288409 181.747712 
L 589.329479 183.198876 
L 589.39041 182.88129 
L 589.907987 182.466384 
L 590.260664 182.887624 
L 590.783652 183.041667 
L 591.394473 182.380005 
L 591.482128 181.418896 
L 591.655313 182.329905 
L 591.725842 181.83697 
L 591.973331 182.206383 
L 592.127398 182.950393 
L 592.639021 179.863214 
L 592.825715 183.0385 
L 593.799335 182.361289 
L 593.809835 182.804701 
L 593.898673 182.67542 
L 594.286762 182.869485 
L 594.517307 182.380869 
L 595.745 183.531723 
L 595.87524 182.639141 
L 597.294104 188.858417 
L 598.341431 183.05088 
L 600.479411 182.874956 
L 600.489434 183.101556 
L 601.627229 181.747712 
L 601.757881 183.202331 
L 601.978337 178.260886 
L 603.162314 182.552763 
L 604.676464 183.963617 
L 606.183189 184.827405 
L 606.573577 184.251546 
L 606.585157 184.827405 
L 606.746463 181.861732 
L 607.920412 182.811899 
L 608.680749 182.466384 
L 610.424276 181.876416 
L 613.09266 183.112785 
L 613.722486 181.748 
L 613.905563 183.198876 
L 613.998578 183.10098 
L 626.431241 181.748 
L 626.554556 185.403264 
L 626.605043 183.202331 
L 626.626202 195.192864 
L 632.18631 193.753217 
L 633.109163 180.942373 
L 633.193094 181.113115 
L 633.214673 184.539476 
L 633.255627 182.535487 
L 634.083348 174.722522 
L 636.37476 182.656705 
L 636.765228 182.620138 
L 637.250468 191.477135 
L 637.389507 174.722522 
L 637.413718 177.168482 
L 637.68095 182.959031 
L 637.914836 181.080291 
L 638.460591 183.115089 
L 638.783978 182.72696 
L 638.848535 183.101556 
L 638.988789 183.202619 
L 639.023444 181.747712 
L 639.052276 182.730127 
L 643.015597 191.737711 
L 643.32405 182.835797 
L 643.645241 184.366718 
L 643.85937 182.523394 
L 644.143845 184.935091 
L 646.188152 182.667934 
L 646.639129 178.061063 
L 647.070705 182.092075 
L 649.003617 183.199164 
L 651.077275 183.111922 
L 651.100616 181.747712 
L 651.175285 183.790859 
L 651.321362 182.961046 
L 654.359228 183.026406 
L 654.764621 187.620033 
L 657.195815 182.872076 
L 658.312628 182.811899 
L 660.908746 182.980626 
L 662.433438 187.721384 
L 662.97009 182.861135 
L 663.421955 183.202619 
L 663.534662 181.747712 
L 663.617831 182.860559 
L 668.01899 182.783106 
L 668.236694 187.670708 
L 668.805524 181.847335 
L 668.828197 182.494601 
L 669.289871 182.453427 
L 669.29546 182.992431 
L 669.313848 182.88129 
L 669.864112 182.943195 
L 671.079838 182.811899 
L 672.853767 186.657197 
L 674.546508 182.739341 
L 675.381103 182.925055 
L 675.538175 181.747712 
L 675.637218 189.578241 
L 675.811253 183.102132 
L 675.87867 182.971124 
L 676.084911 183.044546 
L 676.145757 182.827159 
L 676.615207 183.007979 
L 677.392082 181.660181 
L 678.178339 182.974579 
L 679.236787 182.94665 
L 679.312751 182.408798 
L 679.685835 182.996462 
L 679.998124 188.574519 
L 680.157561 182.23604 
L 683.974235 185.840053 
L 685.508372 182.730127 
L 686.582007 182.684634 
L 687.347825 183.202907 
L 688.074526 181.747712 
L 688.143784 183.102708 
L 688.269028 183.110194 
L 689.712299 186.698946 
L 689.74194 183.819652 
L 689.95284 181.660181 
L 689.975176 176.477452 
L 690.13358 175.901593 
L 691.104611 184.48189 
L 691.279791 181.602595 
L 693.319663 176.477452 
L 694.140225 189.722205 
L 694.327232 180.964256 
L 695.438994 189.864442 
L 696.838049 180.943237 
L 697.164852 182.892231 
L 698.920613 181.861732 
L 699.471582 181.906073 
L 699.709352 184.395511 
L 699.769969 181.804146 
L 700.157212 183.202907 
L 700.662228 180.635153 
L 700.82517 185.403264 
L 702.291917 182.52397 
L 703.248032 182.869485 
L 703.491157 181.660181 
L 703.756043 182.675996 
L 705.913328 182.622441 
L 705.998572 184.139542 
L 706.399675 182.798942 
L 707.310589 184.486209 
L 707.488455 182.915842 
L 707.71943 185.936797 
L 708.580231 182.52397 
L 709.264992 182.870061 
L 709.995015 183.10242 
L 712.318634 183.114801 
L 712.351634 181.186537 
L 712.53373 183.196285 
L 712.578431 182.925055 
L 712.62131 181.372252 
L 713.127728 184.251546 
L 713.942921 182.52397 
L 715.006383 182.893383 
L 716.038377 182.667934 
L 716.66367 184.251546 
L 719.618353 182.811899 
L 720.726843 182.993007 
L 721.048091 181.009461 
L 722.398472 182.981777 
L 722.821707 181.660181 
L 723.717367 182.950393 
L 724.859064 183.107315 
L 724.969299 181.186537 
L 725.096011 186.550087 
L 725.251826 186.101205 
L 725.442399 182.844723 
L 727.463205 181.372252 
L 728.61421 182.955864 
L 728.744805 184.827405 
L 728.754777 182.667934 
L 729.400309 182.910083 
L 730.055434 181.372252 
L 732.134325 182.002529 
L 732.835787 182.844723 
L 733.56811 182.910083 
L 735.160008 182.839828 
L 735.694987 182.955864 
L 736.419534 184.884991 
L 736.617957 183.200028 
L 736.940802 182.854801 
L 736.954746 181.186537 
L 737.162081 183.102708 
L 737.671984 181.660181 
L 737.824038 182.999053 
L 738.3061 182.811899 
L 739.143835 182.175863 
L 739.440965 181.559694 
L 739.504153 182.833782 
L 739.621705 181.898299 
L 740.105814 182.853937 
L 741.024331 182.422043 
L 741.308979 181.54501 
L 741.451832 182.627048 
L 744.250054 182.667934 
L 746.962757 181.660181 
L 748.986974 182.498056 
L 749.467756 183.203195 
L 749.600094 182.557657 
L 749.677796 181.186537 
L 749.678128 183.10242 
L 749.69089 183.642 
L 751.339027 182.483659 
L 751.893549 182.52397 
L 753.488812 182.875244 
L 754.140072 182.700182 
L 754.20684 182.878987 
L 754.369417 182.990127 
L 754.416226 182.743372 
L 754.519923 178.953933 
L 754.557349 182.988976 
L 755.765546 182.748555 
L 756.168187 183.046849 
L 757.493667 182.52397 
L 758.328743 182.906052 
L 758.793034 182.906052 
L 761.054632 186.842911 
L 761.26271 183.107027 
L 761.704566 183.101844 
L 761.785908 181.186537 
L 761.795978 183.41799 
L 761.913157 186.123087 
L 762.017705 191.370313 
L 762.220376 186.855004 
L 762.247493 182.380005 
L 762.948713 181.713736 
L 764.492924 184.485921 
L 765.301663 180.63544 
L 765.347112 183.040515 
L 766.105734 191.504776 
L 766.383911 174.694881 
L 766.41435 183.000205 
L 767.082144 186.906831 
L 767.552 186.036709 
L 767.619487 190.960302 
L 767.810957 186.906831 
L 767.81449 182.898278 
L 768.043759 182.667934 
L 768.180307 179.292826 
L 768.194761 182.955864 
L 768.994425 197.4963 
L 772.536157 168.703357 
L 772.80781 168.703357 
L 772.850675 197.4963 
L 773.18252 182.933693 
L 773.348569 185.057749 
L 773.43458 199.589835 
L 773.508188 182.813339 
L 773.605783 182.976883 
L 773.640185 182.381732 
L 773.798757 183.042243 
L 773.91888 182.841556 
L 773.921866 182.726672 
L 773.971652 183.10242 
L 774.078845 183.207514 
L 774.156664 182.52397 
L 774.19494 181.186537 
L 774.306479 168.703357 
L 775.612383 182.933693 
L 775.946995 183.817924 
L 776.036253 158.707599 
L 776.204793 207.492058 
L 776.307696 182.898278 
L 776.603503 182.861135 
L 776.67471 183.01345 
L 776.797211 182.633671 
L 777.344045 158.707599 
L 777.714265 207.492058 
L 777.745639 182.945786 
L 778.08848 182.726096 
L 778.668936 183.963617 
L 779.034095 182.721489 
L 779.110619 194.098733 
L 779.174886 181.851942 
L 779.341748 180.943525 
L 779.593153 181.036814 
L 779.617701 183.715422 
L 779.676094 180.940358 
L 779.773403 177.600376 
L 780.195142 183.01345 
L 780.373005 188.599281 
L 780.401458 183.071036 
L 780.879375 182.120868 
L 780.987671 183.070172 
L 781.210291 183.128621 
L 781.222039 173.022298 
L 781.777223 181.546737 
L 782.608416 178.061063 
L 783.409884 188.138593 
L 783.512428 178.061063 
L 783.53768 182.950393 
L 783.850049 177.81402 
L 784.24482 193.312973 
L 784.573665 193.29253 
L 784.666713 182.715443 
L 784.796486 182.762663 
L 785.129607 188.196179 
L 785.133855 178.003478 
L 785.17686 183.188223 
L 786.717702 181.186537 
L 786.822526 199.082215 
L 787.694691 183.200604 
L 798.900404 181.186537 
L 798.93483 182.955864 
L 808.913938 182.667934 
L 808.978065 188.513766 
L 809.301391 174.752178 
L 809.496263 182.891655 
L 809.887422 182.811899 
L 809.959816 182.957303 
L 810.928865 183.204635 
L 811.225584 182.810459 
L 811.259557 183.102708 
L 811.264304 173.742122 
L 811.301548 181.186537 
L 811.450877 182.976307 
L 812.016164 182.890504 
L 813.70055 182.955864 
L 814.25824 182.667934 
L 814.526112 185.403264 
L 815.454573 182.792608 
L 816.124478 182.524258 
L 816.59476 183.675687 
L 816.890698 182.955864 
L 817.184613 183.01345 
L 817.294848 183.186207 
L 817.483603 182.910083 
L 817.772518 183.186207 
L 817.801088 183.01345 
L 817.815911 183.071036 
L 818.10541 183.01345 
L 818.206033 183.186207 
L 818.537458 182.801822 
L 818.582991 182.937436 
L 818.712609 183.081113 
L 818.779381 182.887624 
L 819.283233 182.23604 
L 819.371071 183.272586 
L 819.673252 188.167386 
L 819.729192 185.518436 
L 819.741721 176.934971 
L 819.793128 187.217219 
L 819.822198 182.811899 
L 819.968709 189.264685 
L 819.983901 182.927071 
L 820.025402 183.01345 
L 822.495854 183.01345 
L 823.01715 183.202907 
L 823.294841 182.872652 
L 823.337846 183.01345 
L 823.379706 182.715443 
L 823.414487 183.102996 
L 823.652883 173.742122 
L 823.86074 183.01345 
L 825.044008 183.01345 
L 825.339488 182.875244 
L 825.587094 181.372252 
L 825.717456 183.01345 
L 825.896607 182.869197 
L 825.996716 183.019784 
L 826.435684 183.01345 
L 826.65571 182.721489 
L 826.779362 192.457535 
L 827.02901 173.742122 
L 827.079136 190.103712 
L 827.129983 182.979762 
L 827.203073 183.01201 
L 827.292326 182.52397 
L 827.336724 183.01345 
L 827.363397 182.380005 
L 827.892507 183.01345 
L 829.23479 182.927935 
L 829.24301 182.721489 
L 829.440699 183.01345 
L 829.657618 182.838676 
L 829.780278 186.497396 
L 829.89234 182.992431 
L 829.913444 187.853831 
L 829.947332 181.660181 
L 832.034517 182.869197 
L 832.360278 183.790859 
L 832.593211 178.492958 
L 833.05825 182.954712 
L 833.96393 182.812187 
L 834.698822 191.76017 
L 835.686377 183.210393 
L 836.095148 183.103284 
L 836.105092 181.660181 
L 836.911523 182.240935 
L 837.199036 182.696439 
L 837.273196 151.491224 
L 837.4899 214.708433 
L 838.080711 151.491224 
L 838.100342 184.712233 
L 838.321924 183.007691 
L 838.843824 151.491224 
L 839.41206 183.01345 
L 839.445135 214.708433 
L 839.470196 184.309132 
L 839.595417 185.46085 
L 839.7239 183.01345 
L 839.99438 182.52397 
L 840.060694 183.01345 
L 840.821886 183.01345 
L 841.23984 182.811899 
L 841.282154 188.488716 
L 841.39044 183.01345 
L 841.647971 181.948111 
L 841.860493 182.811899 
L 842.069145 182.23604 
L 842.190048 183.01345 
L 842.279601 181.078564 
L 842.318344 183.01345 
L 842.871319 183.01345 
L 843.124453 182.856816 
L 843.487752 183.01345 
L 843.627165 182.681467 
L 843.948734 183.044546 
L 844.083213 183.01345 
L 844.245009 183.819652 
L 844.278402 182.974003 
L 844.629841 183.01345 
L 845.234241 182.280957 
L 845.422837 183.01345 
L 845.654279 182.669086 
L 845.835324 183.819652 
L 845.89875 179.500711 
L 845.974727 183.01345 
L 846.168459 182.681467 
L 846.414154 183.157414 
L 846.527267 183.01345 
L 846.61582 182.178454 
L 846.683919 186.612568 
L 846.725209 182.380005 
L 846.757167 183.0385 
L 846.936978 189.882006 
L 847.064858 182.63655 
L 847.167238 182.23604 
L 847.202435 183.819652 
L 847.266361 183.01345 
L 847.41725 183.01345 
L 847.52649 182.812187 
L 847.553551 182.955864 
L 847.661926 183.103284 
L 848.35073 183.185919 
L 848.413193 182.721201 
L 848.496844 183.01345 
L 849.81873 183.01345 
L 850.162701 182.810171 
L 850.55101 183.01345 
L 851.408493 183.01345 
L 851.643043 182.669086 
L 852.100301 183.01345 
L 852.389505 199.108705 
L 852.49967 192.621367 
L 852.533488 182.52397 
L 852.745136 182.804989 
L 852.784141 182.52397 
L 852.867792 183.01345 
L 852.91311 182.786561 
L 852.98156 180.940358 
L 853.548543 183.01345 
L 853.671082 188.138593 
L 853.82265 179.500711 
L 853.835496 182.791744 
L 853.909599 183.01345 
L 854.197047 182.23748 
L 854.299684 183.01345 
L 854.645997 182.875531 
L 854.739255 183.01345 
L 855.08896 183.01345 
L 855.303131 185.17292 
L 855.409796 183.01345 
L 855.700019 182.881866 
L 856.443473 183.01345 
L 857.262324 183.102996 
L 857.307778 183.01345 
L 857.598553 183.01345 
L 857.961688 174.225843 
L 858.059526 191.973813 
L 858.20107 190.84513 
L 858.273968 189.398861 
L 858.286534 183.01345 
L 858.552159 183.819652 
L 858.820354 179.500711 
L 859.255831 183.01345 
L 859.546106 183.01345 
L 859.853362 183.174402 
L 859.85803 183.103859 
L 859.953391 183.01345 
L 860.23603 183.042243 
L 860.244774 182.786561 
L 860.263778 209.303422 
L 860.444164 182.70047 
L 860.51538 205.184304 
L 860.517824 156.896235 
L 860.667419 185.633607 
L 860.790608 183.01345 
L 861.48578 183.01345 
L 862.101302 182.840692 
L 862.324431 183.01345 
L 862.575733 184.539476 
L 862.770553 182.681467 
L 862.795456 183.01345 
L 863.027019 183.042243 
L 863.186629 175.901593 
L 863.35307 183.01345 
L 863.510979 183.01345 
L 863.672341 192.36367 
L 863.946741 182.807868 
L 864.313998 181.896283 
L 864.783154 181.948399 
L 864.900431 180.970302 
L 864.97525 183.096661 
L 864.998507 182.872652 
L 865.130453 183.819652 
L 865.191556 183.01345 
L 865.59951 182.667934 
L 866.007529 183.01345 
L 866.050235 182.694424 
L 866.823811 179.500711 
L 866.970513 183.033893 
L 867.609269 182.52397 
L 867.735976 182.869485 
L 867.817141 182.380005 
L 867.829492 182.667934 
L 867.847824 175.901593 
L 867.911665 183.531723 
L 868.000461 183.01345 
L 868.467719 183.01345 
L 868.972515 191.332307 
L 869.354062 182.23604 
L 869.477106 183.618101 
L 869.628851 183.01345 
L 869.633 183.963617 
L 869.680193 175.901593 
L 869.887817 175.901593 
L 870.041861 190.298064 
L 870.069922 182.981202 
L 870.371244 182.869485 
L 870.956391 183.01345 
L 871.235259 182.859695 
L 872.135612 183.200892 
L 872.186042 182.853937 
L 872.355974 183.105875 
L 872.368059 183.01345 
L 872.386536 181.254489 
L 872.665506 182.568023 
L 873.330319 182.869485 
L 873.3413 183.01345 
L 874.031351 182.638278 
L 874.246699 182.02614 
L 874.620513 183.01345 
L 874.709261 190.687633 
L 874.989583 181.660181 
L 875.02091 184.539476 
L 875.069635 181.660181 
L 875.256474 183.445056 
L 875.263539 179.083789 
L 875.363774 182.292762 
L 875.454561 182.094955 
L 875.706283 183.01345 
L 875.723354 182.819673 
L 875.957567 183.01345 
L 876.755596 183.01345 
L 877.522512 182.380005 
L 877.858909 181.497789 
L 877.91697 183.01345 
L 878.46173 182.351212 
L 878.763392 182.667934 
L 879.103116 181.08461 
L 879.414443 183.046562 
L 879.470434 182.971124 
L 879.773985 183.01345 
L 880.255304 191.203314 
L 880.648842 181.660181 
L 880.688987 182.777635 
L 880.890448 184.539476 
L 880.940079 182.61985 
L 881.877932 182.380005 
L 882.125459 183.01345 
L 882.227843 182.608333 
L 883.098845 183.01345 
L 883.347867 182.681467 
L 883.642277 183.103284 
L 884.438703 183.198876 
L 884.77846 182.696727 
L 884.89597 183.01345 
L 885.451678 182.783106 
L 885.641812 182.052053 
L 885.923156 183.01345 
L 886.197833 182.667934 
L 886.314269 190.043535 
L 886.391723 182.869773 
L 886.874538 180.89688 
L 886.901389 184.943729 
L 886.95402 181.660181 
L 887.567794 184.539476 
L 887.585953 182.669086 
L 887.625286 182.984657 
L 887.772521 182.783106 
L 887.802942 183.053472 
L 887.845101 182.175575 
L 887.848424 183.01345 
L 888.798455 183.01345 
L 889.093379 185.633607 
L 889.191427 181.660181 
L 889.242923 183.042531 
L 890.187337 183.01345 
L 890.915145 182.669086 
L 891.788768 178.780887 
L 891.916079 181.372252 
L 892.051323 190.558928 
L 892.167385 182.52397 
L 892.352958 184.024082 
L 892.475969 182.754313 
L 892.51761 183.186207 
L 892.680406 182.883881 
L 893.242035 183.040515 
L 893.377237 182.681467 
L 893.717447 183.01345 
L 893.866888 182.380293 
L 894.188037 183.01345 
L 895.007968 182.915266 
L 895.089259 182.681467 
L 895.248051 183.01345 
L 896.625606 182.783106 
L 896.807753 183.103284 
L 896.914465 182.754313 
L 896.968736 183.202331 
L 897.059836 182.730703 
L 897.528678 182.706805 
L 897.612403 190.558928 
L 897.619731 181.660181 
L 898.930308 182.754313 
L 899.131955 184.366718 
L 899.626966 184.136374 
L 899.723552 179.665118 
L 899.942321 181.372252 
L 901.063564 200.745008 
L 903.279901 179.932605 
L 903.431753 183.202907 
L 908.907776 183.103284 
L 908.967249 203.515753 
L 909.107737 181.660181 
L 910.123544 182.74913 
L 911.978292 182.892519 
L 911.9796 186.123087 
L 912.167201 182.665919 
L 912.243291 182.754313 
L 912.281226 181.372252 
L 912.299506 182.23748 
L 912.412241 182.783106 
L 913.522325 182.975731 
L 913.744099 181.516217 
L 913.788796 182.52397 
L 913.976897 181.660181 
L 914.276344 183.01345 
L 914.301401 203.274756 
L 914.770243 183.01345 
L 914.904259 182.783106 
L 915.73819 183.01345 
L 917.076913 183.01345 
L 917.588555 182.524258 
L 918.512492 182.783106 
L 918.79593 182.452851 
L 919.946823 201.588641 
L 920.327174 182.823992 
L 920.849573 182.639141 
L 921.137619 182.878411 
L 921.462011 182.644612 
L 921.462772 183.321246 
L 921.571736 183.105011 
L 921.645929 183.213273 
L 921.674883 182.681467 
L 922.456813 182.645188 
L 922.563254 182.836661 
L 923.627202 182.602286 
L 923.753965 168.703357 
L 923.754386 181.660181 
L 923.879504 182.783106 
L 924.40973 182.978322 
L 924.458502 182.380005 
L 924.592803 203.515753 
L 926.054027 168.703357 
L 926.20395 182.798078 
L 926.31204 182.360426 
L 926.426602 182.422331 
L 926.456102 182.906052 
L 926.561777 182.667934 
L 926.697984 182.667934 
L 926.9238 182.955864 
L 926.973754 146.04907 
L 927.382918 183.01345 
L 927.592009 182.955864 
L 927.667281 182.557945 
L 927.887887 182.61985 
L 928.66128 183.01345 
L 929.004999 182.667934 
L 929.052341 182.83407 
L 930.280908 182.826583 
L 930.298726 183.01345 
L 930.440905 182.884169 
L 930.589664 182.484523 
L 930.622286 180.797833 
L 931.170457 182.495177 
L 931.239663 203.515753 
L 931.293468 182.984657 
L 931.430021 184.251546 
L 931.494274 181.372252 
L 931.678603 182.329905 
L 931.693725 183.531723 
L 931.971696 182.483659 
L 932.124768 161.573936 
L 932.285915 182.724368 
L 932.881628 182.380293 
L 933.04291 183.056639 
L 933.525739 182.93974 
L 933.719115 182.669086 
L 933.819364 183.101556 
L 933.95638 182.783106 
L 934.270412 183.445344 
L 934.693389 181.660181 
L 935.448577 181.660181 
L 935.510904 182.783106 
L 936.141104 182.602286 
L 936.816043 175.901593 
L 937.031555 182.811899 
L 937.161388 203.515753 
L 937.291273 182.689529 
L 937.349353 182.754601 
L 939.576391 182.816794 
L 939.614709 182.452851 
L 939.806482 168.703357 
L 940.748691 191.203314 
L 942.804983 182.667934 
L 944.247843 183.01345 
L 945.346488 185.835158 
L 945.508008 183.077946 
L 945.726941 182.83263 
L 945.94692 183.207226 
L 946.315299 183.101268 
L 946.406197 182.811899 
L 946.954363 182.772453 
L 947.281989 183.01345 
L 947.755158 182.715443 
L 947.845459 183.01345 
L 948.35618 191.590291 
L 948.630903 182.797215 
L 948.717035 183.01345 
L 950.123805 183.01345 
L 950.226975 183.186207 
L 950.658265 182.990415 
L 950.868824 183.186207 
L 951.148949 182.754601 
L 951.805696 182.681467 
L 952.982608 183.186207 
L 953.059843 182.491722 
L 953.231597 183.01345 
L 953.406749 182.916417 
L 953.48954 183.186207 
L 953.564461 181.889661 
L 953.661215 183.01345 
L 953.898671 183.186207 
L 953.926326 191.332307 
L 954.448865 182.758344 
L 954.697111 182.862287 
L 955.66332 182.867469 
L 956.487377 182.681467 
L 956.778885 182.868045 
L 956.980902 182.761511 
L 958.601114 183.217304 
L 958.817467 183.101556 
L 958.848066 182.789153 
L 959.548977 182.810171 
L 959.761493 182.626185 
L 959.780994 189.592349 
L 959.82898 182.49748 
L 960.120344 183.0385 
L 962.361784 182.681467 
L 962.558328 182.900581 
L 963.16635 182.900581 
L 964.42659 182.754601 
L 964.479974 182.61985 
L 964.81039 183.056639 
L 965.223058 189.656557 
L 965.472304 182.677724 
L 965.624587 182.801246 
L 967.261224 181.948111 
L 968.94418 186.353431 
L 968.984228 181.372252 
L 969.052425 182.917857 
L 969.102477 182.837813 
L 969.440219 183.01345 
L 969.688167 182.863726 
L 969.82543 182.380293 
L 969.826523 183.01345 
L 969.898833 182.984945 
L 969.970399 183.119408 
L 970.35825 183.01345 
L 970.538701 182.61985 
L 970.822784 183.213561 
L 970.91235 182.671677 
L 971.031581 187.108382 
L 971.273832 183.01345 
L 971.445455 183.01345 
L 972.358289 182.692408 
L 972.547063 183.01345 
L 972.884516 182.854513 
L 973.06763 183.01345 
L 973.49465 182.863726 
L 973.536033 183.092054 
L 973.706092 183.01345 
L 973.904921 182.52397 
L 974.84377 182.667934 
L 975.07202 183.01345 
L 975.237083 181.660181 
L 975.321458 183.028998 
L 975.583232 182.823128 
L 975.716519 183.01345 
L 976.083664 182.754601 
L 976.085486 183.675687 
L 976.589007 183.01345 
L 976.611988 190.043535 
L 976.929058 183.01345 
L 978.919532 183.01345 
L 978.964962 182.723217 
L 978.995916 183.01345 
L 979.225942 183.056639 
L 979.532054 182.761511 
L 979.596835 181.372252 
L 979.622634 185.979123 
L 979.735542 182.79232 
L 979.76058 184.827405 
L 979.761421 183.01345 
L 981.733077 183.01345 
L 982.215167 182.801534 
L 982.280729 187.438925 
L 982.366104 183.01345 
L 982.589985 183.01345 
L 982.762856 182.52397 
L 982.967069 183.675687 
L 983.109136 183.102996 
L 983.506469 183.101844 
L 983.507328 183.217592 
L 983.528263 183.01345 
L 984.195861 178.158959 
L 984.198076 188.040697 
L 984.601959 178.158959 
L 984.602567 188.040697 
L 984.603375 185.057749 
L 985.29608 181.660181 
L 986.524133 183.046562 
L 987.07928 183.01345 
L 987.33162 182.613228 
L 987.407322 183.01345 
L 987.886767 182.801246 
L 987.996115 186.239987 
L 988.139107 183.01345 
L 990.141002 183.071036 
L 990.141282 183.042243 
L 990.141562 139.910414 
L 990.201002 182.859407 
L 990.60783 183.040803 
L 990.671476 226.289243 
L 990.670915 139.910414 
L 990.677364 184.136374 
L 990.9569 182.902885 
L 991.011573 183.01345 
L 991.503636 183.01345 
L 992.19028 167.257951 
L 992.19056 182.667934 
L 992.336357 183.01345 
L 992.571874 183.01345 
L 993.000851 181.559694 
L 993.005057 182.61985 
L 993.11861 182.979474 
L 993.442446 193.807636 
L 993.900863 180.220534 
L 994.237315 183.01345 
L 994.985923 183.01345 
L 995.389667 182.61985 
L 995.553687 183.01345 
L 995.794812 183.20118 
L 995.796214 183.01345 
L 996.205565 332.247273 
L 996.218182 182.935709 
L 996.218182 182.935709 
" style="fill:none;stroke:#1f77b4;stroke-linecap:round;stroke-width:1.4;"/>
   </g>
   <g id="patch_3">
    <path d="M 144 345.6 
L 144 51.84 
" style="fill:none;stroke:#262626;stroke-linecap:square;stroke-linejoin:miter;stroke-width:1.25;"/>
   </g>
   <g id="patch_4">
    <path d="M 1036.8 345.6 
L 1036.8 51.84 
" style="fill:none;stroke:#262626;stroke-linecap:square;stroke-linejoin:miter;stroke-width:1.25;"/>
   </g>
   <g id="patch_5">
    <path d="M 144 345.6 
L 1036.8 345.6 
" style="fill:none;stroke:#262626;stroke-linecap:square;stroke-linejoin:miter;stroke-width:1.25;"/>
   </g>
   <g id="patch_6">
    <path d="M 144 51.84 
L 1036.8 51.84 
" style="fill:none;stroke:#262626;stroke-linecap:square;stroke-linejoin:miter;stroke-width:1.25;"/>
   </g>
   <g id="text_14">
    <!-- Change in Balance over Time -->
    <defs>
     <path d="M 30.609375 48.390625 
Q 23.390625 48.390625 19.1875 42.75 
Q 14.984375 37.109375 14.984375 27.296875 
Q 14.984375 17.484375 19.15625 11.84375 
Q 23.34375 6.203125 30.609375 6.203125 
Q 37.796875 6.203125 41.984375 11.859375 
Q 46.1875 17.53125 46.1875 27.296875 
Q 46.1875 37.015625 41.984375 42.703125 
Q 37.796875 48.390625 30.609375 48.390625 
z
M 30.609375 56 
Q 42.328125 56 49.015625 48.375 
Q 55.71875 40.765625 55.71875 27.296875 
Q 55.71875 13.875 49.015625 6.21875 
Q 42.328125 -1.421875 30.609375 -1.421875 
Q 18.84375 -1.421875 12.171875 6.21875 
Q 5.515625 13.875 5.515625 27.296875 
Q 5.515625 40.765625 12.171875 48.375 
Q 18.84375 56 30.609375 56 
z
" id="DejaVuSans-6f"/>
     <path d="M 2.984375 54.6875 
L 12.5 54.6875 
L 29.59375 8.796875 
L 46.6875 54.6875 
L 56.203125 54.6875 
L 35.6875 0 
L 23.484375 0 
z
" id="DejaVuSans-76"/>
     <path d="M -0.296875 72.90625 
L 61.375 72.90625 
L 61.375 64.59375 
L 35.5 64.59375 
L 35.5 0 
L 25.59375 0 
L 25.59375 64.59375 
L -0.296875 64.59375 
z
" id="DejaVuSans-54"/>
     <path d="M 52 44.1875 
Q 55.375 50.25 60.0625 53.125 
Q 64.75 56 71.09375 56 
Q 79.640625 56 84.28125 50.015625 
Q 88.921875 44.046875 88.921875 33.015625 
L 88.921875 0 
L 79.890625 0 
L 79.890625 32.71875 
Q 79.890625 40.578125 77.09375 44.375 
Q 74.3125 48.1875 68.609375 48.1875 
Q 61.625 48.1875 57.5625 43.546875 
Q 53.515625 38.921875 53.515625 30.90625 
L 53.515625 0 
L 44.484375 0 
L 44.484375 32.71875 
Q 44.484375 40.625 41.703125 44.40625 
Q 38.921875 48.1875 33.109375 48.1875 
Q 26.21875 48.1875 22.15625 43.53125 
Q 18.109375 38.875 18.109375 30.90625 
L 18.109375 0 
L 9.078125 0 
L 9.078125 54.6875 
L 18.109375 54.6875 
L 18.109375 46.1875 
Q 21.1875 51.21875 25.484375 53.609375 
Q 29.78125 56 35.6875 56 
Q 41.65625 56 45.828125 52.96875 
Q 50 49.953125 52 44.1875 
z
" id="DejaVuSans-6d"/>
    </defs>
    <g style="fill:#262626;" transform="translate(509.507891 45.84)scale(0.11 -0.11)">
     <use xlink:href="#DejaVuSans-43"/>
     <use x="69.824219" xlink:href="#DejaVuSans-68"/>
     <use x="133.203125" xlink:href="#DejaVuSans-61"/>
     <use x="194.482422" xlink:href="#DejaVuSans-6e"/>
     <use x="257.861328" xlink:href="#DejaVuSans-67"/>
     <use x="321.337891" xlink:href="#DejaVuSans-65"/>
     <use x="382.861328" xlink:href="#DejaVuSans-20"/>
     <use x="414.648438" xlink:href="#DejaVuSans-69"/>
     <use x="442.431641" xlink:href="#DejaVuSans-6e"/>
     <use x="505.810547" xlink:href="#DejaVuSans-20"/>
     <use x="537.597656" xlink:href="#DejaVuSans-42"/>
     <use x="606.201172" xlink:href="#DejaVuSans-61"/>
     <use x="667.480469" xlink:href="#DejaVuSans-6c"/>
     <use x="695.263672" xlink:href="#DejaVuSans-61"/>
     <use x="756.542969" xlink:href="#DejaVuSans-6e"/>
     <use x="819.921875" xlink:href="#DejaVuSans-63"/>
     <use x="874.902344" xlink:href="#DejaVuSans-65"/>
     <use x="936.425781" xlink:href="#DejaVuSans-20"/>
     <use x="968.212891" xlink:href="#DejaVuSans-6f"/>
     <use x="1029.394531" xlink:href="#DejaVuSans-76"/>
     <use x="1088.574219" xlink:href="#DejaVuSans-65"/>
     <use x="1150.097656" xlink:href="#DejaVuSans-72"/>
     <use x="1191.210938" xlink:href="#DejaVuSans-20"/>
     <use x="1222.998047" xlink:href="#DejaVuSans-54"/>
     <use x="1284.035156" xlink:href="#DejaVuSans-69"/>
     <use x="1311.818359" xlink:href="#DejaVuSans-6d"/>
     <use x="1409.230469" xlink:href="#DejaVuSans-65"/>
    </g>
   </g>
   <g id="legend_1">
    <g id="line2d_86">
     <path d="M 940.6625 62.31875 
L 956.6625 62.31875 
" style="fill:none;stroke:#1f77b4;stroke-linecap:round;stroke-width:1.4;"/>
    </g>
    <g id="line2d_87"/>
    <g id="text_15">
     <!-- Change_Balance -->
     <defs>
      <path d="M 50.984375 -16.609375 
L 50.984375 -23.578125 
L -0.984375 -23.578125 
L -0.984375 -16.609375 
z
" id="DejaVuSans-5f"/>
     </defs>
     <g style="fill:#262626;" transform="translate(963.0625 65.11875)scale(0.08 -0.08)">
      <use xlink:href="#DejaVuSans-43"/>
      <use x="69.824219" xlink:href="#DejaVuSans-68"/>
      <use x="133.203125" xlink:href="#DejaVuSans-61"/>
      <use x="194.482422" xlink:href="#DejaVuSans-6e"/>
      <use x="257.861328" xlink:href="#DejaVuSans-67"/>
      <use x="321.337891" xlink:href="#DejaVuSans-65"/>
      <use x="382.861328" xlink:href="#DejaVuSans-5f"/>
      <use x="432.861328" xlink:href="#DejaVuSans-42"/>
      <use x="501.464844" xlink:href="#DejaVuSans-61"/>
      <use x="562.744141" xlink:href="#DejaVuSans-6c"/>
      <use x="590.527344" xlink:href="#DejaVuSans-61"/>
      <use x="651.806641" xlink:href="#DejaVuSans-6e"/>
      <use x="715.185547" xlink:href="#DejaVuSans-63"/>
      <use x="770.166016" xlink:href="#DejaVuSans-65"/>
     </g>
    </g>
   </g>
  </g>
 </g>
 <defs>
  <clipPath id="p8decd460ec">
   <rect height="293.76" width="892.8" x="144" y="51.84"/>
  </clipPath>
 </defs>
</svg>
