<?xml version="1.0" encoding="utf-8" standalone="no"?>
<!DOCTYPE svg PUBLIC "-//W3C//DTD SVG 1.1//EN"
  "http://www.w3.org/Graphics/SVG/1.1/DTD/svg11.dtd">
<!-- Created with matplotlib (http://matplotlib.org/) -->
<svg height="432pt" version="1.1" viewBox="0 0 1152 432" width="1152pt" xmlns="http://www.w3.org/2000/svg" xmlns:xlink="http://www.w3.org/1999/xlink">
 <defs>
  <style type="text/css">
*{stroke-linecap:butt;stroke-linejoin:round;}
  </style>
 </defs>
 <g id="figure_1">
  <g id="patch_1">
   <path d="M 0 432 
L 1152 432 
L 1152 0 
L 0 0 
z
" style="fill:#ffffff;"/>
  </g>
  <g id="axes_1">
   <g id="patch_2">
    <path d="M 144 345.6 
L 1036.8 345.6 
L 1036.8 51.84 
L 144 51.84 
z
" style="fill:#eaeaf2;"/>
   </g>
   <g id="matplotlib.axis_1">
    <g id="xtick_1">
     <g id="line2d_1">
      <path clip-path="url(#pc413013640)" d="M 247.238853 345.6 
L 247.238853 51.84 
" style="fill:none;stroke:#ffffff;stroke-linecap:round;stroke-width:0.8;"/>
     </g>
     <g id="line2d_2"/>
     <g id="text_1">
      <!-- 2013 -->
      <defs>
       <path d="M 19.1875 8.296875 
L 53.609375 8.296875 
L 53.609375 0 
L 7.328125 0 
L 7.328125 8.296875 
Q 12.9375 14.109375 22.625 23.890625 
Q 32.328125 33.6875 34.8125 36.53125 
Q 39.546875 41.84375 41.421875 45.53125 
Q 43.3125 49.21875 43.3125 52.78125 
Q 43.3125 58.59375 39.234375 62.25 
Q 35.15625 65.921875 28.609375 65.921875 
Q 23.96875 65.921875 18.8125 64.3125 
Q 13.671875 62.703125 7.8125 59.421875 
L 7.8125 69.390625 
Q 13.765625 71.78125 18.9375 73 
Q 24.125 74.21875 28.421875 74.21875 
Q 39.75 74.21875 46.484375 68.546875 
Q 53.21875 62.890625 53.21875 53.421875 
Q 53.21875 48.921875 51.53125 44.890625 
Q 49.859375 40.875 45.40625 35.40625 
Q 44.1875 33.984375 37.640625 27.21875 
Q 31.109375 20.453125 19.1875 8.296875 
z
" id="DejaVuSans-32"/>
       <path d="M 31.78125 66.40625 
Q 24.171875 66.40625 20.328125 58.90625 
Q 16.5 51.421875 16.5 36.375 
Q 16.5 21.390625 20.328125 13.890625 
Q 24.171875 6.390625 31.78125 6.390625 
Q 39.453125 6.390625 43.28125 13.890625 
Q 47.125 21.390625 47.125 36.375 
Q 47.125 51.421875 43.28125 58.90625 
Q 39.453125 66.40625 31.78125 66.40625 
z
M 31.78125 74.21875 
Q 44.046875 74.21875 50.515625 64.515625 
Q 56.984375 54.828125 56.984375 36.375 
Q 56.984375 17.96875 50.515625 8.265625 
Q 44.046875 -1.421875 31.78125 -1.421875 
Q 19.53125 -1.421875 13.0625 8.265625 
Q 6.59375 17.96875 6.59375 36.375 
Q 6.59375 54.828125 13.0625 64.515625 
Q 19.53125 74.21875 31.78125 74.21875 
z
" id="DejaVuSans-30"/>
       <path d="M 12.40625 8.296875 
L 28.515625 8.296875 
L 28.515625 63.921875 
L 10.984375 60.40625 
L 10.984375 69.390625 
L 28.421875 72.90625 
L 38.28125 72.90625 
L 38.28125 8.296875 
L 54.390625 8.296875 
L 54.390625 0 
L 12.40625 0 
z
" id="DejaVuSans-31"/>
       <path d="M 40.578125 39.3125 
Q 47.65625 37.796875 51.625 33 
Q 55.609375 28.21875 55.609375 21.1875 
Q 55.609375 10.40625 48.1875 4.484375 
Q 40.765625 -1.421875 27.09375 -1.421875 
Q 22.515625 -1.421875 17.65625 -0.515625 
Q 12.796875 0.390625 7.625 2.203125 
L 7.625 11.71875 
Q 11.71875 9.328125 16.59375 8.109375 
Q 21.484375 6.890625 26.8125 6.890625 
Q 36.078125 6.890625 40.9375 10.546875 
Q 45.796875 14.203125 45.796875 21.1875 
Q 45.796875 27.640625 41.28125 31.265625 
Q 36.765625 34.90625 28.71875 34.90625 
L 20.21875 34.90625 
L 20.21875 43.015625 
L 29.109375 43.015625 
Q 36.375 43.015625 40.234375 45.921875 
Q 44.09375 48.828125 44.09375 54.296875 
Q 44.09375 59.90625 40.109375 62.90625 
Q 36.140625 65.921875 28.71875 65.921875 
Q 24.65625 65.921875 20.015625 65.03125 
Q 15.375 64.15625 9.8125 62.3125 
L 9.8125 71.09375 
Q 15.4375 72.65625 20.34375 73.4375 
Q 25.25 74.21875 29.59375 74.21875 
Q 40.828125 74.21875 47.359375 69.109375 
Q 53.90625 64.015625 53.90625 55.328125 
Q 53.90625 49.265625 50.4375 45.09375 
Q 46.96875 40.921875 40.578125 39.3125 
z
" id="DejaVuSans-33"/>
      </defs>
      <g style="fill:#262626;" transform="translate(224.158663 368.40544)rotate(-30)scale(0.1 -0.1)">
       <use xlink:href="#DejaVuSans-32"/>
       <use x="63.623047" xlink:href="#DejaVuSans-30"/>
       <use x="127.246094" xlink:href="#DejaVuSans-31"/>
       <use x="190.869141" xlink:href="#DejaVuSans-33"/>
      </g>
     </g>
    </g>
    <g id="xtick_2">
     <g id="line2d_3">
      <path clip-path="url(#pc413013640)" d="M 396.820336 345.6 
L 396.820336 51.84 
" style="fill:none;stroke:#ffffff;stroke-linecap:round;stroke-width:0.8;"/>
     </g>
     <g id="line2d_4"/>
     <g id="text_2">
      <!-- 2014 -->
      <defs>
       <path d="M 37.796875 64.3125 
L 12.890625 25.390625 
L 37.796875 25.390625 
z
M 35.203125 72.90625 
L 47.609375 72.90625 
L 47.609375 25.390625 
L 58.015625 25.390625 
L 58.015625 17.1875 
L 47.609375 17.1875 
L 47.609375 0 
L 37.796875 0 
L 37.796875 17.1875 
L 4.890625 17.1875 
L 4.890625 26.703125 
z
" id="DejaVuSans-34"/>
      </defs>
      <g style="fill:#262626;" transform="translate(373.740146 368.40544)rotate(-30)scale(0.1 -0.1)">
       <use xlink:href="#DejaVuSans-32"/>
       <use x="63.623047" xlink:href="#DejaVuSans-30"/>
       <use x="127.246094" xlink:href="#DejaVuSans-31"/>
       <use x="190.869141" xlink:href="#DejaVuSans-34"/>
      </g>
     </g>
    </g>
    <g id="xtick_3">
     <g id="line2d_5">
      <path clip-path="url(#pc413013640)" d="M 546.40182 345.6 
L 546.40182 51.84 
" style="fill:none;stroke:#ffffff;stroke-linecap:round;stroke-width:0.8;"/>
     </g>
     <g id="line2d_6"/>
     <g id="text_3">
      <!-- 2015 -->
      <defs>
       <path d="M 10.796875 72.90625 
L 49.515625 72.90625 
L 49.515625 64.59375 
L 19.828125 64.59375 
L 19.828125 46.734375 
Q 21.96875 47.46875 24.109375 47.828125 
Q 26.265625 48.1875 28.421875 48.1875 
Q 40.625 48.1875 47.75 41.5 
Q 54.890625 34.8125 54.890625 23.390625 
Q 54.890625 11.625 47.5625 5.09375 
Q 40.234375 -1.421875 26.90625 -1.421875 
Q 22.3125 -1.421875 17.546875 -0.640625 
Q 12.796875 0.140625 7.71875 1.703125 
L 7.71875 11.625 
Q 12.109375 9.234375 16.796875 8.0625 
Q 21.484375 6.890625 26.703125 6.890625 
Q 35.15625 6.890625 40.078125 11.328125 
Q 45.015625 15.765625 45.015625 23.390625 
Q 45.015625 31 40.078125 35.4375 
Q 35.15625 39.890625 26.703125 39.890625 
Q 22.75 39.890625 18.8125 39.015625 
Q 14.890625 38.140625 10.796875 36.28125 
z
" id="DejaVuSans-35"/>
      </defs>
      <g style="fill:#262626;" transform="translate(523.32163 368.40544)rotate(-30)scale(0.1 -0.1)">
       <use xlink:href="#DejaVuSans-32"/>
       <use x="63.623047" xlink:href="#DejaVuSans-30"/>
       <use x="127.246094" xlink:href="#DejaVuSans-31"/>
       <use x="190.869141" xlink:href="#DejaVuSans-35"/>
      </g>
     </g>
    </g>
    <g id="xtick_4">
     <g id="line2d_7">
      <path clip-path="url(#pc413013640)" d="M 695.983304 345.6 
L 695.983304 51.84 
" style="fill:none;stroke:#ffffff;stroke-linecap:round;stroke-width:0.8;"/>
     </g>
     <g id="line2d_8"/>
     <g id="text_4">
      <!-- 2016 -->
      <defs>
       <path d="M 33.015625 40.375 
Q 26.375 40.375 22.484375 35.828125 
Q 18.609375 31.296875 18.609375 23.390625 
Q 18.609375 15.53125 22.484375 10.953125 
Q 26.375 6.390625 33.015625 6.390625 
Q 39.65625 6.390625 43.53125 10.953125 
Q 47.40625 15.53125 47.40625 23.390625 
Q 47.40625 31.296875 43.53125 35.828125 
Q 39.65625 40.375 33.015625 40.375 
z
M 52.59375 71.296875 
L 52.59375 62.3125 
Q 48.875 64.0625 45.09375 64.984375 
Q 41.3125 65.921875 37.59375 65.921875 
Q 27.828125 65.921875 22.671875 59.328125 
Q 17.53125 52.734375 16.796875 39.40625 
Q 19.671875 43.65625 24.015625 45.921875 
Q 28.375 48.1875 33.59375 48.1875 
Q 44.578125 48.1875 50.953125 41.515625 
Q 57.328125 34.859375 57.328125 23.390625 
Q 57.328125 12.15625 50.6875 5.359375 
Q 44.046875 -1.421875 33.015625 -1.421875 
Q 20.359375 -1.421875 13.671875 8.265625 
Q 6.984375 17.96875 6.984375 36.375 
Q 6.984375 53.65625 15.1875 63.9375 
Q 23.390625 74.21875 37.203125 74.21875 
Q 40.921875 74.21875 44.703125 73.484375 
Q 48.484375 72.75 52.59375 71.296875 
z
" id="DejaVuSans-36"/>
      </defs>
      <g style="fill:#262626;" transform="translate(672.903114 368.40544)rotate(-30)scale(0.1 -0.1)">
       <use xlink:href="#DejaVuSans-32"/>
       <use x="63.623047" xlink:href="#DejaVuSans-30"/>
       <use x="127.246094" xlink:href="#DejaVuSans-31"/>
       <use x="190.869141" xlink:href="#DejaVuSans-36"/>
      </g>
     </g>
    </g>
    <g id="xtick_5">
     <g id="line2d_9">
      <path clip-path="url(#pc413013640)" d="M 845.9746 345.6 
L 845.9746 51.84 
" style="fill:none;stroke:#ffffff;stroke-linecap:round;stroke-width:0.8;"/>
     </g>
     <g id="line2d_10"/>
     <g id="text_5">
      <!-- 2017 -->
      <defs>
       <path d="M 8.203125 72.90625 
L 55.078125 72.90625 
L 55.078125 68.703125 
L 28.609375 0 
L 18.3125 0 
L 43.21875 64.59375 
L 8.203125 64.59375 
z
" id="DejaVuSans-37"/>
      </defs>
      <g style="fill:#262626;" transform="translate(822.894409 368.40544)rotate(-30)scale(0.1 -0.1)">
       <use xlink:href="#DejaVuSans-32"/>
       <use x="63.623047" xlink:href="#DejaVuSans-30"/>
       <use x="127.246094" xlink:href="#DejaVuSans-31"/>
       <use x="190.869141" xlink:href="#DejaVuSans-37"/>
      </g>
     </g>
    </g>
    <g id="xtick_6">
     <g id="line2d_11">
      <path clip-path="url(#pc413013640)" d="M 995.556083 345.6 
L 995.556083 51.84 
" style="fill:none;stroke:#ffffff;stroke-linecap:round;stroke-width:0.8;"/>
     </g>
     <g id="line2d_12"/>
     <g id="text_6">
      <!-- 2018 -->
      <defs>
       <path d="M 31.78125 34.625 
Q 24.75 34.625 20.71875 30.859375 
Q 16.703125 27.09375 16.703125 20.515625 
Q 16.703125 13.921875 20.71875 10.15625 
Q 24.75 6.390625 31.78125 6.390625 
Q 38.8125 6.390625 42.859375 10.171875 
Q 46.921875 13.96875 46.921875 20.515625 
Q 46.921875 27.09375 42.890625 30.859375 
Q 38.875 34.625 31.78125 34.625 
z
M 21.921875 38.8125 
Q 15.578125 40.375 12.03125 44.71875 
Q 8.5 49.078125 8.5 55.328125 
Q 8.5 64.0625 14.71875 69.140625 
Q 20.953125 74.21875 31.78125 74.21875 
Q 42.671875 74.21875 48.875 69.140625 
Q 55.078125 64.0625 55.078125 55.328125 
Q 55.078125 49.078125 51.53125 44.71875 
Q 48 40.375 41.703125 38.8125 
Q 48.828125 37.15625 52.796875 32.3125 
Q 56.78125 27.484375 56.78125 20.515625 
Q 56.78125 9.90625 50.3125 4.234375 
Q 43.84375 -1.421875 31.78125 -1.421875 
Q 19.734375 -1.421875 13.25 4.234375 
Q 6.78125 9.90625 6.78125 20.515625 
Q 6.78125 27.484375 10.78125 32.3125 
Q 14.796875 37.15625 21.921875 38.8125 
z
M 18.3125 54.390625 
Q 18.3125 48.734375 21.84375 45.5625 
Q 25.390625 42.390625 31.78125 42.390625 
Q 38.140625 42.390625 41.71875 45.5625 
Q 45.3125 48.734375 45.3125 54.390625 
Q 45.3125 60.0625 41.71875 63.234375 
Q 38.140625 66.40625 31.78125 66.40625 
Q 25.390625 66.40625 21.84375 63.234375 
Q 18.3125 60.0625 18.3125 54.390625 
z
" id="DejaVuSans-38"/>
      </defs>
      <g style="fill:#262626;" transform="translate(972.475893 368.40544)rotate(-30)scale(0.1 -0.1)">
       <use xlink:href="#DejaVuSans-32"/>
       <use x="63.623047" xlink:href="#DejaVuSans-30"/>
       <use x="127.246094" xlink:href="#DejaVuSans-31"/>
       <use x="190.869141" xlink:href="#DejaVuSans-38"/>
      </g>
     </g>
    </g>
    <g id="xtick_7">
     <g id="line2d_13"/>
    </g>
    <g id="xtick_8">
     <g id="line2d_14"/>
    </g>
    <g id="xtick_9">
     <g id="line2d_15"/>
    </g>
    <g id="xtick_10">
     <g id="line2d_16"/>
    </g>
    <g id="xtick_11">
     <g id="line2d_17"/>
    </g>
    <g id="xtick_12">
     <g id="line2d_18"/>
    </g>
    <g id="xtick_13">
     <g id="line2d_19"/>
    </g>
    <g id="xtick_14">
     <g id="line2d_20"/>
    </g>
    <g id="xtick_15">
     <g id="line2d_21"/>
    </g>
    <g id="xtick_16">
     <g id="line2d_22"/>
    </g>
    <g id="xtick_17">
     <g id="line2d_23"/>
    </g>
    <g id="xtick_18">
     <g id="line2d_24"/>
    </g>
    <g id="xtick_19">
     <g id="line2d_25"/>
    </g>
    <g id="xtick_20">
     <g id="line2d_26"/>
    </g>
    <g id="xtick_21">
     <g id="line2d_27"/>
    </g>
    <g id="xtick_22">
     <g id="line2d_28"/>
    </g>
    <g id="xtick_23">
     <g id="line2d_29"/>
    </g>
    <g id="xtick_24">
     <g id="line2d_30"/>
    </g>
    <g id="xtick_25">
     <g id="line2d_31"/>
    </g>
    <g id="xtick_26">
     <g id="line2d_32"/>
    </g>
    <g id="xtick_27">
     <g id="line2d_33"/>
    </g>
    <g id="xtick_28">
     <g id="line2d_34"/>
    </g>
    <g id="xtick_29">
     <g id="line2d_35"/>
    </g>
    <g id="xtick_30">
     <g id="line2d_36"/>
    </g>
    <g id="xtick_31">
     <g id="line2d_37"/>
    </g>
    <g id="xtick_32">
     <g id="line2d_38"/>
    </g>
    <g id="xtick_33">
     <g id="line2d_39"/>
    </g>
    <g id="xtick_34">
     <g id="line2d_40"/>
    </g>
    <g id="xtick_35">
     <g id="line2d_41"/>
    </g>
    <g id="xtick_36">
     <g id="line2d_42"/>
    </g>
    <g id="xtick_37">
     <g id="line2d_43"/>
    </g>
    <g id="xtick_38">
     <g id="line2d_44"/>
    </g>
    <g id="xtick_39">
     <g id="line2d_45"/>
    </g>
    <g id="xtick_40">
     <g id="line2d_46"/>
    </g>
    <g id="xtick_41">
     <g id="line2d_47"/>
    </g>
    <g id="xtick_42">
     <g id="line2d_48"/>
    </g>
    <g id="xtick_43">
     <g id="line2d_49"/>
    </g>
    <g id="xtick_44">
     <g id="line2d_50"/>
    </g>
    <g id="xtick_45">
     <g id="line2d_51"/>
    </g>
    <g id="xtick_46">
     <g id="line2d_52"/>
    </g>
    <g id="xtick_47">
     <g id="line2d_53"/>
    </g>
    <g id="xtick_48">
     <g id="line2d_54"/>
    </g>
    <g id="xtick_49">
     <g id="line2d_55"/>
    </g>
    <g id="xtick_50">
     <g id="line2d_56"/>
    </g>
    <g id="xtick_51">
     <g id="line2d_57"/>
    </g>
    <g id="xtick_52">
     <g id="line2d_58"/>
    </g>
    <g id="xtick_53">
     <g id="line2d_59"/>
    </g>
    <g id="xtick_54">
     <g id="line2d_60"/>
    </g>
    <g id="xtick_55">
     <g id="line2d_61"/>
    </g>
    <g id="xtick_56">
     <g id="line2d_62"/>
    </g>
    <g id="xtick_57">
     <g id="line2d_63"/>
    </g>
    <g id="xtick_58">
     <g id="line2d_64"/>
    </g>
    <g id="xtick_59">
     <g id="line2d_65"/>
    </g>
    <g id="xtick_60">
     <g id="line2d_66"/>
    </g>
    <g id="xtick_61">
     <g id="line2d_67"/>
    </g>
    <g id="xtick_62">
     <g id="line2d_68"/>
    </g>
    <g id="xtick_63">
     <g id="line2d_69"/>
    </g>
    <g id="xtick_64">
     <g id="line2d_70"/>
    </g>
    <g id="xtick_65">
     <g id="line2d_71"/>
    </g>
    <g id="xtick_66">
     <g id="line2d_72"/>
    </g>
    <g id="xtick_67">
     <g id="line2d_73"/>
    </g>
    <g id="xtick_68">
     <g id="line2d_74"/>
    </g>
    <g id="xtick_69">
     <g id="line2d_75"/>
    </g>
    <g id="xtick_70">
     <g id="line2d_76"/>
    </g>
    <g id="xtick_71">
     <g id="line2d_77"/>
    </g>
    <g id="xtick_72">
     <g id="line2d_78"/>
    </g>
    <g id="xtick_73">
     <g id="line2d_79"/>
    </g>
    <g id="xtick_74">
     <g id="line2d_80"/>
    </g>
    <g id="xtick_75">
     <g id="line2d_81"/>
    </g>
    <g id="xtick_76">
     <g id="line2d_82"/>
    </g>
    <g id="xtick_77">
     <g id="line2d_83"/>
    </g>
    <g id="xtick_78">
     <g id="line2d_84"/>
    </g>
    <g id="text_7">
     <!-- Year -->
     <defs>
      <path d="M -0.203125 72.90625 
L 10.40625 72.90625 
L 30.609375 42.921875 
L 50.6875 72.90625 
L 61.28125 72.90625 
L 35.5 34.71875 
L 35.5 0 
L 25.59375 0 
L 25.59375 34.71875 
z
" id="DejaVuSans-59"/>
      <path d="M 56.203125 29.59375 
L 56.203125 25.203125 
L 14.890625 25.203125 
Q 15.484375 15.921875 20.484375 11.0625 
Q 25.484375 6.203125 34.421875 6.203125 
Q 39.59375 6.203125 44.453125 7.46875 
Q 49.3125 8.734375 54.109375 11.28125 
L 54.109375 2.78125 
Q 49.265625 0.734375 44.1875 -0.34375 
Q 39.109375 -1.421875 33.890625 -1.421875 
Q 20.796875 -1.421875 13.15625 6.1875 
Q 5.515625 13.8125 5.515625 26.8125 
Q 5.515625 40.234375 12.765625 48.109375 
Q 20.015625 56 32.328125 56 
Q 43.359375 56 49.78125 48.890625 
Q 56.203125 41.796875 56.203125 29.59375 
z
M 47.21875 32.234375 
Q 47.125 39.59375 43.09375 43.984375 
Q 39.0625 48.390625 32.421875 48.390625 
Q 24.90625 48.390625 20.390625 44.140625 
Q 15.875 39.890625 15.1875 32.171875 
z
" id="DejaVuSans-65"/>
      <path d="M 34.28125 27.484375 
Q 23.390625 27.484375 19.1875 25 
Q 14.984375 22.515625 14.984375 16.5 
Q 14.984375 11.71875 18.140625 8.90625 
Q 21.296875 6.109375 26.703125 6.109375 
Q 34.1875 6.109375 38.703125 11.40625 
Q 43.21875 16.703125 43.21875 25.484375 
L 43.21875 27.484375 
z
M 52.203125 31.203125 
L 52.203125 0 
L 43.21875 0 
L 43.21875 8.296875 
Q 40.140625 3.328125 35.546875 0.953125 
Q 30.953125 -1.421875 24.3125 -1.421875 
Q 15.921875 -1.421875 10.953125 3.296875 
Q 6 8.015625 6 15.921875 
Q 6 25.140625 12.171875 29.828125 
Q 18.359375 34.515625 30.609375 34.515625 
L 43.21875 34.515625 
L 43.21875 35.40625 
Q 43.21875 41.609375 39.140625 45 
Q 35.0625 48.390625 27.6875 48.390625 
Q 23 48.390625 18.546875 47.265625 
Q 14.109375 46.140625 10.015625 43.890625 
L 10.015625 52.203125 
Q 14.9375 54.109375 19.578125 55.046875 
Q 24.21875 56 28.609375 56 
Q 40.484375 56 46.34375 49.84375 
Q 52.203125 43.703125 52.203125 31.203125 
z
" id="DejaVuSans-61"/>
      <path d="M 41.109375 46.296875 
Q 39.59375 47.171875 37.8125 47.578125 
Q 36.03125 48 33.890625 48 
Q 26.265625 48 22.1875 43.046875 
Q 18.109375 38.09375 18.109375 28.8125 
L 18.109375 0 
L 9.078125 0 
L 9.078125 54.6875 
L 18.109375 54.6875 
L 18.109375 46.1875 
Q 20.953125 51.171875 25.484375 53.578125 
Q 30.03125 56 36.53125 56 
Q 37.453125 56 38.578125 55.875 
Q 39.703125 55.765625 41.0625 55.515625 
z
" id="DejaVuSans-72"/>
     </defs>
     <g style="fill:#262626;" transform="translate(578.036172 382.564783)scale(0.11 -0.11)">
      <use xlink:href="#DejaVuSans-59"/>
      <use x="60.880859" xlink:href="#DejaVuSans-65"/>
      <use x="122.404297" xlink:href="#DejaVuSans-61"/>
      <use x="183.683594" xlink:href="#DejaVuSans-72"/>
     </g>
    </g>
   </g>
   <g id="matplotlib.axis_2">
    <g id="ytick_1">
     <g id="line2d_85">
      <path clip-path="url(#pc413013640)" d="M 144 329.14957 
L 1036.8 329.14957 
" style="fill:none;stroke:#ffffff;stroke-linecap:round;stroke-width:0.8;"/>
     </g>
     <g id="line2d_86"/>
     <g id="text_8">
      <!-- −4000 -->
      <defs>
       <path d="M 10.59375 35.5 
L 73.1875 35.5 
L 73.1875 27.203125 
L 10.59375 27.203125 
z
" id="DejaVuSans-2212"/>
      </defs>
      <g style="fill:#262626;" transform="translate(106.670312 332.948789)scale(0.1 -0.1)">
       <use xlink:href="#DejaVuSans-2212"/>
       <use x="83.789062" xlink:href="#DejaVuSans-34"/>
       <use x="147.412109" xlink:href="#DejaVuSans-30"/>
       <use x="211.035156" xlink:href="#DejaVuSans-30"/>
       <use x="274.658203" xlink:href="#DejaVuSans-30"/>
      </g>
     </g>
    </g>
    <g id="ytick_2">
     <g id="line2d_87">
      <path clip-path="url(#pc413013640)" d="M 144 263.934785 
L 1036.8 263.934785 
" style="fill:none;stroke:#ffffff;stroke-linecap:round;stroke-width:0.8;"/>
     </g>
     <g id="line2d_88"/>
     <g id="text_9">
      <!-- −2000 -->
      <g style="fill:#262626;" transform="translate(106.670312 267.734004)scale(0.1 -0.1)">
       <use xlink:href="#DejaVuSans-2212"/>
       <use x="83.789062" xlink:href="#DejaVuSans-32"/>
       <use x="147.412109" xlink:href="#DejaVuSans-30"/>
       <use x="211.035156" xlink:href="#DejaVuSans-30"/>
       <use x="274.658203" xlink:href="#DejaVuSans-30"/>
      </g>
     </g>
    </g>
    <g id="ytick_3">
     <g id="line2d_89">
      <path clip-path="url(#pc413013640)" d="M 144 198.72 
L 1036.8 198.72 
" style="fill:none;stroke:#ffffff;stroke-linecap:round;stroke-width:0.8;"/>
     </g>
     <g id="line2d_90"/>
     <g id="text_10">
      <!-- 0 -->
      <g style="fill:#262626;" transform="translate(134.1375 202.519219)scale(0.1 -0.1)">
       <use xlink:href="#DejaVuSans-30"/>
      </g>
     </g>
    </g>
    <g id="ytick_4">
     <g id="line2d_91">
      <path clip-path="url(#pc413013640)" d="M 144 133.505215 
L 1036.8 133.505215 
" style="fill:none;stroke:#ffffff;stroke-linecap:round;stroke-width:0.8;"/>
     </g>
     <g id="line2d_92"/>
     <g id="text_11">
      <!-- 2000 -->
      <g style="fill:#262626;" transform="translate(115.05 137.304434)scale(0.1 -0.1)">
       <use xlink:href="#DejaVuSans-32"/>
       <use x="63.623047" xlink:href="#DejaVuSans-30"/>
       <use x="127.246094" xlink:href="#DejaVuSans-30"/>
       <use x="190.869141" xlink:href="#DejaVuSans-30"/>
      </g>
     </g>
    </g>
    <g id="ytick_5">
     <g id="line2d_93">
      <path clip-path="url(#pc413013640)" d="M 144 68.29043 
L 1036.8 68.29043 
" style="fill:none;stroke:#ffffff;stroke-linecap:round;stroke-width:0.8;"/>
     </g>
     <g id="line2d_94"/>
     <g id="text_12">
      <!-- 4000 -->
      <g style="fill:#262626;" transform="translate(115.05 72.089648)scale(0.1 -0.1)">
       <use xlink:href="#DejaVuSans-34"/>
       <use x="63.623047" xlink:href="#DejaVuSans-30"/>
       <use x="127.246094" xlink:href="#DejaVuSans-30"/>
       <use x="190.869141" xlink:href="#DejaVuSans-30"/>
      </g>
     </g>
    </g>
    <g id="text_13">
     <!-- Change in Balance -->
     <defs>
      <path d="M 64.40625 67.28125 
L 64.40625 56.890625 
Q 59.421875 61.53125 53.78125 63.8125 
Q 48.140625 66.109375 41.796875 66.109375 
Q 29.296875 66.109375 22.65625 58.46875 
Q 16.015625 50.828125 16.015625 36.375 
Q 16.015625 21.96875 22.65625 14.328125 
Q 29.296875 6.6875 41.796875 6.6875 
Q 48.140625 6.6875 53.78125 8.984375 
Q 59.421875 11.28125 64.40625 15.921875 
L 64.40625 5.609375 
Q 59.234375 2.09375 53.4375 0.328125 
Q 47.65625 -1.421875 41.21875 -1.421875 
Q 24.65625 -1.421875 15.125 8.703125 
Q 5.609375 18.84375 5.609375 36.375 
Q 5.609375 53.953125 15.125 64.078125 
Q 24.65625 74.21875 41.21875 74.21875 
Q 47.75 74.21875 53.53125 72.484375 
Q 59.328125 70.75 64.40625 67.28125 
z
" id="DejaVuSans-43"/>
      <path d="M 54.890625 33.015625 
L 54.890625 0 
L 45.90625 0 
L 45.90625 32.71875 
Q 45.90625 40.484375 42.875 44.328125 
Q 39.84375 48.1875 33.796875 48.1875 
Q 26.515625 48.1875 22.3125 43.546875 
Q 18.109375 38.921875 18.109375 30.90625 
L 18.109375 0 
L 9.078125 0 
L 9.078125 75.984375 
L 18.109375 75.984375 
L 18.109375 46.1875 
Q 21.34375 51.125 25.703125 53.5625 
Q 30.078125 56 35.796875 56 
Q 45.21875 56 50.046875 50.171875 
Q 54.890625 44.34375 54.890625 33.015625 
z
" id="DejaVuSans-68"/>
      <path d="M 54.890625 33.015625 
L 54.890625 0 
L 45.90625 0 
L 45.90625 32.71875 
Q 45.90625 40.484375 42.875 44.328125 
Q 39.84375 48.1875 33.796875 48.1875 
Q 26.515625 48.1875 22.3125 43.546875 
Q 18.109375 38.921875 18.109375 30.90625 
L 18.109375 0 
L 9.078125 0 
L 9.078125 54.6875 
L 18.109375 54.6875 
L 18.109375 46.1875 
Q 21.34375 51.125 25.703125 53.5625 
Q 30.078125 56 35.796875 56 
Q 45.21875 56 50.046875 50.171875 
Q 54.890625 44.34375 54.890625 33.015625 
z
" id="DejaVuSans-6e"/>
      <path d="M 45.40625 27.984375 
Q 45.40625 37.75 41.375 43.109375 
Q 37.359375 48.484375 30.078125 48.484375 
Q 22.859375 48.484375 18.828125 43.109375 
Q 14.796875 37.75 14.796875 27.984375 
Q 14.796875 18.265625 18.828125 12.890625 
Q 22.859375 7.515625 30.078125 7.515625 
Q 37.359375 7.515625 41.375 12.890625 
Q 45.40625 18.265625 45.40625 27.984375 
z
M 54.390625 6.78125 
Q 54.390625 -7.171875 48.1875 -13.984375 
Q 42 -20.796875 29.203125 -20.796875 
Q 24.46875 -20.796875 20.265625 -20.09375 
Q 16.0625 -19.390625 12.109375 -17.921875 
L 12.109375 -9.1875 
Q 16.0625 -11.328125 19.921875 -12.34375 
Q 23.78125 -13.375 27.78125 -13.375 
Q 36.625 -13.375 41.015625 -8.765625 
Q 45.40625 -4.15625 45.40625 5.171875 
L 45.40625 9.625 
Q 42.625 4.78125 38.28125 2.390625 
Q 33.9375 0 27.875 0 
Q 17.828125 0 11.671875 7.65625 
Q 5.515625 15.328125 5.515625 27.984375 
Q 5.515625 40.671875 11.671875 48.328125 
Q 17.828125 56 27.875 56 
Q 33.9375 56 38.28125 53.609375 
Q 42.625 51.21875 45.40625 46.390625 
L 45.40625 54.6875 
L 54.390625 54.6875 
z
" id="DejaVuSans-67"/>
      <path id="DejaVuSans-20"/>
      <path d="M 9.421875 54.6875 
L 18.40625 54.6875 
L 18.40625 0 
L 9.421875 0 
z
M 9.421875 75.984375 
L 18.40625 75.984375 
L 18.40625 64.59375 
L 9.421875 64.59375 
z
" id="DejaVuSans-69"/>
      <path d="M 19.671875 34.8125 
L 19.671875 8.109375 
L 35.5 8.109375 
Q 43.453125 8.109375 47.28125 11.40625 
Q 51.125 14.703125 51.125 21.484375 
Q 51.125 28.328125 47.28125 31.5625 
Q 43.453125 34.8125 35.5 34.8125 
z
M 19.671875 64.796875 
L 19.671875 42.828125 
L 34.28125 42.828125 
Q 41.5 42.828125 45.03125 45.53125 
Q 48.578125 48.25 48.578125 53.8125 
Q 48.578125 59.328125 45.03125 62.0625 
Q 41.5 64.796875 34.28125 64.796875 
z
M 9.8125 72.90625 
L 35.015625 72.90625 
Q 46.296875 72.90625 52.390625 68.21875 
Q 58.5 63.53125 58.5 54.890625 
Q 58.5 48.1875 55.375 44.234375 
Q 52.25 40.28125 46.1875 39.3125 
Q 53.46875 37.75 57.5 32.78125 
Q 61.53125 27.828125 61.53125 20.40625 
Q 61.53125 10.640625 54.890625 5.3125 
Q 48.25 0 35.984375 0 
L 9.8125 0 
z
" id="DejaVuSans-42"/>
      <path d="M 9.421875 75.984375 
L 18.40625 75.984375 
L 18.40625 0 
L 9.421875 0 
z
" id="DejaVuSans-6c"/>
      <path d="M 48.78125 52.59375 
L 48.78125 44.1875 
Q 44.96875 46.296875 41.140625 47.34375 
Q 37.3125 48.390625 33.40625 48.390625 
Q 24.65625 48.390625 19.8125 42.84375 
Q 14.984375 37.3125 14.984375 27.296875 
Q 14.984375 17.28125 19.8125 11.734375 
Q 24.65625 6.203125 33.40625 6.203125 
Q 37.3125 6.203125 41.140625 7.25 
Q 44.96875 8.296875 48.78125 10.40625 
L 48.78125 2.09375 
Q 45.015625 0.34375 40.984375 -0.53125 
Q 36.96875 -1.421875 32.421875 -1.421875 
Q 20.0625 -1.421875 12.78125 6.34375 
Q 5.515625 14.109375 5.515625 27.296875 
Q 5.515625 40.671875 12.859375 48.328125 
Q 20.21875 56 33.015625 56 
Q 37.15625 56 41.109375 55.140625 
Q 45.0625 54.296875 48.78125 52.59375 
z
" id="DejaVuSans-63"/>
     </defs>
     <g style="fill:#262626;" transform="translate(100.382656 250.224062)rotate(-90)scale(0.11 -0.11)">
      <use xlink:href="#DejaVuSans-43"/>
      <use x="69.824219" xlink:href="#DejaVuSans-68"/>
      <use x="133.203125" xlink:href="#DejaVuSans-61"/>
      <use x="194.482422" xlink:href="#DejaVuSans-6e"/>
      <use x="257.861328" xlink:href="#DejaVuSans-67"/>
      <use x="321.337891" xlink:href="#DejaVuSans-65"/>
      <use x="382.861328" xlink:href="#DejaVuSans-20"/>
      <use x="414.648438" xlink:href="#DejaVuSans-69"/>
      <use x="442.431641" xlink:href="#DejaVuSans-6e"/>
      <use x="505.810547" xlink:href="#DejaVuSans-20"/>
      <use x="537.597656" xlink:href="#DejaVuSans-42"/>
      <use x="606.201172" xlink:href="#DejaVuSans-61"/>
      <use x="667.480469" xlink:href="#DejaVuSans-6c"/>
      <use x="695.263672" xlink:href="#DejaVuSans-61"/>
      <use x="756.542969" xlink:href="#DejaVuSans-6e"/>
      <use x="819.921875" xlink:href="#DejaVuSans-63"/>
      <use x="874.902344" xlink:href="#DejaVuSans-65"/>
     </g>
    </g>
   </g>
   <g id="line2d_95">
    <path clip-path="url(#pc413013640)" d="M 184.581818 312.845874 
L 184.847627 273.717003 
L 184.872524 133.505215 
L 185.028518 84.594126 
L 185.246791 123.722997 
L 185.325428 197.653738 
L 185.518306 198.010137 
L 185.944468 191.96277 
L 185.975061 198.395883 
L 186.128528 193.874215 
L 199.844836 193.978233 
L 247.833332 197.415704 
L 250.513414 198.196977 
L 250.861243 197.13202 
L 251.527837 196.809859 
L 251.71204 198.16274 
L 252.656007 198.58957 
L 257.119095 197.630587 
L 304.295205 198.423599 
L 312.377994 198.801518 
L 316.129816 199.633007 
L 316.668112 197.281036 
L 317.424899 199.372148 
L 317.490881 197.554938 
L 317.740928 200.114618 
L 318.494224 199.643767 
L 318.513676 198.964555 
L 318.719588 200.239504 
L 319.242686 197.580372 
L 321.171185 199.078681 
L 321.371666 203.154605 
L 321.616737 202.036824 
L 321.972321 198.393926 
L 322.654763 202.793968 
L 322.74938 198.067852 
L 323.003003 199.868106 
L 323.670495 199.518555 
L 323.683728 198.467619 
L 327.722756 198.671089 
L 328.645815 197.850687 
L 330.237457 198.393926 
L 333.35342 198.128828 
L 333.650913 327.943097 
L 338.25838 332.247273 
L 338.79871 65.192727 
L 338.80361 69.496903 
L 338.821705 197.627 
L 338.906319 196.91192 
L 339.134145 198.540659 
L 339.160133 197.603849 
L 339.186396 198.393926 
L 340.632886 198.671089 
L 347.681472 198.671089 
L 348.935469 198.393926 
L 348.956558 198.654785 
L 349.099807 197.741778 
L 349.149701 198.067852 
L 350.902445 198.393926 
L 350.911035 198.128502 
L 361.582703 199.660397 
L 361.819664 196.111409 
L 361.894825 200.024296 
L 361.975051 198.518486 
L 373.571491 215.023696 
L 386.927525 198.736304 
L 390.266513 199.306933 
L 394.243765 199.306933 
L 394.826979 200.783722 
L 394.9751 198.230889 
L 399.42431 194.481039 
L 399.430722 204.589331 
L 399.531748 199.013467 
L 402.191771 198.750977 
L 402.204298 198.133067 
L 402.205023 198.777063 
L 402.29152 200.276025 
L 402.336035 198.883037 
L 402.429785 198.915644 
L 403.00125 199.567792 
L 405.046223 199.796044 
L 405.179217 198.067852 
L 405.396735 196.747253 
L 408.066435 199.372148 
L 408.122058 197.285275 
L 409.145835 198.230889 
L 409.160197 198.785215 
L 409.401944 220.302507 
L 409.828575 196.801381 
L 409.923814 199.411277 
L 410.520883 219.757311 
L 410.728545 198.581093 
L 410.866947 198.486531 
L 410.904413 198.233824 
L 413.876525 198.29643 
L 414.031476 198.746412 
L 414.789505 210.693435 
L 416.718089 197.533743 
L 417.155464 196.307053 
L 419.057534 196.815076 
L 419.462148 199.661701 
L 419.71292 197.399401 
L 420.76203 197.709171 
L 420.81413 199.681918 
L 423.634468 195.406111 
L 423.812462 198.230889 
L 424.767343 197.568633 
L 424.802799 198.720326 
L 425.020526 197.481571 
L 425.06986 198.720326 
L 426.366726 197.716344 
L 428.16767 198.720326 
L 429.933335 199.111289 
L 429.970119 198.720326 
L 430.862082 198.18263 
L 430.875719 198.720326 
L 431.158503 181.62427 
L 431.755738 206.871848 
L 432.793042 197.562438 
L 433.369113 197.338751 
L 433.421668 198.393926 
L 433.563456 208.502218 
L 436.434229 204.628133 
L 437.624146 197.848078 
L 437.733021 201.165554 
L 437.867126 197.149954 
L 438.053875 201.491628 
L 438.963829 204.654219 
L 439.635764 198.354471 
L 440.2388 197.533743 
L 441.751231 205.626246 
L 443.592796 197.640043 
L 443.879883 198.503487 
L 445.339545 198.635547 
L 445.624445 198.393926 
L 445.771238 201.328591 
L 445.842082 197.22006 
L 445.989226 198.328711 
L 446.114569 198.407621 
L 446.520644 198.328711 
L 446.616708 197.497549 
L 446.642454 211.652092 
L 446.665041 198.067852 
L 446.774367 200.541123 
L 449.416603 200.267873 
L 449.680776 200.483408 
L 449.833459 199.777458 
L 450.901329 198.713805 
L 451.040214 201.071319 
L 451.165473 201.242834 
L 451.292339 195.948698 
L 452.092896 201.937698 
L 453.884857 198.716739 
L 454.095194 198.570332 
L 455.183715 201.817702 
L 455.263942 198.556963 
L 458.328868 198.035245 
L 458.330922 198.067852 
L 458.513634 198.198282 
L 458.676691 202.193013 
L 459.135453 204.2688 
L 463.062342 201.217726 
L 465.204887 201.617493 
L 465.620377 201.882917 
L 466.115795 201.322722 
L 466.307534 200.53558 
L 466.530379 200.885783 
L 466.67321 196.222274 
L 466.855269 201.393806 
L 469.0883 200.736441 
L 469.253866 203.498939 
L 470.593639 197.904815 
L 470.659095 204.005984 
L 470.728948 198.2798 
L 470.741119 202.11443 
L 472.904539 202.982112 
L 472.994992 201.789334 
L 473.317472 203.997506 
L 474.682038 201.024691 
L 475.127031 200.913825 
L 475.231158 201.933785 
L 475.257085 193.1712 
L 475.400495 198.067852 
L 477.566571 198.067852 
L 477.635461 200.349717 
L 477.922382 202.391592 
L 478.445462 199.41682 
L 479.386081 201.121861 
L 479.416053 196.771708 
L 479.456584 202.038454 
L 479.456712 199.427906 
L 479.522576 199.423015 
L 479.566631 198.067852 
L 479.568618 198.573267 
L 482.955707 198.393926 
L 483.519488 195.596212 
L 483.561911 192.850669 
L 484.275388 198.181978 
L 484.300584 199.224762 
L 484.420696 199.143896 
L 484.515977 199.538772 
L 485.284034 199.698222 
L 485.995888 198.944665 
L 486.119709 199.733438 
L 488.397474 199.772893 
L 488.528552 198.602613 
L 488.574798 198.067852 
L 488.598523 198.524356 
L 488.608328 189.189185 
L 489.62811 200.084619 
L 489.632977 199.607247 
L 489.736018 199.464753 
L 490.525386 199.783979 
L 490.708701 199.54888 
L 490.926115 198.751629 
L 491.613788 197.163975 
L 492.764687 199.372148 
L 492.813746 195.491868 
L 492.822777 199.698222 
L 493.099643 199.371822 
L 493.386786 200.676444 
L 494.135476 198.393926 
L 495.850721 197.301578 
L 495.923576 198.002637 
L 496.02279 194.807113 
L 508.367375 196.284228 
L 508.442289 196.773339 
L 521.108856 198.067852 
L 521.21702 197.379836 
L 521.270258 195.902721 
L 533.578775 196.505958 
L 533.652821 200.755027 
L 546.179929 198.459141 
L 546.183842 197.122238 
L 546.266639 197.741778 
L 546.357699 200.904695 
L 548.03285 198.230889 
L 548.448985 198.724239 
L 548.998204 198.725217 
L 549.024657 253.483464 
L 550.638445 220.271856 
L 550.698057 243.104205 
L 551.019153 166.781711 
L 551.037248 230.658289 
L 551.281489 208.502218 
L 551.2873 166.781711 
L 551.394572 193.974972 
L 552.143618 203.465028 
L 552.420137 203.514591 
L 556.289528 201.980739 
L 556.546206 198.393926 
L 556.599553 198.556963 
L 558.62579 198.824344 
L 558.880519 198.72163 
L 558.926964 197.188757 
L 559.044643 199.372148 
L 559.662876 200.234287 
L 559.764608 199.143896 
L 559.782523 200.35037 
L 559.85629 198.948252 
L 559.873659 219.490909 
L 562.796802 199.306933 
L 562.980857 199.046074 
L 563.004288 199.404755 
L 563.051635 199.288021 
L 563.328927 198.549137 
L 563.560068 198.393926 
L 564.144302 198.581419 
L 565.870598 199.869085 
L 568.121976 199.372148 
L 568.210427 199.685505 
L 568.235794 199.209111 
L 568.25757 199.506816 
L 568.433756 198.883037 
L 568.472602 199.50649 
L 568.512023 198.393926 
L 568.914806 198.556963 
L 569.103158 198.230889 
L 569.214315 198.721956 
L 570.223744 198.824344 
L 570.490511 198.72913 
L 570.563485 195.459261 
L 570.909657 198.581419 
L 571.032748 198.596092 
L 571.206416 198.843908 
L 571.21252 196.274446 
L 575.270312 198.067852 
L 575.493166 201.980739 
L 578.749224 197.08963 
L 579.744119 197.08963 
L 582.819613 198.734999 
L 582.909374 197.188757 
L 582.920459 198.835756 
L 582.99303 198.722609 
L 583.070861 198.572289 
L 583.491155 198.564137 
L 584.064897 197.08963 
L 584.143995 198.230889 
L 584.517773 198.557289 
L 584.887363 198.393926 
L 585.202994 190.568152 
L 585.348796 198.067852 
L 585.718993 198.487509 
L 586.497394 198.623156 
L 586.945655 198.133719 
L 588.007913 195.491868 
L 588.424698 201.948132 
L 588.559016 198.654785 
L 589.062174 197.08963 
L 591.308235 198.615982 
L 591.338306 198.491748 
L 592.025866 197.904815 
L 595.06618 198.722283 
L 595.371713 197.188757 
L 595.413401 198.832169 
L 595.475248 198.47251 
L 596.000604 198.002637 
L 596.358583 198.479684 
L 596.889432 198.654133 
L 597.509434 197.904815 
L 597.598407 196.81638 
L 597.774195 197.848078 
L 597.845784 197.28984 
L 598.096993 197.708193 
L 598.253377 198.550768 
L 598.77269 195.054603 
L 598.96219 198.650546 
L 599.950445 197.88362 
L 599.961103 198.385774 
L 600.051276 198.239367 
L 600.445199 198.459141 
L 600.679209 197.905793 
L 601.925356 199.209111 
L 602.057554 198.198282 
L 603.497745 205.241479 
L 604.560814 198.664567 
L 606.730932 198.465336 
L 606.741106 198.721956 
L 607.896003 197.188757 
L 608.028618 198.836082 
L 608.252388 193.240002 
L 609.454163 198.10046 
L 610.991073 199.698222 
L 612.520446 200.676444 
L 612.916702 200.024296 
L 612.928456 200.676444 
L 613.092186 197.317882 
L 614.283782 198.393926 
L 615.055547 198.002637 
L 616.825282 197.334512 
L 619.533776 198.734673 
L 620.173069 197.189083 
L 620.358898 198.832169 
L 620.453311 198.721304 
L 633.072854 197.189083 
L 633.198023 201.328591 
L 633.249268 198.836082 
L 633.270745 212.415105 
L 638.91443 210.784735 
L 639.851154 196.276728 
L 639.936347 196.47009 
L 639.958251 200.35037 
L 639.99982 198.080895 
L 640.839983 189.232879 
L 643.165838 198.218172 
L 643.562175 198.176761 
L 644.054709 208.207121 
L 644.195838 189.232879 
L 644.220412 192.002877 
L 644.491662 198.56055 
L 644.729064 196.432917 
L 645.283022 198.737282 
L 645.61127 198.297734 
L 645.676797 198.721956 
L 645.819159 198.836408 
L 645.854335 197.188757 
L 645.883601 198.301321 
L 649.906496 208.502218 
L 650.219585 198.42099 
L 650.545604 200.154725 
L 650.762952 198.0672 
L 651.051703 200.798395 
L 653.126739 198.230889 
L 653.584495 193.013706 
L 654.022558 197.578741 
L 655.984525 198.832496 
L 658.089352 198.733695 
L 658.113044 197.188757 
L 658.18238 198.514573 
L 658.188836 199.502577 
L 658.337108 198.562832 
L 661.420637 198.636851 
L 661.832124 203.839035 
L 664.299863 198.462076 
L 665.433463 198.393926 
L 668.068604 198.585005 
L 669.616214 203.953813 
L 670.160932 198.449685 
L 670.61959 198.836408 
L 670.733991 197.188757 
L 670.818411 198.449033 
L 675.285725 198.361319 
L 675.506701 203.896424 
L 676.084081 197.301578 
L 676.107095 198.034593 
L 676.575709 197.987964 
L 676.581382 198.598374 
L 676.600046 198.47251 
L 677.158581 198.542616 
L 678.392581 198.393926 
L 680.193175 202.748643 
L 681.91136 198.311755 
L 682.7585 198.522073 
L 682.917933 197.188757 
L 683.018466 206.056663 
L 683.195116 198.722609 
L 683.263547 198.574245 
L 683.472888 198.657394 
L 683.534649 198.411208 
L 684.011155 198.615982 
L 684.799707 197.08963 
L 685.597783 198.578158 
L 686.672141 198.546529 
L 686.749247 197.937423 
L 687.127939 198.602939 
L 687.444922 204.91997 
L 687.606755 197.741778 
L 691.4808 201.823246 
L 693.037996 198.301321 
L 694.12777 198.249801 
L 694.905099 198.836734 
L 695.642723 197.188757 
L 695.713022 198.723261 
L 695.84015 198.731739 
L 697.305115 202.795924 
L 697.335201 199.535185 
L 697.549271 197.08963 
L 697.571943 191.2203 
L 697.732728 190.568152 
L 698.718355 200.285155 
L 698.896168 197.024416 
L 700.966702 191.2203 
L 701.799598 206.2197 
L 701.989416 196.30151 
L 703.117889 206.380781 
L 704.537974 196.277706 
L 704.86969 198.484901 
L 706.651842 197.317882 
L 707.211093 197.368098 
L 707.452437 200.187333 
L 707.513966 197.252667 
L 707.90703 198.836734 
L 708.419636 195.928807 
L 708.585027 201.328591 
L 710.073822 198.067852 
L 711.044309 198.459141 
L 711.291088 197.08963 
L 711.559956 198.240019 
L 713.749667 198.179369 
L 713.836193 199.897453 
L 714.243325 198.379253 
L 715.167931 200.290046 
L 715.348471 198.511639 
L 715.582918 201.932806 
L 716.456658 198.067852 
L 717.151712 198.459793 
L 717.892708 198.722935 
L 720.251254 198.736956 
L 720.28475 196.553239 
L 720.469583 198.829235 
L 720.514957 198.522073 
L 720.55848 196.763556 
L 721.07251 200.024296 
L 721.899956 198.067852 
L 722.979404 198.486205 
L 724.02691 198.230889 
L 724.661602 200.024296 
L 727.660698 198.393926 
L 728.785851 198.599027 
L 729.111927 196.352703 
L 730.482606 198.58631 
L 730.912203 197.08963 
L 731.821327 198.550768 
L 732.980185 198.728478 
L 733.092077 196.553239 
L 733.220693 202.627344 
L 733.37885 202.118995 
L 733.572288 198.431099 
L 735.623469 196.763556 
L 736.791776 198.556963 
L 736.924334 200.676444 
L 736.934456 198.230889 
L 737.589691 198.505117 
L 738.254663 196.763556 
L 740.364803 197.477332 
L 741.076809 198.431099 
L 741.820139 198.505117 
L 743.435966 198.425555 
L 743.978987 198.556963 
L 744.714424 200.741658 
L 744.91583 198.833474 
L 745.243528 198.442511 
L 745.257682 196.553239 
L 745.468133 198.723261 
L 745.985701 197.08963 
L 746.14004 198.605874 
L 746.629348 198.393926 
L 747.479675 197.673629 
L 747.781272 196.975831 
L 747.845409 198.418708 
L 747.964729 197.359294 
L 748.456115 198.441533 
L 749.388438 197.952422 
L 749.677365 196.959201 
L 749.822364 198.184587 
L 752.662648 198.230889 
L 755.416127 197.08963 
L 757.470771 198.038505 
L 757.958779 198.837061 
L 758.093107 198.106003 
L 758.171977 196.553239 
L 758.172313 198.722935 
L 758.185267 199.333997 
L 759.858179 198.022202 
L 760.421035 198.067852 
L 762.040277 198.465662 
L 762.701327 198.267409 
L 762.769098 198.469901 
L 762.934119 198.595766 
L 762.981631 198.31632 
L 763.086888 194.024862 
L 763.124876 198.594462 
L 764.351234 198.32219 
L 764.759927 198.660002 
L 766.105331 198.067852 
L 766.952959 198.500552 
L 767.424229 198.500552 
L 769.719823 202.958961 
L 769.931028 198.728152 
L 770.379526 198.722283 
L 770.46209 196.553239 
L 770.472312 199.080312 
L 770.591252 202.143776 
L 770.697372 208.086147 
L 770.903089 202.972656 
L 770.930614 197.904815 
L 771.642374 197.15028 
L 773.209796 200.28972 
L 774.030692 195.929133 
L 774.076825 198.652829 
L 774.846849 208.238424 
L 775.129207 189.201576 
L 775.160104 198.607178 
L 775.837936 203.031349 
L 776.314855 202.045954 
L 776.383356 207.621818 
L 776.577704 203.031349 
L 776.58129 198.491748 
L 776.814005 198.230889 
L 776.952606 194.408651 
L 776.967277 198.556963 
L 777.778962 215.023696 
L 781.373931 182.416304 
L 781.649667 182.416304 
L 781.693176 215.023696 
L 782.03001 198.531855 
L 782.198555 200.937303 
L 782.285858 217.39458 
L 782.360573 198.395556 
L 782.459634 198.580766 
L 782.494554 197.906772 
L 782.65551 198.654785 
L 782.777438 198.427512 
L 782.780469 198.297408 
L 782.831003 198.722935 
L 782.939807 198.841952 
L 783.018796 198.067852 
L 783.057647 196.553239 
L 783.170863 182.416304 
L 784.496397 198.531855 
L 784.836038 199.533228 
L 784.926638 171.096321 
L 785.097711 226.343679 
L 785.202161 198.491748 
L 785.502415 198.449685 
L 785.574692 198.622178 
L 785.699035 198.192086 
L 786.254088 171.096321 
L 786.629873 226.343679 
L 786.661719 198.54555 
L 787.009713 198.296756 
L 787.598894 199.698222 
L 787.969542 198.291539 
L 788.047216 211.176024 
L 788.112449 197.306796 
L 788.28182 196.278032 
L 788.537004 196.38368 
L 788.56192 199.417146 
L 788.621191 196.274446 
L 788.719963 192.491988 
L 789.148041 198.622178 
L 789.328577 204.948012 
L 789.357458 198.687393 
L 789.842559 197.611349 
L 789.952483 198.686414 
L 790.178449 198.752607 
L 790.190373 187.307413 
L 790.753903 196.961157 
L 791.59759 193.013706 
L 792.411105 204.426294 
L 792.51519 193.013706 
L 792.540822 198.550768 
L 792.857886 192.733935 
L 793.258591 210.286168 
L 793.59238 210.263017 
L 793.686826 198.284691 
L 793.818549 198.338167 
L 794.156678 204.491508 
L 794.160989 192.948492 
L 794.204641 198.820105 
L 795.768644 196.553239 
L 795.875043 216.819711 
L 796.760319 198.834126 
L 808.134469 196.553239 
L 808.169412 198.556963 
L 818.29852 198.230889 
L 818.363611 204.851168 
L 818.691798 189.266465 
L 818.889599 198.484249 
L 819.286637 198.393926 
L 819.360119 198.558593 
L 820.343735 198.838691 
L 820.644914 198.392296 
L 820.679397 198.723261 
L 820.684216 188.122597 
L 820.722019 196.553239 
L 820.873593 198.580114 
L 821.447377 198.482944 
L 823.157082 198.556963 
L 823.723154 198.230889 
L 823.995053 201.328591 
L 824.93747 198.372079 
L 825.617445 198.068178 
L 826.094796 199.372148 
L 826.395182 198.556963 
L 826.693515 198.622178 
L 826.805407 198.817822 
L 826.996999 198.505117 
L 827.290257 198.817822 
L 827.319257 198.622178 
L 827.334302 198.687393 
L 827.628153 198.622178 
L 827.730288 198.817822 
L 828.066695 198.382513 
L 828.112913 198.536094 
L 828.244479 198.698805 
L 828.312255 198.479684 
L 828.823681 197.741778 
L 828.912839 198.915644 
L 829.219562 204.458901 
L 829.276343 201.459021 
L 829.28906 191.738431 
L 829.34124 203.382857 
L 829.370747 198.393926 
L 829.51946 205.701569 
L 829.534881 198.524356 
L 829.577005 198.622178 
L 832.084591 198.622178 
L 832.613723 198.836734 
L 832.895588 198.462728 
L 832.93924 198.622178 
L 832.981729 198.284691 
L 833.017033 198.723587 
L 833.259012 188.122597 
L 833.469994 198.622178 
L 834.671047 198.622178 
L 834.970969 198.465662 
L 835.222297 196.763556 
L 835.354618 198.622178 
L 835.536463 198.458815 
L 835.638076 198.629351 
L 836.083643 198.622178 
L 836.306976 198.291539 
L 836.432486 209.317403 
L 836.665889 196.763556 
L 836.685887 188.122597 
L 836.736767 206.651748 
L 836.788378 198.584027 
L 836.862566 198.620547 
L 836.953161 198.067852 
L 836.998226 198.622178 
L 837.0253 197.904815 
L 837.562363 198.622178 
L 838.924823 198.525334 
L 838.933166 198.291539 
L 839.133827 198.622178 
L 839.354007 198.424251 
L 839.478511 202.567672 
L 839.592257 198.598374 
L 839.613678 204.103807 
L 839.648075 197.08963 
L 841.766634 198.458815 
L 842.097292 199.502577 
L 842.333726 193.502817 
L 842.805755 198.555659 
L 843.725048 198.394252 
L 844.470987 208.527652 
L 845.473386 198.845212 
L 845.888302 198.723913 
L 845.898396 197.08963 
L 846.716948 197.747321 
L 847.008783 198.26317 
L 847.084058 162.92393 
L 847.304019 234.51607 
L 847.903711 162.92393 
L 847.923637 200.546014 
L 848.14855 198.615656 
L 848.678294 162.92393 
L 849.255071 198.622178 
L 849.288644 234.51607 
L 849.314082 200.08951 
L 849.441185 201.393806 
L 849.571599 198.622178 
L 849.846145 198.067852 
L 849.913456 198.622178 
L 850.686089 198.622178 
L 851.110326 198.393926 
L 851.153275 204.8228 
L 851.26319 198.622178 
L 851.524592 197.415704 
L 851.740308 198.393926 
L 851.952096 197.741778 
L 852.074817 198.622178 
L 852.165716 196.430961 
L 852.205042 198.622178 
L 852.766328 198.622178 
L 853.023267 198.444794 
L 853.392027 198.622178 
L 853.533535 198.246215 
L 853.859938 198.657394 
L 853.996438 198.622178 
L 854.160667 199.535185 
L 854.194562 198.577506 
L 854.551283 198.622178 
L 855.164768 197.792646 
L 855.356199 198.622178 
L 855.59112 198.232193 
L 855.774886 199.535185 
L 855.839265 194.644076 
L 855.916385 198.622178 
L 856.113029 198.246215 
L 856.362416 198.785215 
L 856.47723 198.622178 
L 856.567114 197.676563 
L 856.636236 202.698102 
L 856.678147 197.904815 
L 856.710586 198.650546 
L 856.8931 206.400671 
L 857.022902 198.195347 
L 857.126821 197.741778 
L 857.162546 199.535185 
L 857.227433 198.622178 
L 857.380591 198.622178 
L 857.491473 198.394252 
L 857.518941 198.556963 
L 857.628945 198.723913 
L 858.328102 198.817496 
L 858.391504 198.291213 
L 858.476412 198.622178 
L 859.818168 198.622178 
L 860.16731 198.39197 
L 860.561456 198.622178 
L 861.431828 198.622178 
L 861.669903 198.232193 
L 862.134034 198.622178 
L 862.427586 216.84971 
L 862.539407 209.502939 
L 862.573733 198.067852 
L 862.788562 198.3861 
L 862.828154 198.067852 
L 862.913062 198.622178 
L 862.959061 198.365232 
L 863.02854 196.274446 
L 863.604046 198.622178 
L 863.728427 204.426294 
L 863.882273 194.644076 
L 863.895312 198.371101 
L 863.970529 198.622178 
L 864.262298 197.743409 
L 864.366477 198.622178 
L 864.717996 198.465988 
L 864.812656 198.622178 
L 865.167618 198.622178 
L 865.385008 201.067732 
L 865.493276 198.622178 
L 865.787862 198.473162 
L 866.54249 198.622178 
L 867.37365 198.723587 
L 867.419787 198.622178 
L 867.714933 198.622178 
L 868.083527 188.670402 
L 868.182835 208.769598 
L 868.326507 207.491389 
L 868.4005 205.853519 
L 868.413255 198.622178 
L 868.682873 199.535185 
L 868.955099 194.644076 
L 869.397122 198.622178 
L 869.69176 198.622178 
L 870.003635 198.804453 
L 870.008373 198.724565 
L 870.105168 198.622178 
L 870.392055 198.654785 
L 870.40093 198.365232 
L 870.42022 228.39501 
L 870.603317 198.267735 
L 870.675604 223.730196 
L 870.678084 169.04499 
L 870.829928 201.589451 
L 870.954969 198.622178 
L 871.66059 198.622178 
L 872.285364 198.426533 
L 872.511847 198.622178 
L 872.766927 200.35037 
L 872.964676 198.246215 
L 872.989952 198.622178 
L 873.224997 198.654785 
L 873.387005 190.568152 
L 873.555948 198.622178 
L 873.716231 198.622178 
L 873.880018 209.211102 
L 874.158543 198.389361 
L 874.531321 197.357011 
L 875.007528 197.41603 
L 875.126568 196.308357 
L 875.202512 198.716413 
L 875.226119 198.462728 
L 875.360047 199.535185 
L 875.42207 198.622178 
L 875.836155 198.230889 
L 876.250308 198.622178 
L 876.293656 198.260888 
L 877.078859 194.644076 
L 877.227767 198.645329 
L 877.769388 198.283713 
L 877.876124 198.067852 
L 878.004736 198.459141 
L 878.087121 197.904815 
L 878.099657 198.230889 
L 878.118264 190.568152 
L 878.183066 199.209111 
L 878.273196 198.622178 
L 878.747478 198.622178 
L 879.259862 208.043106 
L 879.647144 197.741778 
L 879.772037 199.306933 
L 879.926063 198.622178 
L 879.930275 199.698222 
L 879.978177 190.568152 
L 880.188922 190.568152 
L 880.345281 206.871848 
L 880.373764 198.585658 
L 880.679615 198.459141 
L 881.273558 198.622178 
L 881.556618 198.448054 
L 882.191002 198.730108 
L 882.470504 198.834452 
L 882.521693 198.441533 
L 882.694179 198.726848 
L 882.706445 198.622178 
L 882.7252 196.630192 
L 883.008364 198.117741 
L 883.683169 198.459141 
L 883.694315 198.622178 
L 884.394739 198.197303 
L 884.613324 197.50407 
L 884.992756 198.622178 
L 885.082839 207.313026 
L 885.367374 197.08963 
L 885.399173 200.35037 
L 885.44863 197.08963 
L 885.638277 199.110963 
L 885.645449 194.171921 
L 885.74719 197.806015 
L 885.839341 197.582002 
L 886.094848 198.622178 
L 886.112175 198.40273 
L 886.349909 198.622178 
L 887.159933 198.622178 
L 887.938377 197.904815 
L 888.27983 196.905725 
L 888.338765 198.622178 
L 888.891712 197.872208 
L 889.197909 198.230889 
L 889.54274 196.437809 
L 889.858746 198.659676 
L 889.915579 198.574245 
L 890.223692 198.622178 
L 890.712246 207.897025 
L 891.1117 197.08963 
L 891.152448 198.355123 
L 891.356937 200.35037 
L 891.407315 198.176435 
L 892.359265 197.904815 
L 892.610512 198.622178 
L 892.714436 198.163392 
L 893.59853 198.622178 
L 893.851295 198.246215 
L 894.15013 198.723913 
L 894.958528 198.832169 
L 895.303392 198.263497 
L 895.422669 198.622178 
L 895.98673 198.361319 
L 896.179721 197.533417 
L 896.465295 198.622178 
L 896.7441 198.230889 
L 896.862286 206.583599 
L 896.940905 198.459467 
L 897.430977 196.225208 
L 897.458231 200.808177 
L 897.511654 197.08963 
L 898.134654 200.35037 
L 898.153086 198.232193 
L 898.193009 198.58957 
L 898.342458 198.361319 
L 898.373336 198.667502 
L 898.416129 197.673303 
L 898.419502 198.622178 
L 899.383813 198.622178 
L 899.68317 201.589451 
L 899.782692 197.08963 
L 899.834962 198.655111 
L 900.793572 198.622178 
L 901.53232 198.232193 
L 902.419075 193.828891 
L 902.548299 196.763556 
L 902.685576 207.167271 
L 902.803383 198.067852 
L 902.991745 199.766697 
L 903.116605 198.328711 
L 903.158872 198.817822 
L 903.324115 198.475445 
L 903.894186 198.652829 
L 904.031421 198.246215 
L 904.376745 198.622178 
L 904.528432 197.905141 
L 904.854408 198.622178 
L 905.112822 198.622178 
L 905.686664 198.510987 
L 905.769177 198.246215 
L 905.930355 198.491748 
L 907.123711 198.622178 
L 907.21192 198.361319 
L 907.513502 198.723913 
L 907.621818 198.328711 
L 907.676905 198.836082 
L 907.769374 198.301973 
L 908.245263 198.274909 
L 908.330247 207.167271 
L 908.337685 197.08963 
L 909.667962 198.328711 
L 909.87264 200.154725 
L 910.375092 199.893866 
L 910.473129 194.830264 
L 910.695187 196.763556 
L 911.833284 218.702788 
L 914.082935 195.133187 
L 914.23707 198.836734 
L 919.795405 198.723913 
L 919.855772 221.840598 
L 919.998371 197.08963 
L 921.029448 198.322842 
L 922.890868 198.371753 
L 922.912075 198.485227 
L 922.913403 202.143776 
L 923.103824 198.228607 
L 923.181057 198.328711 
L 923.219562 196.763556 
L 923.238118 197.743409 
L 923.352547 198.361319 
L 924.479318 198.579462 
L 924.704425 196.926593 
L 924.749794 198.067852 
L 924.940722 197.08963 
L 925.244671 198.622178 
L 925.270104 221.567674 
L 925.745993 198.622178 
L 925.882024 198.361319 
L 926.72849 198.622178 
L 928.087335 198.622178 
L 928.606668 198.068178 
L 929.544493 198.361319 
L 929.832192 197.987312 
L 931.000385 219.658185 
L 931.386452 198.407621 
L 931.916704 198.198282 
L 932.209079 198.469249 
L 932.538347 198.204477 
L 932.539121 198.970751 
L 932.649723 198.725869 
L 932.72503 198.848473 
L 932.754419 198.246215 
L 933.548103 198.205129 
L 933.656144 198.421968 
L 934.736084 198.156544 
L 934.864753 182.416304 
L 934.86518 197.08963 
L 934.992179 198.361319 
L 935.530376 198.582397 
L 935.57988 197.904815 
L 935.7162 221.840598 
L 937.199388 182.416304 
L 937.351564 198.378275 
L 937.461279 197.882642 
L 937.577563 197.952748 
L 937.607507 198.500552 
L 937.71477 198.230889 
L 937.853025 198.230889 
L 938.082235 198.556963 
L 938.13294 156.760807 
L 938.548254 198.622178 
L 938.760488 198.556963 
L 938.836892 198.106329 
L 939.060814 198.176435 
L 939.845832 198.622178 
L 940.194718 198.230889 
L 940.242771 198.419034 
L 941.489805 198.410556 
L 941.507891 198.622178 
L 941.652207 198.475771 
L 941.803202 198.02318 
L 941.836315 196.113039 
L 942.392725 198.035245 
L 942.462972 221.840598 
L 942.517585 198.58957 
L 942.656191 200.024296 
L 942.72141 196.763556 
L 942.90851 197.848078 
L 942.923859 199.209111 
L 943.206008 198.022202 
L 943.361381 174.342387 
L 943.52495 198.2948 
L 944.129618 197.905141 
L 944.293324 198.671089 
L 944.78341 198.538703 
L 944.979693 198.232193 
L 945.081449 198.721956 
L 945.220525 198.361319 
L 945.539277 199.111289 
L 945.968612 197.08963 
L 946.735151 197.08963 
L 946.798416 198.361319 
L 947.438088 198.156544 
L 948.123172 190.568152 
L 948.341923 198.393926 
L 948.473708 221.840598 
L 948.605546 198.255345 
L 948.664499 198.329037 
L 950.925012 198.399469 
L 950.963906 197.987312 
L 951.158562 182.416304 
L 952.114933 207.897025 
L 954.202135 198.230889 
L 955.666682 198.622178 
L 956.781841 201.817702 
L 956.94579 198.695218 
L 957.168014 198.417403 
L 957.3913 198.841626 
L 957.765215 198.72163 
L 957.85748 198.393926 
L 958.413886 198.349254 
L 958.746436 198.622178 
L 959.226718 198.284691 
L 959.318375 198.622178 
L 959.836774 208.335268 
L 960.115626 198.377296 
L 960.203053 198.622178 
L 961.630969 198.622178 
L 961.735689 198.817822 
L 961.963386 198.622178 
L 962.173463 198.596092 
L 962.387186 198.817822 
L 962.671522 198.329037 
L 963.338141 198.246215 
L 964.184422 198.622178 
L 964.343917 198.817822 
L 964.389357 198.622178 
L 964.532743 198.817822 
L 964.611139 198.031332 
L 964.785475 198.622178 
L 964.96326 198.512291 
L 965.047295 198.817822 
L 965.123343 197.349511 
L 965.221551 198.622178 
L 965.462576 198.817822 
L 965.490646 208.043106 
L 966.02104 198.333276 
L 966.273018 198.450989 
L 967.25375 198.456858 
L 968.090194 198.246215 
L 968.386084 198.45751 
L 968.591137 198.336863 
L 970.235704 198.853038 
L 970.455309 198.721956 
L 970.486367 198.368166 
L 971.197814 198.39197 
L 971.413525 198.183608 
L 971.433318 206.072641 
L 971.482026 198.037853 
L 971.777769 198.650546 
L 974.052901 198.246215 
L 974.2524 198.494357 
L 974.869561 198.494357 
L 976.148745 198.329037 
L 976.202931 198.176435 
L 976.538313 198.671089 
L 976.957185 206.145355 
L 977.210177 198.241976 
L 977.364749 198.381861 
L 979.025987 197.415704 
L 980.73424 202.404635 
L 980.77489 196.763556 
L 980.844112 198.513921 
L 980.894916 198.423273 
L 981.237736 198.622178 
L 981.48941 198.452619 
L 981.628736 197.905141 
L 981.629846 198.622178 
L 981.703243 198.589897 
L 981.775885 198.742173 
L 982.169565 198.622178 
L 982.352729 198.176435 
L 982.641082 198.848799 
L 982.731995 198.235128 
L 982.853017 203.259601 
L 983.09891 198.622178 
L 983.273113 198.622178 
L 984.199668 198.258605 
L 984.391279 198.622178 
L 984.733804 198.442185 
L 984.919671 198.622178 
L 985.35311 198.452619 
L 985.395115 198.711196 
L 985.56773 198.622178 
L 985.769548 198.067852 
L 986.722509 198.230889 
L 986.95419 198.622178 
L 987.121734 197.08963 
L 987.207377 198.639786 
L 987.473086 198.406643 
L 987.608377 198.622178 
L 987.98104 198.329037 
L 987.98289 199.372148 
L 988.493979 198.622178 
L 988.517306 206.583599 
L 988.839142 198.622178 
L 990.859535 198.622178 
L 990.905649 198.293495 
L 990.937068 198.622178 
L 991.170551 198.671089 
L 991.481264 198.336863 
L 991.547019 196.763556 
L 991.573206 201.980739 
L 991.687811 198.371753 
L 991.713225 200.676444 
L 991.714079 198.622178 
L 993.715372 198.622178 
L 994.204709 198.382187 
L 994.271256 203.633934 
L 994.357914 198.622178 
L 994.585161 198.622178 
L 994.76063 198.067852 
L 994.967913 199.372148 
L 995.112116 198.723587 
L 995.51542 198.722283 
L 995.516293 198.853364 
L 995.537542 198.622178 
L 996.215175 193.124571 
L 996.218182 204.315429 
L 996.218182 204.315429 
" style="fill:none;stroke:#1f77b4;stroke-linecap:round;stroke-width:1.5;"/>
   </g>
   <g id="patch_3">
    <path d="M 144 345.6 
L 144 51.84 
" style="fill:none;"/>
   </g>
   <g id="patch_4">
    <path d="M 1036.8 345.6 
L 1036.8 51.84 
" style="fill:none;"/>
   </g>
   <g id="patch_5">
    <path d="M 144 345.6 
L 1036.8 345.6 
" style="fill:none;"/>
   </g>
   <g id="patch_6">
    <path d="M 144 51.84 
L 1036.8 51.84 
" style="fill:none;"/>
   </g>
   <g id="text_14">
    <!-- Change in Balance over Time -->
    <defs>
     <path d="M 30.609375 48.390625 
Q 23.390625 48.390625 19.1875 42.75 
Q 14.984375 37.109375 14.984375 27.296875 
Q 14.984375 17.484375 19.15625 11.84375 
Q 23.34375 6.203125 30.609375 6.203125 
Q 37.796875 6.203125 41.984375 11.859375 
Q 46.1875 17.53125 46.1875 27.296875 
Q 46.1875 37.015625 41.984375 42.703125 
Q 37.796875 48.390625 30.609375 48.390625 
z
M 30.609375 56 
Q 42.328125 56 49.015625 48.375 
Q 55.71875 40.765625 55.71875 27.296875 
Q 55.71875 13.875 49.015625 6.21875 
Q 42.328125 -1.421875 30.609375 -1.421875 
Q 18.84375 -1.421875 12.171875 6.21875 
Q 5.515625 13.875 5.515625 27.296875 
Q 5.515625 40.765625 12.171875 48.375 
Q 18.84375 56 30.609375 56 
z
" id="DejaVuSans-6f"/>
     <path d="M 2.984375 54.6875 
L 12.5 54.6875 
L 29.59375 8.796875 
L 46.6875 54.6875 
L 56.203125 54.6875 
L 35.6875 0 
L 23.484375 0 
z
" id="DejaVuSans-76"/>
     <path d="M -0.296875 72.90625 
L 61.375 72.90625 
L 61.375 64.59375 
L 35.5 64.59375 
L 35.5 0 
L 25.59375 0 
L 25.59375 64.59375 
L -0.296875 64.59375 
z
" id="DejaVuSans-54"/>
     <path d="M 52 44.1875 
Q 55.375 50.25 60.0625 53.125 
Q 64.75 56 71.09375 56 
Q 79.640625 56 84.28125 50.015625 
Q 88.921875 44.046875 88.921875 33.015625 
L 88.921875 0 
L 79.890625 0 
L 79.890625 32.71875 
Q 79.890625 40.578125 77.09375 44.375 
Q 74.3125 48.1875 68.609375 48.1875 
Q 61.625 48.1875 57.5625 43.546875 
Q 53.515625 38.921875 53.515625 30.90625 
L 53.515625 0 
L 44.484375 0 
L 44.484375 32.71875 
Q 44.484375 40.625 41.703125 44.40625 
Q 38.921875 48.1875 33.109375 48.1875 
Q 26.21875 48.1875 22.15625 43.53125 
Q 18.109375 38.875 18.109375 30.90625 
L 18.109375 0 
L 9.078125 0 
L 9.078125 54.6875 
L 18.109375 54.6875 
L 18.109375 46.1875 
Q 21.1875 51.21875 25.484375 53.609375 
Q 29.78125 56 35.6875 56 
Q 41.65625 56 45.828125 52.96875 
Q 50 49.953125 52 44.1875 
z
" id="DejaVuSans-6d"/>
    </defs>
    <g style="fill:#262626;" transform="translate(509.507891 45.84)scale(0.11 -0.11)">
     <use xlink:href="#DejaVuSans-43"/>
     <use x="69.824219" xlink:href="#DejaVuSans-68"/>
     <use x="133.203125" xlink:href="#DejaVuSans-61"/>
     <use x="194.482422" xlink:href="#DejaVuSans-6e"/>
     <use x="257.861328" xlink:href="#DejaVuSans-67"/>
     <use x="321.337891" xlink:href="#DejaVuSans-65"/>
     <use x="382.861328" xlink:href="#DejaVuSans-20"/>
     <use x="414.648438" xlink:href="#DejaVuSans-69"/>
     <use x="442.431641" xlink:href="#DejaVuSans-6e"/>
     <use x="505.810547" xlink:href="#DejaVuSans-20"/>
     <use x="537.597656" xlink:href="#DejaVuSans-42"/>
     <use x="606.201172" xlink:href="#DejaVuSans-61"/>
     <use x="667.480469" xlink:href="#DejaVuSans-6c"/>
     <use x="695.263672" xlink:href="#DejaVuSans-61"/>
     <use x="756.542969" xlink:href="#DejaVuSans-6e"/>
     <use x="819.921875" xlink:href="#DejaVuSans-63"/>
     <use x="874.902344" xlink:href="#DejaVuSans-65"/>
     <use x="936.425781" xlink:href="#DejaVuSans-20"/>
     <use x="968.212891" xlink:href="#DejaVuSans-6f"/>
     <use x="1029.394531" xlink:href="#DejaVuSans-76"/>
     <use x="1088.574219" xlink:href="#DejaVuSans-65"/>
     <use x="1150.097656" xlink:href="#DejaVuSans-72"/>
     <use x="1191.210938" xlink:href="#DejaVuSans-20"/>
     <use x="1222.998047" xlink:href="#DejaVuSans-54"/>
     <use x="1284.035156" xlink:href="#DejaVuSans-69"/>
     <use x="1311.818359" xlink:href="#DejaVuSans-6d"/>
     <use x="1409.230469" xlink:href="#DejaVuSans-65"/>
    </g>
   </g>
   <g id="legend_1">
    <g id="line2d_96">
     <path d="M 916.628125 64.938437 
L 936.628125 64.938437 
" style="fill:none;stroke:#1f77b4;stroke-linecap:round;stroke-width:1.5;"/>
    </g>
    <g id="line2d_97"/>
    <g id="text_15">
     <!-- Change_Balance -->
     <defs>
      <path d="M 50.984375 -16.609375 
L 50.984375 -23.578125 
L -0.984375 -23.578125 
L -0.984375 -16.609375 
z
" id="DejaVuSans-5f"/>
     </defs>
     <g style="fill:#262626;" transform="translate(944.628125 68.438437)scale(0.1 -0.1)">
      <use xlink:href="#DejaVuSans-43"/>
      <use x="69.824219" xlink:href="#DejaVuSans-68"/>
      <use x="133.203125" xlink:href="#DejaVuSans-61"/>
      <use x="194.482422" xlink:href="#DejaVuSans-6e"/>
      <use x="257.861328" xlink:href="#DejaVuSans-67"/>
      <use x="321.337891" xlink:href="#DejaVuSans-65"/>
      <use x="382.861328" xlink:href="#DejaVuSans-5f"/>
      <use x="432.861328" xlink:href="#DejaVuSans-42"/>
      <use x="501.464844" xlink:href="#DejaVuSans-61"/>
      <use x="562.744141" xlink:href="#DejaVuSans-6c"/>
      <use x="590.527344" xlink:href="#DejaVuSans-61"/>
      <use x="651.806641" xlink:href="#DejaVuSans-6e"/>
      <use x="715.185547" xlink:href="#DejaVuSans-63"/>
      <use x="770.166016" xlink:href="#DejaVuSans-65"/>
     </g>
    </g>
   </g>
  </g>
 </g>
 <defs>
  <clipPath id="pc413013640">
   <rect height="293.76" width="892.8" x="144" y="51.84"/>
  </clipPath>
 </defs>
</svg>
