<?xml version="1.0" encoding="utf-8" standalone="no"?>
<!DOCTYPE svg PUBLIC "-//W3C//DTD SVG 1.1//EN"
  "http://www.w3.org/Graphics/SVG/1.1/DTD/svg11.dtd">
<!-- Created with matplotlib (http://matplotlib.org/) -->
<svg height="432pt" version="1.1" viewBox="0 0 1152 432" width="1152pt" xmlns="http://www.w3.org/2000/svg" xmlns:xlink="http://www.w3.org/1999/xlink">
 <defs>
  <style type="text/css">
*{stroke-linecap:butt;stroke-linejoin:round;}
  </style>
 </defs>
 <g id="figure_1">
  <g id="patch_1">
   <path d="M 0 432 
L 1152 432 
L 1152 0 
L 0 0 
z
" style="fill:#ffffff;"/>
  </g>
  <g id="axes_1">
   <g id="patch_2">
    <path d="M 144 345.6 
L 1036.8 345.6 
L 1036.8 51.84 
L 144 51.84 
z
" style="fill:#eaeaf2;"/>
   </g>
   <g id="matplotlib.axis_1">
    <g id="xtick_1">
     <g id="line2d_1">
      <path clip-path="url(#p2b1985a119)" d="M 247.238786 345.6 
L 247.238786 51.84 
" style="fill:none;stroke:#ffffff;stroke-linecap:round;stroke-width:0.8;"/>
     </g>
     <g id="line2d_2"/>
     <g id="text_1">
      <!-- 2013 -->
      <defs>
       <path d="M 19.1875 8.296875 
L 53.609375 8.296875 
L 53.609375 0 
L 7.328125 0 
L 7.328125 8.296875 
Q 12.9375 14.109375 22.625 23.890625 
Q 32.328125 33.6875 34.8125 36.53125 
Q 39.546875 41.84375 41.421875 45.53125 
Q 43.3125 49.21875 43.3125 52.78125 
Q 43.3125 58.59375 39.234375 62.25 
Q 35.15625 65.921875 28.609375 65.921875 
Q 23.96875 65.921875 18.8125 64.3125 
Q 13.671875 62.703125 7.8125 59.421875 
L 7.8125 69.390625 
Q 13.765625 71.78125 18.9375 73 
Q 24.125 74.21875 28.421875 74.21875 
Q 39.75 74.21875 46.484375 68.546875 
Q 53.21875 62.890625 53.21875 53.421875 
Q 53.21875 48.921875 51.53125 44.890625 
Q 49.859375 40.875 45.40625 35.40625 
Q 44.1875 33.984375 37.640625 27.21875 
Q 31.109375 20.453125 19.1875 8.296875 
z
" id="DejaVuSans-32"/>
       <path d="M 31.78125 66.40625 
Q 24.171875 66.40625 20.328125 58.90625 
Q 16.5 51.421875 16.5 36.375 
Q 16.5 21.390625 20.328125 13.890625 
Q 24.171875 6.390625 31.78125 6.390625 
Q 39.453125 6.390625 43.28125 13.890625 
Q 47.125 21.390625 47.125 36.375 
Q 47.125 51.421875 43.28125 58.90625 
Q 39.453125 66.40625 31.78125 66.40625 
z
M 31.78125 74.21875 
Q 44.046875 74.21875 50.515625 64.515625 
Q 56.984375 54.828125 56.984375 36.375 
Q 56.984375 17.96875 50.515625 8.265625 
Q 44.046875 -1.421875 31.78125 -1.421875 
Q 19.53125 -1.421875 13.0625 8.265625 
Q 6.59375 17.96875 6.59375 36.375 
Q 6.59375 54.828125 13.0625 64.515625 
Q 19.53125 74.21875 31.78125 74.21875 
z
" id="DejaVuSans-30"/>
       <path d="M 12.40625 8.296875 
L 28.515625 8.296875 
L 28.515625 63.921875 
L 10.984375 60.40625 
L 10.984375 69.390625 
L 28.421875 72.90625 
L 38.28125 72.90625 
L 38.28125 8.296875 
L 54.390625 8.296875 
L 54.390625 0 
L 12.40625 0 
z
" id="DejaVuSans-31"/>
       <path d="M 40.578125 39.3125 
Q 47.65625 37.796875 51.625 33 
Q 55.609375 28.21875 55.609375 21.1875 
Q 55.609375 10.40625 48.1875 4.484375 
Q 40.765625 -1.421875 27.09375 -1.421875 
Q 22.515625 -1.421875 17.65625 -0.515625 
Q 12.796875 0.390625 7.625 2.203125 
L 7.625 11.71875 
Q 11.71875 9.328125 16.59375 8.109375 
Q 21.484375 6.890625 26.8125 6.890625 
Q 36.078125 6.890625 40.9375 10.546875 
Q 45.796875 14.203125 45.796875 21.1875 
Q 45.796875 27.640625 41.28125 31.265625 
Q 36.765625 34.90625 28.71875 34.90625 
L 20.21875 34.90625 
L 20.21875 43.015625 
L 29.109375 43.015625 
Q 36.375 43.015625 40.234375 45.921875 
Q 44.09375 48.828125 44.09375 54.296875 
Q 44.09375 59.90625 40.109375 62.90625 
Q 36.140625 65.921875 28.71875 65.921875 
Q 24.65625 65.921875 20.015625 65.03125 
Q 15.375 64.15625 9.8125 62.3125 
L 9.8125 71.09375 
Q 15.4375 72.65625 20.34375 73.4375 
Q 25.25 74.21875 29.59375 74.21875 
Q 40.828125 74.21875 47.359375 69.109375 
Q 53.90625 64.015625 53.90625 55.328125 
Q 53.90625 49.265625 50.4375 45.09375 
Q 46.96875 40.921875 40.578125 39.3125 
z
" id="DejaVuSans-33"/>
      </defs>
      <g style="fill:#262626;" transform="translate(224.158596 368.40544)rotate(-30)scale(0.1 -0.1)">
       <use xlink:href="#DejaVuSans-32"/>
       <use x="63.623047" xlink:href="#DejaVuSans-30"/>
       <use x="127.246094" xlink:href="#DejaVuSans-31"/>
       <use x="190.869141" xlink:href="#DejaVuSans-33"/>
      </g>
     </g>
    </g>
    <g id="xtick_2">
     <g id="line2d_3">
      <path clip-path="url(#p2b1985a119)" d="M 396.820119 345.6 
L 396.820119 51.84 
" style="fill:none;stroke:#ffffff;stroke-linecap:round;stroke-width:0.8;"/>
     </g>
     <g id="line2d_4"/>
     <g id="text_2">
      <!-- 2014 -->
      <defs>
       <path d="M 37.796875 64.3125 
L 12.890625 25.390625 
L 37.796875 25.390625 
z
M 35.203125 72.90625 
L 47.609375 72.90625 
L 47.609375 25.390625 
L 58.015625 25.390625 
L 58.015625 17.1875 
L 47.609375 17.1875 
L 47.609375 0 
L 37.796875 0 
L 37.796875 17.1875 
L 4.890625 17.1875 
L 4.890625 26.703125 
z
" id="DejaVuSans-34"/>
      </defs>
      <g style="fill:#262626;" transform="translate(373.739929 368.40544)rotate(-30)scale(0.1 -0.1)">
       <use xlink:href="#DejaVuSans-32"/>
       <use x="63.623047" xlink:href="#DejaVuSans-30"/>
       <use x="127.246094" xlink:href="#DejaVuSans-31"/>
       <use x="190.869141" xlink:href="#DejaVuSans-34"/>
      </g>
     </g>
    </g>
    <g id="xtick_3">
     <g id="line2d_5">
      <path clip-path="url(#p2b1985a119)" d="M 546.401451 345.6 
L 546.401451 51.84 
" style="fill:none;stroke:#ffffff;stroke-linecap:round;stroke-width:0.8;"/>
     </g>
     <g id="line2d_6"/>
     <g id="text_3">
      <!-- 2015 -->
      <defs>
       <path d="M 10.796875 72.90625 
L 49.515625 72.90625 
L 49.515625 64.59375 
L 19.828125 64.59375 
L 19.828125 46.734375 
Q 21.96875 47.46875 24.109375 47.828125 
Q 26.265625 48.1875 28.421875 48.1875 
Q 40.625 48.1875 47.75 41.5 
Q 54.890625 34.8125 54.890625 23.390625 
Q 54.890625 11.625 47.5625 5.09375 
Q 40.234375 -1.421875 26.90625 -1.421875 
Q 22.3125 -1.421875 17.546875 -0.640625 
Q 12.796875 0.140625 7.71875 1.703125 
L 7.71875 11.625 
Q 12.109375 9.234375 16.796875 8.0625 
Q 21.484375 6.890625 26.703125 6.890625 
Q 35.15625 6.890625 40.078125 11.328125 
Q 45.015625 15.765625 45.015625 23.390625 
Q 45.015625 31 40.078125 35.4375 
Q 35.15625 39.890625 26.703125 39.890625 
Q 22.75 39.890625 18.8125 39.015625 
Q 14.890625 38.140625 10.796875 36.28125 
z
" id="DejaVuSans-35"/>
      </defs>
      <g style="fill:#262626;" transform="translate(523.321261 368.40544)rotate(-30)scale(0.1 -0.1)">
       <use xlink:href="#DejaVuSans-32"/>
       <use x="63.623047" xlink:href="#DejaVuSans-30"/>
       <use x="127.246094" xlink:href="#DejaVuSans-31"/>
       <use x="190.869141" xlink:href="#DejaVuSans-35"/>
      </g>
     </g>
    </g>
    <g id="xtick_4">
     <g id="line2d_7">
      <path clip-path="url(#p2b1985a119)" d="M 695.982784 345.6 
L 695.982784 51.84 
" style="fill:none;stroke:#ffffff;stroke-linecap:round;stroke-width:0.8;"/>
     </g>
     <g id="line2d_8"/>
     <g id="text_4">
      <!-- 2016 -->
      <defs>
       <path d="M 33.015625 40.375 
Q 26.375 40.375 22.484375 35.828125 
Q 18.609375 31.296875 18.609375 23.390625 
Q 18.609375 15.53125 22.484375 10.953125 
Q 26.375 6.390625 33.015625 6.390625 
Q 39.65625 6.390625 43.53125 10.953125 
Q 47.40625 15.53125 47.40625 23.390625 
Q 47.40625 31.296875 43.53125 35.828125 
Q 39.65625 40.375 33.015625 40.375 
z
M 52.59375 71.296875 
L 52.59375 62.3125 
Q 48.875 64.0625 45.09375 64.984375 
Q 41.3125 65.921875 37.59375 65.921875 
Q 27.828125 65.921875 22.671875 59.328125 
Q 17.53125 52.734375 16.796875 39.40625 
Q 19.671875 43.65625 24.015625 45.921875 
Q 28.375 48.1875 33.59375 48.1875 
Q 44.578125 48.1875 50.953125 41.515625 
Q 57.328125 34.859375 57.328125 23.390625 
Q 57.328125 12.15625 50.6875 5.359375 
Q 44.046875 -1.421875 33.015625 -1.421875 
Q 20.359375 -1.421875 13.671875 8.265625 
Q 6.984375 17.96875 6.984375 36.375 
Q 6.984375 53.65625 15.1875 63.9375 
Q 23.390625 74.21875 37.203125 74.21875 
Q 40.921875 74.21875 44.703125 73.484375 
Q 48.484375 72.75 52.59375 71.296875 
z
" id="DejaVuSans-36"/>
      </defs>
      <g style="fill:#262626;" transform="translate(672.902593 368.40544)rotate(-30)scale(0.1 -0.1)">
       <use xlink:href="#DejaVuSans-32"/>
       <use x="63.623047" xlink:href="#DejaVuSans-30"/>
       <use x="127.246094" xlink:href="#DejaVuSans-31"/>
       <use x="190.869141" xlink:href="#DejaVuSans-36"/>
      </g>
     </g>
    </g>
    <g id="xtick_5">
     <g id="line2d_9">
      <path clip-path="url(#p2b1985a119)" d="M 845.973928 345.6 
L 845.973928 51.84 
" style="fill:none;stroke:#ffffff;stroke-linecap:round;stroke-width:0.8;"/>
     </g>
     <g id="line2d_10"/>
     <g id="text_5">
      <!-- 2017 -->
      <defs>
       <path d="M 8.203125 72.90625 
L 55.078125 72.90625 
L 55.078125 68.703125 
L 28.609375 0 
L 18.3125 0 
L 43.21875 64.59375 
L 8.203125 64.59375 
z
" id="DejaVuSans-37"/>
      </defs>
      <g style="fill:#262626;" transform="translate(822.893738 368.40544)rotate(-30)scale(0.1 -0.1)">
       <use xlink:href="#DejaVuSans-32"/>
       <use x="63.623047" xlink:href="#DejaVuSans-30"/>
       <use x="127.246094" xlink:href="#DejaVuSans-31"/>
       <use x="190.869141" xlink:href="#DejaVuSans-37"/>
      </g>
     </g>
    </g>
    <g id="xtick_6">
     <g id="line2d_11">
      <path clip-path="url(#p2b1985a119)" d="M 995.55526 345.6 
L 995.55526 51.84 
" style="fill:none;stroke:#ffffff;stroke-linecap:round;stroke-width:0.8;"/>
     </g>
     <g id="line2d_12"/>
     <g id="text_6">
      <!-- 2018 -->
      <defs>
       <path d="M 31.78125 34.625 
Q 24.75 34.625 20.71875 30.859375 
Q 16.703125 27.09375 16.703125 20.515625 
Q 16.703125 13.921875 20.71875 10.15625 
Q 24.75 6.390625 31.78125 6.390625 
Q 38.8125 6.390625 42.859375 10.171875 
Q 46.921875 13.96875 46.921875 20.515625 
Q 46.921875 27.09375 42.890625 30.859375 
Q 38.875 34.625 31.78125 34.625 
z
M 21.921875 38.8125 
Q 15.578125 40.375 12.03125 44.71875 
Q 8.5 49.078125 8.5 55.328125 
Q 8.5 64.0625 14.71875 69.140625 
Q 20.953125 74.21875 31.78125 74.21875 
Q 42.671875 74.21875 48.875 69.140625 
Q 55.078125 64.0625 55.078125 55.328125 
Q 55.078125 49.078125 51.53125 44.71875 
Q 48 40.375 41.703125 38.8125 
Q 48.828125 37.15625 52.796875 32.3125 
Q 56.78125 27.484375 56.78125 20.515625 
Q 56.78125 9.90625 50.3125 4.234375 
Q 43.84375 -1.421875 31.78125 -1.421875 
Q 19.734375 -1.421875 13.25 4.234375 
Q 6.78125 9.90625 6.78125 20.515625 
Q 6.78125 27.484375 10.78125 32.3125 
Q 14.796875 37.15625 21.921875 38.8125 
z
M 18.3125 54.390625 
Q 18.3125 48.734375 21.84375 45.5625 
Q 25.390625 42.390625 31.78125 42.390625 
Q 38.140625 42.390625 41.71875 45.5625 
Q 45.3125 48.734375 45.3125 54.390625 
Q 45.3125 60.0625 41.71875 63.234375 
Q 38.140625 66.40625 31.78125 66.40625 
Q 25.390625 66.40625 21.84375 63.234375 
Q 18.3125 60.0625 18.3125 54.390625 
z
" id="DejaVuSans-38"/>
      </defs>
      <g style="fill:#262626;" transform="translate(972.47507 368.40544)rotate(-30)scale(0.1 -0.1)">
       <use xlink:href="#DejaVuSans-32"/>
       <use x="63.623047" xlink:href="#DejaVuSans-30"/>
       <use x="127.246094" xlink:href="#DejaVuSans-31"/>
       <use x="190.869141" xlink:href="#DejaVuSans-38"/>
      </g>
     </g>
    </g>
    <g id="xtick_7">
     <g id="line2d_13"/>
    </g>
    <g id="xtick_8">
     <g id="line2d_14"/>
    </g>
    <g id="xtick_9">
     <g id="line2d_15"/>
    </g>
    <g id="xtick_10">
     <g id="line2d_16"/>
    </g>
    <g id="xtick_11">
     <g id="line2d_17"/>
    </g>
    <g id="xtick_12">
     <g id="line2d_18"/>
    </g>
    <g id="xtick_13">
     <g id="line2d_19"/>
    </g>
    <g id="xtick_14">
     <g id="line2d_20"/>
    </g>
    <g id="xtick_15">
     <g id="line2d_21"/>
    </g>
    <g id="xtick_16">
     <g id="line2d_22"/>
    </g>
    <g id="xtick_17">
     <g id="line2d_23"/>
    </g>
    <g id="xtick_18">
     <g id="line2d_24"/>
    </g>
    <g id="xtick_19">
     <g id="line2d_25"/>
    </g>
    <g id="xtick_20">
     <g id="line2d_26"/>
    </g>
    <g id="xtick_21">
     <g id="line2d_27"/>
    </g>
    <g id="xtick_22">
     <g id="line2d_28"/>
    </g>
    <g id="xtick_23">
     <g id="line2d_29"/>
    </g>
    <g id="xtick_24">
     <g id="line2d_30"/>
    </g>
    <g id="xtick_25">
     <g id="line2d_31"/>
    </g>
    <g id="xtick_26">
     <g id="line2d_32"/>
    </g>
    <g id="xtick_27">
     <g id="line2d_33"/>
    </g>
    <g id="xtick_28">
     <g id="line2d_34"/>
    </g>
    <g id="xtick_29">
     <g id="line2d_35"/>
    </g>
    <g id="xtick_30">
     <g id="line2d_36"/>
    </g>
    <g id="xtick_31">
     <g id="line2d_37"/>
    </g>
    <g id="xtick_32">
     <g id="line2d_38"/>
    </g>
    <g id="xtick_33">
     <g id="line2d_39"/>
    </g>
    <g id="xtick_34">
     <g id="line2d_40"/>
    </g>
    <g id="xtick_35">
     <g id="line2d_41"/>
    </g>
    <g id="xtick_36">
     <g id="line2d_42"/>
    </g>
    <g id="xtick_37">
     <g id="line2d_43"/>
    </g>
    <g id="xtick_38">
     <g id="line2d_44"/>
    </g>
    <g id="xtick_39">
     <g id="line2d_45"/>
    </g>
    <g id="xtick_40">
     <g id="line2d_46"/>
    </g>
    <g id="xtick_41">
     <g id="line2d_47"/>
    </g>
    <g id="xtick_42">
     <g id="line2d_48"/>
    </g>
    <g id="xtick_43">
     <g id="line2d_49"/>
    </g>
    <g id="xtick_44">
     <g id="line2d_50"/>
    </g>
    <g id="xtick_45">
     <g id="line2d_51"/>
    </g>
    <g id="xtick_46">
     <g id="line2d_52"/>
    </g>
    <g id="xtick_47">
     <g id="line2d_53"/>
    </g>
    <g id="xtick_48">
     <g id="line2d_54"/>
    </g>
    <g id="xtick_49">
     <g id="line2d_55"/>
    </g>
    <g id="xtick_50">
     <g id="line2d_56"/>
    </g>
    <g id="xtick_51">
     <g id="line2d_57"/>
    </g>
    <g id="xtick_52">
     <g id="line2d_58"/>
    </g>
    <g id="xtick_53">
     <g id="line2d_59"/>
    </g>
    <g id="xtick_54">
     <g id="line2d_60"/>
    </g>
    <g id="xtick_55">
     <g id="line2d_61"/>
    </g>
    <g id="xtick_56">
     <g id="line2d_62"/>
    </g>
    <g id="xtick_57">
     <g id="line2d_63"/>
    </g>
    <g id="xtick_58">
     <g id="line2d_64"/>
    </g>
    <g id="xtick_59">
     <g id="line2d_65"/>
    </g>
    <g id="xtick_60">
     <g id="line2d_66"/>
    </g>
    <g id="xtick_61">
     <g id="line2d_67"/>
    </g>
    <g id="xtick_62">
     <g id="line2d_68"/>
    </g>
    <g id="xtick_63">
     <g id="line2d_69"/>
    </g>
    <g id="xtick_64">
     <g id="line2d_70"/>
    </g>
    <g id="xtick_65">
     <g id="line2d_71"/>
    </g>
    <g id="xtick_66">
     <g id="line2d_72"/>
    </g>
    <g id="xtick_67">
     <g id="line2d_73"/>
    </g>
    <g id="xtick_68">
     <g id="line2d_74"/>
    </g>
    <g id="xtick_69">
     <g id="line2d_75"/>
    </g>
    <g id="xtick_70">
     <g id="line2d_76"/>
    </g>
    <g id="xtick_71">
     <g id="line2d_77"/>
    </g>
    <g id="xtick_72">
     <g id="line2d_78"/>
    </g>
    <g id="xtick_73">
     <g id="line2d_79"/>
    </g>
    <g id="xtick_74">
     <g id="line2d_80"/>
    </g>
    <g id="xtick_75">
     <g id="line2d_81"/>
    </g>
    <g id="xtick_76">
     <g id="line2d_82"/>
    </g>
    <g id="xtick_77">
     <g id="line2d_83"/>
    </g>
    <g id="xtick_78">
     <g id="line2d_84"/>
    </g>
    <g id="text_7">
     <!-- Year -->
     <defs>
      <path d="M -0.203125 72.90625 
L 10.40625 72.90625 
L 30.609375 42.921875 
L 50.6875 72.90625 
L 61.28125 72.90625 
L 35.5 34.71875 
L 35.5 0 
L 25.59375 0 
L 25.59375 34.71875 
z
" id="DejaVuSans-59"/>
      <path d="M 56.203125 29.59375 
L 56.203125 25.203125 
L 14.890625 25.203125 
Q 15.484375 15.921875 20.484375 11.0625 
Q 25.484375 6.203125 34.421875 6.203125 
Q 39.59375 6.203125 44.453125 7.46875 
Q 49.3125 8.734375 54.109375 11.28125 
L 54.109375 2.78125 
Q 49.265625 0.734375 44.1875 -0.34375 
Q 39.109375 -1.421875 33.890625 -1.421875 
Q 20.796875 -1.421875 13.15625 6.1875 
Q 5.515625 13.8125 5.515625 26.8125 
Q 5.515625 40.234375 12.765625 48.109375 
Q 20.015625 56 32.328125 56 
Q 43.359375 56 49.78125 48.890625 
Q 56.203125 41.796875 56.203125 29.59375 
z
M 47.21875 32.234375 
Q 47.125 39.59375 43.09375 43.984375 
Q 39.0625 48.390625 32.421875 48.390625 
Q 24.90625 48.390625 20.390625 44.140625 
Q 15.875 39.890625 15.1875 32.171875 
z
" id="DejaVuSans-65"/>
      <path d="M 34.28125 27.484375 
Q 23.390625 27.484375 19.1875 25 
Q 14.984375 22.515625 14.984375 16.5 
Q 14.984375 11.71875 18.140625 8.90625 
Q 21.296875 6.109375 26.703125 6.109375 
Q 34.1875 6.109375 38.703125 11.40625 
Q 43.21875 16.703125 43.21875 25.484375 
L 43.21875 27.484375 
z
M 52.203125 31.203125 
L 52.203125 0 
L 43.21875 0 
L 43.21875 8.296875 
Q 40.140625 3.328125 35.546875 0.953125 
Q 30.953125 -1.421875 24.3125 -1.421875 
Q 15.921875 -1.421875 10.953125 3.296875 
Q 6 8.015625 6 15.921875 
Q 6 25.140625 12.171875 29.828125 
Q 18.359375 34.515625 30.609375 34.515625 
L 43.21875 34.515625 
L 43.21875 35.40625 
Q 43.21875 41.609375 39.140625 45 
Q 35.0625 48.390625 27.6875 48.390625 
Q 23 48.390625 18.546875 47.265625 
Q 14.109375 46.140625 10.015625 43.890625 
L 10.015625 52.203125 
Q 14.9375 54.109375 19.578125 55.046875 
Q 24.21875 56 28.609375 56 
Q 40.484375 56 46.34375 49.84375 
Q 52.203125 43.703125 52.203125 31.203125 
z
" id="DejaVuSans-61"/>
      <path d="M 41.109375 46.296875 
Q 39.59375 47.171875 37.8125 47.578125 
Q 36.03125 48 33.890625 48 
Q 26.265625 48 22.1875 43.046875 
Q 18.109375 38.09375 18.109375 28.8125 
L 18.109375 0 
L 9.078125 0 
L 9.078125 54.6875 
L 18.109375 54.6875 
L 18.109375 46.1875 
Q 20.953125 51.171875 25.484375 53.578125 
Q 30.03125 56 36.53125 56 
Q 37.453125 56 38.578125 55.875 
Q 39.703125 55.765625 41.0625 55.515625 
z
" id="DejaVuSans-72"/>
     </defs>
     <g style="fill:#262626;" transform="translate(578.036172 382.564783)scale(0.11 -0.11)">
      <use xlink:href="#DejaVuSans-59"/>
      <use x="60.880859" xlink:href="#DejaVuSans-65"/>
      <use x="122.404297" xlink:href="#DejaVuSans-61"/>
      <use x="183.683594" xlink:href="#DejaVuSans-72"/>
     </g>
    </g>
   </g>
   <g id="matplotlib.axis_2">
    <g id="ytick_1">
     <g id="line2d_85">
      <path clip-path="url(#p2b1985a119)" d="M 144 308.80641 
L 1036.8 308.80641 
" style="fill:none;stroke:#ffffff;stroke-linecap:round;stroke-width:0.8;"/>
     </g>
     <g id="line2d_86"/>
     <g id="text_8">
      <!-- 0 -->
      <g style="fill:#262626;" transform="translate(134.1375 312.605629)scale(0.1 -0.1)">
       <use xlink:href="#DejaVuSans-30"/>
      </g>
     </g>
    </g>
    <g id="ytick_2">
     <g id="line2d_87">
      <path clip-path="url(#p2b1985a119)" d="M 144 258.248628 
L 1036.8 258.248628 
" style="fill:none;stroke:#ffffff;stroke-linecap:round;stroke-width:0.8;"/>
     </g>
     <g id="line2d_88"/>
     <g id="text_9">
      <!-- 2000 -->
      <g style="fill:#262626;" transform="translate(115.05 262.047847)scale(0.1 -0.1)">
       <use xlink:href="#DejaVuSans-32"/>
       <use x="63.623047" xlink:href="#DejaVuSans-30"/>
       <use x="127.246094" xlink:href="#DejaVuSans-30"/>
       <use x="190.869141" xlink:href="#DejaVuSans-30"/>
      </g>
     </g>
    </g>
    <g id="ytick_3">
     <g id="line2d_89">
      <path clip-path="url(#p2b1985a119)" d="M 144 207.690846 
L 1036.8 207.690846 
" style="fill:none;stroke:#ffffff;stroke-linecap:round;stroke-width:0.8;"/>
     </g>
     <g id="line2d_90"/>
     <g id="text_10">
      <!-- 4000 -->
      <g style="fill:#262626;" transform="translate(115.05 211.490065)scale(0.1 -0.1)">
       <use xlink:href="#DejaVuSans-34"/>
       <use x="63.623047" xlink:href="#DejaVuSans-30"/>
       <use x="127.246094" xlink:href="#DejaVuSans-30"/>
       <use x="190.869141" xlink:href="#DejaVuSans-30"/>
      </g>
     </g>
    </g>
    <g id="ytick_4">
     <g id="line2d_91">
      <path clip-path="url(#p2b1985a119)" d="M 144 157.133065 
L 1036.8 157.133065 
" style="fill:none;stroke:#ffffff;stroke-linecap:round;stroke-width:0.8;"/>
     </g>
     <g id="line2d_92"/>
     <g id="text_11">
      <!-- 6000 -->
      <g style="fill:#262626;" transform="translate(115.05 160.932283)scale(0.1 -0.1)">
       <use xlink:href="#DejaVuSans-36"/>
       <use x="63.623047" xlink:href="#DejaVuSans-30"/>
       <use x="127.246094" xlink:href="#DejaVuSans-30"/>
       <use x="190.869141" xlink:href="#DejaVuSans-30"/>
      </g>
     </g>
    </g>
    <g id="ytick_5">
     <g id="line2d_93">
      <path clip-path="url(#p2b1985a119)" d="M 144 106.575283 
L 1036.8 106.575283 
" style="fill:none;stroke:#ffffff;stroke-linecap:round;stroke-width:0.8;"/>
     </g>
     <g id="line2d_94"/>
     <g id="text_12">
      <!-- 8000 -->
      <g style="fill:#262626;" transform="translate(115.05 110.374502)scale(0.1 -0.1)">
       <use xlink:href="#DejaVuSans-38"/>
       <use x="63.623047" xlink:href="#DejaVuSans-30"/>
       <use x="127.246094" xlink:href="#DejaVuSans-30"/>
       <use x="190.869141" xlink:href="#DejaVuSans-30"/>
      </g>
     </g>
    </g>
    <g id="ytick_6">
     <g id="line2d_95">
      <path clip-path="url(#p2b1985a119)" d="M 144 56.017501 
L 1036.8 56.017501 
" style="fill:none;stroke:#ffffff;stroke-linecap:round;stroke-width:0.8;"/>
     </g>
     <g id="line2d_96"/>
     <g id="text_13">
      <!-- 10000 -->
      <g style="fill:#262626;" transform="translate(108.6875 59.81672)scale(0.1 -0.1)">
       <use xlink:href="#DejaVuSans-31"/>
       <use x="63.623047" xlink:href="#DejaVuSans-30"/>
       <use x="127.246094" xlink:href="#DejaVuSans-30"/>
       <use x="190.869141" xlink:href="#DejaVuSans-30"/>
       <use x="254.492188" xlink:href="#DejaVuSans-30"/>
      </g>
     </g>
    </g>
    <g id="text_14">
     <!-- Balance -->
     <defs>
      <path d="M 19.671875 34.8125 
L 19.671875 8.109375 
L 35.5 8.109375 
Q 43.453125 8.109375 47.28125 11.40625 
Q 51.125 14.703125 51.125 21.484375 
Q 51.125 28.328125 47.28125 31.5625 
Q 43.453125 34.8125 35.5 34.8125 
z
M 19.671875 64.796875 
L 19.671875 42.828125 
L 34.28125 42.828125 
Q 41.5 42.828125 45.03125 45.53125 
Q 48.578125 48.25 48.578125 53.8125 
Q 48.578125 59.328125 45.03125 62.0625 
Q 41.5 64.796875 34.28125 64.796875 
z
M 9.8125 72.90625 
L 35.015625 72.90625 
Q 46.296875 72.90625 52.390625 68.21875 
Q 58.5 63.53125 58.5 54.890625 
Q 58.5 48.1875 55.375 44.234375 
Q 52.25 40.28125 46.1875 39.3125 
Q 53.46875 37.75 57.5 32.78125 
Q 61.53125 27.828125 61.53125 20.40625 
Q 61.53125 10.640625 54.890625 5.3125 
Q 48.25 0 35.984375 0 
L 9.8125 0 
z
" id="DejaVuSans-42"/>
      <path d="M 9.421875 75.984375 
L 18.40625 75.984375 
L 18.40625 0 
L 9.421875 0 
z
" id="DejaVuSans-6c"/>
      <path d="M 54.890625 33.015625 
L 54.890625 0 
L 45.90625 0 
L 45.90625 32.71875 
Q 45.90625 40.484375 42.875 44.328125 
Q 39.84375 48.1875 33.796875 48.1875 
Q 26.515625 48.1875 22.3125 43.546875 
Q 18.109375 38.921875 18.109375 30.90625 
L 18.109375 0 
L 9.078125 0 
L 9.078125 54.6875 
L 18.109375 54.6875 
L 18.109375 46.1875 
Q 21.34375 51.125 25.703125 53.5625 
Q 30.078125 56 35.796875 56 
Q 45.21875 56 50.046875 50.171875 
Q 54.890625 44.34375 54.890625 33.015625 
z
" id="DejaVuSans-6e"/>
      <path d="M 48.78125 52.59375 
L 48.78125 44.1875 
Q 44.96875 46.296875 41.140625 47.34375 
Q 37.3125 48.390625 33.40625 48.390625 
Q 24.65625 48.390625 19.8125 42.84375 
Q 14.984375 37.3125 14.984375 27.296875 
Q 14.984375 17.28125 19.8125 11.734375 
Q 24.65625 6.203125 33.40625 6.203125 
Q 37.3125 6.203125 41.140625 7.25 
Q 44.96875 8.296875 48.78125 10.40625 
L 48.78125 2.09375 
Q 45.015625 0.34375 40.984375 -0.53125 
Q 36.96875 -1.421875 32.421875 -1.421875 
Q 20.0625 -1.421875 12.78125 6.34375 
Q 5.515625 14.109375 5.515625 27.296875 
Q 5.515625 40.671875 12.859375 48.328125 
Q 20.21875 56 33.015625 56 
Q 37.15625 56 41.109375 55.140625 
Q 45.0625 54.296875 48.78125 52.59375 
z
" id="DejaVuSans-63"/>
     </defs>
     <g style="fill:#262626;" transform="translate(102.399844 220.656406)rotate(-90)scale(0.11 -0.11)">
      <use xlink:href="#DejaVuSans-42"/>
      <use x="68.603516" xlink:href="#DejaVuSans-61"/>
      <use x="129.882812" xlink:href="#DejaVuSans-6c"/>
      <use x="157.666016" xlink:href="#DejaVuSans-61"/>
      <use x="218.945312" xlink:href="#DejaVuSans-6e"/>
      <use x="282.324219" xlink:href="#DejaVuSans-63"/>
      <use x="337.304688" xlink:href="#DejaVuSans-65"/>
     </g>
    </g>
   </g>
   <g id="line2d_97">
    <path clip-path="url(#p2b1985a119)" d="M 184.581818 258.248628 
L 184.847627 169.77251 
L 184.872524 111.631061 
L 185.24679 250.664961 
L 185.325428 308.80641 
L 185.518305 309.63303 
L 185.944466 310.183351 
L 185.97506 315.421896 
L 186.128526 315.673168 
L 199.84482 319.429864 
L 247.833268 323.10592 
L 250.513348 324.117076 
L 250.861176 324.522549 
L 251.52777 325.753631 
L 251.711972 327.234469 
L 252.655938 327.666485 
L 257.119022 327.7676 
L 316.129683 328.778756 
L 316.667978 328.070947 
L 317.424764 329.186505 
L 317.490747 328.680927 
L 317.740794 329.584142 
L 318.494089 328.502963 
L 318.51354 327.786812 
L 318.719452 327.597221 
L 319.24255 326.419224 
L 321.171047 327.302722 
L 321.371528 327.024654 
L 321.616599 323.586725 
L 321.972182 321.015356 
L 322.654623 321.268145 
L 322.74924 318.1098 
L 322.940922 318.615378 
L 323.002863 317.384802 
L 323.670354 316.494732 
L 323.683588 315.875652 
L 328.645669 316.109229 
L 330.237309 316.783164 
L 333.353269 317.035953 
L 333.650762 317.494259 
L 338.258224 217.314015 
L 338.568752 113.796956 
L 338.656956 115.906733 
L 338.798554 116.528846 
L 338.906163 325.421467 
L 339.133988 327.228655 
L 339.159976 327.367688 
L 339.186239 328.232985 
L 340.632728 328.485774 
L 348.935303 328.675365 
L 348.956391 328.928154 
L 349.099641 328.978712 
L 349.149534 329.737079 
L 350.902277 330.242657 
L 350.910867 330.495446 
L 361.582524 330.954005 
L 361.819485 330.224961 
L 361.894645 332.247273 
L 361.974872 331.236117 
L 373.5713 331.392341 
L 386.927321 318.752895 
L 390.266305 318.740256 
L 393.993084 318.285236 
L 394.243553 317.804937 
L 394.826767 317.349917 
L 394.974887 315.080125 
L 399.424092 315.459308 
L 399.430505 318.745564 
L 399.53153 314.167557 
L 402.191551 313.838932 
L 402.204078 313.814917 
L 402.204803 314.269937 
L 402.2913 314.225699 
L 402.429564 312.892995 
L 405.046 312.084071 
L 405.178994 311.249868 
L 405.396512 311.755445 
L 408.066209 313.284818 
L 408.121832 312.77924 
L 409.145608 313.891512 
L 409.15997 314.270695 
L 409.321742 314.220137 
L 409.401717 297.910702 
L 409.828348 281.178857 
L 409.923586 282.666267 
L 410.520655 282.130355 
L 410.728316 265.821173 
L 410.866718 265.928861 
L 410.904185 266.109858 
L 413.876293 266.486766 
L 414.031244 266.815139 
L 414.789272 266.794663 
L 416.606603 257.512254 
L 416.777794 259.303769 
L 417.155229 260.331609 
L 419.057297 262.202247 
L 419.46191 263.67904 
L 419.712683 262.948985 
L 420.761792 263.97278 
L 420.813891 264.756426 
L 423.634227 264.010699 
L 423.81222 266.579792 
L 424.7671 266.958976 
L 424.802556 267.851573 
L 425.020282 267.85132 
L 425.069616 268.81116 
L 426.366481 268.810907 
L 428.167424 269.588991 
L 429.933087 269.588739 
L 429.969871 269.285392 
L 430.861833 269.285139 
L 430.87547 269.701735 
L 431.158254 269.701483 
L 431.755488 282.954952 
L 432.615738 276.635229 
L 432.792791 276.331883 
L 433.368862 277.229283 
L 433.421416 278.300097 
L 433.563205 278.552886 
L 436.433975 270.969219 
L 437.62389 266.388937 
L 437.732765 267.064894 
L 437.86687 265.168977 
L 438.053619 266.386156 
L 438.963572 264.23745 
L 439.635507 259.636945 
L 440.238542 259.920321 
L 441.750971 260.839967 
L 443.592534 255.485898 
L 443.879621 256.323135 
L 445.624181 256.556459 
L 445.770974 256.809248 
L 445.821631 254.786937 
L 445.841818 255.899208 
L 446.114305 257.365384 
L 446.520379 257.607556 
L 446.616443 258.478161 
L 446.642189 259.425866 
L 446.664776 249.400258 
L 446.774102 249.905836 
L 449.416336 248.49401 
L 449.680508 247.294021 
L 449.833191 245.926938 
L 451.039945 245.111947 
L 451.292069 241.333258 
L 452.092625 243.481711 
L 453.884585 240.98719 
L 455.183442 241.105748 
L 455.263668 238.704254 
L 458.328591 238.830648 
L 458.330645 239.361505 
L 458.676414 240.271545 
L 459.135176 237.57909 
L 462.95957 233.277381 
L 463.062061 231.290966 
L 465.204604 229.354603 
L 466.11551 224.656268 
L 466.672925 219.551955 
L 466.854983 221.488318 
L 469.088012 219.415449 
L 469.253578 217.852202 
L 470.59335 214.147328 
L 470.633434 214.7793 
L 470.728659 207.414043 
L 470.74083 207.755308 
L 472.904248 205.123775 
L 472.9947 201.819571 
L 473.31718 199.440069 
L 474.681745 195.348681 
L 475.126737 193.561969 
L 475.256791 187.043554 
L 475.400201 192.832925 
L 477.566275 193.338503 
L 477.635165 193.844081 
L 477.922086 192.580642 
L 478.445165 189.734239 
L 479.385783 189.194029 
L 479.522278 185.720962 
L 479.566332 185.175949 
L 479.56832 185.681527 
L 482.955405 185.795282 
L 483.519186 186.048071 
L 483.561609 188.469789 
L 484.300281 193.437091 
L 484.515674 192.717148 
L 485.28373 192.082395 
L 486.119404 191.149857 
L 487.770733 190.364189 
L 488.397166 189.508246 
L 488.528244 188.213967 
L 488.574491 188.304971 
L 488.60802 188.962222 
L 489.604835 196.350989 
L 489.73571 193.7733 
L 490.525077 193.19593 
L 490.925805 191.728491 
L 491.613478 191.70397 
L 492.764376 192.910279 
L 492.813435 192.404701 
L 492.822466 194.907311 
L 493.386474 193.64362 
L 494.135163 192.126886 
L 495.850406 192.379675 
L 496.022475 194.035442 
L 508.367047 197.068909 
L 508.441961 198.957242 
L 521.108516 200.466392 
L 521.21668 200.97197 
L 521.269917 202.010932 
L 533.578422 204.195029 
L 533.652468 205.911465 
L 546.179563 204.33381 
L 546.266274 205.774706 
L 546.357333 206.533073 
L 548.032482 204.839388 
L 548.448617 205.218571 
L 549.024288 205.21124 
L 550.638074 162.755848 
L 550.858396 111.638897 
L 551.018782 119.222565 
L 551.031005 143.982733 
L 551.036877 119.222565 
L 551.286929 86.878729 
L 551.394201 111.638897 
L 552.143246 115.317482 
L 552.419765 111.638897 
L 556.289153 107.921889 
L 556.54583 104.888422 
L 556.599177 105.141211 
L 558.926586 105.185449 
L 559.044265 106.372546 
L 559.662497 105.866968 
L 559.87328 102.497039 
L 563.163277 84.462573 
L 563.328544 84.330112 
L 564.143918 84.715362 
L 565.870213 84.822797 
L 568.121588 83.931969 
L 568.235406 82.677883 
L 568.257182 81.550445 
L 568.43886 80.814071 
L 568.511635 79.37014 
L 569.10277 79.749324 
L 569.213926 80.128507 
L 570.524836 80.03902 
L 570.563094 81.226117 
L 571.032357 83.861441 
L 571.206025 83.957501 
L 571.212129 83.861441 
L 575.269917 85.757358 
L 575.370169 86.38933 
L 575.492771 86.768513 
L 578.748826 84.240624 
L 579.74372 85.504569 
L 582.908971 86.904767 
L 582.920056 88.091863 
L 582.992627 87.99277 
L 583.070458 87.990748 
L 584.064493 88.226094 
L 584.143591 89.490039 
L 584.517369 89.869222 
L 584.886958 89.995364 
L 585.202589 90.248153 
L 585.34839 96.567875 
L 585.718587 97.073453 
L 586.945248 97.32877 
L 588.007505 97.783285 
L 588.424289 100.285895 
L 588.558607 97.783285 
L 589.061765 97.833842 
L 591.337895 99.178427 
L 592.025454 99.355379 
L 593.994909 99.987351 
L 595.371298 100.168095 
L 595.412986 101.355192 
L 595.474832 101.268232 
L 596.000188 101.460099 
L 596.358167 102.016235 
L 596.889015 102.20254 
L 597.509017 102.253604 
L 598.252958 106.930451 
L 598.772272 107.061649 
L 598.961772 109.903249 
L 599.950025 109.957093 
L 600.050856 110.864605 
L 600.678788 111.439447 
L 601.024226 112.070661 
L 601.924934 112.449844 
L 601.992876 112.070661 
L 602.057132 112.449844 
L 603.497322 112.854307 
L 604.56039 107.798528 
L 606.730505 107.841502 
L 606.740679 108.038931 
L 607.895575 108.037414 
L 608.02819 109.224511 
L 608.25196 109.134518 
L 609.453733 113.382888 
L 610.990642 113.863187 
L 612.520013 113.10482 
L 612.916269 111.588087 
L 612.928023 110.576931 
L 613.091753 109.060198 
L 614.283347 110.14719 
L 616.824845 110.956115 
L 619.533336 112.030215 
L 620.172628 112.018839 
L 620.246608 113.205683 
L 633.072401 113.116449 
L 633.197569 114.303293 
L 633.270292 112.190988 
L 638.91397 101.573854 
L 639.850694 92.220665 
L 639.95779 95.859055 
L 639.99936 94.595111 
L 640.839522 95.090577 
L 643.165375 102.44547 
L 644.054244 103.255659 
L 644.195373 95.900766 
L 644.219948 103.255659 
L 644.491197 108.46311 
L 644.728598 108.586724 
L 645.282556 110.359786 
L 645.610804 110.346388 
L 645.676331 110.673749 
L 645.853869 110.581987 
L 645.883134 111.769084 
L 649.906026 112.093665 
L 650.219114 103.899007 
L 650.545133 104.130814 
L 650.76248 103.018543 
L 651.051232 103.524626 
L 653.126265 101.91335 
L 653.584021 102.292533 
L 654.022083 106.716339 
L 655.984048 107.6011 
L 658.112565 107.503271 
L 658.188357 108.847855 
L 658.336629 108.241162 
L 661.420155 108.472969 
L 661.831641 108.53743 
L 664.299378 104.568897 
L 665.432977 104.768853 
L 669.615724 105.126297 
L 670.160441 101.068782 
L 670.426321 101.278344 
L 670.7335 101.186329 
L 670.817919 102.373426 
L 672.741336 102.583493 
L 673.260483 102.806706 
L 675.285229 103.169963 
L 675.506205 103.448031 
L 676.028345 99.435007 
L 676.106598 101.061451 
L 676.575211 101.592813 
L 676.599549 102.254615 
L 677.158083 102.446482 
L 680.192674 102.836788 
L 681.910858 99.713581 
L 682.91743 100.183515 
L 683.017962 101.370612 
L 683.194612 95.595397 
L 683.263042 95.593374 
L 684.01065 95.994297 
L 684.799201 96.074937 
L 685.597277 97.338882 
L 686.671634 97.448845 
L 687.127431 98.190022 
L 687.444414 98.280773 
L 687.606247 93.474245 
L 691.480287 94.232612 
L 693.037482 91.82682 
L 694.127255 92.1514 
L 694.904583 92.515922 
L 695.642207 92.425424 
L 695.712506 93.61252 
L 697.304596 93.600892 
L 697.334682 90.441031 
L 697.548752 89.809058 
L 697.732209 96.887148 
L 698.717835 103.206871 
L 698.895648 101.993484 
L 700.96618 103.307986 
L 701.799075 109.122131 
L 701.988893 103.307986 
L 703.117365 105.182922 
L 704.537448 99.243899 
L 704.869164 101.137288 
L 706.651314 101.319549 
L 707.210565 102.406541 
L 707.451908 103.454604 
L 707.513437 102.317054 
L 707.9065 103.833787 
L 708.419107 103.743289 
L 708.4487 105.907162 
L 708.477211 105.904634 
L 708.584497 107.584416 
L 710.073291 105.562105 
L 711.290555 106.269914 
L 711.559423 107.533858 
L 713.749132 107.905964 
L 713.835658 108.325088 
L 714.24279 107.412267 
L 715.167394 107.676431 
L 715.347935 106.459253 
L 715.582381 106.620785 
L 716.45612 104.130056 
L 717.151173 104.635634 
L 717.892169 104.837359 
L 720.284209 104.821939 
L 720.557938 106.57048 
L 721.071968 108.087213 
L 721.899413 107.076058 
L 722.978859 107.581635 
L 724.026365 107.762885 
L 724.661056 108.142068 
L 727.660149 107.130913 
L 729.111376 107.477486 
L 730.482055 109.312734 
L 730.91165 109.416377 
L 731.820773 110.680322 
L 733.091522 110.802419 
L 733.173209 112.482201 
L 733.220139 112.39145 
L 733.571732 106.727209 
L 735.622912 106.95118 
L 736.923775 108.847097 
L 736.933897 107.330363 
L 737.589132 107.709547 
L 738.254103 107.876135 
L 740.364241 109.392868 
L 741.076246 110.619653 
L 741.819576 110.843624 
L 743.435401 111.010211 
L 743.978421 111.23848 
L 744.713858 111.364874 
L 744.915263 109.797583 
L 745.242961 109.709613 
L 745.467565 111.604518 
L 745.559209 111.60199 
L 745.985133 111.866155 
L 746.139472 113.130099 
L 746.559268 113.218575 
L 746.62878 113.377074 
L 747.479106 113.629863 
L 747.780702 114.441063 
L 747.964159 116.026807 
L 748.455545 117.081695 
L 749.387867 117.297577 
L 749.676793 117.892642 
L 749.821793 119.257702 
L 755.415549 120.051965 
L 757.470192 121.31591 
L 757.9582 121.844239 
L 758.092527 121.753487 
L 758.171397 122.229489 
L 758.171733 123.909271 
L 758.184687 123.906996 
L 759.857597 123.430994 
L 760.420453 123.971963 
L 762.700743 124.87088 
L 762.768514 125.221751 
L 762.981047 125.511953 
L 763.086303 125.824905 
L 763.124291 129.464813 
L 764.350648 129.562137 
L 764.759341 129.870539 
L 766.104743 129.917052 
L 767.42364 130.776535 
L 769.719231 130.946662 
L 769.930436 127.660406 
L 770.461498 127.652316 
L 770.46609 129.332099 
L 770.47172 129.244128 
L 770.59066 128.964796 
L 770.902496 119.049404 
L 770.930021 115.752531 
L 771.64178 116.384504 
L 773.209201 117.601429 
L 774.030096 116.384504 
L 774.076229 118.548124 
L 774.846253 118.600198 
L 775.12861 111.221037 
L 775.159507 118.806727 
L 775.837338 118.894192 
L 776.314257 115.551817 
L 776.577105 101.989945 
L 776.580691 98.64757 
L 776.813407 98.824522 
L 776.952007 99.203705 
L 776.966678 102.54608 
L 777.778362 102.672475 
L 781.288249 90.033029 
L 781.373327 102.672475 
L 781.649063 115.31192 
L 781.692573 127.951366 
L 782.029406 115.31192 
L 782.19795 115.45778 
L 782.285254 113.738815 
L 782.359968 98.401859 
L 782.493949 98.761325 
L 782.939202 101.024544 
L 782.980293 100.930001 
L 783.057042 101.574613 
L 783.170258 103.254395 
L 784.49579 115.89384 
L 784.835431 116.0397 
L 784.926031 115.409244 
L 785.057157 136.824509 
L 785.097104 136.822993 
L 785.201554 115.407727 
L 785.501807 115.58468 
L 785.698427 115.870078 
L 786.25348 116.279343 
L 786.629264 137.694609 
L 786.66111 116.279343 
L 787.598284 116.742706 
L 787.949854 115.984339 
L 787.968932 116.136012 
L 788.045297 116.468177 
L 788.111839 100.069507 
L 788.536393 103.058231 
L 788.62058 105.843712 
L 788.719352 107.739629 
L 789.14743 112.567897 
L 789.327965 112.643733 
L 789.356847 106.955983 
L 789.841947 106.981262 
L 789.951871 108.527066 
L 790.189761 108.527824 
L 790.75329 117.375436 
L 791.596976 118.73898 
L 792.410491 123.162785 
L 792.514575 118.73898 
L 792.540207 123.162785 
L 792.857271 123.293983 
L 793.257976 127.934682 
L 793.591764 118.968006 
L 793.68621 110.019279 
L 793.817934 110.356752 
L 794.156062 110.652768 
L 794.160373 106.178404 
L 794.204025 110.652768 
L 795.768026 110.575162 
L 795.874425 112.254944 
L 796.7597 98.223137 
L 808.133838 98.134661 
L 808.168782 99.814443 
L 818.29788 99.940838 
L 818.36297 100.320021 
L 818.544583 95.566831 
L 818.562886 97.563864 
L 818.691157 96.600485 
L 818.888957 103.929341 
L 819.285996 104.112108 
L 819.359477 104.364897 
L 819.650259 104.490027 
L 820.343092 104.565611 
L 820.644271 104.473596 
L 820.678754 104.727649 
L 820.683573 104.725121 
L 820.721376 112.94076 
L 820.87295 114.620543 
L 823.722508 115.217377 
L 823.994407 115.596561 
L 824.936822 113.574249 
L 825.616797 113.843975 
L 826.094147 114.3493 
L 826.394534 113.843722 
L 826.804758 114.045953 
L 826.99635 113.970117 
L 827.333653 114.136705 
L 828.054627 114.23782 
L 828.112262 114.726967 
L 828.311604 114.885971 
L 828.823029 115.072276 
L 828.912187 115.830643 
L 829.218911 115.67897 
L 829.288408 109.106458 
L 829.370095 110.140112 
L 829.455406 110.392901 
L 829.518808 108.135496 
L 829.534229 102.723033 
L 829.576353 102.950543 
L 830.062672 103.102216 
L 832.894932 103.289533 
L 833.016377 103.902293 
L 833.258356 103.899512 
L 833.469338 112.115152 
L 834.068171 112.266825 
L 834.970312 112.470573 
L 835.221639 112.667748 
L 835.35396 114.184482 
L 835.535805 114.260318 
L 835.637418 114.559621 
L 836.306317 114.781569 
L 836.431827 115.113734 
L 836.66523 105.301732 
L 836.736108 113.517372 
L 836.787718 107.368282 
L 836.952502 107.626632 
L 837.024641 108.208046 
L 837.561703 108.840019 
L 838.377418 109.028852 
L 838.418741 109.104689 
L 838.924162 109.180525 
L 838.932505 109.33144 
L 839.133166 109.663605 
L 839.353345 109.739442 
L 839.477849 109.968721 
L 839.647413 102.906305 
L 842.096627 104.372733 
L 842.333061 103.76604 
L 842.805089 107.810662 
L 843.00058 107.938068 
L 844.47032 108.334946 
L 845.472718 100.731562 
L 845.897727 100.626401 
L 846.716279 101.890346 
L 847.083388 102.998573 
L 847.303349 130.749486 
L 847.90304 102.998573 
L 847.922966 130.749486 
L 848.147879 129.333868 
L 848.677622 129.414761 
L 849.287972 157.241511 
L 849.313409 129.490597 
L 849.440513 128.428884 
L 849.570927 126.356015 
L 849.845472 126.431852 
L 849.912783 126.937429 
L 850.540355 127.089103 
L 851.152601 127.485223 
L 851.262516 122.122054 
L 851.523918 122.19789 
L 851.739633 123.209046 
L 851.951422 123.461835 
L 852.165041 124.296038 
L 852.204367 126.070616 
L 853.022591 126.22229 
L 853.532859 126.51148 
L 853.995761 126.927318 
L 854.15999 127.003155 
L 854.193885 126.371182 
L 854.550606 126.557488 
L 855.164091 126.633324 
L 855.355521 127.352256 
L 855.590442 127.428093 
L 855.774207 127.806265 
L 855.838587 127.174293 
L 855.915706 130.334154 
L 856.11235 130.409991 
L 856.361737 130.777293 
L 856.566434 130.802572 
L 856.635557 131.611496 
L 856.677468 128.527472 
L 856.709907 129.665022 
L 856.89242 129.718866 
L 856.948707 123.764423 
L 857.022222 123.84026 
L 857.126141 124.246997 
L 857.161866 125.005364 
L 857.226753 124.373392 
L 857.490793 124.525065 
L 857.628265 124.903995 
L 858.390823 124.901215 
L 858.475731 125.233632 
L 860.166627 125.536979 
L 860.560772 125.791285 
L 861.669218 126.018795 
L 862.133349 126.472803 
L 862.426901 126.54864 
L 862.573048 104.1341 
L 862.827468 104.898534 
L 863.027854 105.754983 
L 863.72774 107.726736 
L 863.881586 103.30293 
L 863.969842 106.733276 
L 864.069791 106.809113 
L 864.36579 108.203749 
L 864.717308 108.279586 
L 864.811968 108.476508 
L 865.384319 108.628182 
L 865.492588 106.808101 
L 868.082836 107.429204 
L 868.182144 118.02384 
L 868.214217 110.232886 
L 868.229277 110.308722 
L 868.325815 109.67675 
L 868.412564 97.346465 
L 868.682181 97.422302 
L 868.724187 96.79033 
L 868.751925 96.967282 
L 869.39643 101.391088 
L 870.400237 101.600144 
L 870.419527 101.875179 
L 870.602624 78.869618 
L 870.612566 79.220237 
L 870.727218 102.225797 
L 870.829235 102.301634 
L 870.954275 100.077091 
L 871.659896 100.228764 
L 872.284669 100.304601 
L 872.511152 100.532111 
L 872.766231 100.607948 
L 872.864283 99.344003 
L 873.2243 100.090236 
L 873.386309 100.140794 
L 873.555252 106.586658 
L 873.879321 106.738332 
L 874.157846 98.605101 
L 874.530623 98.861429 
L 875.00683 99.918087 
L 875.12587 100.92899 
L 875.22542 104.217268 
L 875.359349 104.416718 
L 875.421371 103.784746 
L 875.83465 103.860583 
L 875.835457 104.238755 
L 876.292956 104.693775 
L 877.078159 105.049702 
L 877.227067 108.209563 
L 877.768687 108.267452 
L 878.086419 109.313492 
L 878.182365 116.694928 
L 878.272495 116.315745 
L 879.25916 116.467418 
L 879.646441 109.239678 
L 879.771334 109.998045 
L 879.92536 109.543025 
L 879.929572 109.618861 
L 879.977474 108.860495 
L 880.344578 121.49994 
L 880.373061 115.180217 
L 880.96152 115.486597 
L 881.272854 115.76416 
L 881.555913 115.839996 
L 881.859748 116.050822 
L 882.469798 116.118823 
L 882.520987 116.030094 
L 882.724494 116.316503 
L 883.007658 117.936628 
L 883.682462 118.403529 
L 883.693609 118.60576 
L 884.394031 118.681596 
L 884.612617 119.086817 
L 885.082131 120.105304 
L 885.447921 113.443557 
L 885.944334 120.157631 
L 886.349199 120.792384 
L 887.937666 120.944057 
L 888.279119 121.576029 
L 888.338053 123.36173 
L 888.891 123.437567 
L 889.197197 124.094818 
L 889.542027 124.474002 
L 889.914866 126.290037 
L 890.222979 126.47887 
L 890.711533 126.554707 
L 891.110985 119.440216 
L 891.168349 120.987031 
L 891.356223 121.062868 
L 891.4066 119.798923 
L 892.358549 120.220323 
L 892.71372 121.458988 
L 893.791885 121.966336 
L 893.850578 122.248954 
L 894.149413 122.692093 
L 895.144592 122.6021 
L 895.302673 122.804331 
L 895.42195 123.158235 
L 895.826962 123.234072 
L 896.464575 124.971237 
L 896.74338 125.047074 
L 896.744997 125.426257 
L 896.861566 124.847371 
L 896.918527 118.751113 
L 896.940184 119.015025 
L 897.430256 119.217003 
L 897.45751 121.151091 
L 897.510933 119.532231 
L 898.133932 120.796176 
L 898.192288 118.733924 
L 898.341736 118.835039 
L 898.41878 119.965259 
L 899.682447 120.192769 
L 899.781969 117.968226 
L 899.834239 119.232171 
L 901.531595 119.358312 
L 902.418349 119.736485 
L 902.560602 125.045052 
L 902.56665 124.033896 
L 902.68485 123.528318 
L 902.802657 116.979569 
L 902.991019 117.485147 
L 903.115879 116.673694 
L 903.158145 116.977041 
L 903.323389 116.901204 
L 903.932936 117.14287 
L 904.030693 117.420938 
L 904.527704 117.864077 
L 904.85368 118.840853 
L 905.768448 119.154565 
L 905.929626 119.521867 
L 907.211189 119.774656 
L 908.329516 120.932176 
L 908.336953 114.383427 
L 909.871907 115.950718 
L 910.374358 114.838447 
L 910.472395 113.928407 
L 910.694453 118.966237 
L 911.832549 120.48297 
L 914.082198 104.991308 
L 914.236332 107.771986 
L 919.855029 107.675167 
L 919.997628 89.750917 
L 921.028703 91.014862 
L 922.890122 91.322758 
L 922.912657 91.774745 
L 923.048687 89.120461 
L 923.103077 89.470574 
L 923.218816 90.154874 
L 923.351801 92.42871 
L 924.703677 92.961842 
L 924.749046 94.352181 
L 924.939973 94.857759 
L 925.026162 96.121703 
L 925.269355 97.143981 
L 925.745244 79.431315 
L 925.881274 79.507152 
L 926.72774 79.78522 
L 928.605916 79.936893 
L 929.54374 80.442218 
L 929.753427 80.720286 
L 929.831438 81.206652 
L 930.99963 81.774669 
L 931.385697 65.542334 
L 931.915948 65.784506 
L 932.208324 66.188968 
L 932.537591 66.383363 
L 932.648966 66.866695 
L 932.753663 66.762546 
L 933.547346 67.129849 
L 933.655386 67.529002 
L 934.735326 67.760051 
L 934.863995 68.196871 
L 934.864421 80.836316 
L 934.99142 82.100261 
L 935.579121 82.485005 
L 935.71544 83.116978 
L 937.198627 65.192727 
L 937.460518 78.097095 
L 937.852263 79.89038 
L 938.132178 80.395958 
L 938.547492 112.924835 
L 938.836129 113.127066 
L 939.060051 113.602814 
L 940.193954 114.10005 
L 940.242007 114.479234 
L 941.48904 114.712558 
L 941.507126 114.952454 
L 941.802437 115.21763 
L 941.835549 115.75784 
L 942.462205 118.309744 
L 942.516819 100.385494 
L 942.655424 100.486609 
L 942.720643 99.475454 
L 942.923092 101.668145 
L 943.08816 101.288961 
L 943.360614 102.073365 
L 943.524183 120.972117 
L 944.12885 121.301754 
L 944.292556 121.933473 
L 944.782642 121.971391 
L 944.978925 122.111942 
L 945.08068 122.490114 
L 945.219756 122.488597 
L 945.416664 122.752762 
L 945.732139 122.34653 
L 945.967842 123.111217 
L 946.73438 124.375161 
L 946.797645 125.639106 
L 947.437317 125.917173 
L 948.1224 126.353993 
L 948.380354 132.926504 
L 948.58553 102.362808 
L 948.663726 102.902007 
L 950.924237 103.205101 
L 951.157787 104.021609 
L 952.114157 116.661055 
L 954.201357 109.546564 
L 954.882626 109.925747 
L 955.665903 110.127978 
L 956.781061 110.203815 
L 956.945009 106.993396 
L 957.110509 107.012608 
L 957.167232 107.214839 
L 957.390518 107.449427 
L 957.793903 107.350586 
L 957.856698 107.603375 
L 958.413103 107.856164 
L 958.745653 108.143585 
L 959.225935 108.219422 
L 959.317592 108.556895 
L 959.83599 108.632732 
L 960.078832 101.178492 
L 960.114842 101.254329 
L 960.202269 101.52001 
L 960.462566 101.595847 
L 962.670736 101.781394 
L 964.531955 102.527627 
L 964.61035 102.45179 
L 964.784686 102.98568 
L 964.962471 103.061517 
L 965.046506 103.222544 
L 965.122554 103.146707 
L 965.220761 104.209179 
L 965.489857 104.209179 
L 966.02025 96.981438 
L 966.272228 97.281246 
L 968.089402 97.693797 
L 968.590345 98.264595 
L 970.234909 98.561622 
L 970.485573 98.456967 
L 971.197019 98.729726 
L 971.412729 98.984032 
L 971.432523 99.39987 
L 971.481231 93.699733 
L 971.776973 94.291511 
L 974.052103 94.345355 
L 974.251602 94.712658 
L 974.868762 94.887588 
L 976.147944 95.062518 
L 976.202131 95.365611 
L 976.537512 95.927561 
L 976.956384 95.96548 
L 977.128424 90.20897 
L 977.209376 90.348763 
L 977.363947 90.719351 
L 979.025184 90.981493 
L 980.733436 91.992649 
L 980.768976 89.136134 
L 980.843307 91.165777 
L 980.894111 91.325539 
L 981.627931 91.838701 
L 981.702437 92.546257 
L 981.775079 92.64712 
L 982.351922 92.705767 
L 982.640275 93.201486 
L 982.731188 93.101634 
L 982.85221 93.477531 
L 983.043228 89.958204 
L 983.098102 90.034041 
L 983.272305 90.109877 
L 984.19886 90.185714 
L 984.390471 90.54341 
L 984.732995 90.619247 
L 984.918862 90.91046 
L 985.3523 90.986296 
L 985.394306 91.193583 
L 985.768738 91.276245 
L 986.721698 91.781823 
L 987.120923 92.236843 
L 987.206566 93.500788 
L 987.472275 93.562974 
L 987.607565 93.881741 
L 987.980228 93.957577 
L 987.982078 94.260671 
L 988.493166 93.755093 
L 988.516493 93.83093 
L 988.684483 87.734673 
L 988.838329 86.470728 
L 990.85872 86.669167 
L 990.904833 86.745004 
L 990.936252 87.075652 
L 991.480448 87.189407 
L 991.501432 87.486434 
L 991.605313 83.960029 
L 991.713263 81.601003 
L 994.20389 81.828513 
L 994.270437 82.090402 
L 994.357095 78.280873 
L 994.759811 78.432546 
L 994.967094 78.938124 
L 995.111296 78.432546 
L 996.214354 78.400442 
L 996.217361 82.7383 
L 996.218182 78.400442 
" style="fill:none;stroke:#1f77b4;stroke-linecap:round;stroke-width:1.5;"/>
   </g>
   <g id="patch_3">
    <path d="M 144 345.6 
L 144 51.84 
" style="fill:none;"/>
   </g>
   <g id="patch_4">
    <path d="M 1036.8 345.6 
L 1036.8 51.84 
" style="fill:none;"/>
   </g>
   <g id="patch_5">
    <path d="M 144 345.6 
L 1036.8 345.6 
" style="fill:none;"/>
   </g>
   <g id="patch_6">
    <path d="M 144 51.84 
L 1036.8 51.84 
" style="fill:none;"/>
   </g>
   <g id="text_15">
    <!-- Balance over Time -->
    <defs>
     <path id="DejaVuSans-20"/>
     <path d="M 30.609375 48.390625 
Q 23.390625 48.390625 19.1875 42.75 
Q 14.984375 37.109375 14.984375 27.296875 
Q 14.984375 17.484375 19.15625 11.84375 
Q 23.34375 6.203125 30.609375 6.203125 
Q 37.796875 6.203125 41.984375 11.859375 
Q 46.1875 17.53125 46.1875 27.296875 
Q 46.1875 37.015625 41.984375 42.703125 
Q 37.796875 48.390625 30.609375 48.390625 
z
M 30.609375 56 
Q 42.328125 56 49.015625 48.375 
Q 55.71875 40.765625 55.71875 27.296875 
Q 55.71875 13.875 49.015625 6.21875 
Q 42.328125 -1.421875 30.609375 -1.421875 
Q 18.84375 -1.421875 12.171875 6.21875 
Q 5.515625 13.875 5.515625 27.296875 
Q 5.515625 40.765625 12.171875 48.375 
Q 18.84375 56 30.609375 56 
z
" id="DejaVuSans-6f"/>
     <path d="M 2.984375 54.6875 
L 12.5 54.6875 
L 29.59375 8.796875 
L 46.6875 54.6875 
L 56.203125 54.6875 
L 35.6875 0 
L 23.484375 0 
z
" id="DejaVuSans-76"/>
     <path d="M -0.296875 72.90625 
L 61.375 72.90625 
L 61.375 64.59375 
L 35.5 64.59375 
L 35.5 0 
L 25.59375 0 
L 25.59375 64.59375 
L -0.296875 64.59375 
z
" id="DejaVuSans-54"/>
     <path d="M 9.421875 54.6875 
L 18.40625 54.6875 
L 18.40625 0 
L 9.421875 0 
z
M 9.421875 75.984375 
L 18.40625 75.984375 
L 18.40625 64.59375 
L 9.421875 64.59375 
z
" id="DejaVuSans-69"/>
     <path d="M 52 44.1875 
Q 55.375 50.25 60.0625 53.125 
Q 64.75 56 71.09375 56 
Q 79.640625 56 84.28125 50.015625 
Q 88.921875 44.046875 88.921875 33.015625 
L 88.921875 0 
L 79.890625 0 
L 79.890625 32.71875 
Q 79.890625 40.578125 77.09375 44.375 
Q 74.3125 48.1875 68.609375 48.1875 
Q 61.625 48.1875 57.5625 43.546875 
Q 53.515625 38.921875 53.515625 30.90625 
L 53.515625 0 
L 44.484375 0 
L 44.484375 32.71875 
Q 44.484375 40.625 41.703125 44.40625 
Q 38.921875 48.1875 33.109375 48.1875 
Q 26.21875 48.1875 22.15625 43.53125 
Q 18.109375 38.875 18.109375 30.90625 
L 18.109375 0 
L 9.078125 0 
L 9.078125 54.6875 
L 18.109375 54.6875 
L 18.109375 46.1875 
Q 21.1875 51.21875 25.484375 53.609375 
Q 29.78125 56 35.6875 56 
Q 41.65625 56 45.828125 52.96875 
Q 50 49.953125 52 44.1875 
z
" id="DejaVuSans-6d"/>
    </defs>
    <g style="fill:#262626;" transform="translate(539.075547 45.84)scale(0.11 -0.11)">
     <use xlink:href="#DejaVuSans-42"/>
     <use x="68.603516" xlink:href="#DejaVuSans-61"/>
     <use x="129.882812" xlink:href="#DejaVuSans-6c"/>
     <use x="157.666016" xlink:href="#DejaVuSans-61"/>
     <use x="218.945312" xlink:href="#DejaVuSans-6e"/>
     <use x="282.324219" xlink:href="#DejaVuSans-63"/>
     <use x="337.304688" xlink:href="#DejaVuSans-65"/>
     <use x="398.828125" xlink:href="#DejaVuSans-20"/>
     <use x="430.615234" xlink:href="#DejaVuSans-6f"/>
     <use x="491.796875" xlink:href="#DejaVuSans-76"/>
     <use x="550.976562" xlink:href="#DejaVuSans-65"/>
     <use x="612.5" xlink:href="#DejaVuSans-72"/>
     <use x="653.613281" xlink:href="#DejaVuSans-20"/>
     <use x="685.400391" xlink:href="#DejaVuSans-54"/>
     <use x="746.4375" xlink:href="#DejaVuSans-69"/>
     <use x="774.220703" xlink:href="#DejaVuSans-6d"/>
     <use x="871.632812" xlink:href="#DejaVuSans-65"/>
    </g>
   </g>
   <g id="legend_1">
    <g id="line2d_98">
     <path d="M 959.915625 64.938438 
L 979.915625 64.938438 
" style="fill:none;stroke:#1f77b4;stroke-linecap:round;stroke-width:1.5;"/>
    </g>
    <g id="line2d_99"/>
    <g id="text_16">
     <!-- Balance -->
     <g style="fill:#262626;" transform="translate(987.915625 68.438438)scale(0.1 -0.1)">
      <use xlink:href="#DejaVuSans-42"/>
      <use x="68.603516" xlink:href="#DejaVuSans-61"/>
      <use x="129.882812" xlink:href="#DejaVuSans-6c"/>
      <use x="157.666016" xlink:href="#DejaVuSans-61"/>
      <use x="218.945312" xlink:href="#DejaVuSans-6e"/>
      <use x="282.324219" xlink:href="#DejaVuSans-63"/>
      <use x="337.304688" xlink:href="#DejaVuSans-65"/>
     </g>
    </g>
   </g>
  </g>
 </g>
 <defs>
  <clipPath id="p2b1985a119">
   <rect height="293.76" width="892.8" x="144" y="51.84"/>
  </clipPath>
 </defs>
</svg>
