<?xml version="1.0" encoding="utf-8" standalone="no"?>
<!DOCTYPE svg PUBLIC "-//W3C//DTD SVG 1.1//EN"
  "http://www.w3.org/Graphics/SVG/1.1/DTD/svg11.dtd">
<!-- Created with matplotlib (http://matplotlib.org/) -->
<svg height="432pt" version="1.1" viewBox="0 0 1152 432" width="1152pt" xmlns="http://www.w3.org/2000/svg" xmlns:xlink="http://www.w3.org/1999/xlink">
 <defs>
  <style type="text/css">
*{stroke-linecap:butt;stroke-linejoin:round;}
  </style>
 </defs>
 <g id="figure_1">
  <g id="patch_1">
   <path d="M 0 432 
L 1152 432 
L 1152 0 
L 0 0 
z
" style="fill:#ffffff;"/>
  </g>
  <g id="axes_1">
   <g id="patch_2">
    <path d="M 144 345.6 
L 1036.8 345.6 
L 1036.8 51.84 
L 144 51.84 
z
" style="fill:#eaeaf2;"/>
   </g>
   <g id="matplotlib.axis_1">
    <g id="xtick_1">
     <g id="line2d_1">
      <path clip-path="url(#p4c045f4d01)" d="M 182.038015 345.6 
L 182.038015 51.84 
" style="fill:none;stroke:#ffffff;stroke-linecap:round;stroke-width:0.8;"/>
     </g>
     <g id="line2d_2"/>
     <g id="text_1">
      <!-- 2015 -->
      <defs>
       <path d="M 19.1875 8.296875 
L 53.609375 8.296875 
L 53.609375 0 
L 7.328125 0 
L 7.328125 8.296875 
Q 12.9375 14.109375 22.625 23.890625 
Q 32.328125 33.6875 34.8125 36.53125 
Q 39.546875 41.84375 41.421875 45.53125 
Q 43.3125 49.21875 43.3125 52.78125 
Q 43.3125 58.59375 39.234375 62.25 
Q 35.15625 65.921875 28.609375 65.921875 
Q 23.96875 65.921875 18.8125 64.3125 
Q 13.671875 62.703125 7.8125 59.421875 
L 7.8125 69.390625 
Q 13.765625 71.78125 18.9375 73 
Q 24.125 74.21875 28.421875 74.21875 
Q 39.75 74.21875 46.484375 68.546875 
Q 53.21875 62.890625 53.21875 53.421875 
Q 53.21875 48.921875 51.53125 44.890625 
Q 49.859375 40.875 45.40625 35.40625 
Q 44.1875 33.984375 37.640625 27.21875 
Q 31.109375 20.453125 19.1875 8.296875 
z
" id="DejaVuSans-32"/>
       <path d="M 31.78125 66.40625 
Q 24.171875 66.40625 20.328125 58.90625 
Q 16.5 51.421875 16.5 36.375 
Q 16.5 21.390625 20.328125 13.890625 
Q 24.171875 6.390625 31.78125 6.390625 
Q 39.453125 6.390625 43.28125 13.890625 
Q 47.125 21.390625 47.125 36.375 
Q 47.125 51.421875 43.28125 58.90625 
Q 39.453125 66.40625 31.78125 66.40625 
z
M 31.78125 74.21875 
Q 44.046875 74.21875 50.515625 64.515625 
Q 56.984375 54.828125 56.984375 36.375 
Q 56.984375 17.96875 50.515625 8.265625 
Q 44.046875 -1.421875 31.78125 -1.421875 
Q 19.53125 -1.421875 13.0625 8.265625 
Q 6.59375 17.96875 6.59375 36.375 
Q 6.59375 54.828125 13.0625 64.515625 
Q 19.53125 74.21875 31.78125 74.21875 
z
" id="DejaVuSans-30"/>
       <path d="M 12.40625 8.296875 
L 28.515625 8.296875 
L 28.515625 63.921875 
L 10.984375 60.40625 
L 10.984375 69.390625 
L 28.421875 72.90625 
L 38.28125 72.90625 
L 38.28125 8.296875 
L 54.390625 8.296875 
L 54.390625 0 
L 12.40625 0 
z
" id="DejaVuSans-31"/>
       <path d="M 10.796875 72.90625 
L 49.515625 72.90625 
L 49.515625 64.59375 
L 19.828125 64.59375 
L 19.828125 46.734375 
Q 21.96875 47.46875 24.109375 47.828125 
Q 26.265625 48.1875 28.421875 48.1875 
Q 40.625 48.1875 47.75 41.5 
Q 54.890625 34.8125 54.890625 23.390625 
Q 54.890625 11.625 47.5625 5.09375 
Q 40.234375 -1.421875 26.90625 -1.421875 
Q 22.3125 -1.421875 17.546875 -0.640625 
Q 12.796875 0.140625 7.71875 1.703125 
L 7.71875 11.625 
Q 12.109375 9.234375 16.796875 8.0625 
Q 21.484375 6.890625 26.703125 6.890625 
Q 35.15625 6.890625 40.078125 11.328125 
Q 45.015625 15.765625 45.015625 23.390625 
Q 45.015625 31 40.078125 35.4375 
Q 35.15625 39.890625 26.703125 39.890625 
Q 22.75 39.890625 18.8125 39.015625 
Q 14.890625 38.140625 10.796875 36.28125 
z
" id="DejaVuSans-35"/>
      </defs>
      <g style="fill:#262626;" transform="translate(158.957824 368.40544)rotate(-30)scale(0.1 -0.1)">
       <use xlink:href="#DejaVuSans-32"/>
       <use x="63.623047" xlink:href="#DejaVuSans-30"/>
       <use x="127.246094" xlink:href="#DejaVuSans-31"/>
       <use x="190.869141" xlink:href="#DejaVuSans-35"/>
      </g>
     </g>
    </g>
    <g id="xtick_2">
     <g id="line2d_3">
      <path clip-path="url(#p4c045f4d01)" d="M 455.467677 345.6 
L 455.467677 51.84 
" style="fill:none;stroke:#ffffff;stroke-linecap:round;stroke-width:0.8;"/>
     </g>
     <g id="line2d_4"/>
     <g id="text_2">
      <!-- 2016 -->
      <defs>
       <path d="M 33.015625 40.375 
Q 26.375 40.375 22.484375 35.828125 
Q 18.609375 31.296875 18.609375 23.390625 
Q 18.609375 15.53125 22.484375 10.953125 
Q 26.375 6.390625 33.015625 6.390625 
Q 39.65625 6.390625 43.53125 10.953125 
Q 47.40625 15.53125 47.40625 23.390625 
Q 47.40625 31.296875 43.53125 35.828125 
Q 39.65625 40.375 33.015625 40.375 
z
M 52.59375 71.296875 
L 52.59375 62.3125 
Q 48.875 64.0625 45.09375 64.984375 
Q 41.3125 65.921875 37.59375 65.921875 
Q 27.828125 65.921875 22.671875 59.328125 
Q 17.53125 52.734375 16.796875 39.40625 
Q 19.671875 43.65625 24.015625 45.921875 
Q 28.375 48.1875 33.59375 48.1875 
Q 44.578125 48.1875 50.953125 41.515625 
Q 57.328125 34.859375 57.328125 23.390625 
Q 57.328125 12.15625 50.6875 5.359375 
Q 44.046875 -1.421875 33.015625 -1.421875 
Q 20.359375 -1.421875 13.671875 8.265625 
Q 6.984375 17.96875 6.984375 36.375 
Q 6.984375 53.65625 15.1875 63.9375 
Q 23.390625 74.21875 37.203125 74.21875 
Q 40.921875 74.21875 44.703125 73.484375 
Q 48.484375 72.75 52.59375 71.296875 
z
" id="DejaVuSans-36"/>
      </defs>
      <g style="fill:#262626;" transform="translate(432.387487 368.40544)rotate(-30)scale(0.1 -0.1)">
       <use xlink:href="#DejaVuSans-32"/>
       <use x="63.623047" xlink:href="#DejaVuSans-30"/>
       <use x="127.246094" xlink:href="#DejaVuSans-31"/>
       <use x="190.869141" xlink:href="#DejaVuSans-36"/>
      </g>
     </g>
    </g>
    <g id="xtick_3">
     <g id="line2d_5">
      <path clip-path="url(#p4c045f4d01)" d="M 729.646462 345.6 
L 729.646462 51.84 
" style="fill:none;stroke:#ffffff;stroke-linecap:round;stroke-width:0.8;"/>
     </g>
     <g id="line2d_6"/>
     <g id="text_3">
      <!-- 2017 -->
      <defs>
       <path d="M 8.203125 72.90625 
L 55.078125 72.90625 
L 55.078125 68.703125 
L 28.609375 0 
L 18.3125 0 
L 43.21875 64.59375 
L 8.203125 64.59375 
z
" id="DejaVuSans-37"/>
      </defs>
      <g style="fill:#262626;" transform="translate(706.566271 368.40544)rotate(-30)scale(0.1 -0.1)">
       <use xlink:href="#DejaVuSans-32"/>
       <use x="63.623047" xlink:href="#DejaVuSans-30"/>
       <use x="127.246094" xlink:href="#DejaVuSans-31"/>
       <use x="190.869141" xlink:href="#DejaVuSans-37"/>
      </g>
     </g>
    </g>
    <g id="xtick_4">
     <g id="line2d_7">
      <path clip-path="url(#p4c045f4d01)" d="M 1003.076124 345.6 
L 1003.076124 51.84 
" style="fill:none;stroke:#ffffff;stroke-linecap:round;stroke-width:0.8;"/>
     </g>
     <g id="line2d_8"/>
     <g id="text_4">
      <!-- 2018 -->
      <defs>
       <path d="M 31.78125 34.625 
Q 24.75 34.625 20.71875 30.859375 
Q 16.703125 27.09375 16.703125 20.515625 
Q 16.703125 13.921875 20.71875 10.15625 
Q 24.75 6.390625 31.78125 6.390625 
Q 38.8125 6.390625 42.859375 10.171875 
Q 46.921875 13.96875 46.921875 20.515625 
Q 46.921875 27.09375 42.890625 30.859375 
Q 38.875 34.625 31.78125 34.625 
z
M 21.921875 38.8125 
Q 15.578125 40.375 12.03125 44.71875 
Q 8.5 49.078125 8.5 55.328125 
Q 8.5 64.0625 14.71875 69.140625 
Q 20.953125 74.21875 31.78125 74.21875 
Q 42.671875 74.21875 48.875 69.140625 
Q 55.078125 64.0625 55.078125 55.328125 
Q 55.078125 49.078125 51.53125 44.71875 
Q 48 40.375 41.703125 38.8125 
Q 48.828125 37.15625 52.796875 32.3125 
Q 56.78125 27.484375 56.78125 20.515625 
Q 56.78125 9.90625 50.3125 4.234375 
Q 43.84375 -1.421875 31.78125 -1.421875 
Q 19.734375 -1.421875 13.25 4.234375 
Q 6.78125 9.90625 6.78125 20.515625 
Q 6.78125 27.484375 10.78125 32.3125 
Q 14.796875 37.15625 21.921875 38.8125 
z
M 18.3125 54.390625 
Q 18.3125 48.734375 21.84375 45.5625 
Q 25.390625 42.390625 31.78125 42.390625 
Q 38.140625 42.390625 41.71875 45.5625 
Q 45.3125 48.734375 45.3125 54.390625 
Q 45.3125 60.0625 41.71875 63.234375 
Q 38.140625 66.40625 31.78125 66.40625 
Q 25.390625 66.40625 21.84375 63.234375 
Q 18.3125 60.0625 18.3125 54.390625 
z
" id="DejaVuSans-38"/>
      </defs>
      <g style="fill:#262626;" transform="translate(979.995934 368.40544)rotate(-30)scale(0.1 -0.1)">
       <use xlink:href="#DejaVuSans-32"/>
       <use x="63.623047" xlink:href="#DejaVuSans-30"/>
       <use x="127.246094" xlink:href="#DejaVuSans-31"/>
       <use x="190.869141" xlink:href="#DejaVuSans-38"/>
      </g>
     </g>
    </g>
    <g id="xtick_5">
     <g id="line2d_9"/>
    </g>
    <g id="xtick_6">
     <g id="line2d_10"/>
    </g>
    <g id="xtick_7">
     <g id="line2d_11"/>
    </g>
    <g id="xtick_8">
     <g id="line2d_12"/>
    </g>
    <g id="xtick_9">
     <g id="line2d_13"/>
    </g>
    <g id="xtick_10">
     <g id="line2d_14"/>
    </g>
    <g id="xtick_11">
     <g id="line2d_15"/>
    </g>
    <g id="xtick_12">
     <g id="line2d_16"/>
    </g>
    <g id="xtick_13">
     <g id="line2d_17"/>
    </g>
    <g id="xtick_14">
     <g id="line2d_18"/>
    </g>
    <g id="xtick_15">
     <g id="line2d_19"/>
    </g>
    <g id="xtick_16">
     <g id="line2d_20"/>
    </g>
    <g id="xtick_17">
     <g id="line2d_21"/>
    </g>
    <g id="xtick_18">
     <g id="line2d_22"/>
    </g>
    <g id="xtick_19">
     <g id="line2d_23"/>
    </g>
    <g id="xtick_20">
     <g id="line2d_24"/>
    </g>
    <g id="xtick_21">
     <g id="line2d_25"/>
    </g>
    <g id="xtick_22">
     <g id="line2d_26"/>
    </g>
    <g id="xtick_23">
     <g id="line2d_27"/>
    </g>
    <g id="xtick_24">
     <g id="line2d_28"/>
    </g>
    <g id="xtick_25">
     <g id="line2d_29"/>
    </g>
    <g id="xtick_26">
     <g id="line2d_30"/>
    </g>
    <g id="xtick_27">
     <g id="line2d_31"/>
    </g>
    <g id="xtick_28">
     <g id="line2d_32"/>
    </g>
    <g id="xtick_29">
     <g id="line2d_33"/>
    </g>
    <g id="xtick_30">
     <g id="line2d_34"/>
    </g>
    <g id="xtick_31">
     <g id="line2d_35"/>
    </g>
    <g id="xtick_32">
     <g id="line2d_36"/>
    </g>
    <g id="xtick_33">
     <g id="line2d_37"/>
    </g>
    <g id="xtick_34">
     <g id="line2d_38"/>
    </g>
    <g id="xtick_35">
     <g id="line2d_39"/>
    </g>
    <g id="xtick_36">
     <g id="line2d_40"/>
    </g>
    <g id="xtick_37">
     <g id="line2d_41"/>
    </g>
    <g id="xtick_38">
     <g id="line2d_42"/>
    </g>
    <g id="xtick_39">
     <g id="line2d_43"/>
    </g>
    <g id="xtick_40">
     <g id="line2d_44"/>
    </g>
    <g id="xtick_41">
     <g id="line2d_45"/>
    </g>
    <g id="xtick_42">
     <g id="line2d_46"/>
    </g>
    <g id="xtick_43">
     <g id="line2d_47"/>
    </g>
    <g id="text_5">
     <!-- Year -->
     <defs>
      <path d="M -0.203125 72.90625 
L 10.40625 72.90625 
L 30.609375 42.921875 
L 50.6875 72.90625 
L 61.28125 72.90625 
L 35.5 34.71875 
L 35.5 0 
L 25.59375 0 
L 25.59375 34.71875 
z
" id="DejaVuSans-59"/>
      <path d="M 56.203125 29.59375 
L 56.203125 25.203125 
L 14.890625 25.203125 
Q 15.484375 15.921875 20.484375 11.0625 
Q 25.484375 6.203125 34.421875 6.203125 
Q 39.59375 6.203125 44.453125 7.46875 
Q 49.3125 8.734375 54.109375 11.28125 
L 54.109375 2.78125 
Q 49.265625 0.734375 44.1875 -0.34375 
Q 39.109375 -1.421875 33.890625 -1.421875 
Q 20.796875 -1.421875 13.15625 6.1875 
Q 5.515625 13.8125 5.515625 26.8125 
Q 5.515625 40.234375 12.765625 48.109375 
Q 20.015625 56 32.328125 56 
Q 43.359375 56 49.78125 48.890625 
Q 56.203125 41.796875 56.203125 29.59375 
z
M 47.21875 32.234375 
Q 47.125 39.59375 43.09375 43.984375 
Q 39.0625 48.390625 32.421875 48.390625 
Q 24.90625 48.390625 20.390625 44.140625 
Q 15.875 39.890625 15.1875 32.171875 
z
" id="DejaVuSans-65"/>
      <path d="M 34.28125 27.484375 
Q 23.390625 27.484375 19.1875 25 
Q 14.984375 22.515625 14.984375 16.5 
Q 14.984375 11.71875 18.140625 8.90625 
Q 21.296875 6.109375 26.703125 6.109375 
Q 34.1875 6.109375 38.703125 11.40625 
Q 43.21875 16.703125 43.21875 25.484375 
L 43.21875 27.484375 
z
M 52.203125 31.203125 
L 52.203125 0 
L 43.21875 0 
L 43.21875 8.296875 
Q 40.140625 3.328125 35.546875 0.953125 
Q 30.953125 -1.421875 24.3125 -1.421875 
Q 15.921875 -1.421875 10.953125 3.296875 
Q 6 8.015625 6 15.921875 
Q 6 25.140625 12.171875 29.828125 
Q 18.359375 34.515625 30.609375 34.515625 
L 43.21875 34.515625 
L 43.21875 35.40625 
Q 43.21875 41.609375 39.140625 45 
Q 35.0625 48.390625 27.6875 48.390625 
Q 23 48.390625 18.546875 47.265625 
Q 14.109375 46.140625 10.015625 43.890625 
L 10.015625 52.203125 
Q 14.9375 54.109375 19.578125 55.046875 
Q 24.21875 56 28.609375 56 
Q 40.484375 56 46.34375 49.84375 
Q 52.203125 43.703125 52.203125 31.203125 
z
" id="DejaVuSans-61"/>
      <path d="M 41.109375 46.296875 
Q 39.59375 47.171875 37.8125 47.578125 
Q 36.03125 48 33.890625 48 
Q 26.265625 48 22.1875 43.046875 
Q 18.109375 38.09375 18.109375 28.8125 
L 18.109375 0 
L 9.078125 0 
L 9.078125 54.6875 
L 18.109375 54.6875 
L 18.109375 46.1875 
Q 20.953125 51.171875 25.484375 53.578125 
Q 30.03125 56 36.53125 56 
Q 37.453125 56 38.578125 55.875 
Q 39.703125 55.765625 41.0625 55.515625 
z
" id="DejaVuSans-72"/>
     </defs>
     <g style="fill:#262626;" transform="translate(578.036172 382.564783)scale(0.11 -0.11)">
      <use xlink:href="#DejaVuSans-59"/>
      <use x="60.880859" xlink:href="#DejaVuSans-65"/>
      <use x="122.404297" xlink:href="#DejaVuSans-61"/>
      <use x="183.683594" xlink:href="#DejaVuSans-72"/>
     </g>
    </g>
   </g>
   <g id="matplotlib.axis_2">
    <g id="ytick_1">
     <g id="line2d_48">
      <path clip-path="url(#p4c045f4d01)" d="M 144 325.136353 
L 1036.8 325.136353 
" style="fill:none;stroke:#ffffff;stroke-linecap:round;stroke-width:0.8;"/>
     </g>
     <g id="line2d_49"/>
     <g id="text_6">
      <!-- −4000 -->
      <defs>
       <path d="M 10.59375 35.5 
L 73.1875 35.5 
L 73.1875 27.203125 
L 10.59375 27.203125 
z
" id="DejaVuSans-2212"/>
       <path d="M 37.796875 64.3125 
L 12.890625 25.390625 
L 37.796875 25.390625 
z
M 35.203125 72.90625 
L 47.609375 72.90625 
L 47.609375 25.390625 
L 58.015625 25.390625 
L 58.015625 17.1875 
L 47.609375 17.1875 
L 47.609375 0 
L 37.796875 0 
L 37.796875 17.1875 
L 4.890625 17.1875 
L 4.890625 26.703125 
z
" id="DejaVuSans-34"/>
      </defs>
      <g style="fill:#262626;" transform="translate(106.670312 328.935572)scale(0.1 -0.1)">
       <use xlink:href="#DejaVuSans-2212"/>
       <use x="83.789062" xlink:href="#DejaVuSans-34"/>
       <use x="147.412109" xlink:href="#DejaVuSans-30"/>
       <use x="211.035156" xlink:href="#DejaVuSans-30"/>
       <use x="274.658203" xlink:href="#DejaVuSans-30"/>
      </g>
     </g>
    </g>
    <g id="ytick_2">
     <g id="line2d_50">
      <path clip-path="url(#p4c045f4d01)" d="M 144 261.928176 
L 1036.8 261.928176 
" style="fill:none;stroke:#ffffff;stroke-linecap:round;stroke-width:0.8;"/>
     </g>
     <g id="line2d_51"/>
     <g id="text_7">
      <!-- −2000 -->
      <g style="fill:#262626;" transform="translate(106.670312 265.727395)scale(0.1 -0.1)">
       <use xlink:href="#DejaVuSans-2212"/>
       <use x="83.789062" xlink:href="#DejaVuSans-32"/>
       <use x="147.412109" xlink:href="#DejaVuSans-30"/>
       <use x="211.035156" xlink:href="#DejaVuSans-30"/>
       <use x="274.658203" xlink:href="#DejaVuSans-30"/>
      </g>
     </g>
    </g>
    <g id="ytick_3">
     <g id="line2d_52">
      <path clip-path="url(#p4c045f4d01)" d="M 144 198.72 
L 1036.8 198.72 
" style="fill:none;stroke:#ffffff;stroke-linecap:round;stroke-width:0.8;"/>
     </g>
     <g id="line2d_53"/>
     <g id="text_8">
      <!-- 0 -->
      <g style="fill:#262626;" transform="translate(134.1375 202.519219)scale(0.1 -0.1)">
       <use xlink:href="#DejaVuSans-30"/>
      </g>
     </g>
    </g>
    <g id="ytick_4">
     <g id="line2d_54">
      <path clip-path="url(#p4c045f4d01)" d="M 144 135.511824 
L 1036.8 135.511824 
" style="fill:none;stroke:#ffffff;stroke-linecap:round;stroke-width:0.8;"/>
     </g>
     <g id="line2d_55"/>
     <g id="text_9">
      <!-- 2000 -->
      <g style="fill:#262626;" transform="translate(115.05 139.311042)scale(0.1 -0.1)">
       <use xlink:href="#DejaVuSans-32"/>
       <use x="63.623047" xlink:href="#DejaVuSans-30"/>
       <use x="127.246094" xlink:href="#DejaVuSans-30"/>
       <use x="190.869141" xlink:href="#DejaVuSans-30"/>
      </g>
     </g>
    </g>
    <g id="ytick_5">
     <g id="line2d_56">
      <path clip-path="url(#p4c045f4d01)" d="M 144 72.303647 
L 1036.8 72.303647 
" style="fill:none;stroke:#ffffff;stroke-linecap:round;stroke-width:0.8;"/>
     </g>
     <g id="line2d_57"/>
     <g id="text_10">
      <!-- 4000 -->
      <g style="fill:#262626;" transform="translate(115.05 76.102866)scale(0.1 -0.1)">
       <use xlink:href="#DejaVuSans-34"/>
       <use x="63.623047" xlink:href="#DejaVuSans-30"/>
       <use x="127.246094" xlink:href="#DejaVuSans-30"/>
       <use x="190.869141" xlink:href="#DejaVuSans-30"/>
      </g>
     </g>
    </g>
    <g id="text_11">
     <!-- Change in Balance -->
     <defs>
      <path d="M 64.40625 67.28125 
L 64.40625 56.890625 
Q 59.421875 61.53125 53.78125 63.8125 
Q 48.140625 66.109375 41.796875 66.109375 
Q 29.296875 66.109375 22.65625 58.46875 
Q 16.015625 50.828125 16.015625 36.375 
Q 16.015625 21.96875 22.65625 14.328125 
Q 29.296875 6.6875 41.796875 6.6875 
Q 48.140625 6.6875 53.78125 8.984375 
Q 59.421875 11.28125 64.40625 15.921875 
L 64.40625 5.609375 
Q 59.234375 2.09375 53.4375 0.328125 
Q 47.65625 -1.421875 41.21875 -1.421875 
Q 24.65625 -1.421875 15.125 8.703125 
Q 5.609375 18.84375 5.609375 36.375 
Q 5.609375 53.953125 15.125 64.078125 
Q 24.65625 74.21875 41.21875 74.21875 
Q 47.75 74.21875 53.53125 72.484375 
Q 59.328125 70.75 64.40625 67.28125 
z
" id="DejaVuSans-43"/>
      <path d="M 54.890625 33.015625 
L 54.890625 0 
L 45.90625 0 
L 45.90625 32.71875 
Q 45.90625 40.484375 42.875 44.328125 
Q 39.84375 48.1875 33.796875 48.1875 
Q 26.515625 48.1875 22.3125 43.546875 
Q 18.109375 38.921875 18.109375 30.90625 
L 18.109375 0 
L 9.078125 0 
L 9.078125 75.984375 
L 18.109375 75.984375 
L 18.109375 46.1875 
Q 21.34375 51.125 25.703125 53.5625 
Q 30.078125 56 35.796875 56 
Q 45.21875 56 50.046875 50.171875 
Q 54.890625 44.34375 54.890625 33.015625 
z
" id="DejaVuSans-68"/>
      <path d="M 54.890625 33.015625 
L 54.890625 0 
L 45.90625 0 
L 45.90625 32.71875 
Q 45.90625 40.484375 42.875 44.328125 
Q 39.84375 48.1875 33.796875 48.1875 
Q 26.515625 48.1875 22.3125 43.546875 
Q 18.109375 38.921875 18.109375 30.90625 
L 18.109375 0 
L 9.078125 0 
L 9.078125 54.6875 
L 18.109375 54.6875 
L 18.109375 46.1875 
Q 21.34375 51.125 25.703125 53.5625 
Q 30.078125 56 35.796875 56 
Q 45.21875 56 50.046875 50.171875 
Q 54.890625 44.34375 54.890625 33.015625 
z
" id="DejaVuSans-6e"/>
      <path d="M 45.40625 27.984375 
Q 45.40625 37.75 41.375 43.109375 
Q 37.359375 48.484375 30.078125 48.484375 
Q 22.859375 48.484375 18.828125 43.109375 
Q 14.796875 37.75 14.796875 27.984375 
Q 14.796875 18.265625 18.828125 12.890625 
Q 22.859375 7.515625 30.078125 7.515625 
Q 37.359375 7.515625 41.375 12.890625 
Q 45.40625 18.265625 45.40625 27.984375 
z
M 54.390625 6.78125 
Q 54.390625 -7.171875 48.1875 -13.984375 
Q 42 -20.796875 29.203125 -20.796875 
Q 24.46875 -20.796875 20.265625 -20.09375 
Q 16.0625 -19.390625 12.109375 -17.921875 
L 12.109375 -9.1875 
Q 16.0625 -11.328125 19.921875 -12.34375 
Q 23.78125 -13.375 27.78125 -13.375 
Q 36.625 -13.375 41.015625 -8.765625 
Q 45.40625 -4.15625 45.40625 5.171875 
L 45.40625 9.625 
Q 42.625 4.78125 38.28125 2.390625 
Q 33.9375 0 27.875 0 
Q 17.828125 0 11.671875 7.65625 
Q 5.515625 15.328125 5.515625 27.984375 
Q 5.515625 40.671875 11.671875 48.328125 
Q 17.828125 56 27.875 56 
Q 33.9375 56 38.28125 53.609375 
Q 42.625 51.21875 45.40625 46.390625 
L 45.40625 54.6875 
L 54.390625 54.6875 
z
" id="DejaVuSans-67"/>
      <path id="DejaVuSans-20"/>
      <path d="M 9.421875 54.6875 
L 18.40625 54.6875 
L 18.40625 0 
L 9.421875 0 
z
M 9.421875 75.984375 
L 18.40625 75.984375 
L 18.40625 64.59375 
L 9.421875 64.59375 
z
" id="DejaVuSans-69"/>
      <path d="M 19.671875 34.8125 
L 19.671875 8.109375 
L 35.5 8.109375 
Q 43.453125 8.109375 47.28125 11.40625 
Q 51.125 14.703125 51.125 21.484375 
Q 51.125 28.328125 47.28125 31.5625 
Q 43.453125 34.8125 35.5 34.8125 
z
M 19.671875 64.796875 
L 19.671875 42.828125 
L 34.28125 42.828125 
Q 41.5 42.828125 45.03125 45.53125 
Q 48.578125 48.25 48.578125 53.8125 
Q 48.578125 59.328125 45.03125 62.0625 
Q 41.5 64.796875 34.28125 64.796875 
z
M 9.8125 72.90625 
L 35.015625 72.90625 
Q 46.296875 72.90625 52.390625 68.21875 
Q 58.5 63.53125 58.5 54.890625 
Q 58.5 48.1875 55.375 44.234375 
Q 52.25 40.28125 46.1875 39.3125 
Q 53.46875 37.75 57.5 32.78125 
Q 61.53125 27.828125 61.53125 20.40625 
Q 61.53125 10.640625 54.890625 5.3125 
Q 48.25 0 35.984375 0 
L 9.8125 0 
z
" id="DejaVuSans-42"/>
      <path d="M 9.421875 75.984375 
L 18.40625 75.984375 
L 18.40625 0 
L 9.421875 0 
z
" id="DejaVuSans-6c"/>
      <path d="M 48.78125 52.59375 
L 48.78125 44.1875 
Q 44.96875 46.296875 41.140625 47.34375 
Q 37.3125 48.390625 33.40625 48.390625 
Q 24.65625 48.390625 19.8125 42.84375 
Q 14.984375 37.3125 14.984375 27.296875 
Q 14.984375 17.28125 19.8125 11.734375 
Q 24.65625 6.203125 33.40625 6.203125 
Q 37.3125 6.203125 41.140625 7.25 
Q 44.96875 8.296875 48.78125 10.40625 
L 48.78125 2.09375 
Q 45.015625 0.34375 40.984375 -0.53125 
Q 36.96875 -1.421875 32.421875 -1.421875 
Q 20.0625 -1.421875 12.78125 6.34375 
Q 5.515625 14.109375 5.515625 27.296875 
Q 5.515625 40.671875 12.859375 48.328125 
Q 20.21875 56 33.015625 56 
Q 37.15625 56 41.109375 55.140625 
Q 45.0625 54.296875 48.78125 52.59375 
z
" id="DejaVuSans-63"/>
     </defs>
     <g style="fill:#262626;" transform="translate(100.382656 250.224062)rotate(-90)scale(0.11 -0.11)">
      <use xlink:href="#DejaVuSans-43"/>
      <use x="69.824219" xlink:href="#DejaVuSans-68"/>
      <use x="133.203125" xlink:href="#DejaVuSans-61"/>
      <use x="194.482422" xlink:href="#DejaVuSans-6e"/>
      <use x="257.861328" xlink:href="#DejaVuSans-67"/>
      <use x="321.337891" xlink:href="#DejaVuSans-65"/>
      <use x="382.861328" xlink:href="#DejaVuSans-20"/>
      <use x="414.648438" xlink:href="#DejaVuSans-69"/>
      <use x="442.431641" xlink:href="#DejaVuSans-6e"/>
      <use x="505.810547" xlink:href="#DejaVuSans-20"/>
      <use x="537.597656" xlink:href="#DejaVuSans-42"/>
      <use x="606.201172" xlink:href="#DejaVuSans-61"/>
      <use x="667.480469" xlink:href="#DejaVuSans-6c"/>
      <use x="695.263672" xlink:href="#DejaVuSans-61"/>
      <use x="756.542969" xlink:href="#DejaVuSans-6e"/>
      <use x="819.921875" xlink:href="#DejaVuSans-63"/>
      <use x="874.902344" xlink:href="#DejaVuSans-65"/>
     </g>
    </g>
   </g>
   <g id="line2d_58">
    <path clip-path="url(#p4c045f4d01)" d="M 184.581818 198.245939 
L 185.527438 198.725057 
L 186.883158 198.724109 
L 187.219934 253.786647 
L 189.644732 219.608722 
L 189.890226 167.764428 
L 190.448972 208.201226 
L 190.726572 189.238774 
L 190.780962 229.675572 
L 190.872539 167.764428 
L 191.74452 203.319027 
L 193.214448 194.120973 
L 193.253317 200.300204 
L 200.259371 201.043533 
L 200.498614 198.403959 
L 200.588196 199.036041 
L 200.719743 198.56198 
L 204.835989 198.821133 
L 204.928788 199.130853 
L 206.204914 200.300204 
L 206.220313 199.253161 
L 206.258532 199.455427 
L 206.401715 198.941229 
L 206.527106 199.036041 
L 206.573536 199.452267 
L 206.592048 199.036041 
L 212.108207 199.270543 
L 212.14125 218.851804 
L 212.215503 198.87802 
L 212.416075 198.87802 
L 212.483956 199.288874 
L 212.488846 199.051843 
L 212.510591 198.554395 
L 212.800867 198.885605 
L 213.153527 198.403959 
L 214.794348 198.585683 
L 217.702998 199.036041 
L 221.809289 199.194061 
L 221.835188 199.655797 
L 221.851696 198.87802 
L 221.974018 199.655481 
L 222.007711 199.352082 
L 222.216165 199.833728 
L 222.472289 198.403959 
L 222.740776 198.56198 
L 223.484479 198.245939 
L 223.840824 198.728849 
L 225.93502 198.721896 
L 226.232779 195.559591 
L 226.640877 198.599904 
L 227.149803 198.585683 
L 227.31207 198.840096 
L 227.411337 198.087918 
L 234.583161 198.56198 
L 234.608348 196.349693 
L 234.85216 198.245939 
L 235.13048 201.880409 
L 240.898609 197.139796 
L 243.258856 197.139796 
L 248.989165 198.722528 
L 249.346126 198.832195 
L 249.367646 198.576833 
L 249.95536 198.568932 
L 250.354111 197.139796 
L 251.318156 198.245939 
L 252.373768 198.562296 
L 252.422131 198.403959 
L 252.737404 190.818978 
L 253.324373 198.087918 
L 253.817042 198.494663 
L 255.216696 198.626136 
L 256.132931 198.151758 
L 257.703721 201.848805 
L 258.779882 195.591195 
L 259.145608 198.656792 
L 260.287127 197.139796 
L 263.710157 198.619183 
L 264.240421 198.498771 
L 265.448944 197.929898 
L 271.516714 198.828718 
L 271.75691 198.02471 
L 272.735408 198.480125 
L 273.157283 198.487078 
L 274.340914 197.929898 
L 275.062343 198.65616 
L 275.073745 196.874953 
L 275.971122 197.874907 
L 276.274335 197.333845 
L 276.887141 197.739325 
L 276.93625 198.555975 
L 277.531716 195.167384 
L 278.615472 198.652683 
L 279.723861 197.909355 
L 279.93678 198.396058 
L 280.057775 198.254156 
L 280.349916 198.467167 
L 281.373083 197.930846 
L 282.253094 199.194061 
L 283.592887 198.245939 
L 283.890013 198.214335 
L 286.89382 205.040818 
L 288.303506 198.473172 
L 292.159535 198.666273 
L 292.662852 198.832511 
L 294.857824 198.721896 
L 294.900031 193.408617 
L 296.703352 198.119522 
L 300.118154 199.668123 
L 303.01711 200.616245 
L 304.021463 199.668123 
L 304.0415 197.361024 
L 305.790077 198.403959 
L 310.283319 197.377142 
L 315.708656 198.734222 
L 317.158494 198.828718 
L 317.372315 198.832511 
L 340.255306 196.191673 
L 340.44159 198.721264 
L 340.812449 148.153459 
L 347.625162 249.286541 
L 347.761001 332.247273 
L 347.89932 65.192727 
L 348.102597 211.993717 
L 350.698454 200.300204 
L 352.900865 210.413513 
L 353.44188 196.351906 
L 353.477056 198.10056 
L 354.705504 189.524791 
L 359.316907 198.233613 
L 360.306303 198.193476 
L 360.402892 207.915209 
L 360.616053 189.524791 
L 360.801591 193.884575 
L 361.115616 193.884575 
L 361.140578 198.565456 
L 361.813704 196.503289 
L 362.666412 198.73675 
L 363.670184 198.832827 
L 363.674926 198.721896 
L 364.003742 198.314204 
L 371.157757 199.483871 
L 372.116816 203.460613 
L 372.219092 200.11058 
L 372.410135 198.430191 
L 372.632019 198.087286 
L 373.521134 200.734445 
L 377.521144 198.245939 
L 378.268263 193.189285 
L 379.045209 197.613857 
L 382.250196 198.520894 
L 385.958126 198.829034 
L 386.211796 198.722212 
L 386.410764 199.478498 
L 386.833402 198.567668 
L 392.266716 198.63941 
L 392.759194 203.681526 
L 397.598811 198.470012 
L 399.646698 198.403959 
L 404.432871 198.589159 
L 407.411742 203.792772 
L 408.254262 198.458002 
L 409.068455 198.832827 
L 409.154232 198.45737 
L 417.626017 198.372355 
L 418.593017 197.345222 
L 418.788214 203.737149 
L 419.04067 198.010488 
L 419.512288 198.602117 
L 419.549189 198.055682 
L 420.027916 198.480125 
L 421.310112 198.548074 
L 423.493396 198.403959 
L 426.839242 202.624685 
L 429.83978 198.324317 
L 431.105624 198.82935 
L 431.514077 205.83092 
L 431.975906 198.528163 
L 432.076561 198.722528 
L 432.134054 198.57873 
L 432.342083 198.65932 
L 432.893434 198.420709 
L 433.234805 198.619183 
L 434.939578 197.139796 
L 436.724579 198.582522 
L 438.279493 198.551866 
L 438.62076 197.961502 
L 439.181189 204.729201 
L 439.751796 198.606541 
L 440.363007 197.771877 
L 447.707302 201.727761 
L 449.627865 198.314204 
L 452.46005 198.264269 
L 453.774587 198.833143 
L 454.77659 198.72316 
L 454.919201 202.670511 
L 457.73564 197.139796 
L 457.789839 199.115051 
L 457.887086 198.731377 
L 458.141389 199.115051 
L 458.397044 191.45106 
L 459.058977 190.818978 
L 460.368788 200.236996 
L 460.737306 197.076587 
L 464.729253 205.98894 
L 466.033775 191.45106 
L 466.385585 196.375925 
L 468.644327 206.145064 
L 471.106963 196.352854 
L 471.407332 198.492135 
L 475.917109 197.297816 
L 476.531311 200.142184 
L 476.738655 198.245939 
L 477.28163 198.833143 
L 478.593548 198.72316 
L 478.646351 196.01469 
L 478.658177 201.248327 
L 481.614844 198.087918 
L 483.050176 198.467167 
L 483.711528 197.139796 
L 484.515274 198.196004 
L 488.193751 198.254788 
L 488.255961 199.861224 
L 488.566959 198.389737 
L 490.042739 198.51805 
L 491.041048 200.241737 
L 491.125611 201.833951 
L 492.674066 198.087918 
L 494.417327 198.467799 
L 499.992289 198.722844 
L 500.000613 196.823755 
L 501.779102 199.984164 
L 502.834194 198.087918 
L 504.19849 198.493399 
L 506.978575 198.245939 
L 507.701625 199.984164 
L 513.748664 198.602749 
L 515.433574 198.403959 
L 516.100934 196.425543 
L 519.08956 198.590423 
L 519.645748 197.139796 
L 520.884505 198.555975 
L 523.165696 198.833459 
L 523.48311 202.507118 
L 523.810236 202.01441 
L 524.171132 198.439988 
L 527.762628 198.56198 
L 529.680615 198.403959 
L 529.693803 200.616245 
L 530.051058 196.823755 
L 530.218769 198.245939 
L 531.417946 198.511729 
L 532.898113 196.823755 
L 536.530047 197.515568 
L 537.535657 198.390685 
L 539.197955 198.511729 
L 541.636565 198.434615 
L 543.218028 198.56198 
L 544.410164 200.679453 
L 544.615739 198.72316 
L 545.372353 198.451049 
L 545.375379 198.829982 
L 545.688727 197.139796 
L 547.022772 198.609386 
L 548.084636 198.403959 
L 549.58171 197.705825 
L 550.057056 197.029497 
L 550.518191 198.427978 
L 550.553297 197.401161 
L 551.403256 198.450101 
L 553.410896 197.013379 
L 554.324738 198.201061 
L 558.925919 198.245939 
L 564.327897 197.139796 
L 568.067266 198.124895 
L 568.605733 198.059475 
L 568.619631 198.722844 
L 569.274524 198.833459 
L 569.327422 199.315105 
L 571.795806 198.043673 
L 573.320106 198.087918 
L 575.628304 198.474752 
L 576.689491 198.281335 
L 576.910977 198.473488 
L 577.392626 198.599588 
L 577.701864 198.328741 
L 577.7047 198.477597 
L 577.704942 194.169327 
L 578.179569 198.598324 
L 580.331319 198.33443 
L 580.639274 198.661848 
L 583.621405 198.087918 
L 584.48691 198.490238 
L 586.199582 198.507304 
L 589.909646 202.828531 
L 590.78507 198.829982 
L 591.100629 198.727901 
L 591.550354 198.722212 
L 591.597642 199.069225 
L 591.925877 207.797958 
L 592.00118 202.038429 
L 592.127811 202.841805 
L 592.325921 197.929898 
L 593.343019 197.198579 
L 596.89405 200.241421 
L 597.804476 196.015006 
L 597.981751 198.654896 
L 599.511634 198.461795 
L 600.15242 207.945549 
L 600.17048 189.494451 
L 600.233662 198.61065 
L 601.262942 202.898693 
L 602.410833 203.823744 
L 602.514939 201.943617 
L 602.69204 207.347916 
L 602.925499 198.498771 
L 603.173074 198.245939 
L 603.297763 194.541307 
L 603.369155 198.56198 
L 604.835917 214.522044 
L 611.450026 182.917956 
L 611.826547 182.917956 
L 612.133132 214.522044 
L 612.26389 182.917956 
L 612.466249 199.794539 
L 612.856963 198.537644 
L 613.054752 199.794539 
L 613.24075 199.794539 
L 613.30661 216.819977 
L 613.341196 198.247203 
L 613.874928 198.405539 
L 614.020426 198.656792 
L 614.16126 198.204537 
L 614.175054 198.585051 
L 614.197857 197.931794 
L 614.269007 198.436511 
L 614.272518 198.087918 
L 614.391459 198.838199 
L 614.552771 198.722844 
L 614.585207 198.546178 
L 614.835574 182.917956 
L 616.990012 198.537644 
L 617.839303 198.721896 
L 618.419275 225.493719 
L 618.551706 199.508206 
L 618.572298 171.946281 
L 618.662158 198.458002 
L 618.818347 197.139796 
L 618.857277 198.625188 
L 619.389085 198.20833 
L 620.577406 225.493719 
L 621.087269 171.946281 
L 621.486575 198.550918 
L 621.826585 198.309779 
L 622.58821 207.149126 
L 623.286004 204.756381 
L 623.316818 199.668123 
L 623.47696 198.665325 
L 623.867076 198.304722 
L 623.875461 198.585051 
L 623.94902 196.35317 
L 624.296738 197.350279 
L 624.393751 196.349693 
L 625.351275 199.395695 
L 625.395745 196.826283 
L 625.455996 261.928176 
L 625.525637 198.625188 
L 625.848462 192.683619 
L 625.851019 204.756381 
L 625.894944 135.511824 
L 625.966154 197.645461 
L 627.182498 198.111621 
L 627.25226 198.751604 
L 627.531039 198.687448 
L 627.600948 198.470328 
L 627.756296 187.658569 
L 630.329141 204.250715 
L 631.638076 193.189285 
L 631.951138 193.189285 
L 632.217996 198.555975 
L 632.615464 192.918121 
L 633.130815 198.298085 
L 633.989193 204.313924 
L 634.048109 209.930286 
L 634.108498 204.313924 
L 634.825445 193.126076 
L 635.016332 198.817025 
L 638.131814 216.262797 
L 639.475864 198.830614 
L 678.817152 198.245939 
L 679.080637 204.662517 
L 679.457912 189.557343 
L 679.534342 199.924432 
L 679.746099 196.223277 
L 679.891007 198.491502 
L 680.728169 198.56356 
L 681.337255 198.403959 
L 681.642922 198.625504 
L 682.951753 188.448671 
L 683.225443 198.402379 
L 683.454965 198.835039 
L 683.840503 198.584418 
L 685.030585 198.490238 
L 687.752916 198.56198 
L 688.925492 198.245939 
L 689.822757 201.248327 
L 691.076427 198.382784 
L 692.346788 198.088234 
L 692.995966 198.56198 
L 694.146684 198.625188 
L 694.610793 198.814812 
L 694.696257 198.625188 
L 695.731598 198.814812 
L 695.870125 198.511729 
L 695.894255 198.625188 
L 696.187306 198.814812 
L 696.367277 198.392898 
L 696.686495 198.435563 
L 696.924896 198.699457 
L 698.675814 197.771877 
L 698.729198 198.403959 
L 699.066927 198.625188 
L 699.133316 205.486751 
L 699.393706 201.542245 
L 699.50271 204.28232 
L 699.540123 191.953249 
L 699.564772 198.909625 
L 699.651251 198.530375 
L 699.674765 198.625188 
L 704.292732 198.625188 
L 705.531107 198.298085 
L 705.963717 198.833143 
L 706.078478 198.470644 
L 706.101914 198.562296 
L 706.36683 198.625188 
L 706.634285 188.448671 
L 706.809887 198.625188 
L 709.347903 198.625188 
L 709.582541 198.473488 
L 709.744869 198.625188 
L 710.181666 198.598956 
L 710.193085 196.823755 
L 710.426821 198.625188 
L 711.072792 198.632141 
L 711.328569 198.304722 
L 712.14304 198.625188 
L 712.263593 206.407694 
L 712.438839 198.588211 
L 712.478922 198.623608 
L 712.596857 198.625188 
L 712.61627 188.448671 
L 712.663506 200.616245 
L 712.789227 208.991329 
L 712.889587 196.823755 
L 713.0031 198.087918 
L 713.411129 198.625188 
L 713.416522 197.929898 
L 714.02462 198.625188 
L 716.177558 198.625188 
L 716.767856 198.304722 
L 717.167709 198.625188 
L 717.222324 198.433351 
L 717.716502 198.602117 
L 717.832754 203.938151 
L 718.12558 202.449282 
L 718.189636 197.139796 
L 721.415475 198.466851 
L 722.731087 199.478498 
L 723.560722 193.663346 
L 724.189994 198.560715 
L 724.283617 198.539541 
L 725.483643 198.404275 
L 726.931834 208.225878 
L 728.591833 198.726321 
L 729.235992 198.723792 
L 729.254321 198.84136 
L 729.461388 197.139796 
L 731.161817 198.277227 
L 731.657096 164.025348 
L 732.524076 164.025348 
L 732.882423 233.414652 
L 733.322203 200.489829 
L 734.03771 198.618867 
L 734.300761 200.015768 
L 735.843199 233.414652 
L 736.071395 164.025348 
L 736.113863 200.047372 
L 736.174495 198.625188 
L 736.261633 198.087918 
L 736.719516 198.625188 
L 738.474474 198.625188 
L 738.657307 204.635021 
L 738.895595 198.403959 
L 739.330355 199.510102 
L 739.357259 198.625188 
L 740.060628 197.455836 
L 740.349699 197.771877 
L 740.514411 198.625188 
L 740.999944 196.501393 
L 741.227455 198.625188 
L 742.580367 198.625188 
L 743.510666 198.453261 
L 743.69936 198.65932 
L 744.190633 198.625188 
L 744.272352 198.260793 
L 744.486181 198.625188 
L 744.711169 199.510102 
L 745.137155 197.82118 
L 746.593487 198.625188 
L 747.15564 198.247203 
L 747.751574 199.510102 
L 747.758068 200.300204 
L 748.032599 194.769489 
L 748.209198 198.260793 
L 748.486954 198.783208 
L 748.711266 198.625188 
L 748.862001 197.929898 
L 749.183343 206.164343 
L 749.397849 197.708669 
L 749.719971 202.575699 
L 749.729032 198.625188 
L 749.868686 197.771877 
L 750.159734 199.510102 
L 750.295113 198.21149 
L 750.35037 198.625188 
L 750.423574 198.404275 
L 751.244132 198.814496 
L 752.458135 198.723792 
L 752.573971 198.304406 
L 752.587723 198.625188 
L 755.027451 198.625188 
L 755.311571 198.402063 
L 755.913895 198.625188 
L 758.725072 198.625188 
L 759.274143 198.247203 
L 759.59454 216.291873 
L 759.830635 198.625188 
L 759.950971 209.171156 
L 760.120018 198.087918 
L 760.439253 198.376148 
L 760.449866 198.087918 
L 760.503284 198.625188 
L 760.524709 198.396374 
L 761.077351 196.349693 
L 761.953842 198.625188 
L 762.059933 198.381836 
L 762.293487 194.769489 
L 762.319507 204.250715 
L 762.52555 198.382152 
L 762.90084 197.773458 
L 762.966952 198.625188 
L 763.072479 198.260793 
L 763.091094 198.625188 
L 763.614206 198.473804 
L 763.738522 198.625188 
L 764.419434 200.995494 
L 765.010261 198.625188 
L 765.930971 198.480757 
L 767.994985 198.723476 
L 769.422895 198.708306 
L 770.12968 196.794995 
L 770.273522 198.625188 
L 770.528362 208.46038 
L 770.613393 205.634026 
L 770.683216 188.97962 
L 770.813956 198.498771 
L 770.95433 198.625188 
L 770.974402 199.510102 
L 771.474823 197.139796 
L 771.840419 198.625188 
L 772.649939 194.769489 
L 772.768637 198.724425 
L 773.128198 198.625188 
L 774.088098 198.625188 
L 774.092745 198.376148 
L 774.185319 198.625188 
L 774.614131 201.50116 
L 774.626859 169.958067 
L 774.833431 227.481933 
L 774.969539 222.960652 
L 775.093084 174.479348 
L 775.110052 198.281651 
L 775.222039 198.625188 
L 775.820461 198.625188 
L 776.761589 198.435563 
L 777.743113 198.625188 
L 778.680314 198.260793 
L 778.759257 200.300204 
L 778.907261 198.625188 
L 779.540244 198.562296 
L 779.996194 190.818978 
L 780.017653 198.625188 
L 780.255248 208.888299 
L 780.921967 198.625188 
L 781.186041 198.399535 
L 781.772463 197.398949 
L 782.191348 198.372039 
L 782.92195 198.470644 
L 782.943461 197.456153 
L 783.04846 199.510102 
L 783.091118 196.382562 
L 783.338771 198.716524 
L 783.546279 197.929898 
L 783.575438 198.625188 
L 783.792848 198.247203 
L 784.11302 198.245939 
L 784.433903 198.625188 
L 784.575638 198.275014 
L 786.219536 194.769489 
L 786.645348 198.297137 
L 787.701221 198.647627 
L 787.748717 198.530375 
L 788.178691 198.245939 
L 788.227453 197.929898 
L 788.387873 199.194061 
L 788.60954 198.087918 
L 788.703241 190.818978 
L 788.726599 198.625188 
L 789.07834 198.625188 
L 790.625122 197.771877 
L 791.079797 198.625188 
L 791.290722 199.668123 
L 791.411795 207.756241 
L 791.687384 190.818978 
L 791.992175 206.621022 
L 792.178701 190.818978 
L 792.243807 198.589791 
L 793.259492 198.467167 
L 793.539173 198.57873 
L 793.917653 198.514257 
L 794.516786 198.625188 
L 794.66407 198.456422 
L 796.346518 198.729797 
L 796.41015 198.450101 
L 796.700201 198.625188 
L 796.781685 196.694494 
L 797.70223 198.136272 
L 799.164371 198.467167 
L 799.164484 198.625188 
L 800.121583 197.541484 
L 801.264211 198.625188 
L 801.322884 197.139796 
L 801.770294 197.139796 
L 801.848232 207.048625 
L 802.17873 194.311862 
L 802.470385 198.328741 
L 802.683035 197.617017 
L 802.690006 197.834137 
L 802.701503 198.625188 
L 802.784669 198.412492 
L 803.781306 198.625188 
L 804.944119 198.625188 
L 806.489114 198.245939 
L 806.842502 196.961549 
L 807.147562 198.625188 
L 807.902823 197.898294 
L 808.562449 198.245939 
L 809.441281 198.57873 
L 810.134444 198.625188 
L 810.18566 196.50803 
L 810.26633 198.661532 
L 810.442122 198.625188 
L 811.833426 199.510102 
L 812.107463 197.139796 
L 812.23686 198.625188 
L 812.264813 198.36635 
L 812.324613 207.614655 
L 812.735884 198.19316 
L 814.522827 197.929898 
L 814.543159 198.372355 
L 814.909345 198.403959 
L 814.94335 198.625188 
L 815.078461 198.180518 
L 816.621324 198.625188 
L 816.759348 198.366666 
L 817.006714 198.625188 
L 817.727684 198.260793 
L 817.784249 198.723792 
L 820.223961 198.277543 
L 820.261581 198.625188 
L 821.107023 198.402695 
L 821.25703 198.56198 
L 821.901024 197.569927 
L 822.147115 198.625188 
L 822.492692 206.341642 
L 822.845291 198.484866 
L 822.916214 198.625188 
L 822.94539 199.443734 
L 823.227672 196.301971 
L 823.682365 198.467483 
L 823.886328 200.743926 
L 823.987694 200.190854 
L 824.804124 198.372355 
L 824.816384 197.705509 
L 824.856832 198.593584 
L 825.041286 199.510102 
L 825.087672 198.247203 
L 825.19326 199.510102 
L 825.358457 197.139796 
L 825.362264 198.669117 
L 825.483094 198.625188 
L 825.911213 198.625188 
L 827.07178 197.139796 
L 828.084951 201.50116 
L 828.259937 198.625188 
L 828.475153 198.657108 
L 829.325893 198.625188 
L 830.792647 198.247203 
L 832.750188 199.352082 
L 833.054554 206.907355 
L 833.376902 193.979387 
L 833.398326 199.984164 
L 833.711761 199.734491 
L 833.908605 198.340751 
L 834.071219 199.099249 
L 834.305406 198.814812 
L 834.47447 198.087918 
L 834.516999 198.372355 
L 835.3479 198.654896 
L 835.631812 198.482969 
L 835.727256 198.260793 
L 836.091066 198.625188 
L 836.203816 198.288604 
L 836.962614 197.930214 
L 837.144441 198.625188 
L 838.598588 198.517418 
L 838.945734 198.260793 
L 839.59036 198.625188 
L 841.843103 198.498771 
L 841.86445 198.340751 
L 842.388514 198.372355 
L 842.586078 198.723792 
L 842.720669 198.314836 
L 843.079632 206.907355 
L 843.976194 197.139796 
L 845.834451 198.340751 
L 846.224845 200.11058 
L 847.29498 199.857747 
L 847.512087 194.949948 
L 847.62403 196.823755 
L 849.725561 218.087933 
L 854.546406 195.24355 
L 854.728528 198.723792 
L 864.654547 221.129195 
L 864.854503 198.724109 
L 865.123797 197.139796 
L 867.198745 198.492451 
L 870.488086 198.340751 
L 870.54114 197.773458 
L 870.734412 202.038429 
L 870.814006 196.823755 
L 870.969423 198.661532 
L 870.996908 198.372355 
L 872.117834 198.537328 
L 872.990874 197.139796 
L 873.854047 198.087918 
L 874.047648 198.583786 
L 874.058503 196.981775 
L 874.133069 198.625188 
L 874.3864 197.536743 
L 874.574227 220.864669 
L 875.152031 198.372355 
L 877.718313 198.625188 
L 879.567726 198.625188 
L 880.236283 198.088234 
L 882.301407 198.372355 
L 882.623088 198.111937 
L 883.064792 198.009856 
L 885.155823 219.013933 
L 885.591311 198.417233 
L 886.829323 198.214335 
L 887.162231 198.963035 
L 888.052924 198.220339 
L 888.079768 198.725689 
L 888.123423 198.476965 
L 888.253418 198.260793 
L 889.338215 198.173881 
L 891.472711 198.431139 
L 891.769074 182.917956 
L 891.939959 197.929898 
L 893.377675 198.586631 
L 893.489792 198.372355 
L 893.620143 182.917956 
L 896.401555 221.129195 
L 896.465742 197.908407 
L 897.10729 197.976356 
L 897.182107 198.507304 
L 897.234303 198.388789 
L 897.33788 198.245939 
L 897.660956 198.245939 
L 897.789841 198.56198 
L 897.879398 158.051859 
L 898.813365 198.625188 
L 899.006116 198.56198 
L 899.275722 198.125211 
L 899.723522 198.19316 
L 901.518641 198.625188 
L 901.79221 198.245939 
L 901.986357 198.483285 
L 904.266013 198.420077 
L 904.400768 198.625188 
L 904.711195 198.044621 
L 904.738142 198.428294 
L 904.927382 196.193253 
L 905.767899 198.593584 
L 905.983003 198.056314 
L 906.320897 221.129195 
L 906.332862 197.874907 
L 906.509973 199.984164 
L 906.778581 196.823755 
L 907.130036 198.415653 
L 907.231142 198.043673 
L 907.547481 175.092468 
L 908.475595 198.307883 
L 909.009735 197.930214 
L 909.40364 198.672594 
L 910.219221 198.247203 
L 910.221206 198.544281 
L 910.924141 198.721896 
L 911.615805 198.192844 
L 911.687128 199.099249 
L 911.964711 198.291133 
L 912.16804 197.139796 
L 913.286591 197.139796 
L 914.637898 198.372355 
L 914.968058 198.173881 
L 916.283826 198.403959 
L 916.677653 190.818978 
L 916.818312 214.522044 
L 916.972203 198.269642 
L 916.992639 221.129195 
L 917.31373 198.009856 
L 921.731957 198.409332 
L 921.965824 182.917956 
L 923.527293 207.614655 
L 927.886855 198.245939 
L 928.548702 198.467167 
L 930.105411 199.731331 
L 931.998792 198.625188 
L 932.205312 201.722388 
L 932.300062 198.695981 
L 933.164466 198.467167 
L 933.343327 198.724109 
L 933.56946 198.72158 
L 933.59815 198.403959 
L 935.78851 198.298085 
L 936.693838 198.625188 
L 937.440706 208.039414 
L 938.001646 198.387841 
L 938.062278 198.625188 
L 941.092834 198.625188 
L 941.202341 198.814812 
L 941.692418 198.625188 
L 941.800121 198.814812 
L 943.016327 198.599904 
L 943.048234 198.341067 
L 943.980345 198.260793 
L 945.774371 198.625188 
L 945.902598 198.814812 
L 946.104402 198.814812 
L 946.35521 198.052522 
L 946.563066 198.625188 
L 946.797964 198.625188 
L 947.195138 198.814812 
L 947.372647 198.518682 
L 947.423811 197.39168 
L 947.605603 198.625188 
L 948.157153 198.814812 
L 948.364497 207.756241 
L 948.884088 198.345176 
L 949.548136 198.459266 
L 950.64736 198.464955 
L 952.626795 198.260793 
L 954.122889 198.721896 
L 958.76261 198.200113 
L 958.947515 198.402063 
L 958.981485 198.641306 
L 959.543553 198.058842 
L 959.577307 205.846406 
L 959.616046 198.652683 
L 963.426165 198.260793 
L 964.400363 241.738537 
L 965.157869 198.5013 
L 965.508223 199.352082 
L 967.162838 198.341067 
L 967.204621 198.5013 
L 967.587904 198.19316 
L 967.99478 198.544281 
L 968.550128 198.672594 
L 968.950726 205.916883 
L 969.623844 198.545229 
L 969.849161 198.256684 
L 970.002142 198.392266 
L 972.570808 197.455836 
L 975.528324 196.823755 
L 975.740003 202.291262 
L 975.827635 198.21307 
L 975.916714 198.520262 
L 976.390933 198.585683 
L 976.494579 198.432403 
L 976.962555 198.625188 
L 977.05049 197.930214 
L 978.043442 198.625188 
L 978.092143 198.460846 
L 978.198468 198.741491 
L 979.008769 198.625188 
L 979.362348 198.19316 
L 979.604261 198.721896 
L 979.825572 203.119921 
L 980.082147 198.250047 
L 980.090358 198.625188 
L 980.351155 198.250047 
L 980.357579 198.625188 
L 981.304846 198.625188 
L 982.154597 198.272802 
L 983.276538 198.625188 
L 983.889041 198.625188 
L 984.415152 198.460846 
L 984.595774 198.711467 
L 984.924763 214.629182 
L 985.523081 198.625188 
L 985.838276 198.087918 
L 986.825289 198.625188 
L 987.531319 197.139796 
L 987.777029 198.416285 
L 988.100201 198.642254 
L 988.486207 198.625188 
L 988.839656 198.341067 
L 989.243341 198.625188 
L 989.496317 200.300204 
L 990.009145 198.625188 
L 990.044616 199.984164 
L 990.561545 205.077478 
L 991.075587 198.625188 
L 992.887058 198.625188 
L 993.915619 198.306619 
L 994.351931 198.625188 
L 994.522096 198.625188 
L 995.317804 201.564368 
L 995.63971 201.564368 
L 995.965813 199.036041 
L 996.14972 198.672594 
L 996.15168 198.704198 
L 996.1537 196.823755 
L 996.154342 200.616245 
L 996.218182 198.625188 
" style="fill:none;stroke:#1f77b4;stroke-linecap:round;stroke-width:1.5;"/>
   </g>
   <g id="patch_3">
    <path d="M 144 345.6 
L 144 51.84 
" style="fill:none;"/>
   </g>
   <g id="patch_4">
    <path d="M 1036.8 345.6 
L 1036.8 51.84 
" style="fill:none;"/>
   </g>
   <g id="patch_5">
    <path d="M 144 345.6 
L 1036.8 345.6 
" style="fill:none;"/>
   </g>
   <g id="patch_6">
    <path d="M 144 51.84 
L 1036.8 51.84 
" style="fill:none;"/>
   </g>
   <g id="text_12">
    <!-- Change in Balance over Time -->
    <defs>
     <path d="M 30.609375 48.390625 
Q 23.390625 48.390625 19.1875 42.75 
Q 14.984375 37.109375 14.984375 27.296875 
Q 14.984375 17.484375 19.15625 11.84375 
Q 23.34375 6.203125 30.609375 6.203125 
Q 37.796875 6.203125 41.984375 11.859375 
Q 46.1875 17.53125 46.1875 27.296875 
Q 46.1875 37.015625 41.984375 42.703125 
Q 37.796875 48.390625 30.609375 48.390625 
z
M 30.609375 56 
Q 42.328125 56 49.015625 48.375 
Q 55.71875 40.765625 55.71875 27.296875 
Q 55.71875 13.875 49.015625 6.21875 
Q 42.328125 -1.421875 30.609375 -1.421875 
Q 18.84375 -1.421875 12.171875 6.21875 
Q 5.515625 13.875 5.515625 27.296875 
Q 5.515625 40.765625 12.171875 48.375 
Q 18.84375 56 30.609375 56 
z
" id="DejaVuSans-6f"/>
     <path d="M 2.984375 54.6875 
L 12.5 54.6875 
L 29.59375 8.796875 
L 46.6875 54.6875 
L 56.203125 54.6875 
L 35.6875 0 
L 23.484375 0 
z
" id="DejaVuSans-76"/>
     <path d="M -0.296875 72.90625 
L 61.375 72.90625 
L 61.375 64.59375 
L 35.5 64.59375 
L 35.5 0 
L 25.59375 0 
L 25.59375 64.59375 
L -0.296875 64.59375 
z
" id="DejaVuSans-54"/>
     <path d="M 52 44.1875 
Q 55.375 50.25 60.0625 53.125 
Q 64.75 56 71.09375 56 
Q 79.640625 56 84.28125 50.015625 
Q 88.921875 44.046875 88.921875 33.015625 
L 88.921875 0 
L 79.890625 0 
L 79.890625 32.71875 
Q 79.890625 40.578125 77.09375 44.375 
Q 74.3125 48.1875 68.609375 48.1875 
Q 61.625 48.1875 57.5625 43.546875 
Q 53.515625 38.921875 53.515625 30.90625 
L 53.515625 0 
L 44.484375 0 
L 44.484375 32.71875 
Q 44.484375 40.625 41.703125 44.40625 
Q 38.921875 48.1875 33.109375 48.1875 
Q 26.21875 48.1875 22.15625 43.53125 
Q 18.109375 38.875 18.109375 30.90625 
L 18.109375 0 
L 9.078125 0 
L 9.078125 54.6875 
L 18.109375 54.6875 
L 18.109375 46.1875 
Q 21.1875 51.21875 25.484375 53.609375 
Q 29.78125 56 35.6875 56 
Q 41.65625 56 45.828125 52.96875 
Q 50 49.953125 52 44.1875 
z
" id="DejaVuSans-6d"/>
    </defs>
    <g style="fill:#262626;" transform="translate(509.507891 45.84)scale(0.11 -0.11)">
     <use xlink:href="#DejaVuSans-43"/>
     <use x="69.824219" xlink:href="#DejaVuSans-68"/>
     <use x="133.203125" xlink:href="#DejaVuSans-61"/>
     <use x="194.482422" xlink:href="#DejaVuSans-6e"/>
     <use x="257.861328" xlink:href="#DejaVuSans-67"/>
     <use x="321.337891" xlink:href="#DejaVuSans-65"/>
     <use x="382.861328" xlink:href="#DejaVuSans-20"/>
     <use x="414.648438" xlink:href="#DejaVuSans-69"/>
     <use x="442.431641" xlink:href="#DejaVuSans-6e"/>
     <use x="505.810547" xlink:href="#DejaVuSans-20"/>
     <use x="537.597656" xlink:href="#DejaVuSans-42"/>
     <use x="606.201172" xlink:href="#DejaVuSans-61"/>
     <use x="667.480469" xlink:href="#DejaVuSans-6c"/>
     <use x="695.263672" xlink:href="#DejaVuSans-61"/>
     <use x="756.542969" xlink:href="#DejaVuSans-6e"/>
     <use x="819.921875" xlink:href="#DejaVuSans-63"/>
     <use x="874.902344" xlink:href="#DejaVuSans-65"/>
     <use x="936.425781" xlink:href="#DejaVuSans-20"/>
     <use x="968.212891" xlink:href="#DejaVuSans-6f"/>
     <use x="1029.394531" xlink:href="#DejaVuSans-76"/>
     <use x="1088.574219" xlink:href="#DejaVuSans-65"/>
     <use x="1150.097656" xlink:href="#DejaVuSans-72"/>
     <use x="1191.210938" xlink:href="#DejaVuSans-20"/>
     <use x="1222.998047" xlink:href="#DejaVuSans-54"/>
     <use x="1284.035156" xlink:href="#DejaVuSans-69"/>
     <use x="1311.818359" xlink:href="#DejaVuSans-6d"/>
     <use x="1409.230469" xlink:href="#DejaVuSans-65"/>
    </g>
   </g>
   <g id="legend_1">
    <g id="line2d_59">
     <path d="M 916.628125 64.938437 
L 936.628125 64.938437 
" style="fill:none;stroke:#1f77b4;stroke-linecap:round;stroke-width:1.5;"/>
    </g>
    <g id="line2d_60"/>
    <g id="text_13">
     <!-- Change_Balance -->
     <defs>
      <path d="M 50.984375 -16.609375 
L 50.984375 -23.578125 
L -0.984375 -23.578125 
L -0.984375 -16.609375 
z
" id="DejaVuSans-5f"/>
     </defs>
     <g style="fill:#262626;" transform="translate(944.628125 68.438437)scale(0.1 -0.1)">
      <use xlink:href="#DejaVuSans-43"/>
      <use x="69.824219" xlink:href="#DejaVuSans-68"/>
      <use x="133.203125" xlink:href="#DejaVuSans-61"/>
      <use x="194.482422" xlink:href="#DejaVuSans-6e"/>
      <use x="257.861328" xlink:href="#DejaVuSans-67"/>
      <use x="321.337891" xlink:href="#DejaVuSans-65"/>
      <use x="382.861328" xlink:href="#DejaVuSans-5f"/>
      <use x="432.861328" xlink:href="#DejaVuSans-42"/>
      <use x="501.464844" xlink:href="#DejaVuSans-61"/>
      <use x="562.744141" xlink:href="#DejaVuSans-6c"/>
      <use x="590.527344" xlink:href="#DejaVuSans-61"/>
      <use x="651.806641" xlink:href="#DejaVuSans-6e"/>
      <use x="715.185547" xlink:href="#DejaVuSans-63"/>
      <use x="770.166016" xlink:href="#DejaVuSans-65"/>
     </g>
    </g>
   </g>
  </g>
 </g>
 <defs>
  <clipPath id="p4c045f4d01">
   <rect height="293.76" width="892.8" x="144" y="51.84"/>
  </clipPath>
 </defs>
</svg>
