<?xml version="1.0" encoding="utf-8" standalone="no"?>
<!DOCTYPE svg PUBLIC "-//W3C//DTD SVG 1.1//EN"
  "http://www.w3.org/Graphics/SVG/1.1/DTD/svg11.dtd">
<!-- Created with matplotlib (http://matplotlib.org/) -->
<svg height="432pt" version="1.1" viewBox="0 0 1152 432" width="1152pt" xmlns="http://www.w3.org/2000/svg" xmlns:xlink="http://www.w3.org/1999/xlink">
 <defs>
  <style type="text/css">
*{stroke-linecap:butt;stroke-linejoin:round;}
  </style>
 </defs>
 <g id="figure_1">
  <g id="patch_1">
   <path d="M 0 432 
L 1152 432 
L 1152 0 
L 0 0 
z
" style="fill:#ffffff;"/>
  </g>
  <g id="axes_1">
   <g id="patch_2">
    <path d="M 144 345.6 
L 1036.8 345.6 
L 1036.8 51.84 
L 144 51.84 
z
" style="fill:#ffffff;"/>
   </g>
   <g id="matplotlib.axis_1">
    <g id="xtick_1">
     <g id="line2d_1"/>
     <g id="text_1">
      <!-- 2013 -->
      <defs>
       <path d="M 19.1875 8.296875 
L 53.609375 8.296875 
L 53.609375 0 
L 7.328125 0 
L 7.328125 8.296875 
Q 12.9375 14.109375 22.625 23.890625 
Q 32.328125 33.6875 34.8125 36.53125 
Q 39.546875 41.84375 41.421875 45.53125 
Q 43.3125 49.21875 43.3125 52.78125 
Q 43.3125 58.59375 39.234375 62.25 
Q 35.15625 65.921875 28.609375 65.921875 
Q 23.96875 65.921875 18.8125 64.3125 
Q 13.671875 62.703125 7.8125 59.421875 
L 7.8125 69.390625 
Q 13.765625 71.78125 18.9375 73 
Q 24.125 74.21875 28.421875 74.21875 
Q 39.75 74.21875 46.484375 68.546875 
Q 53.21875 62.890625 53.21875 53.421875 
Q 53.21875 48.921875 51.53125 44.890625 
Q 49.859375 40.875 45.40625 35.40625 
Q 44.1875 33.984375 37.640625 27.21875 
Q 31.109375 20.453125 19.1875 8.296875 
z
" id="DejaVuSans-32"/>
       <path d="M 31.78125 66.40625 
Q 24.171875 66.40625 20.328125 58.90625 
Q 16.5 51.421875 16.5 36.375 
Q 16.5 21.390625 20.328125 13.890625 
Q 24.171875 6.390625 31.78125 6.390625 
Q 39.453125 6.390625 43.28125 13.890625 
Q 47.125 21.390625 47.125 36.375 
Q 47.125 51.421875 43.28125 58.90625 
Q 39.453125 66.40625 31.78125 66.40625 
z
M 31.78125 74.21875 
Q 44.046875 74.21875 50.515625 64.515625 
Q 56.984375 54.828125 56.984375 36.375 
Q 56.984375 17.96875 50.515625 8.265625 
Q 44.046875 -1.421875 31.78125 -1.421875 
Q 19.53125 -1.421875 13.0625 8.265625 
Q 6.59375 17.96875 6.59375 36.375 
Q 6.59375 54.828125 13.0625 64.515625 
Q 19.53125 74.21875 31.78125 74.21875 
z
" id="DejaVuSans-30"/>
       <path d="M 12.40625 8.296875 
L 28.515625 8.296875 
L 28.515625 63.921875 
L 10.984375 60.40625 
L 10.984375 69.390625 
L 28.421875 72.90625 
L 38.28125 72.90625 
L 38.28125 8.296875 
L 54.390625 8.296875 
L 54.390625 0 
L 12.40625 0 
z
" id="DejaVuSans-31"/>
       <path d="M 40.578125 39.3125 
Q 47.65625 37.796875 51.625 33 
Q 55.609375 28.21875 55.609375 21.1875 
Q 55.609375 10.40625 48.1875 4.484375 
Q 40.765625 -1.421875 27.09375 -1.421875 
Q 22.515625 -1.421875 17.65625 -0.515625 
Q 12.796875 0.390625 7.625 2.203125 
L 7.625 11.71875 
Q 11.71875 9.328125 16.59375 8.109375 
Q 21.484375 6.890625 26.8125 6.890625 
Q 36.078125 6.890625 40.9375 10.546875 
Q 45.796875 14.203125 45.796875 21.1875 
Q 45.796875 27.640625 41.28125 31.265625 
Q 36.765625 34.90625 28.71875 34.90625 
L 20.21875 34.90625 
L 20.21875 43.015625 
L 29.109375 43.015625 
Q 36.375 43.015625 40.234375 45.921875 
Q 44.09375 48.828125 44.09375 54.296875 
Q 44.09375 59.90625 40.109375 62.90625 
Q 36.140625 65.921875 28.71875 65.921875 
Q 24.65625 65.921875 20.015625 65.03125 
Q 15.375 64.15625 9.8125 62.3125 
L 9.8125 71.09375 
Q 15.4375 72.65625 20.34375 73.4375 
Q 25.25 74.21875 29.59375 74.21875 
Q 40.828125 74.21875 47.359375 69.109375 
Q 53.90625 64.015625 53.90625 55.328125 
Q 53.90625 49.265625 50.4375 45.09375 
Q 46.96875 40.921875 40.578125 39.3125 
z
" id="DejaVuSans-33"/>
      </defs>
      <g style="fill:#262626;" transform="translate(227.843624 366.644352)rotate(-30)scale(0.08 -0.08)">
       <use xlink:href="#DejaVuSans-32"/>
       <use x="63.623047" xlink:href="#DejaVuSans-30"/>
       <use x="127.246094" xlink:href="#DejaVuSans-31"/>
       <use x="190.869141" xlink:href="#DejaVuSans-33"/>
      </g>
     </g>
    </g>
    <g id="xtick_2">
     <g id="line2d_2"/>
     <g id="text_2">
      <!-- 2014 -->
      <defs>
       <path d="M 37.796875 64.3125 
L 12.890625 25.390625 
L 37.796875 25.390625 
z
M 35.203125 72.90625 
L 47.609375 72.90625 
L 47.609375 25.390625 
L 58.015625 25.390625 
L 58.015625 17.1875 
L 47.609375 17.1875 
L 47.609375 0 
L 37.796875 0 
L 37.796875 17.1875 
L 4.890625 17.1875 
L 4.890625 26.703125 
z
" id="DejaVuSans-34"/>
      </defs>
      <g style="fill:#262626;" transform="translate(375.202351 366.644352)rotate(-30)scale(0.08 -0.08)">
       <use xlink:href="#DejaVuSans-32"/>
       <use x="63.623047" xlink:href="#DejaVuSans-30"/>
       <use x="127.246094" xlink:href="#DejaVuSans-31"/>
       <use x="190.869141" xlink:href="#DejaVuSans-34"/>
      </g>
     </g>
    </g>
    <g id="xtick_3">
     <g id="line2d_3"/>
     <g id="text_3">
      <!-- 2015 -->
      <defs>
       <path d="M 10.796875 72.90625 
L 49.515625 72.90625 
L 49.515625 64.59375 
L 19.828125 64.59375 
L 19.828125 46.734375 
Q 21.96875 47.46875 24.109375 47.828125 
Q 26.265625 48.1875 28.421875 48.1875 
Q 40.625 48.1875 47.75 41.5 
Q 54.890625 34.8125 54.890625 23.390625 
Q 54.890625 11.625 47.5625 5.09375 
Q 40.234375 -1.421875 26.90625 -1.421875 
Q 22.3125 -1.421875 17.546875 -0.640625 
Q 12.796875 0.140625 7.71875 1.703125 
L 7.71875 11.625 
Q 12.109375 9.234375 16.796875 8.0625 
Q 21.484375 6.890625 26.703125 6.890625 
Q 35.15625 6.890625 40.078125 11.328125 
Q 45.015625 15.765625 45.015625 23.390625 
Q 45.015625 31 40.078125 35.4375 
Q 35.15625 39.890625 26.703125 39.890625 
Q 22.75 39.890625 18.8125 39.015625 
Q 14.890625 38.140625 10.796875 36.28125 
z
" id="DejaVuSans-35"/>
      </defs>
      <g style="fill:#262626;" transform="translate(522.561077 366.644352)rotate(-30)scale(0.08 -0.08)">
       <use xlink:href="#DejaVuSans-32"/>
       <use x="63.623047" xlink:href="#DejaVuSans-30"/>
       <use x="127.246094" xlink:href="#DejaVuSans-31"/>
       <use x="190.869141" xlink:href="#DejaVuSans-35"/>
      </g>
     </g>
    </g>
    <g id="xtick_4">
     <g id="line2d_4"/>
     <g id="text_4">
      <!-- 2016 -->
      <defs>
       <path d="M 33.015625 40.375 
Q 26.375 40.375 22.484375 35.828125 
Q 18.609375 31.296875 18.609375 23.390625 
Q 18.609375 15.53125 22.484375 10.953125 
Q 26.375 6.390625 33.015625 6.390625 
Q 39.65625 6.390625 43.53125 10.953125 
Q 47.40625 15.53125 47.40625 23.390625 
Q 47.40625 31.296875 43.53125 35.828125 
Q 39.65625 40.375 33.015625 40.375 
z
M 52.59375 71.296875 
L 52.59375 62.3125 
Q 48.875 64.0625 45.09375 64.984375 
Q 41.3125 65.921875 37.59375 65.921875 
Q 27.828125 65.921875 22.671875 59.328125 
Q 17.53125 52.734375 16.796875 39.40625 
Q 19.671875 43.65625 24.015625 45.921875 
Q 28.375 48.1875 33.59375 48.1875 
Q 44.578125 48.1875 50.953125 41.515625 
Q 57.328125 34.859375 57.328125 23.390625 
Q 57.328125 12.15625 50.6875 5.359375 
Q 44.046875 -1.421875 33.015625 -1.421875 
Q 20.359375 -1.421875 13.671875 8.265625 
Q 6.984375 17.96875 6.984375 36.375 
Q 6.984375 53.65625 15.1875 63.9375 
Q 23.390625 74.21875 37.203125 74.21875 
Q 40.921875 74.21875 44.703125 73.484375 
Q 48.484375 72.75 52.59375 71.296875 
z
" id="DejaVuSans-36"/>
      </defs>
      <g style="fill:#262626;" transform="translate(669.919803 366.644352)rotate(-30)scale(0.08 -0.08)">
       <use xlink:href="#DejaVuSans-32"/>
       <use x="63.623047" xlink:href="#DejaVuSans-30"/>
       <use x="127.246094" xlink:href="#DejaVuSans-31"/>
       <use x="190.869141" xlink:href="#DejaVuSans-36"/>
      </g>
     </g>
    </g>
    <g id="xtick_5">
     <g id="line2d_5"/>
     <g id="text_5">
      <!-- 2017 -->
      <defs>
       <path d="M 8.203125 72.90625 
L 55.078125 72.90625 
L 55.078125 68.703125 
L 28.609375 0 
L 18.3125 0 
L 43.21875 64.59375 
L 8.203125 64.59375 
z
" id="DejaVuSans-37"/>
      </defs>
      <g style="fill:#262626;" transform="translate(817.682251 366.644352)rotate(-30)scale(0.08 -0.08)">
       <use xlink:href="#DejaVuSans-32"/>
       <use x="63.623047" xlink:href="#DejaVuSans-30"/>
       <use x="127.246094" xlink:href="#DejaVuSans-31"/>
       <use x="190.869141" xlink:href="#DejaVuSans-37"/>
      </g>
     </g>
    </g>
    <g id="xtick_6">
     <g id="line2d_6"/>
     <g id="text_6">
      <!-- 2018 -->
      <defs>
       <path d="M 31.78125 34.625 
Q 24.75 34.625 20.71875 30.859375 
Q 16.703125 27.09375 16.703125 20.515625 
Q 16.703125 13.921875 20.71875 10.15625 
Q 24.75 6.390625 31.78125 6.390625 
Q 38.8125 6.390625 42.859375 10.171875 
Q 46.921875 13.96875 46.921875 20.515625 
Q 46.921875 27.09375 42.890625 30.859375 
Q 38.875 34.625 31.78125 34.625 
z
M 21.921875 38.8125 
Q 15.578125 40.375 12.03125 44.71875 
Q 8.5 49.078125 8.5 55.328125 
Q 8.5 64.0625 14.71875 69.140625 
Q 20.953125 74.21875 31.78125 74.21875 
Q 42.671875 74.21875 48.875 69.140625 
Q 55.078125 64.0625 55.078125 55.328125 
Q 55.078125 49.078125 51.53125 44.71875 
Q 48 40.375 41.703125 38.8125 
Q 48.828125 37.15625 52.796875 32.3125 
Q 56.78125 27.484375 56.78125 20.515625 
Q 56.78125 9.90625 50.3125 4.234375 
Q 43.84375 -1.421875 31.78125 -1.421875 
Q 19.734375 -1.421875 13.25 4.234375 
Q 6.78125 9.90625 6.78125 20.515625 
Q 6.78125 27.484375 10.78125 32.3125 
Q 14.796875 37.15625 21.921875 38.8125 
z
M 18.3125 54.390625 
Q 18.3125 48.734375 21.84375 45.5625 
Q 25.390625 42.390625 31.78125 42.390625 
Q 38.140625 42.390625 41.71875 45.5625 
Q 45.3125 48.734375 45.3125 54.390625 
Q 45.3125 60.0625 41.71875 63.234375 
Q 38.140625 66.40625 31.78125 66.40625 
Q 25.390625 66.40625 21.84375 63.234375 
Q 18.3125 60.0625 18.3125 54.390625 
z
" id="DejaVuSans-38"/>
      </defs>
      <g style="fill:#262626;" transform="translate(965.040977 366.644352)rotate(-30)scale(0.08 -0.08)">
       <use xlink:href="#DejaVuSans-32"/>
       <use x="63.623047" xlink:href="#DejaVuSans-30"/>
       <use x="127.246094" xlink:href="#DejaVuSans-31"/>
       <use x="190.869141" xlink:href="#DejaVuSans-38"/>
      </g>
     </g>
    </g>
    <g id="xtick_7">
     <g id="line2d_7"/>
    </g>
    <g id="xtick_8">
     <g id="line2d_8"/>
    </g>
    <g id="xtick_9">
     <g id="line2d_9"/>
    </g>
    <g id="xtick_10">
     <g id="line2d_10"/>
    </g>
    <g id="xtick_11">
     <g id="line2d_11"/>
    </g>
    <g id="xtick_12">
     <g id="line2d_12"/>
    </g>
    <g id="xtick_13">
     <g id="line2d_13"/>
    </g>
    <g id="xtick_14">
     <g id="line2d_14"/>
    </g>
    <g id="xtick_15">
     <g id="line2d_15"/>
    </g>
    <g id="xtick_16">
     <g id="line2d_16"/>
    </g>
    <g id="xtick_17">
     <g id="line2d_17"/>
    </g>
    <g id="xtick_18">
     <g id="line2d_18"/>
    </g>
    <g id="xtick_19">
     <g id="line2d_19"/>
    </g>
    <g id="xtick_20">
     <g id="line2d_20"/>
    </g>
    <g id="xtick_21">
     <g id="line2d_21"/>
    </g>
    <g id="xtick_22">
     <g id="line2d_22"/>
    </g>
    <g id="xtick_23">
     <g id="line2d_23"/>
    </g>
    <g id="xtick_24">
     <g id="line2d_24"/>
    </g>
    <g id="xtick_25">
     <g id="line2d_25"/>
    </g>
    <g id="xtick_26">
     <g id="line2d_26"/>
    </g>
    <g id="xtick_27">
     <g id="line2d_27"/>
    </g>
    <g id="xtick_28">
     <g id="line2d_28"/>
    </g>
    <g id="xtick_29">
     <g id="line2d_29"/>
    </g>
    <g id="xtick_30">
     <g id="line2d_30"/>
    </g>
    <g id="xtick_31">
     <g id="line2d_31"/>
    </g>
    <g id="xtick_32">
     <g id="line2d_32"/>
    </g>
    <g id="xtick_33">
     <g id="line2d_33"/>
    </g>
    <g id="xtick_34">
     <g id="line2d_34"/>
    </g>
    <g id="xtick_35">
     <g id="line2d_35"/>
    </g>
    <g id="xtick_36">
     <g id="line2d_36"/>
    </g>
    <g id="xtick_37">
     <g id="line2d_37"/>
    </g>
    <g id="xtick_38">
     <g id="line2d_38"/>
    </g>
    <g id="xtick_39">
     <g id="line2d_39"/>
    </g>
    <g id="xtick_40">
     <g id="line2d_40"/>
    </g>
    <g id="xtick_41">
     <g id="line2d_41"/>
    </g>
    <g id="xtick_42">
     <g id="line2d_42"/>
    </g>
    <g id="xtick_43">
     <g id="line2d_43"/>
    </g>
    <g id="xtick_44">
     <g id="line2d_44"/>
    </g>
    <g id="xtick_45">
     <g id="line2d_45"/>
    </g>
    <g id="xtick_46">
     <g id="line2d_46"/>
    </g>
    <g id="xtick_47">
     <g id="line2d_47"/>
    </g>
    <g id="xtick_48">
     <g id="line2d_48"/>
    </g>
    <g id="xtick_49">
     <g id="line2d_49"/>
    </g>
    <g id="xtick_50">
     <g id="line2d_50"/>
    </g>
    <g id="xtick_51">
     <g id="line2d_51"/>
    </g>
    <g id="xtick_52">
     <g id="line2d_52"/>
    </g>
    <g id="xtick_53">
     <g id="line2d_53"/>
    </g>
    <g id="xtick_54">
     <g id="line2d_54"/>
    </g>
    <g id="xtick_55">
     <g id="line2d_55"/>
    </g>
    <g id="xtick_56">
     <g id="line2d_56"/>
    </g>
    <g id="xtick_57">
     <g id="line2d_57"/>
    </g>
    <g id="xtick_58">
     <g id="line2d_58"/>
    </g>
    <g id="xtick_59">
     <g id="line2d_59"/>
    </g>
    <g id="xtick_60">
     <g id="line2d_60"/>
    </g>
    <g id="xtick_61">
     <g id="line2d_61"/>
    </g>
    <g id="xtick_62">
     <g id="line2d_62"/>
    </g>
    <g id="xtick_63">
     <g id="line2d_63"/>
    </g>
    <g id="xtick_64">
     <g id="line2d_64"/>
    </g>
    <g id="xtick_65">
     <g id="line2d_65"/>
    </g>
    <g id="xtick_66">
     <g id="line2d_66"/>
    </g>
    <g id="xtick_67">
     <g id="line2d_67"/>
    </g>
    <g id="xtick_68">
     <g id="line2d_68"/>
    </g>
    <g id="xtick_69">
     <g id="line2d_69"/>
    </g>
    <g id="xtick_70">
     <g id="line2d_70"/>
    </g>
    <g id="xtick_71">
     <g id="line2d_71"/>
    </g>
    <g id="xtick_72">
     <g id="line2d_72"/>
    </g>
    <g id="xtick_73">
     <g id="line2d_73"/>
    </g>
    <g id="xtick_74">
     <g id="line2d_74"/>
    </g>
    <g id="xtick_75">
     <g id="line2d_75"/>
    </g>
    <g id="xtick_76">
     <g id="line2d_76"/>
    </g>
    <g id="xtick_77">
     <g id="line2d_77"/>
    </g>
    <g id="xtick_78">
     <g id="line2d_78"/>
    </g>
    <g id="xtick_79">
     <g id="line2d_79"/>
    </g>
    <g id="text_7">
     <!-- Year -->
     <defs>
      <path d="M -0.203125 72.90625 
L 10.40625 72.90625 
L 30.609375 42.921875 
L 50.6875 72.90625 
L 61.28125 72.90625 
L 35.5 34.71875 
L 35.5 0 
L 25.59375 0 
L 25.59375 34.71875 
z
" id="DejaVuSans-59"/>
      <path d="M 56.203125 29.59375 
L 56.203125 25.203125 
L 14.890625 25.203125 
Q 15.484375 15.921875 20.484375 11.0625 
Q 25.484375 6.203125 34.421875 6.203125 
Q 39.59375 6.203125 44.453125 7.46875 
Q 49.3125 8.734375 54.109375 11.28125 
L 54.109375 2.78125 
Q 49.265625 0.734375 44.1875 -0.34375 
Q 39.109375 -1.421875 33.890625 -1.421875 
Q 20.796875 -1.421875 13.15625 6.1875 
Q 5.515625 13.8125 5.515625 26.8125 
Q 5.515625 40.234375 12.765625 48.109375 
Q 20.015625 56 32.328125 56 
Q 43.359375 56 49.78125 48.890625 
Q 56.203125 41.796875 56.203125 29.59375 
z
M 47.21875 32.234375 
Q 47.125 39.59375 43.09375 43.984375 
Q 39.0625 48.390625 32.421875 48.390625 
Q 24.90625 48.390625 20.390625 44.140625 
Q 15.875 39.890625 15.1875 32.171875 
z
" id="DejaVuSans-65"/>
      <path d="M 34.28125 27.484375 
Q 23.390625 27.484375 19.1875 25 
Q 14.984375 22.515625 14.984375 16.5 
Q 14.984375 11.71875 18.140625 8.90625 
Q 21.296875 6.109375 26.703125 6.109375 
Q 34.1875 6.109375 38.703125 11.40625 
Q 43.21875 16.703125 43.21875 25.484375 
L 43.21875 27.484375 
z
M 52.203125 31.203125 
L 52.203125 0 
L 43.21875 0 
L 43.21875 8.296875 
Q 40.140625 3.328125 35.546875 0.953125 
Q 30.953125 -1.421875 24.3125 -1.421875 
Q 15.921875 -1.421875 10.953125 3.296875 
Q 6 8.015625 6 15.921875 
Q 6 25.140625 12.171875 29.828125 
Q 18.359375 34.515625 30.609375 34.515625 
L 43.21875 34.515625 
L 43.21875 35.40625 
Q 43.21875 41.609375 39.140625 45 
Q 35.0625 48.390625 27.6875 48.390625 
Q 23 48.390625 18.546875 47.265625 
Q 14.109375 46.140625 10.015625 43.890625 
L 10.015625 52.203125 
Q 14.9375 54.109375 19.578125 55.046875 
Q 24.21875 56 28.609375 56 
Q 40.484375 56 46.34375 49.84375 
Q 52.203125 43.703125 52.203125 31.203125 
z
" id="DejaVuSans-61"/>
      <path d="M 41.109375 46.296875 
Q 39.59375 47.171875 37.8125 47.578125 
Q 36.03125 48 33.890625 48 
Q 26.265625 48 22.1875 43.046875 
Q 18.109375 38.09375 18.109375 28.8125 
L 18.109375 0 
L 9.078125 0 
L 9.078125 54.6875 
L 18.109375 54.6875 
L 18.109375 46.1875 
Q 20.953125 51.171875 25.484375 53.578125 
Q 30.03125 56 36.53125 56 
Q 37.453125 56 38.578125 55.875 
Q 39.703125 55.765625 41.0625 55.515625 
z
" id="DejaVuSans-72"/>
     </defs>
     <g style="fill:#262626;" transform="translate(578.036172 380.443483)scale(0.11 -0.11)">
      <use xlink:href="#DejaVuSans-59"/>
      <use x="60.880859" xlink:href="#DejaVuSans-65"/>
      <use x="122.404297" xlink:href="#DejaVuSans-61"/>
      <use x="183.683594" xlink:href="#DejaVuSans-72"/>
     </g>
    </g>
   </g>
   <g id="matplotlib.axis_2">
    <g id="ytick_1">
     <g id="line2d_80"/>
     <g id="text_8">
      <!-- 0 -->
      <g style="fill:#262626;" transform="translate(133.31 315.723327)scale(0.08 -0.08)">
       <use xlink:href="#DejaVuSans-30"/>
      </g>
     </g>
    </g>
    <g id="ytick_2">
     <g id="line2d_81"/>
     <g id="text_9">
      <!-- 2000 -->
      <g style="fill:#262626;" transform="translate(118.04 273.528716)scale(0.08 -0.08)">
       <use xlink:href="#DejaVuSans-32"/>
       <use x="63.623047" xlink:href="#DejaVuSans-30"/>
       <use x="127.246094" xlink:href="#DejaVuSans-30"/>
       <use x="190.869141" xlink:href="#DejaVuSans-30"/>
      </g>
     </g>
    </g>
    <g id="ytick_3">
     <g id="line2d_82"/>
     <g id="text_10">
      <!-- 4000 -->
      <g style="fill:#262626;" transform="translate(118.04 231.334105)scale(0.08 -0.08)">
       <use xlink:href="#DejaVuSans-34"/>
       <use x="63.623047" xlink:href="#DejaVuSans-30"/>
       <use x="127.246094" xlink:href="#DejaVuSans-30"/>
       <use x="190.869141" xlink:href="#DejaVuSans-30"/>
      </g>
     </g>
    </g>
    <g id="ytick_4">
     <g id="line2d_83"/>
     <g id="text_11">
      <!-- 6000 -->
      <g style="fill:#262626;" transform="translate(118.04 189.139494)scale(0.08 -0.08)">
       <use xlink:href="#DejaVuSans-36"/>
       <use x="63.623047" xlink:href="#DejaVuSans-30"/>
       <use x="127.246094" xlink:href="#DejaVuSans-30"/>
       <use x="190.869141" xlink:href="#DejaVuSans-30"/>
      </g>
     </g>
    </g>
    <g id="ytick_5">
     <g id="line2d_84"/>
     <g id="text_12">
      <!-- 8000 -->
      <g style="fill:#262626;" transform="translate(118.04 146.944883)scale(0.08 -0.08)">
       <use xlink:href="#DejaVuSans-38"/>
       <use x="63.623047" xlink:href="#DejaVuSans-30"/>
       <use x="127.246094" xlink:href="#DejaVuSans-30"/>
       <use x="190.869141" xlink:href="#DejaVuSans-30"/>
      </g>
     </g>
    </g>
    <g id="ytick_6">
     <g id="line2d_85"/>
     <g id="text_13">
      <!-- 10000 -->
      <g style="fill:#262626;" transform="translate(112.95 104.750272)scale(0.08 -0.08)">
       <use xlink:href="#DejaVuSans-31"/>
       <use x="63.623047" xlink:href="#DejaVuSans-30"/>
       <use x="127.246094" xlink:href="#DejaVuSans-30"/>
       <use x="190.869141" xlink:href="#DejaVuSans-30"/>
       <use x="254.492188" xlink:href="#DejaVuSans-30"/>
      </g>
     </g>
    </g>
    <g id="ytick_7">
     <g id="line2d_86"/>
     <g id="text_14">
      <!-- 12000 -->
      <g style="fill:#262626;" transform="translate(112.95 62.555661)scale(0.08 -0.08)">
       <use xlink:href="#DejaVuSans-31"/>
       <use x="63.623047" xlink:href="#DejaVuSans-32"/>
       <use x="127.246094" xlink:href="#DejaVuSans-30"/>
       <use x="190.869141" xlink:href="#DejaVuSans-30"/>
       <use x="254.492188" xlink:href="#DejaVuSans-30"/>
      </g>
     </g>
    </g>
    <g id="text_15">
     <!-- Balance -->
     <defs>
      <path d="M 19.671875 34.8125 
L 19.671875 8.109375 
L 35.5 8.109375 
Q 43.453125 8.109375 47.28125 11.40625 
Q 51.125 14.703125 51.125 21.484375 
Q 51.125 28.328125 47.28125 31.5625 
Q 43.453125 34.8125 35.5 34.8125 
z
M 19.671875 64.796875 
L 19.671875 42.828125 
L 34.28125 42.828125 
Q 41.5 42.828125 45.03125 45.53125 
Q 48.578125 48.25 48.578125 53.8125 
Q 48.578125 59.328125 45.03125 62.0625 
Q 41.5 64.796875 34.28125 64.796875 
z
M 9.8125 72.90625 
L 35.015625 72.90625 
Q 46.296875 72.90625 52.390625 68.21875 
Q 58.5 63.53125 58.5 54.890625 
Q 58.5 48.1875 55.375 44.234375 
Q 52.25 40.28125 46.1875 39.3125 
Q 53.46875 37.75 57.5 32.78125 
Q 61.53125 27.828125 61.53125 20.40625 
Q 61.53125 10.640625 54.890625 5.3125 
Q 48.25 0 35.984375 0 
L 9.8125 0 
z
" id="DejaVuSans-42"/>
      <path d="M 9.421875 75.984375 
L 18.40625 75.984375 
L 18.40625 0 
L 9.421875 0 
z
" id="DejaVuSans-6c"/>
      <path d="M 54.890625 33.015625 
L 54.890625 0 
L 45.90625 0 
L 45.90625 32.71875 
Q 45.90625 40.484375 42.875 44.328125 
Q 39.84375 48.1875 33.796875 48.1875 
Q 26.515625 48.1875 22.3125 43.546875 
Q 18.109375 38.921875 18.109375 30.90625 
L 18.109375 0 
L 9.078125 0 
L 9.078125 54.6875 
L 18.109375 54.6875 
L 18.109375 46.1875 
Q 21.34375 51.125 25.703125 53.5625 
Q 30.078125 56 35.796875 56 
Q 45.21875 56 50.046875 50.171875 
Q 54.890625 44.34375 54.890625 33.015625 
z
" id="DejaVuSans-6e"/>
      <path d="M 48.78125 52.59375 
L 48.78125 44.1875 
Q 44.96875 46.296875 41.140625 47.34375 
Q 37.3125 48.390625 33.40625 48.390625 
Q 24.65625 48.390625 19.8125 42.84375 
Q 14.984375 37.3125 14.984375 27.296875 
Q 14.984375 17.28125 19.8125 11.734375 
Q 24.65625 6.203125 33.40625 6.203125 
Q 37.3125 6.203125 41.140625 7.25 
Q 44.96875 8.296875 48.78125 10.40625 
L 48.78125 2.09375 
Q 45.015625 0.34375 40.984375 -0.53125 
Q 36.96875 -1.421875 32.421875 -1.421875 
Q 20.0625 -1.421875 12.78125 6.34375 
Q 5.515625 14.109375 5.515625 27.296875 
Q 5.515625 40.671875 12.859375 48.328125 
Q 20.21875 56 33.015625 56 
Q 37.15625 56 41.109375 55.140625 
Q 45.0625 54.296875 48.78125 52.59375 
z
" id="DejaVuSans-63"/>
     </defs>
     <g style="fill:#262626;" transform="translate(106.662344 220.656406)rotate(-90)scale(0.11 -0.11)">
      <use xlink:href="#DejaVuSans-42"/>
      <use x="68.603516" xlink:href="#DejaVuSans-61"/>
      <use x="129.882812" xlink:href="#DejaVuSans-6c"/>
      <use x="157.666016" xlink:href="#DejaVuSans-61"/>
      <use x="218.945312" xlink:href="#DejaVuSans-6e"/>
      <use x="282.324219" xlink:href="#DejaVuSans-63"/>
      <use x="337.304688" xlink:href="#DejaVuSans-65"/>
     </g>
    </g>
   </g>
   <g id="line2d_87">
    <path clip-path="url(#p373f2814a1)" d="M 184.581818 270.489341 
L 184.843677 196.648772 
L 184.868204 148.124969 
L 185.236909 264.16015 
L 185.314378 312.683952 
L 185.50439 313.373834 
L 185.924219 313.833123 
L 185.954358 318.205117 
L 186.105544 318.414824 
L 199.61803 321.550095 
L 246.893425 324.618065 
L 249.533681 325.461957 
L 249.876341 325.800358 
L 250.53303 326.827797 
L 250.714495 328.063677 
L 251.644435 328.42423 
L 256.041203 328.508619 
L 314.175033 329.352511 
L 314.70533 328.761787 
L 315.450871 329.692811 
L 315.515873 329.270865 
L 315.762205 330.024672 
L 316.504306 329.12234 
L 316.523469 328.524653 
L 316.726321 328.366423 
L 317.241647 327.383289 
L 319.141488 328.12064 
L 319.33899 327.888569 
L 319.58042 325.019336 
L 319.930719 322.873318 
L 320.60302 323.084291 
L 320.696231 320.448394 
L 320.885065 320.87034 
L 320.946086 319.843323 
L 321.603659 319.100487 
L 321.616695 318.583814 
L 326.505046 318.778753 
L 328.073037 319.341207 
L 331.142697 319.55218 
L 331.43577 319.934674 
L 335.97477 236.326053 
L 336.280683 149.932587 
L 336.367577 151.693368 
L 336.507071 152.212572 
L 336.613081 326.550578 
L 336.837521 328.058825 
L 336.863123 328.17486 
L 336.888996 328.897021 
L 338.313991 329.107994 
L 346.4932 329.266223 
L 346.513975 329.477197 
L 346.655095 329.519391 
L 346.704248 330.15231 
L 348.430946 330.574256 
L 348.439409 330.785229 
L 358.952498 331.167935 
L 359.185937 330.559488 
L 359.259981 332.247273 
L 359.339015 331.403381 
L 370.763134 331.533762 
L 383.920699 320.985109 
L 387.210071 320.97456 
L 390.881474 320.594809 
L 391.128221 320.19396 
L 391.702769 319.814209 
L 391.848689 317.919882 
L 396.231784 318.236341 
L 396.238101 320.978991 
L 396.337625 317.158269 
L 398.970462 316.863961 
L 398.971176 317.243713 
L 399.056388 317.206793 
L 399.192598 316.094543 
L 401.770156 315.419429 
L 401.901174 314.723218 
L 402.11546 315.145164 
L 404.745488 316.421551 
L 404.800285 315.999605 
L 405.808848 316.927886 
L 405.822997 317.244346 
L 405.982365 317.202151 
L 406.061152 303.590592 
L 406.481444 289.626496 
L 406.575267 290.867862 
L 407.163464 290.420599 
L 407.36804 276.80925 
L 407.541295 277.050181 
L 410.469241 277.364742 
L 410.621889 277.638796 
L 411.368654 277.621707 
L 413.158982 269.874777 
L 413.327629 271.369943 
L 413.699456 272.227759 
L 415.573261 273.78896 
L 415.971862 275.021464 
L 416.218909 274.412174 
L 417.252429 275.266615 
L 417.303754 275.920632 
L 420.082183 275.298261 
L 420.257531 277.44238 
L 421.198224 277.75884 
L 421.233152 278.503786 
L 421.447644 278.503575 
L 421.496245 279.304639 
L 422.77384 279.304428 
L 424.548023 279.953804 
L 426.28745 279.953593 
L 426.323687 279.700425 
L 427.202395 279.700214 
L 427.215829 280.047898 
L 427.494412 280.047687 
L 428.082772 291.108793 
L 428.930239 285.834466 
L 429.104662 285.581299 
L 429.672173 286.330253 
L 429.723946 287.223935 
L 429.863628 287.434908 
L 432.691742 281.105716 
L 433.863976 277.283096 
L 433.971234 277.847238 
L 434.103345 276.26494 
L 434.287319 277.280775 
L 435.183752 275.487504 
L 435.845702 271.648005 
L 436.439777 271.884506 
L 437.929733 272.652026 
L 439.743933 268.183617 
L 440.026754 268.88236 
L 441.745392 269.077088 
L 441.890004 269.288061 
L 441.939908 267.600276 
L 441.959795 268.528558 
L 442.228233 269.752201 
L 442.628274 269.954314 
L 442.72291 270.680905 
L 442.748274 271.471843 
L 442.770525 263.104651 
L 442.878227 263.526598 
L 445.4812 262.348313 
L 445.741446 261.346824 
L 445.891861 260.205882 
L 447.080684 259.525705 
L 447.329062 256.372079 
L 448.117723 258.165139 
L 449.883056 256.083257 
L 451.162613 256.182204 
L 451.241647 254.17796 
L 454.261029 254.283446 
L 454.263053 254.726489 
L 454.603684 255.485992 
L 455.055629 253.238918 
L 458.823197 249.64879 
L 458.924165 247.990964 
L 461.034872 246.37491 
L 461.932243 242.453765 
L 462.481376 238.193797 
L 462.660729 239.809851 
L 464.860578 238.079872 
L 465.023683 236.775214 
L 466.343548 233.683193 
L 466.383037 234.210626 
L 466.476846 228.063715 
L 466.488836 228.348528 
L 468.620108 226.152299 
L 468.709217 223.39467 
L 469.026905 221.408781 
L 470.371194 217.994182 
L 470.809574 216.503024 
L 470.937695 211.062873 
L 471.078975 215.894578 
L 473.212863 216.316524 
L 473.28073 216.73847 
L 473.563387 215.684027 
L 474.078694 213.30847 
L 475.005335 212.857621 
L 475.139802 209.959062 
L 475.183202 209.504204 
L 475.18516 209.92615 
L 478.521917 210.021088 
L 479.077321 210.232061 
L 479.119114 212.253183 
L 479.84681 216.398804 
L 480.059002 215.797952 
L 480.815646 215.268199 
L 481.638903 214.489919 
L 483.265695 213.834215 
L 483.88282 213.11986 
L 484.011951 212.039678 
L 484.05751 212.115629 
L 484.090541 212.664159 
L 485.072545 218.83069 
L 485.201474 216.679398 
L 485.979112 216.197535 
L 486.373886 214.972837 
L 487.051341 214.952372 
L 488.185138 215.959136 
L 488.233468 215.53719 
L 488.242365 217.625823 
L 488.797992 216.571169 
L 489.535557 215.30533 
L 491.225313 215.516303 
L 491.394826 216.898177 
L 503.555972 219.429853 
L 503.629773 221.005822 
L 516.108117 222.265331 
L 516.214673 222.687277 
L 516.26712 223.554377 
L 528.392734 225.377184 
L 528.46568 226.809691 
L 540.806637 225.493008 
L 540.892059 226.695555 
L 540.981766 227.328474 
L 542.632024 225.914954 
L 543.041975 226.231414 
L 543.609093 226.225296 
L 545.1989 190.792793 
L 545.415948 148.13151 
L 545.573951 154.460701 
L 545.585992 175.12509 
L 545.591777 154.460701 
L 545.838113 127.467121 
L 545.943791 148.13151 
L 546.681707 151.201589 
L 546.954116 148.13151 
L 550.766009 145.029362 
L 551.018873 142.497685 
L 551.071427 142.708658 
L 553.364254 142.745578 
L 553.480184 143.736308 
L 554.08923 143.314362 
L 554.296881 140.50188 
L 557.537992 125.45064 
L 557.700804 125.34009 
L 558.504062 125.661613 
L 560.204706 125.751277 
L 562.422629 125.007808 
L 562.534755 123.961171 
L 562.556208 123.020231 
L 562.735186 122.405666 
L 562.80688 121.200588 
L 563.389231 121.517048 
L 563.498736 121.833507 
L 564.790167 121.758823 
L 564.827857 122.749552 
L 565.290147 124.948946 
L 565.461234 125.029116 
L 565.467248 124.948946 
L 569.464741 126.531244 
L 569.563504 127.058677 
L 569.684284 127.375136 
L 572.891958 125.265406 
L 573.872069 126.320271 
L 576.990288 127.488851 
L 577.001208 128.47958 
L 577.072701 128.396879 
L 577.563425 128.490762 
L 578.128641 128.591607 
L 578.206563 129.646472 
L 578.574787 129.962932 
L 578.938885 130.068208 
L 579.249826 130.279181 
L 579.393461 135.553507 
L 579.758157 135.975453 
L 580.966591 136.188536 
L 582.013064 136.567865 
L 582.423655 138.656499 
L 582.555977 136.567865 
L 583.051659 136.61006 
L 585.971311 137.879907 
L 587.911501 138.407339 
L 589.267439 138.558185 
L 589.308508 139.548915 
L 589.369435 139.47634 
L 589.886985 139.636469 
L 590.239644 140.100609 
L 590.762605 140.256096 
L 591.373394 140.298713 
L 592.106281 144.201925 
L 592.617878 144.31142 
L 592.804563 146.682969 
L 593.778132 146.727906 
L 593.877465 147.485299 
L 594.496067 147.965052 
L 594.836371 148.491852 
L 595.723696 148.808311 
L 595.790628 148.491852 
L 595.853929 148.808311 
L 597.27272 149.145868 
L 598.319992 144.926407 
L 600.457862 144.962272 
L 600.467885 145.127042 
L 601.60562 145.125776 
L 601.736265 146.116506 
L 601.956709 146.041399 
L 603.140626 149.587013 
L 604.654697 149.987861 
L 606.161344 149.354942 
L 606.551712 148.089104 
L 606.563291 147.245212 
L 606.724589 145.979373 
L 607.898477 146.886558 
L 610.402211 147.561671 
L 613.070457 148.458096 
L 613.70025 148.448602 
L 613.883318 149.438066 
L 613.976328 149.365491 
L 626.408347 149.364647 
L 626.531655 150.355166 
L 626.603298 148.592275 
L 632.163118 139.731406 
L 633.085923 131.925403 
L 633.191428 134.961939 
L 633.23238 133.907073 
L 634.060057 134.32058 
L 636.351351 140.458841 
L 637.227013 141.13501 
L 637.366045 134.996749 
L 637.390254 141.13501 
L 637.657473 145.481055 
L 637.891347 145.584221 
L 638.437073 147.063986 
L 638.760444 147.052804 
L 638.824997 147.326014 
L 638.999897 147.249431 
L 639.028728 148.240161 
L 642.991844 148.51105 
L 643.30028 141.671937 
L 643.621455 141.865399 
L 643.835573 140.937117 
L 644.120033 141.359485 
L 646.164234 140.014743 
L 646.615188 140.331203 
L 647.046741 144.023231 
L 648.979554 144.761637 
L 651.076444 144.67999 
L 651.151109 145.802156 
L 651.297178 145.295821 
L 654.334886 145.489283 
L 654.740258 145.543081 
L 657.171327 142.231015 
L 658.288082 142.397895 
L 662.408678 142.696211 
L 662.945302 139.309882 
L 663.397144 139.483302 
L 663.509846 139.407985 
L 663.593011 140.398714 
L 665.487848 140.574033 
L 665.999281 140.760322 
L 667.993941 141.06349 
L 668.211634 141.295561 
L 668.726016 137.946363 
L 668.803106 139.303764 
L 669.264756 139.747229 
L 669.288732 140.299557 
L 669.838967 140.459685 
L 672.828467 140.785428 
L 674.521121 138.178856 
L 675.512736 138.571055 
L 675.611774 139.561784 
L 675.7858 134.741894 
L 676.059444 134.834511 
L 676.589713 135.074809 
L 677.366547 135.14211 
L 678.152764 136.196975 
L 679.287117 136.400986 
L 679.660182 136.907321 
L 679.972454 136.98306 
L 680.131883 132.971619 
L 683.94836 133.604538 
L 685.482417 131.596707 
L 687.321775 132.17182 
L 688.048438 132.096292 
L 688.117692 133.087021 
L 689.686126 133.077316 
L 689.715765 130.440153 
L 689.926654 129.91272 
L 690.107385 135.819966 
L 691.078366 141.094292 
L 691.253537 140.081622 
L 693.293303 141.178682 
L 694.113822 146.031062 
L 694.30082 141.178682 
L 695.412524 142.743469 
L 696.811506 137.786868 
L 697.138293 139.367056 
L 698.893962 139.519167 
L 699.444904 140.426352 
L 699.682661 141.301046 
L 699.743275 140.351667 
L 700.130498 141.617505 
L 700.635488 141.541977 
L 700.664641 143.347906 
L 700.692729 143.345797 
L 700.798421 144.747713 
L 702.265092 143.059928 
L 703.46427 143.650653 
L 703.729143 144.705518 
L 705.886315 145.01607 
L 705.971555 145.365864 
L 706.372637 144.60404 
L 707.283504 144.824507 
L 707.461361 143.808672 
L 707.692324 143.943483 
L 708.55308 141.864766 
L 709.237806 142.286712 
L 709.967791 142.455069 
L 712.324288 142.442199 
L 712.59395 143.9015 
L 713.100342 145.167338 
L 713.915492 144.323446 
L 714.978899 144.745392 
L 716.01084 144.89666 
L 716.636101 145.213119 
L 719.59063 144.369227 
L 721.020294 144.658471 
L 722.370606 146.190135 
L 722.793818 146.276634 
L 723.689433 147.3315 
L 724.941299 147.4334 
L 725.021773 148.835316 
L 725.068005 148.759576 
L 725.414374 144.032303 
L 727.435076 144.219225 
L 728.71661 145.801523 
L 728.726581 144.535685 
L 729.37208 144.852144 
L 730.027171 144.991176 
L 732.105954 146.257014 
L 732.80738 147.280866 
L 733.539664 147.467788 
L 735.131481 147.60682 
L 735.666432 147.797328 
L 736.390941 147.902815 
L 736.589354 146.594782 
L 736.912182 146.521363 
L 737.133449 148.102817 
L 737.223731 148.100707 
L 737.643326 148.321174 
L 737.795372 149.37604 
L 738.20893 149.44988 
L 738.277409 149.58216 
L 739.115101 149.793133 
L 739.412215 150.470146 
L 739.592946 151.79358 
L 740.07703 152.67397 
L 740.995499 152.854141 
L 741.280133 153.350772 
L 741.422978 154.490026 
L 746.933617 155.152904 
L 748.95773 156.207769 
L 749.438487 156.648703 
L 749.570818 156.572963 
L 749.648516 156.970226 
L 749.648848 158.372142 
L 749.661609 158.370243 
L 751.309661 157.972981 
L 751.864154 158.424463 
L 754.110561 159.174683 
L 754.177325 159.467514 
L 754.3867 159.709711 
L 754.490392 159.970895 
L 754.527816 163.008696 
L 755.735951 163.089921 
L 756.138571 163.347308 
L 757.463982 163.386127 
L 758.763281 164.103436 
L 761.024763 164.245421 
L 761.23283 161.502771 
L 761.756001 161.49602 
L 761.760524 162.897936 
L 761.76607 162.824517 
L 761.883243 162.591392 
L 762.190446 154.316185 
L 762.217562 151.564674 
L 762.918745 152.092107 
L 764.462876 153.107731 
L 765.271574 152.092107 
L 765.31702 153.897825 
L 766.075603 153.941286 
L 766.353765 147.782771 
L 766.384203 154.113651 
L 767.051962 154.186647 
L 767.521794 151.397161 
L 767.780737 140.078668 
L 767.78427 137.289182 
L 768.013527 137.436863 
L 768.150068 137.753323 
L 768.164521 140.542809 
L 768.964144 140.648295 
L 772.421878 130.099643 
L 772.505693 140.648295 
L 772.777332 151.196948 
L 772.820194 161.745601 
L 773.152022 151.196948 
L 773.318063 151.318679 
L 773.404069 149.884063 
L 773.477673 137.084116 
L 773.609663 137.38412 
L 774.048301 139.272962 
L 774.08878 139.194058 
L 774.164389 139.732039 
L 774.275922 141.133955 
L 775.581759 151.682608 
L 775.916354 151.804339 
L 776.005607 151.278173 
L 776.134784 169.150966 
L 776.174138 169.1497 
L 776.277036 151.276907 
L 776.572828 151.424588 
L 776.766526 151.662777 
L 777.313332 152.004342 
L 777.683532 169.877135 
L 777.714905 152.004342 
L 778.638154 152.391056 
L 778.9845 151.758136 
L 779.003294 151.88472 
L 779.078524 152.161939 
L 779.144078 138.475906 
L 779.562323 140.97024 
L 779.645259 143.294952 
L 779.742564 144.87725 
L 780.164281 148.906836 
L 780.342134 148.970127 
L 780.370586 144.223234 
L 780.848479 144.244331 
L 780.956769 145.534431 
L 781.191124 145.535064 
L 781.74628 152.919121 
L 782.57743 154.05711 
L 783.378856 157.749138 
L 783.481394 154.05711 
L 783.506646 157.749138 
L 783.818998 157.858633 
L 784.213749 161.731677 
L 784.542577 154.248251 
L 784.63562 146.779805 
L 784.765386 147.061454 
L 785.09849 147.308504 
L 785.102738 143.574281 
L 785.145741 147.308504 
L 786.686503 147.243735 
L 786.791321 148.645651 
L 787.663441 136.934959 
L 798.868573 136.861118 
L 798.902997 138.263034 
L 808.881589 138.36852 
L 808.945712 138.68498 
L 809.124626 134.718054 
L 809.142658 136.384741 
L 809.269022 135.580722 
L 809.463884 141.697253 
L 809.855022 141.849787 
L 809.927412 142.06076 
L 810.213873 142.165192 
L 811.231833 142.361396 
L 811.269075 149.218021 
L 811.418396 150.619937 
L 814.225613 151.118044 
L 814.493472 151.434504 
L 815.421884 149.746719 
L 816.091755 149.971827 
L 816.562013 150.393563 
L 816.857936 149.971617 
L 817.73971 150.216134 
L 817.768279 150.152842 
L 817.7831 150.216134 
L 818.493362 150.300524 
L 818.550141 150.708756 
L 818.746521 150.841458 
L 819.250347 150.996946 
L 819.33818 151.629865 
L 819.640346 151.503281 
L 819.70881 146.017981 
L 819.789284 146.88065 
L 819.873327 147.091623 
L 819.935787 145.207634 
L 819.950978 140.69049 
L 819.992477 140.880366 
L 820.47157 141.006949 
L 823.261746 141.163281 
L 823.381386 141.674679 
L 823.619769 141.672358 
L 823.827616 148.528983 
L 824.417551 148.655567 
L 825.306288 148.825611 
L 825.553881 148.99017 
L 825.684235 150.256008 
L 825.863378 150.3193 
L 825.963482 150.569092 
L 826.622442 150.754327 
L 826.746086 151.031545 
L 826.995722 142.842626 
L 827.045846 149.69925 
L 827.09669 144.567331 
L 827.259024 144.782945 
L 827.330092 145.268183 
L 827.859174 145.795616 
L 829.201388 146.079797 
L 829.209607 146.205747 
L 829.407286 146.482966 
L 829.624194 146.546258 
L 829.746848 146.737611 
L 829.913893 140.843445 
L 832.326714 142.0673 
L 832.559635 141.560965 
L 833.024649 144.936534 
L 833.217235 145.042864 
L 834.665137 145.374092 
L 835.65264 139.028444 
L 836.071334 138.940679 
L 836.877723 139.995545 
L 837.239377 140.920451 
L 837.45607 164.080862 
L 838.04685 140.920451 
L 838.06648 164.080862 
L 838.288051 162.899412 
L 838.809923 162.966924 
L 839.411204 186.190627 
L 839.436263 163.030216 
L 839.561478 162.144129 
L 839.689954 160.41415 
L 839.96042 160.477442 
L 840.026731 160.899388 
L 841.205816 161.145593 
L 841.248127 161.356566 
L 841.356408 156.880562 
L 841.613926 156.943854 
L 841.826436 157.787746 
L 842.035078 157.998719 
L 842.245523 158.69493 
L 842.284264 160.175961 
L 843.090331 160.302545 
L 843.593017 160.543898 
L 844.049041 160.890949 
L 844.210829 160.954241 
L 844.24422 160.426808 
L 844.595641 160.582295 
L 845.20001 160.645587 
L 845.388596 161.245595 
L 845.620026 161.308887 
L 845.801061 161.624502 
L 845.864484 161.09707 
L 845.940458 163.734233 
L 846.134179 163.797525 
L 846.379861 164.104069 
L 846.581517 164.125166 
L 846.649612 164.80028 
L 846.6909 162.226408 
L 846.722857 163.175787 
L 846.902658 163.220724 
L 846.95811 158.251254 
L 847.030532 158.314546 
L 847.132906 158.654002 
L 847.168101 159.286921 
L 847.232024 158.759488 
L 847.49214 158.886072 
L 847.627569 159.202321 
L 848.378797 159.2 
L 848.462443 159.477429 
L 850.128215 159.730597 
L 850.516503 159.942836 
L 851.608479 160.132712 
L 852.065714 160.511619 
L 852.354903 160.574911 
L 852.498879 141.868141 
L 852.749519 142.506124 
L 852.946927 143.220901 
L 853.636414 144.866491 
L 853.787973 141.174462 
L 853.874919 144.037366 
L 853.973382 144.100658 
L 854.264983 145.264597 
L 854.611278 145.327889 
L 854.704531 145.492237 
L 855.268378 145.61882 
L 855.375038 144.099814 
L 857.926798 144.618175 
L 858.02463 153.460267 
L 858.056227 146.958077 
L 858.071063 147.021369 
L 858.166167 146.493937 
L 858.251626 136.203304 
L 858.517237 136.266596 
L 858.558619 135.739163 
L 858.585945 135.886844 
L 859.220873 139.578873 
L 860.209764 139.753348 
L 860.228768 139.982886 
L 860.409145 120.782861 
L 860.418939 121.075481 
L 860.531887 140.275506 
L 860.632388 140.338798 
L 860.75557 138.482235 
L 861.450707 138.608819 
L 862.066197 138.672111 
L 862.289314 138.861986 
L 862.540603 138.925278 
L 862.637198 137.870413 
L 862.991866 138.493206 
L 863.151467 138.5354 
L 863.3179 143.915002 
L 863.637154 144.041586 
L 863.91154 137.253739 
L 864.278778 137.467665 
L 864.747909 138.349533 
L 864.865181 139.193214 
L 864.963252 141.937552 
L 865.09519 142.104009 
L 865.156291 141.576577 
L 865.563429 141.639869 
L 865.564223 141.955484 
L 866.014925 142.335236 
L 866.788461 142.632286 
L 866.935156 145.269449 
L 867.468728 145.317762 
L 867.78174 146.190768 
L 867.876259 152.351182 
L 867.96505 152.034722 
L 868.937054 152.161306 
L 869.318581 146.129164 
L 869.441619 146.762083 
L 869.593356 146.382332 
L 869.597505 146.445624 
L 869.644695 145.812705 
L 870.006344 156.361357 
L 870.034404 151.087031 
L 870.614119 151.34273 
L 870.920827 151.574379 
L 872.332421 151.972063 
L 872.350897 152.035355 
L 872.629854 153.387481 
L 873.294631 153.777148 
L 873.305612 153.945927 
L 873.995627 154.009219 
L 874.673503 155.197419 
L 875.033858 149.637646 
L 875.522895 155.241091 
L 875.921744 155.770844 
L 877.486608 155.897428 
L 877.822987 156.42486 
L 877.881046 157.915174 
L 878.425777 157.978466 
L 878.727424 158.526996 
L 879.06713 158.843455 
L 879.434429 160.359086 
L 879.737964 160.516683 
L 880.219258 160.579975 
L 880.612775 154.642349 
L 880.652919 155.697214 
L 880.669287 155.933293 
L 880.854369 155.996585 
L 880.903998 154.94172 
L 881.841802 155.293412 
L 882.191695 156.32718 
L 883.25384 156.750603 
L 883.311661 156.986471 
L 883.606056 157.356306 
L 884.742179 157.449978 
L 884.859684 157.745341 
L 885.258678 157.808633 
L 885.886817 159.258439 
L 886.161479 159.321731 
L 886.163072 159.638191 
L 886.277909 159.155063 
L 886.334024 154.067236 
L 886.355359 154.287492 
L 886.838149 154.45606 
L 886.864998 156.070215 
L 886.917627 154.719143 
L 887.531369 155.774008 
L 887.588858 154.05289 
L 887.736086 154.137279 
L 887.811985 155.08054 
L 889.056875 155.270416 
L 889.154918 153.413853 
L 889.206411 154.468718 
L 890.878547 154.573994 
L 891.752125 154.889609 
L 891.892264 159.320044 
L 891.898222 158.476151 
L 892.014666 158.054205 
L 892.130722 152.588737 
L 892.316285 153.010683 
L 892.43929 152.33346 
L 892.480928 152.586628 
L 892.643716 152.523336 
L 893.244207 152.725026 
L 893.340511 152.957096 
L 893.830137 153.326932 
L 894.15127 154.142132 
L 895.052445 154.403949 
L 895.211228 154.710493 
L 896.473749 154.773785 
L 896.931824 155.404173 
L 897.022919 155.329066 
L 897.491737 155.599534 
L 897.575458 155.887512 
L 897.582785 150.422044 
L 899.094931 151.730077 
L 899.589917 150.801795 
L 899.686497 150.042292 
L 899.905255 154.246775 
L 901.02644 155.512613 
L 903.242662 142.583551 
L 903.394506 144.904255 
L 908.929715 144.823452 
L 909.070196 129.864197 
L 910.08595 130.919062 
L 911.919711 131.176027 
L 911.941911 131.553247 
L 912.075919 129.33803 
L 912.129501 129.630227 
L 912.24352 130.201332 
L 912.374529 132.099034 
L 913.706318 132.543976 
L 913.751013 133.704328 
L 913.939104 134.126274 
L 914.024011 135.18114 
L 914.263591 136.034315 
L 914.732409 121.251644 
L 914.866418 121.314935 
L 915.700306 121.547006 
L 917.550575 121.67359 
L 918.474464 122.095325 
L 918.681035 122.327395 
L 918.757887 122.733307 
L 919.908721 123.207364 
L 920.289052 109.660151 
L 920.811424 109.862263 
L 921.099454 110.19982 
L 921.42383 110.362058 
L 921.53355 110.765439 
L 921.636691 110.678518 
L 922.418581 110.985062 
L 922.525016 111.318188 
L 923.588909 111.511018 
L 923.715665 111.875579 
L 923.716086 122.424232 
L 923.841198 123.479097 
L 924.420166 123.800198 
L 924.55446 124.327631 
L 926.015608 109.368375 
L 926.273607 120.138128 
L 926.659532 121.634771 
L 926.935287 122.056717 
L 927.34443 149.204729 
L 927.628779 149.373508 
L 927.849373 149.770559 
L 928.966427 150.185543 
L 929.013767 150.502003 
L 930.24227 150.696731 
L 930.260087 150.896944 
L 930.55101 151.118255 
L 930.583631 151.569104 
L 931.200976 153.698877 
L 931.254777 138.739622 
L 931.391323 138.824011 
L 931.455573 137.980119 
L 931.655014 139.810099 
L 931.817629 139.49364 
L 932.086034 140.148289 
L 932.247173 155.920846 
L 932.842855 156.195955 
L 933.004129 156.723176 
L 933.680299 156.872123 
L 933.780543 157.187739 
L 933.917552 157.186473 
L 934.111535 157.40694 
L 934.422322 157.067906 
L 934.654523 157.7061 
L 935.409671 158.760965 
L 935.471996 159.81583 
L 936.777066 160.412462 
L 937.031187 165.897761 
L 937.233315 140.389853 
L 937.310349 140.839859 
L 939.537271 141.092816 
L 939.767351 141.774258 
L 940.70951 152.322911 
L 942.765696 146.385286 
L 943.436843 146.701745 
L 944.208481 146.870524 
L 945.307069 146.933816 
L 945.468581 144.254458 
L 945.631622 144.270492 
L 945.687503 144.43927 
L 945.907471 144.635053 
L 946.304862 144.552563 
L 946.366724 144.763536 
L 947.715615 145.277677 
L 947.805911 145.559326 
L 948.316606 145.622618 
L 948.555839 139.401445 
L 948.591314 139.464736 
L 948.677442 139.686469 
L 948.933871 139.749761 
L 951.10923 139.904615 
L 952.942794 140.527408 
L 953.020025 140.464116 
L 953.19177 140.909691 
L 953.524617 141.044081 
L 953.621366 141.9308 
L 953.886463 141.9308 
L 954.408975 135.898659 
L 954.657208 136.148873 
L 956.447381 136.493181 
L 956.940881 136.969558 
L 958.561009 137.217451 
L 958.807948 137.130109 
L 959.508822 137.357749 
L 959.721328 137.569987 
L 959.740827 137.917038 
L 959.788811 133.159807 
L 960.08016 133.653695 
L 962.321483 133.698632 
L 962.518018 134.005176 
L 963.126008 134.151169 
L 964.386183 134.297162 
L 964.439564 134.550119 
L 964.769962 135.019112 
L 965.18261 135.050758 
L 965.352094 130.24648 
L 965.431843 130.363148 
L 965.584118 130.672434 
L 967.22067 130.891213 
L 968.903539 131.735106 
L 968.938552 129.35111 
L 969.011778 131.045013 
L 969.061827 131.178348 
L 969.784743 131.606623 
L 969.858142 132.197137 
L 969.929705 132.281315 
L 970.497977 132.330261 
L 970.782045 132.743979 
L 970.871607 132.660644 
L 970.990831 132.974361 
L 971.179011 130.037194 
L 971.23307 130.100486 
L 971.404684 130.163778 
L 972.317471 130.22707 
L 972.506235 130.525597 
L 972.84367 130.588889 
L 973.026775 130.83193 
L 973.453773 130.895222 
L 973.495154 131.06822 
L 973.864023 131.137208 
L 974.802823 131.559154 
L 975.196116 131.938906 
L 975.280486 132.993771 
L 975.542247 133.04567 
L 975.675527 133.311707 
L 976.042653 133.374999 
L 976.044475 133.627956 
L 976.547969 133.20601 
L 976.57095 133.269302 
L 976.736443 128.181476 
L 976.888003 127.12661 
L 978.923802 127.355516 
L 978.954754 127.631469 
L 979.490864 127.726407 
L 979.511536 127.9743 
L 979.613873 125.031226 
L 979.720219 123.062425 
L 982.173838 123.252301 
L 982.239396 123.470869 
L 982.324767 120.291505 
L 982.721499 120.418089 
L 982.925701 120.840035 
L 983.067761 120.418089 
L 984.154429 120.391295 
L 984.156644 124.011593 
L 984.560507 120.391295 
L 984.561114 124.011593 
L 984.561922 120.391295 
L 985.254592 118.956679 
L 986.482581 120.388553 
L 987.290026 120.686658 
L 987.365724 121.043202 
L 987.80309 121.106494 
L 987.954486 121.457764 
L 988.080649 119.156892 
L 988.097471 119.220184 
L 990.099823 119.325671 
L 990.15926 150.971629 
L 990.567468 151.191041 
L 990.635596 119.545083 
L 990.906707 118.78558 
L 990.915118 118.848871 
L 990.969789 118.993177 
L 991.386128 119.056469 
L 991.461826 119.18896 
L 992.126286 119.252252 
L 992.294503 177.573643 
L 992.958963 177.700227 
L 992.963169 178.828722 
L 993.076716 179.180414 
L 993.400535 179.268601 
L 993.732765 171.422724 
L 993.795847 171.710702 
L 993.858928 171.83813 
L 994.195364 173.94786 
L 995.347655 174.074444 
L 995.511667 174.426136 
L 995.752779 174.48774 
L 995.754181 174.413478 
L 996.163511 174.47677 
L 996.176127 65.192727 
L 996.218182 65.312982 
" style="fill:none;stroke:#1f77b4;stroke-linecap:round;stroke-width:1.4;"/>
   </g>
   <g id="patch_3">
    <path d="M 144 345.6 
L 144 51.84 
" style="fill:none;stroke:#262626;stroke-linecap:square;stroke-linejoin:miter;stroke-width:1.25;"/>
   </g>
   <g id="patch_4">
    <path d="M 1036.8 345.6 
L 1036.8 51.84 
" style="fill:none;stroke:#262626;stroke-linecap:square;stroke-linejoin:miter;stroke-width:1.25;"/>
   </g>
   <g id="patch_5">
    <path d="M 144 345.6 
L 1036.8 345.6 
" style="fill:none;stroke:#262626;stroke-linecap:square;stroke-linejoin:miter;stroke-width:1.25;"/>
   </g>
   <g id="patch_6">
    <path d="M 144 51.84 
L 1036.8 51.84 
" style="fill:none;stroke:#262626;stroke-linecap:square;stroke-linejoin:miter;stroke-width:1.25;"/>
   </g>
   <g id="text_16">
    <!-- Balance over Time -->
    <defs>
     <path id="DejaVuSans-20"/>
     <path d="M 30.609375 48.390625 
Q 23.390625 48.390625 19.1875 42.75 
Q 14.984375 37.109375 14.984375 27.296875 
Q 14.984375 17.484375 19.15625 11.84375 
Q 23.34375 6.203125 30.609375 6.203125 
Q 37.796875 6.203125 41.984375 11.859375 
Q 46.1875 17.53125 46.1875 27.296875 
Q 46.1875 37.015625 41.984375 42.703125 
Q 37.796875 48.390625 30.609375 48.390625 
z
M 30.609375 56 
Q 42.328125 56 49.015625 48.375 
Q 55.71875 40.765625 55.71875 27.296875 
Q 55.71875 13.875 49.015625 6.21875 
Q 42.328125 -1.421875 30.609375 -1.421875 
Q 18.84375 -1.421875 12.171875 6.21875 
Q 5.515625 13.875 5.515625 27.296875 
Q 5.515625 40.765625 12.171875 48.375 
Q 18.84375 56 30.609375 56 
z
" id="DejaVuSans-6f"/>
     <path d="M 2.984375 54.6875 
L 12.5 54.6875 
L 29.59375 8.796875 
L 46.6875 54.6875 
L 56.203125 54.6875 
L 35.6875 0 
L 23.484375 0 
z
" id="DejaVuSans-76"/>
     <path d="M -0.296875 72.90625 
L 61.375 72.90625 
L 61.375 64.59375 
L 35.5 64.59375 
L 35.5 0 
L 25.59375 0 
L 25.59375 64.59375 
L -0.296875 64.59375 
z
" id="DejaVuSans-54"/>
     <path d="M 9.421875 54.6875 
L 18.40625 54.6875 
L 18.40625 0 
L 9.421875 0 
z
M 9.421875 75.984375 
L 18.40625 75.984375 
L 18.40625 64.59375 
L 9.421875 64.59375 
z
" id="DejaVuSans-69"/>
     <path d="M 52 44.1875 
Q 55.375 50.25 60.0625 53.125 
Q 64.75 56 71.09375 56 
Q 79.640625 56 84.28125 50.015625 
Q 88.921875 44.046875 88.921875 33.015625 
L 88.921875 0 
L 79.890625 0 
L 79.890625 32.71875 
Q 79.890625 40.578125 77.09375 44.375 
Q 74.3125 48.1875 68.609375 48.1875 
Q 61.625 48.1875 57.5625 43.546875 
Q 53.515625 38.921875 53.515625 30.90625 
L 53.515625 0 
L 44.484375 0 
L 44.484375 32.71875 
Q 44.484375 40.625 41.703125 44.40625 
Q 38.921875 48.1875 33.109375 48.1875 
Q 26.21875 48.1875 22.15625 43.53125 
Q 18.109375 38.875 18.109375 30.90625 
L 18.109375 0 
L 9.078125 0 
L 9.078125 54.6875 
L 18.109375 54.6875 
L 18.109375 46.1875 
Q 21.1875 51.21875 25.484375 53.609375 
Q 29.78125 56 35.6875 56 
Q 41.65625 56 45.828125 52.96875 
Q 50 49.953125 52 44.1875 
z
" id="DejaVuSans-6d"/>
    </defs>
    <g style="fill:#262626;" transform="translate(539.075547 45.84)scale(0.11 -0.11)">
     <use xlink:href="#DejaVuSans-42"/>
     <use x="68.603516" xlink:href="#DejaVuSans-61"/>
     <use x="129.882812" xlink:href="#DejaVuSans-6c"/>
     <use x="157.666016" xlink:href="#DejaVuSans-61"/>
     <use x="218.945312" xlink:href="#DejaVuSans-6e"/>
     <use x="282.324219" xlink:href="#DejaVuSans-63"/>
     <use x="337.304688" xlink:href="#DejaVuSans-65"/>
     <use x="398.828125" xlink:href="#DejaVuSans-20"/>
     <use x="430.615234" xlink:href="#DejaVuSans-6f"/>
     <use x="491.796875" xlink:href="#DejaVuSans-76"/>
     <use x="550.976562" xlink:href="#DejaVuSans-65"/>
     <use x="612.5" xlink:href="#DejaVuSans-72"/>
     <use x="653.613281" xlink:href="#DejaVuSans-20"/>
     <use x="685.400391" xlink:href="#DejaVuSans-54"/>
     <use x="746.4375" xlink:href="#DejaVuSans-69"/>
     <use x="774.220703" xlink:href="#DejaVuSans-6d"/>
     <use x="871.632812" xlink:href="#DejaVuSans-65"/>
    </g>
   </g>
   <g id="legend_1">
    <g id="line2d_88">
     <path d="M 151.2 62.31875 
L 167.2 62.31875 
" style="fill:none;stroke:#1f77b4;stroke-linecap:round;stroke-width:1.4;"/>
    </g>
    <g id="line2d_89"/>
    <g id="text_17">
     <!-- Balance -->
     <g style="fill:#262626;" transform="translate(173.6 65.11875)scale(0.08 -0.08)">
      <use xlink:href="#DejaVuSans-42"/>
      <use x="68.603516" xlink:href="#DejaVuSans-61"/>
      <use x="129.882812" xlink:href="#DejaVuSans-6c"/>
      <use x="157.666016" xlink:href="#DejaVuSans-61"/>
      <use x="218.945312" xlink:href="#DejaVuSans-6e"/>
      <use x="282.324219" xlink:href="#DejaVuSans-63"/>
      <use x="337.304688" xlink:href="#DejaVuSans-65"/>
     </g>
    </g>
   </g>
  </g>
 </g>
 <defs>
  <clipPath id="p373f2814a1">
   <rect height="293.76" width="892.8" x="144" y="51.84"/>
  </clipPath>
 </defs>
</svg>
