<?xml version="1.0" encoding="utf-8" standalone="no"?>
<!DOCTYPE svg PUBLIC "-//W3C//DTD SVG 1.1//EN"
  "http://www.w3.org/Graphics/SVG/1.1/DTD/svg11.dtd">
<!-- Created with matplotlib (http://matplotlib.org/) -->
<svg height="432pt" version="1.1" viewBox="0 0 1152 432" width="1152pt" xmlns="http://www.w3.org/2000/svg" xmlns:xlink="http://www.w3.org/1999/xlink">
 <defs>
  <style type="text/css">
*{stroke-linecap:butt;stroke-linejoin:round;}
  </style>
 </defs>
 <g id="figure_1">
  <g id="patch_1">
   <path d="M 0 432 
L 1152 432 
L 1152 0 
L 0 0 
z
" style="fill:#ffffff;"/>
  </g>
  <g id="axes_1">
   <g id="patch_2">
    <path d="M 144 345.6 
L 1036.8 345.6 
L 1036.8 51.84 
L 144 51.84 
z
" style="fill:#eaeaf2;"/>
   </g>
   <g id="matplotlib.axis_1">
    <g id="xtick_1">
     <g id="line2d_1">
      <path clip-path="url(#pb96768b26f)" d="M 246.92704 345.6 
L 246.92704 51.84 
" style="fill:none;stroke:#ffffff;stroke-linecap:round;stroke-width:0.8;"/>
     </g>
     <g id="line2d_2"/>
     <g id="text_1">
      <!-- 2013 -->
      <defs>
       <path d="M 19.1875 8.296875 
L 53.609375 8.296875 
L 53.609375 0 
L 7.328125 0 
L 7.328125 8.296875 
Q 12.9375 14.109375 22.625 23.890625 
Q 32.328125 33.6875 34.8125 36.53125 
Q 39.546875 41.84375 41.421875 45.53125 
Q 43.3125 49.21875 43.3125 52.78125 
Q 43.3125 58.59375 39.234375 62.25 
Q 35.15625 65.921875 28.609375 65.921875 
Q 23.96875 65.921875 18.8125 64.3125 
Q 13.671875 62.703125 7.8125 59.421875 
L 7.8125 69.390625 
Q 13.765625 71.78125 18.9375 73 
Q 24.125 74.21875 28.421875 74.21875 
Q 39.75 74.21875 46.484375 68.546875 
Q 53.21875 62.890625 53.21875 53.421875 
Q 53.21875 48.921875 51.53125 44.890625 
Q 49.859375 40.875 45.40625 35.40625 
Q 44.1875 33.984375 37.640625 27.21875 
Q 31.109375 20.453125 19.1875 8.296875 
z
" id="DejaVuSans-32"/>
       <path d="M 31.78125 66.40625 
Q 24.171875 66.40625 20.328125 58.90625 
Q 16.5 51.421875 16.5 36.375 
Q 16.5 21.390625 20.328125 13.890625 
Q 24.171875 6.390625 31.78125 6.390625 
Q 39.453125 6.390625 43.28125 13.890625 
Q 47.125 21.390625 47.125 36.375 
Q 47.125 51.421875 43.28125 58.90625 
Q 39.453125 66.40625 31.78125 66.40625 
z
M 31.78125 74.21875 
Q 44.046875 74.21875 50.515625 64.515625 
Q 56.984375 54.828125 56.984375 36.375 
Q 56.984375 17.96875 50.515625 8.265625 
Q 44.046875 -1.421875 31.78125 -1.421875 
Q 19.53125 -1.421875 13.0625 8.265625 
Q 6.59375 17.96875 6.59375 36.375 
Q 6.59375 54.828125 13.0625 64.515625 
Q 19.53125 74.21875 31.78125 74.21875 
z
" id="DejaVuSans-30"/>
       <path d="M 12.40625 8.296875 
L 28.515625 8.296875 
L 28.515625 63.921875 
L 10.984375 60.40625 
L 10.984375 69.390625 
L 28.421875 72.90625 
L 38.28125 72.90625 
L 38.28125 8.296875 
L 54.390625 8.296875 
L 54.390625 0 
L 12.40625 0 
z
" id="DejaVuSans-31"/>
       <path d="M 40.578125 39.3125 
Q 47.65625 37.796875 51.625 33 
Q 55.609375 28.21875 55.609375 21.1875 
Q 55.609375 10.40625 48.1875 4.484375 
Q 40.765625 -1.421875 27.09375 -1.421875 
Q 22.515625 -1.421875 17.65625 -0.515625 
Q 12.796875 0.390625 7.625 2.203125 
L 7.625 11.71875 
Q 11.71875 9.328125 16.59375 8.109375 
Q 21.484375 6.890625 26.8125 6.890625 
Q 36.078125 6.890625 40.9375 10.546875 
Q 45.796875 14.203125 45.796875 21.1875 
Q 45.796875 27.640625 41.28125 31.265625 
Q 36.765625 34.90625 28.71875 34.90625 
L 20.21875 34.90625 
L 20.21875 43.015625 
L 29.109375 43.015625 
Q 36.375 43.015625 40.234375 45.921875 
Q 44.09375 48.828125 44.09375 54.296875 
Q 44.09375 59.90625 40.109375 62.90625 
Q 36.140625 65.921875 28.71875 65.921875 
Q 24.65625 65.921875 20.015625 65.03125 
Q 15.375 64.15625 9.8125 62.3125 
L 9.8125 71.09375 
Q 15.4375 72.65625 20.34375 73.4375 
Q 25.25 74.21875 29.59375 74.21875 
Q 40.828125 74.21875 47.359375 69.109375 
Q 53.90625 64.015625 53.90625 55.328125 
Q 53.90625 49.265625 50.4375 45.09375 
Q 46.96875 40.921875 40.578125 39.3125 
z
" id="DejaVuSans-33"/>
      </defs>
      <g style="fill:#262626;" transform="translate(223.84685 368.40544)rotate(-30)scale(0.1 -0.1)">
       <use xlink:href="#DejaVuSans-32"/>
       <use x="63.623047" xlink:href="#DejaVuSans-30"/>
       <use x="127.246094" xlink:href="#DejaVuSans-31"/>
       <use x="190.869141" xlink:href="#DejaVuSans-33"/>
      </g>
     </g>
    </g>
    <g id="xtick_2">
     <g id="line2d_3">
      <path clip-path="url(#pb96768b26f)" d="M 395.764138 345.6 
L 395.764138 51.84 
" style="fill:none;stroke:#ffffff;stroke-linecap:round;stroke-width:0.8;"/>
     </g>
     <g id="line2d_4"/>
     <g id="text_2">
      <!-- 2014 -->
      <defs>
       <path d="M 37.796875 64.3125 
L 12.890625 25.390625 
L 37.796875 25.390625 
z
M 35.203125 72.90625 
L 47.609375 72.90625 
L 47.609375 25.390625 
L 58.015625 25.390625 
L 58.015625 17.1875 
L 47.609375 17.1875 
L 47.609375 0 
L 37.796875 0 
L 37.796875 17.1875 
L 4.890625 17.1875 
L 4.890625 26.703125 
z
" id="DejaVuSans-34"/>
      </defs>
      <g style="fill:#262626;" transform="translate(372.683948 368.40544)rotate(-30)scale(0.1 -0.1)">
       <use xlink:href="#DejaVuSans-32"/>
       <use x="63.623047" xlink:href="#DejaVuSans-30"/>
       <use x="127.246094" xlink:href="#DejaVuSans-31"/>
       <use x="190.869141" xlink:href="#DejaVuSans-34"/>
      </g>
     </g>
    </g>
    <g id="xtick_3">
     <g id="line2d_5">
      <path clip-path="url(#pb96768b26f)" d="M 544.601235 345.6 
L 544.601235 51.84 
" style="fill:none;stroke:#ffffff;stroke-linecap:round;stroke-width:0.8;"/>
     </g>
     <g id="line2d_6"/>
     <g id="text_3">
      <!-- 2015 -->
      <defs>
       <path d="M 10.796875 72.90625 
L 49.515625 72.90625 
L 49.515625 64.59375 
L 19.828125 64.59375 
L 19.828125 46.734375 
Q 21.96875 47.46875 24.109375 47.828125 
Q 26.265625 48.1875 28.421875 48.1875 
Q 40.625 48.1875 47.75 41.5 
Q 54.890625 34.8125 54.890625 23.390625 
Q 54.890625 11.625 47.5625 5.09375 
Q 40.234375 -1.421875 26.90625 -1.421875 
Q 22.3125 -1.421875 17.546875 -0.640625 
Q 12.796875 0.140625 7.71875 1.703125 
L 7.71875 11.625 
Q 12.109375 9.234375 16.796875 8.0625 
Q 21.484375 6.890625 26.703125 6.890625 
Q 35.15625 6.890625 40.078125 11.328125 
Q 45.015625 15.765625 45.015625 23.390625 
Q 45.015625 31 40.078125 35.4375 
Q 35.15625 39.890625 26.703125 39.890625 
Q 22.75 39.890625 18.8125 39.015625 
Q 14.890625 38.140625 10.796875 36.28125 
z
" id="DejaVuSans-35"/>
      </defs>
      <g style="fill:#262626;" transform="translate(521.521045 368.40544)rotate(-30)scale(0.1 -0.1)">
       <use xlink:href="#DejaVuSans-32"/>
       <use x="63.623047" xlink:href="#DejaVuSans-30"/>
       <use x="127.246094" xlink:href="#DejaVuSans-31"/>
       <use x="190.869141" xlink:href="#DejaVuSans-35"/>
      </g>
     </g>
    </g>
    <g id="xtick_4">
     <g id="line2d_7">
      <path clip-path="url(#pb96768b26f)" d="M 693.438333 345.6 
L 693.438333 51.84 
" style="fill:none;stroke:#ffffff;stroke-linecap:round;stroke-width:0.8;"/>
     </g>
     <g id="line2d_8"/>
     <g id="text_4">
      <!-- 2016 -->
      <defs>
       <path d="M 33.015625 40.375 
Q 26.375 40.375 22.484375 35.828125 
Q 18.609375 31.296875 18.609375 23.390625 
Q 18.609375 15.53125 22.484375 10.953125 
Q 26.375 6.390625 33.015625 6.390625 
Q 39.65625 6.390625 43.53125 10.953125 
Q 47.40625 15.53125 47.40625 23.390625 
Q 47.40625 31.296875 43.53125 35.828125 
Q 39.65625 40.375 33.015625 40.375 
z
M 52.59375 71.296875 
L 52.59375 62.3125 
Q 48.875 64.0625 45.09375 64.984375 
Q 41.3125 65.921875 37.59375 65.921875 
Q 27.828125 65.921875 22.671875 59.328125 
Q 17.53125 52.734375 16.796875 39.40625 
Q 19.671875 43.65625 24.015625 45.921875 
Q 28.375 48.1875 33.59375 48.1875 
Q 44.578125 48.1875 50.953125 41.515625 
Q 57.328125 34.859375 57.328125 23.390625 
Q 57.328125 12.15625 50.6875 5.359375 
Q 44.046875 -1.421875 33.015625 -1.421875 
Q 20.359375 -1.421875 13.671875 8.265625 
Q 6.984375 17.96875 6.984375 36.375 
Q 6.984375 53.65625 15.1875 63.9375 
Q 23.390625 74.21875 37.203125 74.21875 
Q 40.921875 74.21875 44.703125 73.484375 
Q 48.484375 72.75 52.59375 71.296875 
z
" id="DejaVuSans-36"/>
      </defs>
      <g style="fill:#262626;" transform="translate(670.358143 368.40544)rotate(-30)scale(0.1 -0.1)">
       <use xlink:href="#DejaVuSans-32"/>
       <use x="63.623047" xlink:href="#DejaVuSans-30"/>
       <use x="127.246094" xlink:href="#DejaVuSans-31"/>
       <use x="190.869141" xlink:href="#DejaVuSans-36"/>
      </g>
     </g>
    </g>
    <g id="xtick_5">
     <g id="line2d_9">
      <path clip-path="url(#pb96768b26f)" d="M 842.683203 345.6 
L 842.683203 51.84 
" style="fill:none;stroke:#ffffff;stroke-linecap:round;stroke-width:0.8;"/>
     </g>
     <g id="line2d_10"/>
     <g id="text_5">
      <!-- 2017 -->
      <defs>
       <path d="M 8.203125 72.90625 
L 55.078125 72.90625 
L 55.078125 68.703125 
L 28.609375 0 
L 18.3125 0 
L 43.21875 64.59375 
L 8.203125 64.59375 
z
" id="DejaVuSans-37"/>
      </defs>
      <g style="fill:#262626;" transform="translate(819.603013 368.40544)rotate(-30)scale(0.1 -0.1)">
       <use xlink:href="#DejaVuSans-32"/>
       <use x="63.623047" xlink:href="#DejaVuSans-30"/>
       <use x="127.246094" xlink:href="#DejaVuSans-31"/>
       <use x="190.869141" xlink:href="#DejaVuSans-37"/>
      </g>
     </g>
    </g>
    <g id="xtick_6">
     <g id="line2d_11">
      <path clip-path="url(#pb96768b26f)" d="M 991.520301 345.6 
L 991.520301 51.84 
" style="fill:none;stroke:#ffffff;stroke-linecap:round;stroke-width:0.8;"/>
     </g>
     <g id="line2d_12"/>
     <g id="text_6">
      <!-- 2018 -->
      <defs>
       <path d="M 31.78125 34.625 
Q 24.75 34.625 20.71875 30.859375 
Q 16.703125 27.09375 16.703125 20.515625 
Q 16.703125 13.921875 20.71875 10.15625 
Q 24.75 6.390625 31.78125 6.390625 
Q 38.8125 6.390625 42.859375 10.171875 
Q 46.921875 13.96875 46.921875 20.515625 
Q 46.921875 27.09375 42.890625 30.859375 
Q 38.875 34.625 31.78125 34.625 
z
M 21.921875 38.8125 
Q 15.578125 40.375 12.03125 44.71875 
Q 8.5 49.078125 8.5 55.328125 
Q 8.5 64.0625 14.71875 69.140625 
Q 20.953125 74.21875 31.78125 74.21875 
Q 42.671875 74.21875 48.875 69.140625 
Q 55.078125 64.0625 55.078125 55.328125 
Q 55.078125 49.078125 51.53125 44.71875 
Q 48 40.375 41.703125 38.8125 
Q 48.828125 37.15625 52.796875 32.3125 
Q 56.78125 27.484375 56.78125 20.515625 
Q 56.78125 9.90625 50.3125 4.234375 
Q 43.84375 -1.421875 31.78125 -1.421875 
Q 19.734375 -1.421875 13.25 4.234375 
Q 6.78125 9.90625 6.78125 20.515625 
Q 6.78125 27.484375 10.78125 32.3125 
Q 14.796875 37.15625 21.921875 38.8125 
z
M 18.3125 54.390625 
Q 18.3125 48.734375 21.84375 45.5625 
Q 25.390625 42.390625 31.78125 42.390625 
Q 38.140625 42.390625 41.71875 45.5625 
Q 45.3125 48.734375 45.3125 54.390625 
Q 45.3125 60.0625 41.71875 63.234375 
Q 38.140625 66.40625 31.78125 66.40625 
Q 25.390625 66.40625 21.84375 63.234375 
Q 18.3125 60.0625 18.3125 54.390625 
z
" id="DejaVuSans-38"/>
      </defs>
      <g style="fill:#262626;" transform="translate(968.44011 368.40544)rotate(-30)scale(0.1 -0.1)">
       <use xlink:href="#DejaVuSans-32"/>
       <use x="63.623047" xlink:href="#DejaVuSans-30"/>
       <use x="127.246094" xlink:href="#DejaVuSans-31"/>
       <use x="190.869141" xlink:href="#DejaVuSans-38"/>
      </g>
     </g>
    </g>
    <g id="xtick_7">
     <g id="line2d_13"/>
    </g>
    <g id="xtick_8">
     <g id="line2d_14"/>
    </g>
    <g id="xtick_9">
     <g id="line2d_15"/>
    </g>
    <g id="xtick_10">
     <g id="line2d_16"/>
    </g>
    <g id="xtick_11">
     <g id="line2d_17"/>
    </g>
    <g id="xtick_12">
     <g id="line2d_18"/>
    </g>
    <g id="xtick_13">
     <g id="line2d_19"/>
    </g>
    <g id="xtick_14">
     <g id="line2d_20"/>
    </g>
    <g id="xtick_15">
     <g id="line2d_21"/>
    </g>
    <g id="xtick_16">
     <g id="line2d_22"/>
    </g>
    <g id="xtick_17">
     <g id="line2d_23"/>
    </g>
    <g id="xtick_18">
     <g id="line2d_24"/>
    </g>
    <g id="xtick_19">
     <g id="line2d_25"/>
    </g>
    <g id="xtick_20">
     <g id="line2d_26"/>
    </g>
    <g id="xtick_21">
     <g id="line2d_27"/>
    </g>
    <g id="xtick_22">
     <g id="line2d_28"/>
    </g>
    <g id="xtick_23">
     <g id="line2d_29"/>
    </g>
    <g id="xtick_24">
     <g id="line2d_30"/>
    </g>
    <g id="xtick_25">
     <g id="line2d_31"/>
    </g>
    <g id="xtick_26">
     <g id="line2d_32"/>
    </g>
    <g id="xtick_27">
     <g id="line2d_33"/>
    </g>
    <g id="xtick_28">
     <g id="line2d_34"/>
    </g>
    <g id="xtick_29">
     <g id="line2d_35"/>
    </g>
    <g id="xtick_30">
     <g id="line2d_36"/>
    </g>
    <g id="xtick_31">
     <g id="line2d_37"/>
    </g>
    <g id="xtick_32">
     <g id="line2d_38"/>
    </g>
    <g id="xtick_33">
     <g id="line2d_39"/>
    </g>
    <g id="xtick_34">
     <g id="line2d_40"/>
    </g>
    <g id="xtick_35">
     <g id="line2d_41"/>
    </g>
    <g id="xtick_36">
     <g id="line2d_42"/>
    </g>
    <g id="xtick_37">
     <g id="line2d_43"/>
    </g>
    <g id="xtick_38">
     <g id="line2d_44"/>
    </g>
    <g id="xtick_39">
     <g id="line2d_45"/>
    </g>
    <g id="xtick_40">
     <g id="line2d_46"/>
    </g>
    <g id="xtick_41">
     <g id="line2d_47"/>
    </g>
    <g id="xtick_42">
     <g id="line2d_48"/>
    </g>
    <g id="xtick_43">
     <g id="line2d_49"/>
    </g>
    <g id="xtick_44">
     <g id="line2d_50"/>
    </g>
    <g id="xtick_45">
     <g id="line2d_51"/>
    </g>
    <g id="xtick_46">
     <g id="line2d_52"/>
    </g>
    <g id="xtick_47">
     <g id="line2d_53"/>
    </g>
    <g id="xtick_48">
     <g id="line2d_54"/>
    </g>
    <g id="xtick_49">
     <g id="line2d_55"/>
    </g>
    <g id="xtick_50">
     <g id="line2d_56"/>
    </g>
    <g id="xtick_51">
     <g id="line2d_57"/>
    </g>
    <g id="xtick_52">
     <g id="line2d_58"/>
    </g>
    <g id="xtick_53">
     <g id="line2d_59"/>
    </g>
    <g id="xtick_54">
     <g id="line2d_60"/>
    </g>
    <g id="xtick_55">
     <g id="line2d_61"/>
    </g>
    <g id="xtick_56">
     <g id="line2d_62"/>
    </g>
    <g id="xtick_57">
     <g id="line2d_63"/>
    </g>
    <g id="xtick_58">
     <g id="line2d_64"/>
    </g>
    <g id="xtick_59">
     <g id="line2d_65"/>
    </g>
    <g id="xtick_60">
     <g id="line2d_66"/>
    </g>
    <g id="xtick_61">
     <g id="line2d_67"/>
    </g>
    <g id="xtick_62">
     <g id="line2d_68"/>
    </g>
    <g id="xtick_63">
     <g id="line2d_69"/>
    </g>
    <g id="xtick_64">
     <g id="line2d_70"/>
    </g>
    <g id="xtick_65">
     <g id="line2d_71"/>
    </g>
    <g id="xtick_66">
     <g id="line2d_72"/>
    </g>
    <g id="xtick_67">
     <g id="line2d_73"/>
    </g>
    <g id="xtick_68">
     <g id="line2d_74"/>
    </g>
    <g id="xtick_69">
     <g id="line2d_75"/>
    </g>
    <g id="xtick_70">
     <g id="line2d_76"/>
    </g>
    <g id="xtick_71">
     <g id="line2d_77"/>
    </g>
    <g id="xtick_72">
     <g id="line2d_78"/>
    </g>
    <g id="xtick_73">
     <g id="line2d_79"/>
    </g>
    <g id="xtick_74">
     <g id="line2d_80"/>
    </g>
    <g id="xtick_75">
     <g id="line2d_81"/>
    </g>
    <g id="xtick_76">
     <g id="line2d_82"/>
    </g>
    <g id="xtick_77">
     <g id="line2d_83"/>
    </g>
    <g id="xtick_78">
     <g id="line2d_84"/>
    </g>
    <g id="text_7">
     <!-- Year -->
     <defs>
      <path d="M -0.203125 72.90625 
L 10.40625 72.90625 
L 30.609375 42.921875 
L 50.6875 72.90625 
L 61.28125 72.90625 
L 35.5 34.71875 
L 35.5 0 
L 25.59375 0 
L 25.59375 34.71875 
z
" id="DejaVuSans-59"/>
      <path d="M 56.203125 29.59375 
L 56.203125 25.203125 
L 14.890625 25.203125 
Q 15.484375 15.921875 20.484375 11.0625 
Q 25.484375 6.203125 34.421875 6.203125 
Q 39.59375 6.203125 44.453125 7.46875 
Q 49.3125 8.734375 54.109375 11.28125 
L 54.109375 2.78125 
Q 49.265625 0.734375 44.1875 -0.34375 
Q 39.109375 -1.421875 33.890625 -1.421875 
Q 20.796875 -1.421875 13.15625 6.1875 
Q 5.515625 13.8125 5.515625 26.8125 
Q 5.515625 40.234375 12.765625 48.109375 
Q 20.015625 56 32.328125 56 
Q 43.359375 56 49.78125 48.890625 
Q 56.203125 41.796875 56.203125 29.59375 
z
M 47.21875 32.234375 
Q 47.125 39.59375 43.09375 43.984375 
Q 39.0625 48.390625 32.421875 48.390625 
Q 24.90625 48.390625 20.390625 44.140625 
Q 15.875 39.890625 15.1875 32.171875 
z
" id="DejaVuSans-65"/>
      <path d="M 34.28125 27.484375 
Q 23.390625 27.484375 19.1875 25 
Q 14.984375 22.515625 14.984375 16.5 
Q 14.984375 11.71875 18.140625 8.90625 
Q 21.296875 6.109375 26.703125 6.109375 
Q 34.1875 6.109375 38.703125 11.40625 
Q 43.21875 16.703125 43.21875 25.484375 
L 43.21875 27.484375 
z
M 52.203125 31.203125 
L 52.203125 0 
L 43.21875 0 
L 43.21875 8.296875 
Q 40.140625 3.328125 35.546875 0.953125 
Q 30.953125 -1.421875 24.3125 -1.421875 
Q 15.921875 -1.421875 10.953125 3.296875 
Q 6 8.015625 6 15.921875 
Q 6 25.140625 12.171875 29.828125 
Q 18.359375 34.515625 30.609375 34.515625 
L 43.21875 34.515625 
L 43.21875 35.40625 
Q 43.21875 41.609375 39.140625 45 
Q 35.0625 48.390625 27.6875 48.390625 
Q 23 48.390625 18.546875 47.265625 
Q 14.109375 46.140625 10.015625 43.890625 
L 10.015625 52.203125 
Q 14.9375 54.109375 19.578125 55.046875 
Q 24.21875 56 28.609375 56 
Q 40.484375 56 46.34375 49.84375 
Q 52.203125 43.703125 52.203125 31.203125 
z
" id="DejaVuSans-61"/>
      <path d="M 41.109375 46.296875 
Q 39.59375 47.171875 37.8125 47.578125 
Q 36.03125 48 33.890625 48 
Q 26.265625 48 22.1875 43.046875 
Q 18.109375 38.09375 18.109375 28.8125 
L 18.109375 0 
L 9.078125 0 
L 9.078125 54.6875 
L 18.109375 54.6875 
L 18.109375 46.1875 
Q 20.953125 51.171875 25.484375 53.578125 
Q 30.03125 56 36.53125 56 
Q 37.453125 56 38.578125 55.875 
Q 39.703125 55.765625 41.0625 55.515625 
z
" id="DejaVuSans-72"/>
     </defs>
     <g style="fill:#262626;" transform="translate(578.036172 382.564783)scale(0.11 -0.11)">
      <use xlink:href="#DejaVuSans-59"/>
      <use x="60.880859" xlink:href="#DejaVuSans-65"/>
      <use x="122.404297" xlink:href="#DejaVuSans-61"/>
      <use x="183.683594" xlink:href="#DejaVuSans-72"/>
     </g>
    </g>
   </g>
   <g id="matplotlib.axis_2">
    <g id="ytick_1">
     <g id="line2d_85">
      <path clip-path="url(#pb96768b26f)" d="M 144 308.80641 
L 1036.8 308.80641 
" style="fill:none;stroke:#ffffff;stroke-linecap:round;stroke-width:0.8;"/>
     </g>
     <g id="line2d_86"/>
     <g id="text_8">
      <!-- 0 -->
      <g style="fill:#262626;" transform="translate(134.1375 312.605629)scale(0.1 -0.1)">
       <use xlink:href="#DejaVuSans-30"/>
      </g>
     </g>
    </g>
    <g id="ytick_2">
     <g id="line2d_87">
      <path clip-path="url(#pb96768b26f)" d="M 144 258.248628 
L 1036.8 258.248628 
" style="fill:none;stroke:#ffffff;stroke-linecap:round;stroke-width:0.8;"/>
     </g>
     <g id="line2d_88"/>
     <g id="text_9">
      <!-- 2000 -->
      <g style="fill:#262626;" transform="translate(115.05 262.047847)scale(0.1 -0.1)">
       <use xlink:href="#DejaVuSans-32"/>
       <use x="63.623047" xlink:href="#DejaVuSans-30"/>
       <use x="127.246094" xlink:href="#DejaVuSans-30"/>
       <use x="190.869141" xlink:href="#DejaVuSans-30"/>
      </g>
     </g>
    </g>
    <g id="ytick_3">
     <g id="line2d_89">
      <path clip-path="url(#pb96768b26f)" d="M 144 207.690846 
L 1036.8 207.690846 
" style="fill:none;stroke:#ffffff;stroke-linecap:round;stroke-width:0.8;"/>
     </g>
     <g id="line2d_90"/>
     <g id="text_10">
      <!-- 4000 -->
      <g style="fill:#262626;" transform="translate(115.05 211.490065)scale(0.1 -0.1)">
       <use xlink:href="#DejaVuSans-34"/>
       <use x="63.623047" xlink:href="#DejaVuSans-30"/>
       <use x="127.246094" xlink:href="#DejaVuSans-30"/>
       <use x="190.869141" xlink:href="#DejaVuSans-30"/>
      </g>
     </g>
    </g>
    <g id="ytick_4">
     <g id="line2d_91">
      <path clip-path="url(#pb96768b26f)" d="M 144 157.133065 
L 1036.8 157.133065 
" style="fill:none;stroke:#ffffff;stroke-linecap:round;stroke-width:0.8;"/>
     </g>
     <g id="line2d_92"/>
     <g id="text_11">
      <!-- 6000 -->
      <g style="fill:#262626;" transform="translate(115.05 160.932283)scale(0.1 -0.1)">
       <use xlink:href="#DejaVuSans-36"/>
       <use x="63.623047" xlink:href="#DejaVuSans-30"/>
       <use x="127.246094" xlink:href="#DejaVuSans-30"/>
       <use x="190.869141" xlink:href="#DejaVuSans-30"/>
      </g>
     </g>
    </g>
    <g id="ytick_5">
     <g id="line2d_93">
      <path clip-path="url(#pb96768b26f)" d="M 144 106.575283 
L 1036.8 106.575283 
" style="fill:none;stroke:#ffffff;stroke-linecap:round;stroke-width:0.8;"/>
     </g>
     <g id="line2d_94"/>
     <g id="text_12">
      <!-- 8000 -->
      <g style="fill:#262626;" transform="translate(115.05 110.374502)scale(0.1 -0.1)">
       <use xlink:href="#DejaVuSans-38"/>
       <use x="63.623047" xlink:href="#DejaVuSans-30"/>
       <use x="127.246094" xlink:href="#DejaVuSans-30"/>
       <use x="190.869141" xlink:href="#DejaVuSans-30"/>
      </g>
     </g>
    </g>
    <g id="ytick_6">
     <g id="line2d_95">
      <path clip-path="url(#pb96768b26f)" d="M 144 56.017501 
L 1036.8 56.017501 
" style="fill:none;stroke:#ffffff;stroke-linecap:round;stroke-width:0.8;"/>
     </g>
     <g id="line2d_96"/>
     <g id="text_13">
      <!-- 10000 -->
      <g style="fill:#262626;" transform="translate(108.6875 59.81672)scale(0.1 -0.1)">
       <use xlink:href="#DejaVuSans-31"/>
       <use x="63.623047" xlink:href="#DejaVuSans-30"/>
       <use x="127.246094" xlink:href="#DejaVuSans-30"/>
       <use x="190.869141" xlink:href="#DejaVuSans-30"/>
       <use x="254.492188" xlink:href="#DejaVuSans-30"/>
      </g>
     </g>
    </g>
    <g id="text_14">
     <!-- Balance -->
     <defs>
      <path d="M 19.671875 34.8125 
L 19.671875 8.109375 
L 35.5 8.109375 
Q 43.453125 8.109375 47.28125 11.40625 
Q 51.125 14.703125 51.125 21.484375 
Q 51.125 28.328125 47.28125 31.5625 
Q 43.453125 34.8125 35.5 34.8125 
z
M 19.671875 64.796875 
L 19.671875 42.828125 
L 34.28125 42.828125 
Q 41.5 42.828125 45.03125 45.53125 
Q 48.578125 48.25 48.578125 53.8125 
Q 48.578125 59.328125 45.03125 62.0625 
Q 41.5 64.796875 34.28125 64.796875 
z
M 9.8125 72.90625 
L 35.015625 72.90625 
Q 46.296875 72.90625 52.390625 68.21875 
Q 58.5 63.53125 58.5 54.890625 
Q 58.5 48.1875 55.375 44.234375 
Q 52.25 40.28125 46.1875 39.3125 
Q 53.46875 37.75 57.5 32.78125 
Q 61.53125 27.828125 61.53125 20.40625 
Q 61.53125 10.640625 54.890625 5.3125 
Q 48.25 0 35.984375 0 
L 9.8125 0 
z
" id="DejaVuSans-42"/>
      <path d="M 9.421875 75.984375 
L 18.40625 75.984375 
L 18.40625 0 
L 9.421875 0 
z
" id="DejaVuSans-6c"/>
      <path d="M 54.890625 33.015625 
L 54.890625 0 
L 45.90625 0 
L 45.90625 32.71875 
Q 45.90625 40.484375 42.875 44.328125 
Q 39.84375 48.1875 33.796875 48.1875 
Q 26.515625 48.1875 22.3125 43.546875 
Q 18.109375 38.921875 18.109375 30.90625 
L 18.109375 0 
L 9.078125 0 
L 9.078125 54.6875 
L 18.109375 54.6875 
L 18.109375 46.1875 
Q 21.34375 51.125 25.703125 53.5625 
Q 30.078125 56 35.796875 56 
Q 45.21875 56 50.046875 50.171875 
Q 54.890625 44.34375 54.890625 33.015625 
z
" id="DejaVuSans-6e"/>
      <path d="M 48.78125 52.59375 
L 48.78125 44.1875 
Q 44.96875 46.296875 41.140625 47.34375 
Q 37.3125 48.390625 33.40625 48.390625 
Q 24.65625 48.390625 19.8125 42.84375 
Q 14.984375 37.3125 14.984375 27.296875 
Q 14.984375 17.28125 19.8125 11.734375 
Q 24.65625 6.203125 33.40625 6.203125 
Q 37.3125 6.203125 41.140625 7.25 
Q 44.96875 8.296875 48.78125 10.40625 
L 48.78125 2.09375 
Q 45.015625 0.34375 40.984375 -0.53125 
Q 36.96875 -1.421875 32.421875 -1.421875 
Q 20.0625 -1.421875 12.78125 6.34375 
Q 5.515625 14.109375 5.515625 27.296875 
Q 5.515625 40.671875 12.859375 48.328125 
Q 20.21875 56 33.015625 56 
Q 37.15625 56 41.109375 55.140625 
Q 45.0625 54.296875 48.78125 52.59375 
z
" id="DejaVuSans-63"/>
     </defs>
     <g style="fill:#262626;" transform="translate(102.399844 220.656406)rotate(-90)scale(0.11 -0.11)">
      <use xlink:href="#DejaVuSans-42"/>
      <use x="68.603516" xlink:href="#DejaVuSans-61"/>
      <use x="129.882812" xlink:href="#DejaVuSans-6c"/>
      <use x="157.666016" xlink:href="#DejaVuSans-61"/>
      <use x="218.945312" xlink:href="#DejaVuSans-6e"/>
      <use x="282.324219" xlink:href="#DejaVuSans-63"/>
      <use x="337.304688" xlink:href="#DejaVuSans-65"/>
     </g>
    </g>
   </g>
   <g id="line2d_97">
    <path clip-path="url(#pb96768b26f)" d="M 184.581818 258.248628 
L 184.846304 169.77251 
L 184.871077 111.631061 
L 185.243482 250.664961 
L 185.321728 308.80641 
L 185.513645 309.63303 
L 185.937687 310.183351 
L 185.968128 315.421896 
L 186.12083 315.673168 
L 199.76888 319.429864 
L 247.518564 323.10592 
L 250.185309 324.117076 
L 250.531406 324.522549 
L 251.194683 325.753631 
L 251.377969 327.234469 
L 252.317239 327.666485 
L 256.758116 327.7676 
L 315.475173 328.778756 
L 316.01079 328.070947 
L 316.76381 329.186505 
L 316.829465 328.680927 
L 317.078267 329.584142 
L 317.827814 328.502963 
L 317.847169 327.786812 
L 318.052056 327.597221 
L 318.572552 326.419224 
L 320.491454 327.302722 
L 320.690937 327.024654 
L 320.934789 323.586725 
L 321.288603 321.015356 
L 321.967648 321.268145 
L 322.061795 318.1098 
L 322.252523 318.615378 
L 322.314156 317.384802 
L 322.978326 316.494732 
L 322.991493 315.875652 
L 327.928886 316.109229 
L 329.512607 316.783164 
L 332.613064 317.035953 
L 332.909077 317.494259 
L 337.493614 217.314015 
L 337.802597 113.796956 
L 337.890362 115.906733 
L 338.031256 116.528846 
L 338.13833 325.421467 
L 338.365021 327.228655 
L 338.39088 327.367688 
L 338.417012 328.232985 
L 339.856304 328.485774 
L 348.11757 328.675365 
L 348.138553 328.928154 
L 348.28109 328.978712 
L 348.330735 329.737079 
L 350.074757 330.242657 
L 350.083304 330.495446 
L 360.701866 330.954005 
L 360.937647 330.224961 
L 361.012434 332.247273 
L 361.092261 331.236117 
L 372.630992 331.392341 
L 385.92056 318.752895 
L 389.242932 318.740256 
L 392.951168 318.285236 
L 393.200391 317.804937 
L 393.780703 317.349917 
L 393.928086 315.080125 
L 398.355155 315.459308 
L 398.361536 318.745564 
L 398.462058 314.167557 
L 401.108844 313.838932 
L 401.121308 313.814917 
L 401.12203 314.269937 
L 401.208097 314.225699 
L 401.345673 312.892995 
L 403.949091 312.084071 
L 404.081423 311.249868 
L 404.297859 311.755445 
L 406.954273 313.284818 
L 407.009619 312.77924 
L 408.028301 313.891512 
L 408.042592 314.270695 
L 408.203559 314.220137 
L 408.283136 297.910702 
L 408.707644 281.178857 
L 408.802409 282.666267 
L 409.396507 282.130355 
L 409.603135 265.821173 
L 409.740848 265.928861 
L 409.778128 266.109858 
L 412.735449 266.486766 
L 412.889629 266.815139 
L 413.643886 266.794663 
L 415.452174 257.512254 
L 415.622514 259.303769 
L 415.998071 260.331609 
L 417.890675 262.202247 
L 418.293275 263.67904 
L 418.5428 262.948985 
L 419.586689 263.97278 
L 419.638529 264.756426 
L 422.444833 264.010699 
L 422.62194 266.579792 
L 423.57207 266.958976 
L 423.607349 267.851573 
L 423.823992 267.85132 
L 423.873081 268.81116 
L 425.163493 268.810907 
L 426.955475 269.588991 
L 428.712353 269.588739 
L 428.748954 269.285392 
L 429.636478 269.285139 
L 429.650047 269.701735 
L 429.931424 269.701483 
L 430.525687 282.954952 
L 431.381656 276.635229 
L 431.557829 276.331883 
L 432.131033 277.229283 
L 432.183327 278.300097 
L 432.324409 278.552886 
L 435.180896 270.969219 
L 436.364891 266.388937 
L 436.473225 267.064894 
L 436.606662 265.168977 
L 436.792481 266.386156 
L 437.697907 264.23745 
L 438.366499 259.636945 
L 438.966534 259.920321 
L 440.471438 260.839967 
L 442.303839 255.485898 
L 442.589497 256.323135 
L 444.325377 256.556459 
L 444.471439 256.809248 
L 444.521845 254.786937 
L 444.541931 255.899208 
L 444.813062 257.365384 
L 445.217116 257.607556 
L 445.312702 258.478161 
L 445.33832 259.425866 
L 445.360795 249.400258 
L 445.469577 249.905836 
L 448.098664 248.49401 
L 448.361522 247.294021 
L 448.513445 245.926938 
L 449.714195 245.111947 
L 449.965065 241.333258 
L 450.761638 243.481711 
L 452.544681 240.98719 
L 453.837076 241.105748 
L 453.916903 238.704254 
L 456.966577 238.830648 
L 456.968621 239.361505 
L 457.312669 240.271545 
L 457.769149 237.57909 
L 461.574514 233.277381 
L 461.676495 231.290966 
L 463.808378 229.354603 
L 464.714752 224.656268 
L 465.269394 219.551955 
L 465.450546 221.488318 
L 467.672465 219.415449 
L 467.837207 217.852202 
L 469.170313 214.147328 
L 469.210198 214.7793 
L 469.304949 207.414043 
L 469.317059 207.755308 
L 471.469713 205.123775 
L 471.559715 201.819571 
L 471.880591 199.440069 
L 473.238366 195.348681 
L 473.681144 193.561969 
L 473.810551 187.043554 
L 473.953248 192.832925 
L 476.108545 193.338503 
L 476.177092 193.844081 
L 476.462585 192.580642 
L 476.983062 189.734239 
L 477.918999 189.194029 
L 478.054815 185.720962 
L 478.098651 185.175949 
L 478.100628 185.681527 
L 481.470862 185.795282 
L 482.031837 186.048071 
L 482.074049 188.469789 
L 482.809046 193.437091 
L 483.023367 192.717148 
L 483.787601 192.082395 
L 484.619118 191.149857 
L 486.262231 190.364189 
L 486.885547 189.508246 
L 487.015973 188.213967 
L 487.061989 188.304971 
L 487.095352 188.962222 
L 488.087208 196.350989 
L 488.217431 193.7733 
L 489.00287 193.19593 
L 489.401605 191.728491 
L 490.085856 191.70397 
L 491.231028 192.910279 
L 491.279843 192.404701 
L 491.288829 194.907311 
L 491.850031 193.64362 
L 492.594995 192.126886 
L 494.301704 192.379675 
L 494.472917 194.035442 
L 506.756069 197.068909 
L 506.83061 198.957242 
L 519.434143 200.466392 
L 519.541769 200.97197 
L 519.594741 202.010932 
L 531.842006 204.195029 
L 531.915683 205.911465 
L 544.380451 204.33381 
L 544.466729 205.774706 
L 544.557336 206.533073 
L 546.22415 204.839388 
L 546.638214 205.218571 
L 547.211022 205.21124 
L 548.816779 162.755848 
L 549.036004 111.638897 
L 549.195592 119.222565 
L 549.207755 143.982733 
L 549.213597 119.222565 
L 549.462405 86.878729 
L 549.569143 111.638897 
L 550.314461 115.317482 
L 550.589604 111.638897 
L 554.43974 107.921889 
L 554.695141 104.888422 
L 554.748222 105.141211 
L 557.064051 105.185449 
L 557.181144 106.372546 
L 557.796301 105.866968 
L 558.006035 102.497039 
L 561.279663 84.462573 
L 561.444108 84.330112 
L 562.255424 84.715362 
L 563.97313 84.822797 
L 566.213304 83.931969 
L 566.326555 82.677883 
L 566.348223 81.550445 
L 566.528997 80.814071 
L 566.60141 79.37014 
L 567.189604 79.749324 
L 567.300207 80.128507 
L 568.604594 80.03902 
L 568.642663 81.226117 
L 569.109591 83.861441 
L 569.282394 83.957501 
L 569.288468 83.861441 
L 573.326066 85.757358 
L 573.42582 86.38933 
L 573.547812 86.768513 
L 576.787666 84.240624 
L 577.77761 85.504569 
L 580.927113 86.904767 
L 580.938143 88.091863 
L 581.010352 87.99277 
L 581.087796 87.990748 
L 582.076886 88.226094 
L 582.15559 89.490039 
L 582.527508 89.869222 
L 582.895259 89.995364 
L 583.20932 90.248153 
L 583.354395 96.567875 
L 583.72275 97.073453 
L 584.943308 97.32877 
L 586.000279 97.783285 
L 586.41499 100.285895 
L 586.54864 97.783285 
L 587.049294 97.833842 
L 589.314099 99.178427 
L 589.998238 99.355379 
L 591.957893 99.987351 
L 593.327434 100.168095 
L 593.368915 101.355192 
L 593.430453 101.268232 
L 593.953195 101.460099 
L 594.309393 102.016235 
L 594.8376 102.20254 
L 595.454517 102.253604 
L 596.194757 106.930451 
L 596.711486 107.061649 
L 596.900043 109.903249 
L 597.88338 109.957093 
L 597.983709 110.864605 
L 598.608517 111.439447 
L 598.952236 112.070661 
L 599.848463 112.449844 
L 599.916067 112.070661 
L 599.980003 112.449844 
L 601.413027 112.854307 
L 602.470806 107.798528 
L 604.630124 107.841502 
L 604.640247 108.038931 
L 605.789398 108.037414 
L 605.921353 109.224511 
L 606.144009 109.134518 
L 607.339803 113.382888 
L 608.869065 113.863187 
L 610.390827 113.10482 
L 610.785111 111.588087 
L 610.796806 110.576931 
L 610.959722 109.060198 
L 612.145387 110.14719 
L 614.67424 110.956115 
L 617.369255 112.030215 
L 618.005367 112.018839 
L 618.078978 113.205683 
L 630.840957 113.116449 
L 630.965502 114.303293 
L 631.037863 112.190988 
L 636.653462 101.573854 
L 637.585525 92.220665 
L 637.692089 95.859055 
L 637.733451 94.595111 
L 638.569433 95.090577 
L 640.883714 102.44547 
L 641.768161 103.255659 
L 641.908588 95.900766 
L 641.93304 103.255659 
L 642.202939 108.46311 
L 642.43916 108.586724 
L 642.990361 110.359786 
L 643.316976 110.346388 
L 643.382177 110.673749 
L 643.558831 110.581987 
L 643.587951 111.769084 
L 647.590827 112.093665 
L 647.902358 103.899007 
L 648.226754 104.130814 
L 648.44302 103.018543 
L 648.730335 103.524626 
L 650.795044 101.91335 
L 651.250522 102.292533 
L 651.686405 106.716339 
L 653.638608 107.6011 
L 655.756535 107.503271 
L 655.83195 108.847855 
L 655.979484 108.241162 
L 659.047668 108.472969 
L 659.457107 108.53743 
L 661.912565 104.568897 
L 663.040525 104.768853 
L 667.20246 105.126297 
L 667.744468 101.068782 
L 668.009025 101.278344 
L 668.314675 101.186329 
L 668.398674 102.373426 
L 670.312521 102.583493 
L 670.829085 102.806706 
L 672.843757 103.169963 
L 673.063634 103.448031 
L 673.583176 99.435007 
L 673.66104 101.061451 
L 674.127321 101.592813 
L 674.151538 102.254615 
L 674.707293 102.446482 
L 677.726785 102.836788 
L 679.43642 99.713581 
L 680.437984 100.183515 
L 680.538016 101.370612 
L 680.713788 95.595397 
L 680.781877 95.593374 
L 681.525765 95.994297 
L 682.310393 96.074937 
L 683.104498 97.338882 
L 684.173509 97.448845 
L 684.627039 98.190022 
L 684.942444 98.280773 
L 685.103472 93.474245 
L 688.958238 94.232612 
L 690.507685 91.82682 
L 691.592035 92.1514 
L 692.365496 92.515922 
L 693.09945 92.425424 
L 693.169399 93.61252 
L 694.753568 93.600892 
L 694.783504 90.441031 
L 694.996509 89.809058 
L 695.179054 96.887148 
L 696.159776 103.206871 
L 696.336704 101.993484 
L 698.396934 103.307986 
L 699.225685 109.122131 
L 699.414558 103.307986 
L 700.537416 105.182922 
L 701.950434 99.243899 
L 702.280498 101.137288 
L 704.053782 101.319549 
L 704.61025 102.406541 
L 704.850392 103.454604 
L 704.911615 102.317054 
L 705.302723 103.833787 
L 705.812779 103.743289 
L 705.842224 105.907162 
L 705.870594 105.904634 
L 705.977346 107.584416 
L 707.458732 105.562105 
L 708.669941 106.269914 
L 708.937471 107.533858 
L 711.116285 107.905964 
L 711.20238 108.325088 
L 711.607486 107.412267 
L 712.527491 107.676431 
L 712.707133 106.459253 
L 712.940413 106.620785 
L 713.809804 104.130056 
L 714.501399 104.635634 
L 715.238708 104.837359 
L 717.618847 104.821939 
L 717.891214 106.57048 
L 718.402686 108.087213 
L 719.226014 107.076058 
L 720.30009 107.581635 
L 721.342384 107.762885 
L 721.973917 108.142068 
L 724.958088 107.130913 
L 726.402095 107.477486 
L 727.765953 109.312734 
L 728.193412 109.416377 
L 729.098012 110.680322 
L 730.362438 110.802419 
L 730.443719 112.482201 
L 730.490414 112.39145 
L 730.840259 106.727209 
L 732.881233 106.95118 
L 734.175624 108.847097 
L 734.185695 107.330363 
L 734.83767 107.709547 
L 735.499333 107.876135 
L 737.598971 109.392868 
L 738.307434 110.619653 
L 739.047065 110.843624 
L 740.654852 111.010211 
L 741.195169 111.23848 
L 741.926947 111.364874 
L 742.127351 109.797583 
L 742.453418 109.709613 
L 742.676905 111.604518 
L 742.768092 111.60199 
L 743.191897 111.866155 
L 743.345468 113.130099 
L 743.763176 113.218575 
L 743.832341 113.377074 
L 744.678437 113.629863 
L 744.978532 114.441063 
L 745.161077 116.026807 
L 745.650017 117.081695 
L 746.577701 117.297577 
L 746.86519 117.892642 
L 747.009468 119.257702 
L 752.575393 120.051965 
L 754.619812 121.31591 
L 755.105392 121.844239 
L 755.239051 121.753487 
L 755.317529 122.229489 
L 755.317864 123.909271 
L 755.330753 123.906996 
L 756.995339 123.430994 
L 757.555395 123.971963 
L 759.824339 124.87088 
L 759.891773 125.221751 
L 760.103248 125.511953 
L 760.207981 125.824905 
L 760.24578 129.464813 
L 761.466036 129.562137 
L 761.872695 129.870539 
L 763.211403 129.917052 
L 764.523737 130.776535 
L 766.807907 130.946662 
L 767.018061 127.660406 
L 767.546481 127.652316 
L 767.55105 129.332099 
L 767.556652 129.244128 
L 767.675 128.964796 
L 767.985285 119.049404 
L 768.012673 115.752531 
L 768.720891 116.384504 
L 770.280513 117.601429 
L 771.097324 116.384504 
L 771.143227 118.548124 
L 771.90942 118.600198 
L 772.190372 111.221037 
L 772.221116 118.806727 
L 772.895574 118.894192 
L 773.37012 115.551817 
L 773.631661 101.989945 
L 773.635229 98.64757 
L 773.866786 98.824522 
L 774.004697 99.203705 
L 774.019295 102.54608 
L 774.82694 102.672475 
L 778.319364 90.033029 
L 778.404019 102.672475 
L 778.678383 115.31192 
L 778.721676 127.951366 
L 779.056833 115.31192 
L 779.224539 115.45778 
L 779.311408 113.738815 
L 779.385751 98.401859 
L 779.519066 98.761325 
L 779.962103 101.024544 
L 780.002989 100.930001 
L 780.079357 101.574613 
L 780.192009 103.254395 
L 781.510946 115.89384 
L 781.848898 116.0397 
L 781.939046 115.409244 
L 782.06952 136.824509 
L 782.109268 136.822993 
L 782.213198 115.407727 
L 782.511958 115.58468 
L 782.707599 115.870078 
L 783.259891 116.279343 
L 783.633805 137.694609 
L 783.665493 116.279343 
L 784.598004 116.742706 
L 784.947825 115.984339 
L 784.966807 116.136012 
L 785.042793 116.468177 
L 785.109004 100.069507 
L 785.531445 103.058231 
L 785.615213 105.843712 
L 785.713494 107.739629 
L 786.139442 112.567897 
L 786.319079 112.643733 
L 786.347817 106.955983 
L 786.830504 106.981262 
L 786.93988 108.527066 
L 787.176587 108.527824 
L 787.737312 117.375436 
L 788.576801 118.73898 
L 789.386268 123.162785 
L 789.489834 118.73898 
L 789.515339 123.162785 
L 789.830825 123.293983 
L 790.229536 127.934682 
L 790.561663 118.968006 
L 790.65564 110.019279 
L 790.786708 110.356752 
L 791.123153 110.652768 
L 791.127444 106.178404 
L 791.170878 110.652768 
L 792.727098 110.575162 
L 792.832968 112.254944 
L 793.713837 98.223137 
L 805.031385 98.134661 
L 805.066154 99.814443 
L 815.144855 99.940838 
L 815.209622 100.320021 
L 815.39033 95.566831 
L 815.408543 97.563864 
L 815.536175 96.600485 
L 815.732992 103.929341 
L 816.128055 104.112108 
L 816.201171 104.364897 
L 816.490505 104.490027 
L 817.179892 104.565611 
L 817.479572 104.473596 
L 817.513883 104.727649 
L 817.518678 104.725121 
L 817.556293 112.94076 
L 817.707113 114.620543 
L 820.542493 115.217377 
L 820.813039 115.596561 
L 821.750766 113.574249 
L 822.427357 113.843975 
L 822.902333 114.3493 
L 823.201224 113.843722 
L 823.609408 114.045953 
L 823.800046 113.970117 
L 824.135671 114.136705 
L 824.853059 114.23782 
L 824.910406 114.726967 
L 825.108757 114.885971 
L 825.617637 115.072276 
L 825.706352 115.830643 
L 826.011549 115.67897 
L 826.0807 109.106458 
L 826.161981 110.140112 
L 826.246868 110.392901 
L 826.309955 108.135496 
L 826.325298 102.723033 
L 826.367213 102.950543 
L 826.851113 103.102216 
L 829.669281 103.289533 
L 829.790121 103.902293 
L 830.030896 103.899512 
L 830.240828 112.115152 
L 830.836682 112.266825 
L 831.734334 112.470573 
L 831.984411 112.667748 
L 832.116074 114.184482 
L 832.297014 114.260318 
L 832.398122 114.559621 
L 833.063693 114.781569 
L 833.188578 115.113734 
L 833.440717 105.301732 
L 833.491345 113.517372 
L 833.542698 107.368282 
L 833.706662 107.626632 
L 833.778442 108.208046 
L 834.312832 108.840019 
L 835.124489 109.028852 
L 835.165606 109.104689 
L 835.668512 109.180525 
L 835.676814 109.33144 
L 835.876476 109.663605 
L 836.09556 109.739442 
L 836.219444 109.968721 
L 836.388165 102.906305 
L 838.825193 104.372733 
L 839.060451 103.76604 
L 839.53013 107.810662 
L 839.724648 107.938068 
L 841.187076 108.334946 
L 842.184486 100.731562 
L 842.607381 100.626401 
L 843.42186 101.890346 
L 843.787142 102.998573 
L 844.006009 130.749486 
L 844.602716 102.998573 
L 844.622543 130.749486 
L 844.846337 129.333868 
L 845.373445 129.414761 
L 845.980757 157.241511 
L 846.006069 129.490597 
L 846.132539 128.428884 
L 846.262305 126.356015 
L 846.535484 126.431852 
L 846.60246 126.937429 
L 847.226909 127.089103 
L 847.83611 127.485223 
L 847.945477 122.122054 
L 848.205578 122.19789 
L 848.420221 123.209046 
L 848.630955 123.461835 
L 848.843512 124.296038 
L 848.882642 126.070616 
L 849.696795 126.22229 
L 850.204524 126.51148 
L 850.665124 126.927318 
L 850.828535 127.003155 
L 850.862261 126.371182 
L 851.217208 126.557488 
L 851.82764 126.633324 
L 852.018118 127.352256 
L 852.25187 127.428093 
L 852.434721 127.806265 
L 852.49878 127.174293 
L 852.575516 130.334154 
L 852.771181 130.409991 
L 853.019328 130.777293 
L 853.223006 130.802572 
L 853.291785 131.611496 
L 853.333487 128.527472 
L 853.365765 129.665022 
L 853.54737 129.718866 
L 853.603377 123.764423 
L 853.676526 123.84026 
L 853.779928 124.246997 
L 853.815476 125.005364 
L 853.88004 124.373392 
L 854.142766 124.525065 
L 854.279554 124.903995 
L 855.038318 124.901215 
L 855.122803 125.233632 
L 856.805286 125.536979 
L 857.19747 125.791285 
L 858.300402 126.018795 
L 858.762223 126.472803 
L 859.054314 126.54864 
L 859.199734 104.1341 
L 859.452889 104.898534 
L 859.652277 105.754983 
L 860.348682 107.726736 
L 860.501762 103.30293 
L 860.589579 106.733276 
L 860.68903 106.809113 
L 860.983557 108.203749 
L 861.333326 108.279586 
L 861.427515 108.476508 
L 861.997018 108.628182 
L 862.104748 106.808101 
L 864.682108 107.429204 
L 864.780923 118.02384 
L 864.812836 110.232886 
L 864.827821 110.308722 
L 864.923879 109.67675 
L 865.010196 97.346465 
L 865.278472 97.422302 
L 865.320268 96.79033 
L 865.347868 96.967282 
L 865.989167 101.391088 
L 866.987979 101.600144 
L 867.007174 101.875179 
L 867.189359 78.869618 
L 867.199252 79.220237 
L 867.313334 102.225797 
L 867.414843 102.301634 
L 867.539261 100.077091 
L 868.241371 100.228764 
L 868.863036 100.304601 
L 869.088392 100.532111 
L 869.342202 100.607948 
L 869.439765 99.344003 
L 869.797992 100.090236 
L 869.959194 100.140794 
L 870.127297 106.586658 
L 870.449754 106.738332 
L 870.726893 98.605101 
L 871.097815 98.861429 
L 871.571653 99.918087 
L 871.690101 100.92899 
L 871.789155 104.217268 
L 871.922418 104.416718 
L 871.984131 103.784746 
L 872.395354 103.860583 
L 872.396156 104.238755 
L 872.85138 104.693775 
L 873.632676 105.049702 
L 873.780843 108.209563 
L 874.319768 108.267452 
L 874.63592 109.313492 
L 874.731388 116.694928 
L 874.821069 116.315745 
L 875.802825 116.467418 
L 876.18818 109.239678 
L 876.312451 109.998045 
L 876.465711 109.543025 
L 876.469902 109.618861 
L 876.517565 108.860495 
L 876.882843 121.49994 
L 876.911184 115.180217 
L 877.496715 115.486597 
L 877.8065 115.76416 
L 878.088151 115.839996 
L 878.390474 116.050822 
L 878.997489 116.118823 
L 879.048423 116.030094 
L 879.250917 116.316503 
L 879.532673 117.936628 
L 880.20412 118.403529 
L 880.215211 118.60576 
L 880.912148 118.681596 
L 881.129646 119.086817 
L 881.596824 120.105304 
L 881.960795 113.443557 
L 882.454738 120.157631 
L 882.857588 120.792384 
L 884.438152 120.944057 
L 884.777906 121.576029 
L 884.836547 123.36173 
L 885.386743 123.437567 
L 885.691416 124.094818 
L 886.034531 124.474002 
L 886.405514 126.290037 
L 886.712094 126.47887 
L 887.198217 126.554707 
L 887.595683 119.440216 
L 887.636229 120.704161 
L 887.652761 120.987031 
L 887.8397 121.062868 
L 887.889826 119.798923 
L 888.837039 120.220323 
L 889.190443 121.458988 
L 890.263244 121.966336 
L 890.321644 122.248954 
L 890.618993 122.692093 
L 891.60922 122.6021 
L 891.766515 122.804331 
L 891.885198 123.158235 
L 892.288195 123.234072 
L 892.922636 124.971237 
L 893.200053 125.047074 
L 893.201663 125.426257 
L 893.317651 124.847371 
L 893.374329 118.751113 
L 893.395879 119.015025 
L 893.883512 119.217003 
L 893.910631 121.151091 
L 893.963787 119.532231 
L 894.583687 120.796176 
L 894.641752 118.733924 
L 894.790457 118.835039 
L 894.867118 119.965259 
L 896.124497 120.192769 
L 896.223524 117.968226 
L 896.275534 119.232171 
L 897.964445 119.358312 
L 898.846787 119.736485 
L 898.988333 125.045052 
L 898.99435 124.033896 
L 899.111962 123.528318 
L 899.229183 116.979569 
L 899.416607 117.485147 
L 899.540846 116.673694 
L 899.582902 116.977041 
L 899.747323 116.901204 
L 900.353838 117.14287 
L 900.451109 117.420938 
L 900.945647 117.864077 
L 901.270001 118.840853 
L 902.180217 119.154565 
L 902.340594 119.521867 
L 903.615781 119.774656 
L 904.728543 120.932176 
L 904.735943 114.383427 
L 906.26326 115.950718 
L 906.763211 114.838447 
L 906.860761 113.928407 
L 907.081713 118.966237 
L 908.214147 120.48297 
L 910.452603 104.991308 
L 910.60597 107.771986 
L 916.196711 107.675167 
L 916.338601 89.750917 
L 917.364546 91.014862 
L 919.216703 91.322758 
L 919.239126 91.774745 
L 919.374479 89.120461 
L 919.428599 89.470574 
L 919.543762 90.154874 
L 919.676085 92.42871 
L 921.021235 92.961842 
L 921.066378 94.352181 
L 921.256356 94.857759 
L 921.342116 96.121703 
L 921.584099 97.143981 
L 922.05762 79.431315 
L 922.192973 79.507152 
L 923.035227 79.78522 
L 924.904059 79.936893 
L 925.837217 80.442218 
L 926.045861 80.720286 
L 926.123484 81.206652 
L 927.285863 81.774669 
L 927.67001 65.542334 
L 928.197622 65.784506 
L 928.488543 66.188968 
L 928.816172 66.383363 
L 928.926993 66.866695 
L 929.031169 66.762546 
L 929.820903 67.129849 
L 929.928406 67.529002 
L 931.002972 67.760051 
L 931.131001 68.196871 
L 931.131426 80.836316 
L 931.257793 82.100261 
L 931.842569 82.485005 
L 931.97821 83.116978 
L 933.454018 65.192727 
L 933.714605 78.097095 
L 934.104401 79.89038 
L 934.382923 80.395958 
L 934.796171 112.924835 
L 935.083372 113.127066 
L 935.30618 113.602814 
L 936.434441 114.10005 
L 936.482255 114.479234 
L 937.723083 114.712558 
L 937.741079 114.952454 
L 938.034921 115.21763 
L 938.067869 115.75784 
L 938.691407 118.309744 
L 938.745748 100.385494 
L 938.883664 100.486609 
L 938.948559 99.475454 
L 939.150001 101.668145 
L 939.314247 101.288961 
L 939.585345 102.073365 
L 939.7481 120.972117 
L 940.349759 121.301754 
L 940.512651 121.933473 
L 941.000298 121.971391 
L 941.195604 122.111942 
L 941.296854 122.490114 
L 941.435237 122.488597 
L 941.631166 122.752762 
L 941.945071 122.34653 
L 942.179602 123.111217 
L 942.942326 124.375161 
L 943.005276 125.639106 
L 943.641765 125.917173 
L 944.323439 126.353993 
L 944.58011 132.926504 
L 944.784265 102.362808 
L 944.862073 102.902007 
L 947.111336 103.205101 
L 947.343724 104.021609 
L 948.295336 116.661055 
L 950.372151 109.546564 
L 951.050031 109.925747 
L 951.82941 110.127978 
L 952.939019 110.203815 
L 953.102152 106.993396 
L 953.266828 107.012608 
L 953.32327 107.214839 
L 953.545445 107.449427 
L 953.946823 107.350586 
L 954.009305 107.603375 
L 954.562942 107.856164 
L 954.893837 108.143585 
L 955.371729 108.219422 
L 955.462931 108.556895 
L 955.978749 108.632732 
L 956.220383 101.178492 
L 956.256214 101.254329 
L 956.343206 101.52001 
L 956.602207 101.595847 
L 958.799391 101.781394 
L 960.65135 102.527627 
L 960.729355 102.45179 
L 960.902824 102.98568 
L 961.079723 103.061517 
L 961.16334 103.222544 
L 961.23901 103.146707 
L 961.336729 104.209179 
L 961.604486 104.209179 
L 962.13224 96.981438 
L 962.382964 97.281246 
L 964.191097 97.693797 
L 964.689547 98.264595 
L 966.325929 98.561622 
L 966.575345 98.456967 
L 967.283251 98.729726 
L 967.497889 98.984032 
L 967.517584 99.39987 
L 967.566049 93.699733 
L 967.860321 94.291511 
L 970.12413 94.345355 
L 970.322637 94.712658 
L 970.936726 94.887588 
L 972.209544 95.062518 
L 972.263461 95.365611 
L 972.597174 95.927561 
L 973.013961 95.96548 
L 973.185145 90.20897 
L 973.265695 90.348763 
L 973.419497 90.719351 
L 975.072468 90.981493 
L 976.77222 91.992649 
L 976.807584 89.136134 
L 976.881545 91.165777 
L 976.932097 91.325539 
L 977.662265 91.838701 
L 977.7364 92.546257 
L 977.808681 92.64712 
L 978.382654 92.705767 
L 978.669573 93.201486 
L 978.760033 93.101634 
L 978.880453 93.477531 
L 979.070521 89.958204 
L 979.125122 90.034041 
L 979.298458 90.109877 
L 980.220403 90.185714 
L 980.41106 90.54341 
L 980.751881 90.619247 
L 980.936823 90.91046 
L 981.368104 90.986296 
L 981.409901 91.193583 
L 981.78247 91.276245 
L 982.730688 91.781823 
L 983.127927 92.236843 
L 983.213144 93.500788 
L 983.477531 93.562974 
L 983.612148 93.881741 
L 983.982957 93.957577 
L 983.984797 94.260671 
L 984.493343 93.755093 
L 984.516554 93.83093 
L 984.683708 87.734673 
L 984.836788 86.470728 
L 986.847127 86.669167 
L 986.893011 86.745004 
L 986.924274 87.075652 
L 987.465762 87.189407 
L 987.486641 87.486434 
L 987.590005 83.960029 
L 987.697418 81.601003 
L 990.175653 81.828513 
L 990.241869 82.090402 
L 990.328096 78.280873 
L 990.728809 78.432546 
L 990.93506 78.938124 
L 991.078545 78.432546 
L 992.176114 78.400442 
L 992.179107 82.7383 
L 992.179923 78.400442 
L 993.287314 76.681478 
L 994.153832 77.945422 
L 994.527623 78.021259 
L 994.697529 78.443922 
L 994.969377 78.519759 
L 995.088311 78.67851 
L 995.343169 78.754347 
L 995.419627 79.18156 
L 995.861381 79.257397 
L 995.903857 79.416148 
L 996.141724 76.659232 
L 996.218182 76.997211 
" style="fill:none;stroke:#1f77b4;stroke-linecap:round;stroke-width:1.5;"/>
   </g>
   <g id="patch_3">
    <path d="M 144 345.6 
L 144 51.84 
" style="fill:none;"/>
   </g>
   <g id="patch_4">
    <path d="M 1036.8 345.6 
L 1036.8 51.84 
" style="fill:none;"/>
   </g>
   <g id="patch_5">
    <path d="M 144 345.6 
L 1036.8 345.6 
" style="fill:none;"/>
   </g>
   <g id="patch_6">
    <path d="M 144 51.84 
L 1036.8 51.84 
" style="fill:none;"/>
   </g>
   <g id="text_15">
    <!-- Balance over Time -->
    <defs>
     <path id="DejaVuSans-20"/>
     <path d="M 30.609375 48.390625 
Q 23.390625 48.390625 19.1875 42.75 
Q 14.984375 37.109375 14.984375 27.296875 
Q 14.984375 17.484375 19.15625 11.84375 
Q 23.34375 6.203125 30.609375 6.203125 
Q 37.796875 6.203125 41.984375 11.859375 
Q 46.1875 17.53125 46.1875 27.296875 
Q 46.1875 37.015625 41.984375 42.703125 
Q 37.796875 48.390625 30.609375 48.390625 
z
M 30.609375 56 
Q 42.328125 56 49.015625 48.375 
Q 55.71875 40.765625 55.71875 27.296875 
Q 55.71875 13.875 49.015625 6.21875 
Q 42.328125 -1.421875 30.609375 -1.421875 
Q 18.84375 -1.421875 12.171875 6.21875 
Q 5.515625 13.875 5.515625 27.296875 
Q 5.515625 40.765625 12.171875 48.375 
Q 18.84375 56 30.609375 56 
z
" id="DejaVuSans-6f"/>
     <path d="M 2.984375 54.6875 
L 12.5 54.6875 
L 29.59375 8.796875 
L 46.6875 54.6875 
L 56.203125 54.6875 
L 35.6875 0 
L 23.484375 0 
z
" id="DejaVuSans-76"/>
     <path d="M -0.296875 72.90625 
L 61.375 72.90625 
L 61.375 64.59375 
L 35.5 64.59375 
L 35.5 0 
L 25.59375 0 
L 25.59375 64.59375 
L -0.296875 64.59375 
z
" id="DejaVuSans-54"/>
     <path d="M 9.421875 54.6875 
L 18.40625 54.6875 
L 18.40625 0 
L 9.421875 0 
z
M 9.421875 75.984375 
L 18.40625 75.984375 
L 18.40625 64.59375 
L 9.421875 64.59375 
z
" id="DejaVuSans-69"/>
     <path d="M 52 44.1875 
Q 55.375 50.25 60.0625 53.125 
Q 64.75 56 71.09375 56 
Q 79.640625 56 84.28125 50.015625 
Q 88.921875 44.046875 88.921875 33.015625 
L 88.921875 0 
L 79.890625 0 
L 79.890625 32.71875 
Q 79.890625 40.578125 77.09375 44.375 
Q 74.3125 48.1875 68.609375 48.1875 
Q 61.625 48.1875 57.5625 43.546875 
Q 53.515625 38.921875 53.515625 30.90625 
L 53.515625 0 
L 44.484375 0 
L 44.484375 32.71875 
Q 44.484375 40.625 41.703125 44.40625 
Q 38.921875 48.1875 33.109375 48.1875 
Q 26.21875 48.1875 22.15625 43.53125 
Q 18.109375 38.875 18.109375 30.90625 
L 18.109375 0 
L 9.078125 0 
L 9.078125 54.6875 
L 18.109375 54.6875 
L 18.109375 46.1875 
Q 21.1875 51.21875 25.484375 53.609375 
Q 29.78125 56 35.6875 56 
Q 41.65625 56 45.828125 52.96875 
Q 50 49.953125 52 44.1875 
z
" id="DejaVuSans-6d"/>
    </defs>
    <g style="fill:#262626;" transform="translate(539.075547 45.84)scale(0.11 -0.11)">
     <use xlink:href="#DejaVuSans-42"/>
     <use x="68.603516" xlink:href="#DejaVuSans-61"/>
     <use x="129.882812" xlink:href="#DejaVuSans-6c"/>
     <use x="157.666016" xlink:href="#DejaVuSans-61"/>
     <use x="218.945312" xlink:href="#DejaVuSans-6e"/>
     <use x="282.324219" xlink:href="#DejaVuSans-63"/>
     <use x="337.304688" xlink:href="#DejaVuSans-65"/>
     <use x="398.828125" xlink:href="#DejaVuSans-20"/>
     <use x="430.615234" xlink:href="#DejaVuSans-6f"/>
     <use x="491.796875" xlink:href="#DejaVuSans-76"/>
     <use x="550.976562" xlink:href="#DejaVuSans-65"/>
     <use x="612.5" xlink:href="#DejaVuSans-72"/>
     <use x="653.613281" xlink:href="#DejaVuSans-20"/>
     <use x="685.400391" xlink:href="#DejaVuSans-54"/>
     <use x="746.4375" xlink:href="#DejaVuSans-69"/>
     <use x="774.220703" xlink:href="#DejaVuSans-6d"/>
     <use x="871.632812" xlink:href="#DejaVuSans-65"/>
    </g>
   </g>
   <g id="legend_1">
    <g id="line2d_98">
     <path d="M 959.915625 64.938438 
L 979.915625 64.938438 
" style="fill:none;stroke:#1f77b4;stroke-linecap:round;stroke-width:1.5;"/>
    </g>
    <g id="line2d_99"/>
    <g id="text_16">
     <!-- Balance -->
     <g style="fill:#262626;" transform="translate(987.915625 68.438438)scale(0.1 -0.1)">
      <use xlink:href="#DejaVuSans-42"/>
      <use x="68.603516" xlink:href="#DejaVuSans-61"/>
      <use x="129.882812" xlink:href="#DejaVuSans-6c"/>
      <use x="157.666016" xlink:href="#DejaVuSans-61"/>
      <use x="218.945312" xlink:href="#DejaVuSans-6e"/>
      <use x="282.324219" xlink:href="#DejaVuSans-63"/>
      <use x="337.304688" xlink:href="#DejaVuSans-65"/>
     </g>
    </g>
   </g>
  </g>
 </g>
 <defs>
  <clipPath id="pb96768b26f">
   <rect height="293.76" width="892.8" x="144" y="51.84"/>
  </clipPath>
 </defs>
</svg>
