<?xml version="1.0" encoding="utf-8" standalone="no"?>
<!DOCTYPE svg PUBLIC "-//W3C//DTD SVG 1.1//EN"
  "http://www.w3.org/Graphics/SVG/1.1/DTD/svg11.dtd">
<!-- Created with matplotlib (http://matplotlib.org/) -->
<svg height="432pt" version="1.1" viewBox="0 0 1152 432" width="1152pt" xmlns="http://www.w3.org/2000/svg" xmlns:xlink="http://www.w3.org/1999/xlink">
 <defs>
  <style type="text/css">
*{stroke-linecap:butt;stroke-linejoin:round;}
  </style>
 </defs>
 <g id="figure_1">
  <g id="patch_1">
   <path d="M 0 432 
L 1152 432 
L 1152 0 
L 0 0 
z
" style="fill:#ffffff;"/>
  </g>
  <g id="axes_1">
   <g id="patch_2">
    <path d="M 144 345.6 
L 1036.8 345.6 
L 1036.8 51.84 
L 144 51.84 
z
" style="fill:#eaeaf2;"/>
   </g>
   <g id="matplotlib.axis_1">
    <g id="xtick_1">
     <g id="line2d_1">
      <path clip-path="url(#p7853df042b)" d="M 182.053624 345.6 
L 182.053624 51.84 
" style="fill:none;stroke:#ffffff;stroke-linecap:round;stroke-width:0.8;"/>
     </g>
     <g id="line2d_2"/>
     <g id="text_1">
      <!-- 2015 -->
      <defs>
       <path d="M 19.1875 8.296875 
L 53.609375 8.296875 
L 53.609375 0 
L 7.328125 0 
L 7.328125 8.296875 
Q 12.9375 14.109375 22.625 23.890625 
Q 32.328125 33.6875 34.8125 36.53125 
Q 39.546875 41.84375 41.421875 45.53125 
Q 43.3125 49.21875 43.3125 52.78125 
Q 43.3125 58.59375 39.234375 62.25 
Q 35.15625 65.921875 28.609375 65.921875 
Q 23.96875 65.921875 18.8125 64.3125 
Q 13.671875 62.703125 7.8125 59.421875 
L 7.8125 69.390625 
Q 13.765625 71.78125 18.9375 73 
Q 24.125 74.21875 28.421875 74.21875 
Q 39.75 74.21875 46.484375 68.546875 
Q 53.21875 62.890625 53.21875 53.421875 
Q 53.21875 48.921875 51.53125 44.890625 
Q 49.859375 40.875 45.40625 35.40625 
Q 44.1875 33.984375 37.640625 27.21875 
Q 31.109375 20.453125 19.1875 8.296875 
z
" id="DejaVuSans-32"/>
       <path d="M 31.78125 66.40625 
Q 24.171875 66.40625 20.328125 58.90625 
Q 16.5 51.421875 16.5 36.375 
Q 16.5 21.390625 20.328125 13.890625 
Q 24.171875 6.390625 31.78125 6.390625 
Q 39.453125 6.390625 43.28125 13.890625 
Q 47.125 21.390625 47.125 36.375 
Q 47.125 51.421875 43.28125 58.90625 
Q 39.453125 66.40625 31.78125 66.40625 
z
M 31.78125 74.21875 
Q 44.046875 74.21875 50.515625 64.515625 
Q 56.984375 54.828125 56.984375 36.375 
Q 56.984375 17.96875 50.515625 8.265625 
Q 44.046875 -1.421875 31.78125 -1.421875 
Q 19.53125 -1.421875 13.0625 8.265625 
Q 6.59375 17.96875 6.59375 36.375 
Q 6.59375 54.828125 13.0625 64.515625 
Q 19.53125 74.21875 31.78125 74.21875 
z
" id="DejaVuSans-30"/>
       <path d="M 12.40625 8.296875 
L 28.515625 8.296875 
L 28.515625 63.921875 
L 10.984375 60.40625 
L 10.984375 69.390625 
L 28.421875 72.90625 
L 38.28125 72.90625 
L 38.28125 8.296875 
L 54.390625 8.296875 
L 54.390625 0 
L 12.40625 0 
z
" id="DejaVuSans-31"/>
       <path d="M 10.796875 72.90625 
L 49.515625 72.90625 
L 49.515625 64.59375 
L 19.828125 64.59375 
L 19.828125 46.734375 
Q 21.96875 47.46875 24.109375 47.828125 
Q 26.265625 48.1875 28.421875 48.1875 
Q 40.625 48.1875 47.75 41.5 
Q 54.890625 34.8125 54.890625 23.390625 
Q 54.890625 11.625 47.5625 5.09375 
Q 40.234375 -1.421875 26.90625 -1.421875 
Q 22.3125 -1.421875 17.546875 -0.640625 
Q 12.796875 0.140625 7.71875 1.703125 
L 7.71875 11.625 
Q 12.109375 9.234375 16.796875 8.0625 
Q 21.484375 6.890625 26.703125 6.890625 
Q 35.15625 6.890625 40.078125 11.328125 
Q 45.015625 15.765625 45.015625 23.390625 
Q 45.015625 31 40.078125 35.4375 
Q 35.15625 39.890625 26.703125 39.890625 
Q 22.75 39.890625 18.8125 39.015625 
Q 14.890625 38.140625 10.796875 36.28125 
z
" id="DejaVuSans-35"/>
      </defs>
      <g style="fill:#262626;" transform="translate(158.973433 368.40544)rotate(-30)scale(0.1 -0.1)">
       <use xlink:href="#DejaVuSans-32"/>
       <use x="63.623047" xlink:href="#DejaVuSans-30"/>
       <use x="127.246094" xlink:href="#DejaVuSans-31"/>
       <use x="190.869141" xlink:href="#DejaVuSans-35"/>
      </g>
     </g>
    </g>
    <g id="xtick_2">
     <g id="line2d_3">
      <path clip-path="url(#p7853df042b)" d="M 453.805024 345.6 
L 453.805024 51.84 
" style="fill:none;stroke:#ffffff;stroke-linecap:round;stroke-width:0.8;"/>
     </g>
     <g id="line2d_4"/>
     <g id="text_2">
      <!-- 2016 -->
      <defs>
       <path d="M 33.015625 40.375 
Q 26.375 40.375 22.484375 35.828125 
Q 18.609375 31.296875 18.609375 23.390625 
Q 18.609375 15.53125 22.484375 10.953125 
Q 26.375 6.390625 33.015625 6.390625 
Q 39.65625 6.390625 43.53125 10.953125 
Q 47.40625 15.53125 47.40625 23.390625 
Q 47.40625 31.296875 43.53125 35.828125 
Q 39.65625 40.375 33.015625 40.375 
z
M 52.59375 71.296875 
L 52.59375 62.3125 
Q 48.875 64.0625 45.09375 64.984375 
Q 41.3125 65.921875 37.59375 65.921875 
Q 27.828125 65.921875 22.671875 59.328125 
Q 17.53125 52.734375 16.796875 39.40625 
Q 19.671875 43.65625 24.015625 45.921875 
Q 28.375 48.1875 33.59375 48.1875 
Q 44.578125 48.1875 50.953125 41.515625 
Q 57.328125 34.859375 57.328125 23.390625 
Q 57.328125 12.15625 50.6875 5.359375 
Q 44.046875 -1.421875 33.015625 -1.421875 
Q 20.359375 -1.421875 13.671875 8.265625 
Q 6.984375 17.96875 6.984375 36.375 
Q 6.984375 53.65625 15.1875 63.9375 
Q 23.390625 74.21875 37.203125 74.21875 
Q 40.921875 74.21875 44.703125 73.484375 
Q 48.484375 72.75 52.59375 71.296875 
z
" id="DejaVuSans-36"/>
      </defs>
      <g style="fill:#262626;" transform="translate(430.724834 368.40544)rotate(-30)scale(0.1 -0.1)">
       <use xlink:href="#DejaVuSans-32"/>
       <use x="63.623047" xlink:href="#DejaVuSans-30"/>
       <use x="127.246094" xlink:href="#DejaVuSans-31"/>
       <use x="190.869141" xlink:href="#DejaVuSans-36"/>
      </g>
     </g>
    </g>
    <g id="xtick_3">
     <g id="line2d_5">
      <path clip-path="url(#p7853df042b)" d="M 726.300948 345.6 
L 726.300948 51.84 
" style="fill:none;stroke:#ffffff;stroke-linecap:round;stroke-width:0.8;"/>
     </g>
     <g id="line2d_6"/>
     <g id="text_3">
      <!-- 2017 -->
      <defs>
       <path d="M 8.203125 72.90625 
L 55.078125 72.90625 
L 55.078125 68.703125 
L 28.609375 0 
L 18.3125 0 
L 43.21875 64.59375 
L 8.203125 64.59375 
z
" id="DejaVuSans-37"/>
      </defs>
      <g style="fill:#262626;" transform="translate(703.220758 368.40544)rotate(-30)scale(0.1 -0.1)">
       <use xlink:href="#DejaVuSans-32"/>
       <use x="63.623047" xlink:href="#DejaVuSans-30"/>
       <use x="127.246094" xlink:href="#DejaVuSans-31"/>
       <use x="190.869141" xlink:href="#DejaVuSans-37"/>
      </g>
     </g>
    </g>
    <g id="xtick_4">
     <g id="line2d_7">
      <path clip-path="url(#p7853df042b)" d="M 998.052349 345.6 
L 998.052349 51.84 
" style="fill:none;stroke:#ffffff;stroke-linecap:round;stroke-width:0.8;"/>
     </g>
     <g id="line2d_8"/>
     <g id="text_4">
      <!-- 2018 -->
      <defs>
       <path d="M 31.78125 34.625 
Q 24.75 34.625 20.71875 30.859375 
Q 16.703125 27.09375 16.703125 20.515625 
Q 16.703125 13.921875 20.71875 10.15625 
Q 24.75 6.390625 31.78125 6.390625 
Q 38.8125 6.390625 42.859375 10.171875 
Q 46.921875 13.96875 46.921875 20.515625 
Q 46.921875 27.09375 42.890625 30.859375 
Q 38.875 34.625 31.78125 34.625 
z
M 21.921875 38.8125 
Q 15.578125 40.375 12.03125 44.71875 
Q 8.5 49.078125 8.5 55.328125 
Q 8.5 64.0625 14.71875 69.140625 
Q 20.953125 74.21875 31.78125 74.21875 
Q 42.671875 74.21875 48.875 69.140625 
Q 55.078125 64.0625 55.078125 55.328125 
Q 55.078125 49.078125 51.53125 44.71875 
Q 48 40.375 41.703125 38.8125 
Q 48.828125 37.15625 52.796875 32.3125 
Q 56.78125 27.484375 56.78125 20.515625 
Q 56.78125 9.90625 50.3125 4.234375 
Q 43.84375 -1.421875 31.78125 -1.421875 
Q 19.734375 -1.421875 13.25 4.234375 
Q 6.78125 9.90625 6.78125 20.515625 
Q 6.78125 27.484375 10.78125 32.3125 
Q 14.796875 37.15625 21.921875 38.8125 
z
M 18.3125 54.390625 
Q 18.3125 48.734375 21.84375 45.5625 
Q 25.390625 42.390625 31.78125 42.390625 
Q 38.140625 42.390625 41.71875 45.5625 
Q 45.3125 48.734375 45.3125 54.390625 
Q 45.3125 60.0625 41.71875 63.234375 
Q 38.140625 66.40625 31.78125 66.40625 
Q 25.390625 66.40625 21.84375 63.234375 
Q 18.3125 60.0625 18.3125 54.390625 
z
" id="DejaVuSans-38"/>
      </defs>
      <g style="fill:#262626;" transform="translate(974.972158 368.40544)rotate(-30)scale(0.1 -0.1)">
       <use xlink:href="#DejaVuSans-32"/>
       <use x="63.623047" xlink:href="#DejaVuSans-30"/>
       <use x="127.246094" xlink:href="#DejaVuSans-31"/>
       <use x="190.869141" xlink:href="#DejaVuSans-38"/>
      </g>
     </g>
    </g>
    <g id="xtick_5">
     <g id="line2d_9"/>
    </g>
    <g id="xtick_6">
     <g id="line2d_10"/>
    </g>
    <g id="xtick_7">
     <g id="line2d_11"/>
    </g>
    <g id="xtick_8">
     <g id="line2d_12"/>
    </g>
    <g id="xtick_9">
     <g id="line2d_13"/>
    </g>
    <g id="xtick_10">
     <g id="line2d_14"/>
    </g>
    <g id="xtick_11">
     <g id="line2d_15"/>
    </g>
    <g id="xtick_12">
     <g id="line2d_16"/>
    </g>
    <g id="xtick_13">
     <g id="line2d_17"/>
    </g>
    <g id="xtick_14">
     <g id="line2d_18"/>
    </g>
    <g id="xtick_15">
     <g id="line2d_19"/>
    </g>
    <g id="xtick_16">
     <g id="line2d_20"/>
    </g>
    <g id="xtick_17">
     <g id="line2d_21"/>
    </g>
    <g id="xtick_18">
     <g id="line2d_22"/>
    </g>
    <g id="xtick_19">
     <g id="line2d_23"/>
    </g>
    <g id="xtick_20">
     <g id="line2d_24"/>
    </g>
    <g id="xtick_21">
     <g id="line2d_25"/>
    </g>
    <g id="xtick_22">
     <g id="line2d_26"/>
    </g>
    <g id="xtick_23">
     <g id="line2d_27"/>
    </g>
    <g id="xtick_24">
     <g id="line2d_28"/>
    </g>
    <g id="xtick_25">
     <g id="line2d_29"/>
    </g>
    <g id="xtick_26">
     <g id="line2d_30"/>
    </g>
    <g id="xtick_27">
     <g id="line2d_31"/>
    </g>
    <g id="xtick_28">
     <g id="line2d_32"/>
    </g>
    <g id="xtick_29">
     <g id="line2d_33"/>
    </g>
    <g id="xtick_30">
     <g id="line2d_34"/>
    </g>
    <g id="xtick_31">
     <g id="line2d_35"/>
    </g>
    <g id="xtick_32">
     <g id="line2d_36"/>
    </g>
    <g id="xtick_33">
     <g id="line2d_37"/>
    </g>
    <g id="xtick_34">
     <g id="line2d_38"/>
    </g>
    <g id="xtick_35">
     <g id="line2d_39"/>
    </g>
    <g id="xtick_36">
     <g id="line2d_40"/>
    </g>
    <g id="xtick_37">
     <g id="line2d_41"/>
    </g>
    <g id="xtick_38">
     <g id="line2d_42"/>
    </g>
    <g id="xtick_39">
     <g id="line2d_43"/>
    </g>
    <g id="xtick_40">
     <g id="line2d_44"/>
    </g>
    <g id="xtick_41">
     <g id="line2d_45"/>
    </g>
    <g id="xtick_42">
     <g id="line2d_46"/>
    </g>
    <g id="xtick_43">
     <g id="line2d_47"/>
    </g>
    <g id="text_5">
     <!-- Year -->
     <defs>
      <path d="M -0.203125 72.90625 
L 10.40625 72.90625 
L 30.609375 42.921875 
L 50.6875 72.90625 
L 61.28125 72.90625 
L 35.5 34.71875 
L 35.5 0 
L 25.59375 0 
L 25.59375 34.71875 
z
" id="DejaVuSans-59"/>
      <path d="M 56.203125 29.59375 
L 56.203125 25.203125 
L 14.890625 25.203125 
Q 15.484375 15.921875 20.484375 11.0625 
Q 25.484375 6.203125 34.421875 6.203125 
Q 39.59375 6.203125 44.453125 7.46875 
Q 49.3125 8.734375 54.109375 11.28125 
L 54.109375 2.78125 
Q 49.265625 0.734375 44.1875 -0.34375 
Q 39.109375 -1.421875 33.890625 -1.421875 
Q 20.796875 -1.421875 13.15625 6.1875 
Q 5.515625 13.8125 5.515625 26.8125 
Q 5.515625 40.234375 12.765625 48.109375 
Q 20.015625 56 32.328125 56 
Q 43.359375 56 49.78125 48.890625 
Q 56.203125 41.796875 56.203125 29.59375 
z
M 47.21875 32.234375 
Q 47.125 39.59375 43.09375 43.984375 
Q 39.0625 48.390625 32.421875 48.390625 
Q 24.90625 48.390625 20.390625 44.140625 
Q 15.875 39.890625 15.1875 32.171875 
z
" id="DejaVuSans-65"/>
      <path d="M 34.28125 27.484375 
Q 23.390625 27.484375 19.1875 25 
Q 14.984375 22.515625 14.984375 16.5 
Q 14.984375 11.71875 18.140625 8.90625 
Q 21.296875 6.109375 26.703125 6.109375 
Q 34.1875 6.109375 38.703125 11.40625 
Q 43.21875 16.703125 43.21875 25.484375 
L 43.21875 27.484375 
z
M 52.203125 31.203125 
L 52.203125 0 
L 43.21875 0 
L 43.21875 8.296875 
Q 40.140625 3.328125 35.546875 0.953125 
Q 30.953125 -1.421875 24.3125 -1.421875 
Q 15.921875 -1.421875 10.953125 3.296875 
Q 6 8.015625 6 15.921875 
Q 6 25.140625 12.171875 29.828125 
Q 18.359375 34.515625 30.609375 34.515625 
L 43.21875 34.515625 
L 43.21875 35.40625 
Q 43.21875 41.609375 39.140625 45 
Q 35.0625 48.390625 27.6875 48.390625 
Q 23 48.390625 18.546875 47.265625 
Q 14.109375 46.140625 10.015625 43.890625 
L 10.015625 52.203125 
Q 14.9375 54.109375 19.578125 55.046875 
Q 24.21875 56 28.609375 56 
Q 40.484375 56 46.34375 49.84375 
Q 52.203125 43.703125 52.203125 31.203125 
z
" id="DejaVuSans-61"/>
      <path d="M 41.109375 46.296875 
Q 39.59375 47.171875 37.8125 47.578125 
Q 36.03125 48 33.890625 48 
Q 26.265625 48 22.1875 43.046875 
Q 18.109375 38.09375 18.109375 28.8125 
L 18.109375 0 
L 9.078125 0 
L 9.078125 54.6875 
L 18.109375 54.6875 
L 18.109375 46.1875 
Q 20.953125 51.171875 25.484375 53.578125 
Q 30.03125 56 36.53125 56 
Q 37.453125 56 38.578125 55.875 
Q 39.703125 55.765625 41.0625 55.515625 
z
" id="DejaVuSans-72"/>
     </defs>
     <g style="fill:#262626;" transform="translate(578.036172 382.564783)scale(0.11 -0.11)">
      <use xlink:href="#DejaVuSans-59"/>
      <use x="60.880859" xlink:href="#DejaVuSans-65"/>
      <use x="122.404297" xlink:href="#DejaVuSans-61"/>
      <use x="183.683594" xlink:href="#DejaVuSans-72"/>
     </g>
    </g>
   </g>
   <g id="matplotlib.axis_2">
    <g id="ytick_1">
     <g id="line2d_48">
      <path clip-path="url(#p7853df042b)" d="M 144 327.389117 
L 1036.8 327.389117 
" style="fill:none;stroke:#ffffff;stroke-linecap:round;stroke-width:0.8;"/>
     </g>
     <g id="line2d_49"/>
     <g id="text_6">
      <!-- −4000 -->
      <defs>
       <path d="M 10.59375 35.5 
L 73.1875 35.5 
L 73.1875 27.203125 
L 10.59375 27.203125 
z
" id="DejaVuSans-2212"/>
       <path d="M 37.796875 64.3125 
L 12.890625 25.390625 
L 37.796875 25.390625 
z
M 35.203125 72.90625 
L 47.609375 72.90625 
L 47.609375 25.390625 
L 58.015625 25.390625 
L 58.015625 17.1875 
L 47.609375 17.1875 
L 47.609375 0 
L 37.796875 0 
L 37.796875 17.1875 
L 4.890625 17.1875 
L 4.890625 26.703125 
z
" id="DejaVuSans-34"/>
      </defs>
      <g style="fill:#262626;" transform="translate(106.670312 331.188336)scale(0.1 -0.1)">
       <use xlink:href="#DejaVuSans-2212"/>
       <use x="83.789062" xlink:href="#DejaVuSans-34"/>
       <use x="147.412109" xlink:href="#DejaVuSans-30"/>
       <use x="211.035156" xlink:href="#DejaVuSans-30"/>
       <use x="274.658203" xlink:href="#DejaVuSans-30"/>
      </g>
     </g>
    </g>
    <g id="ytick_2">
     <g id="line2d_50">
      <path clip-path="url(#p7853df042b)" d="M 144 284.205511 
L 1036.8 284.205511 
" style="fill:none;stroke:#ffffff;stroke-linecap:round;stroke-width:0.8;"/>
     </g>
     <g id="line2d_51"/>
     <g id="text_7">
      <!-- −2000 -->
      <g style="fill:#262626;" transform="translate(106.670312 288.00473)scale(0.1 -0.1)">
       <use xlink:href="#DejaVuSans-2212"/>
       <use x="83.789062" xlink:href="#DejaVuSans-32"/>
       <use x="147.412109" xlink:href="#DejaVuSans-30"/>
       <use x="211.035156" xlink:href="#DejaVuSans-30"/>
       <use x="274.658203" xlink:href="#DejaVuSans-30"/>
      </g>
     </g>
    </g>
    <g id="ytick_3">
     <g id="line2d_52">
      <path clip-path="url(#p7853df042b)" d="M 144 241.021905 
L 1036.8 241.021905 
" style="fill:none;stroke:#ffffff;stroke-linecap:round;stroke-width:0.8;"/>
     </g>
     <g id="line2d_53"/>
     <g id="text_8">
      <!-- 0 -->
      <g style="fill:#262626;" transform="translate(134.1375 244.821124)scale(0.1 -0.1)">
       <use xlink:href="#DejaVuSans-30"/>
      </g>
     </g>
    </g>
    <g id="ytick_4">
     <g id="line2d_54">
      <path clip-path="url(#p7853df042b)" d="M 144 197.838299 
L 1036.8 197.838299 
" style="fill:none;stroke:#ffffff;stroke-linecap:round;stroke-width:0.8;"/>
     </g>
     <g id="line2d_55"/>
     <g id="text_9">
      <!-- 2000 -->
      <g style="fill:#262626;" transform="translate(115.05 201.637517)scale(0.1 -0.1)">
       <use xlink:href="#DejaVuSans-32"/>
       <use x="63.623047" xlink:href="#DejaVuSans-30"/>
       <use x="127.246094" xlink:href="#DejaVuSans-30"/>
       <use x="190.869141" xlink:href="#DejaVuSans-30"/>
      </g>
     </g>
    </g>
    <g id="ytick_5">
     <g id="line2d_56">
      <path clip-path="url(#p7853df042b)" d="M 144 154.654693 
L 1036.8 154.654693 
" style="fill:none;stroke:#ffffff;stroke-linecap:round;stroke-width:0.8;"/>
     </g>
     <g id="line2d_57"/>
     <g id="text_10">
      <!-- 4000 -->
      <g style="fill:#262626;" transform="translate(115.05 158.453911)scale(0.1 -0.1)">
       <use xlink:href="#DejaVuSans-34"/>
       <use x="63.623047" xlink:href="#DejaVuSans-30"/>
       <use x="127.246094" xlink:href="#DejaVuSans-30"/>
       <use x="190.869141" xlink:href="#DejaVuSans-30"/>
      </g>
     </g>
    </g>
    <g id="ytick_6">
     <g id="line2d_58">
      <path clip-path="url(#p7853df042b)" d="M 144 111.471087 
L 1036.8 111.471087 
" style="fill:none;stroke:#ffffff;stroke-linecap:round;stroke-width:0.8;"/>
     </g>
     <g id="line2d_59"/>
     <g id="text_11">
      <!-- 6000 -->
      <g style="fill:#262626;" transform="translate(115.05 115.270305)scale(0.1 -0.1)">
       <use xlink:href="#DejaVuSans-36"/>
       <use x="63.623047" xlink:href="#DejaVuSans-30"/>
       <use x="127.246094" xlink:href="#DejaVuSans-30"/>
       <use x="190.869141" xlink:href="#DejaVuSans-30"/>
      </g>
     </g>
    </g>
    <g id="ytick_7">
     <g id="line2d_60">
      <path clip-path="url(#p7853df042b)" d="M 144 68.28748 
L 1036.8 68.28748 
" style="fill:none;stroke:#ffffff;stroke-linecap:round;stroke-width:0.8;"/>
     </g>
     <g id="line2d_61"/>
     <g id="text_12">
      <!-- 8000 -->
      <g style="fill:#262626;" transform="translate(115.05 72.086699)scale(0.1 -0.1)">
       <use xlink:href="#DejaVuSans-38"/>
       <use x="63.623047" xlink:href="#DejaVuSans-30"/>
       <use x="127.246094" xlink:href="#DejaVuSans-30"/>
       <use x="190.869141" xlink:href="#DejaVuSans-30"/>
      </g>
     </g>
    </g>
    <g id="text_13">
     <!-- Change in Balance -->
     <defs>
      <path d="M 64.40625 67.28125 
L 64.40625 56.890625 
Q 59.421875 61.53125 53.78125 63.8125 
Q 48.140625 66.109375 41.796875 66.109375 
Q 29.296875 66.109375 22.65625 58.46875 
Q 16.015625 50.828125 16.015625 36.375 
Q 16.015625 21.96875 22.65625 14.328125 
Q 29.296875 6.6875 41.796875 6.6875 
Q 48.140625 6.6875 53.78125 8.984375 
Q 59.421875 11.28125 64.40625 15.921875 
L 64.40625 5.609375 
Q 59.234375 2.09375 53.4375 0.328125 
Q 47.65625 -1.421875 41.21875 -1.421875 
Q 24.65625 -1.421875 15.125 8.703125 
Q 5.609375 18.84375 5.609375 36.375 
Q 5.609375 53.953125 15.125 64.078125 
Q 24.65625 74.21875 41.21875 74.21875 
Q 47.75 74.21875 53.53125 72.484375 
Q 59.328125 70.75 64.40625 67.28125 
z
" id="DejaVuSans-43"/>
      <path d="M 54.890625 33.015625 
L 54.890625 0 
L 45.90625 0 
L 45.90625 32.71875 
Q 45.90625 40.484375 42.875 44.328125 
Q 39.84375 48.1875 33.796875 48.1875 
Q 26.515625 48.1875 22.3125 43.546875 
Q 18.109375 38.921875 18.109375 30.90625 
L 18.109375 0 
L 9.078125 0 
L 9.078125 75.984375 
L 18.109375 75.984375 
L 18.109375 46.1875 
Q 21.34375 51.125 25.703125 53.5625 
Q 30.078125 56 35.796875 56 
Q 45.21875 56 50.046875 50.171875 
Q 54.890625 44.34375 54.890625 33.015625 
z
" id="DejaVuSans-68"/>
      <path d="M 54.890625 33.015625 
L 54.890625 0 
L 45.90625 0 
L 45.90625 32.71875 
Q 45.90625 40.484375 42.875 44.328125 
Q 39.84375 48.1875 33.796875 48.1875 
Q 26.515625 48.1875 22.3125 43.546875 
Q 18.109375 38.921875 18.109375 30.90625 
L 18.109375 0 
L 9.078125 0 
L 9.078125 54.6875 
L 18.109375 54.6875 
L 18.109375 46.1875 
Q 21.34375 51.125 25.703125 53.5625 
Q 30.078125 56 35.796875 56 
Q 45.21875 56 50.046875 50.171875 
Q 54.890625 44.34375 54.890625 33.015625 
z
" id="DejaVuSans-6e"/>
      <path d="M 45.40625 27.984375 
Q 45.40625 37.75 41.375 43.109375 
Q 37.359375 48.484375 30.078125 48.484375 
Q 22.859375 48.484375 18.828125 43.109375 
Q 14.796875 37.75 14.796875 27.984375 
Q 14.796875 18.265625 18.828125 12.890625 
Q 22.859375 7.515625 30.078125 7.515625 
Q 37.359375 7.515625 41.375 12.890625 
Q 45.40625 18.265625 45.40625 27.984375 
z
M 54.390625 6.78125 
Q 54.390625 -7.171875 48.1875 -13.984375 
Q 42 -20.796875 29.203125 -20.796875 
Q 24.46875 -20.796875 20.265625 -20.09375 
Q 16.0625 -19.390625 12.109375 -17.921875 
L 12.109375 -9.1875 
Q 16.0625 -11.328125 19.921875 -12.34375 
Q 23.78125 -13.375 27.78125 -13.375 
Q 36.625 -13.375 41.015625 -8.765625 
Q 45.40625 -4.15625 45.40625 5.171875 
L 45.40625 9.625 
Q 42.625 4.78125 38.28125 2.390625 
Q 33.9375 0 27.875 0 
Q 17.828125 0 11.671875 7.65625 
Q 5.515625 15.328125 5.515625 27.984375 
Q 5.515625 40.671875 11.671875 48.328125 
Q 17.828125 56 27.875 56 
Q 33.9375 56 38.28125 53.609375 
Q 42.625 51.21875 45.40625 46.390625 
L 45.40625 54.6875 
L 54.390625 54.6875 
z
" id="DejaVuSans-67"/>
      <path id="DejaVuSans-20"/>
      <path d="M 9.421875 54.6875 
L 18.40625 54.6875 
L 18.40625 0 
L 9.421875 0 
z
M 9.421875 75.984375 
L 18.40625 75.984375 
L 18.40625 64.59375 
L 9.421875 64.59375 
z
" id="DejaVuSans-69"/>
      <path d="M 19.671875 34.8125 
L 19.671875 8.109375 
L 35.5 8.109375 
Q 43.453125 8.109375 47.28125 11.40625 
Q 51.125 14.703125 51.125 21.484375 
Q 51.125 28.328125 47.28125 31.5625 
Q 43.453125 34.8125 35.5 34.8125 
z
M 19.671875 64.796875 
L 19.671875 42.828125 
L 34.28125 42.828125 
Q 41.5 42.828125 45.03125 45.53125 
Q 48.578125 48.25 48.578125 53.8125 
Q 48.578125 59.328125 45.03125 62.0625 
Q 41.5 64.796875 34.28125 64.796875 
z
M 9.8125 72.90625 
L 35.015625 72.90625 
Q 46.296875 72.90625 52.390625 68.21875 
Q 58.5 63.53125 58.5 54.890625 
Q 58.5 48.1875 55.375 44.234375 
Q 52.25 40.28125 46.1875 39.3125 
Q 53.46875 37.75 57.5 32.78125 
Q 61.53125 27.828125 61.53125 20.40625 
Q 61.53125 10.640625 54.890625 5.3125 
Q 48.25 0 35.984375 0 
L 9.8125 0 
z
" id="DejaVuSans-42"/>
      <path d="M 9.421875 75.984375 
L 18.40625 75.984375 
L 18.40625 0 
L 9.421875 0 
z
" id="DejaVuSans-6c"/>
      <path d="M 48.78125 52.59375 
L 48.78125 44.1875 
Q 44.96875 46.296875 41.140625 47.34375 
Q 37.3125 48.390625 33.40625 48.390625 
Q 24.65625 48.390625 19.8125 42.84375 
Q 14.984375 37.3125 14.984375 27.296875 
Q 14.984375 17.28125 19.8125 11.734375 
Q 24.65625 6.203125 33.40625 6.203125 
Q 37.3125 6.203125 41.140625 7.25 
Q 44.96875 8.296875 48.78125 10.40625 
L 48.78125 2.09375 
Q 45.015625 0.34375 40.984375 -0.53125 
Q 36.96875 -1.421875 32.421875 -1.421875 
Q 20.0625 -1.421875 12.78125 6.34375 
Q 5.515625 14.109375 5.515625 27.296875 
Q 5.515625 40.671875 12.859375 48.328125 
Q 20.21875 56 33.015625 56 
Q 37.15625 56 41.109375 55.140625 
Q 45.0625 54.296875 48.78125 52.59375 
z
" id="DejaVuSans-63"/>
     </defs>
     <g style="fill:#262626;" transform="translate(100.382656 250.224062)rotate(-90)scale(0.11 -0.11)">
      <use xlink:href="#DejaVuSans-43"/>
      <use x="69.824219" xlink:href="#DejaVuSans-68"/>
      <use x="133.203125" xlink:href="#DejaVuSans-61"/>
      <use x="194.482422" xlink:href="#DejaVuSans-6e"/>
      <use x="257.861328" xlink:href="#DejaVuSans-67"/>
      <use x="321.337891" xlink:href="#DejaVuSans-65"/>
      <use x="382.861328" xlink:href="#DejaVuSans-20"/>
      <use x="414.648438" xlink:href="#DejaVuSans-69"/>
      <use x="442.431641" xlink:href="#DejaVuSans-6e"/>
      <use x="505.810547" xlink:href="#DejaVuSans-20"/>
      <use x="537.597656" xlink:href="#DejaVuSans-42"/>
      <use x="606.201172" xlink:href="#DejaVuSans-61"/>
      <use x="667.480469" xlink:href="#DejaVuSans-6c"/>
      <use x="695.263672" xlink:href="#DejaVuSans-61"/>
      <use x="756.542969" xlink:href="#DejaVuSans-6e"/>
      <use x="819.921875" xlink:href="#DejaVuSans-63"/>
      <use x="874.902344" xlink:href="#DejaVuSans-65"/>
     </g>
    </g>
   </g>
   <g id="line2d_62">
    <path clip-path="url(#p7853df042b)" d="M 184.581818 231.274933 
L 184.847658 240.698028 
L 185.521634 241.02536 
L 186.869033 241.024712 
L 187.203742 278.643247 
L 189.613657 255.293007 
L 189.857644 219.873166 
L 190.412961 247.499446 
L 190.688857 234.544364 
L 190.742913 262.170644 
L 190.833927 219.873166 
L 191.700557 244.163944 
L 193.161462 237.879866 
L 193.200093 242.101495 
L 200.163145 242.609334 
L 200.400919 240.805987 
L 200.489952 241.237823 
L 200.620692 286.358861 
L 203.459734 240.913946 
L 204.711672 241.090999 
L 204.803902 241.302598 
L 206.072196 242.101495 
L 206.0875 241.386159 
L 206.125484 241.524346 
L 206.267788 241.173047 
L 206.39241 241.237823 
L 206.438555 241.522187 
L 206.456953 241.237823 
L 211.939255 241.398034 
L 211.972095 254.775883 
L 212.045892 241.129864 
L 212.245233 241.129864 
L 212.312697 241.410557 
L 212.317557 241.248619 
L 212.339169 240.908764 
L 212.627664 241.135046 
L 212.978159 240.805987 
L 214.608909 289.269652 
L 216.87565 240.93014 
L 217.499706 241.237823 
L 221.580794 241.345782 
L 221.606533 241.661238 
L 221.62294 241.129864 
L 221.744512 241.661022 
L 221.777998 241.453741 
L 221.985172 241.7828 
L 222.239724 240.805987 
L 222.506563 240.913946 
L 223.245702 240.698028 
L 223.599859 241.027951 
L 225.681201 241.0232 
L 225.977133 238.862725 
L 226.382726 240.939856 
L 226.888529 240.93014 
L 227.049799 241.103954 
L 227.148457 240.590069 
L 234.276262 240.913946 
L 234.301294 239.40252 
L 234.54361 240.698028 
L 234.820221 243.181085 
L 240.552947 239.942315 
L 242.898707 239.942315 
L 248.948614 241.098556 
L 248.970002 240.924094 
L 249.554109 240.918696 
L 249.950413 239.942315 
L 250.90854 240.698028 
L 251.957673 240.914162 
L 252.00574 240.805987 
L 252.319078 235.623954 
L 252.902443 240.590069 
L 253.392089 240.867955 
L 254.783152 240.957777 
L 255.693764 240.633684 
L 257.254912 243.159493 
L 258.324468 238.884316 
L 258.687949 240.978721 
L 259.822461 239.942315 
L 263.224481 240.953027 
L 263.751491 240.870762 
L 264.952596 240.48211 
L 270.983123 241.096181 
L 271.221845 240.546885 
L 272.194337 240.858023 
L 272.613623 240.862773 
L 273.789989 240.48211 
L 274.50699 240.978289 
L 274.518322 239.761375 
L 275.410191 240.44454 
L 275.711542 240.074888 
L 276.320588 240.351911 
L 276.369395 240.909843 
L 276.961206 238.59477 
L 278.03831 240.975914 
L 279.139896 240.468075 
L 279.351508 240.800589 
L 279.471761 240.703642 
L 279.762108 240.84917 
L 280.778996 240.482758 
L 281.653605 241.345782 
L 282.985175 240.698028 
L 283.280477 240.676436 
L 286.265848 245.340265 
L 287.666881 240.853273 
L 294.180969 241.0232 
L 294.222918 261.56629 
L 295.784894 237.393186 
L 296.015171 240.611661 
L 299.409013 241.669659 
L 302.290175 242.317413 
L 303.288364 241.669659 
L 303.308278 240.093457 
L 305.046122 240.805987 
L 306.697113 240.546885 
L 309.511786 65.192727 
L 310.679518 240.104469 
L 314.903823 241.031621 
L 316.55727 241.098772 
L 339.29981 239.294561 
L 339.484951 241.022769 
L 339.853533 206.47502 
L 346.624431 275.56879 
L 346.759436 332.247273 
L 346.896906 149.796537 
L 347.098936 250.090462 
L 349.678859 242.101495 
L 351.867753 249.010872 
L 352.405447 239.404031 
L 352.440407 240.598705 
L 353.661315 234.73977 
L 358.244414 240.689607 
L 359.227738 240.662185 
L 359.323733 247.30404 
L 359.535587 234.73977 
L 359.719986 237.718359 
L 360.032083 237.718359 
L 360.056892 240.916321 
L 360.725887 239.507456 
L 361.57336 241.033348 
L 362.570971 241.098988 
L 362.575685 241.0232 
L 362.902483 240.744666 
L 370.012587 241.543779 
L 370.96576 244.260675 
L 371.067408 241.971944 
L 371.257279 240.823908 
L 371.477801 240.589637 
L 372.361458 242.398166 
L 376.336917 240.698028 
L 377.079451 237.243339 
L 377.851628 240.266192 
L 381.036943 240.885876 
L 384.974227 241.023416 
L 385.171974 241.540108 
L 385.592019 240.917832 
L 390.991983 240.966846 
L 391.481439 244.411602 
L 396.291351 240.851114 
L 398.326669 240.805987 
L 403.083464 240.932515 
L 406.044052 244.487605 
L 406.8814 240.842909 
L 407.690597 241.098988 
L 407.775846 240.842477 
L 416.195633 240.784395 
L 417.156699 240.082661 
L 417.350697 244.449604 
L 417.601604 240.537169 
L 418.070327 240.941367 
L 418.107001 240.568045 
L 418.58279 240.858023 
L 419.857116 240.904445 
L 422.027 240.805987 
L 425.352309 243.689572 
L 428.334431 240.751575 
L 429.592505 241.096612 
L 429.998452 245.880061 
L 430.457446 240.890843 
L 430.557483 241.023632 
L 430.614623 240.925389 
L 430.821375 240.980449 
L 431.369342 240.81743 
L 431.708617 240.953027 
L 433.402927 239.942315 
L 435.176972 240.92798 
L 436.722343 240.907036 
L 437.061515 240.503702 
L 437.618504 245.12737 
L 438.185609 240.94439 
L 438.793068 240.374151 
L 446.092285 243.076797 
L 448.00106 240.744666 
L 450.815862 240.710551 
L 452.12233 241.099203 
L 453.118183 241.024064 
L 453.259918 243.72088 
L 456.059071 239.942315 
L 456.112937 241.291802 
L 456.209588 241.029678 
L 456.46233 241.291802 
L 456.716416 236.05579 
L 457.374286 235.623954 
L 458.676057 242.058311 
L 459.042313 239.899131 
L 463.009758 245.98802 
L 464.306273 236.05579 
L 464.655924 239.420441 
L 466.900803 246.094683 
L 469.348323 239.404679 
L 469.646848 240.866228 
L 474.128945 240.050274 
L 474.739378 241.993536 
L 474.945449 240.698028 
L 475.485091 241.099203 
L 476.788957 241.024064 
L 476.841436 239.173646 
L 476.853189 242.749249 
L 479.791708 240.590069 
L 481.218231 240.84917 
L 481.875523 239.942315 
L 482.674336 240.663913 
L 486.330235 240.704073 
L 486.392063 241.801585 
L 486.701153 240.79627 
L 488.167875 240.883933 
L 489.160057 242.06155 
L 489.2441 243.149345 
L 490.783051 240.590069 
L 492.515613 240.849602 
L 498.056356 241.023848 
L 498.064629 239.726397 
L 499.832202 241.885577 
L 500.880818 240.590069 
L 502.23674 240.867092 
L 504.999761 240.698028 
L 505.718374 241.885577 
L 511.728297 240.941799 
L 513.402865 240.805987 
L 514.06613 239.45434 
L 517.036411 240.933378 
L 517.589186 239.942315 
L 518.82034 240.909843 
L 521.087529 241.099419 
L 521.402995 243.609251 
L 521.728113 243.272634 
L 522.086794 240.830601 
L 525.656246 240.913946 
L 527.562461 240.805987 
L 527.575568 242.317413 
L 527.93063 239.726397 
L 528.097312 240.698028 
L 529.289128 240.879615 
L 530.76021 239.726397 
L 534.369852 240.199041 
L 535.36929 240.796918 
L 537.021385 240.879615 
L 539.445027 240.826931 
L 541.016783 240.913946 
L 542.201603 242.360597 
L 542.405916 241.024064 
L 543.157886 240.838159 
L 543.160893 241.097044 
L 543.472318 239.942315 
L 544.798174 240.946334 
L 545.853521 240.805987 
L 547.341406 240.329024 
L 547.813834 239.866959 
L 548.272139 240.822397 
L 548.30703 240.120879 
L 549.151772 240.837511 
L 551.147089 239.855947 
L 552.055322 240.667367 
L 556.628262 240.698028 
L 561.997084 239.942315 
L 565.713502 240.615331 
L 566.248663 240.570636 
L 566.262476 241.023848 
L 566.913349 241.099419 
L 566.965923 241.428478 
L 569.419156 240.55984 
L 570.9341 240.590069 
L 573.228131 240.854352 
L 574.282805 240.722211 
L 574.502931 240.853489 
L 574.981624 240.93964 
L 575.288964 240.754598 
L 575.291782 240.856296 
L 575.292023 237.912901 
L 575.763736 240.938776 
L 577.902279 240.758485 
L 578.208344 240.982176 
L 581.172172 240.590069 
L 582.032365 240.864932 
L 583.734525 240.876592 
L 587.421816 243.828839 
L 588.291867 241.097044 
L 589.052454 241.023416 
L 589.099452 241.260494 
L 589.425673 247.223934 
L 589.500513 243.289044 
L 589.626367 243.837908 
L 589.823261 240.48211 
L 590.834116 239.982475 
L 594.363351 242.061334 
L 595.26819 239.173862 
L 595.444377 240.977426 
L 596.96487 240.8455 
L 597.601722 247.324768 
L 597.619672 234.719042 
L 597.682465 240.947197 
L 598.705428 243.876773 
L 599.846274 244.508765 
L 599.94974 243.224269 
L 600.125755 246.916467 
L 600.357781 240.870762 
L 600.603836 240.698028 
L 600.72776 238.167037 
L 600.798713 240.913946 
L 602.256473 251.817806 
L 608.829986 230.226003 
L 609.204196 230.226003 
L 609.508899 251.817806 
L 609.638855 230.226003 
L 609.839971 241.756026 
L 610.228287 240.89732 
L 610.424862 241.756026 
L 610.609718 241.756026 
L 610.675174 253.387746 
L 610.709548 240.698891 
L 611.240004 240.807066 
L 611.384609 240.978721 
L 611.524578 240.669743 
L 611.538288 240.929708 
L 611.560951 240.483405 
L 611.631664 240.828226 
L 611.635154 240.590069 
L 611.753364 241.102658 
L 611.945924 240.90315 
L 612.194754 230.226003 
L 614.335968 240.89732 
L 615.180046 241.0232 
L 615.756458 259.313617 
L 615.888077 241.560404 
L 615.908543 222.730193 
L 615.997851 240.842909 
L 616.153081 239.942315 
L 616.191772 240.957129 
L 616.720316 240.672334 
L 617.901343 259.313617 
L 618.408077 222.730193 
L 618.804932 240.906389 
L 619.142855 240.741643 
L 619.899805 246.780655 
L 620.593316 245.145939 
L 620.623942 241.669659 
L 620.783101 240.984551 
L 621.170822 240.738189 
L 621.179155 240.929708 
L 621.252263 239.404895 
L 621.597847 240.086116 
L 621.694264 239.40252 
L 622.645911 241.483538 
L 622.690109 239.728124 
L 622.749989 284.205511 
L 622.819203 240.957129 
L 623.140046 236.89787 
L 623.142588 245.145939 
L 623.186243 197.838299 
L 623.257016 240.287784 
L 624.465894 240.606263 
L 624.535228 241.043497 
L 624.812296 240.999665 
L 624.881777 240.85133 
L 625.036171 233.464774 
L 627.593224 244.80047 
L 628.894125 237.243339 
L 629.205266 237.243339 
L 629.470485 240.909843 
L 629.865514 237.058082 
L 630.377702 240.733654 
L 631.230812 244.843654 
L 631.289365 248.680733 
L 631.349384 244.843654 
L 632.06193 237.200156 
L 632.251646 241.088192 
L 635.348006 253.007083 
L 636.683806 241.097476 
L 675.783625 240.698028 
L 676.045492 245.081812 
L 676.420452 234.762009 
L 676.496412 241.844768 
L 676.706869 239.316152 
L 676.850888 240.865796 
L 677.682912 240.915025 
L 678.28826 240.805987 
L 678.59205 240.957345 
L 679.892848 234.004569 
L 680.164858 240.804907 
L 680.392972 241.100499 
L 680.776143 240.929276 
L 683.657065 240.869683 
L 684.664542 240.913946 
L 685.829921 240.698028 
L 686.721679 242.749249 
L 687.967654 240.79152 
L 689.230218 240.590285 
L 689.875412 240.913946 
L 691.019067 240.957129 
L 691.480327 241.08668 
L 691.565267 240.957129 
L 692.594253 241.08668 
L 692.73193 240.879615 
L 692.755911 240.957129 
L 693.047163 241.08668 
L 693.22603 240.79843 
L 693.543289 240.827579 
L 693.780227 241.00787 
L 695.520397 240.374151 
L 695.573453 240.805987 
L 695.90911 240.957129 
L 695.975092 245.644926 
L 696.233883 242.950053 
L 696.342218 244.822062 
L 696.379401 236.398884 
L 696.4039 241.151456 
L 696.489847 240.892354 
L 696.513217 240.957129 
L 701.102839 240.957129 
L 702.333614 240.733654 
L 702.763568 241.099203 
L 702.877625 240.851546 
L 702.900918 240.914162 
L 703.164207 240.957129 
L 703.430021 234.004569 
L 703.604545 240.957129 
L 706.955628 240.939208 
L 706.966977 239.726397 
L 707.199279 240.957129 
L 707.841285 240.96188 
L 708.095492 240.738189 
L 708.904964 240.957129 
L 709.024777 246.274111 
L 709.198948 240.931867 
L 709.238785 240.95605 
L 709.355996 240.957129 
L 709.37529 234.004569 
L 709.422236 242.317413 
L 709.547185 248.039241 
L 709.646929 239.726397 
L 709.759745 240.590069 
L 710.16527 240.957129 
L 710.170629 240.48211 
L 710.774995 240.957129 
L 712.914719 240.957129 
L 713.501394 240.738189 
L 713.898792 240.957129 
L 713.953072 240.826067 
L 714.444217 240.941367 
L 714.559756 244.586927 
L 714.850784 243.569738 
L 714.914448 239.942315 
L 718.120487 240.848954 
L 719.428023 241.540108 
L 720.252567 237.567216 
L 720.971024 240.898616 
L 722.163685 240.806203 
L 723.602987 247.516287 
L 725.252798 241.026223 
L 725.911219 241.104817 
L 726.117015 239.942315 
L 727.807008 240.719404 
L 728.299247 217.318639 
L 729.160904 217.318639 
L 729.517053 264.72517 
L 729.954133 242.231046 
L 730.665249 240.952811 
L 730.926685 241.907169 
L 732.459656 264.72517 
L 732.686451 217.318639 
L 732.728658 241.928761 
L 732.788918 240.957129 
L 732.875521 240.590069 
L 733.330594 240.957129 
L 735.074781 240.957129 
L 735.256491 245.063027 
L 735.493317 240.805987 
L 735.925408 241.5617 
L 735.952147 240.957129 
L 736.651199 240.158233 
L 736.938496 240.374151 
L 737.102196 240.957129 
L 737.58475 239.50616 
L 737.810865 240.957129 
L 739.155472 240.957129 
L 740.080061 240.83967 
L 740.267597 240.980449 
L 740.755855 240.957129 
L 740.837072 240.708176 
L 741.049589 240.957129 
L 741.273196 241.5617 
L 741.696567 240.407834 
L 743.14396 240.957129 
L 743.702663 240.698891 
L 744.294939 241.5617 
L 744.301394 242.101495 
L 744.57424 238.322929 
L 744.749754 240.708176 
L 745.025806 241.065088 
L 745.248741 240.957129 
L 745.39855 240.48211 
L 745.71792 246.107854 
L 745.931109 240.330967 
L 746.251255 243.656105 
L 746.26026 240.957129 
L 746.399057 240.374151 
L 746.688318 241.5617 
L 746.822867 240.674493 
L 746.877784 240.957129 
L 746.950539 240.806203 
L 747.76606 241.086464 
L 748.972612 241.024496 
L 749.087738 240.737973 
L 749.101405 240.957129 
L 751.526158 240.957129 
L 751.808535 240.804691 
L 752.407162 240.957129 
L 755.201084 240.957129 
L 755.746784 240.698891 
L 756.065215 253.026947 
L 756.299861 240.957129 
L 756.419459 248.162098 
L 756.587468 240.590069 
L 756.904744 240.786986 
L 756.915291 240.590069 
L 756.968382 240.957129 
L 756.989675 240.800805 
L 757.538925 239.40252 
L 758.410036 240.957129 
L 758.515476 240.790873 
L 758.747597 238.322929 
L 758.773457 244.80047 
L 758.978236 240.791088 
L 759.351222 240.37523 
L 759.416928 240.957129 
L 759.521807 240.708176 
L 759.540309 240.957129 
L 760.060209 240.853705 
L 760.183762 240.957129 
L 760.860495 242.576515 
L 761.447696 240.957129 
L 762.362754 240.858455 
L 765.140985 241.027519 
L 765.175471 240.957129 
L 765.833246 241.013916 
L 766.535692 239.706748 
L 766.678651 240.957129 
L 766.931928 247.676499 
L 767.016436 245.745544 
L 767.08583 234.367311 
L 767.215769 240.870762 
L 767.355281 240.957129 
L 767.37523 241.5617 
L 767.872579 239.942315 
L 768.235931 240.957129 
L 769.040483 238.322929 
L 769.158452 241.024928 
L 769.843113 240.978721 
L 770.469814 240.957129 
L 770.474433 240.786986 
L 770.566439 240.957129 
L 770.992619 242.921983 
L 771.005269 221.371853 
L 771.210573 260.671957 
L 771.345846 257.583034 
L 771.468632 224.460776 
L 771.485496 240.722427 
L 771.596795 240.957129 
L 772.191544 240.957129 
L 773.126896 240.827579 
L 774.102395 240.957129 
L 775.033844 240.708176 
L 775.112303 242.101495 
L 775.259398 240.957129 
L 775.888496 240.914162 
L 776.341647 235.623954 
L 776.362975 240.957129 
L 776.599111 247.968852 
L 777.261738 240.957129 
L 777.524192 240.802964 
L 778.107015 240.119367 
L 778.523328 240.784179 
L 779.249446 240.851546 
L 779.270825 240.158449 
L 779.375179 241.5617 
L 779.417576 239.424975 
L 779.663708 241.01953 
L 779.869943 240.48211 
L 779.898923 240.957129 
L 780.114999 240.698891 
L 780.433205 240.698028 
L 780.752118 240.957129 
L 780.892983 240.717892 
L 782.526792 238.322929 
L 782.949991 240.733007 
L 784.046587 240.892354 
L 784.473922 240.698028 
L 784.522385 240.48211 
L 784.68182 241.345782 
L 784.902127 240.590069 
L 784.995253 235.623954 
L 785.018467 240.957129 
L 785.368049 240.957129 
L 786.905337 240.374151 
L 787.357222 240.957129 
L 787.566852 241.669659 
L 787.687182 247.195433 
L 787.961079 235.623954 
L 788.263999 246.419856 
L 788.44938 235.623954 
L 788.514087 240.932947 
L 790.177659 240.881342 
L 790.773115 240.957129 
L 790.919495 240.841829 
L 792.591616 241.028598 
L 792.654857 240.837511 
L 792.943128 240.957129 
L 793.024112 239.638086 
L 793.939007 240.623104 
L 795.392286 240.957129 
L 796.34351 240.216746 
L 797.479125 240.957129 
L 797.537438 239.942315 
L 797.982102 239.942315 
L 798.059561 246.711993 
L 798.388031 238.01028 
L 798.677896 240.754598 
L 798.889241 240.268351 
L 798.896169 240.416687 
L 798.907595 240.957129 
L 798.990251 240.811817 
L 799.98077 240.957129 
L 801.136446 240.957129 
L 802.671959 240.698028 
L 803.023178 239.820537 
L 803.326365 240.957129 
L 804.07699 240.460518 
L 805.606005 240.925389 
L 806.294915 240.957129 
L 806.345816 239.510695 
L 806.425991 240.98196 
L 806.600704 240.957129 
L 807.983468 241.5617 
L 808.255823 239.942315 
L 808.384426 240.957129 
L 808.412208 240.780293 
L 808.47164 247.098702 
L 808.880388 240.661969 
L 810.656363 240.48211 
L 810.67657 240.784395 
L 811.040508 240.805987 
L 811.074304 240.957129 
L 811.208586 240.653333 
L 812.741979 240.957129 
L 812.879156 240.780508 
L 813.125004 240.957129 
L 813.841548 240.708176 
L 813.897767 241.024496 
L 816.322503 240.71962 
L 816.359893 240.957129 
L 817.200146 240.805123 
L 817.349232 240.913946 
L 817.989273 240.236179 
L 818.233854 240.957129 
L 818.577309 246.228984 
L 818.927744 240.861262 
L 818.998233 240.957129 
L 819.027229 241.516357 
L 819.307779 239.369916 
L 819.759681 240.849386 
L 819.962392 242.404644 
L 820.063135 242.026787 
L 820.874555 240.784395 
L 820.886739 240.328808 
L 820.926939 240.935538 
L 821.11026 241.5617 
L 821.156362 240.698891 
L 821.261302 241.5617 
L 821.425486 239.942315 
L 821.429268 240.987142 
L 821.974848 240.957129 
L 823.128292 239.942315 
L 824.135244 242.921983 
L 824.309156 240.957129 
L 825.368569 240.957129 
L 826.826321 240.698891 
L 828.771847 241.453741 
L 829.074345 246.615477 
L 829.394714 237.783134 
L 829.416007 241.885577 
L 829.727518 241.715002 
L 829.923154 240.762803 
L 830.084769 241.281006 
L 830.317519 241.08668 
L 830.485546 240.590069 
L 830.527813 240.784395 
L 831.353615 240.977426 
L 831.730642 240.708176 
L 832.092219 240.957129 
L 832.204277 240.727177 
L 832.958418 240.482326 
L 833.139129 240.957129 
L 834.584351 240.883501 
L 834.929365 240.708176 
L 835.570036 240.957129 
L 838.351015 240.784395 
L 838.547366 241.024496 
L 838.681131 240.745098 
L 839.037891 246.615477 
L 839.92895 239.942315 
L 841.775801 240.762803 
L 842.163799 241.971944 
L 843.227366 241.79921 
L 843.44314 238.446219 
L 843.554396 239.726397 
L 845.643028 254.254009 
L 850.434284 238.646806 
L 850.615288 241.024496 
L 860.480382 256.331789 
L 860.679112 241.024712 
L 860.946753 239.942315 
L 863.008965 240.866444 
L 866.278116 240.762803 
L 866.330845 240.37523 
L 866.52293 243.289044 
L 866.602036 239.726397 
L 866.756499 240.98196 
L 866.783815 240.784395 
L 867.897862 240.897104 
L 868.765543 239.942315 
L 869.623418 240.590069 
L 869.815831 240.928844 
L 869.826619 239.834356 
L 869.900727 240.957129 
L 870.152504 240.213508 
L 870.339178 256.151065 
L 870.913435 240.784395 
L 873.463966 240.957129 
L 875.302027 240.957129 
L 875.966481 240.590285 
L 878.01893 240.784395 
L 878.338636 240.606479 
L 878.777629 240.536737 
L 880.855826 254.886649 
L 881.288641 240.815055 
L 882.519054 240.676436 
L 882.849919 241.187946 
L 883.735145 240.680538 
L 883.761824 241.025791 
L 883.805211 240.855864 
L 883.934409 240.708176 
L 885.012547 240.648798 
L 887.133942 240.824556 
L 887.428486 230.226003 
L 887.598322 240.48211 
L 889.027214 240.930787 
L 889.138643 240.784395 
L 889.268193 230.226003 
L 892.032533 256.331789 
L 892.096326 240.467427 
L 892.733937 240.51385 
L 892.808295 240.876592 
L 892.86017 240.795623 
L 892.963111 240.698028 
L 893.284204 240.698028 
L 893.412299 240.913946 
L 893.501306 213.237573 
L 894.42954 240.957129 
L 894.621108 240.913946 
L 894.889059 240.615547 
L 897.118212 240.957129 
L 897.390101 240.698028 
L 897.583057 240.860182 
L 899.848721 240.816999 
L 899.982649 240.957129 
L 900.29117 240.560488 
L 900.317952 240.822612 
L 900.506031 239.29564 
L 901.341389 240.935538 
L 901.555172 240.568477 
L 901.890992 256.331789 
L 901.902884 240.44454 
L 902.078907 241.885577 
L 902.345868 239.726397 
L 902.695165 240.813976 
L 902.79565 240.55984 
L 903.110048 247.499446 
L 903.192755 224.879657 
L 904.032465 240.740348 
L 904.563327 240.482326 
L 904.954814 240.989517 
L 905.765389 240.698891 
L 905.767362 240.901854 
L 906.465983 241.0232 
L 907.153401 240.661754 
L 907.224286 241.281006 
L 907.500165 240.728904 
L 907.702247 239.942315 
L 908.813932 239.942315 
L 910.156945 240.784395 
L 910.485079 240.648798 
L 911.79277 240.805987 
L 912.18418 235.623954 
L 912.323976 251.817806 
L 912.476923 240.714222 
L 912.497233 256.331789 
L 912.816353 240.536737 
L 917.207462 240.809657 
L 917.439893 230.226003 
L 918.991778 247.098702 
L 923.324583 240.698028 
L 923.982367 243.181085 
L 924.039438 240.84917 
L 925.529521 241.712843 
L 927.411281 240.957129 
L 927.710702 243.181085 
L 928.503939 240.821533 
L 928.5698 240.84917 
L 928.747564 241.024712 
L 928.972309 241.022984 
L 929.000823 243.181085 
L 929.999692 240.805987 
L 931.177738 240.733654 
L 932.07751 240.957129 
L 932.819793 247.388896 
L 933.377291 240.794975 
L 933.43755 240.957129 
L 936.449505 240.957129 
L 936.55834 241.08668 
L 937.045409 240.957129 
L 937.152451 241.08668 
L 938.361192 240.939856 
L 938.392903 240.763019 
L 939.319293 240.708176 
L 941.430313 241.08668 
L 941.679582 240.565886 
L 941.886162 240.957129 
L 942.119618 240.957129 
L 942.514354 241.08668 
L 942.690774 240.884365 
L 942.741624 240.114401 
L 942.9223 240.957129 
L 943.470465 241.08668 
L 943.676536 247.195433 
L 944.192938 240.765826 
L 944.85291 240.843772 
L 945.945388 240.847659 
L 947.912673 240.708176 
L 949.399585 241.0232 
L 954.010827 240.66672 
L 954.228359 240.968141 
L 954.786977 240.570204 
L 954.820523 245.89064 
L 954.859025 240.975914 
L 958.645759 240.708176 
L 959.613977 270.412019 
L 960.366834 240.87249 
L 960.715037 241.453741 
L 962.359496 240.763019 
L 962.401023 240.87249 
L 962.781954 240.661969 
L 963.186332 240.901854 
L 963.738271 240.989517 
L 964.136411 245.93879 
L 964.805397 240.902502 
L 965.029332 240.705369 
L 965.181373 240.797998 
L 967.734273 240.158233 
L 970.673636 239.726397 
L 970.884016 243.461779 
L 970.97111 240.675572 
L 971.059643 240.885445 
L 971.530951 240.93014 
L 971.633961 240.825419 
L 972.099064 240.957129 
L 972.18646 240.482326 
L 973.173317 240.957129 
L 973.221719 240.844852 
L 973.327392 241.036587 
L 974.132719 240.957129 
L 974.484128 240.661969 
L 974.724556 241.0232 
L 974.944509 244.027916 
L 975.199509 240.700835 
L 975.207669 240.957129 
L 975.466865 240.700835 
L 975.473251 240.957129 
L 976.414704 240.957129 
L 977.259239 240.716381 
L 978.374293 240.957129 
L 978.983037 240.957129 
L 979.505919 240.844852 
L 979.685432 241.016075 
L 980.012402 251.891003 
L 980.607048 240.957129 
L 980.920308 240.590069 
L 981.901262 240.957129 
L 982.602959 239.942315 
L 982.847162 240.814408 
L 983.16835 240.968789 
L 983.551987 240.957129 
L 983.903266 240.763019 
L 984.304473 240.957129 
L 984.555897 242.101495 
L 985.065577 240.957129 
L 985.10083 241.885577 
L 985.614586 245.365312 
L 986.125473 240.957129 
L 987.925826 241.345782 
L 988.948074 240.739484 
L 989.381707 240.957129 
L 989.550828 240.957129 
L 990.341653 242.965167 
L 990.661583 242.965167 
L 990.985683 240.957129 
L 990.987381 241.237823 
L 991.168462 240.989517 
L 991.17041 241.011109 
L 991.172418 239.726397 
L 991.173055 242.317413 
L 991.236504 240.798214 
L 994.88812 240.957129 
L 995.644536 243.951913 
L 996.074128 240.957129 
L 996.218182 244.727058 
L 996.218182 244.727058 
" style="fill:none;stroke:#1f77b4;stroke-linecap:round;stroke-width:1.5;"/>
   </g>
   <g id="patch_3">
    <path d="M 144 345.6 
L 144 51.84 
" style="fill:none;"/>
   </g>
   <g id="patch_4">
    <path d="M 1036.8 345.6 
L 1036.8 51.84 
" style="fill:none;"/>
   </g>
   <g id="patch_5">
    <path d="M 144 345.6 
L 1036.8 345.6 
" style="fill:none;"/>
   </g>
   <g id="patch_6">
    <path d="M 144 51.84 
L 1036.8 51.84 
" style="fill:none;"/>
   </g>
   <g id="text_14">
    <!-- Change in Balance over Time -->
    <defs>
     <path d="M 30.609375 48.390625 
Q 23.390625 48.390625 19.1875 42.75 
Q 14.984375 37.109375 14.984375 27.296875 
Q 14.984375 17.484375 19.15625 11.84375 
Q 23.34375 6.203125 30.609375 6.203125 
Q 37.796875 6.203125 41.984375 11.859375 
Q 46.1875 17.53125 46.1875 27.296875 
Q 46.1875 37.015625 41.984375 42.703125 
Q 37.796875 48.390625 30.609375 48.390625 
z
M 30.609375 56 
Q 42.328125 56 49.015625 48.375 
Q 55.71875 40.765625 55.71875 27.296875 
Q 55.71875 13.875 49.015625 6.21875 
Q 42.328125 -1.421875 30.609375 -1.421875 
Q 18.84375 -1.421875 12.171875 6.21875 
Q 5.515625 13.875 5.515625 27.296875 
Q 5.515625 40.765625 12.171875 48.375 
Q 18.84375 56 30.609375 56 
z
" id="DejaVuSans-6f"/>
     <path d="M 2.984375 54.6875 
L 12.5 54.6875 
L 29.59375 8.796875 
L 46.6875 54.6875 
L 56.203125 54.6875 
L 35.6875 0 
L 23.484375 0 
z
" id="DejaVuSans-76"/>
     <path d="M -0.296875 72.90625 
L 61.375 72.90625 
L 61.375 64.59375 
L 35.5 64.59375 
L 35.5 0 
L 25.59375 0 
L 25.59375 64.59375 
L -0.296875 64.59375 
z
" id="DejaVuSans-54"/>
     <path d="M 52 44.1875 
Q 55.375 50.25 60.0625 53.125 
Q 64.75 56 71.09375 56 
Q 79.640625 56 84.28125 50.015625 
Q 88.921875 44.046875 88.921875 33.015625 
L 88.921875 0 
L 79.890625 0 
L 79.890625 32.71875 
Q 79.890625 40.578125 77.09375 44.375 
Q 74.3125 48.1875 68.609375 48.1875 
Q 61.625 48.1875 57.5625 43.546875 
Q 53.515625 38.921875 53.515625 30.90625 
L 53.515625 0 
L 44.484375 0 
L 44.484375 32.71875 
Q 44.484375 40.625 41.703125 44.40625 
Q 38.921875 48.1875 33.109375 48.1875 
Q 26.21875 48.1875 22.15625 43.53125 
Q 18.109375 38.875 18.109375 30.90625 
L 18.109375 0 
L 9.078125 0 
L 9.078125 54.6875 
L 18.109375 54.6875 
L 18.109375 46.1875 
Q 21.1875 51.21875 25.484375 53.609375 
Q 29.78125 56 35.6875 56 
Q 41.65625 56 45.828125 52.96875 
Q 50 49.953125 52 44.1875 
z
" id="DejaVuSans-6d"/>
    </defs>
    <g style="fill:#262626;" transform="translate(509.507891 45.84)scale(0.11 -0.11)">
     <use xlink:href="#DejaVuSans-43"/>
     <use x="69.824219" xlink:href="#DejaVuSans-68"/>
     <use x="133.203125" xlink:href="#DejaVuSans-61"/>
     <use x="194.482422" xlink:href="#DejaVuSans-6e"/>
     <use x="257.861328" xlink:href="#DejaVuSans-67"/>
     <use x="321.337891" xlink:href="#DejaVuSans-65"/>
     <use x="382.861328" xlink:href="#DejaVuSans-20"/>
     <use x="414.648438" xlink:href="#DejaVuSans-69"/>
     <use x="442.431641" xlink:href="#DejaVuSans-6e"/>
     <use x="505.810547" xlink:href="#DejaVuSans-20"/>
     <use x="537.597656" xlink:href="#DejaVuSans-42"/>
     <use x="606.201172" xlink:href="#DejaVuSans-61"/>
     <use x="667.480469" xlink:href="#DejaVuSans-6c"/>
     <use x="695.263672" xlink:href="#DejaVuSans-61"/>
     <use x="756.542969" xlink:href="#DejaVuSans-6e"/>
     <use x="819.921875" xlink:href="#DejaVuSans-63"/>
     <use x="874.902344" xlink:href="#DejaVuSans-65"/>
     <use x="936.425781" xlink:href="#DejaVuSans-20"/>
     <use x="968.212891" xlink:href="#DejaVuSans-6f"/>
     <use x="1029.394531" xlink:href="#DejaVuSans-76"/>
     <use x="1088.574219" xlink:href="#DejaVuSans-65"/>
     <use x="1150.097656" xlink:href="#DejaVuSans-72"/>
     <use x="1191.210938" xlink:href="#DejaVuSans-20"/>
     <use x="1222.998047" xlink:href="#DejaVuSans-54"/>
     <use x="1284.035156" xlink:href="#DejaVuSans-69"/>
     <use x="1311.818359" xlink:href="#DejaVuSans-6d"/>
     <use x="1409.230469" xlink:href="#DejaVuSans-65"/>
    </g>
   </g>
   <g id="legend_1">
    <g id="line2d_63">
     <path d="M 916.628125 64.938437 
L 936.628125 64.938437 
" style="fill:none;stroke:#1f77b4;stroke-linecap:round;stroke-width:1.5;"/>
    </g>
    <g id="line2d_64"/>
    <g id="text_15">
     <!-- Change_Balance -->
     <defs>
      <path d="M 50.984375 -16.609375 
L 50.984375 -23.578125 
L -0.984375 -23.578125 
L -0.984375 -16.609375 
z
" id="DejaVuSans-5f"/>
     </defs>
     <g style="fill:#262626;" transform="translate(944.628125 68.438437)scale(0.1 -0.1)">
      <use xlink:href="#DejaVuSans-43"/>
      <use x="69.824219" xlink:href="#DejaVuSans-68"/>
      <use x="133.203125" xlink:href="#DejaVuSans-61"/>
      <use x="194.482422" xlink:href="#DejaVuSans-6e"/>
      <use x="257.861328" xlink:href="#DejaVuSans-67"/>
      <use x="321.337891" xlink:href="#DejaVuSans-65"/>
      <use x="382.861328" xlink:href="#DejaVuSans-5f"/>
      <use x="432.861328" xlink:href="#DejaVuSans-42"/>
      <use x="501.464844" xlink:href="#DejaVuSans-61"/>
      <use x="562.744141" xlink:href="#DejaVuSans-6c"/>
      <use x="590.527344" xlink:href="#DejaVuSans-61"/>
      <use x="651.806641" xlink:href="#DejaVuSans-6e"/>
      <use x="715.185547" xlink:href="#DejaVuSans-63"/>
      <use x="770.166016" xlink:href="#DejaVuSans-65"/>
     </g>
    </g>
   </g>
  </g>
 </g>
 <defs>
  <clipPath id="p7853df042b">
   <rect height="293.76" width="892.8" x="144" y="51.84"/>
  </clipPath>
 </defs>
</svg>
