<?xml version="1.0" encoding="utf-8" standalone="no"?>
<!DOCTYPE svg PUBLIC "-//W3C//DTD SVG 1.1//EN"
  "http://www.w3.org/Graphics/SVG/1.1/DTD/svg11.dtd">
<!-- Created with matplotlib (http://matplotlib.org/) -->
<svg height="424pt" version="1.1" viewBox="0 0 796 424" width="796pt" xmlns="http://www.w3.org/2000/svg" xmlns:xlink="http://www.w3.org/1999/xlink">
 <defs>
  <style type="text/css">
*{stroke-linecap:butt;stroke-linejoin:round;}
  </style>
 </defs>
 <g id="figure_1">
  <g id="patch_1">
   <path d="M -0 424.173125 
L 796.883924 424.173125 
L 796.883924 0 
L -0 0 
z
" style="fill:#ffffff;"/>
  </g>
  <g id="axes_1">
   <g id="patch_2">
    <path d="M 50.10625 389.83875 
L 740.764924 389.83875 
L 740.764924 7.2 
L 50.10625 7.2 
z
" style="fill:#eaeaf2;"/>
   </g>
   <g id="matplotlib.axis_1">
    <g id="xtick_1">
     <g id="line2d_1">
      <path clip-path="url(#p49bcde8d33)" d="M 109.363581 389.83875 
L 109.363581 7.2 
" style="fill:none;stroke:#ffffff;stroke-linecap:round;stroke-width:0.8;"/>
     </g>
     <g id="line2d_2"/>
     <g id="text_1">
      <!-- 0 -->
      <defs>
       <path d="M 31.78125 66.40625 
Q 24.171875 66.40625 20.328125 58.90625 
Q 16.5 51.421875 16.5 36.375 
Q 16.5 21.390625 20.328125 13.890625 
Q 24.171875 6.390625 31.78125 6.390625 
Q 39.453125 6.390625 43.28125 13.890625 
Q 47.125 21.390625 47.125 36.375 
Q 47.125 51.421875 43.28125 58.90625 
Q 39.453125 66.40625 31.78125 66.40625 
z
M 31.78125 74.21875 
Q 44.046875 74.21875 50.515625 64.515625 
Q 56.984375 54.828125 56.984375 36.375 
Q 56.984375 17.96875 50.515625 8.265625 
Q 44.046875 -1.421875 31.78125 -1.421875 
Q 19.53125 -1.421875 13.0625 8.265625 
Q 6.59375 17.96875 6.59375 36.375 
Q 6.59375 54.828125 13.0625 64.515625 
Q 19.53125 74.21875 31.78125 74.21875 
z
" id="DejaVuSans-30"/>
      </defs>
      <g style="fill:#262626;" transform="translate(106.182331 400.937187)scale(0.1 -0.1)">
       <use xlink:href="#DejaVuSans-30"/>
      </g>
     </g>
    </g>
    <g id="xtick_2">
     <g id="line2d_3">
      <path clip-path="url(#p49bcde8d33)" d="M 255.533486 389.83875 
L 255.533486 7.2 
" style="fill:none;stroke:#ffffff;stroke-linecap:round;stroke-width:0.8;"/>
     </g>
     <g id="line2d_4"/>
     <g id="text_2">
      <!-- 200 -->
      <defs>
       <path d="M 19.1875 8.296875 
L 53.609375 8.296875 
L 53.609375 0 
L 7.328125 0 
L 7.328125 8.296875 
Q 12.9375 14.109375 22.625 23.890625 
Q 32.328125 33.6875 34.8125 36.53125 
Q 39.546875 41.84375 41.421875 45.53125 
Q 43.3125 49.21875 43.3125 52.78125 
Q 43.3125 58.59375 39.234375 62.25 
Q 35.15625 65.921875 28.609375 65.921875 
Q 23.96875 65.921875 18.8125 64.3125 
Q 13.671875 62.703125 7.8125 59.421875 
L 7.8125 69.390625 
Q 13.765625 71.78125 18.9375 73 
Q 24.125 74.21875 28.421875 74.21875 
Q 39.75 74.21875 46.484375 68.546875 
Q 53.21875 62.890625 53.21875 53.421875 
Q 53.21875 48.921875 51.53125 44.890625 
Q 49.859375 40.875 45.40625 35.40625 
Q 44.1875 33.984375 37.640625 27.21875 
Q 31.109375 20.453125 19.1875 8.296875 
z
" id="DejaVuSans-32"/>
      </defs>
      <g style="fill:#262626;" transform="translate(245.989736 400.937187)scale(0.1 -0.1)">
       <use xlink:href="#DejaVuSans-32"/>
       <use x="63.623047" xlink:href="#DejaVuSans-30"/>
       <use x="127.246094" xlink:href="#DejaVuSans-30"/>
      </g>
     </g>
    </g>
    <g id="xtick_3">
     <g id="line2d_5">
      <path clip-path="url(#p49bcde8d33)" d="M 401.703391 389.83875 
L 401.703391 7.2 
" style="fill:none;stroke:#ffffff;stroke-linecap:round;stroke-width:0.8;"/>
     </g>
     <g id="line2d_6"/>
     <g id="text_3">
      <!-- 400 -->
      <defs>
       <path d="M 37.796875 64.3125 
L 12.890625 25.390625 
L 37.796875 25.390625 
z
M 35.203125 72.90625 
L 47.609375 72.90625 
L 47.609375 25.390625 
L 58.015625 25.390625 
L 58.015625 17.1875 
L 47.609375 17.1875 
L 47.609375 0 
L 37.796875 0 
L 37.796875 17.1875 
L 4.890625 17.1875 
L 4.890625 26.703125 
z
" id="DejaVuSans-34"/>
      </defs>
      <g style="fill:#262626;" transform="translate(392.159641 400.937187)scale(0.1 -0.1)">
       <use xlink:href="#DejaVuSans-34"/>
       <use x="63.623047" xlink:href="#DejaVuSans-30"/>
       <use x="127.246094" xlink:href="#DejaVuSans-30"/>
      </g>
     </g>
    </g>
    <g id="xtick_4">
     <g id="line2d_7">
      <path clip-path="url(#p49bcde8d33)" d="M 547.873296 389.83875 
L 547.873296 7.2 
" style="fill:none;stroke:#ffffff;stroke-linecap:round;stroke-width:0.8;"/>
     </g>
     <g id="line2d_8"/>
     <g id="text_4">
      <!-- 600 -->
      <defs>
       <path d="M 33.015625 40.375 
Q 26.375 40.375 22.484375 35.828125 
Q 18.609375 31.296875 18.609375 23.390625 
Q 18.609375 15.53125 22.484375 10.953125 
Q 26.375 6.390625 33.015625 6.390625 
Q 39.65625 6.390625 43.53125 10.953125 
Q 47.40625 15.53125 47.40625 23.390625 
Q 47.40625 31.296875 43.53125 35.828125 
Q 39.65625 40.375 33.015625 40.375 
z
M 52.59375 71.296875 
L 52.59375 62.3125 
Q 48.875 64.0625 45.09375 64.984375 
Q 41.3125 65.921875 37.59375 65.921875 
Q 27.828125 65.921875 22.671875 59.328125 
Q 17.53125 52.734375 16.796875 39.40625 
Q 19.671875 43.65625 24.015625 45.921875 
Q 28.375 48.1875 33.59375 48.1875 
Q 44.578125 48.1875 50.953125 41.515625 
Q 57.328125 34.859375 57.328125 23.390625 
Q 57.328125 12.15625 50.6875 5.359375 
Q 44.046875 -1.421875 33.015625 -1.421875 
Q 20.359375 -1.421875 13.671875 8.265625 
Q 6.984375 17.96875 6.984375 36.375 
Q 6.984375 53.65625 15.1875 63.9375 
Q 23.390625 74.21875 37.203125 74.21875 
Q 40.921875 74.21875 44.703125 73.484375 
Q 48.484375 72.75 52.59375 71.296875 
z
" id="DejaVuSans-36"/>
      </defs>
      <g style="fill:#262626;" transform="translate(538.329546 400.937187)scale(0.1 -0.1)">
       <use xlink:href="#DejaVuSans-36"/>
       <use x="63.623047" xlink:href="#DejaVuSans-30"/>
       <use x="127.246094" xlink:href="#DejaVuSans-30"/>
      </g>
     </g>
    </g>
    <g id="xtick_5">
     <g id="line2d_9">
      <path clip-path="url(#p49bcde8d33)" d="M 694.043201 389.83875 
L 694.043201 7.2 
" style="fill:none;stroke:#ffffff;stroke-linecap:round;stroke-width:0.8;"/>
     </g>
     <g id="line2d_10"/>
     <g id="text_5">
      <!-- 800 -->
      <defs>
       <path d="M 31.78125 34.625 
Q 24.75 34.625 20.71875 30.859375 
Q 16.703125 27.09375 16.703125 20.515625 
Q 16.703125 13.921875 20.71875 10.15625 
Q 24.75 6.390625 31.78125 6.390625 
Q 38.8125 6.390625 42.859375 10.171875 
Q 46.921875 13.96875 46.921875 20.515625 
Q 46.921875 27.09375 42.890625 30.859375 
Q 38.875 34.625 31.78125 34.625 
z
M 21.921875 38.8125 
Q 15.578125 40.375 12.03125 44.71875 
Q 8.5 49.078125 8.5 55.328125 
Q 8.5 64.0625 14.71875 69.140625 
Q 20.953125 74.21875 31.78125 74.21875 
Q 42.671875 74.21875 48.875 69.140625 
Q 55.078125 64.0625 55.078125 55.328125 
Q 55.078125 49.078125 51.53125 44.71875 
Q 48 40.375 41.703125 38.8125 
Q 48.828125 37.15625 52.796875 32.3125 
Q 56.78125 27.484375 56.78125 20.515625 
Q 56.78125 9.90625 50.3125 4.234375 
Q 43.84375 -1.421875 31.78125 -1.421875 
Q 19.734375 -1.421875 13.25 4.234375 
Q 6.78125 9.90625 6.78125 20.515625 
Q 6.78125 27.484375 10.78125 32.3125 
Q 14.796875 37.15625 21.921875 38.8125 
z
M 18.3125 54.390625 
Q 18.3125 48.734375 21.84375 45.5625 
Q 25.390625 42.390625 31.78125 42.390625 
Q 38.140625 42.390625 41.71875 45.5625 
Q 45.3125 48.734375 45.3125 54.390625 
Q 45.3125 60.0625 41.71875 63.234375 
Q 38.140625 66.40625 31.78125 66.40625 
Q 25.390625 66.40625 21.84375 63.234375 
Q 18.3125 60.0625 18.3125 54.390625 
z
" id="DejaVuSans-38"/>
      </defs>
      <g style="fill:#262626;" transform="translate(684.499451 400.937187)scale(0.1 -0.1)">
       <use xlink:href="#DejaVuSans-38"/>
       <use x="63.623047" xlink:href="#DejaVuSans-30"/>
       <use x="127.246094" xlink:href="#DejaVuSans-30"/>
      </g>
     </g>
    </g>
    <g id="text_6">
     <!-- Sum_Credit -->
     <defs>
      <path d="M 53.515625 70.515625 
L 53.515625 60.890625 
Q 47.90625 63.578125 42.921875 64.890625 
Q 37.9375 66.21875 33.296875 66.21875 
Q 25.25 66.21875 20.875 63.09375 
Q 16.5 59.96875 16.5 54.203125 
Q 16.5 49.359375 19.40625 46.890625 
Q 22.3125 44.4375 30.421875 42.921875 
L 36.375 41.703125 
Q 47.40625 39.59375 52.65625 34.296875 
Q 57.90625 29 57.90625 20.125 
Q 57.90625 9.515625 50.796875 4.046875 
Q 43.703125 -1.421875 29.984375 -1.421875 
Q 24.8125 -1.421875 18.96875 -0.25 
Q 13.140625 0.921875 6.890625 3.21875 
L 6.890625 13.375 
Q 12.890625 10.015625 18.65625 8.296875 
Q 24.421875 6.59375 29.984375 6.59375 
Q 38.421875 6.59375 43.015625 9.90625 
Q 47.609375 13.234375 47.609375 19.390625 
Q 47.609375 24.75 44.3125 27.78125 
Q 41.015625 30.8125 33.5 32.328125 
L 27.484375 33.5 
Q 16.453125 35.6875 11.515625 40.375 
Q 6.59375 45.0625 6.59375 53.421875 
Q 6.59375 63.09375 13.40625 68.65625 
Q 20.21875 74.21875 32.171875 74.21875 
Q 37.3125 74.21875 42.625 73.28125 
Q 47.953125 72.359375 53.515625 70.515625 
z
" id="DejaVuSans-53"/>
      <path d="M 8.5 21.578125 
L 8.5 54.6875 
L 17.484375 54.6875 
L 17.484375 21.921875 
Q 17.484375 14.15625 20.5 10.265625 
Q 23.53125 6.390625 29.59375 6.390625 
Q 36.859375 6.390625 41.078125 11.03125 
Q 45.3125 15.671875 45.3125 23.6875 
L 45.3125 54.6875 
L 54.296875 54.6875 
L 54.296875 0 
L 45.3125 0 
L 45.3125 8.40625 
Q 42.046875 3.421875 37.71875 1 
Q 33.40625 -1.421875 27.6875 -1.421875 
Q 18.265625 -1.421875 13.375 4.4375 
Q 8.5 10.296875 8.5 21.578125 
z
M 31.109375 56 
z
" id="DejaVuSans-75"/>
      <path d="M 52 44.1875 
Q 55.375 50.25 60.0625 53.125 
Q 64.75 56 71.09375 56 
Q 79.640625 56 84.28125 50.015625 
Q 88.921875 44.046875 88.921875 33.015625 
L 88.921875 0 
L 79.890625 0 
L 79.890625 32.71875 
Q 79.890625 40.578125 77.09375 44.375 
Q 74.3125 48.1875 68.609375 48.1875 
Q 61.625 48.1875 57.5625 43.546875 
Q 53.515625 38.921875 53.515625 30.90625 
L 53.515625 0 
L 44.484375 0 
L 44.484375 32.71875 
Q 44.484375 40.625 41.703125 44.40625 
Q 38.921875 48.1875 33.109375 48.1875 
Q 26.21875 48.1875 22.15625 43.53125 
Q 18.109375 38.875 18.109375 30.90625 
L 18.109375 0 
L 9.078125 0 
L 9.078125 54.6875 
L 18.109375 54.6875 
L 18.109375 46.1875 
Q 21.1875 51.21875 25.484375 53.609375 
Q 29.78125 56 35.6875 56 
Q 41.65625 56 45.828125 52.96875 
Q 50 49.953125 52 44.1875 
z
" id="DejaVuSans-6d"/>
      <path d="M 50.984375 -16.609375 
L 50.984375 -23.578125 
L -0.984375 -23.578125 
L -0.984375 -16.609375 
z
" id="DejaVuSans-5f"/>
      <path d="M 64.40625 67.28125 
L 64.40625 56.890625 
Q 59.421875 61.53125 53.78125 63.8125 
Q 48.140625 66.109375 41.796875 66.109375 
Q 29.296875 66.109375 22.65625 58.46875 
Q 16.015625 50.828125 16.015625 36.375 
Q 16.015625 21.96875 22.65625 14.328125 
Q 29.296875 6.6875 41.796875 6.6875 
Q 48.140625 6.6875 53.78125 8.984375 
Q 59.421875 11.28125 64.40625 15.921875 
L 64.40625 5.609375 
Q 59.234375 2.09375 53.4375 0.328125 
Q 47.65625 -1.421875 41.21875 -1.421875 
Q 24.65625 -1.421875 15.125 8.703125 
Q 5.609375 18.84375 5.609375 36.375 
Q 5.609375 53.953125 15.125 64.078125 
Q 24.65625 74.21875 41.21875 74.21875 
Q 47.75 74.21875 53.53125 72.484375 
Q 59.328125 70.75 64.40625 67.28125 
z
" id="DejaVuSans-43"/>
      <path d="M 41.109375 46.296875 
Q 39.59375 47.171875 37.8125 47.578125 
Q 36.03125 48 33.890625 48 
Q 26.265625 48 22.1875 43.046875 
Q 18.109375 38.09375 18.109375 28.8125 
L 18.109375 0 
L 9.078125 0 
L 9.078125 54.6875 
L 18.109375 54.6875 
L 18.109375 46.1875 
Q 20.953125 51.171875 25.484375 53.578125 
Q 30.03125 56 36.53125 56 
Q 37.453125 56 38.578125 55.875 
Q 39.703125 55.765625 41.0625 55.515625 
z
" id="DejaVuSans-72"/>
      <path d="M 56.203125 29.59375 
L 56.203125 25.203125 
L 14.890625 25.203125 
Q 15.484375 15.921875 20.484375 11.0625 
Q 25.484375 6.203125 34.421875 6.203125 
Q 39.59375 6.203125 44.453125 7.46875 
Q 49.3125 8.734375 54.109375 11.28125 
L 54.109375 2.78125 
Q 49.265625 0.734375 44.1875 -0.34375 
Q 39.109375 -1.421875 33.890625 -1.421875 
Q 20.796875 -1.421875 13.15625 6.1875 
Q 5.515625 13.8125 5.515625 26.8125 
Q 5.515625 40.234375 12.765625 48.109375 
Q 20.015625 56 32.328125 56 
Q 43.359375 56 49.78125 48.890625 
Q 56.203125 41.796875 56.203125 29.59375 
z
M 47.21875 32.234375 
Q 47.125 39.59375 43.09375 43.984375 
Q 39.0625 48.390625 32.421875 48.390625 
Q 24.90625 48.390625 20.390625 44.140625 
Q 15.875 39.890625 15.1875 32.171875 
z
" id="DejaVuSans-65"/>
      <path d="M 45.40625 46.390625 
L 45.40625 75.984375 
L 54.390625 75.984375 
L 54.390625 0 
L 45.40625 0 
L 45.40625 8.203125 
Q 42.578125 3.328125 38.25 0.953125 
Q 33.9375 -1.421875 27.875 -1.421875 
Q 17.96875 -1.421875 11.734375 6.484375 
Q 5.515625 14.40625 5.515625 27.296875 
Q 5.515625 40.1875 11.734375 48.09375 
Q 17.96875 56 27.875 56 
Q 33.9375 56 38.25 53.625 
Q 42.578125 51.265625 45.40625 46.390625 
z
M 14.796875 27.296875 
Q 14.796875 17.390625 18.875 11.75 
Q 22.953125 6.109375 30.078125 6.109375 
Q 37.203125 6.109375 41.296875 11.75 
Q 45.40625 17.390625 45.40625 27.296875 
Q 45.40625 37.203125 41.296875 42.84375 
Q 37.203125 48.484375 30.078125 48.484375 
Q 22.953125 48.484375 18.875 42.84375 
Q 14.796875 37.203125 14.796875 27.296875 
z
" id="DejaVuSans-64"/>
      <path d="M 9.421875 54.6875 
L 18.40625 54.6875 
L 18.40625 0 
L 9.421875 0 
z
M 9.421875 75.984375 
L 18.40625 75.984375 
L 18.40625 64.59375 
L 9.421875 64.59375 
z
" id="DejaVuSans-69"/>
      <path d="M 18.3125 70.21875 
L 18.3125 54.6875 
L 36.8125 54.6875 
L 36.8125 47.703125 
L 18.3125 47.703125 
L 18.3125 18.015625 
Q 18.3125 11.328125 20.140625 9.421875 
Q 21.96875 7.515625 27.59375 7.515625 
L 36.8125 7.515625 
L 36.8125 0 
L 27.59375 0 
Q 17.1875 0 13.234375 3.875 
Q 9.28125 7.765625 9.28125 18.015625 
L 9.28125 47.703125 
L 2.6875 47.703125 
L 2.6875 54.6875 
L 9.28125 54.6875 
L 9.28125 70.21875 
z
" id="DejaVuSans-74"/>
     </defs>
     <g style="fill:#262626;" transform="translate(366.576993 414.615312)scale(0.1 -0.1)">
      <use xlink:href="#DejaVuSans-53"/>
      <use x="63.476562" xlink:href="#DejaVuSans-75"/>
      <use x="126.855469" xlink:href="#DejaVuSans-6d"/>
      <use x="224.267578" xlink:href="#DejaVuSans-5f"/>
      <use x="274.267578" xlink:href="#DejaVuSans-43"/>
      <use x="344.091797" xlink:href="#DejaVuSans-72"/>
      <use x="385.173828" xlink:href="#DejaVuSans-65"/>
      <use x="446.697266" xlink:href="#DejaVuSans-64"/>
      <use x="510.173828" xlink:href="#DejaVuSans-69"/>
      <use x="537.957031" xlink:href="#DejaVuSans-74"/>
     </g>
    </g>
   </g>
   <g id="matplotlib.axis_2">
    <g id="ytick_1">
     <g id="line2d_11">
      <path clip-path="url(#p49bcde8d33)" d="M 50.10625 351.936565 
L 740.764924 351.936565 
" style="fill:none;stroke:#ffffff;stroke-linecap:round;stroke-width:0.8;"/>
     </g>
     <g id="line2d_12"/>
     <g id="text_7">
      <!-- 0 -->
      <g style="fill:#262626;" transform="translate(40.24375 355.735784)scale(0.1 -0.1)">
       <use xlink:href="#DejaVuSans-30"/>
      </g>
     </g>
    </g>
    <g id="ytick_2">
     <g id="line2d_13">
      <path clip-path="url(#p49bcde8d33)" d="M 50.10625 301.345799 
L 740.764924 301.345799 
" style="fill:none;stroke:#ffffff;stroke-linecap:round;stroke-width:0.8;"/>
     </g>
     <g id="line2d_14"/>
     <g id="text_8">
      <!-- 200 -->
      <g style="fill:#262626;" transform="translate(27.51875 305.145017)scale(0.1 -0.1)">
       <use xlink:href="#DejaVuSans-32"/>
       <use x="63.623047" xlink:href="#DejaVuSans-30"/>
       <use x="127.246094" xlink:href="#DejaVuSans-30"/>
      </g>
     </g>
    </g>
    <g id="ytick_3">
     <g id="line2d_15">
      <path clip-path="url(#p49bcde8d33)" d="M 50.10625 250.755032 
L 740.764924 250.755032 
" style="fill:none;stroke:#ffffff;stroke-linecap:round;stroke-width:0.8;"/>
     </g>
     <g id="line2d_16"/>
     <g id="text_9">
      <!-- 400 -->
      <g style="fill:#262626;" transform="translate(27.51875 254.554251)scale(0.1 -0.1)">
       <use xlink:href="#DejaVuSans-34"/>
       <use x="63.623047" xlink:href="#DejaVuSans-30"/>
       <use x="127.246094" xlink:href="#DejaVuSans-30"/>
      </g>
     </g>
    </g>
    <g id="ytick_4">
     <g id="line2d_17">
      <path clip-path="url(#p49bcde8d33)" d="M 50.10625 200.164266 
L 740.764924 200.164266 
" style="fill:none;stroke:#ffffff;stroke-linecap:round;stroke-width:0.8;"/>
     </g>
     <g id="line2d_18"/>
     <g id="text_10">
      <!-- 600 -->
      <g style="fill:#262626;" transform="translate(27.51875 203.963485)scale(0.1 -0.1)">
       <use xlink:href="#DejaVuSans-36"/>
       <use x="63.623047" xlink:href="#DejaVuSans-30"/>
       <use x="127.246094" xlink:href="#DejaVuSans-30"/>
      </g>
     </g>
    </g>
    <g id="ytick_5">
     <g id="line2d_19">
      <path clip-path="url(#p49bcde8d33)" d="M 50.10625 149.5735 
L 740.764924 149.5735 
" style="fill:none;stroke:#ffffff;stroke-linecap:round;stroke-width:0.8;"/>
     </g>
     <g id="line2d_20"/>
     <g id="text_11">
      <!-- 800 -->
      <g style="fill:#262626;" transform="translate(27.51875 153.372718)scale(0.1 -0.1)">
       <use xlink:href="#DejaVuSans-38"/>
       <use x="63.623047" xlink:href="#DejaVuSans-30"/>
       <use x="127.246094" xlink:href="#DejaVuSans-30"/>
      </g>
     </g>
    </g>
    <g id="ytick_6">
     <g id="line2d_21">
      <path clip-path="url(#p49bcde8d33)" d="M 50.10625 98.982733 
L 740.764924 98.982733 
" style="fill:none;stroke:#ffffff;stroke-linecap:round;stroke-width:0.8;"/>
     </g>
     <g id="line2d_22"/>
     <g id="text_12">
      <!-- 1000 -->
      <defs>
       <path d="M 12.40625 8.296875 
L 28.515625 8.296875 
L 28.515625 63.921875 
L 10.984375 60.40625 
L 10.984375 69.390625 
L 28.421875 72.90625 
L 38.28125 72.90625 
L 38.28125 8.296875 
L 54.390625 8.296875 
L 54.390625 0 
L 12.40625 0 
z
" id="DejaVuSans-31"/>
      </defs>
      <g style="fill:#262626;" transform="translate(21.15625 102.781952)scale(0.1 -0.1)">
       <use xlink:href="#DejaVuSans-31"/>
       <use x="63.623047" xlink:href="#DejaVuSans-30"/>
       <use x="127.246094" xlink:href="#DejaVuSans-30"/>
       <use x="190.869141" xlink:href="#DejaVuSans-30"/>
      </g>
     </g>
    </g>
    <g id="ytick_7">
     <g id="line2d_23">
      <path clip-path="url(#p49bcde8d33)" d="M 50.10625 48.391967 
L 740.764924 48.391967 
" style="fill:none;stroke:#ffffff;stroke-linecap:round;stroke-width:0.8;"/>
     </g>
     <g id="line2d_24"/>
     <g id="text_13">
      <!-- 1200 -->
      <g style="fill:#262626;" transform="translate(21.15625 52.191186)scale(0.1 -0.1)">
       <use xlink:href="#DejaVuSans-31"/>
       <use x="63.623047" xlink:href="#DejaVuSans-32"/>
       <use x="127.246094" xlink:href="#DejaVuSans-30"/>
       <use x="190.869141" xlink:href="#DejaVuSans-30"/>
      </g>
     </g>
    </g>
    <g id="text_14">
     <!-- Sum_Debit -->
     <defs>
      <path d="M 19.671875 64.796875 
L 19.671875 8.109375 
L 31.59375 8.109375 
Q 46.6875 8.109375 53.6875 14.9375 
Q 60.6875 21.78125 60.6875 36.53125 
Q 60.6875 51.171875 53.6875 57.984375 
Q 46.6875 64.796875 31.59375 64.796875 
z
M 9.8125 72.90625 
L 30.078125 72.90625 
Q 51.265625 72.90625 61.171875 64.09375 
Q 71.09375 55.28125 71.09375 36.53125 
Q 71.09375 17.671875 61.125 8.828125 
Q 51.171875 0 30.078125 0 
L 9.8125 0 
z
" id="DejaVuSans-44"/>
      <path d="M 48.6875 27.296875 
Q 48.6875 37.203125 44.609375 42.84375 
Q 40.53125 48.484375 33.40625 48.484375 
Q 26.265625 48.484375 22.1875 42.84375 
Q 18.109375 37.203125 18.109375 27.296875 
Q 18.109375 17.390625 22.1875 11.75 
Q 26.265625 6.109375 33.40625 6.109375 
Q 40.53125 6.109375 44.609375 11.75 
Q 48.6875 17.390625 48.6875 27.296875 
z
M 18.109375 46.390625 
Q 20.953125 51.265625 25.265625 53.625 
Q 29.59375 56 35.59375 56 
Q 45.5625 56 51.78125 48.09375 
Q 58.015625 40.1875 58.015625 27.296875 
Q 58.015625 14.40625 51.78125 6.484375 
Q 45.5625 -1.421875 35.59375 -1.421875 
Q 29.59375 -1.421875 25.265625 0.953125 
Q 20.953125 3.328125 18.109375 8.203125 
L 18.109375 0 
L 9.078125 0 
L 9.078125 75.984375 
L 18.109375 75.984375 
z
" id="DejaVuSans-62"/>
     </defs>
     <g style="fill:#262626;" transform="translate(14.798437 225.682656)rotate(-90)scale(0.1 -0.1)">
      <use xlink:href="#DejaVuSans-53"/>
      <use x="63.476562" xlink:href="#DejaVuSans-75"/>
      <use x="126.855469" xlink:href="#DejaVuSans-6d"/>
      <use x="224.267578" xlink:href="#DejaVuSans-5f"/>
      <use x="274.267578" xlink:href="#DejaVuSans-44"/>
      <use x="351.269531" xlink:href="#DejaVuSans-65"/>
      <use x="412.792969" xlink:href="#DejaVuSans-62"/>
      <use x="476.269531" xlink:href="#DejaVuSans-69"/>
      <use x="504.052734" xlink:href="#DejaVuSans-74"/>
     </g>
    </g>
   </g>
   <g id="PathCollection_1">
    <defs>
     <path d="M 0 3 
C 0.795609 3 1.55874 2.683901 2.12132 2.12132 
C 2.683901 1.55874 3 0.795609 3 0 
C 3 -0.795609 2.683901 -1.55874 2.12132 -2.12132 
C 1.55874 -2.683901 0.795609 -3 0 -3 
C -0.795609 -3 -1.55874 -2.683901 -2.12132 -2.12132 
C -2.683901 -1.55874 -3 -0.795609 -3 0 
C -3 0.795609 -2.683901 1.55874 -2.12132 2.12132 
C -1.55874 2.683901 -0.795609 3 0 3 
z
" id="m7e7a4d58bd" style="stroke:#1f77b4;stroke-opacity:0.8;"/>
    </defs>
    <g clip-path="url(#p49bcde8d33)">
     <use style="fill:#1f77b4;fill-opacity:0.8;stroke:#1f77b4;stroke-opacity:0.8;" x="117.186637" xlink:href="#m7e7a4d58bd" y="350.518319"/>
     <use style="fill:#1f77b4;fill-opacity:0.8;stroke:#1f77b4;stroke-opacity:0.8;" x="139.549653" xlink:href="#m7e7a4d58bd" y="352.538484"/>
     <use style="fill:#1f77b4;fill-opacity:0.8;stroke:#1f77b4;stroke-opacity:0.8;" x="142.473592" xlink:href="#m7e7a4d58bd" y="321.413217"/>
     <use style="fill:#1f77b4;fill-opacity:0.8;stroke:#1f77b4;stroke-opacity:0.8;" x="118.366676" xlink:href="#m7e7a4d58bd" y="334.848434"/>
     <use style="fill:#1f77b4;fill-opacity:0.8;stroke:#1f77b4;stroke-opacity:0.8;" x="107.885469" xlink:href="#m7e7a4d58bd" y="329.39857"/>
     <use style="fill:#1f77b4;fill-opacity:0.8;stroke:#1f77b4;stroke-opacity:0.8;" x="123.020546" xlink:href="#m7e7a4d58bd" y="345.310815"/>
     <use style="fill:#1f77b4;fill-opacity:0.8;stroke:#1f77b4;stroke-opacity:0.8;" x="137.196729" xlink:href="#m7e7a4d58bd" y="327.006033"/>
     <use style="fill:#1f77b4;fill-opacity:0.8;stroke:#1f77b4;stroke-opacity:0.8;" x="106.474999" xlink:href="#m7e7a4d58bd" y="334.688307"/>
     <use style="fill:#1f77b4;fill-opacity:0.8;stroke:#1f77b4;stroke-opacity:0.8;" x="101.205875" xlink:href="#m7e7a4d58bd" y="346.589513"/>
     <use style="fill:#1f77b4;fill-opacity:0.8;stroke:#1f77b4;stroke-opacity:0.8;" x="146.876472" xlink:href="#m7e7a4d58bd" y="320.144902"/>
     <use style="fill:#1f77b4;fill-opacity:0.8;stroke:#1f77b4;stroke-opacity:0.8;" x="121.040417" xlink:href="#m7e7a4d58bd" y="298.287777"/>
     <use style="fill:#1f77b4;fill-opacity:0.8;stroke:#1f77b4;stroke-opacity:0.8;" x="173.001465" xlink:href="#m7e7a4d58bd" y="279.167614"/>
     <use style="fill:#1f77b4;fill-opacity:0.8;stroke:#1f77b4;stroke-opacity:0.8;" x="133.006159" xlink:href="#m7e7a4d58bd" y="307.883031"/>
     <use style="fill:#1f77b4;fill-opacity:0.8;stroke:#1f77b4;stroke-opacity:0.8;" x="181.258135" xlink:href="#m7e7a4d58bd" y="333.719583"/>
     <use style="fill:#1f77b4;fill-opacity:0.8;stroke:#1f77b4;stroke-opacity:0.8;" x="96.304086" xlink:href="#m7e7a4d58bd" y="336.436659"/>
     <use style="fill:#1f77b4;fill-opacity:0.8;stroke:#1f77b4;stroke-opacity:0.8;" x="90.905671" xlink:href="#m7e7a4d58bd" y="348.017083"/>
     <use style="fill:#1f77b4;fill-opacity:0.8;stroke:#1f77b4;stroke-opacity:0.8;" x="126.314092" xlink:href="#m7e7a4d58bd" y="358.147052"/>
     <use style="fill:#1f77b4;fill-opacity:0.8;stroke:#1f77b4;stroke-opacity:0.8;" x="126.147347" xlink:href="#m7e7a4d58bd" y="342.129096"/>
     <use style="fill:#1f77b4;fill-opacity:0.8;stroke:#1f77b4;stroke-opacity:0.8;" x="95.387267" xlink:href="#m7e7a4d58bd" y="335.61644"/>
     <use style="fill:#1f77b4;fill-opacity:0.8;stroke:#1f77b4;stroke-opacity:0.8;" x="131.413373" xlink:href="#m7e7a4d58bd" y="350.171528"/>
     <use style="fill:#1f77b4;fill-opacity:0.8;stroke:#1f77b4;stroke-opacity:0.8;" x="116.690002" xlink:href="#m7e7a4d58bd" y="345.272521"/>
     <use style="fill:#1f77b4;fill-opacity:0.8;stroke:#1f77b4;stroke-opacity:0.8;" x="118.7942" xlink:href="#m7e7a4d58bd" y="336.304016"/>
     <use style="fill:#1f77b4;fill-opacity:0.8;stroke:#1f77b4;stroke-opacity:0.8;" x="135.395728" xlink:href="#m7e7a4d58bd" y="320.612331"/>
     <use style="fill:#1f77b4;fill-opacity:0.8;stroke:#1f77b4;stroke-opacity:0.8;" x="294.12382" xlink:href="#m7e7a4d58bd" y="269.463438"/>
     <use style="fill:#1f77b4;fill-opacity:0.8;stroke:#1f77b4;stroke-opacity:0.8;" x="121.482386" xlink:href="#m7e7a4d58bd" y="333.611986"/>
     <use style="fill:#1f77b4;fill-opacity:0.8;stroke:#1f77b4;stroke-opacity:0.8;" x="107.243522" xlink:href="#m7e7a4d58bd" y="328.379974"/>
     <use style="fill:#1f77b4;fill-opacity:0.8;stroke:#1f77b4;stroke-opacity:0.8;" x="130.925797" xlink:href="#m7e7a4d58bd" y="341.68307"/>
     <use style="fill:#1f77b4;fill-opacity:0.8;stroke:#1f77b4;stroke-opacity:0.8;" x="132.374606" xlink:href="#m7e7a4d58bd" y="344.596536"/>
     <use style="fill:#1f77b4;fill-opacity:0.8;stroke:#1f77b4;stroke-opacity:0.8;" x="83.516204" xlink:href="#m7e7a4d58bd" y="311.140426"/>
     <use style="fill:#1f77b4;fill-opacity:0.8;stroke:#1f77b4;stroke-opacity:0.8;" x="107.183828" xlink:href="#m7e7a4d58bd" y="342.174133"/>
     <use style="fill:#1f77b4;fill-opacity:0.8;stroke:#1f77b4;stroke-opacity:0.8;" x="103.313533" xlink:href="#m7e7a4d58bd" y="329.620948"/>
     <use style="fill:#1f77b4;fill-opacity:0.8;stroke:#1f77b4;stroke-opacity:0.8;" x="174.471715" xlink:href="#m7e7a4d58bd" y="338.515448"/>
     <use style="fill:#1f77b4;fill-opacity:0.8;stroke:#1f77b4;stroke-opacity:0.8;" x="96.853665" xlink:href="#m7e7a4d58bd" y="340.719761"/>
     <use style="fill:#1f77b4;fill-opacity:0.8;stroke:#1f77b4;stroke-opacity:0.8;" x="101.852525" xlink:href="#m7e7a4d58bd" y="334.109925"/>
     <use style="fill:#1f77b4;fill-opacity:0.8;stroke:#1f77b4;stroke-opacity:0.8;" x="125.188933" xlink:href="#m7e7a4d58bd" y="329.846302"/>
     <use style="fill:#1f77b4;fill-opacity:0.8;stroke:#1f77b4;stroke-opacity:0.8;" x="160.833241" xlink:href="#m7e7a4d58bd" y="336.120157"/>
     <use style="fill:#1f77b4;fill-opacity:0.8;stroke:#1f77b4;stroke-opacity:0.8;" x="346.285744" xlink:href="#m7e7a4d58bd" y="282.780343"/>
     <use style="fill:#1f77b4;fill-opacity:0.8;stroke:#1f77b4;stroke-opacity:0.8;" x="105.734781" xlink:href="#m7e7a4d58bd" y="321.472145"/>
     <use style="fill:#1f77b4;fill-opacity:0.8;stroke:#1f77b4;stroke-opacity:0.8;" x="122.511024" xlink:href="#m7e7a4d58bd" y="324.733725"/>
     <use style="fill:#1f77b4;fill-opacity:0.8;stroke:#1f77b4;stroke-opacity:0.8;" x="120.842226" xlink:href="#m7e7a4d58bd" y="345.217412"/>
     <use style="fill:#1f77b4;fill-opacity:0.8;stroke:#1f77b4;stroke-opacity:0.8;" x="246.508732" xlink:href="#m7e7a4d58bd" y="266.653822"/>
     <use style="fill:#1f77b4;fill-opacity:0.8;stroke:#1f77b4;stroke-opacity:0.8;" x="228.841382" xlink:href="#m7e7a4d58bd" y="313.039603"/>
     <use style="fill:#1f77b4;fill-opacity:0.8;stroke:#1f77b4;stroke-opacity:0.8;" x="119.300133" xlink:href="#m7e7a4d58bd" y="344.319847"/>
     <use style="fill:#1f77b4;fill-opacity:0.8;stroke:#1f77b4;stroke-opacity:0.8;" x="98.470683" xlink:href="#m7e7a4d58bd" y="341.434698"/>
     <use style="fill:#1f77b4;fill-opacity:0.8;stroke:#1f77b4;stroke-opacity:0.8;" x="301.331595" xlink:href="#m7e7a4d58bd" y="256.907771"/>
     <use style="fill:#1f77b4;fill-opacity:0.8;stroke:#1f77b4;stroke-opacity:0.8;" x="127.512392" xlink:href="#m7e7a4d58bd" y="342.255396"/>
     <use style="fill:#1f77b4;fill-opacity:0.8;stroke:#1f77b4;stroke-opacity:0.8;" x="124.584481" xlink:href="#m7e7a4d58bd" y="348.035636"/>
     <use style="fill:#1f77b4;fill-opacity:0.8;stroke:#1f77b4;stroke-opacity:0.8;" x="112.265863" xlink:href="#m7e7a4d58bd" y="351.651088"/>
     <use style="fill:#1f77b4;fill-opacity:0.8;stroke:#1f77b4;stroke-opacity:0.8;" x="102.694665" xlink:href="#m7e7a4d58bd" y="350.705842"/>
     <use style="fill:#1f77b4;fill-opacity:0.8;stroke:#1f77b4;stroke-opacity:0.8;" x="120.133866" xlink:href="#m7e7a4d58bd" y="323.372216"/>
     <use style="fill:#1f77b4;fill-opacity:0.8;stroke:#1f77b4;stroke-opacity:0.8;" x="115.449917" xlink:href="#m7e7a4d58bd" y="348.282086"/>
     <use style="fill:#1f77b4;fill-opacity:0.8;stroke:#1f77b4;stroke-opacity:0.8;" x="112.827885" xlink:href="#m7e7a4d58bd" y="344.045802"/>
     <use style="fill:#1f77b4;fill-opacity:0.8;stroke:#1f77b4;stroke-opacity:0.8;" x="122.304497" xlink:href="#m7e7a4d58bd" y="345.616388"/>
     <use style="fill:#1f77b4;fill-opacity:0.8;stroke:#1f77b4;stroke-opacity:0.8;" x="212.987077" xlink:href="#m7e7a4d58bd" y="294.316329"/>
     <use style="fill:#1f77b4;fill-opacity:0.8;stroke:#1f77b4;stroke-opacity:0.8;" x="87.587852" xlink:href="#m7e7a4d58bd" y="343.074296"/>
     <use style="fill:#1f77b4;fill-opacity:0.8;stroke:#1f77b4;stroke-opacity:0.8;" x="103.391654" xlink:href="#m7e7a4d58bd" y="343.42854"/>
     <use style="fill:#1f77b4;fill-opacity:0.8;stroke:#1f77b4;stroke-opacity:0.8;" x="118.658848" xlink:href="#m7e7a4d58bd" y="314.349"/>
     <use style="fill:#1f77b4;fill-opacity:0.8;stroke:#1f77b4;stroke-opacity:0.8;" x="100.733599" xlink:href="#m7e7a4d58bd" y="272.187497"/>
     <use style="fill:#1f77b4;fill-opacity:0.8;stroke:#1f77b4;stroke-opacity:0.8;" x="284.951138" xlink:href="#m7e7a4d58bd" y="231.791574"/>
     <use style="fill:#1f77b4;fill-opacity:0.8;stroke:#1f77b4;stroke-opacity:0.8;" x="136.837463" xlink:href="#m7e7a4d58bd" y="349.305707"/>
     <use style="fill:#1f77b4;fill-opacity:0.8;stroke:#1f77b4;stroke-opacity:0.8;" x="133.754098" xlink:href="#m7e7a4d58bd" y="336.811023"/>
     <use style="fill:#1f77b4;fill-opacity:0.8;stroke:#1f77b4;stroke-opacity:0.8;" x="168.085589" xlink:href="#m7e7a4d58bd" y="323.336836"/>
     <use style="fill:#1f77b4;fill-opacity:0.8;stroke:#1f77b4;stroke-opacity:0.8;" x="112.863078" xlink:href="#m7e7a4d58bd" y="341.968127"/>
     <use style="fill:#1f77b4;fill-opacity:0.8;stroke:#1f77b4;stroke-opacity:0.8;" x="157.317819" xlink:href="#m7e7a4d58bd" y="297.386429"/>
     <use style="fill:#1f77b4;fill-opacity:0.8;stroke:#1f77b4;stroke-opacity:0.8;" x="206.561507" xlink:href="#m7e7a4d58bd" y="317.876171"/>
     <use style="fill:#1f77b4;fill-opacity:0.8;stroke:#1f77b4;stroke-opacity:0.8;" x="89.901725" xlink:href="#m7e7a4d58bd" y="347.846671"/>
     <use style="fill:#1f77b4;fill-opacity:0.8;stroke:#1f77b4;stroke-opacity:0.8;" x="163.216169" xlink:href="#m7e7a4d58bd" y="321.226986"/>
     <use style="fill:#1f77b4;fill-opacity:0.8;stroke:#1f77b4;stroke-opacity:0.8;" x="128.031943" xlink:href="#m7e7a4d58bd" y="353.355429"/>
     <use style="fill:#1f77b4;fill-opacity:0.8;stroke:#1f77b4;stroke-opacity:0.8;" x="94.576723" xlink:href="#m7e7a4d58bd" y="339.022933"/>
     <use style="fill:#1f77b4;fill-opacity:0.8;stroke:#1f77b4;stroke-opacity:0.8;" x="85.453307" xlink:href="#m7e7a4d58bd" y="354.256732"/>
     <use style="fill:#1f77b4;fill-opacity:0.8;stroke:#1f77b4;stroke-opacity:0.8;" x="91.64921" xlink:href="#m7e7a4d58bd" y="343.885906"/>
     <use style="fill:#1f77b4;fill-opacity:0.8;stroke:#1f77b4;stroke-opacity:0.8;" x="123.669387" xlink:href="#m7e7a4d58bd" y="340.607745"/>
     <use style="fill:#1f77b4;fill-opacity:0.8;stroke:#1f77b4;stroke-opacity:0.8;" x="130.930866" xlink:href="#m7e7a4d58bd" y="339.398086"/>
     <use style="fill:#1f77b4;fill-opacity:0.8;stroke:#1f77b4;stroke-opacity:0.8;" x="83.767663" xlink:href="#m7e7a4d58bd" y="357.92877"/>
     <use style="fill:#1f77b4;fill-opacity:0.8;stroke:#1f77b4;stroke-opacity:0.8;" x="219.211454" xlink:href="#m7e7a4d58bd" y="313.632442"/>
     <use style="fill:#1f77b4;fill-opacity:0.8;stroke:#1f77b4;stroke-opacity:0.8;" x="89.9093" xlink:href="#m7e7a4d58bd" y="357.335698"/>
     <use style="fill:#1f77b4;fill-opacity:0.8;stroke:#1f77b4;stroke-opacity:0.8;" x="96.641395" xlink:href="#m7e7a4d58bd" y="337.199531"/>
     <use style="fill:#1f77b4;fill-opacity:0.8;stroke:#1f77b4;stroke-opacity:0.8;" x="124.069723" xlink:href="#m7e7a4d58bd" y="346.210701"/>
     <use style="fill:#1f77b4;fill-opacity:0.8;stroke:#1f77b4;stroke-opacity:0.8;" x="369.593505" xlink:href="#m7e7a4d58bd" y="265.560369"/>
    </g>
   </g>
   <g id="PolyCollection_1">
    <path clip-path="url(#p49bcde8d33)" d="M 50.10625 355.752586 
L 50.10625 372.197836 
L 57.0826 368.62199 
L 64.05895 365.120873 
L 71.035301 361.694738 
L 78.011651 358.266019 
L 84.988001 354.605203 
L 91.964351 351.150048 
L 98.940702 347.979651 
L 105.917052 344.546574 
L 112.893402 341.492673 
L 119.869752 338.614028 
L 126.846103 335.802422 
L 133.822453 333.15342 
L 140.798803 330.652137 
L 147.775153 328.276723 
L 154.751504 325.835376 
L 161.727854 323.507809 
L 168.704204 321.23187 
L 175.680554 318.971353 
L 182.656905 316.753319 
L 189.633255 314.490632 
L 196.609605 312.226146 
L 203.585955 309.903944 
L 210.562306 307.648308 
L 217.538656 305.36527 
L 224.515006 303.098858 
L 231.491356 300.892062 
L 238.467707 298.738754 
L 245.444057 296.472263 
L 252.420407 294.24245 
L 259.396757 292.042664 
L 266.373108 289.883618 
L 273.349458 287.705871 
L 280.325808 285.531841 
L 287.302158 283.34836 
L 294.278509 281.168362 
L 301.254859 278.991232 
L 308.231209 276.814103 
L 315.207559 274.635575 
L 322.183909 272.455915 
L 329.16026 270.276256 
L 336.13661 268.096596 
L 343.11296 265.916936 
L 350.08931 263.737276 
L 357.065661 261.538604 
L 364.042011 259.379262 
L 371.018361 257.178281 
L 377.994711 254.971716 
L 384.971062 252.765151 
L 391.947412 250.56979 
L 398.923762 248.435529 
L 405.900112 246.306714 
L 412.876463 244.160504 
L 419.852813 242.02517 
L 426.829163 239.887993 
L 433.805513 237.741965 
L 440.781864 235.517764 
L 447.758214 233.293499 
L 454.734564 231.076895 
L 461.710914 228.90979 
L 468.687265 226.742684 
L 475.663615 224.575579 
L 482.639965 222.457035 
L 489.616315 220.253208 
L 496.592666 218.078268 
L 503.569016 215.911787 
L 510.545366 213.745173 
L 517.521716 211.577365 
L 524.498067 209.378113 
L 531.474417 207.213087 
L 538.450767 205.048062 
L 545.427117 202.883036 
L 552.403468 200.71788 
L 559.379818 198.528924 
L 566.356168 196.317332 
L 573.332518 194.105336 
L 580.308869 191.89333 
L 587.285219 189.683907 
L 594.261569 187.51856 
L 601.237919 185.353214 
L 608.214269 183.187867 
L 615.19062 181.022521 
L 622.16697 178.857175 
L 629.14332 176.719878 
L 636.11967 174.57232 
L 643.096021 172.391984 
L 650.072371 170.211648 
L 657.048721 168.034544 
L 664.025071 165.868922 
L 671.001422 163.703051 
L 677.977772 161.537179 
L 684.954122 159.371308 
L 691.930472 157.188767 
L 698.906823 154.987129 
L 705.883173 152.785491 
L 712.859523 150.583853 
L 719.835873 148.396841 
L 726.812224 146.21568 
L 733.788574 144.034519 
L 740.764924 141.853358 
L 740.764924 24.59267 
L 740.764924 24.59267 
L 733.788574 28.133964 
L 726.812224 31.675257 
L 719.835873 35.21655 
L 712.859523 38.757843 
L 705.883173 42.299136 
L 698.906823 45.840429 
L 691.930472 49.381722 
L 684.954122 52.923015 
L 677.977772 56.464309 
L 671.001422 60.005602 
L 664.025071 63.546895 
L 657.048721 67.088188 
L 650.072371 70.629481 
L 643.096021 74.170774 
L 636.11967 77.712067 
L 629.14332 81.253361 
L 622.16697 84.794654 
L 615.19062 88.335947 
L 608.214269 91.87724 
L 601.237919 95.418533 
L 594.261569 98.959826 
L 587.285219 102.501119 
L 580.308869 106.042412 
L 573.332518 109.583706 
L 566.356168 113.124999 
L 559.379818 116.666292 
L 552.403468 120.207585 
L 545.427117 123.748878 
L 538.450767 127.290171 
L 531.474417 130.831464 
L 524.498067 134.372757 
L 517.521716 137.914051 
L 510.545366 141.455344 
L 503.569016 144.996637 
L 496.592666 148.53793 
L 489.616315 152.079223 
L 482.639965 155.620516 
L 475.663615 159.161809 
L 468.687265 162.703102 
L 461.710914 166.244396 
L 454.734564 169.747816 
L 447.758214 173.240477 
L 440.781864 176.733138 
L 433.805513 180.225799 
L 426.829163 183.706185 
L 419.852813 187.163991 
L 412.876463 190.621797 
L 405.900112 194.079603 
L 398.923762 197.537409 
L 391.947412 200.995215 
L 384.971062 204.453021 
L 377.994711 207.910827 
L 371.018361 211.360126 
L 364.042011 214.802013 
L 357.065661 218.243899 
L 350.08931 221.685786 
L 343.11296 225.127672 
L 336.13661 228.570975 
L 329.16026 232.014399 
L 322.183909 235.457823 
L 315.207559 238.901247 
L 308.231209 242.344672 
L 301.254859 245.788096 
L 294.278509 249.23152 
L 287.302158 252.76309 
L 280.325808 256.329757 
L 273.349458 259.789253 
L 266.373108 263.27066 
L 259.396757 266.714268 
L 252.420407 270.158341 
L 245.444057 273.600895 
L 238.467707 277.043221 
L 231.491356 280.487439 
L 224.515006 283.982559 
L 217.538656 287.476094 
L 210.562306 290.994381 
L 203.585955 294.35155 
L 196.609605 297.806976 
L 189.633255 301.261361 
L 182.656905 304.589396 
L 175.680554 307.86064 
L 168.704204 311.361499 
L 161.727854 314.810132 
L 154.751504 318.029904 
L 147.775153 321.202421 
L 140.798803 324.204186 
L 133.822453 327.154238 
L 126.846103 329.925981 
L 119.869752 332.357696 
L 112.893402 334.805808 
L 105.917052 337.274634 
L 98.940702 339.643625 
L 91.964351 342.145589 
L 84.988001 344.445809 
L 78.011651 346.697095 
L 71.035301 348.939466 
L 64.05895 351.235923 
L 57.0826 353.557073 
L 50.10625 355.752586 
z
" style="fill:#1f77b4;fill-opacity:0.15;"/>
   </g>
   <g id="PathCollection_2">
    <defs>
     <path d="M 0 3 
C 0.795609 3 1.55874 2.683901 2.12132 2.12132 
C 2.683901 1.55874 3 0.795609 3 0 
C 3 -0.795609 2.683901 -1.55874 2.12132 -2.12132 
C 1.55874 -2.683901 0.795609 -3 0 -3 
C -0.795609 -3 -1.55874 -2.683901 -2.12132 -2.12132 
C -2.683901 -1.55874 -3 -0.795609 -3 0 
C -3 0.795609 -2.683901 1.55874 -2.12132 2.12132 
C -1.55874 2.683901 -0.795609 3 0 3 
z
" id="m5c365bcfc8" style="stroke:#ff7f0e;stroke-opacity:0.8;"/>
    </defs>
    <g clip-path="url(#p49bcde8d33)">
     <use style="fill:#ff7f0e;fill-opacity:0.8;stroke:#ff7f0e;stroke-opacity:0.8;" x="310.029192" xlink:href="#m5c365bcfc8" y="272.55096"/>
     <use style="fill:#ff7f0e;fill-opacity:0.8;stroke:#ff7f0e;stroke-opacity:0.8;" x="226.971423" xlink:href="#m5c365bcfc8" y="309.110523"/>
     <use style="fill:#ff7f0e;fill-opacity:0.8;stroke:#ff7f0e;stroke-opacity:0.8;" x="129.137193" xlink:href="#m5c365bcfc8" y="352.636401"/>
     <use style="fill:#ff7f0e;fill-opacity:0.8;stroke:#ff7f0e;stroke-opacity:0.8;" x="164.520646" xlink:href="#m5c365bcfc8" y="336.791708"/>
     <use style="fill:#ff7f0e;fill-opacity:0.8;stroke:#ff7f0e;stroke-opacity:0.8;" x="274.148626" xlink:href="#m5c365bcfc8" y="285.303442"/>
     <use style="fill:#ff7f0e;fill-opacity:0.8;stroke:#ff7f0e;stroke-opacity:0.8;" x="138.643815" xlink:href="#m5c365bcfc8" y="335.837033"/>
     <use style="fill:#ff7f0e;fill-opacity:0.8;stroke:#ff7f0e;stroke-opacity:0.8;" x="103.192092" xlink:href="#m5c365bcfc8" y="350.655398"/>
     <use style="fill:#ff7f0e;fill-opacity:0.8;stroke:#ff7f0e;stroke-opacity:0.8;" x="140.021083" xlink:href="#m5c365bcfc8" y="356.938264"/>
     <use style="fill:#ff7f0e;fill-opacity:0.8;stroke:#ff7f0e;stroke-opacity:0.8;" x="125.825314" xlink:href="#m5c365bcfc8" y="355.581293"/>
    </g>
   </g>
   <g id="PolyCollection_2">
    <path clip-path="url(#p49bcde8d33)" d="M 50.10625 372.44608 
L 50.10625 372.44608 
L 57.0826 370.0315 
L 64.05895 367.61692 
L 71.035301 365.20234 
L 78.011651 362.78776 
L 84.988001 360.37318 
L 91.964351 357.958601 
L 98.940702 355.544021 
L 105.917052 353.129441 
L 112.893402 350.714861 
L 119.869752 348.300281 
L 126.846103 345.885701 
L 133.822453 343.471122 
L 140.798803 341.056542 
L 147.775153 338.641962 
L 154.751504 336.227382 
L 161.727854 333.812802 
L 168.704204 331.398222 
L 175.680554 328.983642 
L 182.656905 326.569063 
L 189.633255 324.154483 
L 196.609605 321.739903 
L 203.585955 319.325323 
L 210.562306 316.910743 
L 217.538656 314.496163 
L 224.515006 312.081584 
L 231.491356 309.667004 
L 238.467707 307.252424 
L 245.444057 304.837844 
L 252.420407 302.423264 
L 259.396757 300.008684 
L 266.373108 297.594105 
L 273.349458 295.179525 
L 280.325808 292.764945 
L 287.302158 290.350365 
L 294.278509 287.935785 
L 301.254859 285.521205 
L 308.231209 283.106626 
L 315.207559 280.692046 
L 322.183909 278.277466 
L 329.16026 275.862886 
L 336.13661 273.448306 
L 343.11296 271.033726 
L 350.08931 268.619147 
L 357.065661 266.204567 
L 364.042011 263.789987 
L 371.018361 261.375407 
L 377.994711 258.960827 
L 384.971062 256.546247 
L 391.947412 254.131668 
L 398.923762 251.717088 
L 405.900112 249.302508 
L 412.876463 246.887928 
L 419.852813 244.473348 
L 426.829163 242.058768 
L 433.805513 239.644189 
L 440.781864 237.229609 
L 447.758214 234.815029 
L 454.734564 232.400449 
L 461.710914 229.985869 
L 468.687265 227.571289 
L 475.663615 225.15671 
L 482.639965 222.74213 
L 489.616315 220.32755 
L 496.592666 217.91297 
L 503.569016 215.49839 
L 510.545366 213.08381 
L 517.521716 210.669231 
L 524.498067 208.254651 
L 531.474417 205.840071 
L 538.450767 203.425491 
L 545.427117 201.010911 
L 552.403468 198.596331 
L 559.379818 196.181752 
L 566.356168 193.767172 
L 573.332518 191.352592 
L 580.308869 188.938012 
L 587.285219 186.523432 
L 594.261569 184.108852 
L 601.237919 181.694272 
L 608.214269 179.279693 
L 615.19062 176.865113 
L 622.16697 174.450533 
L 629.14332 172.035953 
L 636.11967 169.621373 
L 643.096021 167.206793 
L 650.072371 164.792214 
L 657.048721 162.377634 
L 664.025071 159.963054 
L 671.001422 157.548474 
L 677.977772 155.133894 
L 684.954122 152.719314 
L 691.930472 150.304735 
L 698.906823 147.890155 
L 705.883173 145.475575 
L 712.859523 143.060995 
L 719.835873 140.646415 
L 726.812224 138.231835 
L 733.788574 135.817256 
L 740.764924 133.402676 
L 740.764924 133.402676 
L 740.764924 133.402676 
L 733.788574 135.817256 
L 726.812224 138.231835 
L 719.835873 140.646415 
L 712.859523 143.060995 
L 705.883173 145.475575 
L 698.906823 147.890155 
L 691.930472 150.304735 
L 684.954122 152.719314 
L 677.977772 155.133894 
L 671.001422 157.548474 
L 664.025071 159.963054 
L 657.048721 162.377634 
L 650.072371 164.792214 
L 643.096021 167.206793 
L 636.11967 169.621373 
L 629.14332 172.035953 
L 622.16697 174.450533 
L 615.19062 176.865113 
L 608.214269 179.279693 
L 601.237919 181.694272 
L 594.261569 184.108852 
L 587.285219 186.523432 
L 580.308869 188.938012 
L 573.332518 191.352592 
L 566.356168 193.767172 
L 559.379818 196.181752 
L 552.403468 198.596331 
L 545.427117 201.010911 
L 538.450767 203.425491 
L 531.474417 205.840071 
L 524.498067 208.254651 
L 517.521716 210.669231 
L 510.545366 213.08381 
L 503.569016 215.49839 
L 496.592666 217.91297 
L 489.616315 220.32755 
L 482.639965 222.74213 
L 475.663615 225.15671 
L 468.687265 227.571289 
L 461.710914 229.985869 
L 454.734564 232.400449 
L 447.758214 234.815029 
L 440.781864 237.229609 
L 433.805513 239.644189 
L 426.829163 242.058768 
L 419.852813 244.473348 
L 412.876463 246.887928 
L 405.900112 249.302508 
L 398.923762 251.717088 
L 391.947412 254.131668 
L 384.971062 256.546247 
L 377.994711 258.960827 
L 371.018361 261.375407 
L 364.042011 263.789987 
L 357.065661 266.204567 
L 350.08931 268.619147 
L 343.11296 271.033726 
L 336.13661 273.448306 
L 329.16026 275.862886 
L 322.183909 278.277466 
L 315.207559 280.692046 
L 308.231209 283.106626 
L 301.254859 285.521205 
L 294.278509 287.935785 
L 287.302158 290.350365 
L 280.325808 292.764945 
L 273.349458 295.179525 
L 266.373108 297.594105 
L 259.396757 300.008684 
L 252.420407 302.423264 
L 245.444057 304.837844 
L 238.467707 307.252424 
L 231.491356 309.667004 
L 224.515006 312.081584 
L 217.538656 314.496163 
L 210.562306 316.910743 
L 203.585955 319.325323 
L 196.609605 321.739903 
L 189.633255 324.154483 
L 182.656905 326.569063 
L 175.680554 328.983642 
L 168.704204 331.398222 
L 161.727854 333.812802 
L 154.751504 336.227382 
L 147.775153 338.641962 
L 140.798803 341.056542 
L 133.822453 343.471122 
L 126.846103 345.885701 
L 119.869752 348.300281 
L 112.893402 350.714861 
L 105.917052 353.129441 
L 98.940702 355.544021 
L 91.964351 357.958601 
L 84.988001 360.37318 
L 78.011651 362.78776 
L 71.035301 365.20234 
L 64.05895 367.61692 
L 57.0826 370.0315 
L 50.10625 372.44608 
z
" style="fill:#ff7f0e;fill-opacity:0.15;"/>
   </g>
   <g id="PathCollection_3">
    <defs>
     <path d="M 0 3 
C 0.795609 3 1.55874 2.683901 2.12132 2.12132 
C 2.683901 1.55874 3 0.795609 3 0 
C 3 -0.795609 2.683901 -1.55874 2.12132 -2.12132 
C 1.55874 -2.683901 0.795609 -3 0 -3 
C -0.795609 -3 -1.55874 -2.683901 -2.12132 -2.12132 
C -2.683901 -1.55874 -3 -0.795609 -3 0 
C -3 0.795609 -2.683901 1.55874 -2.12132 2.12132 
C -1.55874 2.683901 -0.795609 3 0 3 
z
" id="mceb3181e2c" style="stroke:#2ca02c;stroke-opacity:0.8;"/>
    </defs>
    <g clip-path="url(#p49bcde8d33)">
     <use style="fill:#2ca02c;fill-opacity:0.8;stroke:#2ca02c;stroke-opacity:0.8;" x="265.267031" xlink:href="#mceb3181e2c" y="350.117899"/>
     <use style="fill:#2ca02c;fill-opacity:0.8;stroke:#2ca02c;stroke-opacity:0.8;" x="222.280612" xlink:href="#mceb3181e2c" y="312.799149"/>
     <use style="fill:#2ca02c;fill-opacity:0.8;stroke:#2ca02c;stroke-opacity:0.8;" x="174.583453" xlink:href="#mceb3181e2c" y="354.892475"/>
     <use style="fill:#2ca02c;fill-opacity:0.8;stroke:#2ca02c;stroke-opacity:0.8;" x="139.60634" xlink:href="#mceb3181e2c" y="339.123656"/>
     <use style="fill:#2ca02c;fill-opacity:0.8;stroke:#2ca02c;stroke-opacity:0.8;" x="238.053552" xlink:href="#mceb3181e2c" y="346.072624"/>
     <use style="fill:#2ca02c;fill-opacity:0.8;stroke:#2ca02c;stroke-opacity:0.8;" x="146.333953" xlink:href="#mceb3181e2c" y="331.909607"/>
     <use style="fill:#2ca02c;fill-opacity:0.8;stroke:#2ca02c;stroke-opacity:0.8;" x="263.833561" xlink:href="#mceb3181e2c" y="353.327666"/>
     <use style="fill:#2ca02c;fill-opacity:0.8;stroke:#2ca02c;stroke-opacity:0.8;" x="233.464987" xlink:href="#mceb3181e2c" y="358.626152"/>
     <use style="fill:#2ca02c;fill-opacity:0.8;stroke:#2ca02c;stroke-opacity:0.8;" x="203.19948" xlink:href="#mceb3181e2c" y="342.011975"/>
     <use style="fill:#2ca02c;fill-opacity:0.8;stroke:#2ca02c;stroke-opacity:0.8;" x="188.670012" xlink:href="#mceb3181e2c" y="351.65316"/>
     <use style="fill:#2ca02c;fill-opacity:0.8;stroke:#2ca02c;stroke-opacity:0.8;" x="190.357355" xlink:href="#mceb3181e2c" y="330.056676"/>
     <use style="fill:#2ca02c;fill-opacity:0.8;stroke:#2ca02c;stroke-opacity:0.8;" x="421.474012" xlink:href="#mceb3181e2c" y="347.697737"/>
     <use style="fill:#2ca02c;fill-opacity:0.8;stroke:#2ca02c;stroke-opacity:0.8;" x="356.436015" xlink:href="#mceb3181e2c" y="291.929491"/>
     <use style="fill:#2ca02c;fill-opacity:0.8;stroke:#2ca02c;stroke-opacity:0.8;" x="157.254439" xlink:href="#mceb3181e2c" y="342.393811"/>
     <use style="fill:#2ca02c;fill-opacity:0.8;stroke:#2ca02c;stroke-opacity:0.8;" x="285.82299" xlink:href="#mceb3181e2c" y="340.247377"/>
     <use style="fill:#2ca02c;fill-opacity:0.8;stroke:#2ca02c;stroke-opacity:0.8;" x="166.833374" xlink:href="#mceb3181e2c" y="335.906445"/>
     <use style="fill:#2ca02c;fill-opacity:0.8;stroke:#2ca02c;stroke-opacity:0.8;" x="309.076125" xlink:href="#mceb3181e2c" y="355.157185"/>
     <use style="fill:#2ca02c;fill-opacity:0.8;stroke:#2ca02c;stroke-opacity:0.8;" x="187.809852" xlink:href="#mceb3181e2c" y="345.274994"/>
     <use style="fill:#2ca02c;fill-opacity:0.8;stroke:#2ca02c;stroke-opacity:0.8;" x="153.570304" xlink:href="#mceb3181e2c" y="351.514968"/>
     <use style="fill:#2ca02c;fill-opacity:0.8;stroke:#2ca02c;stroke-opacity:0.8;" x="226.921967" xlink:href="#mceb3181e2c" y="342.836705"/>
     <use style="fill:#2ca02c;fill-opacity:0.8;stroke:#2ca02c;stroke-opacity:0.8;" x="255.88842" xlink:href="#mceb3181e2c" y="348.127069"/>
     <use style="fill:#2ca02c;fill-opacity:0.8;stroke:#2ca02c;stroke-opacity:0.8;" x="277.31306" xlink:href="#mceb3181e2c" y="357.630021"/>
     <use style="fill:#2ca02c;fill-opacity:0.8;stroke:#2ca02c;stroke-opacity:0.8;" x="210.472173" xlink:href="#mceb3181e2c" y="342.06973"/>
     <use style="fill:#2ca02c;fill-opacity:0.8;stroke:#2ca02c;stroke-opacity:0.8;" x="127.229187" xlink:href="#mceb3181e2c" y="350.106414"/>
     <use style="fill:#2ca02c;fill-opacity:0.8;stroke:#2ca02c;stroke-opacity:0.8;" x="160.834284" xlink:href="#mceb3181e2c" y="342.236799"/>
     <use style="fill:#2ca02c;fill-opacity:0.8;stroke:#2ca02c;stroke-opacity:0.8;" x="315.909245" xlink:href="#mceb3181e2c" y="341.172438"/>
     <use style="fill:#2ca02c;fill-opacity:0.8;stroke:#2ca02c;stroke-opacity:0.8;" x="301.32262" xlink:href="#mceb3181e2c" y="300.828514"/>
     <use style="fill:#2ca02c;fill-opacity:0.8;stroke:#2ca02c;stroke-opacity:0.8;" x="149.76358" xlink:href="#mceb3181e2c" y="355.094206"/>
     <use style="fill:#2ca02c;fill-opacity:0.8;stroke:#2ca02c;stroke-opacity:0.8;" x="664.726558" xlink:href="#mceb3181e2c" y="297.775901"/>
     <use style="fill:#2ca02c;fill-opacity:0.8;stroke:#2ca02c;stroke-opacity:0.8;" x="628.782425" xlink:href="#mceb3181e2c" y="334.112483"/>
     <use style="fill:#2ca02c;fill-opacity:0.8;stroke:#2ca02c;stroke-opacity:0.8;" x="309.706308" xlink:href="#mceb3181e2c" y="340.410613"/>
     <use style="fill:#2ca02c;fill-opacity:0.8;stroke:#2ca02c;stroke-opacity:0.8;" x="216.729318" xlink:href="#mceb3181e2c" y="355.729558"/>
     <use style="fill:#2ca02c;fill-opacity:0.8;stroke:#2ca02c;stroke-opacity:0.8;" x="242.064531" xlink:href="#mceb3181e2c" y="358.376767"/>
     <use style="fill:#2ca02c;fill-opacity:0.8;stroke:#2ca02c;stroke-opacity:0.8;" x="143.488258" xlink:href="#mceb3181e2c" y="350.172618"/>
     <use style="fill:#2ca02c;fill-opacity:0.8;stroke:#2ca02c;stroke-opacity:0.8;" x="399.626846" xlink:href="#mceb3181e2c" y="335.65274"/>
     <use style="fill:#2ca02c;fill-opacity:0.8;stroke:#2ca02c;stroke-opacity:0.8;" x="377.870521" xlink:href="#mceb3181e2c" y="346.067955"/>
     <use style="fill:#2ca02c;fill-opacity:0.8;stroke:#2ca02c;stroke-opacity:0.8;" x="166.985789" xlink:href="#mceb3181e2c" y="348.056794"/>
     <use style="fill:#2ca02c;fill-opacity:0.8;stroke:#2ca02c;stroke-opacity:0.8;" x="729.584023" xlink:href="#mceb3181e2c" y="240.592473"/>
     <use style="fill:#2ca02c;fill-opacity:0.8;stroke:#2ca02c;stroke-opacity:0.8;" x="153.233571" xlink:href="#mceb3181e2c" y="353.955764"/>
     <use style="fill:#2ca02c;fill-opacity:0.8;stroke:#2ca02c;stroke-opacity:0.8;" x="162.463954" xlink:href="#mceb3181e2c" y="347.39211"/>
     <use style="fill:#2ca02c;fill-opacity:0.8;stroke:#2ca02c;stroke-opacity:0.8;" x="165.736508" xlink:href="#mceb3181e2c" y="338.706837"/>
     <use style="fill:#2ca02c;fill-opacity:0.8;stroke:#2ca02c;stroke-opacity:0.8;" x="338.647158" xlink:href="#mceb3181e2c" y="360.778846"/>
     <use style="fill:#2ca02c;fill-opacity:0.8;stroke:#2ca02c;stroke-opacity:0.8;" x="336.437592" xlink:href="#mceb3181e2c" y="347.867126"/>
     <use style="fill:#2ca02c;fill-opacity:0.8;stroke:#2ca02c;stroke-opacity:0.8;" x="339.223882" xlink:href="#mceb3181e2c" y="323.282685"/>
     <use style="fill:#2ca02c;fill-opacity:0.8;stroke:#2ca02c;stroke-opacity:0.8;" x="336.224602" xlink:href="#mceb3181e2c" y="332.895555"/>
     <use style="fill:#2ca02c;fill-opacity:0.8;stroke:#2ca02c;stroke-opacity:0.8;" x="312.262323" xlink:href="#mceb3181e2c" y="351.692223"/>
     <use style="fill:#2ca02c;fill-opacity:0.8;stroke:#2ca02c;stroke-opacity:0.8;" x="189.777132" xlink:href="#mceb3181e2c" y="339.80072"/>
     <use style="fill:#2ca02c;fill-opacity:0.8;stroke:#2ca02c;stroke-opacity:0.8;" x="335.513588" xlink:href="#mceb3181e2c" y="301.746203"/>
     <use style="fill:#2ca02c;fill-opacity:0.8;stroke:#2ca02c;stroke-opacity:0.8;" x="160.16168" xlink:href="#mceb3181e2c" y="344.186178"/>
     <use style="fill:#2ca02c;fill-opacity:0.8;stroke:#2ca02c;stroke-opacity:0.8;" x="308.177813" xlink:href="#mceb3181e2c" y="338.428945"/>
     <use style="fill:#2ca02c;fill-opacity:0.8;stroke:#2ca02c;stroke-opacity:0.8;" x="211.621311" xlink:href="#mceb3181e2c" y="356.982263"/>
     <use style="fill:#2ca02c;fill-opacity:0.8;stroke:#2ca02c;stroke-opacity:0.8;" x="350.398993" xlink:href="#mceb3181e2c" y="346.71818"/>
     <use style="fill:#2ca02c;fill-opacity:0.8;stroke:#2ca02c;stroke-opacity:0.8;" x="253.021186" xlink:href="#mceb3181e2c" y="334.676877"/>
     <use style="fill:#2ca02c;fill-opacity:0.8;stroke:#2ca02c;stroke-opacity:0.8;" x="251.942871" xlink:href="#mceb3181e2c" y="339.40462"/>
     <use style="fill:#2ca02c;fill-opacity:0.8;stroke:#2ca02c;stroke-opacity:0.8;" x="189.591392" xlink:href="#mceb3181e2c" y="337.470957"/>
     <use style="fill:#2ca02c;fill-opacity:0.8;stroke:#2ca02c;stroke-opacity:0.8;" x="103.925455" xlink:href="#mceb3181e2c" y="344.476654"/>
     <use style="fill:#2ca02c;fill-opacity:0.8;stroke:#2ca02c;stroke-opacity:0.8;" x="321.226834" xlink:href="#mceb3181e2c" y="332.961941"/>
     <use style="fill:#2ca02c;fill-opacity:0.8;stroke:#2ca02c;stroke-opacity:0.8;" x="246.666583" xlink:href="#mceb3181e2c" y="348.789695"/>
     <use style="fill:#2ca02c;fill-opacity:0.8;stroke:#2ca02c;stroke-opacity:0.8;" x="175.751941" xlink:href="#mceb3181e2c" y="353.851715"/>
    </g>
   </g>
   <g id="PolyCollection_3">
    <path clip-path="url(#p49bcde8d33)" d="M 50.10625 349.330598 
L 50.10625 368.837077 
L 57.0826 367.84311 
L 64.05895 366.849714 
L 71.035301 365.855252 
L 78.011651 364.894498 
L 84.988001 363.905057 
L 91.964351 362.902806 
L 98.940702 361.940107 
L 105.917052 361.055676 
L 112.893402 359.985888 
L 119.869752 359.044463 
L 126.846103 358.144431 
L 133.822453 357.151479 
L 140.798803 356.168262 
L 147.775153 355.174234 
L 154.751504 354.260872 
L 161.727854 353.199621 
L 168.704204 352.287592 
L 175.680554 351.273118 
L 182.656905 350.320723 
L 189.633255 349.484539 
L 196.609605 348.5895 
L 203.585955 347.772922 
L 210.562306 346.949902 
L 217.538656 346.173158 
L 224.515006 345.452302 
L 231.491356 344.814828 
L 238.467707 344.293109 
L 245.444057 343.848329 
L 252.420407 343.278005 
L 259.396757 342.811157 
L 266.373108 342.485901 
L 273.349458 342.265353 
L 280.325808 342.043525 
L 287.302158 341.571167 
L 294.278509 341.25946 
L 301.254859 340.944257 
L 308.231209 340.673676 
L 315.207559 340.392702 
L 322.183909 340.099774 
L 329.16026 339.859115 
L 336.13661 339.521909 
L 343.11296 339.22099 
L 350.08931 338.926709 
L 357.065661 338.660805 
L 364.042011 338.354395 
L 371.018361 338.105361 
L 377.994711 337.873095 
L 384.971062 337.61298 
L 391.947412 337.34976 
L 398.923762 337.085725 
L 405.900112 336.821689 
L 412.876463 336.557653 
L 419.852813 336.262981 
L 426.829163 335.990191 
L 433.805513 335.768969 
L 440.781864 335.507365 
L 447.758214 335.245761 
L 454.734564 334.983479 
L 461.710914 334.719819 
L 468.687265 334.456158 
L 475.663615 334.192498 
L 482.639965 333.910179 
L 489.616315 333.61339 
L 496.592666 333.3166 
L 503.569016 333.027397 
L 510.545366 332.770742 
L 517.521716 332.523375 
L 524.498067 332.280272 
L 531.474417 332.037169 
L 538.450767 331.794065 
L 545.427117 331.550962 
L 552.403468 331.30161 
L 559.379818 331.039327 
L 566.356168 330.777043 
L 573.332518 330.51476 
L 580.308869 330.252476 
L 587.285219 329.990193 
L 594.261569 329.727909 
L 601.237919 329.465625 
L 608.214269 329.203342 
L 615.19062 328.941058 
L 622.16697 328.678775 
L 629.14332 328.416491 
L 636.11967 328.157169 
L 643.096021 327.901019 
L 650.072371 327.644868 
L 657.048721 327.396108 
L 664.025071 327.149074 
L 671.001422 326.902041 
L 677.977772 326.655007 
L 684.954122 326.407974 
L 691.930472 326.160766 
L 698.906823 325.913316 
L 705.883173 325.665865 
L 712.859523 325.418415 
L 719.835873 325.170964 
L 726.812224 324.923514 
L 733.788574 324.676064 
L 740.764924 324.428613 
L 740.764924 264.289628 
L 740.764924 264.289628 
L 733.788574 265.343681 
L 726.812224 266.397735 
L 719.835873 267.451789 
L 712.859523 268.505842 
L 705.883173 269.559896 
L 698.906823 270.61395 
L 691.930472 271.668003 
L 684.954122 272.722057 
L 677.977772 273.776111 
L 671.001422 274.830164 
L 664.025071 275.884218 
L 657.048721 276.938271 
L 650.072371 277.992325 
L 643.096021 279.046379 
L 636.11967 280.119097 
L 629.14332 281.19374 
L 622.16697 282.268382 
L 615.19062 283.343025 
L 608.214269 284.417668 
L 601.237919 285.49231 
L 594.261569 286.566953 
L 587.285219 287.641595 
L 580.308869 288.679706 
L 573.332518 289.688782 
L 566.356168 290.697859 
L 559.379818 291.706935 
L 552.403468 292.741415 
L 545.427117 293.793787 
L 538.450767 294.84616 
L 531.474417 295.898532 
L 524.498067 296.950904 
L 517.521716 298.003277 
L 510.545366 299.055649 
L 503.569016 300.100011 
L 496.592666 301.096212 
L 489.616315 302.092413 
L 482.639965 303.088614 
L 475.663615 304.084815 
L 468.687265 305.083016 
L 461.710914 306.081783 
L 454.734564 307.110999 
L 447.758214 308.148633 
L 440.781864 309.131613 
L 433.805513 310.115783 
L 426.829163 311.196593 
L 419.852813 312.278145 
L 412.876463 313.339653 
L 405.900112 314.30461 
L 398.923762 315.269782 
L 391.947412 316.237484 
L 384.971062 317.253121 
L 377.994711 318.359771 
L 371.018361 319.378151 
L 364.042011 320.37801 
L 357.065661 321.37787 
L 350.08931 322.377729 
L 343.11296 323.377588 
L 336.13661 324.424424 
L 329.16026 325.433476 
L 322.183909 326.583753 
L 315.207559 327.554362 
L 308.231209 328.553646 
L 301.254859 329.51488 
L 294.278509 330.502442 
L 287.302158 331.493566 
L 280.325808 332.528087 
L 273.349458 333.590444 
L 266.373108 334.649677 
L 259.396757 335.518178 
L 252.420407 336.361643 
L 245.444057 337.289854 
L 238.467707 338.197742 
L 231.491356 339.077144 
L 224.515006 339.916309 
L 217.538656 340.675725 
L 210.562306 341.367943 
L 203.585955 341.981515 
L 196.609605 342.553122 
L 189.633255 342.929298 
L 182.656905 343.401385 
L 175.680554 343.799729 
L 168.704204 344.184012 
L 161.727854 344.515624 
L 154.751504 344.886793 
L 147.775153 345.296193 
L 140.798803 345.631766 
L 133.822453 345.892376 
L 126.846103 346.225266 
L 119.869752 346.50453 
L 112.893402 346.781966 
L 105.917052 347.056176 
L 98.940702 347.330386 
L 91.964351 347.605304 
L 84.988001 347.882416 
L 78.011651 348.159528 
L 71.035301 348.484509 
L 64.05895 348.824162 
L 57.0826 349.109539 
L 50.10625 349.330598 
z
" style="fill:#2ca02c;fill-opacity:0.15;"/>
   </g>
   <g id="line2d_25">
    <path clip-path="url(#p49bcde8d33)" d="M 50.10625 362.451159 
L 57.0826 359.775695 
L 64.05895 357.100232 
L 71.035301 354.424768 
L 78.011651 351.749304 
L 84.988001 349.07384 
L 91.964351 346.398377 
L 98.940702 343.722913 
L 105.917052 341.047449 
L 112.893402 338.371985 
L 119.869752 335.696522 
L 126.846103 333.021058 
L 133.822453 330.345594 
L 140.798803 327.67013 
L 147.775153 324.994667 
L 154.751504 322.319203 
L 161.727854 319.643739 
L 168.704204 316.968275 
L 175.680554 314.292812 
L 182.656905 311.617348 
L 189.633255 308.941884 
L 196.609605 306.26642 
L 203.585955 303.590957 
L 210.562306 300.915493 
L 217.538656 298.240029 
L 224.515006 295.564565 
L 231.491356 292.889102 
L 238.467707 290.213638 
L 245.444057 287.538174 
L 252.420407 284.86271 
L 259.396757 282.187247 
L 266.373108 279.511783 
L 273.349458 276.836319 
L 280.325808 274.160855 
L 287.302158 271.485392 
L 294.278509 268.809928 
L 301.254859 266.134464 
L 308.231209 263.459 
L 315.207559 260.783537 
L 322.183909 258.108073 
L 329.16026 255.432609 
L 336.13661 252.757145 
L 343.11296 250.081682 
L 350.08931 247.406218 
L 357.065661 244.730754 
L 364.042011 242.05529 
L 371.018361 239.379827 
L 377.994711 236.704363 
L 384.971062 234.028899 
L 391.947412 231.353435 
L 398.923762 228.677972 
L 405.900112 226.002508 
L 412.876463 223.327044 
L 419.852813 220.65158 
L 426.829163 217.976117 
L 433.805513 215.300653 
L 440.781864 212.625189 
L 447.758214 209.949725 
L 454.734564 207.274262 
L 461.710914 204.598798 
L 468.687265 201.923334 
L 475.663615 199.24787 
L 482.639965 196.572407 
L 489.616315 193.896943 
L 496.592666 191.221479 
L 503.569016 188.546015 
L 510.545366 185.870552 
L 517.521716 183.195088 
L 524.498067 180.519624 
L 531.474417 177.84416 
L 538.450767 175.168697 
L 545.427117 172.493233 
L 552.403468 169.817769 
L 559.379818 167.142305 
L 566.356168 164.466842 
L 573.332518 161.791378 
L 580.308869 159.115914 
L 587.285219 156.44045 
L 594.261569 153.764987 
L 601.237919 151.089523 
L 608.214269 148.414059 
L 615.19062 145.738595 
L 622.16697 143.063132 
L 629.14332 140.387668 
L 636.11967 137.712204 
L 643.096021 135.036741 
L 650.072371 132.361277 
L 657.048721 129.685813 
L 664.025071 127.010349 
L 671.001422 124.334886 
L 677.977772 121.659422 
L 684.954122 118.983958 
L 691.930472 116.308494 
L 698.906823 113.633031 
L 705.883173 110.957567 
L 712.859523 108.282103 
L 719.835873 105.606639 
L 726.812224 102.931176 
L 733.788574 100.255712 
L 740.764924 97.580248 
" style="fill:none;stroke:#1f77b4;stroke-linecap:round;stroke-width:2.25;"/>
   </g>
   <g id="line2d_26">
    <path clip-path="url(#p49bcde8d33)" d="M 50.10625 372.44608 
L 57.0826 370.0315 
L 64.05895 367.61692 
L 71.035301 365.20234 
L 78.011651 362.78776 
L 84.988001 360.37318 
L 91.964351 357.958601 
L 98.940702 355.544021 
L 105.917052 353.129441 
L 112.893402 350.714861 
L 119.869752 348.300281 
L 126.846103 345.885701 
L 133.822453 343.471122 
L 140.798803 341.056542 
L 147.775153 338.641962 
L 154.751504 336.227382 
L 161.727854 333.812802 
L 168.704204 331.398222 
L 175.680554 328.983642 
L 182.656905 326.569063 
L 189.633255 324.154483 
L 196.609605 321.739903 
L 203.585955 319.325323 
L 210.562306 316.910743 
L 217.538656 314.496163 
L 224.515006 312.081584 
L 231.491356 309.667004 
L 238.467707 307.252424 
L 245.444057 304.837844 
L 252.420407 302.423264 
L 259.396757 300.008684 
L 266.373108 297.594105 
L 273.349458 295.179525 
L 280.325808 292.764945 
L 287.302158 290.350365 
L 294.278509 287.935785 
L 301.254859 285.521205 
L 308.231209 283.106626 
L 315.207559 280.692046 
L 322.183909 278.277466 
L 329.16026 275.862886 
L 336.13661 273.448306 
L 343.11296 271.033726 
L 350.08931 268.619147 
L 357.065661 266.204567 
L 364.042011 263.789987 
L 371.018361 261.375407 
L 377.994711 258.960827 
L 384.971062 256.546247 
L 391.947412 254.131668 
L 398.923762 251.717088 
L 405.900112 249.302508 
L 412.876463 246.887928 
L 419.852813 244.473348 
L 426.829163 242.058768 
L 433.805513 239.644189 
L 440.781864 237.229609 
L 447.758214 234.815029 
L 454.734564 232.400449 
L 461.710914 229.985869 
L 468.687265 227.571289 
L 475.663615 225.15671 
L 482.639965 222.74213 
L 489.616315 220.32755 
L 496.592666 217.91297 
L 503.569016 215.49839 
L 510.545366 213.08381 
L 517.521716 210.669231 
L 524.498067 208.254651 
L 531.474417 205.840071 
L 538.450767 203.425491 
L 545.427117 201.010911 
L 552.403468 198.596331 
L 559.379818 196.181752 
L 566.356168 193.767172 
L 573.332518 191.352592 
L 580.308869 188.938012 
L 587.285219 186.523432 
L 594.261569 184.108852 
L 601.237919 181.694272 
L 608.214269 179.279693 
L 615.19062 176.865113 
L 622.16697 174.450533 
L 629.14332 172.035953 
L 636.11967 169.621373 
L 643.096021 167.206793 
L 650.072371 164.792214 
L 657.048721 162.377634 
L 664.025071 159.963054 
L 671.001422 157.548474 
L 677.977772 155.133894 
L 684.954122 152.719314 
L 691.930472 150.304735 
L 698.906823 147.890155 
L 705.883173 145.475575 
L 712.859523 143.060995 
L 719.835873 140.646415 
L 726.812224 138.231835 
L 733.788574 135.817256 
L 740.764924 133.402676 
" style="fill:none;stroke:#ff7f0e;stroke-linecap:round;stroke-width:2.25;"/>
   </g>
   <g id="line2d_27">
    <path clip-path="url(#p49bcde8d33)" d="M 50.10625 360.595954 
L 57.0826 359.883833 
L 64.05895 359.171712 
L 71.035301 358.45959 
L 78.011651 357.747469 
L 84.988001 357.035348 
L 91.964351 356.323227 
L 98.940702 355.611106 
L 105.917052 354.898985 
L 112.893402 354.186863 
L 119.869752 353.474742 
L 126.846103 352.762621 
L 133.822453 352.0505 
L 140.798803 351.338379 
L 147.775153 350.626258 
L 154.751504 349.914136 
L 161.727854 349.202015 
L 168.704204 348.489894 
L 175.680554 347.777773 
L 182.656905 347.065652 
L 189.633255 346.353531 
L 196.609605 345.641409 
L 203.585955 344.929288 
L 210.562306 344.217167 
L 217.538656 343.505046 
L 224.515006 342.792925 
L 231.491356 342.080804 
L 238.467707 341.368682 
L 245.444057 340.656561 
L 252.420407 339.94444 
L 259.396757 339.232319 
L 266.373108 338.520198 
L 273.349458 337.808077 
L 280.325808 337.095955 
L 287.302158 336.383834 
L 294.278509 335.671713 
L 301.254859 334.959592 
L 308.231209 334.247471 
L 315.207559 333.53535 
L 322.183909 332.823228 
L 329.16026 332.111107 
L 336.13661 331.398986 
L 343.11296 330.686865 
L 350.08931 329.974744 
L 357.065661 329.262622 
L 364.042011 328.550501 
L 371.018361 327.83838 
L 377.994711 327.126259 
L 384.971062 326.414138 
L 391.947412 325.702017 
L 398.923762 324.989895 
L 405.900112 324.277774 
L 412.876463 323.565653 
L 419.852813 322.853532 
L 426.829163 322.141411 
L 433.805513 321.42929 
L 440.781864 320.717168 
L 447.758214 320.005047 
L 454.734564 319.292926 
L 461.710914 318.580805 
L 468.687265 317.868684 
L 475.663615 317.156563 
L 482.639965 316.444441 
L 489.616315 315.73232 
L 496.592666 315.020199 
L 503.569016 314.308078 
L 510.545366 313.595957 
L 517.521716 312.883836 
L 524.498067 312.171714 
L 531.474417 311.459593 
L 538.450767 310.747472 
L 545.427117 310.035351 
L 552.403468 309.32323 
L 559.379818 308.611109 
L 566.356168 307.898987 
L 573.332518 307.186866 
L 580.308869 306.474745 
L 587.285219 305.762624 
L 594.261569 305.050503 
L 601.237919 304.338382 
L 608.214269 303.62626 
L 615.19062 302.914139 
L 622.16697 302.202018 
L 629.14332 301.489897 
L 636.11967 300.777776 
L 643.096021 300.065655 
L 650.072371 299.353533 
L 657.048721 298.641412 
L 664.025071 297.929291 
L 671.001422 297.21717 
L 677.977772 296.505049 
L 684.954122 295.792928 
L 691.930472 295.080806 
L 698.906823 294.368685 
L 705.883173 293.656564 
L 712.859523 292.944443 
L 719.835873 292.232322 
L 726.812224 291.520201 
L 733.788574 290.808079 
L 740.764924 290.095958 
" style="fill:none;stroke:#2ca02c;stroke-linecap:round;stroke-width:2.25;"/>
   </g>
   <g id="patch_3">
    <path d="M 50.10625 389.83875 
L 50.10625 7.2 
" style="fill:none;"/>
   </g>
   <g id="patch_4">
    <path d="M 50.10625 389.83875 
L 740.764924 389.83875 
" style="fill:none;"/>
   </g>
  </g>
  <g id="legend_1">
   <g id="text_15">
    <!-- Net -->
    <defs>
     <path d="M 9.8125 72.90625 
L 23.09375 72.90625 
L 55.421875 11.921875 
L 55.421875 72.90625 
L 64.984375 72.90625 
L 64.984375 0 
L 51.703125 0 
L 19.390625 60.984375 
L 19.390625 0 
L 9.8125 0 
z
" id="DejaVuSans-4e"/>
    </defs>
    <g style="fill:#262626;" transform="translate(760.121424 192.82875)scale(0.1 -0.1)">
     <use xlink:href="#DejaVuSans-4e"/>
     <use x="74.804688" xlink:href="#DejaVuSans-65"/>
     <use x="136.328125" xlink:href="#DejaVuSans-74"/>
    </g>
   </g>
   <g id="PathCollection_4">
    <g>
     <use style="fill:#1f77b4;fill-opacity:0.8;stroke:#1f77b4;stroke-opacity:0.8;" x="759.913612" xlink:href="#m7e7a4d58bd" y="204.881875"/>
    </g>
   </g>
   <g id="text_16">
    <!-- -1 -->
    <defs>
     <path d="M 4.890625 31.390625 
L 31.203125 31.390625 
L 31.203125 23.390625 
L 4.890625 23.390625 
z
" id="DejaVuSans-2d"/>
    </defs>
    <g style="fill:#262626;" transform="translate(777.913612 207.506875)scale(0.1 -0.1)">
     <use xlink:href="#DejaVuSans-2d"/>
     <use x="36.083984" xlink:href="#DejaVuSans-31"/>
    </g>
   </g>
   <g id="PathCollection_5">
    <g>
     <use style="fill:#ff7f0e;fill-opacity:0.8;stroke:#ff7f0e;stroke-opacity:0.8;" x="759.913612" xlink:href="#m5c365bcfc8" y="219.56"/>
    </g>
   </g>
   <g id="text_17">
    <!-- 0 -->
    <g style="fill:#262626;" transform="translate(777.913612 222.185)scale(0.1 -0.1)">
     <use xlink:href="#DejaVuSans-30"/>
    </g>
   </g>
   <g id="PathCollection_6">
    <g>
     <use style="fill:#2ca02c;fill-opacity:0.8;stroke:#2ca02c;stroke-opacity:0.8;" x="759.913612" xlink:href="#mceb3181e2c" y="234.238125"/>
    </g>
   </g>
   <g id="text_18">
    <!-- 1 -->
    <g style="fill:#262626;" transform="translate(777.913612 236.863125)scale(0.1 -0.1)">
     <use xlink:href="#DejaVuSans-31"/>
    </g>
   </g>
  </g>
 </g>
 <defs>
  <clipPath id="p49bcde8d33">
   <rect height="382.63875" width="690.658674" x="50.10625" y="7.2"/>
  </clipPath>
 </defs>
</svg>
