<?xml version="1.0" encoding="utf-8" standalone="no"?>
<!DOCTYPE svg PUBLIC "-//W3C//DTD SVG 1.1//EN"
  "http://www.w3.org/Graphics/SVG/1.1/DTD/svg11.dtd">
<!-- Created with matplotlib (http://matplotlib.org/) -->
<svg height="424pt" version="1.1" viewBox="0 0 796 424" width="796pt" xmlns="http://www.w3.org/2000/svg" xmlns:xlink="http://www.w3.org/1999/xlink">
 <defs>
  <style type="text/css">
*{stroke-linecap:butt;stroke-linejoin:round;}
  </style>
 </defs>
 <g id="figure_1">
  <g id="patch_1">
   <path d="M -0 424.173125 
L 796.883924 424.173125 
L 796.883924 0 
L -0 0 
z
" style="fill:#ffffff;"/>
  </g>
  <g id="axes_1">
   <g id="patch_2">
    <path d="M 50.10625 389.83875 
L 740.764924 389.83875 
L 740.764924 7.2 
L 50.10625 7.2 
z
" style="fill:#eaeaf2;"/>
   </g>
   <g id="matplotlib.axis_1">
    <g id="xtick_1">
     <g id="line2d_1">
      <path clip-path="url(#p00c2b10fa0)" d="M 109.319533 389.83875 
L 109.319533 7.2 
" style="fill:none;stroke:#ffffff;stroke-linecap:round;stroke-width:0.8;"/>
     </g>
     <g id="line2d_2"/>
     <g id="text_1">
      <!-- 0 -->
      <defs>
       <path d="M 31.78125 66.40625 
Q 24.171875 66.40625 20.328125 58.90625 
Q 16.5 51.421875 16.5 36.375 
Q 16.5 21.390625 20.328125 13.890625 
Q 24.171875 6.390625 31.78125 6.390625 
Q 39.453125 6.390625 43.28125 13.890625 
Q 47.125 21.390625 47.125 36.375 
Q 47.125 51.421875 43.28125 58.90625 
Q 39.453125 66.40625 31.78125 66.40625 
z
M 31.78125 74.21875 
Q 44.046875 74.21875 50.515625 64.515625 
Q 56.984375 54.828125 56.984375 36.375 
Q 56.984375 17.96875 50.515625 8.265625 
Q 44.046875 -1.421875 31.78125 -1.421875 
Q 19.53125 -1.421875 13.0625 8.265625 
Q 6.59375 17.96875 6.59375 36.375 
Q 6.59375 54.828125 13.0625 64.515625 
Q 19.53125 74.21875 31.78125 74.21875 
z
" id="DejaVuSans-30"/>
      </defs>
      <g style="fill:#262626;" transform="translate(106.138283 400.937187)scale(0.1 -0.1)">
       <use xlink:href="#DejaVuSans-30"/>
      </g>
     </g>
    </g>
    <g id="xtick_2">
     <g id="line2d_3">
      <path clip-path="url(#p00c2b10fa0)" d="M 255.500168 389.83875 
L 255.500168 7.2 
" style="fill:none;stroke:#ffffff;stroke-linecap:round;stroke-width:0.8;"/>
     </g>
     <g id="line2d_4"/>
     <g id="text_2">
      <!-- 200 -->
      <defs>
       <path d="M 19.1875 8.296875 
L 53.609375 8.296875 
L 53.609375 0 
L 7.328125 0 
L 7.328125 8.296875 
Q 12.9375 14.109375 22.625 23.890625 
Q 32.328125 33.6875 34.8125 36.53125 
Q 39.546875 41.84375 41.421875 45.53125 
Q 43.3125 49.21875 43.3125 52.78125 
Q 43.3125 58.59375 39.234375 62.25 
Q 35.15625 65.921875 28.609375 65.921875 
Q 23.96875 65.921875 18.8125 64.3125 
Q 13.671875 62.703125 7.8125 59.421875 
L 7.8125 69.390625 
Q 13.765625 71.78125 18.9375 73 
Q 24.125 74.21875 28.421875 74.21875 
Q 39.75 74.21875 46.484375 68.546875 
Q 53.21875 62.890625 53.21875 53.421875 
Q 53.21875 48.921875 51.53125 44.890625 
Q 49.859375 40.875 45.40625 35.40625 
Q 44.1875 33.984375 37.640625 27.21875 
Q 31.109375 20.453125 19.1875 8.296875 
z
" id="DejaVuSans-32"/>
      </defs>
      <g style="fill:#262626;" transform="translate(245.956418 400.937187)scale(0.1 -0.1)">
       <use xlink:href="#DejaVuSans-32"/>
       <use x="63.623047" xlink:href="#DejaVuSans-30"/>
       <use x="127.246094" xlink:href="#DejaVuSans-30"/>
      </g>
     </g>
    </g>
    <g id="xtick_3">
     <g id="line2d_5">
      <path clip-path="url(#p00c2b10fa0)" d="M 401.680804 389.83875 
L 401.680804 7.2 
" style="fill:none;stroke:#ffffff;stroke-linecap:round;stroke-width:0.8;"/>
     </g>
     <g id="line2d_6"/>
     <g id="text_3">
      <!-- 400 -->
      <defs>
       <path d="M 37.796875 64.3125 
L 12.890625 25.390625 
L 37.796875 25.390625 
z
M 35.203125 72.90625 
L 47.609375 72.90625 
L 47.609375 25.390625 
L 58.015625 25.390625 
L 58.015625 17.1875 
L 47.609375 17.1875 
L 47.609375 0 
L 37.796875 0 
L 37.796875 17.1875 
L 4.890625 17.1875 
L 4.890625 26.703125 
z
" id="DejaVuSans-34"/>
      </defs>
      <g style="fill:#262626;" transform="translate(392.137054 400.937187)scale(0.1 -0.1)">
       <use xlink:href="#DejaVuSans-34"/>
       <use x="63.623047" xlink:href="#DejaVuSans-30"/>
       <use x="127.246094" xlink:href="#DejaVuSans-30"/>
      </g>
     </g>
    </g>
    <g id="xtick_4">
     <g id="line2d_7">
      <path clip-path="url(#p00c2b10fa0)" d="M 547.86144 389.83875 
L 547.86144 7.2 
" style="fill:none;stroke:#ffffff;stroke-linecap:round;stroke-width:0.8;"/>
     </g>
     <g id="line2d_8"/>
     <g id="text_4">
      <!-- 600 -->
      <defs>
       <path d="M 33.015625 40.375 
Q 26.375 40.375 22.484375 35.828125 
Q 18.609375 31.296875 18.609375 23.390625 
Q 18.609375 15.53125 22.484375 10.953125 
Q 26.375 6.390625 33.015625 6.390625 
Q 39.65625 6.390625 43.53125 10.953125 
Q 47.40625 15.53125 47.40625 23.390625 
Q 47.40625 31.296875 43.53125 35.828125 
Q 39.65625 40.375 33.015625 40.375 
z
M 52.59375 71.296875 
L 52.59375 62.3125 
Q 48.875 64.0625 45.09375 64.984375 
Q 41.3125 65.921875 37.59375 65.921875 
Q 27.828125 65.921875 22.671875 59.328125 
Q 17.53125 52.734375 16.796875 39.40625 
Q 19.671875 43.65625 24.015625 45.921875 
Q 28.375 48.1875 33.59375 48.1875 
Q 44.578125 48.1875 50.953125 41.515625 
Q 57.328125 34.859375 57.328125 23.390625 
Q 57.328125 12.15625 50.6875 5.359375 
Q 44.046875 -1.421875 33.015625 -1.421875 
Q 20.359375 -1.421875 13.671875 8.265625 
Q 6.984375 17.96875 6.984375 36.375 
Q 6.984375 53.65625 15.1875 63.9375 
Q 23.390625 74.21875 37.203125 74.21875 
Q 40.921875 74.21875 44.703125 73.484375 
Q 48.484375 72.75 52.59375 71.296875 
z
" id="DejaVuSans-36"/>
      </defs>
      <g style="fill:#262626;" transform="translate(538.31769 400.937187)scale(0.1 -0.1)">
       <use xlink:href="#DejaVuSans-36"/>
       <use x="63.623047" xlink:href="#DejaVuSans-30"/>
       <use x="127.246094" xlink:href="#DejaVuSans-30"/>
      </g>
     </g>
    </g>
    <g id="xtick_5">
     <g id="line2d_9">
      <path clip-path="url(#p00c2b10fa0)" d="M 694.042075 389.83875 
L 694.042075 7.2 
" style="fill:none;stroke:#ffffff;stroke-linecap:round;stroke-width:0.8;"/>
     </g>
     <g id="line2d_10"/>
     <g id="text_5">
      <!-- 800 -->
      <defs>
       <path d="M 31.78125 34.625 
Q 24.75 34.625 20.71875 30.859375 
Q 16.703125 27.09375 16.703125 20.515625 
Q 16.703125 13.921875 20.71875 10.15625 
Q 24.75 6.390625 31.78125 6.390625 
Q 38.8125 6.390625 42.859375 10.171875 
Q 46.921875 13.96875 46.921875 20.515625 
Q 46.921875 27.09375 42.890625 30.859375 
Q 38.875 34.625 31.78125 34.625 
z
M 21.921875 38.8125 
Q 15.578125 40.375 12.03125 44.71875 
Q 8.5 49.078125 8.5 55.328125 
Q 8.5 64.0625 14.71875 69.140625 
Q 20.953125 74.21875 31.78125 74.21875 
Q 42.671875 74.21875 48.875 69.140625 
Q 55.078125 64.0625 55.078125 55.328125 
Q 55.078125 49.078125 51.53125 44.71875 
Q 48 40.375 41.703125 38.8125 
Q 48.828125 37.15625 52.796875 32.3125 
Q 56.78125 27.484375 56.78125 20.515625 
Q 56.78125 9.90625 50.3125 4.234375 
Q 43.84375 -1.421875 31.78125 -1.421875 
Q 19.734375 -1.421875 13.25 4.234375 
Q 6.78125 9.90625 6.78125 20.515625 
Q 6.78125 27.484375 10.78125 32.3125 
Q 14.796875 37.15625 21.921875 38.8125 
z
M 18.3125 54.390625 
Q 18.3125 48.734375 21.84375 45.5625 
Q 25.390625 42.390625 31.78125 42.390625 
Q 38.140625 42.390625 41.71875 45.5625 
Q 45.3125 48.734375 45.3125 54.390625 
Q 45.3125 60.0625 41.71875 63.234375 
Q 38.140625 66.40625 31.78125 66.40625 
Q 25.390625 66.40625 21.84375 63.234375 
Q 18.3125 60.0625 18.3125 54.390625 
z
" id="DejaVuSans-38"/>
      </defs>
      <g style="fill:#262626;" transform="translate(684.498325 400.937187)scale(0.1 -0.1)">
       <use xlink:href="#DejaVuSans-38"/>
       <use x="63.623047" xlink:href="#DejaVuSans-30"/>
       <use x="127.246094" xlink:href="#DejaVuSans-30"/>
      </g>
     </g>
    </g>
    <g id="text_6">
     <!-- Sum_Credit -->
     <defs>
      <path d="M 53.515625 70.515625 
L 53.515625 60.890625 
Q 47.90625 63.578125 42.921875 64.890625 
Q 37.9375 66.21875 33.296875 66.21875 
Q 25.25 66.21875 20.875 63.09375 
Q 16.5 59.96875 16.5 54.203125 
Q 16.5 49.359375 19.40625 46.890625 
Q 22.3125 44.4375 30.421875 42.921875 
L 36.375 41.703125 
Q 47.40625 39.59375 52.65625 34.296875 
Q 57.90625 29 57.90625 20.125 
Q 57.90625 9.515625 50.796875 4.046875 
Q 43.703125 -1.421875 29.984375 -1.421875 
Q 24.8125 -1.421875 18.96875 -0.25 
Q 13.140625 0.921875 6.890625 3.21875 
L 6.890625 13.375 
Q 12.890625 10.015625 18.65625 8.296875 
Q 24.421875 6.59375 29.984375 6.59375 
Q 38.421875 6.59375 43.015625 9.90625 
Q 47.609375 13.234375 47.609375 19.390625 
Q 47.609375 24.75 44.3125 27.78125 
Q 41.015625 30.8125 33.5 32.328125 
L 27.484375 33.5 
Q 16.453125 35.6875 11.515625 40.375 
Q 6.59375 45.0625 6.59375 53.421875 
Q 6.59375 63.09375 13.40625 68.65625 
Q 20.21875 74.21875 32.171875 74.21875 
Q 37.3125 74.21875 42.625 73.28125 
Q 47.953125 72.359375 53.515625 70.515625 
z
" id="DejaVuSans-53"/>
      <path d="M 8.5 21.578125 
L 8.5 54.6875 
L 17.484375 54.6875 
L 17.484375 21.921875 
Q 17.484375 14.15625 20.5 10.265625 
Q 23.53125 6.390625 29.59375 6.390625 
Q 36.859375 6.390625 41.078125 11.03125 
Q 45.3125 15.671875 45.3125 23.6875 
L 45.3125 54.6875 
L 54.296875 54.6875 
L 54.296875 0 
L 45.3125 0 
L 45.3125 8.40625 
Q 42.046875 3.421875 37.71875 1 
Q 33.40625 -1.421875 27.6875 -1.421875 
Q 18.265625 -1.421875 13.375 4.4375 
Q 8.5 10.296875 8.5 21.578125 
z
M 31.109375 56 
z
" id="DejaVuSans-75"/>
      <path d="M 52 44.1875 
Q 55.375 50.25 60.0625 53.125 
Q 64.75 56 71.09375 56 
Q 79.640625 56 84.28125 50.015625 
Q 88.921875 44.046875 88.921875 33.015625 
L 88.921875 0 
L 79.890625 0 
L 79.890625 32.71875 
Q 79.890625 40.578125 77.09375 44.375 
Q 74.3125 48.1875 68.609375 48.1875 
Q 61.625 48.1875 57.5625 43.546875 
Q 53.515625 38.921875 53.515625 30.90625 
L 53.515625 0 
L 44.484375 0 
L 44.484375 32.71875 
Q 44.484375 40.625 41.703125 44.40625 
Q 38.921875 48.1875 33.109375 48.1875 
Q 26.21875 48.1875 22.15625 43.53125 
Q 18.109375 38.875 18.109375 30.90625 
L 18.109375 0 
L 9.078125 0 
L 9.078125 54.6875 
L 18.109375 54.6875 
L 18.109375 46.1875 
Q 21.1875 51.21875 25.484375 53.609375 
Q 29.78125 56 35.6875 56 
Q 41.65625 56 45.828125 52.96875 
Q 50 49.953125 52 44.1875 
z
" id="DejaVuSans-6d"/>
      <path d="M 50.984375 -16.609375 
L 50.984375 -23.578125 
L -0.984375 -23.578125 
L -0.984375 -16.609375 
z
" id="DejaVuSans-5f"/>
      <path d="M 64.40625 67.28125 
L 64.40625 56.890625 
Q 59.421875 61.53125 53.78125 63.8125 
Q 48.140625 66.109375 41.796875 66.109375 
Q 29.296875 66.109375 22.65625 58.46875 
Q 16.015625 50.828125 16.015625 36.375 
Q 16.015625 21.96875 22.65625 14.328125 
Q 29.296875 6.6875 41.796875 6.6875 
Q 48.140625 6.6875 53.78125 8.984375 
Q 59.421875 11.28125 64.40625 15.921875 
L 64.40625 5.609375 
Q 59.234375 2.09375 53.4375 0.328125 
Q 47.65625 -1.421875 41.21875 -1.421875 
Q 24.65625 -1.421875 15.125 8.703125 
Q 5.609375 18.84375 5.609375 36.375 
Q 5.609375 53.953125 15.125 64.078125 
Q 24.65625 74.21875 41.21875 74.21875 
Q 47.75 74.21875 53.53125 72.484375 
Q 59.328125 70.75 64.40625 67.28125 
z
" id="DejaVuSans-43"/>
      <path d="M 41.109375 46.296875 
Q 39.59375 47.171875 37.8125 47.578125 
Q 36.03125 48 33.890625 48 
Q 26.265625 48 22.1875 43.046875 
Q 18.109375 38.09375 18.109375 28.8125 
L 18.109375 0 
L 9.078125 0 
L 9.078125 54.6875 
L 18.109375 54.6875 
L 18.109375 46.1875 
Q 20.953125 51.171875 25.484375 53.578125 
Q 30.03125 56 36.53125 56 
Q 37.453125 56 38.578125 55.875 
Q 39.703125 55.765625 41.0625 55.515625 
z
" id="DejaVuSans-72"/>
      <path d="M 56.203125 29.59375 
L 56.203125 25.203125 
L 14.890625 25.203125 
Q 15.484375 15.921875 20.484375 11.0625 
Q 25.484375 6.203125 34.421875 6.203125 
Q 39.59375 6.203125 44.453125 7.46875 
Q 49.3125 8.734375 54.109375 11.28125 
L 54.109375 2.78125 
Q 49.265625 0.734375 44.1875 -0.34375 
Q 39.109375 -1.421875 33.890625 -1.421875 
Q 20.796875 -1.421875 13.15625 6.1875 
Q 5.515625 13.8125 5.515625 26.8125 
Q 5.515625 40.234375 12.765625 48.109375 
Q 20.015625 56 32.328125 56 
Q 43.359375 56 49.78125 48.890625 
Q 56.203125 41.796875 56.203125 29.59375 
z
M 47.21875 32.234375 
Q 47.125 39.59375 43.09375 43.984375 
Q 39.0625 48.390625 32.421875 48.390625 
Q 24.90625 48.390625 20.390625 44.140625 
Q 15.875 39.890625 15.1875 32.171875 
z
" id="DejaVuSans-65"/>
      <path d="M 45.40625 46.390625 
L 45.40625 75.984375 
L 54.390625 75.984375 
L 54.390625 0 
L 45.40625 0 
L 45.40625 8.203125 
Q 42.578125 3.328125 38.25 0.953125 
Q 33.9375 -1.421875 27.875 -1.421875 
Q 17.96875 -1.421875 11.734375 6.484375 
Q 5.515625 14.40625 5.515625 27.296875 
Q 5.515625 40.1875 11.734375 48.09375 
Q 17.96875 56 27.875 56 
Q 33.9375 56 38.25 53.625 
Q 42.578125 51.265625 45.40625 46.390625 
z
M 14.796875 27.296875 
Q 14.796875 17.390625 18.875 11.75 
Q 22.953125 6.109375 30.078125 6.109375 
Q 37.203125 6.109375 41.296875 11.75 
Q 45.40625 17.390625 45.40625 27.296875 
Q 45.40625 37.203125 41.296875 42.84375 
Q 37.203125 48.484375 30.078125 48.484375 
Q 22.953125 48.484375 18.875 42.84375 
Q 14.796875 37.203125 14.796875 27.296875 
z
" id="DejaVuSans-64"/>
      <path d="M 9.421875 54.6875 
L 18.40625 54.6875 
L 18.40625 0 
L 9.421875 0 
z
M 9.421875 75.984375 
L 18.40625 75.984375 
L 18.40625 64.59375 
L 9.421875 64.59375 
z
" id="DejaVuSans-69"/>
      <path d="M 18.3125 70.21875 
L 18.3125 54.6875 
L 36.8125 54.6875 
L 36.8125 47.703125 
L 18.3125 47.703125 
L 18.3125 18.015625 
Q 18.3125 11.328125 20.140625 9.421875 
Q 21.96875 7.515625 27.59375 7.515625 
L 36.8125 7.515625 
L 36.8125 0 
L 27.59375 0 
Q 17.1875 0 13.234375 3.875 
Q 9.28125 7.765625 9.28125 18.015625 
L 9.28125 47.703125 
L 2.6875 47.703125 
L 2.6875 54.6875 
L 9.28125 54.6875 
L 9.28125 70.21875 
z
" id="DejaVuSans-74"/>
     </defs>
     <g style="fill:#262626;" transform="translate(366.576993 414.615312)scale(0.1 -0.1)">
      <use xlink:href="#DejaVuSans-53"/>
      <use x="63.476562" xlink:href="#DejaVuSans-75"/>
      <use x="126.855469" xlink:href="#DejaVuSans-6d"/>
      <use x="224.267578" xlink:href="#DejaVuSans-5f"/>
      <use x="274.267578" xlink:href="#DejaVuSans-43"/>
      <use x="344.091797" xlink:href="#DejaVuSans-72"/>
      <use x="385.173828" xlink:href="#DejaVuSans-65"/>
      <use x="446.697266" xlink:href="#DejaVuSans-64"/>
      <use x="510.173828" xlink:href="#DejaVuSans-69"/>
      <use x="537.957031" xlink:href="#DejaVuSans-74"/>
     </g>
    </g>
   </g>
   <g id="matplotlib.axis_2">
    <g id="ytick_1">
     <g id="line2d_11">
      <path clip-path="url(#p00c2b10fa0)" d="M 50.10625 352.158604 
L 740.764924 352.158604 
" style="fill:none;stroke:#ffffff;stroke-linecap:round;stroke-width:0.8;"/>
     </g>
     <g id="line2d_12"/>
     <g id="text_7">
      <!-- 0 -->
      <g style="fill:#262626;" transform="translate(40.24375 355.957823)scale(0.1 -0.1)">
       <use xlink:href="#DejaVuSans-30"/>
      </g>
     </g>
    </g>
    <g id="ytick_2">
     <g id="line2d_13">
      <path clip-path="url(#p00c2b10fa0)" d="M 50.10625 302.310831 
L 740.764924 302.310831 
" style="fill:none;stroke:#ffffff;stroke-linecap:round;stroke-width:0.8;"/>
     </g>
     <g id="line2d_14"/>
     <g id="text_8">
      <!-- 200 -->
      <g style="fill:#262626;" transform="translate(27.51875 306.11005)scale(0.1 -0.1)">
       <use xlink:href="#DejaVuSans-32"/>
       <use x="63.623047" xlink:href="#DejaVuSans-30"/>
       <use x="127.246094" xlink:href="#DejaVuSans-30"/>
      </g>
     </g>
    </g>
    <g id="ytick_3">
     <g id="line2d_15">
      <path clip-path="url(#p00c2b10fa0)" d="M 50.10625 252.463058 
L 740.764924 252.463058 
" style="fill:none;stroke:#ffffff;stroke-linecap:round;stroke-width:0.8;"/>
     </g>
     <g id="line2d_16"/>
     <g id="text_9">
      <!-- 400 -->
      <g style="fill:#262626;" transform="translate(27.51875 256.262277)scale(0.1 -0.1)">
       <use xlink:href="#DejaVuSans-34"/>
       <use x="63.623047" xlink:href="#DejaVuSans-30"/>
       <use x="127.246094" xlink:href="#DejaVuSans-30"/>
      </g>
     </g>
    </g>
    <g id="ytick_4">
     <g id="line2d_17">
      <path clip-path="url(#p00c2b10fa0)" d="M 50.10625 202.615285 
L 740.764924 202.615285 
" style="fill:none;stroke:#ffffff;stroke-linecap:round;stroke-width:0.8;"/>
     </g>
     <g id="line2d_18"/>
     <g id="text_10">
      <!-- 600 -->
      <g style="fill:#262626;" transform="translate(27.51875 206.414504)scale(0.1 -0.1)">
       <use xlink:href="#DejaVuSans-36"/>
       <use x="63.623047" xlink:href="#DejaVuSans-30"/>
       <use x="127.246094" xlink:href="#DejaVuSans-30"/>
      </g>
     </g>
    </g>
    <g id="ytick_5">
     <g id="line2d_19">
      <path clip-path="url(#p00c2b10fa0)" d="M 50.10625 152.767512 
L 740.764924 152.767512 
" style="fill:none;stroke:#ffffff;stroke-linecap:round;stroke-width:0.8;"/>
     </g>
     <g id="line2d_20"/>
     <g id="text_11">
      <!-- 800 -->
      <g style="fill:#262626;" transform="translate(27.51875 156.566731)scale(0.1 -0.1)">
       <use xlink:href="#DejaVuSans-38"/>
       <use x="63.623047" xlink:href="#DejaVuSans-30"/>
       <use x="127.246094" xlink:href="#DejaVuSans-30"/>
      </g>
     </g>
    </g>
    <g id="ytick_6">
     <g id="line2d_21">
      <path clip-path="url(#p00c2b10fa0)" d="M 50.10625 102.919739 
L 740.764924 102.919739 
" style="fill:none;stroke:#ffffff;stroke-linecap:round;stroke-width:0.8;"/>
     </g>
     <g id="line2d_22"/>
     <g id="text_12">
      <!-- 1000 -->
      <defs>
       <path d="M 12.40625 8.296875 
L 28.515625 8.296875 
L 28.515625 63.921875 
L 10.984375 60.40625 
L 10.984375 69.390625 
L 28.421875 72.90625 
L 38.28125 72.90625 
L 38.28125 8.296875 
L 54.390625 8.296875 
L 54.390625 0 
L 12.40625 0 
z
" id="DejaVuSans-31"/>
      </defs>
      <g style="fill:#262626;" transform="translate(21.15625 106.718958)scale(0.1 -0.1)">
       <use xlink:href="#DejaVuSans-31"/>
       <use x="63.623047" xlink:href="#DejaVuSans-30"/>
       <use x="127.246094" xlink:href="#DejaVuSans-30"/>
       <use x="190.869141" xlink:href="#DejaVuSans-30"/>
      </g>
     </g>
    </g>
    <g id="ytick_7">
     <g id="line2d_23">
      <path clip-path="url(#p00c2b10fa0)" d="M 50.10625 53.071966 
L 740.764924 53.071966 
" style="fill:none;stroke:#ffffff;stroke-linecap:round;stroke-width:0.8;"/>
     </g>
     <g id="line2d_24"/>
     <g id="text_13">
      <!-- 1200 -->
      <g style="fill:#262626;" transform="translate(21.15625 56.871185)scale(0.1 -0.1)">
       <use xlink:href="#DejaVuSans-31"/>
       <use x="63.623047" xlink:href="#DejaVuSans-32"/>
       <use x="127.246094" xlink:href="#DejaVuSans-30"/>
       <use x="190.869141" xlink:href="#DejaVuSans-30"/>
      </g>
     </g>
    </g>
    <g id="text_14">
     <!-- Sum_Debit -->
     <defs>
      <path d="M 19.671875 64.796875 
L 19.671875 8.109375 
L 31.59375 8.109375 
Q 46.6875 8.109375 53.6875 14.9375 
Q 60.6875 21.78125 60.6875 36.53125 
Q 60.6875 51.171875 53.6875 57.984375 
Q 46.6875 64.796875 31.59375 64.796875 
z
M 9.8125 72.90625 
L 30.078125 72.90625 
Q 51.265625 72.90625 61.171875 64.09375 
Q 71.09375 55.28125 71.09375 36.53125 
Q 71.09375 17.671875 61.125 8.828125 
Q 51.171875 0 30.078125 0 
L 9.8125 0 
z
" id="DejaVuSans-44"/>
      <path d="M 48.6875 27.296875 
Q 48.6875 37.203125 44.609375 42.84375 
Q 40.53125 48.484375 33.40625 48.484375 
Q 26.265625 48.484375 22.1875 42.84375 
Q 18.109375 37.203125 18.109375 27.296875 
Q 18.109375 17.390625 22.1875 11.75 
Q 26.265625 6.109375 33.40625 6.109375 
Q 40.53125 6.109375 44.609375 11.75 
Q 48.6875 17.390625 48.6875 27.296875 
z
M 18.109375 46.390625 
Q 20.953125 51.265625 25.265625 53.625 
Q 29.59375 56 35.59375 56 
Q 45.5625 56 51.78125 48.09375 
Q 58.015625 40.1875 58.015625 27.296875 
Q 58.015625 14.40625 51.78125 6.484375 
Q 45.5625 -1.421875 35.59375 -1.421875 
Q 29.59375 -1.421875 25.265625 0.953125 
Q 20.953125 3.328125 18.109375 8.203125 
L 18.109375 0 
L 9.078125 0 
L 9.078125 75.984375 
L 18.109375 75.984375 
z
" id="DejaVuSans-62"/>
     </defs>
     <g style="fill:#262626;" transform="translate(14.798437 225.682656)rotate(-90)scale(0.1 -0.1)">
      <use xlink:href="#DejaVuSans-53"/>
      <use x="63.476562" xlink:href="#DejaVuSans-75"/>
      <use x="126.855469" xlink:href="#DejaVuSans-6d"/>
      <use x="224.267578" xlink:href="#DejaVuSans-5f"/>
      <use x="274.267578" xlink:href="#DejaVuSans-44"/>
      <use x="351.269531" xlink:href="#DejaVuSans-65"/>
      <use x="412.792969" xlink:href="#DejaVuSans-62"/>
      <use x="476.269531" xlink:href="#DejaVuSans-69"/>
      <use x="504.052734" xlink:href="#DejaVuSans-74"/>
     </g>
    </g>
   </g>
   <g id="PathCollection_1">
    <defs>
     <path d="M 0 3 
C 0.795609 3 1.55874 2.683901 2.12132 2.12132 
C 2.683901 1.55874 3 0.795609 3 0 
C 3 -0.795609 2.683901 -1.55874 2.12132 -2.12132 
C 1.55874 -2.683901 0.795609 -3 0 -3 
C -0.795609 -3 -1.55874 -2.683901 -2.12132 -2.12132 
C -2.683901 -1.55874 -3 -0.795609 -3 0 
C -3 0.795609 -2.683901 1.55874 -2.12132 2.12132 
C -1.55874 2.683901 -0.795609 3 0 3 
z
" id="m03b1d4ed1c" style="stroke:#1f77b4;stroke-opacity:0.8;"/>
    </defs>
    <g clip-path="url(#p00c2b10fa0)">
     <use style="fill:#1f77b4;fill-opacity:0.8;stroke:#1f77b4;stroke-opacity:0.8;" x="103.68309" xlink:href="#m03b1d4ed1c" y="331.915492"/>
     <use style="fill:#1f77b4;fill-opacity:0.8;stroke:#1f77b4;stroke-opacity:0.8;" x="111.688492" xlink:href="#m03b1d4ed1c" y="342.601374"/>
     <use style="fill:#1f77b4;fill-opacity:0.8;stroke:#1f77b4;stroke-opacity:0.8;" x="133.690957" xlink:href="#m03b1d4ed1c" y="329.819316"/>
     <use style="fill:#1f77b4;fill-opacity:0.8;stroke:#1f77b4;stroke-opacity:0.8;" x="135.44571" xlink:href="#m03b1d4ed1c" y="339.789698"/>
     <use style="fill:#1f77b4;fill-opacity:0.8;stroke:#1f77b4;stroke-opacity:0.8;" x="123.514547" xlink:href="#m03b1d4ed1c" y="338.647758"/>
     <use style="fill:#1f77b4;fill-opacity:0.8;stroke:#1f77b4;stroke-opacity:0.8;" x="140.634327" xlink:href="#m03b1d4ed1c" y="334.034999"/>
     <use style="fill:#1f77b4;fill-opacity:0.8;stroke:#1f77b4;stroke-opacity:0.8;" x="122.67381" xlink:href="#m03b1d4ed1c" y="322.22214"/>
     <use style="fill:#1f77b4;fill-opacity:0.8;stroke:#1f77b4;stroke-opacity:0.8;" x="130.00882" xlink:href="#m03b1d4ed1c" y="339.669718"/>
     <use style="fill:#1f77b4;fill-opacity:0.8;stroke:#1f77b4;stroke-opacity:0.8;" x="128.294329" xlink:href="#m03b1d4ed1c" y="341.006023"/>
     <use style="fill:#1f77b4;fill-opacity:0.8;stroke:#1f77b4;stroke-opacity:0.8;" x="164.627818" xlink:href="#m03b1d4ed1c" y="327.607235"/>
     <use style="fill:#1f77b4;fill-opacity:0.8;stroke:#1f77b4;stroke-opacity:0.8;" x="158.934931" xlink:href="#m03b1d4ed1c" y="303.291916"/>
     <use style="fill:#1f77b4;fill-opacity:0.8;stroke:#1f77b4;stroke-opacity:0.8;" x="210.65054" xlink:href="#m03b1d4ed1c" y="283.210906"/>
     <use style="fill:#1f77b4;fill-opacity:0.8;stroke:#1f77b4;stroke-opacity:0.8;" x="136.522675" xlink:href="#m03b1d4ed1c" y="308.218949"/>
     <use style="fill:#1f77b4;fill-opacity:0.8;stroke:#1f77b4;stroke-opacity:0.8;" x="155.980723" xlink:href="#m03b1d4ed1c" y="327.206835"/>
     <use style="fill:#1f77b4;fill-opacity:0.8;stroke:#1f77b4;stroke-opacity:0.8;" x="112.229444" xlink:href="#m03b1d4ed1c" y="337.787033"/>
     <use style="fill:#1f77b4;fill-opacity:0.8;stroke:#1f77b4;stroke-opacity:0.8;" x="138.70651" xlink:href="#m03b1d4ed1c" y="349.189735"/>
     <use style="fill:#1f77b4;fill-opacity:0.8;stroke:#1f77b4;stroke-opacity:0.8;" x="124.844828" xlink:href="#m03b1d4ed1c" y="345.353965"/>
     <use style="fill:#1f77b4;fill-opacity:0.8;stroke:#1f77b4;stroke-opacity:0.8;" x="116.136558" xlink:href="#m03b1d4ed1c" y="345.195456"/>
     <use style="fill:#1f77b4;fill-opacity:0.8;stroke:#1f77b4;stroke-opacity:0.8;" x="105.508015" xlink:href="#m03b1d4ed1c" y="337.550936"/>
     <use style="fill:#1f77b4;fill-opacity:0.8;stroke:#1f77b4;stroke-opacity:0.8;" x="109.461167" xlink:href="#m03b1d4ed1c" y="349.637808"/>
     <use style="fill:#1f77b4;fill-opacity:0.8;stroke:#1f77b4;stroke-opacity:0.8;" x="88.161104" xlink:href="#m03b1d4ed1c" y="339.972895"/>
     <use style="fill:#1f77b4;fill-opacity:0.8;stroke:#1f77b4;stroke-opacity:0.8;" x="83.516352" xlink:href="#m03b1d4ed1c" y="333.830073"/>
     <use style="fill:#1f77b4;fill-opacity:0.8;stroke:#1f77b4;stroke-opacity:0.8;" x="139.102284" xlink:href="#m03b1d4ed1c" y="311.256415"/>
     <use style="fill:#1f77b4;fill-opacity:0.8;stroke:#1f77b4;stroke-opacity:0.8;" x="303.241245" xlink:href="#m03b1d4ed1c" y="271.683702"/>
     <use style="fill:#1f77b4;fill-opacity:0.8;stroke:#1f77b4;stroke-opacity:0.8;" x="107.623334" xlink:href="#m03b1d4ed1c" y="345.847091"/>
     <use style="fill:#1f77b4;fill-opacity:0.8;stroke:#1f77b4;stroke-opacity:0.8;" x="115.510852" xlink:href="#m03b1d4ed1c" y="343.815914"/>
     <use style="fill:#1f77b4;fill-opacity:0.8;stroke:#1f77b4;stroke-opacity:0.8;" x="88.584392" xlink:href="#m03b1d4ed1c" y="348.338797"/>
     <use style="fill:#1f77b4;fill-opacity:0.8;stroke:#1f77b4;stroke-opacity:0.8;" x="125.814881" xlink:href="#m03b1d4ed1c" y="332.542999"/>
     <use style="fill:#1f77b4;fill-opacity:0.8;stroke:#1f77b4;stroke-opacity:0.8;" x="111.624089" xlink:href="#m03b1d4ed1c" y="322.207237"/>
     <use style="fill:#1f77b4;fill-opacity:0.8;stroke:#1f77b4;stroke-opacity:0.8;" x="103.577948" xlink:href="#m03b1d4ed1c" y="327.331612"/>
     <use style="fill:#1f77b4;fill-opacity:0.8;stroke:#1f77b4;stroke-opacity:0.8;" x="97.181577" xlink:href="#m03b1d4ed1c" y="343.94035"/>
     <use style="fill:#1f77b4;fill-opacity:0.8;stroke:#1f77b4;stroke-opacity:0.8;" x="143.368932" xlink:href="#m03b1d4ed1c" y="326.243921"/>
     <use style="fill:#1f77b4;fill-opacity:0.8;stroke:#1f77b4;stroke-opacity:0.8;" x="117.011543" xlink:href="#m03b1d4ed1c" y="326.69685"/>
     <use style="fill:#1f77b4;fill-opacity:0.8;stroke:#1f77b4;stroke-opacity:0.8;" x="114.146555" xlink:href="#m03b1d4ed1c" y="323.959699"/>
     <use style="fill:#1f77b4;fill-opacity:0.8;stroke:#1f77b4;stroke-opacity:0.8;" x="106.343052" xlink:href="#m03b1d4ed1c" y="335.716363"/>
     <use style="fill:#1f77b4;fill-opacity:0.8;stroke:#1f77b4;stroke-opacity:0.8;" x="123.766652" xlink:href="#m03b1d4ed1c" y="326.368575"/>
     <use style="fill:#1f77b4;fill-opacity:0.8;stroke:#1f77b4;stroke-opacity:0.8;" x="323.089793" xlink:href="#m03b1d4ed1c" y="278.976872"/>
     <use style="fill:#1f77b4;fill-opacity:0.8;stroke:#1f77b4;stroke-opacity:0.8;" x="137.989564" xlink:href="#m03b1d4ed1c" y="329.390344"/>
     <use style="fill:#1f77b4;fill-opacity:0.8;stroke:#1f77b4;stroke-opacity:0.8;" x="137.881128" xlink:href="#m03b1d4ed1c" y="320.144922"/>
     <use style="fill:#1f77b4;fill-opacity:0.8;stroke:#1f77b4;stroke-opacity:0.8;" x="94.511398" xlink:href="#m03b1d4ed1c" y="331.375059"/>
     <use style="fill:#1f77b4;fill-opacity:0.8;stroke:#1f77b4;stroke-opacity:0.8;" x="253.172652" xlink:href="#m03b1d4ed1c" y="272.636115"/>
     <use style="fill:#1f77b4;fill-opacity:0.8;stroke:#1f77b4;stroke-opacity:0.8;" x="212.807541" xlink:href="#m03b1d4ed1c" y="305.928409"/>
     <use style="fill:#1f77b4;fill-opacity:0.8;stroke:#1f77b4;stroke-opacity:0.8;" x="134.331366" xlink:href="#m03b1d4ed1c" y="343.225729"/>
     <use style="fill:#1f77b4;fill-opacity:0.8;stroke:#1f77b4;stroke-opacity:0.8;" x="105.800057" xlink:href="#m03b1d4ed1c" y="329.879316"/>
     <use style="fill:#1f77b4;fill-opacity:0.8;stroke:#1f77b4;stroke-opacity:0.8;" x="284.614628" xlink:href="#m03b1d4ed1c" y="250.452822"/>
     <use style="fill:#1f77b4;fill-opacity:0.8;stroke:#1f77b4;stroke-opacity:0.8;" x="122.647205" xlink:href="#m03b1d4ed1c" y="324.841827"/>
     <use style="fill:#1f77b4;fill-opacity:0.8;stroke:#1f77b4;stroke-opacity:0.8;" x="127.726988" xlink:href="#m03b1d4ed1c" y="344.250035"/>
     <use style="fill:#1f77b4;fill-opacity:0.8;stroke:#1f77b4;stroke-opacity:0.8;" x="134.154032" xlink:href="#m03b1d4ed1c" y="354.527093"/>
     <use style="fill:#1f77b4;fill-opacity:0.8;stroke:#1f77b4;stroke-opacity:0.8;" x="138.404002" xlink:href="#m03b1d4ed1c" y="335.008151"/>
     <use style="fill:#1f77b4;fill-opacity:0.8;stroke:#1f77b4;stroke-opacity:0.8;" x="107.900233" xlink:href="#m03b1d4ed1c" y="316.072886"/>
     <use style="fill:#1f77b4;fill-opacity:0.8;stroke:#1f77b4;stroke-opacity:0.8;" x="95.982979" xlink:href="#m03b1d4ed1c" y="348.177516"/>
     <use style="fill:#1f77b4;fill-opacity:0.8;stroke:#1f77b4;stroke-opacity:0.8;" x="145.005252" xlink:href="#m03b1d4ed1c" y="333.939932"/>
     <use style="fill:#1f77b4;fill-opacity:0.8;stroke:#1f77b4;stroke-opacity:0.8;" x="140.776337" xlink:href="#m03b1d4ed1c" y="349.717652"/>
     <use style="fill:#1f77b4;fill-opacity:0.8;stroke:#1f77b4;stroke-opacity:0.8;" x="234.329133" xlink:href="#m03b1d4ed1c" y="305.10244"/>
     <use style="fill:#1f77b4;fill-opacity:0.8;stroke:#1f77b4;stroke-opacity:0.8;" x="114.155111" xlink:href="#m03b1d4ed1c" y="358.626309"/>
     <use style="fill:#1f77b4;fill-opacity:0.8;stroke:#1f77b4;stroke-opacity:0.8;" x="95.330571" xlink:href="#m03b1d4ed1c" y="361.287568"/>
     <use style="fill:#1f77b4;fill-opacity:0.8;stroke:#1f77b4;stroke-opacity:0.8;" x="105.56259" xlink:href="#m03b1d4ed1c" y="300.483243"/>
     <use style="fill:#1f77b4;fill-opacity:0.8;stroke:#1f77b4;stroke-opacity:0.8;" x="108.294761" xlink:href="#m03b1d4ed1c" y="277.125377"/>
     <use style="fill:#1f77b4;fill-opacity:0.8;stroke:#1f77b4;stroke-opacity:0.8;" x="297.831804" xlink:href="#m03b1d4ed1c" y="224.027206"/>
     <use style="fill:#1f77b4;fill-opacity:0.8;stroke:#1f77b4;stroke-opacity:0.8;" x="113.501406" xlink:href="#m03b1d4ed1c" y="356.35419"/>
     <use style="fill:#1f77b4;fill-opacity:0.8;stroke:#1f77b4;stroke-opacity:0.8;" x="135.848966" xlink:href="#m03b1d4ed1c" y="321.281836"/>
     <use style="fill:#1f77b4;fill-opacity:0.8;stroke:#1f77b4;stroke-opacity:0.8;" x="187.289581" xlink:href="#m03b1d4ed1c" y="331.85181"/>
     <use style="fill:#1f77b4;fill-opacity:0.8;stroke:#1f77b4;stroke-opacity:0.8;" x="138.213002" xlink:href="#m03b1d4ed1c" y="343.311345"/>
     <use style="fill:#1f77b4;fill-opacity:0.8;stroke:#1f77b4;stroke-opacity:0.8;" x="195.701608" xlink:href="#m03b1d4ed1c" y="312.240746"/>
     <use style="fill:#1f77b4;fill-opacity:0.8;stroke:#1f77b4;stroke-opacity:0.8;" x="210.401739" xlink:href="#m03b1d4ed1c" y="328.73036"/>
     <use style="fill:#1f77b4;fill-opacity:0.8;stroke:#1f77b4;stroke-opacity:0.8;" x="119.144865" xlink:href="#m03b1d4ed1c" y="346.675014"/>
     <use style="fill:#1f77b4;fill-opacity:0.8;stroke:#1f77b4;stroke-opacity:0.8;" x="136.925223" xlink:href="#m03b1d4ed1c" y="328.721108"/>
     <use style="fill:#1f77b4;fill-opacity:0.8;stroke:#1f77b4;stroke-opacity:0.8;" x="87.958205" xlink:href="#m03b1d4ed1c" y="355.150405"/>
     <use style="fill:#1f77b4;fill-opacity:0.8;stroke:#1f77b4;stroke-opacity:0.8;" x="107.02978" xlink:href="#m03b1d4ed1c" y="341.228962"/>
     <use style="fill:#1f77b4;fill-opacity:0.8;stroke:#1f77b4;stroke-opacity:0.8;" x="99.770217" xlink:href="#m03b1d4ed1c" y="343.090867"/>
     <use style="fill:#1f77b4;fill-opacity:0.8;stroke:#1f77b4;stroke-opacity:0.8;" x="137.84149" xlink:href="#m03b1d4ed1c" y="348.412338"/>
     <use style="fill:#1f77b4;fill-opacity:0.8;stroke:#1f77b4;stroke-opacity:0.8;" x="114.839717" xlink:href="#m03b1d4ed1c" y="352.412597"/>
     <use style="fill:#1f77b4;fill-opacity:0.8;stroke:#1f77b4;stroke-opacity:0.8;" x="131.831004" xlink:href="#m03b1d4ed1c" y="335.110139"/>
     <use style="fill:#1f77b4;fill-opacity:0.8;stroke:#1f77b4;stroke-opacity:0.8;" x="91.613512" xlink:href="#m03b1d4ed1c" y="350.046588"/>
     <use style="fill:#1f77b4;fill-opacity:0.8;stroke:#1f77b4;stroke-opacity:0.8;" x="170.455899" xlink:href="#m03b1d4ed1c" y="325.230437"/>
     <use style="fill:#1f77b4;fill-opacity:0.8;stroke:#1f77b4;stroke-opacity:0.8;" x="135.009486" xlink:href="#m03b1d4ed1c" y="341.631477"/>
     <use style="fill:#1f77b4;fill-opacity:0.8;stroke:#1f77b4;stroke-opacity:0.8;" x="139.564591" xlink:href="#m03b1d4ed1c" y="345.484004"/>
     <use style="fill:#1f77b4;fill-opacity:0.8;stroke:#1f77b4;stroke-opacity:0.8;" x="112.35327" xlink:href="#m03b1d4ed1c" y="354.148431"/>
     <use style="fill:#1f77b4;fill-opacity:0.8;stroke:#1f77b4;stroke-opacity:0.8;" x="367.639176" xlink:href="#m03b1d4ed1c" y="261.887186"/>
    </g>
   </g>
   <g id="PolyCollection_1">
    <path clip-path="url(#p00c2b10fa0)" d="M 50.10625 356.233123 
L 50.10625 372.44608 
L 57.0826 369.100801 
L 64.05895 365.561191 
L 71.035301 361.953458 
L 78.011651 358.760689 
L 84.988001 355.224571 
L 91.964351 351.999727 
L 98.940702 348.395458 
L 105.917052 345.025842 
L 112.893402 341.859367 
L 119.869752 338.849512 
L 126.846103 336.058569 
L 133.822453 333.524358 
L 140.798803 331.002541 
L 147.775153 328.686987 
L 154.751504 326.294493 
L 161.727854 323.920459 
L 168.704204 321.586379 
L 175.680554 319.359808 
L 182.656905 317.133612 
L 189.633255 314.893329 
L 196.609605 312.610421 
L 203.585955 310.416851 
L 210.562306 308.264668 
L 217.538656 306.089381 
L 224.515006 303.91226 
L 231.491356 301.737026 
L 238.467707 299.531024 
L 245.444057 297.319845 
L 252.420407 295.167259 
L 259.396757 292.901841 
L 266.373108 290.693068 
L 273.349458 288.593949 
L 280.325808 286.45024 
L 287.302158 284.193422 
L 294.278509 281.945671 
L 301.254859 279.731891 
L 308.231209 277.648733 
L 315.207559 275.565272 
L 322.183909 273.458738 
L 329.16026 271.285801 
L 336.13661 269.112865 
L 343.11296 266.939928 
L 350.08931 264.80419 
L 357.065661 262.695327 
L 364.042011 260.586464 
L 371.018361 258.474211 
L 377.994711 256.361644 
L 384.971062 254.249077 
L 391.947412 252.092524 
L 398.923762 249.998868 
L 405.900112 247.847088 
L 412.876463 245.649212 
L 419.852813 243.451336 
L 426.829163 241.253459 
L 433.805513 239.055007 
L 440.781864 236.855566 
L 447.758214 234.656125 
L 454.734564 232.456684 
L 461.710914 230.257243 
L 468.687265 228.057802 
L 475.663615 225.858361 
L 482.639965 223.65892 
L 489.616315 221.459479 
L 496.592666 219.340177 
L 503.569016 217.234772 
L 510.545366 215.129368 
L 517.521716 213.023964 
L 524.498067 210.918559 
L 531.474417 208.813155 
L 538.450767 206.707751 
L 545.427117 204.602346 
L 552.403468 202.496942 
L 559.379818 200.359038 
L 566.356168 198.188584 
L 573.332518 196.018129 
L 580.308869 193.847675 
L 587.285219 191.67722 
L 594.261569 189.506766 
L 601.237919 187.336311 
L 608.214269 185.165857 
L 615.19062 182.995402 
L 622.16697 180.824948 
L 629.14332 178.654493 
L 636.11967 176.484039 
L 643.096021 174.313584 
L 650.072371 172.14313 
L 657.048721 169.972675 
L 664.025071 167.802221 
L 671.001422 165.631766 
L 677.977772 163.459727 
L 684.954122 161.287602 
L 691.930472 159.115476 
L 698.906823 156.94335 
L 705.883173 154.771225 
L 712.859523 152.599099 
L 719.835873 150.426974 
L 726.812224 148.254848 
L 733.788574 146.082723 
L 740.764924 143.910597 
L 740.764924 24.59267 
L 740.764924 24.59267 
L 733.788574 28.129519 
L 726.812224 31.666367 
L 719.835873 35.203215 
L 712.859523 38.740063 
L 705.883173 42.276911 
L 698.906823 45.813759 
L 691.930472 49.350607 
L 684.954122 52.887455 
L 677.977772 56.424303 
L 671.001422 59.961151 
L 664.025071 63.497999 
L 657.048721 67.034847 
L 650.072371 70.571695 
L 643.096021 74.108544 
L 636.11967 77.645392 
L 629.14332 81.18224 
L 622.16697 84.719088 
L 615.19062 88.255936 
L 608.214269 91.772301 
L 601.237919 95.261686 
L 594.261569 98.751071 
L 587.285219 102.240456 
L 580.308869 105.72984 
L 573.332518 109.219225 
L 566.356168 112.70861 
L 559.379818 116.197995 
L 552.403468 119.68738 
L 545.427117 123.176765 
L 538.450767 126.66615 
L 531.474417 130.155534 
L 524.498067 133.644919 
L 517.521716 137.134304 
L 510.545366 140.623689 
L 503.569016 144.113074 
L 496.592666 147.602459 
L 489.616315 151.091844 
L 482.639965 154.581228 
L 475.663615 158.070613 
L 468.687265 161.559998 
L 461.710914 165.049383 
L 454.734564 168.538768 
L 447.758214 172.028153 
L 440.781864 175.518898 
L 433.805513 179.006924 
L 426.829163 182.49138 
L 419.852813 185.975836 
L 412.876463 189.460291 
L 405.900112 192.944747 
L 398.923762 196.447575 
L 391.947412 199.952856 
L 384.971062 203.441529 
L 377.994711 206.930201 
L 371.018361 210.418874 
L 364.042011 213.907547 
L 357.065661 217.39622 
L 350.08931 220.884892 
L 343.11296 224.375118 
L 336.13661 227.90262 
L 329.16026 231.456395 
L 322.183909 235.01017 
L 315.207559 238.563945 
L 308.231209 242.117719 
L 301.254859 245.671494 
L 294.278509 249.225269 
L 287.302158 252.779044 
L 280.325808 256.332818 
L 273.349458 259.848252 
L 266.373108 263.255783 
L 259.396757 266.663315 
L 252.420407 270.072223 
L 245.444057 273.482637 
L 238.467707 276.889983 
L 231.491356 280.295281 
L 224.515006 283.779508 
L 217.538656 287.289231 
L 210.562306 290.799709 
L 203.585955 294.313269 
L 196.609605 297.931531 
L 189.633255 301.572291 
L 182.656905 305.137513 
L 175.680554 308.635824 
L 168.704204 312.001045 
L 161.727854 315.340772 
L 154.751504 318.572665 
L 147.775153 321.589954 
L 140.798803 324.678713 
L 133.822453 327.829425 
L 126.846103 330.464316 
L 119.869752 332.960762 
L 112.893402 335.615055 
L 105.917052 337.994746 
L 98.940702 340.387793 
L 91.964351 342.782727 
L 84.988001 345.051127 
L 78.011651 347.268765 
L 71.035301 349.40755 
L 64.05895 351.637107 
L 57.0826 354.018733 
L 50.10625 356.233123 
z
" style="fill:#1f77b4;fill-opacity:0.15;"/>
   </g>
   <g id="PathCollection_2">
    <defs>
     <path d="M 0 3 
C 0.795609 3 1.55874 2.683901 2.12132 2.12132 
C 2.683901 1.55874 3 0.795609 3 0 
C 3 -0.795609 2.683901 -1.55874 2.12132 -2.12132 
C 1.55874 -2.683901 0.795609 -3 0 -3 
C -0.795609 -3 -1.55874 -2.683901 -2.12132 -2.12132 
C -2.683901 -1.55874 -3 -0.795609 -3 0 
C -3 0.795609 -2.683901 1.55874 -2.12132 2.12132 
C -1.55874 2.683901 -0.795609 3 0 3 
z
" id="m60a414246f" style="stroke:#ff7f0e;stroke-opacity:0.8;"/>
    </defs>
    <g clip-path="url(#p00c2b10fa0)">
     <use style="fill:#ff7f0e;fill-opacity:0.8;stroke:#ff7f0e;stroke-opacity:0.8;" x="311.95677" xlink:href="#m60a414246f" y="282.845795"/>
     <use style="fill:#ff7f0e;fill-opacity:0.8;stroke:#ff7f0e;stroke-opacity:0.8;" x="187.579991" xlink:href="#m60a414246f" y="316.500306"/>
     <use style="fill:#ff7f0e;fill-opacity:0.8;stroke:#ff7f0e;stroke-opacity:0.8;" x="87.011071" xlink:href="#m60a414246f" y="348.192921"/>
     <use style="fill:#ff7f0e;fill-opacity:0.8;stroke:#ff7f0e;stroke-opacity:0.8;" x="159.568789" xlink:href="#m60a414246f" y="319.055091"/>
     <use style="fill:#ff7f0e;fill-opacity:0.8;stroke:#ff7f0e;stroke-opacity:0.8;" x="287.815824" xlink:href="#m60a414246f" y="296.841512"/>
     <use style="fill:#ff7f0e;fill-opacity:0.8;stroke:#ff7f0e;stroke-opacity:0.8;" x="165.893309" xlink:href="#m60a414246f" y="350.018973"/>
     <use style="fill:#ff7f0e;fill-opacity:0.8;stroke:#ff7f0e;stroke-opacity:0.8;" x="83.724465" xlink:href="#m60a414246f" y="344.256897"/>
     <use style="fill:#ff7f0e;fill-opacity:0.8;stroke:#ff7f0e;stroke-opacity:0.8;" x="108.154098" xlink:href="#m60a414246f" y="349.753728"/>
     <use style="fill:#ff7f0e;fill-opacity:0.8;stroke:#ff7f0e;stroke-opacity:0.8;" x="87.763163" xlink:href="#m60a414246f" y="344.676849"/>
    </g>
   </g>
   <g id="PolyCollection_2">
    <path clip-path="url(#p00c2b10fa0)" d="M 50.10625 372.350405 
L 50.10625 372.350405 
L 57.0826 369.971461 
L 64.05895 367.592517 
L 71.035301 365.213573 
L 78.011651 362.834629 
L 84.988001 360.455686 
L 91.964351 358.076742 
L 98.940702 355.697798 
L 105.917052 353.318854 
L 112.893402 350.93991 
L 119.869752 348.560966 
L 126.846103 346.182023 
L 133.822453 343.803079 
L 140.798803 341.424135 
L 147.775153 339.045191 
L 154.751504 336.666247 
L 161.727854 334.287303 
L 168.704204 331.908359 
L 175.680554 329.529416 
L 182.656905 327.150472 
L 189.633255 324.771528 
L 196.609605 322.392584 
L 203.585955 320.01364 
L 210.562306 317.634696 
L 217.538656 315.255753 
L 224.515006 312.876809 
L 231.491356 310.497865 
L 238.467707 308.118921 
L 245.444057 305.739977 
L 252.420407 303.361033 
L 259.396757 300.98209 
L 266.373108 298.603146 
L 273.349458 296.224202 
L 280.325808 293.845258 
L 287.302158 291.466314 
L 294.278509 289.08737 
L 301.254859 286.708426 
L 308.231209 284.329483 
L 315.207559 281.950539 
L 322.183909 279.571595 
L 329.16026 277.192651 
L 336.13661 274.813707 
L 343.11296 272.434763 
L 350.08931 270.05582 
L 357.065661 267.676876 
L 364.042011 265.297932 
L 371.018361 262.918988 
L 377.994711 260.540044 
L 384.971062 258.1611 
L 391.947412 255.782157 
L 398.923762 253.403213 
L 405.900112 251.024269 
L 412.876463 248.645325 
L 419.852813 246.266381 
L 426.829163 243.887437 
L 433.805513 241.508494 
L 440.781864 239.12955 
L 447.758214 236.750606 
L 454.734564 234.371662 
L 461.710914 231.992718 
L 468.687265 229.613774 
L 475.663615 227.23483 
L 482.639965 224.855887 
L 489.616315 222.476943 
L 496.592666 220.097999 
L 503.569016 217.719055 
L 510.545366 215.340111 
L 517.521716 212.961167 
L 524.498067 210.582224 
L 531.474417 208.20328 
L 538.450767 205.824336 
L 545.427117 203.445392 
L 552.403468 201.066448 
L 559.379818 198.687504 
L 566.356168 196.308561 
L 573.332518 193.929617 
L 580.308869 191.550673 
L 587.285219 189.171729 
L 594.261569 186.792785 
L 601.237919 184.413841 
L 608.214269 182.034897 
L 615.19062 179.655954 
L 622.16697 177.27701 
L 629.14332 174.898066 
L 636.11967 172.519122 
L 643.096021 170.140178 
L 650.072371 167.761234 
L 657.048721 165.382291 
L 664.025071 163.003347 
L 671.001422 160.624403 
L 677.977772 158.245459 
L 684.954122 155.866515 
L 691.930472 153.487571 
L 698.906823 151.108628 
L 705.883173 148.729684 
L 712.859523 146.35074 
L 719.835873 143.971796 
L 726.812224 141.592852 
L 733.788574 139.213908 
L 740.764924 136.834964 
L 740.764924 136.834964 
L 740.764924 136.834964 
L 733.788574 139.213908 
L 726.812224 141.592852 
L 719.835873 143.971796 
L 712.859523 146.35074 
L 705.883173 148.729684 
L 698.906823 151.108628 
L 691.930472 153.487571 
L 684.954122 155.866515 
L 677.977772 158.245459 
L 671.001422 160.624403 
L 664.025071 163.003347 
L 657.048721 165.382291 
L 650.072371 167.761234 
L 643.096021 170.140178 
L 636.11967 172.519122 
L 629.14332 174.898066 
L 622.16697 177.27701 
L 615.19062 179.655954 
L 608.214269 182.034897 
L 601.237919 184.413841 
L 594.261569 186.792785 
L 587.285219 189.171729 
L 580.308869 191.550673 
L 573.332518 193.929617 
L 566.356168 196.308561 
L 559.379818 198.687504 
L 552.403468 201.066448 
L 545.427117 203.445392 
L 538.450767 205.824336 
L 531.474417 208.20328 
L 524.498067 210.582224 
L 517.521716 212.961167 
L 510.545366 215.340111 
L 503.569016 217.719055 
L 496.592666 220.097999 
L 489.616315 222.476943 
L 482.639965 224.855887 
L 475.663615 227.23483 
L 468.687265 229.613774 
L 461.710914 231.992718 
L 454.734564 234.371662 
L 447.758214 236.750606 
L 440.781864 239.12955 
L 433.805513 241.508494 
L 426.829163 243.887437 
L 419.852813 246.266381 
L 412.876463 248.645325 
L 405.900112 251.024269 
L 398.923762 253.403213 
L 391.947412 255.782157 
L 384.971062 258.1611 
L 377.994711 260.540044 
L 371.018361 262.918988 
L 364.042011 265.297932 
L 357.065661 267.676876 
L 350.08931 270.05582 
L 343.11296 272.434763 
L 336.13661 274.813707 
L 329.16026 277.192651 
L 322.183909 279.571595 
L 315.207559 281.950539 
L 308.231209 284.329483 
L 301.254859 286.708426 
L 294.278509 289.08737 
L 287.302158 291.466314 
L 280.325808 293.845258 
L 273.349458 296.224202 
L 266.373108 298.603146 
L 259.396757 300.98209 
L 252.420407 303.361033 
L 245.444057 305.739977 
L 238.467707 308.118921 
L 231.491356 310.497865 
L 224.515006 312.876809 
L 217.538656 315.255753 
L 210.562306 317.634696 
L 203.585955 320.01364 
L 196.609605 322.392584 
L 189.633255 324.771528 
L 182.656905 327.150472 
L 175.680554 329.529416 
L 168.704204 331.908359 
L 161.727854 334.287303 
L 154.751504 336.666247 
L 147.775153 339.045191 
L 140.798803 341.424135 
L 133.822453 343.803079 
L 126.846103 346.182023 
L 119.869752 348.560966 
L 112.893402 350.93991 
L 105.917052 353.318854 
L 98.940702 355.697798 
L 91.964351 358.076742 
L 84.988001 360.455686 
L 78.011651 362.834629 
L 71.035301 365.213573 
L 64.05895 367.592517 
L 57.0826 369.971461 
L 50.10625 372.350405 
z
" style="fill:#ff7f0e;fill-opacity:0.15;"/>
   </g>
   <g id="PathCollection_3">
    <defs>
     <path d="M 0 3 
C 0.795609 3 1.55874 2.683901 2.12132 2.12132 
C 2.683901 1.55874 3 0.795609 3 0 
C 3 -0.795609 2.683901 -1.55874 2.12132 -2.12132 
C 1.55874 -2.683901 0.795609 -3 0 -3 
C -0.795609 -3 -1.55874 -2.683901 -2.12132 -2.12132 
C -2.683901 -1.55874 -3 -0.795609 -3 0 
C -3 0.795609 -2.683901 1.55874 -2.12132 2.12132 
C -1.55874 2.683901 -0.795609 3 0 3 
z
" id="mf253fcea02" style="stroke:#2ca02c;stroke-opacity:0.8;"/>
    </defs>
    <g clip-path="url(#p00c2b10fa0)">
     <use style="fill:#2ca02c;fill-opacity:0.8;stroke:#2ca02c;stroke-opacity:0.8;" x="241.744721" xlink:href="#mf253fcea02" y="345.062038"/>
     <use style="fill:#2ca02c;fill-opacity:0.8;stroke:#2ca02c;stroke-opacity:0.8;" x="267.203779" xlink:href="#mf253fcea02" y="316.914449"/>
     <use style="fill:#2ca02c;fill-opacity:0.8;stroke:#2ca02c;stroke-opacity:0.8;" x="187.580877" xlink:href="#mf253fcea02" y="340.542437"/>
     <use style="fill:#2ca02c;fill-opacity:0.8;stroke:#2ca02c;stroke-opacity:0.8;" x="136.064126" xlink:href="#mf253fcea02" y="340.700726"/>
     <use style="fill:#2ca02c;fill-opacity:0.8;stroke:#2ca02c;stroke-opacity:0.8;" x="217.241965" xlink:href="#mf253fcea02" y="341.830901"/>
     <use style="fill:#2ca02c;fill-opacity:0.8;stroke:#2ca02c;stroke-opacity:0.8;" x="180.196665" xlink:href="#mf253fcea02" y="344.233725"/>
     <use style="fill:#2ca02c;fill-opacity:0.8;stroke:#2ca02c;stroke-opacity:0.8;" x="267.982957" xlink:href="#mf253fcea02" y="339.531567"/>
     <use style="fill:#2ca02c;fill-opacity:0.8;stroke:#2ca02c;stroke-opacity:0.8;" x="208.011744" xlink:href="#mf253fcea02" y="355.470317"/>
     <use style="fill:#2ca02c;fill-opacity:0.8;stroke:#2ca02c;stroke-opacity:0.8;" x="173.350574" xlink:href="#mf253fcea02" y="354.891853"/>
     <use style="fill:#2ca02c;fill-opacity:0.8;stroke:#2ca02c;stroke-opacity:0.8;" x="160.224601" xlink:href="#mf253fcea02" y="352.2466"/>
     <use style="fill:#2ca02c;fill-opacity:0.8;stroke:#2ca02c;stroke-opacity:0.8;" x="217.963343" xlink:href="#mf253fcea02" y="342.560173"/>
     <use style="fill:#2ca02c;fill-opacity:0.8;stroke:#2ca02c;stroke-opacity:0.8;" x="455.481594" xlink:href="#mf253fcea02" y="332.033464"/>
     <use style="fill:#2ca02c;fill-opacity:0.8;stroke:#2ca02c;stroke-opacity:0.8;" x="339.068871" xlink:href="#mf253fcea02" y="296.281561"/>
     <use style="fill:#2ca02c;fill-opacity:0.8;stroke:#2ca02c;stroke-opacity:0.8;" x="173.019032" xlink:href="#mf253fcea02" y="343.017727"/>
     <use style="fill:#2ca02c;fill-opacity:0.8;stroke:#2ca02c;stroke-opacity:0.8;" x="290.533717" xlink:href="#mf253fcea02" y="338.168113"/>
     <use style="fill:#2ca02c;fill-opacity:0.8;stroke:#2ca02c;stroke-opacity:0.8;" x="149.695231" xlink:href="#mf253fcea02" y="344.619228"/>
     <use style="fill:#2ca02c;fill-opacity:0.8;stroke:#2ca02c;stroke-opacity:0.8;" x="289.468866" xlink:href="#mf253fcea02" y="346.820818"/>
     <use style="fill:#2ca02c;fill-opacity:0.8;stroke:#2ca02c;stroke-opacity:0.8;" x="161.399627" xlink:href="#mf253fcea02" y="342.495919"/>
     <use style="fill:#2ca02c;fill-opacity:0.8;stroke:#2ca02c;stroke-opacity:0.8;" x="136.411425" xlink:href="#mf253fcea02" y="344.982933"/>
     <use style="fill:#2ca02c;fill-opacity:0.8;stroke:#2ca02c;stroke-opacity:0.8;" x="235.280769" xlink:href="#mf253fcea02" y="332.209353"/>
     <use style="fill:#2ca02c;fill-opacity:0.8;stroke:#2ca02c;stroke-opacity:0.8;" x="283.596633" xlink:href="#mf253fcea02" y="330.384366"/>
     <use style="fill:#2ca02c;fill-opacity:0.8;stroke:#2ca02c;stroke-opacity:0.8;" x="231.019257" xlink:href="#mf253fcea02" y="346.20068"/>
     <use style="fill:#2ca02c;fill-opacity:0.8;stroke:#2ca02c;stroke-opacity:0.8;" x="213.093985" xlink:href="#mf253fcea02" y="333.553758"/>
     <use style="fill:#2ca02c;fill-opacity:0.8;stroke:#2ca02c;stroke-opacity:0.8;" x="116.59055" xlink:href="#mf253fcea02" y="356.538255"/>
     <use style="fill:#2ca02c;fill-opacity:0.8;stroke:#2ca02c;stroke-opacity:0.8;" x="203.789483" xlink:href="#mf253fcea02" y="354.791512"/>
     <use style="fill:#2ca02c;fill-opacity:0.8;stroke:#2ca02c;stroke-opacity:0.8;" x="309.109805" xlink:href="#mf253fcea02" y="353.404357"/>
     <use style="fill:#2ca02c;fill-opacity:0.8;stroke:#2ca02c;stroke-opacity:0.8;" x="271.115593" xlink:href="#mf253fcea02" y="300.742609"/>
     <use style="fill:#2ca02c;fill-opacity:0.8;stroke:#2ca02c;stroke-opacity:0.8;" x="145.315806" xlink:href="#mf253fcea02" y="352.250821"/>
     <use style="fill:#2ca02c;fill-opacity:0.8;stroke:#2ca02c;stroke-opacity:0.8;" x="642.486965" xlink:href="#mf253fcea02" y="296.636102"/>
     <use style="fill:#2ca02c;fill-opacity:0.8;stroke:#2ca02c;stroke-opacity:0.8;" x="588.499853" xlink:href="#mf253fcea02" y="341.095168"/>
     <use style="fill:#2ca02c;fill-opacity:0.8;stroke:#2ca02c;stroke-opacity:0.8;" x="320.339105" xlink:href="#mf253fcea02" y="356.64065"/>
     <use style="fill:#2ca02c;fill-opacity:0.8;stroke:#2ca02c;stroke-opacity:0.8;" x="212.008132" xlink:href="#mf253fcea02" y="345.464923"/>
     <use style="fill:#2ca02c;fill-opacity:0.8;stroke:#2ca02c;stroke-opacity:0.8;" x="246.330775" xlink:href="#mf253fcea02" y="348.029745"/>
     <use style="fill:#2ca02c;fill-opacity:0.8;stroke:#2ca02c;stroke-opacity:0.8;" x="106.249588" xlink:href="#mf253fcea02" y="356.556314"/>
     <use style="fill:#2ca02c;fill-opacity:0.8;stroke:#2ca02c;stroke-opacity:0.8;" x="394.71502" xlink:href="#mf253fcea02" y="325.150297"/>
     <use style="fill:#2ca02c;fill-opacity:0.8;stroke:#2ca02c;stroke-opacity:0.8;" x="368.162776" xlink:href="#mf253fcea02" y="355.777476"/>
     <use style="fill:#2ca02c;fill-opacity:0.8;stroke:#2ca02c;stroke-opacity:0.8;" x="175.045802" xlink:href="#mf253fcea02" y="344.30083"/>
     <use style="fill:#2ca02c;fill-opacity:0.8;stroke:#2ca02c;stroke-opacity:0.8;" x="719.777794" xlink:href="#mf253fcea02" y="244.761741"/>
     <use style="fill:#2ca02c;fill-opacity:0.8;stroke:#2ca02c;stroke-opacity:0.8;" x="133.050874" xlink:href="#mf253fcea02" y="349.050381"/>
     <use style="fill:#2ca02c;fill-opacity:0.8;stroke:#2ca02c;stroke-opacity:0.8;" x="194.754243" xlink:href="#mf253fcea02" y="339.405597"/>
     <use style="fill:#2ca02c;fill-opacity:0.8;stroke:#2ca02c;stroke-opacity:0.8;" x="120.581763" xlink:href="#mf253fcea02" y="351.357448"/>
     <use style="fill:#2ca02c;fill-opacity:0.8;stroke:#2ca02c;stroke-opacity:0.8;" x="325.946665" xlink:href="#mf253fcea02" y="353.562141"/>
     <use style="fill:#2ca02c;fill-opacity:0.8;stroke:#2ca02c;stroke-opacity:0.8;" x="339.386599" xlink:href="#mf253fcea02" y="336.361747"/>
     <use style="fill:#2ca02c;fill-opacity:0.8;stroke:#2ca02c;stroke-opacity:0.8;" x="336.994585" xlink:href="#mf253fcea02" y="327.982824"/>
     <use style="fill:#2ca02c;fill-opacity:0.8;stroke:#2ca02c;stroke-opacity:0.8;" x="347.088328" xlink:href="#mf253fcea02" y="329.709586"/>
     <use style="fill:#2ca02c;fill-opacity:0.8;stroke:#2ca02c;stroke-opacity:0.8;" x="281.720843" xlink:href="#mf253fcea02" y="358.216712"/>
     <use style="fill:#2ca02c;fill-opacity:0.8;stroke:#2ca02c;stroke-opacity:0.8;" x="158.092473" xlink:href="#mf253fcea02" y="332.190634"/>
     <use style="fill:#2ca02c;fill-opacity:0.8;stroke:#2ca02c;stroke-opacity:0.8;" x="313.289138" xlink:href="#mf253fcea02" y="309.18923"/>
     <use style="fill:#2ca02c;fill-opacity:0.8;stroke:#2ca02c;stroke-opacity:0.8;" x="126.853991" xlink:href="#mf253fcea02" y="338.259765"/>
     <use style="fill:#2ca02c;fill-opacity:0.8;stroke:#2ca02c;stroke-opacity:0.8;" x="283.183594" xlink:href="#mf253fcea02" y="352.600663"/>
     <use style="fill:#2ca02c;fill-opacity:0.8;stroke:#2ca02c;stroke-opacity:0.8;" x="186.05447" xlink:href="#mf253fcea02" y="342.085042"/>
     <use style="fill:#2ca02c;fill-opacity:0.8;stroke:#2ca02c;stroke-opacity:0.8;" x="314.382919" xlink:href="#mf253fcea02" y="343.795134"/>
     <use style="fill:#2ca02c;fill-opacity:0.8;stroke:#2ca02c;stroke-opacity:0.8;" x="298.852926" xlink:href="#mf253fcea02" y="336.948975"/>
     <use style="fill:#2ca02c;fill-opacity:0.8;stroke:#2ca02c;stroke-opacity:0.8;" x="259.253913" xlink:href="#mf253fcea02" y="342.408456"/>
     <use style="fill:#2ca02c;fill-opacity:0.8;stroke:#2ca02c;stroke-opacity:0.8;" x="199.960814" xlink:href="#mf253fcea02" y="356.759743"/>
     <use style="fill:#2ca02c;fill-opacity:0.8;stroke:#2ca02c;stroke-opacity:0.8;" x="149.816904" xlink:href="#mf253fcea02" y="359.120205"/>
     <use style="fill:#2ca02c;fill-opacity:0.8;stroke:#2ca02c;stroke-opacity:0.8;" x="330.110735" xlink:href="#mf253fcea02" y="330.237813"/>
     <use style="fill:#2ca02c;fill-opacity:0.8;stroke:#2ca02c;stroke-opacity:0.8;" x="233.741972" xlink:href="#mf253fcea02" y="356.082085"/>
     <use style="fill:#2ca02c;fill-opacity:0.8;stroke:#2ca02c;stroke-opacity:0.8;" x="214.292935" xlink:href="#mf253fcea02" y="341.578802"/>
    </g>
   </g>
   <g id="PolyCollection_3">
    <path clip-path="url(#p00c2b10fa0)" d="M 50.10625 349.954921 
L 50.10625 369.777984 
L 57.0826 368.698805 
L 64.05895 367.620614 
L 71.035301 366.557435 
L 78.011651 365.555646 
L 84.988001 364.550274 
L 91.964351 363.522011 
L 98.940702 362.446933 
L 105.917052 361.396028 
L 112.893402 360.343463 
L 119.869752 359.293366 
L 126.846103 358.368099 
L 133.822453 357.364722 
L 140.798803 356.471087 
L 147.775153 355.416326 
L 154.751504 354.473645 
L 161.727854 353.494041 
L 168.704204 352.652697 
L 175.680554 351.763974 
L 182.656905 350.84067 
L 189.633255 349.869465 
L 196.609605 348.99058 
L 203.585955 348.148956 
L 210.562306 347.312266 
L 217.538656 346.621155 
L 224.515006 345.904312 
L 231.491356 345.297244 
L 238.467707 344.639404 
L 245.444057 344.063289 
L 252.420407 343.686991 
L 259.396757 343.173194 
L 266.373108 342.821278 
L 273.349458 342.487818 
L 280.325808 342.17199 
L 287.302158 341.825775 
L 294.278509 341.388293 
L 301.254859 340.938191 
L 308.231209 340.682022 
L 315.207559 340.394883 
L 322.183909 340.013836 
L 329.16026 339.679208 
L 336.13661 339.367986 
L 343.11296 339.108403 
L 350.08931 338.868835 
L 357.065661 338.598463 
L 364.042011 338.344534 
L 371.018361 338.064211 
L 377.994711 337.720605 
L 384.971062 337.385632 
L 391.947412 337.033527 
L 398.923762 336.720894 
L 405.900112 336.46046 
L 412.876463 336.168492 
L 419.852813 335.853935 
L 426.829163 335.539378 
L 433.805513 335.224501 
L 440.781864 334.930369 
L 447.758214 334.670758 
L 454.734564 334.411148 
L 461.710914 334.12998 
L 468.687265 333.811132 
L 475.663615 333.492284 
L 482.639965 333.173436 
L 489.616315 332.854588 
L 496.592666 332.53574 
L 503.569016 332.216892 
L 510.545366 331.939806 
L 517.521716 331.667056 
L 524.498067 331.394307 
L 531.474417 331.121557 
L 538.450767 330.848808 
L 545.427117 330.576058 
L 552.403468 330.302758 
L 559.379818 330.029115 
L 566.356168 329.755473 
L 573.332518 329.48183 
L 580.308869 329.23757 
L 587.285219 329.009152 
L 594.261569 328.780734 
L 601.237919 328.552316 
L 608.214269 328.323898 
L 615.19062 328.095481 
L 622.16697 327.838423 
L 629.14332 327.546325 
L 636.11967 327.254227 
L 643.096021 326.962129 
L 650.072371 326.670031 
L 657.048721 326.377933 
L 664.025071 326.085198 
L 671.001422 325.79137 
L 677.977772 325.497542 
L 684.954122 325.203715 
L 691.930472 324.909887 
L 698.906823 324.616059 
L 705.883173 324.322232 
L 712.859523 324.028404 
L 719.835873 323.745076 
L 726.812224 323.47138 
L 733.788574 323.197683 
L 740.764924 322.923987 
L 740.764924 264.360528 
L 740.764924 264.360528 
L 733.788574 265.44279 
L 726.812224 266.525052 
L 719.835873 267.589126 
L 712.859523 268.632088 
L 705.883173 269.675051 
L 698.906823 270.718014 
L 691.930472 271.760976 
L 684.954122 272.803939 
L 677.977772 273.846901 
L 671.001422 274.889864 
L 664.025071 275.930867 
L 657.048721 276.975371 
L 650.072371 278.020018 
L 643.096021 279.073595 
L 636.11967 280.121397 
L 629.14332 281.148886 
L 622.16697 282.188533 
L 615.19062 283.230806 
L 608.214269 284.273219 
L 601.237919 285.315768 
L 594.261569 286.358318 
L 587.285219 287.400868 
L 580.308869 288.443417 
L 573.332518 289.485967 
L 566.356168 290.529049 
L 559.379818 291.572313 
L 552.403468 292.615314 
L 545.427117 293.657129 
L 538.450767 294.698943 
L 531.474417 295.741265 
L 524.498067 296.783814 
L 517.521716 297.826364 
L 510.545366 298.868914 
L 503.569016 299.911631 
L 496.592666 300.954682 
L 489.616315 301.997732 
L 482.639965 303.040783 
L 475.663615 304.094064 
L 468.687265 305.155359 
L 461.710914 306.173559 
L 454.734564 307.212661 
L 447.758214 308.256347 
L 440.781864 309.328172 
L 433.805513 310.395063 
L 426.829163 311.452853 
L 419.852813 312.510643 
L 412.876463 313.568432 
L 405.900112 314.626222 
L 398.923762 315.685025 
L 391.947412 316.74398 
L 384.971062 317.802936 
L 377.994711 318.91071 
L 371.018361 320.052101 
L 364.042011 321.125092 
L 357.065661 322.198083 
L 350.08931 323.216452 
L 343.11296 324.220277 
L 336.13661 325.26384 
L 329.16026 326.306506 
L 322.183909 327.381667 
L 315.207559 328.385292 
L 308.231209 329.35215 
L 301.254859 330.245834 
L 294.278509 331.1913 
L 287.302158 332.234643 
L 280.325808 333.111841 
L 273.349458 334.065912 
L 266.373108 335.03932 
L 259.396757 335.896551 
L 252.420407 336.825299 
L 245.444057 337.758962 
L 238.467707 338.665154 
L 231.491356 339.571273 
L 224.515006 340.324439 
L 217.538656 340.971891 
L 210.562306 341.582926 
L 203.585955 342.27666 
L 196.609605 342.845128 
L 189.633255 343.342394 
L 182.656905 343.81129 
L 175.680554 344.224922 
L 168.704204 344.591372 
L 161.727854 345.030608 
L 154.751504 345.372046 
L 147.775153 345.70538 
L 140.798803 346.018602 
L 133.822453 346.360106 
L 126.846103 346.64607 
L 119.869752 346.945285 
L 112.893402 347.267534 
L 105.917052 347.610603 
L 98.940702 347.89808 
L 91.964351 348.158117 
L 84.988001 348.474815 
L 78.011651 348.763275 
L 71.035301 349.051334 
L 64.05895 349.364489 
L 57.0826 349.681257 
L 50.10625 349.954921 
z
" style="fill:#2ca02c;fill-opacity:0.15;"/>
   </g>
   <g id="line2d_25">
    <path clip-path="url(#p00c2b10fa0)" d="M 50.10625 362.50049 
L 57.0826 359.864512 
L 64.05895 357.228535 
L 71.035301 354.592558 
L 78.011651 351.95658 
L 84.988001 349.320603 
L 91.964351 346.684625 
L 98.940702 344.048648 
L 105.917052 341.41267 
L 112.893402 338.776693 
L 119.869752 336.140715 
L 126.846103 333.504738 
L 133.822453 330.86876 
L 140.798803 328.232783 
L 147.775153 325.596806 
L 154.751504 322.960828 
L 161.727854 320.324851 
L 168.704204 317.688873 
L 175.680554 315.052896 
L 182.656905 312.416918 
L 189.633255 309.780941 
L 196.609605 307.144963 
L 203.585955 304.508986 
L 210.562306 301.873008 
L 217.538656 299.237031 
L 224.515006 296.601054 
L 231.491356 293.965076 
L 238.467707 291.329099 
L 245.444057 288.693121 
L 252.420407 286.057144 
L 259.396757 283.421166 
L 266.373108 280.785189 
L 273.349458 278.149211 
L 280.325808 275.513234 
L 287.302158 272.877257 
L 294.278509 270.241279 
L 301.254859 267.605302 
L 308.231209 264.969324 
L 315.207559 262.333347 
L 322.183909 259.697369 
L 329.16026 257.061392 
L 336.13661 254.425414 
L 343.11296 251.789437 
L 350.08931 249.153459 
L 357.065661 246.517482 
L 364.042011 243.881505 
L 371.018361 241.245527 
L 377.994711 238.60955 
L 384.971062 235.973572 
L 391.947412 233.337595 
L 398.923762 230.701617 
L 405.900112 228.06564 
L 412.876463 225.429662 
L 419.852813 222.793685 
L 426.829163 220.157707 
L 433.805513 217.52173 
L 440.781864 214.885753 
L 447.758214 212.249775 
L 454.734564 209.613798 
L 461.710914 206.97782 
L 468.687265 204.341843 
L 475.663615 201.705865 
L 482.639965 199.069888 
L 489.616315 196.43391 
L 496.592666 193.797933 
L 503.569016 191.161956 
L 510.545366 188.525978 
L 517.521716 185.890001 
L 524.498067 183.254023 
L 531.474417 180.618046 
L 538.450767 177.982068 
L 545.427117 175.346091 
L 552.403468 172.710113 
L 559.379818 170.074136 
L 566.356168 167.438158 
L 573.332518 164.802181 
L 580.308869 162.166204 
L 587.285219 159.530226 
L 594.261569 156.894249 
L 601.237919 154.258271 
L 608.214269 151.622294 
L 615.19062 148.986316 
L 622.16697 146.350339 
L 629.14332 143.714361 
L 636.11967 141.078384 
L 643.096021 138.442406 
L 650.072371 135.806429 
L 657.048721 133.170452 
L 664.025071 130.534474 
L 671.001422 127.898497 
L 677.977772 125.262519 
L 684.954122 122.626542 
L 691.930472 119.990564 
L 698.906823 117.354587 
L 705.883173 114.718609 
L 712.859523 112.082632 
L 719.835873 109.446654 
L 726.812224 106.810677 
L 733.788574 104.1747 
L 740.764924 101.538722 
" style="fill:none;stroke:#1f77b4;stroke-linecap:round;stroke-width:2.25;"/>
   </g>
   <g id="line2d_26">
    <path clip-path="url(#p00c2b10fa0)" d="M 50.10625 372.350405 
L 57.0826 369.971461 
L 64.05895 367.592517 
L 71.035301 365.213573 
L 78.011651 362.834629 
L 84.988001 360.455686 
L 91.964351 358.076742 
L 98.940702 355.697798 
L 105.917052 353.318854 
L 112.893402 350.93991 
L 119.869752 348.560966 
L 126.846103 346.182023 
L 133.822453 343.803079 
L 140.798803 341.424135 
L 147.775153 339.045191 
L 154.751504 336.666247 
L 161.727854 334.287303 
L 168.704204 331.908359 
L 175.680554 329.529416 
L 182.656905 327.150472 
L 189.633255 324.771528 
L 196.609605 322.392584 
L 203.585955 320.01364 
L 210.562306 317.634696 
L 217.538656 315.255753 
L 224.515006 312.876809 
L 231.491356 310.497865 
L 238.467707 308.118921 
L 245.444057 305.739977 
L 252.420407 303.361033 
L 259.396757 300.98209 
L 266.373108 298.603146 
L 273.349458 296.224202 
L 280.325808 293.845258 
L 287.302158 291.466314 
L 294.278509 289.08737 
L 301.254859 286.708426 
L 308.231209 284.329483 
L 315.207559 281.950539 
L 322.183909 279.571595 
L 329.16026 277.192651 
L 336.13661 274.813707 
L 343.11296 272.434763 
L 350.08931 270.05582 
L 357.065661 267.676876 
L 364.042011 265.297932 
L 371.018361 262.918988 
L 377.994711 260.540044 
L 384.971062 258.1611 
L 391.947412 255.782157 
L 398.923762 253.403213 
L 405.900112 251.024269 
L 412.876463 248.645325 
L 419.852813 246.266381 
L 426.829163 243.887437 
L 433.805513 241.508494 
L 440.781864 239.12955 
L 447.758214 236.750606 
L 454.734564 234.371662 
L 461.710914 231.992718 
L 468.687265 229.613774 
L 475.663615 227.23483 
L 482.639965 224.855887 
L 489.616315 222.476943 
L 496.592666 220.097999 
L 503.569016 217.719055 
L 510.545366 215.340111 
L 517.521716 212.961167 
L 524.498067 210.582224 
L 531.474417 208.20328 
L 538.450767 205.824336 
L 545.427117 203.445392 
L 552.403468 201.066448 
L 559.379818 198.687504 
L 566.356168 196.308561 
L 573.332518 193.929617 
L 580.308869 191.550673 
L 587.285219 189.171729 
L 594.261569 186.792785 
L 601.237919 184.413841 
L 608.214269 182.034897 
L 615.19062 179.655954 
L 622.16697 177.27701 
L 629.14332 174.898066 
L 636.11967 172.519122 
L 643.096021 170.140178 
L 650.072371 167.761234 
L 657.048721 165.382291 
L 664.025071 163.003347 
L 671.001422 160.624403 
L 677.977772 158.245459 
L 684.954122 155.866515 
L 691.930472 153.487571 
L 698.906823 151.108628 
L 705.883173 148.729684 
L 712.859523 146.35074 
L 719.835873 143.971796 
L 726.812224 141.592852 
L 733.788574 139.213908 
L 740.764924 136.834964 
" style="fill:none;stroke:#ff7f0e;stroke-linecap:round;stroke-width:2.25;"/>
   </g>
   <g id="line2d_27">
    <path clip-path="url(#p00c2b10fa0)" d="M 50.10625 360.598029 
L 57.0826 359.89789 
L 64.05895 359.197751 
L 71.035301 358.497613 
L 78.011651 357.797474 
L 84.988001 357.097335 
L 91.964351 356.397196 
L 98.940702 355.697058 
L 105.917052 354.996919 
L 112.893402 354.29678 
L 119.869752 353.596642 
L 126.846103 352.896503 
L 133.822453 352.196364 
L 140.798803 351.496225 
L 147.775153 350.796087 
L 154.751504 350.095948 
L 161.727854 349.395809 
L 168.704204 348.695671 
L 175.680554 347.995532 
L 182.656905 347.295393 
L 189.633255 346.595254 
L 196.609605 345.895116 
L 203.585955 345.194977 
L 210.562306 344.494838 
L 217.538656 343.7947 
L 224.515006 343.094561 
L 231.491356 342.394422 
L 238.467707 341.694284 
L 245.444057 340.994145 
L 252.420407 340.294006 
L 259.396757 339.593867 
L 266.373108 338.893729 
L 273.349458 338.19359 
L 280.325808 337.493451 
L 287.302158 336.793313 
L 294.278509 336.093174 
L 301.254859 335.393035 
L 308.231209 334.692896 
L 315.207559 333.992758 
L 322.183909 333.292619 
L 329.16026 332.59248 
L 336.13661 331.892342 
L 343.11296 331.192203 
L 350.08931 330.492064 
L 357.065661 329.791925 
L 364.042011 329.091787 
L 371.018361 328.391648 
L 377.994711 327.691509 
L 384.971062 326.991371 
L 391.947412 326.291232 
L 398.923762 325.591093 
L 405.900112 324.890955 
L 412.876463 324.190816 
L 419.852813 323.490677 
L 426.829163 322.790538 
L 433.805513 322.0904 
L 440.781864 321.390261 
L 447.758214 320.690122 
L 454.734564 319.989984 
L 461.710914 319.289845 
L 468.687265 318.589706 
L 475.663615 317.889567 
L 482.639965 317.189429 
L 489.616315 316.48929 
L 496.592666 315.789151 
L 503.569016 315.089013 
L 510.545366 314.388874 
L 517.521716 313.688735 
L 524.498067 312.988596 
L 531.474417 312.288458 
L 538.450767 311.588319 
L 545.427117 310.88818 
L 552.403468 310.188042 
L 559.379818 309.487903 
L 566.356168 308.787764 
L 573.332518 308.087626 
L 580.308869 307.387487 
L 587.285219 306.687348 
L 594.261569 305.987209 
L 601.237919 305.287071 
L 608.214269 304.586932 
L 615.19062 303.886793 
L 622.16697 303.186655 
L 629.14332 302.486516 
L 636.11967 301.786377 
L 643.096021 301.086238 
L 650.072371 300.3861 
L 657.048721 299.685961 
L 664.025071 298.985822 
L 671.001422 298.285684 
L 677.977772 297.585545 
L 684.954122 296.885406 
L 691.930472 296.185267 
L 698.906823 295.485129 
L 705.883173 294.78499 
L 712.859523 294.084851 
L 719.835873 293.384713 
L 726.812224 292.684574 
L 733.788574 291.984435 
L 740.764924 291.284297 
" style="fill:none;stroke:#2ca02c;stroke-linecap:round;stroke-width:2.25;"/>
   </g>
   <g id="patch_3">
    <path d="M 50.10625 389.83875 
L 50.10625 7.2 
" style="fill:none;"/>
   </g>
   <g id="patch_4">
    <path d="M 50.10625 389.83875 
L 740.764924 389.83875 
" style="fill:none;"/>
   </g>
  </g>
  <g id="legend_1">
   <g id="text_15">
    <!-- Net -->
    <defs>
     <path d="M 9.8125 72.90625 
L 23.09375 72.90625 
L 55.421875 11.921875 
L 55.421875 72.90625 
L 64.984375 72.90625 
L 64.984375 0 
L 51.703125 0 
L 19.390625 60.984375 
L 19.390625 0 
L 9.8125 0 
z
" id="DejaVuSans-4e"/>
    </defs>
    <g style="fill:#262626;" transform="translate(760.121424 192.82875)scale(0.1 -0.1)">
     <use xlink:href="#DejaVuSans-4e"/>
     <use x="74.804688" xlink:href="#DejaVuSans-65"/>
     <use x="136.328125" xlink:href="#DejaVuSans-74"/>
    </g>
   </g>
   <g id="PathCollection_4">
    <g>
     <use style="fill:#1f77b4;fill-opacity:0.8;stroke:#1f77b4;stroke-opacity:0.8;" x="759.913612" xlink:href="#m03b1d4ed1c" y="204.881875"/>
    </g>
   </g>
   <g id="text_16">
    <!-- -1 -->
    <defs>
     <path d="M 4.890625 31.390625 
L 31.203125 31.390625 
L 31.203125 23.390625 
L 4.890625 23.390625 
z
" id="DejaVuSans-2d"/>
    </defs>
    <g style="fill:#262626;" transform="translate(777.913612 207.506875)scale(0.1 -0.1)">
     <use xlink:href="#DejaVuSans-2d"/>
     <use x="36.083984" xlink:href="#DejaVuSans-31"/>
    </g>
   </g>
   <g id="PathCollection_5">
    <g>
     <use style="fill:#ff7f0e;fill-opacity:0.8;stroke:#ff7f0e;stroke-opacity:0.8;" x="759.913612" xlink:href="#m60a414246f" y="219.56"/>
    </g>
   </g>
   <g id="text_17">
    <!-- 0 -->
    <g style="fill:#262626;" transform="translate(777.913612 222.185)scale(0.1 -0.1)">
     <use xlink:href="#DejaVuSans-30"/>
    </g>
   </g>
   <g id="PathCollection_6">
    <g>
     <use style="fill:#2ca02c;fill-opacity:0.8;stroke:#2ca02c;stroke-opacity:0.8;" x="759.913612" xlink:href="#mf253fcea02" y="234.238125"/>
    </g>
   </g>
   <g id="text_18">
    <!-- 1 -->
    <g style="fill:#262626;" transform="translate(777.913612 236.863125)scale(0.1 -0.1)">
     <use xlink:href="#DejaVuSans-31"/>
    </g>
   </g>
  </g>
 </g>
 <defs>
  <clipPath id="p00c2b10fa0">
   <rect height="382.63875" width="690.658674" x="50.10625" y="7.2"/>
  </clipPath>
 </defs>
</svg>
