<?xml version="1.0" encoding="utf-8" standalone="no"?>
<!DOCTYPE svg PUBLIC "-//W3C//DTD SVG 1.1//EN"
  "http://www.w3.org/Graphics/SVG/1.1/DTD/svg11.dtd">
<!-- Created with matplotlib (http://matplotlib.org/) -->
<svg height="425pt" version="1.1" viewBox="0 0 789 425" width="789pt" xmlns="http://www.w3.org/2000/svg" xmlns:xlink="http://www.w3.org/1999/xlink">
 <defs>
  <style type="text/css">
*{stroke-linecap:butt;stroke-linejoin:round;}
  </style>
 </defs>
 <g id="figure_1">
  <g id="patch_1">
   <path d="M 0 425.608 
L 789.656377 425.608 
L 789.656377 0 
L 0 0 
z
" style="fill:#ffffff;"/>
  </g>
  <g id="axes_1">
   <g id="patch_2">
    <path d="M 45.9215 392.304 
L 741.718277 392.304 
L 741.718277 7.2 
L 45.9215 7.2 
z
" style="fill:#ffffff;"/>
   </g>
   <g id="matplotlib.axis_1">
    <g id="xtick_1">
     <g id="line2d_1"/>
     <g id="text_1">
      <!-- 0 -->
      <defs>
       <path d="M 31.78125 66.40625 
Q 24.171875 66.40625 20.328125 58.90625 
Q 16.5 51.421875 16.5 36.375 
Q 16.5 21.390625 20.328125 13.890625 
Q 24.171875 6.390625 31.78125 6.390625 
Q 39.453125 6.390625 43.28125 13.890625 
Q 47.125 21.390625 47.125 36.375 
Q 47.125 51.421875 43.28125 58.90625 
Q 39.453125 66.40625 31.78125 66.40625 
z
M 31.78125 74.21875 
Q 44.046875 74.21875 50.515625 64.515625 
Q 56.984375 54.828125 56.984375 36.375 
Q 56.984375 17.96875 50.515625 8.265625 
Q 44.046875 -1.421875 31.78125 -1.421875 
Q 19.53125 -1.421875 13.0625 8.265625 
Q 6.59375 17.96875 6.59375 36.375 
Q 6.59375 54.828125 13.0625 64.515625 
Q 19.53125 74.21875 31.78125 74.21875 
z
" id="DejaVuSans-30"/>
      </defs>
      <g style="fill:#262626;" transform="translate(102.537507 403.98275)scale(0.08 -0.08)">
       <use xlink:href="#DejaVuSans-30"/>
      </g>
     </g>
    </g>
    <g id="xtick_2">
     <g id="line2d_2"/>
     <g id="text_2">
      <!-- 200 -->
      <defs>
       <path d="M 19.1875 8.296875 
L 53.609375 8.296875 
L 53.609375 0 
L 7.328125 0 
L 7.328125 8.296875 
Q 12.9375 14.109375 22.625 23.890625 
Q 32.328125 33.6875 34.8125 36.53125 
Q 39.546875 41.84375 41.421875 45.53125 
Q 43.3125 49.21875 43.3125 52.78125 
Q 43.3125 58.59375 39.234375 62.25 
Q 35.15625 65.921875 28.609375 65.921875 
Q 23.96875 65.921875 18.8125 64.3125 
Q 13.671875 62.703125 7.8125 59.421875 
L 7.8125 69.390625 
Q 13.765625 71.78125 18.9375 73 
Q 24.125 74.21875 28.421875 74.21875 
Q 39.75 74.21875 46.484375 68.546875 
Q 53.21875 62.890625 53.21875 53.421875 
Q 53.21875 48.921875 51.53125 44.890625 
Q 49.859375 40.875 45.40625 35.40625 
Q 44.1875 33.984375 37.640625 27.21875 
Q 31.109375 20.453125 19.1875 8.296875 
z
" id="DejaVuSans-32"/>
      </defs>
      <g style="fill:#262626;" transform="translate(244.835732 403.98275)scale(0.08 -0.08)">
       <use xlink:href="#DejaVuSans-32"/>
       <use x="63.623047" xlink:href="#DejaVuSans-30"/>
       <use x="127.246094" xlink:href="#DejaVuSans-30"/>
      </g>
     </g>
    </g>
    <g id="xtick_3">
     <g id="line2d_3"/>
     <g id="text_3">
      <!-- 400 -->
      <defs>
       <path d="M 37.796875 64.3125 
L 12.890625 25.390625 
L 37.796875 25.390625 
z
M 35.203125 72.90625 
L 47.609375 72.90625 
L 47.609375 25.390625 
L 58.015625 25.390625 
L 58.015625 17.1875 
L 47.609375 17.1875 
L 47.609375 0 
L 37.796875 0 
L 37.796875 17.1875 
L 4.890625 17.1875 
L 4.890625 26.703125 
z
" id="DejaVuSans-34"/>
      </defs>
      <g style="fill:#262626;" transform="translate(392.223956 403.98275)scale(0.08 -0.08)">
       <use xlink:href="#DejaVuSans-34"/>
       <use x="63.623047" xlink:href="#DejaVuSans-30"/>
       <use x="127.246094" xlink:href="#DejaVuSans-30"/>
      </g>
     </g>
    </g>
    <g id="xtick_4">
     <g id="line2d_4"/>
     <g id="text_4">
      <!-- 600 -->
      <defs>
       <path d="M 33.015625 40.375 
Q 26.375 40.375 22.484375 35.828125 
Q 18.609375 31.296875 18.609375 23.390625 
Q 18.609375 15.53125 22.484375 10.953125 
Q 26.375 6.390625 33.015625 6.390625 
Q 39.65625 6.390625 43.53125 10.953125 
Q 47.40625 15.53125 47.40625 23.390625 
Q 47.40625 31.296875 43.53125 35.828125 
Q 39.65625 40.375 33.015625 40.375 
z
M 52.59375 71.296875 
L 52.59375 62.3125 
Q 48.875 64.0625 45.09375 64.984375 
Q 41.3125 65.921875 37.59375 65.921875 
Q 27.828125 65.921875 22.671875 59.328125 
Q 17.53125 52.734375 16.796875 39.40625 
Q 19.671875 43.65625 24.015625 45.921875 
Q 28.375 48.1875 33.59375 48.1875 
Q 44.578125 48.1875 50.953125 41.515625 
Q 57.328125 34.859375 57.328125 23.390625 
Q 57.328125 12.15625 50.6875 5.359375 
Q 44.046875 -1.421875 33.015625 -1.421875 
Q 20.359375 -1.421875 13.671875 8.265625 
Q 6.984375 17.96875 6.984375 36.375 
Q 6.984375 53.65625 15.1875 63.9375 
Q 23.390625 74.21875 37.203125 74.21875 
Q 40.921875 74.21875 44.703125 73.484375 
Q 48.484375 72.75 52.59375 71.296875 
z
" id="DejaVuSans-36"/>
      </defs>
      <g style="fill:#262626;" transform="translate(539.61218 403.98275)scale(0.08 -0.08)">
       <use xlink:href="#DejaVuSans-36"/>
       <use x="63.623047" xlink:href="#DejaVuSans-30"/>
       <use x="127.246094" xlink:href="#DejaVuSans-30"/>
      </g>
     </g>
    </g>
    <g id="xtick_5">
     <g id="line2d_5"/>
     <g id="text_5">
      <!-- 800 -->
      <defs>
       <path d="M 31.78125 34.625 
Q 24.75 34.625 20.71875 30.859375 
Q 16.703125 27.09375 16.703125 20.515625 
Q 16.703125 13.921875 20.71875 10.15625 
Q 24.75 6.390625 31.78125 6.390625 
Q 38.8125 6.390625 42.859375 10.171875 
Q 46.921875 13.96875 46.921875 20.515625 
Q 46.921875 27.09375 42.890625 30.859375 
Q 38.875 34.625 31.78125 34.625 
z
M 21.921875 38.8125 
Q 15.578125 40.375 12.03125 44.71875 
Q 8.5 49.078125 8.5 55.328125 
Q 8.5 64.0625 14.71875 69.140625 
Q 20.953125 74.21875 31.78125 74.21875 
Q 42.671875 74.21875 48.875 69.140625 
Q 55.078125 64.0625 55.078125 55.328125 
Q 55.078125 49.078125 51.53125 44.71875 
Q 48 40.375 41.703125 38.8125 
Q 48.828125 37.15625 52.796875 32.3125 
Q 56.78125 27.484375 56.78125 20.515625 
Q 56.78125 9.90625 50.3125 4.234375 
Q 43.84375 -1.421875 31.78125 -1.421875 
Q 19.734375 -1.421875 13.25 4.234375 
Q 6.78125 9.90625 6.78125 20.515625 
Q 6.78125 27.484375 10.78125 32.3125 
Q 14.796875 37.15625 21.921875 38.8125 
z
M 18.3125 54.390625 
Q 18.3125 48.734375 21.84375 45.5625 
Q 25.390625 42.390625 31.78125 42.390625 
Q 38.140625 42.390625 41.71875 45.5625 
Q 45.3125 48.734375 45.3125 54.390625 
Q 45.3125 60.0625 41.71875 63.234375 
Q 38.140625 66.40625 31.78125 66.40625 
Q 25.390625 66.40625 21.84375 63.234375 
Q 18.3125 60.0625 18.3125 54.390625 
z
" id="DejaVuSans-38"/>
      </defs>
      <g style="fill:#262626;" transform="translate(687.000405 403.98275)scale(0.08 -0.08)">
       <use xlink:href="#DejaVuSans-38"/>
       <use x="63.623047" xlink:href="#DejaVuSans-30"/>
       <use x="127.246094" xlink:href="#DejaVuSans-30"/>
      </g>
     </g>
    </g>
    <g id="text_6">
     <!-- Sum_Credit -->
     <defs>
      <path d="M 53.515625 70.515625 
L 53.515625 60.890625 
Q 47.90625 63.578125 42.921875 64.890625 
Q 37.9375 66.21875 33.296875 66.21875 
Q 25.25 66.21875 20.875 63.09375 
Q 16.5 59.96875 16.5 54.203125 
Q 16.5 49.359375 19.40625 46.890625 
Q 22.3125 44.4375 30.421875 42.921875 
L 36.375 41.703125 
Q 47.40625 39.59375 52.65625 34.296875 
Q 57.90625 29 57.90625 20.125 
Q 57.90625 9.515625 50.796875 4.046875 
Q 43.703125 -1.421875 29.984375 -1.421875 
Q 24.8125 -1.421875 18.96875 -0.25 
Q 13.140625 0.921875 6.890625 3.21875 
L 6.890625 13.375 
Q 12.890625 10.015625 18.65625 8.296875 
Q 24.421875 6.59375 29.984375 6.59375 
Q 38.421875 6.59375 43.015625 9.90625 
Q 47.609375 13.234375 47.609375 19.390625 
Q 47.609375 24.75 44.3125 27.78125 
Q 41.015625 30.8125 33.5 32.328125 
L 27.484375 33.5 
Q 16.453125 35.6875 11.515625 40.375 
Q 6.59375 45.0625 6.59375 53.421875 
Q 6.59375 63.09375 13.40625 68.65625 
Q 20.21875 74.21875 32.171875 74.21875 
Q 37.3125 74.21875 42.625 73.28125 
Q 47.953125 72.359375 53.515625 70.515625 
z
" id="DejaVuSans-53"/>
      <path d="M 8.5 21.578125 
L 8.5 54.6875 
L 17.484375 54.6875 
L 17.484375 21.921875 
Q 17.484375 14.15625 20.5 10.265625 
Q 23.53125 6.390625 29.59375 6.390625 
Q 36.859375 6.390625 41.078125 11.03125 
Q 45.3125 15.671875 45.3125 23.6875 
L 45.3125 54.6875 
L 54.296875 54.6875 
L 54.296875 0 
L 45.3125 0 
L 45.3125 8.40625 
Q 42.046875 3.421875 37.71875 1 
Q 33.40625 -1.421875 27.6875 -1.421875 
Q 18.265625 -1.421875 13.375 4.4375 
Q 8.5 10.296875 8.5 21.578125 
z
M 31.109375 56 
z
" id="DejaVuSans-75"/>
      <path d="M 52 44.1875 
Q 55.375 50.25 60.0625 53.125 
Q 64.75 56 71.09375 56 
Q 79.640625 56 84.28125 50.015625 
Q 88.921875 44.046875 88.921875 33.015625 
L 88.921875 0 
L 79.890625 0 
L 79.890625 32.71875 
Q 79.890625 40.578125 77.09375 44.375 
Q 74.3125 48.1875 68.609375 48.1875 
Q 61.625 48.1875 57.5625 43.546875 
Q 53.515625 38.921875 53.515625 30.90625 
L 53.515625 0 
L 44.484375 0 
L 44.484375 32.71875 
Q 44.484375 40.625 41.703125 44.40625 
Q 38.921875 48.1875 33.109375 48.1875 
Q 26.21875 48.1875 22.15625 43.53125 
Q 18.109375 38.875 18.109375 30.90625 
L 18.109375 0 
L 9.078125 0 
L 9.078125 54.6875 
L 18.109375 54.6875 
L 18.109375 46.1875 
Q 21.1875 51.21875 25.484375 53.609375 
Q 29.78125 56 35.6875 56 
Q 41.65625 56 45.828125 52.96875 
Q 50 49.953125 52 44.1875 
z
" id="DejaVuSans-6d"/>
      <path d="M 50.984375 -16.609375 
L 50.984375 -23.578125 
L -0.984375 -23.578125 
L -0.984375 -16.609375 
z
" id="DejaVuSans-5f"/>
      <path d="M 64.40625 67.28125 
L 64.40625 56.890625 
Q 59.421875 61.53125 53.78125 63.8125 
Q 48.140625 66.109375 41.796875 66.109375 
Q 29.296875 66.109375 22.65625 58.46875 
Q 16.015625 50.828125 16.015625 36.375 
Q 16.015625 21.96875 22.65625 14.328125 
Q 29.296875 6.6875 41.796875 6.6875 
Q 48.140625 6.6875 53.78125 8.984375 
Q 59.421875 11.28125 64.40625 15.921875 
L 64.40625 5.609375 
Q 59.234375 2.09375 53.4375 0.328125 
Q 47.65625 -1.421875 41.21875 -1.421875 
Q 24.65625 -1.421875 15.125 8.703125 
Q 5.609375 18.84375 5.609375 36.375 
Q 5.609375 53.953125 15.125 64.078125 
Q 24.65625 74.21875 41.21875 74.21875 
Q 47.75 74.21875 53.53125 72.484375 
Q 59.328125 70.75 64.40625 67.28125 
z
" id="DejaVuSans-43"/>
      <path d="M 41.109375 46.296875 
Q 39.59375 47.171875 37.8125 47.578125 
Q 36.03125 48 33.890625 48 
Q 26.265625 48 22.1875 43.046875 
Q 18.109375 38.09375 18.109375 28.8125 
L 18.109375 0 
L 9.078125 0 
L 9.078125 54.6875 
L 18.109375 54.6875 
L 18.109375 46.1875 
Q 20.953125 51.171875 25.484375 53.578125 
Q 30.03125 56 36.53125 56 
Q 37.453125 56 38.578125 55.875 
Q 39.703125 55.765625 41.0625 55.515625 
z
" id="DejaVuSans-72"/>
      <path d="M 56.203125 29.59375 
L 56.203125 25.203125 
L 14.890625 25.203125 
Q 15.484375 15.921875 20.484375 11.0625 
Q 25.484375 6.203125 34.421875 6.203125 
Q 39.59375 6.203125 44.453125 7.46875 
Q 49.3125 8.734375 54.109375 11.28125 
L 54.109375 2.78125 
Q 49.265625 0.734375 44.1875 -0.34375 
Q 39.109375 -1.421875 33.890625 -1.421875 
Q 20.796875 -1.421875 13.15625 6.1875 
Q 5.515625 13.8125 5.515625 26.8125 
Q 5.515625 40.234375 12.765625 48.109375 
Q 20.015625 56 32.328125 56 
Q 43.359375 56 49.78125 48.890625 
Q 56.203125 41.796875 56.203125 29.59375 
z
M 47.21875 32.234375 
Q 47.125 39.59375 43.09375 43.984375 
Q 39.0625 48.390625 32.421875 48.390625 
Q 24.90625 48.390625 20.390625 44.140625 
Q 15.875 39.890625 15.1875 32.171875 
z
" id="DejaVuSans-65"/>
      <path d="M 45.40625 46.390625 
L 45.40625 75.984375 
L 54.390625 75.984375 
L 54.390625 0 
L 45.40625 0 
L 45.40625 8.203125 
Q 42.578125 3.328125 38.25 0.953125 
Q 33.9375 -1.421875 27.875 -1.421875 
Q 17.96875 -1.421875 11.734375 6.484375 
Q 5.515625 14.40625 5.515625 27.296875 
Q 5.515625 40.1875 11.734375 48.09375 
Q 17.96875 56 27.875 56 
Q 33.9375 56 38.25 53.625 
Q 42.578125 51.265625 45.40625 46.390625 
z
M 14.796875 27.296875 
Q 14.796875 17.390625 18.875 11.75 
Q 22.953125 6.109375 30.078125 6.109375 
Q 37.203125 6.109375 41.296875 11.75 
Q 45.40625 17.390625 45.40625 27.296875 
Q 45.40625 37.203125 41.296875 42.84375 
Q 37.203125 48.484375 30.078125 48.484375 
Q 22.953125 48.484375 18.875 42.84375 
Q 14.796875 37.203125 14.796875 27.296875 
z
" id="DejaVuSans-64"/>
      <path d="M 9.421875 54.6875 
L 18.40625 54.6875 
L 18.40625 0 
L 9.421875 0 
z
M 9.421875 75.984375 
L 18.40625 75.984375 
L 18.40625 64.59375 
L 9.421875 64.59375 
z
" id="DejaVuSans-69"/>
      <path d="M 18.3125 70.21875 
L 18.3125 54.6875 
L 36.8125 54.6875 
L 36.8125 47.703125 
L 18.3125 47.703125 
L 18.3125 18.015625 
Q 18.3125 11.328125 20.140625 9.421875 
Q 21.96875 7.515625 27.59375 7.515625 
L 36.8125 7.515625 
L 36.8125 0 
L 27.59375 0 
Q 17.1875 0 13.234375 3.875 
Q 9.28125 7.765625 9.28125 18.015625 
L 9.28125 47.703125 
L 2.6875 47.703125 
L 2.6875 54.6875 
L 9.28125 54.6875 
L 9.28125 70.21875 
z
" id="DejaVuSans-74"/>
     </defs>
     <g style="fill:#262626;" transform="translate(368.424326 416.333125)scale(0.088 -0.088)">
      <use xlink:href="#DejaVuSans-53"/>
      <use x="63.476562" xlink:href="#DejaVuSans-75"/>
      <use x="126.855469" xlink:href="#DejaVuSans-6d"/>
      <use x="224.267578" xlink:href="#DejaVuSans-5f"/>
      <use x="274.267578" xlink:href="#DejaVuSans-43"/>
      <use x="344.091797" xlink:href="#DejaVuSans-72"/>
      <use x="385.173828" xlink:href="#DejaVuSans-65"/>
      <use x="446.697266" xlink:href="#DejaVuSans-64"/>
      <use x="510.173828" xlink:href="#DejaVuSans-69"/>
      <use x="537.957031" xlink:href="#DejaVuSans-74"/>
     </g>
    </g>
   </g>
   <g id="matplotlib.axis_2">
    <g id="ytick_1">
     <g id="line2d_6"/>
     <g id="text_7">
      <!-- 0 -->
      <g style="fill:#262626;" transform="translate(35.2315 357.282062)scale(0.08 -0.08)">
       <use xlink:href="#DejaVuSans-30"/>
      </g>
     </g>
    </g>
    <g id="ytick_2">
     <g id="line2d_7"/>
     <g id="text_8">
      <!-- 200 -->
      <g style="fill:#262626;" transform="translate(25.0515 306.069297)scale(0.08 -0.08)">
       <use xlink:href="#DejaVuSans-32"/>
       <use x="63.623047" xlink:href="#DejaVuSans-30"/>
       <use x="127.246094" xlink:href="#DejaVuSans-30"/>
      </g>
     </g>
    </g>
    <g id="ytick_3">
     <g id="line2d_8"/>
     <g id="text_9">
      <!-- 400 -->
      <g style="fill:#262626;" transform="translate(25.0515 254.856533)scale(0.08 -0.08)">
       <use xlink:href="#DejaVuSans-34"/>
       <use x="63.623047" xlink:href="#DejaVuSans-30"/>
       <use x="127.246094" xlink:href="#DejaVuSans-30"/>
      </g>
     </g>
    </g>
    <g id="ytick_4">
     <g id="line2d_9"/>
     <g id="text_10">
      <!-- 600 -->
      <g style="fill:#262626;" transform="translate(25.0515 203.643768)scale(0.08 -0.08)">
       <use xlink:href="#DejaVuSans-36"/>
       <use x="63.623047" xlink:href="#DejaVuSans-30"/>
       <use x="127.246094" xlink:href="#DejaVuSans-30"/>
      </g>
     </g>
    </g>
    <g id="ytick_5">
     <g id="line2d_10"/>
     <g id="text_11">
      <!-- 800 -->
      <g style="fill:#262626;" transform="translate(25.0515 152.431003)scale(0.08 -0.08)">
       <use xlink:href="#DejaVuSans-38"/>
       <use x="63.623047" xlink:href="#DejaVuSans-30"/>
       <use x="127.246094" xlink:href="#DejaVuSans-30"/>
      </g>
     </g>
    </g>
    <g id="ytick_6">
     <g id="line2d_11"/>
     <g id="text_12">
      <!-- 1000 -->
      <defs>
       <path d="M 12.40625 8.296875 
L 28.515625 8.296875 
L 28.515625 63.921875 
L 10.984375 60.40625 
L 10.984375 69.390625 
L 28.421875 72.90625 
L 38.28125 72.90625 
L 38.28125 8.296875 
L 54.390625 8.296875 
L 54.390625 0 
L 12.40625 0 
z
" id="DejaVuSans-31"/>
      </defs>
      <g style="fill:#262626;" transform="translate(19.9615 101.218239)scale(0.08 -0.08)">
       <use xlink:href="#DejaVuSans-31"/>
       <use x="63.623047" xlink:href="#DejaVuSans-30"/>
       <use x="127.246094" xlink:href="#DejaVuSans-30"/>
       <use x="190.869141" xlink:href="#DejaVuSans-30"/>
      </g>
     </g>
    </g>
    <g id="ytick_7">
     <g id="line2d_12"/>
     <g id="text_13">
      <!-- 1200 -->
      <g style="fill:#262626;" transform="translate(19.9615 50.005474)scale(0.08 -0.08)">
       <use xlink:href="#DejaVuSans-31"/>
       <use x="63.623047" xlink:href="#DejaVuSans-32"/>
       <use x="127.246094" xlink:href="#DejaVuSans-30"/>
       <use x="190.869141" xlink:href="#DejaVuSans-30"/>
      </g>
     </g>
    </g>
    <g id="text_14">
     <!-- Sum_Debit -->
     <defs>
      <path d="M 19.671875 64.796875 
L 19.671875 8.109375 
L 31.59375 8.109375 
Q 46.6875 8.109375 53.6875 14.9375 
Q 60.6875 21.78125 60.6875 36.53125 
Q 60.6875 51.171875 53.6875 57.984375 
Q 46.6875 64.796875 31.59375 64.796875 
z
M 9.8125 72.90625 
L 30.078125 72.90625 
Q 51.265625 72.90625 61.171875 64.09375 
Q 71.09375 55.28125 71.09375 36.53125 
Q 71.09375 17.671875 61.125 8.828125 
Q 51.171875 0 30.078125 0 
L 9.8125 0 
z
" id="DejaVuSans-44"/>
      <path d="M 48.6875 27.296875 
Q 48.6875 37.203125 44.609375 42.84375 
Q 40.53125 48.484375 33.40625 48.484375 
Q 26.265625 48.484375 22.1875 42.84375 
Q 18.109375 37.203125 18.109375 27.296875 
Q 18.109375 17.390625 22.1875 11.75 
Q 26.265625 6.109375 33.40625 6.109375 
Q 40.53125 6.109375 44.609375 11.75 
Q 48.6875 17.390625 48.6875 27.296875 
z
M 18.109375 46.390625 
Q 20.953125 51.265625 25.265625 53.625 
Q 29.59375 56 35.59375 56 
Q 45.5625 56 51.78125 48.09375 
Q 58.015625 40.1875 58.015625 27.296875 
Q 58.015625 14.40625 51.78125 6.484375 
Q 45.5625 -1.421875 35.59375 -1.421875 
Q 29.59375 -1.421875 25.265625 0.953125 
Q 20.953125 3.328125 18.109375 8.203125 
L 18.109375 0 
L 9.078125 0 
L 9.078125 75.984375 
L 18.109375 75.984375 
z
" id="DejaVuSans-62"/>
     </defs>
     <g style="fill:#262626;" transform="translate(13.886625 223.655687)rotate(-90)scale(0.088 -0.088)">
      <use xlink:href="#DejaVuSans-53"/>
      <use x="63.476562" xlink:href="#DejaVuSans-75"/>
      <use x="126.855469" xlink:href="#DejaVuSans-6d"/>
      <use x="224.267578" xlink:href="#DejaVuSans-5f"/>
      <use x="274.267578" xlink:href="#DejaVuSans-44"/>
      <use x="351.269531" xlink:href="#DejaVuSans-65"/>
      <use x="412.792969" xlink:href="#DejaVuSans-62"/>
      <use x="476.269531" xlink:href="#DejaVuSans-69"/>
      <use x="504.052734" xlink:href="#DejaVuSans-74"/>
     </g>
    </g>
   </g>
   <g id="PathCollection_1">
    <defs>
     <path d="M 0 2.8 
C 0.742569 2.8 1.454824 2.504974 1.979899 1.979899 
C 2.504974 1.454824 2.8 0.742569 2.8 0 
C 2.8 -0.742569 2.504974 -1.454824 1.979899 -1.979899 
C 1.454824 -2.504974 0.742569 -2.8 0 -2.8 
C -0.742569 -2.8 -1.454824 -2.504974 -1.979899 -1.979899 
C -2.504974 -1.454824 -2.8 -0.742569 -2.8 0 
C -2.8 0.742569 -2.504974 1.454824 -1.979899 1.979899 
C -1.454824 2.504974 -0.742569 2.8 0 2.8 
z
" id="m95286fab34"/>
    </defs>
    <g clip-path="url(#p39fe1b7f11)">
     <use style="fill:#1f77b4;fill-opacity:0.8;" x="135.308829" xlink:href="#m95286fab34" y="347.957305"/>
     <use style="fill:#1f77b4;fill-opacity:0.8;" x="95.229861" xlink:href="#m95286fab34" y="347.887191"/>
     <use style="fill:#1f77b4;fill-opacity:0.8;" x="133.40136" xlink:href="#m95286fab34" y="322.193328"/>
     <use style="fill:#1f77b4;fill-opacity:0.8;" x="115.341824" xlink:href="#m95286fab34" y="341.326383"/>
     <use style="fill:#1f77b4;fill-opacity:0.8;" x="84.233544" xlink:href="#m95286fab34" y="338.154462"/>
     <use style="fill:#1f77b4;fill-opacity:0.8;" x="148.16753" xlink:href="#m95286fab34" y="338.888941"/>
     <use style="fill:#1f77b4;fill-opacity:0.8;" x="154.590317" xlink:href="#m95286fab34" y="334.149298"/>
     <use style="fill:#1f77b4;fill-opacity:0.8;" x="95.99038" xlink:href="#m95286fab34" y="337.233379"/>
     <use style="fill:#1f77b4;fill-opacity:0.8;" x="103.674726" xlink:href="#m95286fab34" y="349.956062"/>
     <use style="fill:#1f77b4;fill-opacity:0.8;" x="191.378733" xlink:href="#m95286fab34" y="326.081832"/>
     <use style="fill:#1f77b4;fill-opacity:0.8;" x="151.240785" xlink:href="#m95286fab34" y="309.695257"/>
     <use style="fill:#1f77b4;fill-opacity:0.8;" x="187.548116" xlink:href="#m95286fab34" y="276.39923"/>
     <use style="fill:#1f77b4;fill-opacity:0.8;" x="156.662458" xlink:href="#m95286fab34" y="311.26098"/>
     <use style="fill:#1f77b4;fill-opacity:0.8;" x="127.407755" xlink:href="#m95286fab34" y="323.404788"/>
     <use style="fill:#1f77b4;fill-opacity:0.8;" x="79.529383" xlink:href="#m95286fab34" y="343.499819"/>
     <use style="fill:#1f77b4;fill-opacity:0.8;" x="112.470118" xlink:href="#m95286fab34" y="338.826747"/>
     <use style="fill:#1f77b4;fill-opacity:0.8;" x="137.031907" xlink:href="#m95286fab34" y="351.441241"/>
     <use style="fill:#1f77b4;fill-opacity:0.8;" x="137.732206" xlink:href="#m95286fab34" y="338.890746"/>
     <use style="fill:#1f77b4;fill-opacity:0.8;" x="127.324994" xlink:href="#m95286fab34" y="345.131831"/>
     <use style="fill:#1f77b4;fill-opacity:0.8;" x="129.344129" xlink:href="#m95286fab34" y="340.446166"/>
     <use style="fill:#1f77b4;fill-opacity:0.8;" x="110.936404" xlink:href="#m95286fab34" y="348.338505"/>
     <use style="fill:#1f77b4;fill-opacity:0.8;" x="82.628559" xlink:href="#m95286fab34" y="338.736199"/>
     <use style="fill:#1f77b4;fill-opacity:0.8;" x="169.308724" xlink:href="#m95286fab34" y="324.913142"/>
     <use style="fill:#1f77b4;fill-opacity:0.8;" x="309.04439" xlink:href="#m95286fab34" y="275.322655"/>
     <use style="fill:#1f77b4;fill-opacity:0.8;" x="132.814848" xlink:href="#m95286fab34" y="332.919618"/>
     <use style="fill:#1f77b4;fill-opacity:0.8;" x="121.652985" xlink:href="#m95286fab34" y="334.222989"/>
     <use style="fill:#1f77b4;fill-opacity:0.8;" x="91.450438" xlink:href="#m95286fab34" y="331.978467"/>
     <use style="fill:#1f77b4;fill-opacity:0.8;" x="100.168188" xlink:href="#m95286fab34" y="345.20951"/>
     <use style="fill:#1f77b4;fill-opacity:0.8;" x="113.008375" xlink:href="#m95286fab34" y="305.564582"/>
     <use style="fill:#1f77b4;fill-opacity:0.8;" x="88.53169" xlink:href="#m95286fab34" y="342.113147"/>
     <use style="fill:#1f77b4;fill-opacity:0.8;" x="102.091063" xlink:href="#m95286fab34" y="342.091219"/>
     <use style="fill:#1f77b4;fill-opacity:0.8;" x="131.361073" xlink:href="#m95286fab34" y="337.778592"/>
     <use style="fill:#1f77b4;fill-opacity:0.8;" x="106.571051" xlink:href="#m95286fab34" y="343.548425"/>
     <use style="fill:#1f77b4;fill-opacity:0.8;" x="79.436945" xlink:href="#m95286fab34" y="325.919253"/>
     <use style="fill:#1f77b4;fill-opacity:0.8;" x="96.14747" xlink:href="#m95286fab34" y="344.075012"/>
     <use style="fill:#1f77b4;fill-opacity:0.8;" x="164.838938" xlink:href="#m95286fab34" y="334.979908"/>
     <use style="fill:#1f77b4;fill-opacity:0.8;" x="331.987422" xlink:href="#m95286fab34" y="278.858949"/>
     <use style="fill:#1f77b4;fill-opacity:0.8;" x="122.55934" xlink:href="#m95286fab34" y="328.888342"/>
     <use style="fill:#1f77b4;fill-opacity:0.8;" x="121.012826" xlink:href="#m95286fab34" y="318.498225"/>
     <use style="fill:#1f77b4;fill-opacity:0.8;" x="123.900392" xlink:href="#m95286fab34" y="338.389507"/>
     <use style="fill:#1f77b4;fill-opacity:0.8;" x="254.637546" xlink:href="#m95286fab34" y="260.90831"/>
     <use style="fill:#1f77b4;fill-opacity:0.8;" x="264.448666" xlink:href="#m95286fab34" y="303.533002"/>
     <use style="fill:#1f77b4;fill-opacity:0.8;" x="132.739928" xlink:href="#m95286fab34" y="336.262983"/>
     <use style="fill:#1f77b4;fill-opacity:0.8;" x="109.368005" xlink:href="#m95286fab34" y="330.230903"/>
     <use style="fill:#1f77b4;fill-opacity:0.8;" x="285.753293" xlink:href="#m95286fab34" y="258.081737"/>
     <use style="fill:#1f77b4;fill-opacity:0.8;" x="80.854495" xlink:href="#m95286fab34" y="250.010327"/>
     <use style="fill:#1f77b4;fill-opacity:0.8;" x="80.306864" xlink:href="#m95286fab34" y="346.245459"/>
     <use style="fill:#1f77b4;fill-opacity:0.8;" x="79.846918" xlink:href="#m95286fab34" y="349.953741"/>
     <use style="fill:#1f77b4;fill-opacity:0.8;" x="118.57" xlink:href="#m95286fab34" y="351.400365"/>
     <use style="fill:#1f77b4;fill-opacity:0.8;" x="123.696011" xlink:href="#m95286fab34" y="317.79933"/>
     <use style="fill:#1f77b4;fill-opacity:0.8;" x="118.031194" xlink:href="#m95286fab34" y="343.794047"/>
     <use style="fill:#1f77b4;fill-opacity:0.8;" x="139.773238" xlink:href="#m95286fab34" y="342.699806"/>
     <use style="fill:#1f77b4;fill-opacity:0.8;" x="124.061816" xlink:href="#m95286fab34" y="354.691482"/>
     <use style="fill:#1f77b4;fill-opacity:0.8;" x="208.659894" xlink:href="#m95286fab34" y="290.182187"/>
     <use style="fill:#1f77b4;fill-opacity:0.8;" x="107.85844" xlink:href="#m95286fab34" y="354.746512"/>
     <use style="fill:#1f77b4;fill-opacity:0.8;" x="86.509503" xlink:href="#m95286fab34" y="347.964269"/>
     <use style="fill:#1f77b4;fill-opacity:0.8;" x="129.943442" xlink:href="#m95286fab34" y="300.789451"/>
     <use style="fill:#1f77b4;fill-opacity:0.8;" x="140.150098" xlink:href="#m95286fab34" y="276.277163"/>
     <use style="fill:#1f77b4;fill-opacity:0.8;" x="267.549288" xlink:href="#m95286fab34" y="227.287426"/>
     <use style="fill:#1f77b4;fill-opacity:0.8;" x="133.415804" xlink:href="#m95286fab34" y="344.225616"/>
     <use style="fill:#1f77b4;fill-opacity:0.8;" x="123.255206" xlink:href="#m95286fab34" y="335.059176"/>
     <use style="fill:#1f77b4;fill-opacity:0.8;" x="201.791176" xlink:href="#m95286fab34" y="320.151546"/>
     <use style="fill:#1f77b4;fill-opacity:0.8;" x="102.493682" xlink:href="#m95286fab34" y="358.292665"/>
     <use style="fill:#1f77b4;fill-opacity:0.8;" x="172.558944" xlink:href="#m95286fab34" y="305.325595"/>
     <use style="fill:#1f77b4;fill-opacity:0.8;" x="157.46043" xlink:href="#m95286fab34" y="318.491234"/>
     <use style="fill:#1f77b4;fill-opacity:0.8;" x="124.031991" xlink:href="#m95286fab34" y="337.697155"/>
     <use style="fill:#1f77b4;fill-opacity:0.8;" x="150.094735" xlink:href="#m95286fab34" y="334.27644"/>
     <use style="fill:#1f77b4;fill-opacity:0.8;" x="81.811334" xlink:href="#m95286fab34" y="355.604609"/>
     <use style="fill:#1f77b4;fill-opacity:0.8;" x="134.075113" xlink:href="#m95286fab34" y="344.92159"/>
     <use style="fill:#1f77b4;fill-opacity:0.8;" x="104.655934" xlink:href="#m95286fab34" y="352.172361"/>
     <use style="fill:#1f77b4;fill-opacity:0.8;" x="98.31038" xlink:href="#m95286fab34" y="343.70112"/>
     <use style="fill:#1f77b4;fill-opacity:0.8;" x="87.813329" xlink:href="#m95286fab34" y="342.636421"/>
     <use style="fill:#1f77b4;fill-opacity:0.8;" x="96.45745" xlink:href="#m95286fab34" y="341.226544"/>
     <use style="fill:#1f77b4;fill-opacity:0.8;" x="104.918049" xlink:href="#m95286fab34" y="359.305916"/>
     <use style="fill:#1f77b4;fill-opacity:0.8;" x="203.77347" xlink:href="#m95286fab34" y="324.321251"/>
     <use style="fill:#1f77b4;fill-opacity:0.8;" x="117.965678" xlink:href="#m95286fab34" y="346.578686"/>
     <use style="fill:#1f77b4;fill-opacity:0.8;" x="128.580233" xlink:href="#m95286fab34" y="348.648236"/>
     <use style="fill:#1f77b4;fill-opacity:0.8;" x="142.397729" xlink:href="#m95286fab34" y="348.70647"/>
     <use style="fill:#1f77b4;fill-opacity:0.8;" x="102.347962" xlink:href="#m95286fab34" y="361.312678"/>
     <use style="fill:#1f77b4;fill-opacity:0.8;" x="365.079483" xlink:href="#m95286fab34" y="264.245614"/>
     <use style="fill:#1f77b4;fill-opacity:0.8;" x="149.408928" xlink:href="#m95286fab34" y="337.40131"/>
    </g>
   </g>
   <g id="PolyCollection_1">
    <path clip-path="url(#p39fe1b7f11)" d="M 45.9215 354.77779 
L 45.9215 373.75527 
L 52.94975 370.220384 
L 59.978001 366.735219 
L 67.006251 363.148898 
L 74.034501 359.804976 
L 81.062751 356.432402 
L 88.091002 353.11948 
L 95.119252 349.875722 
L 102.147502 346.692641 
L 109.175752 343.400641 
L 116.204003 340.416213 
L 123.232253 337.536688 
L 130.260503 334.813753 
L 137.288754 332.301444 
L 144.317004 329.81446 
L 151.345254 327.481051 
L 158.373504 325.175079 
L 165.401755 322.789659 
L 172.430005 320.57182 
L 179.458255 318.229877 
L 186.486505 315.918827 
L 193.514756 313.61672 
L 200.543006 311.420925 
L 207.571256 308.998013 
L 214.599507 306.739097 
L 221.627757 304.696359 
L 228.656007 302.637156 
L 235.684257 300.441157 
L 242.712508 298.197907 
L 249.740758 295.904585 
L 256.769008 293.693384 
L 263.797258 291.473986 
L 270.825509 289.378766 
L 277.853759 287.223018 
L 284.882009 285.06661 
L 291.91026 282.910739 
L 298.93851 280.752902 
L 305.96676 278.533206 
L 312.99501 276.337918 
L 320.023261 274.13833 
L 327.051511 271.947976 
L 334.079761 269.755317 
L 341.108012 267.703082 
L 348.136262 265.62304 
L 355.164512 263.506033 
L 362.192762 261.3504 
L 369.221013 259.19475 
L 376.249263 257.0391 
L 383.277513 254.953554 
L 390.305763 252.782577 
L 397.334014 250.678262 
L 404.362264 248.540712 
L 411.390514 246.437383 
L 418.418765 244.35443 
L 425.447015 242.271477 
L 432.475265 240.187164 
L 439.503515 238.101613 
L 446.531766 235.953902 
L 453.560016 233.785157 
L 460.588266 231.616413 
L 467.616516 229.447668 
L 474.644767 227.278478 
L 481.673017 225.109101 
L 488.701267 222.939724 
L 495.729518 220.791564 
L 502.757768 218.733536 
L 509.786018 216.675509 
L 516.814268 214.617481 
L 523.842519 212.559453 
L 530.870769 210.501425 
L 537.899019 208.443398 
L 544.927269 206.384819 
L 551.95552 204.325594 
L 558.98377 202.245219 
L 566.01202 200.091035 
L 573.040271 197.934092 
L 580.068521 195.77715 
L 587.096771 193.620207 
L 594.125021 191.463264 
L 601.153272 189.306322 
L 608.181522 187.149379 
L 615.209772 184.992437 
L 622.238022 182.828096 
L 629.266273 180.656333 
L 636.294523 178.484569 
L 643.322773 176.312806 
L 650.351024 174.141043 
L 657.379274 171.987696 
L 664.407524 169.866202 
L 671.435774 167.739946 
L 678.464025 165.584292 
L 685.492275 163.428639 
L 692.520525 161.272985 
L 699.548775 159.117331 
L 706.577026 156.961678 
L 713.605276 154.806024 
L 720.633526 152.65037 
L 727.661777 150.494717 
L 734.690027 148.339063 
L 741.718277 146.21328 
L 741.718277 24.704727 
L 741.718277 24.704727 
L 734.690027 28.195363 
L 727.661777 31.685999 
L 720.633526 35.176635 
L 713.605276 38.667271 
L 706.577026 42.157906 
L 699.548775 45.659951 
L 692.520525 49.202239 
L 685.492275 52.744526 
L 678.464025 56.286814 
L 671.435774 59.829102 
L 664.407524 63.37139 
L 657.379274 66.913677 
L 650.351024 70.455965 
L 643.322773 73.998253 
L 636.294523 77.54054 
L 629.266273 81.082828 
L 622.238022 84.625116 
L 615.209772 88.167403 
L 608.181522 91.709691 
L 601.153272 95.251979 
L 594.125021 98.794267 
L 587.096771 102.336554 
L 580.068521 105.878842 
L 573.040271 109.42113 
L 566.01202 112.963417 
L 558.98377 116.505705 
L 551.95552 120.016465 
L 544.927269 123.466215 
L 537.899019 126.917295 
L 530.870769 130.36852 
L 523.842519 133.819745 
L 516.814268 137.270969 
L 509.786018 140.722194 
L 502.757768 144.173419 
L 495.729518 147.624644 
L 488.701267 151.075869 
L 481.673017 154.527094 
L 474.644767 157.978318 
L 467.616516 161.437094 
L 460.588266 164.982858 
L 453.560016 168.528623 
L 446.531766 172.074388 
L 439.503515 175.620152 
L 432.475265 179.165917 
L 425.447015 182.711682 
L 418.418765 186.257446 
L 411.390514 189.803211 
L 404.362264 193.348976 
L 397.334014 196.894741 
L 390.305763 200.441192 
L 383.277513 203.990557 
L 376.249263 207.539921 
L 369.221013 211.089285 
L 362.192762 214.63865 
L 355.164512 218.137398 
L 348.136262 221.604796 
L 341.108012 225.072195 
L 334.079761 228.539593 
L 327.051511 232.006991 
L 320.023261 235.474389 
L 312.99501 238.941787 
L 305.96676 242.536372 
L 298.93851 246.097815 
L 291.91026 249.687493 
L 284.882009 253.259963 
L 277.853759 256.751866 
L 270.825509 260.248242 
L 263.797258 263.779358 
L 256.769008 267.282113 
L 249.740758 270.784868 
L 242.712508 274.287623 
L 235.684257 277.790378 
L 228.656007 281.294499 
L 221.627757 284.795888 
L 214.599507 288.261941 
L 207.571256 291.681828 
L 200.543006 295.174676 
L 193.514756 298.667007 
L 186.486505 302.155228 
L 179.458255 305.552148 
L 172.430005 308.928771 
L 165.401755 312.296872 
L 158.373504 315.494889 
L 151.345254 318.72833 
L 144.317004 321.524882 
L 137.288754 324.359571 
L 130.260503 327.150515 
L 123.232253 329.873993 
L 116.204003 332.380432 
L 109.175752 334.774319 
L 102.147502 337.065764 
L 95.119252 339.369376 
L 88.091002 341.629697 
L 81.062751 343.820503 
L 74.034501 345.955784 
L 67.006251 348.240703 
L 59.978001 350.562717 
L 52.94975 352.685518 
L 45.9215 354.77779 
z
" style="fill:#1f77b4;fill-opacity:0.15;"/>
   </g>
   <g id="PathCollection_2">
    <defs>
     <path d="M 0 2.8 
C 0.742569 2.8 1.454824 2.504974 1.979899 1.979899 
C 2.504974 1.454824 2.8 0.742569 2.8 0 
C 2.8 -0.742569 2.504974 -1.454824 1.979899 -1.979899 
C 1.454824 -2.504974 0.742569 -2.8 0 -2.8 
C -0.742569 -2.8 -1.454824 -2.504974 -1.979899 -1.979899 
C -2.504974 -1.454824 -2.8 -0.742569 -2.8 0 
C -2.8 0.742569 -2.504974 1.454824 -1.979899 1.979899 
C -1.454824 2.504974 -0.742569 2.8 0 2.8 
z
" id="m1df665995f"/>
    </defs>
    <g clip-path="url(#p39fe1b7f11)">
     <use style="fill:#ff7f0e;fill-opacity:0.8;" x="305.016163" xlink:href="#m1df665995f" y="275.604863"/>
     <use style="fill:#ff7f0e;fill-opacity:0.8;" x="192.438259" xlink:href="#m1df665995f" y="321.665911"/>
     <use style="fill:#ff7f0e;fill-opacity:0.8;" x="137.150776" xlink:href="#m1df665995f" y="354.246665"/>
     <use style="fill:#ff7f0e;fill-opacity:0.8;" x="202.084181" xlink:href="#m1df665995f" y="321.166945"/>
     <use style="fill:#ff7f0e;fill-opacity:0.8;" x="293.831388" xlink:href="#m1df665995f" y="285.640562"/>
     <use style="fill:#ff7f0e;fill-opacity:0.8;" x="143.082508" xlink:href="#m1df665995f" y="335.61277"/>
     <use style="fill:#ff7f0e;fill-opacity:0.8;" x="131.132967" xlink:href="#m1df665995f" y="345.890439"/>
     <use style="fill:#ff7f0e;fill-opacity:0.8;" x="114.570217" xlink:href="#m1df665995f" y="347.495015"/>
     <use style="fill:#ff7f0e;fill-opacity:0.8;" x="107.365304" xlink:href="#m1df665995f" y="348.093579"/>
    </g>
   </g>
   <g id="PolyCollection_2">
    <path clip-path="url(#p39fe1b7f11)" d="M 45.9215 374.799273 
L 45.9215 374.799273 
L 52.94975 372.357177 
L 59.978001 369.915082 
L 67.006251 367.472986 
L 74.034501 365.030891 
L 81.062751 362.588795 
L 88.091002 360.146699 
L 95.119252 357.704604 
L 102.147502 355.262508 
L 109.175752 352.820413 
L 116.204003 350.378317 
L 123.232253 347.936222 
L 130.260503 345.494126 
L 137.288754 343.052031 
L 144.317004 340.609935 
L 151.345254 338.16784 
L 158.373504 335.725744 
L 165.401755 333.283648 
L 172.430005 330.841553 
L 179.458255 328.399457 
L 186.486505 325.957362 
L 193.514756 323.515266 
L 200.543006 321.073171 
L 207.571256 318.631075 
L 214.599507 316.18898 
L 221.627757 313.746884 
L 228.656007 311.304789 
L 235.684257 308.862693 
L 242.712508 306.420597 
L 249.740758 303.978502 
L 256.769008 301.536406 
L 263.797258 299.094311 
L 270.825509 296.652215 
L 277.853759 294.21012 
L 284.882009 291.768024 
L 291.91026 289.325929 
L 298.93851 286.883833 
L 305.96676 284.441737 
L 312.99501 281.999642 
L 320.023261 279.557546 
L 327.051511 277.115451 
L 334.079761 274.673355 
L 341.108012 272.23126 
L 348.136262 269.789164 
L 355.164512 267.347069 
L 362.192762 264.904973 
L 369.221013 262.462878 
L 376.249263 260.020782 
L 383.277513 257.578686 
L 390.305763 255.136591 
L 397.334014 252.694495 
L 404.362264 250.2524 
L 411.390514 247.810304 
L 418.418765 245.368209 
L 425.447015 242.926113 
L 432.475265 240.484018 
L 439.503515 238.041922 
L 446.531766 235.599827 
L 453.560016 233.157731 
L 460.588266 230.715635 
L 467.616516 228.27354 
L 474.644767 225.831444 
L 481.673017 223.389349 
L 488.701267 220.947253 
L 495.729518 218.505158 
L 502.757768 216.063062 
L 509.786018 213.620967 
L 516.814268 211.178871 
L 523.842519 208.736776 
L 530.870769 206.29468 
L 537.899019 203.852584 
L 544.927269 201.410489 
L 551.95552 198.968393 
L 558.98377 196.526298 
L 566.01202 194.084202 
L 573.040271 191.642107 
L 580.068521 189.200011 
L 587.096771 186.757916 
L 594.125021 184.31582 
L 601.153272 181.873725 
L 608.181522 179.431629 
L 615.209772 176.989533 
L 622.238022 174.547438 
L 629.266273 172.105342 
L 636.294523 169.663247 
L 643.322773 167.221151 
L 650.351024 164.779056 
L 657.379274 162.33696 
L 664.407524 159.894865 
L 671.435774 157.452769 
L 678.464025 155.010674 
L 685.492275 152.568578 
L 692.520525 150.126482 
L 699.548775 147.684387 
L 706.577026 145.242291 
L 713.605276 142.800196 
L 720.633526 140.3581 
L 727.661777 137.916005 
L 734.690027 135.473909 
L 741.718277 133.031814 
L 741.718277 133.031814 
L 741.718277 133.031814 
L 734.690027 135.473909 
L 727.661777 137.916005 
L 720.633526 140.3581 
L 713.605276 142.800196 
L 706.577026 145.242291 
L 699.548775 147.684387 
L 692.520525 150.126482 
L 685.492275 152.568578 
L 678.464025 155.010674 
L 671.435774 157.452769 
L 664.407524 159.894865 
L 657.379274 162.33696 
L 650.351024 164.779056 
L 643.322773 167.221151 
L 636.294523 169.663247 
L 629.266273 172.105342 
L 622.238022 174.547438 
L 615.209772 176.989533 
L 608.181522 179.431629 
L 601.153272 181.873725 
L 594.125021 184.31582 
L 587.096771 186.757916 
L 580.068521 189.200011 
L 573.040271 191.642107 
L 566.01202 194.084202 
L 558.98377 196.526298 
L 551.95552 198.968393 
L 544.927269 201.410489 
L 537.899019 203.852584 
L 530.870769 206.29468 
L 523.842519 208.736776 
L 516.814268 211.178871 
L 509.786018 213.620967 
L 502.757768 216.063062 
L 495.729518 218.505158 
L 488.701267 220.947253 
L 481.673017 223.389349 
L 474.644767 225.831444 
L 467.616516 228.27354 
L 460.588266 230.715635 
L 453.560016 233.157731 
L 446.531766 235.599827 
L 439.503515 238.041922 
L 432.475265 240.484018 
L 425.447015 242.926113 
L 418.418765 245.368209 
L 411.390514 247.810304 
L 404.362264 250.2524 
L 397.334014 252.694495 
L 390.305763 255.136591 
L 383.277513 257.578686 
L 376.249263 260.020782 
L 369.221013 262.462878 
L 362.192762 264.904973 
L 355.164512 267.347069 
L 348.136262 269.789164 
L 341.108012 272.23126 
L 334.079761 274.673355 
L 327.051511 277.115451 
L 320.023261 279.557546 
L 312.99501 281.999642 
L 305.96676 284.441737 
L 298.93851 286.883833 
L 291.91026 289.325929 
L 284.882009 291.768024 
L 277.853759 294.21012 
L 270.825509 296.652215 
L 263.797258 299.094311 
L 256.769008 301.536406 
L 249.740758 303.978502 
L 242.712508 306.420597 
L 235.684257 308.862693 
L 228.656007 311.304789 
L 221.627757 313.746884 
L 214.599507 316.18898 
L 207.571256 318.631075 
L 200.543006 321.073171 
L 193.514756 323.515266 
L 186.486505 325.957362 
L 179.458255 328.399457 
L 172.430005 330.841553 
L 165.401755 333.283648 
L 158.373504 335.725744 
L 151.345254 338.16784 
L 144.317004 340.609935 
L 137.288754 343.052031 
L 130.260503 345.494126 
L 123.232253 347.936222 
L 116.204003 350.378317 
L 109.175752 352.820413 
L 102.147502 355.262508 
L 95.119252 357.704604 
L 88.091002 360.146699 
L 81.062751 362.588795 
L 74.034501 365.030891 
L 67.006251 367.472986 
L 59.978001 369.915082 
L 52.94975 372.357177 
L 45.9215 374.799273 
z
" style="fill:#ff7f0e;fill-opacity:0.15;"/>
   </g>
   <g id="PathCollection_3">
    <defs>
     <path d="M 0 2.8 
C 0.742569 2.8 1.454824 2.504974 1.979899 1.979899 
C 2.504974 1.454824 2.8 0.742569 2.8 0 
C 2.8 -0.742569 2.504974 -1.454824 1.979899 -1.979899 
C 1.454824 -2.504974 0.742569 -2.8 0 -2.8 
C -0.742569 -2.8 -1.454824 -2.504974 -1.979899 -1.979899 
C -2.504974 -1.454824 -2.8 -0.742569 -2.8 0 
C -2.8 0.742569 -2.504974 1.454824 -1.979899 1.979899 
C -1.454824 2.504974 -0.742569 2.8 0 2.8 
z
" id="me967c3fc6e"/>
    </defs>
    <g clip-path="url(#p39fe1b7f11)">
     <use style="fill:#2ca02c;fill-opacity:0.8;" x="252.604766" xlink:href="#me967c3fc6e" y="336.820001"/>
     <use style="fill:#2ca02c;fill-opacity:0.8;" x="233.038174" xlink:href="#me967c3fc6e" y="323.903873"/>
     <use style="fill:#2ca02c;fill-opacity:0.8;" x="160.028046" xlink:href="#me967c3fc6e" y="352.349762"/>
     <use style="fill:#2ca02c;fill-opacity:0.8;" x="129.642421" xlink:href="#me967c3fc6e" y="355.528921"/>
     <use style="fill:#2ca02c;fill-opacity:0.8;" x="215.97299" xlink:href="#me967c3fc6e" y="345.530223"/>
     <use style="fill:#2ca02c;fill-opacity:0.8;" x="135.552032" xlink:href="#me967c3fc6e" y="347.976853"/>
     <use style="fill:#2ca02c;fill-opacity:0.8;" x="269.164922" xlink:href="#me967c3fc6e" y="342.354482"/>
     <use style="fill:#2ca02c;fill-opacity:0.8;" x="215.227131" xlink:href="#me967c3fc6e" y="356.781358"/>
     <use style="fill:#2ca02c;fill-opacity:0.8;" x="183.281789" xlink:href="#me967c3fc6e" y="344.025664"/>
     <use style="fill:#2ca02c;fill-opacity:0.8;" x="191.127986" xlink:href="#me967c3fc6e" y="352.200949"/>
     <use style="fill:#2ca02c;fill-opacity:0.8;" x="207.196795" xlink:href="#me967c3fc6e" y="335.497005"/>
     <use style="fill:#2ca02c;fill-opacity:0.8;" x="436.455576" xlink:href="#me967c3fc6e" y="344.898603"/>
     <use style="fill:#2ca02c;fill-opacity:0.8;" x="337.257212" xlink:href="#me967c3fc6e" y="290.215945"/>
     <use style="fill:#2ca02c;fill-opacity:0.8;" x="115.402618" xlink:href="#me967c3fc6e" y="342.707861"/>
     <use style="fill:#2ca02c;fill-opacity:0.8;" x="276.096252" xlink:href="#me967c3fc6e" y="339.60312"/>
     <use style="fill:#2ca02c;fill-opacity:0.8;" x="152.807159" xlink:href="#me967c3fc6e" y="344.988848"/>
     <use style="fill:#2ca02c;fill-opacity:0.8;" x="289.520931" xlink:href="#me967c3fc6e" y="360.31006"/>
     <use style="fill:#2ca02c;fill-opacity:0.8;" x="194.541329" xlink:href="#me967c3fc6e" y="336.006151"/>
     <use style="fill:#2ca02c;fill-opacity:0.8;" x="138.741244" xlink:href="#me967c3fc6e" y="357.000877"/>
     <use style="fill:#2ca02c;fill-opacity:0.8;" x="205.348787" xlink:href="#me967c3fc6e" y="344.420494"/>
     <use style="fill:#2ca02c;fill-opacity:0.8;" x="244.04609" xlink:href="#me967c3fc6e" y="332.966983"/>
     <use style="fill:#2ca02c;fill-opacity:0.8;" x="255.238447" xlink:href="#me967c3fc6e" y="345.434315"/>
     <use style="fill:#2ca02c;fill-opacity:0.8;" x="211.517278" xlink:href="#me967c3fc6e" y="343.473634"/>
     <use style="fill:#2ca02c;fill-opacity:0.8;" x="161.371383" xlink:href="#me967c3fc6e" y="344.584299"/>
     <use style="fill:#2ca02c;fill-opacity:0.8;" x="156.927919" xlink:href="#me967c3fc6e" y="348.727418"/>
     <use style="fill:#2ca02c;fill-opacity:0.8;" x="300.968683" xlink:href="#me967c3fc6e" y="355.227512"/>
     <use style="fill:#2ca02c;fill-opacity:0.8;" x="255.242329" xlink:href="#me967c3fc6e" y="309.751316"/>
     <use style="fill:#2ca02c;fill-opacity:0.8;" x="628.994873" xlink:href="#me967c3fc6e" y="355.31229"/>
     <use style="fill:#2ca02c;fill-opacity:0.8;" x="120.215697" xlink:href="#me967c3fc6e" y="345.096949"/>
     <use style="fill:#2ca02c;fill-opacity:0.8;" x="629.77659" xlink:href="#me967c3fc6e" y="286.906177"/>
     <use style="fill:#2ca02c;fill-opacity:0.8;" x="634.463308" xlink:href="#me967c3fc6e" y="248.90682"/>
     <use style="fill:#2ca02c;fill-opacity:0.8;" x="287.171761" xlink:href="#me967c3fc6e" y="351.804676"/>
     <use style="fill:#2ca02c;fill-opacity:0.8;" x="225.059343" xlink:href="#me967c3fc6e" y="359.940171"/>
     <use style="fill:#2ca02c;fill-opacity:0.8;" x="238.895466" xlink:href="#me967c3fc6e" y="342.261438"/>
     <use style="fill:#2ca02c;fill-opacity:0.8;" x="113.371779" xlink:href="#me967c3fc6e" y="343.1966"/>
     <use style="fill:#2ca02c;fill-opacity:0.8;" x="390.915039" xlink:href="#me967c3fc6e" y="329.335394"/>
     <use style="fill:#2ca02c;fill-opacity:0.8;" x="323.544542" xlink:href="#me967c3fc6e" y="350.231844"/>
     <use style="fill:#2ca02c;fill-opacity:0.8;" x="139.397128" xlink:href="#me967c3fc6e" y="353.965694"/>
     <use style="fill:#2ca02c;fill-opacity:0.8;" x="716.593533" xlink:href="#me967c3fc6e" y="246.6008"/>
     <use style="fill:#2ca02c;fill-opacity:0.8;" x="146.244241" xlink:href="#me967c3fc6e" y="352.704215"/>
     <use style="fill:#2ca02c;fill-opacity:0.8;" x="164.770658" xlink:href="#me967c3fc6e" y="353.437693"/>
     <use style="fill:#2ca02c;fill-opacity:0.8;" x="131.308292" xlink:href="#me967c3fc6e" y="355.370282"/>
     <use style="fill:#2ca02c;fill-opacity:0.8;" x="332.506952" xlink:href="#me967c3fc6e" y="350.20132"/>
     <use style="fill:#2ca02c;fill-opacity:0.8;" x="355.61931" xlink:href="#me967c3fc6e" y="351.249879"/>
     <use style="fill:#2ca02c;fill-opacity:0.8;" x="324.634272" xlink:href="#me967c3fc6e" y="325.885287"/>
     <use style="fill:#2ca02c;fill-opacity:0.8;" x="320.656769" xlink:href="#me967c3fc6e" y="330.264572"/>
     <use style="fill:#2ca02c;fill-opacity:0.8;" x="301.455164" xlink:href="#me967c3fc6e" y="357.688046"/>
     <use style="fill:#2ca02c;fill-opacity:0.8;" x="158.466565" xlink:href="#me967c3fc6e" y="348.878642"/>
     <use style="fill:#2ca02c;fill-opacity:0.8;" x="318.540477" xlink:href="#me967c3fc6e" y="304.946071"/>
     <use style="fill:#2ca02c;fill-opacity:0.8;" x="155.601106" xlink:href="#me967c3fc6e" y="351.426145"/>
     <use style="fill:#2ca02c;fill-opacity:0.8;" x="285.614446" xlink:href="#me967c3fc6e" y="346.952884"/>
     <use style="fill:#2ca02c;fill-opacity:0.8;" x="208.715739" xlink:href="#me967c3fc6e" y="351.445209"/>
     <use style="fill:#2ca02c;fill-opacity:0.8;" x="295.598265" xlink:href="#me967c3fc6e" y="341.927424"/>
     <use style="fill:#2ca02c;fill-opacity:0.8;" x="286.181725" xlink:href="#me967c3fc6e" y="338.480673"/>
     <use style="fill:#2ca02c;fill-opacity:0.8;" x="296.13076" xlink:href="#me967c3fc6e" y="342.840175"/>
     <use style="fill:#2ca02c;fill-opacity:0.8;" x="212.956921" xlink:href="#me967c3fc6e" y="350.740004"/>
     <use style="fill:#2ca02c;fill-opacity:0.8;" x="100.858261" xlink:href="#me967c3fc6e" y="347.351739"/>
     <use style="fill:#2ca02c;fill-opacity:0.8;" x="312.98391" xlink:href="#me967c3fc6e" y="327.629406"/>
     <use style="fill:#2ca02c;fill-opacity:0.8;" x="210.308009" xlink:href="#me967c3fc6e" y="347.172143"/>
     <use style="fill:#2ca02c;fill-opacity:0.8;" x="328.907825" xlink:href="#me967c3fc6e" y="316.853761"/>
     <use style="fill:#2ca02c;fill-opacity:0.8;" x="180.634108" xlink:href="#me967c3fc6e" y="348.833271"/>
     <use style="fill:#2ca02c;fill-opacity:0.8;" x="126.687626" xlink:href="#me967c3fc6e" y="357.93582"/>
     <use style="fill:#2ca02c;fill-opacity:0.8;" x="89.608614" xlink:href="#me967c3fc6e" y="351.344071"/>
    </g>
   </g>
   <g id="PolyCollection_3">
    <path clip-path="url(#p39fe1b7f11)" d="M 45.9215 351.831002 
L 45.9215 373.35512 
L 52.94975 372.103957 
L 59.978001 370.932246 
L 67.006251 369.846466 
L 74.034501 368.760686 
L 81.062751 367.655787 
L 88.091002 366.571514 
L 95.119252 365.485482 
L 102.147502 364.270775 
L 109.175752 363.178094 
L 116.204003 362.128344 
L 123.232253 360.974331 
L 130.260503 359.902756 
L 137.288754 358.81368 
L 144.317004 357.662134 
L 151.345254 356.59323 
L 158.373504 355.517414 
L 165.401755 354.58105 
L 172.430005 353.591269 
L 179.458255 352.567718 
L 186.486505 351.577668 
L 193.514756 350.497849 
L 200.543006 349.650841 
L 207.571256 348.718486 
L 214.599507 347.82791 
L 221.627757 347.059175 
L 228.656007 346.414814 
L 235.684257 345.846924 
L 242.712508 345.182705 
L 249.740758 344.816479 
L 256.769008 344.342759 
L 263.797258 343.845522 
L 270.825509 343.443485 
L 277.853759 343.040716 
L 284.882009 342.636672 
L 291.91026 342.337479 
L 298.93851 341.997789 
L 305.96676 341.666131 
L 312.99501 341.413114 
L 320.023261 341.112219 
L 327.051511 340.801241 
L 334.079761 340.545692 
L 341.108012 340.239073 
L 348.136262 339.942937 
L 355.164512 339.649457 
L 362.192762 339.368422 
L 369.221013 339.061266 
L 376.249263 338.762807 
L 383.277513 338.473132 
L 390.305763 338.178582 
L 397.334014 337.829702 
L 404.362264 337.480822 
L 411.390514 337.131942 
L 418.418765 336.783062 
L 425.447015 336.434182 
L 432.475265 336.083679 
L 439.503515 335.733047 
L 446.531766 335.382416 
L 453.560016 335.089345 
L 460.588266 334.85241 
L 467.616516 334.532553 
L 474.644767 334.171833 
L 481.673017 333.811113 
L 488.701267 333.450393 
L 495.729518 333.089673 
L 502.757768 332.728953 
L 509.786018 332.393009 
L 516.814268 332.098443 
L 523.842519 331.803877 
L 530.870769 331.509311 
L 537.899019 331.214745 
L 544.927269 330.920179 
L 551.95552 330.625613 
L 558.98377 330.331047 
L 566.01202 330.036481 
L 573.040271 329.741916 
L 580.068521 329.44735 
L 587.096771 329.152784 
L 594.125021 328.857038 
L 601.153272 328.561254 
L 608.181522 328.26547 
L 615.209772 327.969686 
L 622.238022 327.673903 
L 629.266273 327.378119 
L 636.294523 327.082335 
L 643.322773 326.786551 
L 650.351024 326.490767 
L 657.379274 326.194983 
L 664.407524 325.899199 
L 671.435774 325.603416 
L 678.464025 325.307632 
L 685.492275 325.011848 
L 692.520525 324.716064 
L 699.548775 324.42028 
L 706.577026 324.124496 
L 713.605276 323.783758 
L 720.633526 323.442311 
L 727.661777 323.100864 
L 734.690027 322.759418 
L 741.718277 322.417971 
L 741.718277 257.980776 
L 741.718277 257.980776 
L 734.690027 259.139162 
L 727.661777 260.297547 
L 720.633526 261.455933 
L 713.605276 262.614319 
L 706.577026 263.772705 
L 699.548775 264.931091 
L 692.520525 266.089476 
L 685.492275 267.247862 
L 678.464025 268.406248 
L 671.435774 269.564634 
L 664.407524 270.72302 
L 657.379274 271.881405 
L 650.351024 273.039791 
L 643.322773 274.198177 
L 636.294523 275.356563 
L 629.266273 276.514949 
L 622.238022 277.646888 
L 615.209772 278.774814 
L 608.181522 279.90274 
L 601.153272 281.030665 
L 594.125021 282.158591 
L 587.096771 283.286517 
L 580.068521 284.414442 
L 573.040271 285.542368 
L 566.01202 286.670293 
L 558.98377 287.798219 
L 551.95552 288.926145 
L 544.927269 290.054709 
L 537.899019 291.183433 
L 530.870769 292.312158 
L 523.842519 293.440883 
L 516.814268 294.569608 
L 509.786018 295.734951 
L 502.757768 296.919102 
L 495.729518 298.103253 
L 488.701267 299.287404 
L 481.673017 300.472786 
L 474.644767 301.658436 
L 467.616516 302.84482 
L 460.588266 304.01088 
L 453.560016 305.107558 
L 446.531766 306.310714 
L 439.503515 307.403505 
L 432.475265 308.564285 
L 425.447015 309.749851 
L 418.418765 310.931629 
L 411.390514 312.117457 
L 404.362264 313.239965 
L 397.334014 314.329868 
L 390.305763 315.421021 
L 383.277513 316.514546 
L 376.249263 317.677512 
L 369.221013 318.887058 
L 362.192762 320.096604 
L 355.164512 321.15703 
L 348.136262 322.21395 
L 341.108012 323.270871 
L 334.079761 324.390015 
L 327.051511 325.54282 
L 320.023261 326.697333 
L 312.99501 327.850539 
L 305.96676 328.932948 
L 298.93851 330.078788 
L 291.91026 331.070701 
L 284.882009 332.186019 
L 277.853759 333.174155 
L 270.825509 334.279072 
L 263.797258 335.401712 
L 256.769008 336.449632 
L 249.740758 337.565738 
L 242.712508 338.582554 
L 235.684257 339.568159 
L 228.656007 340.639615 
L 221.627757 341.5941 
L 214.599507 342.402975 
L 207.571256 343.126475 
L 200.543006 343.829441 
L 193.514756 344.544559 
L 186.486505 345.118603 
L 179.458255 345.64699 
L 172.430005 346.068279 
L 165.401755 346.495224 
L 158.373504 346.927748 
L 151.345254 347.281401 
L 144.317004 347.483291 
L 137.288754 347.952496 
L 130.260503 348.290011 
L 123.232253 348.578785 
L 116.204003 348.989876 
L 109.175752 349.347783 
L 102.147502 349.638668 
L 95.119252 349.898426 
L 88.091002 350.172591 
L 81.062751 350.432628 
L 74.034501 350.702674 
L 67.006251 351.001796 
L 59.978001 351.278198 
L 52.94975 351.5546 
L 45.9215 351.831002 
z
" style="fill:#2ca02c;fill-opacity:0.15;"/>
   </g>
   <g id="line2d_13">
    <path clip-path="url(#p39fe1b7f11)" d="M 45.9215 363.209784 
L 52.94975 360.554664 
L 59.978001 357.899543 
L 67.006251 355.244422 
L 74.034501 352.589302 
L 81.062751 349.934181 
L 88.091002 347.27906 
L 95.119252 344.62394 
L 102.147502 341.968819 
L 109.175752 339.313699 
L 116.204003 336.658578 
L 123.232253 334.003457 
L 130.260503 331.348337 
L 137.288754 328.693216 
L 144.317004 326.038095 
L 151.345254 323.382975 
L 158.373504 320.727854 
L 165.401755 318.072734 
L 172.430005 315.417613 
L 179.458255 312.762492 
L 186.486505 310.107372 
L 193.514756 307.452251 
L 200.543006 304.797131 
L 207.571256 302.14201 
L 214.599507 299.486889 
L 221.627757 296.831769 
L 228.656007 294.176648 
L 235.684257 291.521527 
L 242.712508 288.866407 
L 249.740758 286.211286 
L 256.769008 283.556166 
L 263.797258 280.901045 
L 270.825509 278.245924 
L 277.853759 275.590804 
L 284.882009 272.935683 
L 291.91026 270.280562 
L 298.93851 267.625442 
L 305.96676 264.970321 
L 312.99501 262.315201 
L 320.023261 259.66008 
L 327.051511 257.004959 
L 334.079761 254.349839 
L 341.108012 251.694718 
L 348.136262 249.039597 
L 355.164512 246.384477 
L 362.192762 243.729356 
L 369.221013 241.074236 
L 376.249263 238.419115 
L 383.277513 235.763994 
L 390.305763 233.108874 
L 397.334014 230.453753 
L 404.362264 227.798632 
L 411.390514 225.143512 
L 418.418765 222.488391 
L 425.447015 219.833271 
L 432.475265 217.17815 
L 439.503515 214.523029 
L 446.531766 211.867909 
L 453.560016 209.212788 
L 460.588266 206.557667 
L 467.616516 203.902547 
L 474.644767 201.247426 
L 481.673017 198.592306 
L 488.701267 195.937185 
L 495.729518 193.282064 
L 502.757768 190.626944 
L 509.786018 187.971823 
L 516.814268 185.316703 
L 523.842519 182.661582 
L 530.870769 180.006461 
L 537.899019 177.351341 
L 544.927269 174.69622 
L 551.95552 172.041099 
L 558.98377 169.385979 
L 566.01202 166.730858 
L 573.040271 164.075738 
L 580.068521 161.420617 
L 587.096771 158.765496 
L 594.125021 156.110376 
L 601.153272 153.455255 
L 608.181522 150.800134 
L 615.209772 148.145014 
L 622.238022 145.489893 
L 629.266273 142.834773 
L 636.294523 140.179652 
L 643.322773 137.524531 
L 650.351024 134.869411 
L 657.379274 132.21429 
L 664.407524 129.559169 
L 671.435774 126.904049 
L 678.464025 124.248928 
L 685.492275 121.593808 
L 692.520525 118.938687 
L 699.548775 116.283566 
L 706.577026 113.628446 
L 713.605276 110.973325 
L 720.633526 108.318204 
L 727.661777 105.663084 
L 734.690027 103.007963 
L 741.718277 100.352843 
" style="fill:none;stroke:#1f77b4;stroke-linecap:round;stroke-width:2.1;"/>
   </g>
   <g id="line2d_14">
    <path clip-path="url(#p39fe1b7f11)" d="M 45.9215 374.799273 
L 52.94975 372.357177 
L 59.978001 369.915082 
L 67.006251 367.472986 
L 74.034501 365.030891 
L 81.062751 362.588795 
L 88.091002 360.146699 
L 95.119252 357.704604 
L 102.147502 355.262508 
L 109.175752 352.820413 
L 116.204003 350.378317 
L 123.232253 347.936222 
L 130.260503 345.494126 
L 137.288754 343.052031 
L 144.317004 340.609935 
L 151.345254 338.16784 
L 158.373504 335.725744 
L 165.401755 333.283648 
L 172.430005 330.841553 
L 179.458255 328.399457 
L 186.486505 325.957362 
L 193.514756 323.515266 
L 200.543006 321.073171 
L 207.571256 318.631075 
L 214.599507 316.18898 
L 221.627757 313.746884 
L 228.656007 311.304789 
L 235.684257 308.862693 
L 242.712508 306.420597 
L 249.740758 303.978502 
L 256.769008 301.536406 
L 263.797258 299.094311 
L 270.825509 296.652215 
L 277.853759 294.21012 
L 284.882009 291.768024 
L 291.91026 289.325929 
L 298.93851 286.883833 
L 305.96676 284.441737 
L 312.99501 281.999642 
L 320.023261 279.557546 
L 327.051511 277.115451 
L 334.079761 274.673355 
L 341.108012 272.23126 
L 348.136262 269.789164 
L 355.164512 267.347069 
L 362.192762 264.904973 
L 369.221013 262.462878 
L 376.249263 260.020782 
L 383.277513 257.578686 
L 390.305763 255.136591 
L 397.334014 252.694495 
L 404.362264 250.2524 
L 411.390514 247.810304 
L 418.418765 245.368209 
L 425.447015 242.926113 
L 432.475265 240.484018 
L 439.503515 238.041922 
L 446.531766 235.599827 
L 453.560016 233.157731 
L 460.588266 230.715635 
L 467.616516 228.27354 
L 474.644767 225.831444 
L 481.673017 223.389349 
L 488.701267 220.947253 
L 495.729518 218.505158 
L 502.757768 216.063062 
L 509.786018 213.620967 
L 516.814268 211.178871 
L 523.842519 208.736776 
L 530.870769 206.29468 
L 537.899019 203.852584 
L 544.927269 201.410489 
L 551.95552 198.968393 
L 558.98377 196.526298 
L 566.01202 194.084202 
L 573.040271 191.642107 
L 580.068521 189.200011 
L 587.096771 186.757916 
L 594.125021 184.31582 
L 601.153272 181.873725 
L 608.181522 179.431629 
L 615.209772 176.989533 
L 622.238022 174.547438 
L 629.266273 172.105342 
L 636.294523 169.663247 
L 643.322773 167.221151 
L 650.351024 164.779056 
L 657.379274 162.33696 
L 664.407524 159.894865 
L 671.435774 157.452769 
L 678.464025 155.010674 
L 685.492275 152.568578 
L 692.520525 150.126482 
L 699.548775 147.684387 
L 706.577026 145.242291 
L 713.605276 142.800196 
L 720.633526 140.3581 
L 727.661777 137.916005 
L 734.690027 135.473909 
L 741.718277 133.031814 
" style="fill:none;stroke:#ff7f0e;stroke-linecap:round;stroke-width:2.1;"/>
   </g>
   <g id="line2d_15">
    <path clip-path="url(#p39fe1b7f11)" d="M 45.9215 364.576248 
L 52.94975 363.768572 
L 59.978001 362.960896 
L 67.006251 362.15322 
L 74.034501 361.345545 
L 81.062751 360.537869 
L 88.091002 359.730193 
L 95.119252 358.922517 
L 102.147502 358.114841 
L 109.175752 357.307165 
L 116.204003 356.499489 
L 123.232253 355.691813 
L 130.260503 354.884137 
L 137.288754 354.076461 
L 144.317004 353.268785 
L 151.345254 352.461109 
L 158.373504 351.653433 
L 165.401755 350.845757 
L 172.430005 350.038081 
L 179.458255 349.230405 
L 186.486505 348.422729 
L 193.514756 347.615053 
L 200.543006 346.807378 
L 207.571256 345.999702 
L 214.599507 345.192026 
L 221.627757 344.38435 
L 228.656007 343.576674 
L 235.684257 342.768998 
L 242.712508 341.961322 
L 249.740758 341.153646 
L 256.769008 340.34597 
L 263.797258 339.538294 
L 270.825509 338.730618 
L 277.853759 337.922942 
L 284.882009 337.115266 
L 291.91026 336.30759 
L 298.93851 335.499914 
L 305.96676 334.692238 
L 312.99501 333.884562 
L 320.023261 333.076886 
L 327.051511 332.26921 
L 334.079761 331.461535 
L 341.108012 330.653859 
L 348.136262 329.846183 
L 355.164512 329.038507 
L 362.192762 328.230831 
L 369.221013 327.423155 
L 376.249263 326.615479 
L 383.277513 325.807803 
L 390.305763 325.000127 
L 397.334014 324.192451 
L 404.362264 323.384775 
L 411.390514 322.577099 
L 418.418765 321.769423 
L 425.447015 320.961747 
L 432.475265 320.154071 
L 439.503515 319.346395 
L 446.531766 318.538719 
L 453.560016 317.731043 
L 460.588266 316.923368 
L 467.616516 316.115692 
L 474.644767 315.308016 
L 481.673017 314.50034 
L 488.701267 313.692664 
L 495.729518 312.884988 
L 502.757768 312.077312 
L 509.786018 311.269636 
L 516.814268 310.46196 
L 523.842519 309.654284 
L 530.870769 308.846608 
L 537.899019 308.038932 
L 544.927269 307.231256 
L 551.95552 306.42358 
L 558.98377 305.615904 
L 566.01202 304.808228 
L 573.040271 304.000552 
L 580.068521 303.192876 
L 587.096771 302.385201 
L 594.125021 301.577525 
L 601.153272 300.769849 
L 608.181522 299.962173 
L 615.209772 299.154497 
L 622.238022 298.346821 
L 629.266273 297.539145 
L 636.294523 296.731469 
L 643.322773 295.923793 
L 650.351024 295.116117 
L 657.379274 294.308441 
L 664.407524 293.500765 
L 671.435774 292.693089 
L 678.464025 291.885413 
L 685.492275 291.077737 
L 692.520525 290.270061 
L 699.548775 289.462385 
L 706.577026 288.654709 
L 713.605276 287.847034 
L 720.633526 287.039358 
L 727.661777 286.231682 
L 734.690027 285.424006 
L 741.718277 284.61633 
" style="fill:none;stroke:#2ca02c;stroke-linecap:round;stroke-width:2.1;"/>
   </g>
   <g id="patch_3">
    <path d="M 45.9215 392.304 
L 45.9215 7.2 
" style="fill:none;stroke:#262626;stroke-linecap:square;stroke-linejoin:miter;stroke-width:1.25;"/>
   </g>
   <g id="patch_4">
    <path d="M 45.9215 392.304 
L 741.718277 392.304 
" style="fill:none;stroke:#262626;stroke-linecap:square;stroke-linejoin:miter;stroke-width:1.25;"/>
   </g>
  </g>
  <g id="legend_1">
   <g id="text_15">
    <!-- Net -->
    <defs>
     <path d="M 9.8125 72.90625 
L 23.09375 72.90625 
L 55.421875 11.921875 
L 55.421875 72.90625 
L 64.984375 72.90625 
L 64.984375 0 
L 51.703125 0 
L 19.390625 60.984375 
L 19.390625 0 
L 9.8125 0 
z
" id="DejaVuSans-4e"/>
    </defs>
    <g style="fill:#262626;" transform="translate(760.702799 197.254262)scale(0.0748 -0.0748)">
     <use xlink:href="#DejaVuSans-4e"/>
     <use x="74.804688" xlink:href="#DejaVuSans-65"/>
     <use x="136.328125" xlink:href="#DejaVuSans-74"/>
    </g>
   </g>
   <g id="PathCollection_4">
    <g>
     <use style="fill:#1f77b4;fill-opacity:0.8;" x="760.080127" xlink:href="#m95286fab34" y="206.788619"/>
    </g>
   </g>
   <g id="text_16">
    <!-- -1 -->
    <defs>
     <path d="M 4.890625 31.390625 
L 31.203125 31.390625 
L 31.203125 23.390625 
L 4.890625 23.390625 
z
" id="DejaVuSans-2d"/>
    </defs>
    <g style="fill:#262626;" transform="translate(774.480127 208.888619)scale(0.08 -0.08)">
     <use xlink:href="#DejaVuSans-2d"/>
     <use x="36.083984" xlink:href="#DejaVuSans-31"/>
    </g>
   </g>
   <g id="PathCollection_5">
    <g>
     <use style="fill:#ff7f0e;fill-opacity:0.8;" x="760.080127" xlink:href="#m1df665995f" y="218.531119"/>
    </g>
   </g>
   <g id="text_17">
    <!-- 0 -->
    <g style="fill:#262626;" transform="translate(774.480127 220.631119)scale(0.08 -0.08)">
     <use xlink:href="#DejaVuSans-30"/>
    </g>
   </g>
   <g id="PathCollection_6">
    <g>
     <use style="fill:#2ca02c;fill-opacity:0.8;" x="760.080127" xlink:href="#me967c3fc6e" y="230.273619"/>
    </g>
   </g>
   <g id="text_18">
    <!-- 1 -->
    <g style="fill:#262626;" transform="translate(774.480127 232.373619)scale(0.08 -0.08)">
     <use xlink:href="#DejaVuSans-31"/>
    </g>
   </g>
  </g>
 </g>
 <defs>
  <clipPath id="p39fe1b7f11">
   <rect height="385.104" width="695.796777" x="45.9215" y="7.2"/>
  </clipPath>
 </defs>
</svg>
