<?xml version="1.0" encoding="utf-8" standalone="no"?>
<!DOCTYPE svg PUBLIC "-//W3C//DTD SVG 1.1//EN"
  "http://www.w3.org/Graphics/SVG/1.1/DTD/svg11.dtd">
<!-- Created with matplotlib (http://matplotlib.org/) -->
<svg height="424pt" version="1.1" viewBox="0 0 796 424" width="796pt" xmlns="http://www.w3.org/2000/svg" xmlns:xlink="http://www.w3.org/1999/xlink">
 <defs>
  <style type="text/css">
*{stroke-linecap:butt;stroke-linejoin:round;}
  </style>
 </defs>
 <g id="figure_1">
  <g id="patch_1">
   <path d="M -0 424.173125 
L 796.883924 424.173125 
L 796.883924 0 
L -0 0 
z
" style="fill:#ffffff;"/>
  </g>
  <g id="axes_1">
   <g id="patch_2">
    <path d="M 50.10625 389.83875 
L 740.764924 389.83875 
L 740.764924 7.2 
L 50.10625 7.2 
z
" style="fill:#eaeaf2;"/>
   </g>
   <g id="matplotlib.axis_1">
    <g id="xtick_1">
     <g id="line2d_1">
      <path clip-path="url(#p4d0beb1d08)" d="M 110.22834 389.83875 
L 110.22834 7.2 
" style="fill:none;stroke:#ffffff;stroke-linecap:round;stroke-width:0.8;"/>
     </g>
     <g id="line2d_2"/>
     <g id="text_1">
      <!-- 0 -->
      <defs>
       <path d="M 31.78125 66.40625 
Q 24.171875 66.40625 20.328125 58.90625 
Q 16.5 51.421875 16.5 36.375 
Q 16.5 21.390625 20.328125 13.890625 
Q 24.171875 6.390625 31.78125 6.390625 
Q 39.453125 6.390625 43.28125 13.890625 
Q 47.125 21.390625 47.125 36.375 
Q 47.125 51.421875 43.28125 58.90625 
Q 39.453125 66.40625 31.78125 66.40625 
z
M 31.78125 74.21875 
Q 44.046875 74.21875 50.515625 64.515625 
Q 56.984375 54.828125 56.984375 36.375 
Q 56.984375 17.96875 50.515625 8.265625 
Q 44.046875 -1.421875 31.78125 -1.421875 
Q 19.53125 -1.421875 13.0625 8.265625 
Q 6.59375 17.96875 6.59375 36.375 
Q 6.59375 54.828125 13.0625 64.515625 
Q 19.53125 74.21875 31.78125 74.21875 
z
" id="DejaVuSans-30"/>
      </defs>
      <g style="fill:#262626;" transform="translate(107.04709 400.937187)scale(0.1 -0.1)">
       <use xlink:href="#DejaVuSans-30"/>
      </g>
     </g>
    </g>
    <g id="xtick_2">
     <g id="line2d_3">
      <path clip-path="url(#p4d0beb1d08)" d="M 256.187578 389.83875 
L 256.187578 7.2 
" style="fill:none;stroke:#ffffff;stroke-linecap:round;stroke-width:0.8;"/>
     </g>
     <g id="line2d_4"/>
     <g id="text_2">
      <!-- 200 -->
      <defs>
       <path d="M 19.1875 8.296875 
L 53.609375 8.296875 
L 53.609375 0 
L 7.328125 0 
L 7.328125 8.296875 
Q 12.9375 14.109375 22.625 23.890625 
Q 32.328125 33.6875 34.8125 36.53125 
Q 39.546875 41.84375 41.421875 45.53125 
Q 43.3125 49.21875 43.3125 52.78125 
Q 43.3125 58.59375 39.234375 62.25 
Q 35.15625 65.921875 28.609375 65.921875 
Q 23.96875 65.921875 18.8125 64.3125 
Q 13.671875 62.703125 7.8125 59.421875 
L 7.8125 69.390625 
Q 13.765625 71.78125 18.9375 73 
Q 24.125 74.21875 28.421875 74.21875 
Q 39.75 74.21875 46.484375 68.546875 
Q 53.21875 62.890625 53.21875 53.421875 
Q 53.21875 48.921875 51.53125 44.890625 
Q 49.859375 40.875 45.40625 35.40625 
Q 44.1875 33.984375 37.640625 27.21875 
Q 31.109375 20.453125 19.1875 8.296875 
z
" id="DejaVuSans-32"/>
      </defs>
      <g style="fill:#262626;" transform="translate(246.643828 400.937187)scale(0.1 -0.1)">
       <use xlink:href="#DejaVuSans-32"/>
       <use x="63.623047" xlink:href="#DejaVuSans-30"/>
       <use x="127.246094" xlink:href="#DejaVuSans-30"/>
      </g>
     </g>
    </g>
    <g id="xtick_3">
     <g id="line2d_5">
      <path clip-path="url(#p4d0beb1d08)" d="M 402.146816 389.83875 
L 402.146816 7.2 
" style="fill:none;stroke:#ffffff;stroke-linecap:round;stroke-width:0.8;"/>
     </g>
     <g id="line2d_6"/>
     <g id="text_3">
      <!-- 400 -->
      <defs>
       <path d="M 37.796875 64.3125 
L 12.890625 25.390625 
L 37.796875 25.390625 
z
M 35.203125 72.90625 
L 47.609375 72.90625 
L 47.609375 25.390625 
L 58.015625 25.390625 
L 58.015625 17.1875 
L 47.609375 17.1875 
L 47.609375 0 
L 37.796875 0 
L 37.796875 17.1875 
L 4.890625 17.1875 
L 4.890625 26.703125 
z
" id="DejaVuSans-34"/>
      </defs>
      <g style="fill:#262626;" transform="translate(392.603066 400.937187)scale(0.1 -0.1)">
       <use xlink:href="#DejaVuSans-34"/>
       <use x="63.623047" xlink:href="#DejaVuSans-30"/>
       <use x="127.246094" xlink:href="#DejaVuSans-30"/>
      </g>
     </g>
    </g>
    <g id="xtick_4">
     <g id="line2d_7">
      <path clip-path="url(#p4d0beb1d08)" d="M 548.106054 389.83875 
L 548.106054 7.2 
" style="fill:none;stroke:#ffffff;stroke-linecap:round;stroke-width:0.8;"/>
     </g>
     <g id="line2d_8"/>
     <g id="text_4">
      <!-- 600 -->
      <defs>
       <path d="M 33.015625 40.375 
Q 26.375 40.375 22.484375 35.828125 
Q 18.609375 31.296875 18.609375 23.390625 
Q 18.609375 15.53125 22.484375 10.953125 
Q 26.375 6.390625 33.015625 6.390625 
Q 39.65625 6.390625 43.53125 10.953125 
Q 47.40625 15.53125 47.40625 23.390625 
Q 47.40625 31.296875 43.53125 35.828125 
Q 39.65625 40.375 33.015625 40.375 
z
M 52.59375 71.296875 
L 52.59375 62.3125 
Q 48.875 64.0625 45.09375 64.984375 
Q 41.3125 65.921875 37.59375 65.921875 
Q 27.828125 65.921875 22.671875 59.328125 
Q 17.53125 52.734375 16.796875 39.40625 
Q 19.671875 43.65625 24.015625 45.921875 
Q 28.375 48.1875 33.59375 48.1875 
Q 44.578125 48.1875 50.953125 41.515625 
Q 57.328125 34.859375 57.328125 23.390625 
Q 57.328125 12.15625 50.6875 5.359375 
Q 44.046875 -1.421875 33.015625 -1.421875 
Q 20.359375 -1.421875 13.671875 8.265625 
Q 6.984375 17.96875 6.984375 36.375 
Q 6.984375 53.65625 15.1875 63.9375 
Q 23.390625 74.21875 37.203125 74.21875 
Q 40.921875 74.21875 44.703125 73.484375 
Q 48.484375 72.75 52.59375 71.296875 
z
" id="DejaVuSans-36"/>
      </defs>
      <g style="fill:#262626;" transform="translate(538.562304 400.937187)scale(0.1 -0.1)">
       <use xlink:href="#DejaVuSans-36"/>
       <use x="63.623047" xlink:href="#DejaVuSans-30"/>
       <use x="127.246094" xlink:href="#DejaVuSans-30"/>
      </g>
     </g>
    </g>
    <g id="xtick_5">
     <g id="line2d_9">
      <path clip-path="url(#p4d0beb1d08)" d="M 694.065292 389.83875 
L 694.065292 7.2 
" style="fill:none;stroke:#ffffff;stroke-linecap:round;stroke-width:0.8;"/>
     </g>
     <g id="line2d_10"/>
     <g id="text_5">
      <!-- 800 -->
      <defs>
       <path d="M 31.78125 34.625 
Q 24.75 34.625 20.71875 30.859375 
Q 16.703125 27.09375 16.703125 20.515625 
Q 16.703125 13.921875 20.71875 10.15625 
Q 24.75 6.390625 31.78125 6.390625 
Q 38.8125 6.390625 42.859375 10.171875 
Q 46.921875 13.96875 46.921875 20.515625 
Q 46.921875 27.09375 42.890625 30.859375 
Q 38.875 34.625 31.78125 34.625 
z
M 21.921875 38.8125 
Q 15.578125 40.375 12.03125 44.71875 
Q 8.5 49.078125 8.5 55.328125 
Q 8.5 64.0625 14.71875 69.140625 
Q 20.953125 74.21875 31.78125 74.21875 
Q 42.671875 74.21875 48.875 69.140625 
Q 55.078125 64.0625 55.078125 55.328125 
Q 55.078125 49.078125 51.53125 44.71875 
Q 48 40.375 41.703125 38.8125 
Q 48.828125 37.15625 52.796875 32.3125 
Q 56.78125 27.484375 56.78125 20.515625 
Q 56.78125 9.90625 50.3125 4.234375 
Q 43.84375 -1.421875 31.78125 -1.421875 
Q 19.734375 -1.421875 13.25 4.234375 
Q 6.78125 9.90625 6.78125 20.515625 
Q 6.78125 27.484375 10.78125 32.3125 
Q 14.796875 37.15625 21.921875 38.8125 
z
M 18.3125 54.390625 
Q 18.3125 48.734375 21.84375 45.5625 
Q 25.390625 42.390625 31.78125 42.390625 
Q 38.140625 42.390625 41.71875 45.5625 
Q 45.3125 48.734375 45.3125 54.390625 
Q 45.3125 60.0625 41.71875 63.234375 
Q 38.140625 66.40625 31.78125 66.40625 
Q 25.390625 66.40625 21.84375 63.234375 
Q 18.3125 60.0625 18.3125 54.390625 
z
" id="DejaVuSans-38"/>
      </defs>
      <g style="fill:#262626;" transform="translate(684.521542 400.937187)scale(0.1 -0.1)">
       <use xlink:href="#DejaVuSans-38"/>
       <use x="63.623047" xlink:href="#DejaVuSans-30"/>
       <use x="127.246094" xlink:href="#DejaVuSans-30"/>
      </g>
     </g>
    </g>
    <g id="text_6">
     <!-- Sum_Credit -->
     <defs>
      <path d="M 53.515625 70.515625 
L 53.515625 60.890625 
Q 47.90625 63.578125 42.921875 64.890625 
Q 37.9375 66.21875 33.296875 66.21875 
Q 25.25 66.21875 20.875 63.09375 
Q 16.5 59.96875 16.5 54.203125 
Q 16.5 49.359375 19.40625 46.890625 
Q 22.3125 44.4375 30.421875 42.921875 
L 36.375 41.703125 
Q 47.40625 39.59375 52.65625 34.296875 
Q 57.90625 29 57.90625 20.125 
Q 57.90625 9.515625 50.796875 4.046875 
Q 43.703125 -1.421875 29.984375 -1.421875 
Q 24.8125 -1.421875 18.96875 -0.25 
Q 13.140625 0.921875 6.890625 3.21875 
L 6.890625 13.375 
Q 12.890625 10.015625 18.65625 8.296875 
Q 24.421875 6.59375 29.984375 6.59375 
Q 38.421875 6.59375 43.015625 9.90625 
Q 47.609375 13.234375 47.609375 19.390625 
Q 47.609375 24.75 44.3125 27.78125 
Q 41.015625 30.8125 33.5 32.328125 
L 27.484375 33.5 
Q 16.453125 35.6875 11.515625 40.375 
Q 6.59375 45.0625 6.59375 53.421875 
Q 6.59375 63.09375 13.40625 68.65625 
Q 20.21875 74.21875 32.171875 74.21875 
Q 37.3125 74.21875 42.625 73.28125 
Q 47.953125 72.359375 53.515625 70.515625 
z
" id="DejaVuSans-53"/>
      <path d="M 8.5 21.578125 
L 8.5 54.6875 
L 17.484375 54.6875 
L 17.484375 21.921875 
Q 17.484375 14.15625 20.5 10.265625 
Q 23.53125 6.390625 29.59375 6.390625 
Q 36.859375 6.390625 41.078125 11.03125 
Q 45.3125 15.671875 45.3125 23.6875 
L 45.3125 54.6875 
L 54.296875 54.6875 
L 54.296875 0 
L 45.3125 0 
L 45.3125 8.40625 
Q 42.046875 3.421875 37.71875 1 
Q 33.40625 -1.421875 27.6875 -1.421875 
Q 18.265625 -1.421875 13.375 4.4375 
Q 8.5 10.296875 8.5 21.578125 
z
M 31.109375 56 
z
" id="DejaVuSans-75"/>
      <path d="M 52 44.1875 
Q 55.375 50.25 60.0625 53.125 
Q 64.75 56 71.09375 56 
Q 79.640625 56 84.28125 50.015625 
Q 88.921875 44.046875 88.921875 33.015625 
L 88.921875 0 
L 79.890625 0 
L 79.890625 32.71875 
Q 79.890625 40.578125 77.09375 44.375 
Q 74.3125 48.1875 68.609375 48.1875 
Q 61.625 48.1875 57.5625 43.546875 
Q 53.515625 38.921875 53.515625 30.90625 
L 53.515625 0 
L 44.484375 0 
L 44.484375 32.71875 
Q 44.484375 40.625 41.703125 44.40625 
Q 38.921875 48.1875 33.109375 48.1875 
Q 26.21875 48.1875 22.15625 43.53125 
Q 18.109375 38.875 18.109375 30.90625 
L 18.109375 0 
L 9.078125 0 
L 9.078125 54.6875 
L 18.109375 54.6875 
L 18.109375 46.1875 
Q 21.1875 51.21875 25.484375 53.609375 
Q 29.78125 56 35.6875 56 
Q 41.65625 56 45.828125 52.96875 
Q 50 49.953125 52 44.1875 
z
" id="DejaVuSans-6d"/>
      <path d="M 50.984375 -16.609375 
L 50.984375 -23.578125 
L -0.984375 -23.578125 
L -0.984375 -16.609375 
z
" id="DejaVuSans-5f"/>
      <path d="M 64.40625 67.28125 
L 64.40625 56.890625 
Q 59.421875 61.53125 53.78125 63.8125 
Q 48.140625 66.109375 41.796875 66.109375 
Q 29.296875 66.109375 22.65625 58.46875 
Q 16.015625 50.828125 16.015625 36.375 
Q 16.015625 21.96875 22.65625 14.328125 
Q 29.296875 6.6875 41.796875 6.6875 
Q 48.140625 6.6875 53.78125 8.984375 
Q 59.421875 11.28125 64.40625 15.921875 
L 64.40625 5.609375 
Q 59.234375 2.09375 53.4375 0.328125 
Q 47.65625 -1.421875 41.21875 -1.421875 
Q 24.65625 -1.421875 15.125 8.703125 
Q 5.609375 18.84375 5.609375 36.375 
Q 5.609375 53.953125 15.125 64.078125 
Q 24.65625 74.21875 41.21875 74.21875 
Q 47.75 74.21875 53.53125 72.484375 
Q 59.328125 70.75 64.40625 67.28125 
z
" id="DejaVuSans-43"/>
      <path d="M 41.109375 46.296875 
Q 39.59375 47.171875 37.8125 47.578125 
Q 36.03125 48 33.890625 48 
Q 26.265625 48 22.1875 43.046875 
Q 18.109375 38.09375 18.109375 28.8125 
L 18.109375 0 
L 9.078125 0 
L 9.078125 54.6875 
L 18.109375 54.6875 
L 18.109375 46.1875 
Q 20.953125 51.171875 25.484375 53.578125 
Q 30.03125 56 36.53125 56 
Q 37.453125 56 38.578125 55.875 
Q 39.703125 55.765625 41.0625 55.515625 
z
" id="DejaVuSans-72"/>
      <path d="M 56.203125 29.59375 
L 56.203125 25.203125 
L 14.890625 25.203125 
Q 15.484375 15.921875 20.484375 11.0625 
Q 25.484375 6.203125 34.421875 6.203125 
Q 39.59375 6.203125 44.453125 7.46875 
Q 49.3125 8.734375 54.109375 11.28125 
L 54.109375 2.78125 
Q 49.265625 0.734375 44.1875 -0.34375 
Q 39.109375 -1.421875 33.890625 -1.421875 
Q 20.796875 -1.421875 13.15625 6.1875 
Q 5.515625 13.8125 5.515625 26.8125 
Q 5.515625 40.234375 12.765625 48.109375 
Q 20.015625 56 32.328125 56 
Q 43.359375 56 49.78125 48.890625 
Q 56.203125 41.796875 56.203125 29.59375 
z
M 47.21875 32.234375 
Q 47.125 39.59375 43.09375 43.984375 
Q 39.0625 48.390625 32.421875 48.390625 
Q 24.90625 48.390625 20.390625 44.140625 
Q 15.875 39.890625 15.1875 32.171875 
z
" id="DejaVuSans-65"/>
      <path d="M 45.40625 46.390625 
L 45.40625 75.984375 
L 54.390625 75.984375 
L 54.390625 0 
L 45.40625 0 
L 45.40625 8.203125 
Q 42.578125 3.328125 38.25 0.953125 
Q 33.9375 -1.421875 27.875 -1.421875 
Q 17.96875 -1.421875 11.734375 6.484375 
Q 5.515625 14.40625 5.515625 27.296875 
Q 5.515625 40.1875 11.734375 48.09375 
Q 17.96875 56 27.875 56 
Q 33.9375 56 38.25 53.625 
Q 42.578125 51.265625 45.40625 46.390625 
z
M 14.796875 27.296875 
Q 14.796875 17.390625 18.875 11.75 
Q 22.953125 6.109375 30.078125 6.109375 
Q 37.203125 6.109375 41.296875 11.75 
Q 45.40625 17.390625 45.40625 27.296875 
Q 45.40625 37.203125 41.296875 42.84375 
Q 37.203125 48.484375 30.078125 48.484375 
Q 22.953125 48.484375 18.875 42.84375 
Q 14.796875 37.203125 14.796875 27.296875 
z
" id="DejaVuSans-64"/>
      <path d="M 9.421875 54.6875 
L 18.40625 54.6875 
L 18.40625 0 
L 9.421875 0 
z
M 9.421875 75.984375 
L 18.40625 75.984375 
L 18.40625 64.59375 
L 9.421875 64.59375 
z
" id="DejaVuSans-69"/>
      <path d="M 18.3125 70.21875 
L 18.3125 54.6875 
L 36.8125 54.6875 
L 36.8125 47.703125 
L 18.3125 47.703125 
L 18.3125 18.015625 
Q 18.3125 11.328125 20.140625 9.421875 
Q 21.96875 7.515625 27.59375 7.515625 
L 36.8125 7.515625 
L 36.8125 0 
L 27.59375 0 
Q 17.1875 0 13.234375 3.875 
Q 9.28125 7.765625 9.28125 18.015625 
L 9.28125 47.703125 
L 2.6875 47.703125 
L 2.6875 54.6875 
L 9.28125 54.6875 
L 9.28125 70.21875 
z
" id="DejaVuSans-74"/>
     </defs>
     <g style="fill:#262626;" transform="translate(366.576993 414.615312)scale(0.1 -0.1)">
      <use xlink:href="#DejaVuSans-53"/>
      <use x="63.476562" xlink:href="#DejaVuSans-75"/>
      <use x="126.855469" xlink:href="#DejaVuSans-6d"/>
      <use x="224.267578" xlink:href="#DejaVuSans-5f"/>
      <use x="274.267578" xlink:href="#DejaVuSans-43"/>
      <use x="344.091797" xlink:href="#DejaVuSans-72"/>
      <use x="385.173828" xlink:href="#DejaVuSans-65"/>
      <use x="446.697266" xlink:href="#DejaVuSans-64"/>
      <use x="510.173828" xlink:href="#DejaVuSans-69"/>
      <use x="537.957031" xlink:href="#DejaVuSans-74"/>
     </g>
    </g>
   </g>
   <g id="matplotlib.axis_2">
    <g id="ytick_1">
     <g id="line2d_11">
      <path clip-path="url(#p4d0beb1d08)" d="M 50.10625 351.777941 
L 740.764924 351.777941 
" style="fill:none;stroke:#ffffff;stroke-linecap:round;stroke-width:0.8;"/>
     </g>
     <g id="line2d_12"/>
     <g id="text_7">
      <!-- 0 -->
      <g style="fill:#262626;" transform="translate(40.24375 355.57716)scale(0.1 -0.1)">
       <use xlink:href="#DejaVuSans-30"/>
      </g>
     </g>
    </g>
    <g id="ytick_2">
     <g id="line2d_13">
      <path clip-path="url(#p4d0beb1d08)" d="M 50.10625 301.601612 
L 740.764924 301.601612 
" style="fill:none;stroke:#ffffff;stroke-linecap:round;stroke-width:0.8;"/>
     </g>
     <g id="line2d_14"/>
     <g id="text_8">
      <!-- 200 -->
      <g style="fill:#262626;" transform="translate(27.51875 305.400831)scale(0.1 -0.1)">
       <use xlink:href="#DejaVuSans-32"/>
       <use x="63.623047" xlink:href="#DejaVuSans-30"/>
       <use x="127.246094" xlink:href="#DejaVuSans-30"/>
      </g>
     </g>
    </g>
    <g id="ytick_3">
     <g id="line2d_15">
      <path clip-path="url(#p4d0beb1d08)" d="M 50.10625 251.425283 
L 740.764924 251.425283 
" style="fill:none;stroke:#ffffff;stroke-linecap:round;stroke-width:0.8;"/>
     </g>
     <g id="line2d_16"/>
     <g id="text_9">
      <!-- 400 -->
      <g style="fill:#262626;" transform="translate(27.51875 255.224502)scale(0.1 -0.1)">
       <use xlink:href="#DejaVuSans-34"/>
       <use x="63.623047" xlink:href="#DejaVuSans-30"/>
       <use x="127.246094" xlink:href="#DejaVuSans-30"/>
      </g>
     </g>
    </g>
    <g id="ytick_4">
     <g id="line2d_17">
      <path clip-path="url(#p4d0beb1d08)" d="M 50.10625 201.248954 
L 740.764924 201.248954 
" style="fill:none;stroke:#ffffff;stroke-linecap:round;stroke-width:0.8;"/>
     </g>
     <g id="line2d_18"/>
     <g id="text_10">
      <!-- 600 -->
      <g style="fill:#262626;" transform="translate(27.51875 205.048173)scale(0.1 -0.1)">
       <use xlink:href="#DejaVuSans-36"/>
       <use x="63.623047" xlink:href="#DejaVuSans-30"/>
       <use x="127.246094" xlink:href="#DejaVuSans-30"/>
      </g>
     </g>
    </g>
    <g id="ytick_5">
     <g id="line2d_19">
      <path clip-path="url(#p4d0beb1d08)" d="M 50.10625 151.072625 
L 740.764924 151.072625 
" style="fill:none;stroke:#ffffff;stroke-linecap:round;stroke-width:0.8;"/>
     </g>
     <g id="line2d_20"/>
     <g id="text_11">
      <!-- 800 -->
      <g style="fill:#262626;" transform="translate(27.51875 154.871844)scale(0.1 -0.1)">
       <use xlink:href="#DejaVuSans-38"/>
       <use x="63.623047" xlink:href="#DejaVuSans-30"/>
       <use x="127.246094" xlink:href="#DejaVuSans-30"/>
      </g>
     </g>
    </g>
    <g id="ytick_6">
     <g id="line2d_21">
      <path clip-path="url(#p4d0beb1d08)" d="M 50.10625 100.896296 
L 740.764924 100.896296 
" style="fill:none;stroke:#ffffff;stroke-linecap:round;stroke-width:0.8;"/>
     </g>
     <g id="line2d_22"/>
     <g id="text_12">
      <!-- 1000 -->
      <defs>
       <path d="M 12.40625 8.296875 
L 28.515625 8.296875 
L 28.515625 63.921875 
L 10.984375 60.40625 
L 10.984375 69.390625 
L 28.421875 72.90625 
L 38.28125 72.90625 
L 38.28125 8.296875 
L 54.390625 8.296875 
L 54.390625 0 
L 12.40625 0 
z
" id="DejaVuSans-31"/>
      </defs>
      <g style="fill:#262626;" transform="translate(21.15625 104.695515)scale(0.1 -0.1)">
       <use xlink:href="#DejaVuSans-31"/>
       <use x="63.623047" xlink:href="#DejaVuSans-30"/>
       <use x="127.246094" xlink:href="#DejaVuSans-30"/>
       <use x="190.869141" xlink:href="#DejaVuSans-30"/>
      </g>
     </g>
    </g>
    <g id="ytick_7">
     <g id="line2d_23">
      <path clip-path="url(#p4d0beb1d08)" d="M 50.10625 50.719967 
L 740.764924 50.719967 
" style="fill:none;stroke:#ffffff;stroke-linecap:round;stroke-width:0.8;"/>
     </g>
     <g id="line2d_24"/>
     <g id="text_13">
      <!-- 1200 -->
      <g style="fill:#262626;" transform="translate(21.15625 54.519186)scale(0.1 -0.1)">
       <use xlink:href="#DejaVuSans-31"/>
       <use x="63.623047" xlink:href="#DejaVuSans-32"/>
       <use x="127.246094" xlink:href="#DejaVuSans-30"/>
       <use x="190.869141" xlink:href="#DejaVuSans-30"/>
      </g>
     </g>
    </g>
    <g id="text_14">
     <!-- Sum_Debit -->
     <defs>
      <path d="M 19.671875 64.796875 
L 19.671875 8.109375 
L 31.59375 8.109375 
Q 46.6875 8.109375 53.6875 14.9375 
Q 60.6875 21.78125 60.6875 36.53125 
Q 60.6875 51.171875 53.6875 57.984375 
Q 46.6875 64.796875 31.59375 64.796875 
z
M 9.8125 72.90625 
L 30.078125 72.90625 
Q 51.265625 72.90625 61.171875 64.09375 
Q 71.09375 55.28125 71.09375 36.53125 
Q 71.09375 17.671875 61.125 8.828125 
Q 51.171875 0 30.078125 0 
L 9.8125 0 
z
" id="DejaVuSans-44"/>
      <path d="M 48.6875 27.296875 
Q 48.6875 37.203125 44.609375 42.84375 
Q 40.53125 48.484375 33.40625 48.484375 
Q 26.265625 48.484375 22.1875 42.84375 
Q 18.109375 37.203125 18.109375 27.296875 
Q 18.109375 17.390625 22.1875 11.75 
Q 26.265625 6.109375 33.40625 6.109375 
Q 40.53125 6.109375 44.609375 11.75 
Q 48.6875 17.390625 48.6875 27.296875 
z
M 18.109375 46.390625 
Q 20.953125 51.265625 25.265625 53.625 
Q 29.59375 56 35.59375 56 
Q 45.5625 56 51.78125 48.09375 
Q 58.015625 40.1875 58.015625 27.296875 
Q 58.015625 14.40625 51.78125 6.484375 
Q 45.5625 -1.421875 35.59375 -1.421875 
Q 29.59375 -1.421875 25.265625 0.953125 
Q 20.953125 3.328125 18.109375 8.203125 
L 18.109375 0 
L 9.078125 0 
L 9.078125 75.984375 
L 18.109375 75.984375 
z
" id="DejaVuSans-62"/>
     </defs>
     <g style="fill:#262626;" transform="translate(14.798437 225.682656)rotate(-90)scale(0.1 -0.1)">
      <use xlink:href="#DejaVuSans-53"/>
      <use x="63.476562" xlink:href="#DejaVuSans-75"/>
      <use x="126.855469" xlink:href="#DejaVuSans-6d"/>
      <use x="224.267578" xlink:href="#DejaVuSans-5f"/>
      <use x="274.267578" xlink:href="#DejaVuSans-44"/>
      <use x="351.269531" xlink:href="#DejaVuSans-65"/>
      <use x="412.792969" xlink:href="#DejaVuSans-62"/>
      <use x="476.269531" xlink:href="#DejaVuSans-69"/>
      <use x="504.052734" xlink:href="#DejaVuSans-74"/>
     </g>
    </g>
   </g>
   <g id="PathCollection_1">
    <defs>
     <path d="M 0 3 
C 0.795609 3 1.55874 2.683901 2.12132 2.12132 
C 2.683901 1.55874 3 0.795609 3 0 
C 3 -0.795609 2.683901 -1.55874 2.12132 -2.12132 
C 1.55874 -2.683901 0.795609 -3 0 -3 
C -0.795609 -3 -1.55874 -2.683901 -2.12132 -2.12132 
C -2.683901 -1.55874 -3 -0.795609 -3 0 
C -3 0.795609 -2.683901 1.55874 -2.12132 2.12132 
C -1.55874 2.683901 -0.795609 3 0 3 
z
" id="m82cd0ec2a6" style="stroke:#1f77b4;stroke-opacity:0.8;"/>
    </defs>
    <g clip-path="url(#p4d0beb1d08)">
     <use style="fill:#1f77b4;fill-opacity:0.8;stroke:#1f77b4;stroke-opacity:0.8;" x="113.044997" xlink:href="#m82cd0ec2a6" y="339.430427"/>
     <use style="fill:#1f77b4;fill-opacity:0.8;stroke:#1f77b4;stroke-opacity:0.8;" x="132.892651" xlink:href="#m82cd0ec2a6" y="335.849557"/>
     <use style="fill:#1f77b4;fill-opacity:0.8;stroke:#1f77b4;stroke-opacity:0.8;" x="138.041148" xlink:href="#m82cd0ec2a6" y="337.141323"/>
     <use style="fill:#1f77b4;fill-opacity:0.8;stroke:#1f77b4;stroke-opacity:0.8;" x="143.228974" xlink:href="#m82cd0ec2a6" y="333.708046"/>
     <use style="fill:#1f77b4;fill-opacity:0.8;stroke:#1f77b4;stroke-opacity:0.8;" x="127.146508" xlink:href="#m82cd0ec2a6" y="334.127633"/>
     <use style="fill:#1f77b4;fill-opacity:0.8;stroke:#1f77b4;stroke-opacity:0.8;" x="153.534064" xlink:href="#m82cd0ec2a6" y="343.974604"/>
     <use style="fill:#1f77b4;fill-opacity:0.8;stroke:#1f77b4;stroke-opacity:0.8;" x="103.196411" xlink:href="#m82cd0ec2a6" y="326.913109"/>
     <use style="fill:#1f77b4;fill-opacity:0.8;stroke:#1f77b4;stroke-opacity:0.8;" x="129.421201" xlink:href="#m82cd0ec2a6" y="337.233843"/>
     <use style="fill:#1f77b4;fill-opacity:0.8;stroke:#1f77b4;stroke-opacity:0.8;" x="93.138037" xlink:href="#m82cd0ec2a6" y="352.895733"/>
     <use style="fill:#1f77b4;fill-opacity:0.8;stroke:#1f77b4;stroke-opacity:0.8;" x="189.552538" xlink:href="#m82cd0ec2a6" y="317.540178"/>
     <use style="fill:#1f77b4;fill-opacity:0.8;stroke:#1f77b4;stroke-opacity:0.8;" x="118.739039" xlink:href="#m82cd0ec2a6" y="303.647921"/>
     <use style="fill:#1f77b4;fill-opacity:0.8;stroke:#1f77b4;stroke-opacity:0.8;" x="205.233283" xlink:href="#m82cd0ec2a6" y="278.529511"/>
     <use style="fill:#1f77b4;fill-opacity:0.8;stroke:#1f77b4;stroke-opacity:0.8;" x="174.710376" xlink:href="#m82cd0ec2a6" y="316.984889"/>
     <use style="fill:#1f77b4;fill-opacity:0.8;stroke:#1f77b4;stroke-opacity:0.8;" x="133.911965" xlink:href="#m82cd0ec2a6" y="339.510167"/>
     <use style="fill:#1f77b4;fill-opacity:0.8;stroke:#1f77b4;stroke-opacity:0.8;" x="89.474258" xlink:href="#m82cd0ec2a6" y="340.036971"/>
     <use style="fill:#1f77b4;fill-opacity:0.8;stroke:#1f77b4;stroke-opacity:0.8;" x="114.934614" xlink:href="#m82cd0ec2a6" y="337.086133"/>
     <use style="fill:#1f77b4;fill-opacity:0.8;stroke:#1f77b4;stroke-opacity:0.8;" x="104.399934" xlink:href="#m82cd0ec2a6" y="343.226303"/>
     <use style="fill:#1f77b4;fill-opacity:0.8;stroke:#1f77b4;stroke-opacity:0.8;" x="106.717765" xlink:href="#m82cd0ec2a6" y="343.23054"/>
     <use style="fill:#1f77b4;fill-opacity:0.8;stroke:#1f77b4;stroke-opacity:0.8;" x="102.868107" xlink:href="#m82cd0ec2a6" y="342.082434"/>
     <use style="fill:#1f77b4;fill-opacity:0.8;stroke:#1f77b4;stroke-opacity:0.8;" x="131.52331" xlink:href="#m82cd0ec2a6" y="339.554825"/>
     <use style="fill:#1f77b4;fill-opacity:0.8;stroke:#1f77b4;stroke-opacity:0.8;" x="122.083154" xlink:href="#m82cd0ec2a6" y="344.071887"/>
     <use style="fill:#1f77b4;fill-opacity:0.8;stroke:#1f77b4;stroke-opacity:0.8;" x="88.394054" xlink:href="#m82cd0ec2a6" y="335.13304"/>
     <use style="fill:#1f77b4;fill-opacity:0.8;stroke:#1f77b4;stroke-opacity:0.8;" x="156.936903" xlink:href="#m82cd0ec2a6" y="315.990724"/>
     <use style="fill:#1f77b4;fill-opacity:0.8;stroke:#1f77b4;stroke-opacity:0.8;" x="321.432884" xlink:href="#m82cd0ec2a6" y="281.621746"/>
     <use style="fill:#1f77b4;fill-opacity:0.8;stroke:#1f77b4;stroke-opacity:0.8;" x="98.907565" xlink:href="#m82cd0ec2a6" y="336.202896"/>
     <use style="fill:#1f77b4;fill-opacity:0.8;stroke:#1f77b4;stroke-opacity:0.8;" x="94.771997" xlink:href="#m82cd0ec2a6" y="332.18514"/>
     <use style="fill:#1f77b4;fill-opacity:0.8;stroke:#1f77b4;stroke-opacity:0.8;" x="102.723228" xlink:href="#m82cd0ec2a6" y="332.355664"/>
     <use style="fill:#1f77b4;fill-opacity:0.8;stroke:#1f77b4;stroke-opacity:0.8;" x="137.37754" xlink:href="#m82cd0ec2a6" y="348.254191"/>
     <use style="fill:#1f77b4;fill-opacity:0.8;stroke:#1f77b4;stroke-opacity:0.8;" x="130.514149" xlink:href="#m82cd0ec2a6" y="306.979447"/>
     <use style="fill:#1f77b4;fill-opacity:0.8;stroke:#1f77b4;stroke-opacity:0.8;" x="128.761431" xlink:href="#m82cd0ec2a6" y="328.384028"/>
     <use style="fill:#1f77b4;fill-opacity:0.8;stroke:#1f77b4;stroke-opacity:0.8;" x="139.114608" xlink:href="#m82cd0ec2a6" y="326.596228"/>
     <use style="fill:#1f77b4;fill-opacity:0.8;stroke:#1f77b4;stroke-opacity:0.8;" x="147.240156" xlink:href="#m82cd0ec2a6" y="327.087412"/>
     <use style="fill:#1f77b4;fill-opacity:0.8;stroke:#1f77b4;stroke-opacity:0.8;" x="135.987178" xlink:href="#m82cd0ec2a6" y="329.47227"/>
     <use style="fill:#1f77b4;fill-opacity:0.8;stroke:#1f77b4;stroke-opacity:0.8;" x="121.921165" xlink:href="#m82cd0ec2a6" y="333.275333"/>
     <use style="fill:#1f77b4;fill-opacity:0.8;stroke:#1f77b4;stroke-opacity:0.8;" x="134.391606" xlink:href="#m82cd0ec2a6" y="342.14312"/>
     <use style="fill:#1f77b4;fill-opacity:0.8;stroke:#1f77b4;stroke-opacity:0.8;" x="125.456053" xlink:href="#m82cd0ec2a6" y="321.372979"/>
     <use style="fill:#1f77b4;fill-opacity:0.8;stroke:#1f77b4;stroke-opacity:0.8;" x="300.272014" xlink:href="#m82cd0ec2a6" y="284.202708"/>
     <use style="fill:#1f77b4;fill-opacity:0.8;stroke:#1f77b4;stroke-opacity:0.8;" x="105.463574" xlink:href="#m82cd0ec2a6" y="331.197562"/>
     <use style="fill:#1f77b4;fill-opacity:0.8;stroke:#1f77b4;stroke-opacity:0.8;" x="122.458521" xlink:href="#m82cd0ec2a6" y="313.207691"/>
     <use style="fill:#1f77b4;fill-opacity:0.8;stroke:#1f77b4;stroke-opacity:0.8;" x="115.484543" xlink:href="#m82cd0ec2a6" y="331.460042"/>
     <use style="fill:#1f77b4;fill-opacity:0.8;stroke:#1f77b4;stroke-opacity:0.8;" x="237.812021" xlink:href="#m82cd0ec2a6" y="263.503151"/>
     <use style="fill:#1f77b4;fill-opacity:0.8;stroke:#1f77b4;stroke-opacity:0.8;" x="263.55629" xlink:href="#m82cd0ec2a6" y="313.504334"/>
     <use style="fill:#1f77b4;fill-opacity:0.8;stroke:#1f77b4;stroke-opacity:0.8;" x="92.266141" xlink:href="#m82cd0ec2a6" y="344.604149"/>
     <use style="fill:#1f77b4;fill-opacity:0.8;stroke:#1f77b4;stroke-opacity:0.8;" x="97.526253" xlink:href="#m82cd0ec2a6" y="339.361205"/>
     <use style="fill:#1f77b4;fill-opacity:0.8;stroke:#1f77b4;stroke-opacity:0.8;" x="292.106476" xlink:href="#m82cd0ec2a6" y="253.724632"/>
     <use style="fill:#1f77b4;fill-opacity:0.8;stroke:#1f77b4;stroke-opacity:0.8;" x="98.567719" xlink:href="#m82cd0ec2a6" y="336.683612"/>
     <use style="fill:#1f77b4;fill-opacity:0.8;stroke:#1f77b4;stroke-opacity:0.8;" x="129.108063" xlink:href="#m82cd0ec2a6" y="357.583017"/>
     <use style="fill:#1f77b4;fill-opacity:0.8;stroke:#1f77b4;stroke-opacity:0.8;" x="89.309186" xlink:href="#m82cd0ec2a6" y="354.494982"/>
     <use style="fill:#1f77b4;fill-opacity:0.8;stroke:#1f77b4;stroke-opacity:0.8;" x="125.766145" xlink:href="#m82cd0ec2a6" y="334.473245"/>
     <use style="fill:#1f77b4;fill-opacity:0.8;stroke:#1f77b4;stroke-opacity:0.8;" x="141.130971" xlink:href="#m82cd0ec2a6" y="318.872447"/>
     <use style="fill:#1f77b4;fill-opacity:0.8;stroke:#1f77b4;stroke-opacity:0.8;" x="90.362291" xlink:href="#m82cd0ec2a6" y="348.370308"/>
     <use style="fill:#1f77b4;fill-opacity:0.8;stroke:#1f77b4;stroke-opacity:0.8;" x="151.338563" xlink:href="#m82cd0ec2a6" y="342.987429"/>
     <use style="fill:#1f77b4;fill-opacity:0.8;stroke:#1f77b4;stroke-opacity:0.8;" x="94.482823" xlink:href="#m82cd0ec2a6" y="356.570997"/>
     <use style="fill:#1f77b4;fill-opacity:0.8;stroke:#1f77b4;stroke-opacity:0.8;" x="218.169008" xlink:href="#m82cd0ec2a6" y="301.167204"/>
     <use style="fill:#1f77b4;fill-opacity:0.8;stroke:#1f77b4;stroke-opacity:0.8;" x="88.640531" xlink:href="#m82cd0ec2a6" y="343.24045"/>
     <use style="fill:#1f77b4;fill-opacity:0.8;stroke:#1f77b4;stroke-opacity:0.8;" x="84.959168" xlink:href="#m82cd0ec2a6" y="342.022222"/>
     <use style="fill:#1f77b4;fill-opacity:0.8;stroke:#1f77b4;stroke-opacity:0.8;" x="155.427118" xlink:href="#m82cd0ec2a6" y="308.614753"/>
     <use style="fill:#1f77b4;fill-opacity:0.8;stroke:#1f77b4;stroke-opacity:0.8;" x="150.546323" xlink:href="#m82cd0ec2a6" y="269.176468"/>
     <use style="fill:#1f77b4;fill-opacity:0.8;stroke:#1f77b4;stroke-opacity:0.8;" x="273.791172" xlink:href="#m82cd0ec2a6" y="226.658885"/>
     <use style="fill:#1f77b4;fill-opacity:0.8;stroke:#1f77b4;stroke-opacity:0.8;" x="96.473332" xlink:href="#m82cd0ec2a6" y="357.980824"/>
     <use style="fill:#1f77b4;fill-opacity:0.8;stroke:#1f77b4;stroke-opacity:0.8;" x="138.358408" xlink:href="#m82cd0ec2a6" y="335.168701"/>
     <use style="fill:#1f77b4;fill-opacity:0.8;stroke:#1f77b4;stroke-opacity:0.8;" x="188.26356" xlink:href="#m82cd0ec2a6" y="319.146254"/>
     <use style="fill:#1f77b4;fill-opacity:0.8;stroke:#1f77b4;stroke-opacity:0.8;" x="139.816777" xlink:href="#m82cd0ec2a6" y="343.571104"/>
     <use style="fill:#1f77b4;fill-opacity:0.8;stroke:#1f77b4;stroke-opacity:0.8;" x="164.850373" xlink:href="#m82cd0ec2a6" y="305.370063"/>
     <use style="fill:#1f77b4;fill-opacity:0.8;stroke:#1f77b4;stroke-opacity:0.8;" x="190.342734" xlink:href="#m82cd0ec2a6" y="326.454894"/>
     <use style="fill:#1f77b4;fill-opacity:0.8;stroke:#1f77b4;stroke-opacity:0.8;" x="131.925226" xlink:href="#m82cd0ec2a6" y="341.771961"/>
     <use style="fill:#1f77b4;fill-opacity:0.8;stroke:#1f77b4;stroke-opacity:0.8;" x="136.993203" xlink:href="#m82cd0ec2a6" y="334.538316"/>
     <use style="fill:#1f77b4;fill-opacity:0.8;stroke:#1f77b4;stroke-opacity:0.8;" x="110.739404" xlink:href="#m82cd0ec2a6" y="339.938412"/>
     <use style="fill:#1f77b4;fill-opacity:0.8;stroke:#1f77b4;stroke-opacity:0.8;" x="103.033917" xlink:href="#m82cd0ec2a6" y="343.726567"/>
     <use style="fill:#1f77b4;fill-opacity:0.8;stroke:#1f77b4;stroke-opacity:0.8;" x="83.513298" xlink:href="#m82cd0ec2a6" y="360.234764"/>
     <use style="fill:#1f77b4;fill-opacity:0.8;stroke:#1f77b4;stroke-opacity:0.8;" x="132.743082" xlink:href="#m82cd0ec2a6" y="342.583212"/>
     <use style="fill:#1f77b4;fill-opacity:0.8;stroke:#1f77b4;stroke-opacity:0.8;" x="114.151826" xlink:href="#m82cd0ec2a6" y="351.328698"/>
     <use style="fill:#1f77b4;fill-opacity:0.8;stroke:#1f77b4;stroke-opacity:0.8;" x="122.144597" xlink:href="#m82cd0ec2a6" y="339.2062"/>
     <use style="fill:#1f77b4;fill-opacity:0.8;stroke:#1f77b4;stroke-opacity:0.8;" x="118.282153" xlink:href="#m82cd0ec2a6" y="352.259119"/>
     <use style="fill:#1f77b4;fill-opacity:0.8;stroke:#1f77b4;stroke-opacity:0.8;" x="168.76332" xlink:href="#m82cd0ec2a6" y="324.777658"/>
     <use style="fill:#1f77b4;fill-opacity:0.8;stroke:#1f77b4;stroke-opacity:0.8;" x="84.336782" xlink:href="#m82cd0ec2a6" y="356.723664"/>
     <use style="fill:#1f77b4;fill-opacity:0.8;stroke:#1f77b4;stroke-opacity:0.8;" x="137.883649" xlink:href="#m82cd0ec2a6" y="355.962679"/>
     <use style="fill:#1f77b4;fill-opacity:0.8;stroke:#1f77b4;stroke-opacity:0.8;" x="105.496819" xlink:href="#m82cd0ec2a6" y="341.078078"/>
     <use style="fill:#1f77b4;fill-opacity:0.8;stroke:#1f77b4;stroke-opacity:0.8;" x="375.467369" xlink:href="#m82cd0ec2a6" y="263.289626"/>
    </g>
   </g>
   <g id="PolyCollection_1">
    <path clip-path="url(#p4d0beb1d08)" d="M 50.10625 355.968295 
L 50.10625 372.062332 
L 57.0826 368.556135 
L 64.05895 365.011962 
L 71.035301 361.418169 
L 78.011651 358.034996 
L 84.988001 354.7086 
L 91.964351 351.471975 
L 98.940702 348.172077 
L 105.917052 344.985693 
L 112.893402 341.736909 
L 119.869752 338.741134 
L 126.846103 336.056635 
L 133.822453 333.454977 
L 140.798803 330.89674 
L 147.775153 328.414685 
L 154.751504 326.010504 
L 161.727854 323.625726 
L 168.704204 321.367169 
L 175.680554 319.104491 
L 182.656905 316.844697 
L 189.633255 314.575153 
L 196.609605 312.382586 
L 203.585955 310.177509 
L 210.562306 307.998417 
L 217.538656 305.736502 
L 224.515006 303.517739 
L 231.491356 301.180672 
L 238.467707 299.005529 
L 245.444057 296.866835 
L 252.420407 294.651946 
L 259.396757 292.464916 
L 266.373108 290.289624 
L 273.349458 288.13761 
L 280.325808 285.922895 
L 287.302158 283.733476 
L 294.278509 281.568604 
L 301.254859 279.446906 
L 308.231209 277.292103 
L 315.207559 275.062504 
L 322.183909 272.909108 
L 329.16026 270.727298 
L 336.13661 268.527621 
L 343.11296 266.342394 
L 350.08931 264.151271 
L 357.065661 261.958985 
L 364.042011 259.765835 
L 371.018361 257.572684 
L 377.994711 255.351978 
L 384.971062 253.141239 
L 391.947412 250.996816 
L 398.923762 248.806963 
L 405.900112 246.61711 
L 412.876463 244.427256 
L 419.852813 242.237403 
L 426.829163 240.046714 
L 433.805513 237.854698 
L 440.781864 235.662683 
L 447.758214 233.470667 
L 454.734564 231.278651 
L 461.710914 229.086635 
L 468.687265 226.894619 
L 475.663615 224.702604 
L 482.639965 222.510588 
L 489.616315 220.318572 
L 496.592666 218.126556 
L 503.569016 215.93454 
L 510.545366 213.742525 
L 517.521716 211.550509 
L 524.498067 209.3891 
L 531.474417 207.265945 
L 538.450767 205.142791 
L 545.427117 203.019636 
L 552.403468 200.896481 
L 559.379818 198.773326 
L 566.356168 196.650172 
L 573.332518 194.527017 
L 580.308869 192.403862 
L 587.285219 190.280707 
L 594.261569 188.157553 
L 601.237919 186.034398 
L 608.214269 183.911243 
L 615.19062 181.776224 
L 622.16697 179.600348 
L 629.14332 177.424472 
L 636.11967 175.248596 
L 643.096021 173.072719 
L 650.072371 170.896843 
L 657.048721 168.720967 
L 664.025071 166.545091 
L 671.001422 164.369215 
L 677.977772 162.193339 
L 684.954122 160.017463 
L 691.930472 157.841586 
L 698.906823 155.66571 
L 705.883173 153.489834 
L 712.859523 151.313958 
L 719.835873 149.138082 
L 726.812224 146.962206 
L 733.788574 144.786329 
L 740.764924 142.610453 
L 740.764924 24.59267 
L 740.764924 24.59267 
L 733.788574 28.119839 
L 726.812224 31.647007 
L 719.835873 35.174175 
L 712.859523 38.701344 
L 705.883173 42.228512 
L 698.906823 45.75568 
L 691.930472 49.282849 
L 684.954122 52.810017 
L 677.977772 56.337185 
L 671.001422 59.864354 
L 664.025071 63.391522 
L 657.048721 66.91869 
L 650.072371 70.445859 
L 643.096021 73.965505 
L 636.11967 77.472401 
L 629.14332 80.979297 
L 622.16697 84.486193 
L 615.19062 87.99309 
L 608.214269 91.499986 
L 601.237919 95.006882 
L 594.261569 98.513778 
L 587.285219 102.020675 
L 580.308869 105.527571 
L 573.332518 109.034467 
L 566.356168 112.541363 
L 559.379818 116.04826 
L 552.403468 119.555156 
L 545.427117 123.062052 
L 538.450767 126.568948 
L 531.474417 130.075845 
L 524.498067 133.582741 
L 517.521716 137.089637 
L 510.545366 140.596533 
L 503.569016 144.10343 
L 496.592666 147.610326 
L 489.616315 151.117222 
L 482.639965 154.624118 
L 475.663615 158.131015 
L 468.687265 161.637911 
L 461.710914 165.144807 
L 454.734564 168.651703 
L 447.758214 172.1586 
L 440.781864 175.665496 
L 433.805513 179.172433 
L 426.829163 182.679641 
L 419.852813 186.186848 
L 412.876463 189.694056 
L 405.900112 193.201263 
L 398.923762 196.708471 
L 391.947412 200.215678 
L 384.971062 203.722886 
L 377.994711 207.230093 
L 371.018361 210.737301 
L 364.042011 214.244508 
L 357.065661 217.751716 
L 350.08931 221.258923 
L 343.11296 224.72523 
L 336.13661 228.161832 
L 329.16026 231.598434 
L 322.183909 235.035036 
L 315.207559 238.471638 
L 308.231209 241.908239 
L 301.254859 245.344841 
L 294.278509 248.806832 
L 287.302158 252.33584 
L 280.325808 255.867359 
L 273.349458 259.354306 
L 266.373108 262.908721 
L 259.396757 266.457145 
L 252.420407 270.018853 
L 245.444057 273.52503 
L 238.467707 277.043672 
L 231.491356 280.576045 
L 224.515006 284.154716 
L 217.538656 287.633544 
L 210.562306 291.051075 
L 203.585955 294.533326 
L 196.609605 298.042989 
L 189.633255 301.484331 
L 182.656905 304.836465 
L 175.680554 308.274032 
L 168.704204 311.77328 
L 161.727854 315.265857 
L 154.751504 318.302547 
L 147.775153 321.502796 
L 140.798803 324.636787 
L 133.822453 327.525531 
L 126.846103 330.188616 
L 119.869752 332.77092 
L 112.893402 335.321965 
L 105.917052 337.785548 
L 98.940702 340.192481 
L 91.964351 342.574573 
L 84.988001 344.946784 
L 78.011651 347.195244 
L 71.035301 349.463634 
L 64.05895 351.623769 
L 57.0826 353.784056 
L 50.10625 355.968295 
z
" style="fill:#1f77b4;fill-opacity:0.15;"/>
   </g>
   <g id="PathCollection_2">
    <defs>
     <path d="M 0 3 
C 0.795609 3 1.55874 2.683901 2.12132 2.12132 
C 2.683901 1.55874 3 0.795609 3 0 
C 3 -0.795609 2.683901 -1.55874 2.12132 -2.12132 
C 1.55874 -2.683901 0.795609 -3 0 -3 
C -0.795609 -3 -1.55874 -2.683901 -2.12132 -2.12132 
C -2.683901 -1.55874 -3 -0.795609 -3 0 
C -3 0.795609 -2.683901 1.55874 -2.12132 2.12132 
C -1.55874 2.683901 -0.795609 3 0 3 
z
" id="mf0f64be55c" style="stroke:#ff7f0e;stroke-opacity:0.8;"/>
    </defs>
    <g clip-path="url(#p4d0beb1d08)">
     <use style="fill:#ff7f0e;fill-opacity:0.8;stroke:#ff7f0e;stroke-opacity:0.8;" x="345.880736" xlink:href="#mf0f64be55c" y="281.823528"/>
     <use style="fill:#ff7f0e;fill-opacity:0.8;stroke:#ff7f0e;stroke-opacity:0.8;" x="236.006917" xlink:href="#mf0f64be55c" y="307.812092"/>
     <use style="fill:#ff7f0e;fill-opacity:0.8;stroke:#ff7f0e;stroke-opacity:0.8;" x="141.121987" xlink:href="#mf0f64be55c" y="353.521412"/>
     <use style="fill:#ff7f0e;fill-opacity:0.8;stroke:#ff7f0e;stroke-opacity:0.8;" x="167.560733" xlink:href="#mf0f64be55c" y="327.220855"/>
     <use style="fill:#ff7f0e;fill-opacity:0.8;stroke:#ff7f0e;stroke-opacity:0.8;" x="269.940378" xlink:href="#mf0f64be55c" y="294.290128"/>
     <use style="fill:#ff7f0e;fill-opacity:0.8;stroke:#ff7f0e;stroke-opacity:0.8;" x="144.911078" xlink:href="#mf0f64be55c" y="344.821029"/>
     <use style="fill:#ff7f0e;fill-opacity:0.8;stroke:#ff7f0e;stroke-opacity:0.8;" x="132.689091" xlink:href="#mf0f64be55c" y="354.079735"/>
     <use style="fill:#ff7f0e;fill-opacity:0.8;stroke:#ff7f0e;stroke-opacity:0.8;" x="106.840464" xlink:href="#mf0f64be55c" y="342.708385"/>
     <use style="fill:#ff7f0e;fill-opacity:0.8;stroke:#ff7f0e;stroke-opacity:0.8;" x="102.475" xlink:href="#mf0f64be55c" y="354.634152"/>
    </g>
   </g>
   <g id="PolyCollection_2">
    <path clip-path="url(#p4d0beb1d08)" d="M 50.10625 372.44608 
L 50.10625 372.44608 
L 57.0826 370.047823 
L 64.05895 367.649567 
L 71.035301 365.251311 
L 78.011651 362.853055 
L 84.988001 360.454799 
L 91.964351 358.056542 
L 98.940702 355.658286 
L 105.917052 353.26003 
L 112.893402 350.861774 
L 119.869752 348.463518 
L 126.846103 346.065262 
L 133.822453 343.667005 
L 140.798803 341.268749 
L 147.775153 338.870493 
L 154.751504 336.472237 
L 161.727854 334.073981 
L 168.704204 331.675724 
L 175.680554 329.277468 
L 182.656905 326.879212 
L 189.633255 324.480956 
L 196.609605 322.0827 
L 203.585955 319.684444 
L 210.562306 317.286187 
L 217.538656 314.887931 
L 224.515006 312.489675 
L 231.491356 310.091419 
L 238.467707 307.693163 
L 245.444057 305.294906 
L 252.420407 302.89665 
L 259.396757 300.498394 
L 266.373108 298.100138 
L 273.349458 295.701882 
L 280.325808 293.303626 
L 287.302158 290.905369 
L 294.278509 288.507113 
L 301.254859 286.108857 
L 308.231209 283.710601 
L 315.207559 281.312345 
L 322.183909 278.914088 
L 329.16026 276.515832 
L 336.13661 274.117576 
L 343.11296 271.71932 
L 350.08931 269.321064 
L 357.065661 266.922807 
L 364.042011 264.524551 
L 371.018361 262.126295 
L 377.994711 259.728039 
L 384.971062 257.329783 
L 391.947412 254.931527 
L 398.923762 252.53327 
L 405.900112 250.135014 
L 412.876463 247.736758 
L 419.852813 245.338502 
L 426.829163 242.940246 
L 433.805513 240.541989 
L 440.781864 238.143733 
L 447.758214 235.745477 
L 454.734564 233.347221 
L 461.710914 230.948965 
L 468.687265 228.550709 
L 475.663615 226.152452 
L 482.639965 223.754196 
L 489.616315 221.35594 
L 496.592666 218.957684 
L 503.569016 216.559428 
L 510.545366 214.161171 
L 517.521716 211.762915 
L 524.498067 209.364659 
L 531.474417 206.966403 
L 538.450767 204.568147 
L 545.427117 202.169891 
L 552.403468 199.771634 
L 559.379818 197.373378 
L 566.356168 194.975122 
L 573.332518 192.576866 
L 580.308869 190.17861 
L 587.285219 187.780353 
L 594.261569 185.382097 
L 601.237919 182.983841 
L 608.214269 180.585585 
L 615.19062 178.187329 
L 622.16697 175.789073 
L 629.14332 173.390816 
L 636.11967 170.99256 
L 643.096021 168.594304 
L 650.072371 166.196048 
L 657.048721 163.797792 
L 664.025071 161.399535 
L 671.001422 159.001279 
L 677.977772 156.603023 
L 684.954122 154.204767 
L 691.930472 151.806511 
L 698.906823 149.408255 
L 705.883173 147.009998 
L 712.859523 144.611742 
L 719.835873 142.213486 
L 726.812224 139.81523 
L 733.788574 137.416974 
L 740.764924 135.018717 
L 740.764924 135.018717 
L 740.764924 135.018717 
L 733.788574 137.416974 
L 726.812224 139.81523 
L 719.835873 142.213486 
L 712.859523 144.611742 
L 705.883173 147.009998 
L 698.906823 149.408255 
L 691.930472 151.806511 
L 684.954122 154.204767 
L 677.977772 156.603023 
L 671.001422 159.001279 
L 664.025071 161.399535 
L 657.048721 163.797792 
L 650.072371 166.196048 
L 643.096021 168.594304 
L 636.11967 170.99256 
L 629.14332 173.390816 
L 622.16697 175.789073 
L 615.19062 178.187329 
L 608.214269 180.585585 
L 601.237919 182.983841 
L 594.261569 185.382097 
L 587.285219 187.780353 
L 580.308869 190.17861 
L 573.332518 192.576866 
L 566.356168 194.975122 
L 559.379818 197.373378 
L 552.403468 199.771634 
L 545.427117 202.169891 
L 538.450767 204.568147 
L 531.474417 206.966403 
L 524.498067 209.364659 
L 517.521716 211.762915 
L 510.545366 214.161171 
L 503.569016 216.559428 
L 496.592666 218.957684 
L 489.616315 221.35594 
L 482.639965 223.754196 
L 475.663615 226.152452 
L 468.687265 228.550709 
L 461.710914 230.948965 
L 454.734564 233.347221 
L 447.758214 235.745477 
L 440.781864 238.143733 
L 433.805513 240.541989 
L 426.829163 242.940246 
L 419.852813 245.338502 
L 412.876463 247.736758 
L 405.900112 250.135014 
L 398.923762 252.53327 
L 391.947412 254.931527 
L 384.971062 257.329783 
L 377.994711 259.728039 
L 371.018361 262.126295 
L 364.042011 264.524551 
L 357.065661 266.922807 
L 350.08931 269.321064 
L 343.11296 271.71932 
L 336.13661 274.117576 
L 329.16026 276.515832 
L 322.183909 278.914088 
L 315.207559 281.312345 
L 308.231209 283.710601 
L 301.254859 286.108857 
L 294.278509 288.507113 
L 287.302158 290.905369 
L 280.325808 293.303626 
L 273.349458 295.701882 
L 266.373108 298.100138 
L 259.396757 300.498394 
L 252.420407 302.89665 
L 245.444057 305.294906 
L 238.467707 307.693163 
L 231.491356 310.091419 
L 224.515006 312.489675 
L 217.538656 314.887931 
L 210.562306 317.286187 
L 203.585955 319.684444 
L 196.609605 322.0827 
L 189.633255 324.480956 
L 182.656905 326.879212 
L 175.680554 329.277468 
L 168.704204 331.675724 
L 161.727854 334.073981 
L 154.751504 336.472237 
L 147.775153 338.870493 
L 140.798803 341.268749 
L 133.822453 343.667005 
L 126.846103 346.065262 
L 119.869752 348.463518 
L 112.893402 350.861774 
L 105.917052 353.26003 
L 98.940702 355.658286 
L 91.964351 358.056542 
L 84.988001 360.454799 
L 78.011651 362.853055 
L 71.035301 365.251311 
L 64.05895 367.649567 
L 57.0826 370.047823 
L 50.10625 372.44608 
z
" style="fill:#ff7f0e;fill-opacity:0.15;"/>
   </g>
   <g id="PathCollection_3">
    <defs>
     <path d="M 0 3 
C 0.795609 3 1.55874 2.683901 2.12132 2.12132 
C 2.683901 1.55874 3 0.795609 3 0 
C 3 -0.795609 2.683901 -1.55874 2.12132 -2.12132 
C 1.55874 -2.683901 0.795609 -3 0 -3 
C -0.795609 -3 -1.55874 -2.683901 -2.12132 -2.12132 
C -2.683901 -1.55874 -3 -0.795609 -3 0 
C -3 0.795609 -2.683901 1.55874 -2.12132 2.12132 
C -1.55874 2.683901 -0.795609 3 0 3 
z
" id="m99724d2c33" style="stroke:#2ca02c;stroke-opacity:0.8;"/>
    </defs>
    <g clip-path="url(#p4d0beb1d08)">
     <use style="fill:#2ca02c;fill-opacity:0.8;stroke:#2ca02c;stroke-opacity:0.8;" x="252.254157" xlink:href="#m99724d2c33" y="345.733576"/>
     <use style="fill:#2ca02c;fill-opacity:0.8;stroke:#2ca02c;stroke-opacity:0.8;" x="249.064484" xlink:href="#m99724d2c33" y="314.911869"/>
     <use style="fill:#2ca02c;fill-opacity:0.8;stroke:#2ca02c;stroke-opacity:0.8;" x="162.693647" xlink:href="#m99724d2c33" y="345.518339"/>
     <use style="fill:#2ca02c;fill-opacity:0.8;stroke:#2ca02c;stroke-opacity:0.8;" x="142.554269" xlink:href="#m99724d2c33" y="356.716641"/>
     <use style="fill:#2ca02c;fill-opacity:0.8;stroke:#2ca02c;stroke-opacity:0.8;" x="225.700769" xlink:href="#m99724d2c33" y="337.682762"/>
     <use style="fill:#2ca02c;fill-opacity:0.8;stroke:#2ca02c;stroke-opacity:0.8;" x="185.550635" xlink:href="#m99724d2c33" y="340.297525"/>
     <use style="fill:#2ca02c;fill-opacity:0.8;stroke:#2ca02c;stroke-opacity:0.8;" x="285.836405" xlink:href="#m99724d2c33" y="341.047226"/>
     <use style="fill:#2ca02c;fill-opacity:0.8;stroke:#2ca02c;stroke-opacity:0.8;" x="219.958633" xlink:href="#m99724d2c33" y="343.466187"/>
     <use style="fill:#2ca02c;fill-opacity:0.8;stroke:#2ca02c;stroke-opacity:0.8;" x="183.025271" xlink:href="#m99724d2c33" y="346.68974"/>
     <use style="fill:#2ca02c;fill-opacity:0.8;stroke:#2ca02c;stroke-opacity:0.8;" x="207.618063" xlink:href="#m99724d2c33" y="359.300629"/>
     <use style="fill:#2ca02c;fill-opacity:0.8;stroke:#2ca02c;stroke-opacity:0.8;" x="219.108842" xlink:href="#m99724d2c33" y="328.14778"/>
     <use style="fill:#2ca02c;fill-opacity:0.8;stroke:#2ca02c;stroke-opacity:0.8;" x="446.631399" xlink:href="#m99724d2c33" y="334.450234"/>
     <use style="fill:#2ca02c;fill-opacity:0.8;stroke:#2ca02c;stroke-opacity:0.8;" x="347.530972" xlink:href="#m99724d2c33" y="290.817529"/>
     <use style="fill:#2ca02c;fill-opacity:0.8;stroke:#2ca02c;stroke-opacity:0.8;" x="123.911315" xlink:href="#m99724d2c33" y="335.291137"/>
     <use style="fill:#2ca02c;fill-opacity:0.8;stroke:#2ca02c;stroke-opacity:0.8;" x="281.993821" xlink:href="#m99724d2c33" y="339.372226"/>
     <use style="fill:#2ca02c;fill-opacity:0.8;stroke:#2ca02c;stroke-opacity:0.8;" x="186.992994" xlink:href="#m99724d2c33" y="343.32236"/>
     <use style="fill:#2ca02c;fill-opacity:0.8;stroke:#2ca02c;stroke-opacity:0.8;" x="333.844911" xlink:href="#m99724d2c33" y="342.185494"/>
     <use style="fill:#2ca02c;fill-opacity:0.8;stroke:#2ca02c;stroke-opacity:0.8;" x="199.645224" xlink:href="#m99724d2c33" y="330.173223"/>
     <use style="fill:#2ca02c;fill-opacity:0.8;stroke:#2ca02c;stroke-opacity:0.8;" x="123.972993" xlink:href="#m99724d2c33" y="341.30497"/>
     <use style="fill:#2ca02c;fill-opacity:0.8;stroke:#2ca02c;stroke-opacity:0.8;" x="245.987746" xlink:href="#m99724d2c33" y="340.380288"/>
     <use style="fill:#2ca02c;fill-opacity:0.8;stroke:#2ca02c;stroke-opacity:0.8;" x="276.72598" xlink:href="#m99724d2c33" y="341.4827"/>
     <use style="fill:#2ca02c;fill-opacity:0.8;stroke:#2ca02c;stroke-opacity:0.8;" x="275.09746" xlink:href="#m99724d2c33" y="344.433781"/>
     <use style="fill:#2ca02c;fill-opacity:0.8;stroke:#2ca02c;stroke-opacity:0.8;" x="198.164972" xlink:href="#m99724d2c33" y="342.838245"/>
     <use style="fill:#2ca02c;fill-opacity:0.8;stroke:#2ca02c;stroke-opacity:0.8;" x="140.780172" xlink:href="#m99724d2c33" y="351.210903"/>
     <use style="fill:#2ca02c;fill-opacity:0.8;stroke:#2ca02c;stroke-opacity:0.8;" x="176.478656" xlink:href="#m99724d2c33" y="359.122261"/>
     <use style="fill:#2ca02c;fill-opacity:0.8;stroke:#2ca02c;stroke-opacity:0.8;" x="297.826264" xlink:href="#m99724d2c33" y="341.801734"/>
     <use style="fill:#2ca02c;fill-opacity:0.8;stroke:#2ca02c;stroke-opacity:0.8;" x="276.750483" xlink:href="#m99724d2c33" y="305.055235"/>
     <use style="fill:#2ca02c;fill-opacity:0.8;stroke:#2ca02c;stroke-opacity:0.8;" x="133.376527" xlink:href="#m99724d2c33" y="355.772633"/>
     <use style="fill:#2ca02c;fill-opacity:0.8;stroke:#2ca02c;stroke-opacity:0.8;" x="680.099999" xlink:href="#m99724d2c33" y="289.093661"/>
     <use style="fill:#2ca02c;fill-opacity:0.8;stroke:#2ca02c;stroke-opacity:0.8;" x="603.943305" xlink:href="#m99724d2c33" y="328.579422"/>
     <use style="fill:#2ca02c;fill-opacity:0.8;stroke:#2ca02c;stroke-opacity:0.8;" x="312.666688" xlink:href="#m99724d2c33" y="353.462379"/>
     <use style="fill:#2ca02c;fill-opacity:0.8;stroke:#2ca02c;stroke-opacity:0.8;" x="214.655248" xlink:href="#m99724d2c33" y="344.345874"/>
     <use style="fill:#2ca02c;fill-opacity:0.8;stroke:#2ca02c;stroke-opacity:0.8;" x="291.874789" xlink:href="#m99724d2c33" y="343.172199"/>
     <use style="fill:#2ca02c;fill-opacity:0.8;stroke:#2ca02c;stroke-opacity:0.8;" x="134.255218" xlink:href="#m99724d2c33" y="350.108413"/>
     <use style="fill:#2ca02c;fill-opacity:0.8;stroke:#2ca02c;stroke-opacity:0.8;" x="392.370991" xlink:href="#m99724d2c33" y="324.584514"/>
     <use style="fill:#2ca02c;fill-opacity:0.8;stroke:#2ca02c;stroke-opacity:0.8;" x="370.66784" xlink:href="#m99724d2c33" y="341.053619"/>
     <use style="fill:#2ca02c;fill-opacity:0.8;stroke:#2ca02c;stroke-opacity:0.8;" x="151.129717" xlink:href="#m99724d2c33" y="354.826785"/>
     <use style="fill:#2ca02c;fill-opacity:0.8;stroke:#2ca02c;stroke-opacity:0.8;" x="687.797543" xlink:href="#m99724d2c33" y="243.723045"/>
     <use style="fill:#2ca02c;fill-opacity:0.8;stroke:#2ca02c;stroke-opacity:0.8;" x="137.210005" xlink:href="#m99724d2c33" y="356.708508"/>
     <use style="fill:#2ca02c;fill-opacity:0.8;stroke:#2ca02c;stroke-opacity:0.8;" x="147.674727" xlink:href="#m99724d2c33" y="356.342301"/>
     <use style="fill:#2ca02c;fill-opacity:0.8;stroke:#2ca02c;stroke-opacity:0.8;" x="156.738125" xlink:href="#m99724d2c33" y="348.854534"/>
     <use style="fill:#2ca02c;fill-opacity:0.8;stroke:#2ca02c;stroke-opacity:0.8;" x="367.902461" xlink:href="#m99724d2c33" y="360.739284"/>
     <use style="fill:#2ca02c;fill-opacity:0.8;stroke:#2ca02c;stroke-opacity:0.8;" x="327.480431" xlink:href="#m99724d2c33" y="334.133228"/>
     <use style="fill:#2ca02c;fill-opacity:0.8;stroke:#2ca02c;stroke-opacity:0.8;" x="364.289326" xlink:href="#m99724d2c33" y="320.690211"/>
     <use style="fill:#2ca02c;fill-opacity:0.8;stroke:#2ca02c;stroke-opacity:0.8;" x="355.448508" xlink:href="#m99724d2c33" y="341.341519"/>
     <use style="fill:#2ca02c;fill-opacity:0.8;stroke:#2ca02c;stroke-opacity:0.8;" x="276.437234" xlink:href="#m99724d2c33" y="353.483768"/>
     <use style="fill:#2ca02c;fill-opacity:0.8;stroke:#2ca02c;stroke-opacity:0.8;" x="148.363203" xlink:href="#m99724d2c33" y="336.362376"/>
     <use style="fill:#2ca02c;fill-opacity:0.8;stroke:#2ca02c;stroke-opacity:0.8;" x="327.390586" xlink:href="#m99724d2c33" y="302.479992"/>
     <use style="fill:#2ca02c;fill-opacity:0.8;stroke:#2ca02c;stroke-opacity:0.8;" x="128.010059" xlink:href="#m99724d2c33" y="337.28373"/>
     <use style="fill:#2ca02c;fill-opacity:0.8;stroke:#2ca02c;stroke-opacity:0.8;" x="327.428558" xlink:href="#m99724d2c33" y="357.068094"/>
     <use style="fill:#2ca02c;fill-opacity:0.8;stroke:#2ca02c;stroke-opacity:0.8;" x="185.464478" xlink:href="#m99724d2c33" y="341.894481"/>
     <use style="fill:#2ca02c;fill-opacity:0.8;stroke:#2ca02c;stroke-opacity:0.8;" x="344.415865" xlink:href="#m99724d2c33" y="339.270454"/>
     <use style="fill:#2ca02c;fill-opacity:0.8;stroke:#2ca02c;stroke-opacity:0.8;" x="279.561896" xlink:href="#m99724d2c33" y="344.133267"/>
     <use style="fill:#2ca02c;fill-opacity:0.8;stroke:#2ca02c;stroke-opacity:0.8;" x="275.362069" xlink:href="#m99724d2c33" y="343.648468"/>
     <use style="fill:#2ca02c;fill-opacity:0.8;stroke:#2ca02c;stroke-opacity:0.8;" x="185.086132" xlink:href="#m99724d2c33" y="357.220542"/>
     <use style="fill:#2ca02c;fill-opacity:0.8;stroke:#2ca02c;stroke-opacity:0.8;" x="102.861036" xlink:href="#m99724d2c33" y="345.580573"/>
     <use style="fill:#2ca02c;fill-opacity:0.8;stroke:#2ca02c;stroke-opacity:0.8;" x="336.122075" xlink:href="#m99724d2c33" y="331.457569"/>
     <use style="fill:#2ca02c;fill-opacity:0.8;stroke:#2ca02c;stroke-opacity:0.8;" x="215.465174" xlink:href="#m99724d2c33" y="345.532916"/>
    </g>
   </g>
   <g id="PolyCollection_3">
    <path clip-path="url(#p4d0beb1d08)" d="M 50.10625 349.485672 
L 50.10625 368.788641 
L 57.0826 367.768835 
L 64.05895 366.817174 
L 71.035301 365.695089 
L 78.011651 364.671427 
L 84.988001 363.795737 
L 91.964351 362.75811 
L 98.940702 361.691909 
L 105.917052 360.709368 
L 112.893402 359.773736 
L 119.869752 358.79346 
L 126.846103 357.830228 
L 133.822453 356.76632 
L 140.798803 355.784591 
L 147.775153 354.810072 
L 154.751504 353.868356 
L 161.727854 352.902015 
L 168.704204 351.998275 
L 175.680554 351.124312 
L 182.656905 350.179193 
L 189.633255 349.342268 
L 196.609605 348.504661 
L 203.585955 347.694054 
L 210.562306 346.822113 
L 217.538656 346.069385 
L 224.515006 345.294236 
L 231.491356 344.617365 
L 238.467707 344.027311 
L 245.444057 343.474175 
L 252.420407 343.052914 
L 259.396757 342.657361 
L 266.373108 342.332992 
L 273.349458 341.931837 
L 280.325808 341.648018 
L 287.302158 341.39335 
L 294.278509 341.14508 
L 301.254859 340.893921 
L 308.231209 340.642041 
L 315.207559 340.390496 
L 322.183909 340.139457 
L 329.16026 339.851059 
L 336.13661 339.617048 
L 343.11296 339.383037 
L 350.08931 339.133536 
L 357.065661 338.882183 
L 364.042011 338.591996 
L 371.018361 338.282064 
L 377.994711 338.020249 
L 384.971062 337.784495 
L 391.947412 337.548741 
L 398.923762 337.312987 
L 405.900112 337.077233 
L 412.876463 336.841478 
L 419.852813 336.605724 
L 426.829163 336.367087 
L 433.805513 336.116025 
L 440.781864 335.864962 
L 447.758214 335.6139 
L 454.734564 335.362838 
L 461.710914 335.111775 
L 468.687265 334.860713 
L 475.663615 334.60965 
L 482.639965 334.358474 
L 489.616315 334.106967 
L 496.592666 333.85546 
L 503.569016 333.603953 
L 510.545366 333.352446 
L 517.521716 333.100939 
L 524.498067 332.849432 
L 531.474417 332.597925 
L 538.450767 332.346418 
L 545.427117 332.094911 
L 552.403468 331.843404 
L 559.379818 331.591897 
L 566.356168 331.34039 
L 573.332518 331.088883 
L 580.308869 330.837376 
L 587.285219 330.585869 
L 594.261569 330.334362 
L 601.237919 330.082855 
L 608.214269 329.831348 
L 615.19062 329.579841 
L 622.16697 329.328334 
L 629.14332 329.076827 
L 636.11967 328.82532 
L 643.096021 328.573813 
L 650.072371 328.322306 
L 657.048721 328.070799 
L 664.025071 327.819292 
L 671.001422 327.567785 
L 677.977772 327.316278 
L 684.954122 327.064771 
L 691.930472 326.813264 
L 698.906823 326.561757 
L 705.883173 326.311186 
L 712.859523 326.066838 
L 719.835873 325.822491 
L 726.812224 325.578143 
L 733.788574 325.333795 
L 740.764924 325.089448 
L 740.764924 264.711024 
L 740.764924 264.711024 
L 733.788574 265.766565 
L 726.812224 266.822107 
L 719.835873 267.877649 
L 712.859523 268.93319 
L 705.883173 269.988732 
L 698.906823 271.044274 
L 691.930472 272.099815 
L 684.954122 273.155357 
L 677.977772 274.210899 
L 671.001422 275.26644 
L 664.025071 276.321982 
L 657.048721 277.366677 
L 650.072371 278.379031 
L 643.096021 279.391384 
L 636.11967 280.403738 
L 629.14332 281.41652 
L 622.16697 282.429511 
L 615.19062 283.442503 
L 608.214269 284.455494 
L 601.237919 285.468486 
L 594.261569 286.481477 
L 587.285219 287.495508 
L 580.308869 288.509599 
L 573.332518 289.52369 
L 566.356168 290.53778 
L 559.379818 291.649286 
L 552.403468 292.684972 
L 545.427117 293.694397 
L 538.450767 294.705151 
L 531.474417 295.772977 
L 524.498067 296.892478 
L 517.521716 297.966705 
L 510.545366 298.957331 
L 503.569016 300.018161 
L 496.592666 301.089247 
L 489.616315 302.160332 
L 482.639965 303.213455 
L 475.663615 304.203372 
L 468.687265 305.194041 
L 461.710914 306.186767 
L 454.734564 307.179494 
L 447.758214 308.220013 
L 440.781864 309.277554 
L 433.805513 310.282309 
L 426.829163 311.287064 
L 419.852813 312.293243 
L 412.876463 313.300431 
L 405.900112 314.360817 
L 398.923762 315.44664 
L 391.947412 316.533647 
L 384.971062 317.616636 
L 377.994711 318.596857 
L 371.018361 319.646399 
L 364.042011 320.724739 
L 357.065661 321.8039 
L 350.08931 322.873225 
L 343.11296 323.853164 
L 336.13661 324.856395 
L 329.16026 325.867498 
L 322.183909 326.880535 
L 315.207559 327.894058 
L 308.231209 328.907581 
L 301.254859 329.920949 
L 294.278509 330.920811 
L 287.302158 331.912637 
L 280.325808 332.839955 
L 273.349458 333.732638 
L 266.373108 334.604413 
L 259.396757 335.511611 
L 252.420407 336.50117 
L 245.444057 337.403072 
L 238.467707 338.215399 
L 231.491356 339.114685 
L 224.515006 339.85883 
L 217.538656 340.546813 
L 210.562306 341.293085 
L 203.585955 341.848886 
L 196.609605 342.370259 
L 189.633255 342.924945 
L 182.656905 343.309001 
L 175.680554 343.751155 
L 168.704204 344.23016 
L 161.727854 344.571532 
L 154.751504 344.938628 
L 147.775153 345.343455 
L 140.798803 345.738158 
L 133.822453 346.015271 
L 126.846103 346.331678 
L 119.869752 346.656025 
L 112.893402 346.996562 
L 105.917052 347.294667 
L 98.940702 347.546891 
L 91.964351 347.828853 
L 84.988001 348.10959 
L 78.011651 348.375137 
L 71.035301 348.655005 
L 64.05895 348.955648 
L 57.0826 349.206214 
L 50.10625 349.485672 
z
" style="fill:#2ca02c;fill-opacity:0.15;"/>
   </g>
   <g id="line2d_25">
    <path clip-path="url(#p4d0beb1d08)" d="M 50.10625 362.568329 
L 57.0826 359.910952 
L 64.05895 357.253576 
L 71.035301 354.596199 
L 78.011651 351.938823 
L 84.988001 349.281447 
L 91.964351 346.62407 
L 98.940702 343.966694 
L 105.917052 341.309317 
L 112.893402 338.651941 
L 119.869752 335.994565 
L 126.846103 333.337188 
L 133.822453 330.679812 
L 140.798803 328.022435 
L 147.775153 325.365059 
L 154.751504 322.707683 
L 161.727854 320.050306 
L 168.704204 317.39293 
L 175.680554 314.735553 
L 182.656905 312.078177 
L 189.633255 309.420801 
L 196.609605 306.763424 
L 203.585955 304.106048 
L 210.562306 301.448671 
L 217.538656 298.791295 
L 224.515006 296.133919 
L 231.491356 293.476542 
L 238.467707 290.819166 
L 245.444057 288.161789 
L 252.420407 285.504413 
L 259.396757 282.847037 
L 266.373108 280.18966 
L 273.349458 277.532284 
L 280.325808 274.874907 
L 287.302158 272.217531 
L 294.278509 269.560155 
L 301.254859 266.902778 
L 308.231209 264.245402 
L 315.207559 261.588025 
L 322.183909 258.930649 
L 329.16026 256.273273 
L 336.13661 253.615896 
L 343.11296 250.95852 
L 350.08931 248.301143 
L 357.065661 245.643767 
L 364.042011 242.986391 
L 371.018361 240.329014 
L 377.994711 237.671638 
L 384.971062 235.014261 
L 391.947412 232.356885 
L 398.923762 229.699509 
L 405.900112 227.042132 
L 412.876463 224.384756 
L 419.852813 221.727379 
L 426.829163 219.070003 
L 433.805513 216.412627 
L 440.781864 213.75525 
L 447.758214 211.097874 
L 454.734564 208.440497 
L 461.710914 205.783121 
L 468.687265 203.125745 
L 475.663615 200.468368 
L 482.639965 197.810992 
L 489.616315 195.153615 
L 496.592666 192.496239 
L 503.569016 189.838863 
L 510.545366 187.181486 
L 517.521716 184.52411 
L 524.498067 181.866733 
L 531.474417 179.209357 
L 538.450767 176.551981 
L 545.427117 173.894604 
L 552.403468 171.237228 
L 559.379818 168.579851 
L 566.356168 165.922475 
L 573.332518 163.265099 
L 580.308869 160.607722 
L 587.285219 157.950346 
L 594.261569 155.292969 
L 601.237919 152.635593 
L 608.214269 149.978217 
L 615.19062 147.32084 
L 622.16697 144.663464 
L 629.14332 142.006087 
L 636.11967 139.348711 
L 643.096021 136.691334 
L 650.072371 134.033958 
L 657.048721 131.376582 
L 664.025071 128.719205 
L 671.001422 126.061829 
L 677.977772 123.404452 
L 684.954122 120.747076 
L 691.930472 118.0897 
L 698.906823 115.432323 
L 705.883173 112.774947 
L 712.859523 110.11757 
L 719.835873 107.460194 
L 726.812224 104.802818 
L 733.788574 102.145441 
L 740.764924 99.488065 
" style="fill:none;stroke:#1f77b4;stroke-linecap:round;stroke-width:2.25;"/>
   </g>
   <g id="line2d_26">
    <path clip-path="url(#p4d0beb1d08)" d="M 50.10625 372.44608 
L 57.0826 370.047823 
L 64.05895 367.649567 
L 71.035301 365.251311 
L 78.011651 362.853055 
L 84.988001 360.454799 
L 91.964351 358.056542 
L 98.940702 355.658286 
L 105.917052 353.26003 
L 112.893402 350.861774 
L 119.869752 348.463518 
L 126.846103 346.065262 
L 133.822453 343.667005 
L 140.798803 341.268749 
L 147.775153 338.870493 
L 154.751504 336.472237 
L 161.727854 334.073981 
L 168.704204 331.675724 
L 175.680554 329.277468 
L 182.656905 326.879212 
L 189.633255 324.480956 
L 196.609605 322.0827 
L 203.585955 319.684444 
L 210.562306 317.286187 
L 217.538656 314.887931 
L 224.515006 312.489675 
L 231.491356 310.091419 
L 238.467707 307.693163 
L 245.444057 305.294906 
L 252.420407 302.89665 
L 259.396757 300.498394 
L 266.373108 298.100138 
L 273.349458 295.701882 
L 280.325808 293.303626 
L 287.302158 290.905369 
L 294.278509 288.507113 
L 301.254859 286.108857 
L 308.231209 283.710601 
L 315.207559 281.312345 
L 322.183909 278.914088 
L 329.16026 276.515832 
L 336.13661 274.117576 
L 343.11296 271.71932 
L 350.08931 269.321064 
L 357.065661 266.922807 
L 364.042011 264.524551 
L 371.018361 262.126295 
L 377.994711 259.728039 
L 384.971062 257.329783 
L 391.947412 254.931527 
L 398.923762 252.53327 
L 405.900112 250.135014 
L 412.876463 247.736758 
L 419.852813 245.338502 
L 426.829163 242.940246 
L 433.805513 240.541989 
L 440.781864 238.143733 
L 447.758214 235.745477 
L 454.734564 233.347221 
L 461.710914 230.948965 
L 468.687265 228.550709 
L 475.663615 226.152452 
L 482.639965 223.754196 
L 489.616315 221.35594 
L 496.592666 218.957684 
L 503.569016 216.559428 
L 510.545366 214.161171 
L 517.521716 211.762915 
L 524.498067 209.364659 
L 531.474417 206.966403 
L 538.450767 204.568147 
L 545.427117 202.169891 
L 552.403468 199.771634 
L 559.379818 197.373378 
L 566.356168 194.975122 
L 573.332518 192.576866 
L 580.308869 190.17861 
L 587.285219 187.780353 
L 594.261569 185.382097 
L 601.237919 182.983841 
L 608.214269 180.585585 
L 615.19062 178.187329 
L 622.16697 175.789073 
L 629.14332 173.390816 
L 636.11967 170.99256 
L 643.096021 168.594304 
L 650.072371 166.196048 
L 657.048721 163.797792 
L 664.025071 161.399535 
L 671.001422 159.001279 
L 677.977772 156.603023 
L 684.954122 154.204767 
L 691.930472 151.806511 
L 698.906823 149.408255 
L 705.883173 147.009998 
L 712.859523 144.611742 
L 719.835873 142.213486 
L 726.812224 139.81523 
L 733.788574 137.416974 
L 740.764924 135.018717 
" style="fill:none;stroke:#ff7f0e;stroke-linecap:round;stroke-width:2.25;"/>
   </g>
   <g id="line2d_27">
    <path clip-path="url(#p4d0beb1d08)" d="M 50.10625 360.297778 
L 57.0826 359.593231 
L 64.05895 358.888684 
L 71.035301 358.184137 
L 78.011651 357.47959 
L 84.988001 356.775043 
L 91.964351 356.070497 
L 98.940702 355.36595 
L 105.917052 354.661403 
L 112.893402 353.956856 
L 119.869752 353.252309 
L 126.846103 352.547762 
L 133.822453 351.843216 
L 140.798803 351.138669 
L 147.775153 350.434122 
L 154.751504 349.729575 
L 161.727854 349.025028 
L 168.704204 348.320481 
L 175.680554 347.615935 
L 182.656905 346.911388 
L 189.633255 346.206841 
L 196.609605 345.502294 
L 203.585955 344.797747 
L 210.562306 344.0932 
L 217.538656 343.388654 
L 224.515006 342.684107 
L 231.491356 341.97956 
L 238.467707 341.275013 
L 245.444057 340.570466 
L 252.420407 339.86592 
L 259.396757 339.161373 
L 266.373108 338.456826 
L 273.349458 337.752279 
L 280.325808 337.047732 
L 287.302158 336.343185 
L 294.278509 335.638639 
L 301.254859 334.934092 
L 308.231209 334.229545 
L 315.207559 333.524998 
L 322.183909 332.820451 
L 329.16026 332.115904 
L 336.13661 331.411358 
L 343.11296 330.706811 
L 350.08931 330.002264 
L 357.065661 329.297717 
L 364.042011 328.59317 
L 371.018361 327.888623 
L 377.994711 327.184077 
L 384.971062 326.47953 
L 391.947412 325.774983 
L 398.923762 325.070436 
L 405.900112 324.365889 
L 412.876463 323.661342 
L 419.852813 322.956796 
L 426.829163 322.252249 
L 433.805513 321.547702 
L 440.781864 320.843155 
L 447.758214 320.138608 
L 454.734564 319.434062 
L 461.710914 318.729515 
L 468.687265 318.024968 
L 475.663615 317.320421 
L 482.639965 316.615874 
L 489.616315 315.911327 
L 496.592666 315.206781 
L 503.569016 314.502234 
L 510.545366 313.797687 
L 517.521716 313.09314 
L 524.498067 312.388593 
L 531.474417 311.684046 
L 538.450767 310.9795 
L 545.427117 310.274953 
L 552.403468 309.570406 
L 559.379818 308.865859 
L 566.356168 308.161312 
L 573.332518 307.456765 
L 580.308869 306.752219 
L 587.285219 306.047672 
L 594.261569 305.343125 
L 601.237919 304.638578 
L 608.214269 303.934031 
L 615.19062 303.229484 
L 622.16697 302.524938 
L 629.14332 301.820391 
L 636.11967 301.115844 
L 643.096021 300.411297 
L 650.072371 299.70675 
L 657.048721 299.002204 
L 664.025071 298.297657 
L 671.001422 297.59311 
L 677.977772 296.888563 
L 684.954122 296.184016 
L 691.930472 295.479469 
L 698.906823 294.774923 
L 705.883173 294.070376 
L 712.859523 293.365829 
L 719.835873 292.661282 
L 726.812224 291.956735 
L 733.788574 291.252188 
L 740.764924 290.547642 
" style="fill:none;stroke:#2ca02c;stroke-linecap:round;stroke-width:2.25;"/>
   </g>
   <g id="patch_3">
    <path d="M 50.10625 389.83875 
L 50.10625 7.2 
" style="fill:none;"/>
   </g>
   <g id="patch_4">
    <path d="M 50.10625 389.83875 
L 740.764924 389.83875 
" style="fill:none;"/>
   </g>
  </g>
  <g id="legend_1">
   <g id="text_15">
    <!-- Net -->
    <defs>
     <path d="M 9.8125 72.90625 
L 23.09375 72.90625 
L 55.421875 11.921875 
L 55.421875 72.90625 
L 64.984375 72.90625 
L 64.984375 0 
L 51.703125 0 
L 19.390625 60.984375 
L 19.390625 0 
L 9.8125 0 
z
" id="DejaVuSans-4e"/>
    </defs>
    <g style="fill:#262626;" transform="translate(760.121424 192.82875)scale(0.1 -0.1)">
     <use xlink:href="#DejaVuSans-4e"/>
     <use x="74.804688" xlink:href="#DejaVuSans-65"/>
     <use x="136.328125" xlink:href="#DejaVuSans-74"/>
    </g>
   </g>
   <g id="PathCollection_4">
    <g>
     <use style="fill:#1f77b4;fill-opacity:0.8;stroke:#1f77b4;stroke-opacity:0.8;" x="759.913612" xlink:href="#m82cd0ec2a6" y="204.881875"/>
    </g>
   </g>
   <g id="text_16">
    <!-- -1 -->
    <defs>
     <path d="M 4.890625 31.390625 
L 31.203125 31.390625 
L 31.203125 23.390625 
L 4.890625 23.390625 
z
" id="DejaVuSans-2d"/>
    </defs>
    <g style="fill:#262626;" transform="translate(777.913612 207.506875)scale(0.1 -0.1)">
     <use xlink:href="#DejaVuSans-2d"/>
     <use x="36.083984" xlink:href="#DejaVuSans-31"/>
    </g>
   </g>
   <g id="PathCollection_5">
    <g>
     <use style="fill:#ff7f0e;fill-opacity:0.8;stroke:#ff7f0e;stroke-opacity:0.8;" x="759.913612" xlink:href="#mf0f64be55c" y="219.56"/>
    </g>
   </g>
   <g id="text_17">
    <!-- 0 -->
    <g style="fill:#262626;" transform="translate(777.913612 222.185)scale(0.1 -0.1)">
     <use xlink:href="#DejaVuSans-30"/>
    </g>
   </g>
   <g id="PathCollection_6">
    <g>
     <use style="fill:#2ca02c;fill-opacity:0.8;stroke:#2ca02c;stroke-opacity:0.8;" x="759.913612" xlink:href="#m99724d2c33" y="234.238125"/>
    </g>
   </g>
   <g id="text_18">
    <!-- 1 -->
    <g style="fill:#262626;" transform="translate(777.913612 236.863125)scale(0.1 -0.1)">
     <use xlink:href="#DejaVuSans-31"/>
    </g>
   </g>
  </g>
 </g>
 <defs>
  <clipPath id="p4d0beb1d08">
   <rect height="382.63875" width="690.658674" x="50.10625" y="7.2"/>
  </clipPath>
 </defs>
</svg>
