<?xml version="1.0" encoding="utf-8" standalone="no"?>
<!DOCTYPE svg PUBLIC "-//W3C//DTD SVG 1.1//EN"
  "http://www.w3.org/Graphics/SVG/1.1/DTD/svg11.dtd">
<!-- Created with matplotlib (http://matplotlib.org/) -->
<svg height="424pt" version="1.1" viewBox="0 0 796 424" width="796pt" xmlns="http://www.w3.org/2000/svg" xmlns:xlink="http://www.w3.org/1999/xlink">
 <defs>
  <style type="text/css">
*{stroke-linecap:butt;stroke-linejoin:round;}
  </style>
 </defs>
 <g id="figure_1">
  <g id="patch_1">
   <path d="M -0 424.173125 
L 796.883924 424.173125 
L 796.883924 0 
L -0 0 
z
" style="fill:#ffffff;"/>
  </g>
  <g id="axes_1">
   <g id="patch_2">
    <path d="M 50.10625 389.83875 
L 740.764924 389.83875 
L 740.764924 7.2 
L 50.10625 7.2 
z
" style="fill:#eaeaf2;"/>
   </g>
   <g id="matplotlib.axis_1">
    <g id="xtick_1">
     <g id="line2d_1">
      <path clip-path="url(#p09ab319efb)" d="M 111.856212 389.83875 
L 111.856212 7.2 
" style="fill:none;stroke:#ffffff;stroke-linecap:round;stroke-width:0.8;"/>
     </g>
     <g id="line2d_2"/>
     <g id="text_1">
      <!-- 0 -->
      <defs>
       <path d="M 31.78125 66.40625 
Q 24.171875 66.40625 20.328125 58.90625 
Q 16.5 51.421875 16.5 36.375 
Q 16.5 21.390625 20.328125 13.890625 
Q 24.171875 6.390625 31.78125 6.390625 
Q 39.453125 6.390625 43.28125 13.890625 
Q 47.125 21.390625 47.125 36.375 
Q 47.125 51.421875 43.28125 58.90625 
Q 39.453125 66.40625 31.78125 66.40625 
z
M 31.78125 74.21875 
Q 44.046875 74.21875 50.515625 64.515625 
Q 56.984375 54.828125 56.984375 36.375 
Q 56.984375 17.96875 50.515625 8.265625 
Q 44.046875 -1.421875 31.78125 -1.421875 
Q 19.53125 -1.421875 13.0625 8.265625 
Q 6.59375 17.96875 6.59375 36.375 
Q 6.59375 54.828125 13.0625 64.515625 
Q 19.53125 74.21875 31.78125 74.21875 
z
" id="DejaVuSans-30"/>
      </defs>
      <g style="fill:#262626;" transform="translate(108.674962 400.937187)scale(0.1 -0.1)">
       <use xlink:href="#DejaVuSans-30"/>
      </g>
     </g>
    </g>
    <g id="xtick_2">
     <g id="line2d_3">
      <path clip-path="url(#p09ab319efb)" d="M 257.418879 389.83875 
L 257.418879 7.2 
" style="fill:none;stroke:#ffffff;stroke-linecap:round;stroke-width:0.8;"/>
     </g>
     <g id="line2d_4"/>
     <g id="text_2">
      <!-- 200 -->
      <defs>
       <path d="M 19.1875 8.296875 
L 53.609375 8.296875 
L 53.609375 0 
L 7.328125 0 
L 7.328125 8.296875 
Q 12.9375 14.109375 22.625 23.890625 
Q 32.328125 33.6875 34.8125 36.53125 
Q 39.546875 41.84375 41.421875 45.53125 
Q 43.3125 49.21875 43.3125 52.78125 
Q 43.3125 58.59375 39.234375 62.25 
Q 35.15625 65.921875 28.609375 65.921875 
Q 23.96875 65.921875 18.8125 64.3125 
Q 13.671875 62.703125 7.8125 59.421875 
L 7.8125 69.390625 
Q 13.765625 71.78125 18.9375 73 
Q 24.125 74.21875 28.421875 74.21875 
Q 39.75 74.21875 46.484375 68.546875 
Q 53.21875 62.890625 53.21875 53.421875 
Q 53.21875 48.921875 51.53125 44.890625 
Q 49.859375 40.875 45.40625 35.40625 
Q 44.1875 33.984375 37.640625 27.21875 
Q 31.109375 20.453125 19.1875 8.296875 
z
" id="DejaVuSans-32"/>
      </defs>
      <g style="fill:#262626;" transform="translate(247.875129 400.937187)scale(0.1 -0.1)">
       <use xlink:href="#DejaVuSans-32"/>
       <use x="63.623047" xlink:href="#DejaVuSans-30"/>
       <use x="127.246094" xlink:href="#DejaVuSans-30"/>
      </g>
     </g>
    </g>
    <g id="xtick_3">
     <g id="line2d_5">
      <path clip-path="url(#p09ab319efb)" d="M 402.981545 389.83875 
L 402.981545 7.2 
" style="fill:none;stroke:#ffffff;stroke-linecap:round;stroke-width:0.8;"/>
     </g>
     <g id="line2d_6"/>
     <g id="text_3">
      <!-- 400 -->
      <defs>
       <path d="M 37.796875 64.3125 
L 12.890625 25.390625 
L 37.796875 25.390625 
z
M 35.203125 72.90625 
L 47.609375 72.90625 
L 47.609375 25.390625 
L 58.015625 25.390625 
L 58.015625 17.1875 
L 47.609375 17.1875 
L 47.609375 0 
L 37.796875 0 
L 37.796875 17.1875 
L 4.890625 17.1875 
L 4.890625 26.703125 
z
" id="DejaVuSans-34"/>
      </defs>
      <g style="fill:#262626;" transform="translate(393.437795 400.937187)scale(0.1 -0.1)">
       <use xlink:href="#DejaVuSans-34"/>
       <use x="63.623047" xlink:href="#DejaVuSans-30"/>
       <use x="127.246094" xlink:href="#DejaVuSans-30"/>
      </g>
     </g>
    </g>
    <g id="xtick_4">
     <g id="line2d_7">
      <path clip-path="url(#p09ab319efb)" d="M 548.544212 389.83875 
L 548.544212 7.2 
" style="fill:none;stroke:#ffffff;stroke-linecap:round;stroke-width:0.8;"/>
     </g>
     <g id="line2d_8"/>
     <g id="text_4">
      <!-- 600 -->
      <defs>
       <path d="M 33.015625 40.375 
Q 26.375 40.375 22.484375 35.828125 
Q 18.609375 31.296875 18.609375 23.390625 
Q 18.609375 15.53125 22.484375 10.953125 
Q 26.375 6.390625 33.015625 6.390625 
Q 39.65625 6.390625 43.53125 10.953125 
Q 47.40625 15.53125 47.40625 23.390625 
Q 47.40625 31.296875 43.53125 35.828125 
Q 39.65625 40.375 33.015625 40.375 
z
M 52.59375 71.296875 
L 52.59375 62.3125 
Q 48.875 64.0625 45.09375 64.984375 
Q 41.3125 65.921875 37.59375 65.921875 
Q 27.828125 65.921875 22.671875 59.328125 
Q 17.53125 52.734375 16.796875 39.40625 
Q 19.671875 43.65625 24.015625 45.921875 
Q 28.375 48.1875 33.59375 48.1875 
Q 44.578125 48.1875 50.953125 41.515625 
Q 57.328125 34.859375 57.328125 23.390625 
Q 57.328125 12.15625 50.6875 5.359375 
Q 44.046875 -1.421875 33.015625 -1.421875 
Q 20.359375 -1.421875 13.671875 8.265625 
Q 6.984375 17.96875 6.984375 36.375 
Q 6.984375 53.65625 15.1875 63.9375 
Q 23.390625 74.21875 37.203125 74.21875 
Q 40.921875 74.21875 44.703125 73.484375 
Q 48.484375 72.75 52.59375 71.296875 
z
" id="DejaVuSans-36"/>
      </defs>
      <g style="fill:#262626;" transform="translate(539.000462 400.937187)scale(0.1 -0.1)">
       <use xlink:href="#DejaVuSans-36"/>
       <use x="63.623047" xlink:href="#DejaVuSans-30"/>
       <use x="127.246094" xlink:href="#DejaVuSans-30"/>
      </g>
     </g>
    </g>
    <g id="xtick_5">
     <g id="line2d_9">
      <path clip-path="url(#p09ab319efb)" d="M 694.106879 389.83875 
L 694.106879 7.2 
" style="fill:none;stroke:#ffffff;stroke-linecap:round;stroke-width:0.8;"/>
     </g>
     <g id="line2d_10"/>
     <g id="text_5">
      <!-- 800 -->
      <defs>
       <path d="M 31.78125 34.625 
Q 24.75 34.625 20.71875 30.859375 
Q 16.703125 27.09375 16.703125 20.515625 
Q 16.703125 13.921875 20.71875 10.15625 
Q 24.75 6.390625 31.78125 6.390625 
Q 38.8125 6.390625 42.859375 10.171875 
Q 46.921875 13.96875 46.921875 20.515625 
Q 46.921875 27.09375 42.890625 30.859375 
Q 38.875 34.625 31.78125 34.625 
z
M 21.921875 38.8125 
Q 15.578125 40.375 12.03125 44.71875 
Q 8.5 49.078125 8.5 55.328125 
Q 8.5 64.0625 14.71875 69.140625 
Q 20.953125 74.21875 31.78125 74.21875 
Q 42.671875 74.21875 48.875 69.140625 
Q 55.078125 64.0625 55.078125 55.328125 
Q 55.078125 49.078125 51.53125 44.71875 
Q 48 40.375 41.703125 38.8125 
Q 48.828125 37.15625 52.796875 32.3125 
Q 56.78125 27.484375 56.78125 20.515625 
Q 56.78125 9.90625 50.3125 4.234375 
Q 43.84375 -1.421875 31.78125 -1.421875 
Q 19.734375 -1.421875 13.25 4.234375 
Q 6.78125 9.90625 6.78125 20.515625 
Q 6.78125 27.484375 10.78125 32.3125 
Q 14.796875 37.15625 21.921875 38.8125 
z
M 18.3125 54.390625 
Q 18.3125 48.734375 21.84375 45.5625 
Q 25.390625 42.390625 31.78125 42.390625 
Q 38.140625 42.390625 41.71875 45.5625 
Q 45.3125 48.734375 45.3125 54.390625 
Q 45.3125 60.0625 41.71875 63.234375 
Q 38.140625 66.40625 31.78125 66.40625 
Q 25.390625 66.40625 21.84375 63.234375 
Q 18.3125 60.0625 18.3125 54.390625 
z
" id="DejaVuSans-38"/>
      </defs>
      <g style="fill:#262626;" transform="translate(684.563129 400.937187)scale(0.1 -0.1)">
       <use xlink:href="#DejaVuSans-38"/>
       <use x="63.623047" xlink:href="#DejaVuSans-30"/>
       <use x="127.246094" xlink:href="#DejaVuSans-30"/>
      </g>
     </g>
    </g>
    <g id="text_6">
     <!-- Sum_Credit -->
     <defs>
      <path d="M 53.515625 70.515625 
L 53.515625 60.890625 
Q 47.90625 63.578125 42.921875 64.890625 
Q 37.9375 66.21875 33.296875 66.21875 
Q 25.25 66.21875 20.875 63.09375 
Q 16.5 59.96875 16.5 54.203125 
Q 16.5 49.359375 19.40625 46.890625 
Q 22.3125 44.4375 30.421875 42.921875 
L 36.375 41.703125 
Q 47.40625 39.59375 52.65625 34.296875 
Q 57.90625 29 57.90625 20.125 
Q 57.90625 9.515625 50.796875 4.046875 
Q 43.703125 -1.421875 29.984375 -1.421875 
Q 24.8125 -1.421875 18.96875 -0.25 
Q 13.140625 0.921875 6.890625 3.21875 
L 6.890625 13.375 
Q 12.890625 10.015625 18.65625 8.296875 
Q 24.421875 6.59375 29.984375 6.59375 
Q 38.421875 6.59375 43.015625 9.90625 
Q 47.609375 13.234375 47.609375 19.390625 
Q 47.609375 24.75 44.3125 27.78125 
Q 41.015625 30.8125 33.5 32.328125 
L 27.484375 33.5 
Q 16.453125 35.6875 11.515625 40.375 
Q 6.59375 45.0625 6.59375 53.421875 
Q 6.59375 63.09375 13.40625 68.65625 
Q 20.21875 74.21875 32.171875 74.21875 
Q 37.3125 74.21875 42.625 73.28125 
Q 47.953125 72.359375 53.515625 70.515625 
z
" id="DejaVuSans-53"/>
      <path d="M 8.5 21.578125 
L 8.5 54.6875 
L 17.484375 54.6875 
L 17.484375 21.921875 
Q 17.484375 14.15625 20.5 10.265625 
Q 23.53125 6.390625 29.59375 6.390625 
Q 36.859375 6.390625 41.078125 11.03125 
Q 45.3125 15.671875 45.3125 23.6875 
L 45.3125 54.6875 
L 54.296875 54.6875 
L 54.296875 0 
L 45.3125 0 
L 45.3125 8.40625 
Q 42.046875 3.421875 37.71875 1 
Q 33.40625 -1.421875 27.6875 -1.421875 
Q 18.265625 -1.421875 13.375 4.4375 
Q 8.5 10.296875 8.5 21.578125 
z
M 31.109375 56 
z
" id="DejaVuSans-75"/>
      <path d="M 52 44.1875 
Q 55.375 50.25 60.0625 53.125 
Q 64.75 56 71.09375 56 
Q 79.640625 56 84.28125 50.015625 
Q 88.921875 44.046875 88.921875 33.015625 
L 88.921875 0 
L 79.890625 0 
L 79.890625 32.71875 
Q 79.890625 40.578125 77.09375 44.375 
Q 74.3125 48.1875 68.609375 48.1875 
Q 61.625 48.1875 57.5625 43.546875 
Q 53.515625 38.921875 53.515625 30.90625 
L 53.515625 0 
L 44.484375 0 
L 44.484375 32.71875 
Q 44.484375 40.625 41.703125 44.40625 
Q 38.921875 48.1875 33.109375 48.1875 
Q 26.21875 48.1875 22.15625 43.53125 
Q 18.109375 38.875 18.109375 30.90625 
L 18.109375 0 
L 9.078125 0 
L 9.078125 54.6875 
L 18.109375 54.6875 
L 18.109375 46.1875 
Q 21.1875 51.21875 25.484375 53.609375 
Q 29.78125 56 35.6875 56 
Q 41.65625 56 45.828125 52.96875 
Q 50 49.953125 52 44.1875 
z
" id="DejaVuSans-6d"/>
      <path d="M 50.984375 -16.609375 
L 50.984375 -23.578125 
L -0.984375 -23.578125 
L -0.984375 -16.609375 
z
" id="DejaVuSans-5f"/>
      <path d="M 64.40625 67.28125 
L 64.40625 56.890625 
Q 59.421875 61.53125 53.78125 63.8125 
Q 48.140625 66.109375 41.796875 66.109375 
Q 29.296875 66.109375 22.65625 58.46875 
Q 16.015625 50.828125 16.015625 36.375 
Q 16.015625 21.96875 22.65625 14.328125 
Q 29.296875 6.6875 41.796875 6.6875 
Q 48.140625 6.6875 53.78125 8.984375 
Q 59.421875 11.28125 64.40625 15.921875 
L 64.40625 5.609375 
Q 59.234375 2.09375 53.4375 0.328125 
Q 47.65625 -1.421875 41.21875 -1.421875 
Q 24.65625 -1.421875 15.125 8.703125 
Q 5.609375 18.84375 5.609375 36.375 
Q 5.609375 53.953125 15.125 64.078125 
Q 24.65625 74.21875 41.21875 74.21875 
Q 47.75 74.21875 53.53125 72.484375 
Q 59.328125 70.75 64.40625 67.28125 
z
" id="DejaVuSans-43"/>
      <path d="M 41.109375 46.296875 
Q 39.59375 47.171875 37.8125 47.578125 
Q 36.03125 48 33.890625 48 
Q 26.265625 48 22.1875 43.046875 
Q 18.109375 38.09375 18.109375 28.8125 
L 18.109375 0 
L 9.078125 0 
L 9.078125 54.6875 
L 18.109375 54.6875 
L 18.109375 46.1875 
Q 20.953125 51.171875 25.484375 53.578125 
Q 30.03125 56 36.53125 56 
Q 37.453125 56 38.578125 55.875 
Q 39.703125 55.765625 41.0625 55.515625 
z
" id="DejaVuSans-72"/>
      <path d="M 56.203125 29.59375 
L 56.203125 25.203125 
L 14.890625 25.203125 
Q 15.484375 15.921875 20.484375 11.0625 
Q 25.484375 6.203125 34.421875 6.203125 
Q 39.59375 6.203125 44.453125 7.46875 
Q 49.3125 8.734375 54.109375 11.28125 
L 54.109375 2.78125 
Q 49.265625 0.734375 44.1875 -0.34375 
Q 39.109375 -1.421875 33.890625 -1.421875 
Q 20.796875 -1.421875 13.15625 6.1875 
Q 5.515625 13.8125 5.515625 26.8125 
Q 5.515625 40.234375 12.765625 48.109375 
Q 20.015625 56 32.328125 56 
Q 43.359375 56 49.78125 48.890625 
Q 56.203125 41.796875 56.203125 29.59375 
z
M 47.21875 32.234375 
Q 47.125 39.59375 43.09375 43.984375 
Q 39.0625 48.390625 32.421875 48.390625 
Q 24.90625 48.390625 20.390625 44.140625 
Q 15.875 39.890625 15.1875 32.171875 
z
" id="DejaVuSans-65"/>
      <path d="M 45.40625 46.390625 
L 45.40625 75.984375 
L 54.390625 75.984375 
L 54.390625 0 
L 45.40625 0 
L 45.40625 8.203125 
Q 42.578125 3.328125 38.25 0.953125 
Q 33.9375 -1.421875 27.875 -1.421875 
Q 17.96875 -1.421875 11.734375 6.484375 
Q 5.515625 14.40625 5.515625 27.296875 
Q 5.515625 40.1875 11.734375 48.09375 
Q 17.96875 56 27.875 56 
Q 33.9375 56 38.25 53.625 
Q 42.578125 51.265625 45.40625 46.390625 
z
M 14.796875 27.296875 
Q 14.796875 17.390625 18.875 11.75 
Q 22.953125 6.109375 30.078125 6.109375 
Q 37.203125 6.109375 41.296875 11.75 
Q 45.40625 17.390625 45.40625 27.296875 
Q 45.40625 37.203125 41.296875 42.84375 
Q 37.203125 48.484375 30.078125 48.484375 
Q 22.953125 48.484375 18.875 42.84375 
Q 14.796875 37.203125 14.796875 27.296875 
z
" id="DejaVuSans-64"/>
      <path d="M 9.421875 54.6875 
L 18.40625 54.6875 
L 18.40625 0 
L 9.421875 0 
z
M 9.421875 75.984375 
L 18.40625 75.984375 
L 18.40625 64.59375 
L 9.421875 64.59375 
z
" id="DejaVuSans-69"/>
      <path d="M 18.3125 70.21875 
L 18.3125 54.6875 
L 36.8125 54.6875 
L 36.8125 47.703125 
L 18.3125 47.703125 
L 18.3125 18.015625 
Q 18.3125 11.328125 20.140625 9.421875 
Q 21.96875 7.515625 27.59375 7.515625 
L 36.8125 7.515625 
L 36.8125 0 
L 27.59375 0 
Q 17.1875 0 13.234375 3.875 
Q 9.28125 7.765625 9.28125 18.015625 
L 9.28125 47.703125 
L 2.6875 47.703125 
L 2.6875 54.6875 
L 9.28125 54.6875 
L 9.28125 70.21875 
z
" id="DejaVuSans-74"/>
     </defs>
     <g style="fill:#262626;" transform="translate(366.576993 414.615312)scale(0.1 -0.1)">
      <use xlink:href="#DejaVuSans-53"/>
      <use x="63.476562" xlink:href="#DejaVuSans-75"/>
      <use x="126.855469" xlink:href="#DejaVuSans-6d"/>
      <use x="224.267578" xlink:href="#DejaVuSans-5f"/>
      <use x="274.267578" xlink:href="#DejaVuSans-43"/>
      <use x="344.091797" xlink:href="#DejaVuSans-72"/>
      <use x="385.173828" xlink:href="#DejaVuSans-65"/>
      <use x="446.697266" xlink:href="#DejaVuSans-64"/>
      <use x="510.173828" xlink:href="#DejaVuSans-69"/>
      <use x="537.957031" xlink:href="#DejaVuSans-74"/>
     </g>
    </g>
   </g>
   <g id="matplotlib.axis_2">
    <g id="ytick_1">
     <g id="line2d_11">
      <path clip-path="url(#p09ab319efb)" d="M 50.10625 350.699624 
L 740.764924 350.699624 
" style="fill:none;stroke:#ffffff;stroke-linecap:round;stroke-width:0.8;"/>
     </g>
     <g id="line2d_12"/>
     <g id="text_7">
      <!-- 0 -->
      <g style="fill:#262626;" transform="translate(40.24375 354.498843)scale(0.1 -0.1)">
       <use xlink:href="#DejaVuSans-30"/>
      </g>
     </g>
    </g>
    <g id="ytick_2">
     <g id="line2d_13">
      <path clip-path="url(#p09ab319efb)" d="M 50.10625 299.436889 
L 740.764924 299.436889 
" style="fill:none;stroke:#ffffff;stroke-linecap:round;stroke-width:0.8;"/>
     </g>
     <g id="line2d_14"/>
     <g id="text_8">
      <!-- 200 -->
      <g style="fill:#262626;" transform="translate(27.51875 303.236107)scale(0.1 -0.1)">
       <use xlink:href="#DejaVuSans-32"/>
       <use x="63.623047" xlink:href="#DejaVuSans-30"/>
       <use x="127.246094" xlink:href="#DejaVuSans-30"/>
      </g>
     </g>
    </g>
    <g id="ytick_3">
     <g id="line2d_15">
      <path clip-path="url(#p09ab319efb)" d="M 50.10625 248.174153 
L 740.764924 248.174153 
" style="fill:none;stroke:#ffffff;stroke-linecap:round;stroke-width:0.8;"/>
     </g>
     <g id="line2d_16"/>
     <g id="text_9">
      <!-- 400 -->
      <g style="fill:#262626;" transform="translate(27.51875 251.973371)scale(0.1 -0.1)">
       <use xlink:href="#DejaVuSans-34"/>
       <use x="63.623047" xlink:href="#DejaVuSans-30"/>
       <use x="127.246094" xlink:href="#DejaVuSans-30"/>
      </g>
     </g>
    </g>
    <g id="ytick_4">
     <g id="line2d_17">
      <path clip-path="url(#p09ab319efb)" d="M 50.10625 196.911417 
L 740.764924 196.911417 
" style="fill:none;stroke:#ffffff;stroke-linecap:round;stroke-width:0.8;"/>
     </g>
     <g id="line2d_18"/>
     <g id="text_10">
      <!-- 600 -->
      <g style="fill:#262626;" transform="translate(27.51875 200.710636)scale(0.1 -0.1)">
       <use xlink:href="#DejaVuSans-36"/>
       <use x="63.623047" xlink:href="#DejaVuSans-30"/>
       <use x="127.246094" xlink:href="#DejaVuSans-30"/>
      </g>
     </g>
    </g>
    <g id="ytick_5">
     <g id="line2d_19">
      <path clip-path="url(#p09ab319efb)" d="M 50.10625 145.648681 
L 740.764924 145.648681 
" style="fill:none;stroke:#ffffff;stroke-linecap:round;stroke-width:0.8;"/>
     </g>
     <g id="line2d_20"/>
     <g id="text_11">
      <!-- 800 -->
      <g style="fill:#262626;" transform="translate(27.51875 149.4479)scale(0.1 -0.1)">
       <use xlink:href="#DejaVuSans-38"/>
       <use x="63.623047" xlink:href="#DejaVuSans-30"/>
       <use x="127.246094" xlink:href="#DejaVuSans-30"/>
      </g>
     </g>
    </g>
    <g id="ytick_6">
     <g id="line2d_21">
      <path clip-path="url(#p09ab319efb)" d="M 50.10625 94.385945 
L 740.764924 94.385945 
" style="fill:none;stroke:#ffffff;stroke-linecap:round;stroke-width:0.8;"/>
     </g>
     <g id="line2d_22"/>
     <g id="text_12">
      <!-- 1000 -->
      <defs>
       <path d="M 12.40625 8.296875 
L 28.515625 8.296875 
L 28.515625 63.921875 
L 10.984375 60.40625 
L 10.984375 69.390625 
L 28.421875 72.90625 
L 38.28125 72.90625 
L 38.28125 8.296875 
L 54.390625 8.296875 
L 54.390625 0 
L 12.40625 0 
z
" id="DejaVuSans-31"/>
      </defs>
      <g style="fill:#262626;" transform="translate(21.15625 98.185164)scale(0.1 -0.1)">
       <use xlink:href="#DejaVuSans-31"/>
       <use x="63.623047" xlink:href="#DejaVuSans-30"/>
       <use x="127.246094" xlink:href="#DejaVuSans-30"/>
       <use x="190.869141" xlink:href="#DejaVuSans-30"/>
      </g>
     </g>
    </g>
    <g id="ytick_7">
     <g id="line2d_23">
      <path clip-path="url(#p09ab319efb)" d="M 50.10625 43.123209 
L 740.764924 43.123209 
" style="fill:none;stroke:#ffffff;stroke-linecap:round;stroke-width:0.8;"/>
     </g>
     <g id="line2d_24"/>
     <g id="text_13">
      <!-- 1200 -->
      <g style="fill:#262626;" transform="translate(21.15625 46.922428)scale(0.1 -0.1)">
       <use xlink:href="#DejaVuSans-31"/>
       <use x="63.623047" xlink:href="#DejaVuSans-32"/>
       <use x="127.246094" xlink:href="#DejaVuSans-30"/>
       <use x="190.869141" xlink:href="#DejaVuSans-30"/>
      </g>
     </g>
    </g>
    <g id="text_14">
     <!-- Sum_Debit -->
     <defs>
      <path d="M 19.671875 64.796875 
L 19.671875 8.109375 
L 31.59375 8.109375 
Q 46.6875 8.109375 53.6875 14.9375 
Q 60.6875 21.78125 60.6875 36.53125 
Q 60.6875 51.171875 53.6875 57.984375 
Q 46.6875 64.796875 31.59375 64.796875 
z
M 9.8125 72.90625 
L 30.078125 72.90625 
Q 51.265625 72.90625 61.171875 64.09375 
Q 71.09375 55.28125 71.09375 36.53125 
Q 71.09375 17.671875 61.125 8.828125 
Q 51.171875 0 30.078125 0 
L 9.8125 0 
z
" id="DejaVuSans-44"/>
      <path d="M 48.6875 27.296875 
Q 48.6875 37.203125 44.609375 42.84375 
Q 40.53125 48.484375 33.40625 48.484375 
Q 26.265625 48.484375 22.1875 42.84375 
Q 18.109375 37.203125 18.109375 27.296875 
Q 18.109375 17.390625 22.1875 11.75 
Q 26.265625 6.109375 33.40625 6.109375 
Q 40.53125 6.109375 44.609375 11.75 
Q 48.6875 17.390625 48.6875 27.296875 
z
M 18.109375 46.390625 
Q 20.953125 51.265625 25.265625 53.625 
Q 29.59375 56 35.59375 56 
Q 45.5625 56 51.78125 48.09375 
Q 58.015625 40.1875 58.015625 27.296875 
Q 58.015625 14.40625 51.78125 6.484375 
Q 45.5625 -1.421875 35.59375 -1.421875 
Q 29.59375 -1.421875 25.265625 0.953125 
Q 20.953125 3.328125 18.109375 8.203125 
L 18.109375 0 
L 9.078125 0 
L 9.078125 75.984375 
L 18.109375 75.984375 
z
" id="DejaVuSans-62"/>
     </defs>
     <g style="fill:#262626;" transform="translate(14.798437 225.682656)rotate(-90)scale(0.1 -0.1)">
      <use xlink:href="#DejaVuSans-53"/>
      <use x="63.476562" xlink:href="#DejaVuSans-75"/>
      <use x="126.855469" xlink:href="#DejaVuSans-6d"/>
      <use x="224.267578" xlink:href="#DejaVuSans-5f"/>
      <use x="274.267578" xlink:href="#DejaVuSans-44"/>
      <use x="351.269531" xlink:href="#DejaVuSans-65"/>
      <use x="412.792969" xlink:href="#DejaVuSans-62"/>
      <use x="476.269531" xlink:href="#DejaVuSans-69"/>
      <use x="504.052734" xlink:href="#DejaVuSans-74"/>
     </g>
    </g>
   </g>
   <g id="PathCollection_1">
    <defs>
     <path d="M 0 3 
C 0.795609 3 1.55874 2.683901 2.12132 2.12132 
C 2.683901 1.55874 3 0.795609 3 0 
C 3 -0.795609 2.683901 -1.55874 2.12132 -2.12132 
C 1.55874 -2.683901 0.795609 -3 0 -3 
C -0.795609 -3 -1.55874 -2.683901 -2.12132 -2.12132 
C -2.683901 -1.55874 -3 -0.795609 -3 0 
C -3 0.795609 -2.683901 1.55874 -2.12132 2.12132 
C -1.55874 2.683901 -0.795609 3 0 3 
z
" id="m3bca3e406f" style="stroke:#1f77b4;stroke-opacity:0.8;"/>
    </defs>
    <g clip-path="url(#p09ab319efb)">
     <use style="fill:#1f77b4;fill-opacity:0.8;stroke:#1f77b4;stroke-opacity:0.8;" x="97.896054" xlink:href="#m3bca3e406f" y="343.362685"/>
     <use style="fill:#1f77b4;fill-opacity:0.8;stroke:#1f77b4;stroke-opacity:0.8;" x="123.616506" xlink:href="#m3bca3e406f" y="348.666515"/>
     <use style="fill:#1f77b4;fill-opacity:0.8;stroke:#1f77b4;stroke-opacity:0.8;" x="163.392377" xlink:href="#m3bca3e406f" y="327.03857"/>
     <use style="fill:#1f77b4;fill-opacity:0.8;stroke:#1f77b4;stroke-opacity:0.8;" x="154.433921" xlink:href="#m3bca3e406f" y="326.554901"/>
     <use style="fill:#1f77b4;fill-opacity:0.8;stroke:#1f77b4;stroke-opacity:0.8;" x="92.9976" xlink:href="#m3bca3e406f" y="332.336524"/>
     <use style="fill:#1f77b4;fill-opacity:0.8;stroke:#1f77b4;stroke-opacity:0.8;" x="110.291891" xlink:href="#m3bca3e406f" y="328.320761"/>
     <use style="fill:#1f77b4;fill-opacity:0.8;stroke:#1f77b4;stroke-opacity:0.8;" x="138.037285" xlink:href="#m3bca3e406f" y="318.78496"/>
     <use style="fill:#1f77b4;fill-opacity:0.8;stroke:#1f77b4;stroke-opacity:0.8;" x="117.819885" xlink:href="#m3bca3e406f" y="333.620319"/>
     <use style="fill:#1f77b4;fill-opacity:0.8;stroke:#1f77b4;stroke-opacity:0.8;" x="131.630322" xlink:href="#m3bca3e406f" y="336.9462"/>
     <use style="fill:#1f77b4;fill-opacity:0.8;stroke:#1f77b4;stroke-opacity:0.8;" x="184.126175" xlink:href="#m3bca3e406f" y="332.690227"/>
     <use style="fill:#1f77b4;fill-opacity:0.8;stroke:#1f77b4;stroke-opacity:0.8;" x="131.022139" xlink:href="#m3bca3e406f" y="298.614212"/>
     <use style="fill:#1f77b4;fill-opacity:0.8;stroke:#1f77b4;stroke-opacity:0.8;" x="182.551464" xlink:href="#m3bca3e406f" y="283.870549"/>
     <use style="fill:#1f77b4;fill-opacity:0.8;stroke:#1f77b4;stroke-opacity:0.8;" x="167.696984" xlink:href="#m3bca3e406f" y="316.11276"/>
     <use style="fill:#1f77b4;fill-opacity:0.8;stroke:#1f77b4;stroke-opacity:0.8;" x="165.68234" xlink:href="#m3bca3e406f" y="321.218478"/>
     <use style="fill:#1f77b4;fill-opacity:0.8;stroke:#1f77b4;stroke-opacity:0.8;" x="105.850288" xlink:href="#m3bca3e406f" y="347.391225"/>
     <use style="fill:#1f77b4;fill-opacity:0.8;stroke:#1f77b4;stroke-opacity:0.8;" x="132.137345" xlink:href="#m3bca3e406f" y="335.213362"/>
     <use style="fill:#1f77b4;fill-opacity:0.8;stroke:#1f77b4;stroke-opacity:0.8;" x="142.768672" xlink:href="#m3bca3e406f" y="351.974022"/>
     <use style="fill:#1f77b4;fill-opacity:0.8;stroke:#1f77b4;stroke-opacity:0.8;" x="115.809149" xlink:href="#m3bca3e406f" y="336.185381"/>
     <use style="fill:#1f77b4;fill-opacity:0.8;stroke:#1f77b4;stroke-opacity:0.8;" x="127.588386" xlink:href="#m3bca3e406f" y="345.625119"/>
     <use style="fill:#1f77b4;fill-opacity:0.8;stroke:#1f77b4;stroke-opacity:0.8;" x="106.277731" xlink:href="#m3bca3e406f" y="350.290732"/>
     <use style="fill:#1f77b4;fill-opacity:0.8;stroke:#1f77b4;stroke-opacity:0.8;" x="140.578953" xlink:href="#m3bca3e406f" y="330.568985"/>
     <use style="fill:#1f77b4;fill-opacity:0.8;stroke:#1f77b4;stroke-opacity:0.8;" x="138.30312" xlink:href="#m3bca3e406f" y="343.969789"/>
     <use style="fill:#1f77b4;fill-opacity:0.8;stroke:#1f77b4;stroke-opacity:0.8;" x="154.3689" xlink:href="#m3bca3e406f" y="319.858314"/>
     <use style="fill:#1f77b4;fill-opacity:0.8;stroke:#1f77b4;stroke-opacity:0.8;" x="312.544071" xlink:href="#m3bca3e406f" y="272.988029"/>
     <use style="fill:#1f77b4;fill-opacity:0.8;stroke:#1f77b4;stroke-opacity:0.8;" x="110.884547" xlink:href="#m3bca3e406f" y="333.689836"/>
     <use style="fill:#1f77b4;fill-opacity:0.8;stroke:#1f77b4;stroke-opacity:0.8;" x="87.544631" xlink:href="#m3bca3e406f" y="338.242259"/>
     <use style="fill:#1f77b4;fill-opacity:0.8;stroke:#1f77b4;stroke-opacity:0.8;" x="143.441938" xlink:href="#m3bca3e406f" y="346.451486"/>
     <use style="fill:#1f77b4;fill-opacity:0.8;stroke:#1f77b4;stroke-opacity:0.8;" x="124.881891" xlink:href="#m3bca3e406f" y="343.525913"/>
     <use style="fill:#1f77b4;fill-opacity:0.8;stroke:#1f77b4;stroke-opacity:0.8;" x="122.117084" xlink:href="#m3bca3e406f" y="307.415477"/>
     <use style="fill:#1f77b4;fill-opacity:0.8;stroke:#1f77b4;stroke-opacity:0.8;" x="89.005589" xlink:href="#m3bca3e406f" y="323.754319"/>
     <use style="fill:#1f77b4;fill-opacity:0.8;stroke:#1f77b4;stroke-opacity:0.8;" x="112.029204" xlink:href="#m3bca3e406f" y="325.108291"/>
     <use style="fill:#1f77b4;fill-opacity:0.8;stroke:#1f77b4;stroke-opacity:0.8;" x="141.607944" xlink:href="#m3bca3e406f" y="330.07677"/>
     <use style="fill:#1f77b4;fill-opacity:0.8;stroke:#1f77b4;stroke-opacity:0.8;" x="137.455645" xlink:href="#m3bca3e406f" y="339.468896"/>
     <use style="fill:#1f77b4;fill-opacity:0.8;stroke:#1f77b4;stroke-opacity:0.8;" x="116.424713" xlink:href="#m3bca3e406f" y="325.278846"/>
     <use style="fill:#1f77b4;fill-opacity:0.8;stroke:#1f77b4;stroke-opacity:0.8;" x="142.618578" xlink:href="#m3bca3e406f" y="334.895971"/>
     <use style="fill:#1f77b4;fill-opacity:0.8;stroke:#1f77b4;stroke-opacity:0.8;" x="121.845053" xlink:href="#m3bca3e406f" y="321.70878"/>
     <use style="fill:#1f77b4;fill-opacity:0.8;stroke:#1f77b4;stroke-opacity:0.8;" x="319.690567" xlink:href="#m3bca3e406f" y="278.409652"/>
     <use style="fill:#1f77b4;fill-opacity:0.8;stroke:#1f77b4;stroke-opacity:0.8;" x="92.616271" xlink:href="#m3bca3e406f" y="334.614214"/>
     <use style="fill:#1f77b4;fill-opacity:0.8;stroke:#1f77b4;stroke-opacity:0.8;" x="146.400644" xlink:href="#m3bca3e406f" y="313.50523"/>
     <use style="fill:#1f77b4;fill-opacity:0.8;stroke:#1f77b4;stroke-opacity:0.8;" x="126.701172" xlink:href="#m3bca3e406f" y="325.307245"/>
     <use style="fill:#1f77b4;fill-opacity:0.8;stroke:#1f77b4;stroke-opacity:0.8;" x="217.828337" xlink:href="#m3bca3e406f" y="261.179142"/>
     <use style="fill:#1f77b4;fill-opacity:0.8;stroke:#1f77b4;stroke-opacity:0.8;" x="211.741863" xlink:href="#m3bca3e406f" y="295.005681"/>
     <use style="fill:#1f77b4;fill-opacity:0.8;stroke:#1f77b4;stroke-opacity:0.8;" x="136.590525" xlink:href="#m3bca3e406f" y="331.674088"/>
     <use style="fill:#1f77b4;fill-opacity:0.8;stroke:#1f77b4;stroke-opacity:0.8;" x="86.280364" xlink:href="#m3bca3e406f" y="329.944414"/>
     <use style="fill:#1f77b4;fill-opacity:0.8;stroke:#1f77b4;stroke-opacity:0.8;" x="250.081259" xlink:href="#m3bca3e406f" y="256.552637"/>
     <use style="fill:#1f77b4;fill-opacity:0.8;stroke:#1f77b4;stroke-opacity:0.8;" x="97.871463" xlink:href="#m3bca3e406f" y="325.732841"/>
     <use style="fill:#1f77b4;fill-opacity:0.8;stroke:#1f77b4;stroke-opacity:0.8;" x="87.725175" xlink:href="#m3bca3e406f" y="343.371632"/>
     <use style="fill:#1f77b4;fill-opacity:0.8;stroke:#1f77b4;stroke-opacity:0.8;" x="99.380416" xlink:href="#m3bca3e406f" y="358.816655"/>
     <use style="fill:#1f77b4;fill-opacity:0.8;stroke:#1f77b4;stroke-opacity:0.8;" x="127.029917" xlink:href="#m3bca3e406f" y="337.500939"/>
     <use style="fill:#1f77b4;fill-opacity:0.8;stroke:#1f77b4;stroke-opacity:0.8;" x="115.139272" xlink:href="#m3bca3e406f" y="310.10217"/>
     <use style="fill:#1f77b4;fill-opacity:0.8;stroke:#1f77b4;stroke-opacity:0.8;" x="102.023483" xlink:href="#m3bca3e406f" y="344.202837"/>
     <use style="fill:#1f77b4;fill-opacity:0.8;stroke:#1f77b4;stroke-opacity:0.8;" x="110.917395" xlink:href="#m3bca3e406f" y="333.4864"/>
     <use style="fill:#1f77b4;fill-opacity:0.8;stroke:#1f77b4;stroke-opacity:0.8;" x="106.963041" xlink:href="#m3bca3e406f" y="352.870548"/>
     <use style="fill:#1f77b4;fill-opacity:0.8;stroke:#1f77b4;stroke-opacity:0.8;" x="230.226295" xlink:href="#m3bca3e406f" y="295.607094"/>
     <use style="fill:#1f77b4;fill-opacity:0.8;stroke:#1f77b4;stroke-opacity:0.8;" x="139.297874" xlink:href="#m3bca3e406f" y="347.171957"/>
     <use style="fill:#1f77b4;fill-opacity:0.8;stroke:#1f77b4;stroke-opacity:0.8;" x="85.237331" xlink:href="#m3bca3e406f" y="345.570031"/>
     <use style="fill:#1f77b4;fill-opacity:0.8;stroke:#1f77b4;stroke-opacity:0.8;" x="151.271688" xlink:href="#m3bca3e406f" y="296.635355"/>
     <use style="fill:#1f77b4;fill-opacity:0.8;stroke:#1f77b4;stroke-opacity:0.8;" x="112.046196" xlink:href="#m3bca3e406f" y="260.786258"/>
     <use style="fill:#1f77b4;fill-opacity:0.8;stroke:#1f77b4;stroke-opacity:0.8;" x="292.016191" xlink:href="#m3bca3e406f" y="214.015082"/>
     <use style="fill:#1f77b4;fill-opacity:0.8;stroke:#1f77b4;stroke-opacity:0.8;" x="111.19154" xlink:href="#m3bca3e406f" y="341.651043"/>
     <use style="fill:#1f77b4;fill-opacity:0.8;stroke:#1f77b4;stroke-opacity:0.8;" x="155.500756" xlink:href="#m3bca3e406f" y="338.928068"/>
     <use style="fill:#1f77b4;fill-opacity:0.8;stroke:#1f77b4;stroke-opacity:0.8;" x="154.148074" xlink:href="#m3bca3e406f" y="312.91492"/>
     <use style="fill:#1f77b4;fill-opacity:0.8;stroke:#1f77b4;stroke-opacity:0.8;" x="94.431158" xlink:href="#m3bca3e406f" y="344.880285"/>
     <use style="fill:#1f77b4;fill-opacity:0.8;stroke:#1f77b4;stroke-opacity:0.8;" x="144.848314" xlink:href="#m3bca3e406f" y="296.233919"/>
     <use style="fill:#1f77b4;fill-opacity:0.8;stroke:#1f77b4;stroke-opacity:0.8;" x="205.335475" xlink:href="#m3bca3e406f" y="315.103897"/>
     <use style="fill:#1f77b4;fill-opacity:0.8;stroke:#1f77b4;stroke-opacity:0.8;" x="95.985672" xlink:href="#m3bca3e406f" y="335.481123"/>
     <use style="fill:#1f77b4;fill-opacity:0.8;stroke:#1f77b4;stroke-opacity:0.8;" x="173.154544" xlink:href="#m3bca3e406f" y="335.676939"/>
     <use style="fill:#1f77b4;fill-opacity:0.8;stroke:#1f77b4;stroke-opacity:0.8;" x="116.61519" xlink:href="#m3bca3e406f" y="340.906707"/>
     <use style="fill:#1f77b4;fill-opacity:0.8;stroke:#1f77b4;stroke-opacity:0.8;" x="144.076644" xlink:href="#m3bca3e406f" y="343.867309"/>
     <use style="fill:#1f77b4;fill-opacity:0.8;stroke:#1f77b4;stroke-opacity:0.8;" x="122.545817" xlink:href="#m3bca3e406f" y="351.852484"/>
     <use style="fill:#1f77b4;fill-opacity:0.8;stroke:#1f77b4;stroke-opacity:0.8;" x="113.518707" xlink:href="#m3bca3e406f" y="350.075971"/>
     <use style="fill:#1f77b4;fill-opacity:0.8;stroke:#1f77b4;stroke-opacity:0.8;" x="85.789113" xlink:href="#m3bca3e406f" y="350.822799"/>
     <use style="fill:#1f77b4;fill-opacity:0.8;stroke:#1f77b4;stroke-opacity:0.8;" x="110.539415" xlink:href="#m3bca3e406f" y="341.801008"/>
     <use style="fill:#1f77b4;fill-opacity:0.8;stroke:#1f77b4;stroke-opacity:0.8;" x="105.209451" xlink:href="#m3bca3e406f" y="344.430254"/>
     <use style="fill:#1f77b4;fill-opacity:0.8;stroke:#1f77b4;stroke-opacity:0.8;" x="215.955464" xlink:href="#m3bca3e406f" y="319.836492"/>
     <use style="fill:#1f77b4;fill-opacity:0.8;stroke:#1f77b4;stroke-opacity:0.8;" x="83.507827" xlink:href="#m3bca3e406f" y="354.606814"/>
     <use style="fill:#1f77b4;fill-opacity:0.8;stroke:#1f77b4;stroke-opacity:0.8;" x="87.027256" xlink:href="#m3bca3e406f" y="350.799614"/>
     <use style="fill:#1f77b4;fill-opacity:0.8;stroke:#1f77b4;stroke-opacity:0.8;" x="97.417985" xlink:href="#m3bca3e406f" y="348.552227"/>
     <use style="fill:#1f77b4;fill-opacity:0.8;stroke:#1f77b4;stroke-opacity:0.8;" x="332.707981" xlink:href="#m3bca3e406f" y="268.311548"/>
    </g>
   </g>
   <g id="PolyCollection_1">
    <path clip-path="url(#p09ab319efb)" d="M 50.10625 355.927639 
L 50.10625 371.63963 
L 57.0826 368.234384 
L 64.05895 364.831383 
L 71.035301 361.425784 
L 78.011651 357.991485 
L 84.988001 354.595149 
L 91.964351 351.021842 
L 98.940702 347.626722 
L 105.917052 344.245233 
L 112.893402 341.000652 
L 119.869752 338.009663 
L 126.846103 335.22297 
L 133.822453 332.465994 
L 140.798803 330.014946 
L 147.775153 327.523585 
L 154.751504 325.130317 
L 161.727854 322.651189 
L 168.704204 320.281681 
L 175.680554 317.911099 
L 182.656905 315.607447 
L 189.633255 313.191133 
L 196.609605 310.904824 
L 203.585955 308.539325 
L 210.562306 306.26652 
L 217.538656 304.012166 
L 224.515006 301.721216 
L 231.491356 299.48487 
L 238.467707 297.128271 
L 245.444057 294.926008 
L 252.420407 292.67171 
L 259.396757 290.335413 
L 266.373108 287.97655 
L 273.349458 285.671677 
L 280.325808 283.358112 
L 287.302158 281.07763 
L 294.278509 278.914645 
L 301.254859 276.725283 
L 308.231209 274.490486 
L 315.207559 272.254699 
L 322.183909 270.016282 
L 329.16026 267.777866 
L 336.13661 265.529517 
L 343.11296 263.364592 
L 350.08931 261.200787 
L 357.065661 258.949403 
L 364.042011 256.664698 
L 371.018361 254.378039 
L 377.994711 252.127491 
L 384.971062 249.890604 
L 391.947412 247.653717 
L 398.923762 245.416831 
L 405.900112 243.179944 
L 412.876463 240.942846 
L 419.852813 238.705477 
L 426.829163 236.468107 
L 433.805513 234.230738 
L 440.781864 231.993368 
L 447.758214 229.755999 
L 454.734564 227.518629 
L 461.710914 225.281259 
L 468.687265 223.036062 
L 475.663615 220.772764 
L 482.639965 218.509467 
L 489.616315 216.246169 
L 496.592666 213.982872 
L 503.569016 211.719574 
L 510.545366 209.456277 
L 517.521716 207.19298 
L 524.498067 204.929682 
L 531.474417 202.666385 
L 538.450767 200.403087 
L 545.427117 198.13979 
L 552.403468 195.876492 
L 559.379818 193.613195 
L 566.356168 191.349897 
L 573.332518 189.0866 
L 580.308869 186.823303 
L 587.285219 184.560005 
L 594.261569 182.296708 
L 601.237919 180.03341 
L 608.214269 177.820618 
L 615.19062 175.621197 
L 622.16697 173.421591 
L 629.14332 171.221985 
L 636.11967 169.022379 
L 643.096021 166.822773 
L 650.072371 164.623167 
L 657.048721 162.423561 
L 664.025071 160.223955 
L 671.001422 158.024349 
L 677.977772 155.790662 
L 684.954122 153.539361 
L 691.930472 151.287226 
L 698.906823 149.035091 
L 705.883173 146.782956 
L 712.859523 144.530821 
L 719.835873 142.278687 
L 726.812224 140.026552 
L 733.788574 137.774417 
L 740.764924 135.533879 
L 740.764924 24.59267 
L 740.764924 24.59267 
L 733.788574 28.087752 
L 726.812224 31.582833 
L 719.835873 35.077914 
L 712.859523 38.572995 
L 705.883173 42.068076 
L 698.906823 45.563157 
L 691.930472 49.058238 
L 684.954122 52.553319 
L 677.977772 56.0484 
L 671.001422 59.543481 
L 664.025071 63.038562 
L 657.048721 66.533643 
L 650.072371 70.028724 
L 643.096021 73.523805 
L 636.11967 77.018886 
L 629.14332 80.513968 
L 622.16697 84.009049 
L 615.19062 87.50413 
L 608.214269 90.999211 
L 601.237919 94.494292 
L 594.261569 97.989373 
L 587.285219 101.484454 
L 580.308869 104.979535 
L 573.332518 108.474616 
L 566.356168 111.969697 
L 559.379818 115.464778 
L 552.403468 118.959859 
L 545.427117 122.45494 
L 538.450767 125.950021 
L 531.474417 129.445102 
L 524.498067 132.940184 
L 517.521716 136.435265 
L 510.545366 139.930346 
L 503.569016 143.425427 
L 496.592666 146.920508 
L 489.616315 150.415589 
L 482.639965 153.91067 
L 475.663615 157.405751 
L 468.687265 160.900832 
L 461.710914 164.382043 
L 454.734564 167.889578 
L 447.758214 171.383416 
L 440.781864 174.877255 
L 433.805513 178.371093 
L 426.829163 181.864931 
L 419.852813 185.358769 
L 412.876463 188.852607 
L 405.900112 192.346445 
L 398.923762 195.840283 
L 391.947412 199.334122 
L 384.971062 202.830159 
L 377.994711 206.326299 
L 371.018361 209.822438 
L 364.042011 213.318577 
L 357.065661 216.814717 
L 350.08931 220.328615 
L 343.11296 223.882006 
L 336.13661 227.435397 
L 329.16026 230.988788 
L 322.183909 234.542516 
L 315.207559 238.097396 
L 308.231209 241.652503 
L 301.254859 245.166637 
L 294.278509 248.680622 
L 287.302158 252.194607 
L 280.325808 255.708592 
L 273.349458 259.220995 
L 266.373108 262.736174 
L 259.396757 266.289365 
L 252.420407 269.842556 
L 245.444057 273.395747 
L 238.467707 276.892103 
L 231.491356 280.333751 
L 224.515006 283.808516 
L 217.538656 287.319261 
L 210.562306 290.7458 
L 203.585955 294.121162 
L 196.609605 297.532499 
L 189.633255 300.971146 
L 182.656905 304.372073 
L 175.680554 307.788154 
L 168.704204 311.273981 
L 161.727854 314.482328 
L 154.751504 317.722701 
L 147.775153 320.847005 
L 140.798803 323.973816 
L 133.822453 326.839291 
L 126.846103 329.662056 
L 119.869752 332.273097 
L 112.893402 334.716029 
L 105.917052 337.160116 
L 98.940702 339.612143 
L 91.964351 341.957675 
L 84.988001 344.398153 
L 78.011651 346.841279 
L 71.035301 349.171398 
L 64.05895 351.493612 
L 57.0826 353.764947 
L 50.10625 355.927639 
z
" style="fill:#1f77b4;fill-opacity:0.15;"/>
   </g>
   <g id="PathCollection_2">
    <defs>
     <path d="M 0 3 
C 0.795609 3 1.55874 2.683901 2.12132 2.12132 
C 2.683901 1.55874 3 0.795609 3 0 
C 3 -0.795609 2.683901 -1.55874 2.12132 -2.12132 
C 1.55874 -2.683901 0.795609 -3 0 -3 
C -0.795609 -3 -1.55874 -2.683901 -2.12132 -2.12132 
C -2.683901 -1.55874 -3 -0.795609 -3 0 
C -3 0.795609 -2.683901 1.55874 -2.12132 2.12132 
C -1.55874 2.683901 -0.795609 3 0 3 
z
" id="m61f2b13904" style="stroke:#ff7f0e;stroke-opacity:0.8;"/>
    </defs>
    <g clip-path="url(#p09ab319efb)">
     <use style="fill:#ff7f0e;fill-opacity:0.8;stroke:#ff7f0e;stroke-opacity:0.8;" x="358.936011" xlink:href="#m61f2b13904" y="279.295119"/>
     <use style="fill:#ff7f0e;fill-opacity:0.8;stroke:#ff7f0e;stroke-opacity:0.8;" x="193.297216" xlink:href="#m61f2b13904" y="306.334089"/>
     <use style="fill:#ff7f0e;fill-opacity:0.8;stroke:#ff7f0e;stroke-opacity:0.8;" x="131.584209" xlink:href="#m61f2b13904" y="348.814165"/>
     <use style="fill:#ff7f0e;fill-opacity:0.8;stroke:#ff7f0e;stroke-opacity:0.8;" x="192.817923" xlink:href="#m61f2b13904" y="317.79659"/>
     <use style="fill:#ff7f0e;fill-opacity:0.8;stroke:#ff7f0e;stroke-opacity:0.8;" x="265.833999" xlink:href="#m61f2b13904" y="292.018666"/>
     <use style="fill:#ff7f0e;fill-opacity:0.8;stroke:#ff7f0e;stroke-opacity:0.8;" x="145.081591" xlink:href="#m61f2b13904" y="340.79693"/>
     <use style="fill:#ff7f0e;fill-opacity:0.8;stroke:#ff7f0e;stroke-opacity:0.8;" x="88.583553" xlink:href="#m61f2b13904" y="351.246532"/>
     <use style="fill:#ff7f0e;fill-opacity:0.8;stroke:#ff7f0e;stroke-opacity:0.8;" x="142.501703" xlink:href="#m61f2b13904" y="348.592055"/>
     <use style="fill:#ff7f0e;fill-opacity:0.8;stroke:#ff7f0e;stroke-opacity:0.8;" x="87.334859" xlink:href="#m61f2b13904" y="358.062109"/>
    </g>
   </g>
   <g id="PolyCollection_2">
    <path clip-path="url(#p09ab319efb)" d="M 50.10625 372.44608 
L 50.10625 372.44608 
L 57.0826 369.989222 
L 64.05895 367.532364 
L 71.035301 365.075506 
L 78.011651 362.618648 
L 84.988001 360.16179 
L 91.964351 357.704932 
L 98.940702 355.248074 
L 105.917052 352.791216 
L 112.893402 350.334358 
L 119.869752 347.8775 
L 126.846103 345.420642 
L 133.822453 342.963784 
L 140.798803 340.506926 
L 147.775153 338.050068 
L 154.751504 335.59321 
L 161.727854 333.136352 
L 168.704204 330.679494 
L 175.680554 328.222636 
L 182.656905 325.765778 
L 189.633255 323.30892 
L 196.609605 320.852062 
L 203.585955 318.395204 
L 210.562306 315.938346 
L 217.538656 313.481488 
L 224.515006 311.02463 
L 231.491356 308.567772 
L 238.467707 306.110914 
L 245.444057 303.654056 
L 252.420407 301.197198 
L 259.396757 298.74034 
L 266.373108 296.283482 
L 273.349458 293.826624 
L 280.325808 291.369766 
L 287.302158 288.912908 
L 294.278509 286.45605 
L 301.254859 283.999192 
L 308.231209 281.542334 
L 315.207559 279.085476 
L 322.183909 276.628618 
L 329.16026 274.17176 
L 336.13661 271.714902 
L 343.11296 269.258044 
L 350.08931 266.801186 
L 357.065661 264.344328 
L 364.042011 261.88747 
L 371.018361 259.430612 
L 377.994711 256.973754 
L 384.971062 254.516896 
L 391.947412 252.060038 
L 398.923762 249.60318 
L 405.900112 247.146322 
L 412.876463 244.689464 
L 419.852813 242.232606 
L 426.829163 239.775748 
L 433.805513 237.31889 
L 440.781864 234.862032 
L 447.758214 232.405174 
L 454.734564 229.948316 
L 461.710914 227.491458 
L 468.687265 225.034601 
L 475.663615 222.577743 
L 482.639965 220.120885 
L 489.616315 217.664027 
L 496.592666 215.207169 
L 503.569016 212.750311 
L 510.545366 210.293453 
L 517.521716 207.836595 
L 524.498067 205.379737 
L 531.474417 202.922879 
L 538.450767 200.466021 
L 545.427117 198.009163 
L 552.403468 195.552305 
L 559.379818 193.095447 
L 566.356168 190.638589 
L 573.332518 188.181731 
L 580.308869 185.724873 
L 587.285219 183.268015 
L 594.261569 180.811157 
L 601.237919 178.354299 
L 608.214269 175.897441 
L 615.19062 173.440583 
L 622.16697 170.983725 
L 629.14332 168.526867 
L 636.11967 166.070009 
L 643.096021 163.613151 
L 650.072371 161.156293 
L 657.048721 158.699435 
L 664.025071 156.242577 
L 671.001422 153.785719 
L 677.977772 151.328861 
L 684.954122 148.872003 
L 691.930472 146.415145 
L 698.906823 143.958287 
L 705.883173 141.501429 
L 712.859523 139.044571 
L 719.835873 136.587713 
L 726.812224 134.130855 
L 733.788574 131.673997 
L 740.764924 129.217139 
L 740.764924 129.217139 
L 740.764924 129.217139 
L 733.788574 131.673997 
L 726.812224 134.130855 
L 719.835873 136.587713 
L 712.859523 139.044571 
L 705.883173 141.501429 
L 698.906823 143.958287 
L 691.930472 146.415145 
L 684.954122 148.872003 
L 677.977772 151.328861 
L 671.001422 153.785719 
L 664.025071 156.242577 
L 657.048721 158.699435 
L 650.072371 161.156293 
L 643.096021 163.613151 
L 636.11967 166.070009 
L 629.14332 168.526867 
L 622.16697 170.983725 
L 615.19062 173.440583 
L 608.214269 175.897441 
L 601.237919 178.354299 
L 594.261569 180.811157 
L 587.285219 183.268015 
L 580.308869 185.724873 
L 573.332518 188.181731 
L 566.356168 190.638589 
L 559.379818 193.095447 
L 552.403468 195.552305 
L 545.427117 198.009163 
L 538.450767 200.466021 
L 531.474417 202.922879 
L 524.498067 205.379737 
L 517.521716 207.836595 
L 510.545366 210.293453 
L 503.569016 212.750311 
L 496.592666 215.207169 
L 489.616315 217.664027 
L 482.639965 220.120885 
L 475.663615 222.577743 
L 468.687265 225.034601 
L 461.710914 227.491458 
L 454.734564 229.948316 
L 447.758214 232.405174 
L 440.781864 234.862032 
L 433.805513 237.31889 
L 426.829163 239.775748 
L 419.852813 242.232606 
L 412.876463 244.689464 
L 405.900112 247.146322 
L 398.923762 249.60318 
L 391.947412 252.060038 
L 384.971062 254.516896 
L 377.994711 256.973754 
L 371.018361 259.430612 
L 364.042011 261.88747 
L 357.065661 264.344328 
L 350.08931 266.801186 
L 343.11296 269.258044 
L 336.13661 271.714902 
L 329.16026 274.17176 
L 322.183909 276.628618 
L 315.207559 279.085476 
L 308.231209 281.542334 
L 301.254859 283.999192 
L 294.278509 286.45605 
L 287.302158 288.912908 
L 280.325808 291.369766 
L 273.349458 293.826624 
L 266.373108 296.283482 
L 259.396757 298.74034 
L 252.420407 301.197198 
L 245.444057 303.654056 
L 238.467707 306.110914 
L 231.491356 308.567772 
L 224.515006 311.02463 
L 217.538656 313.481488 
L 210.562306 315.938346 
L 203.585955 318.395204 
L 196.609605 320.852062 
L 189.633255 323.30892 
L 182.656905 325.765778 
L 175.680554 328.222636 
L 168.704204 330.679494 
L 161.727854 333.136352 
L 154.751504 335.59321 
L 147.775153 338.050068 
L 140.798803 340.506926 
L 133.822453 342.963784 
L 126.846103 345.420642 
L 119.869752 347.8775 
L 112.893402 350.334358 
L 105.917052 352.791216 
L 98.940702 355.248074 
L 91.964351 357.704932 
L 84.988001 360.16179 
L 78.011651 362.618648 
L 71.035301 365.075506 
L 64.05895 367.532364 
L 57.0826 369.989222 
L 50.10625 372.44608 
z
" style="fill:#ff7f0e;fill-opacity:0.15;"/>
   </g>
   <g id="PathCollection_3">
    <defs>
     <path d="M 0 3 
C 0.795609 3 1.55874 2.683901 2.12132 2.12132 
C 2.683901 1.55874 3 0.795609 3 0 
C 3 -0.795609 2.683901 -1.55874 2.12132 -2.12132 
C 1.55874 -2.683901 0.795609 -3 0 -3 
C -0.795609 -3 -1.55874 -2.683901 -2.12132 -2.12132 
C -2.683901 -1.55874 -3 -0.795609 -3 0 
C -3 0.795609 -2.683901 1.55874 -2.12132 2.12132 
C -1.55874 2.683901 -0.795609 3 0 3 
z
" id="m0d3e628fa1" style="stroke:#2ca02c;stroke-opacity:0.8;"/>
    </defs>
    <g clip-path="url(#p09ab319efb)">
     <use style="fill:#2ca02c;fill-opacity:0.8;stroke:#2ca02c;stroke-opacity:0.8;" x="235.479931" xlink:href="#m0d3e628fa1" y="335.904496"/>
     <use style="fill:#2ca02c;fill-opacity:0.8;stroke:#2ca02c;stroke-opacity:0.8;" x="234.355415" xlink:href="#m0d3e628fa1" y="310.913736"/>
     <use style="fill:#2ca02c;fill-opacity:0.8;stroke:#2ca02c;stroke-opacity:0.8;" x="165.38333" xlink:href="#m0d3e628fa1" y="337.961876"/>
     <use style="fill:#2ca02c;fill-opacity:0.8;stroke:#2ca02c;stroke-opacity:0.8;" x="164.338928" xlink:href="#m0d3e628fa1" y="345.791459"/>
     <use style="fill:#2ca02c;fill-opacity:0.8;stroke:#2ca02c;stroke-opacity:0.8;" x="221.461019" xlink:href="#m0d3e628fa1" y="348.879099"/>
     <use style="fill:#2ca02c;fill-opacity:0.8;stroke:#2ca02c;stroke-opacity:0.8;" x="167.677656" xlink:href="#m0d3e628fa1" y="342.599127"/>
     <use style="fill:#2ca02c;fill-opacity:0.8;stroke:#2ca02c;stroke-opacity:0.8;" x="279.457794" xlink:href="#m0d3e628fa1" y="351.005161"/>
     <use style="fill:#2ca02c;fill-opacity:0.8;stroke:#2ca02c;stroke-opacity:0.8;" x="206.689493" xlink:href="#m0d3e628fa1" y="343.921732"/>
     <use style="fill:#2ca02c;fill-opacity:0.8;stroke:#2ca02c;stroke-opacity:0.8;" x="156.344284" xlink:href="#m0d3e628fa1" y="352.185165"/>
     <use style="fill:#2ca02c;fill-opacity:0.8;stroke:#2ca02c;stroke-opacity:0.8;" x="198.061354" xlink:href="#m0d3e628fa1" y="353.585717"/>
     <use style="fill:#2ca02c;fill-opacity:0.8;stroke:#2ca02c;stroke-opacity:0.8;" x="207.360689" xlink:href="#m0d3e628fa1" y="336.065406"/>
     <use style="fill:#2ca02c;fill-opacity:0.8;stroke:#2ca02c;stroke-opacity:0.8;" x="458.423305" xlink:href="#m0d3e628fa1" y="341.599686"/>
     <use style="fill:#2ca02c;fill-opacity:0.8;stroke:#2ca02c;stroke-opacity:0.8;" x="372.081083" xlink:href="#m0d3e628fa1" y="286.128892"/>
     <use style="fill:#2ca02c;fill-opacity:0.8;stroke:#2ca02c;stroke-opacity:0.8;" x="137.741699" xlink:href="#m0d3e628fa1" y="335.971751"/>
     <use style="fill:#2ca02c;fill-opacity:0.8;stroke:#2ca02c;stroke-opacity:0.8;" x="308.663494" xlink:href="#m0d3e628fa1" y="338.690715"/>
     <use style="fill:#2ca02c;fill-opacity:0.8;stroke:#2ca02c;stroke-opacity:0.8;" x="166.159308" xlink:href="#m0d3e628fa1" y="338.263163"/>
     <use style="fill:#2ca02c;fill-opacity:0.8;stroke:#2ca02c;stroke-opacity:0.8;" x="294.156435" xlink:href="#m0d3e628fa1" y="355.637209"/>
     <use style="fill:#2ca02c;fill-opacity:0.8;stroke:#2ca02c;stroke-opacity:0.8;" x="150.064929" xlink:href="#m0d3e628fa1" y="346.438514"/>
     <use style="fill:#2ca02c;fill-opacity:0.8;stroke:#2ca02c;stroke-opacity:0.8;" x="119.850271" xlink:href="#m0d3e628fa1" y="339.903006"/>
     <use style="fill:#2ca02c;fill-opacity:0.8;stroke:#2ca02c;stroke-opacity:0.8;" x="256.238747" xlink:href="#m0d3e628fa1" y="331.935783"/>
     <use style="fill:#2ca02c;fill-opacity:0.8;stroke:#2ca02c;stroke-opacity:0.8;" x="250.025593" xlink:href="#m0d3e628fa1" y="336.146559"/>
     <use style="fill:#2ca02c;fill-opacity:0.8;stroke:#2ca02c;stroke-opacity:0.8;" x="277.709795" xlink:href="#m0d3e628fa1" y="349.103994"/>
     <use style="fill:#2ca02c;fill-opacity:0.8;stroke:#2ca02c;stroke-opacity:0.8;" x="240.744646" xlink:href="#m0d3e628fa1" y="334.695107"/>
     <use style="fill:#2ca02c;fill-opacity:0.8;stroke:#2ca02c;stroke-opacity:0.8;" x="128.339982" xlink:href="#m0d3e628fa1" y="340.21703"/>
     <use style="fill:#2ca02c;fill-opacity:0.8;stroke:#2ca02c;stroke-opacity:0.8;" x="185.477288" xlink:href="#m0d3e628fa1" y="343.553023"/>
     <use style="fill:#2ca02c;fill-opacity:0.8;stroke:#2ca02c;stroke-opacity:0.8;" x="332.103835" xlink:href="#m0d3e628fa1" y="354.314537"/>
     <use style="fill:#2ca02c;fill-opacity:0.8;stroke:#2ca02c;stroke-opacity:0.8;" x="276.202709" xlink:href="#m0d3e628fa1" y="296.420004"/>
     <use style="fill:#2ca02c;fill-opacity:0.8;stroke:#2ca02c;stroke-opacity:0.8;" x="148.439072" xlink:href="#m0d3e628fa1" y="347.689032"/>
     <use style="fill:#2ca02c;fill-opacity:0.8;stroke:#2ca02c;stroke-opacity:0.8;" x="652.595226" xlink:href="#m0d3e628fa1" y="285.106534"/>
     <use style="fill:#2ca02c;fill-opacity:0.8;stroke:#2ca02c;stroke-opacity:0.8;" x="631.958432" xlink:href="#m0d3e628fa1" y="340.293184"/>
     <use style="fill:#2ca02c;fill-opacity:0.8;stroke:#2ca02c;stroke-opacity:0.8;" x="341.809332" xlink:href="#m0d3e628fa1" y="351.389567"/>
     <use style="fill:#2ca02c;fill-opacity:0.8;stroke:#2ca02c;stroke-opacity:0.8;" x="210.330531" xlink:href="#m0d3e628fa1" y="347.040367"/>
     <use style="fill:#2ca02c;fill-opacity:0.8;stroke:#2ca02c;stroke-opacity:0.8;" x="255.315002" xlink:href="#m0d3e628fa1" y="354.235565"/>
     <use style="fill:#2ca02c;fill-opacity:0.8;stroke:#2ca02c;stroke-opacity:0.8;" x="149.136579" xlink:href="#m0d3e628fa1" y="346.942855"/>
     <use style="fill:#2ca02c;fill-opacity:0.8;stroke:#2ca02c;stroke-opacity:0.8;" x="372.675402" xlink:href="#m0d3e628fa1" y="320.462376"/>
     <use style="fill:#2ca02c;fill-opacity:0.8;stroke:#2ca02c;stroke-opacity:0.8;" x="367.516146" xlink:href="#m0d3e628fa1" y="343.487918"/>
     <use style="fill:#2ca02c;fill-opacity:0.8;stroke:#2ca02c;stroke-opacity:0.8;" x="136.231673" xlink:href="#m0d3e628fa1" y="347.373281"/>
     <use style="fill:#2ca02c;fill-opacity:0.8;stroke:#2ca02c;stroke-opacity:0.8;" x="709.699399" xlink:href="#m0d3e628fa1" y="245.068197"/>
     <use style="fill:#2ca02c;fill-opacity:0.8;stroke:#2ca02c;stroke-opacity:0.8;" x="113.55883" xlink:href="#m0d3e628fa1" y="341.99209"/>
     <use style="fill:#2ca02c;fill-opacity:0.8;stroke:#2ca02c;stroke-opacity:0.8;" x="167.96204" xlink:href="#m0d3e628fa1" y="348.864005"/>
     <use style="fill:#2ca02c;fill-opacity:0.8;stroke:#2ca02c;stroke-opacity:0.8;" x="164.581297" xlink:href="#m0d3e628fa1" y="345.528852"/>
     <use style="fill:#2ca02c;fill-opacity:0.8;stroke:#2ca02c;stroke-opacity:0.8;" x="370.240514" xlink:href="#m0d3e628fa1" y="360.050369"/>
     <use style="fill:#2ca02c;fill-opacity:0.8;stroke:#2ca02c;stroke-opacity:0.8;" x="345.977404" xlink:href="#m0d3e628fa1" y="341.820725"/>
     <use style="fill:#2ca02c;fill-opacity:0.8;stroke:#2ca02c;stroke-opacity:0.8;" x="360.057032" xlink:href="#m0d3e628fa1" y="323.521989"/>
     <use style="fill:#2ca02c;fill-opacity:0.8;stroke:#2ca02c;stroke-opacity:0.8;" x="344.645422" xlink:href="#m0d3e628fa1" y="341.737408"/>
     <use style="fill:#2ca02c;fill-opacity:0.8;stroke:#2ca02c;stroke-opacity:0.8;" x="292.72669" xlink:href="#m0d3e628fa1" y="342.686445"/>
     <use style="fill:#2ca02c;fill-opacity:0.8;stroke:#2ca02c;stroke-opacity:0.8;" x="182.980068" xlink:href="#m0d3e628fa1" y="327.912576"/>
     <use style="fill:#2ca02c;fill-opacity:0.8;stroke:#2ca02c;stroke-opacity:0.8;" x="343.932205" xlink:href="#m0d3e628fa1" y="289.925883"/>
     <use style="fill:#2ca02c;fill-opacity:0.8;stroke:#2ca02c;stroke-opacity:0.8;" x="158.774255" xlink:href="#m0d3e628fa1" y="336.744829"/>
     <use style="fill:#2ca02c;fill-opacity:0.8;stroke:#2ca02c;stroke-opacity:0.8;" x="273.498569" xlink:href="#m0d3e628fa1" y="355.526241"/>
     <use style="fill:#2ca02c;fill-opacity:0.8;stroke:#2ca02c;stroke-opacity:0.8;" x="208.984481" xlink:href="#m0d3e628fa1" y="354.387789"/>
     <use style="fill:#2ca02c;fill-opacity:0.8;stroke:#2ca02c;stroke-opacity:0.8;" x="320.755428" xlink:href="#m0d3e628fa1" y="350.118102"/>
     <use style="fill:#2ca02c;fill-opacity:0.8;stroke:#2ca02c;stroke-opacity:0.8;" x="278.817934" xlink:href="#m0d3e628fa1" y="346.084628"/>
     <use style="fill:#2ca02c;fill-opacity:0.8;stroke:#2ca02c;stroke-opacity:0.8;" x="264.883844" xlink:href="#m0d3e628fa1" y="336.269897"/>
     <use style="fill:#2ca02c;fill-opacity:0.8;stroke:#2ca02c;stroke-opacity:0.8;" x="207.012259" xlink:href="#m0d3e628fa1" y="335.950296"/>
     <use style="fill:#2ca02c;fill-opacity:0.8;stroke:#2ca02c;stroke-opacity:0.8;" x="126.926391" xlink:href="#m0d3e628fa1" y="358.854369"/>
     <use style="fill:#2ca02c;fill-opacity:0.8;stroke:#2ca02c;stroke-opacity:0.8;" x="346.536971" xlink:href="#m0d3e628fa1" y="328.697561"/>
     <use style="fill:#2ca02c;fill-opacity:0.8;stroke:#2ca02c;stroke-opacity:0.8;" x="244.496361" xlink:href="#m0d3e628fa1" y="345.615224"/>
    </g>
   </g>
   <g id="PolyCollection_3">
    <path clip-path="url(#p09ab319efb)" d="M 50.10625 348.405259 
L 50.10625 368.154917 
L 57.0826 367.112102 
L 64.05895 366.073848 
L 71.035301 365.034781 
L 78.011651 364.024335 
L 84.988001 363.141463 
L 91.964351 362.167902 
L 98.940702 361.209307 
L 105.917052 360.158737 
L 112.893402 359.175706 
L 119.869752 358.155572 
L 126.846103 357.13431 
L 133.822453 356.113047 
L 140.798803 355.045679 
L 147.775153 354.069348 
L 154.751504 353.099454 
L 161.727854 352.099207 
L 168.704204 351.256901 
L 175.680554 350.300153 
L 182.656905 349.358016 
L 189.633255 348.468617 
L 196.609605 347.500159 
L 203.585955 346.669498 
L 210.562306 345.840744 
L 217.538656 345.135128 
L 224.515006 344.5251 
L 231.491356 343.840396 
L 238.467707 343.372162 
L 245.444057 342.861724 
L 252.420407 342.380277 
L 259.396757 341.963254 
L 266.373108 341.53144 
L 273.349458 341.122248 
L 280.325808 340.762915 
L 287.302158 340.429774 
L 294.278509 340.047333 
L 301.254859 339.696584 
L 308.231209 339.401475 
L 315.207559 339.078125 
L 322.183909 338.766923 
L 329.16026 338.434449 
L 336.13661 338.096234 
L 343.11296 337.797382 
L 350.08931 337.508011 
L 357.065661 337.198153 
L 364.042011 336.982235 
L 371.018361 336.666844 
L 377.994711 336.307995 
L 384.971062 336.032833 
L 391.947412 335.784415 
L 398.923762 335.535997 
L 405.900112 335.287579 
L 412.876463 334.996414 
L 419.852813 334.731882 
L 426.829163 334.460745 
L 433.805513 334.203823 
L 440.781864 333.946411 
L 447.758214 333.688999 
L 454.734564 333.431588 
L 461.710914 333.173134 
L 468.687265 332.911265 
L 475.663615 332.551099 
L 482.639965 332.190933 
L 489.616315 331.860842 
L 496.592666 331.602878 
L 503.569016 331.344915 
L 510.545366 331.086951 
L 517.521716 330.828988 
L 524.498067 330.571024 
L 531.474417 330.311432 
L 538.450767 330.051762 
L 545.427117 329.792092 
L 552.403468 329.532422 
L 559.379818 329.222277 
L 566.356168 328.897765 
L 573.332518 328.573252 
L 580.308869 328.271095 
L 587.285219 328.009122 
L 594.261569 327.747148 
L 601.237919 327.485174 
L 608.214269 327.2232 
L 615.19062 326.961226 
L 622.16697 326.699252 
L 629.14332 326.437279 
L 636.11967 326.174291 
L 643.096021 325.911261 
L 650.072371 325.64823 
L 657.048721 325.385199 
L 664.025071 325.122168 
L 671.001422 324.859138 
L 677.977772 324.594541 
L 684.954122 324.295255 
L 691.930472 323.995969 
L 698.906823 323.696683 
L 705.883173 323.397397 
L 712.859523 323.098111 
L 719.835873 322.798825 
L 726.812224 322.512506 
L 733.788574 322.25337 
L 740.764924 321.994235 
L 740.764924 261.83864 
L 740.764924 261.83864 
L 733.788574 262.945622 
L 726.812224 264.024512 
L 719.835873 265.116689 
L 712.859523 266.208866 
L 705.883173 267.301043 
L 698.906823 268.39322 
L 691.930472 269.485397 
L 684.954122 270.577574 
L 677.977772 271.669751 
L 671.001422 272.761928 
L 664.025071 273.854105 
L 657.048721 274.946281 
L 650.072371 276.038458 
L 643.096021 277.130635 
L 636.11967 278.211445 
L 629.14332 279.27191 
L 622.16697 280.332375 
L 615.19062 281.39284 
L 608.214269 282.453305 
L 601.237919 283.514816 
L 594.261569 284.576428 
L 587.285219 285.63804 
L 580.308869 286.699652 
L 573.332518 287.761264 
L 566.356168 288.822876 
L 559.379818 289.884488 
L 552.403468 290.965556 
L 545.427117 292.073611 
L 538.450767 293.156132 
L 531.474417 294.172294 
L 524.498067 295.188456 
L 517.521716 296.246438 
L 510.545366 297.305694 
L 503.569016 298.364949 
L 496.592666 299.375675 
L 489.616315 300.361615 
L 482.639965 301.347554 
L 475.663615 302.333663 
L 468.687265 303.362782 
L 461.710914 304.425338 
L 454.734564 305.490072 
L 447.758214 306.55329 
L 440.781864 307.616618 
L 433.805513 308.677312 
L 426.829163 309.742082 
L 419.852813 310.804325 
L 412.876463 311.783515 
L 405.900112 312.727189 
L 398.923762 313.723672 
L 391.947412 314.738952 
L 384.971062 315.756471 
L 377.994711 316.774941 
L 371.018361 317.795727 
L 364.042011 318.961199 
L 357.065661 320.105304 
L 350.08931 321.094633 
L 343.11296 322.083961 
L 336.13661 323.126678 
L 329.16026 324.183849 
L 322.183909 325.204415 
L 315.207559 326.249811 
L 308.231209 327.206991 
L 301.254859 328.24557 
L 294.278509 329.24345 
L 287.302158 330.242725 
L 280.325808 331.181796 
L 273.349458 332.153763 
L 266.373108 333.123498 
L 259.396757 334.102835 
L 252.420407 335.005564 
L 245.444057 335.915607 
L 238.467707 336.838926 
L 231.491356 337.742449 
L 224.515006 338.561913 
L 217.538656 339.376902 
L 210.562306 340.074774 
L 203.585955 340.748377 
L 196.609605 341.338165 
L 189.633255 341.795095 
L 182.656905 342.34125 
L 175.680554 342.826442 
L 168.704204 343.18666 
L 161.727854 343.559665 
L 154.751504 343.909821 
L 147.775153 344.302699 
L 140.798803 344.684526 
L 133.822453 345.007989 
L 126.846103 345.210328 
L 119.869752 345.524673 
L 112.893402 345.823621 
L 105.917052 346.108318 
L 98.940702 346.457772 
L 91.964351 346.76938 
L 84.988001 347.050803 
L 78.011651 347.330527 
L 71.035301 347.609909 
L 64.05895 347.873511 
L 57.0826 348.131451 
L 50.10625 348.405259 
z
" style="fill:#2ca02c;fill-opacity:0.15;"/>
   </g>
   <g id="line2d_25">
    <path clip-path="url(#p09ab319efb)" d="M 50.10625 362.422614 
L 57.0826 359.700304 
L 64.05895 356.977994 
L 71.035301 354.255685 
L 78.011651 351.533375 
L 84.988001 348.811065 
L 91.964351 346.088755 
L 98.940702 343.366445 
L 105.917052 340.644135 
L 112.893402 337.921826 
L 119.869752 335.199516 
L 126.846103 332.477206 
L 133.822453 329.754896 
L 140.798803 327.032586 
L 147.775153 324.310276 
L 154.751504 321.587966 
L 161.727854 318.865657 
L 168.704204 316.143347 
L 175.680554 313.421037 
L 182.656905 310.698727 
L 189.633255 307.976417 
L 196.609605 305.254107 
L 203.585955 302.531797 
L 210.562306 299.809488 
L 217.538656 297.087178 
L 224.515006 294.364868 
L 231.491356 291.642558 
L 238.467707 288.920248 
L 245.444057 286.197938 
L 252.420407 283.475629 
L 259.396757 280.753319 
L 266.373108 278.031009 
L 273.349458 275.308699 
L 280.325808 272.586389 
L 287.302158 269.864079 
L 294.278509 267.141769 
L 301.254859 264.41946 
L 308.231209 261.69715 
L 315.207559 258.97484 
L 322.183909 256.25253 
L 329.16026 253.53022 
L 336.13661 250.80791 
L 343.11296 248.085601 
L 350.08931 245.363291 
L 357.065661 242.640981 
L 364.042011 239.918671 
L 371.018361 237.196361 
L 377.994711 234.474051 
L 384.971062 231.751741 
L 391.947412 229.029432 
L 398.923762 226.307122 
L 405.900112 223.584812 
L 412.876463 220.862502 
L 419.852813 218.140192 
L 426.829163 215.417882 
L 433.805513 212.695572 
L 440.781864 209.973263 
L 447.758214 207.250953 
L 454.734564 204.528643 
L 461.710914 201.806333 
L 468.687265 199.084023 
L 475.663615 196.361713 
L 482.639965 193.639404 
L 489.616315 190.917094 
L 496.592666 188.194784 
L 503.569016 185.472474 
L 510.545366 182.750164 
L 517.521716 180.027854 
L 524.498067 177.305544 
L 531.474417 174.583235 
L 538.450767 171.860925 
L 545.427117 169.138615 
L 552.403468 166.416305 
L 559.379818 163.693995 
L 566.356168 160.971685 
L 573.332518 158.249376 
L 580.308869 155.527066 
L 587.285219 152.804756 
L 594.261569 150.082446 
L 601.237919 147.360136 
L 608.214269 144.637826 
L 615.19062 141.915516 
L 622.16697 139.193207 
L 629.14332 136.470897 
L 636.11967 133.748587 
L 643.096021 131.026277 
L 650.072371 128.303967 
L 657.048721 125.581657 
L 664.025071 122.859347 
L 671.001422 120.137038 
L 677.977772 117.414728 
L 684.954122 114.692418 
L 691.930472 111.970108 
L 698.906823 109.247798 
L 705.883173 106.525488 
L 712.859523 103.803179 
L 719.835873 101.080869 
L 726.812224 98.358559 
L 733.788574 95.636249 
L 740.764924 92.913939 
" style="fill:none;stroke:#1f77b4;stroke-linecap:round;stroke-width:2.25;"/>
   </g>
   <g id="line2d_26">
    <path clip-path="url(#p09ab319efb)" d="M 50.10625 372.44608 
L 57.0826 369.989222 
L 64.05895 367.532364 
L 71.035301 365.075506 
L 78.011651 362.618648 
L 84.988001 360.16179 
L 91.964351 357.704932 
L 98.940702 355.248074 
L 105.917052 352.791216 
L 112.893402 350.334358 
L 119.869752 347.8775 
L 126.846103 345.420642 
L 133.822453 342.963784 
L 140.798803 340.506926 
L 147.775153 338.050068 
L 154.751504 335.59321 
L 161.727854 333.136352 
L 168.704204 330.679494 
L 175.680554 328.222636 
L 182.656905 325.765778 
L 189.633255 323.30892 
L 196.609605 320.852062 
L 203.585955 318.395204 
L 210.562306 315.938346 
L 217.538656 313.481488 
L 224.515006 311.02463 
L 231.491356 308.567772 
L 238.467707 306.110914 
L 245.444057 303.654056 
L 252.420407 301.197198 
L 259.396757 298.74034 
L 266.373108 296.283482 
L 273.349458 293.826624 
L 280.325808 291.369766 
L 287.302158 288.912908 
L 294.278509 286.45605 
L 301.254859 283.999192 
L 308.231209 281.542334 
L 315.207559 279.085476 
L 322.183909 276.628618 
L 329.16026 274.17176 
L 336.13661 271.714902 
L 343.11296 269.258044 
L 350.08931 266.801186 
L 357.065661 264.344328 
L 364.042011 261.88747 
L 371.018361 259.430612 
L 377.994711 256.973754 
L 384.971062 254.516896 
L 391.947412 252.060038 
L 398.923762 249.60318 
L 405.900112 247.146322 
L 412.876463 244.689464 
L 419.852813 242.232606 
L 426.829163 239.775748 
L 433.805513 237.31889 
L 440.781864 234.862032 
L 447.758214 232.405174 
L 454.734564 229.948316 
L 461.710914 227.491458 
L 468.687265 225.034601 
L 475.663615 222.577743 
L 482.639965 220.120885 
L 489.616315 217.664027 
L 496.592666 215.207169 
L 503.569016 212.750311 
L 510.545366 210.293453 
L 517.521716 207.836595 
L 524.498067 205.379737 
L 531.474417 202.922879 
L 538.450767 200.466021 
L 545.427117 198.009163 
L 552.403468 195.552305 
L 559.379818 193.095447 
L 566.356168 190.638589 
L 573.332518 188.181731 
L 580.308869 185.724873 
L 587.285219 183.268015 
L 594.261569 180.811157 
L 601.237919 178.354299 
L 608.214269 175.897441 
L 615.19062 173.440583 
L 622.16697 170.983725 
L 629.14332 168.526867 
L 636.11967 166.070009 
L 643.096021 163.613151 
L 650.072371 161.156293 
L 657.048721 158.699435 
L 664.025071 156.242577 
L 671.001422 153.785719 
L 677.977772 151.328861 
L 684.954122 148.872003 
L 691.930472 146.415145 
L 698.906823 143.958287 
L 705.883173 141.501429 
L 712.859523 139.044571 
L 719.835873 136.587713 
L 726.812224 134.130855 
L 733.788574 131.673997 
L 740.764924 129.217139 
" style="fill:none;stroke:#ff7f0e;stroke-linecap:round;stroke-width:2.25;"/>
   </g>
   <g id="line2d_27">
    <path clip-path="url(#p09ab319efb)" d="M 50.10625 359.589248 
L 57.0826 358.867485 
L 64.05895 358.145723 
L 71.035301 357.42396 
L 78.011651 356.702198 
L 84.988001 355.980435 
L 91.964351 355.258673 
L 98.940702 354.53691 
L 105.917052 353.815148 
L 112.893402 353.093385 
L 119.869752 352.371623 
L 126.846103 351.64986 
L 133.822453 350.928097 
L 140.798803 350.206335 
L 147.775153 349.484572 
L 154.751504 348.76281 
L 161.727854 348.041047 
L 168.704204 347.319285 
L 175.680554 346.597522 
L 182.656905 345.87576 
L 189.633255 345.153997 
L 196.609605 344.432234 
L 203.585955 343.710472 
L 210.562306 342.988709 
L 217.538656 342.266947 
L 224.515006 341.545184 
L 231.491356 340.823422 
L 238.467707 340.101659 
L 245.444057 339.379897 
L 252.420407 338.658134 
L 259.396757 337.936372 
L 266.373108 337.214609 
L 273.349458 336.492846 
L 280.325808 335.771084 
L 287.302158 335.049321 
L 294.278509 334.327559 
L 301.254859 333.605796 
L 308.231209 332.884034 
L 315.207559 332.162271 
L 322.183909 331.440509 
L 329.16026 330.718746 
L 336.13661 329.996983 
L 343.11296 329.275221 
L 350.08931 328.553458 
L 357.065661 327.831696 
L 364.042011 327.109933 
L 371.018361 326.388171 
L 377.994711 325.666408 
L 384.971062 324.944646 
L 391.947412 324.222883 
L 398.923762 323.501121 
L 405.900112 322.779358 
L 412.876463 322.057595 
L 419.852813 321.335833 
L 426.829163 320.61407 
L 433.805513 319.892308 
L 440.781864 319.170545 
L 447.758214 318.448783 
L 454.734564 317.72702 
L 461.710914 317.005258 
L 468.687265 316.283495 
L 475.663615 315.561732 
L 482.639965 314.83997 
L 489.616315 314.118207 
L 496.592666 313.396445 
L 503.569016 312.674682 
L 510.545366 311.95292 
L 517.521716 311.231157 
L 524.498067 310.509395 
L 531.474417 309.787632 
L 538.450767 309.06587 
L 545.427117 308.344107 
L 552.403468 307.622344 
L 559.379818 306.900582 
L 566.356168 306.178819 
L 573.332518 305.457057 
L 580.308869 304.735294 
L 587.285219 304.013532 
L 594.261569 303.291769 
L 601.237919 302.570007 
L 608.214269 301.848244 
L 615.19062 301.126481 
L 622.16697 300.404719 
L 629.14332 299.682956 
L 636.11967 298.961194 
L 643.096021 298.239431 
L 650.072371 297.517669 
L 657.048721 296.795906 
L 664.025071 296.074144 
L 671.001422 295.352381 
L 677.977772 294.630619 
L 684.954122 293.908856 
L 691.930472 293.187093 
L 698.906823 292.465331 
L 705.883173 291.743568 
L 712.859523 291.021806 
L 719.835873 290.300043 
L 726.812224 289.578281 
L 733.788574 288.856518 
L 740.764924 288.134756 
" style="fill:none;stroke:#2ca02c;stroke-linecap:round;stroke-width:2.25;"/>
   </g>
   <g id="patch_3">
    <path d="M 50.10625 389.83875 
L 50.10625 7.2 
" style="fill:none;"/>
   </g>
   <g id="patch_4">
    <path d="M 50.10625 389.83875 
L 740.764924 389.83875 
" style="fill:none;"/>
   </g>
  </g>
  <g id="legend_1">
   <g id="text_15">
    <!-- Net -->
    <defs>
     <path d="M 9.8125 72.90625 
L 23.09375 72.90625 
L 55.421875 11.921875 
L 55.421875 72.90625 
L 64.984375 72.90625 
L 64.984375 0 
L 51.703125 0 
L 19.390625 60.984375 
L 19.390625 0 
L 9.8125 0 
z
" id="DejaVuSans-4e"/>
    </defs>
    <g style="fill:#262626;" transform="translate(760.121424 192.82875)scale(0.1 -0.1)">
     <use xlink:href="#DejaVuSans-4e"/>
     <use x="74.804688" xlink:href="#DejaVuSans-65"/>
     <use x="136.328125" xlink:href="#DejaVuSans-74"/>
    </g>
   </g>
   <g id="PathCollection_4">
    <g>
     <use style="fill:#1f77b4;fill-opacity:0.8;stroke:#1f77b4;stroke-opacity:0.8;" x="759.913612" xlink:href="#m3bca3e406f" y="204.881875"/>
    </g>
   </g>
   <g id="text_16">
    <!-- -1 -->
    <defs>
     <path d="M 4.890625 31.390625 
L 31.203125 31.390625 
L 31.203125 23.390625 
L 4.890625 23.390625 
z
" id="DejaVuSans-2d"/>
    </defs>
    <g style="fill:#262626;" transform="translate(777.913612 207.506875)scale(0.1 -0.1)">
     <use xlink:href="#DejaVuSans-2d"/>
     <use x="36.083984" xlink:href="#DejaVuSans-31"/>
    </g>
   </g>
   <g id="PathCollection_5">
    <g>
     <use style="fill:#ff7f0e;fill-opacity:0.8;stroke:#ff7f0e;stroke-opacity:0.8;" x="759.913612" xlink:href="#m61f2b13904" y="219.56"/>
    </g>
   </g>
   <g id="text_17">
    <!-- 0 -->
    <g style="fill:#262626;" transform="translate(777.913612 222.185)scale(0.1 -0.1)">
     <use xlink:href="#DejaVuSans-30"/>
    </g>
   </g>
   <g id="PathCollection_6">
    <g>
     <use style="fill:#2ca02c;fill-opacity:0.8;stroke:#2ca02c;stroke-opacity:0.8;" x="759.913612" xlink:href="#m0d3e628fa1" y="234.238125"/>
    </g>
   </g>
   <g id="text_18">
    <!-- 1 -->
    <g style="fill:#262626;" transform="translate(777.913612 236.863125)scale(0.1 -0.1)">
     <use xlink:href="#DejaVuSans-31"/>
    </g>
   </g>
  </g>
 </g>
 <defs>
  <clipPath id="p09ab319efb">
   <rect height="382.63875" width="690.658674" x="50.10625" y="7.2"/>
  </clipPath>
 </defs>
</svg>
