<?xml version="1.0" encoding="utf-8" standalone="no"?>
<!DOCTYPE svg PUBLIC "-//W3C//DTD SVG 1.1//EN"
  "http://www.w3.org/Graphics/SVG/1.1/DTD/svg11.dtd">
<!-- Created with matplotlib (http://matplotlib.org/) -->
<svg height="424pt" version="1.1" viewBox="0 0 796 424" width="796pt" xmlns="http://www.w3.org/2000/svg" xmlns:xlink="http://www.w3.org/1999/xlink">
 <defs>
  <style type="text/css">
*{stroke-linecap:butt;stroke-linejoin:round;}
  </style>
 </defs>
 <g id="figure_1">
  <g id="patch_1">
   <path d="M -0 424.173125 
L 796.883924 424.173125 
L 796.883924 0 
L -0 0 
z
" style="fill:#ffffff;"/>
  </g>
  <g id="axes_1">
   <g id="patch_2">
    <path d="M 50.10625 389.83875 
L 740.764924 389.83875 
L 740.764924 7.2 
L 50.10625 7.2 
z
" style="fill:#eaeaf2;"/>
   </g>
   <g id="matplotlib.axis_1">
    <g id="xtick_1">
     <g id="line2d_1">
      <path clip-path="url(#pe128efa35a)" d="M 107.76989 389.83875 
L 107.76989 7.2 
" style="fill:none;stroke:#ffffff;stroke-linecap:round;stroke-width:0.8;"/>
     </g>
     <g id="line2d_2"/>
     <g id="text_1">
      <!-- 0 -->
      <defs>
       <path d="M 31.78125 66.40625 
Q 24.171875 66.40625 20.328125 58.90625 
Q 16.5 51.421875 16.5 36.375 
Q 16.5 21.390625 20.328125 13.890625 
Q 24.171875 6.390625 31.78125 6.390625 
Q 39.453125 6.390625 43.28125 13.890625 
Q 47.125 21.390625 47.125 36.375 
Q 47.125 51.421875 43.28125 58.90625 
Q 39.453125 66.40625 31.78125 66.40625 
z
M 31.78125 74.21875 
Q 44.046875 74.21875 50.515625 64.515625 
Q 56.984375 54.828125 56.984375 36.375 
Q 56.984375 17.96875 50.515625 8.265625 
Q 44.046875 -1.421875 31.78125 -1.421875 
Q 19.53125 -1.421875 13.0625 8.265625 
Q 6.59375 17.96875 6.59375 36.375 
Q 6.59375 54.828125 13.0625 64.515625 
Q 19.53125 74.21875 31.78125 74.21875 
z
" id="DejaVuSans-30"/>
      </defs>
      <g style="fill:#262626;" transform="translate(104.58864 400.937187)scale(0.1 -0.1)">
       <use xlink:href="#DejaVuSans-30"/>
      </g>
     </g>
    </g>
    <g id="xtick_2">
     <g id="line2d_3">
      <path clip-path="url(#pe128efa35a)" d="M 254.328039 389.83875 
L 254.328039 7.2 
" style="fill:none;stroke:#ffffff;stroke-linecap:round;stroke-width:0.8;"/>
     </g>
     <g id="line2d_4"/>
     <g id="text_2">
      <!-- 200 -->
      <defs>
       <path d="M 19.1875 8.296875 
L 53.609375 8.296875 
L 53.609375 0 
L 7.328125 0 
L 7.328125 8.296875 
Q 12.9375 14.109375 22.625 23.890625 
Q 32.328125 33.6875 34.8125 36.53125 
Q 39.546875 41.84375 41.421875 45.53125 
Q 43.3125 49.21875 43.3125 52.78125 
Q 43.3125 58.59375 39.234375 62.25 
Q 35.15625 65.921875 28.609375 65.921875 
Q 23.96875 65.921875 18.8125 64.3125 
Q 13.671875 62.703125 7.8125 59.421875 
L 7.8125 69.390625 
Q 13.765625 71.78125 18.9375 73 
Q 24.125 74.21875 28.421875 74.21875 
Q 39.75 74.21875 46.484375 68.546875 
Q 53.21875 62.890625 53.21875 53.421875 
Q 53.21875 48.921875 51.53125 44.890625 
Q 49.859375 40.875 45.40625 35.40625 
Q 44.1875 33.984375 37.640625 27.21875 
Q 31.109375 20.453125 19.1875 8.296875 
z
" id="DejaVuSans-32"/>
      </defs>
      <g style="fill:#262626;" transform="translate(244.784289 400.937187)scale(0.1 -0.1)">
       <use xlink:href="#DejaVuSans-32"/>
       <use x="63.623047" xlink:href="#DejaVuSans-30"/>
       <use x="127.246094" xlink:href="#DejaVuSans-30"/>
      </g>
     </g>
    </g>
    <g id="xtick_3">
     <g id="line2d_5">
      <path clip-path="url(#pe128efa35a)" d="M 400.886189 389.83875 
L 400.886189 7.2 
" style="fill:none;stroke:#ffffff;stroke-linecap:round;stroke-width:0.8;"/>
     </g>
     <g id="line2d_6"/>
     <g id="text_3">
      <!-- 400 -->
      <defs>
       <path d="M 37.796875 64.3125 
L 12.890625 25.390625 
L 37.796875 25.390625 
z
M 35.203125 72.90625 
L 47.609375 72.90625 
L 47.609375 25.390625 
L 58.015625 25.390625 
L 58.015625 17.1875 
L 47.609375 17.1875 
L 47.609375 0 
L 37.796875 0 
L 37.796875 17.1875 
L 4.890625 17.1875 
L 4.890625 26.703125 
z
" id="DejaVuSans-34"/>
      </defs>
      <g style="fill:#262626;" transform="translate(391.342439 400.937187)scale(0.1 -0.1)">
       <use xlink:href="#DejaVuSans-34"/>
       <use x="63.623047" xlink:href="#DejaVuSans-30"/>
       <use x="127.246094" xlink:href="#DejaVuSans-30"/>
      </g>
     </g>
    </g>
    <g id="xtick_4">
     <g id="line2d_7">
      <path clip-path="url(#pe128efa35a)" d="M 547.444338 389.83875 
L 547.444338 7.2 
" style="fill:none;stroke:#ffffff;stroke-linecap:round;stroke-width:0.8;"/>
     </g>
     <g id="line2d_8"/>
     <g id="text_4">
      <!-- 600 -->
      <defs>
       <path d="M 33.015625 40.375 
Q 26.375 40.375 22.484375 35.828125 
Q 18.609375 31.296875 18.609375 23.390625 
Q 18.609375 15.53125 22.484375 10.953125 
Q 26.375 6.390625 33.015625 6.390625 
Q 39.65625 6.390625 43.53125 10.953125 
Q 47.40625 15.53125 47.40625 23.390625 
Q 47.40625 31.296875 43.53125 35.828125 
Q 39.65625 40.375 33.015625 40.375 
z
M 52.59375 71.296875 
L 52.59375 62.3125 
Q 48.875 64.0625 45.09375 64.984375 
Q 41.3125 65.921875 37.59375 65.921875 
Q 27.828125 65.921875 22.671875 59.328125 
Q 17.53125 52.734375 16.796875 39.40625 
Q 19.671875 43.65625 24.015625 45.921875 
Q 28.375 48.1875 33.59375 48.1875 
Q 44.578125 48.1875 50.953125 41.515625 
Q 57.328125 34.859375 57.328125 23.390625 
Q 57.328125 12.15625 50.6875 5.359375 
Q 44.046875 -1.421875 33.015625 -1.421875 
Q 20.359375 -1.421875 13.671875 8.265625 
Q 6.984375 17.96875 6.984375 36.375 
Q 6.984375 53.65625 15.1875 63.9375 
Q 23.390625 74.21875 37.203125 74.21875 
Q 40.921875 74.21875 44.703125 73.484375 
Q 48.484375 72.75 52.59375 71.296875 
z
" id="DejaVuSans-36"/>
      </defs>
      <g style="fill:#262626;" transform="translate(537.900588 400.937187)scale(0.1 -0.1)">
       <use xlink:href="#DejaVuSans-36"/>
       <use x="63.623047" xlink:href="#DejaVuSans-30"/>
       <use x="127.246094" xlink:href="#DejaVuSans-30"/>
      </g>
     </g>
    </g>
    <g id="xtick_5">
     <g id="line2d_9">
      <path clip-path="url(#pe128efa35a)" d="M 694.002487 389.83875 
L 694.002487 7.2 
" style="fill:none;stroke:#ffffff;stroke-linecap:round;stroke-width:0.8;"/>
     </g>
     <g id="line2d_10"/>
     <g id="text_5">
      <!-- 800 -->
      <defs>
       <path d="M 31.78125 34.625 
Q 24.75 34.625 20.71875 30.859375 
Q 16.703125 27.09375 16.703125 20.515625 
Q 16.703125 13.921875 20.71875 10.15625 
Q 24.75 6.390625 31.78125 6.390625 
Q 38.8125 6.390625 42.859375 10.171875 
Q 46.921875 13.96875 46.921875 20.515625 
Q 46.921875 27.09375 42.890625 30.859375 
Q 38.875 34.625 31.78125 34.625 
z
M 21.921875 38.8125 
Q 15.578125 40.375 12.03125 44.71875 
Q 8.5 49.078125 8.5 55.328125 
Q 8.5 64.0625 14.71875 69.140625 
Q 20.953125 74.21875 31.78125 74.21875 
Q 42.671875 74.21875 48.875 69.140625 
Q 55.078125 64.0625 55.078125 55.328125 
Q 55.078125 49.078125 51.53125 44.71875 
Q 48 40.375 41.703125 38.8125 
Q 48.828125 37.15625 52.796875 32.3125 
Q 56.78125 27.484375 56.78125 20.515625 
Q 56.78125 9.90625 50.3125 4.234375 
Q 43.84375 -1.421875 31.78125 -1.421875 
Q 19.734375 -1.421875 13.25 4.234375 
Q 6.78125 9.90625 6.78125 20.515625 
Q 6.78125 27.484375 10.78125 32.3125 
Q 14.796875 37.15625 21.921875 38.8125 
z
M 18.3125 54.390625 
Q 18.3125 48.734375 21.84375 45.5625 
Q 25.390625 42.390625 31.78125 42.390625 
Q 38.140625 42.390625 41.71875 45.5625 
Q 45.3125 48.734375 45.3125 54.390625 
Q 45.3125 60.0625 41.71875 63.234375 
Q 38.140625 66.40625 31.78125 66.40625 
Q 25.390625 66.40625 21.84375 63.234375 
Q 18.3125 60.0625 18.3125 54.390625 
z
" id="DejaVuSans-38"/>
      </defs>
      <g style="fill:#262626;" transform="translate(684.458737 400.937187)scale(0.1 -0.1)">
       <use xlink:href="#DejaVuSans-38"/>
       <use x="63.623047" xlink:href="#DejaVuSans-30"/>
       <use x="127.246094" xlink:href="#DejaVuSans-30"/>
      </g>
     </g>
    </g>
    <g id="text_6">
     <!-- Sum_Credit -->
     <defs>
      <path d="M 53.515625 70.515625 
L 53.515625 60.890625 
Q 47.90625 63.578125 42.921875 64.890625 
Q 37.9375 66.21875 33.296875 66.21875 
Q 25.25 66.21875 20.875 63.09375 
Q 16.5 59.96875 16.5 54.203125 
Q 16.5 49.359375 19.40625 46.890625 
Q 22.3125 44.4375 30.421875 42.921875 
L 36.375 41.703125 
Q 47.40625 39.59375 52.65625 34.296875 
Q 57.90625 29 57.90625 20.125 
Q 57.90625 9.515625 50.796875 4.046875 
Q 43.703125 -1.421875 29.984375 -1.421875 
Q 24.8125 -1.421875 18.96875 -0.25 
Q 13.140625 0.921875 6.890625 3.21875 
L 6.890625 13.375 
Q 12.890625 10.015625 18.65625 8.296875 
Q 24.421875 6.59375 29.984375 6.59375 
Q 38.421875 6.59375 43.015625 9.90625 
Q 47.609375 13.234375 47.609375 19.390625 
Q 47.609375 24.75 44.3125 27.78125 
Q 41.015625 30.8125 33.5 32.328125 
L 27.484375 33.5 
Q 16.453125 35.6875 11.515625 40.375 
Q 6.59375 45.0625 6.59375 53.421875 
Q 6.59375 63.09375 13.40625 68.65625 
Q 20.21875 74.21875 32.171875 74.21875 
Q 37.3125 74.21875 42.625 73.28125 
Q 47.953125 72.359375 53.515625 70.515625 
z
" id="DejaVuSans-53"/>
      <path d="M 8.5 21.578125 
L 8.5 54.6875 
L 17.484375 54.6875 
L 17.484375 21.921875 
Q 17.484375 14.15625 20.5 10.265625 
Q 23.53125 6.390625 29.59375 6.390625 
Q 36.859375 6.390625 41.078125 11.03125 
Q 45.3125 15.671875 45.3125 23.6875 
L 45.3125 54.6875 
L 54.296875 54.6875 
L 54.296875 0 
L 45.3125 0 
L 45.3125 8.40625 
Q 42.046875 3.421875 37.71875 1 
Q 33.40625 -1.421875 27.6875 -1.421875 
Q 18.265625 -1.421875 13.375 4.4375 
Q 8.5 10.296875 8.5 21.578125 
z
M 31.109375 56 
z
" id="DejaVuSans-75"/>
      <path d="M 52 44.1875 
Q 55.375 50.25 60.0625 53.125 
Q 64.75 56 71.09375 56 
Q 79.640625 56 84.28125 50.015625 
Q 88.921875 44.046875 88.921875 33.015625 
L 88.921875 0 
L 79.890625 0 
L 79.890625 32.71875 
Q 79.890625 40.578125 77.09375 44.375 
Q 74.3125 48.1875 68.609375 48.1875 
Q 61.625 48.1875 57.5625 43.546875 
Q 53.515625 38.921875 53.515625 30.90625 
L 53.515625 0 
L 44.484375 0 
L 44.484375 32.71875 
Q 44.484375 40.625 41.703125 44.40625 
Q 38.921875 48.1875 33.109375 48.1875 
Q 26.21875 48.1875 22.15625 43.53125 
Q 18.109375 38.875 18.109375 30.90625 
L 18.109375 0 
L 9.078125 0 
L 9.078125 54.6875 
L 18.109375 54.6875 
L 18.109375 46.1875 
Q 21.1875 51.21875 25.484375 53.609375 
Q 29.78125 56 35.6875 56 
Q 41.65625 56 45.828125 52.96875 
Q 50 49.953125 52 44.1875 
z
" id="DejaVuSans-6d"/>
      <path d="M 50.984375 -16.609375 
L 50.984375 -23.578125 
L -0.984375 -23.578125 
L -0.984375 -16.609375 
z
" id="DejaVuSans-5f"/>
      <path d="M 64.40625 67.28125 
L 64.40625 56.890625 
Q 59.421875 61.53125 53.78125 63.8125 
Q 48.140625 66.109375 41.796875 66.109375 
Q 29.296875 66.109375 22.65625 58.46875 
Q 16.015625 50.828125 16.015625 36.375 
Q 16.015625 21.96875 22.65625 14.328125 
Q 29.296875 6.6875 41.796875 6.6875 
Q 48.140625 6.6875 53.78125 8.984375 
Q 59.421875 11.28125 64.40625 15.921875 
L 64.40625 5.609375 
Q 59.234375 2.09375 53.4375 0.328125 
Q 47.65625 -1.421875 41.21875 -1.421875 
Q 24.65625 -1.421875 15.125 8.703125 
Q 5.609375 18.84375 5.609375 36.375 
Q 5.609375 53.953125 15.125 64.078125 
Q 24.65625 74.21875 41.21875 74.21875 
Q 47.75 74.21875 53.53125 72.484375 
Q 59.328125 70.75 64.40625 67.28125 
z
" id="DejaVuSans-43"/>
      <path d="M 41.109375 46.296875 
Q 39.59375 47.171875 37.8125 47.578125 
Q 36.03125 48 33.890625 48 
Q 26.265625 48 22.1875 43.046875 
Q 18.109375 38.09375 18.109375 28.8125 
L 18.109375 0 
L 9.078125 0 
L 9.078125 54.6875 
L 18.109375 54.6875 
L 18.109375 46.1875 
Q 20.953125 51.171875 25.484375 53.578125 
Q 30.03125 56 36.53125 56 
Q 37.453125 56 38.578125 55.875 
Q 39.703125 55.765625 41.0625 55.515625 
z
" id="DejaVuSans-72"/>
      <path d="M 56.203125 29.59375 
L 56.203125 25.203125 
L 14.890625 25.203125 
Q 15.484375 15.921875 20.484375 11.0625 
Q 25.484375 6.203125 34.421875 6.203125 
Q 39.59375 6.203125 44.453125 7.46875 
Q 49.3125 8.734375 54.109375 11.28125 
L 54.109375 2.78125 
Q 49.265625 0.734375 44.1875 -0.34375 
Q 39.109375 -1.421875 33.890625 -1.421875 
Q 20.796875 -1.421875 13.15625 6.1875 
Q 5.515625 13.8125 5.515625 26.8125 
Q 5.515625 40.234375 12.765625 48.109375 
Q 20.015625 56 32.328125 56 
Q 43.359375 56 49.78125 48.890625 
Q 56.203125 41.796875 56.203125 29.59375 
z
M 47.21875 32.234375 
Q 47.125 39.59375 43.09375 43.984375 
Q 39.0625 48.390625 32.421875 48.390625 
Q 24.90625 48.390625 20.390625 44.140625 
Q 15.875 39.890625 15.1875 32.171875 
z
" id="DejaVuSans-65"/>
      <path d="M 45.40625 46.390625 
L 45.40625 75.984375 
L 54.390625 75.984375 
L 54.390625 0 
L 45.40625 0 
L 45.40625 8.203125 
Q 42.578125 3.328125 38.25 0.953125 
Q 33.9375 -1.421875 27.875 -1.421875 
Q 17.96875 -1.421875 11.734375 6.484375 
Q 5.515625 14.40625 5.515625 27.296875 
Q 5.515625 40.1875 11.734375 48.09375 
Q 17.96875 56 27.875 56 
Q 33.9375 56 38.25 53.625 
Q 42.578125 51.265625 45.40625 46.390625 
z
M 14.796875 27.296875 
Q 14.796875 17.390625 18.875 11.75 
Q 22.953125 6.109375 30.078125 6.109375 
Q 37.203125 6.109375 41.296875 11.75 
Q 45.40625 17.390625 45.40625 27.296875 
Q 45.40625 37.203125 41.296875 42.84375 
Q 37.203125 48.484375 30.078125 48.484375 
Q 22.953125 48.484375 18.875 42.84375 
Q 14.796875 37.203125 14.796875 27.296875 
z
" id="DejaVuSans-64"/>
      <path d="M 9.421875 54.6875 
L 18.40625 54.6875 
L 18.40625 0 
L 9.421875 0 
z
M 9.421875 75.984375 
L 18.40625 75.984375 
L 18.40625 64.59375 
L 9.421875 64.59375 
z
" id="DejaVuSans-69"/>
      <path d="M 18.3125 70.21875 
L 18.3125 54.6875 
L 36.8125 54.6875 
L 36.8125 47.703125 
L 18.3125 47.703125 
L 18.3125 18.015625 
Q 18.3125 11.328125 20.140625 9.421875 
Q 21.96875 7.515625 27.59375 7.515625 
L 36.8125 7.515625 
L 36.8125 0 
L 27.59375 0 
Q 17.1875 0 13.234375 3.875 
Q 9.28125 7.765625 9.28125 18.015625 
L 9.28125 47.703125 
L 2.6875 47.703125 
L 2.6875 54.6875 
L 9.28125 54.6875 
L 9.28125 70.21875 
z
" id="DejaVuSans-74"/>
     </defs>
     <g style="fill:#262626;" transform="translate(366.576993 414.615312)scale(0.1 -0.1)">
      <use xlink:href="#DejaVuSans-53"/>
      <use x="63.476562" xlink:href="#DejaVuSans-75"/>
      <use x="126.855469" xlink:href="#DejaVuSans-6d"/>
      <use x="224.267578" xlink:href="#DejaVuSans-5f"/>
      <use x="274.267578" xlink:href="#DejaVuSans-43"/>
      <use x="344.091797" xlink:href="#DejaVuSans-72"/>
      <use x="385.173828" xlink:href="#DejaVuSans-65"/>
      <use x="446.697266" xlink:href="#DejaVuSans-64"/>
      <use x="510.173828" xlink:href="#DejaVuSans-69"/>
      <use x="537.957031" xlink:href="#DejaVuSans-74"/>
     </g>
    </g>
   </g>
   <g id="matplotlib.axis_2">
    <g id="ytick_1">
     <g id="line2d_11">
      <path clip-path="url(#pe128efa35a)" d="M 50.10625 350.173549 
L 740.764924 350.173549 
" style="fill:none;stroke:#ffffff;stroke-linecap:round;stroke-width:0.8;"/>
     </g>
     <g id="line2d_12"/>
     <g id="text_7">
      <!-- 0 -->
      <g style="fill:#262626;" transform="translate(40.24375 353.972768)scale(0.1 -0.1)">
       <use xlink:href="#DejaVuSans-30"/>
      </g>
     </g>
    </g>
    <g id="ytick_2">
     <g id="line2d_13">
      <path clip-path="url(#pe128efa35a)" d="M 50.10625 295.814175 
L 740.764924 295.814175 
" style="fill:none;stroke:#ffffff;stroke-linecap:round;stroke-width:0.8;"/>
     </g>
     <g id="line2d_14"/>
     <g id="text_8">
      <!-- 200 -->
      <g style="fill:#262626;" transform="translate(27.51875 299.613394)scale(0.1 -0.1)">
       <use xlink:href="#DejaVuSans-32"/>
       <use x="63.623047" xlink:href="#DejaVuSans-30"/>
       <use x="127.246094" xlink:href="#DejaVuSans-30"/>
      </g>
     </g>
    </g>
    <g id="ytick_3">
     <g id="line2d_15">
      <path clip-path="url(#pe128efa35a)" d="M 50.10625 241.4548 
L 740.764924 241.4548 
" style="fill:none;stroke:#ffffff;stroke-linecap:round;stroke-width:0.8;"/>
     </g>
     <g id="line2d_16"/>
     <g id="text_9">
      <!-- 400 -->
      <g style="fill:#262626;" transform="translate(27.51875 245.254019)scale(0.1 -0.1)">
       <use xlink:href="#DejaVuSans-34"/>
       <use x="63.623047" xlink:href="#DejaVuSans-30"/>
       <use x="127.246094" xlink:href="#DejaVuSans-30"/>
      </g>
     </g>
    </g>
    <g id="ytick_4">
     <g id="line2d_17">
      <path clip-path="url(#pe128efa35a)" d="M 50.10625 187.095426 
L 740.764924 187.095426 
" style="fill:none;stroke:#ffffff;stroke-linecap:round;stroke-width:0.8;"/>
     </g>
     <g id="line2d_18"/>
     <g id="text_10">
      <!-- 600 -->
      <g style="fill:#262626;" transform="translate(27.51875 190.894645)scale(0.1 -0.1)">
       <use xlink:href="#DejaVuSans-36"/>
       <use x="63.623047" xlink:href="#DejaVuSans-30"/>
       <use x="127.246094" xlink:href="#DejaVuSans-30"/>
      </g>
     </g>
    </g>
    <g id="ytick_5">
     <g id="line2d_19">
      <path clip-path="url(#pe128efa35a)" d="M 50.10625 132.736052 
L 740.764924 132.736052 
" style="fill:none;stroke:#ffffff;stroke-linecap:round;stroke-width:0.8;"/>
     </g>
     <g id="line2d_20"/>
     <g id="text_11">
      <!-- 800 -->
      <g style="fill:#262626;" transform="translate(27.51875 136.535271)scale(0.1 -0.1)">
       <use xlink:href="#DejaVuSans-38"/>
       <use x="63.623047" xlink:href="#DejaVuSans-30"/>
       <use x="127.246094" xlink:href="#DejaVuSans-30"/>
      </g>
     </g>
    </g>
    <g id="ytick_6">
     <g id="line2d_21">
      <path clip-path="url(#pe128efa35a)" d="M 50.10625 78.376677 
L 740.764924 78.376677 
" style="fill:none;stroke:#ffffff;stroke-linecap:round;stroke-width:0.8;"/>
     </g>
     <g id="line2d_22"/>
     <g id="text_12">
      <!-- 1000 -->
      <defs>
       <path d="M 12.40625 8.296875 
L 28.515625 8.296875 
L 28.515625 63.921875 
L 10.984375 60.40625 
L 10.984375 69.390625 
L 28.421875 72.90625 
L 38.28125 72.90625 
L 38.28125 8.296875 
L 54.390625 8.296875 
L 54.390625 0 
L 12.40625 0 
z
" id="DejaVuSans-31"/>
      </defs>
      <g style="fill:#262626;" transform="translate(21.15625 82.175896)scale(0.1 -0.1)">
       <use xlink:href="#DejaVuSans-31"/>
       <use x="63.623047" xlink:href="#DejaVuSans-30"/>
       <use x="127.246094" xlink:href="#DejaVuSans-30"/>
       <use x="190.869141" xlink:href="#DejaVuSans-30"/>
      </g>
     </g>
    </g>
    <g id="ytick_7">
     <g id="line2d_23">
      <path clip-path="url(#pe128efa35a)" d="M 50.10625 24.017303 
L 740.764924 24.017303 
" style="fill:none;stroke:#ffffff;stroke-linecap:round;stroke-width:0.8;"/>
     </g>
     <g id="line2d_24"/>
     <g id="text_13">
      <!-- 1200 -->
      <g style="fill:#262626;" transform="translate(21.15625 27.816522)scale(0.1 -0.1)">
       <use xlink:href="#DejaVuSans-31"/>
       <use x="63.623047" xlink:href="#DejaVuSans-32"/>
       <use x="127.246094" xlink:href="#DejaVuSans-30"/>
       <use x="190.869141" xlink:href="#DejaVuSans-30"/>
      </g>
     </g>
    </g>
    <g id="text_14">
     <!-- Sum_Debit -->
     <defs>
      <path d="M 19.671875 64.796875 
L 19.671875 8.109375 
L 31.59375 8.109375 
Q 46.6875 8.109375 53.6875 14.9375 
Q 60.6875 21.78125 60.6875 36.53125 
Q 60.6875 51.171875 53.6875 57.984375 
Q 46.6875 64.796875 31.59375 64.796875 
z
M 9.8125 72.90625 
L 30.078125 72.90625 
Q 51.265625 72.90625 61.171875 64.09375 
Q 71.09375 55.28125 71.09375 36.53125 
Q 71.09375 17.671875 61.125 8.828125 
Q 51.171875 0 30.078125 0 
L 9.8125 0 
z
" id="DejaVuSans-44"/>
      <path d="M 48.6875 27.296875 
Q 48.6875 37.203125 44.609375 42.84375 
Q 40.53125 48.484375 33.40625 48.484375 
Q 26.265625 48.484375 22.1875 42.84375 
Q 18.109375 37.203125 18.109375 27.296875 
Q 18.109375 17.390625 22.1875 11.75 
Q 26.265625 6.109375 33.40625 6.109375 
Q 40.53125 6.109375 44.609375 11.75 
Q 48.6875 17.390625 48.6875 27.296875 
z
M 18.109375 46.390625 
Q 20.953125 51.265625 25.265625 53.625 
Q 29.59375 56 35.59375 56 
Q 45.5625 56 51.78125 48.09375 
Q 58.015625 40.1875 58.015625 27.296875 
Q 58.015625 14.40625 51.78125 6.484375 
Q 45.5625 -1.421875 35.59375 -1.421875 
Q 29.59375 -1.421875 25.265625 0.953125 
Q 20.953125 3.328125 18.109375 8.203125 
L 18.109375 0 
L 9.078125 0 
L 9.078125 75.984375 
L 18.109375 75.984375 
z
" id="DejaVuSans-62"/>
     </defs>
     <g style="fill:#262626;" transform="translate(14.798437 225.682656)rotate(-90)scale(0.1 -0.1)">
      <use xlink:href="#DejaVuSans-53"/>
      <use x="63.476562" xlink:href="#DejaVuSans-75"/>
      <use x="126.855469" xlink:href="#DejaVuSans-6d"/>
      <use x="224.267578" xlink:href="#DejaVuSans-5f"/>
      <use x="274.267578" xlink:href="#DejaVuSans-44"/>
      <use x="351.269531" xlink:href="#DejaVuSans-65"/>
      <use x="412.792969" xlink:href="#DejaVuSans-62"/>
      <use x="476.269531" xlink:href="#DejaVuSans-69"/>
      <use x="504.052734" xlink:href="#DejaVuSans-74"/>
     </g>
    </g>
   </g>
   <g id="PathCollection_1">
    <defs>
     <path d="M 0 3 
C 0.795609 3 1.55874 2.683901 2.12132 2.12132 
C 2.683901 1.55874 3 0.795609 3 0 
C 3 -0.795609 2.683901 -1.55874 2.12132 -2.12132 
C 1.55874 -2.683901 0.795609 -3 0 -3 
C -0.795609 -3 -1.55874 -2.683901 -2.12132 -2.12132 
C -2.683901 -1.55874 -3 -0.795609 -3 0 
C -3 0.795609 -2.683901 1.55874 -2.12132 2.12132 
C -1.55874 2.683901 -0.795609 3 0 3 
z
" id="me9eda08fcc" style="stroke:#1f77b4;stroke-opacity:0.8;"/>
    </defs>
    <g clip-path="url(#pe128efa35a)">
     <use style="fill:#1f77b4;fill-opacity:0.8;stroke:#1f77b4;stroke-opacity:0.8;" x="206.240923" xlink:href="#me9eda08fcc" y="266.180757"/>
     <use style="fill:#1f77b4;fill-opacity:0.8;stroke:#1f77b4;stroke-opacity:0.8;" x="205.660813" xlink:href="#me9eda08fcc" y="283.042185"/>
     <use style="fill:#1f77b4;fill-opacity:0.8;stroke:#1f77b4;stroke-opacity:0.8;" x="118.527289" xlink:href="#me9eda08fcc" y="184.868619"/>
     <use style="fill:#1f77b4;fill-opacity:0.8;stroke:#1f77b4;stroke-opacity:0.8;" x="94.738931" xlink:href="#me9eda08fcc" y="231.121509"/>
     <use style="fill:#1f77b4;fill-opacity:0.8;stroke:#1f77b4;stroke-opacity:0.8;" x="126.403378" xlink:href="#me9eda08fcc" y="348.156222"/>
     <use style="fill:#1f77b4;fill-opacity:0.8;stroke:#1f77b4;stroke-opacity:0.8;" x="121.064132" xlink:href="#me9eda08fcc" y="326.882408"/>
     <use style="fill:#1f77b4;fill-opacity:0.8;stroke:#1f77b4;stroke-opacity:0.8;" x="138.57074" xlink:href="#me9eda08fcc" y="339.109001"/>
     <use style="fill:#1f77b4;fill-opacity:0.8;stroke:#1f77b4;stroke-opacity:0.8;" x="90.257771" xlink:href="#me9eda08fcc" y="331.889226"/>
     <use style="fill:#1f77b4;fill-opacity:0.8;stroke:#1f77b4;stroke-opacity:0.8;" x="95.375191" xlink:href="#me9eda08fcc" y="333.037596"/>
     <use style="fill:#1f77b4;fill-opacity:0.8;stroke:#1f77b4;stroke-opacity:0.8;" x="89.902555" xlink:href="#me9eda08fcc" y="346.78444"/>
     <use style="fill:#1f77b4;fill-opacity:0.8;stroke:#1f77b4;stroke-opacity:0.8;" x="95.520023" xlink:href="#me9eda08fcc" y="333.6583"/>
     <use style="fill:#1f77b4;fill-opacity:0.8;stroke:#1f77b4;stroke-opacity:0.8;" x="115.910078" xlink:href="#me9eda08fcc" y="343.515036"/>
     <use style="fill:#1f77b4;fill-opacity:0.8;stroke:#1f77b4;stroke-opacity:0.8;" x="315.24969" xlink:href="#me9eda08fcc" y="266.239562"/>
     <use style="fill:#1f77b4;fill-opacity:0.8;stroke:#1f77b4;stroke-opacity:0.8;" x="102.668288" xlink:href="#me9eda08fcc" y="323.677075"/>
     <use style="fill:#1f77b4;fill-opacity:0.8;stroke:#1f77b4;stroke-opacity:0.8;" x="134.148049" xlink:href="#me9eda08fcc" y="338.697296"/>
     <use style="fill:#1f77b4;fill-opacity:0.8;stroke:#1f77b4;stroke-opacity:0.8;" x="107.311033" xlink:href="#me9eda08fcc" y="347.962503"/>
     <use style="fill:#1f77b4;fill-opacity:0.8;stroke:#1f77b4;stroke-opacity:0.8;" x="133.900189" xlink:href="#me9eda08fcc" y="334.450756"/>
     <use style="fill:#1f77b4;fill-opacity:0.8;stroke:#1f77b4;stroke-opacity:0.8;" x="94.756594" xlink:href="#me9eda08fcc" y="312.802595"/>
     <use style="fill:#1f77b4;fill-opacity:0.8;stroke:#1f77b4;stroke-opacity:0.8;" x="106.800286" xlink:href="#me9eda08fcc" y="340.155653"/>
     <use style="fill:#1f77b4;fill-opacity:0.8;stroke:#1f77b4;stroke-opacity:0.8;" x="136.376943" xlink:href="#me9eda08fcc" y="336.339881"/>
     <use style="fill:#1f77b4;fill-opacity:0.8;stroke:#1f77b4;stroke-opacity:0.8;" x="150.957092" xlink:href="#me9eda08fcc" y="319.882952"/>
     <use style="fill:#1f77b4;fill-opacity:0.8;stroke:#1f77b4;stroke-opacity:0.8;" x="126.919676" xlink:href="#me9eda08fcc" y="320.209595"/>
     <use style="fill:#1f77b4;fill-opacity:0.8;stroke:#1f77b4;stroke-opacity:0.8;" x="106.67293" xlink:href="#me9eda08fcc" y="313.920358"/>
     <use style="fill:#1f77b4;fill-opacity:0.8;stroke:#1f77b4;stroke-opacity:0.8;" x="87.02766" xlink:href="#me9eda08fcc" y="328.021705"/>
     <use style="fill:#1f77b4;fill-opacity:0.8;stroke:#1f77b4;stroke-opacity:0.8;" x="140.462213" xlink:href="#me9eda08fcc" y="326.823614"/>
     <use style="fill:#1f77b4;fill-opacity:0.8;stroke:#1f77b4;stroke-opacity:0.8;" x="329.365075" xlink:href="#me9eda08fcc" y="269.129711"/>
     <use style="fill:#1f77b4;fill-opacity:0.8;stroke:#1f77b4;stroke-opacity:0.8;" x="135.05984" xlink:href="#me9eda08fcc" y="335.557439"/>
     <use style="fill:#1f77b4;fill-opacity:0.8;stroke:#1f77b4;stroke-opacity:0.8;" x="125.597217" xlink:href="#me9eda08fcc" y="322.684941"/>
     <use style="fill:#1f77b4;fill-opacity:0.8;stroke:#1f77b4;stroke-opacity:0.8;" x="134.974867" xlink:href="#me9eda08fcc" y="324.718985"/>
     <use style="fill:#1f77b4;fill-opacity:0.8;stroke:#1f77b4;stroke-opacity:0.8;" x="218.193128" xlink:href="#me9eda08fcc" y="247.057669"/>
     <use style="fill:#1f77b4;fill-opacity:0.8;stroke:#1f77b4;stroke-opacity:0.8;" x="227.002978" xlink:href="#me9eda08fcc" y="302.699028"/>
     <use style="fill:#1f77b4;fill-opacity:0.8;stroke:#1f77b4;stroke-opacity:0.8;" x="123.502331" xlink:href="#me9eda08fcc" y="332.833931"/>
     <use style="fill:#1f77b4;fill-opacity:0.8;stroke:#1f77b4;stroke-opacity:0.8;" x="83.913991" xlink:href="#me9eda08fcc" y="328.979958"/>
     <use style="fill:#1f77b4;fill-opacity:0.8;stroke:#1f77b4;stroke-opacity:0.8;" x="299.250908" xlink:href="#me9eda08fcc" y="246.233753"/>
     <use style="fill:#1f77b4;fill-opacity:0.8;stroke:#1f77b4;stroke-opacity:0.8;" x="130.906339" xlink:href="#me9eda08fcc" y="245.572879"/>
     <use style="fill:#1f77b4;fill-opacity:0.8;stroke:#1f77b4;stroke-opacity:0.8;" x="92.847522" xlink:href="#me9eda08fcc" y="353.268126"/>
     <use style="fill:#1f77b4;fill-opacity:0.8;stroke:#1f77b4;stroke-opacity:0.8;" x="127.979397" xlink:href="#me9eda08fcc" y="355.634652"/>
     <use style="fill:#1f77b4;fill-opacity:0.8;stroke:#1f77b4;stroke-opacity:0.8;" x="135.642843" xlink:href="#me9eda08fcc" y="339.011457"/>
     <use style="fill:#1f77b4;fill-opacity:0.8;stroke:#1f77b4;stroke-opacity:0.8;" x="98.903061" xlink:href="#me9eda08fcc" y="324.785541"/>
     <use style="fill:#1f77b4;fill-opacity:0.8;stroke:#1f77b4;stroke-opacity:0.8;" x="137.684365" xlink:href="#me9eda08fcc" y="336.281213"/>
     <use style="fill:#1f77b4;fill-opacity:0.8;stroke:#1f77b4;stroke-opacity:0.8;" x="137.826939" xlink:href="#me9eda08fcc" y="329.59494"/>
     <use style="fill:#1f77b4;fill-opacity:0.8;stroke:#1f77b4;stroke-opacity:0.8;" x="105.564371" xlink:href="#me9eda08fcc" y="352.987634"/>
     <use style="fill:#1f77b4;fill-opacity:0.8;stroke:#1f77b4;stroke-opacity:0.8;" x="253.556811" xlink:href="#me9eda08fcc" y="290.155957"/>
     <use style="fill:#1f77b4;fill-opacity:0.8;stroke:#1f77b4;stroke-opacity:0.8;" x="116.679742" xlink:href="#me9eda08fcc" y="341.607872"/>
     <use style="fill:#1f77b4;fill-opacity:0.8;stroke:#1f77b4;stroke-opacity:0.8;" x="96.145027" xlink:href="#me9eda08fcc" y="353.246846"/>
     <use style="fill:#1f77b4;fill-opacity:0.8;stroke:#1f77b4;stroke-opacity:0.8;" x="124.202968" xlink:href="#me9eda08fcc" y="300.108697"/>
     <use style="fill:#1f77b4;fill-opacity:0.8;stroke:#1f77b4;stroke-opacity:0.8;" x="109.025995" xlink:href="#me9eda08fcc" y="256.615064"/>
     <use style="fill:#1f77b4;fill-opacity:0.8;stroke:#1f77b4;stroke-opacity:0.8;" x="316.897756" xlink:href="#me9eda08fcc" y="216.583982"/>
     <use style="fill:#1f77b4;fill-opacity:0.8;stroke:#1f77b4;stroke-opacity:0.8;" x="127.938249" xlink:href="#me9eda08fcc" y="340.957335"/>
     <use style="fill:#1f77b4;fill-opacity:0.8;stroke:#1f77b4;stroke-opacity:0.8;" x="170.71036" xlink:href="#me9eda08fcc" y="318.416841"/>
     <use style="fill:#1f77b4;fill-opacity:0.8;stroke:#1f77b4;stroke-opacity:0.8;" x="161.206613" xlink:href="#me9eda08fcc" y="328.486349"/>
     <use style="fill:#1f77b4;fill-opacity:0.8;stroke:#1f77b4;stroke-opacity:0.8;" x="126.169575" xlink:href="#me9eda08fcc" y="334.343104"/>
     <use style="fill:#1f77b4;fill-opacity:0.8;stroke:#1f77b4;stroke-opacity:0.8;" x="175.630127" xlink:href="#me9eda08fcc" y="290.457311"/>
     <use style="fill:#1f77b4;fill-opacity:0.8;stroke:#1f77b4;stroke-opacity:0.8;" x="176.819659" xlink:href="#me9eda08fcc" y="318.452403"/>
     <use style="fill:#1f77b4;fill-opacity:0.8;stroke:#1f77b4;stroke-opacity:0.8;" x="142.445136" xlink:href="#me9eda08fcc" y="332.063854"/>
     <use style="fill:#1f77b4;fill-opacity:0.8;stroke:#1f77b4;stroke-opacity:0.8;" x="125.437546" xlink:href="#me9eda08fcc" y="316.50251"/>
     <use style="fill:#1f77b4;fill-opacity:0.8;stroke:#1f77b4;stroke-opacity:0.8;" x="103.86385" xlink:href="#me9eda08fcc" y="339.524121"/>
     <use style="fill:#1f77b4;fill-opacity:0.8;stroke:#1f77b4;stroke-opacity:0.8;" x="140.36504" xlink:href="#me9eda08fcc" y="346.343272"/>
     <use style="fill:#1f77b4;fill-opacity:0.8;stroke:#1f77b4;stroke-opacity:0.8;" x="83.520697" xlink:href="#me9eda08fcc" y="340.890963"/>
     <use style="fill:#1f77b4;fill-opacity:0.8;stroke:#1f77b4;stroke-opacity:0.8;" x="107.047984" xlink:href="#me9eda08fcc" y="340.208114"/>
     <use style="fill:#1f77b4;fill-opacity:0.8;stroke:#1f77b4;stroke-opacity:0.8;" x="134.249597" xlink:href="#me9eda08fcc" y="333.586881"/>
     <use style="fill:#1f77b4;fill-opacity:0.8;stroke:#1f77b4;stroke-opacity:0.8;" x="84.897325" xlink:href="#me9eda08fcc" y="331.121352"/>
     <use style="fill:#1f77b4;fill-opacity:0.8;stroke:#1f77b4;stroke-opacity:0.8;" x="137.210624" xlink:href="#me9eda08fcc" y="347.052363"/>
     <use style="fill:#1f77b4;fill-opacity:0.8;stroke:#1f77b4;stroke-opacity:0.8;" x="168.538321" xlink:href="#me9eda08fcc" y="321.703739"/>
     <use style="fill:#1f77b4;fill-opacity:0.8;stroke:#1f77b4;stroke-opacity:0.8;" x="116.097132" xlink:href="#me9eda08fcc" y="345.63848"/>
     <use style="fill:#1f77b4;fill-opacity:0.8;stroke:#1f77b4;stroke-opacity:0.8;" x="135.237986" xlink:href="#me9eda08fcc" y="341.830917"/>
     <use style="fill:#1f77b4;fill-opacity:0.8;stroke:#1f77b4;stroke-opacity:0.8;" x="141.621879" xlink:href="#me9eda08fcc" y="345.388739"/>
     <use style="fill:#1f77b4;fill-opacity:0.8;stroke:#1f77b4;stroke-opacity:0.8;" x="356.906886" xlink:href="#me9eda08fcc" y="261.935873"/>
    </g>
   </g>
   <g id="PolyCollection_1">
    <path clip-path="url(#pe128efa35a)" d="M 50.10625 337.438388 
L 50.10625 365.630515 
L 57.0826 362.203099 
L 64.05895 358.873254 
L 71.035301 355.551526 
L 78.011651 352.39551 
L 84.988001 349.186169 
L 91.964351 346.01522 
L 98.940702 342.799901 
L 105.917052 339.443495 
L 112.893402 336.222399 
L 119.869752 333.398963 
L 126.846103 330.524185 
L 133.822453 327.743938 
L 140.798803 324.955777 
L 147.775153 322.166436 
L 154.751504 319.719856 
L 161.727854 317.246299 
L 168.704204 314.694761 
L 175.680554 312.282543 
L 182.656905 309.789459 
L 189.633255 307.360414 
L 196.609605 305.111287 
L 203.585955 302.809105 
L 210.562306 300.629934 
L 217.538656 298.452359 
L 224.515006 296.236803 
L 231.491356 294.039661 
L 238.467707 291.747135 
L 245.444057 289.536364 
L 252.420407 287.330426 
L 259.396757 285.226958 
L 266.373108 283.252415 
L 273.349458 281.181344 
L 280.325808 279.330529 
L 287.302158 277.209473 
L 294.278509 275.080938 
L 301.254859 273.039612 
L 308.231209 270.955346 
L 315.207559 268.949775 
L 322.183909 266.97256 
L 329.16026 264.994064 
L 336.13661 263.01453 
L 343.11296 261.034997 
L 350.08931 259.055464 
L 357.065661 257.075931 
L 364.042011 255.094346 
L 371.018361 253.111264 
L 377.994711 251.113505 
L 384.971062 249.15298 
L 391.947412 247.268174 
L 398.923762 245.426069 
L 405.900112 243.503518 
L 412.876463 241.536277 
L 419.852813 239.569037 
L 426.829163 237.65873 
L 433.805513 235.747434 
L 440.781864 233.822668 
L 447.758214 231.815809 
L 454.734564 229.808949 
L 461.710914 227.824646 
L 468.687265 225.984092 
L 475.663615 223.933979 
L 482.639965 222.012907 
L 489.616315 220.091814 
L 496.592666 218.170721 
L 503.569016 216.249628 
L 510.545366 214.328535 
L 517.521716 212.407442 
L 524.498067 210.486349 
L 531.474417 208.565256 
L 538.450767 206.604166 
L 545.427117 204.639438 
L 552.403468 202.723394 
L 559.379818 200.73313 
L 566.356168 198.806677 
L 573.332518 196.914184 
L 580.308869 194.988753 
L 587.285219 193.019502 
L 594.261569 191.050251 
L 601.237919 189.081 
L 608.214269 187.111375 
L 615.19062 185.141387 
L 622.16697 183.171399 
L 629.14332 181.201411 
L 636.11967 179.231423 
L 643.096021 177.261435 
L 650.072371 175.291447 
L 657.048721 173.321459 
L 664.025071 171.351471 
L 671.001422 169.381483 
L 677.977772 167.411496 
L 684.954122 165.441508 
L 691.930472 163.47152 
L 698.906823 161.501532 
L 705.883173 159.531544 
L 712.859523 157.561556 
L 719.835873 155.734756 
L 726.812224 153.913455 
L 733.788574 152.092155 
L 740.764924 150.270855 
L 740.764924 24.59267 
L 740.764924 24.59267 
L 733.788574 28.005906 
L 726.812224 31.417661 
L 719.835873 34.777684 
L 712.859523 38.137707 
L 705.883173 41.497729 
L 698.906823 44.857752 
L 691.930472 48.217775 
L 684.954122 51.577797 
L 677.977772 55.017194 
L 671.001422 58.46716 
L 664.025071 61.917126 
L 657.048721 65.367093 
L 650.072371 68.817059 
L 643.096021 72.267025 
L 636.11967 75.716991 
L 629.14332 79.166957 
L 622.16697 82.616924 
L 615.19062 86.039414 
L 608.214269 89.455195 
L 601.237919 92.870977 
L 594.261569 96.286759 
L 587.285219 99.70254 
L 580.308869 103.118322 
L 573.332518 106.534103 
L 566.356168 109.949885 
L 559.379818 113.365667 
L 552.403468 116.781448 
L 545.427117 120.19723 
L 538.450767 123.613011 
L 531.474417 127.028793 
L 524.498067 130.459168 
L 517.521716 133.937144 
L 510.545366 137.41512 
L 503.569016 140.893097 
L 496.592666 144.371073 
L 489.616315 147.849049 
L 482.639965 151.273758 
L 475.663615 154.683562 
L 468.687265 158.093365 
L 461.710914 161.503169 
L 454.734564 164.914758 
L 447.758214 168.326994 
L 440.781864 171.677775 
L 433.805513 175.142384 
L 426.829163 178.535155 
L 419.852813 181.923038 
L 412.876463 185.310921 
L 405.900112 188.698803 
L 398.923762 192.085893 
L 391.947412 195.443846 
L 384.971062 198.8018 
L 377.994711 202.159754 
L 371.018361 205.554412 
L 364.042011 208.967116 
L 357.065661 212.37982 
L 350.08931 215.792525 
L 343.11296 219.184907 
L 336.13661 222.574469 
L 329.16026 225.980501 
L 322.183909 229.388883 
L 315.207559 232.74578 
L 308.231209 236.23176 
L 301.254859 239.583987 
L 294.278509 242.902344 
L 287.302158 246.286295 
L 280.325808 249.692699 
L 273.349458 253.042345 
L 266.373108 256.483114 
L 259.396757 259.923401 
L 252.420407 263.485065 
L 245.444057 266.84798 
L 238.467707 270.135304 
L 231.491356 273.498359 
L 224.515006 276.771366 
L 217.538656 280.158308 
L 210.562306 283.476629 
L 203.585955 286.885903 
L 196.609605 289.616232 
L 189.633255 292.784901 
L 182.656905 295.76825 
L 175.680554 298.5851 
L 168.704204 301.406816 
L 161.727854 304.05914 
L 154.751504 306.758639 
L 147.775153 308.975491 
L 140.798803 311.137283 
L 133.822453 313.205808 
L 126.846103 315.491377 
L 119.869752 317.854576 
L 112.893402 319.870986 
L 105.917052 321.825219 
L 98.940702 323.776825 
L 91.964351 325.750745 
L 84.988001 327.713802 
L 78.011651 329.671034 
L 71.035301 331.729697 
L 64.05895 333.785881 
L 57.0826 335.494319 
L 50.10625 337.438388 
z
" style="fill:#1f77b4;fill-opacity:0.15;"/>
   </g>
   <g id="PathCollection_2">
    <defs>
     <path d="M 0 3 
C 0.795609 3 1.55874 2.683901 2.12132 2.12132 
C 2.683901 1.55874 3 0.795609 3 0 
C 3 -0.795609 2.683901 -1.55874 2.12132 -2.12132 
C 1.55874 -2.683901 0.795609 -3 0 -3 
C -0.795609 -3 -1.55874 -2.683901 -2.12132 -2.12132 
C -2.683901 -1.55874 -3 -0.795609 -3 0 
C -3 0.795609 -2.683901 1.55874 -2.12132 2.12132 
C -1.55874 2.683901 -0.795609 3 0 3 
z
" id="m8d7599ef4f" style="stroke:#ff7f0e;stroke-opacity:0.8;"/>
    </defs>
    <g clip-path="url(#pe128efa35a)">
     <use style="fill:#ff7f0e;fill-opacity:0.8;stroke:#ff7f0e;stroke-opacity:0.8;" x="326.882996" xlink:href="#m8d7599ef4f" y="263.80005"/>
     <use style="fill:#ff7f0e;fill-opacity:0.8;stroke:#ff7f0e;stroke-opacity:0.8;" x="240.859323" xlink:href="#m8d7599ef4f" y="313.974834"/>
     <use style="fill:#ff7f0e;fill-opacity:0.8;stroke:#ff7f0e;stroke-opacity:0.8;" x="101.215422" xlink:href="#m8d7599ef4f" y="354.42666"/>
     <use style="fill:#ff7f0e;fill-opacity:0.8;stroke:#ff7f0e;stroke-opacity:0.8;" x="206.583345" xlink:href="#m8d7599ef4f" y="326.643777"/>
     <use style="fill:#ff7f0e;fill-opacity:0.8;stroke:#ff7f0e;stroke-opacity:0.8;" x="286.418641" xlink:href="#m8d7599ef4f" y="282.367261"/>
     <use style="fill:#ff7f0e;fill-opacity:0.8;stroke:#ff7f0e;stroke-opacity:0.8;" x="161.927733" xlink:href="#m8d7599ef4f" y="328.474375"/>
     <use style="fill:#ff7f0e;fill-opacity:0.8;stroke:#ff7f0e;stroke-opacity:0.8;" x="106.344697" xlink:href="#m8d7599ef4f" y="338.513538"/>
     <use style="fill:#ff7f0e;fill-opacity:0.8;stroke:#ff7f0e;stroke-opacity:0.8;" x="89.303733" xlink:href="#m8d7599ef4f" y="356.044607"/>
     <use style="fill:#ff7f0e;fill-opacity:0.8;stroke:#ff7f0e;stroke-opacity:0.8;" x="135.002163" xlink:href="#m8d7599ef4f" y="342.426107"/>
    </g>
   </g>
   <g id="PolyCollection_2">
    <path clip-path="url(#pe128efa35a)" d="M 50.10625 371.56137 
L 50.10625 371.56137 
L 57.0826 368.973796 
L 64.05895 366.386222 
L 71.035301 363.798648 
L 78.011651 361.211074 
L 84.988001 358.6235 
L 91.964351 356.035927 
L 98.940702 353.448353 
L 105.917052 350.860779 
L 112.893402 348.273205 
L 119.869752 345.685631 
L 126.846103 343.098057 
L 133.822453 340.510483 
L 140.798803 337.92291 
L 147.775153 335.335336 
L 154.751504 332.747762 
L 161.727854 330.160188 
L 168.704204 327.572614 
L 175.680554 324.98504 
L 182.656905 322.397467 
L 189.633255 319.809893 
L 196.609605 317.222319 
L 203.585955 314.634745 
L 210.562306 312.047171 
L 217.538656 309.459597 
L 224.515006 306.872023 
L 231.491356 304.28445 
L 238.467707 301.696876 
L 245.444057 299.109302 
L 252.420407 296.521728 
L 259.396757 293.934154 
L 266.373108 291.34658 
L 273.349458 288.759007 
L 280.325808 286.171433 
L 287.302158 283.583859 
L 294.278509 280.996285 
L 301.254859 278.408711 
L 308.231209 275.821137 
L 315.207559 273.233563 
L 322.183909 270.64599 
L 329.16026 268.058416 
L 336.13661 265.470842 
L 343.11296 262.883268 
L 350.08931 260.295694 
L 357.065661 257.70812 
L 364.042011 255.120547 
L 371.018361 252.532973 
L 377.994711 249.945399 
L 384.971062 247.357825 
L 391.947412 244.770251 
L 398.923762 242.182677 
L 405.900112 239.595103 
L 412.876463 237.00753 
L 419.852813 234.419956 
L 426.829163 231.832382 
L 433.805513 229.244808 
L 440.781864 226.657234 
L 447.758214 224.06966 
L 454.734564 221.482086 
L 461.710914 218.894513 
L 468.687265 216.306939 
L 475.663615 213.719365 
L 482.639965 211.131791 
L 489.616315 208.544217 
L 496.592666 205.956643 
L 503.569016 203.36907 
L 510.545366 200.781496 
L 517.521716 198.193922 
L 524.498067 195.606348 
L 531.474417 193.018774 
L 538.450767 190.4312 
L 545.427117 187.843626 
L 552.403468 185.256053 
L 559.379818 182.668479 
L 566.356168 180.080905 
L 573.332518 177.493331 
L 580.308869 174.905757 
L 587.285219 172.318183 
L 594.261569 169.73061 
L 601.237919 167.143036 
L 608.214269 164.555462 
L 615.19062 161.967888 
L 622.16697 159.380314 
L 629.14332 156.79274 
L 636.11967 154.205166 
L 643.096021 151.617593 
L 650.072371 149.030019 
L 657.048721 146.442445 
L 664.025071 143.854871 
L 671.001422 141.267297 
L 677.977772 138.679723 
L 684.954122 136.092149 
L 691.930472 133.504576 
L 698.906823 130.917002 
L 705.883173 128.329428 
L 712.859523 125.741854 
L 719.835873 123.15428 
L 726.812224 120.566706 
L 733.788574 117.979133 
L 740.764924 115.391559 
L 740.764924 115.391559 
L 740.764924 115.391559 
L 733.788574 117.979133 
L 726.812224 120.566706 
L 719.835873 123.15428 
L 712.859523 125.741854 
L 705.883173 128.329428 
L 698.906823 130.917002 
L 691.930472 133.504576 
L 684.954122 136.092149 
L 677.977772 138.679723 
L 671.001422 141.267297 
L 664.025071 143.854871 
L 657.048721 146.442445 
L 650.072371 149.030019 
L 643.096021 151.617593 
L 636.11967 154.205166 
L 629.14332 156.79274 
L 622.16697 159.380314 
L 615.19062 161.967888 
L 608.214269 164.555462 
L 601.237919 167.143036 
L 594.261569 169.73061 
L 587.285219 172.318183 
L 580.308869 174.905757 
L 573.332518 177.493331 
L 566.356168 180.080905 
L 559.379818 182.668479 
L 552.403468 185.256053 
L 545.427117 187.843626 
L 538.450767 190.4312 
L 531.474417 193.018774 
L 524.498067 195.606348 
L 517.521716 198.193922 
L 510.545366 200.781496 
L 503.569016 203.36907 
L 496.592666 205.956643 
L 489.616315 208.544217 
L 482.639965 211.131791 
L 475.663615 213.719365 
L 468.687265 216.306939 
L 461.710914 218.894513 
L 454.734564 221.482086 
L 447.758214 224.06966 
L 440.781864 226.657234 
L 433.805513 229.244808 
L 426.829163 231.832382 
L 419.852813 234.419956 
L 412.876463 237.00753 
L 405.900112 239.595103 
L 398.923762 242.182677 
L 391.947412 244.770251 
L 384.971062 247.357825 
L 377.994711 249.945399 
L 371.018361 252.532973 
L 364.042011 255.120547 
L 357.065661 257.70812 
L 350.08931 260.295694 
L 343.11296 262.883268 
L 336.13661 265.470842 
L 329.16026 268.058416 
L 322.183909 270.64599 
L 315.207559 273.233563 
L 308.231209 275.821137 
L 301.254859 278.408711 
L 294.278509 280.996285 
L 287.302158 283.583859 
L 280.325808 286.171433 
L 273.349458 288.759007 
L 266.373108 291.34658 
L 259.396757 293.934154 
L 252.420407 296.521728 
L 245.444057 299.109302 
L 238.467707 301.696876 
L 231.491356 304.28445 
L 224.515006 306.872023 
L 217.538656 309.459597 
L 210.562306 312.047171 
L 203.585955 314.634745 
L 196.609605 317.222319 
L 189.633255 319.809893 
L 182.656905 322.397467 
L 175.680554 324.98504 
L 168.704204 327.572614 
L 161.727854 330.160188 
L 154.751504 332.747762 
L 147.775153 335.335336 
L 140.798803 337.92291 
L 133.822453 340.510483 
L 126.846103 343.098057 
L 119.869752 345.685631 
L 112.893402 348.273205 
L 105.917052 350.860779 
L 98.940702 353.448353 
L 91.964351 356.035927 
L 84.988001 358.6235 
L 78.011651 361.211074 
L 71.035301 363.798648 
L 64.05895 366.386222 
L 57.0826 368.973796 
L 50.10625 371.56137 
z
" style="fill:#ff7f0e;fill-opacity:0.15;"/>
   </g>
   <g id="PathCollection_3">
    <defs>
     <path d="M 0 3 
C 0.795609 3 1.55874 2.683901 2.12132 2.12132 
C 2.683901 1.55874 3 0.795609 3 0 
C 3 -0.795609 2.683901 -1.55874 2.12132 -2.12132 
C 1.55874 -2.683901 0.795609 -3 0 -3 
C -0.795609 -3 -1.55874 -2.683901 -2.12132 -2.12132 
C -2.683901 -1.55874 -3 -0.795609 -3 0 
C -3 0.795609 -2.683901 1.55874 -2.12132 2.12132 
C -1.55874 2.683901 -0.795609 3 0 3 
z
" id="m157575d968" style="stroke:#2ca02c;stroke-opacity:0.8;"/>
    </defs>
    <g clip-path="url(#pe128efa35a)">
     <use style="fill:#2ca02c;fill-opacity:0.8;stroke:#2ca02c;stroke-opacity:0.8;" x="230.220071" xlink:href="#m157575d968" y="323.781286"/>
     <use style="fill:#2ca02c;fill-opacity:0.8;stroke:#2ca02c;stroke-opacity:0.8;" x="286.036874" xlink:href="#m157575d968" y="339.381312"/>
     <use style="fill:#2ca02c;fill-opacity:0.8;stroke:#2ca02c;stroke-opacity:0.8;" x="192.430013" xlink:href="#m157575d968" y="343.784479"/>
     <use style="fill:#2ca02c;fill-opacity:0.8;stroke:#2ca02c;stroke-opacity:0.8;" x="442.319305" xlink:href="#m157575d968" y="312.683068"/>
     <use style="fill:#2ca02c;fill-opacity:0.8;stroke:#2ca02c;stroke-opacity:0.8;" x="119.678483" xlink:href="#m157575d968" y="358.215859"/>
     <use style="fill:#2ca02c;fill-opacity:0.8;stroke:#2ca02c;stroke-opacity:0.8;" x="224.09794" xlink:href="#m157575d968" y="321.838652"/>
     <use style="fill:#2ca02c;fill-opacity:0.8;stroke:#2ca02c;stroke-opacity:0.8;" x="270.752715" xlink:href="#m157575d968" y="340.240102"/>
     <use style="fill:#2ca02c;fill-opacity:0.8;stroke:#2ca02c;stroke-opacity:0.8;" x="254.194162" xlink:href="#m157575d968" y="347.888663"/>
     <use style="fill:#2ca02c;fill-opacity:0.8;stroke:#2ca02c;stroke-opacity:0.8;" x="221.795911" xlink:href="#m157575d968" y="347.305816"/>
     <use style="fill:#2ca02c;fill-opacity:0.8;stroke:#2ca02c;stroke-opacity:0.8;" x="138.320205" xlink:href="#m157575d968" y="348.494632"/>
     <use style="fill:#2ca02c;fill-opacity:0.8;stroke:#2ca02c;stroke-opacity:0.8;" x="177.317396" xlink:href="#m157575d968" y="343.442866"/>
     <use style="fill:#2ca02c;fill-opacity:0.8;stroke:#2ca02c;stroke-opacity:0.8;" x="602.198537" xlink:href="#m157575d968" y="343.994985"/>
     <use style="fill:#2ca02c;fill-opacity:0.8;stroke:#2ca02c;stroke-opacity:0.8;" x="264.78411" xlink:href="#m157575d968" y="293.888275"/>
     <use style="fill:#2ca02c;fill-opacity:0.8;stroke:#2ca02c;stroke-opacity:0.8;" x="614.337036" xlink:href="#m157575d968" y="348.892279"/>
     <use style="fill:#2ca02c;fill-opacity:0.8;stroke:#2ca02c;stroke-opacity:0.8;" x="142.351107" xlink:href="#m157575d968" y="353.902776"/>
     <use style="fill:#2ca02c;fill-opacity:0.8;stroke:#2ca02c;stroke-opacity:0.8;" x="669.043181" xlink:href="#m157575d968" y="281.749167"/>
     <use style="fill:#2ca02c;fill-opacity:0.8;stroke:#2ca02c;stroke-opacity:0.8;" x="616.643077" xlink:href="#m157575d968" y="248.534796"/>
     <use style="fill:#2ca02c;fill-opacity:0.8;stroke:#2ca02c;stroke-opacity:0.8;" x="287.991104" xlink:href="#m157575d968" y="342.48588"/>
     <use style="fill:#2ca02c;fill-opacity:0.8;stroke:#2ca02c;stroke-opacity:0.8;" x="217.547149" xlink:href="#m157575d968" y="353.02996"/>
     <use style="fill:#2ca02c;fill-opacity:0.8;stroke:#2ca02c;stroke-opacity:0.8;" x="290.104461" xlink:href="#m157575d968" y="341.032663"/>
     <use style="fill:#2ca02c;fill-opacity:0.8;stroke:#2ca02c;stroke-opacity:0.8;" x="107.802154" xlink:href="#m157575d968" y="354.125572"/>
     <use style="fill:#2ca02c;fill-opacity:0.8;stroke:#2ca02c;stroke-opacity:0.8;" x="345.191829" xlink:href="#m157575d968" y="317.196638"/>
     <use style="fill:#2ca02c;fill-opacity:0.8;stroke:#2ca02c;stroke-opacity:0.8;" x="365.855149" xlink:href="#m157575d968" y="340.969681"/>
     <use style="fill:#2ca02c;fill-opacity:0.8;stroke:#2ca02c;stroke-opacity:0.8;" x="132.831305" xlink:href="#m157575d968" y="353.004014"/>
     <use style="fill:#2ca02c;fill-opacity:0.8;stroke:#2ca02c;stroke-opacity:0.8;" x="717.139189" xlink:href="#m157575d968" y="240.068585"/>
     <use style="fill:#2ca02c;fill-opacity:0.8;stroke:#2ca02c;stroke-opacity:0.8;" x="150.462494" xlink:href="#m157575d968" y="343.503684"/>
     <use style="fill:#2ca02c;fill-opacity:0.8;stroke:#2ca02c;stroke-opacity:0.8;" x="178.81386" xlink:href="#m157575d968" y="342.791956"/>
     <use style="fill:#2ca02c;fill-opacity:0.8;stroke:#2ca02c;stroke-opacity:0.8;" x="149.732827" xlink:href="#m157575d968" y="334.109733"/>
     <use style="fill:#2ca02c;fill-opacity:0.8;stroke:#2ca02c;stroke-opacity:0.8;" x="344.947429" xlink:href="#m157575d968" y="354.149157"/>
     <use style="fill:#2ca02c;fill-opacity:0.8;stroke:#2ca02c;stroke-opacity:0.8;" x="352.512233" xlink:href="#m157575d968" y="330.788855"/>
     <use style="fill:#2ca02c;fill-opacity:0.8;stroke:#2ca02c;stroke-opacity:0.8;" x="362.014927" xlink:href="#m157575d968" y="314.938241"/>
     <use style="fill:#2ca02c;fill-opacity:0.8;stroke:#2ca02c;stroke-opacity:0.8;" x="337.868913" xlink:href="#m157575d968" y="332.74765"/>
     <use style="fill:#2ca02c;fill-opacity:0.8;stroke:#2ca02c;stroke-opacity:0.8;" x="328.76996" xlink:href="#m157575d968" y="339.76104"/>
     <use style="fill:#2ca02c;fill-opacity:0.8;stroke:#2ca02c;stroke-opacity:0.8;" x="167.033851" xlink:href="#m157575d968" y="332.749241"/>
     <use style="fill:#2ca02c;fill-opacity:0.8;stroke:#2ca02c;stroke-opacity:0.8;" x="319.790993" xlink:href="#m157575d968" y="293.92078"/>
     <use style="fill:#2ca02c;fill-opacity:0.8;stroke:#2ca02c;stroke-opacity:0.8;" x="123.206764" xlink:href="#m157575d968" y="348.621911"/>
     <use style="fill:#2ca02c;fill-opacity:0.8;stroke:#2ca02c;stroke-opacity:0.8;" x="273.374479" xlink:href="#m157575d968" y="350.244607"/>
     <use style="fill:#2ca02c;fill-opacity:0.8;stroke:#2ca02c;stroke-opacity:0.8;" x="195.603276" xlink:href="#m157575d968" y="355.039356"/>
     <use style="fill:#2ca02c;fill-opacity:0.8;stroke:#2ca02c;stroke-opacity:0.8;" x="309.385956" xlink:href="#m157575d968" y="337.41738"/>
     <use style="fill:#2ca02c;fill-opacity:0.8;stroke:#2ca02c;stroke-opacity:0.8;" x="245.10119" xlink:href="#m157575d968" y="327.231425"/>
     <use style="fill:#2ca02c;fill-opacity:0.8;stroke:#2ca02c;stroke-opacity:0.8;" x="249.992496" xlink:href="#m157575d968" y="350.935601"/>
     <use style="fill:#2ca02c;fill-opacity:0.8;stroke:#2ca02c;stroke-opacity:0.8;" x="196.307125" xlink:href="#m157575d968" y="335.022797"/>
     <use style="fill:#2ca02c;fill-opacity:0.8;stroke:#2ca02c;stroke-opacity:0.8;" x="95.747533" xlink:href="#m157575d968" y="357.073633"/>
     <use style="fill:#2ca02c;fill-opacity:0.8;stroke:#2ca02c;stroke-opacity:0.8;" x="309.310515" xlink:href="#m157575d968" y="329.19172"/>
     <use style="fill:#2ca02c;fill-opacity:0.8;stroke:#2ca02c;stroke-opacity:0.8;" x="206.834855" xlink:href="#m157575d968" y="346.563725"/>
    </g>
   </g>
   <g id="PolyCollection_3">
    <path clip-path="url(#pe128efa35a)" d="M 50.10625 344.68886 
L 50.10625 372.44608 
L 57.0826 371.175805 
L 64.05895 369.908632 
L 71.035301 368.710075 
L 78.011651 367.513406 
L 84.988001 366.316869 
L 91.964351 365.149958 
L 98.940702 364.007589 
L 105.917052 362.859269 
L 112.893402 361.529454 
L 119.869752 360.33299 
L 126.846103 359.20718 
L 133.822453 358.029309 
L 140.798803 356.881847 
L 147.775153 355.744082 
L 154.751504 354.59968 
L 161.727854 353.540055 
L 168.704204 352.389724 
L 175.680554 351.347259 
L 182.656905 350.347201 
L 189.633255 349.31165 
L 196.609605 348.254142 
L 203.585955 347.221231 
L 210.562306 346.213437 
L 217.538656 345.224268 
L 224.515006 344.320369 
L 231.491356 343.61627 
L 238.467707 342.922151 
L 245.444057 342.367267 
L 252.420407 341.828423 
L 259.396757 341.431368 
L 266.373108 340.993666 
L 273.349458 340.651983 
L 280.325808 340.223271 
L 287.302158 339.998474 
L 294.278509 339.661275 
L 301.254859 339.446504 
L 308.231209 339.174287 
L 315.207559 338.874367 
L 322.183909 338.571764 
L 329.16026 338.268598 
L 336.13661 337.980218 
L 343.11296 337.806634 
L 350.08931 337.555424 
L 357.065661 337.363694 
L 364.042011 337.138878 
L 371.018361 337.006852 
L 377.994711 336.930759 
L 384.971062 336.854666 
L 391.947412 336.72348 
L 398.923762 336.448916 
L 405.900112 336.174352 
L 412.876463 335.899789 
L 419.852813 335.625225 
L 426.829163 335.350662 
L 433.805513 335.168744 
L 440.781864 334.953969 
L 447.758214 334.819382 
L 454.734564 334.681827 
L 461.710914 334.421973 
L 468.687265 334.162119 
L 475.663615 333.98303 
L 482.639965 333.807665 
L 489.616315 333.631014 
L 496.592666 333.465988 
L 503.569016 333.350571 
L 510.545366 333.234816 
L 517.521716 333.119061 
L 524.498067 332.891875 
L 531.474417 332.662639 
L 538.450767 332.433403 
L 545.427117 332.217801 
L 552.403468 332.041149 
L 559.379818 331.867803 
L 566.356168 331.690678 
L 573.332518 331.51647 
L 580.308869 331.342262 
L 587.285219 331.168055 
L 594.261569 330.993847 
L 601.237919 330.824414 
L 608.214269 330.660822 
L 615.19062 330.495416 
L 622.16697 330.33001 
L 629.14332 330.164604 
L 636.11967 329.999198 
L 643.096021 329.833792 
L 650.072371 329.668386 
L 657.048721 329.50298 
L 664.025071 329.337574 
L 671.001422 329.172168 
L 677.977772 328.982037 
L 684.954122 328.776263 
L 691.930472 328.57049 
L 698.906823 328.364717 
L 705.883173 328.179358 
L 712.859523 328.003954 
L 719.835873 327.82855 
L 726.812224 327.653146 
L 733.788574 327.477742 
L 740.764924 327.302338 
L 740.764924 250.03255 
L 740.764924 250.03255 
L 733.788574 251.26909 
L 726.812224 252.50563 
L 719.835873 253.74217 
L 712.859523 254.97871 
L 705.883173 256.215251 
L 698.906823 257.451791 
L 691.930472 258.688331 
L 684.954122 259.924871 
L 677.977772 261.161411 
L 671.001422 262.397951 
L 664.025071 263.634491 
L 657.048721 264.871031 
L 650.072371 266.107571 
L 643.096021 267.344111 
L 636.11967 268.580651 
L 629.14332 269.817192 
L 622.16697 271.053732 
L 615.19062 272.290272 
L 608.214269 273.526812 
L 601.237919 274.757669 
L 594.261569 275.956893 
L 587.285219 277.19427 
L 580.308869 278.431647 
L 573.332518 279.669024 
L 566.356168 280.906401 
L 559.379818 282.143778 
L 552.403468 283.381155 
L 545.427117 284.593113 
L 538.450767 285.781992 
L 531.474417 286.970871 
L 524.498067 288.15975 
L 517.521716 289.350345 
L 510.545366 290.5437 
L 503.569016 291.737055 
L 496.592666 292.93041 
L 489.616315 294.19904 
L 482.639965 295.474141 
L 475.663615 296.649219 
L 468.687265 297.798365 
L 461.710914 299.035794 
L 454.734564 300.221392 
L 447.758214 301.407383 
L 440.781864 302.594031 
L 433.805513 303.772387 
L 426.829163 304.913298 
L 419.852813 306.10646 
L 412.876463 307.323675 
L 405.900112 308.481956 
L 398.923762 309.640236 
L 391.947412 310.895137 
L 384.971062 312.088162 
L 377.994711 313.280127 
L 371.018361 314.55656 
L 364.042011 315.760925 
L 357.065661 317.007358 
L 350.08931 318.032597 
L 343.11296 319.208235 
L 336.13661 320.393234 
L 329.16026 321.479138 
L 322.183909 322.667684 
L 315.207559 323.856024 
L 308.231209 324.985172 
L 301.254859 326.162728 
L 294.278509 327.383073 
L 287.302158 328.507249 
L 280.325808 329.588611 
L 273.349458 330.622916 
L 266.373108 331.631607 
L 259.396757 332.744993 
L 252.420407 333.688156 
L 245.444057 334.602417 
L 238.467707 335.57308 
L 231.491356 336.328834 
L 224.515006 336.990429 
L 217.538656 337.521041 
L 210.562306 338.215536 
L 203.585955 338.559942 
L 196.609605 338.899125 
L 189.633255 339.430031 
L 182.656905 339.706748 
L 175.680554 340.126372 
L 168.704204 340.597428 
L 161.727854 340.964599 
L 154.751504 341.221571 
L 147.775153 341.532635 
L 140.798803 341.675249 
L 133.822453 342.071743 
L 126.846103 342.465127 
L 119.869752 342.481757 
L 112.893402 342.791893 
L 105.917052 342.927178 
L 98.940702 343.059633 
L 91.964351 343.233493 
L 84.988001 343.497205 
L 78.011651 343.767318 
L 71.035301 344.03743 
L 64.05895 344.307542 
L 57.0826 344.511487 
L 50.10625 344.68886 
z
" style="fill:#2ca02c;fill-opacity:0.15;"/>
   </g>
   <g id="line2d_25">
    <path clip-path="url(#pe128efa35a)" d="M 50.10625 352.305985 
L 57.0826 349.734306 
L 64.05895 347.162628 
L 71.035301 344.590949 
L 78.011651 342.019271 
L 84.988001 339.447593 
L 91.964351 336.875914 
L 98.940702 334.304236 
L 105.917052 331.732557 
L 112.893402 329.160879 
L 119.869752 326.5892 
L 126.846103 324.017522 
L 133.822453 321.445843 
L 140.798803 318.874165 
L 147.775153 316.302486 
L 154.751504 313.730808 
L 161.727854 311.159129 
L 168.704204 308.587451 
L 175.680554 306.015773 
L 182.656905 303.444094 
L 189.633255 300.872416 
L 196.609605 298.300737 
L 203.585955 295.729059 
L 210.562306 293.15738 
L 217.538656 290.585702 
L 224.515006 288.014023 
L 231.491356 285.442345 
L 238.467707 282.870666 
L 245.444057 280.298988 
L 252.420407 277.72731 
L 259.396757 275.155631 
L 266.373108 272.583953 
L 273.349458 270.012274 
L 280.325808 267.440596 
L 287.302158 264.868917 
L 294.278509 262.297239 
L 301.254859 259.72556 
L 308.231209 257.153882 
L 315.207559 254.582203 
L 322.183909 252.010525 
L 329.16026 249.438846 
L 336.13661 246.867168 
L 343.11296 244.29549 
L 350.08931 241.723811 
L 357.065661 239.152133 
L 364.042011 236.580454 
L 371.018361 234.008776 
L 377.994711 231.437097 
L 384.971062 228.865419 
L 391.947412 226.29374 
L 398.923762 223.722062 
L 405.900112 221.150383 
L 412.876463 218.578705 
L 419.852813 216.007027 
L 426.829163 213.435348 
L 433.805513 210.86367 
L 440.781864 208.291991 
L 447.758214 205.720313 
L 454.734564 203.148634 
L 461.710914 200.576956 
L 468.687265 198.005277 
L 475.663615 195.433599 
L 482.639965 192.86192 
L 489.616315 190.290242 
L 496.592666 187.718564 
L 503.569016 185.146885 
L 510.545366 182.575207 
L 517.521716 180.003528 
L 524.498067 177.43185 
L 531.474417 174.860171 
L 538.450767 172.288493 
L 545.427117 169.716814 
L 552.403468 167.145136 
L 559.379818 164.573457 
L 566.356168 162.001779 
L 573.332518 159.4301 
L 580.308869 156.858422 
L 587.285219 154.286744 
L 594.261569 151.715065 
L 601.237919 149.143387 
L 608.214269 146.571708 
L 615.19062 144.00003 
L 622.16697 141.428351 
L 629.14332 138.856673 
L 636.11967 136.284994 
L 643.096021 133.713316 
L 650.072371 131.141637 
L 657.048721 128.569959 
L 664.025071 125.998281 
L 671.001422 123.426602 
L 677.977772 120.854924 
L 684.954122 118.283245 
L 691.930472 115.711567 
L 698.906823 113.139888 
L 705.883173 110.56821 
L 712.859523 107.996531 
L 719.835873 105.424853 
L 726.812224 102.853174 
L 733.788574 100.281496 
L 740.764924 97.709818 
" style="fill:none;stroke:#1f77b4;stroke-linecap:round;stroke-width:2.25;"/>
   </g>
   <g id="line2d_26">
    <path clip-path="url(#pe128efa35a)" d="M 50.10625 371.56137 
L 57.0826 368.973796 
L 64.05895 366.386222 
L 71.035301 363.798648 
L 78.011651 361.211074 
L 84.988001 358.6235 
L 91.964351 356.035927 
L 98.940702 353.448353 
L 105.917052 350.860779 
L 112.893402 348.273205 
L 119.869752 345.685631 
L 126.846103 343.098057 
L 133.822453 340.510483 
L 140.798803 337.92291 
L 147.775153 335.335336 
L 154.751504 332.747762 
L 161.727854 330.160188 
L 168.704204 327.572614 
L 175.680554 324.98504 
L 182.656905 322.397467 
L 189.633255 319.809893 
L 196.609605 317.222319 
L 203.585955 314.634745 
L 210.562306 312.047171 
L 217.538656 309.459597 
L 224.515006 306.872023 
L 231.491356 304.28445 
L 238.467707 301.696876 
L 245.444057 299.109302 
L 252.420407 296.521728 
L 259.396757 293.934154 
L 266.373108 291.34658 
L 273.349458 288.759007 
L 280.325808 286.171433 
L 287.302158 283.583859 
L 294.278509 280.996285 
L 301.254859 278.408711 
L 308.231209 275.821137 
L 315.207559 273.233563 
L 322.183909 270.64599 
L 329.16026 268.058416 
L 336.13661 265.470842 
L 343.11296 262.883268 
L 350.08931 260.295694 
L 357.065661 257.70812 
L 364.042011 255.120547 
L 371.018361 252.532973 
L 377.994711 249.945399 
L 384.971062 247.357825 
L 391.947412 244.770251 
L 398.923762 242.182677 
L 405.900112 239.595103 
L 412.876463 237.00753 
L 419.852813 234.419956 
L 426.829163 231.832382 
L 433.805513 229.244808 
L 440.781864 226.657234 
L 447.758214 224.06966 
L 454.734564 221.482086 
L 461.710914 218.894513 
L 468.687265 216.306939 
L 475.663615 213.719365 
L 482.639965 211.131791 
L 489.616315 208.544217 
L 496.592666 205.956643 
L 503.569016 203.36907 
L 510.545366 200.781496 
L 517.521716 198.193922 
L 524.498067 195.606348 
L 531.474417 193.018774 
L 538.450767 190.4312 
L 545.427117 187.843626 
L 552.403468 185.256053 
L 559.379818 182.668479 
L 566.356168 180.080905 
L 573.332518 177.493331 
L 580.308869 174.905757 
L 587.285219 172.318183 
L 594.261569 169.73061 
L 601.237919 167.143036 
L 608.214269 164.555462 
L 615.19062 161.967888 
L 622.16697 159.380314 
L 629.14332 156.79274 
L 636.11967 154.205166 
L 643.096021 151.617593 
L 650.072371 149.030019 
L 657.048721 146.442445 
L 664.025071 143.854871 
L 671.001422 141.267297 
L 677.977772 138.679723 
L 684.954122 136.092149 
L 691.930472 133.504576 
L 698.906823 130.917002 
L 705.883173 128.329428 
L 712.859523 125.741854 
L 719.835873 123.15428 
L 726.812224 120.566706 
L 733.788574 117.979133 
L 740.764924 115.391559 
" style="fill:none;stroke:#ff7f0e;stroke-linecap:round;stroke-width:2.25;"/>
   </g>
   <g id="line2d_27">
    <path clip-path="url(#pe128efa35a)" d="M 50.10625 359.994366 
L 57.0826 359.222862 
L 64.05895 358.451357 
L 71.035301 357.679853 
L 78.011651 356.908349 
L 84.988001 356.136845 
L 91.964351 355.36534 
L 98.940702 354.593836 
L 105.917052 353.822332 
L 112.893402 353.050827 
L 119.869752 352.279323 
L 126.846103 351.507819 
L 133.822453 350.736314 
L 140.798803 349.96481 
L 147.775153 349.193306 
L 154.751504 348.421801 
L 161.727854 347.650297 
L 168.704204 346.878793 
L 175.680554 346.107288 
L 182.656905 345.335784 
L 189.633255 344.56428 
L 196.609605 343.792775 
L 203.585955 343.021271 
L 210.562306 342.249767 
L 217.538656 341.478262 
L 224.515006 340.706758 
L 231.491356 339.935254 
L 238.467707 339.163749 
L 245.444057 338.392245 
L 252.420407 337.620741 
L 259.396757 336.849237 
L 266.373108 336.077732 
L 273.349458 335.306228 
L 280.325808 334.534724 
L 287.302158 333.763219 
L 294.278509 332.991715 
L 301.254859 332.220211 
L 308.231209 331.448706 
L 315.207559 330.677202 
L 322.183909 329.905698 
L 329.16026 329.134193 
L 336.13661 328.362689 
L 343.11296 327.591185 
L 350.08931 326.81968 
L 357.065661 326.048176 
L 364.042011 325.276672 
L 371.018361 324.505167 
L 377.994711 323.733663 
L 384.971062 322.962159 
L 391.947412 322.190654 
L 398.923762 321.41915 
L 405.900112 320.647646 
L 412.876463 319.876141 
L 419.852813 319.104637 
L 426.829163 318.333133 
L 433.805513 317.561629 
L 440.781864 316.790124 
L 447.758214 316.01862 
L 454.734564 315.247116 
L 461.710914 314.475611 
L 468.687265 313.704107 
L 475.663615 312.932603 
L 482.639965 312.161098 
L 489.616315 311.389594 
L 496.592666 310.61809 
L 503.569016 309.846585 
L 510.545366 309.075081 
L 517.521716 308.303577 
L 524.498067 307.532072 
L 531.474417 306.760568 
L 538.450767 305.989064 
L 545.427117 305.217559 
L 552.403468 304.446055 
L 559.379818 303.674551 
L 566.356168 302.903046 
L 573.332518 302.131542 
L 580.308869 301.360038 
L 587.285219 300.588534 
L 594.261569 299.817029 
L 601.237919 299.045525 
L 608.214269 298.274021 
L 615.19062 297.502516 
L 622.16697 296.731012 
L 629.14332 295.959508 
L 636.11967 295.188003 
L 643.096021 294.416499 
L 650.072371 293.644995 
L 657.048721 292.87349 
L 664.025071 292.101986 
L 671.001422 291.330482 
L 677.977772 290.558977 
L 684.954122 289.787473 
L 691.930472 289.015969 
L 698.906823 288.244464 
L 705.883173 287.47296 
L 712.859523 286.701456 
L 719.835873 285.929951 
L 726.812224 285.158447 
L 733.788574 284.386943 
L 740.764924 283.615438 
" style="fill:none;stroke:#2ca02c;stroke-linecap:round;stroke-width:2.25;"/>
   </g>
   <g id="patch_3">
    <path d="M 50.10625 389.83875 
L 50.10625 7.2 
" style="fill:none;"/>
   </g>
   <g id="patch_4">
    <path d="M 50.10625 389.83875 
L 740.764924 389.83875 
" style="fill:none;"/>
   </g>
  </g>
  <g id="legend_1">
   <g id="text_15">
    <!-- Net -->
    <defs>
     <path d="M 9.8125 72.90625 
L 23.09375 72.90625 
L 55.421875 11.921875 
L 55.421875 72.90625 
L 64.984375 72.90625 
L 64.984375 0 
L 51.703125 0 
L 19.390625 60.984375 
L 19.390625 0 
L 9.8125 0 
z
" id="DejaVuSans-4e"/>
    </defs>
    <g style="fill:#262626;" transform="translate(760.121424 192.82875)scale(0.1 -0.1)">
     <use xlink:href="#DejaVuSans-4e"/>
     <use x="74.804688" xlink:href="#DejaVuSans-65"/>
     <use x="136.328125" xlink:href="#DejaVuSans-74"/>
    </g>
   </g>
   <g id="PathCollection_4">
    <g>
     <use style="fill:#1f77b4;fill-opacity:0.8;stroke:#1f77b4;stroke-opacity:0.8;" x="759.913612" xlink:href="#me9eda08fcc" y="204.881875"/>
    </g>
   </g>
   <g id="text_16">
    <!-- -1 -->
    <defs>
     <path d="M 4.890625 31.390625 
L 31.203125 31.390625 
L 31.203125 23.390625 
L 4.890625 23.390625 
z
" id="DejaVuSans-2d"/>
    </defs>
    <g style="fill:#262626;" transform="translate(777.913612 207.506875)scale(0.1 -0.1)">
     <use xlink:href="#DejaVuSans-2d"/>
     <use x="36.083984" xlink:href="#DejaVuSans-31"/>
    </g>
   </g>
   <g id="PathCollection_5">
    <g>
     <use style="fill:#ff7f0e;fill-opacity:0.8;stroke:#ff7f0e;stroke-opacity:0.8;" x="759.913612" xlink:href="#m8d7599ef4f" y="219.56"/>
    </g>
   </g>
   <g id="text_17">
    <!-- 0 -->
    <g style="fill:#262626;" transform="translate(777.913612 222.185)scale(0.1 -0.1)">
     <use xlink:href="#DejaVuSans-30"/>
    </g>
   </g>
   <g id="PathCollection_6">
    <g>
     <use style="fill:#2ca02c;fill-opacity:0.8;stroke:#2ca02c;stroke-opacity:0.8;" x="759.913612" xlink:href="#m157575d968" y="234.238125"/>
    </g>
   </g>
   <g id="text_18">
    <!-- 1 -->
    <g style="fill:#262626;" transform="translate(777.913612 236.863125)scale(0.1 -0.1)">
     <use xlink:href="#DejaVuSans-31"/>
    </g>
   </g>
  </g>
 </g>
 <defs>
  <clipPath id="pe128efa35a">
   <rect height="382.63875" width="690.658674" x="50.10625" y="7.2"/>
  </clipPath>
 </defs>
</svg>
