<?xml version="1.0" encoding="utf-8" standalone="no"?>
<!DOCTYPE svg PUBLIC "-//W3C//DTD SVG 1.1//EN"
  "http://www.w3.org/Graphics/SVG/1.1/DTD/svg11.dtd">
<!-- Created with matplotlib (http://matplotlib.org/) -->
<svg height="424pt" version="1.1" viewBox="0 0 796 424" width="796pt" xmlns="http://www.w3.org/2000/svg" xmlns:xlink="http://www.w3.org/1999/xlink">
 <defs>
  <style type="text/css">
*{stroke-linecap:butt;stroke-linejoin:round;}
  </style>
 </defs>
 <g id="figure_1">
  <g id="patch_1">
   <path d="M -0 424.173125 
L 796.883924 424.173125 
L 796.883924 0 
L -0 0 
z
" style="fill:#ffffff;"/>
  </g>
  <g id="axes_1">
   <g id="patch_2">
    <path d="M 50.10625 389.83875 
L 740.764924 389.83875 
L 740.764924 7.2 
L 50.10625 7.2 
z
" style="fill:#eaeaf2;"/>
   </g>
   <g id="matplotlib.axis_1">
    <g id="xtick_1">
     <g id="line2d_1">
      <path clip-path="url(#p35897dedb7)" d="M 107.303312 389.83875 
L 107.303312 7.2 
" style="fill:none;stroke:#ffffff;stroke-linecap:round;stroke-width:0.8;"/>
     </g>
     <g id="line2d_2"/>
     <g id="text_1">
      <!-- 0 -->
      <defs>
       <path d="M 31.78125 66.40625 
Q 24.171875 66.40625 20.328125 58.90625 
Q 16.5 51.421875 16.5 36.375 
Q 16.5 21.390625 20.328125 13.890625 
Q 24.171875 6.390625 31.78125 6.390625 
Q 39.453125 6.390625 43.28125 13.890625 
Q 47.125 21.390625 47.125 36.375 
Q 47.125 51.421875 43.28125 58.90625 
Q 39.453125 66.40625 31.78125 66.40625 
z
M 31.78125 74.21875 
Q 44.046875 74.21875 50.515625 64.515625 
Q 56.984375 54.828125 56.984375 36.375 
Q 56.984375 17.96875 50.515625 8.265625 
Q 44.046875 -1.421875 31.78125 -1.421875 
Q 19.53125 -1.421875 13.0625 8.265625 
Q 6.59375 17.96875 6.59375 36.375 
Q 6.59375 54.828125 13.0625 64.515625 
Q 19.53125 74.21875 31.78125 74.21875 
z
" id="DejaVuSans-30"/>
      </defs>
      <g style="fill:#262626;" transform="translate(104.122062 400.937187)scale(0.1 -0.1)">
       <use xlink:href="#DejaVuSans-30"/>
      </g>
     </g>
    </g>
    <g id="xtick_2">
     <g id="line2d_3">
      <path clip-path="url(#p35897dedb7)" d="M 243.10409 389.83875 
L 243.10409 7.2 
" style="fill:none;stroke:#ffffff;stroke-linecap:round;stroke-width:0.8;"/>
     </g>
     <g id="line2d_4"/>
     <g id="text_2">
      <!-- 200 -->
      <defs>
       <path d="M 19.1875 8.296875 
L 53.609375 8.296875 
L 53.609375 0 
L 7.328125 0 
L 7.328125 8.296875 
Q 12.9375 14.109375 22.625 23.890625 
Q 32.328125 33.6875 34.8125 36.53125 
Q 39.546875 41.84375 41.421875 45.53125 
Q 43.3125 49.21875 43.3125 52.78125 
Q 43.3125 58.59375 39.234375 62.25 
Q 35.15625 65.921875 28.609375 65.921875 
Q 23.96875 65.921875 18.8125 64.3125 
Q 13.671875 62.703125 7.8125 59.421875 
L 7.8125 69.390625 
Q 13.765625 71.78125 18.9375 73 
Q 24.125 74.21875 28.421875 74.21875 
Q 39.75 74.21875 46.484375 68.546875 
Q 53.21875 62.890625 53.21875 53.421875 
Q 53.21875 48.921875 51.53125 44.890625 
Q 49.859375 40.875 45.40625 35.40625 
Q 44.1875 33.984375 37.640625 27.21875 
Q 31.109375 20.453125 19.1875 8.296875 
z
" id="DejaVuSans-32"/>
      </defs>
      <g style="fill:#262626;" transform="translate(233.56034 400.937187)scale(0.1 -0.1)">
       <use xlink:href="#DejaVuSans-32"/>
       <use x="63.623047" xlink:href="#DejaVuSans-30"/>
       <use x="127.246094" xlink:href="#DejaVuSans-30"/>
      </g>
     </g>
    </g>
    <g id="xtick_3">
     <g id="line2d_5">
      <path clip-path="url(#p35897dedb7)" d="M 378.904869 389.83875 
L 378.904869 7.2 
" style="fill:none;stroke:#ffffff;stroke-linecap:round;stroke-width:0.8;"/>
     </g>
     <g id="line2d_6"/>
     <g id="text_3">
      <!-- 400 -->
      <defs>
       <path d="M 37.796875 64.3125 
L 12.890625 25.390625 
L 37.796875 25.390625 
z
M 35.203125 72.90625 
L 47.609375 72.90625 
L 47.609375 25.390625 
L 58.015625 25.390625 
L 58.015625 17.1875 
L 47.609375 17.1875 
L 47.609375 0 
L 37.796875 0 
L 37.796875 17.1875 
L 4.890625 17.1875 
L 4.890625 26.703125 
z
" id="DejaVuSans-34"/>
      </defs>
      <g style="fill:#262626;" transform="translate(369.361119 400.937187)scale(0.1 -0.1)">
       <use xlink:href="#DejaVuSans-34"/>
       <use x="63.623047" xlink:href="#DejaVuSans-30"/>
       <use x="127.246094" xlink:href="#DejaVuSans-30"/>
      </g>
     </g>
    </g>
    <g id="xtick_4">
     <g id="line2d_7">
      <path clip-path="url(#p35897dedb7)" d="M 514.705647 389.83875 
L 514.705647 7.2 
" style="fill:none;stroke:#ffffff;stroke-linecap:round;stroke-width:0.8;"/>
     </g>
     <g id="line2d_8"/>
     <g id="text_4">
      <!-- 600 -->
      <defs>
       <path d="M 33.015625 40.375 
Q 26.375 40.375 22.484375 35.828125 
Q 18.609375 31.296875 18.609375 23.390625 
Q 18.609375 15.53125 22.484375 10.953125 
Q 26.375 6.390625 33.015625 6.390625 
Q 39.65625 6.390625 43.53125 10.953125 
Q 47.40625 15.53125 47.40625 23.390625 
Q 47.40625 31.296875 43.53125 35.828125 
Q 39.65625 40.375 33.015625 40.375 
z
M 52.59375 71.296875 
L 52.59375 62.3125 
Q 48.875 64.0625 45.09375 64.984375 
Q 41.3125 65.921875 37.59375 65.921875 
Q 27.828125 65.921875 22.671875 59.328125 
Q 17.53125 52.734375 16.796875 39.40625 
Q 19.671875 43.65625 24.015625 45.921875 
Q 28.375 48.1875 33.59375 48.1875 
Q 44.578125 48.1875 50.953125 41.515625 
Q 57.328125 34.859375 57.328125 23.390625 
Q 57.328125 12.15625 50.6875 5.359375 
Q 44.046875 -1.421875 33.015625 -1.421875 
Q 20.359375 -1.421875 13.671875 8.265625 
Q 6.984375 17.96875 6.984375 36.375 
Q 6.984375 53.65625 15.1875 63.9375 
Q 23.390625 74.21875 37.203125 74.21875 
Q 40.921875 74.21875 44.703125 73.484375 
Q 48.484375 72.75 52.59375 71.296875 
z
" id="DejaVuSans-36"/>
      </defs>
      <g style="fill:#262626;" transform="translate(505.161897 400.937187)scale(0.1 -0.1)">
       <use xlink:href="#DejaVuSans-36"/>
       <use x="63.623047" xlink:href="#DejaVuSans-30"/>
       <use x="127.246094" xlink:href="#DejaVuSans-30"/>
      </g>
     </g>
    </g>
    <g id="xtick_5">
     <g id="line2d_9">
      <path clip-path="url(#p35897dedb7)" d="M 650.506426 389.83875 
L 650.506426 7.2 
" style="fill:none;stroke:#ffffff;stroke-linecap:round;stroke-width:0.8;"/>
     </g>
     <g id="line2d_10"/>
     <g id="text_5">
      <!-- 800 -->
      <defs>
       <path d="M 31.78125 34.625 
Q 24.75 34.625 20.71875 30.859375 
Q 16.703125 27.09375 16.703125 20.515625 
Q 16.703125 13.921875 20.71875 10.15625 
Q 24.75 6.390625 31.78125 6.390625 
Q 38.8125 6.390625 42.859375 10.171875 
Q 46.921875 13.96875 46.921875 20.515625 
Q 46.921875 27.09375 42.890625 30.859375 
Q 38.875 34.625 31.78125 34.625 
z
M 21.921875 38.8125 
Q 15.578125 40.375 12.03125 44.71875 
Q 8.5 49.078125 8.5 55.328125 
Q 8.5 64.0625 14.71875 69.140625 
Q 20.953125 74.21875 31.78125 74.21875 
Q 42.671875 74.21875 48.875 69.140625 
Q 55.078125 64.0625 55.078125 55.328125 
Q 55.078125 49.078125 51.53125 44.71875 
Q 48 40.375 41.703125 38.8125 
Q 48.828125 37.15625 52.796875 32.3125 
Q 56.78125 27.484375 56.78125 20.515625 
Q 56.78125 9.90625 50.3125 4.234375 
Q 43.84375 -1.421875 31.78125 -1.421875 
Q 19.734375 -1.421875 13.25 4.234375 
Q 6.78125 9.90625 6.78125 20.515625 
Q 6.78125 27.484375 10.78125 32.3125 
Q 14.796875 37.15625 21.921875 38.8125 
z
M 18.3125 54.390625 
Q 18.3125 48.734375 21.84375 45.5625 
Q 25.390625 42.390625 31.78125 42.390625 
Q 38.140625 42.390625 41.71875 45.5625 
Q 45.3125 48.734375 45.3125 54.390625 
Q 45.3125 60.0625 41.71875 63.234375 
Q 38.140625 66.40625 31.78125 66.40625 
Q 25.390625 66.40625 21.84375 63.234375 
Q 18.3125 60.0625 18.3125 54.390625 
z
" id="DejaVuSans-38"/>
      </defs>
      <g style="fill:#262626;" transform="translate(640.962676 400.937187)scale(0.1 -0.1)">
       <use xlink:href="#DejaVuSans-38"/>
       <use x="63.623047" xlink:href="#DejaVuSans-30"/>
       <use x="127.246094" xlink:href="#DejaVuSans-30"/>
      </g>
     </g>
    </g>
    <g id="text_6">
     <!-- Sum_Credit -->
     <defs>
      <path d="M 53.515625 70.515625 
L 53.515625 60.890625 
Q 47.90625 63.578125 42.921875 64.890625 
Q 37.9375 66.21875 33.296875 66.21875 
Q 25.25 66.21875 20.875 63.09375 
Q 16.5 59.96875 16.5 54.203125 
Q 16.5 49.359375 19.40625 46.890625 
Q 22.3125 44.4375 30.421875 42.921875 
L 36.375 41.703125 
Q 47.40625 39.59375 52.65625 34.296875 
Q 57.90625 29 57.90625 20.125 
Q 57.90625 9.515625 50.796875 4.046875 
Q 43.703125 -1.421875 29.984375 -1.421875 
Q 24.8125 -1.421875 18.96875 -0.25 
Q 13.140625 0.921875 6.890625 3.21875 
L 6.890625 13.375 
Q 12.890625 10.015625 18.65625 8.296875 
Q 24.421875 6.59375 29.984375 6.59375 
Q 38.421875 6.59375 43.015625 9.90625 
Q 47.609375 13.234375 47.609375 19.390625 
Q 47.609375 24.75 44.3125 27.78125 
Q 41.015625 30.8125 33.5 32.328125 
L 27.484375 33.5 
Q 16.453125 35.6875 11.515625 40.375 
Q 6.59375 45.0625 6.59375 53.421875 
Q 6.59375 63.09375 13.40625 68.65625 
Q 20.21875 74.21875 32.171875 74.21875 
Q 37.3125 74.21875 42.625 73.28125 
Q 47.953125 72.359375 53.515625 70.515625 
z
" id="DejaVuSans-53"/>
      <path d="M 8.5 21.578125 
L 8.5 54.6875 
L 17.484375 54.6875 
L 17.484375 21.921875 
Q 17.484375 14.15625 20.5 10.265625 
Q 23.53125 6.390625 29.59375 6.390625 
Q 36.859375 6.390625 41.078125 11.03125 
Q 45.3125 15.671875 45.3125 23.6875 
L 45.3125 54.6875 
L 54.296875 54.6875 
L 54.296875 0 
L 45.3125 0 
L 45.3125 8.40625 
Q 42.046875 3.421875 37.71875 1 
Q 33.40625 -1.421875 27.6875 -1.421875 
Q 18.265625 -1.421875 13.375 4.4375 
Q 8.5 10.296875 8.5 21.578125 
z
M 31.109375 56 
z
" id="DejaVuSans-75"/>
      <path d="M 52 44.1875 
Q 55.375 50.25 60.0625 53.125 
Q 64.75 56 71.09375 56 
Q 79.640625 56 84.28125 50.015625 
Q 88.921875 44.046875 88.921875 33.015625 
L 88.921875 0 
L 79.890625 0 
L 79.890625 32.71875 
Q 79.890625 40.578125 77.09375 44.375 
Q 74.3125 48.1875 68.609375 48.1875 
Q 61.625 48.1875 57.5625 43.546875 
Q 53.515625 38.921875 53.515625 30.90625 
L 53.515625 0 
L 44.484375 0 
L 44.484375 32.71875 
Q 44.484375 40.625 41.703125 44.40625 
Q 38.921875 48.1875 33.109375 48.1875 
Q 26.21875 48.1875 22.15625 43.53125 
Q 18.109375 38.875 18.109375 30.90625 
L 18.109375 0 
L 9.078125 0 
L 9.078125 54.6875 
L 18.109375 54.6875 
L 18.109375 46.1875 
Q 21.1875 51.21875 25.484375 53.609375 
Q 29.78125 56 35.6875 56 
Q 41.65625 56 45.828125 52.96875 
Q 50 49.953125 52 44.1875 
z
" id="DejaVuSans-6d"/>
      <path d="M 50.984375 -16.609375 
L 50.984375 -23.578125 
L -0.984375 -23.578125 
L -0.984375 -16.609375 
z
" id="DejaVuSans-5f"/>
      <path d="M 64.40625 67.28125 
L 64.40625 56.890625 
Q 59.421875 61.53125 53.78125 63.8125 
Q 48.140625 66.109375 41.796875 66.109375 
Q 29.296875 66.109375 22.65625 58.46875 
Q 16.015625 50.828125 16.015625 36.375 
Q 16.015625 21.96875 22.65625 14.328125 
Q 29.296875 6.6875 41.796875 6.6875 
Q 48.140625 6.6875 53.78125 8.984375 
Q 59.421875 11.28125 64.40625 15.921875 
L 64.40625 5.609375 
Q 59.234375 2.09375 53.4375 0.328125 
Q 47.65625 -1.421875 41.21875 -1.421875 
Q 24.65625 -1.421875 15.125 8.703125 
Q 5.609375 18.84375 5.609375 36.375 
Q 5.609375 53.953125 15.125 64.078125 
Q 24.65625 74.21875 41.21875 74.21875 
Q 47.75 74.21875 53.53125 72.484375 
Q 59.328125 70.75 64.40625 67.28125 
z
" id="DejaVuSans-43"/>
      <path d="M 41.109375 46.296875 
Q 39.59375 47.171875 37.8125 47.578125 
Q 36.03125 48 33.890625 48 
Q 26.265625 48 22.1875 43.046875 
Q 18.109375 38.09375 18.109375 28.8125 
L 18.109375 0 
L 9.078125 0 
L 9.078125 54.6875 
L 18.109375 54.6875 
L 18.109375 46.1875 
Q 20.953125 51.171875 25.484375 53.578125 
Q 30.03125 56 36.53125 56 
Q 37.453125 56 38.578125 55.875 
Q 39.703125 55.765625 41.0625 55.515625 
z
" id="DejaVuSans-72"/>
      <path d="M 56.203125 29.59375 
L 56.203125 25.203125 
L 14.890625 25.203125 
Q 15.484375 15.921875 20.484375 11.0625 
Q 25.484375 6.203125 34.421875 6.203125 
Q 39.59375 6.203125 44.453125 7.46875 
Q 49.3125 8.734375 54.109375 11.28125 
L 54.109375 2.78125 
Q 49.265625 0.734375 44.1875 -0.34375 
Q 39.109375 -1.421875 33.890625 -1.421875 
Q 20.796875 -1.421875 13.15625 6.1875 
Q 5.515625 13.8125 5.515625 26.8125 
Q 5.515625 40.234375 12.765625 48.109375 
Q 20.015625 56 32.328125 56 
Q 43.359375 56 49.78125 48.890625 
Q 56.203125 41.796875 56.203125 29.59375 
z
M 47.21875 32.234375 
Q 47.125 39.59375 43.09375 43.984375 
Q 39.0625 48.390625 32.421875 48.390625 
Q 24.90625 48.390625 20.390625 44.140625 
Q 15.875 39.890625 15.1875 32.171875 
z
" id="DejaVuSans-65"/>
      <path d="M 45.40625 46.390625 
L 45.40625 75.984375 
L 54.390625 75.984375 
L 54.390625 0 
L 45.40625 0 
L 45.40625 8.203125 
Q 42.578125 3.328125 38.25 0.953125 
Q 33.9375 -1.421875 27.875 -1.421875 
Q 17.96875 -1.421875 11.734375 6.484375 
Q 5.515625 14.40625 5.515625 27.296875 
Q 5.515625 40.1875 11.734375 48.09375 
Q 17.96875 56 27.875 56 
Q 33.9375 56 38.25 53.625 
Q 42.578125 51.265625 45.40625 46.390625 
z
M 14.796875 27.296875 
Q 14.796875 17.390625 18.875 11.75 
Q 22.953125 6.109375 30.078125 6.109375 
Q 37.203125 6.109375 41.296875 11.75 
Q 45.40625 17.390625 45.40625 27.296875 
Q 45.40625 37.203125 41.296875 42.84375 
Q 37.203125 48.484375 30.078125 48.484375 
Q 22.953125 48.484375 18.875 42.84375 
Q 14.796875 37.203125 14.796875 27.296875 
z
" id="DejaVuSans-64"/>
      <path d="M 9.421875 54.6875 
L 18.40625 54.6875 
L 18.40625 0 
L 9.421875 0 
z
M 9.421875 75.984375 
L 18.40625 75.984375 
L 18.40625 64.59375 
L 9.421875 64.59375 
z
" id="DejaVuSans-69"/>
      <path d="M 18.3125 70.21875 
L 18.3125 54.6875 
L 36.8125 54.6875 
L 36.8125 47.703125 
L 18.3125 47.703125 
L 18.3125 18.015625 
Q 18.3125 11.328125 20.140625 9.421875 
Q 21.96875 7.515625 27.59375 7.515625 
L 36.8125 7.515625 
L 36.8125 0 
L 27.59375 0 
Q 17.1875 0 13.234375 3.875 
Q 9.28125 7.765625 9.28125 18.015625 
L 9.28125 47.703125 
L 2.6875 47.703125 
L 2.6875 54.6875 
L 9.28125 54.6875 
L 9.28125 70.21875 
z
" id="DejaVuSans-74"/>
     </defs>
     <g style="fill:#262626;" transform="translate(366.576993 414.615312)scale(0.1 -0.1)">
      <use xlink:href="#DejaVuSans-53"/>
      <use x="63.476562" xlink:href="#DejaVuSans-75"/>
      <use x="126.855469" xlink:href="#DejaVuSans-6d"/>
      <use x="224.267578" xlink:href="#DejaVuSans-5f"/>
      <use x="274.267578" xlink:href="#DejaVuSans-43"/>
      <use x="344.091797" xlink:href="#DejaVuSans-72"/>
      <use x="385.173828" xlink:href="#DejaVuSans-65"/>
      <use x="446.697266" xlink:href="#DejaVuSans-64"/>
      <use x="510.173828" xlink:href="#DejaVuSans-69"/>
      <use x="537.957031" xlink:href="#DejaVuSans-74"/>
     </g>
    </g>
   </g>
   <g id="matplotlib.axis_2">
    <g id="ytick_1">
     <g id="line2d_11">
      <path clip-path="url(#p35897dedb7)" d="M 50.10625 347.184168 
L 740.764924 347.184168 
" style="fill:none;stroke:#ffffff;stroke-linecap:round;stroke-width:0.8;"/>
     </g>
     <g id="line2d_12"/>
     <g id="text_7">
      <!-- 0 -->
      <g style="fill:#262626;" transform="translate(40.24375 350.983386)scale(0.1 -0.1)">
       <use xlink:href="#DejaVuSans-30"/>
      </g>
     </g>
    </g>
    <g id="ytick_2">
     <g id="line2d_13">
      <path clip-path="url(#p35897dedb7)" d="M 50.10625 300.626639 
L 740.764924 300.626639 
" style="fill:none;stroke:#ffffff;stroke-linecap:round;stroke-width:0.8;"/>
     </g>
     <g id="line2d_14"/>
     <g id="text_8">
      <!-- 250 -->
      <defs>
       <path d="M 10.796875 72.90625 
L 49.515625 72.90625 
L 49.515625 64.59375 
L 19.828125 64.59375 
L 19.828125 46.734375 
Q 21.96875 47.46875 24.109375 47.828125 
Q 26.265625 48.1875 28.421875 48.1875 
Q 40.625 48.1875 47.75 41.5 
Q 54.890625 34.8125 54.890625 23.390625 
Q 54.890625 11.625 47.5625 5.09375 
Q 40.234375 -1.421875 26.90625 -1.421875 
Q 22.3125 -1.421875 17.546875 -0.640625 
Q 12.796875 0.140625 7.71875 1.703125 
L 7.71875 11.625 
Q 12.109375 9.234375 16.796875 8.0625 
Q 21.484375 6.890625 26.703125 6.890625 
Q 35.15625 6.890625 40.078125 11.328125 
Q 45.015625 15.765625 45.015625 23.390625 
Q 45.015625 31 40.078125 35.4375 
Q 35.15625 39.890625 26.703125 39.890625 
Q 22.75 39.890625 18.8125 39.015625 
Q 14.890625 38.140625 10.796875 36.28125 
z
" id="DejaVuSans-35"/>
      </defs>
      <g style="fill:#262626;" transform="translate(27.51875 304.425857)scale(0.1 -0.1)">
       <use xlink:href="#DejaVuSans-32"/>
       <use x="63.623047" xlink:href="#DejaVuSans-35"/>
       <use x="127.246094" xlink:href="#DejaVuSans-30"/>
      </g>
     </g>
    </g>
    <g id="ytick_3">
     <g id="line2d_15">
      <path clip-path="url(#p35897dedb7)" d="M 50.10625 254.069109 
L 740.764924 254.069109 
" style="fill:none;stroke:#ffffff;stroke-linecap:round;stroke-width:0.8;"/>
     </g>
     <g id="line2d_16"/>
     <g id="text_9">
      <!-- 500 -->
      <g style="fill:#262626;" transform="translate(27.51875 257.868328)scale(0.1 -0.1)">
       <use xlink:href="#DejaVuSans-35"/>
       <use x="63.623047" xlink:href="#DejaVuSans-30"/>
       <use x="127.246094" xlink:href="#DejaVuSans-30"/>
      </g>
     </g>
    </g>
    <g id="ytick_4">
     <g id="line2d_17">
      <path clip-path="url(#p35897dedb7)" d="M 50.10625 207.51158 
L 740.764924 207.51158 
" style="fill:none;stroke:#ffffff;stroke-linecap:round;stroke-width:0.8;"/>
     </g>
     <g id="line2d_18"/>
     <g id="text_10">
      <!-- 750 -->
      <defs>
       <path d="M 8.203125 72.90625 
L 55.078125 72.90625 
L 55.078125 68.703125 
L 28.609375 0 
L 18.3125 0 
L 43.21875 64.59375 
L 8.203125 64.59375 
z
" id="DejaVuSans-37"/>
      </defs>
      <g style="fill:#262626;" transform="translate(27.51875 211.310799)scale(0.1 -0.1)">
       <use xlink:href="#DejaVuSans-37"/>
       <use x="63.623047" xlink:href="#DejaVuSans-35"/>
       <use x="127.246094" xlink:href="#DejaVuSans-30"/>
      </g>
     </g>
    </g>
    <g id="ytick_5">
     <g id="line2d_19">
      <path clip-path="url(#p35897dedb7)" d="M 50.10625 160.954051 
L 740.764924 160.954051 
" style="fill:none;stroke:#ffffff;stroke-linecap:round;stroke-width:0.8;"/>
     </g>
     <g id="line2d_20"/>
     <g id="text_11">
      <!-- 1000 -->
      <defs>
       <path d="M 12.40625 8.296875 
L 28.515625 8.296875 
L 28.515625 63.921875 
L 10.984375 60.40625 
L 10.984375 69.390625 
L 28.421875 72.90625 
L 38.28125 72.90625 
L 38.28125 8.296875 
L 54.390625 8.296875 
L 54.390625 0 
L 12.40625 0 
z
" id="DejaVuSans-31"/>
      </defs>
      <g style="fill:#262626;" transform="translate(21.15625 164.75327)scale(0.1 -0.1)">
       <use xlink:href="#DejaVuSans-31"/>
       <use x="63.623047" xlink:href="#DejaVuSans-30"/>
       <use x="127.246094" xlink:href="#DejaVuSans-30"/>
       <use x="190.869141" xlink:href="#DejaVuSans-30"/>
      </g>
     </g>
    </g>
    <g id="ytick_6">
     <g id="line2d_21">
      <path clip-path="url(#p35897dedb7)" d="M 50.10625 114.396522 
L 740.764924 114.396522 
" style="fill:none;stroke:#ffffff;stroke-linecap:round;stroke-width:0.8;"/>
     </g>
     <g id="line2d_22"/>
     <g id="text_12">
      <!-- 1250 -->
      <g style="fill:#262626;" transform="translate(21.15625 118.195741)scale(0.1 -0.1)">
       <use xlink:href="#DejaVuSans-31"/>
       <use x="63.623047" xlink:href="#DejaVuSans-32"/>
       <use x="127.246094" xlink:href="#DejaVuSans-35"/>
       <use x="190.869141" xlink:href="#DejaVuSans-30"/>
      </g>
     </g>
    </g>
    <g id="ytick_7">
     <g id="line2d_23">
      <path clip-path="url(#p35897dedb7)" d="M 50.10625 67.838993 
L 740.764924 67.838993 
" style="fill:none;stroke:#ffffff;stroke-linecap:round;stroke-width:0.8;"/>
     </g>
     <g id="line2d_24"/>
     <g id="text_13">
      <!-- 1500 -->
      <g style="fill:#262626;" transform="translate(21.15625 71.638212)scale(0.1 -0.1)">
       <use xlink:href="#DejaVuSans-31"/>
       <use x="63.623047" xlink:href="#DejaVuSans-35"/>
       <use x="127.246094" xlink:href="#DejaVuSans-30"/>
       <use x="190.869141" xlink:href="#DejaVuSans-30"/>
      </g>
     </g>
    </g>
    <g id="ytick_8">
     <g id="line2d_25">
      <path clip-path="url(#p35897dedb7)" d="M 50.10625 21.281464 
L 740.764924 21.281464 
" style="fill:none;stroke:#ffffff;stroke-linecap:round;stroke-width:0.8;"/>
     </g>
     <g id="line2d_26"/>
     <g id="text_14">
      <!-- 1750 -->
      <g style="fill:#262626;" transform="translate(21.15625 25.080682)scale(0.1 -0.1)">
       <use xlink:href="#DejaVuSans-31"/>
       <use x="63.623047" xlink:href="#DejaVuSans-37"/>
       <use x="127.246094" xlink:href="#DejaVuSans-35"/>
       <use x="190.869141" xlink:href="#DejaVuSans-30"/>
      </g>
     </g>
    </g>
    <g id="text_15">
     <!-- Sum_Debit -->
     <defs>
      <path d="M 19.671875 64.796875 
L 19.671875 8.109375 
L 31.59375 8.109375 
Q 46.6875 8.109375 53.6875 14.9375 
Q 60.6875 21.78125 60.6875 36.53125 
Q 60.6875 51.171875 53.6875 57.984375 
Q 46.6875 64.796875 31.59375 64.796875 
z
M 9.8125 72.90625 
L 30.078125 72.90625 
Q 51.265625 72.90625 61.171875 64.09375 
Q 71.09375 55.28125 71.09375 36.53125 
Q 71.09375 17.671875 61.125 8.828125 
Q 51.171875 0 30.078125 0 
L 9.8125 0 
z
" id="DejaVuSans-44"/>
      <path d="M 48.6875 27.296875 
Q 48.6875 37.203125 44.609375 42.84375 
Q 40.53125 48.484375 33.40625 48.484375 
Q 26.265625 48.484375 22.1875 42.84375 
Q 18.109375 37.203125 18.109375 27.296875 
Q 18.109375 17.390625 22.1875 11.75 
Q 26.265625 6.109375 33.40625 6.109375 
Q 40.53125 6.109375 44.609375 11.75 
Q 48.6875 17.390625 48.6875 27.296875 
z
M 18.109375 46.390625 
Q 20.953125 51.265625 25.265625 53.625 
Q 29.59375 56 35.59375 56 
Q 45.5625 56 51.78125 48.09375 
Q 58.015625 40.1875 58.015625 27.296875 
Q 58.015625 14.40625 51.78125 6.484375 
Q 45.5625 -1.421875 35.59375 -1.421875 
Q 29.59375 -1.421875 25.265625 0.953125 
Q 20.953125 3.328125 18.109375 8.203125 
L 18.109375 0 
L 9.078125 0 
L 9.078125 75.984375 
L 18.109375 75.984375 
z
" id="DejaVuSans-62"/>
     </defs>
     <g style="fill:#262626;" transform="translate(14.798437 225.682656)rotate(-90)scale(0.1 -0.1)">
      <use xlink:href="#DejaVuSans-53"/>
      <use x="63.476562" xlink:href="#DejaVuSans-75"/>
      <use x="126.855469" xlink:href="#DejaVuSans-6d"/>
      <use x="224.267578" xlink:href="#DejaVuSans-5f"/>
      <use x="274.267578" xlink:href="#DejaVuSans-44"/>
      <use x="351.269531" xlink:href="#DejaVuSans-65"/>
      <use x="412.792969" xlink:href="#DejaVuSans-62"/>
      <use x="476.269531" xlink:href="#DejaVuSans-69"/>
      <use x="504.052734" xlink:href="#DejaVuSans-74"/>
     </g>
    </g>
   </g>
   <g id="PathCollection_1">
    <defs>
     <path d="M 0 3 
C 0.795609 3 1.55874 2.683901 2.12132 2.12132 
C 2.683901 1.55874 3 0.795609 3 0 
C 3 -0.795609 2.683901 -1.55874 2.12132 -2.12132 
C 1.55874 -2.683901 0.795609 -3 0 -3 
C -0.795609 -3 -1.55874 -2.683901 -2.12132 -2.12132 
C -2.683901 -1.55874 -3 -0.795609 -3 0 
C -3 0.795609 -2.683901 1.55874 -2.12132 2.12132 
C -1.55874 2.683901 -0.795609 3 0 3 
z
" id="md32a007430" style="stroke:#1f77b4;stroke-opacity:0.8;"/>
    </defs>
    <g clip-path="url(#p35897dedb7)">
     <use style="fill:#1f77b4;fill-opacity:0.8;stroke:#1f77b4;stroke-opacity:0.8;" x="171.023012" xlink:href="#md32a007430" y="256.6299"/>
     <use style="fill:#1f77b4;fill-opacity:0.8;stroke:#1f77b4;stroke-opacity:0.8;" x="91.556997" xlink:href="#md32a007430" y="347.828026"/>
     <use style="fill:#1f77b4;fill-opacity:0.8;stroke:#1f77b4;stroke-opacity:0.8;" x="139.242501" xlink:href="#md32a007430" y="334.741729"/>
     <use style="fill:#1f77b4;fill-opacity:0.8;stroke:#1f77b4;stroke-opacity:0.8;" x="88.297637" xlink:href="#md32a007430" y="330.980604"/>
     <use style="fill:#1f77b4;fill-opacity:0.8;stroke:#1f77b4;stroke-opacity:0.8;" x="319.384479" xlink:href="#md32a007430" y="290.327978"/>
     <use style="fill:#1f77b4;fill-opacity:0.8;stroke:#1f77b4;stroke-opacity:0.8;" x="136.197797" xlink:href="#md32a007430" y="345.972987"/>
     <use style="fill:#1f77b4;fill-opacity:0.8;stroke:#1f77b4;stroke-opacity:0.8;" x="83.523039" xlink:href="#md32a007430" y="348.593211"/>
     <use style="fill:#1f77b4;fill-opacity:0.8;stroke:#1f77b4;stroke-opacity:0.8;" x="130.803325" xlink:href="#md32a007430" y="337.230776"/>
     <use style="fill:#1f77b4;fill-opacity:0.8;stroke:#1f77b4;stroke-opacity:0.8;" x="107.301344" xlink:href="#md32a007430" y="350.182962"/>
     <use style="fill:#1f77b4;fill-opacity:0.8;stroke:#1f77b4;stroke-opacity:0.8;" x="166.073979" xlink:href="#md32a007430" y="332.031783"/>
     <use style="fill:#1f77b4;fill-opacity:0.8;stroke:#1f77b4;stroke-opacity:0.8;" x="84.328793" xlink:href="#md32a007430" y="350.747291"/>
     <use style="fill:#1f77b4;fill-opacity:0.8;stroke:#1f77b4;stroke-opacity:0.8;" x="123.639475" xlink:href="#md32a007430" y="333.256101"/>
     <use style="fill:#1f77b4;fill-opacity:0.8;stroke:#1f77b4;stroke-opacity:0.8;" x="133.396526" xlink:href="#md32a007430" y="330.899488"/>
     <use style="fill:#1f77b4;fill-opacity:0.8;stroke:#1f77b4;stroke-opacity:0.8;" x="291.860763" xlink:href="#md32a007430" y="289.427538"/>
     <use style="fill:#1f77b4;fill-opacity:0.8;stroke:#1f77b4;stroke-opacity:0.8;" x="430.864193" xlink:href="#md32a007430" y="160.008988"/>
     <use style="fill:#1f77b4;fill-opacity:0.8;stroke:#1f77b4;stroke-opacity:0.8;" x="130.297913" xlink:href="#md32a007430" y="337.57689"/>
     <use style="fill:#1f77b4;fill-opacity:0.8;stroke:#1f77b4;stroke-opacity:0.8;" x="110.55939" xlink:href="#md32a007430" y="322.464549"/>
     <use style="fill:#1f77b4;fill-opacity:0.8;stroke:#1f77b4;stroke-opacity:0.8;" x="124.350736" xlink:href="#md32a007430" y="341.805505"/>
     <use style="fill:#1f77b4;fill-opacity:0.8;stroke:#1f77b4;stroke-opacity:0.8;" x="202.876809" xlink:href="#md32a007430" y="274.959269"/>
     <use style="fill:#1f77b4;fill-opacity:0.8;stroke:#1f77b4;stroke-opacity:0.8;" x="223.96633" xlink:href="#md32a007430" y="318.11127"/>
     <use style="fill:#1f77b4;fill-opacity:0.8;stroke:#1f77b4;stroke-opacity:0.8;" x="266.920176" xlink:href="#md32a007430" y="271.821111"/>
     <use style="fill:#1f77b4;fill-opacity:0.8;stroke:#1f77b4;stroke-opacity:0.8;" x="128.28353" xlink:href="#md32a007430" y="285.657946"/>
     <use style="fill:#1f77b4;fill-opacity:0.8;stroke:#1f77b4;stroke-opacity:0.8;" x="133.905575" xlink:href="#md32a007430" y="349.471618"/>
     <use style="fill:#1f77b4;fill-opacity:0.8;stroke:#1f77b4;stroke-opacity:0.8;" x="129.883739" xlink:href="#md32a007430" y="352.982466"/>
     <use style="fill:#1f77b4;fill-opacity:0.8;stroke:#1f77b4;stroke-opacity:0.8;" x="84.321346" xlink:href="#md32a007430" y="335.351869"/>
     <use style="fill:#1f77b4;fill-opacity:0.8;stroke:#1f77b4;stroke-opacity:0.8;" x="136.70783" xlink:href="#md32a007430" y="319.879687"/>
     <use style="fill:#1f77b4;fill-opacity:0.8;stroke:#1f77b4;stroke-opacity:0.8;" x="88.56881" xlink:href="#md32a007430" y="337.839661"/>
     <use style="fill:#1f77b4;fill-opacity:0.8;stroke:#1f77b4;stroke-opacity:0.8;" x="130.298859" xlink:href="#md32a007430" y="339.240979"/>
     <use style="fill:#1f77b4;fill-opacity:0.8;stroke:#1f77b4;stroke-opacity:0.8;" x="112.126859" xlink:href="#md32a007430" y="350.3583"/>
     <use style="fill:#1f77b4;fill-opacity:0.8;stroke:#1f77b4;stroke-opacity:0.8;" x="217.584963" xlink:href="#md32a007430" y="302.751032"/>
     <use style="fill:#1f77b4;fill-opacity:0.8;stroke:#1f77b4;stroke-opacity:0.8;" x="127.079288" xlink:href="#md32a007430" y="353.082232"/>
     <use style="fill:#1f77b4;fill-opacity:0.8;stroke:#1f77b4;stroke-opacity:0.8;" x="100.816677" xlink:href="#md32a007430" y="343.548454"/>
     <use style="fill:#1f77b4;fill-opacity:0.8;stroke:#1f77b4;stroke-opacity:0.8;" x="140.598089" xlink:href="#md32a007430" y="309.322599"/>
     <use style="fill:#1f77b4;fill-opacity:0.8;stroke:#1f77b4;stroke-opacity:0.8;" x="127.240512" xlink:href="#md32a007430" y="291.276044"/>
     <use style="fill:#1f77b4;fill-opacity:0.8;stroke:#1f77b4;stroke-opacity:0.8;" x="251.880799" xlink:href="#md32a007430" y="247.913071"/>
     <use style="fill:#1f77b4;fill-opacity:0.8;stroke:#1f77b4;stroke-opacity:0.8;" x="126.29995" xlink:href="#md32a007430" y="339.725416"/>
     <use style="fill:#1f77b4;fill-opacity:0.8;stroke:#1f77b4;stroke-opacity:0.8;" x="173.933712" xlink:href="#md32a007430" y="329.221515"/>
     <use style="fill:#1f77b4;fill-opacity:0.8;stroke:#1f77b4;stroke-opacity:0.8;" x="154.781158" xlink:href="#md32a007430" y="327.410908"/>
     <use style="fill:#1f77b4;fill-opacity:0.8;stroke:#1f77b4;stroke-opacity:0.8;" x="95.138168" xlink:href="#md32a007430" y="345.430059"/>
     <use style="fill:#1f77b4;fill-opacity:0.8;stroke:#1f77b4;stroke-opacity:0.8;" x="179.321305" xlink:href="#md32a007430" y="306.342151"/>
     <use style="fill:#1f77b4;fill-opacity:0.8;stroke:#1f77b4;stroke-opacity:0.8;" x="189.069349" xlink:href="#md32a007430" y="321.601282"/>
     <use style="fill:#1f77b4;fill-opacity:0.8;stroke:#1f77b4;stroke-opacity:0.8;" x="117.890888" xlink:href="#md32a007430" y="343.141451"/>
     <use style="fill:#1f77b4;fill-opacity:0.8;stroke:#1f77b4;stroke-opacity:0.8;" x="139.890088" xlink:href="#md32a007430" y="331.690235"/>
     <use style="fill:#1f77b4;fill-opacity:0.8;stroke:#1f77b4;stroke-opacity:0.8;" x="85.748438" xlink:href="#md32a007430" y="349.627574"/>
     <use style="fill:#1f77b4;fill-opacity:0.8;stroke:#1f77b4;stroke-opacity:0.8;" x="135.551009" xlink:href="#md32a007430" y="339.998401"/>
     <use style="fill:#1f77b4;fill-opacity:0.8;stroke:#1f77b4;stroke-opacity:0.8;" x="120.486796" xlink:href="#md32a007430" y="348.84445"/>
     <use style="fill:#1f77b4;fill-opacity:0.8;stroke:#1f77b4;stroke-opacity:0.8;" x="123.394588" xlink:href="#md32a007430" y="341.720791"/>
     <use style="fill:#1f77b4;fill-opacity:0.8;stroke:#1f77b4;stroke-opacity:0.8;" x="92.038583" xlink:href="#md32a007430" y="343.403875"/>
     <use style="fill:#1f77b4;fill-opacity:0.8;stroke:#1f77b4;stroke-opacity:0.8;" x="118.452925" xlink:href="#md32a007430" y="337.973649"/>
     <use style="fill:#1f77b4;fill-opacity:0.8;stroke:#1f77b4;stroke-opacity:0.8;" x="86.545189" xlink:href="#md32a007430" y="350.034111"/>
     <use style="fill:#1f77b4;fill-opacity:0.8;stroke:#1f77b4;stroke-opacity:0.8;" x="182.597741" xlink:href="#md32a007430" y="328.83605"/>
     <use style="fill:#1f77b4;fill-opacity:0.8;stroke:#1f77b4;stroke-opacity:0.8;" x="89.939451" xlink:href="#md32a007430" y="347.830782"/>
     <use style="fill:#1f77b4;fill-opacity:0.8;stroke:#1f77b4;stroke-opacity:0.8;" x="100.865356" xlink:href="#md32a007430" y="336.931228"/>
    </g>
   </g>
   <g id="PolyCollection_1">
    <path clip-path="url(#p35897dedb7)" d="M 50.10625 351.41353 
L 50.10625 372.44608 
L 57.0826 369.061418 
L 64.05895 365.617158 
L 71.035301 362.212503 
L 78.011651 358.843524 
L 84.988001 355.497629 
L 91.964351 352.152405 
L 98.940702 348.934146 
L 105.917052 345.633768 
L 112.893402 342.511122 
L 119.869752 339.509447 
L 126.846103 336.483734 
L 133.822453 333.700693 
L 140.798803 331.335901 
L 147.775153 329.158318 
L 154.751504 326.665283 
L 161.727854 324.466848 
L 168.704204 322.316855 
L 175.680554 320.13746 
L 182.656905 317.883114 
L 189.633255 315.85161 
L 196.609605 313.845441 
L 203.585955 311.922012 
L 210.562306 310.134286 
L 217.538656 308.102633 
L 224.515006 306.086574 
L 231.491356 304.248343 
L 238.467707 302.20833 
L 245.444057 300.236194 
L 252.420407 298.493 
L 259.396757 296.686628 
L 266.373108 294.873296 
L 273.349458 292.963694 
L 280.325808 291.020869 
L 287.302158 289.070909 
L 294.278509 287.092303 
L 301.254859 285.126734 
L 308.231209 283.271909 
L 315.207559 281.388124 
L 322.183909 279.495649 
L 329.16026 277.619787 
L 336.13661 275.73677 
L 343.11296 273.852985 
L 350.08931 271.9692 
L 357.065661 270.085416 
L 364.042011 268.199953 
L 371.018361 266.311572 
L 377.994711 264.425647 
L 384.971062 262.543456 
L 391.947412 260.65774 
L 398.923762 258.7709 
L 405.900112 256.844478 
L 412.876463 254.878477 
L 419.852813 252.912476 
L 426.829163 250.946475 
L 433.805513 248.980473 
L 440.781864 247.016328 
L 447.758214 245.137656 
L 454.734564 243.257254 
L 461.710914 241.376853 
L 468.687265 239.496451 
L 475.663615 237.616049 
L 482.639965 235.737587 
L 489.616315 233.861387 
L 496.592666 231.985186 
L 503.569016 230.108986 
L 510.545366 228.229196 
L 517.521716 226.349392 
L 524.498067 224.469587 
L 531.474417 222.589782 
L 538.450767 220.696109 
L 545.427117 218.754719 
L 552.403468 216.81333 
L 559.379818 214.87194 
L 566.356168 212.970077 
L 573.332518 211.101004 
L 580.308869 209.231932 
L 587.285219 207.362859 
L 594.261569 205.493787 
L 601.237919 203.624714 
L 608.214269 201.755642 
L 615.19062 199.88657 
L 622.16697 198.017497 
L 629.14332 196.148425 
L 636.11967 194.279352 
L 643.096021 192.41028 
L 650.072371 190.541207 
L 657.048721 188.672135 
L 664.025071 186.803062 
L 671.001422 184.93399 
L 677.977772 183.064917 
L 684.954122 181.195845 
L 691.930472 179.326772 
L 698.906823 177.4577 
L 705.883173 175.588627 
L 712.859523 173.719555 
L 719.835873 171.850482 
L 726.812224 169.98141 
L 733.788574 168.112337 
L 740.764924 166.243015 
L 740.764924 24.59267 
L 740.764924 24.59267 
L 733.788574 28.085488 
L 726.812224 31.578305 
L 719.835873 35.071122 
L 712.859523 38.56394 
L 705.883173 42.056757 
L 698.906823 45.549574 
L 691.930472 49.042391 
L 684.954122 52.535209 
L 677.977772 56.028026 
L 671.001422 59.532595 
L 664.025071 63.05332 
L 657.048721 66.574045 
L 650.072371 70.094769 
L 643.096021 73.615494 
L 636.11967 77.136219 
L 629.14332 80.656943 
L 622.16697 84.177668 
L 615.19062 87.65466 
L 608.214269 91.114385 
L 601.237919 94.57411 
L 594.261569 98.033836 
L 587.285219 101.493561 
L 580.308869 104.953286 
L 573.332518 108.413011 
L 566.356168 111.901032 
L 559.379818 115.392697 
L 552.403468 118.885524 
L 545.427117 122.390775 
L 538.450767 125.911907 
L 531.474417 129.433039 
L 524.498067 132.95417 
L 517.521716 136.475302 
L 510.545366 139.996434 
L 503.569016 143.517565 
L 496.592666 147.038697 
L 489.616315 150.559829 
L 482.639965 154.08096 
L 475.663615 157.602092 
L 468.687265 161.123224 
L 461.710914 164.644355 
L 454.734564 168.165487 
L 447.758214 171.686619 
L 440.781864 175.20775 
L 433.805513 178.728886 
L 426.829163 182.184824 
L 419.852813 185.637736 
L 412.876463 189.090647 
L 405.900112 192.543559 
L 398.923762 195.996471 
L 391.947412 199.508446 
L 384.971062 203.049215 
L 377.994711 206.444073 
L 371.018361 209.805183 
L 364.042011 213.22102 
L 357.065661 216.676758 
L 350.08931 220.198333 
L 343.11296 223.792723 
L 336.13661 227.24355 
L 329.16026 230.692614 
L 322.183909 234.141677 
L 315.207559 237.586536 
L 308.231209 241.03346 
L 301.254859 244.48191 
L 294.278509 247.932836 
L 287.302158 251.388103 
L 280.325808 254.828686 
L 273.349458 258.275296 
L 266.373108 261.724537 
L 259.396757 265.222978 
L 252.420407 268.803467 
L 245.444057 272.240212 
L 238.467707 275.638334 
L 231.491356 279.113505 
L 224.515006 282.620552 
L 217.538656 286.209802 
L 210.562306 289.594072 
L 203.585955 292.954816 
L 196.609605 296.40812 
L 189.633255 299.943937 
L 182.656905 303.419488 
L 175.680554 306.551762 
L 168.704204 309.866891 
L 161.727854 313.082057 
L 154.751504 316.294659 
L 147.775153 319.485302 
L 140.798803 322.50147 
L 133.822453 325.259841 
L 126.846103 327.99792 
L 119.869752 330.584479 
L 112.893402 332.893237 
L 105.917052 335.098123 
L 98.940702 337.303658 
L 91.964351 339.501806 
L 84.988001 341.69922 
L 78.011651 343.680152 
L 71.035301 345.605492 
L 64.05895 347.615334 
L 57.0826 349.482741 
L 50.10625 351.41353 
z
" style="fill:#1f77b4;fill-opacity:0.15;"/>
   </g>
   <g id="PathCollection_2">
    <defs>
     <path d="M 0 3 
C 0.795609 3 1.55874 2.683901 2.12132 2.12132 
C 2.683901 1.55874 3 0.795609 3 0 
C 3 -0.795609 2.683901 -1.55874 2.12132 -2.12132 
C 1.55874 -2.683901 0.795609 -3 0 -3 
C -0.795609 -3 -1.55874 -2.683901 -2.12132 -2.12132 
C -2.683901 -1.55874 -3 -0.795609 -3 0 
C -3 0.795609 -2.683901 1.55874 -2.12132 2.12132 
C -1.55874 2.683901 -0.795609 3 0 3 
z
" id="m6028473613" style="stroke:#ff7f0e;stroke-opacity:0.8;"/>
    </defs>
    <g clip-path="url(#p35897dedb7)">
     <use style="fill:#ff7f0e;fill-opacity:0.8;stroke:#ff7f0e;stroke-opacity:0.8;" x="285.229129" xlink:href="#m6028473613" y="284.332988"/>
     <use style="fill:#ff7f0e;fill-opacity:0.8;stroke:#ff7f0e;stroke-opacity:0.8;" x="195.387249" xlink:href="#m6028473613" y="323.607079"/>
     <use style="fill:#ff7f0e;fill-opacity:0.8;stroke:#ff7f0e;stroke-opacity:0.8;" x="97.506266" xlink:href="#m6028473613" y="353.455011"/>
     <use style="fill:#ff7f0e;fill-opacity:0.8;stroke:#ff7f0e;stroke-opacity:0.8;" x="166.742408" xlink:href="#m6028473613" y="326.164226"/>
     <use style="fill:#ff7f0e;fill-opacity:0.8;stroke:#ff7f0e;stroke-opacity:0.8;" x="272.482868" xlink:href="#m6028473613" y="308.493103"/>
     <use style="fill:#ff7f0e;fill-opacity:0.8;stroke:#ff7f0e;stroke-opacity:0.8;" x="162.391926" xlink:href="#m6028473613" y="343.498191"/>
     <use style="fill:#ff7f0e;fill-opacity:0.8;stroke:#ff7f0e;stroke-opacity:0.8;" x="465.660123" xlink:href="#m6028473613" y="250.512588"/>
     <use style="fill:#ff7f0e;fill-opacity:0.8;stroke:#ff7f0e;stroke-opacity:0.8;" x="90.531994" xlink:href="#m6028473613" y="353.864386"/>
     <use style="fill:#ff7f0e;fill-opacity:0.8;stroke:#ff7f0e;stroke-opacity:0.8;" x="135.471325" xlink:href="#m6028473613" y="353.732134"/>
     <use style="fill:#ff7f0e;fill-opacity:0.8;stroke:#ff7f0e;stroke-opacity:0.8;" x="130.794089" xlink:href="#m6028473613" y="351.594063"/>
    </g>
   </g>
   <g id="PolyCollection_2">
    <path clip-path="url(#p35897dedb7)" d="M 50.10625 362.871582 
L 50.10625 362.871582 
L 57.0826 360.958181 
L 64.05895 359.044781 
L 71.035301 357.13138 
L 78.011651 355.217979 
L 84.988001 353.304579 
L 91.964351 351.391178 
L 98.940702 349.477777 
L 105.917052 347.564377 
L 112.893402 345.650976 
L 119.869752 343.737575 
L 126.846103 341.824175 
L 133.822453 339.910774 
L 140.798803 337.997373 
L 147.775153 336.083972 
L 154.751504 334.170572 
L 161.727854 332.257171 
L 168.704204 330.34377 
L 175.680554 328.43037 
L 182.656905 326.516969 
L 189.633255 324.603568 
L 196.609605 322.690168 
L 203.585955 320.776767 
L 210.562306 318.863366 
L 217.538656 316.949966 
L 224.515006 315.036565 
L 231.491356 313.123164 
L 238.467707 311.209763 
L 245.444057 309.296363 
L 252.420407 307.382962 
L 259.396757 305.469561 
L 266.373108 303.556161 
L 273.349458 301.64276 
L 280.325808 299.729359 
L 287.302158 297.815959 
L 294.278509 295.902558 
L 301.254859 293.989157 
L 308.231209 292.075757 
L 315.207559 290.162356 
L 322.183909 288.248955 
L 329.16026 286.335554 
L 336.13661 284.422154 
L 343.11296 282.508753 
L 350.08931 280.595352 
L 357.065661 278.681952 
L 364.042011 276.768551 
L 371.018361 274.85515 
L 377.994711 272.94175 
L 384.971062 271.028349 
L 391.947412 269.114948 
L 398.923762 267.201548 
L 405.900112 265.288147 
L 412.876463 263.374746 
L 419.852813 261.461345 
L 426.829163 259.547945 
L 433.805513 257.634544 
L 440.781864 255.721143 
L 447.758214 253.807743 
L 454.734564 251.894342 
L 461.710914 249.980941 
L 468.687265 248.067541 
L 475.663615 246.15414 
L 482.639965 244.240739 
L 489.616315 242.327338 
L 496.592666 240.413938 
L 503.569016 238.500537 
L 510.545366 236.587136 
L 517.521716 234.673736 
L 524.498067 232.760335 
L 531.474417 230.846934 
L 538.450767 228.933534 
L 545.427117 227.020133 
L 552.403468 225.106732 
L 559.379818 223.193332 
L 566.356168 221.279931 
L 573.332518 219.36653 
L 580.308869 217.453129 
L 587.285219 215.539729 
L 594.261569 213.626328 
L 601.237919 211.712927 
L 608.214269 209.799527 
L 615.19062 207.886126 
L 622.16697 205.972725 
L 629.14332 204.059325 
L 636.11967 202.145924 
L 643.096021 200.232523 
L 650.072371 198.319123 
L 657.048721 196.405722 
L 664.025071 194.492321 
L 671.001422 192.57892 
L 677.977772 190.66552 
L 684.954122 188.752119 
L 691.930472 186.838718 
L 698.906823 184.925318 
L 705.883173 183.011917 
L 712.859523 181.098516 
L 719.835873 179.185116 
L 726.812224 177.271715 
L 733.788574 175.358314 
L 740.764924 173.444914 
L 740.764924 173.444914 
L 740.764924 173.444914 
L 733.788574 175.358314 
L 726.812224 177.271715 
L 719.835873 179.185116 
L 712.859523 181.098516 
L 705.883173 183.011917 
L 698.906823 184.925318 
L 691.930472 186.838718 
L 684.954122 188.752119 
L 677.977772 190.66552 
L 671.001422 192.57892 
L 664.025071 194.492321 
L 657.048721 196.405722 
L 650.072371 198.319123 
L 643.096021 200.232523 
L 636.11967 202.145924 
L 629.14332 204.059325 
L 622.16697 205.972725 
L 615.19062 207.886126 
L 608.214269 209.799527 
L 601.237919 211.712927 
L 594.261569 213.626328 
L 587.285219 215.539729 
L 580.308869 217.453129 
L 573.332518 219.36653 
L 566.356168 221.279931 
L 559.379818 223.193332 
L 552.403468 225.106732 
L 545.427117 227.020133 
L 538.450767 228.933534 
L 531.474417 230.846934 
L 524.498067 232.760335 
L 517.521716 234.673736 
L 510.545366 236.587136 
L 503.569016 238.500537 
L 496.592666 240.413938 
L 489.616315 242.327338 
L 482.639965 244.240739 
L 475.663615 246.15414 
L 468.687265 248.067541 
L 461.710914 249.980941 
L 454.734564 251.894342 
L 447.758214 253.807743 
L 440.781864 255.721143 
L 433.805513 257.634544 
L 426.829163 259.547945 
L 419.852813 261.461345 
L 412.876463 263.374746 
L 405.900112 265.288147 
L 398.923762 267.201548 
L 391.947412 269.114948 
L 384.971062 271.028349 
L 377.994711 272.94175 
L 371.018361 274.85515 
L 364.042011 276.768551 
L 357.065661 278.681952 
L 350.08931 280.595352 
L 343.11296 282.508753 
L 336.13661 284.422154 
L 329.16026 286.335554 
L 322.183909 288.248955 
L 315.207559 290.162356 
L 308.231209 292.075757 
L 301.254859 293.989157 
L 294.278509 295.902558 
L 287.302158 297.815959 
L 280.325808 299.729359 
L 273.349458 301.64276 
L 266.373108 303.556161 
L 259.396757 305.469561 
L 252.420407 307.382962 
L 245.444057 309.296363 
L 238.467707 311.209763 
L 231.491356 313.123164 
L 224.515006 315.036565 
L 217.538656 316.949966 
L 210.562306 318.863366 
L 203.585955 320.776767 
L 196.609605 322.690168 
L 189.633255 324.603568 
L 182.656905 326.516969 
L 175.680554 328.43037 
L 168.704204 330.34377 
L 161.727854 332.257171 
L 154.751504 334.170572 
L 147.775153 336.083972 
L 140.798803 337.997373 
L 133.822453 339.910774 
L 126.846103 341.824175 
L 119.869752 343.737575 
L 112.893402 345.650976 
L 105.917052 347.564377 
L 98.940702 349.477777 
L 91.964351 351.391178 
L 84.988001 353.304579 
L 78.011651 355.217979 
L 71.035301 357.13138 
L 64.05895 359.044781 
L 57.0826 360.958181 
L 50.10625 362.871582 
z
" style="fill:#ff7f0e;fill-opacity:0.15;"/>
   </g>
   <g id="PathCollection_3">
    <defs>
     <path d="M 0 3 
C 0.795609 3 1.55874 2.683901 2.12132 2.12132 
C 2.683901 1.55874 3 0.795609 3 0 
C 3 -0.795609 2.683901 -1.55874 2.12132 -2.12132 
C 1.55874 -2.683901 0.795609 -3 0 -3 
C -0.795609 -3 -1.55874 -2.683901 -2.12132 -2.12132 
C -2.683901 -1.55874 -3 -0.795609 -3 0 
C -3 0.795609 -2.683901 1.55874 -2.12132 2.12132 
C -1.55874 2.683901 -0.795609 3 0 3 
z
" id="mb0b9c709ec" style="stroke:#2ca02c;stroke-opacity:0.8;"/>
    </defs>
    <g clip-path="url(#p35897dedb7)">
     <use style="fill:#2ca02c;fill-opacity:0.8;stroke:#2ca02c;stroke-opacity:0.8;" x="206.389087" xlink:href="#mb0b9c709ec" y="338.033419"/>
     <use style="fill:#2ca02c;fill-opacity:0.8;stroke:#2ca02c;stroke-opacity:0.8;" x="411.333088" xlink:href="#mb0b9c709ec" y="319.868254"/>
     <use style="fill:#2ca02c;fill-opacity:0.8;stroke:#2ca02c;stroke-opacity:0.8;" x="148.794001" xlink:href="#mb0b9c709ec" y="352.352186"/>
     <use style="fill:#2ca02c;fill-opacity:0.8;stroke:#2ca02c;stroke-opacity:0.8;" x="200.172893" xlink:href="#mb0b9c709ec" y="339.222011"/>
     <use style="fill:#2ca02c;fill-opacity:0.8;stroke:#2ca02c;stroke-opacity:0.8;" x="245.838206" xlink:href="#mb0b9c709ec" y="349.277408"/>
     <use style="fill:#2ca02c;fill-opacity:0.8;stroke:#2ca02c;stroke-opacity:0.8;" x="255.24561" xlink:href="#mb0b9c709ec" y="346.919453"/>
     <use style="fill:#2ca02c;fill-opacity:0.8;stroke:#2ca02c;stroke-opacity:0.8;" x="231.498598" xlink:href="#mb0b9c709ec" y="344.520639"/>
     <use style="fill:#2ca02c;fill-opacity:0.8;stroke:#2ca02c;stroke-opacity:0.8;" x="148.196882" xlink:href="#mb0b9c709ec" y="347.135885"/>
     <use style="fill:#2ca02c;fill-opacity:0.8;stroke:#2ca02c;stroke-opacity:0.8;" x="177.347392" xlink:href="#mb0b9c709ec" y="351.866693"/>
     <use style="fill:#2ca02c;fill-opacity:0.8;stroke:#2ca02c;stroke-opacity:0.8;" x="421.58586" xlink:href="#mb0b9c709ec" y="342.693113"/>
     <use style="fill:#2ca02c;fill-opacity:0.8;stroke:#2ca02c;stroke-opacity:0.8;" x="271.818178" xlink:href="#mb0b9c709ec" y="312.882733"/>
     <use style="fill:#2ca02c;fill-opacity:0.8;stroke:#2ca02c;stroke-opacity:0.8;" x="571.355558" xlink:href="#mb0b9c709ec" y="340.118765"/>
     <use style="fill:#2ca02c;fill-opacity:0.8;stroke:#2ca02c;stroke-opacity:0.8;" x="599.330613" xlink:href="#mb0b9c709ec" y="302.161467"/>
     <use style="fill:#2ca02c;fill-opacity:0.8;stroke:#2ca02c;stroke-opacity:0.8;" x="576.767612" xlink:href="#mb0b9c709ec" y="266.413291"/>
     <use style="fill:#2ca02c;fill-opacity:0.8;stroke:#2ca02c;stroke-opacity:0.8;" x="298.374036" xlink:href="#mb0b9c709ec" y="345.557597"/>
     <use style="fill:#2ca02c;fill-opacity:0.8;stroke:#2ca02c;stroke-opacity:0.8;" x="169.586757" xlink:href="#mb0b9c709ec" y="342.560442"/>
     <use style="fill:#2ca02c;fill-opacity:0.8;stroke:#2ca02c;stroke-opacity:0.8;" x="256.610796" xlink:href="#mb0b9c709ec" y="338.935778"/>
     <use style="fill:#2ca02c;fill-opacity:0.8;stroke:#2ca02c;stroke-opacity:0.8;" x="99.547044" xlink:href="#mb0b9c709ec" y="345.701944"/>
     <use style="fill:#2ca02c;fill-opacity:0.8;stroke:#2ca02c;stroke-opacity:0.8;" x="372.596235" xlink:href="#mb0b9c709ec" y="325.870498"/>
     <use style="fill:#2ca02c;fill-opacity:0.8;stroke:#2ca02c;stroke-opacity:0.8;" x="707.784702" xlink:href="#mb0b9c709ec" y="353.17281"/>
     <use style="fill:#2ca02c;fill-opacity:0.8;stroke:#2ca02c;stroke-opacity:0.8;" x="144.488642" xlink:href="#mb0b9c709ec" y="348.704394"/>
     <use style="fill:#2ca02c;fill-opacity:0.8;stroke:#2ca02c;stroke-opacity:0.8;" x="676.818949" xlink:href="#mb0b9c709ec" y="263.724173"/>
     <use style="fill:#2ca02c;fill-opacity:0.8;stroke:#2ca02c;stroke-opacity:0.8;" x="119.833994" xlink:href="#mb0b9c709ec" y="337.905741"/>
     <use style="fill:#2ca02c;fill-opacity:0.8;stroke:#2ca02c;stroke-opacity:0.8;" x="170.319569" xlink:href="#mb0b9c709ec" y="349.491659"/>
     <use style="fill:#2ca02c;fill-opacity:0.8;stroke:#2ca02c;stroke-opacity:0.8;" x="140.760571" xlink:href="#mb0b9c709ec" y="345.469257"/>
     <use style="fill:#2ca02c;fill-opacity:0.8;stroke:#2ca02c;stroke-opacity:0.8;" x="345.644662" xlink:href="#mb0b9c709ec" y="346.691029"/>
     <use style="fill:#2ca02c;fill-opacity:0.8;stroke:#2ca02c;stroke-opacity:0.8;" x="331.50017" xlink:href="#mb0b9c709ec" y="337.125414"/>
     <use style="fill:#2ca02c;fill-opacity:0.8;stroke:#2ca02c;stroke-opacity:0.8;" x="344.865521" xlink:href="#mb0b9c709ec" y="330.92672"/>
     <use style="fill:#2ca02c;fill-opacity:0.8;stroke:#2ca02c;stroke-opacity:0.8;" x="347.699453" xlink:href="#mb0b9c709ec" y="341.308715"/>
     <use style="fill:#2ca02c;fill-opacity:0.8;stroke:#2ca02c;stroke-opacity:0.8;" x="288.558925" xlink:href="#mb0b9c709ec" y="349.441204"/>
     <use style="fill:#2ca02c;fill-opacity:0.8;stroke:#2ca02c;stroke-opacity:0.8;" x="155.65621" xlink:href="#mb0b9c709ec" y="339.329605"/>
     <use style="fill:#2ca02c;fill-opacity:0.8;stroke:#2ca02c;stroke-opacity:0.8;" x="316.168312" xlink:href="#mb0b9c709ec" y="305.936813"/>
     <use style="fill:#2ca02c;fill-opacity:0.8;stroke:#2ca02c;stroke-opacity:0.8;" x="153.218799" xlink:href="#mb0b9c709ec" y="334.286253"/>
     <use style="fill:#2ca02c;fill-opacity:0.8;stroke:#2ca02c;stroke-opacity:0.8;" x="273.197509" xlink:href="#mb0b9c709ec" y="351.074003"/>
     <use style="fill:#2ca02c;fill-opacity:0.8;stroke:#2ca02c;stroke-opacity:0.8;" x="314.423609" xlink:href="#mb0b9c709ec" y="335.881719"/>
     <use style="fill:#2ca02c;fill-opacity:0.8;stroke:#2ca02c;stroke-opacity:0.8;" x="452.91864" xlink:href="#mb0b9c709ec" y="344.759259"/>
     <use style="fill:#2ca02c;fill-opacity:0.8;stroke:#2ca02c;stroke-opacity:0.8;" x="165.18027" xlink:href="#mb0b9c709ec" y="350.010572"/>
     <use style="fill:#2ca02c;fill-opacity:0.8;stroke:#2ca02c;stroke-opacity:0.8;" x="191.678421" xlink:href="#mb0b9c709ec" y="351.758211"/>
     <use style="fill:#2ca02c;fill-opacity:0.8;stroke:#2ca02c;stroke-opacity:0.8;" x="187.119524" xlink:href="#mb0b9c709ec" y="345.796745"/>
     <use style="fill:#2ca02c;fill-opacity:0.8;stroke:#2ca02c;stroke-opacity:0.8;" x="179.173141" xlink:href="#mb0b9c709ec" y="352.445761"/>
     <use style="fill:#2ca02c;fill-opacity:0.8;stroke:#2ca02c;stroke-opacity:0.8;" x="299.465836" xlink:href="#mb0b9c709ec" y="343.436739"/>
     <use style="fill:#2ca02c;fill-opacity:0.8;stroke:#2ca02c;stroke-opacity:0.8;" x="254.970257" xlink:href="#mb0b9c709ec" y="341.225006"/>
     <use style="fill:#2ca02c;fill-opacity:0.8;stroke:#2ca02c;stroke-opacity:0.8;" x="144.025398" xlink:href="#mb0b9c709ec" y="337.083858"/>
     <use style="fill:#2ca02c;fill-opacity:0.8;stroke:#2ca02c;stroke-opacity:0.8;" x="236.146687" xlink:href="#mb0b9c709ec" y="342.848069"/>
     <use style="fill:#2ca02c;fill-opacity:0.8;stroke:#2ca02c;stroke-opacity:0.8;" x="224.28262" xlink:href="#mb0b9c709ec" y="344.892151"/>
     <use style="fill:#2ca02c;fill-opacity:0.8;stroke:#2ca02c;stroke-opacity:0.8;" x="456.198512" xlink:href="#mb0b9c709ec" y="341.443436"/>
     <use style="fill:#2ca02c;fill-opacity:0.8;stroke:#2ca02c;stroke-opacity:0.8;" x="148.830429" xlink:href="#mb0b9c709ec" y="351.711626"/>
     <use style="fill:#2ca02c;fill-opacity:0.8;stroke:#2ca02c;stroke-opacity:0.8;" x="120.835517" xlink:href="#mb0b9c709ec" y="344.490224"/>
     <use style="fill:#2ca02c;fill-opacity:0.8;stroke:#2ca02c;stroke-opacity:0.8;" x="338.021995" xlink:href="#mb0b9c709ec" y="336.69785"/>
     <use style="fill:#2ca02c;fill-opacity:0.8;stroke:#2ca02c;stroke-opacity:0.8;" x="348.103838" xlink:href="#mb0b9c709ec" y="340.253493"/>
    </g>
   </g>
   <g id="PolyCollection_3">
    <path clip-path="url(#p35897dedb7)" d="M 50.10625 342.680148 
L 50.10625 360.822772 
L 57.0826 360.00513 
L 64.05895 359.232342 
L 71.035301 358.503898 
L 78.011651 357.787817 
L 84.988001 357.066605 
L 91.964351 356.312528 
L 98.940702 355.452349 
L 105.917052 354.698001 
L 112.893402 354.041225 
L 119.869752 353.262373 
L 126.846103 352.578281 
L 133.822453 351.745497 
L 140.798803 350.952418 
L 147.775153 350.254448 
L 154.751504 349.649576 
L 161.727854 348.785909 
L 168.704204 348.131177 
L 175.680554 347.439995 
L 182.656905 346.758984 
L 189.633255 345.971602 
L 196.609605 345.382762 
L 203.585955 344.760973 
L 210.562306 344.186231 
L 217.538656 343.584554 
L 224.515006 343.096804 
L 231.491356 342.700355 
L 238.467707 342.465115 
L 245.444057 342.251236 
L 252.420407 342.032791 
L 259.396757 341.830703 
L 266.373108 341.636832 
L 273.349458 341.505012 
L 280.325808 341.355528 
L 287.302158 341.251807 
L 294.278509 341.143201 
L 301.254859 341.071982 
L 308.231209 340.928622 
L 315.207559 340.800558 
L 322.183909 340.714203 
L 329.16026 340.66418 
L 336.13661 340.616261 
L 343.11296 340.568342 
L 350.08931 340.518261 
L 357.065661 340.460729 
L 364.042011 340.367148 
L 371.018361 340.244586 
L 377.994711 340.138611 
L 384.971062 340.037361 
L 391.947412 339.937492 
L 398.923762 339.837624 
L 405.900112 339.737475 
L 412.876463 339.658015 
L 419.852813 339.617206 
L 426.829163 339.500802 
L 433.805513 339.492131 
L 440.781864 339.501541 
L 447.758214 339.510036 
L 454.734564 339.456372 
L 461.710914 339.396036 
L 468.687265 339.335166 
L 475.663615 339.274146 
L 482.639965 339.211902 
L 489.616315 339.148839 
L 496.592666 339.085777 
L 503.569016 339.022714 
L 510.545366 338.959652 
L 517.521716 338.896589 
L 524.498067 338.833527 
L 531.474417 338.771356 
L 538.450767 338.709568 
L 545.427117 338.647779 
L 552.403468 338.585991 
L 559.379818 338.524202 
L 566.356168 338.462414 
L 573.332518 338.400625 
L 580.308869 338.338837 
L 587.285219 338.277048 
L 594.261569 338.21526 
L 601.237919 338.153471 
L 608.214269 338.091683 
L 615.19062 338.029894 
L 622.16697 337.968028 
L 629.14332 337.905178 
L 636.11967 337.842327 
L 643.096021 337.779477 
L 650.072371 337.716626 
L 657.048721 337.653776 
L 664.025071 337.590925 
L 671.001422 337.524399 
L 677.977772 337.434822 
L 684.954122 337.345246 
L 691.930472 337.255669 
L 698.906823 337.166093 
L 705.883173 337.076517 
L 712.859523 336.98694 
L 719.835873 336.897364 
L 726.812224 336.807787 
L 733.788574 336.718211 
L 740.764924 336.628635 
L 740.764924 282.271784 
L 740.764924 282.271784 
L 733.788574 283.058856 
L 726.812224 283.845928 
L 719.835873 284.633001 
L 712.859523 285.420073 
L 705.883173 286.207145 
L 698.906823 286.994217 
L 691.930472 287.78129 
L 684.954122 288.568362 
L 677.977772 289.355434 
L 671.001422 290.142506 
L 664.025071 290.929579 
L 657.048721 291.716651 
L 650.072371 292.503723 
L 643.096021 293.291651 
L 636.11967 294.080078 
L 629.14332 294.868504 
L 622.16697 295.65693 
L 615.19062 296.445356 
L 608.214269 297.233783 
L 601.237919 298.022209 
L 594.261569 298.806424 
L 587.285219 299.559331 
L 580.308869 300.312238 
L 573.332518 301.065146 
L 566.356168 301.818053 
L 559.379818 302.609567 
L 552.403468 303.43024 
L 545.427117 304.250912 
L 538.450767 305.039283 
L 531.474417 305.804621 
L 524.498067 306.569959 
L 517.521716 307.33653 
L 510.545366 308.104048 
L 503.569016 308.871566 
L 496.592666 309.640941 
L 489.616315 310.404641 
L 482.639965 311.259043 
L 475.663615 312.117076 
L 468.687265 312.975109 
L 461.710914 313.740386 
L 454.734564 314.503984 
L 447.758214 315.267582 
L 440.781864 316.03118 
L 433.805513 316.794778 
L 426.829163 317.558376 
L 419.852813 318.313064 
L 412.876463 319.040831 
L 405.900112 319.768599 
L 398.923762 320.496366 
L 391.947412 321.225425 
L 384.971062 322.043668 
L 377.994711 322.808894 
L 371.018361 323.670252 
L 364.042011 324.382259 
L 357.065661 325.094748 
L 350.08931 325.876138 
L 343.11296 326.70882 
L 336.13661 327.488697 
L 329.16026 328.253608 
L 322.183909 329.018075 
L 315.207559 329.758057 
L 308.231209 330.501661 
L 301.254859 331.221992 
L 294.278509 332.019525 
L 287.302158 332.722399 
L 280.325808 333.498766 
L 273.349458 334.160668 
L 266.373108 334.925788 
L 259.396757 335.570137 
L 252.420407 336.22779 
L 245.444057 336.877411 
L 238.467707 337.505798 
L 231.491356 338.072816 
L 224.515006 338.623619 
L 217.538656 339.13622 
L 210.562306 339.511895 
L 203.585955 339.842145 
L 196.609605 340.140713 
L 189.633255 340.420863 
L 182.656905 340.601378 
L 175.680554 340.80821 
L 168.704204 340.962877 
L 161.727854 341.137651 
L 154.751504 341.275748 
L 147.775153 341.382838 
L 140.798803 341.47908 
L 133.822453 341.618821 
L 126.846103 341.750186 
L 119.869752 341.881289 
L 112.893402 342.012053 
L 105.917052 342.143831 
L 98.940702 342.205264 
L 91.964351 342.319383 
L 84.988001 342.369916 
L 78.011651 342.419713 
L 71.035301 342.46972 
L 64.05895 342.539042 
L 57.0826 342.60651 
L 50.10625 342.680148 
z
" style="fill:#2ca02c;fill-opacity:0.15;"/>
   </g>
   <g id="line2d_27">
    <path clip-path="url(#p35897dedb7)" d="M 50.10625 364.488293 
L 57.0826 361.598613 
L 64.05895 358.708933 
L 71.035301 355.819253 
L 78.011651 352.929573 
L 84.988001 350.039893 
L 91.964351 347.150213 
L 98.940702 344.260534 
L 105.917052 341.370854 
L 112.893402 338.481174 
L 119.869752 335.591494 
L 126.846103 332.701814 
L 133.822453 329.812134 
L 140.798803 326.922454 
L 147.775153 324.032775 
L 154.751504 321.143095 
L 161.727854 318.253415 
L 168.704204 315.363735 
L 175.680554 312.474055 
L 182.656905 309.584375 
L 189.633255 306.694695 
L 196.609605 303.805016 
L 203.585955 300.915336 
L 210.562306 298.025656 
L 217.538656 295.135976 
L 224.515006 292.246296 
L 231.491356 289.356616 
L 238.467707 286.466936 
L 245.444057 283.577257 
L 252.420407 280.687577 
L 259.396757 277.797897 
L 266.373108 274.908217 
L 273.349458 272.018537 
L 280.325808 269.128857 
L 287.302158 266.239177 
L 294.278509 263.349498 
L 301.254859 260.459818 
L 308.231209 257.570138 
L 315.207559 254.680458 
L 322.183909 251.790778 
L 329.16026 248.901098 
L 336.13661 246.011418 
L 343.11296 243.121739 
L 350.08931 240.232059 
L 357.065661 237.342379 
L 364.042011 234.452699 
L 371.018361 231.563019 
L 377.994711 228.673339 
L 384.971062 225.783659 
L 391.947412 222.89398 
L 398.923762 220.0043 
L 405.900112 217.11462 
L 412.876463 214.22494 
L 419.852813 211.33526 
L 426.829163 208.44558 
L 433.805513 205.5559 
L 440.781864 202.666221 
L 447.758214 199.776541 
L 454.734564 196.886861 
L 461.710914 193.997181 
L 468.687265 191.107501 
L 475.663615 188.217821 
L 482.639965 185.328141 
L 489.616315 182.438462 
L 496.592666 179.548782 
L 503.569016 176.659102 
L 510.545366 173.769422 
L 517.521716 170.879742 
L 524.498067 167.990062 
L 531.474417 165.100382 
L 538.450767 162.210703 
L 545.427117 159.321023 
L 552.403468 156.431343 
L 559.379818 153.541663 
L 566.356168 150.651983 
L 573.332518 147.762303 
L 580.308869 144.872623 
L 587.285219 141.982944 
L 594.261569 139.093264 
L 601.237919 136.203584 
L 608.214269 133.313904 
L 615.19062 130.424224 
L 622.16697 127.534544 
L 629.14332 124.644864 
L 636.11967 121.755185 
L 643.096021 118.865505 
L 650.072371 115.975825 
L 657.048721 113.086145 
L 664.025071 110.196465 
L 671.001422 107.306785 
L 677.977772 104.417105 
L 684.954122 101.527426 
L 691.930472 98.637746 
L 698.906823 95.748066 
L 705.883173 92.858386 
L 712.859523 89.968706 
L 719.835873 87.079026 
L 726.812224 84.189346 
L 733.788574 81.299667 
L 740.764924 78.409987 
" style="fill:none;stroke:#1f77b4;stroke-linecap:round;stroke-width:2.25;"/>
   </g>
   <g id="line2d_28">
    <path clip-path="url(#p35897dedb7)" d="M 50.10625 362.871582 
L 57.0826 360.958181 
L 64.05895 359.044781 
L 71.035301 357.13138 
L 78.011651 355.217979 
L 84.988001 353.304579 
L 91.964351 351.391178 
L 98.940702 349.477777 
L 105.917052 347.564377 
L 112.893402 345.650976 
L 119.869752 343.737575 
L 126.846103 341.824175 
L 133.822453 339.910774 
L 140.798803 337.997373 
L 147.775153 336.083972 
L 154.751504 334.170572 
L 161.727854 332.257171 
L 168.704204 330.34377 
L 175.680554 328.43037 
L 182.656905 326.516969 
L 189.633255 324.603568 
L 196.609605 322.690168 
L 203.585955 320.776767 
L 210.562306 318.863366 
L 217.538656 316.949966 
L 224.515006 315.036565 
L 231.491356 313.123164 
L 238.467707 311.209763 
L 245.444057 309.296363 
L 252.420407 307.382962 
L 259.396757 305.469561 
L 266.373108 303.556161 
L 273.349458 301.64276 
L 280.325808 299.729359 
L 287.302158 297.815959 
L 294.278509 295.902558 
L 301.254859 293.989157 
L 308.231209 292.075757 
L 315.207559 290.162356 
L 322.183909 288.248955 
L 329.16026 286.335554 
L 336.13661 284.422154 
L 343.11296 282.508753 
L 350.08931 280.595352 
L 357.065661 278.681952 
L 364.042011 276.768551 
L 371.018361 274.85515 
L 377.994711 272.94175 
L 384.971062 271.028349 
L 391.947412 269.114948 
L 398.923762 267.201548 
L 405.900112 265.288147 
L 412.876463 263.374746 
L 419.852813 261.461345 
L 426.829163 259.547945 
L 433.805513 257.634544 
L 440.781864 255.721143 
L 447.758214 253.807743 
L 454.734564 251.894342 
L 461.710914 249.980941 
L 468.687265 248.067541 
L 475.663615 246.15414 
L 482.639965 244.240739 
L 489.616315 242.327338 
L 496.592666 240.413938 
L 503.569016 238.500537 
L 510.545366 236.587136 
L 517.521716 234.673736 
L 524.498067 232.760335 
L 531.474417 230.846934 
L 538.450767 228.933534 
L 545.427117 227.020133 
L 552.403468 225.106732 
L 559.379818 223.193332 
L 566.356168 221.279931 
L 573.332518 219.36653 
L 580.308869 217.453129 
L 587.285219 215.539729 
L 594.261569 213.626328 
L 601.237919 211.712927 
L 608.214269 209.799527 
L 615.19062 207.886126 
L 622.16697 205.972725 
L 629.14332 204.059325 
L 636.11967 202.145924 
L 643.096021 200.232523 
L 650.072371 198.319123 
L 657.048721 196.405722 
L 664.025071 194.492321 
L 671.001422 192.57892 
L 677.977772 190.66552 
L 684.954122 188.752119 
L 691.930472 186.838718 
L 698.906823 184.925318 
L 705.883173 183.011917 
L 712.859523 181.098516 
L 719.835873 179.185116 
L 726.812224 177.271715 
L 733.788574 175.358314 
L 740.764924 173.444914 
" style="fill:none;stroke:#ff7f0e;stroke-linecap:round;stroke-width:2.25;"/>
   </g>
   <g id="line2d_29">
    <path clip-path="url(#p35897dedb7)" d="M 50.10625 351.893605 
L 57.0826 351.455107 
L 64.05895 351.016609 
L 71.035301 350.57811 
L 78.011651 350.139612 
L 84.988001 349.701114 
L 91.964351 349.262615 
L 98.940702 348.824117 
L 105.917052 348.385618 
L 112.893402 347.94712 
L 119.869752 347.508622 
L 126.846103 347.070123 
L 133.822453 346.631625 
L 140.798803 346.193127 
L 147.775153 345.754628 
L 154.751504 345.31613 
L 161.727854 344.877632 
L 168.704204 344.439133 
L 175.680554 344.000635 
L 182.656905 343.562136 
L 189.633255 343.123638 
L 196.609605 342.68514 
L 203.585955 342.246641 
L 210.562306 341.808143 
L 217.538656 341.369645 
L 224.515006 340.931146 
L 231.491356 340.492648 
L 238.467707 340.05415 
L 245.444057 339.615651 
L 252.420407 339.177153 
L 259.396757 338.738654 
L 266.373108 338.300156 
L 273.349458 337.861658 
L 280.325808 337.423159 
L 287.302158 336.984661 
L 294.278509 336.546163 
L 301.254859 336.107664 
L 308.231209 335.669166 
L 315.207559 335.230668 
L 322.183909 334.792169 
L 329.16026 334.353671 
L 336.13661 333.915172 
L 343.11296 333.476674 
L 350.08931 333.038176 
L 357.065661 332.599677 
L 364.042011 332.161179 
L 371.018361 331.722681 
L 377.994711 331.284182 
L 384.971062 330.845684 
L 391.947412 330.407186 
L 398.923762 329.968687 
L 405.900112 329.530189 
L 412.876463 329.09169 
L 419.852813 328.653192 
L 426.829163 328.214694 
L 433.805513 327.776195 
L 440.781864 327.337697 
L 447.758214 326.899199 
L 454.734564 326.4607 
L 461.710914 326.022202 
L 468.687265 325.583704 
L 475.663615 325.145205 
L 482.639965 324.706707 
L 489.616315 324.268208 
L 496.592666 323.82971 
L 503.569016 323.391212 
L 510.545366 322.952713 
L 517.521716 322.514215 
L 524.498067 322.075717 
L 531.474417 321.637218 
L 538.450767 321.19872 
L 545.427117 320.760222 
L 552.403468 320.321723 
L 559.379818 319.883225 
L 566.356168 319.444726 
L 573.332518 319.006228 
L 580.308869 318.56773 
L 587.285219 318.129231 
L 594.261569 317.690733 
L 601.237919 317.252235 
L 608.214269 316.813736 
L 615.19062 316.375238 
L 622.16697 315.93674 
L 629.14332 315.498241 
L 636.11967 315.059743 
L 643.096021 314.621244 
L 650.072371 314.182746 
L 657.048721 313.744248 
L 664.025071 313.305749 
L 671.001422 312.867251 
L 677.977772 312.428753 
L 684.954122 311.990254 
L 691.930472 311.551756 
L 698.906823 311.113257 
L 705.883173 310.674759 
L 712.859523 310.236261 
L 719.835873 309.797762 
L 726.812224 309.359264 
L 733.788574 308.920766 
L 740.764924 308.482267 
" style="fill:none;stroke:#2ca02c;stroke-linecap:round;stroke-width:2.25;"/>
   </g>
   <g id="patch_3">
    <path d="M 50.10625 389.83875 
L 50.10625 7.2 
" style="fill:none;"/>
   </g>
   <g id="patch_4">
    <path d="M 50.10625 389.83875 
L 740.764924 389.83875 
" style="fill:none;"/>
   </g>
  </g>
  <g id="legend_1">
   <g id="text_16">
    <!-- Net -->
    <defs>
     <path d="M 9.8125 72.90625 
L 23.09375 72.90625 
L 55.421875 11.921875 
L 55.421875 72.90625 
L 64.984375 72.90625 
L 64.984375 0 
L 51.703125 0 
L 19.390625 60.984375 
L 19.390625 0 
L 9.8125 0 
z
" id="DejaVuSans-4e"/>
    </defs>
    <g style="fill:#262626;" transform="translate(760.121424 192.82875)scale(0.1 -0.1)">
     <use xlink:href="#DejaVuSans-4e"/>
     <use x="74.804688" xlink:href="#DejaVuSans-65"/>
     <use x="136.328125" xlink:href="#DejaVuSans-74"/>
    </g>
   </g>
   <g id="PathCollection_4">
    <g>
     <use style="fill:#1f77b4;fill-opacity:0.8;stroke:#1f77b4;stroke-opacity:0.8;" x="759.913612" xlink:href="#md32a007430" y="204.881875"/>
    </g>
   </g>
   <g id="text_17">
    <!-- -1 -->
    <defs>
     <path d="M 4.890625 31.390625 
L 31.203125 31.390625 
L 31.203125 23.390625 
L 4.890625 23.390625 
z
" id="DejaVuSans-2d"/>
    </defs>
    <g style="fill:#262626;" transform="translate(777.913612 207.506875)scale(0.1 -0.1)">
     <use xlink:href="#DejaVuSans-2d"/>
     <use x="36.083984" xlink:href="#DejaVuSans-31"/>
    </g>
   </g>
   <g id="PathCollection_5">
    <g>
     <use style="fill:#ff7f0e;fill-opacity:0.8;stroke:#ff7f0e;stroke-opacity:0.8;" x="759.913612" xlink:href="#m6028473613" y="219.56"/>
    </g>
   </g>
   <g id="text_18">
    <!-- 0 -->
    <g style="fill:#262626;" transform="translate(777.913612 222.185)scale(0.1 -0.1)">
     <use xlink:href="#DejaVuSans-30"/>
    </g>
   </g>
   <g id="PathCollection_6">
    <g>
     <use style="fill:#2ca02c;fill-opacity:0.8;stroke:#2ca02c;stroke-opacity:0.8;" x="759.913612" xlink:href="#mb0b9c709ec" y="234.238125"/>
    </g>
   </g>
   <g id="text_19">
    <!-- 1 -->
    <g style="fill:#262626;" transform="translate(777.913612 236.863125)scale(0.1 -0.1)">
     <use xlink:href="#DejaVuSans-31"/>
    </g>
   </g>
  </g>
 </g>
 <defs>
  <clipPath id="p35897dedb7">
   <rect height="382.63875" width="690.658674" x="50.10625" y="7.2"/>
  </clipPath>
 </defs>
</svg>
