<?xml version="1.0" encoding="utf-8" standalone="no"?>
<!DOCTYPE svg PUBLIC "-//W3C//DTD SVG 1.1//EN"
  "http://www.w3.org/Graphics/SVG/1.1/DTD/svg11.dtd">
<!-- Created with matplotlib (http://matplotlib.org/) -->
<svg height="424pt" version="1.1" viewBox="0 0 796 424" width="796pt" xmlns="http://www.w3.org/2000/svg" xmlns:xlink="http://www.w3.org/1999/xlink">
 <defs>
  <style type="text/css">
*{stroke-linecap:butt;stroke-linejoin:round;}
  </style>
 </defs>
 <g id="figure_1">
  <g id="patch_1">
   <path d="M -0 424.173125 
L 796.883924 424.173125 
L 796.883924 0 
L -0 0 
z
" style="fill:#ffffff;"/>
  </g>
  <g id="axes_1">
   <g id="patch_2">
    <path d="M 50.10625 389.83875 
L 740.764924 389.83875 
L 740.764924 7.2 
L 50.10625 7.2 
z
" style="fill:#eaeaf2;"/>
   </g>
   <g id="matplotlib.axis_1">
    <g id="xtick_1">
     <g id="line2d_1">
      <path clip-path="url(#p130d738283)" d="M 109.981663 389.83875 
L 109.981663 7.2 
" style="fill:none;stroke:#ffffff;stroke-linecap:round;stroke-width:0.8;"/>
     </g>
     <g id="line2d_2"/>
     <g id="text_1">
      <!-- 0 -->
      <defs>
       <path d="M 31.78125 66.40625 
Q 24.171875 66.40625 20.328125 58.90625 
Q 16.5 51.421875 16.5 36.375 
Q 16.5 21.390625 20.328125 13.890625 
Q 24.171875 6.390625 31.78125 6.390625 
Q 39.453125 6.390625 43.28125 13.890625 
Q 47.125 21.390625 47.125 36.375 
Q 47.125 51.421875 43.28125 58.90625 
Q 39.453125 66.40625 31.78125 66.40625 
z
M 31.78125 74.21875 
Q 44.046875 74.21875 50.515625 64.515625 
Q 56.984375 54.828125 56.984375 36.375 
Q 56.984375 17.96875 50.515625 8.265625 
Q 44.046875 -1.421875 31.78125 -1.421875 
Q 19.53125 -1.421875 13.0625 8.265625 
Q 6.59375 17.96875 6.59375 36.375 
Q 6.59375 54.828125 13.0625 64.515625 
Q 19.53125 74.21875 31.78125 74.21875 
z
" id="DejaVuSans-30"/>
      </defs>
      <g style="fill:#262626;" transform="translate(106.800413 400.937187)scale(0.1 -0.1)">
       <use xlink:href="#DejaVuSans-30"/>
      </g>
     </g>
    </g>
    <g id="xtick_2">
     <g id="line2d_3">
      <path clip-path="url(#p130d738283)" d="M 256.000995 389.83875 
L 256.000995 7.2 
" style="fill:none;stroke:#ffffff;stroke-linecap:round;stroke-width:0.8;"/>
     </g>
     <g id="line2d_4"/>
     <g id="text_2">
      <!-- 200 -->
      <defs>
       <path d="M 19.1875 8.296875 
L 53.609375 8.296875 
L 53.609375 0 
L 7.328125 0 
L 7.328125 8.296875 
Q 12.9375 14.109375 22.625 23.890625 
Q 32.328125 33.6875 34.8125 36.53125 
Q 39.546875 41.84375 41.421875 45.53125 
Q 43.3125 49.21875 43.3125 52.78125 
Q 43.3125 58.59375 39.234375 62.25 
Q 35.15625 65.921875 28.609375 65.921875 
Q 23.96875 65.921875 18.8125 64.3125 
Q 13.671875 62.703125 7.8125 59.421875 
L 7.8125 69.390625 
Q 13.765625 71.78125 18.9375 73 
Q 24.125 74.21875 28.421875 74.21875 
Q 39.75 74.21875 46.484375 68.546875 
Q 53.21875 62.890625 53.21875 53.421875 
Q 53.21875 48.921875 51.53125 44.890625 
Q 49.859375 40.875 45.40625 35.40625 
Q 44.1875 33.984375 37.640625 27.21875 
Q 31.109375 20.453125 19.1875 8.296875 
z
" id="DejaVuSans-32"/>
      </defs>
      <g style="fill:#262626;" transform="translate(246.457245 400.937187)scale(0.1 -0.1)">
       <use xlink:href="#DejaVuSans-32"/>
       <use x="63.623047" xlink:href="#DejaVuSans-30"/>
       <use x="127.246094" xlink:href="#DejaVuSans-30"/>
      </g>
     </g>
    </g>
    <g id="xtick_3">
     <g id="line2d_5">
      <path clip-path="url(#p130d738283)" d="M 402.020327 389.83875 
L 402.020327 7.2 
" style="fill:none;stroke:#ffffff;stroke-linecap:round;stroke-width:0.8;"/>
     </g>
     <g id="line2d_6"/>
     <g id="text_3">
      <!-- 400 -->
      <defs>
       <path d="M 37.796875 64.3125 
L 12.890625 25.390625 
L 37.796875 25.390625 
z
M 35.203125 72.90625 
L 47.609375 72.90625 
L 47.609375 25.390625 
L 58.015625 25.390625 
L 58.015625 17.1875 
L 47.609375 17.1875 
L 47.609375 0 
L 37.796875 0 
L 37.796875 17.1875 
L 4.890625 17.1875 
L 4.890625 26.703125 
z
" id="DejaVuSans-34"/>
      </defs>
      <g style="fill:#262626;" transform="translate(392.476577 400.937187)scale(0.1 -0.1)">
       <use xlink:href="#DejaVuSans-34"/>
       <use x="63.623047" xlink:href="#DejaVuSans-30"/>
       <use x="127.246094" xlink:href="#DejaVuSans-30"/>
      </g>
     </g>
    </g>
    <g id="xtick_4">
     <g id="line2d_7">
      <path clip-path="url(#p130d738283)" d="M 548.039659 389.83875 
L 548.039659 7.2 
" style="fill:none;stroke:#ffffff;stroke-linecap:round;stroke-width:0.8;"/>
     </g>
     <g id="line2d_8"/>
     <g id="text_4">
      <!-- 600 -->
      <defs>
       <path d="M 33.015625 40.375 
Q 26.375 40.375 22.484375 35.828125 
Q 18.609375 31.296875 18.609375 23.390625 
Q 18.609375 15.53125 22.484375 10.953125 
Q 26.375 6.390625 33.015625 6.390625 
Q 39.65625 6.390625 43.53125 10.953125 
Q 47.40625 15.53125 47.40625 23.390625 
Q 47.40625 31.296875 43.53125 35.828125 
Q 39.65625 40.375 33.015625 40.375 
z
M 52.59375 71.296875 
L 52.59375 62.3125 
Q 48.875 64.0625 45.09375 64.984375 
Q 41.3125 65.921875 37.59375 65.921875 
Q 27.828125 65.921875 22.671875 59.328125 
Q 17.53125 52.734375 16.796875 39.40625 
Q 19.671875 43.65625 24.015625 45.921875 
Q 28.375 48.1875 33.59375 48.1875 
Q 44.578125 48.1875 50.953125 41.515625 
Q 57.328125 34.859375 57.328125 23.390625 
Q 57.328125 12.15625 50.6875 5.359375 
Q 44.046875 -1.421875 33.015625 -1.421875 
Q 20.359375 -1.421875 13.671875 8.265625 
Q 6.984375 17.96875 6.984375 36.375 
Q 6.984375 53.65625 15.1875 63.9375 
Q 23.390625 74.21875 37.203125 74.21875 
Q 40.921875 74.21875 44.703125 73.484375 
Q 48.484375 72.75 52.59375 71.296875 
z
" id="DejaVuSans-36"/>
      </defs>
      <g style="fill:#262626;" transform="translate(538.495909 400.937187)scale(0.1 -0.1)">
       <use xlink:href="#DejaVuSans-36"/>
       <use x="63.623047" xlink:href="#DejaVuSans-30"/>
       <use x="127.246094" xlink:href="#DejaVuSans-30"/>
      </g>
     </g>
    </g>
    <g id="xtick_5">
     <g id="line2d_9">
      <path clip-path="url(#p130d738283)" d="M 694.058991 389.83875 
L 694.058991 7.2 
" style="fill:none;stroke:#ffffff;stroke-linecap:round;stroke-width:0.8;"/>
     </g>
     <g id="line2d_10"/>
     <g id="text_5">
      <!-- 800 -->
      <defs>
       <path d="M 31.78125 34.625 
Q 24.75 34.625 20.71875 30.859375 
Q 16.703125 27.09375 16.703125 20.515625 
Q 16.703125 13.921875 20.71875 10.15625 
Q 24.75 6.390625 31.78125 6.390625 
Q 38.8125 6.390625 42.859375 10.171875 
Q 46.921875 13.96875 46.921875 20.515625 
Q 46.921875 27.09375 42.890625 30.859375 
Q 38.875 34.625 31.78125 34.625 
z
M 21.921875 38.8125 
Q 15.578125 40.375 12.03125 44.71875 
Q 8.5 49.078125 8.5 55.328125 
Q 8.5 64.0625 14.71875 69.140625 
Q 20.953125 74.21875 31.78125 74.21875 
Q 42.671875 74.21875 48.875 69.140625 
Q 55.078125 64.0625 55.078125 55.328125 
Q 55.078125 49.078125 51.53125 44.71875 
Q 48 40.375 41.703125 38.8125 
Q 48.828125 37.15625 52.796875 32.3125 
Q 56.78125 27.484375 56.78125 20.515625 
Q 56.78125 9.90625 50.3125 4.234375 
Q 43.84375 -1.421875 31.78125 -1.421875 
Q 19.734375 -1.421875 13.25 4.234375 
Q 6.78125 9.90625 6.78125 20.515625 
Q 6.78125 27.484375 10.78125 32.3125 
Q 14.796875 37.15625 21.921875 38.8125 
z
M 18.3125 54.390625 
Q 18.3125 48.734375 21.84375 45.5625 
Q 25.390625 42.390625 31.78125 42.390625 
Q 38.140625 42.390625 41.71875 45.5625 
Q 45.3125 48.734375 45.3125 54.390625 
Q 45.3125 60.0625 41.71875 63.234375 
Q 38.140625 66.40625 31.78125 66.40625 
Q 25.390625 66.40625 21.84375 63.234375 
Q 18.3125 60.0625 18.3125 54.390625 
z
" id="DejaVuSans-38"/>
      </defs>
      <g style="fill:#262626;" transform="translate(684.515241 400.937187)scale(0.1 -0.1)">
       <use xlink:href="#DejaVuSans-38"/>
       <use x="63.623047" xlink:href="#DejaVuSans-30"/>
       <use x="127.246094" xlink:href="#DejaVuSans-30"/>
      </g>
     </g>
    </g>
    <g id="text_6">
     <!-- Sum_Credit -->
     <defs>
      <path d="M 53.515625 70.515625 
L 53.515625 60.890625 
Q 47.90625 63.578125 42.921875 64.890625 
Q 37.9375 66.21875 33.296875 66.21875 
Q 25.25 66.21875 20.875 63.09375 
Q 16.5 59.96875 16.5 54.203125 
Q 16.5 49.359375 19.40625 46.890625 
Q 22.3125 44.4375 30.421875 42.921875 
L 36.375 41.703125 
Q 47.40625 39.59375 52.65625 34.296875 
Q 57.90625 29 57.90625 20.125 
Q 57.90625 9.515625 50.796875 4.046875 
Q 43.703125 -1.421875 29.984375 -1.421875 
Q 24.8125 -1.421875 18.96875 -0.25 
Q 13.140625 0.921875 6.890625 3.21875 
L 6.890625 13.375 
Q 12.890625 10.015625 18.65625 8.296875 
Q 24.421875 6.59375 29.984375 6.59375 
Q 38.421875 6.59375 43.015625 9.90625 
Q 47.609375 13.234375 47.609375 19.390625 
Q 47.609375 24.75 44.3125 27.78125 
Q 41.015625 30.8125 33.5 32.328125 
L 27.484375 33.5 
Q 16.453125 35.6875 11.515625 40.375 
Q 6.59375 45.0625 6.59375 53.421875 
Q 6.59375 63.09375 13.40625 68.65625 
Q 20.21875 74.21875 32.171875 74.21875 
Q 37.3125 74.21875 42.625 73.28125 
Q 47.953125 72.359375 53.515625 70.515625 
z
" id="DejaVuSans-53"/>
      <path d="M 8.5 21.578125 
L 8.5 54.6875 
L 17.484375 54.6875 
L 17.484375 21.921875 
Q 17.484375 14.15625 20.5 10.265625 
Q 23.53125 6.390625 29.59375 6.390625 
Q 36.859375 6.390625 41.078125 11.03125 
Q 45.3125 15.671875 45.3125 23.6875 
L 45.3125 54.6875 
L 54.296875 54.6875 
L 54.296875 0 
L 45.3125 0 
L 45.3125 8.40625 
Q 42.046875 3.421875 37.71875 1 
Q 33.40625 -1.421875 27.6875 -1.421875 
Q 18.265625 -1.421875 13.375 4.4375 
Q 8.5 10.296875 8.5 21.578125 
z
M 31.109375 56 
z
" id="DejaVuSans-75"/>
      <path d="M 52 44.1875 
Q 55.375 50.25 60.0625 53.125 
Q 64.75 56 71.09375 56 
Q 79.640625 56 84.28125 50.015625 
Q 88.921875 44.046875 88.921875 33.015625 
L 88.921875 0 
L 79.890625 0 
L 79.890625 32.71875 
Q 79.890625 40.578125 77.09375 44.375 
Q 74.3125 48.1875 68.609375 48.1875 
Q 61.625 48.1875 57.5625 43.546875 
Q 53.515625 38.921875 53.515625 30.90625 
L 53.515625 0 
L 44.484375 0 
L 44.484375 32.71875 
Q 44.484375 40.625 41.703125 44.40625 
Q 38.921875 48.1875 33.109375 48.1875 
Q 26.21875 48.1875 22.15625 43.53125 
Q 18.109375 38.875 18.109375 30.90625 
L 18.109375 0 
L 9.078125 0 
L 9.078125 54.6875 
L 18.109375 54.6875 
L 18.109375 46.1875 
Q 21.1875 51.21875 25.484375 53.609375 
Q 29.78125 56 35.6875 56 
Q 41.65625 56 45.828125 52.96875 
Q 50 49.953125 52 44.1875 
z
" id="DejaVuSans-6d"/>
      <path d="M 50.984375 -16.609375 
L 50.984375 -23.578125 
L -0.984375 -23.578125 
L -0.984375 -16.609375 
z
" id="DejaVuSans-5f"/>
      <path d="M 64.40625 67.28125 
L 64.40625 56.890625 
Q 59.421875 61.53125 53.78125 63.8125 
Q 48.140625 66.109375 41.796875 66.109375 
Q 29.296875 66.109375 22.65625 58.46875 
Q 16.015625 50.828125 16.015625 36.375 
Q 16.015625 21.96875 22.65625 14.328125 
Q 29.296875 6.6875 41.796875 6.6875 
Q 48.140625 6.6875 53.78125 8.984375 
Q 59.421875 11.28125 64.40625 15.921875 
L 64.40625 5.609375 
Q 59.234375 2.09375 53.4375 0.328125 
Q 47.65625 -1.421875 41.21875 -1.421875 
Q 24.65625 -1.421875 15.125 8.703125 
Q 5.609375 18.84375 5.609375 36.375 
Q 5.609375 53.953125 15.125 64.078125 
Q 24.65625 74.21875 41.21875 74.21875 
Q 47.75 74.21875 53.53125 72.484375 
Q 59.328125 70.75 64.40625 67.28125 
z
" id="DejaVuSans-43"/>
      <path d="M 41.109375 46.296875 
Q 39.59375 47.171875 37.8125 47.578125 
Q 36.03125 48 33.890625 48 
Q 26.265625 48 22.1875 43.046875 
Q 18.109375 38.09375 18.109375 28.8125 
L 18.109375 0 
L 9.078125 0 
L 9.078125 54.6875 
L 18.109375 54.6875 
L 18.109375 46.1875 
Q 20.953125 51.171875 25.484375 53.578125 
Q 30.03125 56 36.53125 56 
Q 37.453125 56 38.578125 55.875 
Q 39.703125 55.765625 41.0625 55.515625 
z
" id="DejaVuSans-72"/>
      <path d="M 56.203125 29.59375 
L 56.203125 25.203125 
L 14.890625 25.203125 
Q 15.484375 15.921875 20.484375 11.0625 
Q 25.484375 6.203125 34.421875 6.203125 
Q 39.59375 6.203125 44.453125 7.46875 
Q 49.3125 8.734375 54.109375 11.28125 
L 54.109375 2.78125 
Q 49.265625 0.734375 44.1875 -0.34375 
Q 39.109375 -1.421875 33.890625 -1.421875 
Q 20.796875 -1.421875 13.15625 6.1875 
Q 5.515625 13.8125 5.515625 26.8125 
Q 5.515625 40.234375 12.765625 48.109375 
Q 20.015625 56 32.328125 56 
Q 43.359375 56 49.78125 48.890625 
Q 56.203125 41.796875 56.203125 29.59375 
z
M 47.21875 32.234375 
Q 47.125 39.59375 43.09375 43.984375 
Q 39.0625 48.390625 32.421875 48.390625 
Q 24.90625 48.390625 20.390625 44.140625 
Q 15.875 39.890625 15.1875 32.171875 
z
" id="DejaVuSans-65"/>
      <path d="M 45.40625 46.390625 
L 45.40625 75.984375 
L 54.390625 75.984375 
L 54.390625 0 
L 45.40625 0 
L 45.40625 8.203125 
Q 42.578125 3.328125 38.25 0.953125 
Q 33.9375 -1.421875 27.875 -1.421875 
Q 17.96875 -1.421875 11.734375 6.484375 
Q 5.515625 14.40625 5.515625 27.296875 
Q 5.515625 40.1875 11.734375 48.09375 
Q 17.96875 56 27.875 56 
Q 33.9375 56 38.25 53.625 
Q 42.578125 51.265625 45.40625 46.390625 
z
M 14.796875 27.296875 
Q 14.796875 17.390625 18.875 11.75 
Q 22.953125 6.109375 30.078125 6.109375 
Q 37.203125 6.109375 41.296875 11.75 
Q 45.40625 17.390625 45.40625 27.296875 
Q 45.40625 37.203125 41.296875 42.84375 
Q 37.203125 48.484375 30.078125 48.484375 
Q 22.953125 48.484375 18.875 42.84375 
Q 14.796875 37.203125 14.796875 27.296875 
z
" id="DejaVuSans-64"/>
      <path d="M 9.421875 54.6875 
L 18.40625 54.6875 
L 18.40625 0 
L 9.421875 0 
z
M 9.421875 75.984375 
L 18.40625 75.984375 
L 18.40625 64.59375 
L 9.421875 64.59375 
z
" id="DejaVuSans-69"/>
      <path d="M 18.3125 70.21875 
L 18.3125 54.6875 
L 36.8125 54.6875 
L 36.8125 47.703125 
L 18.3125 47.703125 
L 18.3125 18.015625 
Q 18.3125 11.328125 20.140625 9.421875 
Q 21.96875 7.515625 27.59375 7.515625 
L 36.8125 7.515625 
L 36.8125 0 
L 27.59375 0 
Q 17.1875 0 13.234375 3.875 
Q 9.28125 7.765625 9.28125 18.015625 
L 9.28125 47.703125 
L 2.6875 47.703125 
L 2.6875 54.6875 
L 9.28125 54.6875 
L 9.28125 70.21875 
z
" id="DejaVuSans-74"/>
     </defs>
     <g style="fill:#262626;" transform="translate(366.576993 414.615312)scale(0.1 -0.1)">
      <use xlink:href="#DejaVuSans-53"/>
      <use x="63.476562" xlink:href="#DejaVuSans-75"/>
      <use x="126.855469" xlink:href="#DejaVuSans-6d"/>
      <use x="224.267578" xlink:href="#DejaVuSans-5f"/>
      <use x="274.267578" xlink:href="#DejaVuSans-43"/>
      <use x="344.091797" xlink:href="#DejaVuSans-72"/>
      <use x="385.173828" xlink:href="#DejaVuSans-65"/>
      <use x="446.697266" xlink:href="#DejaVuSans-64"/>
      <use x="510.173828" xlink:href="#DejaVuSans-69"/>
      <use x="537.957031" xlink:href="#DejaVuSans-74"/>
     </g>
    </g>
   </g>
   <g id="matplotlib.axis_2">
    <g id="ytick_1">
     <g id="line2d_11">
      <path clip-path="url(#p130d738283)" d="M 50.10625 348.400084 
L 740.764924 348.400084 
" style="fill:none;stroke:#ffffff;stroke-linecap:round;stroke-width:0.8;"/>
     </g>
     <g id="line2d_12"/>
     <g id="text_7">
      <!-- 0 -->
      <g style="fill:#262626;" transform="translate(40.24375 352.199303)scale(0.1 -0.1)">
       <use xlink:href="#DejaVuSans-30"/>
      </g>
     </g>
    </g>
    <g id="ytick_2">
     <g id="line2d_13">
      <path clip-path="url(#p130d738283)" d="M 50.10625 302.369492 
L 740.764924 302.369492 
" style="fill:none;stroke:#ffffff;stroke-linecap:round;stroke-width:0.8;"/>
     </g>
     <g id="line2d_14"/>
     <g id="text_8">
      <!-- 200 -->
      <g style="fill:#262626;" transform="translate(27.51875 306.168711)scale(0.1 -0.1)">
       <use xlink:href="#DejaVuSans-32"/>
       <use x="63.623047" xlink:href="#DejaVuSans-30"/>
       <use x="127.246094" xlink:href="#DejaVuSans-30"/>
      </g>
     </g>
    </g>
    <g id="ytick_3">
     <g id="line2d_15">
      <path clip-path="url(#p130d738283)" d="M 50.10625 256.338901 
L 740.764924 256.338901 
" style="fill:none;stroke:#ffffff;stroke-linecap:round;stroke-width:0.8;"/>
     </g>
     <g id="line2d_16"/>
     <g id="text_9">
      <!-- 400 -->
      <g style="fill:#262626;" transform="translate(27.51875 260.13812)scale(0.1 -0.1)">
       <use xlink:href="#DejaVuSans-34"/>
       <use x="63.623047" xlink:href="#DejaVuSans-30"/>
       <use x="127.246094" xlink:href="#DejaVuSans-30"/>
      </g>
     </g>
    </g>
    <g id="ytick_4">
     <g id="line2d_17">
      <path clip-path="url(#p130d738283)" d="M 50.10625 210.308309 
L 740.764924 210.308309 
" style="fill:none;stroke:#ffffff;stroke-linecap:round;stroke-width:0.8;"/>
     </g>
     <g id="line2d_18"/>
     <g id="text_10">
      <!-- 600 -->
      <g style="fill:#262626;" transform="translate(27.51875 214.107528)scale(0.1 -0.1)">
       <use xlink:href="#DejaVuSans-36"/>
       <use x="63.623047" xlink:href="#DejaVuSans-30"/>
       <use x="127.246094" xlink:href="#DejaVuSans-30"/>
      </g>
     </g>
    </g>
    <g id="ytick_5">
     <g id="line2d_19">
      <path clip-path="url(#p130d738283)" d="M 50.10625 164.277718 
L 740.764924 164.277718 
" style="fill:none;stroke:#ffffff;stroke-linecap:round;stroke-width:0.8;"/>
     </g>
     <g id="line2d_20"/>
     <g id="text_11">
      <!-- 800 -->
      <g style="fill:#262626;" transform="translate(27.51875 168.076936)scale(0.1 -0.1)">
       <use xlink:href="#DejaVuSans-38"/>
       <use x="63.623047" xlink:href="#DejaVuSans-30"/>
       <use x="127.246094" xlink:href="#DejaVuSans-30"/>
      </g>
     </g>
    </g>
    <g id="ytick_6">
     <g id="line2d_21">
      <path clip-path="url(#p130d738283)" d="M 50.10625 118.247126 
L 740.764924 118.247126 
" style="fill:none;stroke:#ffffff;stroke-linecap:round;stroke-width:0.8;"/>
     </g>
     <g id="line2d_22"/>
     <g id="text_12">
      <!-- 1000 -->
      <defs>
       <path d="M 12.40625 8.296875 
L 28.515625 8.296875 
L 28.515625 63.921875 
L 10.984375 60.40625 
L 10.984375 69.390625 
L 28.421875 72.90625 
L 38.28125 72.90625 
L 38.28125 8.296875 
L 54.390625 8.296875 
L 54.390625 0 
L 12.40625 0 
z
" id="DejaVuSans-31"/>
      </defs>
      <g style="fill:#262626;" transform="translate(21.15625 122.046345)scale(0.1 -0.1)">
       <use xlink:href="#DejaVuSans-31"/>
       <use x="63.623047" xlink:href="#DejaVuSans-30"/>
       <use x="127.246094" xlink:href="#DejaVuSans-30"/>
       <use x="190.869141" xlink:href="#DejaVuSans-30"/>
      </g>
     </g>
    </g>
    <g id="ytick_7">
     <g id="line2d_23">
      <path clip-path="url(#p130d738283)" d="M 50.10625 72.216534 
L 740.764924 72.216534 
" style="fill:none;stroke:#ffffff;stroke-linecap:round;stroke-width:0.8;"/>
     </g>
     <g id="line2d_24"/>
     <g id="text_13">
      <!-- 1200 -->
      <g style="fill:#262626;" transform="translate(21.15625 76.015753)scale(0.1 -0.1)">
       <use xlink:href="#DejaVuSans-31"/>
       <use x="63.623047" xlink:href="#DejaVuSans-32"/>
       <use x="127.246094" xlink:href="#DejaVuSans-30"/>
       <use x="190.869141" xlink:href="#DejaVuSans-30"/>
      </g>
     </g>
    </g>
    <g id="ytick_8">
     <g id="line2d_25">
      <path clip-path="url(#p130d738283)" d="M 50.10625 26.185943 
L 740.764924 26.185943 
" style="fill:none;stroke:#ffffff;stroke-linecap:round;stroke-width:0.8;"/>
     </g>
     <g id="line2d_26"/>
     <g id="text_14">
      <!-- 1400 -->
      <g style="fill:#262626;" transform="translate(21.15625 29.985162)scale(0.1 -0.1)">
       <use xlink:href="#DejaVuSans-31"/>
       <use x="63.623047" xlink:href="#DejaVuSans-34"/>
       <use x="127.246094" xlink:href="#DejaVuSans-30"/>
       <use x="190.869141" xlink:href="#DejaVuSans-30"/>
      </g>
     </g>
    </g>
    <g id="text_15">
     <!-- Sum_Debit -->
     <defs>
      <path d="M 19.671875 64.796875 
L 19.671875 8.109375 
L 31.59375 8.109375 
Q 46.6875 8.109375 53.6875 14.9375 
Q 60.6875 21.78125 60.6875 36.53125 
Q 60.6875 51.171875 53.6875 57.984375 
Q 46.6875 64.796875 31.59375 64.796875 
z
M 9.8125 72.90625 
L 30.078125 72.90625 
Q 51.265625 72.90625 61.171875 64.09375 
Q 71.09375 55.28125 71.09375 36.53125 
Q 71.09375 17.671875 61.125 8.828125 
Q 51.171875 0 30.078125 0 
L 9.8125 0 
z
" id="DejaVuSans-44"/>
      <path d="M 48.6875 27.296875 
Q 48.6875 37.203125 44.609375 42.84375 
Q 40.53125 48.484375 33.40625 48.484375 
Q 26.265625 48.484375 22.1875 42.84375 
Q 18.109375 37.203125 18.109375 27.296875 
Q 18.109375 17.390625 22.1875 11.75 
Q 26.265625 6.109375 33.40625 6.109375 
Q 40.53125 6.109375 44.609375 11.75 
Q 48.6875 17.390625 48.6875 27.296875 
z
M 18.109375 46.390625 
Q 20.953125 51.265625 25.265625 53.625 
Q 29.59375 56 35.59375 56 
Q 45.5625 56 51.78125 48.09375 
Q 58.015625 40.1875 58.015625 27.296875 
Q 58.015625 14.40625 51.78125 6.484375 
Q 45.5625 -1.421875 35.59375 -1.421875 
Q 29.59375 -1.421875 25.265625 0.953125 
Q 20.953125 3.328125 18.109375 8.203125 
L 18.109375 0 
L 9.078125 0 
L 9.078125 75.984375 
L 18.109375 75.984375 
z
" id="DejaVuSans-62"/>
     </defs>
     <g style="fill:#262626;" transform="translate(14.798437 225.682656)rotate(-90)scale(0.1 -0.1)">
      <use xlink:href="#DejaVuSans-53"/>
      <use x="63.476562" xlink:href="#DejaVuSans-75"/>
      <use x="126.855469" xlink:href="#DejaVuSans-6d"/>
      <use x="224.267578" xlink:href="#DejaVuSans-5f"/>
      <use x="274.267578" xlink:href="#DejaVuSans-44"/>
      <use x="351.269531" xlink:href="#DejaVuSans-65"/>
      <use x="412.792969" xlink:href="#DejaVuSans-62"/>
      <use x="476.269531" xlink:href="#DejaVuSans-69"/>
      <use x="504.052734" xlink:href="#DejaVuSans-74"/>
     </g>
    </g>
   </g>
   <g id="PathCollection_1">
    <defs>
     <path d="M 0 3 
C 0.795609 3 1.55874 2.683901 2.12132 2.12132 
C 2.683901 1.55874 3 0.795609 3 0 
C 3 -0.795609 2.683901 -1.55874 2.12132 -2.12132 
C 1.55874 -2.683901 0.795609 -3 0 -3 
C -0.795609 -3 -1.55874 -2.683901 -2.12132 -2.12132 
C -2.683901 -1.55874 -3 -0.795609 -3 0 
C -3 0.795609 -2.683901 1.55874 -2.12132 2.12132 
C -1.55874 2.683901 -0.795609 3 0 3 
z
" id="md0707d96fe" style="stroke:#1f77b4;stroke-opacity:0.8;"/>
    </defs>
    <g clip-path="url(#p130d738283)">
     <use style="fill:#1f77b4;fill-opacity:0.8;stroke:#1f77b4;stroke-opacity:0.8;" x="120.335715" xlink:href="#md0707d96fe" y="349.131092"/>
     <use style="fill:#1f77b4;fill-opacity:0.8;stroke:#1f77b4;stroke-opacity:0.8;" x="136.930101" xlink:href="#md0707d96fe" y="347.102506"/>
     <use style="fill:#1f77b4;fill-opacity:0.8;stroke:#1f77b4;stroke-opacity:0.8;" x="136.610799" xlink:href="#md0707d96fe" y="322.009398"/>
     <use style="fill:#1f77b4;fill-opacity:0.8;stroke:#1f77b4;stroke-opacity:0.8;" x="312.763129" xlink:href="#md0707d96fe" y="285.929711"/>
     <use style="fill:#1f77b4;fill-opacity:0.8;stroke:#1f77b4;stroke-opacity:0.8;" x="96.368021" xlink:href="#md0707d96fe" y="347.153865"/>
     <use style="fill:#1f77b4;fill-opacity:0.8;stroke:#1f77b4;stroke-opacity:0.8;" x="94.704369" xlink:href="#md0707d96fe" y="342.83183"/>
     <use style="fill:#1f77b4;fill-opacity:0.8;stroke:#1f77b4;stroke-opacity:0.8;" x="129.430888" xlink:href="#md0707d96fe" y="330.466918"/>
     <use style="fill:#1f77b4;fill-opacity:0.8;stroke:#1f77b4;stroke-opacity:0.8;" x="110.009313" xlink:href="#md0707d96fe" y="350.998427"/>
     <use style="fill:#1f77b4;fill-opacity:0.8;stroke:#1f77b4;stroke-opacity:0.8;" x="160.344667" xlink:href="#md0707d96fe" y="338.135274"/>
     <use style="fill:#1f77b4;fill-opacity:0.8;stroke:#1f77b4;stroke-opacity:0.8;" x="98.66644" xlink:href="#md0707d96fe" y="348.709792"/>
     <use style="fill:#1f77b4;fill-opacity:0.8;stroke:#1f77b4;stroke-opacity:0.8;" x="131.832368" xlink:href="#md0707d96fe" y="338.587463"/>
     <use style="fill:#1f77b4;fill-opacity:0.8;stroke:#1f77b4;stroke-opacity:0.8;" x="124.647934" xlink:href="#md0707d96fe" y="321.452733"/>
     <use style="fill:#1f77b4;fill-opacity:0.8;stroke:#1f77b4;stroke-opacity:0.8;" x="318.838417" xlink:href="#md0707d96fe" y="284.59777"/>
     <use style="fill:#1f77b4;fill-opacity:0.8;stroke:#1f77b4;stroke-opacity:0.8;" x="115.733042" xlink:href="#md0707d96fe" y="351.439946"/>
     <use style="fill:#1f77b4;fill-opacity:0.8;stroke:#1f77b4;stroke-opacity:0.8;" x="119.004307" xlink:href="#md0707d96fe" y="317.837608"/>
     <use style="fill:#1f77b4;fill-opacity:0.8;stroke:#1f77b4;stroke-opacity:0.8;" x="91.154791" xlink:href="#md0707d96fe" y="329.589754"/>
     <use style="fill:#1f77b4;fill-opacity:0.8;stroke:#1f77b4;stroke-opacity:0.8;" x="239.906666" xlink:href="#md0707d96fe" y="264.077537"/>
     <use style="fill:#1f77b4;fill-opacity:0.8;stroke:#1f77b4;stroke-opacity:0.8;" x="261.244344" xlink:href="#md0707d96fe" y="304.869246"/>
     <use style="fill:#1f77b4;fill-opacity:0.8;stroke:#1f77b4;stroke-opacity:0.8;" x="262.256672" xlink:href="#md0707d96fe" y="255.806095"/>
     <use style="fill:#1f77b4;fill-opacity:0.8;stroke:#1f77b4;stroke-opacity:0.8;" x="133.436986" xlink:href="#md0707d96fe" y="278.389452"/>
     <use style="fill:#1f77b4;fill-opacity:0.8;stroke:#1f77b4;stroke-opacity:0.8;" x="94.724981" xlink:href="#md0707d96fe" y="341.223503"/>
     <use style="fill:#1f77b4;fill-opacity:0.8;stroke:#1f77b4;stroke-opacity:0.8;" x="99.861116" xlink:href="#md0707d96fe" y="340.703635"/>
     <use style="fill:#1f77b4;fill-opacity:0.8;stroke:#1f77b4;stroke-opacity:0.8;" x="141.79525" xlink:href="#md0707d96fe" y="346.070364"/>
     <use style="fill:#1f77b4;fill-opacity:0.8;stroke:#1f77b4;stroke-opacity:0.8;" x="192.040059" xlink:href="#md0707d96fe" y="323.108917"/>
     <use style="fill:#1f77b4;fill-opacity:0.8;stroke:#1f77b4;stroke-opacity:0.8;" x="137.873043" xlink:href="#md0707d96fe" y="336.022083"/>
     <use style="fill:#1f77b4;fill-opacity:0.8;stroke:#1f77b4;stroke-opacity:0.8;" x="100.206815" xlink:href="#md0707d96fe" y="328.69619"/>
     <use style="fill:#1f77b4;fill-opacity:0.8;stroke:#1f77b4;stroke-opacity:0.8;" x="95.471246" xlink:href="#md0707d96fe" y="350.215656"/>
     <use style="fill:#1f77b4;fill-opacity:0.8;stroke:#1f77b4;stroke-opacity:0.8;" x="228.672079" xlink:href="#md0707d96fe" y="293.454111"/>
     <use style="fill:#1f77b4;fill-opacity:0.8;stroke:#1f77b4;stroke-opacity:0.8;" x="107.955279" xlink:href="#md0707d96fe" y="353.408485"/>
     <use style="fill:#1f77b4;fill-opacity:0.8;stroke:#1f77b4;stroke-opacity:0.8;" x="115.731361" xlink:href="#md0707d96fe" y="349.154039"/>
     <use style="fill:#1f77b4;fill-opacity:0.8;stroke:#1f77b4;stroke-opacity:0.8;" x="141.600991" xlink:href="#md0707d96fe" y="302.812409"/>
     <use style="fill:#1f77b4;fill-opacity:0.8;stroke:#1f77b4;stroke-opacity:0.8;" x="96.486572" xlink:href="#md0707d96fe" y="267.850599"/>
     <use style="fill:#1f77b4;fill-opacity:0.8;stroke:#1f77b4;stroke-opacity:0.8;" x="271.198871" xlink:href="#md0707d96fe" y="228.441566"/>
     <use style="fill:#1f77b4;fill-opacity:0.8;stroke:#1f77b4;stroke-opacity:0.8;" x="120.064241" xlink:href="#md0707d96fe" y="351.453834"/>
     <use style="fill:#1f77b4;fill-opacity:0.8;stroke:#1f77b4;stroke-opacity:0.8;" x="157.309749" xlink:href="#md0707d96fe" y="331.604476"/>
     <use style="fill:#1f77b4;fill-opacity:0.8;stroke:#1f77b4;stroke-opacity:0.8;" x="160.919962" xlink:href="#md0707d96fe" y="318.39581"/>
     <use style="fill:#1f77b4;fill-opacity:0.8;stroke:#1f77b4;stroke-opacity:0.8;" x="85.39638" xlink:href="#md0707d96fe" y="345.560665"/>
     <use style="fill:#1f77b4;fill-opacity:0.8;stroke:#1f77b4;stroke-opacity:0.8;" x="162.345296" xlink:href="#md0707d96fe" y="293.810758"/>
     <use style="fill:#1f77b4;fill-opacity:0.8;stroke:#1f77b4;stroke-opacity:0.8;" x="195.855087" xlink:href="#md0707d96fe" y="313.458636"/>
     <use style="fill:#1f77b4;fill-opacity:0.8;stroke:#1f77b4;stroke-opacity:0.8;" x="92.074108" xlink:href="#md0707d96fe" y="338.877479"/>
     <use style="fill:#1f77b4;fill-opacity:0.8;stroke:#1f77b4;stroke-opacity:0.8;" x="152.10147" xlink:href="#md0707d96fe" y="324.879751"/>
     <use style="fill:#1f77b4;fill-opacity:0.8;stroke:#1f77b4;stroke-opacity:0.8;" x="123.421343" xlink:href="#md0707d96fe" y="342.744103"/>
     <use style="fill:#1f77b4;fill-opacity:0.8;stroke:#1f77b4;stroke-opacity:0.8;" x="102.593696" xlink:href="#md0707d96fe" y="345.253384"/>
     <use style="fill:#1f77b4;fill-opacity:0.8;stroke:#1f77b4;stroke-opacity:0.8;" x="102.822697" xlink:href="#md0707d96fe" y="353.718378"/>
     <use style="fill:#1f77b4;fill-opacity:0.8;stroke:#1f77b4;stroke-opacity:0.8;" x="83.514028" xlink:href="#md0707d96fe" y="340.376089"/>
     <use style="fill:#1f77b4;fill-opacity:0.8;stroke:#1f77b4;stroke-opacity:0.8;" x="110.691314" xlink:href="#md0707d96fe" y="343.423932"/>
     <use style="fill:#1f77b4;fill-opacity:0.8;stroke:#1f77b4;stroke-opacity:0.8;" x="97.503947" xlink:href="#md0707d96fe" y="338.949135"/>
     <use style="fill:#1f77b4;fill-opacity:0.8;stroke:#1f77b4;stroke-opacity:0.8;" x="86.248601" xlink:href="#md0707d96fe" y="348.678318"/>
     <use style="fill:#1f77b4;fill-opacity:0.8;stroke:#1f77b4;stroke-opacity:0.8;" x="215.759434" xlink:href="#md0707d96fe" y="316.709935"/>
     <use style="fill:#1f77b4;fill-opacity:0.8;stroke:#1f77b4;stroke-opacity:0.8;" x="136.341824" xlink:href="#md0707d96fe" y="338.795851"/>
     <use style="fill:#1f77b4;fill-opacity:0.8;stroke:#1f77b4;stroke-opacity:0.8;" x="123.727275" xlink:href="#md0707d96fe" y="336.031442"/>
    </g>
   </g>
   <g id="PolyCollection_1">
    <path clip-path="url(#p130d738283)" d="M 50.10625 352.050281 
L 50.10625 372.44608 
L 57.0826 369.062934 
L 64.05895 365.784802 
L 71.035301 362.540204 
L 78.011651 359.282142 
L 84.988001 356.020766 
L 91.964351 352.732548 
L 98.940702 349.458271 
L 105.917052 345.953999 
L 112.893402 343.015351 
L 119.869752 340.059281 
L 126.846103 337.285728 
L 133.822453 334.621494 
L 140.798803 331.92804 
L 147.775153 329.347933 
L 154.751504 326.855703 
L 161.727854 324.638171 
L 168.704204 322.420556 
L 175.680554 320.096375 
L 182.656905 317.766589 
L 189.633255 315.728604 
L 196.609605 313.650996 
L 203.585955 311.607736 
L 210.562306 309.386948 
L 217.538656 307.219283 
L 224.515006 305.112151 
L 231.491356 303.006609 
L 238.467707 300.855645 
L 245.444057 298.798464 
L 252.420407 296.785279 
L 259.396757 294.805498 
L 266.373108 292.748747 
L 273.349458 290.730951 
L 280.325808 288.700097 
L 287.302158 286.633048 
L 294.278509 284.643903 
L 301.254859 282.750546 
L 308.231209 280.700262 
L 315.207559 278.65305 
L 322.183909 276.65858 
L 329.16026 274.686483 
L 336.13661 272.663668 
L 343.11296 270.66874 
L 350.08931 268.716589 
L 357.065661 266.677696 
L 364.042011 264.616665 
L 371.018361 262.616232 
L 377.994711 260.658366 
L 384.971062 258.573666 
L 391.947412 256.488967 
L 398.923762 254.410573 
L 405.900112 252.417646 
L 412.876463 250.438517 
L 419.852813 248.465307 
L 426.829163 246.488256 
L 433.805513 244.535805 
L 440.781864 242.581753 
L 447.758214 240.592218 
L 454.734564 238.606239 
L 461.710914 236.64587 
L 468.687265 234.684853 
L 475.663615 232.723401 
L 482.639965 230.754824 
L 489.616315 228.760097 
L 496.592666 226.765369 
L 503.569016 224.770515 
L 510.545366 222.773563 
L 517.521716 220.776229 
L 524.498067 218.728024 
L 531.474417 216.758294 
L 538.450767 214.791515 
L 545.427117 212.798311 
L 552.403468 210.805107 
L 559.379818 208.811903 
L 566.356168 206.818094 
L 573.332518 204.823367 
L 580.308869 202.854816 
L 587.285219 200.899481 
L 594.261569 198.944146 
L 601.237919 196.988811 
L 608.214269 195.032062 
L 615.19062 193.074463 
L 622.16697 191.116865 
L 629.14332 189.159266 
L 636.11967 187.201668 
L 643.096021 185.161809 
L 650.072371 183.113092 
L 657.048721 181.063731 
L 664.025071 179.013447 
L 671.001422 176.963163 
L 677.977772 174.91288 
L 684.954122 172.891054 
L 691.930472 170.894894 
L 698.906823 168.898733 
L 705.883173 166.902573 
L 712.859523 164.906413 
L 719.835873 162.910253 
L 726.812224 160.914093 
L 733.788574 158.917933 
L 740.764924 156.921773 
L 740.764924 24.59267 
L 740.764924 24.59267 
L 733.788574 28.128553 
L 726.812224 31.664435 
L 719.835873 35.200317 
L 712.859523 38.717373 
L 705.883173 42.226072 
L 698.906823 45.73477 
L 691.930472 49.243469 
L 684.954122 52.752168 
L 677.977772 56.260867 
L 671.001422 59.770218 
L 664.025071 63.27978 
L 657.048721 66.789342 
L 650.072371 70.298903 
L 643.096021 73.808465 
L 636.11967 77.318027 
L 629.14332 80.827588 
L 622.16697 84.33715 
L 615.19062 87.846712 
L 608.214269 91.356274 
L 601.237919 94.865835 
L 594.261569 98.375397 
L 587.285219 101.939817 
L 580.308869 105.51485 
L 573.332518 109.089884 
L 566.356168 112.649162 
L 559.379818 116.11947 
L 552.403468 119.589778 
L 545.427117 123.060086 
L 538.450767 126.530393 
L 531.474417 130.000701 
L 524.498067 133.471009 
L 517.521716 136.961375 
L 510.545366 140.469641 
L 503.569016 144.013858 
L 496.592666 147.570421 
L 489.616315 151.126984 
L 482.639965 154.683547 
L 475.663615 158.24011 
L 468.687265 161.796673 
L 461.710914 165.353236 
L 454.734564 168.83688 
L 447.758214 172.345058 
L 440.781864 175.885581 
L 433.805513 179.426104 
L 426.829163 182.966627 
L 419.852813 186.50715 
L 412.876463 190.047673 
L 405.900112 193.588196 
L 398.923762 197.128719 
L 391.947412 200.669728 
L 384.971062 204.213086 
L 377.994711 207.756443 
L 371.018361 211.2998 
L 364.042011 214.843157 
L 357.065661 218.325609 
L 350.08931 221.686257 
L 343.11296 225.22004 
L 336.13661 228.807047 
L 329.16026 232.39472 
L 322.183909 235.982394 
L 315.207559 239.570067 
L 308.231209 243.136657 
L 301.254859 246.686497 
L 294.278509 250.164099 
L 287.302158 253.6417 
L 280.325808 257.119302 
L 273.349458 260.596904 
L 266.373108 264.02359 
L 259.396757 267.428077 
L 252.420407 270.984032 
L 245.444057 274.476058 
L 238.467707 277.902403 
L 231.491356 281.383159 
L 224.515006 284.815148 
L 217.538656 288.22716 
L 210.562306 291.471829 
L 203.585955 294.814204 
L 196.609605 298.214129 
L 189.633255 301.596972 
L 182.656905 304.979814 
L 175.680554 308.299114 
L 168.704204 311.493172 
L 161.727854 314.709741 
L 154.751504 317.665841 
L 147.775153 320.479938 
L 140.798803 323.094024 
L 133.822453 325.631224 
L 126.846103 328.021996 
L 119.869752 330.37118 
L 112.893402 332.618368 
L 105.917052 334.937684 
L 98.940702 337.202759 
L 91.964351 339.353519 
L 84.988001 341.412934 
L 78.011651 343.445495 
L 71.035301 345.615185 
L 64.05895 347.866243 
L 57.0826 349.969709 
L 50.10625 352.050281 
z
" style="fill:#1f77b4;fill-opacity:0.15;"/>
   </g>
   <g id="PathCollection_2">
    <defs>
     <path d="M 0 3 
C 0.795609 3 1.55874 2.683901 2.12132 2.12132 
C 2.683901 1.55874 3 0.795609 3 0 
C 3 -0.795609 2.683901 -1.55874 2.12132 -2.12132 
C 1.55874 -2.683901 0.795609 -3 0 -3 
C -0.795609 -3 -1.55874 -2.683901 -2.12132 -2.12132 
C -2.683901 -1.55874 -3 -0.795609 -3 0 
C -3 0.795609 -2.683901 1.55874 -2.12132 2.12132 
C -1.55874 2.683901 -0.795609 3 0 3 
z
" id="m15be9561db" style="stroke:#ff7f0e;stroke-opacity:0.8;"/>
    </defs>
    <g clip-path="url(#p130d738283)">
     <use style="fill:#ff7f0e;fill-opacity:0.8;stroke:#ff7f0e;stroke-opacity:0.8;" x="352.687562" xlink:href="#m15be9561db" y="271.37284"/>
     <use style="fill:#ff7f0e;fill-opacity:0.8;stroke:#ff7f0e;stroke-opacity:0.8;" x="188.784304" xlink:href="#m15be9561db" y="311.009235"/>
     <use style="fill:#ff7f0e;fill-opacity:0.8;stroke:#ff7f0e;stroke-opacity:0.8;" x="126.955921" xlink:href="#m15be9561db" y="339.121399"/>
     <use style="fill:#ff7f0e;fill-opacity:0.8;stroke:#ff7f0e;stroke-opacity:0.8;" x="204.887908" xlink:href="#m15be9561db" y="321.209056"/>
     <use style="fill:#ff7f0e;fill-opacity:0.8;stroke:#ff7f0e;stroke-opacity:0.8;" x="286.104001" xlink:href="#m15be9561db" y="289.488723"/>
     <use style="fill:#ff7f0e;fill-opacity:0.8;stroke:#ff7f0e;stroke-opacity:0.8;" x="124.051252" xlink:href="#m15be9561db" y="345.516674"/>
     <use style="fill:#ff7f0e;fill-opacity:0.8;stroke:#ff7f0e;stroke-opacity:0.8;" x="128.729797" xlink:href="#m15be9561db" y="343.525989"/>
     <use style="fill:#ff7f0e;fill-opacity:0.8;stroke:#ff7f0e;stroke-opacity:0.8;" x="96.197871" xlink:href="#m15be9561db" y="341.071759"/>
     <use style="fill:#ff7f0e;fill-opacity:0.8;stroke:#ff7f0e;stroke-opacity:0.8;" x="106.778379" xlink:href="#m15be9561db" y="342.26421"/>
    </g>
   </g>
   <g id="PolyCollection_2">
    <path clip-path="url(#p130d738283)" d="M 50.10625 367.274987 
L 50.10625 367.274987 
L 57.0826 365.075788 
L 64.05895 362.876589 
L 71.035301 360.677391 
L 78.011651 358.478192 
L 84.988001 356.278993 
L 91.964351 354.079795 
L 98.940702 351.880596 
L 105.917052 349.681397 
L 112.893402 347.482198 
L 119.869752 345.283 
L 126.846103 343.083801 
L 133.822453 340.884602 
L 140.798803 338.685403 
L 147.775153 336.486205 
L 154.751504 334.287006 
L 161.727854 332.087807 
L 168.704204 329.888609 
L 175.680554 327.68941 
L 182.656905 325.490211 
L 189.633255 323.291012 
L 196.609605 321.091814 
L 203.585955 318.892615 
L 210.562306 316.693416 
L 217.538656 314.494217 
L 224.515006 312.295019 
L 231.491356 310.09582 
L 238.467707 307.896621 
L 245.444057 305.697423 
L 252.420407 303.498224 
L 259.396757 301.299025 
L 266.373108 299.099826 
L 273.349458 296.900628 
L 280.325808 294.701429 
L 287.302158 292.50223 
L 294.278509 290.303031 
L 301.254859 288.103833 
L 308.231209 285.904634 
L 315.207559 283.705435 
L 322.183909 281.506236 
L 329.16026 279.307038 
L 336.13661 277.107839 
L 343.11296 274.90864 
L 350.08931 272.709442 
L 357.065661 270.510243 
L 364.042011 268.311044 
L 371.018361 266.111845 
L 377.994711 263.912647 
L 384.971062 261.713448 
L 391.947412 259.514249 
L 398.923762 257.31505 
L 405.900112 255.115852 
L 412.876463 252.916653 
L 419.852813 250.717454 
L 426.829163 248.518256 
L 433.805513 246.319057 
L 440.781864 244.119858 
L 447.758214 241.920659 
L 454.734564 239.721461 
L 461.710914 237.522262 
L 468.687265 235.323063 
L 475.663615 233.123864 
L 482.639965 230.924666 
L 489.616315 228.725467 
L 496.592666 226.526268 
L 503.569016 224.32707 
L 510.545366 222.127871 
L 517.521716 219.928672 
L 524.498067 217.729473 
L 531.474417 215.530275 
L 538.450767 213.331076 
L 545.427117 211.131877 
L 552.403468 208.932678 
L 559.379818 206.73348 
L 566.356168 204.534281 
L 573.332518 202.335082 
L 580.308869 200.135883 
L 587.285219 197.936685 
L 594.261569 195.737486 
L 601.237919 193.538287 
L 608.214269 191.339089 
L 615.19062 189.13989 
L 622.16697 186.940691 
L 629.14332 184.741492 
L 636.11967 182.542294 
L 643.096021 180.343095 
L 650.072371 178.143896 
L 657.048721 175.944697 
L 664.025071 173.745499 
L 671.001422 171.5463 
L 677.977772 169.347101 
L 684.954122 167.147903 
L 691.930472 164.948704 
L 698.906823 162.749505 
L 705.883173 160.550306 
L 712.859523 158.351108 
L 719.835873 156.151909 
L 726.812224 153.95271 
L 733.788574 151.753511 
L 740.764924 149.554313 
L 740.764924 149.554313 
L 740.764924 149.554313 
L 733.788574 151.753511 
L 726.812224 153.95271 
L 719.835873 156.151909 
L 712.859523 158.351108 
L 705.883173 160.550306 
L 698.906823 162.749505 
L 691.930472 164.948704 
L 684.954122 167.147903 
L 677.977772 169.347101 
L 671.001422 171.5463 
L 664.025071 173.745499 
L 657.048721 175.944697 
L 650.072371 178.143896 
L 643.096021 180.343095 
L 636.11967 182.542294 
L 629.14332 184.741492 
L 622.16697 186.940691 
L 615.19062 189.13989 
L 608.214269 191.339089 
L 601.237919 193.538287 
L 594.261569 195.737486 
L 587.285219 197.936685 
L 580.308869 200.135883 
L 573.332518 202.335082 
L 566.356168 204.534281 
L 559.379818 206.73348 
L 552.403468 208.932678 
L 545.427117 211.131877 
L 538.450767 213.331076 
L 531.474417 215.530275 
L 524.498067 217.729473 
L 517.521716 219.928672 
L 510.545366 222.127871 
L 503.569016 224.32707 
L 496.592666 226.526268 
L 489.616315 228.725467 
L 482.639965 230.924666 
L 475.663615 233.123864 
L 468.687265 235.323063 
L 461.710914 237.522262 
L 454.734564 239.721461 
L 447.758214 241.920659 
L 440.781864 244.119858 
L 433.805513 246.319057 
L 426.829163 248.518256 
L 419.852813 250.717454 
L 412.876463 252.916653 
L 405.900112 255.115852 
L 398.923762 257.31505 
L 391.947412 259.514249 
L 384.971062 261.713448 
L 377.994711 263.912647 
L 371.018361 266.111845 
L 364.042011 268.311044 
L 357.065661 270.510243 
L 350.08931 272.709442 
L 343.11296 274.90864 
L 336.13661 277.107839 
L 329.16026 279.307038 
L 322.183909 281.506236 
L 315.207559 283.705435 
L 308.231209 285.904634 
L 301.254859 288.103833 
L 294.278509 290.303031 
L 287.302158 292.50223 
L 280.325808 294.701429 
L 273.349458 296.900628 
L 266.373108 299.099826 
L 259.396757 301.299025 
L 252.420407 303.498224 
L 245.444057 305.697423 
L 238.467707 307.896621 
L 231.491356 310.09582 
L 224.515006 312.295019 
L 217.538656 314.494217 
L 210.562306 316.693416 
L 203.585955 318.892615 
L 196.609605 321.091814 
L 189.633255 323.291012 
L 182.656905 325.490211 
L 175.680554 327.68941 
L 168.704204 329.888609 
L 161.727854 332.087807 
L 154.751504 334.287006 
L 147.775153 336.486205 
L 140.798803 338.685403 
L 133.822453 340.884602 
L 126.846103 343.083801 
L 119.869752 345.283 
L 112.893402 347.482198 
L 105.917052 349.681397 
L 98.940702 351.880596 
L 91.964351 354.079795 
L 84.988001 356.278993 
L 78.011651 358.478192 
L 71.035301 360.677391 
L 64.05895 362.876589 
L 57.0826 365.075788 
L 50.10625 367.274987 
z
" style="fill:#ff7f0e;fill-opacity:0.15;"/>
   </g>
   <g id="PathCollection_3">
    <defs>
     <path d="M 0 3 
C 0.795609 3 1.55874 2.683901 2.12132 2.12132 
C 2.683901 1.55874 3 0.795609 3 0 
C 3 -0.795609 2.683901 -1.55874 2.12132 -2.12132 
C 1.55874 -2.683901 0.795609 -3 0 -3 
C -0.795609 -3 -1.55874 -2.683901 -2.12132 -2.12132 
C -2.683901 -1.55874 -3 -0.795609 -3 0 
C -3 0.795609 -2.683901 1.55874 -2.12132 2.12132 
C -1.55874 2.683901 -0.795609 3 0 3 
z
" id="m538de4b5fb" style="stroke:#2ca02c;stroke-opacity:0.8;"/>
    </defs>
    <g clip-path="url(#p130d738283)">
     <use style="fill:#2ca02c;fill-opacity:0.8;stroke:#2ca02c;stroke-opacity:0.8;" x="183.187339" xlink:href="#m538de4b5fb" y="341.209711"/>
     <use style="fill:#2ca02c;fill-opacity:0.8;stroke:#2ca02c;stroke-opacity:0.8;" x="431.387705" xlink:href="#m538de4b5fb" y="306.504292"/>
     <use style="fill:#2ca02c;fill-opacity:0.8;stroke:#2ca02c;stroke-opacity:0.8;" x="132.415315" xlink:href="#m538de4b5fb" y="337.170682"/>
     <use style="fill:#2ca02c;fill-opacity:0.8;stroke:#2ca02c;stroke-opacity:0.8;" x="200.792258" xlink:href="#m538de4b5fb" y="324.481946"/>
     <use style="fill:#2ca02c;fill-opacity:0.8;stroke:#2ca02c;stroke-opacity:0.8;" x="263.573109" xlink:href="#m538de4b5fb" y="351.535403"/>
     <use style="fill:#2ca02c;fill-opacity:0.8;stroke:#2ca02c;stroke-opacity:0.8;" x="266.696493" xlink:href="#m538de4b5fb" y="346.303484"/>
     <use style="fill:#2ca02c;fill-opacity:0.8;stroke:#2ca02c;stroke-opacity:0.8;" x="234.102281" xlink:href="#m538de4b5fb" y="330.0123"/>
     <use style="fill:#2ca02c;fill-opacity:0.8;stroke:#2ca02c;stroke-opacity:0.8;" x="152.685678" xlink:href="#m538de4b5fb" y="337.800863"/>
     <use style="fill:#2ca02c;fill-opacity:0.8;stroke:#2ca02c;stroke-opacity:0.8;" x="185.627135" xlink:href="#m538de4b5fb" y="349.138865"/>
     <use style="fill:#2ca02c;fill-opacity:0.8;stroke:#2ca02c;stroke-opacity:0.8;" x="452.110762" xlink:href="#m538de4b5fb" y="340.433765"/>
     <use style="fill:#2ca02c;fill-opacity:0.8;stroke:#2ca02c;stroke-opacity:0.8;" x="286.431875" xlink:href="#m538de4b5fb" y="297.458047"/>
     <use style="fill:#2ca02c;fill-opacity:0.8;stroke:#2ca02c;stroke-opacity:0.8;" x="609.486935" xlink:href="#m538de4b5fb" y="349.711731"/>
     <use style="fill:#2ca02c;fill-opacity:0.8;stroke:#2ca02c;stroke-opacity:0.8;" x="625.233137" xlink:href="#m538de4b5fb" y="293.125906"/>
     <use style="fill:#2ca02c;fill-opacity:0.8;stroke:#2ca02c;stroke-opacity:0.8;" x="611.391524" xlink:href="#m538de4b5fb" y="254.265856"/>
     <use style="fill:#2ca02c;fill-opacity:0.8;stroke:#2ca02c;stroke-opacity:0.8;" x="296.31755" xlink:href="#m538de4b5fb" y="345.191962"/>
     <use style="fill:#2ca02c;fill-opacity:0.8;stroke:#2ca02c;stroke-opacity:0.8;" x="142.855817" xlink:href="#m538de4b5fb" y="338.702071"/>
     <use style="fill:#2ca02c;fill-opacity:0.8;stroke:#2ca02c;stroke-opacity:0.8;" x="283.695817" xlink:href="#m538de4b5fb" y="346.348529"/>
     <use style="fill:#2ca02c;fill-opacity:0.8;stroke:#2ca02c;stroke-opacity:0.8;" x="137.305482" xlink:href="#m538de4b5fb" y="346.733551"/>
     <use style="fill:#2ca02c;fill-opacity:0.8;stroke:#2ca02c;stroke-opacity:0.8;" x="347.514289" xlink:href="#m538de4b5fb" y="338.603007"/>
     <use style="fill:#2ca02c;fill-opacity:0.8;stroke:#2ca02c;stroke-opacity:0.8;" x="342.455802" xlink:href="#m538de4b5fb" y="338.864329"/>
     <use style="fill:#2ca02c;fill-opacity:0.8;stroke:#2ca02c;stroke-opacity:0.8;" x="164.123403" xlink:href="#m538de4b5fb" y="341.849599"/>
     <use style="fill:#2ca02c;fill-opacity:0.8;stroke:#2ca02c;stroke-opacity:0.8;" x="689.517014" xlink:href="#m538de4b5fb" y="252.320054"/>
     <use style="fill:#2ca02c;fill-opacity:0.8;stroke:#2ca02c;stroke-opacity:0.8;" x="131.689542" xlink:href="#m538de4b5fb" y="343.195799"/>
     <use style="fill:#2ca02c;fill-opacity:0.8;stroke:#2ca02c;stroke-opacity:0.8;" x="168.761274" xlink:href="#m538de4b5fb" y="350.153577"/>
     <use style="fill:#2ca02c;fill-opacity:0.8;stroke:#2ca02c;stroke-opacity:0.8;" x="124.240929" xlink:href="#m538de4b5fb" y="345.649308"/>
     <use style="fill:#2ca02c;fill-opacity:0.8;stroke:#2ca02c;stroke-opacity:0.8;" x="327.259773" xlink:href="#m538de4b5fb" y="340.347052"/>
     <use style="fill:#2ca02c;fill-opacity:0.8;stroke:#2ca02c;stroke-opacity:0.8;" x="354.585022" xlink:href="#m538de4b5fb" y="344.191872"/>
     <use style="fill:#2ca02c;fill-opacity:0.8;stroke:#2ca02c;stroke-opacity:0.8;" x="318.533973" xlink:href="#m538de4b5fb" y="311.488638"/>
     <use style="fill:#2ca02c;fill-opacity:0.8;stroke:#2ca02c;stroke-opacity:0.8;" x="330.40357" xlink:href="#m538de4b5fb" y="324.844337"/>
     <use style="fill:#2ca02c;fill-opacity:0.8;stroke:#2ca02c;stroke-opacity:0.8;" x="286.262023" xlink:href="#m538de4b5fb" y="353.378005"/>
     <use style="fill:#2ca02c;fill-opacity:0.8;stroke:#2ca02c;stroke-opacity:0.8;" x="160.191999" xlink:href="#m538de4b5fb" y="335.944317"/>
     <use style="fill:#2ca02c;fill-opacity:0.8;stroke:#2ca02c;stroke-opacity:0.8;" x="347.821199" xlink:href="#m538de4b5fb" y="309.084963"/>
     <use style="fill:#2ca02c;fill-opacity:0.8;stroke:#2ca02c;stroke-opacity:0.8;" x="151.794654" xlink:href="#m538de4b5fb" y="347.438904"/>
     <use style="fill:#2ca02c;fill-opacity:0.8;stroke:#2ca02c;stroke-opacity:0.8;" x="302.831578" xlink:href="#m538de4b5fb" y="343.536062"/>
     <use style="fill:#2ca02c;fill-opacity:0.8;stroke:#2ca02c;stroke-opacity:0.8;" x="183.631338" xlink:href="#m538de4b5fb" y="352.932994"/>
     <use style="fill:#2ca02c;fill-opacity:0.8;stroke:#2ca02c;stroke-opacity:0.8;" x="311.973237" xlink:href="#m538de4b5fb" y="345.082137"/>
     <use style="fill:#2ca02c;fill-opacity:0.8;stroke:#2ca02c;stroke-opacity:0.8;" x="288.872824" xlink:href="#m538de4b5fb" y="328.852987"/>
     <use style="fill:#2ca02c;fill-opacity:0.8;stroke:#2ca02c;stroke-opacity:0.8;" x="153.212189" xlink:href="#m538de4b5fb" y="347.900763"/>
     <use style="fill:#2ca02c;fill-opacity:0.8;stroke:#2ca02c;stroke-opacity:0.8;" x="255.445383" xlink:href="#m538de4b5fb" y="351.531893"/>
     <use style="fill:#2ca02c;fill-opacity:0.8;stroke:#2ca02c;stroke-opacity:0.8;" x="202.685638" xlink:href="#m538de4b5fb" y="341.21501"/>
     <use style="fill:#2ca02c;fill-opacity:0.8;stroke:#2ca02c;stroke-opacity:0.8;" x="169.53694" xlink:href="#m538de4b5fb" y="354.442397"/>
     <use style="fill:#2ca02c;fill-opacity:0.8;stroke:#2ca02c;stroke-opacity:0.8;" x="317.049856" xlink:href="#m538de4b5fb" y="335.710761"/>
    </g>
   </g>
   <g id="PolyCollection_3">
    <path clip-path="url(#p130d738283)" d="M 50.10625 346.597554 
L 50.10625 369.578065 
L 57.0826 368.535182 
L 64.05895 367.440848 
L 71.035301 366.392817 
L 78.011651 365.339066 
L 84.988001 364.216578 
L 91.964351 363.093733 
L 98.940702 362.042587 
L 105.917052 361.033298 
L 112.893402 360.030102 
L 119.869752 359.178917 
L 126.846103 358.344186 
L 133.822453 357.336068 
L 140.798803 356.414576 
L 147.775153 355.420999 
L 154.751504 354.539745 
L 161.727854 353.395009 
L 168.704204 352.338521 
L 175.680554 351.415746 
L 182.656905 350.526603 
L 189.633255 349.498407 
L 196.609605 348.505349 
L 203.585955 347.477825 
L 210.562306 346.609511 
L 217.538656 345.673593 
L 224.515006 344.820135 
L 231.491356 344.017381 
L 238.467707 343.315833 
L 245.444057 342.701118 
L 252.420407 342.084076 
L 259.396757 341.439239 
L 266.373108 340.948005 
L 273.349458 340.52855 
L 280.325808 340.283044 
L 287.302158 340.055226 
L 294.278509 339.747617 
L 301.254859 339.403138 
L 308.231209 339.11181 
L 315.207559 338.920451 
L 322.183909 338.6401 
L 329.16026 338.378232 
L 336.13661 338.154258 
L 343.11296 337.927079 
L 350.08931 337.698801 
L 357.065661 337.346747 
L 364.042011 337.034533 
L 371.018361 336.874834 
L 377.994711 336.676675 
L 384.971062 336.398606 
L 391.947412 336.073498 
L 398.923762 335.748389 
L 405.900112 335.423281 
L 412.876463 335.171344 
L 419.852813 334.96064 
L 426.829163 334.677006 
L 433.805513 334.386628 
L 440.781864 334.09625 
L 447.758214 333.803217 
L 454.734564 333.510031 
L 461.710914 333.216845 
L 468.687265 332.923658 
L 475.663615 332.687612 
L 482.639965 332.416134 
L 489.616315 332.161996 
L 496.592666 331.920035 
L 503.569016 331.685219 
L 510.545366 331.460315 
L 517.521716 331.235412 
L 524.498067 331.010508 
L 531.474417 330.81329 
L 538.450767 330.597032 
L 545.427117 330.366015 
L 552.403468 330.134998 
L 559.379818 329.903981 
L 566.356168 329.672964 
L 573.332518 329.44314 
L 580.308869 329.21946 
L 587.285219 328.995781 
L 594.261569 328.772102 
L 601.237919 328.548422 
L 608.214269 328.324743 
L 615.19062 328.101064 
L 622.16697 327.877384 
L 629.14332 327.653705 
L 636.11967 327.430026 
L 643.096021 327.206346 
L 650.072371 326.982667 
L 657.048721 326.758988 
L 664.025071 326.535017 
L 671.001422 326.310023 
L 677.977772 326.085029 
L 684.954122 325.860035 
L 691.930472 325.635042 
L 698.906823 325.410048 
L 705.883173 325.185054 
L 712.859523 324.96006 
L 719.835873 324.735067 
L 726.812224 324.510073 
L 733.788574 324.285079 
L 740.764924 324.060086 
L 740.764924 261.856908 
L 740.764924 261.856908 
L 733.788574 262.962723 
L 726.812224 264.068537 
L 719.835873 265.174351 
L 712.859523 266.280166 
L 705.883173 267.38598 
L 698.906823 268.491795 
L 691.930472 269.579822 
L 684.954122 270.613036 
L 677.977772 271.677087 
L 671.001422 272.714283 
L 664.025071 273.75148 
L 657.048721 274.788677 
L 650.072371 275.827011 
L 643.096021 276.926766 
L 636.11967 278.038616 
L 629.14332 279.071819 
L 622.16697 280.097382 
L 615.19062 281.122944 
L 608.214269 282.148507 
L 601.237919 283.174069 
L 594.261569 284.199724 
L 587.285219 285.226105 
L 580.308869 286.269533 
L 573.332518 287.338479 
L 566.356168 288.407425 
L 559.379818 289.476371 
L 552.403468 290.545317 
L 545.427117 291.586112 
L 538.450767 292.591593 
L 531.474417 293.597914 
L 524.498067 294.72697 
L 517.521716 295.787131 
L 510.545366 296.865033 
L 503.569016 297.964759 
L 496.592666 299.066165 
L 489.616315 300.16757 
L 482.639965 301.246501 
L 475.663615 302.314803 
L 468.687265 303.334104 
L 461.710914 304.353405 
L 454.734564 305.440138 
L 447.758214 306.53011 
L 440.781864 307.620082 
L 433.805513 308.707691 
L 426.829163 309.750298 
L 419.852813 310.792904 
L 412.876463 311.80682 
L 405.900112 312.842046 
L 398.923762 313.883287 
L 391.947412 314.860595 
L 384.971062 315.837902 
L 377.994711 316.928446 
L 371.018361 317.86692 
L 364.042011 318.915451 
L 357.065661 320.019432 
L 350.08931 321.040619 
L 343.11296 322.013869 
L 336.13661 322.983605 
L 329.16026 324.002625 
L 322.183909 324.948578 
L 315.207559 325.967436 
L 308.231209 326.917707 
L 301.254859 327.861399 
L 294.278509 328.777809 
L 287.302158 329.789189 
L 280.325808 330.839274 
L 273.349458 331.844069 
L 266.373108 332.868087 
L 259.396757 333.857135 
L 252.420407 334.678165 
L 245.444057 335.657966 
L 238.467707 336.500144 
L 231.491356 337.399966 
L 224.515006 338.154702 
L 217.538656 338.797435 
L 210.562306 339.415565 
L 203.585955 339.908895 
L 196.609605 340.378883 
L 189.633255 340.924207 
L 182.656905 341.319084 
L 175.680554 341.793545 
L 168.704204 342.173426 
L 161.727854 342.508069 
L 154.751504 342.816943 
L 147.775153 343.093513 
L 140.798803 343.366329 
L 133.822453 343.650161 
L 126.846103 343.957352 
L 119.869752 344.208738 
L 112.893402 344.42102 
L 105.917052 344.744991 
L 98.940702 344.977953 
L 91.964351 345.20774 
L 84.988001 345.437528 
L 78.011651 345.667875 
L 71.035301 345.8994 
L 64.05895 346.130925 
L 57.0826 346.363501 
L 50.10625 346.597554 
z
" style="fill:#2ca02c;fill-opacity:0.15;"/>
   </g>
   <g id="line2d_27">
    <path clip-path="url(#p130d738283)" d="M 50.10625 361.817764 
L 57.0826 359.196888 
L 64.05895 356.576013 
L 71.035301 353.955138 
L 78.011651 351.334262 
L 84.988001 348.713387 
L 91.964351 346.092511 
L 98.940702 343.471636 
L 105.917052 340.85076 
L 112.893402 338.229885 
L 119.869752 335.60901 
L 126.846103 332.988134 
L 133.822453 330.367259 
L 140.798803 327.746383 
L 147.775153 325.125508 
L 154.751504 322.504633 
L 161.727854 319.883757 
L 168.704204 317.262882 
L 175.680554 314.642006 
L 182.656905 312.021131 
L 189.633255 309.400255 
L 196.609605 306.77938 
L 203.585955 304.158505 
L 210.562306 301.537629 
L 217.538656 298.916754 
L 224.515006 296.295878 
L 231.491356 293.675003 
L 238.467707 291.054128 
L 245.444057 288.433252 
L 252.420407 285.812377 
L 259.396757 283.191501 
L 266.373108 280.570626 
L 273.349458 277.94975 
L 280.325808 275.328875 
L 287.302158 272.708 
L 294.278509 270.087124 
L 301.254859 267.466249 
L 308.231209 264.845373 
L 315.207559 262.224498 
L 322.183909 259.603623 
L 329.16026 256.982747 
L 336.13661 254.361872 
L 343.11296 251.740996 
L 350.08931 249.120121 
L 357.065661 246.499245 
L 364.042011 243.87837 
L 371.018361 241.257495 
L 377.994711 238.636619 
L 384.971062 236.015744 
L 391.947412 233.394868 
L 398.923762 230.773993 
L 405.900112 228.153118 
L 412.876463 225.532242 
L 419.852813 222.911367 
L 426.829163 220.290491 
L 433.805513 217.669616 
L 440.781864 215.04874 
L 447.758214 212.427865 
L 454.734564 209.80699 
L 461.710914 207.186114 
L 468.687265 204.565239 
L 475.663615 201.944363 
L 482.639965 199.323488 
L 489.616315 196.702613 
L 496.592666 194.081737 
L 503.569016 191.460862 
L 510.545366 188.839986 
L 517.521716 186.219111 
L 524.498067 183.598235 
L 531.474417 180.97736 
L 538.450767 178.356485 
L 545.427117 175.735609 
L 552.403468 173.114734 
L 559.379818 170.493858 
L 566.356168 167.872983 
L 573.332518 165.252108 
L 580.308869 162.631232 
L 587.285219 160.010357 
L 594.261569 157.389481 
L 601.237919 154.768606 
L 608.214269 152.14773 
L 615.19062 149.526855 
L 622.16697 146.90598 
L 629.14332 144.285104 
L 636.11967 141.664229 
L 643.096021 139.043353 
L 650.072371 136.422478 
L 657.048721 133.801603 
L 664.025071 131.180727 
L 671.001422 128.559852 
L 677.977772 125.938976 
L 684.954122 123.318101 
L 691.930472 120.697225 
L 698.906823 118.07635 
L 705.883173 115.455475 
L 712.859523 112.834599 
L 719.835873 110.213724 
L 726.812224 107.592848 
L 733.788574 104.971973 
L 740.764924 102.351097 
" style="fill:none;stroke:#1f77b4;stroke-linecap:round;stroke-width:2.25;"/>
   </g>
   <g id="line2d_28">
    <path clip-path="url(#p130d738283)" d="M 50.10625 367.274987 
L 57.0826 365.075788 
L 64.05895 362.876589 
L 71.035301 360.677391 
L 78.011651 358.478192 
L 84.988001 356.278993 
L 91.964351 354.079795 
L 98.940702 351.880596 
L 105.917052 349.681397 
L 112.893402 347.482198 
L 119.869752 345.283 
L 126.846103 343.083801 
L 133.822453 340.884602 
L 140.798803 338.685403 
L 147.775153 336.486205 
L 154.751504 334.287006 
L 161.727854 332.087807 
L 168.704204 329.888609 
L 175.680554 327.68941 
L 182.656905 325.490211 
L 189.633255 323.291012 
L 196.609605 321.091814 
L 203.585955 318.892615 
L 210.562306 316.693416 
L 217.538656 314.494217 
L 224.515006 312.295019 
L 231.491356 310.09582 
L 238.467707 307.896621 
L 245.444057 305.697423 
L 252.420407 303.498224 
L 259.396757 301.299025 
L 266.373108 299.099826 
L 273.349458 296.900628 
L 280.325808 294.701429 
L 287.302158 292.50223 
L 294.278509 290.303031 
L 301.254859 288.103833 
L 308.231209 285.904634 
L 315.207559 283.705435 
L 322.183909 281.506236 
L 329.16026 279.307038 
L 336.13661 277.107839 
L 343.11296 274.90864 
L 350.08931 272.709442 
L 357.065661 270.510243 
L 364.042011 268.311044 
L 371.018361 266.111845 
L 377.994711 263.912647 
L 384.971062 261.713448 
L 391.947412 259.514249 
L 398.923762 257.31505 
L 405.900112 255.115852 
L 412.876463 252.916653 
L 419.852813 250.717454 
L 426.829163 248.518256 
L 433.805513 246.319057 
L 440.781864 244.119858 
L 447.758214 241.920659 
L 454.734564 239.721461 
L 461.710914 237.522262 
L 468.687265 235.323063 
L 475.663615 233.123864 
L 482.639965 230.924666 
L 489.616315 228.725467 
L 496.592666 226.526268 
L 503.569016 224.32707 
L 510.545366 222.127871 
L 517.521716 219.928672 
L 524.498067 217.729473 
L 531.474417 215.530275 
L 538.450767 213.331076 
L 545.427117 211.131877 
L 552.403468 208.932678 
L 559.379818 206.73348 
L 566.356168 204.534281 
L 573.332518 202.335082 
L 580.308869 200.135883 
L 587.285219 197.936685 
L 594.261569 195.737486 
L 601.237919 193.538287 
L 608.214269 191.339089 
L 615.19062 189.13989 
L 622.16697 186.940691 
L 629.14332 184.741492 
L 636.11967 182.542294 
L 643.096021 180.343095 
L 650.072371 178.143896 
L 657.048721 175.944697 
L 664.025071 173.745499 
L 671.001422 171.5463 
L 677.977772 169.347101 
L 684.954122 167.147903 
L 691.930472 164.948704 
L 698.906823 162.749505 
L 705.883173 160.550306 
L 712.859523 158.351108 
L 719.835873 156.151909 
L 726.812224 153.95271 
L 733.788574 151.753511 
L 740.764924 149.554313 
" style="fill:none;stroke:#ff7f0e;stroke-linecap:round;stroke-width:2.25;"/>
   </g>
   <g id="line2d_29">
    <path clip-path="url(#p130d738283)" d="M 50.10625 359.723897 
L 57.0826 358.99001 
L 64.05895 358.256124 
L 71.035301 357.522237 
L 78.011651 356.78835 
L 84.988001 356.054463 
L 91.964351 355.320577 
L 98.940702 354.58669 
L 105.917052 353.852803 
L 112.893402 353.118917 
L 119.869752 352.38503 
L 126.846103 351.651143 
L 133.822453 350.917256 
L 140.798803 350.18337 
L 147.775153 349.449483 
L 154.751504 348.715596 
L 161.727854 347.98171 
L 168.704204 347.247823 
L 175.680554 346.513936 
L 182.656905 345.780049 
L 189.633255 345.046163 
L 196.609605 344.312276 
L 203.585955 343.578389 
L 210.562306 342.844503 
L 217.538656 342.110616 
L 224.515006 341.376729 
L 231.491356 340.642842 
L 238.467707 339.908956 
L 245.444057 339.175069 
L 252.420407 338.441182 
L 259.396757 337.707295 
L 266.373108 336.973409 
L 273.349458 336.239522 
L 280.325808 335.505635 
L 287.302158 334.771749 
L 294.278509 334.037862 
L 301.254859 333.303975 
L 308.231209 332.570088 
L 315.207559 331.836202 
L 322.183909 331.102315 
L 329.16026 330.368428 
L 336.13661 329.634542 
L 343.11296 328.900655 
L 350.08931 328.166768 
L 357.065661 327.432881 
L 364.042011 326.698995 
L 371.018361 325.965108 
L 377.994711 325.231221 
L 384.971062 324.497335 
L 391.947412 323.763448 
L 398.923762 323.029561 
L 405.900112 322.295674 
L 412.876463 321.561788 
L 419.852813 320.827901 
L 426.829163 320.094014 
L 433.805513 319.360128 
L 440.781864 318.626241 
L 447.758214 317.892354 
L 454.734564 317.158467 
L 461.710914 316.424581 
L 468.687265 315.690694 
L 475.663615 314.956807 
L 482.639965 314.22292 
L 489.616315 313.489034 
L 496.592666 312.755147 
L 503.569016 312.02126 
L 510.545366 311.287374 
L 517.521716 310.553487 
L 524.498067 309.8196 
L 531.474417 309.085713 
L 538.450767 308.351827 
L 545.427117 307.61794 
L 552.403468 306.884053 
L 559.379818 306.150167 
L 566.356168 305.41628 
L 573.332518 304.682393 
L 580.308869 303.948506 
L 587.285219 303.21462 
L 594.261569 302.480733 
L 601.237919 301.746846 
L 608.214269 301.01296 
L 615.19062 300.279073 
L 622.16697 299.545186 
L 629.14332 298.811299 
L 636.11967 298.077413 
L 643.096021 297.343526 
L 650.072371 296.609639 
L 657.048721 295.875753 
L 664.025071 295.141866 
L 671.001422 294.407979 
L 677.977772 293.674092 
L 684.954122 292.940206 
L 691.930472 292.206319 
L 698.906823 291.472432 
L 705.883173 290.738545 
L 712.859523 290.004659 
L 719.835873 289.270772 
L 726.812224 288.536885 
L 733.788574 287.802999 
L 740.764924 287.069112 
" style="fill:none;stroke:#2ca02c;stroke-linecap:round;stroke-width:2.25;"/>
   </g>
   <g id="patch_3">
    <path d="M 50.10625 389.83875 
L 50.10625 7.2 
" style="fill:none;"/>
   </g>
   <g id="patch_4">
    <path d="M 50.10625 389.83875 
L 740.764924 389.83875 
" style="fill:none;"/>
   </g>
  </g>
  <g id="legend_1">
   <g id="text_16">
    <!-- Net -->
    <defs>
     <path d="M 9.8125 72.90625 
L 23.09375 72.90625 
L 55.421875 11.921875 
L 55.421875 72.90625 
L 64.984375 72.90625 
L 64.984375 0 
L 51.703125 0 
L 19.390625 60.984375 
L 19.390625 0 
L 9.8125 0 
z
" id="DejaVuSans-4e"/>
    </defs>
    <g style="fill:#262626;" transform="translate(760.121424 192.82875)scale(0.1 -0.1)">
     <use xlink:href="#DejaVuSans-4e"/>
     <use x="74.804688" xlink:href="#DejaVuSans-65"/>
     <use x="136.328125" xlink:href="#DejaVuSans-74"/>
    </g>
   </g>
   <g id="PathCollection_4">
    <g>
     <use style="fill:#1f77b4;fill-opacity:0.8;stroke:#1f77b4;stroke-opacity:0.8;" x="759.913612" xlink:href="#md0707d96fe" y="204.881875"/>
    </g>
   </g>
   <g id="text_17">
    <!-- -1 -->
    <defs>
     <path d="M 4.890625 31.390625 
L 31.203125 31.390625 
L 31.203125 23.390625 
L 4.890625 23.390625 
z
" id="DejaVuSans-2d"/>
    </defs>
    <g style="fill:#262626;" transform="translate(777.913612 207.506875)scale(0.1 -0.1)">
     <use xlink:href="#DejaVuSans-2d"/>
     <use x="36.083984" xlink:href="#DejaVuSans-31"/>
    </g>
   </g>
   <g id="PathCollection_5">
    <g>
     <use style="fill:#ff7f0e;fill-opacity:0.8;stroke:#ff7f0e;stroke-opacity:0.8;" x="759.913612" xlink:href="#m15be9561db" y="219.56"/>
    </g>
   </g>
   <g id="text_18">
    <!-- 0 -->
    <g style="fill:#262626;" transform="translate(777.913612 222.185)scale(0.1 -0.1)">
     <use xlink:href="#DejaVuSans-30"/>
    </g>
   </g>
   <g id="PathCollection_6">
    <g>
     <use style="fill:#2ca02c;fill-opacity:0.8;stroke:#2ca02c;stroke-opacity:0.8;" x="759.913612" xlink:href="#m538de4b5fb" y="234.238125"/>
    </g>
   </g>
   <g id="text_19">
    <!-- 1 -->
    <g style="fill:#262626;" transform="translate(777.913612 236.863125)scale(0.1 -0.1)">
     <use xlink:href="#DejaVuSans-31"/>
    </g>
   </g>
  </g>
 </g>
 <defs>
  <clipPath id="p130d738283">
   <rect height="382.63875" width="690.658674" x="50.10625" y="7.2"/>
  </clipPath>
 </defs>
</svg>
